<?xml version="1.0" encoding="UTF-8" standalone="no"?>
<!DOCTYPE svg PUBLIC "-//W3C//DTD SVG 1.1//EN"
 "http://www.w3.org/Graphics/SVG/1.1/DTD/svg11.dtd">
<!-- Generated by graphviz version 2.38.0 (20140413.2041)
 -->
<!-- Title: core_pulptemporaryfile Pages: 1 -->
<svg width="294pt" height="148pt"
 viewBox="0.00 0.00 294.00 148.00" xmlns="http://www.w3.org/2000/svg" xmlns:xlink="http://www.w3.org/1999/xlink">
<g id="graph0" class="graph" transform="scale(1 1) rotate(0) translate(4 144)">
<title>core_pulptemporaryfile</title>
<polygon fill="#ffffff" stroke="none" points="-4,4 -4,-144 290,-144 290,4 -4,4"/>
<!-- core_pulptemporaryfile -->
<g id="node1" class="node"><title>core_pulptemporaryfile</title>
<g id="a_node1"><a xlink:href="../../tables/core_pulptemporaryfile.html" xlink:title="core_pulptemporaryfile" target="_top">
<polygon fill="#ffffff" stroke="none" points="8,-4 8,-136 278,-136 278,-4 8,-4"/>
<polygon fill="#f5f5f5" stroke="none" points="10,-112 10,-134 276,-134 276,-112 10,-112"/>
<polygon fill="none" stroke="black" points="10,-112 10,-134 276,-134 276,-112 10,-112"/>
<text text-anchor="start" x="15" y="-121.2" font-family="Helvetica,sans-Serif" font-weight="bold" font-size="11.00">core_pulptemporaryfile</text>
<text text-anchor="start" x="237" y="-120.2" font-family="Helvetica,sans-Serif" font-size="11.00">[table]</text>
<polygon fill="none" stroke="black" points="10,-90 10,-112 171,-112 171,-90 10,-90"/>
<image xlink:href="../../images/primaryKeys.png" width="11px" height="12px" preserveAspectRatio="xMinYMin meet" x="15" y="-107"/>
<text text-anchor="start" x="30" y="-98.2" font-family="Helvetica,sans-Serif" font-size="11.00">pulp_id</text>
<polygon fill="none" stroke="black" points="171,-90 171,-112 276,-112 276,-90 171,-90"/>
<text text-anchor="start" x="174" y="-98.2" font-family="Helvetica,sans-Serif" font-size="11.00">uuid[2147483647]</text>
<polygon fill="none" stroke="black" points="10,-68 10,-90 171,-90 171,-68 10,-68"/>
<text text-anchor="start" x="30" y="-76.2" font-family="Helvetica,sans-Serif" font-size="11.00">pulp_created</text>
<polygon fill="none" stroke="black" points="171,-68 171,-90 276,-90 276,-68 171,-68"/>
<text text-anchor="start" x="174" y="-76.2" font-family="Helvetica,sans-Serif" font-size="11.00">timestamptz[35,6]</text>
<polygon fill="none" stroke="black" points="10,-46 10,-68 171,-68 171,-46 10,-46"/>
<text text-anchor="start" x="30" y="-54.2" font-family="Helvetica,sans-Serif" font-size="11.00">pulp_last_updated</text>
<polygon fill="none" stroke="black" points="171,-46 171,-68 276,-68 276,-46 171,-46"/>
<text text-anchor="start" x="174" y="-54.2" font-family="Helvetica,sans-Serif" font-size="11.00">timestamptz[35,6]</text>
<polygon fill="none" stroke="black" points="10,-24 10,-46 171,-46 171,-24 10,-24"/>
<text text-anchor="start" x="30" y="-32.2" font-family="Helvetica,sans-Serif" font-size="11.00">file</text>
<polygon fill="none" stroke="black" points="171,-24 171,-46 276,-46 276,-24 171,-24"/>
<text text-anchor="start" x="174" y="-32.2" font-family="Helvetica,sans-Serif" font-size="11.00">varchar[255]</text>
<polygon fill="#ffffff" stroke="none" points="10,-6 10,-24 81,-24 81,-6 10,-6"/>
<polygon fill="none" stroke="black" points="10,-6 10,-24 81,-24 81,-6 10,-6"/>
<text text-anchor="start" x="13" y="-12.2" font-family="Helvetica,sans-Serif" font-size="11.00">&lt; 0</text>
<polygon fill="#ffffff" stroke="none" points="81,-6 81,-24 171,-24 171,-6 81,-6"/>
<polygon fill="none" stroke="black" points="81,-6 81,-24 171,-24 171,-6 81,-6"/>
<text text-anchor="start" x="132" y="-12.2" font-family="Helvetica,sans-Serif" font-size="11.00">9 rows</text>
<polygon fill="#ffffff" stroke="none" points="171,-6 171,-24 276,-24 276,-6 171,-6"/>
<polygon fill="none" stroke="black" points="171,-6 171,-24 276,-24 276,-6 171,-6"/>
<text text-anchor="start" x="256" y="-12.2" font-family="Helvetica,sans-Serif" font-size="11.00">0 &gt;</text>
<polygon fill="none" stroke="black" stroke-width="2" points="9,-5 9,-135 277,-135 277,-5 9,-5"/>
</a>
</g>
</g>
</g>
</svg>
