<?xml version="1.0" encoding="UTF-8" standalone="no"?>
<!DOCTYPE svg PUBLIC "-//W3C//DTD SVG 1.1//EN"
 "http://www.w3.org/Graphics/SVG/1.1/DTD/svg11.dtd">
<!-- Generated by graphviz version 2.38.0 (20140413.2041)
 -->
<!-- Title: core_contentappstatus Pages: 1 -->
<svg width="291pt" height="170pt"
 viewBox="0.00 0.00 291.00 170.00" xmlns="http://www.w3.org/2000/svg" xmlns:xlink="http://www.w3.org/1999/xlink">
<g id="graph0" class="graph" transform="scale(1 1) rotate(0) translate(4 166)">
<title>core_contentappstatus</title>
<polygon fill="#ffffff" stroke="none" points="-4,4 -4,-166 287,-166 287,4 -4,4"/>
<!-- core_contentappstatus -->
<g id="node1" class="node"><title>core_contentappstatus</title>
<g id="a_node1"><a xlink:href="../../tables/core_contentappstatus.html" xlink:title="core_contentappstatus" target="_top">
<polygon fill="#ffffff" stroke="none" points="8,-4 8,-158 275,-158 275,-4 8,-4"/>
<polygon fill="#f5f5f5" stroke="none" points="10.5,-134 10.5,-156 273.5,-156 273.5,-134 10.5,-134"/>
<polygon fill="none" stroke="black" points="10.5,-134 10.5,-156 273.5,-156 273.5,-134 10.5,-134"/>
<text text-anchor="start" x="15.5" y="-143.2" font-family="Helvetica,sans-Serif" font-weight="bold" font-size="11.00">core_contentappstatus</text>
<text text-anchor="start" x="234.5" y="-142.2" font-family="Helvetica,sans-Serif" font-size="11.00">[table]</text>
<polygon fill="none" stroke="black" points="10.5,-112 10.5,-134 168.5,-134 168.5,-112 10.5,-112"/>
<image xlink:href="../../images/primaryKeys.png" width="11px" height="12px" preserveAspectRatio="xMinYMin meet" x="15.5" y="-129"/>
<text text-anchor="start" x="30.5" y="-120.2" font-family="Helvetica,sans-Serif" font-size="11.00">pulp_id</text>
<polygon fill="none" stroke="black" points="168.5,-112 168.5,-134 273.5,-134 273.5,-112 168.5,-112"/>
<text text-anchor="start" x="171.5" y="-120.2" font-family="Helvetica,sans-Serif" font-size="11.00">uuid[2147483647]</text>
<polygon fill="none" stroke="black" points="10.5,-90 10.5,-112 168.5,-112 168.5,-90 10.5,-90"/>
<text text-anchor="start" x="30.5" y="-98.2" font-family="Helvetica,sans-Serif" font-size="11.00">pulp_created</text>
<polygon fill="none" stroke="black" points="168.5,-90 168.5,-112 273.5,-112 273.5,-90 168.5,-90"/>
<text text-anchor="start" x="171.5" y="-98.2" font-family="Helvetica,sans-Serif" font-size="11.00">timestamptz[35,6]</text>
<polygon fill="none" stroke="black" points="10.5,-68 10.5,-90 168.5,-90 168.5,-68 10.5,-68"/>
<text text-anchor="start" x="30.5" y="-76.2" font-family="Helvetica,sans-Serif" font-size="11.00">pulp_last_updated</text>
<polygon fill="none" stroke="black" points="168.5,-68 168.5,-90 273.5,-90 273.5,-68 168.5,-68"/>
<text text-anchor="start" x="171.5" y="-76.2" font-family="Helvetica,sans-Serif" font-size="11.00">timestamptz[35,6]</text>
<polygon fill="#ffffff" stroke="none" points="10.5,-46 10.5,-68 168.5,-68 168.5,-46 10.5,-46"/>
<polygon fill="none" stroke="black" points="10.5,-46 10.5,-68 168.5,-68 168.5,-46 10.5,-46"/>
<text text-anchor="start" x="30.5" y="-54.2" font-family="Helvetica,sans-Serif" font-size="11.00">name</text>
<polygon fill="none" stroke="black" points="168.5,-46 168.5,-68 273.5,-68 273.5,-46 168.5,-46"/>
<text text-anchor="start" x="171.5" y="-54.2" font-family="Helvetica,sans-Serif" font-size="11.00">text[2147483647]</text>
<polygon fill="none" stroke="black" points="10.5,-24 10.5,-46 168.5,-46 168.5,-24 10.5,-24"/>
<text text-anchor="start" x="30.5" y="-32.2" font-family="Helvetica,sans-Serif" font-size="11.00">last_heartbeat</text>
<polygon fill="none" stroke="black" points="168.5,-24 168.5,-46 273.5,-46 273.5,-24 168.5,-24"/>
<text text-anchor="start" x="171.5" y="-32.2" font-family="Helvetica,sans-Serif" font-size="11.00">timestamptz[35,6]</text>
<polygon fill="#ffffff" stroke="none" points="10.5,-6 10.5,-24 73.5,-24 73.5,-6 10.5,-6"/>
<polygon fill="none" stroke="black" points="10.5,-6 10.5,-24 73.5,-24 73.5,-6 10.5,-6"/>
<text text-anchor="start" x="13.5" y="-12.2" font-family="Helvetica,sans-Serif" font-size="11.00">&lt; 0</text>
<polygon fill="#ffffff" stroke="none" points="73.5,-6 73.5,-24 168.5,-24 168.5,-6 73.5,-6"/>
<polygon fill="none" stroke="black" points="73.5,-6 73.5,-24 168.5,-24 168.5,-6 73.5,-6"/>
<text text-anchor="start" x="116.5" y="-12.2" font-family="Helvetica,sans-Serif" font-size="11.00">658 rows</text>
<polygon fill="#ffffff" stroke="none" points="168.5,-6 168.5,-24 273.5,-24 273.5,-6 168.5,-6"/>
<polygon fill="none" stroke="black" points="168.5,-6 168.5,-24 273.5,-24 273.5,-6 168.5,-6"/>
<text text-anchor="start" x="253.5" y="-12.2" font-family="Helvetica,sans-Serif" font-size="11.00">0 &gt;</text>
<polygon fill="none" stroke="black" stroke-width="2" points="9,-5 9,-157 274,-157 274,-5 9,-5"/>
</a>
</g>
</g>
</g>
</svg>
