<?xml version="1.0" encoding="UTF-8" standalone="no"?>
<!DOCTYPE svg PUBLIC "-//W3C//DTD SVG 1.1//EN"
 "http://www.w3.org/Graphics/SVG/1.1/DTD/svg11.dtd">
<!-- Generated by graphviz version 2.38.0 (20140413.2041)
 -->
<!-- Title: core_accesspolicy Pages: 1 -->
<svg width="305pt" height="192pt"
 viewBox="0.00 0.00 305.00 192.00" xmlns="http://www.w3.org/2000/svg" xmlns:xlink="http://www.w3.org/1999/xlink">
<g id="graph0" class="graph" transform="scale(1 1) rotate(0) translate(4 188)">
<title>core_accesspolicy</title>
<polygon fill="#ffffff" stroke="none" points="-4,4 -4,-188 301,-188 301,4 -4,4"/>
<!-- core_accesspolicy -->
<g id="node1" class="node"><title>core_accesspolicy</title>
<g id="a_node1"><a xlink:href="../../tables/core_accesspolicy.html" xlink:title="core_accesspolicy" target="_top">
<polygon fill="#ffffff" stroke="none" points="8,-4 8,-180 289,-180 289,-4 8,-4"/>
<polygon fill="#f5f5f5" stroke="none" points="10.5,-156 10.5,-178 287.5,-178 287.5,-156 10.5,-156"/>
<polygon fill="none" stroke="black" points="10.5,-156 10.5,-178 287.5,-178 287.5,-156 10.5,-156"/>
<text text-anchor="start" x="15.5" y="-165.2" font-family="Helvetica,sans-Serif" font-weight="bold" font-size="11.00">core_accesspolicy</text>
<text text-anchor="start" x="248.5" y="-164.2" font-family="Helvetica,sans-Serif" font-size="11.00">[table]</text>
<polygon fill="none" stroke="black" points="10.5,-134 10.5,-156 177.5,-156 177.5,-134 10.5,-134"/>
<image xlink:href="../../images/primaryKeys.png" width="11px" height="12px" preserveAspectRatio="xMinYMin meet" x="15.5" y="-151"/>
<text text-anchor="start" x="30.5" y="-142.2" font-family="Helvetica,sans-Serif" font-size="11.00">pulp_id</text>
<polygon fill="none" stroke="black" points="177.5,-134 177.5,-156 287.5,-156 287.5,-134 177.5,-134"/>
<text text-anchor="start" x="180.5" y="-142.2" font-family="Helvetica,sans-Serif" font-size="11.00">uuid[2147483647]</text>
<polygon fill="none" stroke="black" points="10.5,-112 10.5,-134 177.5,-134 177.5,-112 10.5,-112"/>
<text text-anchor="start" x="30.5" y="-120.2" font-family="Helvetica,sans-Serif" font-size="11.00">pulp_created</text>
<polygon fill="none" stroke="black" points="177.5,-112 177.5,-134 287.5,-134 287.5,-112 177.5,-112"/>
<text text-anchor="start" x="180.5" y="-120.2" font-family="Helvetica,sans-Serif" font-size="11.00">timestamptz[35,6]</text>
<polygon fill="none" stroke="black" points="10.5,-90 10.5,-112 177.5,-112 177.5,-90 10.5,-90"/>
<text text-anchor="start" x="30.5" y="-98.2" font-family="Helvetica,sans-Serif" font-size="11.00">pulp_last_updated</text>
<polygon fill="none" stroke="black" points="177.5,-90 177.5,-112 287.5,-112 287.5,-90 177.5,-90"/>
<text text-anchor="start" x="180.5" y="-98.2" font-family="Helvetica,sans-Serif" font-size="11.00">timestamptz[35,6]</text>
<polygon fill="none" stroke="black" points="10.5,-68 10.5,-90 177.5,-90 177.5,-68 10.5,-68"/>
<text text-anchor="start" x="30.5" y="-76.2" font-family="Helvetica,sans-Serif" font-size="11.00">statements</text>
<polygon fill="none" stroke="black" points="177.5,-68 177.5,-90 287.5,-90 287.5,-68 177.5,-68"/>
<text text-anchor="start" x="180.5" y="-76.2" font-family="Helvetica,sans-Serif" font-size="11.00">jsonb[2147483647]</text>
<polygon fill="#ffffff" stroke="none" points="10.5,-46 10.5,-68 177.5,-68 177.5,-46 10.5,-46"/>
<polygon fill="none" stroke="black" points="10.5,-46 10.5,-68 177.5,-68 177.5,-46 10.5,-46"/>
<text text-anchor="start" x="30.5" y="-54.2" font-family="Helvetica,sans-Serif" font-size="11.00">viewset_name</text>
<polygon fill="none" stroke="black" points="177.5,-46 177.5,-68 287.5,-68 287.5,-46 177.5,-46"/>
<text text-anchor="start" x="180.5" y="-54.2" font-family="Helvetica,sans-Serif" font-size="11.00">varchar[128]</text>
<polygon fill="none" stroke="black" points="10.5,-24 10.5,-46 177.5,-46 177.5,-24 10.5,-24"/>
<text text-anchor="start" x="30.5" y="-32.2" font-family="Helvetica,sans-Serif" font-size="11.00">permissions_assignment</text>
<polygon fill="none" stroke="black" points="177.5,-24 177.5,-46 287.5,-46 287.5,-24 177.5,-24"/>
<text text-anchor="start" x="180.5" y="-32.2" font-family="Helvetica,sans-Serif" font-size="11.00">jsonb[2147483647]</text>
<polygon fill="#ffffff" stroke="none" points="10.5,-6 10.5,-24 86.5,-24 86.5,-6 10.5,-6"/>
<polygon fill="none" stroke="black" points="10.5,-6 10.5,-24 86.5,-24 86.5,-6 10.5,-6"/>
<text text-anchor="start" x="13.5" y="-12.2" font-family="Helvetica,sans-Serif" font-size="11.00">&lt; 0</text>
<polygon fill="#ffffff" stroke="none" points="86.5,-6 86.5,-24 177.5,-24 177.5,-6 86.5,-6"/>
<polygon fill="none" stroke="black" points="86.5,-6 86.5,-24 177.5,-24 177.5,-6 86.5,-6"/>
<text text-anchor="start" x="143.5" y="-12.2" font-family="Helvetica,sans-Serif" font-size="11.00">1 row</text>
<polygon fill="#ffffff" stroke="none" points="177.5,-6 177.5,-24 287.5,-24 287.5,-6 177.5,-6"/>
<polygon fill="none" stroke="black" points="177.5,-6 177.5,-24 287.5,-24 287.5,-6 177.5,-6"/>
<text text-anchor="start" x="267.5" y="-12.2" font-family="Helvetica,sans-Serif" font-size="11.00">0 &gt;</text>
<polygon fill="none" stroke="black" stroke-width="2" points="9,-5 9,-179 288,-179 288,-5 9,-5"/>
</a>
</g>
</g>
</g>
</svg>
