<?xml version="1.0" encoding="UTF-8" standalone="no"?>
<!DOCTYPE svg PUBLIC "-//W3C//DTD SVG 1.1//EN"
 "http://www.w3.org/Graphics/SVG/1.1/DTD/svg11.dtd">
<!-- Generated by graphviz version 2.38.0 (20140413.2041)
 -->
<!-- Title: django_migrations Pages: 1 -->
<svg width="261pt" height="148pt"
 viewBox="0.00 0.00 261.00 148.00" xmlns="http://www.w3.org/2000/svg" xmlns:xlink="http://www.w3.org/1999/xlink">
<g id="graph0" class="graph" transform="scale(1 1) rotate(0) translate(4 144)">
<title>django_migrations</title>
<polygon fill="#ffffff" stroke="none" points="-4,4 -4,-144 257,-144 257,4 -4,4"/>
<!-- django_migrations -->
<g id="node1" class="node"><title>django_migrations</title>
<g id="a_node1"><a xlink:href="../../tables/django_migrations.html" xlink:title="django_migrations" target="_top">
<polygon fill="#ffffff" stroke="none" points="8,-4 8,-136 245,-136 245,-4 8,-4"/>
<polygon fill="#f5f5f5" stroke="none" points="10.5,-112 10.5,-134 243.5,-134 243.5,-112 10.5,-112"/>
<polygon fill="none" stroke="black" points="10.5,-112 10.5,-134 243.5,-134 243.5,-112 10.5,-112"/>
<text text-anchor="start" x="15.5" y="-121.2" font-family="Helvetica,sans-Serif" font-weight="bold" font-size="11.00">django_migrations</text>
<text text-anchor="start" x="204.5" y="-120.2" font-family="Helvetica,sans-Serif" font-size="11.00">[table]</text>
<polygon fill="none" stroke="black" points="10.5,-90 10.5,-112 141.5,-112 141.5,-90 10.5,-90"/>
<image xlink:href="../../images/primaryKeys.png" width="11px" height="12px" preserveAspectRatio="xMinYMin meet" x="15.5" y="-107"/>
<text text-anchor="start" x="30.5" y="-98.2" font-family="Helvetica,sans-Serif" font-size="11.00">id</text>
<polygon fill="none" stroke="black" points="141.5,-90 141.5,-112 243.5,-112 243.5,-90 141.5,-90"/>
<text text-anchor="start" x="144.5" y="-98.2" font-family="Helvetica,sans-Serif" font-size="11.00">serial[10]</text>
<polygon fill="none" stroke="black" points="10.5,-68 10.5,-90 141.5,-90 141.5,-68 10.5,-68"/>
<text text-anchor="start" x="30.5" y="-76.2" font-family="Helvetica,sans-Serif" font-size="11.00">app</text>
<polygon fill="none" stroke="black" points="141.5,-68 141.5,-90 243.5,-90 243.5,-68 141.5,-68"/>
<text text-anchor="start" x="144.5" y="-76.2" font-family="Helvetica,sans-Serif" font-size="11.00">varchar[255]</text>
<polygon fill="none" stroke="black" points="10.5,-46 10.5,-68 141.5,-68 141.5,-46 10.5,-46"/>
<text text-anchor="start" x="30.5" y="-54.2" font-family="Helvetica,sans-Serif" font-size="11.00">name</text>
<polygon fill="none" stroke="black" points="141.5,-46 141.5,-68 243.5,-68 243.5,-46 141.5,-46"/>
<text text-anchor="start" x="144.5" y="-54.2" font-family="Helvetica,sans-Serif" font-size="11.00">varchar[255]</text>
<polygon fill="none" stroke="black" points="10.5,-24 10.5,-46 141.5,-46 141.5,-24 10.5,-24"/>
<text text-anchor="start" x="30.5" y="-32.2" font-family="Helvetica,sans-Serif" font-size="11.00">applied</text>
<polygon fill="none" stroke="black" points="141.5,-24 141.5,-46 243.5,-46 243.5,-24 141.5,-24"/>
<text text-anchor="start" x="144.5" y="-32.2" font-family="Helvetica,sans-Serif" font-size="11.00">timestamptz[35,6]</text>
<polygon fill="#ffffff" stroke="none" points="10.5,-6 10.5,-24 59.5,-24 59.5,-6 10.5,-6"/>
<polygon fill="none" stroke="black" points="10.5,-6 10.5,-24 59.5,-24 59.5,-6 10.5,-6"/>
<text text-anchor="start" x="13.5" y="-12.2" font-family="Helvetica,sans-Serif" font-size="11.00">&lt; 0</text>
<polygon fill="#ffffff" stroke="none" points="59.5,-6 59.5,-24 141.5,-24 141.5,-6 59.5,-6"/>
<polygon fill="none" stroke="black" points="59.5,-6 59.5,-24 141.5,-24 141.5,-6 59.5,-6"/>
<text text-anchor="start" x="89.5" y="-12.2" font-family="Helvetica,sans-Serif" font-size="11.00">108 rows</text>
<polygon fill="#ffffff" stroke="none" points="141.5,-6 141.5,-24 243.5,-24 243.5,-6 141.5,-6"/>
<polygon fill="none" stroke="black" points="141.5,-6 141.5,-24 243.5,-24 243.5,-6 141.5,-6"/>
<text text-anchor="start" x="223.5" y="-12.2" font-family="Helvetica,sans-Serif" font-size="11.00">0 &gt;</text>
<polygon fill="none" stroke="black" stroke-width="2" points="9,-5 9,-135 244,-135 244,-5 9,-5"/>
</a>
</g>
</g>
</g>
</svg>
