<?xml version="1.0" encoding="UTF-8" standalone="no"?>
<!DOCTYPE svg PUBLIC "-//W3C//DTD SVG 1.1//EN"
 "http://www.w3.org/Graphics/SVG/1.1/DTD/svg11.dtd">
<!-- Generated by graphviz version 2.38.0 (20140413.2041)
 -->
<!-- Title: django_session Pages: 1 -->
<svg width="240pt" height="126pt"
 viewBox="0.00 0.00 240.00 126.00" xmlns="http://www.w3.org/2000/svg" xmlns:xlink="http://www.w3.org/1999/xlink">
<g id="graph0" class="graph" transform="scale(1 1) rotate(0) translate(4 122)">
<title>django_session</title>
<polygon fill="#ffffff" stroke="none" points="-4,4 -4,-122 236,-122 236,4 -4,4"/>
<!-- django_session -->
<g id="node1" class="node"><title>django_session</title>
<g id="a_node1"><a xlink:href="../../tables/django_session.html" xlink:title="django_session" target="_top">
<polygon fill="#ffffff" stroke="none" points="8,-4 8,-114 224,-114 224,-4 8,-4"/>
<polygon fill="#f5f5f5" stroke="none" points="10,-90 10,-112 222,-112 222,-90 10,-90"/>
<polygon fill="none" stroke="black" points="10,-90 10,-112 222,-112 222,-90 10,-90"/>
<text text-anchor="start" x="15" y="-99.2" font-family="Helvetica,sans-Serif" font-weight="bold" font-size="11.00">django_session</text>
<text text-anchor="start" x="183" y="-98.2" font-family="Helvetica,sans-Serif" font-size="11.00">[table]</text>
<polygon fill="none" stroke="black" points="10,-68 10,-90 120,-90 120,-68 10,-68"/>
<image xlink:href="../../images/primaryKeys.png" width="11px" height="12px" preserveAspectRatio="xMinYMin meet" x="15" y="-85"/>
<text text-anchor="start" x="30" y="-76.2" font-family="Helvetica,sans-Serif" font-size="11.00">session_key</text>
<polygon fill="none" stroke="black" points="120,-68 120,-90 222,-90 222,-68 120,-68"/>
<text text-anchor="start" x="123" y="-76.2" font-family="Helvetica,sans-Serif" font-size="11.00">varchar[40]</text>
<polygon fill="none" stroke="black" points="10,-46 10,-68 120,-68 120,-46 10,-46"/>
<text text-anchor="start" x="30" y="-54.2" font-family="Helvetica,sans-Serif" font-size="11.00">session_data</text>
<polygon fill="none" stroke="black" points="120,-46 120,-68 222,-68 222,-46 120,-46"/>
<text text-anchor="start" x="123" y="-54.2" font-family="Helvetica,sans-Serif" font-size="11.00">text[2147483647]</text>
<polygon fill="#ffffff" stroke="none" points="10,-24 10,-46 120,-46 120,-24 10,-24"/>
<polygon fill="none" stroke="black" points="10,-24 10,-46 120,-46 120,-24 10,-24"/>
<text text-anchor="start" x="30" y="-32.2" font-family="Helvetica,sans-Serif" font-size="11.00">expire_date</text>
<polygon fill="none" stroke="black" points="120,-24 120,-46 222,-46 222,-24 120,-24"/>
<text text-anchor="start" x="123" y="-32.2" font-family="Helvetica,sans-Serif" font-size="11.00">timestamptz[35,6]</text>
<polygon fill="#ffffff" stroke="none" points="10,-6 10,-24 52,-24 52,-6 10,-6"/>
<polygon fill="none" stroke="black" points="10,-6 10,-24 52,-24 52,-6 10,-6"/>
<text text-anchor="start" x="13" y="-12.2" font-family="Helvetica,sans-Serif" font-size="11.00">&lt; 0</text>
<polygon fill="#ffffff" stroke="none" points="52,-6 52,-24 120,-24 120,-6 52,-6"/>
<polygon fill="none" stroke="black" points="52,-6 52,-24 120,-24 120,-6 52,-6"/>
<text text-anchor="start" x="74" y="-12.2" font-family="Helvetica,sans-Serif" font-size="11.00">37 rows</text>
<polygon fill="#ffffff" stroke="none" points="120,-6 120,-24 222,-24 222,-6 120,-6"/>
<polygon fill="none" stroke="black" points="120,-6 120,-24 222,-24 222,-6 120,-6"/>
<text text-anchor="start" x="202" y="-12.2" font-family="Helvetica,sans-Serif" font-size="11.00">0 &gt;</text>
<polygon fill="none" stroke="black" stroke-width="2" points="9,-5 9,-113 223,-113 223,-5 9,-5"/>
</a>
</g>
</g>
</g>
</svg>
