<?xml version="1.0" encoding="UTF-8" standalone="no"?>
<!DOCTYPE svg PUBLIC "-//W3C//DTD SVG 1.1//EN"
 "http://www.w3.org/Graphics/SVG/1.1/DTD/svg11.dtd">
<!-- Generated by graphviz version 2.38.0 (20140413.2041)
 -->
<!-- Title: oneDegreeRelationshipsDiagram Pages: 1 -->
<svg width="531pt" height="223pt"
 viewBox="0.00 0.00 531.00 223.00" xmlns="http://www.w3.org/2000/svg" xmlns:xlink="http://www.w3.org/1999/xlink">
<g id="graph0" class="graph" transform="scale(1 1) rotate(0) translate(4 219)">
<title>oneDegreeRelationshipsDiagram</title>
<polygon fill="#ffffff" stroke="none" points="-4,4 -4,-219 527,-219 527,4 -4,4"/>
<text text-anchor="middle" x="74.5" y="-7.2" font-family="Helvetica,sans-Serif" font-size="11.00">Generated by SchemaSpy</text>
<!-- ansible_collectionversion_tags -->
<g id="node1" class="node"><title>ansible_collectionversion_tags</title>
<g id="a_node1"><a xlink:href="../../tables/ansible_collectionversion_tags.html" xlink:title="ansible_collectionversion_tags" target="_top">
<polygon fill="#ffffff" stroke="none" points="295,-105 295,-211 515,-211 515,-105 295,-105"/>
<polygon fill="#f5f5f5" stroke="none" points="295,-189 295,-211 515,-211 515,-189 295,-189"/>
<polygon fill="none" stroke="black" points="295,-189 295,-211 515,-211 515,-189 295,-189"/>
<text text-anchor="start" x="300" y="-198.2" font-family="Helvetica,sans-Serif" font-weight="bold" font-size="11.00">ansible_collectionversion_tags</text>
<text text-anchor="start" x="476" y="-197.2" font-family="Helvetica,sans-Serif" font-size="11.00">[table]</text>
<polygon fill="none" stroke="black" points="295,-167 295,-189 515,-189 515,-167 295,-167"/>
<image xlink:href="../../images/primaryKeys.png" width="11px" height="12px" preserveAspectRatio="xMinYMin meet" x="300" y="-184"/>
<text text-anchor="start" x="325" y="-175.2" font-family="Helvetica,sans-Serif" font-size="11.00">id</text>
<polygon fill="#ffffff" stroke="none" points="295,-145 295,-167 515,-167 515,-145 295,-145"/>
<polygon fill="none" stroke="black" points="295,-145 295,-167 515,-167 515,-145 295,-145"/>
<image xlink:href="../../images/foreignKeys.png" width="11px" height="12px" preserveAspectRatio="xMinYMin meet" x="300" y="-162"/>
<text text-anchor="start" x="325" y="-153.2" font-family="Helvetica,sans-Serif" font-size="11.00">collectionversion_id</text>
<polygon fill="#ffffff" stroke="none" points="295,-123 295,-145 515,-145 515,-123 295,-123"/>
<polygon fill="none" stroke="black" points="295,-123 295,-145 515,-145 515,-123 295,-123"/>
<image xlink:href="../../images/foreignKeys.png" width="11px" height="12px" preserveAspectRatio="xMinYMin meet" x="300" y="-140"/>
<text text-anchor="start" x="325" y="-131.2" font-family="Helvetica,sans-Serif" font-size="11.00">tag_id</text>
<polygon fill="#ffffff" stroke="none" points="295,-105 295,-123 385,-123 385,-105 295,-105"/>
<polygon fill="none" stroke="black" points="295,-105 295,-123 385,-123 385,-105 295,-105"/>
<text text-anchor="start" x="298" y="-111.2" font-family="Helvetica,sans-Serif" font-size="11.00">&lt; 2</text>
<polygon fill="#ffffff" stroke="none" points="385,-105 385,-123 468,-123 468,-105 385,-105"/>
<polygon fill="none" stroke="black" points="385,-105 385,-123 468,-123 468,-105 385,-105"/>
<text text-anchor="start" x="422" y="-111.2" font-family="Helvetica,sans-Serif" font-size="11.00">10 rows</text>
<polygon fill="#ffffff" stroke="none" points="468,-105 468,-123 515,-123 515,-105 468,-105"/>
<polygon fill="none" stroke="black" points="468,-105 468,-123 515,-123 515,-105 468,-105"/>
<text text-anchor="start" x="505" y="-111.2" font-family="Helvetica,sans-Serif" font-size="11.00"> &#160;</text>
</a>
</g>
</g>
<!-- ansible_tag -->
<g id="node2" class="node"><title>ansible_tag</title>
<g id="a_node2"><a xlink:href="../../tables/ansible_tag.html" xlink:title="ansible_tag" target="_top">
<polygon fill="#ffffff" stroke="none" points="8,-37 8,-169 246,-169 246,-37 8,-37"/>
<polygon fill="#f5f5f5" stroke="none" points="10,-145 10,-167 244,-167 244,-145 10,-145"/>
<polygon fill="none" stroke="black" points="10,-145 10,-167 244,-167 244,-145 10,-145"/>
<text text-anchor="start" x="15" y="-154.2" font-family="Helvetica,sans-Serif" font-weight="bold" font-size="11.00">ansible_tag</text>
<text text-anchor="start" x="205" y="-153.2" font-family="Helvetica,sans-Serif" font-size="11.00">[table]</text>
<polygon fill="none" stroke="black" points="10,-123 10,-145 139,-145 139,-123 10,-123"/>
<image xlink:href="../../images/primaryKeys.png" width="11px" height="12px" preserveAspectRatio="xMinYMin meet" x="15" y="-140"/>
<text text-anchor="start" x="30" y="-131.2" font-family="Helvetica,sans-Serif" font-size="11.00">pulp_id</text>
<polygon fill="none" stroke="black" points="139,-123 139,-145 244,-145 244,-123 139,-123"/>
<text text-anchor="start" x="142" y="-131.2" font-family="Helvetica,sans-Serif" font-size="11.00">uuid[2147483647]</text>
<polygon fill="none" stroke="black" points="10,-101 10,-123 139,-123 139,-101 10,-101"/>
<text text-anchor="start" x="30" y="-109.2" font-family="Helvetica,sans-Serif" font-size="11.00">pulp_created</text>
<polygon fill="none" stroke="black" points="139,-101 139,-123 244,-123 244,-101 139,-101"/>
<text text-anchor="start" x="142" y="-109.2" font-family="Helvetica,sans-Serif" font-size="11.00">timestamptz[35,6]</text>
<polygon fill="none" stroke="black" points="10,-79 10,-101 139,-101 139,-79 10,-79"/>
<text text-anchor="start" x="30" y="-87.2" font-family="Helvetica,sans-Serif" font-size="11.00">pulp_last_updated</text>
<polygon fill="none" stroke="black" points="139,-79 139,-101 244,-101 244,-79 139,-79"/>
<text text-anchor="start" x="142" y="-87.2" font-family="Helvetica,sans-Serif" font-size="11.00">timestamptz[35,6]</text>
<polygon fill="#ffffff" stroke="none" points="10,-57 10,-79 139,-79 139,-57 10,-57"/>
<polygon fill="none" stroke="black" points="10,-57 10,-79 139,-79 139,-57 10,-57"/>
<text text-anchor="start" x="30" y="-65.2" font-family="Helvetica,sans-Serif" font-size="11.00">name</text>
<polygon fill="none" stroke="black" points="139,-57 139,-79 244,-79 244,-57 139,-57"/>
<text text-anchor="start" x="142" y="-65.2" font-family="Helvetica,sans-Serif" font-size="11.00">varchar[32]</text>
<polygon fill="#ffffff" stroke="none" points="10,-39 10,-57 65,-57 65,-39 10,-39"/>
<polygon fill="none" stroke="black" points="10,-39 10,-57 65,-57 65,-39 10,-39"/>
<text text-anchor="start" x="13" y="-45.2" font-family="Helvetica,sans-Serif" font-size="11.00">&lt; 0</text>
<polygon fill="#ffffff" stroke="none" points="65,-39 65,-57 139,-57 139,-39 65,-39"/>
<polygon fill="none" stroke="black" points="65,-39 65,-57 139,-57 139,-39 65,-39"/>
<text text-anchor="start" x="100" y="-45.2" font-family="Helvetica,sans-Serif" font-size="11.00">5 rows</text>
<polygon fill="#ffffff" stroke="none" points="139,-39 139,-57 244,-57 244,-39 139,-39"/>
<polygon fill="none" stroke="black" points="139,-39 139,-57 244,-57 244,-39 139,-39"/>
<text text-anchor="start" x="224" y="-45.2" font-family="Helvetica,sans-Serif" font-size="11.00">1 &gt;</text>
<polygon fill="none" stroke="black" stroke-width="2" points="9,-38 9,-168 245,-168 245,-38 9,-38"/>
</a>
</g>
</g>
<!-- ansible_collectionversion_tags&#45;&gt;ansible_tag -->
<g id="edge1" class="edge"><title>ansible_collectionversion_tags:tag_id:w&#45;&gt;ansible_tag:pulp_id.type:e</title>
<path fill="none" stroke="black" d="M279.491,-134C268.177,-134 260.993,-134 245,-134"/>
<polygon fill="black" stroke="black" points="286,-134 294,-137.6 290,-134 294,-134 294,-134 294,-134 290,-134 294,-130.4 286,-134 286,-134"/>
<ellipse fill="none" stroke="black" cx="282.8" cy="-134" rx="3.2" ry="3.2"/>
</g>
</g>
</svg>
