<?xml version="1.0" encoding="UTF-8" standalone="no"?>
<!DOCTYPE svg PUBLIC "-//W3C//DTD SVG 1.1//EN"
 "http://www.w3.org/Graphics/SVG/1.1/DTD/svg11.dtd">
<!-- Generated by graphviz version 2.38.0 (20140413.2041)
 -->
<!-- Title: twoDegreesRelationshipsDiagram Pages: 1 -->
<svg width="1201pt" height="750pt"
 viewBox="0.00 0.00 1201.00 750.00" xmlns="http://www.w3.org/2000/svg" xmlns:xlink="http://www.w3.org/1999/xlink">
<g id="graph0" class="graph" transform="scale(1 1) rotate(0) translate(4 746)">
<title>twoDegreesRelationshipsDiagram</title>
<polygon fill="#ffffff" stroke="none" points="-4,4 -4,-746 1197,-746 1197,4 -4,4"/>
<text text-anchor="middle" x="74.5" y="-7.2" font-family="Helvetica,sans-Serif" font-size="11.00">Generated by SchemaSpy</text>
<!-- ansible_ansibledistribution -->
<g id="node1" class="node"><title>ansible_ansibledistribution</title>
<g id="a_node1"><a xlink:href="../../tables/ansible_ansibledistribution.html" xlink:title="ansible_ansibledistribution" target="_top">
<polygon fill="#ffffff" stroke="none" points="709,-680 709,-738 914,-738 914,-680 709,-680"/>
<polygon fill="#f5f5f5" stroke="none" points="709.5,-716 709.5,-738 914.5,-738 914.5,-716 709.5,-716"/>
<polygon fill="none" stroke="black" points="709.5,-716 709.5,-738 914.5,-738 914.5,-716 709.5,-716"/>
<text text-anchor="start" x="714.5" y="-725.2" font-family="Helvetica,sans-Serif" font-weight="bold" font-size="11.00">ansible_ansibledistribution</text>
<text text-anchor="start" x="875.5" y="-724.2" font-family="Helvetica,sans-Serif" font-size="11.00">[table]</text>
<polygon fill="none" stroke="black" points="709.5,-698 709.5,-716 914.5,-716 914.5,-698 709.5,-698"/>
<text text-anchor="start" x="712.5" y="-704.2" font-family="Helvetica,sans-Serif" font-size="11.00">...</text>
<polygon fill="#ffffff" stroke="none" points="709.5,-680 709.5,-698 792.5,-698 792.5,-680 709.5,-680"/>
<polygon fill="none" stroke="black" points="709.5,-680 709.5,-698 792.5,-698 792.5,-680 709.5,-680"/>
<text text-anchor="start" x="712.5" y="-686.2" font-family="Helvetica,sans-Serif" font-size="11.00">&lt; 3</text>
<polygon fill="#ffffff" stroke="none" points="792.5,-680 792.5,-698 871.5,-698 871.5,-680 792.5,-680"/>
<polygon fill="none" stroke="black" points="792.5,-680 792.5,-698 871.5,-698 871.5,-680 792.5,-680"/>
<text text-anchor="start" x="825.5" y="-686.2" font-family="Helvetica,sans-Serif" font-size="11.00">32 rows</text>
<polygon fill="#ffffff" stroke="none" points="871.5,-680 871.5,-698 914.5,-698 914.5,-680 871.5,-680"/>
<polygon fill="none" stroke="black" points="871.5,-680 871.5,-698 914.5,-698 914.5,-680 871.5,-680"/>
<text text-anchor="start" x="904.5" y="-686.2" font-family="Helvetica,sans-Serif" font-size="11.00"> &#160;</text>
</a>
</g>
</g>
<!-- core_repository -->
<g id="node2" class="node"><title>core_repository</title>
<g id="a_node2"><a xlink:href="../../tables/core_repository.html" xlink:title="core_repository" target="_top">
<polygon fill="#ffffff" stroke="none" points="177,-363 177,-487 314,-487 314,-363 177,-363"/>
<polygon fill="#f5f5f5" stroke="none" points="177.5,-465 177.5,-487 314.5,-487 314.5,-465 177.5,-465"/>
<polygon fill="none" stroke="black" points="177.5,-465 177.5,-487 314.5,-487 314.5,-465 177.5,-465"/>
<text text-anchor="start" x="182.5" y="-474.2" font-family="Helvetica,sans-Serif" font-weight="bold" font-size="11.00">core_repository</text>
<text text-anchor="start" x="275.5" y="-473.2" font-family="Helvetica,sans-Serif" font-size="11.00">[table]</text>
<polygon fill="none" stroke="black" points="177.5,-443 177.5,-465 314.5,-465 314.5,-443 177.5,-443"/>
<image xlink:href="../../images/primaryKeys.png" width="11px" height="12px" preserveAspectRatio="xMinYMin meet" x="182.5" y="-460"/>
<text text-anchor="start" x="201.5" y="-451.2" font-family="Helvetica,sans-Serif" font-size="11.00">pulp_id</text>
<polygon fill="#ffffff" stroke="none" points="177.5,-421 177.5,-443 314.5,-443 314.5,-421 177.5,-421"/>
<polygon fill="none" stroke="black" points="177.5,-421 177.5,-443 314.5,-443 314.5,-421 177.5,-421"/>
<text text-anchor="start" x="201.5" y="-429.2" font-family="Helvetica,sans-Serif" font-size="11.00">name</text>
<polygon fill="#ffffff" stroke="none" points="177.5,-399 177.5,-421 314.5,-421 314.5,-399 177.5,-399"/>
<polygon fill="none" stroke="black" points="177.5,-399 177.5,-421 314.5,-421 314.5,-399 177.5,-399"/>
<image xlink:href="../../images/foreignKeys.png" width="11px" height="12px" preserveAspectRatio="xMinYMin meet" x="182.5" y="-416"/>
<text text-anchor="start" x="201.5" y="-407.2" font-family="Helvetica,sans-Serif" font-size="11.00">remote_id</text>
<polygon fill="none" stroke="black" points="177.5,-381 177.5,-399 314.5,-399 314.5,-381 177.5,-381"/>
<text text-anchor="start" x="180.5" y="-387.2" font-family="Helvetica,sans-Serif" font-size="11.00">...</text>
<polygon fill="#ffffff" stroke="none" points="177.5,-363 177.5,-381 217.5,-381 217.5,-363 177.5,-363"/>
<polygon fill="none" stroke="black" points="177.5,-363 177.5,-381 217.5,-381 217.5,-363 177.5,-363"/>
<text text-anchor="start" x="180.5" y="-369.2" font-family="Helvetica,sans-Serif" font-size="11.00">&lt; 1</text>
<polygon fill="#ffffff" stroke="none" points="217.5,-363 217.5,-381 275.5,-381 275.5,-363 217.5,-363"/>
<polygon fill="none" stroke="black" points="217.5,-363 217.5,-381 275.5,-381 275.5,-363 217.5,-363"/>
<text text-anchor="start" x="229.5" y="-369.2" font-family="Helvetica,sans-Serif" font-size="11.00">26 rows</text>
<polygon fill="#ffffff" stroke="none" points="275.5,-363 275.5,-381 314.5,-381 314.5,-363 275.5,-363"/>
<polygon fill="none" stroke="black" points="275.5,-363 275.5,-381 314.5,-381 314.5,-363 275.5,-363"/>
<text text-anchor="start" x="287.5" y="-369.2" font-family="Helvetica,sans-Serif" font-size="11.00">10 &gt;</text>
</a>
</g>
</g>
<!-- ansible_ansibledistribution&#45;&gt;core_repository -->
<g id="edge1" class="edge"><title>ansible_ansibledistribution:elipses:w&#45;&gt;core_repository:pulp_id:e</title>
<path fill="none" stroke="black" d="M693.929,-707.206C545.657,-711.381 467.489,-776.565 355,-673 282.238,-606.01 414.404,-454 315.5,-454"/>
<polygon fill="black" stroke="black" points="700.501,-707.113 708.551,-710.6 704.5,-707.057 708.5,-707 708.5,-707 708.5,-707 704.5,-707.057 708.449,-703.4 700.501,-707.113 700.501,-707.113"/>
<ellipse fill="none" stroke="black" cx="697.301" cy="-707.158" rx="3.2" ry="3.2"/>
</g>
<!-- core_repositoryversion -->
<g id="node3" class="node"><title>core_repositoryversion</title>
<g id="a_node3"><a xlink:href="../../tables/core_repositoryversion.html" xlink:title="core_repositoryversion" target="_top">
<polygon fill="#ffffff" stroke="none" points="415,-573 415,-631 594,-631 594,-573 415,-573"/>
<polygon fill="#f5f5f5" stroke="none" points="415.5,-609 415.5,-631 594.5,-631 594.5,-609 415.5,-609"/>
<polygon fill="none" stroke="black" points="415.5,-609 415.5,-631 594.5,-631 594.5,-609 415.5,-609"/>
<text text-anchor="start" x="420.5" y="-618.2" font-family="Helvetica,sans-Serif" font-weight="bold" font-size="11.00">core_repositoryversion</text>
<text text-anchor="start" x="555.5" y="-617.2" font-family="Helvetica,sans-Serif" font-size="11.00">[table]</text>
<polygon fill="none" stroke="black" points="415.5,-591 415.5,-609 594.5,-609 594.5,-591 415.5,-591"/>
<text text-anchor="start" x="418.5" y="-597.2" font-family="Helvetica,sans-Serif" font-size="11.00">...</text>
<polygon fill="#ffffff" stroke="none" points="415.5,-573 415.5,-591 477.5,-591 477.5,-573 415.5,-573"/>
<polygon fill="none" stroke="black" points="415.5,-573 415.5,-591 477.5,-591 477.5,-573 415.5,-573"/>
<text text-anchor="start" x="418.5" y="-579.2" font-family="Helvetica,sans-Serif" font-size="11.00">&lt; 2</text>
<polygon fill="#ffffff" stroke="none" points="477.5,-573 477.5,-591 551.5,-591 551.5,-573 477.5,-573"/>
<polygon fill="none" stroke="black" points="477.5,-573 477.5,-591 551.5,-591 551.5,-573 477.5,-573"/>
<text text-anchor="start" x="499.5" y="-579.2" font-family="Helvetica,sans-Serif" font-size="11.00">162 rows</text>
<polygon fill="#ffffff" stroke="none" points="551.5,-573 551.5,-591 594.5,-591 594.5,-573 551.5,-573"/>
<polygon fill="none" stroke="black" points="551.5,-573 551.5,-591 594.5,-591 594.5,-573 551.5,-573"/>
<text text-anchor="start" x="574.5" y="-579.2" font-family="Helvetica,sans-Serif" font-size="11.00">7 &gt;</text>
</a>
</g>
</g>
<!-- ansible_ansibledistribution&#45;&gt;core_repositoryversion -->
<g id="edge2" class="edge"><title>ansible_ansibledistribution:elipses:w&#45;&gt;core_repositoryversion:elipses:e</title>
<path fill="none" stroke="black" d="M693.93,-705.143C642.716,-690.934 659.262,-600 595.5,-600"/>
<polygon fill="black" stroke="black" points="700.564,-705.988 708.045,-710.571 704.532,-706.494 708.5,-707 708.5,-707 708.5,-707 704.532,-706.494 708.955,-703.429 700.564,-705.988 700.564,-705.988"/>
<ellipse fill="none" stroke="black" cx="697.39" cy="-705.584" rx="3.2" ry="3.2"/>
</g>
<!-- core_remote -->
<g id="node11" class="node"><title>core_remote</title>
<g id="a_node11"><a xlink:href="../../tables/core_remote.html" xlink:title="core_remote" target="_top">
<polygon fill="#ffffff" stroke="none" points="8,-383 8,-441 128,-441 128,-383 8,-383"/>
<polygon fill="#f5f5f5" stroke="none" points="8,-419 8,-441 128,-441 128,-419 8,-419"/>
<polygon fill="none" stroke="black" points="8,-419 8,-441 128,-441 128,-419 8,-419"/>
<text text-anchor="start" x="13" y="-428.2" font-family="Helvetica,sans-Serif" font-weight="bold" font-size="11.00">core_remote</text>
<text text-anchor="start" x="89" y="-427.2" font-family="Helvetica,sans-Serif" font-size="11.00">[table]</text>
<polygon fill="none" stroke="black" points="8,-401 8,-419 128,-419 128,-401 8,-401"/>
<text text-anchor="start" x="11" y="-407.2" font-family="Helvetica,sans-Serif" font-size="11.00">...</text>
<polygon fill="#ffffff" stroke="none" points="8,-383 8,-401 42,-401 42,-383 8,-383"/>
<polygon fill="none" stroke="black" points="8,-383 8,-401 42,-401 42,-383 8,-383"/>
<text text-anchor="start" x="11" y="-389.2" font-family="Helvetica,sans-Serif" font-size="11.00"> &#160;</text>
<polygon fill="#ffffff" stroke="none" points="42,-383 42,-401 94,-401 94,-383 42,-383"/>
<polygon fill="none" stroke="black" points="42,-383 42,-401 94,-401 94,-383 42,-383"/>
<text text-anchor="start" x="55" y="-389.2" font-family="Helvetica,sans-Serif" font-size="11.00">7 rows</text>
<polygon fill="#ffffff" stroke="none" points="94,-383 94,-401 128,-401 128,-383 94,-383"/>
<polygon fill="none" stroke="black" points="94,-383 94,-401 128,-401 128,-383 94,-383"/>
<text text-anchor="start" x="108" y="-389.2" font-family="Helvetica,sans-Serif" font-size="11.00">6 &gt;</text>
</a>
</g>
</g>
<!-- core_repository&#45;&gt;core_remote -->
<g id="edge11" class="edge"><title>core_repository:remote_id:w&#45;&gt;core_remote:elipses:e</title>
<path fill="none" stroke="black" d="M162.086,-410C151.319,-410 144.339,-410 129,-410"/>
<polygon fill="black" stroke="black" points="168.5,-410 176.5,-413.6 172.5,-410 176.5,-410 176.5,-410 176.5,-410 172.5,-410 176.5,-406.4 168.5,-410 168.5,-410"/>
<ellipse fill="none" stroke="black" cx="165.3" cy="-410" rx="3.2" ry="3.2"/>
</g>
<!-- core_repositoryversion&#45;&gt;core_repository -->
<g id="edge15" class="edge"><title>core_repositoryversion:elipses:w&#45;&gt;core_repository:pulp_id:e</title>
<path fill="none" stroke="black" d="M399.927,-598.64C379.412,-594.319 371.382,-579.951 355,-559 324.288,-519.722 365.36,-454 315.5,-454"/>
<polygon fill="black" stroke="black" points="406.535,-599.256 414.165,-603.584 410.517,-599.628 414.5,-600 414.5,-600 414.5,-600 410.517,-599.628 414.835,-596.416 406.535,-599.256 406.535,-599.256"/>
<ellipse fill="none" stroke="black" cx="403.348" cy="-598.959" rx="3.2" ry="3.2"/>
</g>
<!-- ansible_ansiblerepository -->
<g id="node4" class="node"><title>ansible_ansiblerepository</title>
<g id="a_node4"><a xlink:href="../../tables/ansible_ansiblerepository.html" xlink:title="ansible_ansiblerepository" target="_top">
<polygon fill="#ffffff" stroke="none" points="363,-64 363,-130 646,-130 646,-64 363,-64"/>
<polygon fill="#f5f5f5" stroke="none" points="365.5,-106 365.5,-128 644.5,-128 644.5,-106 365.5,-106"/>
<polygon fill="none" stroke="black" points="365.5,-106 365.5,-128 644.5,-128 644.5,-106 365.5,-106"/>
<text text-anchor="start" x="370.5" y="-115.2" font-family="Helvetica,sans-Serif" font-weight="bold" font-size="11.00">ansible_ansiblerepository</text>
<text text-anchor="start" x="605.5" y="-114.2" font-family="Helvetica,sans-Serif" font-size="11.00">[table]</text>
<polygon fill="none" stroke="black" points="365.5,-84 365.5,-106 539.5,-106 539.5,-84 365.5,-84"/>
<image xlink:href="../../images/primaryKeys.png" width="11px" height="12px" preserveAspectRatio="xMinYMin meet" x="370.5" y="-101"/>
<text text-anchor="start" x="385.5" y="-92.2" font-family="Helvetica,sans-Serif" font-size="11.00">repository_ptr_id</text>
<polygon fill="none" stroke="black" points="539.5,-84 539.5,-106 644.5,-106 644.5,-84 539.5,-84"/>
<text text-anchor="start" x="542.5" y="-92.2" font-family="Helvetica,sans-Serif" font-size="11.00">uuid[2147483647]</text>
<polygon fill="#ffffff" stroke="none" points="365.5,-66 365.5,-84 439.5,-84 439.5,-66 365.5,-66"/>
<polygon fill="none" stroke="black" points="365.5,-66 365.5,-84 439.5,-84 439.5,-66 365.5,-66"/>
<text text-anchor="start" x="368.5" y="-72.2" font-family="Helvetica,sans-Serif" font-size="11.00">&lt; 1</text>
<polygon fill="#ffffff" stroke="none" points="439.5,-66 439.5,-84 539.5,-84 539.5,-66 439.5,-66"/>
<polygon fill="none" stroke="black" points="439.5,-66 439.5,-84 539.5,-84 539.5,-66 439.5,-66"/>
<text text-anchor="start" x="493.5" y="-72.2" font-family="Helvetica,sans-Serif" font-size="11.00">26 rows</text>
<polygon fill="#ffffff" stroke="none" points="539.5,-66 539.5,-84 644.5,-84 644.5,-66 539.5,-66"/>
<polygon fill="none" stroke="black" points="539.5,-66 539.5,-84 644.5,-84 644.5,-66 539.5,-66"/>
<text text-anchor="start" x="624.5" y="-72.2" font-family="Helvetica,sans-Serif" font-size="11.00">2 &gt;</text>
<polygon fill="none" stroke="black" stroke-width="2" points="364,-65 364,-129 645,-129 645,-65 364,-65"/>
</a>
</g>
</g>
<!-- ansible_ansiblerepository&#45;&gt;core_repository -->
<g id="edge3" class="edge"><title>ansible_ansiblerepository:repository_ptr_id:w&#45;&gt;core_repository:pulp_id:e</title>
<path fill="none" stroke="black" d="M354.038,-97.4842C294.464,-129.203 392.086,-454 315.5,-454"/>
<polygon fill="black" stroke="black" points="362.798,-91.293 364.646,-99.0766 363.089,-99.4463 361.241,-91.6627 362.798,-91.293"/>
<polyline fill="none" stroke="black" points="364.5,-95 360.608,-95.9241 "/>
<ellipse fill="none" stroke="black" cx="357.495" cy="-96.6634" rx="3.20001" ry="3.20001"/>
</g>
<!-- container_containerdistribution -->
<g id="node5" class="node"><title>container_containerdistribution</title>
<g id="a_node5"><a xlink:href="../../tables/container_containerdistribution.html" xlink:title="container_containerdistribution" target="_top">
<polygon fill="#ffffff" stroke="none" points="695,-601 695,-659 928,-659 928,-601 695,-601"/>
<polygon fill="#f5f5f5" stroke="none" points="695.5,-637 695.5,-659 928.5,-659 928.5,-637 695.5,-637"/>
<polygon fill="none" stroke="black" points="695.5,-637 695.5,-659 928.5,-659 928.5,-637 695.5,-637"/>
<text text-anchor="start" x="700.5" y="-646.2" font-family="Helvetica,sans-Serif" font-weight="bold" font-size="11.00">container_containerdistribution</text>
<text text-anchor="start" x="889.5" y="-645.2" font-family="Helvetica,sans-Serif" font-size="11.00">[table]</text>
<polygon fill="none" stroke="black" points="695.5,-619 695.5,-637 928.5,-637 928.5,-619 695.5,-619"/>
<text text-anchor="start" x="698.5" y="-625.2" font-family="Helvetica,sans-Serif" font-size="11.00">...</text>
<polygon fill="#ffffff" stroke="none" points="695.5,-601 695.5,-619 795.5,-619 795.5,-601 695.5,-601"/>
<polygon fill="none" stroke="black" points="695.5,-601 695.5,-619 795.5,-619 795.5,-601 695.5,-601"/>
<text text-anchor="start" x="698.5" y="-607.2" font-family="Helvetica,sans-Serif" font-size="11.00">&lt; 3</text>
<polygon fill="#ffffff" stroke="none" points="795.5,-601 795.5,-619 876.5,-619 876.5,-601 795.5,-601"/>
<polygon fill="none" stroke="black" points="795.5,-601 795.5,-619 876.5,-619 876.5,-601 795.5,-601"/>
<text text-anchor="start" x="837.5" y="-607.2" font-family="Helvetica,sans-Serif" font-size="11.00">0 rows</text>
<polygon fill="#ffffff" stroke="none" points="876.5,-601 876.5,-619 928.5,-619 928.5,-601 876.5,-601"/>
<polygon fill="none" stroke="black" points="876.5,-601 876.5,-619 928.5,-619 928.5,-601 876.5,-601"/>
<text text-anchor="start" x="918.5" y="-607.2" font-family="Helvetica,sans-Serif" font-size="11.00"> &#160;</text>
</a>
</g>
</g>
<!-- container_containerdistribution&#45;&gt;core_repository -->
<g id="edge4" class="edge"><title>container_containerdistribution:elipses:w&#45;&gt;core_repository:pulp_id:e</title>
<path fill="none" stroke="black" d="M680.171,-630.729C672.09,-634.159 666.766,-639.856 654,-642 522.947,-664.012 458.176,-725.751 355,-642 288.71,-588.191 400.88,-454 315.5,-454"/>
<polygon fill="black" stroke="black" points="686.641,-629.497 695.174,-631.536 690.571,-628.748 694.5,-628 694.5,-628 694.5,-628 690.571,-628.748 693.826,-624.464 686.641,-629.497 686.641,-629.497"/>
<ellipse fill="none" stroke="black" cx="683.498" cy="-630.095" rx="3.2" ry="3.2"/>
</g>
<!-- container_containerdistribution&#45;&gt;core_repositoryversion -->
<g id="edge5" class="edge"><title>container_containerdistribution:elipses:w&#45;&gt;core_repositoryversion:elipses:e</title>
<path fill="none" stroke="black" d="M679.874,-626.937C646.481,-621.822 635.867,-600 595.5,-600"/>
<polygon fill="black" stroke="black" points="686.521,-627.42 694.239,-631.591 690.511,-627.71 694.5,-628 694.5,-628 694.5,-628 690.511,-627.71 694.761,-624.409 686.521,-627.42 686.521,-627.42"/>
<ellipse fill="none" stroke="black" cx="683.329" cy="-627.188" rx="3.2" ry="3.2"/>
</g>
<!-- container_containerpushrepository -->
<g id="node6" class="node"><title>container_containerpushrepository</title>
<g id="a_node6"><a xlink:href="../../tables/container_containerpushrepository.html" xlink:title="container_containerpushrepository" target="_top">
<polygon fill="#ffffff" stroke="none" points="379,-467 379,-525 630,-525 630,-467 379,-467"/>
<polygon fill="#f5f5f5" stroke="none" points="379.5,-503 379.5,-525 630.5,-525 630.5,-503 379.5,-503"/>
<polygon fill="none" stroke="black" points="379.5,-503 379.5,-525 630.5,-525 630.5,-503 379.5,-503"/>
<text text-anchor="start" x="384.5" y="-512.2" font-family="Helvetica,sans-Serif" font-weight="bold" font-size="11.00">container_containerpushrepository</text>
<text text-anchor="start" x="591.5" y="-511.2" font-family="Helvetica,sans-Serif" font-size="11.00">[table]</text>
<polygon fill="none" stroke="black" points="379.5,-485 379.5,-503 630.5,-503 630.5,-485 379.5,-485"/>
<text text-anchor="start" x="382.5" y="-491.2" font-family="Helvetica,sans-Serif" font-size="11.00">...</text>
<polygon fill="#ffffff" stroke="none" points="379.5,-467 379.5,-485 488.5,-485 488.5,-467 379.5,-467"/>
<polygon fill="none" stroke="black" points="379.5,-467 379.5,-485 488.5,-485 488.5,-467 379.5,-467"/>
<text text-anchor="start" x="382.5" y="-473.2" font-family="Helvetica,sans-Serif" font-size="11.00">&lt; 1</text>
<polygon fill="#ffffff" stroke="none" points="488.5,-467 488.5,-485 573.5,-485 573.5,-467 488.5,-467"/>
<polygon fill="none" stroke="black" points="488.5,-467 488.5,-485 573.5,-485 573.5,-467 488.5,-467"/>
<text text-anchor="start" x="534.5" y="-473.2" font-family="Helvetica,sans-Serif" font-size="11.00">0 rows</text>
<polygon fill="#ffffff" stroke="none" points="573.5,-467 573.5,-485 630.5,-485 630.5,-467 573.5,-467"/>
<polygon fill="none" stroke="black" points="573.5,-467 573.5,-485 630.5,-485 630.5,-467 573.5,-467"/>
<text text-anchor="start" x="620.5" y="-473.2" font-family="Helvetica,sans-Serif" font-size="11.00"> &#160;</text>
</a>
</g>
</g>
<!-- container_containerpushrepository&#45;&gt;core_repository -->
<g id="edge6" class="edge"><title>container_containerpushrepository:elipses:w&#45;&gt;core_repository:pulp_id:e</title>
<path fill="none" stroke="black" d="M367.927,-492.382C345.605,-484.899 344.651,-454 315.5,-454"/>
<polygon fill="black" stroke="black" points="378.314,-489.925 377.104,-497.833 375.523,-497.591 376.733,-489.683 378.314,-489.925"/>
<polyline fill="none" stroke="black" points="378.5,-494 374.546,-493.395 "/>
<ellipse fill="none" stroke="black" cx="371.383" cy="-492.911" rx="3.2" ry="3.2"/>
</g>
<!-- container_containerrepository -->
<g id="node7" class="node"><title>container_containerrepository</title>
<g id="a_node7"><a xlink:href="../../tables/container_containerrepository.html" xlink:title="container_containerrepository" target="_top">
<polygon fill="#ffffff" stroke="none" points="393,-388 393,-446 616,-446 616,-388 393,-388"/>
<polygon fill="#f5f5f5" stroke="none" points="393.5,-424 393.5,-446 616.5,-446 616.5,-424 393.5,-424"/>
<polygon fill="none" stroke="black" points="393.5,-424 393.5,-446 616.5,-446 616.5,-424 393.5,-424"/>
<text text-anchor="start" x="398.5" y="-433.2" font-family="Helvetica,sans-Serif" font-weight="bold" font-size="11.00">container_containerrepository</text>
<text text-anchor="start" x="577.5" y="-432.2" font-family="Helvetica,sans-Serif" font-size="11.00">[table]</text>
<polygon fill="none" stroke="black" points="393.5,-406 393.5,-424 616.5,-424 616.5,-406 393.5,-406"/>
<text text-anchor="start" x="396.5" y="-412.2" font-family="Helvetica,sans-Serif" font-size="11.00">...</text>
<polygon fill="#ffffff" stroke="none" points="393.5,-388 393.5,-406 488.5,-406 488.5,-388 393.5,-388"/>
<polygon fill="none" stroke="black" points="393.5,-388 393.5,-406 488.5,-406 488.5,-388 393.5,-388"/>
<text text-anchor="start" x="396.5" y="-394.2" font-family="Helvetica,sans-Serif" font-size="11.00">&lt; 1</text>
<polygon fill="#ffffff" stroke="none" points="488.5,-388 488.5,-406 566.5,-406 566.5,-388 488.5,-388"/>
<polygon fill="none" stroke="black" points="488.5,-388 488.5,-406 566.5,-406 566.5,-388 488.5,-388"/>
<text text-anchor="start" x="527.5" y="-394.2" font-family="Helvetica,sans-Serif" font-size="11.00">0 rows</text>
<polygon fill="#ffffff" stroke="none" points="566.5,-388 566.5,-406 616.5,-406 616.5,-388 566.5,-388"/>
<polygon fill="none" stroke="black" points="566.5,-388 566.5,-406 616.5,-406 616.5,-388 566.5,-388"/>
<text text-anchor="start" x="606.5" y="-394.2" font-family="Helvetica,sans-Serif" font-size="11.00"> &#160;</text>
</a>
</g>
</g>
<!-- container_containerrepository&#45;&gt;core_repository -->
<g id="edge7" class="edge"><title>container_containerrepository:elipses:w&#45;&gt;core_repository:pulp_id:e</title>
<path fill="none" stroke="black" d="M381.91,-416.125C353.689,-422.52 349.965,-454 315.5,-454"/>
<polygon fill="black" stroke="black" points="391.282,-411.107 392.127,-419.062 390.536,-419.231 389.691,-411.276 391.282,-411.107"/>
<polyline fill="none" stroke="black" points="392.5,-415 388.522,-415.423 "/>
<ellipse fill="none" stroke="black" cx="385.34" cy="-415.761" rx="3.2" ry="3.2"/>
</g>
<!-- container_upload -->
<g id="node8" class="node"><title>container_upload</title>
<g id="a_node8"><a xlink:href="../../tables/container_upload.html" xlink:title="container_upload" target="_top">
<polygon fill="#ffffff" stroke="none" points="430.5,-309 430.5,-367 578.5,-367 578.5,-309 430.5,-309"/>
<polygon fill="#f5f5f5" stroke="none" points="430.5,-345 430.5,-367 578.5,-367 578.5,-345 430.5,-345"/>
<polygon fill="none" stroke="black" points="430.5,-345 430.5,-367 578.5,-367 578.5,-345 430.5,-345"/>
<text text-anchor="start" x="435.5" y="-354.2" font-family="Helvetica,sans-Serif" font-weight="bold" font-size="11.00">container_upload</text>
<text text-anchor="start" x="539.5" y="-353.2" font-family="Helvetica,sans-Serif" font-size="11.00">[table]</text>
<polygon fill="none" stroke="black" points="430.5,-327 430.5,-345 578.5,-345 578.5,-327 430.5,-327"/>
<text text-anchor="start" x="433.5" y="-333.2" font-family="Helvetica,sans-Serif" font-size="11.00">...</text>
<polygon fill="#ffffff" stroke="none" points="430.5,-309 430.5,-327 488.5,-327 488.5,-309 430.5,-309"/>
<polygon fill="none" stroke="black" points="430.5,-309 430.5,-327 488.5,-327 488.5,-309 430.5,-309"/>
<text text-anchor="start" x="433.5" y="-315.2" font-family="Helvetica,sans-Serif" font-size="11.00">&lt; 1</text>
<polygon fill="#ffffff" stroke="none" points="488.5,-309 488.5,-327 547.5,-327 547.5,-309 488.5,-309"/>
<polygon fill="none" stroke="black" points="488.5,-309 488.5,-327 547.5,-327 547.5,-309 488.5,-309"/>
<text text-anchor="start" x="508.5" y="-315.2" font-family="Helvetica,sans-Serif" font-size="11.00">0 rows</text>
<polygon fill="#ffffff" stroke="none" points="547.5,-309 547.5,-327 578.5,-327 578.5,-309 547.5,-309"/>
<polygon fill="none" stroke="black" points="547.5,-309 547.5,-327 578.5,-327 578.5,-309 547.5,-309"/>
<text text-anchor="start" x="568.5" y="-315.2" font-family="Helvetica,sans-Serif" font-size="11.00"> &#160;</text>
</a>
</g>
</g>
<!-- container_upload&#45;&gt;core_repository -->
<g id="edge8" class="edge"><title>container_upload:elipses:w&#45;&gt;core_repository:pulp_id:e</title>
<path fill="none" stroke="black" d="M414.999,-336.865C388.333,-340.376 377.701,-354.513 355,-378 328.544,-405.372 353.568,-454 315.5,-454"/>
<polygon fill="black" stroke="black" points="421.514,-336.476 429.714,-339.594 425.507,-336.238 429.5,-336 429.5,-336 429.5,-336 425.507,-336.238 429.286,-332.406 421.514,-336.476 421.514,-336.476"/>
<ellipse fill="none" stroke="black" cx="418.32" cy="-336.667" rx="3.2" ry="3.2"/>
</g>
<!-- core_pulpexporter_repositories -->
<g id="node9" class="node"><title>core_pulpexporter_repositories</title>
<g id="a_node9"><a xlink:href="../../tables/core_pulpexporter_repositories.html" xlink:title="core_pulpexporter_repositories" target="_top">
<polygon fill="#ffffff" stroke="none" points="391,-230 391,-288 618,-288 618,-230 391,-230"/>
<polygon fill="#f5f5f5" stroke="none" points="391.5,-266 391.5,-288 618.5,-288 618.5,-266 391.5,-266"/>
<polygon fill="none" stroke="black" points="391.5,-266 391.5,-288 618.5,-288 618.5,-266 391.5,-266"/>
<text text-anchor="start" x="396.5" y="-275.2" font-family="Helvetica,sans-Serif" font-weight="bold" font-size="11.00">core_pulpexporter_repositories</text>
<text text-anchor="start" x="579.5" y="-274.2" font-family="Helvetica,sans-Serif" font-size="11.00">[table]</text>
<polygon fill="none" stroke="black" points="391.5,-248 391.5,-266 618.5,-266 618.5,-248 391.5,-248"/>
<text text-anchor="start" x="394.5" y="-254.2" font-family="Helvetica,sans-Serif" font-size="11.00">...</text>
<polygon fill="#ffffff" stroke="none" points="391.5,-230 391.5,-248 488.5,-248 488.5,-230 391.5,-230"/>
<polygon fill="none" stroke="black" points="391.5,-230 391.5,-248 488.5,-248 488.5,-230 391.5,-230"/>
<text text-anchor="start" x="394.5" y="-236.2" font-family="Helvetica,sans-Serif" font-size="11.00">&lt; 2</text>
<polygon fill="#ffffff" stroke="none" points="488.5,-230 488.5,-248 567.5,-248 567.5,-230 488.5,-230"/>
<polygon fill="none" stroke="black" points="488.5,-230 488.5,-248 567.5,-248 567.5,-230 488.5,-230"/>
<text text-anchor="start" x="528.5" y="-236.2" font-family="Helvetica,sans-Serif" font-size="11.00">0 rows</text>
<polygon fill="#ffffff" stroke="none" points="567.5,-230 567.5,-248 618.5,-248 618.5,-230 567.5,-230"/>
<polygon fill="none" stroke="black" points="567.5,-230 567.5,-248 618.5,-248 618.5,-230 567.5,-230"/>
<text text-anchor="start" x="608.5" y="-236.2" font-family="Helvetica,sans-Serif" font-size="11.00"> &#160;</text>
</a>
</g>
</g>
<!-- core_pulpexporter_repositories&#45;&gt;core_repository -->
<g id="edge9" class="edge"><title>core_pulpexporter_repositories:elipses:w&#45;&gt;core_repository:pulp_id:e</title>
<path fill="none" stroke="black" d="M376.216,-260.507C365.417,-267.227 363.394,-282.704 355,-299 322.448,-362.2 386.591,-454 315.5,-454"/>
<polygon fill="black" stroke="black" points="382.731,-258.907 391.358,-260.496 386.615,-257.954 390.5,-257 390.5,-257 390.5,-257 386.615,-257.954 389.642,-253.504 382.731,-258.907 382.731,-258.907"/>
<ellipse fill="none" stroke="black" cx="379.623" cy="-259.67" rx="3.2" ry="3.2"/>
</g>
<!-- core_pulpimporterrepository -->
<g id="node10" class="node"><title>core_pulpimporterrepository</title>
<g id="a_node10"><a xlink:href="../../tables/core_pulpimporterrepository.html" xlink:title="core_pulpimporterrepository" target="_top">
<polygon fill="#ffffff" stroke="none" points="397,-151 397,-209 612,-209 612,-151 397,-151"/>
<polygon fill="#f5f5f5" stroke="none" points="397.5,-187 397.5,-209 612.5,-209 612.5,-187 397.5,-187"/>
<polygon fill="none" stroke="black" points="397.5,-187 397.5,-209 612.5,-209 612.5,-187 397.5,-187"/>
<text text-anchor="start" x="402.5" y="-196.2" font-family="Helvetica,sans-Serif" font-weight="bold" font-size="11.00">core_pulpimporterrepository</text>
<text text-anchor="start" x="573.5" y="-195.2" font-family="Helvetica,sans-Serif" font-size="11.00">[table]</text>
<polygon fill="none" stroke="black" points="397.5,-169 397.5,-187 612.5,-187 612.5,-169 397.5,-169"/>
<text text-anchor="start" x="400.5" y="-175.2" font-family="Helvetica,sans-Serif" font-size="11.00">...</text>
<polygon fill="#ffffff" stroke="none" points="397.5,-151 397.5,-169 488.5,-169 488.5,-151 397.5,-151"/>
<polygon fill="none" stroke="black" points="397.5,-151 397.5,-169 488.5,-169 488.5,-151 397.5,-151"/>
<text text-anchor="start" x="400.5" y="-157.2" font-family="Helvetica,sans-Serif" font-size="11.00">&lt; 2</text>
<polygon fill="#ffffff" stroke="none" points="488.5,-151 488.5,-169 564.5,-169 564.5,-151 488.5,-151"/>
<polygon fill="none" stroke="black" points="488.5,-151 488.5,-169 564.5,-169 564.5,-151 488.5,-151"/>
<text text-anchor="start" x="525.5" y="-157.2" font-family="Helvetica,sans-Serif" font-size="11.00">0 rows</text>
<polygon fill="#ffffff" stroke="none" points="564.5,-151 564.5,-169 612.5,-169 612.5,-151 564.5,-151"/>
<polygon fill="none" stroke="black" points="564.5,-151 564.5,-169 612.5,-169 612.5,-151 564.5,-151"/>
<text text-anchor="start" x="602.5" y="-157.2" font-family="Helvetica,sans-Serif" font-size="11.00"> &#160;</text>
</a>
</g>
</g>
<!-- core_pulpimporterrepository&#45;&gt;core_repository -->
<g id="edge10" class="edge"><title>core_pulpimporterrepository:elipses:w&#45;&gt;core_repository:pulp_id:e</title>
<path fill="none" stroke="black" d="M382.242,-180.53C368.401,-186.382 364.345,-201.752 355,-220 330.961,-266.938 368.236,-454 315.5,-454"/>
<polygon fill="black" stroke="black" points="388.623,-179.398 397.129,-181.545 392.562,-178.699 396.5,-178 396.5,-178 396.5,-178 392.562,-178.699 395.871,-174.455 388.623,-179.398 388.623,-179.398"/>
<ellipse fill="none" stroke="black" cx="385.472" cy="-179.957" rx="3.2" ry="3.2"/>
</g>
<!-- core_repositorycontent -->
<g id="node12" class="node"><title>core_repositorycontent</title>
<g id="a_node12"><a xlink:href="../../tables/core_repositorycontent.html" xlink:title="core_repositorycontent" target="_top">
<polygon fill="#ffffff" stroke="none" points="720.5,-522 720.5,-580 902.5,-580 902.5,-522 720.5,-522"/>
<polygon fill="#f5f5f5" stroke="none" points="720.5,-558 720.5,-580 902.5,-580 902.5,-558 720.5,-558"/>
<polygon fill="none" stroke="black" points="720.5,-558 720.5,-580 902.5,-580 902.5,-558 720.5,-558"/>
<text text-anchor="start" x="725.5" y="-567.2" font-family="Helvetica,sans-Serif" font-weight="bold" font-size="11.00">core_repositorycontent</text>
<text text-anchor="start" x="863.5" y="-566.2" font-family="Helvetica,sans-Serif" font-size="11.00">[table]</text>
<polygon fill="none" stroke="black" points="720.5,-540 720.5,-558 902.5,-558 902.5,-540 720.5,-540"/>
<text text-anchor="start" x="723.5" y="-546.2" font-family="Helvetica,sans-Serif" font-size="11.00">...</text>
<polygon fill="#ffffff" stroke="none" points="720.5,-522 720.5,-540 788.5,-540 788.5,-522 720.5,-522"/>
<polygon fill="none" stroke="black" points="720.5,-522 720.5,-540 788.5,-540 788.5,-522 720.5,-522"/>
<text text-anchor="start" x="723.5" y="-528.2" font-family="Helvetica,sans-Serif" font-size="11.00">&lt; 4</text>
<polygon fill="#ffffff" stroke="none" points="788.5,-522 788.5,-540 866.5,-540 866.5,-522 788.5,-522"/>
<polygon fill="none" stroke="black" points="788.5,-522 788.5,-540 866.5,-540 866.5,-522 788.5,-522"/>
<text text-anchor="start" x="814.5" y="-528.2" font-family="Helvetica,sans-Serif" font-size="11.00">786 rows</text>
<polygon fill="#ffffff" stroke="none" points="866.5,-522 866.5,-540 902.5,-540 902.5,-522 866.5,-522"/>
<polygon fill="none" stroke="black" points="866.5,-522 866.5,-540 902.5,-540 902.5,-522 866.5,-522"/>
<text text-anchor="start" x="892.5" y="-528.2" font-family="Helvetica,sans-Serif" font-size="11.00"> &#160;</text>
</a>
</g>
</g>
<!-- core_repositorycontent&#45;&gt;core_repository -->
<g id="edge12" class="edge"><title>core_repositorycontent:elipses:w&#45;&gt;core_repository:pulp_id:e</title>
<path fill="none" stroke="black" d="M705.041,-549.264C615.309,-552.201 419.141,-577.91 355,-536 321.136,-513.873 355.952,-454 315.5,-454"/>
<polygon fill="black" stroke="black" points="711.501,-549.146 719.566,-552.599 715.501,-549.073 719.5,-549 719.5,-549 719.5,-549 715.501,-549.073 719.434,-545.401 711.501,-549.146 711.501,-549.146"/>
<ellipse fill="none" stroke="black" cx="708.302" cy="-549.204" rx="3.2" ry="3.2"/>
</g>
<!-- core_repositorycontent&#45;&gt;core_repositoryversion -->
<g id="edge13" class="edge"><title>core_repositorycontent:elipses:w&#45;&gt;core_repositoryversion:elipses:e</title>
<path fill="none" stroke="black" d="M704.983,-548.67C658.639,-551.617 649.853,-594.527 595.5,-600"/>
<polygon fill="black" stroke="black" points="711.502,-548.818 719.418,-552.599 715.501,-548.909 719.5,-549 719.5,-549 719.5,-549 715.501,-548.909 719.582,-545.401 711.502,-548.818 711.502,-548.818"/>
<ellipse fill="none" stroke="black" cx="708.303" cy="-548.745" rx="3.2" ry="3.2"/>
</g>
<!-- core_repositorycontent&#45;&gt;core_repositoryversion -->
<g id="edge14" class="edge"><title>core_repositorycontent:elipses:w&#45;&gt;core_repositoryversion:elipses:e</title>
<path fill="none" stroke="black" d="M705.281,-551.715C658.677,-564.337 649.969,-606.398 595.5,-600"/>
<polygon fill="black" stroke="black" points="711.642,-550.5 720.175,-552.536 715.571,-549.75 719.5,-549 719.5,-549 719.5,-549 715.571,-549.75 718.825,-545.464 711.642,-550.5 711.642,-550.5"/>
<ellipse fill="none" stroke="black" cx="708.499" cy="-551.1" rx="3.2" ry="3.2"/>
</g>
<!-- galaxy_synclist -->
<g id="node13" class="node"><title>galaxy_synclist</title>
<g id="a_node13"><a xlink:href="../../tables/galaxy_synclist.html" xlink:title="galaxy_synclist" target="_top">
<polygon fill="#ffffff" stroke="none" points="730.5,-37 730.5,-183 892.5,-183 892.5,-37 730.5,-37"/>
<polygon fill="#f5f5f5" stroke="none" points="730.5,-161 730.5,-183 892.5,-183 892.5,-161 730.5,-161"/>
<polygon fill="none" stroke="black" points="730.5,-161 730.5,-183 892.5,-183 892.5,-161 730.5,-161"/>
<text text-anchor="start" x="735.5" y="-170.2" font-family="Helvetica,sans-Serif" font-weight="bold" font-size="11.00">galaxy_synclist</text>
<text text-anchor="start" x="853.5" y="-169.2" font-family="Helvetica,sans-Serif" font-size="11.00">[table]</text>
<polygon fill="none" stroke="black" points="730.5,-139 730.5,-161 892.5,-161 892.5,-139 730.5,-139"/>
<image xlink:href="../../images/primaryKeys.png" width="11px" height="12px" preserveAspectRatio="xMinYMin meet" x="735.5" y="-156"/>
<text text-anchor="start" x="750.5" y="-147.2" font-family="Helvetica,sans-Serif" font-size="11.00">id</text>
<polygon fill="#ffffff" stroke="none" points="730.5,-117 730.5,-139 892.5,-139 892.5,-117 730.5,-117"/>
<polygon fill="none" stroke="black" points="730.5,-117 730.5,-139 892.5,-139 892.5,-117 730.5,-117"/>
<text text-anchor="start" x="750.5" y="-125.2" font-family="Helvetica,sans-Serif" font-size="11.00">name</text>
<polygon fill="#ffffff" stroke="none" points="730.5,-95 730.5,-117 892.5,-117 892.5,-95 730.5,-95"/>
<polygon fill="none" stroke="black" points="730.5,-95 730.5,-117 892.5,-117 892.5,-95 730.5,-95"/>
<image xlink:href="../../images/foreignKeys.png" width="11px" height="12px" preserveAspectRatio="xMinYMin meet" x="735.5" y="-112"/>
<text text-anchor="start" x="750.5" y="-103.2" font-family="Helvetica,sans-Serif" font-size="11.00">repository_id</text>
<polygon fill="#ffffff" stroke="none" points="730.5,-73 730.5,-95 892.5,-95 892.5,-73 730.5,-73"/>
<polygon fill="none" stroke="black" points="730.5,-73 730.5,-95 892.5,-95 892.5,-73 730.5,-73"/>
<image xlink:href="../../images/foreignKeys.png" width="11px" height="12px" preserveAspectRatio="xMinYMin meet" x="735.5" y="-90"/>
<text text-anchor="start" x="750.5" y="-81.2" font-family="Helvetica,sans-Serif" font-size="11.00">upstream_repository_id</text>
<polygon fill="none" stroke="black" points="730.5,-55 730.5,-73 892.5,-73 892.5,-55 730.5,-55"/>
<text text-anchor="start" x="733.5" y="-61.2" font-family="Helvetica,sans-Serif" font-size="11.00">...</text>
<polygon fill="#ffffff" stroke="none" points="730.5,-37 730.5,-55 790.5,-55 790.5,-37 730.5,-37"/>
<polygon fill="none" stroke="black" points="730.5,-37 730.5,-55 790.5,-55 790.5,-37 730.5,-37"/>
<text text-anchor="start" x="733.5" y="-43.2" font-family="Helvetica,sans-Serif" font-size="11.00">&lt; 2</text>
<polygon fill="#ffffff" stroke="none" points="790.5,-37 790.5,-55 850.5,-55 850.5,-37 790.5,-37"/>
<polygon fill="none" stroke="black" points="790.5,-37 790.5,-55 850.5,-55 850.5,-37 790.5,-37"/>
<text text-anchor="start" x="811.5" y="-43.2" font-family="Helvetica,sans-Serif" font-size="11.00">7 rows</text>
<polygon fill="#ffffff" stroke="none" points="850.5,-37 850.5,-55 892.5,-55 892.5,-37 850.5,-37"/>
<polygon fill="none" stroke="black" points="850.5,-37 850.5,-55 892.5,-55 892.5,-37 850.5,-37"/>
<text text-anchor="start" x="872.5" y="-43.2" font-family="Helvetica,sans-Serif" font-size="11.00">2 &gt;</text>
</a>
</g>
</g>
<!-- galaxy_synclist&#45;&gt;ansible_ansiblerepository -->
<g id="edge16" class="edge"><title>galaxy_synclist:repository_id:w&#45;&gt;ansible_ansiblerepository:repository_ptr_id.type:e</title>
<path fill="none" stroke="black" d="M714.814,-105.377C688.729,-103.05 677.71,-95 645.5,-95"/>
<polygon fill="black" stroke="black" points="721.507,-105.661 729.347,-109.597 725.504,-105.83 729.5,-106 729.5,-106 729.5,-106 725.504,-105.83 729.653,-102.403 721.507,-105.661 721.507,-105.661"/>
<ellipse fill="none" stroke="black" cx="718.31" cy="-105.525" rx="3.2" ry="3.2"/>
</g>
<!-- galaxy_synclist&#45;&gt;ansible_ansiblerepository -->
<g id="edge17" class="edge"><title>galaxy_synclist:upstream_repository_id:w&#45;&gt;ansible_ansiblerepository:repository_ptr_id.type:e</title>
<path fill="none" stroke="black" d="M714.814,-84.6229C688.729,-86.9499 677.71,-95 645.5,-95"/>
<polygon fill="black" stroke="black" points="721.507,-84.3391 729.653,-87.5968 725.504,-84.1695 729.5,-84 729.5,-84 729.5,-84 725.504,-84.1695 729.347,-80.4032 721.507,-84.3391 721.507,-84.3391"/>
<ellipse fill="none" stroke="black" cx="718.31" cy="-84.4747" rx="3.2" ry="3.2"/>
</g>
<!-- galaxy_synclist_collections -->
<g id="node14" class="node"><title>galaxy_synclist_collections</title>
<g id="a_node14"><a xlink:href="../../tables/galaxy_synclist_collections.html" xlink:title="galaxy_synclist_collections" target="_top">
<polygon fill="#ffffff" stroke="none" points="981.5,-162 981.5,-220 1180.5,-220 1180.5,-162 981.5,-162"/>
<polygon fill="#f5f5f5" stroke="none" points="982,-198 982,-220 1181,-220 1181,-198 982,-198"/>
<polygon fill="none" stroke="black" points="982,-198 982,-220 1181,-220 1181,-198 982,-198"/>
<text text-anchor="start" x="987" y="-207.2" font-family="Helvetica,sans-Serif" font-weight="bold" font-size="11.00">galaxy_synclist_collections</text>
<text text-anchor="start" x="1142" y="-206.2" font-family="Helvetica,sans-Serif" font-size="11.00">[table]</text>
<polygon fill="none" stroke="black" points="982,-180 982,-198 1181,-198 1181,-180 982,-180"/>
<text text-anchor="start" x="985" y="-186.2" font-family="Helvetica,sans-Serif" font-size="11.00">...</text>
<polygon fill="#ffffff" stroke="none" points="982,-162 982,-180 1065,-180 1065,-162 982,-162"/>
<polygon fill="none" stroke="black" points="982,-162 982,-180 1065,-180 1065,-162 982,-162"/>
<text text-anchor="start" x="985" y="-168.2" font-family="Helvetica,sans-Serif" font-size="11.00">&lt; 2</text>
<polygon fill="#ffffff" stroke="none" points="1065,-162 1065,-180 1137,-180 1137,-162 1065,-162"/>
<polygon fill="none" stroke="black" points="1065,-162 1065,-180 1137,-180 1137,-162 1065,-162"/>
<text text-anchor="start" x="1098" y="-168.2" font-family="Helvetica,sans-Serif" font-size="11.00">8 rows</text>
<polygon fill="#ffffff" stroke="none" points="1137,-162 1137,-180 1181,-180 1181,-162 1137,-162"/>
<polygon fill="none" stroke="black" points="1137,-162 1137,-180 1181,-180 1181,-162 1137,-162"/>
<text text-anchor="start" x="1171" y="-168.2" font-family="Helvetica,sans-Serif" font-size="11.00"> &#160;</text>
</a>
</g>
</g>
<!-- galaxy_synclist_collections&#45;&gt;galaxy_synclist -->
<g id="edge18" class="edge"><title>galaxy_synclist_collections:elipses:w&#45;&gt;galaxy_synclist:id:e</title>
<path fill="none" stroke="black" d="M966.368,-187.223C937.15,-179.593 930.588,-150 893.5,-150"/>
<polygon fill="black" stroke="black" points="973.058,-188.035 980.566,-192.574 977.029,-188.518 981,-189 981,-189 981,-189 977.029,-188.518 981.434,-185.426 973.058,-188.035 973.058,-188.035"/>
<ellipse fill="none" stroke="black" cx="969.882" cy="-187.65" rx="3.2" ry="3.2"/>
</g>
<!-- galaxy_synclist_namespaces -->
<g id="node15" class="node"><title>galaxy_synclist_namespaces</title>
<g id="a_node15"><a xlink:href="../../tables/galaxy_synclist_namespaces.html" xlink:title="galaxy_synclist_namespaces" target="_top">
<polygon fill="#ffffff" stroke="none" points="977,-83 977,-141 1185,-141 1185,-83 977,-83"/>
<polygon fill="#f5f5f5" stroke="none" points="977,-119 977,-141 1185,-141 1185,-119 977,-119"/>
<polygon fill="none" stroke="black" points="977,-119 977,-141 1185,-141 1185,-119 977,-119"/>
<text text-anchor="start" x="982" y="-128.2" font-family="Helvetica,sans-Serif" font-weight="bold" font-size="11.00">galaxy_synclist_namespaces</text>
<text text-anchor="start" x="1146" y="-127.2" font-family="Helvetica,sans-Serif" font-size="11.00">[table]</text>
<polygon fill="none" stroke="black" points="977,-101 977,-119 1185,-119 1185,-101 977,-101"/>
<text text-anchor="start" x="980" y="-107.2" font-family="Helvetica,sans-Serif" font-size="11.00">...</text>
<polygon fill="#ffffff" stroke="none" points="977,-83 977,-101 1061,-101 1061,-83 977,-83"/>
<polygon fill="none" stroke="black" points="977,-83 977,-101 1061,-101 1061,-83 977,-83"/>
<text text-anchor="start" x="980" y="-89.2" font-family="Helvetica,sans-Serif" font-size="11.00">&lt; 2</text>
<polygon fill="#ffffff" stroke="none" points="1061,-83 1061,-101 1141,-101 1141,-83 1061,-83"/>
<polygon fill="none" stroke="black" points="1061,-83 1061,-101 1141,-101 1141,-83 1061,-83"/>
<text text-anchor="start" x="1095" y="-89.2" font-family="Helvetica,sans-Serif" font-size="11.00">13 rows</text>
<polygon fill="#ffffff" stroke="none" points="1141,-83 1141,-101 1185,-101 1185,-83 1141,-83"/>
<polygon fill="none" stroke="black" points="1141,-83 1141,-101 1185,-101 1185,-83 1141,-83"/>
<text text-anchor="start" x="1175" y="-89.2" font-family="Helvetica,sans-Serif" font-size="11.00"> &#160;</text>
</a>
</g>
</g>
<!-- galaxy_synclist_namespaces&#45;&gt;galaxy_synclist -->
<g id="edge19" class="edge"><title>galaxy_synclist_namespaces:elipses:w&#45;&gt;galaxy_synclist:id:e</title>
<path fill="none" stroke="black" d="M961.681,-111.929C934.284,-119.919 928.837,-150 893.5,-150"/>
<polygon fill="black" stroke="black" points="968.072,-111.068 976.481,-113.568 972.036,-110.534 976,-110 976,-110 976,-110 972.036,-110.534 975.519,-106.432 968.072,-111.068 968.072,-111.068"/>
<ellipse fill="none" stroke="black" cx="964.9" cy="-111.496" rx="3.2" ry="3.2"/>
</g>
</g>
</svg>
