<?xml version="1.0" encoding="UTF-8" standalone="no"?>
<!DOCTYPE svg PUBLIC "-//W3C//DTD SVG 1.1//EN"
 "http://www.w3.org/Graphics/SVG/1.1/DTD/svg11.dtd">
<!-- Generated by graphviz version 2.38.0 (20140413.2041)
 -->
<!-- Title: oneDegreeRelationshipsDiagram Pages: 1 -->
<svg width="477pt" height="153pt"
 viewBox="0.00 0.00 477.00 153.00" xmlns="http://www.w3.org/2000/svg" xmlns:xlink="http://www.w3.org/1999/xlink">
<g id="graph0" class="graph" transform="scale(1 1) rotate(0) translate(4 149)">
<title>oneDegreeRelationshipsDiagram</title>
<polygon fill="#ffffff" stroke="none" points="-4,4 -4,-149 473,-149 473,4 -4,4"/>
<text text-anchor="middle" x="74.5" y="-7.2" font-family="Helvetica,sans-Serif" font-size="11.00">Generated by SchemaSpy</text>
<!-- ansible_roleremote -->
<g id="node1" class="node"><title>ansible_roleremote</title>
<g id="a_node1"><a xlink:href="../../tables/ansible_roleremote.html" xlink:title="ansible_roleremote" target="_top">
<polygon fill="#ffffff" stroke="none" points="216,-75 216,-141 461,-141 461,-75 216,-75"/>
<polygon fill="#f5f5f5" stroke="none" points="218.5,-117 218.5,-139 459.5,-139 459.5,-117 218.5,-117"/>
<polygon fill="none" stroke="black" points="218.5,-117 218.5,-139 459.5,-139 459.5,-117 218.5,-117"/>
<text text-anchor="start" x="223.5" y="-126.2" font-family="Helvetica,sans-Serif" font-weight="bold" font-size="11.00">ansible_roleremote</text>
<text text-anchor="start" x="420.5" y="-125.2" font-family="Helvetica,sans-Serif" font-size="11.00">[table]</text>
<polygon fill="none" stroke="black" points="218.5,-95 218.5,-117 354.5,-117 354.5,-95 218.5,-95"/>
<image xlink:href="../../images/primaryKeys.png" width="11px" height="12px" preserveAspectRatio="xMinYMin meet" x="223.5" y="-112"/>
<text text-anchor="start" x="238.5" y="-103.2" font-family="Helvetica,sans-Serif" font-size="11.00">remote_ptr_id</text>
<polygon fill="none" stroke="black" points="354.5,-95 354.5,-117 459.5,-117 459.5,-95 354.5,-95"/>
<text text-anchor="start" x="357.5" y="-103.2" font-family="Helvetica,sans-Serif" font-size="11.00">uuid[2147483647]</text>
<polygon fill="#ffffff" stroke="none" points="218.5,-77 218.5,-95 276.5,-95 276.5,-77 218.5,-77"/>
<polygon fill="none" stroke="black" points="218.5,-77 218.5,-95 276.5,-95 276.5,-77 218.5,-77"/>
<text text-anchor="start" x="221.5" y="-83.2" font-family="Helvetica,sans-Serif" font-size="11.00">&lt; 1</text>
<polygon fill="#ffffff" stroke="none" points="276.5,-77 276.5,-95 354.5,-95 354.5,-77 276.5,-77"/>
<polygon fill="none" stroke="black" points="276.5,-77 276.5,-95 354.5,-95 354.5,-77 276.5,-77"/>
<text text-anchor="start" x="315.5" y="-83.2" font-family="Helvetica,sans-Serif" font-size="11.00">0 rows</text>
<polygon fill="#ffffff" stroke="none" points="354.5,-77 354.5,-95 459.5,-95 459.5,-77 354.5,-77"/>
<polygon fill="none" stroke="black" points="354.5,-77 354.5,-95 459.5,-95 459.5,-77 354.5,-77"/>
<text text-anchor="start" x="439.5" y="-83.2" font-family="Helvetica,sans-Serif" font-size="11.00">0 &gt;</text>
<polygon fill="none" stroke="black" stroke-width="2" points="217,-76 217,-140 460,-140 460,-76 217,-76"/>
</a>
</g>
</g>
<!-- core_remote -->
<g id="node2" class="node"><title>core_remote</title>
<g id="a_node2"><a xlink:href="../../tables/core_remote.html" xlink:title="core_remote" target="_top">
<polygon fill="#ffffff" stroke="none" points="8,-37 8,-139 167,-139 167,-37 8,-37"/>
<polygon fill="#f5f5f5" stroke="none" points="8.5,-117 8.5,-139 167.5,-139 167.5,-117 8.5,-117"/>
<polygon fill="none" stroke="black" points="8.5,-117 8.5,-139 167.5,-139 167.5,-117 8.5,-117"/>
<text text-anchor="start" x="13.5" y="-126.2" font-family="Helvetica,sans-Serif" font-weight="bold" font-size="11.00">core_remote</text>
<text text-anchor="start" x="128.5" y="-125.2" font-family="Helvetica,sans-Serif" font-size="11.00">[table]</text>
<polygon fill="none" stroke="black" points="8.5,-95 8.5,-117 167.5,-117 167.5,-95 8.5,-95"/>
<image xlink:href="../../images/primaryKeys.png" width="11px" height="12px" preserveAspectRatio="xMinYMin meet" x="13.5" y="-112"/>
<text text-anchor="start" x="28.5" y="-103.2" font-family="Helvetica,sans-Serif" font-size="11.00">pulp_id</text>
<polygon fill="#ffffff" stroke="none" points="8.5,-73 8.5,-95 167.5,-95 167.5,-73 8.5,-73"/>
<polygon fill="none" stroke="black" points="8.5,-73 8.5,-95 167.5,-95 167.5,-73 8.5,-73"/>
<text text-anchor="start" x="28.5" y="-81.2" font-family="Helvetica,sans-Serif" font-size="11.00">name</text>
<polygon fill="none" stroke="black" points="8.5,-55 8.5,-73 167.5,-73 167.5,-55 8.5,-55"/>
<text text-anchor="start" x="11.5" y="-61.2" font-family="Helvetica,sans-Serif" font-size="11.00">...</text>
<polygon fill="#ffffff" stroke="none" points="8.5,-37 8.5,-55 61.5,-55 61.5,-37 8.5,-37"/>
<polygon fill="none" stroke="black" points="8.5,-37 8.5,-55 61.5,-55 61.5,-37 8.5,-37"/>
<text text-anchor="start" x="11.5" y="-43.2" font-family="Helvetica,sans-Serif" font-size="11.00"> &#160;</text>
<polygon fill="#ffffff" stroke="none" points="61.5,-37 61.5,-55 123.5,-55 123.5,-37 61.5,-37"/>
<polygon fill="none" stroke="black" points="61.5,-37 61.5,-55 123.5,-55 123.5,-37 61.5,-37"/>
<text text-anchor="start" x="84.5" y="-43.2" font-family="Helvetica,sans-Serif" font-size="11.00">7 rows</text>
<polygon fill="#ffffff" stroke="none" points="123.5,-37 123.5,-55 167.5,-55 167.5,-37 123.5,-37"/>
<polygon fill="none" stroke="black" points="123.5,-37 123.5,-55 167.5,-55 167.5,-37 123.5,-37"/>
<text text-anchor="start" x="147.5" y="-43.2" font-family="Helvetica,sans-Serif" font-size="11.00">6 &gt;</text>
</a>
</g>
</g>
<!-- ansible_roleremote&#45;&gt;core_remote -->
<g id="edge1" class="edge"><title>ansible_roleremote:remote_ptr_id:w&#45;&gt;core_remote:pulp_id:e</title>
<path fill="none" stroke="black" d="M206.757,-106C193.106,-106 186.194,-106 168.5,-106"/>
<polygon fill="black" stroke="black" points="216.7,-102 216.7,-110 215.1,-110 215.1,-102 216.7,-102"/>
<polyline fill="none" stroke="black" points="217.5,-106 213.5,-106 "/>
<ellipse fill="none" stroke="black" cx="210.3" cy="-106" rx="3.2" ry="3.2"/>
</g>
</g>
</svg>
