<?xml version="1.0" encoding="UTF-8" standalone="no"?>
<!DOCTYPE svg PUBLIC "-//W3C//DTD SVG 1.1//EN"
 "http://www.w3.org/Graphics/SVG/1.1/DTD/svg11.dtd">
<!-- Generated by graphviz version 2.38.0 (20140413.2041)
 -->
<!-- Title: oneDegreeRelationshipsDiagram Pages: 1 -->
<svg width="510pt" height="373pt"
 viewBox="0.00 0.00 510.00 373.00" xmlns="http://www.w3.org/2000/svg" xmlns:xlink="http://www.w3.org/1999/xlink">
<g id="graph0" class="graph" transform="scale(1 1) rotate(0) translate(4 369)">
<title>oneDegreeRelationshipsDiagram</title>
<polygon fill="#ffffff" stroke="none" points="-4,4 -4,-369 506,-369 506,4 -4,4"/>
<text text-anchor="middle" x="74.5" y="-7.2" font-family="Helvetica,sans-Serif" font-size="11.00">Generated by SchemaSpy</text>
<!-- ansible_collectionversion -->
<g id="node1" class="node"><title>ansible_collectionversion</title>
<g id="a_node1"><a xlink:href="../../tables/ansible_collectionversion.html" xlink:title="ansible_collectionversion" target="_top">
<polygon fill="#ffffff" stroke="none" points="298,-171 298,-361 491,-361 491,-171 298,-171"/>
<polygon fill="#f5f5f5" stroke="none" points="298.5,-339 298.5,-361 491.5,-361 491.5,-339 298.5,-339"/>
<polygon fill="none" stroke="black" points="298.5,-339 298.5,-361 491.5,-361 491.5,-339 298.5,-339"/>
<text text-anchor="start" x="303.5" y="-348.2" font-family="Helvetica,sans-Serif" font-weight="bold" font-size="11.00">ansible_collectionversion</text>
<text text-anchor="start" x="452.5" y="-347.2" font-family="Helvetica,sans-Serif" font-size="11.00">[table]</text>
<polygon fill="none" stroke="black" points="298.5,-317 298.5,-339 491.5,-339 491.5,-317 298.5,-317"/>
<image xlink:href="../../images/primaryKeys.png" width="11px" height="12px" preserveAspectRatio="xMinYMin meet" x="303.5" y="-334"/>
<text text-anchor="start" x="329.5" y="-325.2" font-family="Helvetica,sans-Serif" font-size="11.00">content_ptr_id</text>
<polygon fill="#ffffff" stroke="none" points="298.5,-295 298.5,-317 491.5,-317 491.5,-295 298.5,-295"/>
<polygon fill="none" stroke="black" points="298.5,-295 298.5,-317 491.5,-317 491.5,-295 298.5,-295"/>
<text text-anchor="start" x="329.5" y="-303.2" font-family="Helvetica,sans-Serif" font-size="11.00">version</text>
<polygon fill="#ffffff" stroke="none" points="298.5,-273 298.5,-295 491.5,-295 491.5,-273 298.5,-273"/>
<polygon fill="none" stroke="black" points="298.5,-273 298.5,-295 491.5,-295 491.5,-273 298.5,-273"/>
<image xlink:href="../../images/foreignKeys.png" width="11px" height="12px" preserveAspectRatio="xMinYMin meet" x="303.5" y="-290"/>
<text text-anchor="start" x="329.5" y="-281.2" font-family="Helvetica,sans-Serif" font-size="11.00">collection_id</text>
<polygon fill="#ffffff" stroke="none" points="298.5,-251 298.5,-273 491.5,-273 491.5,-251 298.5,-251"/>
<polygon fill="none" stroke="black" points="298.5,-251 298.5,-273 491.5,-273 491.5,-251 298.5,-251"/>
<text text-anchor="start" x="329.5" y="-259.2" font-family="Helvetica,sans-Serif" font-size="11.00">name</text>
<polygon fill="#ffffff" stroke="none" points="298.5,-229 298.5,-251 491.5,-251 491.5,-229 298.5,-229"/>
<polygon fill="none" stroke="black" points="298.5,-229 298.5,-251 491.5,-251 491.5,-229 298.5,-229"/>
<text text-anchor="start" x="329.5" y="-237.2" font-family="Helvetica,sans-Serif" font-size="11.00">namespace</text>
<polygon fill="#ffffff" stroke="none" points="298.5,-207 298.5,-229 491.5,-229 491.5,-207 298.5,-207"/>
<polygon fill="none" stroke="black" points="298.5,-207 298.5,-229 491.5,-229 491.5,-207 298.5,-207"/>
<text text-anchor="start" x="329.5" y="-215.2" font-family="Helvetica,sans-Serif" font-size="11.00">is_highest</text>
<polygon fill="none" stroke="black" points="298.5,-189 298.5,-207 491.5,-207 491.5,-189 298.5,-189"/>
<text text-anchor="start" x="301.5" y="-195.2" font-family="Helvetica,sans-Serif" font-size="11.00">...</text>
<polygon fill="#ffffff" stroke="none" points="298.5,-171 298.5,-189 370.5,-189 370.5,-171 298.5,-171"/>
<polygon fill="none" stroke="black" points="298.5,-171 298.5,-189 370.5,-189 370.5,-171 298.5,-171"/>
<text text-anchor="start" x="301.5" y="-177.2" font-family="Helvetica,sans-Serif" font-size="11.00">&lt; 2</text>
<polygon fill="#ffffff" stroke="none" points="370.5,-171 370.5,-189 443.5,-189 443.5,-171 370.5,-171"/>
<polygon fill="none" stroke="black" points="370.5,-171 370.5,-189 443.5,-189 443.5,-171 370.5,-171"/>
<text text-anchor="start" x="397.5" y="-177.2" font-family="Helvetica,sans-Serif" font-size="11.00">88 rows</text>
<polygon fill="#ffffff" stroke="none" points="443.5,-171 443.5,-189 491.5,-189 491.5,-171 443.5,-171"/>
<polygon fill="none" stroke="black" points="443.5,-171 443.5,-189 491.5,-189 491.5,-171 443.5,-171"/>
<text text-anchor="start" x="471.5" y="-177.2" font-family="Helvetica,sans-Serif" font-size="11.00">1 &gt;</text>
</a>
</g>
</g>
<!-- ansible_collection -->
<g id="node2" class="node"><title>ansible_collection</title>
<g id="a_node2"><a xlink:href="../../tables/ansible_collection.html" xlink:title="ansible_collection" target="_top">
<polygon fill="#ffffff" stroke="none" points="8,-37 8,-213 246,-213 246,-37 8,-37"/>
<polygon fill="#f5f5f5" stroke="none" points="10,-189 10,-211 244,-211 244,-189 10,-189"/>
<polygon fill="none" stroke="black" points="10,-189 10,-211 244,-211 244,-189 10,-189"/>
<text text-anchor="start" x="15" y="-198.2" font-family="Helvetica,sans-Serif" font-weight="bold" font-size="11.00">ansible_collection</text>
<text text-anchor="start" x="205" y="-197.2" font-family="Helvetica,sans-Serif" font-size="11.00">[table]</text>
<polygon fill="none" stroke="black" points="10,-167 10,-189 139,-189 139,-167 10,-167"/>
<image xlink:href="../../images/primaryKeys.png" width="11px" height="12px" preserveAspectRatio="xMinYMin meet" x="15" y="-184"/>
<text text-anchor="start" x="30" y="-175.2" font-family="Helvetica,sans-Serif" font-size="11.00">pulp_id</text>
<polygon fill="none" stroke="black" points="139,-167 139,-189 244,-189 244,-167 139,-167"/>
<text text-anchor="start" x="142" y="-175.2" font-family="Helvetica,sans-Serif" font-size="11.00">uuid[2147483647]</text>
<polygon fill="none" stroke="black" points="10,-145 10,-167 139,-167 139,-145 10,-145"/>
<text text-anchor="start" x="30" y="-153.2" font-family="Helvetica,sans-Serif" font-size="11.00">pulp_created</text>
<polygon fill="none" stroke="black" points="139,-145 139,-167 244,-167 244,-145 139,-145"/>
<text text-anchor="start" x="142" y="-153.2" font-family="Helvetica,sans-Serif" font-size="11.00">timestamptz[35,6]</text>
<polygon fill="none" stroke="black" points="10,-123 10,-145 139,-145 139,-123 10,-123"/>
<text text-anchor="start" x="30" y="-131.2" font-family="Helvetica,sans-Serif" font-size="11.00">pulp_last_updated</text>
<polygon fill="none" stroke="black" points="139,-123 139,-145 244,-145 244,-123 139,-123"/>
<text text-anchor="start" x="142" y="-131.2" font-family="Helvetica,sans-Serif" font-size="11.00">timestamptz[35,6]</text>
<polygon fill="#ffffff" stroke="none" points="10,-101 10,-123 139,-123 139,-101 10,-101"/>
<polygon fill="none" stroke="black" points="10,-101 10,-123 139,-123 139,-101 10,-101"/>
<text text-anchor="start" x="30" y="-109.2" font-family="Helvetica,sans-Serif" font-size="11.00">namespace</text>
<polygon fill="none" stroke="black" points="139,-101 139,-123 244,-123 244,-101 139,-101"/>
<text text-anchor="start" x="142" y="-109.2" font-family="Helvetica,sans-Serif" font-size="11.00">varchar[64]</text>
<polygon fill="#ffffff" stroke="none" points="10,-79 10,-101 139,-101 139,-79 10,-79"/>
<polygon fill="none" stroke="black" points="10,-79 10,-101 139,-101 139,-79 10,-79"/>
<text text-anchor="start" x="30" y="-87.2" font-family="Helvetica,sans-Serif" font-size="11.00">name</text>
<polygon fill="none" stroke="black" points="139,-79 139,-101 244,-101 244,-79 139,-79"/>
<text text-anchor="start" x="142" y="-87.2" font-family="Helvetica,sans-Serif" font-size="11.00">varchar[64]</text>
<polygon fill="none" stroke="black" points="10,-57 10,-79 139,-79 139,-57 10,-57"/>
<text text-anchor="start" x="30" y="-65.2" font-family="Helvetica,sans-Serif" font-size="11.00">deprecated</text>
<polygon fill="none" stroke="black" points="139,-57 139,-79 244,-79 244,-57 139,-57"/>
<text text-anchor="start" x="142" y="-65.2" font-family="Helvetica,sans-Serif" font-size="11.00">bool[1]</text>
<polygon fill="#ffffff" stroke="none" points="10,-39 10,-57 65,-57 65,-39 10,-39"/>
<polygon fill="none" stroke="black" points="10,-39 10,-57 65,-57 65,-39 10,-39"/>
<text text-anchor="start" x="13" y="-45.2" font-family="Helvetica,sans-Serif" font-size="11.00">&lt; 0</text>
<polygon fill="#ffffff" stroke="none" points="65,-39 65,-57 139,-57 139,-39 65,-39"/>
<polygon fill="none" stroke="black" points="65,-39 65,-57 139,-57 139,-39 65,-39"/>
<text text-anchor="start" x="100" y="-45.2" font-family="Helvetica,sans-Serif" font-size="11.00">4 rows</text>
<polygon fill="#ffffff" stroke="none" points="139,-39 139,-57 244,-57 244,-39 139,-39"/>
<polygon fill="none" stroke="black" points="139,-39 139,-57 244,-57 244,-39 139,-39"/>
<text text-anchor="start" x="224" y="-45.2" font-family="Helvetica,sans-Serif" font-size="11.00">2 &gt;</text>
<polygon fill="none" stroke="black" stroke-width="2" points="9,-38 9,-212 245,-212 245,-38 9,-38"/>
</a>
</g>
</g>
<!-- ansible_collectionversion&#45;&gt;ansible_collection -->
<g id="edge1" class="edge"><title>ansible_collectionversion:collection_id:w&#45;&gt;ansible_collection:pulp_id.type:e</title>
<path fill="none" stroke="black" d="M283.378,-280.227C255.504,-261.345 291.617,-178 245,-178"/>
<polygon fill="black" stroke="black" points="289.771,-281.935 296.571,-287.478 293.636,-282.968 297.5,-284 297.5,-284 297.5,-284 293.636,-282.968 298.429,-280.522 289.771,-281.935 289.771,-281.935"/>
<ellipse fill="none" stroke="black" cx="286.679" cy="-281.109" rx="3.2" ry="3.2"/>
</g>
<!-- galaxy_synclist_collections -->
<g id="node3" class="node"><title>galaxy_synclist_collections</title>
<g id="a_node3"><a xlink:href="../../tables/galaxy_synclist_collections.html" xlink:title="galaxy_synclist_collections" target="_top">
<polygon fill="#ffffff" stroke="none" points="295,-44 295,-150 494,-150 494,-44 295,-44"/>
<polygon fill="#f5f5f5" stroke="none" points="295.5,-128 295.5,-150 494.5,-150 494.5,-128 295.5,-128"/>
<polygon fill="none" stroke="black" points="295.5,-128 295.5,-150 494.5,-150 494.5,-128 295.5,-128"/>
<text text-anchor="start" x="300.5" y="-137.2" font-family="Helvetica,sans-Serif" font-weight="bold" font-size="11.00">galaxy_synclist_collections</text>
<text text-anchor="start" x="455.5" y="-136.2" font-family="Helvetica,sans-Serif" font-size="11.00">[table]</text>
<polygon fill="none" stroke="black" points="295.5,-106 295.5,-128 494.5,-128 494.5,-106 295.5,-106"/>
<image xlink:href="../../images/primaryKeys.png" width="11px" height="12px" preserveAspectRatio="xMinYMin meet" x="300.5" y="-123"/>
<text text-anchor="start" x="325.5" y="-114.2" font-family="Helvetica,sans-Serif" font-size="11.00">id</text>
<polygon fill="#ffffff" stroke="none" points="295.5,-84 295.5,-106 494.5,-106 494.5,-84 295.5,-84"/>
<polygon fill="none" stroke="black" points="295.5,-84 295.5,-106 494.5,-106 494.5,-84 295.5,-84"/>
<image xlink:href="../../images/foreignKeys.png" width="11px" height="12px" preserveAspectRatio="xMinYMin meet" x="300.5" y="-101"/>
<text text-anchor="start" x="325.5" y="-92.2" font-family="Helvetica,sans-Serif" font-size="11.00">synclist_id</text>
<polygon fill="#ffffff" stroke="none" points="295.5,-62 295.5,-84 494.5,-84 494.5,-62 295.5,-62"/>
<polygon fill="none" stroke="black" points="295.5,-62 295.5,-84 494.5,-84 494.5,-62 295.5,-62"/>
<image xlink:href="../../images/foreignKeys.png" width="11px" height="12px" preserveAspectRatio="xMinYMin meet" x="300.5" y="-79"/>
<text text-anchor="start" x="325.5" y="-70.2" font-family="Helvetica,sans-Serif" font-size="11.00">collection_id</text>
<polygon fill="#ffffff" stroke="none" points="295.5,-44 295.5,-62 378.5,-62 378.5,-44 295.5,-44"/>
<polygon fill="none" stroke="black" points="295.5,-44 295.5,-62 378.5,-62 378.5,-44 295.5,-44"/>
<text text-anchor="start" x="298.5" y="-50.2" font-family="Helvetica,sans-Serif" font-size="11.00">&lt; 2</text>
<polygon fill="#ffffff" stroke="none" points="378.5,-44 378.5,-62 450.5,-62 450.5,-44 378.5,-44"/>
<polygon fill="none" stroke="black" points="378.5,-44 378.5,-62 450.5,-62 450.5,-44 378.5,-44"/>
<text text-anchor="start" x="411.5" y="-50.2" font-family="Helvetica,sans-Serif" font-size="11.00">8 rows</text>
<polygon fill="#ffffff" stroke="none" points="450.5,-44 450.5,-62 494.5,-62 494.5,-44 450.5,-44"/>
<polygon fill="none" stroke="black" points="450.5,-44 450.5,-62 494.5,-62 494.5,-44 450.5,-44"/>
<text text-anchor="start" x="484.5" y="-50.2" font-family="Helvetica,sans-Serif" font-size="11.00"> &#160;</text>
</a>
</g>
</g>
<!-- galaxy_synclist_collections&#45;&gt;ansible_collection -->
<g id="edge2" class="edge"><title>galaxy_synclist_collections:collection_id:w&#45;&gt;ansible_collection:pulp_id.type:e</title>
<path fill="none" stroke="black" d="M280.36,-76.9879C254.044,-96.1674 290.546,-178 245,-178"/>
<polygon fill="black" stroke="black" points="286.8,-75.1716 295.477,-76.4648 290.65,-74.0858 294.5,-73 294.5,-73 294.5,-73 290.65,-74.0858 293.523,-69.5352 286.8,-75.1716 286.8,-75.1716"/>
<ellipse fill="none" stroke="black" cx="283.721" cy="-76.0403" rx="3.20001" ry="3.20001"/>
</g>
</g>
</svg>
