<?xml version="1.0" encoding="UTF-8" standalone="no"?>
<!DOCTYPE svg PUBLIC "-//W3C//DTD SVG 1.1//EN"
 "http://www.w3.org/Graphics/SVG/1.1/DTD/svg11.dtd">
<!-- Generated by graphviz version 2.38.0 (20140413.2041)
 -->
<!-- Title: oneDegreeRelationshipsDiagram Pages: 1 -->
<svg width="418pt" height="181pt"
 viewBox="0.00 0.00 418.00 181.00" xmlns="http://www.w3.org/2000/svg" xmlns:xlink="http://www.w3.org/1999/xlink">
<g id="graph0" class="graph" transform="scale(1 1) rotate(0) translate(4 177)">
<title>oneDegreeRelationshipsDiagram</title>
<polygon fill="#ffffff" stroke="none" points="-4,4 -4,-177 414,-177 414,4 -4,4"/>
<text text-anchor="middle" x="74.5" y="-7.2" font-family="Helvetica,sans-Serif" font-size="11.00">Generated by SchemaSpy</text>
<!-- ansible_role -->
<g id="node1" class="node"><title>ansible_role</title>
<g id="a_node1"><a xlink:href="../../tables/ansible_role.html" xlink:title="ansible_role" target="_top">
<polygon fill="#ffffff" stroke="none" points="186,-37 186,-169 402,-169 402,-37 186,-37"/>
<polygon fill="#f5f5f5" stroke="none" points="188,-145 188,-167 400,-167 400,-145 188,-145"/>
<polygon fill="none" stroke="black" points="188,-145 188,-167 400,-167 400,-145 188,-145"/>
<text text-anchor="start" x="193" y="-154.2" font-family="Helvetica,sans-Serif" font-weight="bold" font-size="11.00">ansible_role</text>
<text text-anchor="start" x="361" y="-153.2" font-family="Helvetica,sans-Serif" font-size="11.00">[table]</text>
<polygon fill="none" stroke="black" points="188,-123 188,-145 295,-145 295,-123 188,-123"/>
<image xlink:href="../../images/primaryKeys.png" width="11px" height="12px" preserveAspectRatio="xMinYMin meet" x="193" y="-140"/>
<text text-anchor="start" x="208" y="-131.2" font-family="Helvetica,sans-Serif" font-size="11.00">content_ptr_id</text>
<polygon fill="none" stroke="black" points="295,-123 295,-145 400,-145 400,-123 295,-123"/>
<text text-anchor="start" x="298" y="-131.2" font-family="Helvetica,sans-Serif" font-size="11.00">uuid[2147483647]</text>
<polygon fill="#ffffff" stroke="none" points="188,-101 188,-123 295,-123 295,-101 188,-101"/>
<polygon fill="none" stroke="black" points="188,-101 188,-123 295,-123 295,-101 188,-101"/>
<text text-anchor="start" x="208" y="-109.2" font-family="Helvetica,sans-Serif" font-size="11.00">namespace</text>
<polygon fill="none" stroke="black" points="295,-101 295,-123 400,-123 400,-101 295,-101"/>
<text text-anchor="start" x="298" y="-109.2" font-family="Helvetica,sans-Serif" font-size="11.00">varchar[64]</text>
<polygon fill="#ffffff" stroke="none" points="188,-79 188,-101 295,-101 295,-79 188,-79"/>
<polygon fill="none" stroke="black" points="188,-79 188,-101 295,-101 295,-79 188,-79"/>
<text text-anchor="start" x="208" y="-87.2" font-family="Helvetica,sans-Serif" font-size="11.00">name</text>
<polygon fill="none" stroke="black" points="295,-79 295,-101 400,-101 400,-79 295,-79"/>
<text text-anchor="start" x="298" y="-87.2" font-family="Helvetica,sans-Serif" font-size="11.00">varchar[64]</text>
<polygon fill="#ffffff" stroke="none" points="188,-57 188,-79 295,-79 295,-57 188,-57"/>
<polygon fill="none" stroke="black" points="188,-57 188,-79 295,-79 295,-57 188,-57"/>
<text text-anchor="start" x="208" y="-65.2" font-family="Helvetica,sans-Serif" font-size="11.00">version</text>
<polygon fill="none" stroke="black" points="295,-57 295,-79 400,-79 400,-57 295,-57"/>
<text text-anchor="start" x="298" y="-65.2" font-family="Helvetica,sans-Serif" font-size="11.00">varchar[128]</text>
<polygon fill="#ffffff" stroke="none" points="188,-39 188,-57 232,-57 232,-39 188,-39"/>
<polygon fill="none" stroke="black" points="188,-39 188,-57 232,-57 232,-39 188,-39"/>
<text text-anchor="start" x="191" y="-45.2" font-family="Helvetica,sans-Serif" font-size="11.00">&lt; 1</text>
<polygon fill="#ffffff" stroke="none" points="232,-39 232,-57 295,-57 295,-39 232,-39"/>
<polygon fill="none" stroke="black" points="232,-39 232,-57 295,-57 295,-39 232,-39"/>
<text text-anchor="start" x="256" y="-45.2" font-family="Helvetica,sans-Serif" font-size="11.00">0 rows</text>
<polygon fill="#ffffff" stroke="none" points="295,-39 295,-57 400,-57 400,-39 295,-39"/>
<polygon fill="none" stroke="black" points="295,-39 295,-57 400,-57 400,-39 295,-39"/>
<text text-anchor="start" x="380" y="-45.2" font-family="Helvetica,sans-Serif" font-size="11.00">0 &gt;</text>
<polygon fill="none" stroke="black" stroke-width="2" points="187,-38 187,-168 401,-168 401,-38 187,-38"/>
</a>
</g>
</g>
<!-- core_content -->
<g id="node2" class="node"><title>core_content</title>
<g id="a_node2"><a xlink:href="../../tables/core_content.html" xlink:title="core_content" target="_top">
<polygon fill="#ffffff" stroke="none" points="8,-87 8,-167 137,-167 137,-87 8,-87"/>
<polygon fill="#f5f5f5" stroke="none" points="8.5,-145 8.5,-167 137.5,-167 137.5,-145 8.5,-145"/>
<polygon fill="none" stroke="black" points="8.5,-145 8.5,-167 137.5,-167 137.5,-145 8.5,-145"/>
<text text-anchor="start" x="13.5" y="-154.2" font-family="Helvetica,sans-Serif" font-weight="bold" font-size="11.00">core_content</text>
<text text-anchor="start" x="98.5" y="-153.2" font-family="Helvetica,sans-Serif" font-size="11.00">[table]</text>
<polygon fill="none" stroke="black" points="8.5,-123 8.5,-145 137.5,-145 137.5,-123 8.5,-123"/>
<image xlink:href="../../images/primaryKeys.png" width="11px" height="12px" preserveAspectRatio="xMinYMin meet" x="13.5" y="-140"/>
<text text-anchor="start" x="28.5" y="-131.2" font-family="Helvetica,sans-Serif" font-size="11.00">pulp_id</text>
<polygon fill="none" stroke="black" points="8.5,-105 8.5,-123 137.5,-123 137.5,-105 8.5,-105"/>
<text text-anchor="start" x="11.5" y="-111.2" font-family="Helvetica,sans-Serif" font-size="11.00">...</text>
<polygon fill="#ffffff" stroke="none" points="8.5,-87 8.5,-105 43.5,-105 43.5,-87 8.5,-87"/>
<polygon fill="none" stroke="black" points="8.5,-87 8.5,-105 43.5,-105 43.5,-87 8.5,-87"/>
<text text-anchor="start" x="11.5" y="-93.2" font-family="Helvetica,sans-Serif" font-size="11.00"> &#160;</text>
<polygon fill="#ffffff" stroke="none" points="43.5,-87 43.5,-105 103.5,-105 103.5,-87 43.5,-87"/>
<polygon fill="none" stroke="black" points="43.5,-87 43.5,-105 103.5,-105 103.5,-87 43.5,-87"/>
<text text-anchor="start" x="57.5" y="-93.2" font-family="Helvetica,sans-Serif" font-size="11.00">88 rows</text>
<polygon fill="#ffffff" stroke="none" points="103.5,-87 103.5,-105 137.5,-105 137.5,-87 103.5,-87"/>
<polygon fill="none" stroke="black" points="103.5,-87 103.5,-105 137.5,-105 137.5,-87 103.5,-87"/>
<text text-anchor="start" x="117.5" y="-93.2" font-family="Helvetica,sans-Serif" font-size="11.00">8 &gt;</text>
</a>
</g>
</g>
<!-- ansible_role&#45;&gt;core_content -->
<g id="edge1" class="edge"><title>ansible_role:content_ptr_id:w&#45;&gt;core_content:pulp_id:e</title>
<path fill="none" stroke="black" d="M176.367,-134C162.855,-134 156.014,-134 138.5,-134"/>
<polygon fill="black" stroke="black" points="186.2,-130 186.2,-138 184.6,-138 184.6,-130 186.2,-130"/>
<polyline fill="none" stroke="black" points="187,-134 183,-134 "/>
<ellipse fill="none" stroke="black" cx="179.8" cy="-134" rx="3.2" ry="3.2"/>
</g>
</g>
</svg>
