<?xml version="1.0" encoding="UTF-8" standalone="no"?>
<!DOCTYPE svg PUBLIC "-//W3C//DTD SVG 1.1//EN"
 "http://www.w3.org/Graphics/SVG/1.1/DTD/svg11.dtd">
<!-- Generated by graphviz version 2.38.0 (20140413.2041)
 -->
<!-- Title: oneDegreeRelationshipsDiagram Pages: 1 -->
<svg width="512pt" height="181pt"
 viewBox="0.00 0.00 512.00 181.00" xmlns="http://www.w3.org/2000/svg" xmlns:xlink="http://www.w3.org/1999/xlink">
<g id="graph0" class="graph" transform="scale(1 1) rotate(0) translate(4 177)">
<title>oneDegreeRelationshipsDiagram</title>
<polygon fill="#ffffff" stroke="none" points="-4,4 -4,-177 508,-177 508,4 -4,4"/>
<text text-anchor="middle" x="74.5" y="-7.2" font-family="Helvetica,sans-Serif" font-size="11.00">Generated by SchemaSpy</text>
<!-- ansible_collectionremote -->
<g id="node1" class="node"><title>ansible_collectionremote</title>
<g id="a_node1"><a xlink:href="../../tables/ansible_collectionremote.html" xlink:title="ansible_collectionremote" target="_top">
<polygon fill="#ffffff" stroke="none" points="216,-37 216,-169 496,-169 496,-37 216,-37"/>
<polygon fill="#f5f5f5" stroke="none" points="218,-145 218,-167 494,-167 494,-145 218,-145"/>
<polygon fill="none" stroke="black" points="218,-145 218,-167 494,-167 494,-145 218,-145"/>
<text text-anchor="start" x="223" y="-154.2" font-family="Helvetica,sans-Serif" font-weight="bold" font-size="11.00">ansible_collectionremote</text>
<text text-anchor="start" x="455" y="-153.2" font-family="Helvetica,sans-Serif" font-size="11.00">[table]</text>
<polygon fill="none" stroke="black" points="218,-123 218,-145 389,-145 389,-123 218,-123"/>
<image xlink:href="../../images/primaryKeys.png" width="11px" height="12px" preserveAspectRatio="xMinYMin meet" x="223" y="-140"/>
<text text-anchor="start" x="238" y="-131.2" font-family="Helvetica,sans-Serif" font-size="11.00">remote_ptr_id</text>
<polygon fill="none" stroke="black" points="389,-123 389,-145 494,-145 494,-123 389,-123"/>
<text text-anchor="start" x="392" y="-131.2" font-family="Helvetica,sans-Serif" font-size="11.00">uuid[2147483647]</text>
<polygon fill="none" stroke="black" points="218,-101 218,-123 389,-123 389,-101 218,-101"/>
<text text-anchor="start" x="238" y="-109.2" font-family="Helvetica,sans-Serif" font-size="11.00">requirements_file</text>
<polygon fill="none" stroke="black" points="389,-101 389,-123 494,-123 494,-101 389,-101"/>
<text text-anchor="start" x="392" y="-109.2" font-family="Helvetica,sans-Serif" font-size="11.00">text[2147483647]</text>
<polygon fill="none" stroke="black" points="218,-79 218,-101 389,-101 389,-79 218,-79"/>
<text text-anchor="start" x="238" y="-87.2" font-family="Helvetica,sans-Serif" font-size="11.00">auth_url</text>
<polygon fill="none" stroke="black" points="389,-79 389,-101 494,-101 494,-79 389,-79"/>
<text text-anchor="start" x="392" y="-87.2" font-family="Helvetica,sans-Serif" font-size="11.00">varchar[255]</text>
<polygon fill="none" stroke="black" points="218,-57 218,-79 389,-79 389,-57 218,-57"/>
<text text-anchor="start" x="238" y="-65.2" font-family="Helvetica,sans-Serif" font-size="11.00">token</text>
<polygon fill="none" stroke="black" points="389,-57 389,-79 494,-79 494,-57 389,-57"/>
<text text-anchor="start" x="392" y="-65.2" font-family="Helvetica,sans-Serif" font-size="11.00">text[2147483647]</text>
<polygon fill="#ffffff" stroke="none" points="218,-39 218,-57 294,-57 294,-39 218,-39"/>
<polygon fill="none" stroke="black" points="218,-39 218,-57 294,-57 294,-39 218,-39"/>
<text text-anchor="start" x="221" y="-45.2" font-family="Helvetica,sans-Serif" font-size="11.00">&lt; 1</text>
<polygon fill="#ffffff" stroke="none" points="294,-39 294,-57 389,-57 389,-39 294,-39"/>
<polygon fill="none" stroke="black" points="294,-39 294,-57 389,-57 389,-39 294,-39"/>
<text text-anchor="start" x="350" y="-45.2" font-family="Helvetica,sans-Serif" font-size="11.00">7 rows</text>
<polygon fill="#ffffff" stroke="none" points="389,-39 389,-57 494,-57 494,-39 389,-39"/>
<polygon fill="none" stroke="black" points="389,-39 389,-57 494,-57 494,-39 389,-39"/>
<text text-anchor="start" x="474" y="-45.2" font-family="Helvetica,sans-Serif" font-size="11.00">0 &gt;</text>
<polygon fill="none" stroke="black" stroke-width="2" points="217,-38 217,-168 495,-168 495,-38 217,-38"/>
</a>
</g>
</g>
<!-- core_remote -->
<g id="node2" class="node"><title>core_remote</title>
<g id="a_node2"><a xlink:href="../../tables/core_remote.html" xlink:title="core_remote" target="_top">
<polygon fill="#ffffff" stroke="none" points="8,-65 8,-167 167,-167 167,-65 8,-65"/>
<polygon fill="#f5f5f5" stroke="none" points="8.5,-145 8.5,-167 167.5,-167 167.5,-145 8.5,-145"/>
<polygon fill="none" stroke="black" points="8.5,-145 8.5,-167 167.5,-167 167.5,-145 8.5,-145"/>
<text text-anchor="start" x="13.5" y="-154.2" font-family="Helvetica,sans-Serif" font-weight="bold" font-size="11.00">core_remote</text>
<text text-anchor="start" x="128.5" y="-153.2" font-family="Helvetica,sans-Serif" font-size="11.00">[table]</text>
<polygon fill="none" stroke="black" points="8.5,-123 8.5,-145 167.5,-145 167.5,-123 8.5,-123"/>
<image xlink:href="../../images/primaryKeys.png" width="11px" height="12px" preserveAspectRatio="xMinYMin meet" x="13.5" y="-140"/>
<text text-anchor="start" x="28.5" y="-131.2" font-family="Helvetica,sans-Serif" font-size="11.00">pulp_id</text>
<polygon fill="#ffffff" stroke="none" points="8.5,-101 8.5,-123 167.5,-123 167.5,-101 8.5,-101"/>
<polygon fill="none" stroke="black" points="8.5,-101 8.5,-123 167.5,-123 167.5,-101 8.5,-101"/>
<text text-anchor="start" x="28.5" y="-109.2" font-family="Helvetica,sans-Serif" font-size="11.00">name</text>
<polygon fill="none" stroke="black" points="8.5,-83 8.5,-101 167.5,-101 167.5,-83 8.5,-83"/>
<text text-anchor="start" x="11.5" y="-89.2" font-family="Helvetica,sans-Serif" font-size="11.00">...</text>
<polygon fill="#ffffff" stroke="none" points="8.5,-65 8.5,-83 61.5,-83 61.5,-65 8.5,-65"/>
<polygon fill="none" stroke="black" points="8.5,-65 8.5,-83 61.5,-83 61.5,-65 8.5,-65"/>
<text text-anchor="start" x="11.5" y="-71.2" font-family="Helvetica,sans-Serif" font-size="11.00"> &#160;</text>
<polygon fill="#ffffff" stroke="none" points="61.5,-65 61.5,-83 123.5,-83 123.5,-65 61.5,-65"/>
<polygon fill="none" stroke="black" points="61.5,-65 61.5,-83 123.5,-83 123.5,-65 61.5,-65"/>
<text text-anchor="start" x="84.5" y="-71.2" font-family="Helvetica,sans-Serif" font-size="11.00">7 rows</text>
<polygon fill="#ffffff" stroke="none" points="123.5,-65 123.5,-83 167.5,-83 167.5,-65 123.5,-65"/>
<polygon fill="none" stroke="black" points="123.5,-65 123.5,-83 167.5,-83 167.5,-65 123.5,-65"/>
<text text-anchor="start" x="147.5" y="-71.2" font-family="Helvetica,sans-Serif" font-size="11.00">6 &gt;</text>
</a>
</g>
</g>
<!-- ansible_collectionremote&#45;&gt;core_remote -->
<g id="edge1" class="edge"><title>ansible_collectionremote:remote_ptr_id:w&#45;&gt;core_remote:pulp_id:e</title>
<path fill="none" stroke="black" d="M206.367,-134C192.855,-134 186.014,-134 168.5,-134"/>
<polygon fill="black" stroke="black" points="216.2,-130 216.2,-138 214.6,-138 214.6,-130 216.2,-130"/>
<polyline fill="none" stroke="black" points="217,-134 213,-134 "/>
<ellipse fill="none" stroke="black" cx="209.8" cy="-134" rx="3.2" ry="3.2"/>
</g>
</g>
</svg>
