<?xml version="1.0" encoding="UTF-8" standalone="no"?>
<!DOCTYPE svg PUBLIC "-//W3C//DTD SVG 1.1//EN"
 "http://www.w3.org/Graphics/SVG/1.1/DTD/svg11.dtd">
<!-- Generated by graphviz version 2.38.0 (20140413.2041)
 -->
<!-- Title: oneDegreeRelationshipsDiagram Pages: 1 -->
<svg width="791pt" height="509pt"
 viewBox="0.00 0.00 791.00 509.00" xmlns="http://www.w3.org/2000/svg" xmlns:xlink="http://www.w3.org/1999/xlink">
<g id="graph0" class="graph" transform="scale(1 1) rotate(0) translate(4 505)">
<title>oneDegreeRelationshipsDiagram</title>
<polygon fill="#ffffff" stroke="none" points="-4,4 -4,-505 787,-505 787,4 -4,4"/>
<text text-anchor="middle" x="74.5" y="-7.2" font-family="Helvetica,sans-Serif" font-size="11.00">Generated by SchemaSpy</text>
<!-- ansible_collectionversion -->
<g id="node1" class="node"><title>ansible_collectionversion</title>
<g id="a_node1"><a xlink:href="../../tables/ansible_collectionversion.html" xlink:title="ansible_collectionversion" target="_top">
<polygon fill="#ffffff" stroke="none" points="208,-37 208,-477 506,-477 506,-37 208,-37"/>
<polygon fill="#f5f5f5" stroke="none" points="210,-453 210,-475 504,-475 504,-453 210,-453"/>
<polygon fill="none" stroke="black" points="210,-453 210,-475 504,-475 504,-453 210,-453"/>
<text text-anchor="start" x="215" y="-462.2" font-family="Helvetica,sans-Serif" font-weight="bold" font-size="11.00">ansible_collectionversion</text>
<text text-anchor="start" x="465" y="-461.2" font-family="Helvetica,sans-Serif" font-size="11.00">[table]</text>
<polygon fill="none" stroke="black" points="210,-431 210,-453 381,-453 381,-431 210,-431"/>
<image xlink:href="../../images/primaryKeys.png" width="11px" height="12px" preserveAspectRatio="xMinYMin meet" x="215" y="-448"/>
<text text-anchor="start" x="230" y="-439.2" font-family="Helvetica,sans-Serif" font-size="11.00">content_ptr_id</text>
<polygon fill="none" stroke="black" points="381,-431 381,-453 504,-453 504,-431 381,-431"/>
<text text-anchor="start" x="384" y="-439.2" font-family="Helvetica,sans-Serif" font-size="11.00">uuid[2147483647]</text>
<polygon fill="#ffffff" stroke="none" points="210,-409 210,-431 381,-431 381,-409 210,-409"/>
<polygon fill="none" stroke="black" points="210,-409 210,-431 381,-431 381,-409 210,-409"/>
<text text-anchor="start" x="230" y="-417.2" font-family="Helvetica,sans-Serif" font-size="11.00">version</text>
<polygon fill="none" stroke="black" points="381,-409 381,-431 504,-431 504,-409 381,-409"/>
<text text-anchor="start" x="384" y="-417.2" font-family="Helvetica,sans-Serif" font-size="11.00">varchar[32]</text>
<polygon fill="none" stroke="black" points="210,-387 210,-409 381,-409 381,-387 210,-387"/>
<text text-anchor="start" x="230" y="-395.2" font-family="Helvetica,sans-Serif" font-size="11.00">contents</text>
<polygon fill="none" stroke="black" points="381,-387 381,-409 504,-409 504,-387 381,-387"/>
<text text-anchor="start" x="384" y="-395.2" font-family="Helvetica,sans-Serif" font-size="11.00">jsonb[2147483647]</text>
<polygon fill="#ffffff" stroke="none" points="210,-365 210,-387 381,-387 381,-365 210,-365"/>
<polygon fill="none" stroke="black" points="210,-365 210,-387 381,-387 381,-365 210,-365"/>
<image xlink:href="../../images/foreignKeys.png" width="11px" height="12px" preserveAspectRatio="xMinYMin meet" x="215" y="-382"/>
<text text-anchor="start" x="230" y="-373.2" font-family="Helvetica,sans-Serif" font-size="11.00">collection_id</text>
<polygon fill="none" stroke="black" points="381,-365 381,-387 504,-387 504,-365 381,-365"/>
<text text-anchor="start" x="384" y="-373.2" font-family="Helvetica,sans-Serif" font-size="11.00">uuid[2147483647]</text>
<polygon fill="none" stroke="black" points="210,-343 210,-365 381,-365 381,-343 210,-343"/>
<text text-anchor="start" x="230" y="-351.2" font-family="Helvetica,sans-Serif" font-size="11.00">authors</text>
<polygon fill="none" stroke="black" points="381,-343 381,-365 504,-365 504,-343 381,-343"/>
<text text-anchor="start" x="384" y="-351.2" font-family="Helvetica,sans-Serif" font-size="11.00">_varchar[64]</text>
<polygon fill="none" stroke="black" points="210,-321 210,-343 381,-343 381,-321 210,-321"/>
<text text-anchor="start" x="230" y="-329.2" font-family="Helvetica,sans-Serif" font-size="11.00">dependencies</text>
<polygon fill="none" stroke="black" points="381,-321 381,-343 504,-343 504,-321 381,-321"/>
<text text-anchor="start" x="384" y="-329.2" font-family="Helvetica,sans-Serif" font-size="11.00">jsonb[2147483647]</text>
<polygon fill="none" stroke="black" points="210,-299 210,-321 381,-321 381,-299 210,-299"/>
<text text-anchor="start" x="230" y="-307.2" font-family="Helvetica,sans-Serif" font-size="11.00">description</text>
<polygon fill="none" stroke="black" points="381,-299 381,-321 504,-321 504,-299 381,-299"/>
<text text-anchor="start" x="384" y="-307.2" font-family="Helvetica,sans-Serif" font-size="11.00">text[2147483647]</text>
<polygon fill="none" stroke="black" points="210,-277 210,-299 381,-299 381,-277 210,-277"/>
<text text-anchor="start" x="230" y="-285.2" font-family="Helvetica,sans-Serif" font-size="11.00">docs_blob</text>
<polygon fill="none" stroke="black" points="381,-277 381,-299 504,-299 504,-277 381,-277"/>
<text text-anchor="start" x="384" y="-285.2" font-family="Helvetica,sans-Serif" font-size="11.00">jsonb[2147483647]</text>
<polygon fill="none" stroke="black" points="210,-255 210,-277 381,-277 381,-255 210,-255"/>
<text text-anchor="start" x="230" y="-263.2" font-family="Helvetica,sans-Serif" font-size="11.00">documentation</text>
<polygon fill="none" stroke="black" points="381,-255 381,-277 504,-277 504,-255 381,-255"/>
<text text-anchor="start" x="384" y="-263.2" font-family="Helvetica,sans-Serif" font-size="11.00">varchar[2000]</text>
<polygon fill="none" stroke="black" points="210,-233 210,-255 381,-255 381,-233 210,-233"/>
<text text-anchor="start" x="230" y="-241.2" font-family="Helvetica,sans-Serif" font-size="11.00">homepage</text>
<polygon fill="none" stroke="black" points="381,-233 381,-255 504,-255 504,-233 381,-233"/>
<text text-anchor="start" x="384" y="-241.2" font-family="Helvetica,sans-Serif" font-size="11.00">varchar[2000]</text>
<polygon fill="none" stroke="black" points="210,-211 210,-233 381,-233 381,-211 210,-211"/>
<text text-anchor="start" x="230" y="-219.2" font-family="Helvetica,sans-Serif" font-size="11.00">issues</text>
<polygon fill="none" stroke="black" points="381,-211 381,-233 504,-233 504,-211 381,-211"/>
<text text-anchor="start" x="384" y="-219.2" font-family="Helvetica,sans-Serif" font-size="11.00">varchar[2000]</text>
<polygon fill="none" stroke="black" points="210,-189 210,-211 381,-211 381,-189 210,-189"/>
<text text-anchor="start" x="230" y="-197.2" font-family="Helvetica,sans-Serif" font-size="11.00">license</text>
<polygon fill="none" stroke="black" points="381,-189 381,-211 504,-211 504,-189 381,-189"/>
<text text-anchor="start" x="384" y="-197.2" font-family="Helvetica,sans-Serif" font-size="11.00">_varchar[32]</text>
<polygon fill="#ffffff" stroke="none" points="210,-167 210,-189 381,-189 381,-167 210,-167"/>
<polygon fill="none" stroke="black" points="210,-167 210,-189 381,-189 381,-167 210,-167"/>
<text text-anchor="start" x="230" y="-175.2" font-family="Helvetica,sans-Serif" font-size="11.00">name</text>
<polygon fill="none" stroke="black" points="381,-167 381,-189 504,-189 504,-167 381,-167"/>
<text text-anchor="start" x="384" y="-175.2" font-family="Helvetica,sans-Serif" font-size="11.00">varchar[64]</text>
<polygon fill="#ffffff" stroke="none" points="210,-145 210,-167 381,-167 381,-145 210,-145"/>
<polygon fill="none" stroke="black" points="210,-145 210,-167 381,-167 381,-145 210,-145"/>
<text text-anchor="start" x="230" y="-153.2" font-family="Helvetica,sans-Serif" font-size="11.00">namespace</text>
<polygon fill="none" stroke="black" points="381,-145 381,-167 504,-167 504,-145 381,-145"/>
<text text-anchor="start" x="384" y="-153.2" font-family="Helvetica,sans-Serif" font-size="11.00">varchar[32]</text>
<polygon fill="none" stroke="black" points="210,-123 210,-145 381,-145 381,-123 210,-123"/>
<text text-anchor="start" x="230" y="-131.2" font-family="Helvetica,sans-Serif" font-size="11.00">repository</text>
<polygon fill="none" stroke="black" points="381,-123 381,-145 504,-145 504,-123 381,-123"/>
<text text-anchor="start" x="384" y="-131.2" font-family="Helvetica,sans-Serif" font-size="11.00">varchar[2000]</text>
<polygon fill="none" stroke="black" points="210,-101 210,-123 381,-123 381,-101 210,-101"/>
<text text-anchor="start" x="230" y="-109.2" font-family="Helvetica,sans-Serif" font-size="11.00">search_vector</text>
<polygon fill="none" stroke="black" points="381,-101 381,-123 504,-123 504,-101 381,-101"/>
<text text-anchor="start" x="384" y="-109.2" font-family="Helvetica,sans-Serif" font-size="11.00">tsvector[2147483647]</text>
<polygon fill="#ffffff" stroke="none" points="210,-79 210,-101 381,-101 381,-79 210,-79"/>
<polygon fill="none" stroke="black" points="210,-79 210,-101 381,-101 381,-79 210,-79"/>
<text text-anchor="start" x="230" y="-87.2" font-family="Helvetica,sans-Serif" font-size="11.00">is_highest</text>
<polygon fill="none" stroke="black" points="381,-79 381,-101 504,-101 504,-79 381,-79"/>
<text text-anchor="start" x="384" y="-87.2" font-family="Helvetica,sans-Serif" font-size="11.00">bool[1]</text>
<polygon fill="none" stroke="black" points="210,-57 210,-79 381,-79 381,-57 210,-57"/>
<text text-anchor="start" x="230" y="-65.2" font-family="Helvetica,sans-Serif" font-size="11.00">certification</text>
<polygon fill="none" stroke="black" points="381,-57 381,-79 504,-79 504,-57 381,-57"/>
<text text-anchor="start" x="384" y="-65.2" font-family="Helvetica,sans-Serif" font-size="11.00">varchar[13]</text>
<polygon fill="#ffffff" stroke="none" points="210,-39 210,-57 282,-57 282,-39 210,-39"/>
<polygon fill="none" stroke="black" points="210,-39 210,-57 282,-57 282,-39 210,-39"/>
<text text-anchor="start" x="213" y="-45.2" font-family="Helvetica,sans-Serif" font-size="11.00">&lt; 2</text>
<polygon fill="#ffffff" stroke="none" points="282,-39 282,-57 381,-57 381,-39 282,-39"/>
<polygon fill="none" stroke="black" points="282,-39 282,-57 381,-57 381,-39 282,-39"/>
<text text-anchor="start" x="335" y="-45.2" font-family="Helvetica,sans-Serif" font-size="11.00">88 rows</text>
<polygon fill="#ffffff" stroke="none" points="381,-39 381,-57 504,-57 504,-39 381,-39"/>
<polygon fill="none" stroke="black" points="381,-39 381,-57 504,-57 504,-39 381,-39"/>
<text text-anchor="start" x="484" y="-45.2" font-family="Helvetica,sans-Serif" font-size="11.00">1 &gt;</text>
<polygon fill="none" stroke="black" stroke-width="2" points="209,-38 209,-476 505,-476 505,-38 209,-38"/>
</a>
</g>
</g>
<!-- ansible_collection -->
<g id="node2" class="node"><title>ansible_collection</title>
<g id="a_node2"><a xlink:href="../../tables/ansible_collection.html" xlink:title="ansible_collection" target="_top">
<polygon fill="#ffffff" stroke="none" points="8,-267 8,-391 159,-391 159,-267 8,-267"/>
<polygon fill="#f5f5f5" stroke="none" points="8.5,-369 8.5,-391 159.5,-391 159.5,-369 8.5,-369"/>
<polygon fill="none" stroke="black" points="8.5,-369 8.5,-391 159.5,-391 159.5,-369 8.5,-369"/>
<text text-anchor="start" x="13.5" y="-378.2" font-family="Helvetica,sans-Serif" font-weight="bold" font-size="11.00">ansible_collection</text>
<text text-anchor="start" x="120.5" y="-377.2" font-family="Helvetica,sans-Serif" font-size="11.00">[table]</text>
<polygon fill="none" stroke="black" points="8.5,-347 8.5,-369 159.5,-369 159.5,-347 8.5,-347"/>
<image xlink:href="../../images/primaryKeys.png" width="11px" height="12px" preserveAspectRatio="xMinYMin meet" x="13.5" y="-364"/>
<text text-anchor="start" x="39.5" y="-355.2" font-family="Helvetica,sans-Serif" font-size="11.00">pulp_id</text>
<polygon fill="#ffffff" stroke="none" points="8.5,-325 8.5,-347 159.5,-347 159.5,-325 8.5,-325"/>
<polygon fill="none" stroke="black" points="8.5,-325 8.5,-347 159.5,-347 159.5,-325 8.5,-325"/>
<text text-anchor="start" x="39.5" y="-333.2" font-family="Helvetica,sans-Serif" font-size="11.00">namespace</text>
<polygon fill="#ffffff" stroke="none" points="8.5,-303 8.5,-325 159.5,-325 159.5,-303 8.5,-303"/>
<polygon fill="none" stroke="black" points="8.5,-303 8.5,-325 159.5,-325 159.5,-303 8.5,-303"/>
<text text-anchor="start" x="39.5" y="-311.2" font-family="Helvetica,sans-Serif" font-size="11.00">name</text>
<polygon fill="none" stroke="black" points="8.5,-285 8.5,-303 159.5,-303 159.5,-285 8.5,-285"/>
<text text-anchor="start" x="11.5" y="-291.2" font-family="Helvetica,sans-Serif" font-size="11.00">...</text>
<polygon fill="#ffffff" stroke="none" points="8.5,-267 8.5,-285 57.5,-285 57.5,-267 8.5,-267"/>
<polygon fill="none" stroke="black" points="8.5,-267 8.5,-285 57.5,-285 57.5,-267 8.5,-267"/>
<text text-anchor="start" x="11.5" y="-273.2" font-family="Helvetica,sans-Serif" font-size="11.00"> &#160;</text>
<polygon fill="#ffffff" stroke="none" points="57.5,-267 57.5,-285 117.5,-285 117.5,-267 57.5,-267"/>
<polygon fill="none" stroke="black" points="57.5,-267 57.5,-285 117.5,-285 117.5,-267 57.5,-267"/>
<text text-anchor="start" x="78.5" y="-273.2" font-family="Helvetica,sans-Serif" font-size="11.00">4 rows</text>
<polygon fill="#ffffff" stroke="none" points="117.5,-267 117.5,-285 159.5,-285 159.5,-267 117.5,-267"/>
<polygon fill="none" stroke="black" points="117.5,-267 117.5,-285 159.5,-285 159.5,-267 117.5,-267"/>
<text text-anchor="start" x="139.5" y="-273.2" font-family="Helvetica,sans-Serif" font-size="11.00">2 &gt;</text>
</a>
</g>
</g>
<!-- ansible_collectionversion&#45;&gt;ansible_collection -->
<g id="edge1" class="edge"><title>ansible_collectionversion:collection_id:w&#45;&gt;ansible_collection:pulp_id:e</title>
<path fill="none" stroke="black" d="M194.598,-373.028C183.35,-367.915 177.565,-358 160.5,-358"/>
<polygon fill="black" stroke="black" points="201.165,-374.383 208.272,-379.526 205.083,-375.191 209,-376 209,-376 209,-376 205.083,-375.191 209.728,-372.474 201.165,-374.383 201.165,-374.383"/>
<ellipse fill="none" stroke="black" cx="198.031" cy="-373.736" rx="3.2" ry="3.2"/>
</g>
<!-- core_content -->
<g id="node3" class="node"><title>core_content</title>
<g id="a_node3"><a xlink:href="../../tables/core_content.html" xlink:title="core_content" target="_top">
<polygon fill="#ffffff" stroke="none" points="19,-412 19,-492 148,-492 148,-412 19,-412"/>
<polygon fill="#f5f5f5" stroke="none" points="19.5,-470 19.5,-492 148.5,-492 148.5,-470 19.5,-470"/>
<polygon fill="none" stroke="black" points="19.5,-470 19.5,-492 148.5,-492 148.5,-470 19.5,-470"/>
<text text-anchor="start" x="24.5" y="-479.2" font-family="Helvetica,sans-Serif" font-weight="bold" font-size="11.00">core_content</text>
<text text-anchor="start" x="109.5" y="-478.2" font-family="Helvetica,sans-Serif" font-size="11.00">[table]</text>
<polygon fill="none" stroke="black" points="19.5,-448 19.5,-470 148.5,-470 148.5,-448 19.5,-448"/>
<image xlink:href="../../images/primaryKeys.png" width="11px" height="12px" preserveAspectRatio="xMinYMin meet" x="24.5" y="-465"/>
<text text-anchor="start" x="39.5" y="-456.2" font-family="Helvetica,sans-Serif" font-size="11.00">pulp_id</text>
<polygon fill="none" stroke="black" points="19.5,-430 19.5,-448 148.5,-448 148.5,-430 19.5,-430"/>
<text text-anchor="start" x="22.5" y="-436.2" font-family="Helvetica,sans-Serif" font-size="11.00">...</text>
<polygon fill="#ffffff" stroke="none" points="19.5,-412 19.5,-430 54.5,-430 54.5,-412 19.5,-412"/>
<polygon fill="none" stroke="black" points="19.5,-412 19.5,-430 54.5,-430 54.5,-412 19.5,-412"/>
<text text-anchor="start" x="22.5" y="-418.2" font-family="Helvetica,sans-Serif" font-size="11.00"> &#160;</text>
<polygon fill="#ffffff" stroke="none" points="54.5,-412 54.5,-430 114.5,-430 114.5,-412 54.5,-412"/>
<polygon fill="none" stroke="black" points="54.5,-412 54.5,-430 114.5,-430 114.5,-412 54.5,-412"/>
<text text-anchor="start" x="68.5" y="-418.2" font-family="Helvetica,sans-Serif" font-size="11.00">88 rows</text>
<polygon fill="#ffffff" stroke="none" points="114.5,-412 114.5,-430 148.5,-430 148.5,-412 114.5,-412"/>
<polygon fill="none" stroke="black" points="114.5,-412 114.5,-430 148.5,-430 148.5,-412 114.5,-412"/>
<text text-anchor="start" x="128.5" y="-418.2" font-family="Helvetica,sans-Serif" font-size="11.00">8 &gt;</text>
</a>
</g>
</g>
<!-- ansible_collectionversion&#45;&gt;core_content -->
<g id="edge2" class="edge"><title>ansible_collectionversion:content_ptr_id:w&#45;&gt;core_content:pulp_id:e</title>
<path fill="none" stroke="black" d="M198.634,-442.914C179.778,-446.445 173.135,-459 149.5,-459"/>
<polygon fill="black" stroke="black" points="207.852,-438.086 208.554,-446.055 206.961,-446.195 206.258,-438.226 207.852,-438.086"/>
<polyline fill="none" stroke="black" points="209,-442 205.015,-442.351 "/>
<ellipse fill="none" stroke="black" cx="201.828" cy="-442.632" rx="3.2" ry="3.2"/>
</g>
<!-- ansible_collectionversion_tags -->
<g id="node4" class="node"><title>ansible_collectionversion_tags</title>
<g id="a_node4"><a xlink:href="../../tables/ansible_collectionversion_tags.html" xlink:title="ansible_collectionversion_tags" target="_top">
<polygon fill="#ffffff" stroke="none" points="555,-391 555,-497 775,-497 775,-391 555,-391"/>
<polygon fill="#f5f5f5" stroke="none" points="555,-475 555,-497 775,-497 775,-475 555,-475"/>
<polygon fill="none" stroke="black" points="555,-475 555,-497 775,-497 775,-475 555,-475"/>
<text text-anchor="start" x="560" y="-484.2" font-family="Helvetica,sans-Serif" font-weight="bold" font-size="11.00">ansible_collectionversion_tags</text>
<text text-anchor="start" x="736" y="-483.2" font-family="Helvetica,sans-Serif" font-size="11.00">[table]</text>
<polygon fill="none" stroke="black" points="555,-453 555,-475 775,-475 775,-453 555,-453"/>
<image xlink:href="../../images/primaryKeys.png" width="11px" height="12px" preserveAspectRatio="xMinYMin meet" x="560" y="-470"/>
<text text-anchor="start" x="585" y="-461.2" font-family="Helvetica,sans-Serif" font-size="11.00">id</text>
<polygon fill="#ffffff" stroke="none" points="555,-431 555,-453 775,-453 775,-431 555,-431"/>
<polygon fill="none" stroke="black" points="555,-431 555,-453 775,-453 775,-431 555,-431"/>
<image xlink:href="../../images/foreignKeys.png" width="11px" height="12px" preserveAspectRatio="xMinYMin meet" x="560" y="-448"/>
<text text-anchor="start" x="585" y="-439.2" font-family="Helvetica,sans-Serif" font-size="11.00">collectionversion_id</text>
<polygon fill="#ffffff" stroke="none" points="555,-409 555,-431 775,-431 775,-409 555,-409"/>
<polygon fill="none" stroke="black" points="555,-409 555,-431 775,-431 775,-409 555,-409"/>
<image xlink:href="../../images/foreignKeys.png" width="11px" height="12px" preserveAspectRatio="xMinYMin meet" x="560" y="-426"/>
<text text-anchor="start" x="585" y="-417.2" font-family="Helvetica,sans-Serif" font-size="11.00">tag_id</text>
<polygon fill="#ffffff" stroke="none" points="555,-391 555,-409 645,-409 645,-391 555,-391"/>
<polygon fill="none" stroke="black" points="555,-391 555,-409 645,-409 645,-391 555,-391"/>
<text text-anchor="start" x="558" y="-397.2" font-family="Helvetica,sans-Serif" font-size="11.00">&lt; 2</text>
<polygon fill="#ffffff" stroke="none" points="645,-391 645,-409 728,-409 728,-391 645,-391"/>
<polygon fill="none" stroke="black" points="645,-391 645,-409 728,-409 728,-391 645,-391"/>
<text text-anchor="start" x="682" y="-397.2" font-family="Helvetica,sans-Serif" font-size="11.00">10 rows</text>
<polygon fill="#ffffff" stroke="none" points="728,-391 728,-409 775,-409 775,-391 728,-391"/>
<polygon fill="none" stroke="black" points="728,-391 728,-409 775,-409 775,-391 728,-391"/>
<text text-anchor="start" x="765" y="-397.2" font-family="Helvetica,sans-Serif" font-size="11.00"> &#160;</text>
</a>
</g>
</g>
<!-- ansible_collectionversion_tags&#45;&gt;ansible_collectionversion -->
<g id="edge3" class="edge"><title>ansible_collectionversion_tags:collectionversion_id:w&#45;&gt;ansible_collectionversion:content_ptr_id.type:e</title>
<path fill="none" stroke="black" d="M539.491,-442C528.177,-442 520.993,-442 505,-442"/>
<polygon fill="black" stroke="black" points="546,-442 554,-445.6 550,-442 554,-442 554,-442 554,-442 550,-442 554,-438.4 546,-442 546,-442"/>
<ellipse fill="none" stroke="black" cx="542.8" cy="-442" rx="3.2" ry="3.2"/>
</g>
</g>
</svg>
