<?xml version="1.0" encoding="UTF-8" standalone="no"?>
<!DOCTYPE svg PUBLIC "-//W3C//DTD SVG 1.1//EN"
 "http://www.w3.org/Graphics/SVG/1.1/DTD/svg11.dtd">
<!-- Generated by graphviz version 2.38.0 (20140413.2041)
 -->
<!-- Title: twoDegreesRelationshipsDiagram Pages: 1 -->
<svg width="668pt" height="611pt"
 viewBox="0.00 0.00 668.00 611.00" xmlns="http://www.w3.org/2000/svg" xmlns:xlink="http://www.w3.org/1999/xlink">
<g id="graph0" class="graph" transform="scale(1 1) rotate(0) translate(4 607)">
<title>twoDegreesRelationshipsDiagram</title>
<polygon fill="#ffffff" stroke="none" points="-4,4 -4,-607 664,-607 664,4 -4,4"/>
<text text-anchor="middle" x="74.5" y="-7.2" font-family="Helvetica,sans-Serif" font-size="11.00">Generated by SchemaSpy</text>
<!-- ansible_collectionimport -->
<g id="node1" class="node"><title>ansible_collectionimport</title>
<g id="a_node1"><a xlink:href="../../tables/ansible_collectionimport.html" xlink:title="ansible_collectionimport" target="_top">
<polygon fill="#ffffff" stroke="none" points="370,-511 370,-599 652,-599 652,-511 370,-511"/>
<polygon fill="#f5f5f5" stroke="none" points="372,-575 372,-597 650,-597 650,-575 372,-575"/>
<polygon fill="none" stroke="black" points="372,-575 372,-597 650,-597 650,-575 372,-575"/>
<text text-anchor="start" x="377" y="-584.2" font-family="Helvetica,sans-Serif" font-weight="bold" font-size="11.00">ansible_collectionimport</text>
<text text-anchor="start" x="611" y="-583.2" font-family="Helvetica,sans-Serif" font-size="11.00">[table]</text>
<polygon fill="none" stroke="black" points="372,-553 372,-575 540,-575 540,-553 372,-553"/>
<text text-anchor="start" x="392" y="-561.2" font-family="Helvetica,sans-Serif" font-size="11.00">messages</text>
<polygon fill="none" stroke="black" points="540,-553 540,-575 650,-575 650,-553 540,-553"/>
<text text-anchor="start" x="543" y="-561.2" font-family="Helvetica,sans-Serif" font-size="11.00">jsonb[2147483647]</text>
<polygon fill="none" stroke="black" points="372,-531 372,-553 540,-553 540,-531 372,-531"/>
<image xlink:href="../../images/primaryKeys.png" width="11px" height="12px" preserveAspectRatio="xMinYMin meet" x="377" y="-548"/>
<text text-anchor="start" x="392" y="-539.2" font-family="Helvetica,sans-Serif" font-size="11.00">task_id</text>
<polygon fill="none" stroke="black" points="540,-531 540,-553 650,-553 650,-531 540,-531"/>
<text text-anchor="start" x="543" y="-539.2" font-family="Helvetica,sans-Serif" font-size="11.00">uuid[2147483647]</text>
<polygon fill="#ffffff" stroke="none" points="372,-513 372,-531 440,-531 440,-513 372,-513"/>
<polygon fill="none" stroke="black" points="372,-513 372,-531 440,-531 440,-513 372,-513"/>
<text text-anchor="start" x="375" y="-519.2" font-family="Helvetica,sans-Serif" font-size="11.00">&lt; 1</text>
<polygon fill="#ffffff" stroke="none" points="440,-513 440,-531 540,-531 540,-513 440,-513"/>
<polygon fill="none" stroke="black" points="440,-513 440,-531 540,-531 540,-513 440,-513"/>
<text text-anchor="start" x="488" y="-519.2" font-family="Helvetica,sans-Serif" font-size="11.00">111 rows</text>
<polygon fill="#ffffff" stroke="none" points="540,-513 540,-531 650,-531 650,-513 540,-513"/>
<polygon fill="none" stroke="black" points="540,-513 540,-531 650,-531 650,-513 540,-513"/>
<text text-anchor="start" x="630" y="-519.2" font-family="Helvetica,sans-Serif" font-size="11.00">0 &gt;</text>
<polygon fill="none" stroke="black" stroke-width="2" points="371,-512 371,-598 651,-598 651,-512 371,-512"/>
</a>
</g>
</g>
<!-- core_task -->
<g id="node2" class="node"><title>core_task</title>
<g id="a_node2"><a xlink:href="../../tables/core_task.html" xlink:title="core_task" target="_top">
<polygon fill="#ffffff" stroke="none" points="192,-188 192,-334 321,-334 321,-188 192,-188"/>
<polygon fill="#f5f5f5" stroke="none" points="192.5,-312 192.5,-334 321.5,-334 321.5,-312 192.5,-312"/>
<polygon fill="none" stroke="black" points="192.5,-312 192.5,-334 321.5,-334 321.5,-312 192.5,-312"/>
<text text-anchor="start" x="197.5" y="-321.2" font-family="Helvetica,sans-Serif" font-weight="bold" font-size="11.00">core_task</text>
<text text-anchor="start" x="282.5" y="-320.2" font-family="Helvetica,sans-Serif" font-size="11.00">[table]</text>
<polygon fill="none" stroke="black" points="192.5,-290 192.5,-312 321.5,-312 321.5,-290 192.5,-290"/>
<image xlink:href="../../images/primaryKeys.png" width="11px" height="12px" preserveAspectRatio="xMinYMin meet" x="197.5" y="-307"/>
<text text-anchor="start" x="212.5" y="-298.2" font-family="Helvetica,sans-Serif" font-size="11.00">pulp_id</text>
<polygon fill="#ffffff" stroke="none" points="192.5,-268 192.5,-290 321.5,-290 321.5,-268 192.5,-268"/>
<polygon fill="none" stroke="black" points="192.5,-268 192.5,-290 321.5,-290 321.5,-268 192.5,-268"/>
<image xlink:href="../../images/foreignKeys.png" width="11px" height="12px" preserveAspectRatio="xMinYMin meet" x="197.5" y="-285"/>
<text text-anchor="start" x="212.5" y="-276.2" font-family="Helvetica,sans-Serif" font-size="11.00">worker_id</text>
<polygon fill="#ffffff" stroke="none" points="192.5,-246 192.5,-268 321.5,-268 321.5,-246 192.5,-246"/>
<polygon fill="none" stroke="black" points="192.5,-246 192.5,-268 321.5,-268 321.5,-246 192.5,-246"/>
<image xlink:href="../../images/foreignKeys.png" width="11px" height="12px" preserveAspectRatio="xMinYMin meet" x="197.5" y="-263"/>
<text text-anchor="start" x="212.5" y="-254.2" font-family="Helvetica,sans-Serif" font-size="11.00">parent_task_id</text>
<polygon fill="#ffffff" stroke="none" points="192.5,-224 192.5,-246 321.5,-246 321.5,-224 192.5,-224"/>
<polygon fill="none" stroke="black" points="192.5,-224 192.5,-246 321.5,-246 321.5,-224 192.5,-224"/>
<image xlink:href="../../images/foreignKeys.png" width="11px" height="12px" preserveAspectRatio="xMinYMin meet" x="197.5" y="-241"/>
<text text-anchor="start" x="212.5" y="-232.2" font-family="Helvetica,sans-Serif" font-size="11.00">task_group_id</text>
<polygon fill="none" stroke="black" points="192.5,-206 192.5,-224 321.5,-224 321.5,-206 192.5,-206"/>
<text text-anchor="start" x="195.5" y="-212.2" font-family="Helvetica,sans-Serif" font-size="11.00">...</text>
<polygon fill="#ffffff" stroke="none" points="192.5,-188 192.5,-206 224.5,-206 224.5,-188 192.5,-188"/>
<polygon fill="none" stroke="black" points="192.5,-188 192.5,-206 224.5,-206 224.5,-188 192.5,-188"/>
<text text-anchor="start" x="195.5" y="-194.2" font-family="Helvetica,sans-Serif" font-size="11.00">&lt; 3</text>
<polygon fill="#ffffff" stroke="none" points="224.5,-188 224.5,-206 293.5,-206 293.5,-188 224.5,-188"/>
<polygon fill="none" stroke="black" points="224.5,-188 224.5,-206 293.5,-206 293.5,-188 224.5,-188"/>
<text text-anchor="start" x="231.5" y="-194.2" font-family="Helvetica,sans-Serif" font-size="11.00">1,828 rows</text>
<polygon fill="#ffffff" stroke="none" points="293.5,-188 293.5,-206 321.5,-206 321.5,-188 293.5,-188"/>
<polygon fill="none" stroke="black" points="293.5,-188 293.5,-206 321.5,-206 321.5,-188 293.5,-188"/>
<text text-anchor="start" x="301.5" y="-194.2" font-family="Helvetica,sans-Serif" font-size="11.00">8 &gt;</text>
</a>
</g>
</g>
<!-- ansible_collectionimport&#45;&gt;core_task -->
<g id="edge1" class="edge"><title>ansible_collectionimport:task_id:w&#45;&gt;core_task:pulp_id:e</title>
<path fill="none" stroke="black" d="M360.488,-541.127C273.351,-525.353 427.917,-301 322.5,-301"/>
<polygon fill="black" stroke="black" points="370.534,-537.948 369.872,-545.92 368.277,-545.788 368.939,-537.815 370.534,-537.948"/>
<polyline fill="none" stroke="black" points="371,-542 367.014,-541.669 "/>
<ellipse fill="none" stroke="black" cx="363.825" cy="-541.404" rx="3.2" ry="3.2"/>
</g>
<!-- core_taskgroup -->
<g id="node7" class="node"><title>core_taskgroup</title>
<g id="a_node7"><a xlink:href="../../tables/core_taskgroup.html" xlink:title="core_taskgroup" target="_top">
<polygon fill="#ffffff" stroke="none" points="8,-191 8,-249 143,-249 143,-191 8,-191"/>
<polygon fill="#f5f5f5" stroke="none" points="8.5,-227 8.5,-249 143.5,-249 143.5,-227 8.5,-227"/>
<polygon fill="none" stroke="black" points="8.5,-227 8.5,-249 143.5,-249 143.5,-227 8.5,-227"/>
<text text-anchor="start" x="13.5" y="-236.2" font-family="Helvetica,sans-Serif" font-weight="bold" font-size="11.00">core_taskgroup</text>
<text text-anchor="start" x="104.5" y="-235.2" font-family="Helvetica,sans-Serif" font-size="11.00">[table]</text>
<polygon fill="none" stroke="black" points="8.5,-209 8.5,-227 143.5,-227 143.5,-209 8.5,-209"/>
<text text-anchor="start" x="11.5" y="-215.2" font-family="Helvetica,sans-Serif" font-size="11.00">...</text>
<polygon fill="#ffffff" stroke="none" points="8.5,-191 8.5,-209 46.5,-209 46.5,-191 8.5,-191"/>
<polygon fill="none" stroke="black" points="8.5,-191 8.5,-209 46.5,-209 46.5,-191 8.5,-191"/>
<text text-anchor="start" x="11.5" y="-197.2" font-family="Helvetica,sans-Serif" font-size="11.00"> &#160;</text>
<polygon fill="#ffffff" stroke="none" points="46.5,-191 46.5,-209 107.5,-209 107.5,-191 46.5,-191"/>
<polygon fill="none" stroke="black" points="46.5,-191 46.5,-209 107.5,-209 107.5,-191 46.5,-191"/>
<text text-anchor="start" x="61.5" y="-197.2" font-family="Helvetica,sans-Serif" font-size="11.00">26 rows</text>
<polygon fill="#ffffff" stroke="none" points="107.5,-191 107.5,-209 143.5,-209 143.5,-191 107.5,-191"/>
<polygon fill="none" stroke="black" points="107.5,-191 107.5,-209 143.5,-209 143.5,-191 107.5,-191"/>
<text text-anchor="start" x="123.5" y="-197.2" font-family="Helvetica,sans-Serif" font-size="11.00">2 &gt;</text>
</a>
</g>
</g>
<!-- core_task&#45;&gt;core_taskgroup -->
<g id="edge6" class="edge"><title>core_task:task_group_id:w&#45;&gt;core_taskgroup:elipses:e</title>
<path fill="none" stroke="black" d="M177.22,-232.039C166.534,-227.168 160.813,-218 144.5,-218"/>
<polygon fill="black" stroke="black" points="183.667,-233.376 190.769,-238.525 187.583,-234.188 191.5,-235 191.5,-235 191.5,-235 187.583,-234.188 192.231,-231.475 183.667,-233.376 183.667,-233.376"/>
<ellipse fill="none" stroke="black" cx="180.533" cy="-232.726" rx="3.2" ry="3.2"/>
</g>
<!-- core_worker -->
<g id="node8" class="node"><title>core_worker</title>
<g id="a_node8"><a xlink:href="../../tables/core_worker.html" xlink:title="core_worker" target="_top">
<polygon fill="#ffffff" stroke="none" points="16.5,-270 16.5,-328 134.5,-328 134.5,-270 16.5,-270"/>
<polygon fill="#f5f5f5" stroke="none" points="16.5,-306 16.5,-328 134.5,-328 134.5,-306 16.5,-306"/>
<polygon fill="none" stroke="black" points="16.5,-306 16.5,-328 134.5,-328 134.5,-306 16.5,-306"/>
<text text-anchor="start" x="21.5" y="-315.2" font-family="Helvetica,sans-Serif" font-weight="bold" font-size="11.00">core_worker</text>
<text text-anchor="start" x="95.5" y="-314.2" font-family="Helvetica,sans-Serif" font-size="11.00">[table]</text>
<polygon fill="none" stroke="black" points="16.5,-288 16.5,-306 134.5,-306 134.5,-288 16.5,-288"/>
<text text-anchor="start" x="19.5" y="-294.2" font-family="Helvetica,sans-Serif" font-size="11.00">...</text>
<polygon fill="#ffffff" stroke="none" points="16.5,-270 16.5,-288 42.5,-288 42.5,-270 16.5,-270"/>
<polygon fill="none" stroke="black" points="16.5,-270 16.5,-288 42.5,-288 42.5,-270 16.5,-270"/>
<text text-anchor="start" x="19.5" y="-276.2" font-family="Helvetica,sans-Serif" font-size="11.00"> &#160;</text>
<polygon fill="#ffffff" stroke="none" points="42.5,-270 42.5,-288 104.5,-288 104.5,-270 42.5,-270"/>
<polygon fill="none" stroke="black" points="42.5,-270 42.5,-288 104.5,-288 104.5,-270 42.5,-270"/>
<text text-anchor="start" x="52.5" y="-276.2" font-family="Helvetica,sans-Serif" font-size="11.00">148 rows</text>
<polygon fill="#ffffff" stroke="none" points="104.5,-270 104.5,-288 134.5,-288 134.5,-270 104.5,-270"/>
<polygon fill="none" stroke="black" points="104.5,-270 104.5,-288 134.5,-288 134.5,-270 104.5,-270"/>
<text text-anchor="start" x="114.5" y="-276.2" font-family="Helvetica,sans-Serif" font-size="11.00">2 &gt;</text>
</a>
</g>
</g>
<!-- core_task&#45;&gt;core_worker -->
<g id="edge7" class="edge"><title>core_task:worker_id:w&#45;&gt;core_worker:elipses:e</title>
<path fill="none" stroke="black" d="M177.094,-281.207C162.659,-286.014 155.924,-297 135.5,-297"/>
<polygon fill="black" stroke="black" points="183.592,-280.212 192.045,-282.558 187.546,-279.606 191.5,-279 191.5,-279 191.5,-279 187.546,-279.606 190.955,-275.442 183.592,-280.212 183.592,-280.212"/>
<ellipse fill="none" stroke="black" cx="180.429" cy="-280.696" rx="3.2" ry="3.2"/>
</g>
<!-- core_createdresource -->
<g id="node3" class="node"><title>core_createdresource</title>
<g id="a_node3"><a xlink:href="../../tables/core_createdresource.html" xlink:title="core_createdresource" target="_top">
<polygon fill="#ffffff" stroke="none" points="425,-432 425,-490 597,-490 597,-432 425,-432"/>
<polygon fill="#f5f5f5" stroke="none" points="425,-468 425,-490 597,-490 597,-468 425,-468"/>
<polygon fill="none" stroke="black" points="425,-468 425,-490 597,-490 597,-468 425,-468"/>
<text text-anchor="start" x="430" y="-477.2" font-family="Helvetica,sans-Serif" font-weight="bold" font-size="11.00">core_createdresource</text>
<text text-anchor="start" x="558" y="-476.2" font-family="Helvetica,sans-Serif" font-size="11.00">[table]</text>
<polygon fill="none" stroke="black" points="425,-450 425,-468 597,-468 597,-450 425,-450"/>
<text text-anchor="start" x="428" y="-456.2" font-family="Helvetica,sans-Serif" font-size="11.00">...</text>
<polygon fill="#ffffff" stroke="none" points="425,-432 425,-450 488,-450 488,-432 425,-432"/>
<polygon fill="none" stroke="black" points="425,-432 425,-450 488,-450 488,-432 425,-432"/>
<text text-anchor="start" x="428" y="-438.2" font-family="Helvetica,sans-Serif" font-size="11.00">&lt; 2</text>
<polygon fill="#ffffff" stroke="none" points="488,-432 488,-450 563,-450 563,-432 488,-432"/>
<polygon fill="none" stroke="black" points="488,-432 488,-450 563,-450 563,-432 488,-432"/>
<text text-anchor="start" x="511" y="-438.2" font-family="Helvetica,sans-Serif" font-size="11.00">365 rows</text>
<polygon fill="#ffffff" stroke="none" points="563,-432 563,-450 597,-450 597,-432 563,-432"/>
<polygon fill="none" stroke="black" points="563,-432 563,-450 597,-450 597,-432 563,-432"/>
<text text-anchor="start" x="587" y="-438.2" font-family="Helvetica,sans-Serif" font-size="11.00"> &#160;</text>
</a>
</g>
</g>
<!-- core_createdresource&#45;&gt;core_task -->
<g id="edge2" class="edge"><title>core_createdresource:elipses:w&#45;&gt;core_task:pulp_id:e</title>
<path fill="none" stroke="black" d="M409.556,-457.984C388.305,-454.621 378.667,-442.859 362,-422 326.687,-377.805 379.071,-301 322.5,-301"/>
<polygon fill="black" stroke="black" points="416.02,-458.439 423.747,-462.591 420.01,-458.719 424,-459 424,-459 424,-459 420.01,-458.719 424.253,-455.409 416.02,-458.439 416.02,-458.439"/>
<ellipse fill="none" stroke="black" cx="412.828" cy="-458.214" rx="3.2" ry="3.2"/>
</g>
<!-- core_export -->
<g id="node4" class="node"><title>core_export</title>
<g id="a_node4"><a xlink:href="../../tables/core_export.html" xlink:title="core_export" target="_top">
<polygon fill="#ffffff" stroke="none" points="453,-353 453,-411 569,-411 569,-353 453,-353"/>
<polygon fill="#f5f5f5" stroke="none" points="453,-389 453,-411 569,-411 569,-389 453,-389"/>
<polygon fill="none" stroke="black" points="453,-389 453,-411 569,-411 569,-389 453,-389"/>
<text text-anchor="start" x="458" y="-398.2" font-family="Helvetica,sans-Serif" font-weight="bold" font-size="11.00">core_export</text>
<text text-anchor="start" x="530" y="-397.2" font-family="Helvetica,sans-Serif" font-size="11.00">[table]</text>
<polygon fill="none" stroke="black" points="453,-371 453,-389 569,-389 569,-371 453,-371"/>
<text text-anchor="start" x="456" y="-377.2" font-family="Helvetica,sans-Serif" font-size="11.00">...</text>
<polygon fill="#ffffff" stroke="none" points="453,-353 453,-371 490,-371 490,-353 453,-353"/>
<polygon fill="none" stroke="black" points="453,-353 453,-371 490,-371 490,-353 453,-353"/>
<text text-anchor="start" x="456" y="-359.2" font-family="Helvetica,sans-Serif" font-size="11.00">&lt; 2</text>
<polygon fill="#ffffff" stroke="none" points="490,-353 490,-371 539,-371 539,-353 490,-353"/>
<polygon fill="none" stroke="black" points="490,-353 490,-371 539,-371 539,-353 490,-353"/>
<text text-anchor="start" x="500" y="-359.2" font-family="Helvetica,sans-Serif" font-size="11.00">0 rows</text>
<polygon fill="#ffffff" stroke="none" points="539,-353 539,-371 569,-371 569,-353 539,-353"/>
<polygon fill="none" stroke="black" points="539,-353 539,-371 569,-371 569,-353 539,-353"/>
<text text-anchor="start" x="549" y="-359.2" font-family="Helvetica,sans-Serif" font-size="11.00">2 &gt;</text>
</a>
</g>
</g>
<!-- core_export&#45;&gt;core_task -->
<g id="edge3" class="edge"><title>core_export:elipses:w&#45;&gt;core_task:pulp_id:e</title>
<path fill="none" stroke="black" d="M437.601,-379.452C405.697,-376.803 393.306,-364.559 362,-343 340.895,-328.466 348.125,-301 322.5,-301"/>
<polygon fill="black" stroke="black" points="444.006,-379.696 451.863,-383.597 448.003,-379.848 452,-380 452,-380 452,-380 448.003,-379.848 452.137,-376.403 444.006,-379.696 444.006,-379.696"/>
<ellipse fill="none" stroke="black" cx="440.808" cy="-379.574" rx="3.2" ry="3.2"/>
</g>
<!-- core_import -->
<g id="node5" class="node"><title>core_import</title>
<g id="a_node5"><a xlink:href="../../tables/core_import.html" xlink:title="core_import" target="_top">
<polygon fill="#ffffff" stroke="none" points="452,-274 452,-332 570,-332 570,-274 452,-274"/>
<polygon fill="#f5f5f5" stroke="none" points="452,-310 452,-332 570,-332 570,-310 452,-310"/>
<polygon fill="none" stroke="black" points="452,-310 452,-332 570,-332 570,-310 452,-310"/>
<text text-anchor="start" x="457" y="-319.2" font-family="Helvetica,sans-Serif" font-weight="bold" font-size="11.00">core_import</text>
<text text-anchor="start" x="531" y="-318.2" font-family="Helvetica,sans-Serif" font-size="11.00">[table]</text>
<polygon fill="none" stroke="black" points="452,-292 452,-310 570,-310 570,-292 452,-292"/>
<text text-anchor="start" x="455" y="-298.2" font-family="Helvetica,sans-Serif" font-size="11.00">...</text>
<polygon fill="#ffffff" stroke="none" points="452,-274 452,-292 490,-292 490,-274 452,-274"/>
<polygon fill="none" stroke="black" points="452,-274 452,-292 490,-292 490,-274 452,-274"/>
<text text-anchor="start" x="455" y="-280.2" font-family="Helvetica,sans-Serif" font-size="11.00">&lt; 2</text>
<polygon fill="#ffffff" stroke="none" points="490,-274 490,-292 539,-292 539,-274 490,-274"/>
<polygon fill="none" stroke="black" points="490,-274 490,-292 539,-292 539,-274 490,-274"/>
<text text-anchor="start" x="500" y="-280.2" font-family="Helvetica,sans-Serif" font-size="11.00">0 rows</text>
<polygon fill="#ffffff" stroke="none" points="539,-274 539,-292 570,-292 570,-274 539,-274"/>
<polygon fill="none" stroke="black" points="539,-274 539,-292 570,-292 570,-274 539,-274"/>
<text text-anchor="start" x="550" y="-280.2" font-family="Helvetica,sans-Serif" font-size="11.00">1 &gt;</text>
</a>
</g>
</g>
<!-- core_import&#45;&gt;core_task -->
<g id="edge4" class="edge"><title>core_import:elipses:w&#45;&gt;core_task:pulp_id:e</title>
<path fill="none" stroke="black" d="M436.582,-301C390.978,-301 374.48,-301 322.5,-301"/>
<polygon fill="black" stroke="black" points="443,-301 451,-304.6 447,-301 451,-301 451,-301 451,-301 447,-301 451,-297.4 443,-301 443,-301"/>
<ellipse fill="none" stroke="black" cx="439.8" cy="-301" rx="3.2" ry="3.2"/>
</g>
<!-- core_progressreport -->
<g id="node6" class="node"><title>core_progressreport</title>
<g id="a_node6"><a xlink:href="../../tables/core_progressreport.html" xlink:title="core_progressreport" target="_top">
<polygon fill="#ffffff" stroke="none" points="429.5,-195 429.5,-253 592.5,-253 592.5,-195 429.5,-195"/>
<polygon fill="#f5f5f5" stroke="none" points="430,-231 430,-253 593,-253 593,-231 430,-231"/>
<polygon fill="none" stroke="black" points="430,-231 430,-253 593,-253 593,-231 430,-231"/>
<text text-anchor="start" x="435" y="-240.2" font-family="Helvetica,sans-Serif" font-weight="bold" font-size="11.00">core_progressreport</text>
<text text-anchor="start" x="554" y="-239.2" font-family="Helvetica,sans-Serif" font-size="11.00">[table]</text>
<polygon fill="none" stroke="black" points="430,-213 430,-231 593,-231 593,-213 430,-213"/>
<text text-anchor="start" x="433" y="-219.2" font-family="Helvetica,sans-Serif" font-size="11.00">...</text>
<polygon fill="#ffffff" stroke="none" points="430,-195 430,-213 492,-213 492,-195 430,-195"/>
<polygon fill="none" stroke="black" points="430,-195 430,-213 492,-213 492,-195 430,-195"/>
<text text-anchor="start" x="433" y="-201.2" font-family="Helvetica,sans-Serif" font-size="11.00">&lt; 1</text>
<polygon fill="#ffffff" stroke="none" points="492,-195 492,-213 560,-213 560,-195 492,-195"/>
<polygon fill="none" stroke="black" points="492,-195 492,-213 560,-213 560,-195 492,-195"/>
<text text-anchor="start" x="514" y="-201.2" font-family="Helvetica,sans-Serif" font-size="11.00">53 rows</text>
<polygon fill="#ffffff" stroke="none" points="560,-195 560,-213 593,-213 593,-195 560,-195"/>
<polygon fill="none" stroke="black" points="560,-195 560,-213 593,-213 593,-195 560,-195"/>
<text text-anchor="start" x="583" y="-201.2" font-family="Helvetica,sans-Serif" font-size="11.00"> &#160;</text>
</a>
</g>
</g>
<!-- core_progressreport&#45;&gt;core_task -->
<g id="edge5" class="edge"><title>core_progressreport:elipses:w&#45;&gt;core_task:pulp_id:e</title>
<path fill="none" stroke="black" d="M414.596,-223.43C392.02,-228.445 385.492,-245.905 362,-264 342.943,-278.678 346.554,-301 322.5,-301"/>
<polygon fill="black" stroke="black" points="421.039,-222.791 429.356,-225.582 425.02,-222.395 429,-222 429,-222 429,-222 425.02,-222.395 428.644,-218.418 421.039,-222.791 421.039,-222.791"/>
<ellipse fill="none" stroke="black" cx="417.855" cy="-223.107" rx="3.2" ry="3.2"/>
</g>
<!-- core_taskreservedresource -->
<g id="node9" class="node"><title>core_taskreservedresource</title>
<g id="a_node9"><a xlink:href="../../tables/core_taskreservedresource.html" xlink:title="core_taskreservedresource" target="_top">
<polygon fill="#ffffff" stroke="none" points="410,-116 410,-174 612,-174 612,-116 410,-116"/>
<polygon fill="#f5f5f5" stroke="none" points="410,-152 410,-174 612,-174 612,-152 410,-152"/>
<polygon fill="none" stroke="black" points="410,-152 410,-174 612,-174 612,-152 410,-152"/>
<text text-anchor="start" x="415" y="-161.2" font-family="Helvetica,sans-Serif" font-weight="bold" font-size="11.00">core_taskreservedresource</text>
<text text-anchor="start" x="573" y="-160.2" font-family="Helvetica,sans-Serif" font-size="11.00">[table]</text>
<polygon fill="none" stroke="black" points="410,-134 410,-152 612,-152 612,-134 410,-134"/>
<text text-anchor="start" x="413" y="-140.2" font-family="Helvetica,sans-Serif" font-size="11.00">...</text>
<polygon fill="#ffffff" stroke="none" points="410,-116 410,-134 495,-134 495,-116 410,-116"/>
<polygon fill="none" stroke="black" points="410,-116 410,-134 495,-134 495,-116 410,-116"/>
<text text-anchor="start" x="413" y="-122.2" font-family="Helvetica,sans-Serif" font-size="11.00">&lt; 2</text>
<polygon fill="#ffffff" stroke="none" points="495,-116 495,-134 568,-134 568,-116 495,-116"/>
<polygon fill="none" stroke="black" points="495,-116 495,-134 568,-134 568,-116 495,-116"/>
<text text-anchor="start" x="529" y="-122.2" font-family="Helvetica,sans-Serif" font-size="11.00">0 rows</text>
<polygon fill="#ffffff" stroke="none" points="568,-116 568,-134 612,-134 612,-116 568,-116"/>
<polygon fill="none" stroke="black" points="568,-116 568,-134 612,-134 612,-116 568,-116"/>
<text text-anchor="start" x="602" y="-122.2" font-family="Helvetica,sans-Serif" font-size="11.00"> &#160;</text>
</a>
</g>
</g>
<!-- core_taskreservedresource&#45;&gt;core_task -->
<g id="edge8" class="edge"><title>core_taskreservedresource:elipses:w&#45;&gt;core_task:pulp_id:e</title>
<path fill="none" stroke="black" d="M394.655,-145.191C379.063,-150.768 374.325,-166.387 362,-185 331.932,-230.41 376.963,-301 322.5,-301"/>
<polygon fill="black" stroke="black" points="401.092,-144.208 409.544,-146.559 405.046,-143.604 409,-143 409,-143 409,-143 405.046,-143.604 408.456,-139.441 401.092,-144.208 401.092,-144.208"/>
<ellipse fill="none" stroke="black" cx="397.928" cy="-144.691" rx="3.2" ry="3.2"/>
</g>
<!-- core_taskreservedresourcerecord -->
<g id="node10" class="node"><title>core_taskreservedresourcerecord</title>
<g id="a_node10"><a xlink:href="../../tables/core_taskreservedresourcerecord.html" xlink:title="core_taskreservedresourcerecord" target="_top">
<polygon fill="#ffffff" stroke="none" points="391.5,-37 391.5,-95 630.5,-95 630.5,-37 391.5,-37"/>
<polygon fill="#f5f5f5" stroke="none" points="392,-73 392,-95 631,-95 631,-73 392,-73"/>
<polygon fill="none" stroke="black" points="392,-73 392,-95 631,-95 631,-73 392,-73"/>
<text text-anchor="start" x="397" y="-82.2" font-family="Helvetica,sans-Serif" font-weight="bold" font-size="11.00">core_taskreservedresourcerecord</text>
<text text-anchor="start" x="592" y="-81.2" font-family="Helvetica,sans-Serif" font-size="11.00">[table]</text>
<polygon fill="none" stroke="black" points="392,-55 392,-73 631,-73 631,-55 392,-55"/>
<text text-anchor="start" x="395" y="-61.2" font-family="Helvetica,sans-Serif" font-size="11.00">...</text>
<polygon fill="#ffffff" stroke="none" points="392,-37 392,-55 484,-55 484,-37 392,-37"/>
<polygon fill="none" stroke="black" points="392,-37 392,-55 484,-55 484,-37 392,-37"/>
<text text-anchor="start" x="395" y="-43.2" font-family="Helvetica,sans-Serif" font-size="11.00">&lt; 2</text>
<polygon fill="#ffffff" stroke="none" points="484,-37 484,-55 583,-55 583,-37 484,-37"/>
<polygon fill="none" stroke="black" points="484,-37 484,-55 583,-55 583,-37 484,-37"/>
<text text-anchor="start" x="521" y="-43.2" font-family="Helvetica,sans-Serif" font-size="11.00">1,937 rows</text>
<polygon fill="#ffffff" stroke="none" points="583,-37 583,-55 631,-55 631,-37 583,-37"/>
<polygon fill="none" stroke="black" points="583,-37 583,-55 631,-55 631,-37 583,-37"/>
<text text-anchor="start" x="621" y="-43.2" font-family="Helvetica,sans-Serif" font-size="11.00"> &#160;</text>
</a>
</g>
</g>
<!-- core_taskreservedresourcerecord&#45;&gt;core_task -->
<g id="edge9" class="edge"><title>core_taskreservedresourcerecord:elipses:w&#45;&gt;core_task:pulp_id:e</title>
<path fill="none" stroke="black" d="M377.035,-68.5375C368.852,-75.863 368.38,-90.9961 362,-106 344.698,-146.687 366.713,-301 322.5,-301"/>
<polygon fill="black" stroke="black" points="383.392,-66.4722 392.112,-67.4238 387.196,-65.2361 391,-64 391,-64 391,-64 387.196,-65.2361 389.888,-60.5762 383.392,-66.4722 383.392,-66.4722"/>
<ellipse fill="none" stroke="black" cx="380.348" cy="-67.4611" rx="3.20001" ry="3.20001"/>
</g>
</g>
</svg>
