<?xml version="1.0" encoding="UTF-8" standalone="no"?>
<!DOCTYPE svg PUBLIC "-//W3C//DTD SVG 1.1//EN"
 "http://www.w3.org/Graphics/SVG/1.1/DTD/svg11.dtd">
<!-- Generated by graphviz version 2.38.0 (20140413.2041)
 -->
<!-- Title: oneDegreeRelationshipsDiagram Pages: 1 -->
<svg width="576pt" height="362pt"
 viewBox="0.00 0.00 576.00 362.00" xmlns="http://www.w3.org/2000/svg" xmlns:xlink="http://www.w3.org/1999/xlink">
<g id="graph0" class="graph" transform="scale(1 1) rotate(0) translate(4 358)">
<title>oneDegreeRelationshipsDiagram</title>
<polygon fill="#ffffff" stroke="none" points="-4,4 -4,-358 572,-358 572,4 -4,4"/>
<text text-anchor="middle" x="74.5" y="-7.2" font-family="Helvetica,sans-Serif" font-size="11.00">Generated by SchemaSpy</text>
<!-- ansible_collectionversion_tags -->
<g id="node1" class="node"><title>ansible_collectionversion_tags</title>
<g id="a_node1"><a xlink:href="../../tables/ansible_collectionversion_tags.html" xlink:title="ansible_collectionversion_tags" target="_top">
<polygon fill="#ffffff" stroke="none" points="250,-169 250,-279 560,-279 560,-169 250,-169"/>
<polygon fill="#f5f5f5" stroke="none" points="252,-255 252,-277 558,-277 558,-255 252,-255"/>
<polygon fill="none" stroke="black" points="252,-255 252,-277 558,-277 558,-255 252,-255"/>
<text text-anchor="start" x="257" y="-264.2" font-family="Helvetica,sans-Serif" font-weight="bold" font-size="11.00">ansible_collectionversion_tags</text>
<text text-anchor="start" x="519" y="-263.2" font-family="Helvetica,sans-Serif" font-size="11.00">[table]</text>
<polygon fill="none" stroke="black" points="252,-233 252,-255 453,-255 453,-233 252,-233"/>
<image xlink:href="../../images/primaryKeys.png" width="11px" height="12px" preserveAspectRatio="xMinYMin meet" x="257" y="-250"/>
<text text-anchor="start" x="272" y="-241.2" font-family="Helvetica,sans-Serif" font-size="11.00">id</text>
<polygon fill="none" stroke="black" points="453,-233 453,-255 558,-255 558,-233 453,-233"/>
<text text-anchor="start" x="456" y="-241.2" font-family="Helvetica,sans-Serif" font-size="11.00">serial[10]</text>
<polygon fill="#ffffff" stroke="none" points="252,-211 252,-233 453,-233 453,-211 252,-211"/>
<polygon fill="none" stroke="black" points="252,-211 252,-233 453,-233 453,-211 252,-211"/>
<image xlink:href="../../images/foreignKeys.png" width="11px" height="12px" preserveAspectRatio="xMinYMin meet" x="257" y="-228"/>
<text text-anchor="start" x="272" y="-219.2" font-family="Helvetica,sans-Serif" font-size="11.00">collectionversion_id</text>
<polygon fill="none" stroke="black" points="453,-211 453,-233 558,-233 558,-211 453,-211"/>
<text text-anchor="start" x="456" y="-219.2" font-family="Helvetica,sans-Serif" font-size="11.00">uuid[2147483647]</text>
<polygon fill="#ffffff" stroke="none" points="252,-189 252,-211 453,-211 453,-189 252,-189"/>
<polygon fill="none" stroke="black" points="252,-189 252,-211 453,-211 453,-189 252,-189"/>
<image xlink:href="../../images/foreignKeys.png" width="11px" height="12px" preserveAspectRatio="xMinYMin meet" x="257" y="-206"/>
<text text-anchor="start" x="272" y="-197.2" font-family="Helvetica,sans-Serif" font-size="11.00">tag_id</text>
<polygon fill="none" stroke="black" points="453,-189 453,-211 558,-211 558,-189 453,-189"/>
<text text-anchor="start" x="456" y="-197.2" font-family="Helvetica,sans-Serif" font-size="11.00">uuid[2147483647]</text>
<polygon fill="#ffffff" stroke="none" points="252,-171 252,-189 339,-189 339,-171 252,-171"/>
<polygon fill="none" stroke="black" points="252,-171 252,-189 339,-189 339,-171 252,-171"/>
<text text-anchor="start" x="255" y="-177.2" font-family="Helvetica,sans-Serif" font-size="11.00">&lt; 2</text>
<polygon fill="#ffffff" stroke="none" points="339,-171 339,-189 453,-189 453,-171 339,-171"/>
<polygon fill="none" stroke="black" points="339,-171 339,-189 453,-189 453,-171 339,-171"/>
<text text-anchor="start" x="407" y="-177.2" font-family="Helvetica,sans-Serif" font-size="11.00">10 rows</text>
<polygon fill="#ffffff" stroke="none" points="453,-171 453,-189 558,-189 558,-171 453,-171"/>
<polygon fill="none" stroke="black" points="453,-171 453,-189 558,-189 558,-171 453,-171"/>
<text text-anchor="start" x="538" y="-177.2" font-family="Helvetica,sans-Serif" font-size="11.00">0 &gt;</text>
<polygon fill="none" stroke="black" stroke-width="2" points="251,-170 251,-278 559,-278 559,-170 251,-170"/>
</a>
</g>
</g>
<!-- ansible_collectionversion -->
<g id="node2" class="node"><title>ansible_collectionversion</title>
<g id="a_node2"><a xlink:href="../../tables/ansible_collectionversion.html" xlink:title="ansible_collectionversion" target="_top">
<polygon fill="#ffffff" stroke="none" points="8,-160 8,-350 201,-350 201,-160 8,-160"/>
<polygon fill="#f5f5f5" stroke="none" points="8.5,-328 8.5,-350 201.5,-350 201.5,-328 8.5,-328"/>
<polygon fill="none" stroke="black" points="8.5,-328 8.5,-350 201.5,-350 201.5,-328 8.5,-328"/>
<text text-anchor="start" x="13.5" y="-337.2" font-family="Helvetica,sans-Serif" font-weight="bold" font-size="11.00">ansible_collectionversion</text>
<text text-anchor="start" x="162.5" y="-336.2" font-family="Helvetica,sans-Serif" font-size="11.00">[table]</text>
<polygon fill="none" stroke="black" points="8.5,-306 8.5,-328 201.5,-328 201.5,-306 8.5,-306"/>
<image xlink:href="../../images/primaryKeys.png" width="11px" height="12px" preserveAspectRatio="xMinYMin meet" x="13.5" y="-323"/>
<text text-anchor="start" x="39.5" y="-314.2" font-family="Helvetica,sans-Serif" font-size="11.00">content_ptr_id</text>
<polygon fill="#ffffff" stroke="none" points="8.5,-284 8.5,-306 201.5,-306 201.5,-284 8.5,-284"/>
<polygon fill="none" stroke="black" points="8.5,-284 8.5,-306 201.5,-306 201.5,-284 8.5,-284"/>
<text text-anchor="start" x="39.5" y="-292.2" font-family="Helvetica,sans-Serif" font-size="11.00">version</text>
<polygon fill="#ffffff" stroke="none" points="8.5,-262 8.5,-284 201.5,-284 201.5,-262 8.5,-262"/>
<polygon fill="none" stroke="black" points="8.5,-262 8.5,-284 201.5,-284 201.5,-262 8.5,-262"/>
<image xlink:href="../../images/foreignKeys.png" width="11px" height="12px" preserveAspectRatio="xMinYMin meet" x="13.5" y="-279"/>
<text text-anchor="start" x="39.5" y="-270.2" font-family="Helvetica,sans-Serif" font-size="11.00">collection_id</text>
<polygon fill="#ffffff" stroke="none" points="8.5,-240 8.5,-262 201.5,-262 201.5,-240 8.5,-240"/>
<polygon fill="none" stroke="black" points="8.5,-240 8.5,-262 201.5,-262 201.5,-240 8.5,-240"/>
<text text-anchor="start" x="39.5" y="-248.2" font-family="Helvetica,sans-Serif" font-size="11.00">name</text>
<polygon fill="#ffffff" stroke="none" points="8.5,-218 8.5,-240 201.5,-240 201.5,-218 8.5,-218"/>
<polygon fill="none" stroke="black" points="8.5,-218 8.5,-240 201.5,-240 201.5,-218 8.5,-218"/>
<text text-anchor="start" x="39.5" y="-226.2" font-family="Helvetica,sans-Serif" font-size="11.00">namespace</text>
<polygon fill="#ffffff" stroke="none" points="8.5,-196 8.5,-218 201.5,-218 201.5,-196 8.5,-196"/>
<polygon fill="none" stroke="black" points="8.5,-196 8.5,-218 201.5,-218 201.5,-196 8.5,-196"/>
<text text-anchor="start" x="39.5" y="-204.2" font-family="Helvetica,sans-Serif" font-size="11.00">is_highest</text>
<polygon fill="none" stroke="black" points="8.5,-178 8.5,-196 201.5,-196 201.5,-178 8.5,-178"/>
<text text-anchor="start" x="11.5" y="-184.2" font-family="Helvetica,sans-Serif" font-size="11.00">...</text>
<polygon fill="#ffffff" stroke="none" points="8.5,-160 8.5,-178 80.5,-178 80.5,-160 8.5,-160"/>
<polygon fill="none" stroke="black" points="8.5,-160 8.5,-178 80.5,-178 80.5,-160 8.5,-160"/>
<text text-anchor="start" x="11.5" y="-166.2" font-family="Helvetica,sans-Serif" font-size="11.00">&lt; 2</text>
<polygon fill="#ffffff" stroke="none" points="80.5,-160 80.5,-178 153.5,-178 153.5,-160 80.5,-160"/>
<polygon fill="none" stroke="black" points="80.5,-160 80.5,-178 153.5,-178 153.5,-160 80.5,-160"/>
<text text-anchor="start" x="107.5" y="-166.2" font-family="Helvetica,sans-Serif" font-size="11.00">88 rows</text>
<polygon fill="#ffffff" stroke="none" points="153.5,-160 153.5,-178 201.5,-178 201.5,-160 153.5,-160"/>
<polygon fill="none" stroke="black" points="153.5,-160 153.5,-178 201.5,-178 201.5,-160 153.5,-160"/>
<text text-anchor="start" x="181.5" y="-166.2" font-family="Helvetica,sans-Serif" font-size="11.00">1 &gt;</text>
</a>
</g>
</g>
<!-- ansible_collectionversion_tags&#45;&gt;ansible_collectionversion -->
<g id="edge1" class="edge"><title>ansible_collectionversion_tags:collectionversion_id:w&#45;&gt;ansible_collectionversion:content_ptr_id:e</title>
<path fill="none" stroke="black" d="M236.938,-226.329C213.976,-244.914 243.795,-317 202.5,-317"/>
<polygon fill="black" stroke="black" points="243.354,-224.354 252.059,-225.441 247.177,-223.177 251,-222 251,-222 251,-222 247.177,-223.177 249.941,-218.559 243.354,-224.354 243.354,-224.354"/>
<ellipse fill="none" stroke="black" cx="240.296" cy="-225.295" rx="3.20001" ry="3.20001"/>
</g>
<!-- ansible_tag -->
<g id="node3" class="node"><title>ansible_tag</title>
<g id="a_node3"><a xlink:href="../../tables/ansible_tag.html" xlink:title="ansible_tag" target="_top">
<polygon fill="#ffffff" stroke="none" points="40,-37 40,-139 169,-139 169,-37 40,-37"/>
<polygon fill="#f5f5f5" stroke="none" points="40.5,-117 40.5,-139 169.5,-139 169.5,-117 40.5,-117"/>
<polygon fill="none" stroke="black" points="40.5,-117 40.5,-139 169.5,-139 169.5,-117 40.5,-117"/>
<text text-anchor="start" x="45.5" y="-126.2" font-family="Helvetica,sans-Serif" font-weight="bold" font-size="11.00">ansible_tag</text>
<text text-anchor="start" x="130.5" y="-125.2" font-family="Helvetica,sans-Serif" font-size="11.00">[table]</text>
<polygon fill="none" stroke="black" points="40.5,-95 40.5,-117 169.5,-117 169.5,-95 40.5,-95"/>
<image xlink:href="../../images/primaryKeys.png" width="11px" height="12px" preserveAspectRatio="xMinYMin meet" x="45.5" y="-112"/>
<text text-anchor="start" x="60.5" y="-103.2" font-family="Helvetica,sans-Serif" font-size="11.00">pulp_id</text>
<polygon fill="#ffffff" stroke="none" points="40.5,-73 40.5,-95 169.5,-95 169.5,-73 40.5,-73"/>
<polygon fill="none" stroke="black" points="40.5,-73 40.5,-95 169.5,-95 169.5,-73 40.5,-73"/>
<text text-anchor="start" x="60.5" y="-81.2" font-family="Helvetica,sans-Serif" font-size="11.00">name</text>
<polygon fill="none" stroke="black" points="40.5,-55 40.5,-73 169.5,-73 169.5,-55 40.5,-55"/>
<text text-anchor="start" x="43.5" y="-61.2" font-family="Helvetica,sans-Serif" font-size="11.00">...</text>
<polygon fill="#ffffff" stroke="none" points="40.5,-37 40.5,-55 78.5,-55 78.5,-37 40.5,-37"/>
<polygon fill="none" stroke="black" points="40.5,-37 40.5,-55 78.5,-55 78.5,-37 40.5,-37"/>
<text text-anchor="start" x="43.5" y="-43.2" font-family="Helvetica,sans-Serif" font-size="11.00"> &#160;</text>
<polygon fill="#ffffff" stroke="none" points="78.5,-37 78.5,-55 133.5,-55 133.5,-37 78.5,-37"/>
<polygon fill="none" stroke="black" points="78.5,-37 78.5,-55 133.5,-55 133.5,-37 78.5,-37"/>
<text text-anchor="start" x="94.5" y="-43.2" font-family="Helvetica,sans-Serif" font-size="11.00">5 rows</text>
<polygon fill="#ffffff" stroke="none" points="133.5,-37 133.5,-55 169.5,-55 169.5,-37 133.5,-37"/>
<polygon fill="none" stroke="black" points="133.5,-37 133.5,-55 169.5,-55 169.5,-37 133.5,-37"/>
<text text-anchor="start" x="149.5" y="-43.2" font-family="Helvetica,sans-Serif" font-size="11.00">1 &gt;</text>
</a>
</g>
</g>
<!-- ansible_collectionversion_tags&#45;&gt;ansible_tag -->
<g id="edge2" class="edge"><title>ansible_collectionversion_tags:tag_id:w&#45;&gt;ansible_tag:pulp_id:e</title>
<path fill="none" stroke="black" d="M236.679,-197.288C201.118,-181.876 219.918,-106 170.5,-106"/>
<polygon fill="black" stroke="black" points="243.14,-198.511 250.33,-203.537 247.07,-199.256 251,-200 251,-200 251,-200 247.07,-199.256 251.67,-196.463 243.14,-198.511 243.14,-198.511"/>
<ellipse fill="none" stroke="black" cx="239.996" cy="-197.916" rx="3.2" ry="3.2"/>
</g>
</g>
</svg>
