<?xml version="1.0" encoding="UTF-8" standalone="no"?>
<!DOCTYPE svg PUBLIC "-//W3C//DTD SVG 1.1//EN"
 "http://www.w3.org/Graphics/SVG/1.1/DTD/svg11.dtd">
<!-- Generated by graphviz version 2.38.0 (20140413.2041)
 -->
<!-- Title: oneDegreeRelationshipsDiagram Pages: 1 -->
<svg width="484pt" height="219pt"
 viewBox="0.00 0.00 484.00 219.00" xmlns="http://www.w3.org/2000/svg" xmlns:xlink="http://www.w3.org/1999/xlink">
<g id="graph0" class="graph" transform="scale(1 1) rotate(0) translate(4 215)">
<title>oneDegreeRelationshipsDiagram</title>
<polygon fill="#ffffff" stroke="none" points="-4,4 -4,-215 480,-215 480,4 -4,4"/>
<text text-anchor="middle" x="74.5" y="-7.2" font-family="Helvetica,sans-Serif" font-size="11.00">Generated by SchemaSpy</text>
<!-- ansible_collectionimport -->
<g id="node1" class="node"><title>ansible_collectionimport</title>
<g id="a_node1"><a xlink:href="../../tables/ansible_collectionimport.html" xlink:title="ansible_collectionimport" target="_top">
<polygon fill="#ffffff" stroke="none" points="186,-119 186,-207 468,-207 468,-119 186,-119"/>
<polygon fill="#f5f5f5" stroke="none" points="188,-183 188,-205 466,-205 466,-183 188,-183"/>
<polygon fill="none" stroke="black" points="188,-183 188,-205 466,-205 466,-183 188,-183"/>
<text text-anchor="start" x="193" y="-192.2" font-family="Helvetica,sans-Serif" font-weight="bold" font-size="11.00">ansible_collectionimport</text>
<text text-anchor="start" x="427" y="-191.2" font-family="Helvetica,sans-Serif" font-size="11.00">[table]</text>
<polygon fill="none" stroke="black" points="188,-161 188,-183 356,-183 356,-161 188,-161"/>
<text text-anchor="start" x="208" y="-169.2" font-family="Helvetica,sans-Serif" font-size="11.00">messages</text>
<polygon fill="none" stroke="black" points="356,-161 356,-183 466,-183 466,-161 356,-161"/>
<text text-anchor="start" x="359" y="-169.2" font-family="Helvetica,sans-Serif" font-size="11.00">jsonb[2147483647]</text>
<polygon fill="none" stroke="black" points="188,-139 188,-161 356,-161 356,-139 188,-139"/>
<image xlink:href="../../images/primaryKeys.png" width="11px" height="12px" preserveAspectRatio="xMinYMin meet" x="193" y="-156"/>
<text text-anchor="start" x="208" y="-147.2" font-family="Helvetica,sans-Serif" font-size="11.00">task_id</text>
<polygon fill="none" stroke="black" points="356,-139 356,-161 466,-161 466,-139 356,-139"/>
<text text-anchor="start" x="359" y="-147.2" font-family="Helvetica,sans-Serif" font-size="11.00">uuid[2147483647]</text>
<polygon fill="#ffffff" stroke="none" points="188,-121 188,-139 256,-139 256,-121 188,-121"/>
<polygon fill="none" stroke="black" points="188,-121 188,-139 256,-139 256,-121 188,-121"/>
<text text-anchor="start" x="191" y="-127.2" font-family="Helvetica,sans-Serif" font-size="11.00">&lt; 1</text>
<polygon fill="#ffffff" stroke="none" points="256,-121 256,-139 356,-139 356,-121 256,-121"/>
<polygon fill="none" stroke="black" points="256,-121 256,-139 356,-139 356,-121 256,-121"/>
<text text-anchor="start" x="304" y="-127.2" font-family="Helvetica,sans-Serif" font-size="11.00">111 rows</text>
<polygon fill="#ffffff" stroke="none" points="356,-121 356,-139 466,-139 466,-121 356,-121"/>
<polygon fill="none" stroke="black" points="356,-121 356,-139 466,-139 466,-121 356,-121"/>
<text text-anchor="start" x="446" y="-127.2" font-family="Helvetica,sans-Serif" font-size="11.00">0 &gt;</text>
<polygon fill="none" stroke="black" stroke-width="2" points="187,-120 187,-206 467,-206 467,-120 187,-120"/>
</a>
</g>
</g>
<!-- core_task -->
<g id="node2" class="node"><title>core_task</title>
<g id="a_node2"><a xlink:href="../../tables/core_task.html" xlink:title="core_task" target="_top">
<polygon fill="#ffffff" stroke="none" points="8,-37 8,-183 137,-183 137,-37 8,-37"/>
<polygon fill="#f5f5f5" stroke="none" points="8.5,-161 8.5,-183 137.5,-183 137.5,-161 8.5,-161"/>
<polygon fill="none" stroke="black" points="8.5,-161 8.5,-183 137.5,-183 137.5,-161 8.5,-161"/>
<text text-anchor="start" x="13.5" y="-170.2" font-family="Helvetica,sans-Serif" font-weight="bold" font-size="11.00">core_task</text>
<text text-anchor="start" x="98.5" y="-169.2" font-family="Helvetica,sans-Serif" font-size="11.00">[table]</text>
<polygon fill="none" stroke="black" points="8.5,-139 8.5,-161 137.5,-161 137.5,-139 8.5,-139"/>
<image xlink:href="../../images/primaryKeys.png" width="11px" height="12px" preserveAspectRatio="xMinYMin meet" x="13.5" y="-156"/>
<text text-anchor="start" x="28.5" y="-147.2" font-family="Helvetica,sans-Serif" font-size="11.00">pulp_id</text>
<polygon fill="#ffffff" stroke="none" points="8.5,-117 8.5,-139 137.5,-139 137.5,-117 8.5,-117"/>
<polygon fill="none" stroke="black" points="8.5,-117 8.5,-139 137.5,-139 137.5,-117 8.5,-117"/>
<image xlink:href="../../images/foreignKeys.png" width="11px" height="12px" preserveAspectRatio="xMinYMin meet" x="13.5" y="-134"/>
<text text-anchor="start" x="28.5" y="-125.2" font-family="Helvetica,sans-Serif" font-size="11.00">worker_id</text>
<polygon fill="#ffffff" stroke="none" points="8.5,-95 8.5,-117 137.5,-117 137.5,-95 8.5,-95"/>
<polygon fill="none" stroke="black" points="8.5,-95 8.5,-117 137.5,-117 137.5,-95 8.5,-95"/>
<image xlink:href="../../images/foreignKeys.png" width="11px" height="12px" preserveAspectRatio="xMinYMin meet" x="13.5" y="-112"/>
<text text-anchor="start" x="28.5" y="-103.2" font-family="Helvetica,sans-Serif" font-size="11.00">parent_task_id</text>
<polygon fill="#ffffff" stroke="none" points="8.5,-73 8.5,-95 137.5,-95 137.5,-73 8.5,-73"/>
<polygon fill="none" stroke="black" points="8.5,-73 8.5,-95 137.5,-95 137.5,-73 8.5,-73"/>
<image xlink:href="../../images/foreignKeys.png" width="11px" height="12px" preserveAspectRatio="xMinYMin meet" x="13.5" y="-90"/>
<text text-anchor="start" x="28.5" y="-81.2" font-family="Helvetica,sans-Serif" font-size="11.00">task_group_id</text>
<polygon fill="none" stroke="black" points="8.5,-55 8.5,-73 137.5,-73 137.5,-55 8.5,-55"/>
<text text-anchor="start" x="11.5" y="-61.2" font-family="Helvetica,sans-Serif" font-size="11.00">...</text>
<polygon fill="#ffffff" stroke="none" points="8.5,-37 8.5,-55 40.5,-55 40.5,-37 8.5,-37"/>
<polygon fill="none" stroke="black" points="8.5,-37 8.5,-55 40.5,-55 40.5,-37 8.5,-37"/>
<text text-anchor="start" x="11.5" y="-43.2" font-family="Helvetica,sans-Serif" font-size="11.00">&lt; 3</text>
<polygon fill="#ffffff" stroke="none" points="40.5,-37 40.5,-55 109.5,-55 109.5,-37 40.5,-37"/>
<polygon fill="none" stroke="black" points="40.5,-37 40.5,-55 109.5,-55 109.5,-37 40.5,-37"/>
<text text-anchor="start" x="47.5" y="-43.2" font-family="Helvetica,sans-Serif" font-size="11.00">1,828 rows</text>
<polygon fill="#ffffff" stroke="none" points="109.5,-37 109.5,-55 137.5,-55 137.5,-37 109.5,-37"/>
<polygon fill="none" stroke="black" points="109.5,-37 109.5,-55 137.5,-55 137.5,-37 109.5,-37"/>
<text text-anchor="start" x="117.5" y="-43.2" font-family="Helvetica,sans-Serif" font-size="11.00">8 &gt;</text>
</a>
</g>
</g>
<!-- ansible_collectionimport&#45;&gt;core_task -->
<g id="edge1" class="edge"><title>ansible_collectionimport:task_id:w&#45;&gt;core_task:pulp_id:e</title>
<path fill="none" stroke="black" d="M176.367,-150C162.855,-150 156.014,-150 138.5,-150"/>
<polygon fill="black" stroke="black" points="186.2,-146 186.2,-154 184.6,-154 184.6,-146 186.2,-146"/>
<polyline fill="none" stroke="black" points="187,-150 183,-150 "/>
<ellipse fill="none" stroke="black" cx="179.8" cy="-150" rx="3.2" ry="3.2"/>
</g>
</g>
</svg>
