<?xml version="1.0" encoding="UTF-8" standalone="no"?>
<!DOCTYPE svg PUBLIC "-//W3C//DTD SVG 1.1//EN"
 "http://www.w3.org/Graphics/SVG/1.1/DTD/svg11.dtd">
<!-- Generated by graphviz version 2.38.0 (20140413.2041)
 -->
<!-- Title: twoDegreesRelationshipsDiagram Pages: 1 -->
<svg width="776pt" height="377pt"
 viewBox="0.00 0.00 776.00 377.00" xmlns="http://www.w3.org/2000/svg" xmlns:xlink="http://www.w3.org/1999/xlink">
<g id="graph0" class="graph" transform="scale(1 1) rotate(0) translate(4 373)">
<title>twoDegreesRelationshipsDiagram</title>
<polygon fill="#ffffff" stroke="none" points="-4,4 -4,-373 772,-373 772,4 -4,4"/>
<text text-anchor="middle" x="74.5" y="-7.2" font-family="Helvetica,sans-Serif" font-size="11.00">Generated by SchemaSpy</text>
<!-- ansible_collectionversion -->
<g id="node1" class="node"><title>ansible_collectionversion</title>
<g id="a_node1"><a xlink:href="../../tables/ansible_collectionversion.html" xlink:title="ansible_collectionversion" target="_top">
<polygon fill="#ffffff" stroke="none" points="208,-160 208,-350 401,-350 401,-160 208,-160"/>
<polygon fill="#f5f5f5" stroke="none" points="208.5,-328 208.5,-350 401.5,-350 401.5,-328 208.5,-328"/>
<polygon fill="none" stroke="black" points="208.5,-328 208.5,-350 401.5,-350 401.5,-328 208.5,-328"/>
<text text-anchor="start" x="213.5" y="-337.2" font-family="Helvetica,sans-Serif" font-weight="bold" font-size="11.00">ansible_collectionversion</text>
<text text-anchor="start" x="362.5" y="-336.2" font-family="Helvetica,sans-Serif" font-size="11.00">[table]</text>
<polygon fill="none" stroke="black" points="208.5,-306 208.5,-328 401.5,-328 401.5,-306 208.5,-306"/>
<image xlink:href="../../images/primaryKeys.png" width="11px" height="12px" preserveAspectRatio="xMinYMin meet" x="213.5" y="-323"/>
<text text-anchor="start" x="239.5" y="-314.2" font-family="Helvetica,sans-Serif" font-size="11.00">content_ptr_id</text>
<polygon fill="#ffffff" stroke="none" points="208.5,-284 208.5,-306 401.5,-306 401.5,-284 208.5,-284"/>
<polygon fill="none" stroke="black" points="208.5,-284 208.5,-306 401.5,-306 401.5,-284 208.5,-284"/>
<text text-anchor="start" x="239.5" y="-292.2" font-family="Helvetica,sans-Serif" font-size="11.00">version</text>
<polygon fill="#ffffff" stroke="none" points="208.5,-262 208.5,-284 401.5,-284 401.5,-262 208.5,-262"/>
<polygon fill="none" stroke="black" points="208.5,-262 208.5,-284 401.5,-284 401.5,-262 208.5,-262"/>
<image xlink:href="../../images/foreignKeys.png" width="11px" height="12px" preserveAspectRatio="xMinYMin meet" x="213.5" y="-279"/>
<text text-anchor="start" x="239.5" y="-270.2" font-family="Helvetica,sans-Serif" font-size="11.00">collection_id</text>
<polygon fill="#ffffff" stroke="none" points="208.5,-240 208.5,-262 401.5,-262 401.5,-240 208.5,-240"/>
<polygon fill="none" stroke="black" points="208.5,-240 208.5,-262 401.5,-262 401.5,-240 208.5,-240"/>
<text text-anchor="start" x="239.5" y="-248.2" font-family="Helvetica,sans-Serif" font-size="11.00">name</text>
<polygon fill="#ffffff" stroke="none" points="208.5,-218 208.5,-240 401.5,-240 401.5,-218 208.5,-218"/>
<polygon fill="none" stroke="black" points="208.5,-218 208.5,-240 401.5,-240 401.5,-218 208.5,-218"/>
<text text-anchor="start" x="239.5" y="-226.2" font-family="Helvetica,sans-Serif" font-size="11.00">namespace</text>
<polygon fill="#ffffff" stroke="none" points="208.5,-196 208.5,-218 401.5,-218 401.5,-196 208.5,-196"/>
<polygon fill="none" stroke="black" points="208.5,-196 208.5,-218 401.5,-218 401.5,-196 208.5,-196"/>
<text text-anchor="start" x="239.5" y="-204.2" font-family="Helvetica,sans-Serif" font-size="11.00">is_highest</text>
<polygon fill="none" stroke="black" points="208.5,-178 208.5,-196 401.5,-196 401.5,-178 208.5,-178"/>
<text text-anchor="start" x="211.5" y="-184.2" font-family="Helvetica,sans-Serif" font-size="11.00">...</text>
<polygon fill="#ffffff" stroke="none" points="208.5,-160 208.5,-178 280.5,-178 280.5,-160 208.5,-160"/>
<polygon fill="none" stroke="black" points="208.5,-160 208.5,-178 280.5,-178 280.5,-160 208.5,-160"/>
<text text-anchor="start" x="211.5" y="-166.2" font-family="Helvetica,sans-Serif" font-size="11.00">&lt; 2</text>
<polygon fill="#ffffff" stroke="none" points="280.5,-160 280.5,-178 353.5,-178 353.5,-160 280.5,-160"/>
<polygon fill="none" stroke="black" points="280.5,-160 280.5,-178 353.5,-178 353.5,-160 280.5,-160"/>
<text text-anchor="start" x="307.5" y="-166.2" font-family="Helvetica,sans-Serif" font-size="11.00">88 rows</text>
<polygon fill="#ffffff" stroke="none" points="353.5,-160 353.5,-178 401.5,-178 401.5,-160 353.5,-160"/>
<polygon fill="none" stroke="black" points="353.5,-160 353.5,-178 401.5,-178 401.5,-160 353.5,-160"/>
<text text-anchor="start" x="381.5" y="-166.2" font-family="Helvetica,sans-Serif" font-size="11.00">1 &gt;</text>
</a>
</g>
</g>
<!-- ansible_collection -->
<g id="node2" class="node"><title>ansible_collection</title>
<g id="a_node2"><a xlink:href="../../tables/ansible_collection.html" xlink:title="ansible_collection" target="_top">
<polygon fill="#ffffff" stroke="none" points="8,-228 8,-286 159,-286 159,-228 8,-228"/>
<polygon fill="#f5f5f5" stroke="none" points="8.5,-264 8.5,-286 159.5,-286 159.5,-264 8.5,-264"/>
<polygon fill="none" stroke="black" points="8.5,-264 8.5,-286 159.5,-286 159.5,-264 8.5,-264"/>
<text text-anchor="start" x="13.5" y="-273.2" font-family="Helvetica,sans-Serif" font-weight="bold" font-size="11.00">ansible_collection</text>
<text text-anchor="start" x="120.5" y="-272.2" font-family="Helvetica,sans-Serif" font-size="11.00">[table]</text>
<polygon fill="none" stroke="black" points="8.5,-246 8.5,-264 159.5,-264 159.5,-246 8.5,-246"/>
<text text-anchor="start" x="11.5" y="-252.2" font-family="Helvetica,sans-Serif" font-size="11.00">...</text>
<polygon fill="#ffffff" stroke="none" points="8.5,-228 8.5,-246 57.5,-246 57.5,-228 8.5,-228"/>
<polygon fill="none" stroke="black" points="8.5,-228 8.5,-246 57.5,-246 57.5,-228 8.5,-228"/>
<text text-anchor="start" x="11.5" y="-234.2" font-family="Helvetica,sans-Serif" font-size="11.00"> &#160;</text>
<polygon fill="#ffffff" stroke="none" points="57.5,-228 57.5,-246 117.5,-246 117.5,-228 57.5,-228"/>
<polygon fill="none" stroke="black" points="57.5,-228 57.5,-246 117.5,-246 117.5,-228 57.5,-228"/>
<text text-anchor="start" x="78.5" y="-234.2" font-family="Helvetica,sans-Serif" font-size="11.00">4 rows</text>
<polygon fill="#ffffff" stroke="none" points="117.5,-228 117.5,-246 159.5,-246 159.5,-228 117.5,-228"/>
<polygon fill="none" stroke="black" points="117.5,-228 117.5,-246 159.5,-246 159.5,-228 117.5,-228"/>
<text text-anchor="start" x="139.5" y="-234.2" font-family="Helvetica,sans-Serif" font-size="11.00">2 &gt;</text>
</a>
</g>
</g>
<!-- ansible_collectionversion&#45;&gt;ansible_collection -->
<g id="edge1" class="edge"><title>ansible_collectionversion:collection_id:w&#45;&gt;ansible_collection:elipses:e</title>
<path fill="none" stroke="black" d="M193.177,-269.865C182.511,-264.708 176.927,-255 160.5,-255"/>
<polygon fill="black" stroke="black" points="199.685,-271.289 206.73,-276.517 203.593,-272.145 207.5,-273 207.5,-273 207.5,-273 203.593,-272.145 208.27,-269.483 199.685,-271.289 199.685,-271.289"/>
<ellipse fill="none" stroke="black" cx="196.559" cy="-270.605" rx="3.2" ry="3.2"/>
</g>
<!-- core_content -->
<g id="node3" class="node"><title>core_content</title>
<g id="a_node3"><a xlink:href="../../tables/core_content.html" xlink:title="core_content" target="_top">
<polygon fill="#ffffff" stroke="none" points="22,-307 22,-365 145,-365 145,-307 22,-307"/>
<polygon fill="#f5f5f5" stroke="none" points="22.5,-343 22.5,-365 145.5,-365 145.5,-343 22.5,-343"/>
<polygon fill="none" stroke="black" points="22.5,-343 22.5,-365 145.5,-365 145.5,-343 22.5,-343"/>
<text text-anchor="start" x="27.5" y="-352.2" font-family="Helvetica,sans-Serif" font-weight="bold" font-size="11.00">core_content</text>
<text text-anchor="start" x="106.5" y="-351.2" font-family="Helvetica,sans-Serif" font-size="11.00">[table]</text>
<polygon fill="none" stroke="black" points="22.5,-325 22.5,-343 145.5,-343 145.5,-325 22.5,-325"/>
<text text-anchor="start" x="25.5" y="-331.2" font-family="Helvetica,sans-Serif" font-size="11.00">...</text>
<polygon fill="#ffffff" stroke="none" points="22.5,-307 22.5,-325 54.5,-325 54.5,-307 22.5,-307"/>
<polygon fill="none" stroke="black" points="22.5,-307 22.5,-325 54.5,-325 54.5,-307 22.5,-307"/>
<text text-anchor="start" x="25.5" y="-313.2" font-family="Helvetica,sans-Serif" font-size="11.00"> &#160;</text>
<polygon fill="#ffffff" stroke="none" points="54.5,-307 54.5,-325 112.5,-325 112.5,-307 54.5,-307"/>
<polygon fill="none" stroke="black" points="54.5,-307 54.5,-325 112.5,-325 112.5,-307 54.5,-307"/>
<text text-anchor="start" x="66.5" y="-313.2" font-family="Helvetica,sans-Serif" font-size="11.00">88 rows</text>
<polygon fill="#ffffff" stroke="none" points="112.5,-307 112.5,-325 145.5,-325 145.5,-307 112.5,-307"/>
<polygon fill="none" stroke="black" points="112.5,-307 112.5,-325 145.5,-325 145.5,-307 112.5,-307"/>
<text text-anchor="start" x="125.5" y="-313.2" font-family="Helvetica,sans-Serif" font-size="11.00">8 &gt;</text>
</a>
</g>
</g>
<!-- ansible_collectionversion&#45;&gt;core_content -->
<g id="edge2" class="edge"><title>ansible_collectionversion:content_ptr_id:w&#45;&gt;core_content:elipses:e</title>
<path fill="none" stroke="black" d="M196.886,-317.914C177.567,-321.445 170.686,-334 146.5,-334"/>
<polygon fill="black" stroke="black" points="206.36,-313.083 207.046,-321.054 205.452,-321.191 204.766,-313.221 206.36,-313.083"/>
<polyline fill="none" stroke="black" points="207.5,-317 203.515,-317.343 "/>
<ellipse fill="none" stroke="black" cx="200.327" cy="-317.618" rx="3.2" ry="3.2"/>
</g>
<!-- ansible_collectionversion_tags -->
<g id="node4" class="node"><title>ansible_collectionversion_tags</title>
<g id="a_node4"><a xlink:href="../../tables/ansible_collectionversion_tags.html" xlink:title="ansible_collectionversion_tags" target="_top">
<polygon fill="#ffffff" stroke="none" points="450,-169 450,-279 760,-279 760,-169 450,-169"/>
<polygon fill="#f5f5f5" stroke="none" points="452,-255 452,-277 758,-277 758,-255 452,-255"/>
<polygon fill="none" stroke="black" points="452,-255 452,-277 758,-277 758,-255 452,-255"/>
<text text-anchor="start" x="457" y="-264.2" font-family="Helvetica,sans-Serif" font-weight="bold" font-size="11.00">ansible_collectionversion_tags</text>
<text text-anchor="start" x="719" y="-263.2" font-family="Helvetica,sans-Serif" font-size="11.00">[table]</text>
<polygon fill="none" stroke="black" points="452,-233 452,-255 653,-255 653,-233 452,-233"/>
<image xlink:href="../../images/primaryKeys.png" width="11px" height="12px" preserveAspectRatio="xMinYMin meet" x="457" y="-250"/>
<text text-anchor="start" x="472" y="-241.2" font-family="Helvetica,sans-Serif" font-size="11.00">id</text>
<polygon fill="none" stroke="black" points="653,-233 653,-255 758,-255 758,-233 653,-233"/>
<text text-anchor="start" x="656" y="-241.2" font-family="Helvetica,sans-Serif" font-size="11.00">serial[10]</text>
<polygon fill="#ffffff" stroke="none" points="452,-211 452,-233 653,-233 653,-211 452,-211"/>
<polygon fill="none" stroke="black" points="452,-211 452,-233 653,-233 653,-211 452,-211"/>
<image xlink:href="../../images/foreignKeys.png" width="11px" height="12px" preserveAspectRatio="xMinYMin meet" x="457" y="-228"/>
<text text-anchor="start" x="472" y="-219.2" font-family="Helvetica,sans-Serif" font-size="11.00">collectionversion_id</text>
<polygon fill="none" stroke="black" points="653,-211 653,-233 758,-233 758,-211 653,-211"/>
<text text-anchor="start" x="656" y="-219.2" font-family="Helvetica,sans-Serif" font-size="11.00">uuid[2147483647]</text>
<polygon fill="#ffffff" stroke="none" points="452,-189 452,-211 653,-211 653,-189 452,-189"/>
<polygon fill="none" stroke="black" points="452,-189 452,-211 653,-211 653,-189 452,-189"/>
<image xlink:href="../../images/foreignKeys.png" width="11px" height="12px" preserveAspectRatio="xMinYMin meet" x="457" y="-206"/>
<text text-anchor="start" x="472" y="-197.2" font-family="Helvetica,sans-Serif" font-size="11.00">tag_id</text>
<polygon fill="none" stroke="black" points="653,-189 653,-211 758,-211 758,-189 653,-189"/>
<text text-anchor="start" x="656" y="-197.2" font-family="Helvetica,sans-Serif" font-size="11.00">uuid[2147483647]</text>
<polygon fill="#ffffff" stroke="none" points="452,-171 452,-189 539,-189 539,-171 452,-171"/>
<polygon fill="none" stroke="black" points="452,-171 452,-189 539,-189 539,-171 452,-171"/>
<text text-anchor="start" x="455" y="-177.2" font-family="Helvetica,sans-Serif" font-size="11.00">&lt; 2</text>
<polygon fill="#ffffff" stroke="none" points="539,-171 539,-189 653,-189 653,-171 539,-171"/>
<polygon fill="none" stroke="black" points="539,-171 539,-189 653,-189 653,-171 539,-171"/>
<text text-anchor="start" x="607" y="-177.2" font-family="Helvetica,sans-Serif" font-size="11.00">10 rows</text>
<polygon fill="#ffffff" stroke="none" points="653,-171 653,-189 758,-189 758,-171 653,-171"/>
<polygon fill="none" stroke="black" points="653,-171 653,-189 758,-189 758,-171 653,-171"/>
<text text-anchor="start" x="738" y="-177.2" font-family="Helvetica,sans-Serif" font-size="11.00">0 &gt;</text>
<polygon fill="none" stroke="black" stroke-width="2" points="451,-170 451,-278 759,-278 759,-170 451,-170"/>
</a>
</g>
</g>
<!-- ansible_collectionversion_tags&#45;&gt;ansible_collectionversion -->
<g id="edge3" class="edge"><title>ansible_collectionversion_tags:collectionversion_id:w&#45;&gt;ansible_collectionversion:content_ptr_id:e</title>
<path fill="none" stroke="black" d="M436.938,-226.329C413.976,-244.914 443.795,-317 402.5,-317"/>
<polygon fill="black" stroke="black" points="443.354,-224.354 452.059,-225.441 447.177,-223.177 451,-222 451,-222 451,-222 447.177,-223.177 449.941,-218.559 443.354,-224.354 443.354,-224.354"/>
<ellipse fill="none" stroke="black" cx="440.296" cy="-225.295" rx="3.20001" ry="3.20001"/>
</g>
<!-- ansible_tag -->
<g id="node5" class="node"><title>ansible_tag</title>
<g id="a_node5"><a xlink:href="../../tables/ansible_tag.html" xlink:title="ansible_tag" target="_top">
<polygon fill="#ffffff" stroke="none" points="240,-37 240,-139 369,-139 369,-37 240,-37"/>
<polygon fill="#f5f5f5" stroke="none" points="240.5,-117 240.5,-139 369.5,-139 369.5,-117 240.5,-117"/>
<polygon fill="none" stroke="black" points="240.5,-117 240.5,-139 369.5,-139 369.5,-117 240.5,-117"/>
<text text-anchor="start" x="245.5" y="-126.2" font-family="Helvetica,sans-Serif" font-weight="bold" font-size="11.00">ansible_tag</text>
<text text-anchor="start" x="330.5" y="-125.2" font-family="Helvetica,sans-Serif" font-size="11.00">[table]</text>
<polygon fill="none" stroke="black" points="240.5,-95 240.5,-117 369.5,-117 369.5,-95 240.5,-95"/>
<image xlink:href="../../images/primaryKeys.png" width="11px" height="12px" preserveAspectRatio="xMinYMin meet" x="245.5" y="-112"/>
<text text-anchor="start" x="260.5" y="-103.2" font-family="Helvetica,sans-Serif" font-size="11.00">pulp_id</text>
<polygon fill="#ffffff" stroke="none" points="240.5,-73 240.5,-95 369.5,-95 369.5,-73 240.5,-73"/>
<polygon fill="none" stroke="black" points="240.5,-73 240.5,-95 369.5,-95 369.5,-73 240.5,-73"/>
<text text-anchor="start" x="260.5" y="-81.2" font-family="Helvetica,sans-Serif" font-size="11.00">name</text>
<polygon fill="none" stroke="black" points="240.5,-55 240.5,-73 369.5,-73 369.5,-55 240.5,-55"/>
<text text-anchor="start" x="243.5" y="-61.2" font-family="Helvetica,sans-Serif" font-size="11.00">...</text>
<polygon fill="#ffffff" stroke="none" points="240.5,-37 240.5,-55 278.5,-55 278.5,-37 240.5,-37"/>
<polygon fill="none" stroke="black" points="240.5,-37 240.5,-55 278.5,-55 278.5,-37 240.5,-37"/>
<text text-anchor="start" x="243.5" y="-43.2" font-family="Helvetica,sans-Serif" font-size="11.00"> &#160;</text>
<polygon fill="#ffffff" stroke="none" points="278.5,-37 278.5,-55 333.5,-55 333.5,-37 278.5,-37"/>
<polygon fill="none" stroke="black" points="278.5,-37 278.5,-55 333.5,-55 333.5,-37 278.5,-37"/>
<text text-anchor="start" x="294.5" y="-43.2" font-family="Helvetica,sans-Serif" font-size="11.00">5 rows</text>
<polygon fill="#ffffff" stroke="none" points="333.5,-37 333.5,-55 369.5,-55 369.5,-37 333.5,-37"/>
<polygon fill="none" stroke="black" points="333.5,-37 333.5,-55 369.5,-55 369.5,-37 333.5,-37"/>
<text text-anchor="start" x="349.5" y="-43.2" font-family="Helvetica,sans-Serif" font-size="11.00">1 &gt;</text>
</a>
</g>
</g>
<!-- ansible_collectionversion_tags&#45;&gt;ansible_tag -->
<g id="edge4" class="edge"><title>ansible_collectionversion_tags:tag_id:w&#45;&gt;ansible_tag:pulp_id:e</title>
<path fill="none" stroke="black" d="M436.679,-197.288C401.118,-181.876 419.918,-106 370.5,-106"/>
<polygon fill="black" stroke="black" points="443.14,-198.511 450.33,-203.537 447.07,-199.256 451,-200 451,-200 451,-200 447.07,-199.256 451.67,-196.463 443.14,-198.511 443.14,-198.511"/>
<ellipse fill="none" stroke="black" cx="439.996" cy="-197.916" rx="3.2" ry="3.2"/>
</g>
</g>
</svg>
