<?xml version="1.0" encoding="UTF-8" standalone="no"?>
<!DOCTYPE svg PUBLIC "-//W3C//DTD SVG 1.1//EN"
 "http://www.w3.org/Graphics/SVG/1.1/DTD/svg11.dtd">
<!-- Generated by graphviz version 2.38.0 (20140413.2041)
 -->
<!-- Title: oneDegreeRelationshipsDiagram Pages: 1 -->
<svg width="704pt" height="228pt"
 viewBox="0.00 0.00 704.00 228.00" xmlns="http://www.w3.org/2000/svg" xmlns:xlink="http://www.w3.org/1999/xlink">
<g id="graph0" class="graph" transform="scale(1 1) rotate(0) translate(4 224)">
<title>oneDegreeRelationshipsDiagram</title>
<polygon fill="#ffffff" stroke="none" points="-4,4 -4,-224 700,-224 700,4 -4,4"/>
<text text-anchor="middle" x="74.5" y="-7.2" font-family="Helvetica,sans-Serif" font-size="11.00">Generated by SchemaSpy</text>
<!-- ansible_ansiblerepository -->
<g id="node1" class="node"><title>ansible_ansiblerepository</title>
<g id="a_node1"><a xlink:href="../../tables/ansible_ansiblerepository.html" xlink:title="ansible_ansiblerepository" target="_top">
<polygon fill="#ffffff" stroke="none" points="194,-97 194,-163 477,-163 477,-97 194,-97"/>
<polygon fill="#f5f5f5" stroke="none" points="196.5,-139 196.5,-161 475.5,-161 475.5,-139 196.5,-139"/>
<polygon fill="none" stroke="black" points="196.5,-139 196.5,-161 475.5,-161 475.5,-139 196.5,-139"/>
<text text-anchor="start" x="201.5" y="-148.2" font-family="Helvetica,sans-Serif" font-weight="bold" font-size="11.00">ansible_ansiblerepository</text>
<text text-anchor="start" x="436.5" y="-147.2" font-family="Helvetica,sans-Serif" font-size="11.00">[table]</text>
<polygon fill="none" stroke="black" points="196.5,-117 196.5,-139 370.5,-139 370.5,-117 196.5,-117"/>
<image xlink:href="../../images/primaryKeys.png" width="11px" height="12px" preserveAspectRatio="xMinYMin meet" x="201.5" y="-134"/>
<text text-anchor="start" x="216.5" y="-125.2" font-family="Helvetica,sans-Serif" font-size="11.00">repository_ptr_id</text>
<polygon fill="none" stroke="black" points="370.5,-117 370.5,-139 475.5,-139 475.5,-117 370.5,-117"/>
<text text-anchor="start" x="373.5" y="-125.2" font-family="Helvetica,sans-Serif" font-size="11.00">uuid[2147483647]</text>
<polygon fill="#ffffff" stroke="none" points="196.5,-99 196.5,-117 270.5,-117 270.5,-99 196.5,-99"/>
<polygon fill="none" stroke="black" points="196.5,-99 196.5,-117 270.5,-117 270.5,-99 196.5,-99"/>
<text text-anchor="start" x="199.5" y="-105.2" font-family="Helvetica,sans-Serif" font-size="11.00">&lt; 1</text>
<polygon fill="#ffffff" stroke="none" points="270.5,-99 270.5,-117 370.5,-117 370.5,-99 270.5,-99"/>
<polygon fill="none" stroke="black" points="270.5,-99 270.5,-117 370.5,-117 370.5,-99 270.5,-99"/>
<text text-anchor="start" x="324.5" y="-105.2" font-family="Helvetica,sans-Serif" font-size="11.00">26 rows</text>
<polygon fill="#ffffff" stroke="none" points="370.5,-99 370.5,-117 475.5,-117 475.5,-99 370.5,-99"/>
<polygon fill="none" stroke="black" points="370.5,-99 370.5,-117 475.5,-117 475.5,-99 370.5,-99"/>
<text text-anchor="start" x="455.5" y="-105.2" font-family="Helvetica,sans-Serif" font-size="11.00">2 &gt;</text>
<polygon fill="none" stroke="black" stroke-width="2" points="195,-98 195,-162 476,-162 476,-98 195,-98"/>
</a>
</g>
</g>
<!-- core_repository -->
<g id="node2" class="node"><title>core_repository</title>
<g id="a_node2"><a xlink:href="../../tables/core_repository.html" xlink:title="core_repository" target="_top">
<polygon fill="#ffffff" stroke="none" points="8,-37 8,-161 145,-161 145,-37 8,-37"/>
<polygon fill="#f5f5f5" stroke="none" points="8.5,-139 8.5,-161 145.5,-161 145.5,-139 8.5,-139"/>
<polygon fill="none" stroke="black" points="8.5,-139 8.5,-161 145.5,-161 145.5,-139 8.5,-139"/>
<text text-anchor="start" x="13.5" y="-148.2" font-family="Helvetica,sans-Serif" font-weight="bold" font-size="11.00">core_repository</text>
<text text-anchor="start" x="106.5" y="-147.2" font-family="Helvetica,sans-Serif" font-size="11.00">[table]</text>
<polygon fill="none" stroke="black" points="8.5,-117 8.5,-139 145.5,-139 145.5,-117 8.5,-117"/>
<image xlink:href="../../images/primaryKeys.png" width="11px" height="12px" preserveAspectRatio="xMinYMin meet" x="13.5" y="-134"/>
<text text-anchor="start" x="32.5" y="-125.2" font-family="Helvetica,sans-Serif" font-size="11.00">pulp_id</text>
<polygon fill="#ffffff" stroke="none" points="8.5,-95 8.5,-117 145.5,-117 145.5,-95 8.5,-95"/>
<polygon fill="none" stroke="black" points="8.5,-95 8.5,-117 145.5,-117 145.5,-95 8.5,-95"/>
<text text-anchor="start" x="32.5" y="-103.2" font-family="Helvetica,sans-Serif" font-size="11.00">name</text>
<polygon fill="#ffffff" stroke="none" points="8.5,-73 8.5,-95 145.5,-95 145.5,-73 8.5,-73"/>
<polygon fill="none" stroke="black" points="8.5,-73 8.5,-95 145.5,-95 145.5,-73 8.5,-73"/>
<image xlink:href="../../images/foreignKeys.png" width="11px" height="12px" preserveAspectRatio="xMinYMin meet" x="13.5" y="-90"/>
<text text-anchor="start" x="32.5" y="-81.2" font-family="Helvetica,sans-Serif" font-size="11.00">remote_id</text>
<polygon fill="none" stroke="black" points="8.5,-55 8.5,-73 145.5,-73 145.5,-55 8.5,-55"/>
<text text-anchor="start" x="11.5" y="-61.2" font-family="Helvetica,sans-Serif" font-size="11.00">...</text>
<polygon fill="#ffffff" stroke="none" points="8.5,-37 8.5,-55 48.5,-55 48.5,-37 8.5,-37"/>
<polygon fill="none" stroke="black" points="8.5,-37 8.5,-55 48.5,-55 48.5,-37 8.5,-37"/>
<text text-anchor="start" x="11.5" y="-43.2" font-family="Helvetica,sans-Serif" font-size="11.00">&lt; 1</text>
<polygon fill="#ffffff" stroke="none" points="48.5,-37 48.5,-55 106.5,-55 106.5,-37 48.5,-37"/>
<polygon fill="none" stroke="black" points="48.5,-37 48.5,-55 106.5,-55 106.5,-37 48.5,-37"/>
<text text-anchor="start" x="60.5" y="-43.2" font-family="Helvetica,sans-Serif" font-size="11.00">26 rows</text>
<polygon fill="#ffffff" stroke="none" points="106.5,-37 106.5,-55 145.5,-55 145.5,-37 106.5,-37"/>
<polygon fill="none" stroke="black" points="106.5,-37 106.5,-55 145.5,-55 145.5,-37 106.5,-37"/>
<text text-anchor="start" x="118.5" y="-43.2" font-family="Helvetica,sans-Serif" font-size="11.00">10 &gt;</text>
</a>
</g>
</g>
<!-- ansible_ansiblerepository&#45;&gt;core_repository -->
<g id="edge1" class="edge"><title>ansible_ansiblerepository:repository_ptr_id:w&#45;&gt;core_repository:pulp_id:e</title>
<path fill="none" stroke="black" d="M184.757,-128C171.106,-128 164.194,-128 146.5,-128"/>
<polygon fill="black" stroke="black" points="194.7,-124 194.7,-132 193.1,-132 193.1,-124 194.7,-124"/>
<polyline fill="none" stroke="black" points="195.5,-128 191.5,-128 "/>
<ellipse fill="none" stroke="black" cx="188.3" cy="-128" rx="3.2" ry="3.2"/>
</g>
<!-- galaxy_synclist -->
<g id="node3" class="node"><title>galaxy_synclist</title>
<g id="a_node3"><a xlink:href="../../tables/galaxy_synclist.html" xlink:title="galaxy_synclist" target="_top">
<polygon fill="#ffffff" stroke="none" points="526,-70 526,-216 688,-216 688,-70 526,-70"/>
<polygon fill="#f5f5f5" stroke="none" points="526,-194 526,-216 688,-216 688,-194 526,-194"/>
<polygon fill="none" stroke="black" points="526,-194 526,-216 688,-216 688,-194 526,-194"/>
<text text-anchor="start" x="531" y="-203.2" font-family="Helvetica,sans-Serif" font-weight="bold" font-size="11.00">galaxy_synclist</text>
<text text-anchor="start" x="649" y="-202.2" font-family="Helvetica,sans-Serif" font-size="11.00">[table]</text>
<polygon fill="none" stroke="black" points="526,-172 526,-194 688,-194 688,-172 526,-172"/>
<image xlink:href="../../images/primaryKeys.png" width="11px" height="12px" preserveAspectRatio="xMinYMin meet" x="531" y="-189"/>
<text text-anchor="start" x="546" y="-180.2" font-family="Helvetica,sans-Serif" font-size="11.00">id</text>
<polygon fill="#ffffff" stroke="none" points="526,-150 526,-172 688,-172 688,-150 526,-150"/>
<polygon fill="none" stroke="black" points="526,-150 526,-172 688,-172 688,-150 526,-150"/>
<text text-anchor="start" x="546" y="-158.2" font-family="Helvetica,sans-Serif" font-size="11.00">name</text>
<polygon fill="#ffffff" stroke="none" points="526,-128 526,-150 688,-150 688,-128 526,-128"/>
<polygon fill="none" stroke="black" points="526,-128 526,-150 688,-150 688,-128 526,-128"/>
<image xlink:href="../../images/foreignKeys.png" width="11px" height="12px" preserveAspectRatio="xMinYMin meet" x="531" y="-145"/>
<text text-anchor="start" x="546" y="-136.2" font-family="Helvetica,sans-Serif" font-size="11.00">repository_id</text>
<polygon fill="#ffffff" stroke="none" points="526,-106 526,-128 688,-128 688,-106 526,-106"/>
<polygon fill="none" stroke="black" points="526,-106 526,-128 688,-128 688,-106 526,-106"/>
<image xlink:href="../../images/foreignKeys.png" width="11px" height="12px" preserveAspectRatio="xMinYMin meet" x="531" y="-123"/>
<text text-anchor="start" x="546" y="-114.2" font-family="Helvetica,sans-Serif" font-size="11.00">upstream_repository_id</text>
<polygon fill="none" stroke="black" points="526,-88 526,-106 688,-106 688,-88 526,-88"/>
<text text-anchor="start" x="529" y="-94.2" font-family="Helvetica,sans-Serif" font-size="11.00">...</text>
<polygon fill="#ffffff" stroke="none" points="526,-70 526,-88 586,-88 586,-70 526,-70"/>
<polygon fill="none" stroke="black" points="526,-70 526,-88 586,-88 586,-70 526,-70"/>
<text text-anchor="start" x="529" y="-76.2" font-family="Helvetica,sans-Serif" font-size="11.00">&lt; 2</text>
<polygon fill="#ffffff" stroke="none" points="586,-70 586,-88 646,-88 646,-70 586,-70"/>
<polygon fill="none" stroke="black" points="586,-70 586,-88 646,-88 646,-70 586,-70"/>
<text text-anchor="start" x="607" y="-76.2" font-family="Helvetica,sans-Serif" font-size="11.00">7 rows</text>
<polygon fill="#ffffff" stroke="none" points="646,-70 646,-88 688,-88 688,-70 646,-70"/>
<polygon fill="none" stroke="black" points="646,-70 646,-88 688,-88 688,-70 646,-70"/>
<text text-anchor="start" x="668" y="-76.2" font-family="Helvetica,sans-Serif" font-size="11.00">2 &gt;</text>
</a>
</g>
</g>
<!-- galaxy_synclist&#45;&gt;ansible_ansiblerepository -->
<g id="edge2" class="edge"><title>galaxy_synclist:repository_id:w&#45;&gt;ansible_ansiblerepository:repository_ptr_id.type:e</title>
<path fill="none" stroke="black" d="M510.489,-137.084C499.359,-133.932 492.732,-128 476.5,-128"/>
<polygon fill="black" stroke="black" points="517.069,-137.953 524.529,-142.569 521.034,-138.476 525,-139 525,-139 525,-139 521.034,-138.476 525.471,-135.431 517.069,-137.953 517.069,-137.953"/>
<ellipse fill="none" stroke="black" cx="513.896" cy="-137.534" rx="3.2" ry="3.2"/>
</g>
<!-- galaxy_synclist&#45;&gt;ansible_ansiblerepository -->
<g id="edge3" class="edge"><title>galaxy_synclist:upstream_repository_id:w&#45;&gt;ansible_ansiblerepository:repository_ptr_id.type:e</title>
<path fill="none" stroke="black" d="M510.489,-118.916C499.359,-122.068 492.732,-128 476.5,-128"/>
<polygon fill="black" stroke="black" points="517.069,-118.047 525.471,-120.569 521.034,-117.524 525,-117 525,-117 525,-117 521.034,-117.524 524.529,-113.431 517.069,-118.047 517.069,-118.047"/>
<ellipse fill="none" stroke="black" cx="513.896" cy="-118.466" rx="3.2" ry="3.2"/>
</g>
</g>
</svg>
