<?xml version="1.0" encoding="UTF-8" standalone="no"?>
<!DOCTYPE svg PUBLIC "-//W3C//DTD SVG 1.1//EN"
 "http://www.w3.org/Graphics/SVG/1.1/DTD/svg11.dtd">
<!-- Generated by graphviz version 2.38.0 (20140413.2041)
 -->
<!-- Title: twoDegreesRelationshipsDiagram Pages: 1 -->
<svg width="477pt" height="510pt"
 viewBox="0.00 0.00 477.00 510.00" xmlns="http://www.w3.org/2000/svg" xmlns:xlink="http://www.w3.org/1999/xlink">
<g id="graph0" class="graph" transform="scale(1 1) rotate(0) translate(4 506)">
<title>twoDegreesRelationshipsDiagram</title>
<polygon fill="#ffffff" stroke="none" points="-4,4 -4,-506 473,-506 473,4 -4,4"/>
<text text-anchor="middle" x="74.5" y="-7.2" font-family="Helvetica,sans-Serif" font-size="11.00">Generated by SchemaSpy</text>
<!-- ansible_collectionremote -->
<g id="node1" class="node"><title>ansible_collectionremote</title>
<g id="a_node1"><a xlink:href="../../tables/ansible_collectionremote.html" xlink:title="ansible_collectionremote" target="_top">
<polygon fill="#ffffff" stroke="none" points="242,-440 242,-498 435,-498 435,-440 242,-440"/>
<polygon fill="#f5f5f5" stroke="none" points="242.5,-476 242.5,-498 435.5,-498 435.5,-476 242.5,-476"/>
<polygon fill="none" stroke="black" points="242.5,-476 242.5,-498 435.5,-498 435.5,-476 242.5,-476"/>
<text text-anchor="start" x="247.5" y="-485.2" font-family="Helvetica,sans-Serif" font-weight="bold" font-size="11.00">ansible_collectionremote</text>
<text text-anchor="start" x="396.5" y="-484.2" font-family="Helvetica,sans-Serif" font-size="11.00">[table]</text>
<polygon fill="none" stroke="black" points="242.5,-458 242.5,-476 435.5,-476 435.5,-458 242.5,-458"/>
<text text-anchor="start" x="245.5" y="-464.2" font-family="Helvetica,sans-Serif" font-size="11.00">...</text>
<polygon fill="#ffffff" stroke="none" points="242.5,-440 242.5,-458 322.5,-458 322.5,-440 242.5,-440"/>
<polygon fill="none" stroke="black" points="242.5,-440 242.5,-458 322.5,-458 322.5,-440 242.5,-440"/>
<text text-anchor="start" x="245.5" y="-446.2" font-family="Helvetica,sans-Serif" font-size="11.00">&lt; 1</text>
<polygon fill="#ffffff" stroke="none" points="322.5,-440 322.5,-458 393.5,-458 393.5,-440 322.5,-440"/>
<polygon fill="none" stroke="black" points="322.5,-440 322.5,-458 393.5,-458 393.5,-440 322.5,-440"/>
<text text-anchor="start" x="354.5" y="-446.2" font-family="Helvetica,sans-Serif" font-size="11.00">7 rows</text>
<polygon fill="#ffffff" stroke="none" points="393.5,-440 393.5,-458 435.5,-458 435.5,-440 393.5,-440"/>
<polygon fill="none" stroke="black" points="393.5,-440 393.5,-458 435.5,-458 435.5,-440 393.5,-440"/>
<text text-anchor="start" x="425.5" y="-446.2" font-family="Helvetica,sans-Serif" font-size="11.00"> &#160;</text>
</a>
</g>
</g>
<!-- core_remote -->
<g id="node2" class="node"><title>core_remote</title>
<g id="a_node2"><a xlink:href="../../tables/core_remote.html" xlink:title="core_remote" target="_top">
<polygon fill="#ffffff" stroke="none" points="8,-192 8,-294 167,-294 167,-192 8,-192"/>
<polygon fill="#f5f5f5" stroke="none" points="8.5,-272 8.5,-294 167.5,-294 167.5,-272 8.5,-272"/>
<polygon fill="none" stroke="black" points="8.5,-272 8.5,-294 167.5,-294 167.5,-272 8.5,-272"/>
<text text-anchor="start" x="13.5" y="-281.2" font-family="Helvetica,sans-Serif" font-weight="bold" font-size="11.00">core_remote</text>
<text text-anchor="start" x="128.5" y="-280.2" font-family="Helvetica,sans-Serif" font-size="11.00">[table]</text>
<polygon fill="none" stroke="black" points="8.5,-250 8.5,-272 167.5,-272 167.5,-250 8.5,-250"/>
<image xlink:href="../../images/primaryKeys.png" width="11px" height="12px" preserveAspectRatio="xMinYMin meet" x="13.5" y="-267"/>
<text text-anchor="start" x="28.5" y="-258.2" font-family="Helvetica,sans-Serif" font-size="11.00">pulp_id</text>
<polygon fill="#ffffff" stroke="none" points="8.5,-228 8.5,-250 167.5,-250 167.5,-228 8.5,-228"/>
<polygon fill="none" stroke="black" points="8.5,-228 8.5,-250 167.5,-250 167.5,-228 8.5,-228"/>
<text text-anchor="start" x="28.5" y="-236.2" font-family="Helvetica,sans-Serif" font-size="11.00">name</text>
<polygon fill="none" stroke="black" points="8.5,-210 8.5,-228 167.5,-228 167.5,-210 8.5,-210"/>
<text text-anchor="start" x="11.5" y="-216.2" font-family="Helvetica,sans-Serif" font-size="11.00">...</text>
<polygon fill="#ffffff" stroke="none" points="8.5,-192 8.5,-210 61.5,-210 61.5,-192 8.5,-192"/>
<polygon fill="none" stroke="black" points="8.5,-192 8.5,-210 61.5,-210 61.5,-192 8.5,-192"/>
<text text-anchor="start" x="11.5" y="-198.2" font-family="Helvetica,sans-Serif" font-size="11.00"> &#160;</text>
<polygon fill="#ffffff" stroke="none" points="61.5,-192 61.5,-210 123.5,-210 123.5,-192 61.5,-192"/>
<polygon fill="none" stroke="black" points="61.5,-192 61.5,-210 123.5,-210 123.5,-192 61.5,-192"/>
<text text-anchor="start" x="84.5" y="-198.2" font-family="Helvetica,sans-Serif" font-size="11.00">7 rows</text>
<polygon fill="#ffffff" stroke="none" points="123.5,-192 123.5,-210 167.5,-210 167.5,-192 123.5,-192"/>
<polygon fill="none" stroke="black" points="123.5,-192 123.5,-210 167.5,-210 167.5,-192 123.5,-192"/>
<text text-anchor="start" x="147.5" y="-198.2" font-family="Helvetica,sans-Serif" font-size="11.00">6 &gt;</text>
</a>
</g>
</g>
<!-- ansible_collectionremote&#45;&gt;core_remote -->
<g id="edge1" class="edge"><title>ansible_collectionremote:elipses:w&#45;&gt;core_remote:pulp_id:e</title>
<path fill="none" stroke="black" d="M231.053,-465.269C218.608,-460.413 216.366,-445.965 208,-430 172.196,-361.678 245.635,-261 168.5,-261"/>
<polygon fill="black" stroke="black" points="241.365,-462.923 240.057,-470.815 238.478,-470.554 239.786,-462.661 241.365,-462.923"/>
<polyline fill="none" stroke="black" points="241.5,-467 237.554,-466.346 "/>
<ellipse fill="none" stroke="black" cx="234.397" cy="-465.823" rx="3.2" ry="3.2"/>
</g>
<!-- ansible_roleremote -->
<g id="node3" class="node"><title>ansible_roleremote</title>
<g id="a_node3"><a xlink:href="../../tables/ansible_roleremote.html" xlink:title="ansible_roleremote" target="_top">
<polygon fill="#ffffff" stroke="none" points="216,-353 216,-419 461,-419 461,-353 216,-353"/>
<polygon fill="#f5f5f5" stroke="none" points="218.5,-395 218.5,-417 459.5,-417 459.5,-395 218.5,-395"/>
<polygon fill="none" stroke="black" points="218.5,-395 218.5,-417 459.5,-417 459.5,-395 218.5,-395"/>
<text text-anchor="start" x="223.5" y="-404.2" font-family="Helvetica,sans-Serif" font-weight="bold" font-size="11.00">ansible_roleremote</text>
<text text-anchor="start" x="420.5" y="-403.2" font-family="Helvetica,sans-Serif" font-size="11.00">[table]</text>
<polygon fill="none" stroke="black" points="218.5,-373 218.5,-395 354.5,-395 354.5,-373 218.5,-373"/>
<image xlink:href="../../images/primaryKeys.png" width="11px" height="12px" preserveAspectRatio="xMinYMin meet" x="223.5" y="-390"/>
<text text-anchor="start" x="238.5" y="-381.2" font-family="Helvetica,sans-Serif" font-size="11.00">remote_ptr_id</text>
<polygon fill="none" stroke="black" points="354.5,-373 354.5,-395 459.5,-395 459.5,-373 354.5,-373"/>
<text text-anchor="start" x="357.5" y="-381.2" font-family="Helvetica,sans-Serif" font-size="11.00">uuid[2147483647]</text>
<polygon fill="#ffffff" stroke="none" points="218.5,-355 218.5,-373 276.5,-373 276.5,-355 218.5,-355"/>
<polygon fill="none" stroke="black" points="218.5,-355 218.5,-373 276.5,-373 276.5,-355 218.5,-355"/>
<text text-anchor="start" x="221.5" y="-361.2" font-family="Helvetica,sans-Serif" font-size="11.00">&lt; 1</text>
<polygon fill="#ffffff" stroke="none" points="276.5,-355 276.5,-373 354.5,-373 354.5,-355 276.5,-355"/>
<polygon fill="none" stroke="black" points="276.5,-355 276.5,-373 354.5,-373 354.5,-355 276.5,-355"/>
<text text-anchor="start" x="315.5" y="-361.2" font-family="Helvetica,sans-Serif" font-size="11.00">0 rows</text>
<polygon fill="#ffffff" stroke="none" points="354.5,-355 354.5,-373 459.5,-373 459.5,-355 354.5,-355"/>
<polygon fill="none" stroke="black" points="354.5,-355 354.5,-373 459.5,-373 459.5,-355 354.5,-355"/>
<text text-anchor="start" x="439.5" y="-361.2" font-family="Helvetica,sans-Serif" font-size="11.00">0 &gt;</text>
<polygon fill="none" stroke="black" stroke-width="2" points="217,-354 217,-418 460,-418 460,-354 217,-354"/>
</a>
</g>
</g>
<!-- ansible_roleremote&#45;&gt;core_remote -->
<g id="edge2" class="edge"><title>ansible_roleremote:remote_ptr_id:w&#45;&gt;core_remote:pulp_id:e</title>
<path fill="none" stroke="black" d="M206.89,-382.261C167.684,-367.311 223.207,-261 168.5,-261"/>
<polygon fill="black" stroke="black" points="217.357,-379.923 216.064,-387.818 214.485,-387.559 215.779,-379.664 217.357,-379.923"/>
<polyline fill="none" stroke="black" points="217.5,-384 213.553,-383.353 "/>
<ellipse fill="none" stroke="black" cx="210.395" cy="-382.836" rx="3.2" ry="3.2"/>
</g>
<!-- container_containerremote -->
<g id="node4" class="node"><title>container_containerremote</title>
<g id="a_node4"><a xlink:href="../../tables/container_containerremote.html" xlink:title="container_containerremote" target="_top">
<polygon fill="#ffffff" stroke="none" points="235.5,-274 235.5,-332 441.5,-332 441.5,-274 235.5,-274"/>
<polygon fill="#f5f5f5" stroke="none" points="235.5,-310 235.5,-332 441.5,-332 441.5,-310 235.5,-310"/>
<polygon fill="none" stroke="black" points="235.5,-310 235.5,-332 441.5,-332 441.5,-310 235.5,-310"/>
<text text-anchor="start" x="240.5" y="-319.2" font-family="Helvetica,sans-Serif" font-weight="bold" font-size="11.00">container_containerremote</text>
<text text-anchor="start" x="402.5" y="-318.2" font-family="Helvetica,sans-Serif" font-size="11.00">[table]</text>
<polygon fill="none" stroke="black" points="235.5,-292 235.5,-310 441.5,-310 441.5,-292 235.5,-292"/>
<text text-anchor="start" x="238.5" y="-298.2" font-family="Helvetica,sans-Serif" font-size="11.00">...</text>
<polygon fill="#ffffff" stroke="none" points="235.5,-274 235.5,-292 322.5,-292 322.5,-274 235.5,-274"/>
<polygon fill="none" stroke="black" points="235.5,-274 235.5,-292 322.5,-292 322.5,-274 235.5,-274"/>
<text text-anchor="start" x="238.5" y="-280.2" font-family="Helvetica,sans-Serif" font-size="11.00">&lt; 1</text>
<polygon fill="#ffffff" stroke="none" points="322.5,-274 322.5,-292 396.5,-292 396.5,-274 322.5,-274"/>
<polygon fill="none" stroke="black" points="322.5,-274 322.5,-292 396.5,-292 396.5,-274 322.5,-274"/>
<text text-anchor="start" x="357.5" y="-280.2" font-family="Helvetica,sans-Serif" font-size="11.00">0 rows</text>
<polygon fill="#ffffff" stroke="none" points="396.5,-274 396.5,-292 441.5,-292 441.5,-274 396.5,-274"/>
<polygon fill="none" stroke="black" points="396.5,-274 396.5,-292 441.5,-292 441.5,-274 396.5,-274"/>
<text text-anchor="start" x="431.5" y="-280.2" font-family="Helvetica,sans-Serif" font-size="11.00"> &#160;</text>
</a>
</g>
</g>
<!-- container_containerremote&#45;&gt;core_remote -->
<g id="edge3" class="edge"><title>container_containerremote:elipses:w&#45;&gt;core_remote:pulp_id:e</title>
<path fill="none" stroke="black" d="M224.157,-299.576C200.316,-292.451 198.915,-261 168.5,-261"/>
<polygon fill="black" stroke="black" points="234.253,-296.928 233.162,-304.854 231.577,-304.635 232.668,-296.71 234.253,-296.928"/>
<polyline fill="none" stroke="black" points="234.5,-301 230.537,-300.455 "/>
<ellipse fill="none" stroke="black" cx="227.367" cy="-300.018" rx="3.2" ry="3.2"/>
</g>
<!-- core_basedistribution -->
<g id="node5" class="node"><title>core_basedistribution</title>
<g id="a_node5"><a xlink:href="../../tables/core_basedistribution.html" xlink:title="core_basedistribution" target="_top">
<polygon fill="#ffffff" stroke="none" points="252,-195 252,-253 425,-253 425,-195 252,-195"/>
<polygon fill="#f5f5f5" stroke="none" points="252.5,-231 252.5,-253 425.5,-253 425.5,-231 252.5,-231"/>
<polygon fill="none" stroke="black" points="252.5,-231 252.5,-253 425.5,-253 425.5,-231 252.5,-231"/>
<text text-anchor="start" x="257.5" y="-240.2" font-family="Helvetica,sans-Serif" font-weight="bold" font-size="11.00">core_basedistribution</text>
<text text-anchor="start" x="386.5" y="-239.2" font-family="Helvetica,sans-Serif" font-size="11.00">[table]</text>
<polygon fill="none" stroke="black" points="252.5,-213 252.5,-231 425.5,-231 425.5,-213 252.5,-213"/>
<text text-anchor="start" x="255.5" y="-219.2" font-family="Helvetica,sans-Serif" font-size="11.00">...</text>
<polygon fill="#ffffff" stroke="none" points="252.5,-195 252.5,-213 314.5,-213 314.5,-195 252.5,-195"/>
<polygon fill="none" stroke="black" points="252.5,-195 252.5,-213 314.5,-213 314.5,-195 252.5,-195"/>
<text text-anchor="start" x="255.5" y="-201.2" font-family="Helvetica,sans-Serif" font-size="11.00">&lt; 2</text>
<polygon fill="#ffffff" stroke="none" points="314.5,-195 314.5,-213 382.5,-213 382.5,-195 314.5,-195"/>
<polygon fill="none" stroke="black" points="314.5,-195 314.5,-213 382.5,-213 382.5,-195 314.5,-195"/>
<text text-anchor="start" x="336.5" y="-201.2" font-family="Helvetica,sans-Serif" font-size="11.00">32 rows</text>
<polygon fill="#ffffff" stroke="none" points="382.5,-195 382.5,-213 425.5,-213 425.5,-195 382.5,-195"/>
<polygon fill="none" stroke="black" points="382.5,-195 382.5,-213 425.5,-213 425.5,-195 382.5,-195"/>
<text text-anchor="start" x="405.5" y="-201.2" font-family="Helvetica,sans-Serif" font-size="11.00">2 &gt;</text>
</a>
</g>
</g>
<!-- core_basedistribution&#45;&gt;core_remote -->
<g id="edge4" class="edge"><title>core_basedistribution:elipses:w&#45;&gt;core_remote:pulp_id:e</title>
<path fill="none" stroke="black" d="M237.155,-223.881C209.655,-231.671 203.845,-261 168.5,-261"/>
<polygon fill="black" stroke="black" points="243.568,-223.04 251.968,-225.569 247.534,-222.52 251.5,-222 251.5,-222 251.5,-222 247.534,-222.52 251.032,-218.431 243.568,-223.04 243.568,-223.04"/>
<ellipse fill="none" stroke="black" cx="240.395" cy="-223.456" rx="3.2" ry="3.2"/>
</g>
<!-- core_remoteartifact -->
<g id="node6" class="node"><title>core_remoteartifact</title>
<g id="a_node6"><a xlink:href="../../tables/core_remoteartifact.html" xlink:title="core_remoteartifact" target="_top">
<polygon fill="#ffffff" stroke="none" points="257,-116 257,-174 420,-174 420,-116 257,-116"/>
<polygon fill="#f5f5f5" stroke="none" points="257.5,-152 257.5,-174 420.5,-174 420.5,-152 257.5,-152"/>
<polygon fill="none" stroke="black" points="257.5,-152 257.5,-174 420.5,-174 420.5,-152 257.5,-152"/>
<text text-anchor="start" x="262.5" y="-161.2" font-family="Helvetica,sans-Serif" font-weight="bold" font-size="11.00">core_remoteartifact</text>
<text text-anchor="start" x="381.5" y="-160.2" font-family="Helvetica,sans-Serif" font-size="11.00">[table]</text>
<polygon fill="none" stroke="black" points="257.5,-134 257.5,-152 420.5,-152 420.5,-134 257.5,-134"/>
<text text-anchor="start" x="260.5" y="-140.2" font-family="Helvetica,sans-Serif" font-size="11.00">...</text>
<polygon fill="#ffffff" stroke="none" points="257.5,-116 257.5,-134 319.5,-134 319.5,-116 257.5,-116"/>
<polygon fill="none" stroke="black" points="257.5,-116 257.5,-134 319.5,-134 319.5,-116 257.5,-116"/>
<text text-anchor="start" x="260.5" y="-122.2" font-family="Helvetica,sans-Serif" font-size="11.00">&lt; 2</text>
<polygon fill="#ffffff" stroke="none" points="319.5,-116 319.5,-134 387.5,-134 387.5,-116 319.5,-116"/>
<polygon fill="none" stroke="black" points="319.5,-116 319.5,-134 387.5,-134 387.5,-116 319.5,-116"/>
<text text-anchor="start" x="341.5" y="-122.2" font-family="Helvetica,sans-Serif" font-size="11.00">16 rows</text>
<polygon fill="#ffffff" stroke="none" points="387.5,-116 387.5,-134 420.5,-134 420.5,-116 387.5,-116"/>
<polygon fill="none" stroke="black" points="387.5,-116 387.5,-134 420.5,-134 420.5,-116 387.5,-116"/>
<text text-anchor="start" x="410.5" y="-122.2" font-family="Helvetica,sans-Serif" font-size="11.00"> &#160;</text>
</a>
</g>
</g>
<!-- core_remoteartifact&#45;&gt;core_remote -->
<g id="edge5" class="edge"><title>core_remoteartifact:elipses:w&#45;&gt;core_remote:pulp_id:e</title>
<path fill="none" stroke="black" d="M242.018,-145.287C226.41,-151.084 222.078,-167.164 208,-185 184.414,-214.881 206.568,-261 168.5,-261"/>
<polygon fill="black" stroke="black" points="248.598,-144.248 257.062,-146.556 252.549,-143.624 256.5,-143 256.5,-143 256.5,-143 252.549,-143.624 255.938,-139.444 248.598,-144.248 248.598,-144.248"/>
<ellipse fill="none" stroke="black" cx="245.437" cy="-144.747" rx="3.2" ry="3.2"/>
</g>
<!-- core_repository -->
<g id="node7" class="node"><title>core_repository</title>
<g id="a_node7"><a xlink:href="../../tables/core_repository.html" xlink:title="core_repository" target="_top">
<polygon fill="#ffffff" stroke="none" points="270,-37 270,-95 407,-95 407,-37 270,-37"/>
<polygon fill="#f5f5f5" stroke="none" points="270.5,-73 270.5,-95 407.5,-95 407.5,-73 270.5,-73"/>
<polygon fill="none" stroke="black" points="270.5,-73 270.5,-95 407.5,-95 407.5,-73 270.5,-73"/>
<text text-anchor="start" x="275.5" y="-82.2" font-family="Helvetica,sans-Serif" font-weight="bold" font-size="11.00">core_repository</text>
<text text-anchor="start" x="368.5" y="-81.2" font-family="Helvetica,sans-Serif" font-size="11.00">[table]</text>
<polygon fill="none" stroke="black" points="270.5,-55 270.5,-73 407.5,-73 407.5,-55 270.5,-55"/>
<text text-anchor="start" x="273.5" y="-61.2" font-family="Helvetica,sans-Serif" font-size="11.00">...</text>
<polygon fill="#ffffff" stroke="none" points="270.5,-37 270.5,-55 310.5,-55 310.5,-37 270.5,-37"/>
<polygon fill="none" stroke="black" points="270.5,-37 270.5,-55 310.5,-55 310.5,-37 270.5,-37"/>
<text text-anchor="start" x="273.5" y="-43.2" font-family="Helvetica,sans-Serif" font-size="11.00">&lt; 1</text>
<polygon fill="#ffffff" stroke="none" points="310.5,-37 310.5,-55 368.5,-55 368.5,-37 310.5,-37"/>
<polygon fill="none" stroke="black" points="310.5,-37 310.5,-55 368.5,-55 368.5,-37 310.5,-37"/>
<text text-anchor="start" x="322.5" y="-43.2" font-family="Helvetica,sans-Serif" font-size="11.00">26 rows</text>
<polygon fill="#ffffff" stroke="none" points="368.5,-37 368.5,-55 407.5,-55 407.5,-37 368.5,-37"/>
<polygon fill="none" stroke="black" points="368.5,-37 368.5,-55 407.5,-55 407.5,-37 368.5,-37"/>
<text text-anchor="start" x="380.5" y="-43.2" font-family="Helvetica,sans-Serif" font-size="11.00">10 &gt;</text>
</a>
</g>
</g>
<!-- core_repository&#45;&gt;core_remote -->
<g id="edge6" class="edge"><title>core_repository:elipses:w&#45;&gt;core_remote:pulp_id:e</title>
<path fill="none" stroke="black" d="M254.974,-65.19C233.051,-69.2123 223.864,-83.3304 208,-106 167.241,-164.246 239.591,-261 168.5,-261"/>
<polygon fill="black" stroke="black" points="261.527,-64.6532 269.794,-67.588 265.513,-64.3266 269.5,-64 269.5,-64 269.5,-64 265.513,-64.3266 269.206,-60.412 261.527,-64.6532 261.527,-64.6532"/>
<ellipse fill="none" stroke="black" cx="258.337" cy="-64.9145" rx="3.2" ry="3.2"/>
</g>
</g>
</svg>
