<?xml version="1.0" encoding="UTF-8" standalone="no"?>
<!DOCTYPE svg PUBLIC "-//W3C//DTD SVG 1.1//EN"
 "http://www.w3.org/Graphics/SVG/1.1/DTD/svg11.dtd">
<!-- Generated by graphviz version 2.38.0 (20140413.2041)
 -->
<!-- Title: twoDegreesRelationshipsDiagram Pages: 1 -->
<svg width="779pt" height="428pt"
 viewBox="0.00 0.00 779.00 428.00" xmlns="http://www.w3.org/2000/svg" xmlns:xlink="http://www.w3.org/1999/xlink">
<g id="graph0" class="graph" transform="scale(1 1) rotate(0) translate(4 424)">
<title>twoDegreesRelationshipsDiagram</title>
<polygon fill="#ffffff" stroke="none" points="-4,4 -4,-424 775,-424 775,4 -4,4"/>
<text text-anchor="middle" x="74.5" y="-7.2" font-family="Helvetica,sans-Serif" font-size="11.00">Generated by SchemaSpy</text>
<!-- ansible_collectionversion -->
<g id="node1" class="node"><title>ansible_collectionversion</title>
<g id="a_node1"><a xlink:href="../../tables/ansible_collectionversion.html" xlink:title="ansible_collectionversion" target="_top">
<polygon fill="#ffffff" stroke="none" points="298,-37 298,-227 491,-227 491,-37 298,-37"/>
<polygon fill="#f5f5f5" stroke="none" points="298.5,-205 298.5,-227 491.5,-227 491.5,-205 298.5,-205"/>
<polygon fill="none" stroke="black" points="298.5,-205 298.5,-227 491.5,-227 491.5,-205 298.5,-205"/>
<text text-anchor="start" x="303.5" y="-214.2" font-family="Helvetica,sans-Serif" font-weight="bold" font-size="11.00">ansible_collectionversion</text>
<text text-anchor="start" x="452.5" y="-213.2" font-family="Helvetica,sans-Serif" font-size="11.00">[table]</text>
<polygon fill="none" stroke="black" points="298.5,-183 298.5,-205 491.5,-205 491.5,-183 298.5,-183"/>
<image xlink:href="../../images/primaryKeys.png" width="11px" height="12px" preserveAspectRatio="xMinYMin meet" x="303.5" y="-200"/>
<text text-anchor="start" x="329.5" y="-191.2" font-family="Helvetica,sans-Serif" font-size="11.00">content_ptr_id</text>
<polygon fill="#ffffff" stroke="none" points="298.5,-161 298.5,-183 491.5,-183 491.5,-161 298.5,-161"/>
<polygon fill="none" stroke="black" points="298.5,-161 298.5,-183 491.5,-183 491.5,-161 298.5,-161"/>
<text text-anchor="start" x="329.5" y="-169.2" font-family="Helvetica,sans-Serif" font-size="11.00">version</text>
<polygon fill="#ffffff" stroke="none" points="298.5,-139 298.5,-161 491.5,-161 491.5,-139 298.5,-139"/>
<polygon fill="none" stroke="black" points="298.5,-139 298.5,-161 491.5,-161 491.5,-139 298.5,-139"/>
<image xlink:href="../../images/foreignKeys.png" width="11px" height="12px" preserveAspectRatio="xMinYMin meet" x="303.5" y="-156"/>
<text text-anchor="start" x="329.5" y="-147.2" font-family="Helvetica,sans-Serif" font-size="11.00">collection_id</text>
<polygon fill="#ffffff" stroke="none" points="298.5,-117 298.5,-139 491.5,-139 491.5,-117 298.5,-117"/>
<polygon fill="none" stroke="black" points="298.5,-117 298.5,-139 491.5,-139 491.5,-117 298.5,-117"/>
<text text-anchor="start" x="329.5" y="-125.2" font-family="Helvetica,sans-Serif" font-size="11.00">name</text>
<polygon fill="#ffffff" stroke="none" points="298.5,-95 298.5,-117 491.5,-117 491.5,-95 298.5,-95"/>
<polygon fill="none" stroke="black" points="298.5,-95 298.5,-117 491.5,-117 491.5,-95 298.5,-95"/>
<text text-anchor="start" x="329.5" y="-103.2" font-family="Helvetica,sans-Serif" font-size="11.00">namespace</text>
<polygon fill="#ffffff" stroke="none" points="298.5,-73 298.5,-95 491.5,-95 491.5,-73 298.5,-73"/>
<polygon fill="none" stroke="black" points="298.5,-73 298.5,-95 491.5,-95 491.5,-73 298.5,-73"/>
<text text-anchor="start" x="329.5" y="-81.2" font-family="Helvetica,sans-Serif" font-size="11.00">is_highest</text>
<polygon fill="none" stroke="black" points="298.5,-55 298.5,-73 491.5,-73 491.5,-55 298.5,-55"/>
<text text-anchor="start" x="301.5" y="-61.2" font-family="Helvetica,sans-Serif" font-size="11.00">...</text>
<polygon fill="#ffffff" stroke="none" points="298.5,-37 298.5,-55 370.5,-55 370.5,-37 298.5,-37"/>
<polygon fill="none" stroke="black" points="298.5,-37 298.5,-55 370.5,-55 370.5,-37 298.5,-37"/>
<text text-anchor="start" x="301.5" y="-43.2" font-family="Helvetica,sans-Serif" font-size="11.00">&lt; 2</text>
<polygon fill="#ffffff" stroke="none" points="370.5,-37 370.5,-55 443.5,-55 443.5,-37 370.5,-37"/>
<polygon fill="none" stroke="black" points="370.5,-37 370.5,-55 443.5,-55 443.5,-37 370.5,-37"/>
<text text-anchor="start" x="397.5" y="-43.2" font-family="Helvetica,sans-Serif" font-size="11.00">88 rows</text>
<polygon fill="#ffffff" stroke="none" points="443.5,-37 443.5,-55 491.5,-55 491.5,-37 443.5,-37"/>
<polygon fill="none" stroke="black" points="443.5,-37 443.5,-55 491.5,-55 491.5,-37 443.5,-37"/>
<text text-anchor="start" x="471.5" y="-43.2" font-family="Helvetica,sans-Serif" font-size="11.00">1 &gt;</text>
</a>
</g>
</g>
<!-- ansible_collection -->
<g id="node2" class="node"><title>ansible_collection</title>
<g id="a_node2"><a xlink:href="../../tables/ansible_collection.html" xlink:title="ansible_collection" target="_top">
<polygon fill="#ffffff" stroke="none" points="8,-161 8,-337 246,-337 246,-161 8,-161"/>
<polygon fill="#f5f5f5" stroke="none" points="10,-313 10,-335 244,-335 244,-313 10,-313"/>
<polygon fill="none" stroke="black" points="10,-313 10,-335 244,-335 244,-313 10,-313"/>
<text text-anchor="start" x="15" y="-322.2" font-family="Helvetica,sans-Serif" font-weight="bold" font-size="11.00">ansible_collection</text>
<text text-anchor="start" x="205" y="-321.2" font-family="Helvetica,sans-Serif" font-size="11.00">[table]</text>
<polygon fill="none" stroke="black" points="10,-291 10,-313 139,-313 139,-291 10,-291"/>
<image xlink:href="../../images/primaryKeys.png" width="11px" height="12px" preserveAspectRatio="xMinYMin meet" x="15" y="-308"/>
<text text-anchor="start" x="30" y="-299.2" font-family="Helvetica,sans-Serif" font-size="11.00">pulp_id</text>
<polygon fill="none" stroke="black" points="139,-291 139,-313 244,-313 244,-291 139,-291"/>
<text text-anchor="start" x="142" y="-299.2" font-family="Helvetica,sans-Serif" font-size="11.00">uuid[2147483647]</text>
<polygon fill="none" stroke="black" points="10,-269 10,-291 139,-291 139,-269 10,-269"/>
<text text-anchor="start" x="30" y="-277.2" font-family="Helvetica,sans-Serif" font-size="11.00">pulp_created</text>
<polygon fill="none" stroke="black" points="139,-269 139,-291 244,-291 244,-269 139,-269"/>
<text text-anchor="start" x="142" y="-277.2" font-family="Helvetica,sans-Serif" font-size="11.00">timestamptz[35,6]</text>
<polygon fill="none" stroke="black" points="10,-247 10,-269 139,-269 139,-247 10,-247"/>
<text text-anchor="start" x="30" y="-255.2" font-family="Helvetica,sans-Serif" font-size="11.00">pulp_last_updated</text>
<polygon fill="none" stroke="black" points="139,-247 139,-269 244,-269 244,-247 139,-247"/>
<text text-anchor="start" x="142" y="-255.2" font-family="Helvetica,sans-Serif" font-size="11.00">timestamptz[35,6]</text>
<polygon fill="#ffffff" stroke="none" points="10,-225 10,-247 139,-247 139,-225 10,-225"/>
<polygon fill="none" stroke="black" points="10,-225 10,-247 139,-247 139,-225 10,-225"/>
<text text-anchor="start" x="30" y="-233.2" font-family="Helvetica,sans-Serif" font-size="11.00">namespace</text>
<polygon fill="none" stroke="black" points="139,-225 139,-247 244,-247 244,-225 139,-225"/>
<text text-anchor="start" x="142" y="-233.2" font-family="Helvetica,sans-Serif" font-size="11.00">varchar[64]</text>
<polygon fill="#ffffff" stroke="none" points="10,-203 10,-225 139,-225 139,-203 10,-203"/>
<polygon fill="none" stroke="black" points="10,-203 10,-225 139,-225 139,-203 10,-203"/>
<text text-anchor="start" x="30" y="-211.2" font-family="Helvetica,sans-Serif" font-size="11.00">name</text>
<polygon fill="none" stroke="black" points="139,-203 139,-225 244,-225 244,-203 139,-203"/>
<text text-anchor="start" x="142" y="-211.2" font-family="Helvetica,sans-Serif" font-size="11.00">varchar[64]</text>
<polygon fill="none" stroke="black" points="10,-181 10,-203 139,-203 139,-181 10,-181"/>
<text text-anchor="start" x="30" y="-189.2" font-family="Helvetica,sans-Serif" font-size="11.00">deprecated</text>
<polygon fill="none" stroke="black" points="139,-181 139,-203 244,-203 244,-181 139,-181"/>
<text text-anchor="start" x="142" y="-189.2" font-family="Helvetica,sans-Serif" font-size="11.00">bool[1]</text>
<polygon fill="#ffffff" stroke="none" points="10,-163 10,-181 65,-181 65,-163 10,-163"/>
<polygon fill="none" stroke="black" points="10,-163 10,-181 65,-181 65,-163 10,-163"/>
<text text-anchor="start" x="13" y="-169.2" font-family="Helvetica,sans-Serif" font-size="11.00">&lt; 0</text>
<polygon fill="#ffffff" stroke="none" points="65,-163 65,-181 139,-181 139,-163 65,-163"/>
<polygon fill="none" stroke="black" points="65,-163 65,-181 139,-181 139,-163 65,-163"/>
<text text-anchor="start" x="100" y="-169.2" font-family="Helvetica,sans-Serif" font-size="11.00">4 rows</text>
<polygon fill="#ffffff" stroke="none" points="139,-163 139,-181 244,-181 244,-163 139,-163"/>
<polygon fill="none" stroke="black" points="139,-163 139,-181 244,-181 244,-163 139,-163"/>
<text text-anchor="start" x="224" y="-169.2" font-family="Helvetica,sans-Serif" font-size="11.00">2 &gt;</text>
<polygon fill="none" stroke="black" stroke-width="2" points="9,-162 9,-336 245,-336 245,-162 9,-162"/>
</a>
</g>
</g>
<!-- ansible_collectionversion&#45;&gt;ansible_collection -->
<g id="edge1" class="edge"><title>ansible_collectionversion:collection_id:w&#45;&gt;ansible_collection:pulp_id.type:e</title>
<path fill="none" stroke="black" d="M283.279,-152.768C239.475,-173.369 310.748,-302 245,-302"/>
<polygon fill="black" stroke="black" points="289.647,-151.528 298.188,-153.534 293.574,-150.764 297.5,-150 297.5,-150 297.5,-150 293.574,-150.764 296.812,-146.466 289.647,-151.528 289.647,-151.528"/>
<ellipse fill="none" stroke="black" cx="286.506" cy="-152.14" rx="3.2" ry="3.2"/>
</g>
<!-- core_content -->
<g id="node3" class="node"><title>core_content</title>
<g id="a_node3"><a xlink:href="../../tables/core_content.html" xlink:title="core_content" target="_top">
<polygon fill="#ffffff" stroke="none" points="65.5,-82 65.5,-140 188.5,-140 188.5,-82 65.5,-82"/>
<polygon fill="#f5f5f5" stroke="none" points="66,-118 66,-140 189,-140 189,-118 66,-118"/>
<polygon fill="none" stroke="black" points="66,-118 66,-140 189,-140 189,-118 66,-118"/>
<text text-anchor="start" x="71" y="-127.2" font-family="Helvetica,sans-Serif" font-weight="bold" font-size="11.00">core_content</text>
<text text-anchor="start" x="150" y="-126.2" font-family="Helvetica,sans-Serif" font-size="11.00">[table]</text>
<polygon fill="none" stroke="black" points="66,-100 66,-118 189,-118 189,-100 66,-100"/>
<text text-anchor="start" x="69" y="-106.2" font-family="Helvetica,sans-Serif" font-size="11.00">...</text>
<polygon fill="#ffffff" stroke="none" points="66,-82 66,-100 98,-100 98,-82 66,-82"/>
<polygon fill="none" stroke="black" points="66,-82 66,-100 98,-100 98,-82 66,-82"/>
<text text-anchor="start" x="69" y="-88.2" font-family="Helvetica,sans-Serif" font-size="11.00"> &#160;</text>
<polygon fill="#ffffff" stroke="none" points="98,-82 98,-100 156,-100 156,-82 98,-82"/>
<polygon fill="none" stroke="black" points="98,-82 98,-100 156,-100 156,-82 98,-82"/>
<text text-anchor="start" x="110" y="-88.2" font-family="Helvetica,sans-Serif" font-size="11.00">88 rows</text>
<polygon fill="#ffffff" stroke="none" points="156,-82 156,-100 189,-100 189,-82 156,-82"/>
<polygon fill="none" stroke="black" points="156,-82 156,-100 189,-100 189,-82 156,-82"/>
<text text-anchor="start" x="169" y="-88.2" font-family="Helvetica,sans-Serif" font-size="11.00">8 &gt;</text>
</a>
</g>
</g>
<!-- ansible_collectionversion&#45;&gt;core_content -->
<g id="edge2" class="edge"><title>ansible_collectionversion:content_ptr_id:w&#45;&gt;core_content:elipses:e</title>
<path fill="none" stroke="black" d="M286.88,-192.235C271.188,-186.12 271.833,-165.426 254,-151 227.549,-129.602 224.023,-109 190,-109"/>
<polygon fill="black" stroke="black" points="297.367,-189.923 296.055,-197.815 294.477,-197.552 295.788,-189.661 297.367,-189.923"/>
<polyline fill="none" stroke="black" points="297.5,-194 293.554,-193.344 "/>
<ellipse fill="none" stroke="black" cx="290.397" cy="-192.82" rx="3.2" ry="3.2"/>
</g>
<!-- ansible_collectionversion_tags -->
<g id="node4" class="node"><title>ansible_collectionversion_tags</title>
<g id="a_node4"><a xlink:href="../../tables/ansible_collectionversion_tags.html" xlink:title="ansible_collectionversion_tags" target="_top">
<polygon fill="#ffffff" stroke="none" points="543,-167 543,-225 763,-225 763,-167 543,-167"/>
<polygon fill="#f5f5f5" stroke="none" points="543,-203 543,-225 763,-225 763,-203 543,-203"/>
<polygon fill="none" stroke="black" points="543,-203 543,-225 763,-225 763,-203 543,-203"/>
<text text-anchor="start" x="548" y="-212.2" font-family="Helvetica,sans-Serif" font-weight="bold" font-size="11.00">ansible_collectionversion_tags</text>
<text text-anchor="start" x="724" y="-211.2" font-family="Helvetica,sans-Serif" font-size="11.00">[table]</text>
<polygon fill="none" stroke="black" points="543,-185 543,-203 763,-203 763,-185 543,-185"/>
<text text-anchor="start" x="546" y="-191.2" font-family="Helvetica,sans-Serif" font-size="11.00">...</text>
<polygon fill="#ffffff" stroke="none" points="543,-167 543,-185 633,-185 633,-167 543,-167"/>
<polygon fill="none" stroke="black" points="543,-167 543,-185 633,-185 633,-167 543,-167"/>
<text text-anchor="start" x="546" y="-173.2" font-family="Helvetica,sans-Serif" font-size="11.00">&lt; 2</text>
<polygon fill="#ffffff" stroke="none" points="633,-167 633,-185 716,-185 716,-167 633,-167"/>
<polygon fill="none" stroke="black" points="633,-167 633,-185 716,-185 716,-167 633,-167"/>
<text text-anchor="start" x="670" y="-173.2" font-family="Helvetica,sans-Serif" font-size="11.00">10 rows</text>
<polygon fill="#ffffff" stroke="none" points="716,-167 716,-185 763,-185 763,-167 716,-167"/>
<polygon fill="none" stroke="black" points="716,-167 716,-185 763,-185 763,-167 716,-167"/>
<text text-anchor="start" x="753" y="-173.2" font-family="Helvetica,sans-Serif" font-size="11.00"> &#160;</text>
</a>
</g>
</g>
<!-- ansible_collectionversion_tags&#45;&gt;ansible_collectionversion -->
<g id="edge3" class="edge"><title>ansible_collectionversion_tags:elipses:w&#45;&gt;ansible_collectionversion:content_ptr_id:e</title>
<path fill="none" stroke="black" d="M527.343,-194C515.914,-194 508.656,-194 492.5,-194"/>
<polygon fill="black" stroke="black" points="534,-194 542,-197.6 538,-194 542,-194 542,-194 542,-194 538,-194 542,-190.4 534,-194 534,-194"/>
<ellipse fill="none" stroke="black" cx="530.8" cy="-194" rx="3.2" ry="3.2"/>
</g>
<!-- galaxy_synclist_collections -->
<g id="node5" class="node"><title>galaxy_synclist_collections</title>
<g id="a_node5"><a xlink:href="../../tables/galaxy_synclist_collections.html" xlink:title="galaxy_synclist_collections" target="_top">
<polygon fill="#ffffff" stroke="none" points="295,-303 295,-409 494,-409 494,-303 295,-303"/>
<polygon fill="#f5f5f5" stroke="none" points="295.5,-387 295.5,-409 494.5,-409 494.5,-387 295.5,-387"/>
<polygon fill="none" stroke="black" points="295.5,-387 295.5,-409 494.5,-409 494.5,-387 295.5,-387"/>
<text text-anchor="start" x="300.5" y="-396.2" font-family="Helvetica,sans-Serif" font-weight="bold" font-size="11.00">galaxy_synclist_collections</text>
<text text-anchor="start" x="455.5" y="-395.2" font-family="Helvetica,sans-Serif" font-size="11.00">[table]</text>
<polygon fill="none" stroke="black" points="295.5,-365 295.5,-387 494.5,-387 494.5,-365 295.5,-365"/>
<image xlink:href="../../images/primaryKeys.png" width="11px" height="12px" preserveAspectRatio="xMinYMin meet" x="300.5" y="-382"/>
<text text-anchor="start" x="325.5" y="-373.2" font-family="Helvetica,sans-Serif" font-size="11.00">id</text>
<polygon fill="#ffffff" stroke="none" points="295.5,-343 295.5,-365 494.5,-365 494.5,-343 295.5,-343"/>
<polygon fill="none" stroke="black" points="295.5,-343 295.5,-365 494.5,-365 494.5,-343 295.5,-343"/>
<image xlink:href="../../images/foreignKeys.png" width="11px" height="12px" preserveAspectRatio="xMinYMin meet" x="300.5" y="-360"/>
<text text-anchor="start" x="325.5" y="-351.2" font-family="Helvetica,sans-Serif" font-size="11.00">synclist_id</text>
<polygon fill="#ffffff" stroke="none" points="295.5,-321 295.5,-343 494.5,-343 494.5,-321 295.5,-321"/>
<polygon fill="none" stroke="black" points="295.5,-321 295.5,-343 494.5,-343 494.5,-321 295.5,-321"/>
<image xlink:href="../../images/foreignKeys.png" width="11px" height="12px" preserveAspectRatio="xMinYMin meet" x="300.5" y="-338"/>
<text text-anchor="start" x="325.5" y="-329.2" font-family="Helvetica,sans-Serif" font-size="11.00">collection_id</text>
<polygon fill="#ffffff" stroke="none" points="295.5,-303 295.5,-321 378.5,-321 378.5,-303 295.5,-303"/>
<polygon fill="none" stroke="black" points="295.5,-303 295.5,-321 378.5,-321 378.5,-303 295.5,-303"/>
<text text-anchor="start" x="298.5" y="-309.2" font-family="Helvetica,sans-Serif" font-size="11.00">&lt; 2</text>
<polygon fill="#ffffff" stroke="none" points="378.5,-303 378.5,-321 450.5,-321 450.5,-303 378.5,-303"/>
<polygon fill="none" stroke="black" points="378.5,-303 378.5,-321 450.5,-321 450.5,-303 378.5,-303"/>
<text text-anchor="start" x="411.5" y="-309.2" font-family="Helvetica,sans-Serif" font-size="11.00">8 rows</text>
<polygon fill="#ffffff" stroke="none" points="450.5,-303 450.5,-321 494.5,-321 494.5,-303 450.5,-303"/>
<polygon fill="none" stroke="black" points="450.5,-303 450.5,-321 494.5,-321 494.5,-303 450.5,-303"/>
<text text-anchor="start" x="484.5" y="-309.2" font-family="Helvetica,sans-Serif" font-size="11.00"> &#160;</text>
</a>
</g>
</g>
<!-- galaxy_synclist_collections&#45;&gt;ansible_collection -->
<g id="edge4" class="edge"><title>galaxy_synclist_collections:collection_id:w&#45;&gt;ansible_collection:pulp_id.type:e</title>
<path fill="none" stroke="black" d="M280.633,-328.078C268.238,-319.946 264.897,-302 245,-302"/>
<polygon fill="black" stroke="black" points="286.802,-329.823 293.52,-335.464 290.651,-330.911 294.5,-332 294.5,-332 294.5,-332 290.651,-330.911 295.48,-328.536 286.802,-329.823 286.802,-329.823"/>
<ellipse fill="none" stroke="black" cx="283.723" cy="-328.952" rx="3.20001" ry="3.20001"/>
</g>
<!-- galaxy_synclist -->
<g id="node6" class="node"><title>galaxy_synclist</title>
<g id="a_node6"><a xlink:href="../../tables/galaxy_synclist.html" xlink:title="galaxy_synclist" target="_top">
<polygon fill="#ffffff" stroke="none" points="60.5,-358 60.5,-416 193.5,-416 193.5,-358 60.5,-358"/>
<polygon fill="#f5f5f5" stroke="none" points="61,-394 61,-416 194,-416 194,-394 61,-394"/>
<polygon fill="none" stroke="black" points="61,-394 61,-416 194,-416 194,-394 61,-394"/>
<text text-anchor="start" x="66" y="-403.2" font-family="Helvetica,sans-Serif" font-weight="bold" font-size="11.00">galaxy_synclist</text>
<text text-anchor="start" x="155" y="-402.2" font-family="Helvetica,sans-Serif" font-size="11.00">[table]</text>
<polygon fill="none" stroke="black" points="61,-376 61,-394 194,-394 194,-376 61,-376"/>
<text text-anchor="start" x="64" y="-382.2" font-family="Helvetica,sans-Serif" font-size="11.00">...</text>
<polygon fill="#ffffff" stroke="none" points="61,-358 61,-376 106,-376 106,-358 61,-358"/>
<polygon fill="none" stroke="black" points="61,-358 61,-376 106,-376 106,-358 61,-358"/>
<text text-anchor="start" x="64" y="-364.2" font-family="Helvetica,sans-Serif" font-size="11.00">&lt; 2</text>
<polygon fill="#ffffff" stroke="none" points="106,-358 106,-376 159,-376 159,-358 106,-358"/>
<polygon fill="none" stroke="black" points="106,-358 106,-376 159,-376 159,-358 106,-358"/>
<text text-anchor="start" x="120" y="-364.2" font-family="Helvetica,sans-Serif" font-size="11.00">7 rows</text>
<polygon fill="#ffffff" stroke="none" points="159,-358 159,-376 194,-376 194,-358 159,-358"/>
<polygon fill="none" stroke="black" points="159,-358 159,-376 194,-376 194,-358 159,-358"/>
<text text-anchor="start" x="174" y="-364.2" font-family="Helvetica,sans-Serif" font-size="11.00">2 &gt;</text>
</a>
</g>
</g>
<!-- galaxy_synclist_collections&#45;&gt;galaxy_synclist -->
<g id="edge5" class="edge"><title>galaxy_synclist_collections:synclist_id:w&#45;&gt;galaxy_synclist:elipses:e</title>
<path fill="none" stroke="black" d="M279.715,-355.177C246.031,-360.84 235.891,-385 195,-385"/>
<polygon fill="black" stroke="black" points="286.525,-354.635 294.786,-357.589 290.513,-354.318 294.5,-354 294.5,-354 294.5,-354 290.513,-354.318 294.214,-350.411 286.525,-354.635 286.525,-354.635"/>
<ellipse fill="none" stroke="black" cx="283.335" cy="-354.889" rx="3.2" ry="3.2"/>
</g>
</g>
</svg>
