<?xml version="1.0" encoding="UTF-8" standalone="no"?>
<!DOCTYPE svg PUBLIC "-//W3C//DTD SVG 1.1//EN"
 "http://www.w3.org/Graphics/SVG/1.1/DTD/svg11.dtd">
<!-- Generated by graphviz version 2.38.0 (20140413.2041)
 -->
<!-- Title: twoDegreesRelationshipsDiagram Pages: 1 -->
<svg width="512pt" height="576pt"
 viewBox="0.00 0.00 512.00 576.00" xmlns="http://www.w3.org/2000/svg" xmlns:xlink="http://www.w3.org/1999/xlink">
<g id="graph0" class="graph" transform="scale(1 1) rotate(0) translate(4 572)">
<title>twoDegreesRelationshipsDiagram</title>
<polygon fill="#ffffff" stroke="none" points="-4,4 -4,-572 508,-572 508,4 -4,4"/>
<text text-anchor="middle" x="74.5" y="-7.2" font-family="Helvetica,sans-Serif" font-size="11.00">Generated by SchemaSpy</text>
<!-- ansible_collectionremote -->
<g id="node1" class="node"><title>ansible_collectionremote</title>
<g id="a_node1"><a xlink:href="../../tables/ansible_collectionremote.html" xlink:title="ansible_collectionremote" target="_top">
<polygon fill="#ffffff" stroke="none" points="216,-432 216,-564 496,-564 496,-432 216,-432"/>
<polygon fill="#f5f5f5" stroke="none" points="218,-540 218,-562 494,-562 494,-540 218,-540"/>
<polygon fill="none" stroke="black" points="218,-540 218,-562 494,-562 494,-540 218,-540"/>
<text text-anchor="start" x="223" y="-549.2" font-family="Helvetica,sans-Serif" font-weight="bold" font-size="11.00">ansible_collectionremote</text>
<text text-anchor="start" x="455" y="-548.2" font-family="Helvetica,sans-Serif" font-size="11.00">[table]</text>
<polygon fill="none" stroke="black" points="218,-518 218,-540 389,-540 389,-518 218,-518"/>
<image xlink:href="../../images/primaryKeys.png" width="11px" height="12px" preserveAspectRatio="xMinYMin meet" x="223" y="-535"/>
<text text-anchor="start" x="238" y="-526.2" font-family="Helvetica,sans-Serif" font-size="11.00">remote_ptr_id</text>
<polygon fill="none" stroke="black" points="389,-518 389,-540 494,-540 494,-518 389,-518"/>
<text text-anchor="start" x="392" y="-526.2" font-family="Helvetica,sans-Serif" font-size="11.00">uuid[2147483647]</text>
<polygon fill="none" stroke="black" points="218,-496 218,-518 389,-518 389,-496 218,-496"/>
<text text-anchor="start" x="238" y="-504.2" font-family="Helvetica,sans-Serif" font-size="11.00">requirements_file</text>
<polygon fill="none" stroke="black" points="389,-496 389,-518 494,-518 494,-496 389,-496"/>
<text text-anchor="start" x="392" y="-504.2" font-family="Helvetica,sans-Serif" font-size="11.00">text[2147483647]</text>
<polygon fill="none" stroke="black" points="218,-474 218,-496 389,-496 389,-474 218,-474"/>
<text text-anchor="start" x="238" y="-482.2" font-family="Helvetica,sans-Serif" font-size="11.00">auth_url</text>
<polygon fill="none" stroke="black" points="389,-474 389,-496 494,-496 494,-474 389,-474"/>
<text text-anchor="start" x="392" y="-482.2" font-family="Helvetica,sans-Serif" font-size="11.00">varchar[255]</text>
<polygon fill="none" stroke="black" points="218,-452 218,-474 389,-474 389,-452 218,-452"/>
<text text-anchor="start" x="238" y="-460.2" font-family="Helvetica,sans-Serif" font-size="11.00">token</text>
<polygon fill="none" stroke="black" points="389,-452 389,-474 494,-474 494,-452 389,-452"/>
<text text-anchor="start" x="392" y="-460.2" font-family="Helvetica,sans-Serif" font-size="11.00">text[2147483647]</text>
<polygon fill="#ffffff" stroke="none" points="218,-434 218,-452 294,-452 294,-434 218,-434"/>
<polygon fill="none" stroke="black" points="218,-434 218,-452 294,-452 294,-434 218,-434"/>
<text text-anchor="start" x="221" y="-440.2" font-family="Helvetica,sans-Serif" font-size="11.00">&lt; 1</text>
<polygon fill="#ffffff" stroke="none" points="294,-434 294,-452 389,-452 389,-434 294,-434"/>
<polygon fill="none" stroke="black" points="294,-434 294,-452 389,-452 389,-434 294,-434"/>
<text text-anchor="start" x="350" y="-440.2" font-family="Helvetica,sans-Serif" font-size="11.00">7 rows</text>
<polygon fill="#ffffff" stroke="none" points="389,-434 389,-452 494,-452 494,-434 389,-434"/>
<polygon fill="none" stroke="black" points="389,-434 389,-452 494,-452 494,-434 389,-434"/>
<text text-anchor="start" x="474" y="-440.2" font-family="Helvetica,sans-Serif" font-size="11.00">0 &gt;</text>
<polygon fill="none" stroke="black" stroke-width="2" points="217,-433 217,-563 495,-563 495,-433 217,-433"/>
</a>
</g>
</g>
<!-- core_remote -->
<g id="node2" class="node"><title>core_remote</title>
<g id="a_node2"><a xlink:href="../../tables/core_remote.html" xlink:title="core_remote" target="_top">
<polygon fill="#ffffff" stroke="none" points="8,-192 8,-294 167,-294 167,-192 8,-192"/>
<polygon fill="#f5f5f5" stroke="none" points="8.5,-272 8.5,-294 167.5,-294 167.5,-272 8.5,-272"/>
<polygon fill="none" stroke="black" points="8.5,-272 8.5,-294 167.5,-294 167.5,-272 8.5,-272"/>
<text text-anchor="start" x="13.5" y="-281.2" font-family="Helvetica,sans-Serif" font-weight="bold" font-size="11.00">core_remote</text>
<text text-anchor="start" x="128.5" y="-280.2" font-family="Helvetica,sans-Serif" font-size="11.00">[table]</text>
<polygon fill="none" stroke="black" points="8.5,-250 8.5,-272 167.5,-272 167.5,-250 8.5,-250"/>
<image xlink:href="../../images/primaryKeys.png" width="11px" height="12px" preserveAspectRatio="xMinYMin meet" x="13.5" y="-267"/>
<text text-anchor="start" x="28.5" y="-258.2" font-family="Helvetica,sans-Serif" font-size="11.00">pulp_id</text>
<polygon fill="#ffffff" stroke="none" points="8.5,-228 8.5,-250 167.5,-250 167.5,-228 8.5,-228"/>
<polygon fill="none" stroke="black" points="8.5,-228 8.5,-250 167.5,-250 167.5,-228 8.5,-228"/>
<text text-anchor="start" x="28.5" y="-236.2" font-family="Helvetica,sans-Serif" font-size="11.00">name</text>
<polygon fill="none" stroke="black" points="8.5,-210 8.5,-228 167.5,-228 167.5,-210 8.5,-210"/>
<text text-anchor="start" x="11.5" y="-216.2" font-family="Helvetica,sans-Serif" font-size="11.00">...</text>
<polygon fill="#ffffff" stroke="none" points="8.5,-192 8.5,-210 61.5,-210 61.5,-192 8.5,-192"/>
<polygon fill="none" stroke="black" points="8.5,-192 8.5,-210 61.5,-210 61.5,-192 8.5,-192"/>
<text text-anchor="start" x="11.5" y="-198.2" font-family="Helvetica,sans-Serif" font-size="11.00"> &#160;</text>
<polygon fill="#ffffff" stroke="none" points="61.5,-192 61.5,-210 123.5,-210 123.5,-192 61.5,-192"/>
<polygon fill="none" stroke="black" points="61.5,-192 61.5,-210 123.5,-210 123.5,-192 61.5,-192"/>
<text text-anchor="start" x="84.5" y="-198.2" font-family="Helvetica,sans-Serif" font-size="11.00">7 rows</text>
<polygon fill="#ffffff" stroke="none" points="123.5,-192 123.5,-210 167.5,-210 167.5,-192 123.5,-192"/>
<polygon fill="none" stroke="black" points="123.5,-192 123.5,-210 167.5,-210 167.5,-192 123.5,-192"/>
<text text-anchor="start" x="147.5" y="-198.2" font-family="Helvetica,sans-Serif" font-size="11.00">6 &gt;</text>
</a>
</g>
</g>
<!-- ansible_collectionremote&#45;&gt;core_remote -->
<g id="edge1" class="edge"><title>ansible_collectionremote:remote_ptr_id:w&#45;&gt;core_remote:pulp_id:e</title>
<path fill="none" stroke="black" d="M206.884,-525.804C165.276,-495.566 225.122,-261 168.5,-261"/>
<polygon fill="black" stroke="black" points="217.442,-524.945 215.032,-532.573 213.506,-532.091 215.917,-524.463 217.442,-524.945"/>
<polyline fill="none" stroke="black" points="217,-529 213.186,-527.795 "/>
<ellipse fill="none" stroke="black" cx="210.135" cy="-526.831" rx="3.20001" ry="3.20001"/>
</g>
<!-- ansible_roleremote -->
<g id="node3" class="node"><title>ansible_roleremote</title>
<g id="a_node3"><a xlink:href="../../tables/ansible_roleremote.html" xlink:title="ansible_roleremote" target="_top">
<polygon fill="#ffffff" stroke="none" points="276.5,-353 276.5,-411 435.5,-411 435.5,-353 276.5,-353"/>
<polygon fill="#f5f5f5" stroke="none" points="277,-389 277,-411 436,-411 436,-389 277,-389"/>
<polygon fill="none" stroke="black" points="277,-389 277,-411 436,-411 436,-389 277,-389"/>
<text text-anchor="start" x="282" y="-398.2" font-family="Helvetica,sans-Serif" font-weight="bold" font-size="11.00">ansible_roleremote</text>
<text text-anchor="start" x="397" y="-397.2" font-family="Helvetica,sans-Serif" font-size="11.00">[table]</text>
<polygon fill="none" stroke="black" points="277,-371 277,-389 436,-389 436,-371 277,-371"/>
<text text-anchor="start" x="280" y="-377.2" font-family="Helvetica,sans-Serif" font-size="11.00">...</text>
<polygon fill="#ffffff" stroke="none" points="277,-353 277,-371 340,-371 340,-353 277,-353"/>
<polygon fill="none" stroke="black" points="277,-353 277,-371 340,-371 340,-353 277,-353"/>
<text text-anchor="start" x="280" y="-359.2" font-family="Helvetica,sans-Serif" font-size="11.00">&lt; 1</text>
<polygon fill="#ffffff" stroke="none" points="340,-353 340,-371 402,-371 402,-353 340,-353"/>
<polygon fill="none" stroke="black" points="340,-353 340,-371 402,-371 402,-353 340,-353"/>
<text text-anchor="start" x="363" y="-359.2" font-family="Helvetica,sans-Serif" font-size="11.00">0 rows</text>
<polygon fill="#ffffff" stroke="none" points="402,-353 402,-371 436,-371 436,-353 402,-353"/>
<polygon fill="none" stroke="black" points="402,-353 402,-371 436,-371 436,-353 402,-353"/>
<text text-anchor="start" x="426" y="-359.2" font-family="Helvetica,sans-Serif" font-size="11.00"> &#160;</text>
</a>
</g>
</g>
<!-- ansible_roleremote&#45;&gt;core_remote -->
<g id="edge2" class="edge"><title>ansible_roleremote:elipses:w&#45;&gt;core_remote:pulp_id:e</title>
<path fill="none" stroke="black" d="M265.541,-379.566C239.268,-377.204 229.126,-365.197 208,-343 180.111,-313.698 208.952,-261 168.5,-261"/>
<polygon fill="black" stroke="black" points="275.367,-375.97 275.035,-383.963 273.436,-383.897 273.768,-375.904 275.367,-375.97"/>
<polyline fill="none" stroke="black" points="276,-380 272.003,-379.834 "/>
<ellipse fill="none" stroke="black" cx="268.806" cy="-379.701" rx="3.2" ry="3.2"/>
</g>
<!-- container_containerremote -->
<g id="node4" class="node"><title>container_containerremote</title>
<g id="a_node4"><a xlink:href="../../tables/container_containerremote.html" xlink:title="container_containerremote" target="_top">
<polygon fill="#ffffff" stroke="none" points="253,-274 253,-332 459,-332 459,-274 253,-274"/>
<polygon fill="#f5f5f5" stroke="none" points="253,-310 253,-332 459,-332 459,-310 253,-310"/>
<polygon fill="none" stroke="black" points="253,-310 253,-332 459,-332 459,-310 253,-310"/>
<text text-anchor="start" x="258" y="-319.2" font-family="Helvetica,sans-Serif" font-weight="bold" font-size="11.00">container_containerremote</text>
<text text-anchor="start" x="420" y="-318.2" font-family="Helvetica,sans-Serif" font-size="11.00">[table]</text>
<polygon fill="none" stroke="black" points="253,-292 253,-310 459,-310 459,-292 253,-292"/>
<text text-anchor="start" x="256" y="-298.2" font-family="Helvetica,sans-Serif" font-size="11.00">...</text>
<polygon fill="#ffffff" stroke="none" points="253,-274 253,-292 340,-292 340,-274 253,-274"/>
<polygon fill="none" stroke="black" points="253,-274 253,-292 340,-292 340,-274 253,-274"/>
<text text-anchor="start" x="256" y="-280.2" font-family="Helvetica,sans-Serif" font-size="11.00">&lt; 1</text>
<polygon fill="#ffffff" stroke="none" points="340,-274 340,-292 414,-292 414,-274 340,-274"/>
<polygon fill="none" stroke="black" points="340,-274 340,-292 414,-292 414,-274 340,-274"/>
<text text-anchor="start" x="375" y="-280.2" font-family="Helvetica,sans-Serif" font-size="11.00">0 rows</text>
<polygon fill="#ffffff" stroke="none" points="414,-274 414,-292 459,-292 459,-274 414,-274"/>
<polygon fill="none" stroke="black" points="414,-274 414,-292 459,-292 459,-274 414,-274"/>
<text text-anchor="start" x="449" y="-280.2" font-family="Helvetica,sans-Serif" font-size="11.00"> &#160;</text>
</a>
</g>
</g>
<!-- container_containerremote&#45;&gt;core_remote -->
<g id="edge3" class="edge"><title>container_containerremote:elipses:w&#45;&gt;core_remote:pulp_id:e</title>
<path fill="none" stroke="black" d="M241.414,-300.011C210.274,-293.852 205.792,-261 168.5,-261"/>
<polygon fill="black" stroke="black" points="251.576,-296.943 250.831,-304.908 249.238,-304.759 249.982,-296.794 251.576,-296.943"/>
<polyline fill="none" stroke="black" points="252,-301 248.017,-300.628 "/>
<ellipse fill="none" stroke="black" cx="244.831" cy="-300.33" rx="3.2" ry="3.2"/>
</g>
<!-- core_basedistribution -->
<g id="node5" class="node"><title>core_basedistribution</title>
<g id="a_node5"><a xlink:href="../../tables/core_basedistribution.html" xlink:title="core_basedistribution" target="_top">
<polygon fill="#ffffff" stroke="none" points="269.5,-195 269.5,-253 442.5,-253 442.5,-195 269.5,-195"/>
<polygon fill="#f5f5f5" stroke="none" points="270,-231 270,-253 443,-253 443,-231 270,-231"/>
<polygon fill="none" stroke="black" points="270,-231 270,-253 443,-253 443,-231 270,-231"/>
<text text-anchor="start" x="275" y="-240.2" font-family="Helvetica,sans-Serif" font-weight="bold" font-size="11.00">core_basedistribution</text>
<text text-anchor="start" x="404" y="-239.2" font-family="Helvetica,sans-Serif" font-size="11.00">[table]</text>
<polygon fill="none" stroke="black" points="270,-213 270,-231 443,-231 443,-213 270,-213"/>
<text text-anchor="start" x="273" y="-219.2" font-family="Helvetica,sans-Serif" font-size="11.00">...</text>
<polygon fill="#ffffff" stroke="none" points="270,-195 270,-213 332,-213 332,-195 270,-195"/>
<polygon fill="none" stroke="black" points="270,-195 270,-213 332,-213 332,-195 270,-195"/>
<text text-anchor="start" x="273" y="-201.2" font-family="Helvetica,sans-Serif" font-size="11.00">&lt; 2</text>
<polygon fill="#ffffff" stroke="none" points="332,-195 332,-213 400,-213 400,-195 332,-195"/>
<polygon fill="none" stroke="black" points="332,-195 332,-213 400,-213 400,-195 332,-195"/>
<text text-anchor="start" x="354" y="-201.2" font-family="Helvetica,sans-Serif" font-size="11.00">32 rows</text>
<polygon fill="#ffffff" stroke="none" points="400,-195 400,-213 443,-213 443,-195 400,-195"/>
<polygon fill="none" stroke="black" points="400,-195 400,-213 443,-213 443,-195 400,-195"/>
<text text-anchor="start" x="423" y="-201.2" font-family="Helvetica,sans-Serif" font-size="11.00">2 &gt;</text>
</a>
</g>
</g>
<!-- core_basedistribution&#45;&gt;core_remote -->
<g id="edge4" class="edge"><title>core_basedistribution:elipses:w&#45;&gt;core_remote:pulp_id:e</title>
<path fill="none" stroke="black" d="M254.256,-223.388C219.474,-230.335 210.984,-261 168.5,-261"/>
<polygon fill="black" stroke="black" points="261.035,-222.75 269.337,-225.584 265.018,-222.375 269,-222 269,-222 269,-222 265.018,-222.375 268.663,-218.416 261.035,-222.75 261.035,-222.75"/>
<ellipse fill="none" stroke="black" cx="257.849" cy="-223.05" rx="3.2" ry="3.2"/>
</g>
<!-- core_remoteartifact -->
<g id="node6" class="node"><title>core_remoteartifact</title>
<g id="a_node6"><a xlink:href="../../tables/core_remoteartifact.html" xlink:title="core_remoteartifact" target="_top">
<polygon fill="#ffffff" stroke="none" points="274.5,-116 274.5,-174 437.5,-174 437.5,-116 274.5,-116"/>
<polygon fill="#f5f5f5" stroke="none" points="275,-152 275,-174 438,-174 438,-152 275,-152"/>
<polygon fill="none" stroke="black" points="275,-152 275,-174 438,-174 438,-152 275,-152"/>
<text text-anchor="start" x="280" y="-161.2" font-family="Helvetica,sans-Serif" font-weight="bold" font-size="11.00">core_remoteartifact</text>
<text text-anchor="start" x="399" y="-160.2" font-family="Helvetica,sans-Serif" font-size="11.00">[table]</text>
<polygon fill="none" stroke="black" points="275,-134 275,-152 438,-152 438,-134 275,-134"/>
<text text-anchor="start" x="278" y="-140.2" font-family="Helvetica,sans-Serif" font-size="11.00">...</text>
<polygon fill="#ffffff" stroke="none" points="275,-116 275,-134 337,-134 337,-116 275,-116"/>
<polygon fill="none" stroke="black" points="275,-116 275,-134 337,-134 337,-116 275,-116"/>
<text text-anchor="start" x="278" y="-122.2" font-family="Helvetica,sans-Serif" font-size="11.00">&lt; 2</text>
<polygon fill="#ffffff" stroke="none" points="337,-116 337,-134 405,-134 405,-116 337,-116"/>
<polygon fill="none" stroke="black" points="337,-116 337,-134 405,-134 405,-116 337,-116"/>
<text text-anchor="start" x="359" y="-122.2" font-family="Helvetica,sans-Serif" font-size="11.00">16 rows</text>
<polygon fill="#ffffff" stroke="none" points="405,-116 405,-134 438,-134 438,-116 405,-116"/>
<polygon fill="none" stroke="black" points="405,-116 405,-134 438,-134 438,-116 405,-116"/>
<text text-anchor="start" x="428" y="-122.2" font-family="Helvetica,sans-Serif" font-size="11.00"> &#160;</text>
</a>
</g>
</g>
<!-- core_remoteartifact&#45;&gt;core_remote -->
<g id="edge5" class="edge"><title>core_remoteartifact:elipses:w&#45;&gt;core_remote:pulp_id:e</title>
<path fill="none" stroke="black" d="M259.518,-144.171C236.427,-148.34 227.818,-163.369 208,-185 182.284,-213.068 206.568,-261 168.5,-261"/>
<polygon fill="black" stroke="black" points="266.026,-143.645 274.29,-146.588 270.013,-143.323 274,-143 274,-143 274,-143 270.013,-143.323 273.71,-139.412 266.026,-143.645 266.026,-143.645"/>
<ellipse fill="none" stroke="black" cx="262.836" cy="-143.903" rx="3.2" ry="3.2"/>
</g>
<!-- core_repository -->
<g id="node7" class="node"><title>core_repository</title>
<g id="a_node7"><a xlink:href="../../tables/core_repository.html" xlink:title="core_repository" target="_top">
<polygon fill="#ffffff" stroke="none" points="287.5,-37 287.5,-95 424.5,-95 424.5,-37 287.5,-37"/>
<polygon fill="#f5f5f5" stroke="none" points="288,-73 288,-95 425,-95 425,-73 288,-73"/>
<polygon fill="none" stroke="black" points="288,-73 288,-95 425,-95 425,-73 288,-73"/>
<text text-anchor="start" x="293" y="-82.2" font-family="Helvetica,sans-Serif" font-weight="bold" font-size="11.00">core_repository</text>
<text text-anchor="start" x="386" y="-81.2" font-family="Helvetica,sans-Serif" font-size="11.00">[table]</text>
<polygon fill="none" stroke="black" points="288,-55 288,-73 425,-73 425,-55 288,-55"/>
<text text-anchor="start" x="291" y="-61.2" font-family="Helvetica,sans-Serif" font-size="11.00">...</text>
<polygon fill="#ffffff" stroke="none" points="288,-37 288,-55 328,-55 328,-37 288,-37"/>
<polygon fill="none" stroke="black" points="288,-37 288,-55 328,-55 328,-37 288,-37"/>
<text text-anchor="start" x="291" y="-43.2" font-family="Helvetica,sans-Serif" font-size="11.00">&lt; 1</text>
<polygon fill="#ffffff" stroke="none" points="328,-37 328,-55 386,-55 386,-37 328,-37"/>
<polygon fill="none" stroke="black" points="328,-37 328,-55 386,-55 386,-37 328,-37"/>
<text text-anchor="start" x="340" y="-43.2" font-family="Helvetica,sans-Serif" font-size="11.00">26 rows</text>
<polygon fill="#ffffff" stroke="none" points="386,-37 386,-55 425,-55 425,-37 386,-37"/>
<polygon fill="none" stroke="black" points="386,-37 386,-55 425,-55 425,-37 386,-37"/>
<text text-anchor="start" x="398" y="-43.2" font-family="Helvetica,sans-Serif" font-size="11.00">10 &gt;</text>
</a>
</g>
</g>
<!-- core_repository&#45;&gt;core_remote -->
<g id="edge6" class="edge"><title>core_repository:elipses:w&#45;&gt;core_remote:pulp_id:e</title>
<path fill="none" stroke="black" d="M272.402,-64.5907C243.164,-67.2123 229.301,-78.8823 208,-106 164.086,-161.906 239.591,-261 168.5,-261"/>
<polygon fill="black" stroke="black" points="279.007,-64.3235 287.146,-67.5971 283.003,-64.1618 287,-64 287,-64 287,-64 283.003,-64.1618 286.854,-60.4029 279.007,-64.3235 279.007,-64.3235"/>
<ellipse fill="none" stroke="black" cx="275.809" cy="-64.4529" rx="3.2" ry="3.2"/>
</g>
</g>
</svg>
