<?xml version="1.0" encoding="UTF-8" standalone="no"?>
<!DOCTYPE svg PUBLIC "-//W3C//DTD SVG 1.1//EN"
 "http://www.w3.org/Graphics/SVG/1.1/DTD/svg11.dtd">
<!-- Generated by graphviz version 2.38.0 (20140413.2041)
 -->
<!-- Title: twoDegreesRelationshipsDiagram Pages: 1 -->
<svg width="531pt" height="260pt"
 viewBox="0.00 0.00 531.00 260.00" xmlns="http://www.w3.org/2000/svg" xmlns:xlink="http://www.w3.org/1999/xlink">
<g id="graph0" class="graph" transform="scale(1 1) rotate(0) translate(4 256)">
<title>twoDegreesRelationshipsDiagram</title>
<polygon fill="#ffffff" stroke="none" points="-4,4 -4,-256 527,-256 527,4 -4,4"/>
<text text-anchor="middle" x="74.5" y="-7.2" font-family="Helvetica,sans-Serif" font-size="11.00">Generated by SchemaSpy</text>
<!-- ansible_collectionversion_tags -->
<g id="node1" class="node"><title>ansible_collectionversion_tags</title>
<g id="a_node1"><a xlink:href="../../tables/ansible_collectionversion_tags.html" xlink:title="ansible_collectionversion_tags" target="_top">
<polygon fill="#ffffff" stroke="none" points="295,-135 295,-241 515,-241 515,-135 295,-135"/>
<polygon fill="#f5f5f5" stroke="none" points="295,-219 295,-241 515,-241 515,-219 295,-219"/>
<polygon fill="none" stroke="black" points="295,-219 295,-241 515,-241 515,-219 295,-219"/>
<text text-anchor="start" x="300" y="-228.2" font-family="Helvetica,sans-Serif" font-weight="bold" font-size="11.00">ansible_collectionversion_tags</text>
<text text-anchor="start" x="476" y="-227.2" font-family="Helvetica,sans-Serif" font-size="11.00">[table]</text>
<polygon fill="none" stroke="black" points="295,-197 295,-219 515,-219 515,-197 295,-197"/>
<image xlink:href="../../images/primaryKeys.png" width="11px" height="12px" preserveAspectRatio="xMinYMin meet" x="300" y="-214"/>
<text text-anchor="start" x="325" y="-205.2" font-family="Helvetica,sans-Serif" font-size="11.00">id</text>
<polygon fill="#ffffff" stroke="none" points="295,-175 295,-197 515,-197 515,-175 295,-175"/>
<polygon fill="none" stroke="black" points="295,-175 295,-197 515,-197 515,-175 295,-175"/>
<image xlink:href="../../images/foreignKeys.png" width="11px" height="12px" preserveAspectRatio="xMinYMin meet" x="300" y="-192"/>
<text text-anchor="start" x="325" y="-183.2" font-family="Helvetica,sans-Serif" font-size="11.00">collectionversion_id</text>
<polygon fill="#ffffff" stroke="none" points="295,-153 295,-175 515,-175 515,-153 295,-153"/>
<polygon fill="none" stroke="black" points="295,-153 295,-175 515,-175 515,-153 295,-153"/>
<image xlink:href="../../images/foreignKeys.png" width="11px" height="12px" preserveAspectRatio="xMinYMin meet" x="300" y="-170"/>
<text text-anchor="start" x="325" y="-161.2" font-family="Helvetica,sans-Serif" font-size="11.00">tag_id</text>
<polygon fill="#ffffff" stroke="none" points="295,-135 295,-153 385,-153 385,-135 295,-135"/>
<polygon fill="none" stroke="black" points="295,-135 295,-153 385,-153 385,-135 295,-135"/>
<text text-anchor="start" x="298" y="-141.2" font-family="Helvetica,sans-Serif" font-size="11.00">&lt; 2</text>
<polygon fill="#ffffff" stroke="none" points="385,-135 385,-153 468,-153 468,-135 385,-135"/>
<polygon fill="none" stroke="black" points="385,-135 385,-153 468,-153 468,-135 385,-135"/>
<text text-anchor="start" x="422" y="-141.2" font-family="Helvetica,sans-Serif" font-size="11.00">10 rows</text>
<polygon fill="#ffffff" stroke="none" points="468,-135 468,-153 515,-153 515,-135 468,-135"/>
<polygon fill="none" stroke="black" points="468,-135 468,-153 515,-153 515,-135 468,-135"/>
<text text-anchor="start" x="505" y="-141.2" font-family="Helvetica,sans-Serif" font-size="11.00"> &#160;</text>
</a>
</g>
</g>
<!-- ansible_collectionversion -->
<g id="node2" class="node"><title>ansible_collectionversion</title>
<g id="a_node2"><a xlink:href="../../tables/ansible_collectionversion.html" xlink:title="ansible_collectionversion" target="_top">
<polygon fill="#ffffff" stroke="none" points="30.5,-190 30.5,-248 223.5,-248 223.5,-190 30.5,-190"/>
<polygon fill="#f5f5f5" stroke="none" points="31,-226 31,-248 224,-248 224,-226 31,-226"/>
<polygon fill="none" stroke="black" points="31,-226 31,-248 224,-248 224,-226 31,-226"/>
<text text-anchor="start" x="36" y="-235.2" font-family="Helvetica,sans-Serif" font-weight="bold" font-size="11.00">ansible_collectionversion</text>
<text text-anchor="start" x="185" y="-234.2" font-family="Helvetica,sans-Serif" font-size="11.00">[table]</text>
<polygon fill="none" stroke="black" points="31,-208 31,-226 224,-226 224,-208 31,-208"/>
<text text-anchor="start" x="34" y="-214.2" font-family="Helvetica,sans-Serif" font-size="11.00">...</text>
<polygon fill="#ffffff" stroke="none" points="31,-190 31,-208 103,-208 103,-190 31,-190"/>
<polygon fill="none" stroke="black" points="31,-190 31,-208 103,-208 103,-190 31,-190"/>
<text text-anchor="start" x="34" y="-196.2" font-family="Helvetica,sans-Serif" font-size="11.00">&lt; 2</text>
<polygon fill="#ffffff" stroke="none" points="103,-190 103,-208 176,-208 176,-190 103,-190"/>
<polygon fill="none" stroke="black" points="103,-190 103,-208 176,-208 176,-190 103,-190"/>
<text text-anchor="start" x="130" y="-196.2" font-family="Helvetica,sans-Serif" font-size="11.00">88 rows</text>
<polygon fill="#ffffff" stroke="none" points="176,-190 176,-208 224,-208 224,-190 176,-190"/>
<polygon fill="none" stroke="black" points="176,-190 176,-208 224,-208 224,-190 176,-190"/>
<text text-anchor="start" x="204" y="-196.2" font-family="Helvetica,sans-Serif" font-size="11.00">1 &gt;</text>
</a>
</g>
</g>
<!-- ansible_collectionversion_tags&#45;&gt;ansible_collectionversion -->
<g id="edge1" class="edge"><title>ansible_collectionversion_tags:collectionversion_id:w&#45;&gt;ansible_collectionversion:elipses:e</title>
<path fill="none" stroke="black" d="M279.744,-188.229C258.945,-195.337 253.104,-217 225,-217"/>
<polygon fill="black" stroke="black" points="286.096,-187.236 294.556,-189.557 290.048,-186.618 294,-186 294,-186 294,-186 290.048,-186.618 293.444,-182.443 286.096,-187.236 286.096,-187.236"/>
<ellipse fill="none" stroke="black" cx="282.934" cy="-187.731" rx="3.2" ry="3.2"/>
</g>
<!-- ansible_tag -->
<g id="node3" class="node"><title>ansible_tag</title>
<g id="a_node3"><a xlink:href="../../tables/ansible_tag.html" xlink:title="ansible_tag" target="_top">
<polygon fill="#ffffff" stroke="none" points="8,-37 8,-169 246,-169 246,-37 8,-37"/>
<polygon fill="#f5f5f5" stroke="none" points="10,-145 10,-167 244,-167 244,-145 10,-145"/>
<polygon fill="none" stroke="black" points="10,-145 10,-167 244,-167 244,-145 10,-145"/>
<text text-anchor="start" x="15" y="-154.2" font-family="Helvetica,sans-Serif" font-weight="bold" font-size="11.00">ansible_tag</text>
<text text-anchor="start" x="205" y="-153.2" font-family="Helvetica,sans-Serif" font-size="11.00">[table]</text>
<polygon fill="none" stroke="black" points="10,-123 10,-145 139,-145 139,-123 10,-123"/>
<image xlink:href="../../images/primaryKeys.png" width="11px" height="12px" preserveAspectRatio="xMinYMin meet" x="15" y="-140"/>
<text text-anchor="start" x="30" y="-131.2" font-family="Helvetica,sans-Serif" font-size="11.00">pulp_id</text>
<polygon fill="none" stroke="black" points="139,-123 139,-145 244,-145 244,-123 139,-123"/>
<text text-anchor="start" x="142" y="-131.2" font-family="Helvetica,sans-Serif" font-size="11.00">uuid[2147483647]</text>
<polygon fill="none" stroke="black" points="10,-101 10,-123 139,-123 139,-101 10,-101"/>
<text text-anchor="start" x="30" y="-109.2" font-family="Helvetica,sans-Serif" font-size="11.00">pulp_created</text>
<polygon fill="none" stroke="black" points="139,-101 139,-123 244,-123 244,-101 139,-101"/>
<text text-anchor="start" x="142" y="-109.2" font-family="Helvetica,sans-Serif" font-size="11.00">timestamptz[35,6]</text>
<polygon fill="none" stroke="black" points="10,-79 10,-101 139,-101 139,-79 10,-79"/>
<text text-anchor="start" x="30" y="-87.2" font-family="Helvetica,sans-Serif" font-size="11.00">pulp_last_updated</text>
<polygon fill="none" stroke="black" points="139,-79 139,-101 244,-101 244,-79 139,-79"/>
<text text-anchor="start" x="142" y="-87.2" font-family="Helvetica,sans-Serif" font-size="11.00">timestamptz[35,6]</text>
<polygon fill="#ffffff" stroke="none" points="10,-57 10,-79 139,-79 139,-57 10,-57"/>
<polygon fill="none" stroke="black" points="10,-57 10,-79 139,-79 139,-57 10,-57"/>
<text text-anchor="start" x="30" y="-65.2" font-family="Helvetica,sans-Serif" font-size="11.00">name</text>
<polygon fill="none" stroke="black" points="139,-57 139,-79 244,-79 244,-57 139,-57"/>
<text text-anchor="start" x="142" y="-65.2" font-family="Helvetica,sans-Serif" font-size="11.00">varchar[32]</text>
<polygon fill="#ffffff" stroke="none" points="10,-39 10,-57 65,-57 65,-39 10,-39"/>
<polygon fill="none" stroke="black" points="10,-39 10,-57 65,-57 65,-39 10,-39"/>
<text text-anchor="start" x="13" y="-45.2" font-family="Helvetica,sans-Serif" font-size="11.00">&lt; 0</text>
<polygon fill="#ffffff" stroke="none" points="65,-39 65,-57 139,-57 139,-39 65,-39"/>
<polygon fill="none" stroke="black" points="65,-39 65,-57 139,-57 139,-39 65,-39"/>
<text text-anchor="start" x="100" y="-45.2" font-family="Helvetica,sans-Serif" font-size="11.00">5 rows</text>
<polygon fill="#ffffff" stroke="none" points="139,-39 139,-57 244,-57 244,-39 139,-39"/>
<polygon fill="none" stroke="black" points="139,-39 139,-57 244,-57 244,-39 139,-39"/>
<text text-anchor="start" x="224" y="-45.2" font-family="Helvetica,sans-Serif" font-size="11.00">1 &gt;</text>
<polygon fill="none" stroke="black" stroke-width="2" points="9,-38 9,-168 245,-168 245,-38 9,-38"/>
</a>
</g>
</g>
<!-- ansible_collectionversion_tags&#45;&gt;ansible_tag -->
<g id="edge2" class="edge"><title>ansible_collectionversion_tags:tag_id:w&#45;&gt;ansible_tag:pulp_id.type:e</title>
<path fill="none" stroke="black" d="M279.884,-159.829C267.919,-151.585 264.55,-134 245,-134"/>
<polygon fill="black" stroke="black" points="286.328,-161.733 292.98,-167.452 290.164,-162.866 294,-164 294,-164 294,-164 290.164,-162.866 295.02,-160.548 286.328,-161.733 286.328,-161.733"/>
<ellipse fill="none" stroke="black" cx="283.259" cy="-160.826" rx="3.20001" ry="3.20001"/>
</g>
</g>
</svg>
