<?xml version="1.0" encoding="UTF-8" standalone="no"?>
<!DOCTYPE svg PUBLIC "-//W3C//DTD SVG 1.1//EN"
 "http://www.w3.org/Graphics/SVG/1.1/DTD/svg11.dtd">
<!-- Generated by graphviz version 2.38.0 (20140413.2041)
 -->
<!-- Title: twoDegreesRelationshipsDiagram Pages: 1 -->
<svg width="967pt" height="1096pt"
 viewBox="0.00 0.00 967.00 1096.00" xmlns="http://www.w3.org/2000/svg" xmlns:xlink="http://www.w3.org/1999/xlink">
<g id="graph0" class="graph" transform="scale(1 1) rotate(0) translate(4 1092)">
<title>twoDegreesRelationshipsDiagram</title>
<polygon fill="#ffffff" stroke="none" points="-4,4 -4,-1092 963,-1092 963,4 -4,4"/>
<text text-anchor="middle" x="74.5" y="-7.2" font-family="Helvetica,sans-Serif" font-size="11.00">Generated by SchemaSpy</text>
<!-- ansible_collectionversion -->
<g id="node1" class="node"><title>ansible_collectionversion</title>
<g id="a_node1"><a xlink:href="../../tables/ansible_collectionversion.html" xlink:title="ansible_collectionversion" target="_top">
<polygon fill="#ffffff" stroke="none" points="208,-565 208,-1005 506,-1005 506,-565 208,-565"/>
<polygon fill="#f5f5f5" stroke="none" points="210,-981 210,-1003 504,-1003 504,-981 210,-981"/>
<polygon fill="none" stroke="black" points="210,-981 210,-1003 504,-1003 504,-981 210,-981"/>
<text text-anchor="start" x="215" y="-990.2" font-family="Helvetica,sans-Serif" font-weight="bold" font-size="11.00">ansible_collectionversion</text>
<text text-anchor="start" x="465" y="-989.2" font-family="Helvetica,sans-Serif" font-size="11.00">[table]</text>
<polygon fill="none" stroke="black" points="210,-959 210,-981 381,-981 381,-959 210,-959"/>
<image xlink:href="../../images/primaryKeys.png" width="11px" height="12px" preserveAspectRatio="xMinYMin meet" x="215" y="-976"/>
<text text-anchor="start" x="230" y="-967.2" font-family="Helvetica,sans-Serif" font-size="11.00">content_ptr_id</text>
<polygon fill="none" stroke="black" points="381,-959 381,-981 504,-981 504,-959 381,-959"/>
<text text-anchor="start" x="384" y="-967.2" font-family="Helvetica,sans-Serif" font-size="11.00">uuid[2147483647]</text>
<polygon fill="#ffffff" stroke="none" points="210,-937 210,-959 381,-959 381,-937 210,-937"/>
<polygon fill="none" stroke="black" points="210,-937 210,-959 381,-959 381,-937 210,-937"/>
<text text-anchor="start" x="230" y="-945.2" font-family="Helvetica,sans-Serif" font-size="11.00">version</text>
<polygon fill="none" stroke="black" points="381,-937 381,-959 504,-959 504,-937 381,-937"/>
<text text-anchor="start" x="384" y="-945.2" font-family="Helvetica,sans-Serif" font-size="11.00">varchar[32]</text>
<polygon fill="none" stroke="black" points="210,-915 210,-937 381,-937 381,-915 210,-915"/>
<text text-anchor="start" x="230" y="-923.2" font-family="Helvetica,sans-Serif" font-size="11.00">contents</text>
<polygon fill="none" stroke="black" points="381,-915 381,-937 504,-937 504,-915 381,-915"/>
<text text-anchor="start" x="384" y="-923.2" font-family="Helvetica,sans-Serif" font-size="11.00">jsonb[2147483647]</text>
<polygon fill="#ffffff" stroke="none" points="210,-893 210,-915 381,-915 381,-893 210,-893"/>
<polygon fill="none" stroke="black" points="210,-893 210,-915 381,-915 381,-893 210,-893"/>
<image xlink:href="../../images/foreignKeys.png" width="11px" height="12px" preserveAspectRatio="xMinYMin meet" x="215" y="-910"/>
<text text-anchor="start" x="230" y="-901.2" font-family="Helvetica,sans-Serif" font-size="11.00">collection_id</text>
<polygon fill="none" stroke="black" points="381,-893 381,-915 504,-915 504,-893 381,-893"/>
<text text-anchor="start" x="384" y="-901.2" font-family="Helvetica,sans-Serif" font-size="11.00">uuid[2147483647]</text>
<polygon fill="none" stroke="black" points="210,-871 210,-893 381,-893 381,-871 210,-871"/>
<text text-anchor="start" x="230" y="-879.2" font-family="Helvetica,sans-Serif" font-size="11.00">authors</text>
<polygon fill="none" stroke="black" points="381,-871 381,-893 504,-893 504,-871 381,-871"/>
<text text-anchor="start" x="384" y="-879.2" font-family="Helvetica,sans-Serif" font-size="11.00">_varchar[64]</text>
<polygon fill="none" stroke="black" points="210,-849 210,-871 381,-871 381,-849 210,-849"/>
<text text-anchor="start" x="230" y="-857.2" font-family="Helvetica,sans-Serif" font-size="11.00">dependencies</text>
<polygon fill="none" stroke="black" points="381,-849 381,-871 504,-871 504,-849 381,-849"/>
<text text-anchor="start" x="384" y="-857.2" font-family="Helvetica,sans-Serif" font-size="11.00">jsonb[2147483647]</text>
<polygon fill="none" stroke="black" points="210,-827 210,-849 381,-849 381,-827 210,-827"/>
<text text-anchor="start" x="230" y="-835.2" font-family="Helvetica,sans-Serif" font-size="11.00">description</text>
<polygon fill="none" stroke="black" points="381,-827 381,-849 504,-849 504,-827 381,-827"/>
<text text-anchor="start" x="384" y="-835.2" font-family="Helvetica,sans-Serif" font-size="11.00">text[2147483647]</text>
<polygon fill="none" stroke="black" points="210,-805 210,-827 381,-827 381,-805 210,-805"/>
<text text-anchor="start" x="230" y="-813.2" font-family="Helvetica,sans-Serif" font-size="11.00">docs_blob</text>
<polygon fill="none" stroke="black" points="381,-805 381,-827 504,-827 504,-805 381,-805"/>
<text text-anchor="start" x="384" y="-813.2" font-family="Helvetica,sans-Serif" font-size="11.00">jsonb[2147483647]</text>
<polygon fill="none" stroke="black" points="210,-783 210,-805 381,-805 381,-783 210,-783"/>
<text text-anchor="start" x="230" y="-791.2" font-family="Helvetica,sans-Serif" font-size="11.00">documentation</text>
<polygon fill="none" stroke="black" points="381,-783 381,-805 504,-805 504,-783 381,-783"/>
<text text-anchor="start" x="384" y="-791.2" font-family="Helvetica,sans-Serif" font-size="11.00">varchar[2000]</text>
<polygon fill="none" stroke="black" points="210,-761 210,-783 381,-783 381,-761 210,-761"/>
<text text-anchor="start" x="230" y="-769.2" font-family="Helvetica,sans-Serif" font-size="11.00">homepage</text>
<polygon fill="none" stroke="black" points="381,-761 381,-783 504,-783 504,-761 381,-761"/>
<text text-anchor="start" x="384" y="-769.2" font-family="Helvetica,sans-Serif" font-size="11.00">varchar[2000]</text>
<polygon fill="none" stroke="black" points="210,-739 210,-761 381,-761 381,-739 210,-739"/>
<text text-anchor="start" x="230" y="-747.2" font-family="Helvetica,sans-Serif" font-size="11.00">issues</text>
<polygon fill="none" stroke="black" points="381,-739 381,-761 504,-761 504,-739 381,-739"/>
<text text-anchor="start" x="384" y="-747.2" font-family="Helvetica,sans-Serif" font-size="11.00">varchar[2000]</text>
<polygon fill="none" stroke="black" points="210,-717 210,-739 381,-739 381,-717 210,-717"/>
<text text-anchor="start" x="230" y="-725.2" font-family="Helvetica,sans-Serif" font-size="11.00">license</text>
<polygon fill="none" stroke="black" points="381,-717 381,-739 504,-739 504,-717 381,-717"/>
<text text-anchor="start" x="384" y="-725.2" font-family="Helvetica,sans-Serif" font-size="11.00">_varchar[32]</text>
<polygon fill="#ffffff" stroke="none" points="210,-695 210,-717 381,-717 381,-695 210,-695"/>
<polygon fill="none" stroke="black" points="210,-695 210,-717 381,-717 381,-695 210,-695"/>
<text text-anchor="start" x="230" y="-703.2" font-family="Helvetica,sans-Serif" font-size="11.00">name</text>
<polygon fill="none" stroke="black" points="381,-695 381,-717 504,-717 504,-695 381,-695"/>
<text text-anchor="start" x="384" y="-703.2" font-family="Helvetica,sans-Serif" font-size="11.00">varchar[64]</text>
<polygon fill="#ffffff" stroke="none" points="210,-673 210,-695 381,-695 381,-673 210,-673"/>
<polygon fill="none" stroke="black" points="210,-673 210,-695 381,-695 381,-673 210,-673"/>
<text text-anchor="start" x="230" y="-681.2" font-family="Helvetica,sans-Serif" font-size="11.00">namespace</text>
<polygon fill="none" stroke="black" points="381,-673 381,-695 504,-695 504,-673 381,-673"/>
<text text-anchor="start" x="384" y="-681.2" font-family="Helvetica,sans-Serif" font-size="11.00">varchar[32]</text>
<polygon fill="none" stroke="black" points="210,-651 210,-673 381,-673 381,-651 210,-651"/>
<text text-anchor="start" x="230" y="-659.2" font-family="Helvetica,sans-Serif" font-size="11.00">repository</text>
<polygon fill="none" stroke="black" points="381,-651 381,-673 504,-673 504,-651 381,-651"/>
<text text-anchor="start" x="384" y="-659.2" font-family="Helvetica,sans-Serif" font-size="11.00">varchar[2000]</text>
<polygon fill="none" stroke="black" points="210,-629 210,-651 381,-651 381,-629 210,-629"/>
<text text-anchor="start" x="230" y="-637.2" font-family="Helvetica,sans-Serif" font-size="11.00">search_vector</text>
<polygon fill="none" stroke="black" points="381,-629 381,-651 504,-651 504,-629 381,-629"/>
<text text-anchor="start" x="384" y="-637.2" font-family="Helvetica,sans-Serif" font-size="11.00">tsvector[2147483647]</text>
<polygon fill="#ffffff" stroke="none" points="210,-607 210,-629 381,-629 381,-607 210,-607"/>
<polygon fill="none" stroke="black" points="210,-607 210,-629 381,-629 381,-607 210,-607"/>
<text text-anchor="start" x="230" y="-615.2" font-family="Helvetica,sans-Serif" font-size="11.00">is_highest</text>
<polygon fill="none" stroke="black" points="381,-607 381,-629 504,-629 504,-607 381,-607"/>
<text text-anchor="start" x="384" y="-615.2" font-family="Helvetica,sans-Serif" font-size="11.00">bool[1]</text>
<polygon fill="none" stroke="black" points="210,-585 210,-607 381,-607 381,-585 210,-585"/>
<text text-anchor="start" x="230" y="-593.2" font-family="Helvetica,sans-Serif" font-size="11.00">certification</text>
<polygon fill="none" stroke="black" points="381,-585 381,-607 504,-607 504,-585 381,-585"/>
<text text-anchor="start" x="384" y="-593.2" font-family="Helvetica,sans-Serif" font-size="11.00">varchar[13]</text>
<polygon fill="#ffffff" stroke="none" points="210,-567 210,-585 282,-585 282,-567 210,-567"/>
<polygon fill="none" stroke="black" points="210,-567 210,-585 282,-585 282,-567 210,-567"/>
<text text-anchor="start" x="213" y="-573.2" font-family="Helvetica,sans-Serif" font-size="11.00">&lt; 2</text>
<polygon fill="#ffffff" stroke="none" points="282,-567 282,-585 381,-585 381,-567 282,-567"/>
<polygon fill="none" stroke="black" points="282,-567 282,-585 381,-585 381,-567 282,-567"/>
<text text-anchor="start" x="335" y="-573.2" font-family="Helvetica,sans-Serif" font-size="11.00">88 rows</text>
<polygon fill="#ffffff" stroke="none" points="381,-567 381,-585 504,-585 504,-567 381,-567"/>
<polygon fill="none" stroke="black" points="381,-567 381,-585 504,-585 504,-567 381,-567"/>
<text text-anchor="start" x="484" y="-573.2" font-family="Helvetica,sans-Serif" font-size="11.00">1 &gt;</text>
<polygon fill="none" stroke="black" stroke-width="2" points="209,-566 209,-1004 505,-1004 505,-566 209,-566"/>
</a>
</g>
</g>
<!-- ansible_collection -->
<g id="node2" class="node"><title>ansible_collection</title>
<g id="a_node2"><a xlink:href="../../tables/ansible_collection.html" xlink:title="ansible_collection" target="_top">
<polygon fill="#ffffff" stroke="none" points="8,-887 8,-1011 159,-1011 159,-887 8,-887"/>
<polygon fill="#f5f5f5" stroke="none" points="8.5,-989 8.5,-1011 159.5,-1011 159.5,-989 8.5,-989"/>
<polygon fill="none" stroke="black" points="8.5,-989 8.5,-1011 159.5,-1011 159.5,-989 8.5,-989"/>
<text text-anchor="start" x="13.5" y="-998.2" font-family="Helvetica,sans-Serif" font-weight="bold" font-size="11.00">ansible_collection</text>
<text text-anchor="start" x="120.5" y="-997.2" font-family="Helvetica,sans-Serif" font-size="11.00">[table]</text>
<polygon fill="none" stroke="black" points="8.5,-967 8.5,-989 159.5,-989 159.5,-967 8.5,-967"/>
<image xlink:href="../../images/primaryKeys.png" width="11px" height="12px" preserveAspectRatio="xMinYMin meet" x="13.5" y="-984"/>
<text text-anchor="start" x="39.5" y="-975.2" font-family="Helvetica,sans-Serif" font-size="11.00">pulp_id</text>
<polygon fill="#ffffff" stroke="none" points="8.5,-945 8.5,-967 159.5,-967 159.5,-945 8.5,-945"/>
<polygon fill="none" stroke="black" points="8.5,-945 8.5,-967 159.5,-967 159.5,-945 8.5,-945"/>
<text text-anchor="start" x="39.5" y="-953.2" font-family="Helvetica,sans-Serif" font-size="11.00">namespace</text>
<polygon fill="#ffffff" stroke="none" points="8.5,-923 8.5,-945 159.5,-945 159.5,-923 8.5,-923"/>
<polygon fill="none" stroke="black" points="8.5,-923 8.5,-945 159.5,-945 159.5,-923 8.5,-923"/>
<text text-anchor="start" x="39.5" y="-931.2" font-family="Helvetica,sans-Serif" font-size="11.00">name</text>
<polygon fill="none" stroke="black" points="8.5,-905 8.5,-923 159.5,-923 159.5,-905 8.5,-905"/>
<text text-anchor="start" x="11.5" y="-911.2" font-family="Helvetica,sans-Serif" font-size="11.00">...</text>
<polygon fill="#ffffff" stroke="none" points="8.5,-887 8.5,-905 57.5,-905 57.5,-887 8.5,-887"/>
<polygon fill="none" stroke="black" points="8.5,-887 8.5,-905 57.5,-905 57.5,-887 8.5,-887"/>
<text text-anchor="start" x="11.5" y="-893.2" font-family="Helvetica,sans-Serif" font-size="11.00"> &#160;</text>
<polygon fill="#ffffff" stroke="none" points="57.5,-887 57.5,-905 117.5,-905 117.5,-887 57.5,-887"/>
<polygon fill="none" stroke="black" points="57.5,-887 57.5,-905 117.5,-905 117.5,-887 57.5,-887"/>
<text text-anchor="start" x="78.5" y="-893.2" font-family="Helvetica,sans-Serif" font-size="11.00">4 rows</text>
<polygon fill="#ffffff" stroke="none" points="117.5,-887 117.5,-905 159.5,-905 159.5,-887 117.5,-887"/>
<polygon fill="none" stroke="black" points="117.5,-887 117.5,-905 159.5,-905 159.5,-887 117.5,-887"/>
<text text-anchor="start" x="139.5" y="-893.2" font-family="Helvetica,sans-Serif" font-size="11.00">2 &gt;</text>
</a>
</g>
</g>
<!-- ansible_collectionversion&#45;&gt;ansible_collection -->
<g id="edge1" class="edge"><title>ansible_collectionversion:collection_id:w&#45;&gt;ansible_collection:pulp_id:e</title>
<path fill="none" stroke="black" d="M195.125,-908.855C177.401,-925.318 193.679,-978 160.5,-978"/>
<polygon fill="black" stroke="black" points="201.449,-906.642 210.189,-907.398 205.224,-905.321 209,-904 209,-904 209,-904 205.224,-905.321 207.811,-900.602 201.449,-906.642 201.449,-906.642"/>
<ellipse fill="none" stroke="black" cx="198.429" cy="-907.699" rx="3.20001" ry="3.20001"/>
</g>
<!-- core_content -->
<g id="node3" class="node"><title>core_content</title>
<g id="a_node3"><a xlink:href="../../tables/core_content.html" xlink:title="core_content" target="_top">
<polygon fill="#ffffff" stroke="none" points="19,-203 19,-283 148,-283 148,-203 19,-203"/>
<polygon fill="#f5f5f5" stroke="none" points="19.5,-261 19.5,-283 148.5,-283 148.5,-261 19.5,-261"/>
<polygon fill="none" stroke="black" points="19.5,-261 19.5,-283 148.5,-283 148.5,-261 19.5,-261"/>
<text text-anchor="start" x="24.5" y="-270.2" font-family="Helvetica,sans-Serif" font-weight="bold" font-size="11.00">core_content</text>
<text text-anchor="start" x="109.5" y="-269.2" font-family="Helvetica,sans-Serif" font-size="11.00">[table]</text>
<polygon fill="none" stroke="black" points="19.5,-239 19.5,-261 148.5,-261 148.5,-239 19.5,-239"/>
<image xlink:href="../../images/primaryKeys.png" width="11px" height="12px" preserveAspectRatio="xMinYMin meet" x="24.5" y="-256"/>
<text text-anchor="start" x="39.5" y="-247.2" font-family="Helvetica,sans-Serif" font-size="11.00">pulp_id</text>
<polygon fill="none" stroke="black" points="19.5,-221 19.5,-239 148.5,-239 148.5,-221 19.5,-221"/>
<text text-anchor="start" x="22.5" y="-227.2" font-family="Helvetica,sans-Serif" font-size="11.00">...</text>
<polygon fill="#ffffff" stroke="none" points="19.5,-203 19.5,-221 54.5,-221 54.5,-203 19.5,-203"/>
<polygon fill="none" stroke="black" points="19.5,-203 19.5,-221 54.5,-221 54.5,-203 19.5,-203"/>
<text text-anchor="start" x="22.5" y="-209.2" font-family="Helvetica,sans-Serif" font-size="11.00"> &#160;</text>
<polygon fill="#ffffff" stroke="none" points="54.5,-203 54.5,-221 114.5,-221 114.5,-203 54.5,-203"/>
<polygon fill="none" stroke="black" points="54.5,-203 54.5,-221 114.5,-221 114.5,-203 54.5,-203"/>
<text text-anchor="start" x="68.5" y="-209.2" font-family="Helvetica,sans-Serif" font-size="11.00">88 rows</text>
<polygon fill="#ffffff" stroke="none" points="114.5,-203 114.5,-221 148.5,-221 148.5,-203 114.5,-203"/>
<polygon fill="none" stroke="black" points="114.5,-203 114.5,-221 148.5,-221 148.5,-203 114.5,-203"/>
<text text-anchor="start" x="128.5" y="-209.2" font-family="Helvetica,sans-Serif" font-size="11.00">8 &gt;</text>
</a>
</g>
</g>
<!-- ansible_collectionversion&#45;&gt;core_content -->
<g id="edge2" class="edge"><title>ansible_collectionversion:content_ptr_id:w&#45;&gt;core_content:pulp_id:e</title>
<path fill="none" stroke="black" d="M199.247,-965.772C137.44,-906.765 226.167,-250 149.5,-250"/>
<polygon fill="black" stroke="black" points="209.857,-966.012 206.675,-973.352 205.207,-972.715 208.389,-965.375 209.857,-966.012"/>
<polyline fill="none" stroke="black" points="209,-970 205.33,-968.409 "/>
<ellipse fill="none" stroke="black" cx="202.394" cy="-967.136" rx="3.20001" ry="3.20001"/>
</g>
<!-- ansible_collectionversion_tags -->
<g id="node4" class="node"><title>ansible_collectionversion_tags</title>
<g id="a_node4"><a xlink:href="../../tables/ansible_collectionversion_tags.html" xlink:title="ansible_collectionversion_tags" target="_top">
<polygon fill="#ffffff" stroke="none" points="555,-701 555,-807 775,-807 775,-701 555,-701"/>
<polygon fill="#f5f5f5" stroke="none" points="555,-785 555,-807 775,-807 775,-785 555,-785"/>
<polygon fill="none" stroke="black" points="555,-785 555,-807 775,-807 775,-785 555,-785"/>
<text text-anchor="start" x="560" y="-794.2" font-family="Helvetica,sans-Serif" font-weight="bold" font-size="11.00">ansible_collectionversion_tags</text>
<text text-anchor="start" x="736" y="-793.2" font-family="Helvetica,sans-Serif" font-size="11.00">[table]</text>
<polygon fill="none" stroke="black" points="555,-763 555,-785 775,-785 775,-763 555,-763"/>
<image xlink:href="../../images/primaryKeys.png" width="11px" height="12px" preserveAspectRatio="xMinYMin meet" x="560" y="-780"/>
<text text-anchor="start" x="585" y="-771.2" font-family="Helvetica,sans-Serif" font-size="11.00">id</text>
<polygon fill="#ffffff" stroke="none" points="555,-741 555,-763 775,-763 775,-741 555,-741"/>
<polygon fill="none" stroke="black" points="555,-741 555,-763 775,-763 775,-741 555,-741"/>
<image xlink:href="../../images/foreignKeys.png" width="11px" height="12px" preserveAspectRatio="xMinYMin meet" x="560" y="-758"/>
<text text-anchor="start" x="585" y="-749.2" font-family="Helvetica,sans-Serif" font-size="11.00">collectionversion_id</text>
<polygon fill="#ffffff" stroke="none" points="555,-719 555,-741 775,-741 775,-719 555,-719"/>
<polygon fill="none" stroke="black" points="555,-719 555,-741 775,-741 775,-719 555,-719"/>
<image xlink:href="../../images/foreignKeys.png" width="11px" height="12px" preserveAspectRatio="xMinYMin meet" x="560" y="-736"/>
<text text-anchor="start" x="585" y="-727.2" font-family="Helvetica,sans-Serif" font-size="11.00">tag_id</text>
<polygon fill="#ffffff" stroke="none" points="555,-701 555,-719 645,-719 645,-701 555,-701"/>
<polygon fill="none" stroke="black" points="555,-701 555,-719 645,-719 645,-701 555,-701"/>
<text text-anchor="start" x="558" y="-707.2" font-family="Helvetica,sans-Serif" font-size="11.00">&lt; 2</text>
<polygon fill="#ffffff" stroke="none" points="645,-701 645,-719 728,-719 728,-701 645,-701"/>
<polygon fill="none" stroke="black" points="645,-701 645,-719 728,-719 728,-701 645,-701"/>
<text text-anchor="start" x="682" y="-707.2" font-family="Helvetica,sans-Serif" font-size="11.00">10 rows</text>
<polygon fill="#ffffff" stroke="none" points="728,-701 728,-719 775,-719 775,-701 728,-701"/>
<polygon fill="none" stroke="black" points="728,-701 728,-719 775,-719 775,-701 728,-701"/>
<text text-anchor="start" x="765" y="-707.2" font-family="Helvetica,sans-Serif" font-size="11.00"> &#160;</text>
</a>
</g>
</g>
<!-- ansible_collectionversion_tags&#45;&gt;ansible_collectionversion -->
<g id="edge3" class="edge"><title>ansible_collectionversion_tags:collectionversion_id:w&#45;&gt;ansible_collectionversion:content_ptr_id.type:e</title>
<path fill="none" stroke="black" d="M539.431,-754.019C470.843,-775.996 598.681,-970 505,-970"/>
<polygon fill="black" stroke="black" points="546.076,-753.098 554.494,-755.566 550.038,-752.549 554,-752 554,-752 554,-752 550.038,-752.549 553.506,-748.434 546.076,-753.098 546.076,-753.098"/>
<ellipse fill="none" stroke="black" cx="542.906" cy="-753.537" rx="3.2" ry="3.2"/>
</g>
<!-- ansible_tag -->
<g id="node5" class="node"><title>ansible_tag</title>
<g id="a_node5"><a xlink:href="../../tables/ansible_tag.html" xlink:title="ansible_tag" target="_top">
<polygon fill="#ffffff" stroke="none" points="301,-486 301,-544 413,-544 413,-486 301,-486"/>
<polygon fill="#f5f5f5" stroke="none" points="301,-522 301,-544 413,-544 413,-522 301,-522"/>
<polygon fill="none" stroke="black" points="301,-522 301,-544 413,-544 413,-522 301,-522"/>
<text text-anchor="start" x="306" y="-531.2" font-family="Helvetica,sans-Serif" font-weight="bold" font-size="11.00">ansible_tag</text>
<text text-anchor="start" x="374" y="-530.2" font-family="Helvetica,sans-Serif" font-size="11.00">[table]</text>
<polygon fill="none" stroke="black" points="301,-504 301,-522 413,-522 413,-504 301,-504"/>
<text text-anchor="start" x="304" y="-510.2" font-family="Helvetica,sans-Serif" font-size="11.00">...</text>
<polygon fill="#ffffff" stroke="none" points="301,-486 301,-504 331,-504 331,-486 301,-486"/>
<polygon fill="none" stroke="black" points="301,-486 301,-504 331,-504 331,-486 301,-486"/>
<text text-anchor="start" x="304" y="-492.2" font-family="Helvetica,sans-Serif" font-size="11.00"> &#160;</text>
<polygon fill="#ffffff" stroke="none" points="331,-486 331,-504 381,-504 381,-486 331,-486"/>
<polygon fill="none" stroke="black" points="331,-486 331,-504 381,-504 381,-486 331,-486"/>
<text text-anchor="start" x="342" y="-492.2" font-family="Helvetica,sans-Serif" font-size="11.00">5 rows</text>
<polygon fill="#ffffff" stroke="none" points="381,-486 381,-504 413,-504 413,-486 381,-486"/>
<polygon fill="none" stroke="black" points="381,-486 381,-504 413,-504 413,-486 381,-486"/>
<text text-anchor="start" x="393" y="-492.2" font-family="Helvetica,sans-Serif" font-size="11.00">1 &gt;</text>
</a>
</g>
</g>
<!-- ansible_collectionversion_tags&#45;&gt;ansible_tag -->
<g id="edge4" class="edge"><title>ansible_collectionversion_tags:tag_id:w&#45;&gt;ansible_tag:elipses:e</title>
<path fill="none" stroke="black" d="M539.596,-728.368C486.325,-714.241 561.724,-611.782 514,-555 482.984,-518.098 462.205,-513 414,-513"/>
<polygon fill="black" stroke="black" points="546.051,-729.099 553.595,-733.577 550.025,-729.55 554,-730 554,-730 554,-730 550.025,-729.55 554.405,-726.423 546.051,-729.099 546.051,-729.099"/>
<ellipse fill="none" stroke="black" cx="542.871" cy="-728.739" rx="3.2" ry="3.2"/>
</g>
<!-- ansible_role -->
<g id="node6" class="node"><title>ansible_role</title>
<g id="a_node6"><a xlink:href="../../tables/ansible_role.html" xlink:title="ansible_role" target="_top">
<polygon fill="#ffffff" stroke="none" points="298.5,-249 298.5,-307 415.5,-307 415.5,-249 298.5,-249"/>
<polygon fill="#f5f5f5" stroke="none" points="299,-285 299,-307 416,-307 416,-285 299,-285"/>
<polygon fill="none" stroke="black" points="299,-285 299,-307 416,-307 416,-285 299,-285"/>
<text text-anchor="start" x="304" y="-294.2" font-family="Helvetica,sans-Serif" font-weight="bold" font-size="11.00">ansible_role</text>
<text text-anchor="start" x="377" y="-293.2" font-family="Helvetica,sans-Serif" font-size="11.00">[table]</text>
<polygon fill="none" stroke="black" points="299,-267 299,-285 416,-285 416,-267 299,-267"/>
<text text-anchor="start" x="302" y="-273.2" font-family="Helvetica,sans-Serif" font-size="11.00">...</text>
<polygon fill="#ffffff" stroke="none" points="299,-249 299,-267 341,-267 341,-249 299,-249"/>
<polygon fill="none" stroke="black" points="299,-249 299,-267 341,-267 341,-249 299,-249"/>
<text text-anchor="start" x="302" y="-255.2" font-family="Helvetica,sans-Serif" font-size="11.00">&lt; 1</text>
<polygon fill="#ffffff" stroke="none" points="341,-249 341,-267 393,-267 393,-249 341,-249"/>
<polygon fill="none" stroke="black" points="341,-249 341,-267 393,-267 393,-249 341,-249"/>
<text text-anchor="start" x="354" y="-255.2" font-family="Helvetica,sans-Serif" font-size="11.00">0 rows</text>
<polygon fill="#ffffff" stroke="none" points="393,-249 393,-267 416,-267 416,-249 393,-249"/>
<polygon fill="none" stroke="black" points="393,-249 393,-267 416,-267 416,-249 393,-249"/>
<text text-anchor="start" x="406" y="-255.2" font-family="Helvetica,sans-Serif" font-size="11.00"> &#160;</text>
</a>
</g>
</g>
<!-- ansible_role&#45;&gt;core_content -->
<g id="edge5" class="edge"><title>ansible_role:elipses:w&#45;&gt;core_content:pulp_id:e</title>
<path fill="none" stroke="black" d="M287.461,-275.775C229.254,-273.234 212.84,-250 149.5,-250"/>
<polygon fill="black" stroke="black" points="297.286,-271.984 297.115,-279.982 295.515,-279.948 295.686,-271.95 297.286,-271.984"/>
<polyline fill="none" stroke="black" points="298,-276 294.001,-275.915 "/>
<ellipse fill="none" stroke="black" cx="290.802" cy="-275.846" rx="3.2" ry="3.2"/>
</g>
<!-- container_blob -->
<g id="node7" class="node"><title>container_blob</title>
<g id="a_node7"><a xlink:href="../../tables/container_blob.html" xlink:title="container_blob" target="_top">
<polygon fill="#ffffff" stroke="none" points="290,-328 290,-386 424,-386 424,-328 290,-328"/>
<polygon fill="#f5f5f5" stroke="none" points="290,-364 290,-386 424,-386 424,-364 290,-364"/>
<polygon fill="none" stroke="black" points="290,-364 290,-386 424,-386 424,-364 290,-364"/>
<text text-anchor="start" x="295" y="-373.2" font-family="Helvetica,sans-Serif" font-weight="bold" font-size="11.00">container_blob</text>
<text text-anchor="start" x="385" y="-372.2" font-family="Helvetica,sans-Serif" font-size="11.00">[table]</text>
<polygon fill="none" stroke="black" points="290,-346 290,-364 424,-364 424,-346 290,-346"/>
<text text-anchor="start" x="293" y="-352.2" font-family="Helvetica,sans-Serif" font-size="11.00">...</text>
<polygon fill="#ffffff" stroke="none" points="290,-328 290,-346 336,-346 336,-328 290,-328"/>
<polygon fill="none" stroke="black" points="290,-328 290,-346 336,-346 336,-328 290,-328"/>
<text text-anchor="start" x="293" y="-334.2" font-family="Helvetica,sans-Serif" font-size="11.00">&lt; 1</text>
<polygon fill="#ffffff" stroke="none" points="336,-328 336,-346 389,-346 389,-328 336,-328"/>
<polygon fill="none" stroke="black" points="336,-328 336,-346 389,-346 389,-328 336,-328"/>
<text text-anchor="start" x="350" y="-334.2" font-family="Helvetica,sans-Serif" font-size="11.00">0 rows</text>
<polygon fill="#ffffff" stroke="none" points="389,-328 389,-346 424,-346 424,-328 389,-328"/>
<polygon fill="none" stroke="black" points="389,-328 389,-346 424,-346 424,-328 389,-328"/>
<text text-anchor="start" x="404" y="-334.2" font-family="Helvetica,sans-Serif" font-size="11.00">2 &gt;</text>
</a>
</g>
</g>
<!-- container_blob&#45;&gt;core_content -->
<g id="edge6" class="edge"><title>container_blob:elipses:w&#45;&gt;core_content:pulp_id:e</title>
<path fill="none" stroke="black" d="M278.597,-354.761C243.873,-353.056 230.861,-342.1 200,-318 170.33,-294.83 187.145,-250 149.5,-250"/>
<polygon fill="black" stroke="black" points="288.292,-350.983 288.108,-358.981 286.509,-358.944 286.692,-350.946 288.292,-350.983"/>
<polyline fill="none" stroke="black" points="289,-355 285.001,-354.908 "/>
<ellipse fill="none" stroke="black" cx="281.802" cy="-354.835" rx="3.2" ry="3.2"/>
</g>
<!-- container_manifest -->
<g id="node8" class="node"><title>container_manifest</title>
<g id="a_node8"><a xlink:href="../../tables/container_manifest.html" xlink:title="container_manifest" target="_top">
<polygon fill="#ffffff" stroke="none" points="585,-222 585,-280 745,-280 745,-222 585,-222"/>
<polygon fill="#f5f5f5" stroke="none" points="585,-258 585,-280 745,-280 745,-258 585,-258"/>
<polygon fill="none" stroke="black" points="585,-258 585,-280 745,-280 745,-258 585,-258"/>
<text text-anchor="start" x="590" y="-267.2" font-family="Helvetica,sans-Serif" font-weight="bold" font-size="11.00">container_manifest</text>
<text text-anchor="start" x="706" y="-266.2" font-family="Helvetica,sans-Serif" font-size="11.00">[table]</text>
<polygon fill="none" stroke="black" points="585,-240 585,-258 745,-258 745,-240 585,-240"/>
<text text-anchor="start" x="588" y="-246.2" font-family="Helvetica,sans-Serif" font-size="11.00">...</text>
<polygon fill="#ffffff" stroke="none" points="585,-222 585,-240 644,-240 644,-222 585,-222"/>
<polygon fill="none" stroke="black" points="585,-222 585,-240 644,-240 644,-222 585,-222"/>
<text text-anchor="start" x="588" y="-228.2" font-family="Helvetica,sans-Serif" font-size="11.00">&lt; 2</text>
<polygon fill="#ffffff" stroke="none" points="644,-222 644,-240 704,-240 704,-222 644,-222"/>
<polygon fill="none" stroke="black" points="644,-222 644,-240 704,-240 704,-222 644,-222"/>
<text text-anchor="start" x="665" y="-228.2" font-family="Helvetica,sans-Serif" font-size="11.00">0 rows</text>
<polygon fill="#ffffff" stroke="none" points="704,-222 704,-240 745,-240 745,-222 704,-222"/>
<polygon fill="none" stroke="black" points="704,-222 704,-240 745,-240 745,-222 704,-222"/>
<text text-anchor="start" x="725" y="-228.2" font-family="Helvetica,sans-Serif" font-size="11.00">4 &gt;</text>
</a>
</g>
</g>
<!-- container_manifest&#45;&gt;core_content -->
<g id="edge8" class="edge"><title>container_manifest:elipses:w&#45;&gt;core_content:pulp_id:e</title>
<path fill="none" stroke="black" d="M573.545,-248.65C550.429,-247.019 541.595,-240.155 514,-238 374.868,-227.135 338.607,-221.758 200,-238 177.087,-240.685 172.569,-250 149.5,-250"/>
<polygon fill="black" stroke="black" points="583.334,-244.975 583.067,-252.971 581.467,-252.917 581.735,-244.922 583.334,-244.975"/>
<polyline fill="none" stroke="black" points="584,-249 580.002,-248.866 "/>
<ellipse fill="none" stroke="black" cx="576.804" cy="-248.759" rx="3.2" ry="3.2"/>
</g>
<!-- container_manifest&#45;&gt;container_blob -->
<g id="edge7" class="edge"><title>container_manifest:elipses:w&#45;&gt;container_blob:elipses:e</title>
<path fill="none" stroke="black" d="M569.572,-251.095C542.142,-260.216 545.702,-296.952 514,-318 478.312,-341.694 467.838,-355 425,-355"/>
<polygon fill="black" stroke="black" points="576.083,-250.15 584.517,-252.563 580.042,-249.575 584,-249 584,-249 584,-249 580.042,-249.575 583.483,-245.437 576.083,-250.15 576.083,-250.15"/>
<ellipse fill="none" stroke="black" cx="572.916" cy="-250.609" rx="3.2" ry="3.2"/>
</g>
<!-- container_tag -->
<g id="node9" class="node"><title>container_tag</title>
<g id="a_node9"><a xlink:href="../../tables/container_tag.html" xlink:title="container_tag" target="_top">
<polygon fill="#ffffff" stroke="none" points="824,-196 824,-254 951,-254 951,-196 824,-196"/>
<polygon fill="#f5f5f5" stroke="none" points="824.5,-232 824.5,-254 951.5,-254 951.5,-232 824.5,-232"/>
<polygon fill="none" stroke="black" points="824.5,-232 824.5,-254 951.5,-254 951.5,-232 824.5,-232"/>
<text text-anchor="start" x="829.5" y="-241.2" font-family="Helvetica,sans-Serif" font-weight="bold" font-size="11.00">container_tag</text>
<text text-anchor="start" x="912.5" y="-240.2" font-family="Helvetica,sans-Serif" font-size="11.00">[table]</text>
<polygon fill="none" stroke="black" points="824.5,-214 824.5,-232 951.5,-232 951.5,-214 824.5,-214"/>
<text text-anchor="start" x="827.5" y="-220.2" font-family="Helvetica,sans-Serif" font-size="11.00">...</text>
<polygon fill="#ffffff" stroke="none" points="824.5,-196 824.5,-214 871.5,-214 871.5,-196 824.5,-196"/>
<polygon fill="none" stroke="black" points="824.5,-196 824.5,-214 871.5,-214 871.5,-196 824.5,-196"/>
<text text-anchor="start" x="827.5" y="-202.2" font-family="Helvetica,sans-Serif" font-size="11.00">&lt; 2</text>
<polygon fill="#ffffff" stroke="none" points="871.5,-196 871.5,-214 925.5,-214 925.5,-196 871.5,-196"/>
<polygon fill="none" stroke="black" points="871.5,-196 871.5,-214 925.5,-214 925.5,-196 871.5,-196"/>
<text text-anchor="start" x="886.5" y="-202.2" font-family="Helvetica,sans-Serif" font-size="11.00">0 rows</text>
<polygon fill="#ffffff" stroke="none" points="925.5,-196 925.5,-214 951.5,-214 951.5,-196 925.5,-196"/>
<polygon fill="none" stroke="black" points="925.5,-196 925.5,-214 951.5,-214 951.5,-196 925.5,-196"/>
<text text-anchor="start" x="941.5" y="-202.2" font-family="Helvetica,sans-Serif" font-size="11.00"> &#160;</text>
</a>
</g>
</g>
<!-- container_tag&#45;&gt;core_content -->
<g id="edge9" class="edge"><title>container_tag:elipses:w&#45;&gt;core_content:pulp_id:e</title>
<path fill="none" stroke="black" d="M813.098,-221.831C802.611,-219.245 797.515,-213.105 783,-211 654.749,-192.399 325.564,-192.938 200,-225 175.734,-231.196 174.544,-250 149.5,-250"/>
<polygon fill="black" stroke="black" points="823.152,-218.936 822.258,-226.886 820.668,-226.707 821.562,-218.757 823.152,-218.936"/>
<polyline fill="none" stroke="black" points="823.5,-223 819.525,-222.553 "/>
<ellipse fill="none" stroke="black" cx="816.345" cy="-222.196" rx="3.2" ry="3.2"/>
</g>
<!-- container_tag&#45;&gt;container_manifest -->
<g id="edge10" class="edge"><title>container_tag:elipses:w&#45;&gt;container_manifest:elipses:e</title>
<path fill="none" stroke="black" d="M808.866,-224.626C784.964,-230.318 776.796,-249 746,-249"/>
<polygon fill="black" stroke="black" points="815.549,-223.884 823.898,-226.578 819.524,-223.442 823.5,-223 823.5,-223 823.5,-223 819.524,-223.442 823.102,-219.422 815.549,-223.884 815.549,-223.884"/>
<ellipse fill="none" stroke="black" cx="812.369" cy="-224.237" rx="3.2" ry="3.2"/>
</g>
<!-- core_contentartifact -->
<g id="node10" class="node"><title>core_contentartifact</title>
<g id="a_node10"><a xlink:href="../../tables/core_contentartifact.html" xlink:title="core_contentartifact" target="_top">
<polygon fill="#ffffff" stroke="none" points="274,-116 274,-174 440,-174 440,-116 274,-116"/>
<polygon fill="#f5f5f5" stroke="none" points="274,-152 274,-174 440,-174 440,-152 274,-152"/>
<polygon fill="none" stroke="black" points="274,-152 274,-174 440,-174 440,-152 274,-152"/>
<text text-anchor="start" x="279" y="-161.2" font-family="Helvetica,sans-Serif" font-weight="bold" font-size="11.00">core_contentartifact</text>
<text text-anchor="start" x="401" y="-160.2" font-family="Helvetica,sans-Serif" font-size="11.00">[table]</text>
<polygon fill="none" stroke="black" points="274,-134 274,-152 440,-152 440,-134 274,-134"/>
<text text-anchor="start" x="277" y="-140.2" font-family="Helvetica,sans-Serif" font-size="11.00">...</text>
<polygon fill="#ffffff" stroke="none" points="274,-116 274,-134 332,-134 332,-116 274,-116"/>
<polygon fill="none" stroke="black" points="274,-116 274,-134 332,-134 332,-116 274,-116"/>
<text text-anchor="start" x="277" y="-122.2" font-family="Helvetica,sans-Serif" font-size="11.00">&lt; 2</text>
<polygon fill="#ffffff" stroke="none" points="332,-116 332,-134 399,-134 399,-116 332,-116"/>
<polygon fill="none" stroke="black" points="332,-116 332,-134 399,-134 399,-116 332,-116"/>
<text text-anchor="start" x="353" y="-122.2" font-family="Helvetica,sans-Serif" font-size="11.00">88 rows</text>
<polygon fill="#ffffff" stroke="none" points="399,-116 399,-134 440,-134 440,-116 399,-116"/>
<polygon fill="none" stroke="black" points="399,-116 399,-134 440,-134 440,-116 399,-116"/>
<text text-anchor="start" x="420" y="-122.2" font-family="Helvetica,sans-Serif" font-size="11.00">2 &gt;</text>
</a>
</g>
</g>
<!-- core_contentartifact&#45;&gt;core_content -->
<g id="edge11" class="edge"><title>core_contentartifact:elipses:w&#45;&gt;core_content:pulp_id:e</title>
<path fill="none" stroke="black" d="M258.308,-144.201C232.617,-148.854 224.516,-166.505 200,-188 173.277,-211.43 185.04,-250 149.5,-250"/>
<polygon fill="black" stroke="black" points="265.027,-143.652 273.293,-146.588 269.013,-143.326 273,-143 273,-143 273,-143 269.013,-143.326 272.707,-139.412 265.027,-143.652 265.027,-143.652"/>
<ellipse fill="none" stroke="black" cx="261.837" cy="-143.913" rx="3.2" ry="3.2"/>
</g>
<!-- core_publishedmetadata -->
<g id="node11" class="node"><title>core_publishedmetadata</title>
<g id="a_node11"><a xlink:href="../../tables/core_publishedmetadata.html" xlink:title="core_publishedmetadata" target="_top">
<polygon fill="#ffffff" stroke="none" points="261.5,-37 261.5,-95 452.5,-95 452.5,-37 261.5,-37"/>
<polygon fill="#f5f5f5" stroke="none" points="262,-73 262,-95 453,-95 453,-73 262,-73"/>
<polygon fill="none" stroke="black" points="262,-73 262,-95 453,-95 453,-73 262,-73"/>
<text text-anchor="start" x="267" y="-82.2" font-family="Helvetica,sans-Serif" font-weight="bold" font-size="11.00">core_publishedmetadata</text>
<text text-anchor="start" x="414" y="-81.2" font-family="Helvetica,sans-Serif" font-size="11.00">[table]</text>
<polygon fill="none" stroke="black" points="262,-55 262,-73 453,-73 453,-55 262,-55"/>
<text text-anchor="start" x="265" y="-61.2" font-family="Helvetica,sans-Serif" font-size="11.00">...</text>
<polygon fill="#ffffff" stroke="none" points="262,-37 262,-55 341,-55 341,-37 262,-37"/>
<polygon fill="none" stroke="black" points="262,-37 262,-55 341,-55 341,-37 262,-37"/>
<text text-anchor="start" x="265" y="-43.2" font-family="Helvetica,sans-Serif" font-size="11.00">&lt; 2</text>
<polygon fill="#ffffff" stroke="none" points="341,-37 341,-55 411,-55 411,-37 341,-37"/>
<polygon fill="none" stroke="black" points="341,-37 341,-55 411,-55 411,-37 341,-37"/>
<text text-anchor="start" x="372" y="-43.2" font-family="Helvetica,sans-Serif" font-size="11.00">0 rows</text>
<polygon fill="#ffffff" stroke="none" points="411,-37 411,-55 453,-55 453,-37 411,-37"/>
<polygon fill="none" stroke="black" points="411,-37 411,-55 453,-55 453,-37 411,-37"/>
<text text-anchor="start" x="443" y="-43.2" font-family="Helvetica,sans-Serif" font-size="11.00"> &#160;</text>
</a>
</g>
</g>
<!-- core_publishedmetadata&#45;&gt;core_content -->
<g id="edge12" class="edge"><title>core_publishedmetadata:elipses:w&#45;&gt;core_content:pulp_id:e</title>
<path fill="none" stroke="black" d="M250.459,-64.6165C226.211,-67.6948 217.614,-82.1668 200,-105 158.318,-159.032 217.741,-250 149.5,-250"/>
<polygon fill="black" stroke="black" points="259.968,-60.0535 260.435,-68.0399 258.838,-68.1333 258.371,-60.147 259.968,-60.0535"/>
<polyline fill="none" stroke="black" points="261,-64 257.007,-64.2336 "/>
<ellipse fill="none" stroke="black" cx="253.812" cy="-64.4204" rx="3.2" ry="3.2"/>
</g>
<!-- core_repositorycontent -->
<g id="node12" class="node"><title>core_repositorycontent</title>
<g id="a_node12"><a xlink:href="../../tables/core_repositorycontent.html" xlink:title="core_repositorycontent" target="_top">
<polygon fill="#ffffff" stroke="none" points="266,-407 266,-465 448,-465 448,-407 266,-407"/>
<polygon fill="#f5f5f5" stroke="none" points="266,-443 266,-465 448,-465 448,-443 266,-443"/>
<polygon fill="none" stroke="black" points="266,-443 266,-465 448,-465 448,-443 266,-443"/>
<text text-anchor="start" x="271" y="-452.2" font-family="Helvetica,sans-Serif" font-weight="bold" font-size="11.00">core_repositorycontent</text>
<text text-anchor="start" x="409" y="-451.2" font-family="Helvetica,sans-Serif" font-size="11.00">[table]</text>
<polygon fill="none" stroke="black" points="266,-425 266,-443 448,-443 448,-425 266,-425"/>
<text text-anchor="start" x="269" y="-431.2" font-family="Helvetica,sans-Serif" font-size="11.00">...</text>
<polygon fill="#ffffff" stroke="none" points="266,-407 266,-425 334,-425 334,-407 266,-407"/>
<polygon fill="none" stroke="black" points="266,-407 266,-425 334,-425 334,-407 266,-407"/>
<text text-anchor="start" x="269" y="-413.2" font-family="Helvetica,sans-Serif" font-size="11.00">&lt; 4</text>
<polygon fill="#ffffff" stroke="none" points="334,-407 334,-425 412,-425 412,-407 334,-407"/>
<polygon fill="none" stroke="black" points="334,-407 334,-425 412,-425 412,-407 334,-407"/>
<text text-anchor="start" x="360" y="-413.2" font-family="Helvetica,sans-Serif" font-size="11.00">786 rows</text>
<polygon fill="#ffffff" stroke="none" points="412,-407 412,-425 448,-425 448,-407 412,-407"/>
<polygon fill="none" stroke="black" points="412,-407 412,-425 448,-425 448,-407 412,-407"/>
<text text-anchor="start" x="438" y="-413.2" font-family="Helvetica,sans-Serif" font-size="11.00"> &#160;</text>
</a>
</g>
</g>
<!-- core_repositorycontent&#45;&gt;core_content -->
<g id="edge13" class="edge"><title>core_repositorycontent:elipses:w&#45;&gt;core_content:pulp_id:e</title>
<path fill="none" stroke="black" d="M250.324,-433.067C228.011,-429.875 217.733,-418.394 200,-397 155.915,-343.814 218.581,-250 149.5,-250"/>
<polygon fill="black" stroke="black" points="257.016,-433.492 264.771,-437.593 261.008,-433.746 265,-434 265,-434 265,-434 261.008,-433.746 265.229,-430.407 257.016,-433.492 257.016,-433.492"/>
<ellipse fill="none" stroke="black" cx="253.823" cy="-433.289" rx="3.2" ry="3.2"/>
</g>
<!-- galaxy_synclist_collections -->
<g id="node13" class="node"><title>galaxy_synclist_collections</title>
<g id="a_node13"><a xlink:href="../../tables/galaxy_synclist_collections.html" xlink:title="galaxy_synclist_collections" target="_top">
<polygon fill="#ffffff" stroke="none" points="257.5,-1026 257.5,-1084 456.5,-1084 456.5,-1026 257.5,-1026"/>
<polygon fill="#f5f5f5" stroke="none" points="258,-1062 258,-1084 457,-1084 457,-1062 258,-1062"/>
<polygon fill="none" stroke="black" points="258,-1062 258,-1084 457,-1084 457,-1062 258,-1062"/>
<text text-anchor="start" x="263" y="-1071.2" font-family="Helvetica,sans-Serif" font-weight="bold" font-size="11.00">galaxy_synclist_collections</text>
<text text-anchor="start" x="418" y="-1070.2" font-family="Helvetica,sans-Serif" font-size="11.00">[table]</text>
<polygon fill="none" stroke="black" points="258,-1044 258,-1062 457,-1062 457,-1044 258,-1044"/>
<text text-anchor="start" x="261" y="-1050.2" font-family="Helvetica,sans-Serif" font-size="11.00">...</text>
<polygon fill="#ffffff" stroke="none" points="258,-1026 258,-1044 341,-1044 341,-1026 258,-1026"/>
<polygon fill="none" stroke="black" points="258,-1026 258,-1044 341,-1044 341,-1026 258,-1026"/>
<text text-anchor="start" x="261" y="-1032.2" font-family="Helvetica,sans-Serif" font-size="11.00">&lt; 2</text>
<polygon fill="#ffffff" stroke="none" points="341,-1026 341,-1044 413,-1044 413,-1026 341,-1026"/>
<polygon fill="none" stroke="black" points="341,-1026 341,-1044 413,-1044 413,-1026 341,-1026"/>
<text text-anchor="start" x="374" y="-1032.2" font-family="Helvetica,sans-Serif" font-size="11.00">8 rows</text>
<polygon fill="#ffffff" stroke="none" points="413,-1026 413,-1044 457,-1044 457,-1026 413,-1026"/>
<polygon fill="none" stroke="black" points="413,-1026 413,-1044 457,-1044 457,-1026 413,-1026"/>
<text text-anchor="start" x="447" y="-1032.2" font-family="Helvetica,sans-Serif" font-size="11.00"> &#160;</text>
</a>
</g>
</g>
<!-- galaxy_synclist_collections&#45;&gt;ansible_collection -->
<g id="edge14" class="edge"><title>galaxy_synclist_collections:elipses:w&#45;&gt;ansible_collection:pulp_id:e</title>
<path fill="none" stroke="black" d="M242.552,-1051.19C224.898,-1046.15 219.221,-1031.26 200,-1016 180.919,-1000.86 184.86,-978 160.5,-978"/>
<polygon fill="black" stroke="black" points="249.062,-1052.01 256.554,-1056.57 253.031,-1052.5 257,-1053 257,-1053 257,-1053 253.031,-1052.5 257.446,-1049.43 249.062,-1052.01 249.062,-1052.01"/>
<ellipse fill="none" stroke="black" cx="245.886" cy="-1051.61" rx="3.2" ry="3.2"/>
</g>
</g>
</svg>
