<?xml version="1.0" encoding="UTF-8" standalone="no"?>
<!DOCTYPE svg PUBLIC "-//W3C//DTD SVG 1.1//EN"
 "http://www.w3.org/Graphics/SVG/1.1/DTD/svg11.dtd">
<!-- Generated by graphviz version 2.38.0 (20140413.2041)
 -->
<!-- Title: twoDegreesRelationshipsDiagram Pages: 1 -->
<svg width="803pt" height="630pt"
 viewBox="0.00 0.00 803.00 630.00" xmlns="http://www.w3.org/2000/svg" xmlns:xlink="http://www.w3.org/1999/xlink">
<g id="graph0" class="graph" transform="scale(1 1) rotate(0) translate(4 626)">
<title>twoDegreesRelationshipsDiagram</title>
<polygon fill="#ffffff" stroke="none" points="-4,4 -4,-626 799,-626 799,4 -4,4"/>
<text text-anchor="middle" x="74.5" y="-7.2" font-family="Helvetica,sans-Serif" font-size="11.00">Generated by SchemaSpy</text>
<!-- ansible_collectionversion -->
<g id="node1" class="node"><title>ansible_collectionversion</title>
<g id="a_node1"><a xlink:href="../../tables/ansible_collectionversion.html" xlink:title="ansible_collectionversion" target="_top">
<polygon fill="#ffffff" stroke="none" points="197.5,-560 197.5,-618 390.5,-618 390.5,-560 197.5,-560"/>
<polygon fill="#f5f5f5" stroke="none" points="198,-596 198,-618 391,-618 391,-596 198,-596"/>
<polygon fill="none" stroke="black" points="198,-596 198,-618 391,-618 391,-596 198,-596"/>
<text text-anchor="start" x="203" y="-605.2" font-family="Helvetica,sans-Serif" font-weight="bold" font-size="11.00">ansible_collectionversion</text>
<text text-anchor="start" x="352" y="-604.2" font-family="Helvetica,sans-Serif" font-size="11.00">[table]</text>
<polygon fill="none" stroke="black" points="198,-578 198,-596 391,-596 391,-578 198,-578"/>
<text text-anchor="start" x="201" y="-584.2" font-family="Helvetica,sans-Serif" font-size="11.00">...</text>
<polygon fill="#ffffff" stroke="none" points="198,-560 198,-578 270,-578 270,-560 198,-560"/>
<polygon fill="none" stroke="black" points="198,-560 198,-578 270,-578 270,-560 198,-560"/>
<text text-anchor="start" x="201" y="-566.2" font-family="Helvetica,sans-Serif" font-size="11.00">&lt; 2</text>
<polygon fill="#ffffff" stroke="none" points="270,-560 270,-578 343,-578 343,-560 270,-560"/>
<polygon fill="none" stroke="black" points="270,-560 270,-578 343,-578 343,-560 270,-560"/>
<text text-anchor="start" x="297" y="-566.2" font-family="Helvetica,sans-Serif" font-size="11.00">88 rows</text>
<polygon fill="#ffffff" stroke="none" points="343,-560 343,-578 391,-578 391,-560 343,-560"/>
<polygon fill="none" stroke="black" points="343,-560 343,-578 391,-578 391,-560 343,-560"/>
<text text-anchor="start" x="371" y="-566.2" font-family="Helvetica,sans-Serif" font-size="11.00">1 &gt;</text>
</a>
</g>
</g>
<!-- core_content -->
<g id="node2" class="node"><title>core_content</title>
<g id="a_node2"><a xlink:href="../../tables/core_content.html" xlink:title="core_content" target="_top">
<polygon fill="#ffffff" stroke="none" points="8,-281 8,-361 137,-361 137,-281 8,-281"/>
<polygon fill="#f5f5f5" stroke="none" points="8.5,-339 8.5,-361 137.5,-361 137.5,-339 8.5,-339"/>
<polygon fill="none" stroke="black" points="8.5,-339 8.5,-361 137.5,-361 137.5,-339 8.5,-339"/>
<text text-anchor="start" x="13.5" y="-348.2" font-family="Helvetica,sans-Serif" font-weight="bold" font-size="11.00">core_content</text>
<text text-anchor="start" x="98.5" y="-347.2" font-family="Helvetica,sans-Serif" font-size="11.00">[table]</text>
<polygon fill="none" stroke="black" points="8.5,-317 8.5,-339 137.5,-339 137.5,-317 8.5,-317"/>
<image xlink:href="../../images/primaryKeys.png" width="11px" height="12px" preserveAspectRatio="xMinYMin meet" x="13.5" y="-334"/>
<text text-anchor="start" x="28.5" y="-325.2" font-family="Helvetica,sans-Serif" font-size="11.00">pulp_id</text>
<polygon fill="none" stroke="black" points="8.5,-299 8.5,-317 137.5,-317 137.5,-299 8.5,-299"/>
<text text-anchor="start" x="11.5" y="-305.2" font-family="Helvetica,sans-Serif" font-size="11.00">...</text>
<polygon fill="#ffffff" stroke="none" points="8.5,-281 8.5,-299 43.5,-299 43.5,-281 8.5,-281"/>
<polygon fill="none" stroke="black" points="8.5,-281 8.5,-299 43.5,-299 43.5,-281 8.5,-281"/>
<text text-anchor="start" x="11.5" y="-287.2" font-family="Helvetica,sans-Serif" font-size="11.00"> &#160;</text>
<polygon fill="#ffffff" stroke="none" points="43.5,-281 43.5,-299 103.5,-299 103.5,-281 43.5,-281"/>
<polygon fill="none" stroke="black" points="43.5,-281 43.5,-299 103.5,-299 103.5,-281 43.5,-281"/>
<text text-anchor="start" x="57.5" y="-287.2" font-family="Helvetica,sans-Serif" font-size="11.00">88 rows</text>
<polygon fill="#ffffff" stroke="none" points="103.5,-281 103.5,-299 137.5,-299 137.5,-281 103.5,-281"/>
<polygon fill="none" stroke="black" points="103.5,-281 103.5,-299 137.5,-299 137.5,-281 103.5,-281"/>
<text text-anchor="start" x="117.5" y="-287.2" font-family="Helvetica,sans-Serif" font-size="11.00">8 &gt;</text>
</a>
</g>
</g>
<!-- ansible_collectionversion&#45;&gt;core_content -->
<g id="edge1" class="edge"><title>ansible_collectionversion:elipses:w&#45;&gt;core_content:pulp_id:e</title>
<path fill="none" stroke="black" d="M187.004,-583.911C145.174,-554.689 193.702,-328 138.5,-328"/>
<polygon fill="black" stroke="black" points="197.417,-582.942 195.055,-590.585 193.526,-590.113 195.888,-582.47 197.417,-582.942"/>
<polyline fill="none" stroke="black" points="197,-587 193.178,-585.819 "/>
<ellipse fill="none" stroke="black" cx="190.121" cy="-584.874" rx="3.20001" ry="3.20001"/>
</g>
<!-- ansible_role -->
<g id="node3" class="node"><title>ansible_role</title>
<g id="a_node3"><a xlink:href="../../tables/ansible_role.html" xlink:title="ansible_role" target="_top">
<polygon fill="#ffffff" stroke="none" points="186,-407 186,-539 402,-539 402,-407 186,-407"/>
<polygon fill="#f5f5f5" stroke="none" points="188,-515 188,-537 400,-537 400,-515 188,-515"/>
<polygon fill="none" stroke="black" points="188,-515 188,-537 400,-537 400,-515 188,-515"/>
<text text-anchor="start" x="193" y="-524.2" font-family="Helvetica,sans-Serif" font-weight="bold" font-size="11.00">ansible_role</text>
<text text-anchor="start" x="361" y="-523.2" font-family="Helvetica,sans-Serif" font-size="11.00">[table]</text>
<polygon fill="none" stroke="black" points="188,-493 188,-515 295,-515 295,-493 188,-493"/>
<image xlink:href="../../images/primaryKeys.png" width="11px" height="12px" preserveAspectRatio="xMinYMin meet" x="193" y="-510"/>
<text text-anchor="start" x="208" y="-501.2" font-family="Helvetica,sans-Serif" font-size="11.00">content_ptr_id</text>
<polygon fill="none" stroke="black" points="295,-493 295,-515 400,-515 400,-493 295,-493"/>
<text text-anchor="start" x="298" y="-501.2" font-family="Helvetica,sans-Serif" font-size="11.00">uuid[2147483647]</text>
<polygon fill="#ffffff" stroke="none" points="188,-471 188,-493 295,-493 295,-471 188,-471"/>
<polygon fill="none" stroke="black" points="188,-471 188,-493 295,-493 295,-471 188,-471"/>
<text text-anchor="start" x="208" y="-479.2" font-family="Helvetica,sans-Serif" font-size="11.00">namespace</text>
<polygon fill="none" stroke="black" points="295,-471 295,-493 400,-493 400,-471 295,-471"/>
<text text-anchor="start" x="298" y="-479.2" font-family="Helvetica,sans-Serif" font-size="11.00">varchar[64]</text>
<polygon fill="#ffffff" stroke="none" points="188,-449 188,-471 295,-471 295,-449 188,-449"/>
<polygon fill="none" stroke="black" points="188,-449 188,-471 295,-471 295,-449 188,-449"/>
<text text-anchor="start" x="208" y="-457.2" font-family="Helvetica,sans-Serif" font-size="11.00">name</text>
<polygon fill="none" stroke="black" points="295,-449 295,-471 400,-471 400,-449 295,-449"/>
<text text-anchor="start" x="298" y="-457.2" font-family="Helvetica,sans-Serif" font-size="11.00">varchar[64]</text>
<polygon fill="#ffffff" stroke="none" points="188,-427 188,-449 295,-449 295,-427 188,-427"/>
<polygon fill="none" stroke="black" points="188,-427 188,-449 295,-449 295,-427 188,-427"/>
<text text-anchor="start" x="208" y="-435.2" font-family="Helvetica,sans-Serif" font-size="11.00">version</text>
<polygon fill="none" stroke="black" points="295,-427 295,-449 400,-449 400,-427 295,-427"/>
<text text-anchor="start" x="298" y="-435.2" font-family="Helvetica,sans-Serif" font-size="11.00">varchar[128]</text>
<polygon fill="#ffffff" stroke="none" points="188,-409 188,-427 232,-427 232,-409 188,-409"/>
<polygon fill="none" stroke="black" points="188,-409 188,-427 232,-427 232,-409 188,-409"/>
<text text-anchor="start" x="191" y="-415.2" font-family="Helvetica,sans-Serif" font-size="11.00">&lt; 1</text>
<polygon fill="#ffffff" stroke="none" points="232,-409 232,-427 295,-427 295,-409 232,-409"/>
<polygon fill="none" stroke="black" points="232,-409 232,-427 295,-427 295,-409 232,-409"/>
<text text-anchor="start" x="256" y="-415.2" font-family="Helvetica,sans-Serif" font-size="11.00">0 rows</text>
<polygon fill="#ffffff" stroke="none" points="295,-409 295,-427 400,-427 400,-409 295,-409"/>
<polygon fill="none" stroke="black" points="295,-409 295,-427 400,-427 400,-409 295,-409"/>
<text text-anchor="start" x="380" y="-415.2" font-family="Helvetica,sans-Serif" font-size="11.00">0 &gt;</text>
<polygon fill="none" stroke="black" stroke-width="2" points="187,-408 187,-538 401,-538 401,-408 187,-408"/>
</a>
</g>
</g>
<!-- ansible_role&#45;&gt;core_content -->
<g id="edge2" class="edge"><title>ansible_role:content_ptr_id:w&#45;&gt;core_content:pulp_id:e</title>
<path fill="none" stroke="black" d="M176.463,-502.782C116.508,-487.232 215.676,-328 138.5,-328"/>
<polygon fill="black" stroke="black" points="186.665,-499.935 185.746,-507.882 184.157,-507.698 185.075,-499.751 186.665,-499.935"/>
<polyline fill="none" stroke="black" points="187,-504 183.026,-503.541 "/>
<ellipse fill="none" stroke="black" cx="179.848" cy="-503.173" rx="3.2" ry="3.2"/>
</g>
<!-- container_blob -->
<g id="node4" class="node"><title>container_blob</title>
<g id="a_node4"><a xlink:href="../../tables/container_blob.html" xlink:title="container_blob" target="_top">
<polygon fill="#ffffff" stroke="none" points="227,-274 227,-332 361,-332 361,-274 227,-274"/>
<polygon fill="#f5f5f5" stroke="none" points="227,-310 227,-332 361,-332 361,-310 227,-310"/>
<polygon fill="none" stroke="black" points="227,-310 227,-332 361,-332 361,-310 227,-310"/>
<text text-anchor="start" x="232" y="-319.2" font-family="Helvetica,sans-Serif" font-weight="bold" font-size="11.00">container_blob</text>
<text text-anchor="start" x="322" y="-318.2" font-family="Helvetica,sans-Serif" font-size="11.00">[table]</text>
<polygon fill="none" stroke="black" points="227,-292 227,-310 361,-310 361,-292 227,-292"/>
<text text-anchor="start" x="230" y="-298.2" font-family="Helvetica,sans-Serif" font-size="11.00">...</text>
<polygon fill="#ffffff" stroke="none" points="227,-274 227,-292 273,-292 273,-274 227,-274"/>
<polygon fill="none" stroke="black" points="227,-274 227,-292 273,-292 273,-274 227,-274"/>
<text text-anchor="start" x="230" y="-280.2" font-family="Helvetica,sans-Serif" font-size="11.00">&lt; 1</text>
<polygon fill="#ffffff" stroke="none" points="273,-274 273,-292 326,-292 326,-274 273,-274"/>
<polygon fill="none" stroke="black" points="273,-274 273,-292 326,-292 326,-274 273,-274"/>
<text text-anchor="start" x="287" y="-280.2" font-family="Helvetica,sans-Serif" font-size="11.00">0 rows</text>
<polygon fill="#ffffff" stroke="none" points="326,-274 326,-292 361,-292 361,-274 326,-274"/>
<polygon fill="none" stroke="black" points="326,-274 326,-292 361,-292 361,-274 326,-274"/>
<text text-anchor="start" x="341" y="-280.2" font-family="Helvetica,sans-Serif" font-size="11.00">2 &gt;</text>
</a>
</g>
</g>
<!-- container_blob&#45;&gt;core_content -->
<g id="edge3" class="edge"><title>container_blob:elipses:w&#45;&gt;core_content:pulp_id:e</title>
<path fill="none" stroke="black" d="M215.409,-301.667C183.853,-305.825 175.383,-328 138.5,-328"/>
<polygon fill="black" stroke="black" points="224.95,-297.058 225.453,-305.042 223.856,-305.143 223.353,-297.159 224.95,-297.058"/>
<polyline fill="none" stroke="black" points="226,-301 222.008,-301.252 "/>
<ellipse fill="none" stroke="black" cx="218.814" cy="-301.453" rx="3.2" ry="3.2"/>
</g>
<!-- container_manifest -->
<g id="node5" class="node"><title>container_manifest</title>
<g id="a_node5"><a xlink:href="../../tables/container_manifest.html" xlink:title="container_manifest" target="_top">
<polygon fill="#ffffff" stroke="none" points="451,-301 451,-359 611,-359 611,-301 451,-301"/>
<polygon fill="#f5f5f5" stroke="none" points="451,-337 451,-359 611,-359 611,-337 451,-337"/>
<polygon fill="none" stroke="black" points="451,-337 451,-359 611,-359 611,-337 451,-337"/>
<text text-anchor="start" x="456" y="-346.2" font-family="Helvetica,sans-Serif" font-weight="bold" font-size="11.00">container_manifest</text>
<text text-anchor="start" x="572" y="-345.2" font-family="Helvetica,sans-Serif" font-size="11.00">[table]</text>
<polygon fill="none" stroke="black" points="451,-319 451,-337 611,-337 611,-319 451,-319"/>
<text text-anchor="start" x="454" y="-325.2" font-family="Helvetica,sans-Serif" font-size="11.00">...</text>
<polygon fill="#ffffff" stroke="none" points="451,-301 451,-319 510,-319 510,-301 451,-301"/>
<polygon fill="none" stroke="black" points="451,-301 451,-319 510,-319 510,-301 451,-301"/>
<text text-anchor="start" x="454" y="-307.2" font-family="Helvetica,sans-Serif" font-size="11.00">&lt; 2</text>
<polygon fill="#ffffff" stroke="none" points="510,-301 510,-319 570,-319 570,-301 510,-301"/>
<polygon fill="none" stroke="black" points="510,-301 510,-319 570,-319 570,-301 510,-301"/>
<text text-anchor="start" x="531" y="-307.2" font-family="Helvetica,sans-Serif" font-size="11.00">0 rows</text>
<polygon fill="#ffffff" stroke="none" points="570,-301 570,-319 611,-319 611,-301 570,-301"/>
<polygon fill="none" stroke="black" points="570,-301 570,-319 611,-319 611,-301 570,-301"/>
<text text-anchor="start" x="591" y="-307.2" font-family="Helvetica,sans-Serif" font-size="11.00">4 &gt;</text>
</a>
</g>
</g>
<!-- container_manifest&#45;&gt;core_content -->
<g id="edge5" class="edge"><title>container_manifest:elipses:w&#45;&gt;core_content:pulp_id:e</title>
<path fill="none" stroke="black" d="M439.585,-329.459C429.211,-332.687 424.595,-340.353 410,-343 308.543,-361.398 279.418,-361.608 178,-343 159.53,-339.611 157.279,-328 138.5,-328"/>
<polygon fill="black" stroke="black" points="448.653,-324.15 449.763,-332.072 448.178,-332.294 447.068,-324.372 448.653,-324.15"/>
<polyline fill="none" stroke="black" points="450,-328 446.039,-328.555 "/>
<ellipse fill="none" stroke="black" cx="442.87" cy="-328.999" rx="3.2" ry="3.2"/>
</g>
<!-- container_manifest&#45;&gt;container_blob -->
<g id="edge4" class="edge"><title>container_manifest:elipses:w&#45;&gt;container_blob:elipses:e</title>
<path fill="none" stroke="black" d="M435.375,-326.698C406.836,-321.304 397.477,-301 362,-301"/>
<polygon fill="black" stroke="black" points="442.032,-327.29 449.681,-331.586 446.016,-327.645 450,-328 450,-328 450,-328 446.016,-327.645 450.319,-324.414 442.032,-327.29 442.032,-327.29"/>
<ellipse fill="none" stroke="black" cx="438.844" cy="-327.007" rx="3.2" ry="3.2"/>
</g>
<!-- container_tag -->
<g id="node6" class="node"><title>container_tag</title>
<g id="a_node6"><a xlink:href="../../tables/container_tag.html" xlink:title="container_tag" target="_top">
<polygon fill="#ffffff" stroke="none" points="660,-328 660,-386 787,-386 787,-328 660,-328"/>
<polygon fill="#f5f5f5" stroke="none" points="660.5,-364 660.5,-386 787.5,-386 787.5,-364 660.5,-364"/>
<polygon fill="none" stroke="black" points="660.5,-364 660.5,-386 787.5,-386 787.5,-364 660.5,-364"/>
<text text-anchor="start" x="665.5" y="-373.2" font-family="Helvetica,sans-Serif" font-weight="bold" font-size="11.00">container_tag</text>
<text text-anchor="start" x="748.5" y="-372.2" font-family="Helvetica,sans-Serif" font-size="11.00">[table]</text>
<polygon fill="none" stroke="black" points="660.5,-346 660.5,-364 787.5,-364 787.5,-346 660.5,-346"/>
<text text-anchor="start" x="663.5" y="-352.2" font-family="Helvetica,sans-Serif" font-size="11.00">...</text>
<polygon fill="#ffffff" stroke="none" points="660.5,-328 660.5,-346 707.5,-346 707.5,-328 660.5,-328"/>
<polygon fill="none" stroke="black" points="660.5,-328 660.5,-346 707.5,-346 707.5,-328 660.5,-328"/>
<text text-anchor="start" x="663.5" y="-334.2" font-family="Helvetica,sans-Serif" font-size="11.00">&lt; 2</text>
<polygon fill="#ffffff" stroke="none" points="707.5,-328 707.5,-346 761.5,-346 761.5,-328 707.5,-328"/>
<polygon fill="none" stroke="black" points="707.5,-328 707.5,-346 761.5,-346 761.5,-328 707.5,-328"/>
<text text-anchor="start" x="722.5" y="-334.2" font-family="Helvetica,sans-Serif" font-size="11.00">0 rows</text>
<polygon fill="#ffffff" stroke="none" points="761.5,-328 761.5,-346 787.5,-346 787.5,-328 761.5,-328"/>
<polygon fill="none" stroke="black" points="761.5,-328 761.5,-346 787.5,-346 787.5,-328 761.5,-328"/>
<text text-anchor="start" x="777.5" y="-334.2" font-family="Helvetica,sans-Serif" font-size="11.00"> &#160;</text>
</a>
</g>
</g>
<!-- container_tag&#45;&gt;core_content -->
<g id="edge6" class="edge"><title>container_tag:elipses:w&#45;&gt;core_content:pulp_id:e</title>
<path fill="none" stroke="black" d="M648.964,-356.459C638.461,-359.687 633.761,-367.354 619,-370 522.507,-387.295 269.971,-392.932 178,-359 157.063,-351.276 160.816,-328 138.5,-328"/>
<polygon fill="black" stroke="black" points="658.159,-351.148 659.256,-359.072 657.672,-359.292 656.574,-351.367 658.159,-351.148"/>
<polyline fill="none" stroke="black" points="659.5,-355 655.538,-355.549 "/>
<ellipse fill="none" stroke="black" cx="652.368" cy="-355.988" rx="3.2" ry="3.2"/>
</g>
<!-- container_tag&#45;&gt;container_manifest -->
<g id="edge7" class="edge"><title>container_tag:elipses:w&#45;&gt;container_manifest:elipses:e</title>
<path fill="none" stroke="black" d="M645.597,-351.016C634.246,-343.506 630.402,-328 612,-328"/>
<polygon fill="black" stroke="black" points="651.81,-352.796 658.508,-358.461 655.655,-353.898 659.5,-355 659.5,-355 659.5,-355 655.655,-353.898 660.492,-351.539 651.81,-352.796 651.81,-352.796"/>
<ellipse fill="none" stroke="black" cx="648.733" cy="-351.915" rx="3.20001" ry="3.20001"/>
</g>
<!-- core_contentartifact -->
<g id="node7" class="node"><title>core_contentartifact</title>
<g id="a_node7"><a xlink:href="../../tables/core_contentartifact.html" xlink:title="core_contentartifact" target="_top">
<polygon fill="#ffffff" stroke="none" points="211,-195 211,-253 377,-253 377,-195 211,-195"/>
<polygon fill="#f5f5f5" stroke="none" points="211,-231 211,-253 377,-253 377,-231 211,-231"/>
<polygon fill="none" stroke="black" points="211,-231 211,-253 377,-253 377,-231 211,-231"/>
<text text-anchor="start" x="216" y="-240.2" font-family="Helvetica,sans-Serif" font-weight="bold" font-size="11.00">core_contentartifact</text>
<text text-anchor="start" x="338" y="-239.2" font-family="Helvetica,sans-Serif" font-size="11.00">[table]</text>
<polygon fill="none" stroke="black" points="211,-213 211,-231 377,-231 377,-213 211,-213"/>
<text text-anchor="start" x="214" y="-219.2" font-family="Helvetica,sans-Serif" font-size="11.00">...</text>
<polygon fill="#ffffff" stroke="none" points="211,-195 211,-213 269,-213 269,-195 211,-195"/>
<polygon fill="none" stroke="black" points="211,-195 211,-213 269,-213 269,-195 211,-195"/>
<text text-anchor="start" x="214" y="-201.2" font-family="Helvetica,sans-Serif" font-size="11.00">&lt; 2</text>
<polygon fill="#ffffff" stroke="none" points="269,-195 269,-213 336,-213 336,-195 269,-195"/>
<polygon fill="none" stroke="black" points="269,-195 269,-213 336,-213 336,-195 269,-195"/>
<text text-anchor="start" x="290" y="-201.2" font-family="Helvetica,sans-Serif" font-size="11.00">88 rows</text>
<polygon fill="#ffffff" stroke="none" points="336,-195 336,-213 377,-213 377,-195 336,-195"/>
<polygon fill="none" stroke="black" points="336,-195 336,-213 377,-213 377,-195 336,-195"/>
<text text-anchor="start" x="357" y="-201.2" font-family="Helvetica,sans-Serif" font-size="11.00">2 &gt;</text>
</a>
</g>
</g>
<!-- core_contentartifact&#45;&gt;core_content -->
<g id="edge8" class="edge"><title>core_contentartifact:elipses:w&#45;&gt;core_content:pulp_id:e</title>
<path fill="none" stroke="black" d="M195.541,-225.058C160.715,-242.438 189.555,-328 138.5,-328"/>
<polygon fill="black" stroke="black" points="202.173,-223.655 210.745,-225.522 206.087,-222.828 210,-222 210,-222 210,-222 206.087,-222.828 209.255,-218.478 202.173,-223.655 202.173,-223.655"/>
<ellipse fill="none" stroke="black" cx="199.042" cy="-224.318" rx="3.2" ry="3.2"/>
</g>
<!-- core_publishedmetadata -->
<g id="node8" class="node"><title>core_publishedmetadata</title>
<g id="a_node8"><a xlink:href="../../tables/core_publishedmetadata.html" xlink:title="core_publishedmetadata" target="_top">
<polygon fill="#ffffff" stroke="none" points="198.5,-116 198.5,-174 389.5,-174 389.5,-116 198.5,-116"/>
<polygon fill="#f5f5f5" stroke="none" points="199,-152 199,-174 390,-174 390,-152 199,-152"/>
<polygon fill="none" stroke="black" points="199,-152 199,-174 390,-174 390,-152 199,-152"/>
<text text-anchor="start" x="204" y="-161.2" font-family="Helvetica,sans-Serif" font-weight="bold" font-size="11.00">core_publishedmetadata</text>
<text text-anchor="start" x="351" y="-160.2" font-family="Helvetica,sans-Serif" font-size="11.00">[table]</text>
<polygon fill="none" stroke="black" points="199,-134 199,-152 390,-152 390,-134 199,-134"/>
<text text-anchor="start" x="202" y="-140.2" font-family="Helvetica,sans-Serif" font-size="11.00">...</text>
<polygon fill="#ffffff" stroke="none" points="199,-116 199,-134 278,-134 278,-116 199,-116"/>
<polygon fill="none" stroke="black" points="199,-116 199,-134 278,-134 278,-116 199,-116"/>
<text text-anchor="start" x="202" y="-122.2" font-family="Helvetica,sans-Serif" font-size="11.00">&lt; 2</text>
<polygon fill="#ffffff" stroke="none" points="278,-116 278,-134 348,-134 348,-116 278,-116"/>
<polygon fill="none" stroke="black" points="278,-116 278,-134 348,-134 348,-116 278,-116"/>
<text text-anchor="start" x="309" y="-122.2" font-family="Helvetica,sans-Serif" font-size="11.00">0 rows</text>
<polygon fill="#ffffff" stroke="none" points="348,-116 348,-134 390,-134 390,-116 348,-116"/>
<polygon fill="none" stroke="black" points="348,-116 348,-134 390,-134 390,-116 348,-116"/>
<text text-anchor="start" x="380" y="-122.2" font-family="Helvetica,sans-Serif" font-size="11.00"> &#160;</text>
</a>
</g>
</g>
<!-- core_publishedmetadata&#45;&gt;core_content -->
<g id="edge9" class="edge"><title>core_publishedmetadata:elipses:w&#45;&gt;core_content:pulp_id:e</title>
<path fill="none" stroke="black" d="M187.533,-144.086C121.401,-159.248 220.99,-328 138.5,-328"/>
<polygon fill="black" stroke="black" points="196.791,-139.104 197.617,-147.061 196.026,-147.226 195.2,-139.269 196.791,-139.104"/>
<polyline fill="none" stroke="black" points="198,-143 194.021,-143.413 "/>
<ellipse fill="none" stroke="black" cx="190.838" cy="-143.743" rx="3.2" ry="3.2"/>
</g>
<!-- core_repositorycontent -->
<g id="node9" class="node"><title>core_repositorycontent</title>
<g id="a_node9"><a xlink:href="../../tables/core_repositorycontent.html" xlink:title="core_repositorycontent" target="_top">
<polygon fill="#ffffff" stroke="none" points="203,-37 203,-95 385,-95 385,-37 203,-37"/>
<polygon fill="#f5f5f5" stroke="none" points="203,-73 203,-95 385,-95 385,-73 203,-73"/>
<polygon fill="none" stroke="black" points="203,-73 203,-95 385,-95 385,-73 203,-73"/>
<text text-anchor="start" x="208" y="-82.2" font-family="Helvetica,sans-Serif" font-weight="bold" font-size="11.00">core_repositorycontent</text>
<text text-anchor="start" x="346" y="-81.2" font-family="Helvetica,sans-Serif" font-size="11.00">[table]</text>
<polygon fill="none" stroke="black" points="203,-55 203,-73 385,-73 385,-55 203,-55"/>
<text text-anchor="start" x="206" y="-61.2" font-family="Helvetica,sans-Serif" font-size="11.00">...</text>
<polygon fill="#ffffff" stroke="none" points="203,-37 203,-55 271,-55 271,-37 203,-37"/>
<polygon fill="none" stroke="black" points="203,-37 203,-55 271,-55 271,-37 203,-37"/>
<text text-anchor="start" x="206" y="-43.2" font-family="Helvetica,sans-Serif" font-size="11.00">&lt; 4</text>
<polygon fill="#ffffff" stroke="none" points="271,-37 271,-55 349,-55 349,-37 271,-37"/>
<polygon fill="none" stroke="black" points="271,-37 271,-55 349,-55 349,-37 271,-37"/>
<text text-anchor="start" x="297" y="-43.2" font-family="Helvetica,sans-Serif" font-size="11.00">786 rows</text>
<polygon fill="#ffffff" stroke="none" points="349,-37 349,-55 385,-55 385,-37 349,-37"/>
<polygon fill="none" stroke="black" points="349,-37 349,-55 385,-55 385,-37 349,-37"/>
<text text-anchor="start" x="375" y="-43.2" font-family="Helvetica,sans-Serif" font-size="11.00"> &#160;</text>
</a>
</g>
</g>
<!-- core_repositorycontent&#45;&gt;core_content -->
<g id="edge10" class="edge"><title>core_repositorycontent:elipses:w&#45;&gt;core_content:pulp_id:e</title>
<path fill="none" stroke="black" d="M188.412,-70.01C150.986,-109.307 193.419,-328 138.5,-328"/>
<polygon fill="black" stroke="black" points="194.684,-67.236 203.456,-67.2923 198.342,-65.618 202,-64 202,-64 202,-64 198.342,-65.618 200.544,-60.7077 194.684,-67.236 194.684,-67.236"/>
<ellipse fill="none" stroke="black" cx="191.757" cy="-68.5305" rx="3.20001" ry="3.20001"/>
</g>
</g>
</svg>
