<?xml version="1.0" encoding="UTF-8" standalone="no"?>
<!DOCTYPE svg PUBLIC "-//W3C//DTD SVG 1.1//EN"
 "http://www.w3.org/Graphics/SVG/1.1/DTD/svg11.dtd">
<!-- Generated by graphviz version 2.38.0 (20140413.2041)
 -->
<!-- Title: twoDegreesRelationshipsDiagram Pages: 1 -->
<svg width="722pt" height="703pt"
 viewBox="0.00 0.00 722.00 703.00" xmlns="http://www.w3.org/2000/svg" xmlns:xlink="http://www.w3.org/1999/xlink">
<g id="graph0" class="graph" transform="scale(1 1) rotate(0) translate(4 699)">
<title>twoDegreesRelationshipsDiagram</title>
<polygon fill="#ffffff" stroke="none" points="-4,4 -4,-699 718,-699 718,4 -4,4"/>
<text text-anchor="middle" x="74.5" y="-7.2" font-family="Helvetica,sans-Serif" font-size="11.00">Generated by SchemaSpy</text>
<!-- auth_group_permissions -->
<g id="node1" class="node"><title>auth_group_permissions</title>
<g id="a_node1"><a xlink:href="../../tables/auth_group_permissions.html" xlink:title="auth_group_permissions" target="_top">
<polygon fill="#ffffff" stroke="none" points="495,-414 495,-520 681,-520 681,-414 495,-414"/>
<polygon fill="#f5f5f5" stroke="none" points="495,-498 495,-520 681,-520 681,-498 495,-498"/>
<polygon fill="none" stroke="black" points="495,-498 495,-520 681,-520 681,-498 495,-498"/>
<text text-anchor="start" x="500" y="-507.2" font-family="Helvetica,sans-Serif" font-weight="bold" font-size="11.00">auth_group_permissions</text>
<text text-anchor="start" x="642" y="-506.2" font-family="Helvetica,sans-Serif" font-size="11.00">[table]</text>
<polygon fill="none" stroke="black" points="495,-476 495,-498 681,-498 681,-476 495,-476"/>
<image xlink:href="../../images/primaryKeys.png" width="11px" height="12px" preserveAspectRatio="xMinYMin meet" x="500" y="-493"/>
<text text-anchor="start" x="525" y="-484.2" font-family="Helvetica,sans-Serif" font-size="11.00">id</text>
<polygon fill="#ffffff" stroke="none" points="495,-454 495,-476 681,-476 681,-454 495,-454"/>
<polygon fill="none" stroke="black" points="495,-454 495,-476 681,-476 681,-454 495,-454"/>
<image xlink:href="../../images/foreignKeys.png" width="11px" height="12px" preserveAspectRatio="xMinYMin meet" x="500" y="-471"/>
<text text-anchor="start" x="525" y="-462.2" font-family="Helvetica,sans-Serif" font-size="11.00">group_id</text>
<polygon fill="#ffffff" stroke="none" points="495,-432 495,-454 681,-454 681,-432 495,-432"/>
<polygon fill="none" stroke="black" points="495,-432 495,-454 681,-454 681,-432 495,-432"/>
<image xlink:href="../../images/foreignKeys.png" width="11px" height="12px" preserveAspectRatio="xMinYMin meet" x="500" y="-449"/>
<text text-anchor="start" x="525" y="-440.2" font-family="Helvetica,sans-Serif" font-size="11.00">permission_id</text>
<polygon fill="#ffffff" stroke="none" points="495,-414 495,-432 572,-432 572,-414 495,-414"/>
<polygon fill="none" stroke="black" points="495,-414 495,-432 572,-432 572,-414 495,-414"/>
<text text-anchor="start" x="498" y="-420.2" font-family="Helvetica,sans-Serif" font-size="11.00">&lt; 2</text>
<polygon fill="#ffffff" stroke="none" points="572,-414 572,-432 641,-432 641,-414 572,-414"/>
<polygon fill="none" stroke="black" points="572,-414 572,-432 641,-432 641,-414 572,-414"/>
<text text-anchor="start" x="602" y="-420.2" font-family="Helvetica,sans-Serif" font-size="11.00">0 rows</text>
<polygon fill="#ffffff" stroke="none" points="641,-414 641,-432 681,-432 681,-414 641,-414"/>
<polygon fill="none" stroke="black" points="641,-414 641,-432 681,-432 681,-414 641,-414"/>
<text text-anchor="start" x="671" y="-420.2" font-family="Helvetica,sans-Serif" font-size="11.00"> &#160;</text>
</a>
</g>
</g>
<!-- auth_group -->
<g id="node2" class="node"><title>auth_group</title>
<g id="a_node2"><a xlink:href="../../tables/auth_group.html" xlink:title="auth_group" target="_top">
<polygon fill="#ffffff" stroke="none" points="266,-465 266,-523 379,-523 379,-465 266,-465"/>
<polygon fill="#f5f5f5" stroke="none" points="266.5,-501 266.5,-523 379.5,-523 379.5,-501 266.5,-501"/>
<polygon fill="none" stroke="black" points="266.5,-501 266.5,-523 379.5,-523 379.5,-501 266.5,-501"/>
<text text-anchor="start" x="271.5" y="-510.2" font-family="Helvetica,sans-Serif" font-weight="bold" font-size="11.00">auth_group</text>
<text text-anchor="start" x="340.5" y="-509.2" font-family="Helvetica,sans-Serif" font-size="11.00">[table]</text>
<polygon fill="none" stroke="black" points="266.5,-483 266.5,-501 379.5,-501 379.5,-483 266.5,-483"/>
<text text-anchor="start" x="269.5" y="-489.2" font-family="Helvetica,sans-Serif" font-size="11.00">...</text>
<polygon fill="#ffffff" stroke="none" points="266.5,-465 266.5,-483 293.5,-483 293.5,-465 266.5,-465"/>
<polygon fill="none" stroke="black" points="266.5,-465 266.5,-483 293.5,-483 293.5,-465 266.5,-465"/>
<text text-anchor="start" x="269.5" y="-471.2" font-family="Helvetica,sans-Serif" font-size="11.00"> &#160;</text>
<polygon fill="#ffffff" stroke="none" points="293.5,-465 293.5,-483 349.5,-483 349.5,-465 293.5,-465"/>
<polygon fill="none" stroke="black" points="293.5,-465 293.5,-483 349.5,-483 349.5,-465 293.5,-465"/>
<text text-anchor="start" x="303.5" y="-471.2" font-family="Helvetica,sans-Serif" font-size="11.00">15 rows</text>
<polygon fill="#ffffff" stroke="none" points="349.5,-465 349.5,-483 379.5,-483 379.5,-465 349.5,-465"/>
<polygon fill="none" stroke="black" points="349.5,-465 349.5,-483 379.5,-483 379.5,-465 349.5,-465"/>
<text text-anchor="start" x="359.5" y="-471.2" font-family="Helvetica,sans-Serif" font-size="11.00">3 &gt;</text>
</a>
</g>
</g>
<!-- auth_group_permissions&#45;&gt;auth_group -->
<g id="edge1" class="edge"><title>auth_group_permissions:group_id:w&#45;&gt;auth_group:elipses:e</title>
<path fill="none" stroke="black" d="M479.415,-465.779C439.724,-470.206 427.086,-492 380.5,-492"/>
<polygon fill="black" stroke="black" points="486.011,-465.427 494.192,-468.595 490.006,-465.213 494,-465 494,-465 494,-465 490.006,-465.213 493.808,-461.405 486.011,-465.427 486.011,-465.427"/>
<ellipse fill="none" stroke="black" cx="482.816" cy="-465.597" rx="3.2" ry="3.2"/>
</g>
<!-- auth_permission -->
<g id="node3" class="node"><title>auth_permission</title>
<g id="a_node3"><a xlink:href="../../tables/auth_permission.html" xlink:title="auth_permission" target="_top">
<polygon fill="#ffffff" stroke="none" points="224,-312 224,-444 421,-444 421,-312 224,-312"/>
<polygon fill="#f5f5f5" stroke="none" points="226.5,-420 226.5,-442 419.5,-442 419.5,-420 226.5,-420"/>
<polygon fill="none" stroke="black" points="226.5,-420 226.5,-442 419.5,-442 419.5,-420 226.5,-420"/>
<text text-anchor="start" x="231.5" y="-429.2" font-family="Helvetica,sans-Serif" font-weight="bold" font-size="11.00">auth_permission</text>
<text text-anchor="start" x="380.5" y="-428.2" font-family="Helvetica,sans-Serif" font-size="11.00">[table]</text>
<polygon fill="none" stroke="black" points="226.5,-398 226.5,-420 346.5,-420 346.5,-398 226.5,-398"/>
<image xlink:href="../../images/primaryKeys.png" width="11px" height="12px" preserveAspectRatio="xMinYMin meet" x="231.5" y="-415"/>
<text text-anchor="start" x="246.5" y="-406.2" font-family="Helvetica,sans-Serif" font-size="11.00">id</text>
<polygon fill="none" stroke="black" points="346.5,-398 346.5,-420 419.5,-420 419.5,-398 346.5,-398"/>
<text text-anchor="start" x="349.5" y="-406.2" font-family="Helvetica,sans-Serif" font-size="11.00">serial[10]</text>
<polygon fill="none" stroke="black" points="226.5,-376 226.5,-398 346.5,-398 346.5,-376 226.5,-376"/>
<text text-anchor="start" x="246.5" y="-384.2" font-family="Helvetica,sans-Serif" font-size="11.00">name</text>
<polygon fill="none" stroke="black" points="346.5,-376 346.5,-398 419.5,-398 419.5,-376 346.5,-376"/>
<text text-anchor="start" x="349.5" y="-384.2" font-family="Helvetica,sans-Serif" font-size="11.00">varchar[255]</text>
<polygon fill="#ffffff" stroke="none" points="226.5,-354 226.5,-376 346.5,-376 346.5,-354 226.5,-354"/>
<polygon fill="none" stroke="black" points="226.5,-354 226.5,-376 346.5,-376 346.5,-354 226.5,-354"/>
<image xlink:href="../../images/foreignKeys.png" width="11px" height="12px" preserveAspectRatio="xMinYMin meet" x="231.5" y="-371"/>
<text text-anchor="start" x="246.5" y="-362.2" font-family="Helvetica,sans-Serif" font-size="11.00">content_type_id</text>
<polygon fill="none" stroke="black" points="346.5,-354 346.5,-376 419.5,-376 419.5,-354 346.5,-354"/>
<text text-anchor="start" x="349.5" y="-362.2" font-family="Helvetica,sans-Serif" font-size="11.00">int4[10]</text>
<polygon fill="#ffffff" stroke="none" points="226.5,-332 226.5,-354 346.5,-354 346.5,-332 226.5,-332"/>
<polygon fill="none" stroke="black" points="226.5,-332 226.5,-354 346.5,-354 346.5,-332 226.5,-332"/>
<text text-anchor="start" x="246.5" y="-340.2" font-family="Helvetica,sans-Serif" font-size="11.00">codename</text>
<polygon fill="none" stroke="black" points="346.5,-332 346.5,-354 419.5,-354 419.5,-332 346.5,-332"/>
<text text-anchor="start" x="349.5" y="-340.2" font-family="Helvetica,sans-Serif" font-size="11.00">varchar[100]</text>
<polygon fill="#ffffff" stroke="none" points="226.5,-314 226.5,-332 270.5,-332 270.5,-314 226.5,-314"/>
<polygon fill="none" stroke="black" points="226.5,-314 226.5,-332 270.5,-332 270.5,-314 226.5,-314"/>
<text text-anchor="start" x="229.5" y="-320.2" font-family="Helvetica,sans-Serif" font-size="11.00">&lt; 1</text>
<polygon fill="#ffffff" stroke="none" points="270.5,-314 270.5,-332 346.5,-332 346.5,-314 270.5,-314"/>
<polygon fill="none" stroke="black" points="270.5,-314 270.5,-332 346.5,-332 346.5,-314 270.5,-314"/>
<text text-anchor="start" x="294.5" y="-320.2" font-family="Helvetica,sans-Serif" font-size="11.00">322 rows</text>
<polygon fill="#ffffff" stroke="none" points="346.5,-314 346.5,-332 419.5,-332 419.5,-314 346.5,-314"/>
<polygon fill="none" stroke="black" points="346.5,-314 346.5,-332 419.5,-332 419.5,-314 346.5,-314"/>
<text text-anchor="start" x="399.5" y="-320.2" font-family="Helvetica,sans-Serif" font-size="11.00">4 &gt;</text>
<polygon fill="none" stroke="black" stroke-width="2" points="225,-313 225,-443 420,-443 420,-313 225,-313"/>
</a>
</g>
</g>
<!-- auth_group_permissions&#45;&gt;auth_permission -->
<g id="edge2" class="edge"><title>auth_group_permissions:permission_id:w&#45;&gt;auth_permission:id.type:e</title>
<path fill="none" stroke="black" d="M479.707,-440.873C456.746,-433.43 451.009,-409 420.5,-409"/>
<polygon fill="black" stroke="black" points="486.087,-441.822 493.47,-446.561 490.044,-442.411 494,-443 494,-443 494,-443 490.044,-442.411 494.53,-439.439 486.087,-441.822 486.087,-441.822"/>
<ellipse fill="none" stroke="black" cx="482.922" cy="-441.351" rx="3.2" ry="3.2"/>
</g>
<!-- django_content_type -->
<g id="node4" class="node"><title>django_content_type</title>
<g id="a_node4"><a xlink:href="../../tables/django_content_type.html" xlink:title="django_content_type" target="_top">
<polygon fill="#ffffff" stroke="none" points="8,-253 8,-359 175,-359 175,-253 8,-253"/>
<polygon fill="#f5f5f5" stroke="none" points="8.5,-337 8.5,-359 175.5,-359 175.5,-337 8.5,-337"/>
<polygon fill="none" stroke="black" points="8.5,-337 8.5,-359 175.5,-359 175.5,-337 8.5,-337"/>
<text text-anchor="start" x="13.5" y="-346.2" font-family="Helvetica,sans-Serif" font-weight="bold" font-size="11.00">django_content_type</text>
<text text-anchor="start" x="136.5" y="-345.2" font-family="Helvetica,sans-Serif" font-size="11.00">[table]</text>
<polygon fill="none" stroke="black" points="8.5,-315 8.5,-337 175.5,-337 175.5,-315 8.5,-315"/>
<image xlink:href="../../images/primaryKeys.png" width="11px" height="12px" preserveAspectRatio="xMinYMin meet" x="13.5" y="-332"/>
<text text-anchor="start" x="39.5" y="-323.2" font-family="Helvetica,sans-Serif" font-size="11.00">id</text>
<polygon fill="#ffffff" stroke="none" points="8.5,-293 8.5,-315 175.5,-315 175.5,-293 8.5,-293"/>
<polygon fill="none" stroke="black" points="8.5,-293 8.5,-315 175.5,-315 175.5,-293 8.5,-293"/>
<text text-anchor="start" x="39.5" y="-301.2" font-family="Helvetica,sans-Serif" font-size="11.00">app_label</text>
<polygon fill="#ffffff" stroke="none" points="8.5,-271 8.5,-293 175.5,-293 175.5,-271 8.5,-271"/>
<polygon fill="none" stroke="black" points="8.5,-271 8.5,-293 175.5,-293 175.5,-271 8.5,-271"/>
<text text-anchor="start" x="39.5" y="-279.2" font-family="Helvetica,sans-Serif" font-size="11.00">model</text>
<polygon fill="#ffffff" stroke="none" points="8.5,-253 8.5,-271 62.5,-271 62.5,-253 8.5,-253"/>
<polygon fill="none" stroke="black" points="8.5,-253 8.5,-271 62.5,-271 62.5,-253 8.5,-253"/>
<text text-anchor="start" x="11.5" y="-259.2" font-family="Helvetica,sans-Serif" font-size="11.00"> &#160;</text>
<polygon fill="#ffffff" stroke="none" points="62.5,-253 62.5,-271 131.5,-271 131.5,-253 62.5,-253"/>
<polygon fill="none" stroke="black" points="62.5,-253 62.5,-271 131.5,-271 131.5,-253 62.5,-253"/>
<text text-anchor="start" x="85.5" y="-259.2" font-family="Helvetica,sans-Serif" font-size="11.00">79 rows</text>
<polygon fill="#ffffff" stroke="none" points="131.5,-253 131.5,-271 175.5,-271 175.5,-253 131.5,-253"/>
<polygon fill="none" stroke="black" points="131.5,-253 131.5,-271 175.5,-271 175.5,-253 131.5,-253"/>
<text text-anchor="start" x="155.5" y="-259.2" font-family="Helvetica,sans-Serif" font-size="11.00">6 &gt;</text>
</a>
</g>
</g>
<!-- auth_permission&#45;&gt;django_content_type -->
<g id="edge3" class="edge"><title>auth_permission:content_type_id:w&#45;&gt;django_content_type:id:e</title>
<path fill="none" stroke="black" d="M211.465,-360.218C198.932,-349.804 198.245,-326 176.5,-326"/>
<polygon fill="black" stroke="black" points="217.927,-362.42 224.339,-368.408 221.714,-363.71 225.5,-365 225.5,-365 225.5,-365 221.714,-363.71 226.661,-361.592 217.927,-362.42 217.927,-362.42"/>
<ellipse fill="none" stroke="black" cx="214.898" cy="-361.388" rx="3.20001" ry="3.20001"/>
</g>
<!-- core_createdresource -->
<g id="node5" class="node"><title>core_createdresource</title>
<g id="a_node5"><a xlink:href="../../tables/core_createdresource.html" xlink:title="core_createdresource" target="_top">
<polygon fill="#ffffff" stroke="none" points="236.5,-81 236.5,-139 408.5,-139 408.5,-81 236.5,-81"/>
<polygon fill="#f5f5f5" stroke="none" points="236.5,-117 236.5,-139 408.5,-139 408.5,-117 236.5,-117"/>
<polygon fill="none" stroke="black" points="236.5,-117 236.5,-139 408.5,-139 408.5,-117 236.5,-117"/>
<text text-anchor="start" x="241.5" y="-126.2" font-family="Helvetica,sans-Serif" font-weight="bold" font-size="11.00">core_createdresource</text>
<text text-anchor="start" x="369.5" y="-125.2" font-family="Helvetica,sans-Serif" font-size="11.00">[table]</text>
<polygon fill="none" stroke="black" points="236.5,-99 236.5,-117 408.5,-117 408.5,-99 236.5,-99"/>
<text text-anchor="start" x="239.5" y="-105.2" font-family="Helvetica,sans-Serif" font-size="11.00">...</text>
<polygon fill="#ffffff" stroke="none" points="236.5,-81 236.5,-99 299.5,-99 299.5,-81 236.5,-81"/>
<polygon fill="none" stroke="black" points="236.5,-81 236.5,-99 299.5,-99 299.5,-81 236.5,-81"/>
<text text-anchor="start" x="239.5" y="-87.2" font-family="Helvetica,sans-Serif" font-size="11.00">&lt; 2</text>
<polygon fill="#ffffff" stroke="none" points="299.5,-81 299.5,-99 374.5,-99 374.5,-81 299.5,-81"/>
<polygon fill="none" stroke="black" points="299.5,-81 299.5,-99 374.5,-99 374.5,-81 299.5,-81"/>
<text text-anchor="start" x="322.5" y="-87.2" font-family="Helvetica,sans-Serif" font-size="11.00">365 rows</text>
<polygon fill="#ffffff" stroke="none" points="374.5,-81 374.5,-99 408.5,-99 408.5,-81 374.5,-81"/>
<polygon fill="none" stroke="black" points="374.5,-81 374.5,-99 408.5,-99 408.5,-81 374.5,-81"/>
<text text-anchor="start" x="398.5" y="-87.2" font-family="Helvetica,sans-Serif" font-size="11.00"> &#160;</text>
</a>
</g>
</g>
<!-- core_createdresource&#45;&gt;django_content_type -->
<g id="edge4" class="edge"><title>core_createdresource:elipses:w&#45;&gt;django_content_type:id:e</title>
<path fill="none" stroke="black" d="M221.125,-109.885C149.905,-131.192 271.385,-326 176.5,-326"/>
<polygon fill="black" stroke="black" points="227.568,-109.04 235.968,-111.569 231.534,-108.52 235.5,-108 235.5,-108 235.5,-108 231.534,-108.52 235.032,-104.431 227.568,-109.04 227.568,-109.04"/>
<ellipse fill="none" stroke="black" cx="224.395" cy="-109.456" rx="3.2" ry="3.2"/>
</g>
<!-- core_exportedresource -->
<g id="node6" class="node"><title>core_exportedresource</title>
<g id="a_node6"><a xlink:href="../../tables/core_exportedresource.html" xlink:title="core_exportedresource" target="_top">
<polygon fill="#ffffff" stroke="none" points="232.5,-571 232.5,-629 412.5,-629 412.5,-571 232.5,-571"/>
<polygon fill="#f5f5f5" stroke="none" points="232.5,-607 232.5,-629 412.5,-629 412.5,-607 232.5,-607"/>
<polygon fill="none" stroke="black" points="232.5,-607 232.5,-629 412.5,-629 412.5,-607 232.5,-607"/>
<text text-anchor="start" x="237.5" y="-616.2" font-family="Helvetica,sans-Serif" font-weight="bold" font-size="11.00">core_exportedresource</text>
<text text-anchor="start" x="373.5" y="-615.2" font-family="Helvetica,sans-Serif" font-size="11.00">[table]</text>
<polygon fill="none" stroke="black" points="232.5,-589 232.5,-607 412.5,-607 412.5,-589 232.5,-589"/>
<text text-anchor="start" x="235.5" y="-595.2" font-family="Helvetica,sans-Serif" font-size="11.00">...</text>
<polygon fill="#ffffff" stroke="none" points="232.5,-571 232.5,-589 306.5,-589 306.5,-571 232.5,-571"/>
<polygon fill="none" stroke="black" points="232.5,-571 232.5,-589 306.5,-589 306.5,-571 232.5,-571"/>
<text text-anchor="start" x="235.5" y="-577.2" font-family="Helvetica,sans-Serif" font-size="11.00">&lt; 2</text>
<polygon fill="#ffffff" stroke="none" points="306.5,-571 306.5,-589 373.5,-589 373.5,-571 306.5,-571"/>
<polygon fill="none" stroke="black" points="306.5,-571 306.5,-589 373.5,-589 373.5,-571 306.5,-571"/>
<text text-anchor="start" x="334.5" y="-577.2" font-family="Helvetica,sans-Serif" font-size="11.00">0 rows</text>
<polygon fill="#ffffff" stroke="none" points="373.5,-571 373.5,-589 412.5,-589 412.5,-571 373.5,-571"/>
<polygon fill="none" stroke="black" points="373.5,-571 373.5,-589 412.5,-589 412.5,-571 373.5,-571"/>
<text text-anchor="start" x="402.5" y="-577.2" font-family="Helvetica,sans-Serif" font-size="11.00"> &#160;</text>
</a>
</g>
</g>
<!-- core_exportedresource&#45;&gt;django_content_type -->
<g id="edge5" class="edge"><title>core_exportedresource:elipses:w&#45;&gt;django_content_type:id:e</title>
<path fill="none" stroke="black" d="M218.076,-592.066C180.84,-552.289 232.748,-326 176.5,-326"/>
<polygon fill="black" stroke="black" points="224.183,-594.765 230.044,-601.293 227.842,-596.383 231.5,-598 231.5,-598 231.5,-598 227.842,-596.383 232.956,-594.707 224.183,-594.765 224.183,-594.765"/>
<ellipse fill="none" stroke="black" cx="221.256" cy="-593.472" rx="3.20001" ry="3.20001"/>
</g>
<!-- django_admin_log -->
<g id="node7" class="node"><title>django_admin_log</title>
<g id="a_node7"><a xlink:href="../../tables/django_admin_log.html" xlink:title="django_admin_log" target="_top">
<polygon fill="#ffffff" stroke="none" points="513.5,-37 513.5,-95 662.5,-95 662.5,-37 513.5,-37"/>
<polygon fill="#f5f5f5" stroke="none" points="514,-73 514,-95 663,-95 663,-73 514,-73"/>
<polygon fill="none" stroke="black" points="514,-73 514,-95 663,-95 663,-73 514,-73"/>
<text text-anchor="start" x="519" y="-82.2" font-family="Helvetica,sans-Serif" font-weight="bold" font-size="11.00">django_admin_log</text>
<text text-anchor="start" x="624" y="-81.2" font-family="Helvetica,sans-Serif" font-size="11.00">[table]</text>
<polygon fill="none" stroke="black" points="514,-55 514,-73 663,-73 663,-55 514,-55"/>
<text text-anchor="start" x="517" y="-61.2" font-family="Helvetica,sans-Serif" font-size="11.00">...</text>
<polygon fill="#ffffff" stroke="none" points="514,-37 514,-55 566,-55 566,-37 514,-37"/>
<polygon fill="none" stroke="black" points="514,-37 514,-55 566,-55 566,-37 514,-37"/>
<text text-anchor="start" x="517" y="-43.2" font-family="Helvetica,sans-Serif" font-size="11.00">&lt; 2</text>
<polygon fill="#ffffff" stroke="none" points="566,-37 566,-55 635,-55 635,-37 566,-37"/>
<polygon fill="none" stroke="black" points="566,-37 566,-55 635,-55 635,-37 566,-37"/>
<text text-anchor="start" x="583" y="-43.2" font-family="Helvetica,sans-Serif" font-size="11.00">229 rows</text>
<polygon fill="#ffffff" stroke="none" points="635,-37 635,-55 663,-55 663,-37 635,-37"/>
<polygon fill="none" stroke="black" points="635,-37 635,-55 663,-55 663,-37 635,-37"/>
<text text-anchor="start" x="653" y="-43.2" font-family="Helvetica,sans-Serif" font-size="11.00"> &#160;</text>
</a>
</g>
</g>
<!-- django_admin_log&#45;&gt;django_content_type -->
<g id="edge6" class="edge"><title>django_admin_log:elipses:w&#45;&gt;django_content_type:id:e</title>
<path fill="none" stroke="black" d="M498.751,-66.1558C482.546,-71.8797 478.268,-88.1758 462,-105 445.008,-122.573 450.132,-136.712 429,-149 346.508,-196.967 287.759,-113.1 216,-176 164.157,-221.442 245.439,-326 176.5,-326"/>
<polygon fill="black" stroke="black" points="505.09,-65.1967 513.539,-67.5595 509.045,-64.5984 513,-64 513,-64 513,-64 509.045,-64.5984 512.461,-60.4405 505.09,-65.1967 505.09,-65.1967"/>
<ellipse fill="none" stroke="black" cx="501.926" cy="-65.6754" rx="3.2" ry="3.2"/>
</g>
<!-- galaxy_user -->
<g id="node8" class="node"><title>galaxy_user</title>
<g id="a_node8"><a xlink:href="../../tables/galaxy_user.html" xlink:title="galaxy_user" target="_top">
<polygon fill="#ffffff" stroke="none" points="265,-187 265,-245 380,-245 380,-187 265,-187"/>
<polygon fill="#f5f5f5" stroke="none" points="265.5,-223 265.5,-245 380.5,-245 380.5,-223 265.5,-223"/>
<polygon fill="none" stroke="black" points="265.5,-223 265.5,-245 380.5,-245 380.5,-223 265.5,-223"/>
<text text-anchor="start" x="270.5" y="-232.2" font-family="Helvetica,sans-Serif" font-weight="bold" font-size="11.00">galaxy_user</text>
<text text-anchor="start" x="341.5" y="-231.2" font-family="Helvetica,sans-Serif" font-size="11.00">[table]</text>
<polygon fill="none" stroke="black" points="265.5,-205 265.5,-223 380.5,-223 380.5,-205 265.5,-205"/>
<text text-anchor="start" x="268.5" y="-211.2" font-family="Helvetica,sans-Serif" font-size="11.00">...</text>
<polygon fill="#ffffff" stroke="none" points="265.5,-187 265.5,-205 293.5,-205 293.5,-187 265.5,-187"/>
<polygon fill="none" stroke="black" points="265.5,-187 265.5,-205 293.5,-205 293.5,-187 265.5,-187"/>
<text text-anchor="start" x="268.5" y="-193.2" font-family="Helvetica,sans-Serif" font-size="11.00"> &#160;</text>
<polygon fill="#ffffff" stroke="none" points="293.5,-187 293.5,-205 349.5,-205 349.5,-187 293.5,-187"/>
<polygon fill="none" stroke="black" points="293.5,-187 293.5,-205 349.5,-205 349.5,-187 293.5,-187"/>
<text text-anchor="start" x="303.5" y="-193.2" font-family="Helvetica,sans-Serif" font-size="11.00">17 rows</text>
<polygon fill="#ffffff" stroke="none" points="349.5,-187 349.5,-205 380.5,-205 380.5,-187 349.5,-187"/>
<polygon fill="none" stroke="black" points="349.5,-187 349.5,-205 380.5,-205 380.5,-187 349.5,-187"/>
<text text-anchor="start" x="360.5" y="-193.2" font-family="Helvetica,sans-Serif" font-size="11.00">5 &gt;</text>
</a>
</g>
</g>
<!-- django_admin_log&#45;&gt;galaxy_user -->
<g id="edge7" class="edge"><title>django_admin_log:elipses:w&#45;&gt;galaxy_user:elipses:e</title>
<path fill="none" stroke="black" d="M498.315,-65.5831C429.397,-81.6142 464.79,-214 381.5,-214"/>
<polygon fill="black" stroke="black" points="505.046,-64.8575 513.386,-67.5793 509.023,-64.4288 513,-64 513,-64 513,-64 509.023,-64.4288 512.614,-60.4207 505.046,-64.8575 505.046,-64.8575"/>
<ellipse fill="none" stroke="black" cx="501.865" cy="-65.2005" rx="3.2" ry="3.2"/>
</g>
<!-- galaxy_user_user_permissions -->
<g id="node9" class="node"><title>galaxy_user_user_permissions</title>
<g id="a_node9"><a xlink:href="../../tables/galaxy_user_user_permissions.html" xlink:title="galaxy_user_user_permissions" target="_top">
<polygon fill="#ffffff" stroke="none" points="479.5,-116 479.5,-222 696.5,-222 696.5,-116 479.5,-116"/>
<polygon fill="#f5f5f5" stroke="none" points="480,-200 480,-222 697,-222 697,-200 480,-200"/>
<polygon fill="none" stroke="black" points="480,-200 480,-222 697,-222 697,-200 480,-200"/>
<text text-anchor="start" x="485" y="-209.2" font-family="Helvetica,sans-Serif" font-weight="bold" font-size="11.00">galaxy_user_user_permissions</text>
<text text-anchor="start" x="658" y="-208.2" font-family="Helvetica,sans-Serif" font-size="11.00">[table]</text>
<polygon fill="none" stroke="black" points="480,-178 480,-200 697,-200 697,-178 480,-178"/>
<image xlink:href="../../images/primaryKeys.png" width="11px" height="12px" preserveAspectRatio="xMinYMin meet" x="485" y="-195"/>
<text text-anchor="start" x="509" y="-186.2" font-family="Helvetica,sans-Serif" font-size="11.00">id</text>
<polygon fill="#ffffff" stroke="none" points="480,-156 480,-178 697,-178 697,-156 480,-156"/>
<polygon fill="none" stroke="black" points="480,-156 480,-178 697,-178 697,-156 480,-156"/>
<image xlink:href="../../images/foreignKeys.png" width="11px" height="12px" preserveAspectRatio="xMinYMin meet" x="485" y="-173"/>
<text text-anchor="start" x="509" y="-164.2" font-family="Helvetica,sans-Serif" font-size="11.00">user_id</text>
<polygon fill="#ffffff" stroke="none" points="480,-134 480,-156 697,-156 697,-134 480,-134"/>
<polygon fill="none" stroke="black" points="480,-134 480,-156 697,-156 697,-134 480,-134"/>
<image xlink:href="../../images/foreignKeys.png" width="11px" height="12px" preserveAspectRatio="xMinYMin meet" x="485" y="-151"/>
<text text-anchor="start" x="509" y="-142.2" font-family="Helvetica,sans-Serif" font-size="11.00">permission_id</text>
<polygon fill="#ffffff" stroke="none" points="480,-116 480,-134 572,-134 572,-116 480,-116"/>
<polygon fill="none" stroke="black" points="480,-116 480,-134 572,-134 572,-116 480,-116"/>
<text text-anchor="start" x="483" y="-122.2" font-family="Helvetica,sans-Serif" font-size="11.00">&lt; 2</text>
<polygon fill="#ffffff" stroke="none" points="572,-116 572,-134 649,-134 649,-116 572,-116"/>
<polygon fill="none" stroke="black" points="572,-116 572,-134 649,-134 649,-116 572,-116"/>
<text text-anchor="start" x="610" y="-122.2" font-family="Helvetica,sans-Serif" font-size="11.00">0 rows</text>
<polygon fill="#ffffff" stroke="none" points="649,-116 649,-134 697,-134 697,-116 649,-116"/>
<polygon fill="none" stroke="black" points="649,-116 649,-134 697,-134 697,-116 649,-116"/>
<text text-anchor="start" x="687" y="-122.2" font-family="Helvetica,sans-Serif" font-size="11.00"> &#160;</text>
</a>
</g>
</g>
<!-- galaxy_user_user_permissions&#45;&gt;auth_permission -->
<g id="edge8" class="edge"><title>galaxy_user_user_permissions:permission_id:w&#45;&gt;auth_permission:id.type:e</title>
<path fill="none" stroke="black" d="M465.576,-151.01C429.01,-190.307 475.191,-409 420.5,-409"/>
<polygon fill="black" stroke="black" points="471.698,-148.269 480.471,-148.286 475.349,-146.635 479,-145 479,-145 479,-145 475.349,-146.635 477.529,-141.714 471.698,-148.269 471.698,-148.269"/>
<ellipse fill="none" stroke="black" cx="468.778" cy="-149.577" rx="3.20001" ry="3.20001"/>
</g>
<!-- galaxy_user_user_permissions&#45;&gt;galaxy_user -->
<g id="edge9" class="edge"><title>galaxy_user_user_permissions:user_id:w&#45;&gt;galaxy_user:elipses:e</title>
<path fill="none" stroke="black" d="M464.318,-168.673C430.002,-177.045 424.156,-214 381.5,-214"/>
<polygon fill="black" stroke="black" points="471.051,-167.906 479.408,-170.577 475.026,-167.453 479,-167 479,-167 479,-167 475.026,-167.453 478.592,-163.423 471.051,-167.906 471.051,-167.906"/>
<ellipse fill="none" stroke="black" cx="467.872" cy="-168.268" rx="3.2" ry="3.2"/>
</g>
<!-- guardian_groupobjectpermission -->
<g id="node10" class="node"><title>guardian_groupobjectpermission</title>
<g id="a_node10"><a xlink:href="../../tables/guardian_groupobjectpermission.html" xlink:title="guardian_groupobjectpermission" target="_top">
<polygon fill="#ffffff" stroke="none" points="470,-541 470,-691 706,-691 706,-541 470,-541"/>
<polygon fill="#f5f5f5" stroke="none" points="470,-669 470,-691 706,-691 706,-669 470,-669"/>
<polygon fill="none" stroke="black" points="470,-669 470,-691 706,-691 706,-669 470,-669"/>
<text text-anchor="start" x="475" y="-678.2" font-family="Helvetica,sans-Serif" font-weight="bold" font-size="11.00">guardian_groupobjectpermission</text>
<text text-anchor="start" x="667" y="-677.2" font-family="Helvetica,sans-Serif" font-size="11.00">[table]</text>
<polygon fill="none" stroke="black" points="470,-647 470,-669 706,-669 706,-647 470,-647"/>
<image xlink:href="../../images/primaryKeys.png" width="11px" height="12px" preserveAspectRatio="xMinYMin meet" x="475" y="-664"/>
<text text-anchor="start" x="499" y="-655.2" font-family="Helvetica,sans-Serif" font-size="11.00">id</text>
<polygon fill="#ffffff" stroke="none" points="470,-625 470,-647 706,-647 706,-625 470,-625"/>
<polygon fill="none" stroke="black" points="470,-625 470,-647 706,-647 706,-625 470,-625"/>
<text text-anchor="start" x="499" y="-633.2" font-family="Helvetica,sans-Serif" font-size="11.00">object_pk</text>
<polygon fill="#ffffff" stroke="none" points="470,-603 470,-625 706,-625 706,-603 470,-603"/>
<polygon fill="none" stroke="black" points="470,-603 470,-625 706,-625 706,-603 470,-603"/>
<image xlink:href="../../images/foreignKeys.png" width="11px" height="12px" preserveAspectRatio="xMinYMin meet" x="475" y="-620"/>
<text text-anchor="start" x="499" y="-611.2" font-family="Helvetica,sans-Serif" font-size="11.00">content_type_id</text>
<polygon fill="#ffffff" stroke="none" points="470,-581 470,-603 706,-603 706,-581 470,-581"/>
<polygon fill="none" stroke="black" points="470,-581 470,-603 706,-603 706,-581 470,-581"/>
<image xlink:href="../../images/foreignKeys.png" width="11px" height="12px" preserveAspectRatio="xMinYMin meet" x="475" y="-598"/>
<text text-anchor="start" x="499" y="-589.2" font-family="Helvetica,sans-Serif" font-size="11.00">group_id</text>
<polygon fill="#ffffff" stroke="none" points="470,-559 470,-581 706,-581 706,-559 470,-559"/>
<polygon fill="none" stroke="black" points="470,-559 470,-581 706,-581 706,-559 470,-559"/>
<image xlink:href="../../images/foreignKeys.png" width="11px" height="12px" preserveAspectRatio="xMinYMin meet" x="475" y="-576"/>
<text text-anchor="start" x="499" y="-567.2" font-family="Helvetica,sans-Serif" font-size="11.00">permission_id</text>
<polygon fill="#ffffff" stroke="none" points="470,-541 470,-559 565,-559 565,-541 470,-541"/>
<polygon fill="none" stroke="black" points="470,-541 470,-559 565,-559 565,-541 470,-541"/>
<text text-anchor="start" x="473" y="-547.2" font-family="Helvetica,sans-Serif" font-size="11.00">&lt; 3</text>
<polygon fill="#ffffff" stroke="none" points="565,-541 565,-559 656,-559 656,-541 565,-541"/>
<polygon fill="none" stroke="black" points="565,-541 565,-559 656,-559 656,-541 565,-541"/>
<text text-anchor="start" x="604" y="-547.2" font-family="Helvetica,sans-Serif" font-size="11.00">168 rows</text>
<polygon fill="#ffffff" stroke="none" points="656,-541 656,-559 706,-559 706,-541 656,-541"/>
<polygon fill="none" stroke="black" points="656,-541 656,-559 706,-559 706,-541 656,-541"/>
<text text-anchor="start" x="696" y="-547.2" font-family="Helvetica,sans-Serif" font-size="11.00"> &#160;</text>
</a>
</g>
</g>
<!-- guardian_groupobjectpermission&#45;&gt;auth_group -->
<g id="edge11" class="edge"><title>guardian_groupobjectpermission:group_id:w&#45;&gt;auth_group:elipses:e</title>
<path fill="none" stroke="black" d="M455.002,-588.344C441.702,-579.244 444.987,-555.015 429,-537 409.483,-515.006 409.905,-492 380.5,-492"/>
<polygon fill="black" stroke="black" points="461.26,-589.978 468.09,-595.483 465.13,-590.989 469,-592 469,-592 469,-592 465.13,-590.989 469.91,-588.517 461.26,-589.978 461.26,-589.978"/>
<ellipse fill="none" stroke="black" cx="458.164" cy="-589.17" rx="3.2" ry="3.2"/>
</g>
<!-- guardian_groupobjectpermission&#45;&gt;auth_permission -->
<g id="edge12" class="edge"><title>guardian_groupobjectpermission:permission_id:w&#45;&gt;auth_permission:id.type:e</title>
<path fill="none" stroke="black" d="M454.826,-567.34C408.63,-546.407 489.539,-409 420.5,-409"/>
<polygon fill="black" stroke="black" points="461.137,-568.524 468.336,-573.538 465.069,-569.262 469,-570 469,-570 469,-570 465.069,-569.262 469.664,-566.462 461.137,-568.524 461.137,-568.524"/>
<ellipse fill="none" stroke="black" cx="457.992" cy="-567.934" rx="3.2" ry="3.2"/>
</g>
<!-- guardian_groupobjectpermission&#45;&gt;django_content_type -->
<g id="edge10" class="edge"><title>guardian_groupobjectpermission:content_type_id:w&#45;&gt;django_content_type:id:e</title>
<path fill="none" stroke="black" d="M455.138,-609.161C444.129,-598.406 448.948,-572.56 429,-561 346.436,-513.157 285.52,-599.366 216,-534 147.447,-469.544 270.597,-326 176.5,-326"/>
<polygon fill="black" stroke="black" points="461.447,-611.363 467.813,-617.399 465.224,-612.682 469,-614 469,-614 469,-614 465.224,-612.682 470.187,-610.601 461.447,-611.363 461.447,-611.363"/>
<ellipse fill="none" stroke="black" cx="458.426" cy="-610.308" rx="3.20001" ry="3.20001"/>
</g>
<!-- guardian_userobjectpermission -->
<g id="node11" class="node"><title>guardian_userobjectpermission</title>
<g id="a_node11"><a xlink:href="../../tables/guardian_userobjectpermission.html" xlink:title="guardian_userobjectpermission" target="_top">
<polygon fill="#ffffff" stroke="none" points="474,-243 474,-393 702,-393 702,-243 474,-243"/>
<polygon fill="#f5f5f5" stroke="none" points="474,-371 474,-393 702,-393 702,-371 474,-371"/>
<polygon fill="none" stroke="black" points="474,-371 474,-393 702,-393 702,-371 474,-371"/>
<text text-anchor="start" x="479" y="-380.2" font-family="Helvetica,sans-Serif" font-weight="bold" font-size="11.00">guardian_userobjectpermission</text>
<text text-anchor="start" x="663" y="-379.2" font-family="Helvetica,sans-Serif" font-size="11.00">[table]</text>
<polygon fill="none" stroke="black" points="474,-349 474,-371 702,-371 702,-349 474,-349"/>
<image xlink:href="../../images/primaryKeys.png" width="11px" height="12px" preserveAspectRatio="xMinYMin meet" x="479" y="-366"/>
<text text-anchor="start" x="504" y="-357.2" font-family="Helvetica,sans-Serif" font-size="11.00">id</text>
<polygon fill="#ffffff" stroke="none" points="474,-327 474,-349 702,-349 702,-327 474,-327"/>
<polygon fill="none" stroke="black" points="474,-327 474,-349 702,-349 702,-327 474,-327"/>
<text text-anchor="start" x="504" y="-335.2" font-family="Helvetica,sans-Serif" font-size="11.00">object_pk</text>
<polygon fill="#ffffff" stroke="none" points="474,-305 474,-327 702,-327 702,-305 474,-305"/>
<polygon fill="none" stroke="black" points="474,-305 474,-327 702,-327 702,-305 474,-305"/>
<image xlink:href="../../images/foreignKeys.png" width="11px" height="12px" preserveAspectRatio="xMinYMin meet" x="479" y="-322"/>
<text text-anchor="start" x="504" y="-313.2" font-family="Helvetica,sans-Serif" font-size="11.00">content_type_id</text>
<polygon fill="#ffffff" stroke="none" points="474,-283 474,-305 702,-305 702,-283 474,-283"/>
<polygon fill="none" stroke="black" points="474,-283 474,-305 702,-305 702,-283 474,-283"/>
<image xlink:href="../../images/foreignKeys.png" width="11px" height="12px" preserveAspectRatio="xMinYMin meet" x="479" y="-300"/>
<text text-anchor="start" x="504" y="-291.2" font-family="Helvetica,sans-Serif" font-size="11.00">permission_id</text>
<polygon fill="#ffffff" stroke="none" points="474,-261 474,-283 702,-283 702,-261 474,-261"/>
<polygon fill="none" stroke="black" points="474,-261 474,-283 702,-283 702,-261 474,-261"/>
<image xlink:href="../../images/foreignKeys.png" width="11px" height="12px" preserveAspectRatio="xMinYMin meet" x="479" y="-278"/>
<text text-anchor="start" x="504" y="-269.2" font-family="Helvetica,sans-Serif" font-size="11.00">user_id</text>
<polygon fill="#ffffff" stroke="none" points="474,-243 474,-261 572,-261 572,-243 474,-243"/>
<polygon fill="none" stroke="black" points="474,-243 474,-261 572,-261 572,-243 474,-243"/>
<text text-anchor="start" x="477" y="-249.2" font-family="Helvetica,sans-Serif" font-size="11.00">&lt; 3</text>
<polygon fill="#ffffff" stroke="none" points="572,-243 572,-261 651,-261 651,-243 572,-243"/>
<polygon fill="none" stroke="black" points="572,-243 572,-261 651,-261 651,-243 572,-243"/>
<text text-anchor="start" x="612" y="-249.2" font-family="Helvetica,sans-Serif" font-size="11.00">0 rows</text>
<polygon fill="#ffffff" stroke="none" points="651,-243 651,-261 702,-261 702,-243 651,-243"/>
<polygon fill="none" stroke="black" points="651,-243 651,-261 702,-261 702,-243 651,-243"/>
<text text-anchor="start" x="692" y="-249.2" font-family="Helvetica,sans-Serif" font-size="11.00"> &#160;</text>
</a>
</g>
</g>
<!-- guardian_userobjectpermission&#45;&gt;auth_permission -->
<g id="edge14" class="edge"><title>guardian_userobjectpermission:permission_id:w&#45;&gt;auth_permission:id.type:e</title>
<path fill="none" stroke="black" d="M458.823,-297.568C428.153,-316.979 470.76,-409 420.5,-409"/>
<polygon fill="black" stroke="black" points="465.242,-295.952 473.879,-297.491 469.121,-294.976 473,-294 473,-294 473,-294 469.121,-294.976 472.121,-290.509 465.242,-295.952 465.242,-295.952"/>
<ellipse fill="none" stroke="black" cx="462.139" cy="-296.733" rx="3.2" ry="3.2"/>
</g>
<!-- guardian_userobjectpermission&#45;&gt;django_content_type -->
<g id="edge13" class="edge"><title>guardian_userobjectpermission:content_type_id:w&#45;&gt;django_content_type:id:e</title>
<path fill="none" stroke="black" d="M458.673,-313.567C449.174,-309.97 443.491,-303.402 429,-301 335.608,-285.518 306.924,-274.644 216,-301 196.045,-306.784 197.276,-326 176.5,-326"/>
<polygon fill="black" stroke="black" points="465.113,-314.66 472.397,-319.549 469.056,-315.33 473,-316 473,-316 473,-316 469.056,-315.33 473.603,-312.451 465.113,-314.66 465.113,-314.66"/>
<ellipse fill="none" stroke="black" cx="461.958" cy="-314.125" rx="3.2" ry="3.2"/>
</g>
<!-- guardian_userobjectpermission&#45;&gt;galaxy_user -->
<g id="edge15" class="edge"><title>guardian_userobjectpermission:user_id:w&#45;&gt;galaxy_user:elipses:e</title>
<path fill="none" stroke="black" d="M458.521,-269.936C425.259,-259.604 424.194,-214 381.5,-214"/>
<polygon fill="black" stroke="black" points="465.08,-270.871 472.492,-275.564 469.04,-271.435 473,-272 473,-272 473,-272 469.04,-271.435 473.508,-268.436 465.08,-270.871 465.08,-270.871"/>
<ellipse fill="none" stroke="black" cx="461.912" cy="-270.419" rx="3.2" ry="3.2"/>
</g>
</g>
</svg>
