<?xml version="1.0" encoding="UTF-8" standalone="no"?>
<!DOCTYPE svg PUBLIC "-//W3C//DTD SVG 1.1//EN"
 "http://www.w3.org/Graphics/SVG/1.1/DTD/svg11.dtd">
<!-- Generated by graphviz version 2.38.0 (20140413.2041)
 -->
<!-- Title: oneDegreeRelationshipsDiagram Pages: 1 -->
<svg width="441pt" height="278pt"
 viewBox="0.00 0.00 441.00 278.00" xmlns="http://www.w3.org/2000/svg" xmlns:xlink="http://www.w3.org/1999/xlink">
<g id="graph0" class="graph" transform="scale(1 1) rotate(0) translate(4 274)">
<title>oneDegreeRelationshipsDiagram</title>
<polygon fill="#ffffff" stroke="none" points="-4,4 -4,-274 437,-274 437,4 -4,4"/>
<text text-anchor="middle" x="74.5" y="-7.2" font-family="Helvetica,sans-Serif" font-size="11.00">Generated by SchemaSpy</text>
<!-- auth_group_permissions -->
<g id="node1" class="node"><title>auth_group_permissions</title>
<g id="a_node1"><a xlink:href="../../tables/auth_group_permissions.html" xlink:title="auth_group_permissions" target="_top">
<polygon fill="#ffffff" stroke="none" points="200,-138 200,-248 425,-248 425,-138 200,-138"/>
<polygon fill="#f5f5f5" stroke="none" points="202.5,-224 202.5,-246 423.5,-246 423.5,-224 202.5,-224"/>
<polygon fill="none" stroke="black" points="202.5,-224 202.5,-246 423.5,-246 423.5,-224 202.5,-224"/>
<text text-anchor="start" x="207.5" y="-233.2" font-family="Helvetica,sans-Serif" font-weight="bold" font-size="11.00">auth_group_permissions</text>
<text text-anchor="start" x="384.5" y="-232.2" font-family="Helvetica,sans-Serif" font-size="11.00">[table]</text>
<polygon fill="none" stroke="black" points="202.5,-202 202.5,-224 368.5,-224 368.5,-202 202.5,-202"/>
<image xlink:href="../../images/primaryKeys.png" width="11px" height="12px" preserveAspectRatio="xMinYMin meet" x="207.5" y="-219"/>
<text text-anchor="start" x="222.5" y="-210.2" font-family="Helvetica,sans-Serif" font-size="11.00">id</text>
<polygon fill="none" stroke="black" points="368.5,-202 368.5,-224 423.5,-224 423.5,-202 368.5,-202"/>
<text text-anchor="start" x="371.5" y="-210.2" font-family="Helvetica,sans-Serif" font-size="11.00">serial[10]</text>
<polygon fill="#ffffff" stroke="none" points="202.5,-180 202.5,-202 368.5,-202 368.5,-180 202.5,-180"/>
<polygon fill="none" stroke="black" points="202.5,-180 202.5,-202 368.5,-202 368.5,-180 202.5,-180"/>
<image xlink:href="../../images/foreignKeys.png" width="11px" height="12px" preserveAspectRatio="xMinYMin meet" x="207.5" y="-197"/>
<text text-anchor="start" x="222.5" y="-188.2" font-family="Helvetica,sans-Serif" font-size="11.00">group_id</text>
<polygon fill="none" stroke="black" points="368.5,-180 368.5,-202 423.5,-202 423.5,-180 368.5,-180"/>
<text text-anchor="start" x="371.5" y="-188.2" font-family="Helvetica,sans-Serif" font-size="11.00">int4[10]</text>
<polygon fill="#ffffff" stroke="none" points="202.5,-158 202.5,-180 368.5,-180 368.5,-158 202.5,-158"/>
<polygon fill="none" stroke="black" points="202.5,-158 202.5,-180 368.5,-180 368.5,-158 202.5,-158"/>
<image xlink:href="../../images/foreignKeys.png" width="11px" height="12px" preserveAspectRatio="xMinYMin meet" x="207.5" y="-175"/>
<text text-anchor="start" x="222.5" y="-166.2" font-family="Helvetica,sans-Serif" font-size="11.00">permission_id</text>
<polygon fill="none" stroke="black" points="368.5,-158 368.5,-180 423.5,-180 423.5,-158 368.5,-158"/>
<text text-anchor="start" x="371.5" y="-166.2" font-family="Helvetica,sans-Serif" font-size="11.00">int4[10]</text>
<polygon fill="#ffffff" stroke="none" points="202.5,-140 202.5,-158 275.5,-158 275.5,-140 202.5,-140"/>
<polygon fill="none" stroke="black" points="202.5,-140 202.5,-158 275.5,-158 275.5,-140 202.5,-140"/>
<text text-anchor="start" x="205.5" y="-146.2" font-family="Helvetica,sans-Serif" font-size="11.00">&lt; 2</text>
<polygon fill="#ffffff" stroke="none" points="275.5,-140 275.5,-158 368.5,-158 368.5,-140 275.5,-140"/>
<polygon fill="none" stroke="black" points="275.5,-140 275.5,-158 368.5,-158 368.5,-140 275.5,-140"/>
<text text-anchor="start" x="329.5" y="-146.2" font-family="Helvetica,sans-Serif" font-size="11.00">0 rows</text>
<polygon fill="#ffffff" stroke="none" points="368.5,-140 368.5,-158 423.5,-158 423.5,-140 368.5,-140"/>
<polygon fill="none" stroke="black" points="368.5,-140 368.5,-158 423.5,-158 423.5,-140 368.5,-140"/>
<text text-anchor="start" x="403.5" y="-146.2" font-family="Helvetica,sans-Serif" font-size="11.00">0 &gt;</text>
<polygon fill="none" stroke="black" stroke-width="2" points="201,-139 201,-247 424,-247 424,-139 201,-139"/>
</a>
</g>
</g>
<!-- auth_group -->
<g id="node2" class="node"><title>auth_group</title>
<g id="a_node2"><a xlink:href="../../tables/auth_group.html" xlink:title="auth_group" target="_top">
<polygon fill="#ffffff" stroke="none" points="23,-182 23,-266 136,-266 136,-182 23,-182"/>
<polygon fill="#f5f5f5" stroke="none" points="23.5,-244 23.5,-266 136.5,-266 136.5,-244 23.5,-244"/>
<polygon fill="none" stroke="black" points="23.5,-244 23.5,-266 136.5,-266 136.5,-244 23.5,-244"/>
<text text-anchor="start" x="28.5" y="-253.2" font-family="Helvetica,sans-Serif" font-weight="bold" font-size="11.00">auth_group</text>
<text text-anchor="start" x="97.5" y="-252.2" font-family="Helvetica,sans-Serif" font-size="11.00">[table]</text>
<polygon fill="none" stroke="black" points="23.5,-222 23.5,-244 136.5,-244 136.5,-222 23.5,-222"/>
<image xlink:href="../../images/primaryKeys.png" width="11px" height="12px" preserveAspectRatio="xMinYMin meet" x="28.5" y="-239"/>
<text text-anchor="start" x="55.5" y="-230.2" font-family="Helvetica,sans-Serif" font-size="11.00">id</text>
<polygon fill="#ffffff" stroke="none" points="23.5,-200 23.5,-222 136.5,-222 136.5,-200 23.5,-200"/>
<polygon fill="none" stroke="black" points="23.5,-200 23.5,-222 136.5,-222 136.5,-200 23.5,-200"/>
<text text-anchor="start" x="55.5" y="-208.2" font-family="Helvetica,sans-Serif" font-size="11.00">name</text>
<polygon fill="#ffffff" stroke="none" points="23.5,-182 23.5,-200 50.5,-200 50.5,-182 23.5,-182"/>
<polygon fill="none" stroke="black" points="23.5,-182 23.5,-200 50.5,-200 50.5,-182 23.5,-182"/>
<text text-anchor="start" x="26.5" y="-188.2" font-family="Helvetica,sans-Serif" font-size="11.00"> &#160;</text>
<polygon fill="#ffffff" stroke="none" points="50.5,-182 50.5,-200 106.5,-200 106.5,-182 50.5,-182"/>
<polygon fill="none" stroke="black" points="50.5,-182 50.5,-200 106.5,-200 106.5,-182 50.5,-182"/>
<text text-anchor="start" x="60.5" y="-188.2" font-family="Helvetica,sans-Serif" font-size="11.00">15 rows</text>
<polygon fill="#ffffff" stroke="none" points="106.5,-182 106.5,-200 136.5,-200 136.5,-182 106.5,-182"/>
<polygon fill="none" stroke="black" points="106.5,-182 106.5,-200 136.5,-200 136.5,-182 106.5,-182"/>
<text text-anchor="start" x="116.5" y="-188.2" font-family="Helvetica,sans-Serif" font-size="11.00">3 &gt;</text>
</a>
</g>
</g>
<!-- auth_group_permissions&#45;&gt;auth_group -->
<g id="edge1" class="edge"><title>auth_group_permissions:group_id:w&#45;&gt;auth_group:id:e</title>
<path fill="none" stroke="black" d="M187.217,-194.157C167.762,-203.924 165.808,-233 137.5,-233"/>
<polygon fill="black" stroke="black" points="193.689,-192.727 202.277,-194.515 197.594,-191.863 201.5,-191 201.5,-191 201.5,-191 197.594,-191.863 200.723,-187.485 193.689,-192.727 193.689,-192.727"/>
<ellipse fill="none" stroke="black" cx="190.564" cy="-193.417" rx="3.2" ry="3.2"/>
</g>
<!-- auth_permission -->
<g id="node3" class="node"><title>auth_permission</title>
<g id="a_node3"><a xlink:href="../../tables/auth_permission.html" xlink:title="auth_permission" target="_top">
<polygon fill="#ffffff" stroke="none" points="8,-37 8,-161 151,-161 151,-37 8,-37"/>
<polygon fill="#f5f5f5" stroke="none" points="8.5,-139 8.5,-161 151.5,-161 151.5,-139 8.5,-139"/>
<polygon fill="none" stroke="black" points="8.5,-139 8.5,-161 151.5,-161 151.5,-139 8.5,-139"/>
<text text-anchor="start" x="13.5" y="-148.2" font-family="Helvetica,sans-Serif" font-weight="bold" font-size="11.00">auth_permission</text>
<text text-anchor="start" x="112.5" y="-147.2" font-family="Helvetica,sans-Serif" font-size="11.00">[table]</text>
<polygon fill="none" stroke="black" points="8.5,-117 8.5,-139 151.5,-139 151.5,-117 8.5,-117"/>
<image xlink:href="../../images/primaryKeys.png" width="11px" height="12px" preserveAspectRatio="xMinYMin meet" x="13.5" y="-134"/>
<text text-anchor="start" x="40.5" y="-125.2" font-family="Helvetica,sans-Serif" font-size="11.00">id</text>
<polygon fill="#ffffff" stroke="none" points="8.5,-95 8.5,-117 151.5,-117 151.5,-95 8.5,-95"/>
<polygon fill="none" stroke="black" points="8.5,-95 8.5,-117 151.5,-117 151.5,-95 8.5,-95"/>
<image xlink:href="../../images/foreignKeys.png" width="11px" height="12px" preserveAspectRatio="xMinYMin meet" x="13.5" y="-112"/>
<text text-anchor="start" x="40.5" y="-103.2" font-family="Helvetica,sans-Serif" font-size="11.00">content_type_id</text>
<polygon fill="#ffffff" stroke="none" points="8.5,-73 8.5,-95 151.5,-95 151.5,-73 8.5,-73"/>
<polygon fill="none" stroke="black" points="8.5,-73 8.5,-95 151.5,-95 151.5,-73 8.5,-73"/>
<text text-anchor="start" x="40.5" y="-81.2" font-family="Helvetica,sans-Serif" font-size="11.00">codename</text>
<polygon fill="none" stroke="black" points="8.5,-55 8.5,-73 151.5,-73 151.5,-55 8.5,-55"/>
<text text-anchor="start" x="11.5" y="-61.2" font-family="Helvetica,sans-Serif" font-size="11.00">...</text>
<polygon fill="#ffffff" stroke="none" points="8.5,-37 8.5,-55 52.5,-55 52.5,-37 8.5,-37"/>
<polygon fill="none" stroke="black" points="8.5,-37 8.5,-55 52.5,-55 52.5,-37 8.5,-37"/>
<text text-anchor="start" x="11.5" y="-43.2" font-family="Helvetica,sans-Serif" font-size="11.00">&lt; 1</text>
<polygon fill="#ffffff" stroke="none" points="52.5,-37 52.5,-55 117.5,-55 117.5,-37 52.5,-37"/>
<polygon fill="none" stroke="black" points="52.5,-37 52.5,-55 117.5,-55 117.5,-37 52.5,-37"/>
<text text-anchor="start" x="65.5" y="-43.2" font-family="Helvetica,sans-Serif" font-size="11.00">322 rows</text>
<polygon fill="#ffffff" stroke="none" points="117.5,-37 117.5,-55 151.5,-55 151.5,-37 117.5,-37"/>
<polygon fill="none" stroke="black" points="117.5,-37 117.5,-55 151.5,-55 151.5,-37 117.5,-37"/>
<text text-anchor="start" x="131.5" y="-43.2" font-family="Helvetica,sans-Serif" font-size="11.00">4 &gt;</text>
</a>
</g>
</g>
<!-- auth_group_permissions&#45;&gt;auth_permission -->
<g id="edge2" class="edge"><title>auth_group_permissions:permission_id:w&#45;&gt;auth_permission:id:e</title>
<path fill="none" stroke="black" d="M187.682,-164.297C174.781,-153.527 174.906,-128 152.5,-128"/>
<polygon fill="black" stroke="black" points="193.927,-166.422 200.34,-172.408 197.713,-167.711 201.5,-169 201.5,-169 201.5,-169 197.713,-167.711 202.66,-165.592 193.927,-166.422 193.927,-166.422"/>
<ellipse fill="none" stroke="black" cx="190.897" cy="-165.391" rx="3.20001" ry="3.20001"/>
</g>
</g>
</svg>
