<?xml version="1.0" encoding="UTF-8" standalone="no"?>
<!DOCTYPE svg PUBLIC "-//W3C//DTD SVG 1.1//EN"
 "http://www.w3.org/Graphics/SVG/1.1/DTD/svg11.dtd">
<!-- Generated by graphviz version 2.38.0 (20140413.2041)
 -->
<!-- Title: twoDegreesRelationshipsDiagram Pages: 1 -->
<svg width="668pt" height="475pt"
 viewBox="0.00 0.00 668.00 475.00" xmlns="http://www.w3.org/2000/svg" xmlns:xlink="http://www.w3.org/1999/xlink">
<g id="graph0" class="graph" transform="scale(1 1) rotate(0) translate(4 471)">
<title>twoDegreesRelationshipsDiagram</title>
<polygon fill="#ffffff" stroke="none" points="-4,4 -4,-471 664,-471 664,4 -4,4"/>
<text text-anchor="middle" x="74.5" y="-7.2" font-family="Helvetica,sans-Serif" font-size="11.00">Generated by SchemaSpy</text>
<!-- auth_group_permissions -->
<g id="node1" class="node"><title>auth_group_permissions</title>
<g id="a_node1"><a xlink:href="../../tables/auth_group_permissions.html" xlink:title="auth_group_permissions" target="_top">
<polygon fill="#ffffff" stroke="none" points="421.5,-195 421.5,-305 646.5,-305 646.5,-195 421.5,-195"/>
<polygon fill="#f5f5f5" stroke="none" points="424,-281 424,-303 645,-303 645,-281 424,-281"/>
<polygon fill="none" stroke="black" points="424,-281 424,-303 645,-303 645,-281 424,-281"/>
<text text-anchor="start" x="429" y="-290.2" font-family="Helvetica,sans-Serif" font-weight="bold" font-size="11.00">auth_group_permissions</text>
<text text-anchor="start" x="606" y="-289.2" font-family="Helvetica,sans-Serif" font-size="11.00">[table]</text>
<polygon fill="none" stroke="black" points="424,-259 424,-281 590,-281 590,-259 424,-259"/>
<image xlink:href="../../images/primaryKeys.png" width="11px" height="12px" preserveAspectRatio="xMinYMin meet" x="429" y="-276"/>
<text text-anchor="start" x="444" y="-267.2" font-family="Helvetica,sans-Serif" font-size="11.00">id</text>
<polygon fill="none" stroke="black" points="590,-259 590,-281 645,-281 645,-259 590,-259"/>
<text text-anchor="start" x="593" y="-267.2" font-family="Helvetica,sans-Serif" font-size="11.00">serial[10]</text>
<polygon fill="#ffffff" stroke="none" points="424,-237 424,-259 590,-259 590,-237 424,-237"/>
<polygon fill="none" stroke="black" points="424,-237 424,-259 590,-259 590,-237 424,-237"/>
<image xlink:href="../../images/foreignKeys.png" width="11px" height="12px" preserveAspectRatio="xMinYMin meet" x="429" y="-254"/>
<text text-anchor="start" x="444" y="-245.2" font-family="Helvetica,sans-Serif" font-size="11.00">group_id</text>
<polygon fill="none" stroke="black" points="590,-237 590,-259 645,-259 645,-237 590,-237"/>
<text text-anchor="start" x="593" y="-245.2" font-family="Helvetica,sans-Serif" font-size="11.00">int4[10]</text>
<polygon fill="#ffffff" stroke="none" points="424,-215 424,-237 590,-237 590,-215 424,-215"/>
<polygon fill="none" stroke="black" points="424,-215 424,-237 590,-237 590,-215 424,-215"/>
<image xlink:href="../../images/foreignKeys.png" width="11px" height="12px" preserveAspectRatio="xMinYMin meet" x="429" y="-232"/>
<text text-anchor="start" x="444" y="-223.2" font-family="Helvetica,sans-Serif" font-size="11.00">permission_id</text>
<polygon fill="none" stroke="black" points="590,-215 590,-237 645,-237 645,-215 590,-215"/>
<text text-anchor="start" x="593" y="-223.2" font-family="Helvetica,sans-Serif" font-size="11.00">int4[10]</text>
<polygon fill="#ffffff" stroke="none" points="424,-197 424,-215 497,-215 497,-197 424,-197"/>
<polygon fill="none" stroke="black" points="424,-197 424,-215 497,-215 497,-197 424,-197"/>
<text text-anchor="start" x="427" y="-203.2" font-family="Helvetica,sans-Serif" font-size="11.00">&lt; 2</text>
<polygon fill="#ffffff" stroke="none" points="497,-197 497,-215 590,-215 590,-197 497,-197"/>
<polygon fill="none" stroke="black" points="497,-197 497,-215 590,-215 590,-197 497,-197"/>
<text text-anchor="start" x="551" y="-203.2" font-family="Helvetica,sans-Serif" font-size="11.00">0 rows</text>
<polygon fill="#ffffff" stroke="none" points="590,-197 590,-215 645,-215 645,-197 590,-197"/>
<polygon fill="none" stroke="black" points="590,-197 590,-215 645,-215 645,-197 590,-197"/>
<text text-anchor="start" x="625" y="-203.2" font-family="Helvetica,sans-Serif" font-size="11.00">0 &gt;</text>
<polygon fill="none" stroke="black" stroke-width="2" points="422.5,-196 422.5,-304 645.5,-304 645.5,-196 422.5,-196"/>
</a>
</g>
</g>
<!-- auth_group -->
<g id="node2" class="node"><title>auth_group</title>
<g id="a_node2"><a xlink:href="../../tables/auth_group.html" xlink:title="auth_group" target="_top">
<polygon fill="#ffffff" stroke="none" points="239,-245 239,-329 352,-329 352,-245 239,-245"/>
<polygon fill="#f5f5f5" stroke="none" points="239.5,-307 239.5,-329 352.5,-329 352.5,-307 239.5,-307"/>
<polygon fill="none" stroke="black" points="239.5,-307 239.5,-329 352.5,-329 352.5,-307 239.5,-307"/>
<text text-anchor="start" x="244.5" y="-316.2" font-family="Helvetica,sans-Serif" font-weight="bold" font-size="11.00">auth_group</text>
<text text-anchor="start" x="313.5" y="-315.2" font-family="Helvetica,sans-Serif" font-size="11.00">[table]</text>
<polygon fill="none" stroke="black" points="239.5,-285 239.5,-307 352.5,-307 352.5,-285 239.5,-285"/>
<image xlink:href="../../images/primaryKeys.png" width="11px" height="12px" preserveAspectRatio="xMinYMin meet" x="244.5" y="-302"/>
<text text-anchor="start" x="271.5" y="-293.2" font-family="Helvetica,sans-Serif" font-size="11.00">id</text>
<polygon fill="#ffffff" stroke="none" points="239.5,-263 239.5,-285 352.5,-285 352.5,-263 239.5,-263"/>
<polygon fill="none" stroke="black" points="239.5,-263 239.5,-285 352.5,-285 352.5,-263 239.5,-263"/>
<text text-anchor="start" x="271.5" y="-271.2" font-family="Helvetica,sans-Serif" font-size="11.00">name</text>
<polygon fill="#ffffff" stroke="none" points="239.5,-245 239.5,-263 266.5,-263 266.5,-245 239.5,-245"/>
<polygon fill="none" stroke="black" points="239.5,-245 239.5,-263 266.5,-263 266.5,-245 239.5,-245"/>
<text text-anchor="start" x="242.5" y="-251.2" font-family="Helvetica,sans-Serif" font-size="11.00"> &#160;</text>
<polygon fill="#ffffff" stroke="none" points="266.5,-245 266.5,-263 322.5,-263 322.5,-245 266.5,-245"/>
<polygon fill="none" stroke="black" points="266.5,-245 266.5,-263 322.5,-263 322.5,-245 266.5,-245"/>
<text text-anchor="start" x="276.5" y="-251.2" font-family="Helvetica,sans-Serif" font-size="11.00">15 rows</text>
<polygon fill="#ffffff" stroke="none" points="322.5,-245 322.5,-263 352.5,-263 352.5,-245 322.5,-245"/>
<polygon fill="none" stroke="black" points="322.5,-245 322.5,-263 352.5,-263 352.5,-245 322.5,-245"/>
<text text-anchor="start" x="332.5" y="-251.2" font-family="Helvetica,sans-Serif" font-size="11.00">3 &gt;</text>
</a>
</g>
</g>
<!-- auth_group_permissions&#45;&gt;auth_group -->
<g id="edge1" class="edge"><title>auth_group_permissions:group_id:w&#45;&gt;auth_group:id:e</title>
<path fill="none" stroke="black" d="M408.851,-250.859C386.167,-261.192 385.467,-296 353.5,-296"/>
<polygon fill="black" stroke="black" points="415.158,-249.584 423.713,-251.529 419.079,-248.792 423,-248 423,-248 423,-248 419.079,-248.792 422.287,-244.471 415.158,-249.584 415.158,-249.584"/>
<ellipse fill="none" stroke="black" cx="412.022" cy="-250.218" rx="3.2" ry="3.2"/>
</g>
<!-- auth_permission -->
<g id="node3" class="node"><title>auth_permission</title>
<g id="a_node3"><a xlink:href="../../tables/auth_permission.html" xlink:title="auth_permission" target="_top">
<polygon fill="#ffffff" stroke="none" points="224,-97 224,-221 367,-221 367,-97 224,-97"/>
<polygon fill="#f5f5f5" stroke="none" points="224.5,-199 224.5,-221 367.5,-221 367.5,-199 224.5,-199"/>
<polygon fill="none" stroke="black" points="224.5,-199 224.5,-221 367.5,-221 367.5,-199 224.5,-199"/>
<text text-anchor="start" x="229.5" y="-208.2" font-family="Helvetica,sans-Serif" font-weight="bold" font-size="11.00">auth_permission</text>
<text text-anchor="start" x="328.5" y="-207.2" font-family="Helvetica,sans-Serif" font-size="11.00">[table]</text>
<polygon fill="none" stroke="black" points="224.5,-177 224.5,-199 367.5,-199 367.5,-177 224.5,-177"/>
<image xlink:href="../../images/primaryKeys.png" width="11px" height="12px" preserveAspectRatio="xMinYMin meet" x="229.5" y="-194"/>
<text text-anchor="start" x="256.5" y="-185.2" font-family="Helvetica,sans-Serif" font-size="11.00">id</text>
<polygon fill="#ffffff" stroke="none" points="224.5,-155 224.5,-177 367.5,-177 367.5,-155 224.5,-155"/>
<polygon fill="none" stroke="black" points="224.5,-155 224.5,-177 367.5,-177 367.5,-155 224.5,-155"/>
<image xlink:href="../../images/foreignKeys.png" width="11px" height="12px" preserveAspectRatio="xMinYMin meet" x="229.5" y="-172"/>
<text text-anchor="start" x="256.5" y="-163.2" font-family="Helvetica,sans-Serif" font-size="11.00">content_type_id</text>
<polygon fill="#ffffff" stroke="none" points="224.5,-133 224.5,-155 367.5,-155 367.5,-133 224.5,-133"/>
<polygon fill="none" stroke="black" points="224.5,-133 224.5,-155 367.5,-155 367.5,-133 224.5,-133"/>
<text text-anchor="start" x="256.5" y="-141.2" font-family="Helvetica,sans-Serif" font-size="11.00">codename</text>
<polygon fill="none" stroke="black" points="224.5,-115 224.5,-133 367.5,-133 367.5,-115 224.5,-115"/>
<text text-anchor="start" x="227.5" y="-121.2" font-family="Helvetica,sans-Serif" font-size="11.00">...</text>
<polygon fill="#ffffff" stroke="none" points="224.5,-97 224.5,-115 268.5,-115 268.5,-97 224.5,-97"/>
<polygon fill="none" stroke="black" points="224.5,-97 224.5,-115 268.5,-115 268.5,-97 224.5,-97"/>
<text text-anchor="start" x="227.5" y="-103.2" font-family="Helvetica,sans-Serif" font-size="11.00">&lt; 1</text>
<polygon fill="#ffffff" stroke="none" points="268.5,-97 268.5,-115 333.5,-115 333.5,-97 268.5,-97"/>
<polygon fill="none" stroke="black" points="268.5,-97 268.5,-115 333.5,-115 333.5,-97 268.5,-97"/>
<text text-anchor="start" x="281.5" y="-103.2" font-family="Helvetica,sans-Serif" font-size="11.00">322 rows</text>
<polygon fill="#ffffff" stroke="none" points="333.5,-97 333.5,-115 367.5,-115 367.5,-97 333.5,-97"/>
<polygon fill="none" stroke="black" points="333.5,-97 333.5,-115 367.5,-115 367.5,-97 333.5,-97"/>
<text text-anchor="start" x="347.5" y="-103.2" font-family="Helvetica,sans-Serif" font-size="11.00">4 &gt;</text>
</a>
</g>
</g>
<!-- auth_group_permissions&#45;&gt;auth_permission -->
<g id="edge2" class="edge"><title>auth_group_permissions:permission_id:w&#45;&gt;auth_permission:id:e</title>
<path fill="none" stroke="black" d="M409.091,-222.217C393.951,-212.606 392.261,-188 368.5,-188"/>
<polygon fill="black" stroke="black" points="415.28,-223.901 422.055,-229.474 419.14,-224.95 423,-226 423,-226 423,-226 419.14,-224.95 423.945,-222.526 415.28,-223.901 415.28,-223.901"/>
<ellipse fill="none" stroke="black" cx="412.193" cy="-223.061" rx="3.20001" ry="3.20001"/>
</g>
<!-- django_content_type -->
<g id="node4" class="node"><title>django_content_type</title>
<g id="a_node4"><a xlink:href="../../tables/django_content_type.html" xlink:title="django_content_type" target="_top">
<polygon fill="#ffffff" stroke="none" points="8,-139 8,-197 175,-197 175,-139 8,-139"/>
<polygon fill="#f5f5f5" stroke="none" points="8.5,-175 8.5,-197 175.5,-197 175.5,-175 8.5,-175"/>
<polygon fill="none" stroke="black" points="8.5,-175 8.5,-197 175.5,-197 175.5,-175 8.5,-175"/>
<text text-anchor="start" x="13.5" y="-184.2" font-family="Helvetica,sans-Serif" font-weight="bold" font-size="11.00">django_content_type</text>
<text text-anchor="start" x="136.5" y="-183.2" font-family="Helvetica,sans-Serif" font-size="11.00">[table]</text>
<polygon fill="none" stroke="black" points="8.5,-157 8.5,-175 175.5,-175 175.5,-157 8.5,-157"/>
<text text-anchor="start" x="11.5" y="-163.2" font-family="Helvetica,sans-Serif" font-size="11.00">...</text>
<polygon fill="#ffffff" stroke="none" points="8.5,-139 8.5,-157 62.5,-157 62.5,-139 8.5,-139"/>
<polygon fill="none" stroke="black" points="8.5,-139 8.5,-157 62.5,-157 62.5,-139 8.5,-139"/>
<text text-anchor="start" x="11.5" y="-145.2" font-family="Helvetica,sans-Serif" font-size="11.00"> &#160;</text>
<polygon fill="#ffffff" stroke="none" points="62.5,-139 62.5,-157 131.5,-157 131.5,-139 62.5,-139"/>
<polygon fill="none" stroke="black" points="62.5,-139 62.5,-157 131.5,-157 131.5,-139 62.5,-139"/>
<text text-anchor="start" x="85.5" y="-145.2" font-family="Helvetica,sans-Serif" font-size="11.00">79 rows</text>
<polygon fill="#ffffff" stroke="none" points="131.5,-139 131.5,-157 175.5,-157 175.5,-139 131.5,-139"/>
<polygon fill="none" stroke="black" points="131.5,-139 131.5,-157 175.5,-157 175.5,-139 131.5,-139"/>
<text text-anchor="start" x="155.5" y="-145.2" font-family="Helvetica,sans-Serif" font-size="11.00">6 &gt;</text>
</a>
</g>
</g>
<!-- auth_permission&#45;&gt;django_content_type -->
<g id="edge3" class="edge"><title>auth_permission:content_type_id:w&#45;&gt;django_content_type:elipses:e</title>
<path fill="none" stroke="black" d="M208.896,-166C198.434,-166 191.514,-166 176.5,-166"/>
<polygon fill="black" stroke="black" points="215.5,-166 223.5,-169.6 219.5,-166 223.5,-166 223.5,-166 223.5,-166 219.5,-166 223.5,-162.4 215.5,-166 215.5,-166"/>
<ellipse fill="none" stroke="black" cx="212.3" cy="-166" rx="3.2" ry="3.2"/>
</g>
<!-- galaxy_user_groups -->
<g id="node5" class="node"><title>galaxy_user_groups</title>
<g id="a_node5"><a xlink:href="../../tables/galaxy_user_groups.html" xlink:title="galaxy_user_groups" target="_top">
<polygon fill="#ffffff" stroke="none" points="455.5,-405 455.5,-463 612.5,-463 612.5,-405 455.5,-405"/>
<polygon fill="#f5f5f5" stroke="none" points="456,-441 456,-463 613,-463 613,-441 456,-441"/>
<polygon fill="none" stroke="black" points="456,-441 456,-463 613,-463 613,-441 456,-441"/>
<text text-anchor="start" x="461" y="-450.2" font-family="Helvetica,sans-Serif" font-weight="bold" font-size="11.00">galaxy_user_groups</text>
<text text-anchor="start" x="574" y="-449.2" font-family="Helvetica,sans-Serif" font-size="11.00">[table]</text>
<polygon fill="none" stroke="black" points="456,-423 456,-441 613,-441 613,-423 456,-423"/>
<text text-anchor="start" x="459" y="-429.2" font-family="Helvetica,sans-Serif" font-size="11.00">...</text>
<polygon fill="#ffffff" stroke="none" points="456,-405 456,-423 515,-423 515,-405 456,-405"/>
<polygon fill="none" stroke="black" points="456,-405 456,-423 515,-423 515,-405 456,-405"/>
<text text-anchor="start" x="459" y="-411.2" font-family="Helvetica,sans-Serif" font-size="11.00">&lt; 2</text>
<polygon fill="#ffffff" stroke="none" points="515,-405 515,-423 582,-423 582,-405 515,-405"/>
<polygon fill="none" stroke="black" points="515,-405 515,-423 582,-423 582,-405 515,-405"/>
<text text-anchor="start" x="536" y="-411.2" font-family="Helvetica,sans-Serif" font-size="11.00">18 rows</text>
<polygon fill="#ffffff" stroke="none" points="582,-405 582,-423 613,-423 613,-405 582,-405"/>
<polygon fill="none" stroke="black" points="582,-405 582,-423 613,-423 613,-405 582,-405"/>
<text text-anchor="start" x="603" y="-411.2" font-family="Helvetica,sans-Serif" font-size="11.00"> &#160;</text>
</a>
</g>
</g>
<!-- galaxy_user_groups&#45;&gt;auth_group -->
<g id="edge4" class="edge"><title>galaxy_user_groups:elipses:w&#45;&gt;auth_group:id:e</title>
<path fill="none" stroke="black" d="M440.517,-429.737C426.339,-424.512 421.437,-410.838 408,-395 375.507,-356.7 403.727,-296 353.5,-296"/>
<polygon fill="black" stroke="black" points="447.096,-430.765 454.444,-435.557 451.048,-431.382 455,-432 455,-432 455,-432 451.048,-431.382 455.556,-428.443 447.096,-430.765 447.096,-430.765"/>
<ellipse fill="none" stroke="black" cx="443.934" cy="-430.271" rx="3.2" ry="3.2"/>
</g>
<!-- galaxy_user_user_permissions -->
<g id="node6" class="node"><title>galaxy_user_user_permissions</title>
<g id="a_node6"><a xlink:href="../../tables/galaxy_user_user_permissions.html" xlink:title="galaxy_user_user_permissions" target="_top">
<polygon fill="#ffffff" stroke="none" points="425.5,-116 425.5,-174 642.5,-174 642.5,-116 425.5,-116"/>
<polygon fill="#f5f5f5" stroke="none" points="426,-152 426,-174 643,-174 643,-152 426,-152"/>
<polygon fill="none" stroke="black" points="426,-152 426,-174 643,-174 643,-152 426,-152"/>
<text text-anchor="start" x="431" y="-161.2" font-family="Helvetica,sans-Serif" font-weight="bold" font-size="11.00">galaxy_user_user_permissions</text>
<text text-anchor="start" x="604" y="-160.2" font-family="Helvetica,sans-Serif" font-size="11.00">[table]</text>
<polygon fill="none" stroke="black" points="426,-134 426,-152 643,-152 643,-134 426,-134"/>
<text text-anchor="start" x="429" y="-140.2" font-family="Helvetica,sans-Serif" font-size="11.00">...</text>
<polygon fill="#ffffff" stroke="none" points="426,-116 426,-134 518,-134 518,-116 426,-116"/>
<polygon fill="none" stroke="black" points="426,-116 426,-134 518,-134 518,-116 426,-116"/>
<text text-anchor="start" x="429" y="-122.2" font-family="Helvetica,sans-Serif" font-size="11.00">&lt; 2</text>
<polygon fill="#ffffff" stroke="none" points="518,-116 518,-134 595,-134 595,-116 518,-116"/>
<polygon fill="none" stroke="black" points="518,-116 518,-134 595,-134 595,-116 518,-116"/>
<text text-anchor="start" x="556" y="-122.2" font-family="Helvetica,sans-Serif" font-size="11.00">0 rows</text>
<polygon fill="#ffffff" stroke="none" points="595,-116 595,-134 643,-134 643,-116 595,-116"/>
<polygon fill="none" stroke="black" points="595,-116 595,-134 643,-134 643,-116 595,-116"/>
<text text-anchor="start" x="633" y="-122.2" font-family="Helvetica,sans-Serif" font-size="11.00"> &#160;</text>
</a>
</g>
</g>
<!-- galaxy_user_user_permissions&#45;&gt;auth_permission -->
<g id="edge5" class="edge"><title>galaxy_user_user_permissions:elipses:w&#45;&gt;auth_permission:id:e</title>
<path fill="none" stroke="black" d="M411.089,-146.837C394.381,-157.719 394.834,-188 368.5,-188"/>
<polygon fill="black" stroke="black" points="417.288,-145.127 425.957,-146.47 421.144,-144.063 425,-143 425,-143 425,-143 421.144,-144.063 424.043,-139.53 417.288,-145.127 417.288,-145.127"/>
<ellipse fill="none" stroke="black" cx="414.203" cy="-145.978" rx="3.20001" ry="3.20001"/>
</g>
<!-- guardian_groupobjectpermission -->
<g id="node7" class="node"><title>guardian_groupobjectpermission</title>
<g id="a_node7"><a xlink:href="../../tables/guardian_groupobjectpermission.html" xlink:title="guardian_groupobjectpermission" target="_top">
<polygon fill="#ffffff" stroke="none" points="416,-326 416,-384 652,-384 652,-326 416,-326"/>
<polygon fill="#f5f5f5" stroke="none" points="416,-362 416,-384 652,-384 652,-362 416,-362"/>
<polygon fill="none" stroke="black" points="416,-362 416,-384 652,-384 652,-362 416,-362"/>
<text text-anchor="start" x="421" y="-371.2" font-family="Helvetica,sans-Serif" font-weight="bold" font-size="11.00">guardian_groupobjectpermission</text>
<text text-anchor="start" x="613" y="-370.2" font-family="Helvetica,sans-Serif" font-size="11.00">[table]</text>
<polygon fill="none" stroke="black" points="416,-344 416,-362 652,-362 652,-344 416,-344"/>
<text text-anchor="start" x="419" y="-350.2" font-family="Helvetica,sans-Serif" font-size="11.00">...</text>
<polygon fill="#ffffff" stroke="none" points="416,-326 416,-344 511,-344 511,-326 416,-326"/>
<polygon fill="none" stroke="black" points="416,-326 416,-344 511,-344 511,-326 416,-326"/>
<text text-anchor="start" x="419" y="-332.2" font-family="Helvetica,sans-Serif" font-size="11.00">&lt; 3</text>
<polygon fill="#ffffff" stroke="none" points="511,-326 511,-344 602,-344 602,-326 511,-326"/>
<polygon fill="none" stroke="black" points="511,-326 511,-344 602,-344 602,-326 511,-326"/>
<text text-anchor="start" x="550" y="-332.2" font-family="Helvetica,sans-Serif" font-size="11.00">168 rows</text>
<polygon fill="#ffffff" stroke="none" points="602,-326 602,-344 652,-344 652,-326 602,-326"/>
<polygon fill="none" stroke="black" points="602,-326 602,-344 652,-344 652,-326 602,-326"/>
<text text-anchor="start" x="642" y="-332.2" font-family="Helvetica,sans-Serif" font-size="11.00"> &#160;</text>
</a>
</g>
</g>
<!-- guardian_groupobjectpermission&#45;&gt;auth_group -->
<g id="edge7" class="edge"><title>guardian_groupobjectpermission:elipses:w&#45;&gt;auth_group:id:e</title>
<path fill="none" stroke="black" d="M400.831,-349.26C380.578,-336.579 384.945,-296 353.5,-296"/>
<polygon fill="black" stroke="black" points="407.265,-350.958 414.081,-356.481 411.132,-351.979 415,-353 415,-353 415,-353 411.132,-351.979 415.919,-349.519 407.265,-350.958 407.265,-350.958"/>
<ellipse fill="none" stroke="black" cx="404.171" cy="-350.142" rx="3.2" ry="3.2"/>
</g>
<!-- guardian_groupobjectpermission&#45;&gt;auth_permission -->
<g id="edge8" class="edge"><title>guardian_groupobjectpermission:elipses:w&#45;&gt;auth_permission:id:e</title>
<path fill="none" stroke="black" d="M400.598,-350.274C353.884,-328.821 438.886,-188 368.5,-188"/>
<polygon fill="black" stroke="black" points="407.14,-351.512 414.33,-356.537 411.07,-352.256 415,-353 415,-353 415,-353 411.07,-352.256 415.67,-349.463 407.14,-351.512 407.14,-351.512"/>
<ellipse fill="none" stroke="black" cx="403.995" cy="-350.917" rx="3.2" ry="3.2"/>
</g>
<!-- guardian_groupobjectpermission&#45;&gt;django_content_type -->
<g id="edge6" class="edge"><title>guardian_groupobjectpermission:elipses:w&#45;&gt;django_content_type:elipses:e</title>
<path fill="none" stroke="black" d="M400.366,-353.402C321.424,-357.717 279.604,-394.273 216,-340 155.676,-288.526 255.801,-166 176.5,-166"/>
<polygon fill="black" stroke="black" points="407.003,-353.22 415.099,-356.599 411.002,-353.11 415,-353 415,-353 415,-353 411.002,-353.11 414.901,-349.401 407.003,-353.22 407.003,-353.22"/>
<ellipse fill="none" stroke="black" cx="403.804" cy="-353.308" rx="3.2" ry="3.2"/>
</g>
<!-- guardian_userobjectpermission -->
<g id="node8" class="node"><title>guardian_userobjectpermission</title>
<g id="a_node8"><a xlink:href="../../tables/guardian_userobjectpermission.html" xlink:title="guardian_userobjectpermission" target="_top">
<polygon fill="#ffffff" stroke="none" points="420,-37 420,-95 648,-95 648,-37 420,-37"/>
<polygon fill="#f5f5f5" stroke="none" points="420,-73 420,-95 648,-95 648,-73 420,-73"/>
<polygon fill="none" stroke="black" points="420,-73 420,-95 648,-95 648,-73 420,-73"/>
<text text-anchor="start" x="425" y="-82.2" font-family="Helvetica,sans-Serif" font-weight="bold" font-size="11.00">guardian_userobjectpermission</text>
<text text-anchor="start" x="609" y="-81.2" font-family="Helvetica,sans-Serif" font-size="11.00">[table]</text>
<polygon fill="none" stroke="black" points="420,-55 420,-73 648,-73 648,-55 420,-55"/>
<text text-anchor="start" x="423" y="-61.2" font-family="Helvetica,sans-Serif" font-size="11.00">...</text>
<polygon fill="#ffffff" stroke="none" points="420,-37 420,-55 518,-55 518,-37 420,-37"/>
<polygon fill="none" stroke="black" points="420,-37 420,-55 518,-55 518,-37 420,-37"/>
<text text-anchor="start" x="423" y="-43.2" font-family="Helvetica,sans-Serif" font-size="11.00">&lt; 3</text>
<polygon fill="#ffffff" stroke="none" points="518,-37 518,-55 597,-55 597,-37 518,-37"/>
<polygon fill="none" stroke="black" points="518,-37 518,-55 597,-55 597,-37 518,-37"/>
<text text-anchor="start" x="558" y="-43.2" font-family="Helvetica,sans-Serif" font-size="11.00">0 rows</text>
<polygon fill="#ffffff" stroke="none" points="597,-37 597,-55 648,-55 648,-37 597,-37"/>
<polygon fill="none" stroke="black" points="597,-37 597,-55 648,-55 648,-37 597,-37"/>
<text text-anchor="start" x="638" y="-43.2" font-family="Helvetica,sans-Serif" font-size="11.00"> &#160;</text>
</a>
</g>
</g>
<!-- guardian_userobjectpermission&#45;&gt;auth_permission -->
<g id="edge10" class="edge"><title>guardian_userobjectpermission:elipses:w&#45;&gt;auth_permission:id:e</title>
<path fill="none" stroke="black" d="M404.562,-67.5774C372.09,-87.9084 421.963,-188 368.5,-188"/>
<polygon fill="black" stroke="black" points="411.235,-65.9241 419.866,-67.4943 415.117,-64.9621 419,-64 419,-64 419,-64 415.117,-64.9621 418.134,-60.5057 411.235,-65.9241 411.235,-65.9241"/>
<ellipse fill="none" stroke="black" cx="408.129" cy="-66.6938" rx="3.2" ry="3.2"/>
</g>
<!-- guardian_userobjectpermission&#45;&gt;django_content_type -->
<g id="edge9" class="edge"><title>guardian_userobjectpermission:elipses:w&#45;&gt;django_content_type:elipses:e</title>
<path fill="none" stroke="black" d="M404.564,-63.7577C323.959,-61.0688 286.354,-37.8297 216,-87 183.824,-109.488 215.755,-166 176.5,-166"/>
<polygon fill="black" stroke="black" points="411.001,-63.8657 418.94,-67.5995 415.001,-63.9328 419,-64 419,-64 419,-64 415.001,-63.9328 419.06,-60.4005 411.001,-63.8657 411.001,-63.8657"/>
<ellipse fill="none" stroke="black" cx="407.802" cy="-63.8119" rx="3.2" ry="3.2"/>
</g>
</g>
</svg>
