<?xml version="1.0" encoding="UTF-8" standalone="no"?>
<!DOCTYPE svg PUBLIC "-//W3C//DTD SVG 1.1//EN"
 "http://www.w3.org/Graphics/SVG/1.1/DTD/svg11.dtd">
<!-- Generated by graphviz version 2.38.0 (20140413.2041)
 -->
<!-- Title: oneDegreeRelationshipsDiagram Pages: 1 -->
<svg width="722pt" height="624pt"
 viewBox="0.00 0.00 722.00 624.00" xmlns="http://www.w3.org/2000/svg" xmlns:xlink="http://www.w3.org/1999/xlink">
<g id="graph0" class="graph" transform="scale(1 1) rotate(0) translate(4 620)">
<title>oneDegreeRelationshipsDiagram</title>
<polygon fill="#ffffff" stroke="none" points="-4,4 -4,-620 718,-620 718,4 -4,4"/>
<text text-anchor="middle" x="74.5" y="-7.2" font-family="Helvetica,sans-Serif" font-size="11.00">Generated by SchemaSpy</text>
<!-- auth_group_permissions -->
<g id="node1" class="node"><title>auth_group_permissions</title>
<g id="a_node1"><a xlink:href="../../tables/auth_group_permissions.html" xlink:title="auth_group_permissions" target="_top">
<polygon fill="#ffffff" stroke="none" points="495,-335 495,-441 681,-441 681,-335 495,-335"/>
<polygon fill="#f5f5f5" stroke="none" points="495,-419 495,-441 681,-441 681,-419 495,-419"/>
<polygon fill="none" stroke="black" points="495,-419 495,-441 681,-441 681,-419 495,-419"/>
<text text-anchor="start" x="500" y="-428.2" font-family="Helvetica,sans-Serif" font-weight="bold" font-size="11.00">auth_group_permissions</text>
<text text-anchor="start" x="642" y="-427.2" font-family="Helvetica,sans-Serif" font-size="11.00">[table]</text>
<polygon fill="none" stroke="black" points="495,-397 495,-419 681,-419 681,-397 495,-397"/>
<image xlink:href="../../images/primaryKeys.png" width="11px" height="12px" preserveAspectRatio="xMinYMin meet" x="500" y="-414"/>
<text text-anchor="start" x="525" y="-405.2" font-family="Helvetica,sans-Serif" font-size="11.00">id</text>
<polygon fill="#ffffff" stroke="none" points="495,-375 495,-397 681,-397 681,-375 495,-375"/>
<polygon fill="none" stroke="black" points="495,-375 495,-397 681,-397 681,-375 495,-375"/>
<image xlink:href="../../images/foreignKeys.png" width="11px" height="12px" preserveAspectRatio="xMinYMin meet" x="500" y="-392"/>
<text text-anchor="start" x="525" y="-383.2" font-family="Helvetica,sans-Serif" font-size="11.00">group_id</text>
<polygon fill="#ffffff" stroke="none" points="495,-353 495,-375 681,-375 681,-353 495,-353"/>
<polygon fill="none" stroke="black" points="495,-353 495,-375 681,-375 681,-353 495,-353"/>
<image xlink:href="../../images/foreignKeys.png" width="11px" height="12px" preserveAspectRatio="xMinYMin meet" x="500" y="-370"/>
<text text-anchor="start" x="525" y="-361.2" font-family="Helvetica,sans-Serif" font-size="11.00">permission_id</text>
<polygon fill="#ffffff" stroke="none" points="495,-335 495,-353 572,-353 572,-335 495,-335"/>
<polygon fill="none" stroke="black" points="495,-335 495,-353 572,-353 572,-335 495,-335"/>
<text text-anchor="start" x="498" y="-341.2" font-family="Helvetica,sans-Serif" font-size="11.00">&lt; 2</text>
<polygon fill="#ffffff" stroke="none" points="572,-335 572,-353 641,-353 641,-335 572,-335"/>
<polygon fill="none" stroke="black" points="572,-335 572,-353 641,-353 641,-335 572,-335"/>
<text text-anchor="start" x="602" y="-341.2" font-family="Helvetica,sans-Serif" font-size="11.00">0 rows</text>
<polygon fill="#ffffff" stroke="none" points="641,-335 641,-353 681,-353 681,-335 641,-335"/>
<polygon fill="none" stroke="black" points="641,-335 641,-353 681,-353 681,-335 641,-335"/>
<text text-anchor="start" x="671" y="-341.2" font-family="Helvetica,sans-Serif" font-size="11.00"> &#160;</text>
</a>
</g>
</g>
<!-- auth_permission -->
<g id="node2" class="node"><title>auth_permission</title>
<g id="a_node2"><a xlink:href="../../tables/auth_permission.html" xlink:title="auth_permission" target="_top">
<polygon fill="#ffffff" stroke="none" points="224,-203 224,-335 421,-335 421,-203 224,-203"/>
<polygon fill="#f5f5f5" stroke="none" points="226.5,-311 226.5,-333 419.5,-333 419.5,-311 226.5,-311"/>
<polygon fill="none" stroke="black" points="226.5,-311 226.5,-333 419.5,-333 419.5,-311 226.5,-311"/>
<text text-anchor="start" x="231.5" y="-320.2" font-family="Helvetica,sans-Serif" font-weight="bold" font-size="11.00">auth_permission</text>
<text text-anchor="start" x="380.5" y="-319.2" font-family="Helvetica,sans-Serif" font-size="11.00">[table]</text>
<polygon fill="none" stroke="black" points="226.5,-289 226.5,-311 346.5,-311 346.5,-289 226.5,-289"/>
<image xlink:href="../../images/primaryKeys.png" width="11px" height="12px" preserveAspectRatio="xMinYMin meet" x="231.5" y="-306"/>
<text text-anchor="start" x="246.5" y="-297.2" font-family="Helvetica,sans-Serif" font-size="11.00">id</text>
<polygon fill="none" stroke="black" points="346.5,-289 346.5,-311 419.5,-311 419.5,-289 346.5,-289"/>
<text text-anchor="start" x="349.5" y="-297.2" font-family="Helvetica,sans-Serif" font-size="11.00">serial[10]</text>
<polygon fill="none" stroke="black" points="226.5,-267 226.5,-289 346.5,-289 346.5,-267 226.5,-267"/>
<text text-anchor="start" x="246.5" y="-275.2" font-family="Helvetica,sans-Serif" font-size="11.00">name</text>
<polygon fill="none" stroke="black" points="346.5,-267 346.5,-289 419.5,-289 419.5,-267 346.5,-267"/>
<text text-anchor="start" x="349.5" y="-275.2" font-family="Helvetica,sans-Serif" font-size="11.00">varchar[255]</text>
<polygon fill="#ffffff" stroke="none" points="226.5,-245 226.5,-267 346.5,-267 346.5,-245 226.5,-245"/>
<polygon fill="none" stroke="black" points="226.5,-245 226.5,-267 346.5,-267 346.5,-245 226.5,-245"/>
<image xlink:href="../../images/foreignKeys.png" width="11px" height="12px" preserveAspectRatio="xMinYMin meet" x="231.5" y="-262"/>
<text text-anchor="start" x="246.5" y="-253.2" font-family="Helvetica,sans-Serif" font-size="11.00">content_type_id</text>
<polygon fill="none" stroke="black" points="346.5,-245 346.5,-267 419.5,-267 419.5,-245 346.5,-245"/>
<text text-anchor="start" x="349.5" y="-253.2" font-family="Helvetica,sans-Serif" font-size="11.00">int4[10]</text>
<polygon fill="#ffffff" stroke="none" points="226.5,-223 226.5,-245 346.5,-245 346.5,-223 226.5,-223"/>
<polygon fill="none" stroke="black" points="226.5,-223 226.5,-245 346.5,-245 346.5,-223 226.5,-223"/>
<text text-anchor="start" x="246.5" y="-231.2" font-family="Helvetica,sans-Serif" font-size="11.00">codename</text>
<polygon fill="none" stroke="black" points="346.5,-223 346.5,-245 419.5,-245 419.5,-223 346.5,-223"/>
<text text-anchor="start" x="349.5" y="-231.2" font-family="Helvetica,sans-Serif" font-size="11.00">varchar[100]</text>
<polygon fill="#ffffff" stroke="none" points="226.5,-205 226.5,-223 270.5,-223 270.5,-205 226.5,-205"/>
<polygon fill="none" stroke="black" points="226.5,-205 226.5,-223 270.5,-223 270.5,-205 226.5,-205"/>
<text text-anchor="start" x="229.5" y="-211.2" font-family="Helvetica,sans-Serif" font-size="11.00">&lt; 1</text>
<polygon fill="#ffffff" stroke="none" points="270.5,-205 270.5,-223 346.5,-223 346.5,-205 270.5,-205"/>
<polygon fill="none" stroke="black" points="270.5,-205 270.5,-223 346.5,-223 346.5,-205 270.5,-205"/>
<text text-anchor="start" x="294.5" y="-211.2" font-family="Helvetica,sans-Serif" font-size="11.00">322 rows</text>
<polygon fill="#ffffff" stroke="none" points="346.5,-205 346.5,-223 419.5,-223 419.5,-205 346.5,-205"/>
<polygon fill="none" stroke="black" points="346.5,-205 346.5,-223 419.5,-223 419.5,-205 346.5,-205"/>
<text text-anchor="start" x="399.5" y="-211.2" font-family="Helvetica,sans-Serif" font-size="11.00">4 &gt;</text>
<polygon fill="none" stroke="black" stroke-width="2" points="225,-204 225,-334 420,-334 420,-204 225,-204"/>
</a>
</g>
</g>
<!-- auth_group_permissions&#45;&gt;auth_permission -->
<g id="edge1" class="edge"><title>auth_group_permissions:permission_id:w&#45;&gt;auth_permission:id.type:e</title>
<path fill="none" stroke="black" d="M479.821,-361.084C453.132,-348.563 458.232,-300 420.5,-300"/>
<polygon fill="black" stroke="black" points="486.164,-362.388 493.275,-367.526 490.082,-363.194 494,-364 494,-364 494,-364 490.082,-363.194 494.725,-360.474 486.164,-362.388 486.164,-362.388"/>
<ellipse fill="none" stroke="black" cx="483.03" cy="-361.744" rx="3.2" ry="3.2"/>
</g>
<!-- django_content_type -->
<g id="node3" class="node"><title>django_content_type</title>
<g id="a_node3"><a xlink:href="../../tables/django_content_type.html" xlink:title="django_content_type" target="_top">
<polygon fill="#ffffff" stroke="none" points="8,-183 8,-289 175,-289 175,-183 8,-183"/>
<polygon fill="#f5f5f5" stroke="none" points="8.5,-267 8.5,-289 175.5,-289 175.5,-267 8.5,-267"/>
<polygon fill="none" stroke="black" points="8.5,-267 8.5,-289 175.5,-289 175.5,-267 8.5,-267"/>
<text text-anchor="start" x="13.5" y="-276.2" font-family="Helvetica,sans-Serif" font-weight="bold" font-size="11.00">django_content_type</text>
<text text-anchor="start" x="136.5" y="-275.2" font-family="Helvetica,sans-Serif" font-size="11.00">[table]</text>
<polygon fill="none" stroke="black" points="8.5,-245 8.5,-267 175.5,-267 175.5,-245 8.5,-245"/>
<image xlink:href="../../images/primaryKeys.png" width="11px" height="12px" preserveAspectRatio="xMinYMin meet" x="13.5" y="-262"/>
<text text-anchor="start" x="39.5" y="-253.2" font-family="Helvetica,sans-Serif" font-size="11.00">id</text>
<polygon fill="#ffffff" stroke="none" points="8.5,-223 8.5,-245 175.5,-245 175.5,-223 8.5,-223"/>
<polygon fill="none" stroke="black" points="8.5,-223 8.5,-245 175.5,-245 175.5,-223 8.5,-223"/>
<text text-anchor="start" x="39.5" y="-231.2" font-family="Helvetica,sans-Serif" font-size="11.00">app_label</text>
<polygon fill="#ffffff" stroke="none" points="8.5,-201 8.5,-223 175.5,-223 175.5,-201 8.5,-201"/>
<polygon fill="none" stroke="black" points="8.5,-201 8.5,-223 175.5,-223 175.5,-201 8.5,-201"/>
<text text-anchor="start" x="39.5" y="-209.2" font-family="Helvetica,sans-Serif" font-size="11.00">model</text>
<polygon fill="#ffffff" stroke="none" points="8.5,-183 8.5,-201 62.5,-201 62.5,-183 8.5,-183"/>
<polygon fill="none" stroke="black" points="8.5,-183 8.5,-201 62.5,-201 62.5,-183 8.5,-183"/>
<text text-anchor="start" x="11.5" y="-189.2" font-family="Helvetica,sans-Serif" font-size="11.00"> &#160;</text>
<polygon fill="#ffffff" stroke="none" points="62.5,-183 62.5,-201 131.5,-201 131.5,-183 62.5,-183"/>
<polygon fill="none" stroke="black" points="62.5,-183 62.5,-201 131.5,-201 131.5,-183 62.5,-183"/>
<text text-anchor="start" x="85.5" y="-189.2" font-family="Helvetica,sans-Serif" font-size="11.00">79 rows</text>
<polygon fill="#ffffff" stroke="none" points="131.5,-183 131.5,-201 175.5,-201 175.5,-183 131.5,-183"/>
<polygon fill="none" stroke="black" points="131.5,-183 131.5,-201 175.5,-201 175.5,-183 131.5,-183"/>
<text text-anchor="start" x="155.5" y="-189.2" font-family="Helvetica,sans-Serif" font-size="11.00">6 &gt;</text>
</a>
</g>
</g>
<!-- auth_permission&#45;&gt;django_content_type -->
<g id="edge2" class="edge"><title>auth_permission:content_type_id:w&#45;&gt;django_content_type:id:e</title>
<path fill="none" stroke="black" d="M210.991,-256C199.677,-256 192.493,-256 176.5,-256"/>
<polygon fill="black" stroke="black" points="217.5,-256 225.5,-259.6 221.5,-256 225.5,-256 225.5,-256 225.5,-256 221.5,-256 225.5,-252.4 217.5,-256 217.5,-256"/>
<ellipse fill="none" stroke="black" cx="214.3" cy="-256" rx="3.2" ry="3.2"/>
</g>
<!-- galaxy_user_user_permissions -->
<g id="node4" class="node"><title>galaxy_user_user_permissions</title>
<g id="a_node4"><a xlink:href="../../tables/galaxy_user_user_permissions.html" xlink:title="galaxy_user_user_permissions" target="_top">
<polygon fill="#ffffff" stroke="none" points="479.5,-208 479.5,-314 696.5,-314 696.5,-208 479.5,-208"/>
<polygon fill="#f5f5f5" stroke="none" points="480,-292 480,-314 697,-314 697,-292 480,-292"/>
<polygon fill="none" stroke="black" points="480,-292 480,-314 697,-314 697,-292 480,-292"/>
<text text-anchor="start" x="485" y="-301.2" font-family="Helvetica,sans-Serif" font-weight="bold" font-size="11.00">galaxy_user_user_permissions</text>
<text text-anchor="start" x="658" y="-300.2" font-family="Helvetica,sans-Serif" font-size="11.00">[table]</text>
<polygon fill="none" stroke="black" points="480,-270 480,-292 697,-292 697,-270 480,-270"/>
<image xlink:href="../../images/primaryKeys.png" width="11px" height="12px" preserveAspectRatio="xMinYMin meet" x="485" y="-287"/>
<text text-anchor="start" x="509" y="-278.2" font-family="Helvetica,sans-Serif" font-size="11.00">id</text>
<polygon fill="#ffffff" stroke="none" points="480,-248 480,-270 697,-270 697,-248 480,-248"/>
<polygon fill="none" stroke="black" points="480,-248 480,-270 697,-270 697,-248 480,-248"/>
<image xlink:href="../../images/foreignKeys.png" width="11px" height="12px" preserveAspectRatio="xMinYMin meet" x="485" y="-265"/>
<text text-anchor="start" x="509" y="-256.2" font-family="Helvetica,sans-Serif" font-size="11.00">user_id</text>
<polygon fill="#ffffff" stroke="none" points="480,-226 480,-248 697,-248 697,-226 480,-226"/>
<polygon fill="none" stroke="black" points="480,-226 480,-248 697,-248 697,-226 480,-226"/>
<image xlink:href="../../images/foreignKeys.png" width="11px" height="12px" preserveAspectRatio="xMinYMin meet" x="485" y="-243"/>
<text text-anchor="start" x="509" y="-234.2" font-family="Helvetica,sans-Serif" font-size="11.00">permission_id</text>
<polygon fill="#ffffff" stroke="none" points="480,-208 480,-226 572,-226 572,-208 480,-208"/>
<polygon fill="none" stroke="black" points="480,-208 480,-226 572,-226 572,-208 480,-208"/>
<text text-anchor="start" x="483" y="-214.2" font-family="Helvetica,sans-Serif" font-size="11.00">&lt; 2</text>
<polygon fill="#ffffff" stroke="none" points="572,-208 572,-226 649,-226 649,-208 572,-208"/>
<polygon fill="none" stroke="black" points="572,-208 572,-226 649,-226 649,-208 572,-208"/>
<text text-anchor="start" x="610" y="-214.2" font-family="Helvetica,sans-Serif" font-size="11.00">0 rows</text>
<polygon fill="#ffffff" stroke="none" points="649,-208 649,-226 697,-226 697,-208 649,-208"/>
<polygon fill="none" stroke="black" points="649,-208 649,-226 697,-226 697,-208 649,-208"/>
<text text-anchor="start" x="687" y="-214.2" font-family="Helvetica,sans-Serif" font-size="11.00"> &#160;</text>
</a>
</g>
</g>
<!-- galaxy_user_user_permissions&#45;&gt;auth_permission -->
<g id="edge3" class="edge"><title>galaxy_user_user_permissions:permission_id:w&#45;&gt;auth_permission:id.type:e</title>
<path fill="none" stroke="black" d="M465.048,-240.941C444.947,-254.733 452.889,-300 420.5,-300"/>
<polygon fill="black" stroke="black" points="471.301,-239.175 479.979,-240.464 475.151,-238.087 479,-237 479,-237 479,-237 475.151,-238.087 478.021,-233.536 471.301,-239.175 471.301,-239.175"/>
<ellipse fill="none" stroke="black" cx="468.222" cy="-240.045" rx="3.20001" ry="3.20001"/>
</g>
<!-- guardian_groupobjectpermission -->
<g id="node5" class="node"><title>guardian_groupobjectpermission</title>
<g id="a_node5"><a xlink:href="../../tables/guardian_groupobjectpermission.html" xlink:title="guardian_groupobjectpermission" target="_top">
<polygon fill="#ffffff" stroke="none" points="470,-462 470,-612 706,-612 706,-462 470,-462"/>
<polygon fill="#f5f5f5" stroke="none" points="470,-590 470,-612 706,-612 706,-590 470,-590"/>
<polygon fill="none" stroke="black" points="470,-590 470,-612 706,-612 706,-590 470,-590"/>
<text text-anchor="start" x="475" y="-599.2" font-family="Helvetica,sans-Serif" font-weight="bold" font-size="11.00">guardian_groupobjectpermission</text>
<text text-anchor="start" x="667" y="-598.2" font-family="Helvetica,sans-Serif" font-size="11.00">[table]</text>
<polygon fill="none" stroke="black" points="470,-568 470,-590 706,-590 706,-568 470,-568"/>
<image xlink:href="../../images/primaryKeys.png" width="11px" height="12px" preserveAspectRatio="xMinYMin meet" x="475" y="-585"/>
<text text-anchor="start" x="499" y="-576.2" font-family="Helvetica,sans-Serif" font-size="11.00">id</text>
<polygon fill="#ffffff" stroke="none" points="470,-546 470,-568 706,-568 706,-546 470,-546"/>
<polygon fill="none" stroke="black" points="470,-546 470,-568 706,-568 706,-546 470,-546"/>
<text text-anchor="start" x="499" y="-554.2" font-family="Helvetica,sans-Serif" font-size="11.00">object_pk</text>
<polygon fill="#ffffff" stroke="none" points="470,-524 470,-546 706,-546 706,-524 470,-524"/>
<polygon fill="none" stroke="black" points="470,-524 470,-546 706,-546 706,-524 470,-524"/>
<image xlink:href="../../images/foreignKeys.png" width="11px" height="12px" preserveAspectRatio="xMinYMin meet" x="475" y="-541"/>
<text text-anchor="start" x="499" y="-532.2" font-family="Helvetica,sans-Serif" font-size="11.00">content_type_id</text>
<polygon fill="#ffffff" stroke="none" points="470,-502 470,-524 706,-524 706,-502 470,-502"/>
<polygon fill="none" stroke="black" points="470,-502 470,-524 706,-524 706,-502 470,-502"/>
<image xlink:href="../../images/foreignKeys.png" width="11px" height="12px" preserveAspectRatio="xMinYMin meet" x="475" y="-519"/>
<text text-anchor="start" x="499" y="-510.2" font-family="Helvetica,sans-Serif" font-size="11.00">group_id</text>
<polygon fill="#ffffff" stroke="none" points="470,-480 470,-502 706,-502 706,-480 470,-480"/>
<polygon fill="none" stroke="black" points="470,-480 470,-502 706,-502 706,-480 470,-480"/>
<image xlink:href="../../images/foreignKeys.png" width="11px" height="12px" preserveAspectRatio="xMinYMin meet" x="475" y="-497"/>
<text text-anchor="start" x="499" y="-488.2" font-family="Helvetica,sans-Serif" font-size="11.00">permission_id</text>
<polygon fill="#ffffff" stroke="none" points="470,-462 470,-480 565,-480 565,-462 470,-462"/>
<polygon fill="none" stroke="black" points="470,-462 470,-480 565,-480 565,-462 470,-462"/>
<text text-anchor="start" x="473" y="-468.2" font-family="Helvetica,sans-Serif" font-size="11.00">&lt; 3</text>
<polygon fill="#ffffff" stroke="none" points="565,-462 565,-480 656,-480 656,-462 565,-462"/>
<polygon fill="none" stroke="black" points="565,-462 565,-480 656,-480 656,-462 565,-462"/>
<text text-anchor="start" x="604" y="-468.2" font-family="Helvetica,sans-Serif" font-size="11.00">168 rows</text>
<polygon fill="#ffffff" stroke="none" points="656,-462 656,-480 706,-480 706,-462 656,-462"/>
<polygon fill="none" stroke="black" points="656,-462 656,-480 706,-480 706,-462 656,-462"/>
<text text-anchor="start" x="696" y="-468.2" font-family="Helvetica,sans-Serif" font-size="11.00"> &#160;</text>
</a>
</g>
</g>
<!-- guardian_groupobjectpermission&#45;&gt;auth_permission -->
<g id="edge5" class="edge"><title>guardian_groupobjectpermission:permission_id:w&#45;&gt;auth_permission:id.type:e</title>
<path fill="none" stroke="black" d="M454.62,-488.722C396.855,-467.172 502.438,-300 420.5,-300"/>
<polygon fill="black" stroke="black" points="461.099,-489.748 468.437,-494.556 465.049,-490.374 469,-491 469,-491 469,-491 465.049,-490.374 469.563,-487.444 461.099,-489.748 461.099,-489.748"/>
<ellipse fill="none" stroke="black" cx="457.938" cy="-489.247" rx="3.2" ry="3.2"/>
</g>
<!-- guardian_groupobjectpermission&#45;&gt;django_content_type -->
<g id="edge4" class="edge"><title>guardian_groupobjectpermission:content_type_id:w&#45;&gt;django_content_type:id:e</title>
<path fill="none" stroke="black" d="M454.228,-534.692C326.733,-529.243 300.157,-451.922 216,-346 188.826,-311.798 220.183,-256 176.5,-256"/>
<polygon fill="black" stroke="black" points="461.002,-534.833 468.925,-538.599 465.001,-534.917 469,-535 469,-535 469,-535 465.001,-534.917 469.075,-531.401 461.002,-534.833 461.002,-534.833"/>
<ellipse fill="none" stroke="black" cx="457.802" cy="-534.767" rx="3.2" ry="3.2"/>
</g>
<!-- guardian_userobjectpermission -->
<g id="node6" class="node"><title>guardian_userobjectpermission</title>
<g id="a_node6"><a xlink:href="../../tables/guardian_userobjectpermission.html" xlink:title="guardian_userobjectpermission" target="_top">
<polygon fill="#ffffff" stroke="none" points="474,-37 474,-187 702,-187 702,-37 474,-37"/>
<polygon fill="#f5f5f5" stroke="none" points="474,-165 474,-187 702,-187 702,-165 474,-165"/>
<polygon fill="none" stroke="black" points="474,-165 474,-187 702,-187 702,-165 474,-165"/>
<text text-anchor="start" x="479" y="-174.2" font-family="Helvetica,sans-Serif" font-weight="bold" font-size="11.00">guardian_userobjectpermission</text>
<text text-anchor="start" x="663" y="-173.2" font-family="Helvetica,sans-Serif" font-size="11.00">[table]</text>
<polygon fill="none" stroke="black" points="474,-143 474,-165 702,-165 702,-143 474,-143"/>
<image xlink:href="../../images/primaryKeys.png" width="11px" height="12px" preserveAspectRatio="xMinYMin meet" x="479" y="-160"/>
<text text-anchor="start" x="504" y="-151.2" font-family="Helvetica,sans-Serif" font-size="11.00">id</text>
<polygon fill="#ffffff" stroke="none" points="474,-121 474,-143 702,-143 702,-121 474,-121"/>
<polygon fill="none" stroke="black" points="474,-121 474,-143 702,-143 702,-121 474,-121"/>
<text text-anchor="start" x="504" y="-129.2" font-family="Helvetica,sans-Serif" font-size="11.00">object_pk</text>
<polygon fill="#ffffff" stroke="none" points="474,-99 474,-121 702,-121 702,-99 474,-99"/>
<polygon fill="none" stroke="black" points="474,-99 474,-121 702,-121 702,-99 474,-99"/>
<image xlink:href="../../images/foreignKeys.png" width="11px" height="12px" preserveAspectRatio="xMinYMin meet" x="479" y="-116"/>
<text text-anchor="start" x="504" y="-107.2" font-family="Helvetica,sans-Serif" font-size="11.00">content_type_id</text>
<polygon fill="#ffffff" stroke="none" points="474,-77 474,-99 702,-99 702,-77 474,-77"/>
<polygon fill="none" stroke="black" points="474,-77 474,-99 702,-99 702,-77 474,-77"/>
<image xlink:href="../../images/foreignKeys.png" width="11px" height="12px" preserveAspectRatio="xMinYMin meet" x="479" y="-94"/>
<text text-anchor="start" x="504" y="-85.2" font-family="Helvetica,sans-Serif" font-size="11.00">permission_id</text>
<polygon fill="#ffffff" stroke="none" points="474,-55 474,-77 702,-77 702,-55 474,-55"/>
<polygon fill="none" stroke="black" points="474,-55 474,-77 702,-77 702,-55 474,-55"/>
<image xlink:href="../../images/foreignKeys.png" width="11px" height="12px" preserveAspectRatio="xMinYMin meet" x="479" y="-72"/>
<text text-anchor="start" x="504" y="-63.2" font-family="Helvetica,sans-Serif" font-size="11.00">user_id</text>
<polygon fill="#ffffff" stroke="none" points="474,-37 474,-55 572,-55 572,-37 474,-37"/>
<polygon fill="none" stroke="black" points="474,-37 474,-55 572,-55 572,-37 474,-37"/>
<text text-anchor="start" x="477" y="-43.2" font-family="Helvetica,sans-Serif" font-size="11.00">&lt; 3</text>
<polygon fill="#ffffff" stroke="none" points="572,-37 572,-55 651,-55 651,-37 572,-37"/>
<polygon fill="none" stroke="black" points="572,-37 572,-55 651,-55 651,-37 572,-37"/>
<text text-anchor="start" x="612" y="-43.2" font-family="Helvetica,sans-Serif" font-size="11.00">0 rows</text>
<polygon fill="#ffffff" stroke="none" points="651,-37 651,-55 702,-55 702,-37 651,-37"/>
<polygon fill="none" stroke="black" points="651,-37 651,-55 702,-55 702,-37 651,-37"/>
<text text-anchor="start" x="692" y="-43.2" font-family="Helvetica,sans-Serif" font-size="11.00"> &#160;</text>
</a>
</g>
</g>
<!-- guardian_userobjectpermission&#45;&gt;auth_permission -->
<g id="edge7" class="edge"><title>guardian_userobjectpermission:permission_id:w&#45;&gt;auth_permission:id.type:e</title>
<path fill="none" stroke="black" d="M458.717,-89.9633C391.211,-111.335 512.07,-300 420.5,-300"/>
<polygon fill="black" stroke="black" points="465.075,-89.0895 473.49,-91.5665 469.037,-88.5447 473,-88 473,-88 473,-88 469.037,-88.5447 472.51,-84.4335 465.075,-89.0895 465.075,-89.0895"/>
<ellipse fill="none" stroke="black" cx="461.904" cy="-89.5252" rx="3.2" ry="3.2"/>
</g>
<!-- guardian_userobjectpermission&#45;&gt;django_content_type -->
<g id="edge6" class="edge"><title>guardian_userobjectpermission:content_type_id:w&#45;&gt;django_content_type:id:e</title>
<path fill="none" stroke="black" d="M458.281,-110.053C349.327,-110.891 306.731,-122.354 216,-193 189.924,-213.304 209.548,-256 176.5,-256"/>
<polygon fill="black" stroke="black" points="465,-110.029 473.013,-113.6 469,-110.014 473,-110 473,-110 473,-110 469,-110.014 472.987,-106.4 465,-110.029 465,-110.029"/>
<ellipse fill="none" stroke="black" cx="461.8" cy="-110.04" rx="3.2" ry="3.2"/>
</g>
</g>
</svg>
