<?xml version="1.0" encoding="UTF-8" standalone="no"?>
<!DOCTYPE svg PUBLIC "-//W3C//DTD SVG 1.1//EN"
 "http://www.w3.org/Graphics/SVG/1.1/DTD/svg11.dtd">
<!-- Generated by graphviz version 2.38.0 (20140413.2041)
 -->
<!-- Title: oneDegreeRelationshipsDiagram Pages: 1 -->
<svg width="418pt" height="197pt"
 viewBox="0.00 0.00 418.00 197.00" xmlns="http://www.w3.org/2000/svg" xmlns:xlink="http://www.w3.org/1999/xlink">
<g id="graph0" class="graph" transform="scale(1 1) rotate(0) translate(4 193)">
<title>oneDegreeRelationshipsDiagram</title>
<polygon fill="#ffffff" stroke="none" points="-4,4 -4,-193 414,-193 414,4 -4,4"/>
<text text-anchor="middle" x="74.5" y="-7.2" font-family="Helvetica,sans-Serif" font-size="11.00">Generated by SchemaSpy</text>
<!-- authtoken_token -->
<g id="node1" class="node"><title>authtoken_token</title>
<g id="a_node1"><a xlink:href="../../tables/authtoken_token.html" xlink:title="authtoken_token" target="_top">
<polygon fill="#ffffff" stroke="none" points="172,-75 172,-185 402,-185 402,-75 172,-75"/>
<polygon fill="#f5f5f5" stroke="none" points="174,-161 174,-183 400,-183 400,-161 174,-161"/>
<polygon fill="none" stroke="black" points="174,-161 174,-183 400,-183 400,-161 174,-161"/>
<text text-anchor="start" x="179" y="-170.2" font-family="Helvetica,sans-Serif" font-weight="bold" font-size="11.00">authtoken_token</text>
<text text-anchor="start" x="361" y="-169.2" font-family="Helvetica,sans-Serif" font-size="11.00">[table]</text>
<polygon fill="none" stroke="black" points="174,-139 174,-161 298,-161 298,-139 174,-139"/>
<image xlink:href="../../images/primaryKeys.png" width="11px" height="12px" preserveAspectRatio="xMinYMin meet" x="179" y="-156"/>
<text text-anchor="start" x="194" y="-147.2" font-family="Helvetica,sans-Serif" font-size="11.00">key</text>
<polygon fill="none" stroke="black" points="298,-139 298,-161 400,-161 400,-139 298,-139"/>
<text text-anchor="start" x="301" y="-147.2" font-family="Helvetica,sans-Serif" font-size="11.00">varchar[40]</text>
<polygon fill="none" stroke="black" points="174,-117 174,-139 298,-139 298,-117 174,-117"/>
<text text-anchor="start" x="194" y="-125.2" font-family="Helvetica,sans-Serif" font-size="11.00">created</text>
<polygon fill="none" stroke="black" points="298,-117 298,-139 400,-139 400,-117 298,-117"/>
<text text-anchor="start" x="301" y="-125.2" font-family="Helvetica,sans-Serif" font-size="11.00">timestamptz[35,6]</text>
<polygon fill="#ffffff" stroke="none" points="174,-95 174,-117 298,-117 298,-95 174,-95"/>
<polygon fill="none" stroke="black" points="174,-95 174,-117 298,-117 298,-95 174,-95"/>
<image xlink:href="../../images/foreignKeys.png" width="11px" height="12px" preserveAspectRatio="xMinYMin meet" x="179" y="-112"/>
<text text-anchor="start" x="194" y="-103.2" font-family="Helvetica,sans-Serif" font-size="11.00">user_id</text>
<polygon fill="none" stroke="black" points="298,-95 298,-117 400,-117 400,-95 298,-95"/>
<text text-anchor="start" x="301" y="-103.2" font-family="Helvetica,sans-Serif" font-size="11.00">int4[10]</text>
<polygon fill="#ffffff" stroke="none" points="174,-77 174,-95 226,-95 226,-77 174,-77"/>
<polygon fill="none" stroke="black" points="174,-77 174,-95 226,-95 226,-77 174,-77"/>
<text text-anchor="start" x="177" y="-83.2" font-family="Helvetica,sans-Serif" font-size="11.00">&lt; 1</text>
<polygon fill="#ffffff" stroke="none" points="226,-77 226,-95 298,-95 298,-77 226,-77"/>
<polygon fill="none" stroke="black" points="226,-77 226,-95 298,-95 298,-77 226,-77"/>
<text text-anchor="start" x="259" y="-83.2" font-family="Helvetica,sans-Serif" font-size="11.00">4 rows</text>
<polygon fill="#ffffff" stroke="none" points="298,-77 298,-95 400,-95 400,-77 298,-77"/>
<polygon fill="none" stroke="black" points="298,-77 298,-95 400,-95 400,-77 298,-77"/>
<text text-anchor="start" x="380" y="-83.2" font-family="Helvetica,sans-Serif" font-size="11.00">0 &gt;</text>
<polygon fill="none" stroke="black" stroke-width="2" points="173,-76 173,-184 401,-184 401,-76 173,-76"/>
</a>
</g>
</g>
<!-- galaxy_user -->
<g id="node2" class="node"><title>galaxy_user</title>
<g id="a_node2"><a xlink:href="../../tables/galaxy_user.html" xlink:title="galaxy_user" target="_top">
<polygon fill="#ffffff" stroke="none" points="8,-37 8,-139 123,-139 123,-37 8,-37"/>
<polygon fill="#f5f5f5" stroke="none" points="8.5,-117 8.5,-139 123.5,-139 123.5,-117 8.5,-117"/>
<polygon fill="none" stroke="black" points="8.5,-117 8.5,-139 123.5,-139 123.5,-117 8.5,-117"/>
<text text-anchor="start" x="13.5" y="-126.2" font-family="Helvetica,sans-Serif" font-weight="bold" font-size="11.00">galaxy_user</text>
<text text-anchor="start" x="84.5" y="-125.2" font-family="Helvetica,sans-Serif" font-size="11.00">[table]</text>
<polygon fill="none" stroke="black" points="8.5,-95 8.5,-117 123.5,-117 123.5,-95 8.5,-95"/>
<image xlink:href="../../images/primaryKeys.png" width="11px" height="12px" preserveAspectRatio="xMinYMin meet" x="13.5" y="-112"/>
<text text-anchor="start" x="38.5" y="-103.2" font-family="Helvetica,sans-Serif" font-size="11.00">id</text>
<polygon fill="#ffffff" stroke="none" points="8.5,-73 8.5,-95 123.5,-95 123.5,-73 8.5,-73"/>
<polygon fill="none" stroke="black" points="8.5,-73 8.5,-95 123.5,-95 123.5,-73 8.5,-73"/>
<text text-anchor="start" x="38.5" y="-81.2" font-family="Helvetica,sans-Serif" font-size="11.00">username</text>
<polygon fill="none" stroke="black" points="8.5,-55 8.5,-73 123.5,-73 123.5,-55 8.5,-55"/>
<text text-anchor="start" x="11.5" y="-61.2" font-family="Helvetica,sans-Serif" font-size="11.00">...</text>
<polygon fill="#ffffff" stroke="none" points="8.5,-37 8.5,-55 36.5,-55 36.5,-37 8.5,-37"/>
<polygon fill="none" stroke="black" points="8.5,-37 8.5,-55 36.5,-55 36.5,-37 8.5,-37"/>
<text text-anchor="start" x="11.5" y="-43.2" font-family="Helvetica,sans-Serif" font-size="11.00"> &#160;</text>
<polygon fill="#ffffff" stroke="none" points="36.5,-37 36.5,-55 92.5,-55 92.5,-37 36.5,-37"/>
<polygon fill="none" stroke="black" points="36.5,-37 36.5,-55 92.5,-55 92.5,-37 36.5,-37"/>
<text text-anchor="start" x="46.5" y="-43.2" font-family="Helvetica,sans-Serif" font-size="11.00">17 rows</text>
<polygon fill="#ffffff" stroke="none" points="92.5,-37 92.5,-55 123.5,-55 123.5,-37 92.5,-37"/>
<polygon fill="none" stroke="black" points="92.5,-37 92.5,-55 123.5,-55 123.5,-37 92.5,-37"/>
<text text-anchor="start" x="103.5" y="-43.2" font-family="Helvetica,sans-Serif" font-size="11.00">5 &gt;</text>
</a>
</g>
</g>
<!-- authtoken_token&#45;&gt;galaxy_user -->
<g id="edge1" class="edge"><title>authtoken_token:user_id:w&#45;&gt;galaxy_user:id:e</title>
<path fill="none" stroke="black" d="M162.367,-106C148.855,-106 142.014,-106 124.5,-106"/>
<polygon fill="black" stroke="black" points="172.2,-102 172.2,-110 170.6,-110 170.6,-102 172.2,-102"/>
<polyline fill="none" stroke="black" points="173,-106 169,-106 "/>
<ellipse fill="none" stroke="black" cx="165.8" cy="-106" rx="3.2" ry="3.2"/>
</g>
</g>
</svg>
