<?xml version="1.0" encoding="UTF-8" standalone="no"?>
<!DOCTYPE svg PUBLIC "-//W3C//DTD SVG 1.1//EN"
 "http://www.w3.org/Graphics/SVG/1.1/DTD/svg11.dtd">
<!-- Generated by graphviz version 2.38.0 (20140413.2041)
 -->
<!-- Title: oneDegreeRelationshipsDiagram Pages: 1 -->
<svg width="475pt" height="453pt"
 viewBox="0.00 0.00 475.00 453.00" xmlns="http://www.w3.org/2000/svg" xmlns:xlink="http://www.w3.org/1999/xlink">
<g id="graph0" class="graph" transform="scale(1 1) rotate(0) translate(4 449)">
<title>oneDegreeRelationshipsDiagram</title>
<polygon fill="#ffffff" stroke="none" points="-4,4 -4,-449 471,-449 471,4 -4,4"/>
<text text-anchor="middle" x="74.5" y="-7.2" font-family="Helvetica,sans-Serif" font-size="11.00">Generated by SchemaSpy</text>
<!-- auth_group_permissions -->
<g id="node1" class="node"><title>auth_group_permissions</title>
<g id="a_node1"><a xlink:href="../../tables/auth_group_permissions.html" xlink:title="auth_group_permissions" target="_top">
<polygon fill="#ffffff" stroke="none" points="248,-335 248,-441 434,-441 434,-335 248,-335"/>
<polygon fill="#f5f5f5" stroke="none" points="248,-419 248,-441 434,-441 434,-419 248,-419"/>
<polygon fill="none" stroke="black" points="248,-419 248,-441 434,-441 434,-419 248,-419"/>
<text text-anchor="start" x="253" y="-428.2" font-family="Helvetica,sans-Serif" font-weight="bold" font-size="11.00">auth_group_permissions</text>
<text text-anchor="start" x="395" y="-427.2" font-family="Helvetica,sans-Serif" font-size="11.00">[table]</text>
<polygon fill="none" stroke="black" points="248,-397 248,-419 434,-419 434,-397 248,-397"/>
<image xlink:href="../../images/primaryKeys.png" width="11px" height="12px" preserveAspectRatio="xMinYMin meet" x="253" y="-414"/>
<text text-anchor="start" x="278" y="-405.2" font-family="Helvetica,sans-Serif" font-size="11.00">id</text>
<polygon fill="#ffffff" stroke="none" points="248,-375 248,-397 434,-397 434,-375 248,-375"/>
<polygon fill="none" stroke="black" points="248,-375 248,-397 434,-397 434,-375 248,-375"/>
<image xlink:href="../../images/foreignKeys.png" width="11px" height="12px" preserveAspectRatio="xMinYMin meet" x="253" y="-392"/>
<text text-anchor="start" x="278" y="-383.2" font-family="Helvetica,sans-Serif" font-size="11.00">group_id</text>
<polygon fill="#ffffff" stroke="none" points="248,-353 248,-375 434,-375 434,-353 248,-353"/>
<polygon fill="none" stroke="black" points="248,-353 248,-375 434,-375 434,-353 248,-353"/>
<image xlink:href="../../images/foreignKeys.png" width="11px" height="12px" preserveAspectRatio="xMinYMin meet" x="253" y="-370"/>
<text text-anchor="start" x="278" y="-361.2" font-family="Helvetica,sans-Serif" font-size="11.00">permission_id</text>
<polygon fill="#ffffff" stroke="none" points="248,-335 248,-353 325,-353 325,-335 248,-335"/>
<polygon fill="none" stroke="black" points="248,-335 248,-353 325,-353 325,-335 248,-335"/>
<text text-anchor="start" x="251" y="-341.2" font-family="Helvetica,sans-Serif" font-size="11.00">&lt; 2</text>
<polygon fill="#ffffff" stroke="none" points="325,-335 325,-353 394,-353 394,-335 325,-335"/>
<polygon fill="none" stroke="black" points="325,-335 325,-353 394,-353 394,-335 325,-335"/>
<text text-anchor="start" x="355" y="-341.2" font-family="Helvetica,sans-Serif" font-size="11.00">0 rows</text>
<polygon fill="#ffffff" stroke="none" points="394,-335 394,-353 434,-353 434,-335 394,-335"/>
<polygon fill="none" stroke="black" points="394,-335 394,-353 434,-353 434,-335 394,-335"/>
<text text-anchor="start" x="424" y="-341.2" font-family="Helvetica,sans-Serif" font-size="11.00"> &#160;</text>
</a>
</g>
</g>
<!-- auth_group -->
<g id="node2" class="node"><title>auth_group</title>
<g id="a_node2"><a xlink:href="../../tables/auth_group.html" xlink:title="auth_group" target="_top">
<polygon fill="#ffffff" stroke="none" points="8,-184 8,-272 174,-272 174,-184 8,-184"/>
<polygon fill="#f5f5f5" stroke="none" points="10,-248 10,-270 172,-270 172,-248 10,-248"/>
<polygon fill="none" stroke="black" points="10,-248 10,-270 172,-270 172,-248 10,-248"/>
<text text-anchor="start" x="15" y="-257.2" font-family="Helvetica,sans-Serif" font-weight="bold" font-size="11.00">auth_group</text>
<text text-anchor="start" x="133" y="-256.2" font-family="Helvetica,sans-Serif" font-size="11.00">[table]</text>
<polygon fill="none" stroke="black" points="10,-226 10,-248 99,-248 99,-226 10,-226"/>
<image xlink:href="../../images/primaryKeys.png" width="11px" height="12px" preserveAspectRatio="xMinYMin meet" x="15" y="-243"/>
<text text-anchor="start" x="30" y="-234.2" font-family="Helvetica,sans-Serif" font-size="11.00">id</text>
<polygon fill="none" stroke="black" points="99,-226 99,-248 172,-248 172,-226 99,-226"/>
<text text-anchor="start" x="102" y="-234.2" font-family="Helvetica,sans-Serif" font-size="11.00">serial[10]</text>
<polygon fill="#ffffff" stroke="none" points="10,-204 10,-226 99,-226 99,-204 10,-204"/>
<polygon fill="none" stroke="black" points="10,-204 10,-226 99,-226 99,-204 10,-204"/>
<text text-anchor="start" x="30" y="-212.2" font-family="Helvetica,sans-Serif" font-size="11.00">name</text>
<polygon fill="none" stroke="black" points="99,-204 99,-226 172,-226 172,-204 99,-204"/>
<text text-anchor="start" x="102" y="-212.2" font-family="Helvetica,sans-Serif" font-size="11.00">varchar[150]</text>
<polygon fill="#ffffff" stroke="none" points="10,-186 10,-204 41,-204 41,-186 10,-186"/>
<polygon fill="none" stroke="black" points="10,-186 10,-204 41,-204 41,-186 10,-186"/>
<text text-anchor="start" x="13" y="-192.2" font-family="Helvetica,sans-Serif" font-size="11.00">&lt; 0</text>
<polygon fill="#ffffff" stroke="none" points="41,-186 41,-204 99,-204 99,-186 41,-186"/>
<polygon fill="none" stroke="black" points="41,-186 41,-204 99,-204 99,-186 41,-186"/>
<text text-anchor="start" x="53" y="-192.2" font-family="Helvetica,sans-Serif" font-size="11.00">15 rows</text>
<polygon fill="#ffffff" stroke="none" points="99,-186 99,-204 172,-204 172,-186 99,-186"/>
<polygon fill="none" stroke="black" points="99,-186 99,-204 172,-204 172,-186 99,-186"/>
<text text-anchor="start" x="152" y="-192.2" font-family="Helvetica,sans-Serif" font-size="11.00">3 &gt;</text>
<polygon fill="none" stroke="black" stroke-width="2" points="9,-185 9,-271 173,-271 173,-185 9,-185"/>
</a>
</g>
</g>
<!-- auth_group_permissions&#45;&gt;auth_group -->
<g id="edge1" class="edge"><title>auth_group_permissions:group_id:w&#45;&gt;auth_group:id.type:e</title>
<path fill="none" stroke="black" d="M232.546,-383.538C183.458,-364.165 241.307,-237 173,-237"/>
<polygon fill="black" stroke="black" points="239.114,-384.657 246.396,-389.549 243.057,-385.328 247,-386 247,-386 247,-386 243.057,-385.328 247.604,-382.451 239.114,-384.657 239.114,-384.657"/>
<ellipse fill="none" stroke="black" cx="235.959" cy="-384.119" rx="3.2" ry="3.2"/>
</g>
<!-- galaxy_user_groups -->
<g id="node3" class="node"><title>galaxy_user_groups</title>
<g id="a_node3"><a xlink:href="../../tables/galaxy_user_groups.html" xlink:title="galaxy_user_groups" target="_top">
<polygon fill="#ffffff" stroke="none" points="262.5,-208 262.5,-314 419.5,-314 419.5,-208 262.5,-208"/>
<polygon fill="#f5f5f5" stroke="none" points="263,-292 263,-314 420,-314 420,-292 263,-292"/>
<polygon fill="none" stroke="black" points="263,-292 263,-314 420,-314 420,-292 263,-292"/>
<text text-anchor="start" x="268" y="-301.2" font-family="Helvetica,sans-Serif" font-weight="bold" font-size="11.00">galaxy_user_groups</text>
<text text-anchor="start" x="381" y="-300.2" font-family="Helvetica,sans-Serif" font-size="11.00">[table]</text>
<polygon fill="none" stroke="black" points="263,-270 263,-292 420,-292 420,-270 263,-270"/>
<image xlink:href="../../images/primaryKeys.png" width="11px" height="12px" preserveAspectRatio="xMinYMin meet" x="268" y="-287"/>
<text text-anchor="start" x="293" y="-278.2" font-family="Helvetica,sans-Serif" font-size="11.00">id</text>
<polygon fill="#ffffff" stroke="none" points="263,-248 263,-270 420,-270 420,-248 263,-248"/>
<polygon fill="none" stroke="black" points="263,-248 263,-270 420,-270 420,-248 263,-248"/>
<image xlink:href="../../images/foreignKeys.png" width="11px" height="12px" preserveAspectRatio="xMinYMin meet" x="268" y="-265"/>
<text text-anchor="start" x="293" y="-256.2" font-family="Helvetica,sans-Serif" font-size="11.00">user_id</text>
<polygon fill="#ffffff" stroke="none" points="263,-226 263,-248 420,-248 420,-226 263,-226"/>
<polygon fill="none" stroke="black" points="263,-226 263,-248 420,-248 420,-226 263,-226"/>
<image xlink:href="../../images/foreignKeys.png" width="11px" height="12px" preserveAspectRatio="xMinYMin meet" x="268" y="-243"/>
<text text-anchor="start" x="293" y="-234.2" font-family="Helvetica,sans-Serif" font-size="11.00">group_id</text>
<polygon fill="#ffffff" stroke="none" points="263,-208 263,-226 322,-226 322,-208 263,-208"/>
<polygon fill="none" stroke="black" points="263,-208 263,-226 322,-226 322,-208 263,-208"/>
<text text-anchor="start" x="266" y="-214.2" font-family="Helvetica,sans-Serif" font-size="11.00">&lt; 2</text>
<polygon fill="#ffffff" stroke="none" points="322,-208 322,-226 389,-226 389,-208 322,-208"/>
<polygon fill="none" stroke="black" points="322,-208 322,-226 389,-226 389,-208 322,-208"/>
<text text-anchor="start" x="343" y="-214.2" font-family="Helvetica,sans-Serif" font-size="11.00">18 rows</text>
<polygon fill="#ffffff" stroke="none" points="389,-208 389,-226 420,-226 420,-208 389,-208"/>
<polygon fill="none" stroke="black" points="389,-208 389,-226 420,-226 420,-208 389,-208"/>
<text text-anchor="start" x="410" y="-214.2" font-family="Helvetica,sans-Serif" font-size="11.00"> &#160;</text>
</a>
</g>
</g>
<!-- galaxy_user_groups&#45;&gt;auth_group -->
<g id="edge2" class="edge"><title>galaxy_user_groups:group_id:w&#45;&gt;auth_group:id.type:e</title>
<path fill="none" stroke="black" d="M247.288,-237C219.186,-237 207.148,-237 173,-237"/>
<polygon fill="black" stroke="black" points="254,-237 262,-240.6 258,-237 262,-237 262,-237 262,-237 258,-237 262,-233.4 254,-237 254,-237"/>
<ellipse fill="none" stroke="black" cx="250.8" cy="-237" rx="3.2" ry="3.2"/>
</g>
<!-- guardian_groupobjectpermission -->
<g id="node4" class="node"><title>guardian_groupobjectpermission</title>
<g id="a_node4"><a xlink:href="../../tables/guardian_groupobjectpermission.html" xlink:title="guardian_groupobjectpermission" target="_top">
<polygon fill="#ffffff" stroke="none" points="223,-37 223,-187 459,-187 459,-37 223,-37"/>
<polygon fill="#f5f5f5" stroke="none" points="223,-165 223,-187 459,-187 459,-165 223,-165"/>
<polygon fill="none" stroke="black" points="223,-165 223,-187 459,-187 459,-165 223,-165"/>
<text text-anchor="start" x="228" y="-174.2" font-family="Helvetica,sans-Serif" font-weight="bold" font-size="11.00">guardian_groupobjectpermission</text>
<text text-anchor="start" x="420" y="-173.2" font-family="Helvetica,sans-Serif" font-size="11.00">[table]</text>
<polygon fill="none" stroke="black" points="223,-143 223,-165 459,-165 459,-143 223,-143"/>
<image xlink:href="../../images/primaryKeys.png" width="11px" height="12px" preserveAspectRatio="xMinYMin meet" x="228" y="-160"/>
<text text-anchor="start" x="252" y="-151.2" font-family="Helvetica,sans-Serif" font-size="11.00">id</text>
<polygon fill="#ffffff" stroke="none" points="223,-121 223,-143 459,-143 459,-121 223,-121"/>
<polygon fill="none" stroke="black" points="223,-121 223,-143 459,-143 459,-121 223,-121"/>
<text text-anchor="start" x="252" y="-129.2" font-family="Helvetica,sans-Serif" font-size="11.00">object_pk</text>
<polygon fill="#ffffff" stroke="none" points="223,-99 223,-121 459,-121 459,-99 223,-99"/>
<polygon fill="none" stroke="black" points="223,-99 223,-121 459,-121 459,-99 223,-99"/>
<image xlink:href="../../images/foreignKeys.png" width="11px" height="12px" preserveAspectRatio="xMinYMin meet" x="228" y="-116"/>
<text text-anchor="start" x="252" y="-107.2" font-family="Helvetica,sans-Serif" font-size="11.00">content_type_id</text>
<polygon fill="#ffffff" stroke="none" points="223,-77 223,-99 459,-99 459,-77 223,-77"/>
<polygon fill="none" stroke="black" points="223,-77 223,-99 459,-99 459,-77 223,-77"/>
<image xlink:href="../../images/foreignKeys.png" width="11px" height="12px" preserveAspectRatio="xMinYMin meet" x="228" y="-94"/>
<text text-anchor="start" x="252" y="-85.2" font-family="Helvetica,sans-Serif" font-size="11.00">group_id</text>
<polygon fill="#ffffff" stroke="none" points="223,-55 223,-77 459,-77 459,-55 223,-55"/>
<polygon fill="none" stroke="black" points="223,-55 223,-77 459,-77 459,-55 223,-55"/>
<image xlink:href="../../images/foreignKeys.png" width="11px" height="12px" preserveAspectRatio="xMinYMin meet" x="228" y="-72"/>
<text text-anchor="start" x="252" y="-63.2" font-family="Helvetica,sans-Serif" font-size="11.00">permission_id</text>
<polygon fill="#ffffff" stroke="none" points="223,-37 223,-55 318,-55 318,-37 223,-37"/>
<polygon fill="none" stroke="black" points="223,-37 223,-55 318,-55 318,-37 223,-37"/>
<text text-anchor="start" x="226" y="-43.2" font-family="Helvetica,sans-Serif" font-size="11.00">&lt; 3</text>
<polygon fill="#ffffff" stroke="none" points="318,-37 318,-55 409,-55 409,-37 318,-37"/>
<polygon fill="none" stroke="black" points="318,-37 318,-55 409,-55 409,-37 318,-37"/>
<text text-anchor="start" x="357" y="-43.2" font-family="Helvetica,sans-Serif" font-size="11.00">168 rows</text>
<polygon fill="#ffffff" stroke="none" points="409,-37 409,-55 459,-55 459,-37 409,-37"/>
<polygon fill="none" stroke="black" points="409,-37 409,-55 459,-55 459,-37 409,-37"/>
<text text-anchor="start" x="449" y="-43.2" font-family="Helvetica,sans-Serif" font-size="11.00"> &#160;</text>
</a>
</g>
</g>
<!-- guardian_groupobjectpermission&#45;&gt;auth_group -->
<g id="edge3" class="edge"><title>guardian_groupobjectpermission:group_id:w&#45;&gt;auth_group:id.type:e</title>
<path fill="none" stroke="black" d="M207.635,-90.9763C166.347,-111.976 236.857,-237 173,-237"/>
<polygon fill="black" stroke="black" points="214.166,-89.6231 222.73,-91.5251 218.083,-88.8115 222,-88 222,-88 222,-88 218.083,-88.8115 221.27,-84.4749 214.166,-89.6231 214.166,-89.6231"/>
<ellipse fill="none" stroke="black" cx="211.033" cy="-90.2723" rx="3.2" ry="3.2"/>
</g>
</g>
</svg>
