<?xml version="1.0" encoding="UTF-8" standalone="no"?>
<!DOCTYPE svg PUBLIC "-//W3C//DTD SVG 1.1//EN"
 "http://www.w3.org/Graphics/SVG/1.1/DTD/svg11.dtd">
<!-- Generated by graphviz version 2.38.0 (20140413.2041)
 -->
<!-- Title: twoDegreesRelationshipsDiagram Pages: 1 -->
<svg width="418pt" height="475pt"
 viewBox="0.00 0.00 418.00 475.00" xmlns="http://www.w3.org/2000/svg" xmlns:xlink="http://www.w3.org/1999/xlink">
<g id="graph0" class="graph" transform="scale(1 1) rotate(0) translate(4 471)">
<title>twoDegreesRelationshipsDiagram</title>
<polygon fill="#ffffff" stroke="none" points="-4,4 -4,-471 414,-471 414,4 -4,4"/>
<text text-anchor="middle" x="74.5" y="-7.2" font-family="Helvetica,sans-Serif" font-size="11.00">Generated by SchemaSpy</text>
<!-- authtoken_token -->
<g id="node1" class="node"><title>authtoken_token</title>
<g id="a_node1"><a xlink:href="../../tables/authtoken_token.html" xlink:title="authtoken_token" target="_top">
<polygon fill="#ffffff" stroke="none" points="172,-353 172,-463 402,-463 402,-353 172,-353"/>
<polygon fill="#f5f5f5" stroke="none" points="174,-439 174,-461 400,-461 400,-439 174,-439"/>
<polygon fill="none" stroke="black" points="174,-439 174,-461 400,-461 400,-439 174,-439"/>
<text text-anchor="start" x="179" y="-448.2" font-family="Helvetica,sans-Serif" font-weight="bold" font-size="11.00">authtoken_token</text>
<text text-anchor="start" x="361" y="-447.2" font-family="Helvetica,sans-Serif" font-size="11.00">[table]</text>
<polygon fill="none" stroke="black" points="174,-417 174,-439 298,-439 298,-417 174,-417"/>
<image xlink:href="../../images/primaryKeys.png" width="11px" height="12px" preserveAspectRatio="xMinYMin meet" x="179" y="-434"/>
<text text-anchor="start" x="194" y="-425.2" font-family="Helvetica,sans-Serif" font-size="11.00">key</text>
<polygon fill="none" stroke="black" points="298,-417 298,-439 400,-439 400,-417 298,-417"/>
<text text-anchor="start" x="301" y="-425.2" font-family="Helvetica,sans-Serif" font-size="11.00">varchar[40]</text>
<polygon fill="none" stroke="black" points="174,-395 174,-417 298,-417 298,-395 174,-395"/>
<text text-anchor="start" x="194" y="-403.2" font-family="Helvetica,sans-Serif" font-size="11.00">created</text>
<polygon fill="none" stroke="black" points="298,-395 298,-417 400,-417 400,-395 298,-395"/>
<text text-anchor="start" x="301" y="-403.2" font-family="Helvetica,sans-Serif" font-size="11.00">timestamptz[35,6]</text>
<polygon fill="#ffffff" stroke="none" points="174,-373 174,-395 298,-395 298,-373 174,-373"/>
<polygon fill="none" stroke="black" points="174,-373 174,-395 298,-395 298,-373 174,-373"/>
<image xlink:href="../../images/foreignKeys.png" width="11px" height="12px" preserveAspectRatio="xMinYMin meet" x="179" y="-390"/>
<text text-anchor="start" x="194" y="-381.2" font-family="Helvetica,sans-Serif" font-size="11.00">user_id</text>
<polygon fill="none" stroke="black" points="298,-373 298,-395 400,-395 400,-373 298,-373"/>
<text text-anchor="start" x="301" y="-381.2" font-family="Helvetica,sans-Serif" font-size="11.00">int4[10]</text>
<polygon fill="#ffffff" stroke="none" points="174,-355 174,-373 226,-373 226,-355 174,-355"/>
<polygon fill="none" stroke="black" points="174,-355 174,-373 226,-373 226,-355 174,-355"/>
<text text-anchor="start" x="177" y="-361.2" font-family="Helvetica,sans-Serif" font-size="11.00">&lt; 1</text>
<polygon fill="#ffffff" stroke="none" points="226,-355 226,-373 298,-373 298,-355 226,-355"/>
<polygon fill="none" stroke="black" points="226,-355 226,-373 298,-373 298,-355 226,-355"/>
<text text-anchor="start" x="259" y="-361.2" font-family="Helvetica,sans-Serif" font-size="11.00">4 rows</text>
<polygon fill="#ffffff" stroke="none" points="298,-355 298,-373 400,-373 400,-355 298,-355"/>
<polygon fill="none" stroke="black" points="298,-355 298,-373 400,-373 400,-355 298,-355"/>
<text text-anchor="start" x="380" y="-361.2" font-family="Helvetica,sans-Serif" font-size="11.00">0 &gt;</text>
<polygon fill="none" stroke="black" stroke-width="2" points="173,-354 173,-462 401,-462 401,-354 173,-354"/>
</a>
</g>
</g>
<!-- galaxy_user -->
<g id="node2" class="node"><title>galaxy_user</title>
<g id="a_node2"><a xlink:href="../../tables/galaxy_user.html" xlink:title="galaxy_user" target="_top">
<polygon fill="#ffffff" stroke="none" points="8,-153 8,-255 123,-255 123,-153 8,-153"/>
<polygon fill="#f5f5f5" stroke="none" points="8.5,-233 8.5,-255 123.5,-255 123.5,-233 8.5,-233"/>
<polygon fill="none" stroke="black" points="8.5,-233 8.5,-255 123.5,-255 123.5,-233 8.5,-233"/>
<text text-anchor="start" x="13.5" y="-242.2" font-family="Helvetica,sans-Serif" font-weight="bold" font-size="11.00">galaxy_user</text>
<text text-anchor="start" x="84.5" y="-241.2" font-family="Helvetica,sans-Serif" font-size="11.00">[table]</text>
<polygon fill="none" stroke="black" points="8.5,-211 8.5,-233 123.5,-233 123.5,-211 8.5,-211"/>
<image xlink:href="../../images/primaryKeys.png" width="11px" height="12px" preserveAspectRatio="xMinYMin meet" x="13.5" y="-228"/>
<text text-anchor="start" x="38.5" y="-219.2" font-family="Helvetica,sans-Serif" font-size="11.00">id</text>
<polygon fill="#ffffff" stroke="none" points="8.5,-189 8.5,-211 123.5,-211 123.5,-189 8.5,-189"/>
<polygon fill="none" stroke="black" points="8.5,-189 8.5,-211 123.5,-211 123.5,-189 8.5,-189"/>
<text text-anchor="start" x="38.5" y="-197.2" font-family="Helvetica,sans-Serif" font-size="11.00">username</text>
<polygon fill="none" stroke="black" points="8.5,-171 8.5,-189 123.5,-189 123.5,-171 8.5,-171"/>
<text text-anchor="start" x="11.5" y="-177.2" font-family="Helvetica,sans-Serif" font-size="11.00">...</text>
<polygon fill="#ffffff" stroke="none" points="8.5,-153 8.5,-171 36.5,-171 36.5,-153 8.5,-153"/>
<polygon fill="none" stroke="black" points="8.5,-153 8.5,-171 36.5,-171 36.5,-153 8.5,-153"/>
<text text-anchor="start" x="11.5" y="-159.2" font-family="Helvetica,sans-Serif" font-size="11.00"> &#160;</text>
<polygon fill="#ffffff" stroke="none" points="36.5,-153 36.5,-171 92.5,-171 92.5,-153 36.5,-153"/>
<polygon fill="none" stroke="black" points="36.5,-153 36.5,-171 92.5,-171 92.5,-153 36.5,-153"/>
<text text-anchor="start" x="46.5" y="-159.2" font-family="Helvetica,sans-Serif" font-size="11.00">17 rows</text>
<polygon fill="#ffffff" stroke="none" points="92.5,-153 92.5,-171 123.5,-171 123.5,-153 92.5,-153"/>
<polygon fill="none" stroke="black" points="92.5,-153 92.5,-171 123.5,-171 123.5,-153 92.5,-153"/>
<text text-anchor="start" x="103.5" y="-159.2" font-family="Helvetica,sans-Serif" font-size="11.00">5 &gt;</text>
</a>
</g>
</g>
<!-- authtoken_token&#45;&gt;galaxy_user -->
<g id="edge1" class="edge"><title>authtoken_token:user_id:w&#45;&gt;galaxy_user:id:e</title>
<path fill="none" stroke="black" d="M162.534,-382.696C108.089,-367.365 195.694,-222 124.5,-222"/>
<polygon fill="black" stroke="black" points="172.701,-379.932 171.712,-387.87 170.124,-387.673 171.113,-379.734 172.701,-379.932"/>
<polyline fill="none" stroke="black" points="173,-384 169.031,-383.505 "/>
<ellipse fill="none" stroke="black" cx="165.855" cy="-383.11" rx="3.2" ry="3.2"/>
</g>
<!-- django_admin_log -->
<g id="node3" class="node"><title>django_admin_log</title>
<g id="a_node3"><a xlink:href="../../tables/django_admin_log.html" xlink:title="django_admin_log" target="_top">
<polygon fill="#ffffff" stroke="none" points="212.5,-274 212.5,-332 361.5,-332 361.5,-274 212.5,-274"/>
<polygon fill="#f5f5f5" stroke="none" points="213,-310 213,-332 362,-332 362,-310 213,-310"/>
<polygon fill="none" stroke="black" points="213,-310 213,-332 362,-332 362,-310 213,-310"/>
<text text-anchor="start" x="218" y="-319.2" font-family="Helvetica,sans-Serif" font-weight="bold" font-size="11.00">django_admin_log</text>
<text text-anchor="start" x="323" y="-318.2" font-family="Helvetica,sans-Serif" font-size="11.00">[table]</text>
<polygon fill="none" stroke="black" points="213,-292 213,-310 362,-310 362,-292 213,-292"/>
<text text-anchor="start" x="216" y="-298.2" font-family="Helvetica,sans-Serif" font-size="11.00">...</text>
<polygon fill="#ffffff" stroke="none" points="213,-274 213,-292 265,-292 265,-274 213,-274"/>
<polygon fill="none" stroke="black" points="213,-274 213,-292 265,-292 265,-274 213,-274"/>
<text text-anchor="start" x="216" y="-280.2" font-family="Helvetica,sans-Serif" font-size="11.00">&lt; 2</text>
<polygon fill="#ffffff" stroke="none" points="265,-274 265,-292 334,-292 334,-274 265,-274"/>
<polygon fill="none" stroke="black" points="265,-274 265,-292 334,-292 334,-274 265,-274"/>
<text text-anchor="start" x="282" y="-280.2" font-family="Helvetica,sans-Serif" font-size="11.00">229 rows</text>
<polygon fill="#ffffff" stroke="none" points="334,-274 334,-292 362,-292 362,-274 334,-274"/>
<polygon fill="none" stroke="black" points="334,-274 334,-292 362,-292 362,-274 334,-274"/>
<text text-anchor="start" x="352" y="-280.2" font-family="Helvetica,sans-Serif" font-size="11.00"> &#160;</text>
</a>
</g>
</g>
<!-- django_admin_log&#45;&gt;galaxy_user -->
<g id="edge2" class="edge"><title>django_admin_log:elipses:w&#45;&gt;galaxy_user:id:e</title>
<path fill="none" stroke="black" d="M197.564,-298.492C183.678,-292.766 179.591,-278.133 164,-264 145.014,-246.79 150.125,-222 124.5,-222"/>
<polygon fill="black" stroke="black" points="204.118,-299.631 211.384,-304.547 208.059,-300.315 212,-301 212,-301 212,-301 208.059,-300.315 212.616,-297.453 204.118,-299.631 204.118,-299.631"/>
<ellipse fill="none" stroke="black" cx="200.965" cy="-299.083" rx="3.2" ry="3.2"/>
</g>
<!-- galaxy_user_groups -->
<g id="node4" class="node"><title>galaxy_user_groups</title>
<g id="a_node4"><a xlink:href="../../tables/galaxy_user_groups.html" xlink:title="galaxy_user_groups" target="_top">
<polygon fill="#ffffff" stroke="none" points="208.5,-195 208.5,-253 365.5,-253 365.5,-195 208.5,-195"/>
<polygon fill="#f5f5f5" stroke="none" points="209,-231 209,-253 366,-253 366,-231 209,-231"/>
<polygon fill="none" stroke="black" points="209,-231 209,-253 366,-253 366,-231 209,-231"/>
<text text-anchor="start" x="214" y="-240.2" font-family="Helvetica,sans-Serif" font-weight="bold" font-size="11.00">galaxy_user_groups</text>
<text text-anchor="start" x="327" y="-239.2" font-family="Helvetica,sans-Serif" font-size="11.00">[table]</text>
<polygon fill="none" stroke="black" points="209,-213 209,-231 366,-231 366,-213 209,-213"/>
<text text-anchor="start" x="212" y="-219.2" font-family="Helvetica,sans-Serif" font-size="11.00">...</text>
<polygon fill="#ffffff" stroke="none" points="209,-195 209,-213 268,-213 268,-195 209,-195"/>
<polygon fill="none" stroke="black" points="209,-195 209,-213 268,-213 268,-195 209,-195"/>
<text text-anchor="start" x="212" y="-201.2" font-family="Helvetica,sans-Serif" font-size="11.00">&lt; 2</text>
<polygon fill="#ffffff" stroke="none" points="268,-195 268,-213 335,-213 335,-195 268,-195"/>
<polygon fill="none" stroke="black" points="268,-195 268,-213 335,-213 335,-195 268,-195"/>
<text text-anchor="start" x="289" y="-201.2" font-family="Helvetica,sans-Serif" font-size="11.00">18 rows</text>
<polygon fill="#ffffff" stroke="none" points="335,-195 335,-213 366,-213 366,-195 335,-195"/>
<polygon fill="none" stroke="black" points="335,-195 335,-213 366,-213 366,-195 335,-195"/>
<text text-anchor="start" x="356" y="-201.2" font-family="Helvetica,sans-Serif" font-size="11.00"> &#160;</text>
</a>
</g>
</g>
<!-- galaxy_user_groups&#45;&gt;galaxy_user -->
<g id="edge3" class="edge"><title>galaxy_user_groups:elipses:w&#45;&gt;galaxy_user:id:e</title>
<path fill="none" stroke="black" d="M193.485,-222C167.626,-222 156.247,-222 124.5,-222"/>
<polygon fill="black" stroke="black" points="200,-222 208,-225.6 204,-222 208,-222 208,-222 208,-222 204,-222 208,-218.4 200,-222 200,-222"/>
<ellipse fill="none" stroke="black" cx="196.8" cy="-222" rx="3.2" ry="3.2"/>
</g>
<!-- galaxy_user_user_permissions -->
<g id="node5" class="node"><title>galaxy_user_user_permissions</title>
<g id="a_node5"><a xlink:href="../../tables/galaxy_user_user_permissions.html" xlink:title="galaxy_user_user_permissions" target="_top">
<polygon fill="#ffffff" stroke="none" points="178.5,-116 178.5,-174 395.5,-174 395.5,-116 178.5,-116"/>
<polygon fill="#f5f5f5" stroke="none" points="179,-152 179,-174 396,-174 396,-152 179,-152"/>
<polygon fill="none" stroke="black" points="179,-152 179,-174 396,-174 396,-152 179,-152"/>
<text text-anchor="start" x="184" y="-161.2" font-family="Helvetica,sans-Serif" font-weight="bold" font-size="11.00">galaxy_user_user_permissions</text>
<text text-anchor="start" x="357" y="-160.2" font-family="Helvetica,sans-Serif" font-size="11.00">[table]</text>
<polygon fill="none" stroke="black" points="179,-134 179,-152 396,-152 396,-134 179,-134"/>
<text text-anchor="start" x="182" y="-140.2" font-family="Helvetica,sans-Serif" font-size="11.00">...</text>
<polygon fill="#ffffff" stroke="none" points="179,-116 179,-134 271,-134 271,-116 179,-116"/>
<polygon fill="none" stroke="black" points="179,-116 179,-134 271,-134 271,-116 179,-116"/>
<text text-anchor="start" x="182" y="-122.2" font-family="Helvetica,sans-Serif" font-size="11.00">&lt; 2</text>
<polygon fill="#ffffff" stroke="none" points="271,-116 271,-134 348,-134 348,-116 271,-116"/>
<polygon fill="none" stroke="black" points="271,-116 271,-134 348,-134 348,-116 271,-116"/>
<text text-anchor="start" x="309" y="-122.2" font-family="Helvetica,sans-Serif" font-size="11.00">0 rows</text>
<polygon fill="#ffffff" stroke="none" points="348,-116 348,-134 396,-134 396,-116 348,-116"/>
<polygon fill="none" stroke="black" points="348,-116 348,-134 396,-134 396,-116 348,-116"/>
<text text-anchor="start" x="386" y="-122.2" font-family="Helvetica,sans-Serif" font-size="11.00"> &#160;</text>
</a>
</g>
</g>
<!-- galaxy_user_user_permissions&#45;&gt;galaxy_user -->
<g id="edge4" class="edge"><title>galaxy_user_user_permissions:elipses:w&#45;&gt;galaxy_user:id:e</title>
<path fill="none" stroke="black" d="M164.074,-147.247C142.943,-163.656 160.942,-222 124.5,-222"/>
<polygon fill="black" stroke="black" points="170.348,-145.334 179.05,-146.443 174.174,-144.167 178,-143 178,-143 178,-143 174.174,-144.167 176.95,-139.557 170.348,-145.334 170.348,-145.334"/>
<ellipse fill="none" stroke="black" cx="167.287" cy="-146.267" rx="3.20001" ry="3.20001"/>
</g>
<!-- guardian_userobjectpermission -->
<g id="node6" class="node"><title>guardian_userobjectpermission</title>
<g id="a_node6"><a xlink:href="../../tables/guardian_userobjectpermission.html" xlink:title="guardian_userobjectpermission" target="_top">
<polygon fill="#ffffff" stroke="none" points="173,-37 173,-95 401,-95 401,-37 173,-37"/>
<polygon fill="#f5f5f5" stroke="none" points="173,-73 173,-95 401,-95 401,-73 173,-73"/>
<polygon fill="none" stroke="black" points="173,-73 173,-95 401,-95 401,-73 173,-73"/>
<text text-anchor="start" x="178" y="-82.2" font-family="Helvetica,sans-Serif" font-weight="bold" font-size="11.00">guardian_userobjectpermission</text>
<text text-anchor="start" x="362" y="-81.2" font-family="Helvetica,sans-Serif" font-size="11.00">[table]</text>
<polygon fill="none" stroke="black" points="173,-55 173,-73 401,-73 401,-55 173,-55"/>
<text text-anchor="start" x="176" y="-61.2" font-family="Helvetica,sans-Serif" font-size="11.00">...</text>
<polygon fill="#ffffff" stroke="none" points="173,-37 173,-55 271,-55 271,-37 173,-37"/>
<polygon fill="none" stroke="black" points="173,-37 173,-55 271,-55 271,-37 173,-37"/>
<text text-anchor="start" x="176" y="-43.2" font-family="Helvetica,sans-Serif" font-size="11.00">&lt; 3</text>
<polygon fill="#ffffff" stroke="none" points="271,-37 271,-55 350,-55 350,-37 271,-37"/>
<polygon fill="none" stroke="black" points="271,-37 271,-55 350,-55 350,-37 271,-37"/>
<text text-anchor="start" x="311" y="-43.2" font-family="Helvetica,sans-Serif" font-size="11.00">0 rows</text>
<polygon fill="#ffffff" stroke="none" points="350,-37 350,-55 401,-55 401,-37 350,-37"/>
<polygon fill="none" stroke="black" points="350,-37 350,-55 401,-55 401,-37 350,-37"/>
<text text-anchor="start" x="391" y="-43.2" font-family="Helvetica,sans-Serif" font-size="11.00"> &#160;</text>
</a>
</g>
</g>
<!-- guardian_userobjectpermission&#45;&gt;galaxy_user -->
<g id="edge5" class="edge"><title>guardian_userobjectpermission:elipses:w&#45;&gt;galaxy_user:id:e</title>
<path fill="none" stroke="black" d="M157.808,-66.7424C113.113,-87.7231 192.098,-222 124.5,-222"/>
<polygon fill="black" stroke="black" points="164.145,-65.5178 172.683,-67.5346 168.073,-64.7589 172,-64 172,-64 172,-64 168.073,-64.7589 171.317,-60.4654 164.145,-65.5178 164.145,-65.5178"/>
<ellipse fill="none" stroke="black" cx="161.003" cy="-66.1249" rx="3.2" ry="3.2"/>
</g>
</g>
</svg>
