<?xml version="1.0" encoding="UTF-8" standalone="no"?>
<!DOCTYPE svg PUBLIC "-//W3C//DTD SVG 1.1//EN"
 "http://www.w3.org/Graphics/SVG/1.1/DTD/svg11.dtd">
<!-- Generated by graphviz version 2.38.0 (20140413.2041)
 -->
<!-- Title: twoDegreesRelationshipsDiagram Pages: 1 -->
<svg width="691pt" height="453pt"
 viewBox="0.00 0.00 691.00 453.00" xmlns="http://www.w3.org/2000/svg" xmlns:xlink="http://www.w3.org/1999/xlink">
<g id="graph0" class="graph" transform="scale(1 1) rotate(0) translate(4 449)">
<title>twoDegreesRelationshipsDiagram</title>
<polygon fill="#ffffff" stroke="none" points="-4,4 -4,-449 687,-449 687,4 -4,4"/>
<text text-anchor="middle" x="74.5" y="-7.2" font-family="Helvetica,sans-Serif" font-size="11.00">Generated by SchemaSpy</text>
<!-- auth_group_permissions -->
<g id="node1" class="node"><title>auth_group_permissions</title>
<g id="a_node1"><a xlink:href="../../tables/auth_group_permissions.html" xlink:title="auth_group_permissions" target="_top">
<polygon fill="#ffffff" stroke="none" points="464,-37 464,-143 650,-143 650,-37 464,-37"/>
<polygon fill="#f5f5f5" stroke="none" points="464,-121 464,-143 650,-143 650,-121 464,-121"/>
<polygon fill="none" stroke="black" points="464,-121 464,-143 650,-143 650,-121 464,-121"/>
<text text-anchor="start" x="469" y="-130.2" font-family="Helvetica,sans-Serif" font-weight="bold" font-size="11.00">auth_group_permissions</text>
<text text-anchor="start" x="611" y="-129.2" font-family="Helvetica,sans-Serif" font-size="11.00">[table]</text>
<polygon fill="none" stroke="black" points="464,-99 464,-121 650,-121 650,-99 464,-99"/>
<image xlink:href="../../images/primaryKeys.png" width="11px" height="12px" preserveAspectRatio="xMinYMin meet" x="469" y="-116"/>
<text text-anchor="start" x="494" y="-107.2" font-family="Helvetica,sans-Serif" font-size="11.00">id</text>
<polygon fill="#ffffff" stroke="none" points="464,-77 464,-99 650,-99 650,-77 464,-77"/>
<polygon fill="none" stroke="black" points="464,-77 464,-99 650,-99 650,-77 464,-77"/>
<image xlink:href="../../images/foreignKeys.png" width="11px" height="12px" preserveAspectRatio="xMinYMin meet" x="469" y="-94"/>
<text text-anchor="start" x="494" y="-85.2" font-family="Helvetica,sans-Serif" font-size="11.00">group_id</text>
<polygon fill="#ffffff" stroke="none" points="464,-55 464,-77 650,-77 650,-55 464,-55"/>
<polygon fill="none" stroke="black" points="464,-55 464,-77 650,-77 650,-55 464,-55"/>
<image xlink:href="../../images/foreignKeys.png" width="11px" height="12px" preserveAspectRatio="xMinYMin meet" x="469" y="-72"/>
<text text-anchor="start" x="494" y="-63.2" font-family="Helvetica,sans-Serif" font-size="11.00">permission_id</text>
<polygon fill="#ffffff" stroke="none" points="464,-37 464,-55 541,-55 541,-37 464,-37"/>
<polygon fill="none" stroke="black" points="464,-37 464,-55 541,-55 541,-37 464,-37"/>
<text text-anchor="start" x="467" y="-43.2" font-family="Helvetica,sans-Serif" font-size="11.00">&lt; 2</text>
<polygon fill="#ffffff" stroke="none" points="541,-37 541,-55 610,-55 610,-37 541,-37"/>
<polygon fill="none" stroke="black" points="541,-37 541,-55 610,-55 610,-37 541,-37"/>
<text text-anchor="start" x="571" y="-43.2" font-family="Helvetica,sans-Serif" font-size="11.00">0 rows</text>
<polygon fill="#ffffff" stroke="none" points="610,-37 610,-55 650,-55 650,-37 610,-37"/>
<polygon fill="none" stroke="black" points="610,-37 610,-55 650,-55 650,-37 610,-37"/>
<text text-anchor="start" x="640" y="-43.2" font-family="Helvetica,sans-Serif" font-size="11.00"> &#160;</text>
</a>
</g>
</g>
<!-- auth_group -->
<g id="node2" class="node"><title>auth_group</title>
<g id="a_node2"><a xlink:href="../../tables/auth_group.html" xlink:title="auth_group" target="_top">
<polygon fill="#ffffff" stroke="none" points="224,-143 224,-231 390,-231 390,-143 224,-143"/>
<polygon fill="#f5f5f5" stroke="none" points="226,-207 226,-229 388,-229 388,-207 226,-207"/>
<polygon fill="none" stroke="black" points="226,-207 226,-229 388,-229 388,-207 226,-207"/>
<text text-anchor="start" x="231" y="-216.2" font-family="Helvetica,sans-Serif" font-weight="bold" font-size="11.00">auth_group</text>
<text text-anchor="start" x="349" y="-215.2" font-family="Helvetica,sans-Serif" font-size="11.00">[table]</text>
<polygon fill="none" stroke="black" points="226,-185 226,-207 315,-207 315,-185 226,-185"/>
<image xlink:href="../../images/primaryKeys.png" width="11px" height="12px" preserveAspectRatio="xMinYMin meet" x="231" y="-202"/>
<text text-anchor="start" x="246" y="-193.2" font-family="Helvetica,sans-Serif" font-size="11.00">id</text>
<polygon fill="none" stroke="black" points="315,-185 315,-207 388,-207 388,-185 315,-185"/>
<text text-anchor="start" x="318" y="-193.2" font-family="Helvetica,sans-Serif" font-size="11.00">serial[10]</text>
<polygon fill="#ffffff" stroke="none" points="226,-163 226,-185 315,-185 315,-163 226,-163"/>
<polygon fill="none" stroke="black" points="226,-163 226,-185 315,-185 315,-163 226,-163"/>
<text text-anchor="start" x="246" y="-171.2" font-family="Helvetica,sans-Serif" font-size="11.00">name</text>
<polygon fill="none" stroke="black" points="315,-163 315,-185 388,-185 388,-163 315,-163"/>
<text text-anchor="start" x="318" y="-171.2" font-family="Helvetica,sans-Serif" font-size="11.00">varchar[150]</text>
<polygon fill="#ffffff" stroke="none" points="226,-145 226,-163 257,-163 257,-145 226,-145"/>
<polygon fill="none" stroke="black" points="226,-145 226,-163 257,-163 257,-145 226,-145"/>
<text text-anchor="start" x="229" y="-151.2" font-family="Helvetica,sans-Serif" font-size="11.00">&lt; 0</text>
<polygon fill="#ffffff" stroke="none" points="257,-145 257,-163 315,-163 315,-145 257,-145"/>
<polygon fill="none" stroke="black" points="257,-145 257,-163 315,-163 315,-145 257,-145"/>
<text text-anchor="start" x="269" y="-151.2" font-family="Helvetica,sans-Serif" font-size="11.00">15 rows</text>
<polygon fill="#ffffff" stroke="none" points="315,-145 315,-163 388,-163 388,-145 315,-145"/>
<polygon fill="none" stroke="black" points="315,-145 315,-163 388,-163 388,-145 315,-145"/>
<text text-anchor="start" x="368" y="-151.2" font-family="Helvetica,sans-Serif" font-size="11.00">3 &gt;</text>
<polygon fill="none" stroke="black" stroke-width="2" points="225,-144 225,-230 389,-230 389,-144 225,-144"/>
</a>
</g>
</g>
<!-- auth_group_permissions&#45;&gt;auth_group -->
<g id="edge1" class="edge"><title>auth_group_permissions:group_id:w&#45;&gt;auth_group:id.type:e</title>
<path fill="none" stroke="black" d="M448.643,-90.8887C412.13,-108.064 441.504,-196 389,-196"/>
<polygon fill="black" stroke="black" points="455.157,-89.5781 463.71,-91.5293 459.079,-88.789 463,-88 463,-88 463,-88 459.079,-88.789 462.29,-84.4707 455.157,-89.5781 455.157,-89.5781"/>
<ellipse fill="none" stroke="black" cx="452.02" cy="-90.2093" rx="3.2" ry="3.2"/>
</g>
<!-- auth_permission -->
<g id="node3" class="node"><title>auth_permission</title>
<g id="a_node3"><a xlink:href="../../tables/auth_permission.html" xlink:title="auth_permission" target="_top">
<polygon fill="#ffffff" stroke="none" points="235.5,-64 235.5,-122 378.5,-122 378.5,-64 235.5,-64"/>
<polygon fill="#f5f5f5" stroke="none" points="236,-100 236,-122 379,-122 379,-100 236,-100"/>
<polygon fill="none" stroke="black" points="236,-100 236,-122 379,-122 379,-100 236,-100"/>
<text text-anchor="start" x="241" y="-109.2" font-family="Helvetica,sans-Serif" font-weight="bold" font-size="11.00">auth_permission</text>
<text text-anchor="start" x="340" y="-108.2" font-family="Helvetica,sans-Serif" font-size="11.00">[table]</text>
<polygon fill="none" stroke="black" points="236,-82 236,-100 379,-100 379,-82 236,-82"/>
<text text-anchor="start" x="239" y="-88.2" font-family="Helvetica,sans-Serif" font-size="11.00">...</text>
<polygon fill="#ffffff" stroke="none" points="236,-64 236,-82 280,-82 280,-64 236,-64"/>
<polygon fill="none" stroke="black" points="236,-64 236,-82 280,-82 280,-64 236,-64"/>
<text text-anchor="start" x="239" y="-70.2" font-family="Helvetica,sans-Serif" font-size="11.00">&lt; 1</text>
<polygon fill="#ffffff" stroke="none" points="280,-64 280,-82 345,-82 345,-64 280,-64"/>
<polygon fill="none" stroke="black" points="280,-64 280,-82 345,-82 345,-64 280,-64"/>
<text text-anchor="start" x="293" y="-70.2" font-family="Helvetica,sans-Serif" font-size="11.00">322 rows</text>
<polygon fill="#ffffff" stroke="none" points="345,-64 345,-82 379,-82 379,-64 345,-64"/>
<polygon fill="none" stroke="black" points="345,-64 345,-82 379,-82 379,-64 345,-64"/>
<text text-anchor="start" x="359" y="-70.2" font-family="Helvetica,sans-Serif" font-size="11.00">4 &gt;</text>
</a>
</g>
</g>
<!-- auth_group_permissions&#45;&gt;auth_permission -->
<g id="edge2" class="edge"><title>auth_group_permissions:permission_id:w&#45;&gt;auth_permission:elipses:e</title>
<path fill="none" stroke="black" d="M448.498,-67.3441C422.157,-72.5369 413.108,-91 380,-91"/>
<polygon fill="black" stroke="black" points="455.034,-66.7384 463.332,-69.5846 459.017,-66.3692 463,-66 463,-66 463,-66 459.017,-66.3692 462.668,-62.4154 455.034,-66.7384 455.034,-66.7384"/>
<ellipse fill="none" stroke="black" cx="451.848" cy="-67.0337" rx="3.2" ry="3.2"/>
</g>
<!-- django_content_type -->
<g id="node4" class="node"><title>django_content_type</title>
<g id="a_node4"><a xlink:href="../../tables/django_content_type.html" xlink:title="django_content_type" target="_top">
<polygon fill="#ffffff" stroke="none" points="8,-146 8,-204 175,-204 175,-146 8,-146"/>
<polygon fill="#f5f5f5" stroke="none" points="8.5,-182 8.5,-204 175.5,-204 175.5,-182 8.5,-182"/>
<polygon fill="none" stroke="black" points="8.5,-182 8.5,-204 175.5,-204 175.5,-182 8.5,-182"/>
<text text-anchor="start" x="13.5" y="-191.2" font-family="Helvetica,sans-Serif" font-weight="bold" font-size="11.00">django_content_type</text>
<text text-anchor="start" x="136.5" y="-190.2" font-family="Helvetica,sans-Serif" font-size="11.00">[table]</text>
<polygon fill="none" stroke="black" points="8.5,-164 8.5,-182 175.5,-182 175.5,-164 8.5,-164"/>
<text text-anchor="start" x="11.5" y="-170.2" font-family="Helvetica,sans-Serif" font-size="11.00">...</text>
<polygon fill="#ffffff" stroke="none" points="8.5,-146 8.5,-164 62.5,-164 62.5,-146 8.5,-146"/>
<polygon fill="none" stroke="black" points="8.5,-146 8.5,-164 62.5,-164 62.5,-146 8.5,-146"/>
<text text-anchor="start" x="11.5" y="-152.2" font-family="Helvetica,sans-Serif" font-size="11.00"> &#160;</text>
<polygon fill="#ffffff" stroke="none" points="62.5,-146 62.5,-164 131.5,-164 131.5,-146 62.5,-146"/>
<polygon fill="none" stroke="black" points="62.5,-146 62.5,-164 131.5,-164 131.5,-146 62.5,-146"/>
<text text-anchor="start" x="85.5" y="-152.2" font-family="Helvetica,sans-Serif" font-size="11.00">79 rows</text>
<polygon fill="#ffffff" stroke="none" points="131.5,-146 131.5,-164 175.5,-164 175.5,-146 131.5,-146"/>
<polygon fill="none" stroke="black" points="131.5,-146 131.5,-164 175.5,-164 175.5,-146 131.5,-146"/>
<text text-anchor="start" x="155.5" y="-152.2" font-family="Helvetica,sans-Serif" font-size="11.00">6 &gt;</text>
</a>
</g>
</g>
<!-- auth_permission&#45;&gt;django_content_type -->
<g id="edge3" class="edge"><title>auth_permission:elipses:w&#45;&gt;django_content_type:elipses:e</title>
<path fill="none" stroke="black" d="M220.819,-94.955C197.139,-111.335 215.322,-173 176.5,-173"/>
<polygon fill="black" stroke="black" points="227.294,-93.1492 235.967,-94.4677 231.147,-92.0746 235,-91 235,-91 235,-91 231.147,-92.0746 234.033,-87.5323 227.294,-93.1492 227.294,-93.1492"/>
<ellipse fill="none" stroke="black" cx="224.212" cy="-94.0088" rx="3.20001" ry="3.20001"/>
</g>
<!-- galaxy_user_groups -->
<g id="node5" class="node"><title>galaxy_user_groups</title>
<g id="a_node5"><a xlink:href="../../tables/galaxy_user_groups.html" xlink:title="galaxy_user_groups" target="_top">
<polygon fill="#ffffff" stroke="none" points="478.5,-335 478.5,-441 635.5,-441 635.5,-335 478.5,-335"/>
<polygon fill="#f5f5f5" stroke="none" points="479,-419 479,-441 636,-441 636,-419 479,-419"/>
<polygon fill="none" stroke="black" points="479,-419 479,-441 636,-441 636,-419 479,-419"/>
<text text-anchor="start" x="484" y="-428.2" font-family="Helvetica,sans-Serif" font-weight="bold" font-size="11.00">galaxy_user_groups</text>
<text text-anchor="start" x="597" y="-427.2" font-family="Helvetica,sans-Serif" font-size="11.00">[table]</text>
<polygon fill="none" stroke="black" points="479,-397 479,-419 636,-419 636,-397 479,-397"/>
<image xlink:href="../../images/primaryKeys.png" width="11px" height="12px" preserveAspectRatio="xMinYMin meet" x="484" y="-414"/>
<text text-anchor="start" x="509" y="-405.2" font-family="Helvetica,sans-Serif" font-size="11.00">id</text>
<polygon fill="#ffffff" stroke="none" points="479,-375 479,-397 636,-397 636,-375 479,-375"/>
<polygon fill="none" stroke="black" points="479,-375 479,-397 636,-397 636,-375 479,-375"/>
<image xlink:href="../../images/foreignKeys.png" width="11px" height="12px" preserveAspectRatio="xMinYMin meet" x="484" y="-392"/>
<text text-anchor="start" x="509" y="-383.2" font-family="Helvetica,sans-Serif" font-size="11.00">user_id</text>
<polygon fill="#ffffff" stroke="none" points="479,-353 479,-375 636,-375 636,-353 479,-353"/>
<polygon fill="none" stroke="black" points="479,-353 479,-375 636,-375 636,-353 479,-353"/>
<image xlink:href="../../images/foreignKeys.png" width="11px" height="12px" preserveAspectRatio="xMinYMin meet" x="484" y="-370"/>
<text text-anchor="start" x="509" y="-361.2" font-family="Helvetica,sans-Serif" font-size="11.00">group_id</text>
<polygon fill="#ffffff" stroke="none" points="479,-335 479,-353 538,-353 538,-335 479,-335"/>
<polygon fill="none" stroke="black" points="479,-335 479,-353 538,-353 538,-335 479,-335"/>
<text text-anchor="start" x="482" y="-341.2" font-family="Helvetica,sans-Serif" font-size="11.00">&lt; 2</text>
<polygon fill="#ffffff" stroke="none" points="538,-335 538,-353 605,-353 605,-335 538,-335"/>
<polygon fill="none" stroke="black" points="538,-335 538,-353 605,-353 605,-335 538,-335"/>
<text text-anchor="start" x="559" y="-341.2" font-family="Helvetica,sans-Serif" font-size="11.00">18 rows</text>
<polygon fill="#ffffff" stroke="none" points="605,-335 605,-353 636,-353 636,-335 605,-335"/>
<polygon fill="none" stroke="black" points="605,-335 605,-353 636,-353 636,-335 605,-335"/>
<text text-anchor="start" x="626" y="-341.2" font-family="Helvetica,sans-Serif" font-size="11.00"> &#160;</text>
</a>
</g>
</g>
<!-- galaxy_user_groups&#45;&gt;auth_group -->
<g id="edge4" class="edge"><title>galaxy_user_groups:group_id:w&#45;&gt;auth_group:id.type:e</title>
<path fill="none" stroke="black" d="M463.52,-361.892C448.438,-356.758 443.031,-342.72 431,-325 397.131,-275.116 449.296,-196 389,-196"/>
<polygon fill="black" stroke="black" points="470.083,-362.847 477.481,-367.562 474.042,-363.424 478,-364 478,-364 478,-364 474.042,-363.424 478.519,-360.438 470.083,-362.847 470.083,-362.847"/>
<ellipse fill="none" stroke="black" cx="466.917" cy="-362.386" rx="3.2" ry="3.2"/>
</g>
<!-- galaxy_user -->
<g id="node6" class="node"><title>galaxy_user</title>
<g id="a_node6"><a xlink:href="../../tables/galaxy_user.html" xlink:title="galaxy_user" target="_top">
<polygon fill="#ffffff" stroke="none" points="249.5,-359 249.5,-417 364.5,-417 364.5,-359 249.5,-359"/>
<polygon fill="#f5f5f5" stroke="none" points="250,-395 250,-417 365,-417 365,-395 250,-395"/>
<polygon fill="none" stroke="black" points="250,-395 250,-417 365,-417 365,-395 250,-395"/>
<text text-anchor="start" x="255" y="-404.2" font-family="Helvetica,sans-Serif" font-weight="bold" font-size="11.00">galaxy_user</text>
<text text-anchor="start" x="326" y="-403.2" font-family="Helvetica,sans-Serif" font-size="11.00">[table]</text>
<polygon fill="none" stroke="black" points="250,-377 250,-395 365,-395 365,-377 250,-377"/>
<text text-anchor="start" x="253" y="-383.2" font-family="Helvetica,sans-Serif" font-size="11.00">...</text>
<polygon fill="#ffffff" stroke="none" points="250,-359 250,-377 278,-377 278,-359 250,-359"/>
<polygon fill="none" stroke="black" points="250,-359 250,-377 278,-377 278,-359 250,-359"/>
<text text-anchor="start" x="253" y="-365.2" font-family="Helvetica,sans-Serif" font-size="11.00"> &#160;</text>
<polygon fill="#ffffff" stroke="none" points="278,-359 278,-377 334,-377 334,-359 278,-359"/>
<polygon fill="none" stroke="black" points="278,-359 278,-377 334,-377 334,-359 278,-359"/>
<text text-anchor="start" x="288" y="-365.2" font-family="Helvetica,sans-Serif" font-size="11.00">17 rows</text>
<polygon fill="#ffffff" stroke="none" points="334,-359 334,-377 365,-377 365,-359 334,-359"/>
<polygon fill="none" stroke="black" points="334,-359 334,-377 365,-377 365,-359 334,-359"/>
<text text-anchor="start" x="345" y="-365.2" font-family="Helvetica,sans-Serif" font-size="11.00">5 &gt;</text>
</a>
</g>
</g>
<!-- galaxy_user_groups&#45;&gt;galaxy_user -->
<g id="edge5" class="edge"><title>galaxy_user_groups:user_id:w&#45;&gt;galaxy_user:elipses:e</title>
<path fill="none" stroke="black" d="M463.408,-386C425.182,-386 410.528,-386 366,-386"/>
<polygon fill="black" stroke="black" points="470,-386 478,-389.6 474,-386 478,-386 478,-386 478,-386 474,-386 478,-382.4 470,-386 470,-386"/>
<ellipse fill="none" stroke="black" cx="466.8" cy="-386" rx="3.2" ry="3.2"/>
</g>
<!-- guardian_groupobjectpermission -->
<g id="node7" class="node"><title>guardian_groupobjectpermission</title>
<g id="a_node7"><a xlink:href="../../tables/guardian_groupobjectpermission.html" xlink:title="guardian_groupobjectpermission" target="_top">
<polygon fill="#ffffff" stroke="none" points="439,-164 439,-314 675,-314 675,-164 439,-164"/>
<polygon fill="#f5f5f5" stroke="none" points="439,-292 439,-314 675,-314 675,-292 439,-292"/>
<polygon fill="none" stroke="black" points="439,-292 439,-314 675,-314 675,-292 439,-292"/>
<text text-anchor="start" x="444" y="-301.2" font-family="Helvetica,sans-Serif" font-weight="bold" font-size="11.00">guardian_groupobjectpermission</text>
<text text-anchor="start" x="636" y="-300.2" font-family="Helvetica,sans-Serif" font-size="11.00">[table]</text>
<polygon fill="none" stroke="black" points="439,-270 439,-292 675,-292 675,-270 439,-270"/>
<image xlink:href="../../images/primaryKeys.png" width="11px" height="12px" preserveAspectRatio="xMinYMin meet" x="444" y="-287"/>
<text text-anchor="start" x="468" y="-278.2" font-family="Helvetica,sans-Serif" font-size="11.00">id</text>
<polygon fill="#ffffff" stroke="none" points="439,-248 439,-270 675,-270 675,-248 439,-248"/>
<polygon fill="none" stroke="black" points="439,-248 439,-270 675,-270 675,-248 439,-248"/>
<text text-anchor="start" x="468" y="-256.2" font-family="Helvetica,sans-Serif" font-size="11.00">object_pk</text>
<polygon fill="#ffffff" stroke="none" points="439,-226 439,-248 675,-248 675,-226 439,-226"/>
<polygon fill="none" stroke="black" points="439,-226 439,-248 675,-248 675,-226 439,-226"/>
<image xlink:href="../../images/foreignKeys.png" width="11px" height="12px" preserveAspectRatio="xMinYMin meet" x="444" y="-243"/>
<text text-anchor="start" x="468" y="-234.2" font-family="Helvetica,sans-Serif" font-size="11.00">content_type_id</text>
<polygon fill="#ffffff" stroke="none" points="439,-204 439,-226 675,-226 675,-204 439,-204"/>
<polygon fill="none" stroke="black" points="439,-204 439,-226 675,-226 675,-204 439,-204"/>
<image xlink:href="../../images/foreignKeys.png" width="11px" height="12px" preserveAspectRatio="xMinYMin meet" x="444" y="-221"/>
<text text-anchor="start" x="468" y="-212.2" font-family="Helvetica,sans-Serif" font-size="11.00">group_id</text>
<polygon fill="#ffffff" stroke="none" points="439,-182 439,-204 675,-204 675,-182 439,-182"/>
<polygon fill="none" stroke="black" points="439,-182 439,-204 675,-204 675,-182 439,-182"/>
<image xlink:href="../../images/foreignKeys.png" width="11px" height="12px" preserveAspectRatio="xMinYMin meet" x="444" y="-199"/>
<text text-anchor="start" x="468" y="-190.2" font-family="Helvetica,sans-Serif" font-size="11.00">permission_id</text>
<polygon fill="#ffffff" stroke="none" points="439,-164 439,-182 534,-182 534,-164 439,-164"/>
<polygon fill="none" stroke="black" points="439,-164 439,-182 534,-182 534,-164 439,-164"/>
<text text-anchor="start" x="442" y="-170.2" font-family="Helvetica,sans-Serif" font-size="11.00">&lt; 3</text>
<polygon fill="#ffffff" stroke="none" points="534,-164 534,-182 625,-182 625,-164 534,-164"/>
<polygon fill="none" stroke="black" points="534,-164 534,-182 625,-182 625,-164 534,-164"/>
<text text-anchor="start" x="573" y="-170.2" font-family="Helvetica,sans-Serif" font-size="11.00">168 rows</text>
<polygon fill="#ffffff" stroke="none" points="625,-164 625,-182 675,-182 675,-164 625,-164"/>
<polygon fill="none" stroke="black" points="625,-164 625,-182 675,-182 675,-164 625,-164"/>
<text text-anchor="start" x="665" y="-170.2" font-family="Helvetica,sans-Serif" font-size="11.00"> &#160;</text>
</a>
</g>
</g>
<!-- guardian_groupobjectpermission&#45;&gt;auth_group -->
<g id="edge7" class="edge"><title>guardian_groupobjectpermission:group_id:w&#45;&gt;auth_group:id.type:e</title>
<path fill="none" stroke="black" d="M423.774,-212.031C412.183,-206.688 406.518,-196 389,-196"/>
<polygon fill="black" stroke="black" points="430.169,-213.366 437.265,-218.524 434.084,-214.183 438,-215 438,-215 438,-215 434.084,-214.183 438.735,-211.476 430.169,-213.366 430.169,-213.366"/>
<ellipse fill="none" stroke="black" cx="427.036" cy="-212.712" rx="3.2" ry="3.2"/>
</g>
<!-- guardian_groupobjectpermission&#45;&gt;auth_permission -->
<g id="edge8" class="edge"><title>guardian_groupobjectpermission:permission_id:w&#45;&gt;auth_permission:elipses:e</title>
<path fill="none" stroke="black" d="M423.781,-189.37C395.077,-171.2 426.242,-91 380,-91"/>
<polygon fill="black" stroke="black" points="430.249,-191.021 437.109,-196.488 434.124,-192.01 438,-193 438,-193 438,-193 434.124,-192.01 438.891,-189.512 430.249,-191.021 430.249,-191.021"/>
<ellipse fill="none" stroke="black" cx="427.148" cy="-190.229" rx="3.2" ry="3.2"/>
</g>
<!-- guardian_groupobjectpermission&#45;&gt;django_content_type -->
<g id="edge6" class="edge"><title>guardian_groupobjectpermission:content_type_id:w&#45;&gt;django_content_type:elipses:e</title>
<path fill="none" stroke="black" d="M423.548,-238.063C415.717,-239.298 409.874,-241.261 398,-242 317.267,-247.026 285.977,-282.573 216,-242 185.431,-224.276 211.836,-173 176.5,-173"/>
<polygon fill="black" stroke="black" points="430.022,-237.587 438.264,-240.59 434.011,-237.294 438,-237 438,-237 438,-237 434.011,-237.294 437.736,-233.41 430.022,-237.587 430.022,-237.587"/>
<ellipse fill="none" stroke="black" cx="426.83" cy="-237.822" rx="3.2" ry="3.2"/>
</g>
</g>
</svg>
