<?xml version="1.0" encoding="UTF-8" standalone="no"?>
<!DOCTYPE svg PUBLIC "-//W3C//DTD SVG 1.1//EN"
 "http://www.w3.org/Graphics/SVG/1.1/DTD/svg11.dtd">
<!-- Generated by graphviz version 2.38.0 (20140413.2041)
 -->
<!-- Title: oneDegreeRelationshipsDiagram Pages: 1 -->
<svg width="688pt" height="231pt"
 viewBox="0.00 0.00 688.00 231.00" xmlns="http://www.w3.org/2000/svg" xmlns:xlink="http://www.w3.org/1999/xlink">
<g id="graph0" class="graph" transform="scale(1 1) rotate(0) translate(4 227)">
<title>oneDegreeRelationshipsDiagram</title>
<polygon fill="#ffffff" stroke="none" points="-4,4 -4,-227 684,-227 684,4 -4,4"/>
<text text-anchor="middle" x="74.5" y="-7.2" font-family="Helvetica,sans-Serif" font-size="11.00">Generated by SchemaSpy</text>
<!-- container_blobmanifest -->
<g id="node1" class="node"><title>container_blobmanifest</title>
<g id="a_node1"><a xlink:href="../../tables/container_blobmanifest.html" xlink:title="container_blobmanifest" target="_top">
<polygon fill="#ffffff" stroke="none" points="400,-86 400,-196 672,-196 672,-86 400,-86"/>
<polygon fill="#f5f5f5" stroke="none" points="402,-172 402,-194 670,-194 670,-172 402,-172"/>
<polygon fill="none" stroke="black" points="402,-172 402,-194 670,-194 670,-172 402,-172"/>
<text text-anchor="start" x="407" y="-181.2" font-family="Helvetica,sans-Serif" font-weight="bold" font-size="11.00">container_blobmanifest</text>
<text text-anchor="start" x="631" y="-180.2" font-family="Helvetica,sans-Serif" font-size="11.00">[table]</text>
<polygon fill="none" stroke="black" points="402,-150 402,-172 565,-172 565,-150 402,-150"/>
<image xlink:href="../../images/primaryKeys.png" width="11px" height="12px" preserveAspectRatio="xMinYMin meet" x="407" y="-167"/>
<text text-anchor="start" x="422" y="-158.2" font-family="Helvetica,sans-Serif" font-size="11.00">id</text>
<polygon fill="none" stroke="black" points="565,-150 565,-172 670,-172 670,-150 565,-150"/>
<text text-anchor="start" x="568" y="-158.2" font-family="Helvetica,sans-Serif" font-size="11.00">serial[10]</text>
<polygon fill="#ffffff" stroke="none" points="402,-128 402,-150 565,-150 565,-128 402,-128"/>
<polygon fill="none" stroke="black" points="402,-128 402,-150 565,-150 565,-128 402,-128"/>
<image xlink:href="../../images/foreignKeys.png" width="11px" height="12px" preserveAspectRatio="xMinYMin meet" x="407" y="-145"/>
<text text-anchor="start" x="422" y="-136.2" font-family="Helvetica,sans-Serif" font-size="11.00">manifest_id</text>
<polygon fill="none" stroke="black" points="565,-128 565,-150 670,-150 670,-128 565,-128"/>
<text text-anchor="start" x="568" y="-136.2" font-family="Helvetica,sans-Serif" font-size="11.00">uuid[2147483647]</text>
<polygon fill="#ffffff" stroke="none" points="402,-106 402,-128 565,-128 565,-106 402,-106"/>
<polygon fill="none" stroke="black" points="402,-106 402,-128 565,-128 565,-106 402,-106"/>
<image xlink:href="../../images/foreignKeys.png" width="11px" height="12px" preserveAspectRatio="xMinYMin meet" x="407" y="-123"/>
<text text-anchor="start" x="422" y="-114.2" font-family="Helvetica,sans-Serif" font-size="11.00">manifest_blob_id</text>
<polygon fill="none" stroke="black" points="565,-106 565,-128 670,-128 670,-106 565,-106"/>
<text text-anchor="start" x="568" y="-114.2" font-family="Helvetica,sans-Serif" font-size="11.00">uuid[2147483647]</text>
<polygon fill="#ffffff" stroke="none" points="402,-88 402,-106 474,-106 474,-88 402,-88"/>
<polygon fill="none" stroke="black" points="402,-88 402,-106 474,-106 474,-88 402,-88"/>
<text text-anchor="start" x="405" y="-94.2" font-family="Helvetica,sans-Serif" font-size="11.00">&lt; 2</text>
<polygon fill="#ffffff" stroke="none" points="474,-88 474,-106 565,-106 565,-88 474,-88"/>
<polygon fill="none" stroke="black" points="474,-88 474,-106 565,-106 565,-88 474,-88"/>
<text text-anchor="start" x="526" y="-94.2" font-family="Helvetica,sans-Serif" font-size="11.00">0 rows</text>
<polygon fill="#ffffff" stroke="none" points="565,-88 565,-106 670,-106 670,-88 565,-88"/>
<polygon fill="none" stroke="black" points="565,-88 565,-106 670,-106 670,-88 565,-88"/>
<text text-anchor="start" x="650" y="-94.2" font-family="Helvetica,sans-Serif" font-size="11.00">0 &gt;</text>
<polygon fill="none" stroke="black" stroke-width="2" points="401,-87 401,-195 671,-195 671,-87 401,-87"/>
</a>
</g>
</g>
<!-- container_blob -->
<g id="node2" class="node"><title>container_blob</title>
<g id="a_node2"><a xlink:href="../../tables/container_blob.html" xlink:title="container_blob" target="_top">
<polygon fill="#ffffff" stroke="none" points="8,-37 8,-139 142,-139 142,-37 8,-37"/>
<polygon fill="#f5f5f5" stroke="none" points="8,-117 8,-139 142,-139 142,-117 8,-117"/>
<polygon fill="none" stroke="black" points="8,-117 8,-139 142,-139 142,-117 8,-117"/>
<text text-anchor="start" x="13" y="-126.2" font-family="Helvetica,sans-Serif" font-weight="bold" font-size="11.00">container_blob</text>
<text text-anchor="start" x="103" y="-125.2" font-family="Helvetica,sans-Serif" font-size="11.00">[table]</text>
<polygon fill="none" stroke="black" points="8,-95 8,-117 142,-117 142,-95 8,-95"/>
<image xlink:href="../../images/primaryKeys.png" width="11px" height="12px" preserveAspectRatio="xMinYMin meet" x="13" y="-112"/>
<text text-anchor="start" x="40" y="-103.2" font-family="Helvetica,sans-Serif" font-size="11.00">content_ptr_id</text>
<polygon fill="#ffffff" stroke="none" points="8,-73 8,-95 142,-95 142,-73 8,-73"/>
<polygon fill="none" stroke="black" points="8,-73 8,-95 142,-95 142,-73 8,-73"/>
<text text-anchor="start" x="40" y="-81.2" font-family="Helvetica,sans-Serif" font-size="11.00">digest</text>
<polygon fill="none" stroke="black" points="8,-55 8,-73 142,-73 142,-55 8,-55"/>
<text text-anchor="start" x="11" y="-61.2" font-family="Helvetica,sans-Serif" font-size="11.00">...</text>
<polygon fill="#ffffff" stroke="none" points="8,-37 8,-55 54,-55 54,-37 8,-37"/>
<polygon fill="none" stroke="black" points="8,-37 8,-55 54,-55 54,-37 8,-37"/>
<text text-anchor="start" x="11" y="-43.2" font-family="Helvetica,sans-Serif" font-size="11.00">&lt; 1</text>
<polygon fill="#ffffff" stroke="none" points="54,-37 54,-55 107,-55 107,-37 54,-37"/>
<polygon fill="none" stroke="black" points="54,-37 54,-55 107,-55 107,-37 54,-37"/>
<text text-anchor="start" x="68" y="-43.2" font-family="Helvetica,sans-Serif" font-size="11.00">0 rows</text>
<polygon fill="#ffffff" stroke="none" points="107,-37 107,-55 142,-55 142,-37 107,-37"/>
<polygon fill="none" stroke="black" points="107,-37 107,-55 142,-55 142,-37 107,-37"/>
<text text-anchor="start" x="122" y="-43.2" font-family="Helvetica,sans-Serif" font-size="11.00">2 &gt;</text>
</a>
</g>
</g>
<!-- container_blobmanifest&#45;&gt;container_blob -->
<g id="edge1" class="edge"><title>container_blobmanifest:manifest_blob_id:w&#45;&gt;container_blob:content_ptr_id:e</title>
<path fill="none" stroke="black" d="M386.969,-112.458C377.601,-104.824 375.476,-89.6984 359,-84 285.074,-58.4319 258.763,-64.5398 183,-84 163.349,-89.0476 163.289,-106 143,-106"/>
<polygon fill="black" stroke="black" points="393.389,-114.536 399.891,-120.425 397.194,-115.768 401,-117 401,-117 401,-117 397.194,-115.768 402.109,-113.575 393.389,-114.536 393.389,-114.536"/>
<ellipse fill="none" stroke="black" cx="390.344" cy="-113.551" rx="3.20001" ry="3.20001"/>
</g>
<!-- container_manifest -->
<g id="node3" class="node"><title>container_manifest</title>
<g id="a_node3"><a xlink:href="../../tables/container_manifest.html" xlink:title="container_manifest" target="_top">
<polygon fill="#ffffff" stroke="none" points="191,-95 191,-219 351,-219 351,-95 191,-95"/>
<polygon fill="#f5f5f5" stroke="none" points="191,-197 191,-219 351,-219 351,-197 191,-197"/>
<polygon fill="none" stroke="black" points="191,-197 191,-219 351,-219 351,-197 191,-197"/>
<text text-anchor="start" x="196" y="-206.2" font-family="Helvetica,sans-Serif" font-weight="bold" font-size="11.00">container_manifest</text>
<text text-anchor="start" x="312" y="-205.2" font-family="Helvetica,sans-Serif" font-size="11.00">[table]</text>
<polygon fill="none" stroke="black" points="191,-175 191,-197 351,-197 351,-175 191,-175"/>
<image xlink:href="../../images/primaryKeys.png" width="11px" height="12px" preserveAspectRatio="xMinYMin meet" x="196" y="-192"/>
<text text-anchor="start" x="223" y="-183.2" font-family="Helvetica,sans-Serif" font-size="11.00">content_ptr_id</text>
<polygon fill="#ffffff" stroke="none" points="191,-153 191,-175 351,-175 351,-153 191,-153"/>
<polygon fill="none" stroke="black" points="191,-153 191,-175 351,-175 351,-153 191,-153"/>
<text text-anchor="start" x="223" y="-161.2" font-family="Helvetica,sans-Serif" font-size="11.00">digest</text>
<polygon fill="#ffffff" stroke="none" points="191,-131 191,-153 351,-153 351,-131 191,-131"/>
<polygon fill="none" stroke="black" points="191,-131 191,-153 351,-153 351,-131 191,-131"/>
<image xlink:href="../../images/foreignKeys.png" width="11px" height="12px" preserveAspectRatio="xMinYMin meet" x="196" y="-148"/>
<text text-anchor="start" x="223" y="-139.2" font-family="Helvetica,sans-Serif" font-size="11.00">config_blob_id</text>
<polygon fill="none" stroke="black" points="191,-113 191,-131 351,-131 351,-113 191,-113"/>
<text text-anchor="start" x="194" y="-119.2" font-family="Helvetica,sans-Serif" font-size="11.00">...</text>
<polygon fill="#ffffff" stroke="none" points="191,-95 191,-113 250,-113 250,-95 191,-95"/>
<polygon fill="none" stroke="black" points="191,-95 191,-113 250,-113 250,-95 191,-95"/>
<text text-anchor="start" x="194" y="-101.2" font-family="Helvetica,sans-Serif" font-size="11.00">&lt; 2</text>
<polygon fill="#ffffff" stroke="none" points="250,-95 250,-113 310,-113 310,-95 250,-95"/>
<polygon fill="none" stroke="black" points="250,-95 250,-113 310,-113 310,-95 250,-95"/>
<text text-anchor="start" x="271" y="-101.2" font-family="Helvetica,sans-Serif" font-size="11.00">0 rows</text>
<polygon fill="#ffffff" stroke="none" points="310,-95 310,-113 351,-113 351,-95 310,-95"/>
<polygon fill="none" stroke="black" points="310,-95 310,-113 351,-113 351,-95 310,-95"/>
<text text-anchor="start" x="331" y="-101.2" font-family="Helvetica,sans-Serif" font-size="11.00">4 &gt;</text>
</a>
</g>
</g>
<!-- container_blobmanifest&#45;&gt;container_manifest -->
<g id="edge2" class="edge"><title>container_blobmanifest:manifest_id:w&#45;&gt;container_manifest:content_ptr_id:e</title>
<path fill="none" stroke="black" d="M387.056,-144.03C373.722,-156.155 376.047,-186 352,-186"/>
<polygon fill="black" stroke="black" points="393.475,-141.714 402.222,-142.386 397.237,-140.357 401,-139 401,-139 401,-139 397.237,-140.357 399.778,-135.614 393.475,-141.714 393.475,-141.714"/>
<ellipse fill="none" stroke="black" cx="390.464" cy="-142.8" rx="3.20001" ry="3.20001"/>
</g>
<!-- container_manifest&#45;&gt;container_blob -->
<g id="edge3" class="edge"><title>container_manifest:config_blob_id:w&#45;&gt;container_blob:content_ptr_id:e</title>
<path fill="none" stroke="black" d="M176.291,-137.294C164.597,-127.535 163.351,-106 143,-106"/>
<polygon fill="black" stroke="black" points="182.433,-139.402 188.831,-145.405 186.217,-140.701 190,-142 190,-142 190,-142 186.217,-140.701 191.169,-138.595 182.433,-139.402 182.433,-139.402"/>
<ellipse fill="none" stroke="black" cx="179.407" cy="-138.363" rx="3.20001" ry="3.20001"/>
</g>
</g>
</svg>
