<?xml version="1.0" encoding="UTF-8" standalone="no"?>
<!DOCTYPE svg PUBLIC "-//W3C//DTD SVG 1.1//EN"
 "http://www.w3.org/Graphics/SVG/1.1/DTD/svg11.dtd">
<!-- Generated by graphviz version 2.38.0 (20140413.2041)
 -->
<!-- Title: oneDegreeRelationshipsDiagram Pages: 1 -->
<svg width="448pt" height="439pt"
 viewBox="0.00 0.00 448.00 439.00" xmlns="http://www.w3.org/2000/svg" xmlns:xlink="http://www.w3.org/1999/xlink">
<g id="graph0" class="graph" transform="scale(1 1) rotate(0) translate(4 435)">
<title>oneDegreeRelationshipsDiagram</title>
<polygon fill="#ffffff" stroke="none" points="-4,4 -4,-435 444,-435 444,4 -4,4"/>
<text text-anchor="middle" x="74.5" y="-7.2" font-family="Helvetica,sans-Serif" font-size="11.00">Generated by SchemaSpy</text>
<!-- container_upload -->
<g id="node1" class="node"><title>container_upload</title>
<g id="a_node1"><a xlink:href="../../tables/container_upload.html" xlink:title="container_upload" target="_top">
<polygon fill="#ffffff" stroke="none" points="194,-97 194,-427 432,-427 432,-97 194,-97"/>
<polygon fill="#f5f5f5" stroke="none" points="196,-403 196,-425 430,-425 430,-403 196,-403"/>
<polygon fill="none" stroke="black" points="196,-403 196,-425 430,-425 430,-403 196,-403"/>
<text text-anchor="start" x="201" y="-412.2" font-family="Helvetica,sans-Serif" font-weight="bold" font-size="11.00">container_upload</text>
<text text-anchor="start" x="391" y="-411.2" font-family="Helvetica,sans-Serif" font-size="11.00">[table]</text>
<polygon fill="none" stroke="black" points="196,-381 196,-403 325,-403 325,-381 196,-381"/>
<image xlink:href="../../images/primaryKeys.png" width="11px" height="12px" preserveAspectRatio="xMinYMin meet" x="201" y="-398"/>
<text text-anchor="start" x="216" y="-389.2" font-family="Helvetica,sans-Serif" font-size="11.00">pulp_id</text>
<polygon fill="none" stroke="black" points="325,-381 325,-403 430,-403 430,-381 325,-381"/>
<text text-anchor="start" x="328" y="-389.2" font-family="Helvetica,sans-Serif" font-size="11.00">uuid[2147483647]</text>
<polygon fill="none" stroke="black" points="196,-359 196,-381 325,-381 325,-359 196,-359"/>
<text text-anchor="start" x="216" y="-367.2" font-family="Helvetica,sans-Serif" font-size="11.00">pulp_created</text>
<polygon fill="none" stroke="black" points="325,-359 325,-381 430,-381 430,-359 325,-359"/>
<text text-anchor="start" x="328" y="-367.2" font-family="Helvetica,sans-Serif" font-size="11.00">timestamptz[35,6]</text>
<polygon fill="none" stroke="black" points="196,-337 196,-359 325,-359 325,-337 196,-337"/>
<text text-anchor="start" x="216" y="-345.2" font-family="Helvetica,sans-Serif" font-size="11.00">pulp_last_updated</text>
<polygon fill="none" stroke="black" points="325,-337 325,-359 430,-359 430,-337 325,-337"/>
<text text-anchor="start" x="328" y="-345.2" font-family="Helvetica,sans-Serif" font-size="11.00">timestamptz[35,6]</text>
<polygon fill="none" stroke="black" points="196,-315 196,-337 325,-337 325,-315 196,-315"/>
<text text-anchor="start" x="216" y="-323.2" font-family="Helvetica,sans-Serif" font-size="11.00">offset</text>
<polygon fill="none" stroke="black" points="325,-315 325,-337 430,-337 430,-315 325,-315"/>
<text text-anchor="start" x="328" y="-323.2" font-family="Helvetica,sans-Serif" font-size="11.00">int8[19]</text>
<polygon fill="none" stroke="black" points="196,-293 196,-315 325,-315 325,-293 196,-293"/>
<text text-anchor="start" x="216" y="-301.2" font-family="Helvetica,sans-Serif" font-size="11.00">file</text>
<polygon fill="none" stroke="black" points="325,-293 325,-315 430,-315 430,-293 325,-293"/>
<text text-anchor="start" x="328" y="-301.2" font-family="Helvetica,sans-Serif" font-size="11.00">varchar[255]</text>
<polygon fill="none" stroke="black" points="196,-271 196,-293 325,-293 325,-271 196,-271"/>
<text text-anchor="start" x="216" y="-279.2" font-family="Helvetica,sans-Serif" font-size="11.00">size</text>
<polygon fill="none" stroke="black" points="325,-271 325,-293 430,-293 430,-271 325,-271"/>
<text text-anchor="start" x="328" y="-279.2" font-family="Helvetica,sans-Serif" font-size="11.00">int4[10]</text>
<polygon fill="none" stroke="black" points="196,-249 196,-271 325,-271 325,-249 196,-249"/>
<text text-anchor="start" x="216" y="-257.2" font-family="Helvetica,sans-Serif" font-size="11.00">md5</text>
<polygon fill="none" stroke="black" points="325,-249 325,-271 430,-271 430,-249 325,-249"/>
<text text-anchor="start" x="328" y="-257.2" font-family="Helvetica,sans-Serif" font-size="11.00">varchar[32]</text>
<polygon fill="none" stroke="black" points="196,-227 196,-249 325,-249 325,-227 196,-227"/>
<text text-anchor="start" x="216" y="-235.2" font-family="Helvetica,sans-Serif" font-size="11.00">sha1</text>
<polygon fill="none" stroke="black" points="325,-227 325,-249 430,-249 430,-227 325,-227"/>
<text text-anchor="start" x="328" y="-235.2" font-family="Helvetica,sans-Serif" font-size="11.00">varchar[40]</text>
<polygon fill="none" stroke="black" points="196,-205 196,-227 325,-227 325,-205 196,-205"/>
<text text-anchor="start" x="216" y="-213.2" font-family="Helvetica,sans-Serif" font-size="11.00">sha224</text>
<polygon fill="none" stroke="black" points="325,-205 325,-227 430,-227 430,-205 325,-205"/>
<text text-anchor="start" x="328" y="-213.2" font-family="Helvetica,sans-Serif" font-size="11.00">varchar[56]</text>
<polygon fill="none" stroke="black" points="196,-183 196,-205 325,-205 325,-183 196,-183"/>
<text text-anchor="start" x="216" y="-191.2" font-family="Helvetica,sans-Serif" font-size="11.00">sha256</text>
<polygon fill="none" stroke="black" points="325,-183 325,-205 430,-205 430,-183 325,-183"/>
<text text-anchor="start" x="328" y="-191.2" font-family="Helvetica,sans-Serif" font-size="11.00">varchar[64]</text>
<polygon fill="none" stroke="black" points="196,-161 196,-183 325,-183 325,-161 196,-161"/>
<text text-anchor="start" x="216" y="-169.2" font-family="Helvetica,sans-Serif" font-size="11.00">sha384</text>
<polygon fill="none" stroke="black" points="325,-161 325,-183 430,-183 430,-161 325,-161"/>
<text text-anchor="start" x="328" y="-169.2" font-family="Helvetica,sans-Serif" font-size="11.00">varchar[96]</text>
<polygon fill="none" stroke="black" points="196,-139 196,-161 325,-161 325,-139 196,-139"/>
<text text-anchor="start" x="216" y="-147.2" font-family="Helvetica,sans-Serif" font-size="11.00">sha512</text>
<polygon fill="none" stroke="black" points="325,-139 325,-161 430,-161 430,-139 325,-139"/>
<text text-anchor="start" x="328" y="-147.2" font-family="Helvetica,sans-Serif" font-size="11.00">varchar[128]</text>
<polygon fill="#ffffff" stroke="none" points="196,-117 196,-139 325,-139 325,-117 196,-117"/>
<polygon fill="none" stroke="black" points="196,-117 196,-139 325,-139 325,-117 196,-117"/>
<image xlink:href="../../images/foreignKeys.png" width="11px" height="12px" preserveAspectRatio="xMinYMin meet" x="201" y="-134"/>
<text text-anchor="start" x="216" y="-125.2" font-family="Helvetica,sans-Serif" font-size="11.00">repository_id</text>
<polygon fill="none" stroke="black" points="325,-117 325,-139 430,-139 430,-117 325,-117"/>
<text text-anchor="start" x="328" y="-125.2" font-family="Helvetica,sans-Serif" font-size="11.00">uuid[2147483647]</text>
<polygon fill="#ffffff" stroke="none" points="196,-99 196,-117 251,-117 251,-99 196,-99"/>
<polygon fill="none" stroke="black" points="196,-99 196,-117 251,-117 251,-99 196,-99"/>
<text text-anchor="start" x="199" y="-105.2" font-family="Helvetica,sans-Serif" font-size="11.00">&lt; 1</text>
<polygon fill="#ffffff" stroke="none" points="251,-99 251,-117 325,-117 325,-99 251,-99"/>
<polygon fill="none" stroke="black" points="251,-99 251,-117 325,-117 325,-99 251,-99"/>
<text text-anchor="start" x="286" y="-105.2" font-family="Helvetica,sans-Serif" font-size="11.00">0 rows</text>
<polygon fill="#ffffff" stroke="none" points="325,-99 325,-117 430,-117 430,-99 325,-99"/>
<polygon fill="none" stroke="black" points="325,-99 325,-117 430,-117 430,-99 325,-99"/>
<text text-anchor="start" x="410" y="-105.2" font-family="Helvetica,sans-Serif" font-size="11.00">0 &gt;</text>
<polygon fill="none" stroke="black" stroke-width="2" points="195,-98 195,-426 431,-426 431,-98 195,-98"/>
</a>
</g>
</g>
<!-- core_repository -->
<g id="node2" class="node"><title>core_repository</title>
<g id="a_node2"><a xlink:href="../../tables/core_repository.html" xlink:title="core_repository" target="_top">
<polygon fill="#ffffff" stroke="none" points="8,-37 8,-161 145,-161 145,-37 8,-37"/>
<polygon fill="#f5f5f5" stroke="none" points="8.5,-139 8.5,-161 145.5,-161 145.5,-139 8.5,-139"/>
<polygon fill="none" stroke="black" points="8.5,-139 8.5,-161 145.5,-161 145.5,-139 8.5,-139"/>
<text text-anchor="start" x="13.5" y="-148.2" font-family="Helvetica,sans-Serif" font-weight="bold" font-size="11.00">core_repository</text>
<text text-anchor="start" x="106.5" y="-147.2" font-family="Helvetica,sans-Serif" font-size="11.00">[table]</text>
<polygon fill="none" stroke="black" points="8.5,-117 8.5,-139 145.5,-139 145.5,-117 8.5,-117"/>
<image xlink:href="../../images/primaryKeys.png" width="11px" height="12px" preserveAspectRatio="xMinYMin meet" x="13.5" y="-134"/>
<text text-anchor="start" x="32.5" y="-125.2" font-family="Helvetica,sans-Serif" font-size="11.00">pulp_id</text>
<polygon fill="#ffffff" stroke="none" points="8.5,-95 8.5,-117 145.5,-117 145.5,-95 8.5,-95"/>
<polygon fill="none" stroke="black" points="8.5,-95 8.5,-117 145.5,-117 145.5,-95 8.5,-95"/>
<text text-anchor="start" x="32.5" y="-103.2" font-family="Helvetica,sans-Serif" font-size="11.00">name</text>
<polygon fill="#ffffff" stroke="none" points="8.5,-73 8.5,-95 145.5,-95 145.5,-73 8.5,-73"/>
<polygon fill="none" stroke="black" points="8.5,-73 8.5,-95 145.5,-95 145.5,-73 8.5,-73"/>
<image xlink:href="../../images/foreignKeys.png" width="11px" height="12px" preserveAspectRatio="xMinYMin meet" x="13.5" y="-90"/>
<text text-anchor="start" x="32.5" y="-81.2" font-family="Helvetica,sans-Serif" font-size="11.00">remote_id</text>
<polygon fill="none" stroke="black" points="8.5,-55 8.5,-73 145.5,-73 145.5,-55 8.5,-55"/>
<text text-anchor="start" x="11.5" y="-61.2" font-family="Helvetica,sans-Serif" font-size="11.00">...</text>
<polygon fill="#ffffff" stroke="none" points="8.5,-37 8.5,-55 48.5,-55 48.5,-37 8.5,-37"/>
<polygon fill="none" stroke="black" points="8.5,-37 8.5,-55 48.5,-55 48.5,-37 8.5,-37"/>
<text text-anchor="start" x="11.5" y="-43.2" font-family="Helvetica,sans-Serif" font-size="11.00">&lt; 1</text>
<polygon fill="#ffffff" stroke="none" points="48.5,-37 48.5,-55 106.5,-55 106.5,-37 48.5,-37"/>
<polygon fill="none" stroke="black" points="48.5,-37 48.5,-55 106.5,-55 106.5,-37 48.5,-37"/>
<text text-anchor="start" x="60.5" y="-43.2" font-family="Helvetica,sans-Serif" font-size="11.00">26 rows</text>
<polygon fill="#ffffff" stroke="none" points="106.5,-37 106.5,-55 145.5,-55 145.5,-37 106.5,-37"/>
<polygon fill="none" stroke="black" points="106.5,-37 106.5,-55 145.5,-55 145.5,-37 106.5,-37"/>
<text text-anchor="start" x="118.5" y="-43.2" font-family="Helvetica,sans-Serif" font-size="11.00">10 &gt;</text>
</a>
</g>
</g>
<!-- container_upload&#45;&gt;core_repository -->
<g id="edge1" class="edge"><title>container_upload:repository_id:w&#45;&gt;core_repository:pulp_id:e</title>
<path fill="none" stroke="black" d="M180.283,-128C169.289,-128 162.161,-128 146.5,-128"/>
<polygon fill="black" stroke="black" points="187,-128 195,-131.6 191,-128 195,-128 195,-128 195,-128 191,-128 195,-124.4 187,-128 187,-128"/>
<ellipse fill="none" stroke="black" cx="183.8" cy="-128" rx="3.2" ry="3.2"/>
</g>
</g>
</svg>
