<?xml version="1.0" encoding="UTF-8" standalone="no"?>
<!DOCTYPE svg PUBLIC "-//W3C//DTD SVG 1.1//EN"
 "http://www.w3.org/Graphics/SVG/1.1/DTD/svg11.dtd">
<!-- Generated by graphviz version 2.38.0 (20140413.2041)
 -->
<!-- Title: twoDegreesRelationshipsDiagram Pages: 1 -->
<svg width="912pt" height="987pt"
 viewBox="0.00 0.00 912.00 987.00" xmlns="http://www.w3.org/2000/svg" xmlns:xlink="http://www.w3.org/1999/xlink">
<g id="graph0" class="graph" transform="scale(1 1) rotate(0) translate(4 983)">
<title>twoDegreesRelationshipsDiagram</title>
<polygon fill="#ffffff" stroke="none" points="-4,4 -4,-983 908,-983 908,4 -4,4"/>
<text text-anchor="middle" x="74.5" y="-7.2" font-family="Helvetica,sans-Serif" font-size="11.00">Generated by SchemaSpy</text>
<!-- ansible_ansibledistribution -->
<g id="node1" class="node"><title>ansible_ansibledistribution</title>
<g id="a_node1"><a xlink:href="../../tables/ansible_ansibledistribution.html" xlink:title="ansible_ansibledistribution" target="_top">
<polygon fill="#ffffff" stroke="none" points="677,-917 677,-975 882,-975 882,-917 677,-917"/>
<polygon fill="#f5f5f5" stroke="none" points="677.5,-953 677.5,-975 882.5,-975 882.5,-953 677.5,-953"/>
<polygon fill="none" stroke="black" points="677.5,-953 677.5,-975 882.5,-975 882.5,-953 677.5,-953"/>
<text text-anchor="start" x="682.5" y="-962.2" font-family="Helvetica,sans-Serif" font-weight="bold" font-size="11.00">ansible_ansibledistribution</text>
<text text-anchor="start" x="843.5" y="-961.2" font-family="Helvetica,sans-Serif" font-size="11.00">[table]</text>
<polygon fill="none" stroke="black" points="677.5,-935 677.5,-953 882.5,-953 882.5,-935 677.5,-935"/>
<text text-anchor="start" x="680.5" y="-941.2" font-family="Helvetica,sans-Serif" font-size="11.00">...</text>
<polygon fill="#ffffff" stroke="none" points="677.5,-917 677.5,-935 760.5,-935 760.5,-917 677.5,-917"/>
<polygon fill="none" stroke="black" points="677.5,-917 677.5,-935 760.5,-935 760.5,-917 677.5,-917"/>
<text text-anchor="start" x="680.5" y="-923.2" font-family="Helvetica,sans-Serif" font-size="11.00">&lt; 3</text>
<polygon fill="#ffffff" stroke="none" points="760.5,-917 760.5,-935 839.5,-935 839.5,-917 760.5,-917"/>
<polygon fill="none" stroke="black" points="760.5,-917 760.5,-935 839.5,-935 839.5,-917 760.5,-917"/>
<text text-anchor="start" x="793.5" y="-923.2" font-family="Helvetica,sans-Serif" font-size="11.00">32 rows</text>
<polygon fill="#ffffff" stroke="none" points="839.5,-917 839.5,-935 882.5,-935 882.5,-917 839.5,-917"/>
<polygon fill="none" stroke="black" points="839.5,-917 839.5,-935 882.5,-935 882.5,-917 839.5,-917"/>
<text text-anchor="start" x="872.5" y="-923.2" font-family="Helvetica,sans-Serif" font-size="11.00"> &#160;</text>
</a>
</g>
</g>
<!-- core_repository -->
<g id="node2" class="node"><title>core_repository</title>
<g id="a_node2"><a xlink:href="../../tables/core_repository.html" xlink:title="core_repository" target="_top">
<polygon fill="#ffffff" stroke="none" points="177,-600 177,-724 314,-724 314,-600 177,-600"/>
<polygon fill="#f5f5f5" stroke="none" points="177.5,-702 177.5,-724 314.5,-724 314.5,-702 177.5,-702"/>
<polygon fill="none" stroke="black" points="177.5,-702 177.5,-724 314.5,-724 314.5,-702 177.5,-702"/>
<text text-anchor="start" x="182.5" y="-711.2" font-family="Helvetica,sans-Serif" font-weight="bold" font-size="11.00">core_repository</text>
<text text-anchor="start" x="275.5" y="-710.2" font-family="Helvetica,sans-Serif" font-size="11.00">[table]</text>
<polygon fill="none" stroke="black" points="177.5,-680 177.5,-702 314.5,-702 314.5,-680 177.5,-680"/>
<image xlink:href="../../images/primaryKeys.png" width="11px" height="12px" preserveAspectRatio="xMinYMin meet" x="182.5" y="-697"/>
<text text-anchor="start" x="201.5" y="-688.2" font-family="Helvetica,sans-Serif" font-size="11.00">pulp_id</text>
<polygon fill="#ffffff" stroke="none" points="177.5,-658 177.5,-680 314.5,-680 314.5,-658 177.5,-658"/>
<polygon fill="none" stroke="black" points="177.5,-658 177.5,-680 314.5,-680 314.5,-658 177.5,-658"/>
<text text-anchor="start" x="201.5" y="-666.2" font-family="Helvetica,sans-Serif" font-size="11.00">name</text>
<polygon fill="#ffffff" stroke="none" points="177.5,-636 177.5,-658 314.5,-658 314.5,-636 177.5,-636"/>
<polygon fill="none" stroke="black" points="177.5,-636 177.5,-658 314.5,-658 314.5,-636 177.5,-636"/>
<image xlink:href="../../images/foreignKeys.png" width="11px" height="12px" preserveAspectRatio="xMinYMin meet" x="182.5" y="-653"/>
<text text-anchor="start" x="201.5" y="-644.2" font-family="Helvetica,sans-Serif" font-size="11.00">remote_id</text>
<polygon fill="none" stroke="black" points="177.5,-618 177.5,-636 314.5,-636 314.5,-618 177.5,-618"/>
<text text-anchor="start" x="180.5" y="-624.2" font-family="Helvetica,sans-Serif" font-size="11.00">...</text>
<polygon fill="#ffffff" stroke="none" points="177.5,-600 177.5,-618 217.5,-618 217.5,-600 177.5,-600"/>
<polygon fill="none" stroke="black" points="177.5,-600 177.5,-618 217.5,-618 217.5,-600 177.5,-600"/>
<text text-anchor="start" x="180.5" y="-606.2" font-family="Helvetica,sans-Serif" font-size="11.00">&lt; 1</text>
<polygon fill="#ffffff" stroke="none" points="217.5,-600 217.5,-618 275.5,-618 275.5,-600 217.5,-600"/>
<polygon fill="none" stroke="black" points="217.5,-600 217.5,-618 275.5,-618 275.5,-600 217.5,-600"/>
<text text-anchor="start" x="229.5" y="-606.2" font-family="Helvetica,sans-Serif" font-size="11.00">26 rows</text>
<polygon fill="#ffffff" stroke="none" points="275.5,-600 275.5,-618 314.5,-618 314.5,-600 275.5,-600"/>
<polygon fill="none" stroke="black" points="275.5,-600 275.5,-618 314.5,-618 314.5,-600 275.5,-600"/>
<text text-anchor="start" x="287.5" y="-606.2" font-family="Helvetica,sans-Serif" font-size="11.00">10 &gt;</text>
</a>
</g>
</g>
<!-- ansible_ansibledistribution&#45;&gt;core_repository -->
<g id="edge1" class="edge"><title>ansible_ansibledistribution:elipses:w&#45;&gt;core_repository:pulp_id:e</title>
<path fill="none" stroke="black" d="M662.002,-944.209C527.716,-948.06 456.501,-1002.77 355,-908 283.348,-841.099 413.529,-691 315.5,-691"/>
<polygon fill="black" stroke="black" points="668.501,-944.115 676.552,-947.6 672.5,-944.058 676.5,-944 676.5,-944 676.5,-944 672.5,-944.058 676.448,-940.4 668.501,-944.115 668.501,-944.115"/>
<ellipse fill="none" stroke="black" cx="665.301" cy="-944.161" rx="3.2" ry="3.2"/>
</g>
<!-- core_repositoryversion -->
<g id="node3" class="node"><title>core_repositoryversion</title>
<g id="a_node3"><a xlink:href="../../tables/core_repositoryversion.html" xlink:title="core_repositoryversion" target="_top">
<polygon fill="#ffffff" stroke="none" points="399,-810 399,-868 578,-868 578,-810 399,-810"/>
<polygon fill="#f5f5f5" stroke="none" points="399.5,-846 399.5,-868 578.5,-868 578.5,-846 399.5,-846"/>
<polygon fill="none" stroke="black" points="399.5,-846 399.5,-868 578.5,-868 578.5,-846 399.5,-846"/>
<text text-anchor="start" x="404.5" y="-855.2" font-family="Helvetica,sans-Serif" font-weight="bold" font-size="11.00">core_repositoryversion</text>
<text text-anchor="start" x="539.5" y="-854.2" font-family="Helvetica,sans-Serif" font-size="11.00">[table]</text>
<polygon fill="none" stroke="black" points="399.5,-828 399.5,-846 578.5,-846 578.5,-828 399.5,-828"/>
<text text-anchor="start" x="402.5" y="-834.2" font-family="Helvetica,sans-Serif" font-size="11.00">...</text>
<polygon fill="#ffffff" stroke="none" points="399.5,-810 399.5,-828 461.5,-828 461.5,-810 399.5,-810"/>
<polygon fill="none" stroke="black" points="399.5,-810 399.5,-828 461.5,-828 461.5,-810 399.5,-810"/>
<text text-anchor="start" x="402.5" y="-816.2" font-family="Helvetica,sans-Serif" font-size="11.00">&lt; 2</text>
<polygon fill="#ffffff" stroke="none" points="461.5,-810 461.5,-828 535.5,-828 535.5,-810 461.5,-810"/>
<polygon fill="none" stroke="black" points="461.5,-810 461.5,-828 535.5,-828 535.5,-810 461.5,-810"/>
<text text-anchor="start" x="483.5" y="-816.2" font-family="Helvetica,sans-Serif" font-size="11.00">162 rows</text>
<polygon fill="#ffffff" stroke="none" points="535.5,-810 535.5,-828 578.5,-828 578.5,-810 535.5,-810"/>
<polygon fill="none" stroke="black" points="535.5,-810 535.5,-828 578.5,-828 578.5,-810 535.5,-810"/>
<text text-anchor="start" x="558.5" y="-816.2" font-family="Helvetica,sans-Serif" font-size="11.00">7 &gt;</text>
</a>
</g>
</g>
<!-- ansible_ansibledistribution&#45;&gt;core_repositoryversion -->
<g id="edge2" class="edge"><title>ansible_ansibledistribution:elipses:w&#45;&gt;core_repositoryversion:elipses:e</title>
<path fill="none" stroke="black" d="M662.237,-941.863C616.908,-926.782 638.297,-837 579.5,-837"/>
<polygon fill="black" stroke="black" points="668.588,-942.814 675.966,-947.56 672.544,-943.407 676.5,-944 676.5,-944 676.5,-944 672.544,-943.407 677.034,-940.44 668.588,-942.814 668.588,-942.814"/>
<ellipse fill="none" stroke="black" cx="665.424" cy="-942.34" rx="3.2" ry="3.2"/>
</g>
<!-- core_remote -->
<g id="node11" class="node"><title>core_remote</title>
<g id="a_node11"><a xlink:href="../../tables/core_remote.html" xlink:title="core_remote" target="_top">
<polygon fill="#ffffff" stroke="none" points="8,-620 8,-678 128,-678 128,-620 8,-620"/>
<polygon fill="#f5f5f5" stroke="none" points="8,-656 8,-678 128,-678 128,-656 8,-656"/>
<polygon fill="none" stroke="black" points="8,-656 8,-678 128,-678 128,-656 8,-656"/>
<text text-anchor="start" x="13" y="-665.2" font-family="Helvetica,sans-Serif" font-weight="bold" font-size="11.00">core_remote</text>
<text text-anchor="start" x="89" y="-664.2" font-family="Helvetica,sans-Serif" font-size="11.00">[table]</text>
<polygon fill="none" stroke="black" points="8,-638 8,-656 128,-656 128,-638 8,-638"/>
<text text-anchor="start" x="11" y="-644.2" font-family="Helvetica,sans-Serif" font-size="11.00">...</text>
<polygon fill="#ffffff" stroke="none" points="8,-620 8,-638 42,-638 42,-620 8,-620"/>
<polygon fill="none" stroke="black" points="8,-620 8,-638 42,-638 42,-620 8,-620"/>
<text text-anchor="start" x="11" y="-626.2" font-family="Helvetica,sans-Serif" font-size="11.00"> &#160;</text>
<polygon fill="#ffffff" stroke="none" points="42,-620 42,-638 94,-638 94,-620 42,-620"/>
<polygon fill="none" stroke="black" points="42,-620 42,-638 94,-638 94,-620 42,-620"/>
<text text-anchor="start" x="55" y="-626.2" font-family="Helvetica,sans-Serif" font-size="11.00">7 rows</text>
<polygon fill="#ffffff" stroke="none" points="94,-620 94,-638 128,-638 128,-620 94,-620"/>
<polygon fill="none" stroke="black" points="94,-620 94,-638 128,-638 128,-620 94,-620"/>
<text text-anchor="start" x="108" y="-626.2" font-family="Helvetica,sans-Serif" font-size="11.00">6 &gt;</text>
</a>
</g>
</g>
<!-- core_repository&#45;&gt;core_remote -->
<g id="edge11" class="edge"><title>core_repository:remote_id:w&#45;&gt;core_remote:elipses:e</title>
<path fill="none" stroke="black" d="M162.086,-647C151.319,-647 144.339,-647 129,-647"/>
<polygon fill="black" stroke="black" points="168.5,-647 176.5,-650.6 172.5,-647 176.5,-647 176.5,-647 176.5,-647 172.5,-647 176.5,-643.4 168.5,-647 168.5,-647"/>
<ellipse fill="none" stroke="black" cx="165.3" cy="-647" rx="3.2" ry="3.2"/>
</g>
<!-- core_repositoryversion&#45;&gt;core_repository -->
<g id="edge15" class="edge"><title>core_repositoryversion:elipses:w&#45;&gt;core_repository:pulp_id:e</title>
<path fill="none" stroke="black" d="M384.176,-834.453C370.367,-828.583 366.503,-813.277 355,-796 327.368,-754.498 365.36,-691 315.5,-691"/>
<polygon fill="black" stroke="black" points="390.624,-835.599 397.87,-840.544 394.562,-836.3 398.5,-837 398.5,-837 398.5,-837 394.562,-836.3 399.13,-833.456 390.624,-835.599 390.624,-835.599"/>
<ellipse fill="none" stroke="black" cx="387.473" cy="-835.039" rx="3.2" ry="3.2"/>
</g>
<!-- ansible_ansiblerepository -->
<g id="node4" class="node"><title>ansible_ansiblerepository</title>
<g id="a_node4"><a xlink:href="../../tables/ansible_ansiblerepository.html" xlink:title="ansible_ansiblerepository" target="_top">
<polygon fill="#ffffff" stroke="none" points="391,-704 391,-762 586,-762 586,-704 391,-704"/>
<polygon fill="#f5f5f5" stroke="none" points="391.5,-740 391.5,-762 586.5,-762 586.5,-740 391.5,-740"/>
<polygon fill="none" stroke="black" points="391.5,-740 391.5,-762 586.5,-762 586.5,-740 391.5,-740"/>
<text text-anchor="start" x="396.5" y="-749.2" font-family="Helvetica,sans-Serif" font-weight="bold" font-size="11.00">ansible_ansiblerepository</text>
<text text-anchor="start" x="547.5" y="-748.2" font-family="Helvetica,sans-Serif" font-size="11.00">[table]</text>
<polygon fill="none" stroke="black" points="391.5,-722 391.5,-740 586.5,-740 586.5,-722 391.5,-722"/>
<text text-anchor="start" x="394.5" y="-728.2" font-family="Helvetica,sans-Serif" font-size="11.00">...</text>
<polygon fill="#ffffff" stroke="none" points="391.5,-704 391.5,-722 464.5,-722 464.5,-704 391.5,-704"/>
<polygon fill="none" stroke="black" points="391.5,-704 391.5,-722 464.5,-722 464.5,-704 391.5,-704"/>
<text text-anchor="start" x="394.5" y="-710.2" font-family="Helvetica,sans-Serif" font-size="11.00">&lt; 1</text>
<polygon fill="#ffffff" stroke="none" points="464.5,-704 464.5,-722 538.5,-722 538.5,-704 464.5,-704"/>
<polygon fill="none" stroke="black" points="464.5,-704 464.5,-722 538.5,-722 538.5,-704 464.5,-704"/>
<text text-anchor="start" x="492.5" y="-710.2" font-family="Helvetica,sans-Serif" font-size="11.00">26 rows</text>
<polygon fill="#ffffff" stroke="none" points="538.5,-704 538.5,-722 586.5,-722 586.5,-704 538.5,-704"/>
<polygon fill="none" stroke="black" points="538.5,-704 538.5,-722 586.5,-722 586.5,-704 538.5,-704"/>
<text text-anchor="start" x="566.5" y="-710.2" font-family="Helvetica,sans-Serif" font-size="11.00">2 &gt;</text>
</a>
</g>
</g>
<!-- ansible_ansiblerepository&#45;&gt;core_repository -->
<g id="edge3" class="edge"><title>ansible_ansiblerepository:elipses:w&#45;&gt;core_repository:pulp_id:e</title>
<path fill="none" stroke="black" d="M380.095,-729.846C352.44,-723.288 349.441,-691 315.5,-691"/>
<polygon fill="black" stroke="black" points="390.146,-726.936 389.264,-734.887 387.674,-734.711 388.556,-726.76 390.146,-726.936"/>
<polyline fill="none" stroke="black" points="390.5,-731 386.524,-730.559 "/>
<ellipse fill="none" stroke="black" cx="383.344" cy="-730.206" rx="3.2" ry="3.2"/>
</g>
<!-- container_containerdistribution -->
<g id="node5" class="node"><title>container_containerdistribution</title>
<g id="a_node5"><a xlink:href="../../tables/container_containerdistribution.html" xlink:title="container_containerdistribution" target="_top">
<polygon fill="#ffffff" stroke="none" points="663,-838 663,-896 896,-896 896,-838 663,-838"/>
<polygon fill="#f5f5f5" stroke="none" points="663.5,-874 663.5,-896 896.5,-896 896.5,-874 663.5,-874"/>
<polygon fill="none" stroke="black" points="663.5,-874 663.5,-896 896.5,-896 896.5,-874 663.5,-874"/>
<text text-anchor="start" x="668.5" y="-883.2" font-family="Helvetica,sans-Serif" font-weight="bold" font-size="11.00">container_containerdistribution</text>
<text text-anchor="start" x="857.5" y="-882.2" font-family="Helvetica,sans-Serif" font-size="11.00">[table]</text>
<polygon fill="none" stroke="black" points="663.5,-856 663.5,-874 896.5,-874 896.5,-856 663.5,-856"/>
<text text-anchor="start" x="666.5" y="-862.2" font-family="Helvetica,sans-Serif" font-size="11.00">...</text>
<polygon fill="#ffffff" stroke="none" points="663.5,-838 663.5,-856 763.5,-856 763.5,-838 663.5,-838"/>
<polygon fill="none" stroke="black" points="663.5,-838 663.5,-856 763.5,-856 763.5,-838 663.5,-838"/>
<text text-anchor="start" x="666.5" y="-844.2" font-family="Helvetica,sans-Serif" font-size="11.00">&lt; 3</text>
<polygon fill="#ffffff" stroke="none" points="763.5,-838 763.5,-856 844.5,-856 844.5,-838 763.5,-838"/>
<polygon fill="none" stroke="black" points="763.5,-838 763.5,-856 844.5,-856 844.5,-838 763.5,-838"/>
<text text-anchor="start" x="805.5" y="-844.2" font-family="Helvetica,sans-Serif" font-size="11.00">0 rows</text>
<polygon fill="#ffffff" stroke="none" points="844.5,-838 844.5,-856 896.5,-856 896.5,-838 844.5,-838"/>
<polygon fill="none" stroke="black" points="844.5,-838 844.5,-856 896.5,-856 896.5,-838 844.5,-838"/>
<text text-anchor="start" x="886.5" y="-844.2" font-family="Helvetica,sans-Serif" font-size="11.00"> &#160;</text>
</a>
</g>
</g>
<!-- container_containerdistribution&#45;&gt;core_repository -->
<g id="edge4" class="edge"><title>container_containerdistribution:elipses:w&#45;&gt;core_repository:pulp_id:e</title>
<path fill="none" stroke="black" d="M648.171,-867.729C640.09,-871.159 634.766,-876.856 622,-879 504.973,-898.656 447.134,-953.787 355,-879 288.71,-825.191 400.88,-691 315.5,-691"/>
<polygon fill="black" stroke="black" points="654.641,-866.497 663.174,-868.536 658.571,-865.748 662.5,-865 662.5,-865 662.5,-865 658.571,-865.748 661.826,-861.464 654.641,-866.497 654.641,-866.497"/>
<ellipse fill="none" stroke="black" cx="651.498" cy="-867.095" rx="3.2" ry="3.2"/>
</g>
<!-- container_containerdistribution&#45;&gt;core_repositoryversion -->
<g id="edge5" class="edge"><title>container_containerdistribution:elipses:w&#45;&gt;core_repositoryversion:elipses:e</title>
<path fill="none" stroke="black" d="M647.893,-863.495C621.455,-857.679 612.957,-837 579.5,-837"/>
<polygon fill="black" stroke="black" points="654.542,-864.18 662.131,-868.581 658.521,-864.59 662.5,-865 662.5,-865 662.5,-865 658.521,-864.59 662.869,-861.419 654.542,-864.18 654.542,-864.18"/>
<ellipse fill="none" stroke="black" cx="651.359" cy="-863.852" rx="3.2" ry="3.2"/>
</g>
<!-- container_containerpushrepository -->
<g id="node6" class="node"><title>container_containerpushrepository</title>
<g id="a_node6"><a xlink:href="../../tables/container_containerpushrepository.html" xlink:title="container_containerpushrepository" target="_top">
<polygon fill="#ffffff" stroke="none" points="363,-625 363,-683 614,-683 614,-625 363,-625"/>
<polygon fill="#f5f5f5" stroke="none" points="363.5,-661 363.5,-683 614.5,-683 614.5,-661 363.5,-661"/>
<polygon fill="none" stroke="black" points="363.5,-661 363.5,-683 614.5,-683 614.5,-661 363.5,-661"/>
<text text-anchor="start" x="368.5" y="-670.2" font-family="Helvetica,sans-Serif" font-weight="bold" font-size="11.00">container_containerpushrepository</text>
<text text-anchor="start" x="575.5" y="-669.2" font-family="Helvetica,sans-Serif" font-size="11.00">[table]</text>
<polygon fill="none" stroke="black" points="363.5,-643 363.5,-661 614.5,-661 614.5,-643 363.5,-643"/>
<text text-anchor="start" x="366.5" y="-649.2" font-family="Helvetica,sans-Serif" font-size="11.00">...</text>
<polygon fill="#ffffff" stroke="none" points="363.5,-625 363.5,-643 472.5,-643 472.5,-625 363.5,-625"/>
<polygon fill="none" stroke="black" points="363.5,-625 363.5,-643 472.5,-643 472.5,-625 363.5,-625"/>
<text text-anchor="start" x="366.5" y="-631.2" font-family="Helvetica,sans-Serif" font-size="11.00">&lt; 1</text>
<polygon fill="#ffffff" stroke="none" points="472.5,-625 472.5,-643 557.5,-643 557.5,-625 472.5,-625"/>
<polygon fill="none" stroke="black" points="472.5,-625 472.5,-643 557.5,-643 557.5,-625 472.5,-625"/>
<text text-anchor="start" x="518.5" y="-631.2" font-family="Helvetica,sans-Serif" font-size="11.00">0 rows</text>
<polygon fill="#ffffff" stroke="none" points="557.5,-625 557.5,-643 614.5,-643 614.5,-625 557.5,-625"/>
<polygon fill="none" stroke="black" points="557.5,-625 557.5,-643 614.5,-643 614.5,-625 557.5,-625"/>
<text text-anchor="start" x="604.5" y="-631.2" font-family="Helvetica,sans-Serif" font-size="11.00"> &#160;</text>
</a>
</g>
</g>
<!-- container_containerpushrepository&#45;&gt;core_repository -->
<g id="edge6" class="edge"><title>container_containerpushrepository:elipses:w&#45;&gt;core_repository:pulp_id:e</title>
<path fill="none" stroke="black" d="M352.035,-654.559C336.793,-663.235 338.403,-691 315.5,-691"/>
<polygon fill="black" stroke="black" points="360.773,-648.305 362.673,-656.076 361.119,-656.456 359.219,-648.685 360.773,-648.305"/>
<polyline fill="none" stroke="black" points="362.5,-652 358.614,-652.95 "/>
<ellipse fill="none" stroke="black" cx="355.506" cy="-653.71" rx="3.20001" ry="3.20001"/>
</g>
<!-- container_containerrepository -->
<g id="node7" class="node"><title>container_containerrepository</title>
<g id="a_node7"><a xlink:href="../../tables/container_containerrepository.html" xlink:title="container_containerrepository" target="_top">
<polygon fill="#ffffff" stroke="none" points="377,-546 377,-604 600,-604 600,-546 377,-546"/>
<polygon fill="#f5f5f5" stroke="none" points="377.5,-582 377.5,-604 600.5,-604 600.5,-582 377.5,-582"/>
<polygon fill="none" stroke="black" points="377.5,-582 377.5,-604 600.5,-604 600.5,-582 377.5,-582"/>
<text text-anchor="start" x="382.5" y="-591.2" font-family="Helvetica,sans-Serif" font-weight="bold" font-size="11.00">container_containerrepository</text>
<text text-anchor="start" x="561.5" y="-590.2" font-family="Helvetica,sans-Serif" font-size="11.00">[table]</text>
<polygon fill="none" stroke="black" points="377.5,-564 377.5,-582 600.5,-582 600.5,-564 377.5,-564"/>
<text text-anchor="start" x="380.5" y="-570.2" font-family="Helvetica,sans-Serif" font-size="11.00">...</text>
<polygon fill="#ffffff" stroke="none" points="377.5,-546 377.5,-564 472.5,-564 472.5,-546 377.5,-546"/>
<polygon fill="none" stroke="black" points="377.5,-546 377.5,-564 472.5,-564 472.5,-546 377.5,-546"/>
<text text-anchor="start" x="380.5" y="-552.2" font-family="Helvetica,sans-Serif" font-size="11.00">&lt; 1</text>
<polygon fill="#ffffff" stroke="none" points="472.5,-546 472.5,-564 550.5,-564 550.5,-546 472.5,-546"/>
<polygon fill="none" stroke="black" points="472.5,-546 472.5,-564 550.5,-564 550.5,-546 472.5,-546"/>
<text text-anchor="start" x="511.5" y="-552.2" font-family="Helvetica,sans-Serif" font-size="11.00">0 rows</text>
<polygon fill="#ffffff" stroke="none" points="550.5,-546 550.5,-564 600.5,-564 600.5,-546 550.5,-546"/>
<polygon fill="none" stroke="black" points="550.5,-546 550.5,-564 600.5,-564 600.5,-546 550.5,-546"/>
<text text-anchor="start" x="590.5" y="-552.2" font-family="Helvetica,sans-Serif" font-size="11.00"> &#160;</text>
</a>
</g>
</g>
<!-- container_containerrepository&#45;&gt;core_repository -->
<g id="edge7" class="edge"><title>container_containerrepository:elipses:w&#45;&gt;core_repository:pulp_id:e</title>
<path fill="none" stroke="black" d="M366.207,-574.492C324.531,-588.152 370.617,-691 315.5,-691"/>
<polygon fill="black" stroke="black" points="375.134,-569.156 376.282,-577.073 374.699,-577.303 373.551,-569.386 375.134,-569.156"/>
<polyline fill="none" stroke="black" points="376.5,-573 372.541,-573.574 "/>
<ellipse fill="none" stroke="black" cx="369.374" cy="-574.033" rx="3.2" ry="3.2"/>
</g>
<!-- container_upload -->
<g id="node8" class="node"><title>container_upload</title>
<g id="a_node8"><a xlink:href="../../tables/container_upload.html" xlink:title="container_upload" target="_top">
<polygon fill="#ffffff" stroke="none" points="369.5,-195 369.5,-525 607.5,-525 607.5,-195 369.5,-195"/>
<polygon fill="#f5f5f5" stroke="none" points="371.5,-501 371.5,-523 605.5,-523 605.5,-501 371.5,-501"/>
<polygon fill="none" stroke="black" points="371.5,-501 371.5,-523 605.5,-523 605.5,-501 371.5,-501"/>
<text text-anchor="start" x="376.5" y="-510.2" font-family="Helvetica,sans-Serif" font-weight="bold" font-size="11.00">container_upload</text>
<text text-anchor="start" x="566.5" y="-509.2" font-family="Helvetica,sans-Serif" font-size="11.00">[table]</text>
<polygon fill="none" stroke="black" points="371.5,-479 371.5,-501 500.5,-501 500.5,-479 371.5,-479"/>
<image xlink:href="../../images/primaryKeys.png" width="11px" height="12px" preserveAspectRatio="xMinYMin meet" x="376.5" y="-496"/>
<text text-anchor="start" x="391.5" y="-487.2" font-family="Helvetica,sans-Serif" font-size="11.00">pulp_id</text>
<polygon fill="none" stroke="black" points="500.5,-479 500.5,-501 605.5,-501 605.5,-479 500.5,-479"/>
<text text-anchor="start" x="503.5" y="-487.2" font-family="Helvetica,sans-Serif" font-size="11.00">uuid[2147483647]</text>
<polygon fill="none" stroke="black" points="371.5,-457 371.5,-479 500.5,-479 500.5,-457 371.5,-457"/>
<text text-anchor="start" x="391.5" y="-465.2" font-family="Helvetica,sans-Serif" font-size="11.00">pulp_created</text>
<polygon fill="none" stroke="black" points="500.5,-457 500.5,-479 605.5,-479 605.5,-457 500.5,-457"/>
<text text-anchor="start" x="503.5" y="-465.2" font-family="Helvetica,sans-Serif" font-size="11.00">timestamptz[35,6]</text>
<polygon fill="none" stroke="black" points="371.5,-435 371.5,-457 500.5,-457 500.5,-435 371.5,-435"/>
<text text-anchor="start" x="391.5" y="-443.2" font-family="Helvetica,sans-Serif" font-size="11.00">pulp_last_updated</text>
<polygon fill="none" stroke="black" points="500.5,-435 500.5,-457 605.5,-457 605.5,-435 500.5,-435"/>
<text text-anchor="start" x="503.5" y="-443.2" font-family="Helvetica,sans-Serif" font-size="11.00">timestamptz[35,6]</text>
<polygon fill="none" stroke="black" points="371.5,-413 371.5,-435 500.5,-435 500.5,-413 371.5,-413"/>
<text text-anchor="start" x="391.5" y="-421.2" font-family="Helvetica,sans-Serif" font-size="11.00">offset</text>
<polygon fill="none" stroke="black" points="500.5,-413 500.5,-435 605.5,-435 605.5,-413 500.5,-413"/>
<text text-anchor="start" x="503.5" y="-421.2" font-family="Helvetica,sans-Serif" font-size="11.00">int8[19]</text>
<polygon fill="none" stroke="black" points="371.5,-391 371.5,-413 500.5,-413 500.5,-391 371.5,-391"/>
<text text-anchor="start" x="391.5" y="-399.2" font-family="Helvetica,sans-Serif" font-size="11.00">file</text>
<polygon fill="none" stroke="black" points="500.5,-391 500.5,-413 605.5,-413 605.5,-391 500.5,-391"/>
<text text-anchor="start" x="503.5" y="-399.2" font-family="Helvetica,sans-Serif" font-size="11.00">varchar[255]</text>
<polygon fill="none" stroke="black" points="371.5,-369 371.5,-391 500.5,-391 500.5,-369 371.5,-369"/>
<text text-anchor="start" x="391.5" y="-377.2" font-family="Helvetica,sans-Serif" font-size="11.00">size</text>
<polygon fill="none" stroke="black" points="500.5,-369 500.5,-391 605.5,-391 605.5,-369 500.5,-369"/>
<text text-anchor="start" x="503.5" y="-377.2" font-family="Helvetica,sans-Serif" font-size="11.00">int4[10]</text>
<polygon fill="none" stroke="black" points="371.5,-347 371.5,-369 500.5,-369 500.5,-347 371.5,-347"/>
<text text-anchor="start" x="391.5" y="-355.2" font-family="Helvetica,sans-Serif" font-size="11.00">md5</text>
<polygon fill="none" stroke="black" points="500.5,-347 500.5,-369 605.5,-369 605.5,-347 500.5,-347"/>
<text text-anchor="start" x="503.5" y="-355.2" font-family="Helvetica,sans-Serif" font-size="11.00">varchar[32]</text>
<polygon fill="none" stroke="black" points="371.5,-325 371.5,-347 500.5,-347 500.5,-325 371.5,-325"/>
<text text-anchor="start" x="391.5" y="-333.2" font-family="Helvetica,sans-Serif" font-size="11.00">sha1</text>
<polygon fill="none" stroke="black" points="500.5,-325 500.5,-347 605.5,-347 605.5,-325 500.5,-325"/>
<text text-anchor="start" x="503.5" y="-333.2" font-family="Helvetica,sans-Serif" font-size="11.00">varchar[40]</text>
<polygon fill="none" stroke="black" points="371.5,-303 371.5,-325 500.5,-325 500.5,-303 371.5,-303"/>
<text text-anchor="start" x="391.5" y="-311.2" font-family="Helvetica,sans-Serif" font-size="11.00">sha224</text>
<polygon fill="none" stroke="black" points="500.5,-303 500.5,-325 605.5,-325 605.5,-303 500.5,-303"/>
<text text-anchor="start" x="503.5" y="-311.2" font-family="Helvetica,sans-Serif" font-size="11.00">varchar[56]</text>
<polygon fill="none" stroke="black" points="371.5,-281 371.5,-303 500.5,-303 500.5,-281 371.5,-281"/>
<text text-anchor="start" x="391.5" y="-289.2" font-family="Helvetica,sans-Serif" font-size="11.00">sha256</text>
<polygon fill="none" stroke="black" points="500.5,-281 500.5,-303 605.5,-303 605.5,-281 500.5,-281"/>
<text text-anchor="start" x="503.5" y="-289.2" font-family="Helvetica,sans-Serif" font-size="11.00">varchar[64]</text>
<polygon fill="none" stroke="black" points="371.5,-259 371.5,-281 500.5,-281 500.5,-259 371.5,-259"/>
<text text-anchor="start" x="391.5" y="-267.2" font-family="Helvetica,sans-Serif" font-size="11.00">sha384</text>
<polygon fill="none" stroke="black" points="500.5,-259 500.5,-281 605.5,-281 605.5,-259 500.5,-259"/>
<text text-anchor="start" x="503.5" y="-267.2" font-family="Helvetica,sans-Serif" font-size="11.00">varchar[96]</text>
<polygon fill="none" stroke="black" points="371.5,-237 371.5,-259 500.5,-259 500.5,-237 371.5,-237"/>
<text text-anchor="start" x="391.5" y="-245.2" font-family="Helvetica,sans-Serif" font-size="11.00">sha512</text>
<polygon fill="none" stroke="black" points="500.5,-237 500.5,-259 605.5,-259 605.5,-237 500.5,-237"/>
<text text-anchor="start" x="503.5" y="-245.2" font-family="Helvetica,sans-Serif" font-size="11.00">varchar[128]</text>
<polygon fill="#ffffff" stroke="none" points="371.5,-215 371.5,-237 500.5,-237 500.5,-215 371.5,-215"/>
<polygon fill="none" stroke="black" points="371.5,-215 371.5,-237 500.5,-237 500.5,-215 371.5,-215"/>
<image xlink:href="../../images/foreignKeys.png" width="11px" height="12px" preserveAspectRatio="xMinYMin meet" x="376.5" y="-232"/>
<text text-anchor="start" x="391.5" y="-223.2" font-family="Helvetica,sans-Serif" font-size="11.00">repository_id</text>
<polygon fill="none" stroke="black" points="500.5,-215 500.5,-237 605.5,-237 605.5,-215 500.5,-215"/>
<text text-anchor="start" x="503.5" y="-223.2" font-family="Helvetica,sans-Serif" font-size="11.00">uuid[2147483647]</text>
<polygon fill="#ffffff" stroke="none" points="371.5,-197 371.5,-215 426.5,-215 426.5,-197 371.5,-197"/>
<polygon fill="none" stroke="black" points="371.5,-197 371.5,-215 426.5,-215 426.5,-197 371.5,-197"/>
<text text-anchor="start" x="374.5" y="-203.2" font-family="Helvetica,sans-Serif" font-size="11.00">&lt; 1</text>
<polygon fill="#ffffff" stroke="none" points="426.5,-197 426.5,-215 500.5,-215 500.5,-197 426.5,-197"/>
<polygon fill="none" stroke="black" points="426.5,-197 426.5,-215 500.5,-215 500.5,-197 426.5,-197"/>
<text text-anchor="start" x="461.5" y="-203.2" font-family="Helvetica,sans-Serif" font-size="11.00">0 rows</text>
<polygon fill="#ffffff" stroke="none" points="500.5,-197 500.5,-215 605.5,-215 605.5,-197 500.5,-197"/>
<polygon fill="none" stroke="black" points="500.5,-197 500.5,-215 605.5,-215 605.5,-197 500.5,-197"/>
<text text-anchor="start" x="585.5" y="-203.2" font-family="Helvetica,sans-Serif" font-size="11.00">0 &gt;</text>
<polygon fill="none" stroke="black" stroke-width="2" points="370.5,-196 370.5,-524 606.5,-524 606.5,-196 370.5,-196"/>
</a>
</g>
</g>
<!-- container_upload&#45;&gt;core_repository -->
<g id="edge8" class="edge"><title>container_upload:repository_id:w&#45;&gt;core_repository:pulp_id:e</title>
<path fill="none" stroke="black" d="M356.108,-229.743C281.879,-273.75 414.066,-691 315.5,-691"/>
<polygon fill="black" stroke="black" points="362.758,-228.014 371.406,-229.484 366.629,-227.007 370.5,-226 370.5,-226 370.5,-226 366.629,-227.007 369.594,-222.516 362.758,-228.014 362.758,-228.014"/>
<ellipse fill="none" stroke="black" cx="359.661" cy="-228.819" rx="3.2" ry="3.2"/>
</g>
<!-- core_pulpexporter_repositories -->
<g id="node9" class="node"><title>core_pulpexporter_repositories</title>
<g id="a_node9"><a xlink:href="../../tables/core_pulpexporter_repositories.html" xlink:title="core_pulpexporter_repositories" target="_top">
<polygon fill="#ffffff" stroke="none" points="375,-116 375,-174 602,-174 602,-116 375,-116"/>
<polygon fill="#f5f5f5" stroke="none" points="375.5,-152 375.5,-174 602.5,-174 602.5,-152 375.5,-152"/>
<polygon fill="none" stroke="black" points="375.5,-152 375.5,-174 602.5,-174 602.5,-152 375.5,-152"/>
<text text-anchor="start" x="380.5" y="-161.2" font-family="Helvetica,sans-Serif" font-weight="bold" font-size="11.00">core_pulpexporter_repositories</text>
<text text-anchor="start" x="563.5" y="-160.2" font-family="Helvetica,sans-Serif" font-size="11.00">[table]</text>
<polygon fill="none" stroke="black" points="375.5,-134 375.5,-152 602.5,-152 602.5,-134 375.5,-134"/>
<text text-anchor="start" x="378.5" y="-140.2" font-family="Helvetica,sans-Serif" font-size="11.00">...</text>
<polygon fill="#ffffff" stroke="none" points="375.5,-116 375.5,-134 472.5,-134 472.5,-116 375.5,-116"/>
<polygon fill="none" stroke="black" points="375.5,-116 375.5,-134 472.5,-134 472.5,-116 375.5,-116"/>
<text text-anchor="start" x="378.5" y="-122.2" font-family="Helvetica,sans-Serif" font-size="11.00">&lt; 2</text>
<polygon fill="#ffffff" stroke="none" points="472.5,-116 472.5,-134 551.5,-134 551.5,-116 472.5,-116"/>
<polygon fill="none" stroke="black" points="472.5,-116 472.5,-134 551.5,-134 551.5,-116 472.5,-116"/>
<text text-anchor="start" x="512.5" y="-122.2" font-family="Helvetica,sans-Serif" font-size="11.00">0 rows</text>
<polygon fill="#ffffff" stroke="none" points="551.5,-116 551.5,-134 602.5,-134 602.5,-116 551.5,-116"/>
<polygon fill="none" stroke="black" points="551.5,-116 551.5,-134 602.5,-134 602.5,-116 551.5,-116"/>
<text text-anchor="start" x="592.5" y="-122.2" font-family="Helvetica,sans-Serif" font-size="11.00"> &#160;</text>
</a>
</g>
</g>
<!-- core_pulpexporter_repositories&#45;&gt;core_repository -->
<g id="edge9" class="edge"><title>core_pulpexporter_repositories:elipses:w&#45;&gt;core_repository:pulp_id:e</title>
<path fill="none" stroke="black" d="M362.823,-151.608C321.995,-221.325 372.196,-691 315.5,-691"/>
<polygon fill="black" stroke="black" points="368.061,-147.747 376.636,-145.898 371.28,-145.374 374.5,-143 374.5,-143 374.5,-143 371.28,-145.374 372.364,-140.102 368.061,-147.747 368.061,-147.747"/>
<ellipse fill="none" stroke="black" cx="365.485" cy="-149.646" rx="3.20001" ry="3.20001"/>
</g>
<!-- core_pulpimporterrepository -->
<g id="node10" class="node"><title>core_pulpimporterrepository</title>
<g id="a_node10"><a xlink:href="../../tables/core_pulpimporterrepository.html" xlink:title="core_pulpimporterrepository" target="_top">
<polygon fill="#ffffff" stroke="none" points="381,-37 381,-95 596,-95 596,-37 381,-37"/>
<polygon fill="#f5f5f5" stroke="none" points="381.5,-73 381.5,-95 596.5,-95 596.5,-73 381.5,-73"/>
<polygon fill="none" stroke="black" points="381.5,-73 381.5,-95 596.5,-95 596.5,-73 381.5,-73"/>
<text text-anchor="start" x="386.5" y="-82.2" font-family="Helvetica,sans-Serif" font-weight="bold" font-size="11.00">core_pulpimporterrepository</text>
<text text-anchor="start" x="557.5" y="-81.2" font-family="Helvetica,sans-Serif" font-size="11.00">[table]</text>
<polygon fill="none" stroke="black" points="381.5,-55 381.5,-73 596.5,-73 596.5,-55 381.5,-55"/>
<text text-anchor="start" x="384.5" y="-61.2" font-family="Helvetica,sans-Serif" font-size="11.00">...</text>
<polygon fill="#ffffff" stroke="none" points="381.5,-37 381.5,-55 472.5,-55 472.5,-37 381.5,-37"/>
<polygon fill="none" stroke="black" points="381.5,-37 381.5,-55 472.5,-55 472.5,-37 381.5,-37"/>
<text text-anchor="start" x="384.5" y="-43.2" font-family="Helvetica,sans-Serif" font-size="11.00">&lt; 2</text>
<polygon fill="#ffffff" stroke="none" points="472.5,-37 472.5,-55 548.5,-55 548.5,-37 472.5,-37"/>
<polygon fill="none" stroke="black" points="472.5,-37 472.5,-55 548.5,-55 548.5,-37 472.5,-37"/>
<text text-anchor="start" x="509.5" y="-43.2" font-family="Helvetica,sans-Serif" font-size="11.00">0 rows</text>
<polygon fill="#ffffff" stroke="none" points="548.5,-37 548.5,-55 596.5,-55 596.5,-37 548.5,-37"/>
<polygon fill="none" stroke="black" points="548.5,-37 548.5,-55 596.5,-55 596.5,-37 548.5,-37"/>
<text text-anchor="start" x="586.5" y="-43.2" font-family="Helvetica,sans-Serif" font-size="11.00"> &#160;</text>
</a>
</g>
</g>
<!-- core_pulpimporterrepository&#45;&gt;core_repository -->
<g id="edge10" class="edge"><title>core_pulpimporterrepository:elipses:w&#45;&gt;core_repository:pulp_id:e</title>
<path fill="none" stroke="black" d="M366.867,-68.898C359.747,-76.2036 359.629,-90.6393 355,-105 334.977,-167.111 380.759,-691 315.5,-691"/>
<polygon fill="black" stroke="black" points="372.971,-66.7051 381.717,-67.388 376.736,-65.3525 380.5,-64 380.5,-64 380.5,-64 376.736,-65.3525 379.283,-60.612 372.971,-66.7051 372.971,-66.7051"/>
<ellipse fill="none" stroke="black" cx="369.96" cy="-67.7871" rx="3.20001" ry="3.20001"/>
</g>
<!-- core_repositorycontent -->
<g id="node12" class="node"><title>core_repositorycontent</title>
<g id="a_node12"><a xlink:href="../../tables/core_repositorycontent.html" xlink:title="core_repositorycontent" target="_top">
<polygon fill="#ffffff" stroke="none" points="688.5,-759 688.5,-817 870.5,-817 870.5,-759 688.5,-759"/>
<polygon fill="#f5f5f5" stroke="none" points="688.5,-795 688.5,-817 870.5,-817 870.5,-795 688.5,-795"/>
<polygon fill="none" stroke="black" points="688.5,-795 688.5,-817 870.5,-817 870.5,-795 688.5,-795"/>
<text text-anchor="start" x="693.5" y="-804.2" font-family="Helvetica,sans-Serif" font-weight="bold" font-size="11.00">core_repositorycontent</text>
<text text-anchor="start" x="831.5" y="-803.2" font-family="Helvetica,sans-Serif" font-size="11.00">[table]</text>
<polygon fill="none" stroke="black" points="688.5,-777 688.5,-795 870.5,-795 870.5,-777 688.5,-777"/>
<text text-anchor="start" x="691.5" y="-783.2" font-family="Helvetica,sans-Serif" font-size="11.00">...</text>
<polygon fill="#ffffff" stroke="none" points="688.5,-759 688.5,-777 756.5,-777 756.5,-759 688.5,-759"/>
<polygon fill="none" stroke="black" points="688.5,-759 688.5,-777 756.5,-777 756.5,-759 688.5,-759"/>
<text text-anchor="start" x="691.5" y="-765.2" font-family="Helvetica,sans-Serif" font-size="11.00">&lt; 4</text>
<polygon fill="#ffffff" stroke="none" points="756.5,-759 756.5,-777 834.5,-777 834.5,-759 756.5,-759"/>
<polygon fill="none" stroke="black" points="756.5,-759 756.5,-777 834.5,-777 834.5,-759 756.5,-759"/>
<text text-anchor="start" x="782.5" y="-765.2" font-family="Helvetica,sans-Serif" font-size="11.00">786 rows</text>
<polygon fill="#ffffff" stroke="none" points="834.5,-759 834.5,-777 870.5,-777 870.5,-759 834.5,-759"/>
<polygon fill="none" stroke="black" points="834.5,-759 834.5,-777 870.5,-777 870.5,-759 834.5,-759"/>
<text text-anchor="start" x="860.5" y="-765.2" font-family="Helvetica,sans-Serif" font-size="11.00"> &#160;</text>
</a>
</g>
</g>
<!-- core_repositorycontent&#45;&gt;core_repository -->
<g id="edge12" class="edge"><title>core_repositorycontent:elipses:w&#45;&gt;core_repository:pulp_id:e</title>
<path fill="none" stroke="black" d="M673.033,-786.273C590.596,-789.041 413.15,-811.138 355,-773 321.174,-750.815 355.952,-691 315.5,-691"/>
<polygon fill="black" stroke="black" points="679.501,-786.151 687.568,-789.599 683.501,-786.076 687.5,-786 687.5,-786 687.5,-786 683.501,-786.076 687.432,-782.401 679.501,-786.151 679.501,-786.151"/>
<ellipse fill="none" stroke="black" cx="676.302" cy="-786.211" rx="3.2" ry="3.2"/>
</g>
<!-- core_repositorycontent&#45;&gt;core_repositoryversion -->
<g id="edge13" class="edge"><title>core_repositorycontent:elipses:w&#45;&gt;core_repositoryversion:elipses:e</title>
<path fill="none" stroke="black" d="M673.062,-785.803C633.543,-789.714 627.295,-831.598 579.5,-837"/>
<polygon fill="black" stroke="black" points="679.501,-785.891 687.451,-789.6 683.5,-785.945 687.5,-786 687.5,-786 687.5,-786 683.5,-785.945 687.549,-782.4 679.501,-785.891 679.501,-785.891"/>
<ellipse fill="none" stroke="black" cx="676.301" cy="-785.847" rx="3.2" ry="3.2"/>
</g>
<!-- core_repositorycontent&#45;&gt;core_repositoryversion -->
<g id="edge14" class="edge"><title>core_repositorycontent:elipses:w&#45;&gt;core_repositoryversion:elipses:e</title>
<path fill="none" stroke="black" d="M673.319,-789.215C633.57,-802.408 627.399,-843.316 579.5,-837"/>
<polygon fill="black" stroke="black" points="679.698,-787.769 688.296,-789.511 683.599,-786.884 687.5,-786 687.5,-786 687.5,-786 683.599,-786.884 686.704,-782.489 679.698,-787.769 679.698,-787.769"/>
<ellipse fill="none" stroke="black" cx="676.577" cy="-788.476" rx="3.2" ry="3.2"/>
</g>
</g>
</svg>
