<?xml version="1.0" encoding="UTF-8" standalone="no"?>
<!DOCTYPE svg PUBLIC "-//W3C//DTD SVG 1.1//EN"
 "http://www.w3.org/Graphics/SVG/1.1/DTD/svg11.dtd">
<!-- Generated by graphviz version 2.38.0 (20140413.2041)
 -->
<!-- Title: oneDegreeRelationshipsDiagram Pages: 1 -->
<svg width="551pt" height="340pt"
 viewBox="0.00 0.00 551.00 340.00" xmlns="http://www.w3.org/2000/svg" xmlns:xlink="http://www.w3.org/1999/xlink">
<g id="graph0" class="graph" transform="scale(1 1) rotate(0) translate(4 336)">
<title>oneDegreeRelationshipsDiagram</title>
<polygon fill="#ffffff" stroke="none" points="-4,4 -4,-336 547,-336 547,4 -4,4"/>
<text text-anchor="middle" x="74.5" y="-7.2" font-family="Helvetica,sans-Serif" font-size="11.00">Generated by SchemaSpy</text>
<!-- container_manifestlistmanifest -->
<g id="node1" class="node"><title>container_manifestlistmanifest</title>
<g id="a_node1"><a xlink:href="../../tables/container_manifestlistmanifest.html" xlink:title="container_manifestlistmanifest" target="_top">
<polygon fill="#ffffff" stroke="none" points="217,-86 217,-328 535,-328 535,-86 217,-86"/>
<polygon fill="#f5f5f5" stroke="none" points="219,-304 219,-326 533,-326 533,-304 219,-304"/>
<polygon fill="none" stroke="black" points="219,-304 219,-326 533,-326 533,-304 219,-304"/>
<text text-anchor="start" x="224" y="-313.2" font-family="Helvetica,sans-Serif" font-weight="bold" font-size="11.00">container_manifestlistmanifest</text>
<text text-anchor="start" x="494" y="-312.2" font-family="Helvetica,sans-Serif" font-size="11.00">[table]</text>
<polygon fill="none" stroke="black" points="219,-282 219,-304 428,-304 428,-282 219,-282"/>
<image xlink:href="../../images/primaryKeys.png" width="11px" height="12px" preserveAspectRatio="xMinYMin meet" x="224" y="-299"/>
<text text-anchor="start" x="239" y="-290.2" font-family="Helvetica,sans-Serif" font-size="11.00">id</text>
<polygon fill="none" stroke="black" points="428,-282 428,-304 533,-304 533,-282 428,-282"/>
<text text-anchor="start" x="431" y="-290.2" font-family="Helvetica,sans-Serif" font-size="11.00">serial[10]</text>
<polygon fill="none" stroke="black" points="219,-260 219,-282 428,-282 428,-260 219,-260"/>
<text text-anchor="start" x="239" y="-268.2" font-family="Helvetica,sans-Serif" font-size="11.00">architecture</text>
<polygon fill="none" stroke="black" points="428,-260 428,-282 533,-282 533,-260 428,-260"/>
<text text-anchor="start" x="431" y="-268.2" font-family="Helvetica,sans-Serif" font-size="11.00">varchar[255]</text>
<polygon fill="none" stroke="black" points="219,-238 219,-260 428,-260 428,-238 219,-238"/>
<text text-anchor="start" x="239" y="-246.2" font-family="Helvetica,sans-Serif" font-size="11.00">os</text>
<polygon fill="none" stroke="black" points="428,-238 428,-260 533,-260 533,-238 428,-238"/>
<text text-anchor="start" x="431" y="-246.2" font-family="Helvetica,sans-Serif" font-size="11.00">varchar[255]</text>
<polygon fill="none" stroke="black" points="219,-216 219,-238 428,-238 428,-216 219,-216"/>
<text text-anchor="start" x="239" y="-224.2" font-family="Helvetica,sans-Serif" font-size="11.00">os_version</text>
<polygon fill="none" stroke="black" points="428,-216 428,-238 533,-238 533,-216 428,-216"/>
<text text-anchor="start" x="431" y="-224.2" font-family="Helvetica,sans-Serif" font-size="11.00">varchar[255]</text>
<polygon fill="none" stroke="black" points="219,-194 219,-216 428,-216 428,-194 219,-194"/>
<text text-anchor="start" x="239" y="-202.2" font-family="Helvetica,sans-Serif" font-size="11.00">os_features</text>
<polygon fill="none" stroke="black" points="428,-194 428,-216 533,-216 533,-194 428,-194"/>
<text text-anchor="start" x="431" y="-202.2" font-family="Helvetica,sans-Serif" font-size="11.00">text[2147483647]</text>
<polygon fill="none" stroke="black" points="219,-172 219,-194 428,-194 428,-172 219,-172"/>
<text text-anchor="start" x="239" y="-180.2" font-family="Helvetica,sans-Serif" font-size="11.00">features</text>
<polygon fill="none" stroke="black" points="428,-172 428,-194 533,-194 533,-172 428,-172"/>
<text text-anchor="start" x="431" y="-180.2" font-family="Helvetica,sans-Serif" font-size="11.00">text[2147483647]</text>
<polygon fill="none" stroke="black" points="219,-150 219,-172 428,-172 428,-150 219,-150"/>
<text text-anchor="start" x="239" y="-158.2" font-family="Helvetica,sans-Serif" font-size="11.00">variant</text>
<polygon fill="none" stroke="black" points="428,-150 428,-172 533,-172 533,-150 428,-150"/>
<text text-anchor="start" x="431" y="-158.2" font-family="Helvetica,sans-Serif" font-size="11.00">varchar[255]</text>
<polygon fill="#ffffff" stroke="none" points="219,-128 219,-150 428,-150 428,-128 219,-128"/>
<polygon fill="none" stroke="black" points="219,-128 219,-150 428,-150 428,-128 219,-128"/>
<image xlink:href="../../images/foreignKeys.png" width="11px" height="12px" preserveAspectRatio="xMinYMin meet" x="224" y="-145"/>
<text text-anchor="start" x="239" y="-136.2" font-family="Helvetica,sans-Serif" font-size="11.00">image_manifest_id</text>
<polygon fill="none" stroke="black" points="428,-128 428,-150 533,-150 533,-128 428,-128"/>
<text text-anchor="start" x="431" y="-136.2" font-family="Helvetica,sans-Serif" font-size="11.00">uuid[2147483647]</text>
<polygon fill="#ffffff" stroke="none" points="219,-106 219,-128 428,-128 428,-106 219,-106"/>
<polygon fill="none" stroke="black" points="219,-106 219,-128 428,-128 428,-106 219,-106"/>
<image xlink:href="../../images/foreignKeys.png" width="11px" height="12px" preserveAspectRatio="xMinYMin meet" x="224" y="-123"/>
<text text-anchor="start" x="239" y="-114.2" font-family="Helvetica,sans-Serif" font-size="11.00">manifest_list_id</text>
<polygon fill="none" stroke="black" points="428,-106 428,-128 533,-128 533,-106 428,-106"/>
<text text-anchor="start" x="431" y="-114.2" font-family="Helvetica,sans-Serif" font-size="11.00">uuid[2147483647]</text>
<polygon fill="#ffffff" stroke="none" points="219,-88 219,-106 314,-106 314,-88 219,-88"/>
<polygon fill="none" stroke="black" points="219,-88 219,-106 314,-106 314,-88 219,-88"/>
<text text-anchor="start" x="222" y="-94.2" font-family="Helvetica,sans-Serif" font-size="11.00">&lt; 2</text>
<polygon fill="#ffffff" stroke="none" points="314,-88 314,-106 428,-106 428,-88 314,-88"/>
<polygon fill="none" stroke="black" points="314,-88 314,-106 428,-106 428,-88 314,-88"/>
<text text-anchor="start" x="389" y="-94.2" font-family="Helvetica,sans-Serif" font-size="11.00">0 rows</text>
<polygon fill="#ffffff" stroke="none" points="428,-88 428,-106 533,-106 533,-88 428,-88"/>
<polygon fill="none" stroke="black" points="428,-88 428,-106 533,-106 533,-88 428,-88"/>
<text text-anchor="start" x="513" y="-94.2" font-family="Helvetica,sans-Serif" font-size="11.00">0 &gt;</text>
<polygon fill="none" stroke="black" stroke-width="2" points="218,-87 218,-327 534,-327 534,-87 218,-87"/>
</a>
</g>
</g>
<!-- container_manifest -->
<g id="node2" class="node"><title>container_manifest</title>
<g id="a_node2"><a xlink:href="../../tables/container_manifest.html" xlink:title="container_manifest" target="_top">
<polygon fill="#ffffff" stroke="none" points="8,-37 8,-161 168,-161 168,-37 8,-37"/>
<polygon fill="#f5f5f5" stroke="none" points="8,-139 8,-161 168,-161 168,-139 8,-139"/>
<polygon fill="none" stroke="black" points="8,-139 8,-161 168,-161 168,-139 8,-139"/>
<text text-anchor="start" x="13" y="-148.2" font-family="Helvetica,sans-Serif" font-weight="bold" font-size="11.00">container_manifest</text>
<text text-anchor="start" x="129" y="-147.2" font-family="Helvetica,sans-Serif" font-size="11.00">[table]</text>
<polygon fill="none" stroke="black" points="8,-117 8,-139 168,-139 168,-117 8,-117"/>
<image xlink:href="../../images/primaryKeys.png" width="11px" height="12px" preserveAspectRatio="xMinYMin meet" x="13" y="-134"/>
<text text-anchor="start" x="40" y="-125.2" font-family="Helvetica,sans-Serif" font-size="11.00">content_ptr_id</text>
<polygon fill="#ffffff" stroke="none" points="8,-95 8,-117 168,-117 168,-95 8,-95"/>
<polygon fill="none" stroke="black" points="8,-95 8,-117 168,-117 168,-95 8,-95"/>
<text text-anchor="start" x="40" y="-103.2" font-family="Helvetica,sans-Serif" font-size="11.00">digest</text>
<polygon fill="#ffffff" stroke="none" points="8,-73 8,-95 168,-95 168,-73 8,-73"/>
<polygon fill="none" stroke="black" points="8,-73 8,-95 168,-95 168,-73 8,-73"/>
<image xlink:href="../../images/foreignKeys.png" width="11px" height="12px" preserveAspectRatio="xMinYMin meet" x="13" y="-90"/>
<text text-anchor="start" x="40" y="-81.2" font-family="Helvetica,sans-Serif" font-size="11.00">config_blob_id</text>
<polygon fill="none" stroke="black" points="8,-55 8,-73 168,-73 168,-55 8,-55"/>
<text text-anchor="start" x="11" y="-61.2" font-family="Helvetica,sans-Serif" font-size="11.00">...</text>
<polygon fill="#ffffff" stroke="none" points="8,-37 8,-55 67,-55 67,-37 8,-37"/>
<polygon fill="none" stroke="black" points="8,-37 8,-55 67,-55 67,-37 8,-37"/>
<text text-anchor="start" x="11" y="-43.2" font-family="Helvetica,sans-Serif" font-size="11.00">&lt; 2</text>
<polygon fill="#ffffff" stroke="none" points="67,-37 67,-55 127,-55 127,-37 67,-37"/>
<polygon fill="none" stroke="black" points="67,-37 67,-55 127,-55 127,-37 67,-37"/>
<text text-anchor="start" x="88" y="-43.2" font-family="Helvetica,sans-Serif" font-size="11.00">0 rows</text>
<polygon fill="#ffffff" stroke="none" points="127,-37 127,-55 168,-55 168,-37 127,-37"/>
<polygon fill="none" stroke="black" points="127,-37 127,-55 168,-55 168,-37 127,-37"/>
<text text-anchor="start" x="148" y="-43.2" font-family="Helvetica,sans-Serif" font-size="11.00">4 &gt;</text>
</a>
</g>
</g>
<!-- container_manifestlistmanifest&#45;&gt;container_manifest -->
<g id="edge1" class="edge"><title>container_manifestlistmanifest:image_manifest_id:w&#45;&gt;container_manifest:content_ptr_id:e</title>
<path fill="none" stroke="black" d="M203.703,-137.184C192.238,-134.059 185.565,-128 169,-128"/>
<polygon fill="black" stroke="black" points="210.064,-137.992 217.546,-142.571 214.032,-138.496 218,-139 218,-139 218,-139 214.032,-138.496 218.454,-135.429 210.064,-137.992 210.064,-137.992"/>
<ellipse fill="none" stroke="black" cx="206.889" cy="-137.588" rx="3.2" ry="3.2"/>
</g>
<!-- container_manifestlistmanifest&#45;&gt;container_manifest -->
<g id="edge2" class="edge"><title>container_manifestlistmanifest:manifest_list_id:w&#45;&gt;container_manifest:content_ptr_id:e</title>
<path fill="none" stroke="black" d="M203.703,-118.816C192.238,-121.941 185.565,-128 169,-128"/>
<polygon fill="black" stroke="black" points="210.064,-118.008 218.454,-120.571 214.032,-117.504 218,-117 218,-117 218,-117 214.032,-117.504 217.546,-113.429 210.064,-118.008 210.064,-118.008"/>
<ellipse fill="none" stroke="black" cx="206.889" cy="-118.412" rx="3.2" ry="3.2"/>
</g>
</g>
</svg>
