<?xml version="1.0" encoding="UTF-8" standalone="no"?>
<!DOCTYPE svg PUBLIC "-//W3C//DTD SVG 1.1//EN"
 "http://www.w3.org/Graphics/SVG/1.1/DTD/svg11.dtd">
<!-- Generated by graphviz version 2.38.0 (20140413.2041)
 -->
<!-- Title: twoDegreesRelationshipsDiagram Pages: 1 -->
<svg width="968pt" height="600pt"
 viewBox="0.00 0.00 968.00 600.00" xmlns="http://www.w3.org/2000/svg" xmlns:xlink="http://www.w3.org/1999/xlink">
<g id="graph0" class="graph" transform="scale(1 1) rotate(0) translate(4 596)">
<title>twoDegreesRelationshipsDiagram</title>
<polygon fill="#ffffff" stroke="none" points="-4,4 -4,-596 964,-596 964,4 -4,4"/>
<text text-anchor="middle" x="74.5" y="-7.2" font-family="Helvetica,sans-Serif" font-size="11.00">Generated by SchemaSpy</text>
<!-- ansible_collectionversion -->
<g id="node1" class="node"><title>ansible_collectionversion</title>
<g id="a_node1"><a xlink:href="../../tables/ansible_collectionversion.html" xlink:title="ansible_collectionversion" target="_top">
<polygon fill="#ffffff" stroke="none" points="186,-530 186,-588 379,-588 379,-530 186,-530"/>
<polygon fill="#f5f5f5" stroke="none" points="186.5,-566 186.5,-588 379.5,-588 379.5,-566 186.5,-566"/>
<polygon fill="none" stroke="black" points="186.5,-566 186.5,-588 379.5,-588 379.5,-566 186.5,-566"/>
<text text-anchor="start" x="191.5" y="-575.2" font-family="Helvetica,sans-Serif" font-weight="bold" font-size="11.00">ansible_collectionversion</text>
<text text-anchor="start" x="340.5" y="-574.2" font-family="Helvetica,sans-Serif" font-size="11.00">[table]</text>
<polygon fill="none" stroke="black" points="186.5,-548 186.5,-566 379.5,-566 379.5,-548 186.5,-548"/>
<text text-anchor="start" x="189.5" y="-554.2" font-family="Helvetica,sans-Serif" font-size="11.00">...</text>
<polygon fill="#ffffff" stroke="none" points="186.5,-530 186.5,-548 258.5,-548 258.5,-530 186.5,-530"/>
<polygon fill="none" stroke="black" points="186.5,-530 186.5,-548 258.5,-548 258.5,-530 186.5,-530"/>
<text text-anchor="start" x="189.5" y="-536.2" font-family="Helvetica,sans-Serif" font-size="11.00">&lt; 2</text>
<polygon fill="#ffffff" stroke="none" points="258.5,-530 258.5,-548 331.5,-548 331.5,-530 258.5,-530"/>
<polygon fill="none" stroke="black" points="258.5,-530 258.5,-548 331.5,-548 331.5,-530 258.5,-530"/>
<text text-anchor="start" x="285.5" y="-536.2" font-family="Helvetica,sans-Serif" font-size="11.00">88 rows</text>
<polygon fill="#ffffff" stroke="none" points="331.5,-530 331.5,-548 379.5,-548 379.5,-530 331.5,-530"/>
<polygon fill="none" stroke="black" points="331.5,-530 331.5,-548 379.5,-548 379.5,-530 331.5,-530"/>
<text text-anchor="start" x="359.5" y="-536.2" font-family="Helvetica,sans-Serif" font-size="11.00">1 &gt;</text>
</a>
</g>
</g>
<!-- core_content -->
<g id="node2" class="node"><title>core_content</title>
<g id="a_node2"><a xlink:href="../../tables/core_content.html" xlink:title="core_content" target="_top">
<polygon fill="#ffffff" stroke="none" points="8,-276 8,-356 137,-356 137,-276 8,-276"/>
<polygon fill="#f5f5f5" stroke="none" points="8.5,-334 8.5,-356 137.5,-356 137.5,-334 8.5,-334"/>
<polygon fill="none" stroke="black" points="8.5,-334 8.5,-356 137.5,-356 137.5,-334 8.5,-334"/>
<text text-anchor="start" x="13.5" y="-343.2" font-family="Helvetica,sans-Serif" font-weight="bold" font-size="11.00">core_content</text>
<text text-anchor="start" x="98.5" y="-342.2" font-family="Helvetica,sans-Serif" font-size="11.00">[table]</text>
<polygon fill="none" stroke="black" points="8.5,-312 8.5,-334 137.5,-334 137.5,-312 8.5,-312"/>
<image xlink:href="../../images/primaryKeys.png" width="11px" height="12px" preserveAspectRatio="xMinYMin meet" x="13.5" y="-329"/>
<text text-anchor="start" x="28.5" y="-320.2" font-family="Helvetica,sans-Serif" font-size="11.00">pulp_id</text>
<polygon fill="none" stroke="black" points="8.5,-294 8.5,-312 137.5,-312 137.5,-294 8.5,-294"/>
<text text-anchor="start" x="11.5" y="-300.2" font-family="Helvetica,sans-Serif" font-size="11.00">...</text>
<polygon fill="#ffffff" stroke="none" points="8.5,-276 8.5,-294 43.5,-294 43.5,-276 8.5,-276"/>
<polygon fill="none" stroke="black" points="8.5,-276 8.5,-294 43.5,-294 43.5,-276 8.5,-276"/>
<text text-anchor="start" x="11.5" y="-282.2" font-family="Helvetica,sans-Serif" font-size="11.00"> &#160;</text>
<polygon fill="#ffffff" stroke="none" points="43.5,-276 43.5,-294 103.5,-294 103.5,-276 43.5,-276"/>
<polygon fill="none" stroke="black" points="43.5,-276 43.5,-294 103.5,-294 103.5,-276 43.5,-276"/>
<text text-anchor="start" x="57.5" y="-282.2" font-family="Helvetica,sans-Serif" font-size="11.00">88 rows</text>
<polygon fill="#ffffff" stroke="none" points="103.5,-276 103.5,-294 137.5,-294 137.5,-276 103.5,-276"/>
<polygon fill="none" stroke="black" points="103.5,-276 103.5,-294 137.5,-294 137.5,-276 103.5,-276"/>
<text text-anchor="start" x="117.5" y="-282.2" font-family="Helvetica,sans-Serif" font-size="11.00">8 &gt;</text>
</a>
</g>
</g>
<!-- ansible_collectionversion&#45;&gt;core_content -->
<g id="edge1" class="edge"><title>ansible_collectionversion:elipses:w&#45;&gt;core_content:pulp_id:e</title>
<path fill="none" stroke="black" d="M175.038,-556.106C91.0038,-540.395 240.744,-323 138.5,-323"/>
<polygon fill="black" stroke="black" points="185.044,-552.946 184.362,-560.917 182.768,-560.781 183.449,-552.81 185.044,-552.946"/>
<polyline fill="none" stroke="black" points="185.5,-557 181.515,-556.659 "/>
<ellipse fill="none" stroke="black" cx="178.326" cy="-556.387" rx="3.2" ry="3.2"/>
</g>
<!-- ansible_role -->
<g id="node3" class="node"><title>ansible_role</title>
<g id="a_node3"><a xlink:href="../../tables/ansible_role.html" xlink:title="ansible_role" target="_top">
<polygon fill="#ffffff" stroke="none" points="224,-451 224,-509 341,-509 341,-451 224,-451"/>
<polygon fill="#f5f5f5" stroke="none" points="224.5,-487 224.5,-509 341.5,-509 341.5,-487 224.5,-487"/>
<polygon fill="none" stroke="black" points="224.5,-487 224.5,-509 341.5,-509 341.5,-487 224.5,-487"/>
<text text-anchor="start" x="229.5" y="-496.2" font-family="Helvetica,sans-Serif" font-weight="bold" font-size="11.00">ansible_role</text>
<text text-anchor="start" x="302.5" y="-495.2" font-family="Helvetica,sans-Serif" font-size="11.00">[table]</text>
<polygon fill="none" stroke="black" points="224.5,-469 224.5,-487 341.5,-487 341.5,-469 224.5,-469"/>
<text text-anchor="start" x="227.5" y="-475.2" font-family="Helvetica,sans-Serif" font-size="11.00">...</text>
<polygon fill="#ffffff" stroke="none" points="224.5,-451 224.5,-469 266.5,-469 266.5,-451 224.5,-451"/>
<polygon fill="none" stroke="black" points="224.5,-451 224.5,-469 266.5,-469 266.5,-451 224.5,-451"/>
<text text-anchor="start" x="227.5" y="-457.2" font-family="Helvetica,sans-Serif" font-size="11.00">&lt; 1</text>
<polygon fill="#ffffff" stroke="none" points="266.5,-451 266.5,-469 318.5,-469 318.5,-451 266.5,-451"/>
<polygon fill="none" stroke="black" points="266.5,-451 266.5,-469 318.5,-469 318.5,-451 266.5,-451"/>
<text text-anchor="start" x="279.5" y="-457.2" font-family="Helvetica,sans-Serif" font-size="11.00">0 rows</text>
<polygon fill="#ffffff" stroke="none" points="318.5,-451 318.5,-469 341.5,-469 341.5,-451 318.5,-451"/>
<polygon fill="none" stroke="black" points="318.5,-451 318.5,-469 341.5,-469 341.5,-451 318.5,-451"/>
<text text-anchor="start" x="331.5" y="-457.2" font-family="Helvetica,sans-Serif" font-size="11.00"> &#160;</text>
</a>
</g>
</g>
<!-- ansible_role&#45;&gt;core_content -->
<g id="edge2" class="edge"><title>ansible_role:elipses:w&#45;&gt;core_content:pulp_id:e</title>
<path fill="none" stroke="black" d="M212.846,-476.835C195.058,-472.467 190.809,-456.32 178,-437 148.369,-392.308 192.122,-323 138.5,-323"/>
<polygon fill="black" stroke="black" points="223.14,-473.937 222.27,-481.889 220.679,-481.715 221.549,-473.763 223.14,-473.937"/>
<polyline fill="none" stroke="black" points="223.5,-478 219.524,-477.565 "/>
<ellipse fill="none" stroke="black" cx="216.343" cy="-477.217" rx="3.2" ry="3.2"/>
</g>
<!-- container_blob -->
<g id="node4" class="node"><title>container_blob</title>
<g id="a_node4"><a xlink:href="../../tables/container_blob.html" xlink:title="container_blob" target="_top">
<polygon fill="#ffffff" stroke="none" points="215.5,-301 215.5,-403 349.5,-403 349.5,-301 215.5,-301"/>
<polygon fill="#f5f5f5" stroke="none" points="215.5,-381 215.5,-403 349.5,-403 349.5,-381 215.5,-381"/>
<polygon fill="none" stroke="black" points="215.5,-381 215.5,-403 349.5,-403 349.5,-381 215.5,-381"/>
<text text-anchor="start" x="220.5" y="-390.2" font-family="Helvetica,sans-Serif" font-weight="bold" font-size="11.00">container_blob</text>
<text text-anchor="start" x="310.5" y="-389.2" font-family="Helvetica,sans-Serif" font-size="11.00">[table]</text>
<polygon fill="none" stroke="black" points="215.5,-359 215.5,-381 349.5,-381 349.5,-359 215.5,-359"/>
<image xlink:href="../../images/primaryKeys.png" width="11px" height="12px" preserveAspectRatio="xMinYMin meet" x="220.5" y="-376"/>
<text text-anchor="start" x="247.5" y="-367.2" font-family="Helvetica,sans-Serif" font-size="11.00">content_ptr_id</text>
<polygon fill="#ffffff" stroke="none" points="215.5,-337 215.5,-359 349.5,-359 349.5,-337 215.5,-337"/>
<polygon fill="none" stroke="black" points="215.5,-337 215.5,-359 349.5,-359 349.5,-337 215.5,-337"/>
<text text-anchor="start" x="247.5" y="-345.2" font-family="Helvetica,sans-Serif" font-size="11.00">digest</text>
<polygon fill="none" stroke="black" points="215.5,-319 215.5,-337 349.5,-337 349.5,-319 215.5,-319"/>
<text text-anchor="start" x="218.5" y="-325.2" font-family="Helvetica,sans-Serif" font-size="11.00">...</text>
<polygon fill="#ffffff" stroke="none" points="215.5,-301 215.5,-319 261.5,-319 261.5,-301 215.5,-301"/>
<polygon fill="none" stroke="black" points="215.5,-301 215.5,-319 261.5,-319 261.5,-301 215.5,-301"/>
<text text-anchor="start" x="218.5" y="-307.2" font-family="Helvetica,sans-Serif" font-size="11.00">&lt; 1</text>
<polygon fill="#ffffff" stroke="none" points="261.5,-301 261.5,-319 314.5,-319 314.5,-301 261.5,-301"/>
<polygon fill="none" stroke="black" points="261.5,-301 261.5,-319 314.5,-319 314.5,-301 261.5,-301"/>
<text text-anchor="start" x="275.5" y="-307.2" font-family="Helvetica,sans-Serif" font-size="11.00">0 rows</text>
<polygon fill="#ffffff" stroke="none" points="314.5,-301 314.5,-319 349.5,-319 349.5,-301 314.5,-301"/>
<polygon fill="none" stroke="black" points="314.5,-301 314.5,-319 349.5,-319 349.5,-301 314.5,-301"/>
<text text-anchor="start" x="329.5" y="-307.2" font-family="Helvetica,sans-Serif" font-size="11.00">2 &gt;</text>
</a>
</g>
</g>
<!-- container_blob&#45;&gt;core_content -->
<g id="edge3" class="edge"><title>container_blob:content_ptr_id:w&#45;&gt;core_content:pulp_id:e</title>
<path fill="none" stroke="black" d="M204.019,-368.743C175.043,-361.269 174.337,-323 138.5,-323"/>
<polygon fill="black" stroke="black" points="214.182,-365.933 213.229,-373.876 211.641,-373.686 212.593,-365.743 214.182,-365.933"/>
<polyline fill="none" stroke="black" points="214.5,-370 210.528,-369.524 "/>
<ellipse fill="none" stroke="black" cx="207.351" cy="-369.143" rx="3.2" ry="3.2"/>
</g>
<!-- container_blobmanifest -->
<g id="node5" class="node"><title>container_blobmanifest</title>
<g id="a_node5"><a xlink:href="../../tables/container_blobmanifest.html" xlink:title="container_blobmanifest" target="_top">
<polygon fill="#ffffff" stroke="none" points="745,-309 745,-415 930,-415 930,-309 745,-309"/>
<polygon fill="#f5f5f5" stroke="none" points="745.5,-393 745.5,-415 930.5,-415 930.5,-393 745.5,-393"/>
<polygon fill="none" stroke="black" points="745.5,-393 745.5,-415 930.5,-415 930.5,-393 745.5,-393"/>
<text text-anchor="start" x="750.5" y="-402.2" font-family="Helvetica,sans-Serif" font-weight="bold" font-size="11.00">container_blobmanifest</text>
<text text-anchor="start" x="891.5" y="-401.2" font-family="Helvetica,sans-Serif" font-size="11.00">[table]</text>
<polygon fill="none" stroke="black" points="745.5,-371 745.5,-393 930.5,-393 930.5,-371 745.5,-371"/>
<image xlink:href="../../images/primaryKeys.png" width="11px" height="12px" preserveAspectRatio="xMinYMin meet" x="750.5" y="-388"/>
<text text-anchor="start" x="776.5" y="-379.2" font-family="Helvetica,sans-Serif" font-size="11.00">id</text>
<polygon fill="#ffffff" stroke="none" points="745.5,-349 745.5,-371 930.5,-371 930.5,-349 745.5,-349"/>
<polygon fill="none" stroke="black" points="745.5,-349 745.5,-371 930.5,-371 930.5,-349 745.5,-349"/>
<image xlink:href="../../images/foreignKeys.png" width="11px" height="12px" preserveAspectRatio="xMinYMin meet" x="750.5" y="-366"/>
<text text-anchor="start" x="776.5" y="-357.2" font-family="Helvetica,sans-Serif" font-size="11.00">manifest_id</text>
<polygon fill="#ffffff" stroke="none" points="745.5,-327 745.5,-349 930.5,-349 930.5,-327 745.5,-327"/>
<polygon fill="none" stroke="black" points="745.5,-327 745.5,-349 930.5,-349 930.5,-327 745.5,-327"/>
<image xlink:href="../../images/foreignKeys.png" width="11px" height="12px" preserveAspectRatio="xMinYMin meet" x="750.5" y="-344"/>
<text text-anchor="start" x="776.5" y="-335.2" font-family="Helvetica,sans-Serif" font-size="11.00">manifest_blob_id</text>
<polygon fill="#ffffff" stroke="none" points="745.5,-309 745.5,-327 821.5,-327 821.5,-309 745.5,-309"/>
<polygon fill="none" stroke="black" points="745.5,-309 745.5,-327 821.5,-327 821.5,-309 745.5,-309"/>
<text text-anchor="start" x="748.5" y="-315.2" font-family="Helvetica,sans-Serif" font-size="11.00">&lt; 2</text>
<polygon fill="#ffffff" stroke="none" points="821.5,-309 821.5,-327 890.5,-327 890.5,-309 821.5,-309"/>
<polygon fill="none" stroke="black" points="821.5,-309 821.5,-327 890.5,-327 890.5,-309 821.5,-309"/>
<text text-anchor="start" x="851.5" y="-315.2" font-family="Helvetica,sans-Serif" font-size="11.00">0 rows</text>
<polygon fill="#ffffff" stroke="none" points="890.5,-309 890.5,-327 930.5,-327 930.5,-309 890.5,-309"/>
<polygon fill="none" stroke="black" points="890.5,-309 890.5,-327 930.5,-327 930.5,-309 890.5,-309"/>
<text text-anchor="start" x="920.5" y="-315.2" font-family="Helvetica,sans-Serif" font-size="11.00"> &#160;</text>
</a>
</g>
</g>
<!-- container_blobmanifest&#45;&gt;container_blob -->
<g id="edge4" class="edge"><title>container_blobmanifest:manifest_blob_id:w&#45;&gt;container_blob:content_ptr_id:e</title>
<path fill="none" stroke="black" d="M730.071,-337.907C597.481,-336.179 556.327,-311.395 420,-340 387.073,-346.909 384.144,-370 350.5,-370"/>
<polygon fill="black" stroke="black" points="736.5,-337.948 744.477,-341.6 740.5,-337.974 744.5,-338 744.5,-338 744.5,-338 740.5,-337.974 744.523,-334.4 736.5,-337.948 736.5,-337.948"/>
<ellipse fill="none" stroke="black" cx="733.3" cy="-337.927" rx="3.2" ry="3.2"/>
</g>
<!-- container_manifest -->
<g id="node6" class="node"><title>container_manifest</title>
<g id="a_node6"><a xlink:href="../../tables/container_manifest.html" xlink:title="container_manifest" target="_top">
<polygon fill="#ffffff" stroke="none" points="428,-350 428,-504 674,-504 674,-350 428,-350"/>
<polygon fill="#f5f5f5" stroke="none" points="430,-480 430,-502 672,-502 672,-480 430,-480"/>
<polygon fill="none" stroke="black" points="430,-480 430,-502 672,-502 672,-480 430,-480"/>
<text text-anchor="start" x="435" y="-489.2" font-family="Helvetica,sans-Serif" font-weight="bold" font-size="11.00">container_manifest</text>
<text text-anchor="start" x="633" y="-488.2" font-family="Helvetica,sans-Serif" font-size="11.00">[table]</text>
<polygon fill="none" stroke="black" points="430,-458 430,-480 567,-480 567,-458 430,-458"/>
<image xlink:href="../../images/primaryKeys.png" width="11px" height="12px" preserveAspectRatio="xMinYMin meet" x="435" y="-475"/>
<text text-anchor="start" x="450" y="-466.2" font-family="Helvetica,sans-Serif" font-size="11.00">content_ptr_id</text>
<polygon fill="none" stroke="black" points="567,-458 567,-480 672,-480 672,-458 567,-458"/>
<text text-anchor="start" x="570" y="-466.2" font-family="Helvetica,sans-Serif" font-size="11.00">uuid[2147483647]</text>
<polygon fill="#ffffff" stroke="none" points="430,-436 430,-458 567,-458 567,-436 430,-436"/>
<polygon fill="none" stroke="black" points="430,-436 430,-458 567,-458 567,-436 430,-436"/>
<text text-anchor="start" x="450" y="-444.2" font-family="Helvetica,sans-Serif" font-size="11.00">digest</text>
<polygon fill="none" stroke="black" points="567,-436 567,-458 672,-458 672,-436 567,-436"/>
<text text-anchor="start" x="570" y="-444.2" font-family="Helvetica,sans-Serif" font-size="11.00">varchar[255]</text>
<polygon fill="none" stroke="black" points="430,-414 430,-436 567,-436 567,-414 430,-414"/>
<text text-anchor="start" x="450" y="-422.2" font-family="Helvetica,sans-Serif" font-size="11.00">schema_version</text>
<polygon fill="none" stroke="black" points="567,-414 567,-436 672,-436 672,-414 567,-414"/>
<text text-anchor="start" x="570" y="-422.2" font-family="Helvetica,sans-Serif" font-size="11.00">int4[10]</text>
<polygon fill="none" stroke="black" points="430,-392 430,-414 567,-414 567,-392 430,-392"/>
<text text-anchor="start" x="450" y="-400.2" font-family="Helvetica,sans-Serif" font-size="11.00">media_type</text>
<polygon fill="none" stroke="black" points="567,-392 567,-414 672,-414 672,-392 567,-392"/>
<text text-anchor="start" x="570" y="-400.2" font-family="Helvetica,sans-Serif" font-size="11.00">varchar[60]</text>
<polygon fill="#ffffff" stroke="none" points="430,-370 430,-392 567,-392 567,-370 430,-370"/>
<polygon fill="none" stroke="black" points="430,-370 430,-392 567,-392 567,-370 430,-370"/>
<image xlink:href="../../images/foreignKeys.png" width="11px" height="12px" preserveAspectRatio="xMinYMin meet" x="435" y="-387"/>
<text text-anchor="start" x="450" y="-378.2" font-family="Helvetica,sans-Serif" font-size="11.00">config_blob_id</text>
<polygon fill="none" stroke="black" points="567,-370 567,-392 672,-392 672,-370 567,-370"/>
<text text-anchor="start" x="570" y="-378.2" font-family="Helvetica,sans-Serif" font-size="11.00">uuid[2147483647]</text>
<polygon fill="#ffffff" stroke="none" points="430,-352 430,-370 489,-370 489,-352 430,-352"/>
<polygon fill="none" stroke="black" points="430,-352 430,-370 489,-370 489,-352 430,-352"/>
<text text-anchor="start" x="433" y="-358.2" font-family="Helvetica,sans-Serif" font-size="11.00">&lt; 2</text>
<polygon fill="#ffffff" stroke="none" points="489,-352 489,-370 567,-370 567,-352 489,-352"/>
<polygon fill="none" stroke="black" points="489,-352 489,-370 567,-370 567,-352 489,-352"/>
<text text-anchor="start" x="528" y="-358.2" font-family="Helvetica,sans-Serif" font-size="11.00">0 rows</text>
<polygon fill="#ffffff" stroke="none" points="567,-352 567,-370 672,-370 672,-352 567,-352"/>
<polygon fill="none" stroke="black" points="567,-352 567,-370 672,-370 672,-352 567,-352"/>
<text text-anchor="start" x="652" y="-358.2" font-family="Helvetica,sans-Serif" font-size="11.00">4 &gt;</text>
<polygon fill="none" stroke="black" stroke-width="2" points="429,-351 429,-503 673,-503 673,-351 429,-351"/>
</a>
</g>
</g>
<!-- container_blobmanifest&#45;&gt;container_manifest -->
<g id="edge5" class="edge"><title>container_blobmanifest:manifest_id:w&#45;&gt;container_manifest:content_ptr_id.type:e</title>
<path fill="none" stroke="black" d="M730.263,-362.915C694.254,-380.25 725.279,-469 673,-469"/>
<polygon fill="black" stroke="black" points="736.663,-361.605 745.222,-363.527 740.581,-360.802 744.5,-360 744.5,-360 744.5,-360 740.581,-360.802 743.778,-356.473 736.663,-361.605 736.663,-361.605"/>
<ellipse fill="none" stroke="black" cx="733.528" cy="-362.247" rx="3.2" ry="3.2"/>
</g>
<!-- container_manifest&#45;&gt;core_content -->
<g id="edge7" class="edge"><title>container_manifest:content_ptr_id:w&#45;&gt;core_content:pulp_id:e</title>
<path fill="none" stroke="black" d="M418.594,-467.09C406.318,-461.881 404.071,-447.391 387,-441 299.285,-408.16 252.851,-470.299 178,-414 142.764,-387.497 182.59,-323 138.5,-323"/>
<polygon fill="black" stroke="black" points="428.935,-464.921 427.491,-472.79 425.917,-472.501 427.362,-464.632 428.935,-464.921"/>
<polyline fill="none" stroke="black" points="429,-469 425.066,-468.278 "/>
<ellipse fill="none" stroke="black" cx="421.918" cy="-467.7" rx="3.2" ry="3.2"/>
</g>
<!-- container_manifest&#45;&gt;container_blob -->
<g id="edge6" class="edge"><title>container_manifest:config_blob_id:w&#45;&gt;container_blob:content_ptr_id:e</title>
<path fill="none" stroke="black" d="M414.6,-380.312C390.689,-377.904 380.363,-370 350.5,-370"/>
<polygon fill="black" stroke="black" points="421.009,-380.618 428.828,-384.596 425.005,-380.809 429,-381 429,-381 429,-381 425.005,-380.809 429.172,-377.404 421.009,-380.618 421.009,-380.618"/>
<ellipse fill="none" stroke="black" cx="417.813" cy="-380.465" rx="3.2" ry="3.2"/>
</g>
<!-- container_manifestlistmanifest -->
<g id="node7" class="node"><title>container_manifestlistmanifest</title>
<g id="a_node7"><a xlink:href="../../tables/container_manifestlistmanifest.html" xlink:title="container_manifestlistmanifest" target="_top">
<polygon fill="#ffffff" stroke="none" points="723,-436 723,-560 952,-560 952,-436 723,-436"/>
<polygon fill="#f5f5f5" stroke="none" points="723.5,-538 723.5,-560 952.5,-560 952.5,-538 723.5,-538"/>
<polygon fill="none" stroke="black" points="723.5,-538 723.5,-560 952.5,-560 952.5,-538 723.5,-538"/>
<text text-anchor="start" x="728.5" y="-547.2" font-family="Helvetica,sans-Serif" font-weight="bold" font-size="11.00">container_manifestlistmanifest</text>
<text text-anchor="start" x="913.5" y="-546.2" font-family="Helvetica,sans-Serif" font-size="11.00">[table]</text>
<polygon fill="none" stroke="black" points="723.5,-516 723.5,-538 952.5,-538 952.5,-516 723.5,-516"/>
<image xlink:href="../../images/primaryKeys.png" width="11px" height="12px" preserveAspectRatio="xMinYMin meet" x="728.5" y="-533"/>
<text text-anchor="start" x="753.5" y="-524.2" font-family="Helvetica,sans-Serif" font-size="11.00">id</text>
<polygon fill="#ffffff" stroke="none" points="723.5,-494 723.5,-516 952.5,-516 952.5,-494 723.5,-494"/>
<polygon fill="none" stroke="black" points="723.5,-494 723.5,-516 952.5,-516 952.5,-494 723.5,-494"/>
<image xlink:href="../../images/foreignKeys.png" width="11px" height="12px" preserveAspectRatio="xMinYMin meet" x="728.5" y="-511"/>
<text text-anchor="start" x="753.5" y="-502.2" font-family="Helvetica,sans-Serif" font-size="11.00">image_manifest_id</text>
<polygon fill="#ffffff" stroke="none" points="723.5,-472 723.5,-494 952.5,-494 952.5,-472 723.5,-472"/>
<polygon fill="none" stroke="black" points="723.5,-472 723.5,-494 952.5,-494 952.5,-472 723.5,-472"/>
<image xlink:href="../../images/foreignKeys.png" width="11px" height="12px" preserveAspectRatio="xMinYMin meet" x="728.5" y="-489"/>
<text text-anchor="start" x="753.5" y="-480.2" font-family="Helvetica,sans-Serif" font-size="11.00">manifest_list_id</text>
<polygon fill="none" stroke="black" points="723.5,-454 723.5,-472 952.5,-472 952.5,-454 723.5,-454"/>
<text text-anchor="start" x="726.5" y="-460.2" font-family="Helvetica,sans-Serif" font-size="11.00">...</text>
<polygon fill="#ffffff" stroke="none" points="723.5,-436 723.5,-454 821.5,-454 821.5,-436 723.5,-436"/>
<polygon fill="none" stroke="black" points="723.5,-436 723.5,-454 821.5,-454 821.5,-436 723.5,-436"/>
<text text-anchor="start" x="726.5" y="-442.2" font-family="Helvetica,sans-Serif" font-size="11.00">&lt; 2</text>
<polygon fill="#ffffff" stroke="none" points="821.5,-436 821.5,-454 901.5,-454 901.5,-436 821.5,-436"/>
<polygon fill="none" stroke="black" points="821.5,-436 821.5,-454 901.5,-454 901.5,-436 821.5,-436"/>
<text text-anchor="start" x="862.5" y="-442.2" font-family="Helvetica,sans-Serif" font-size="11.00">0 rows</text>
<polygon fill="#ffffff" stroke="none" points="901.5,-436 901.5,-454 952.5,-454 952.5,-436 901.5,-436"/>
<polygon fill="none" stroke="black" points="901.5,-436 901.5,-454 952.5,-454 952.5,-436 901.5,-436"/>
<text text-anchor="start" x="942.5" y="-442.2" font-family="Helvetica,sans-Serif" font-size="11.00"> &#160;</text>
</a>
</g>
</g>
<!-- container_manifestlistmanifest&#45;&gt;container_manifest -->
<g id="edge8" class="edge"><title>container_manifestlistmanifest:image_manifest_id:w&#45;&gt;container_manifest:content_ptr_id.type:e</title>
<path fill="none" stroke="black" d="M708.585,-500.586C695.907,-490.973 694.252,-469 673,-469"/>
<polygon fill="black" stroke="black" points="714.875,-502.581 721.411,-508.431 718.687,-503.79 722.5,-505 722.5,-505 722.5,-505 718.687,-503.79 723.589,-501.569 714.875,-502.581 714.875,-502.581"/>
<ellipse fill="none" stroke="black" cx="711.824" cy="-501.613" rx="3.20001" ry="3.20001"/>
</g>
<!-- container_manifestlistmanifest&#45;&gt;container_manifest -->
<g id="edge9" class="edge"><title>container_manifestlistmanifest:manifest_list_id:w&#45;&gt;container_manifest:content_ptr_id.type:e</title>
<path fill="none" stroke="black" d="M707.969,-480.688C696.422,-476.712 689.969,-469 673,-469"/>
<polygon fill="black" stroke="black" points="714.599,-481.743 721.934,-486.555 718.55,-482.371 722.5,-483 722.5,-483 722.5,-483 718.55,-482.371 723.066,-479.445 714.599,-481.743 714.599,-481.743"/>
<ellipse fill="none" stroke="black" cx="711.439" cy="-481.24" rx="3.2" ry="3.2"/>
</g>
<!-- container_tag -->
<g id="node8" class="node"><title>container_tag</title>
<g id="a_node8"><a xlink:href="../../tables/container_tag.html" xlink:title="container_tag" target="_top">
<polygon fill="#ffffff" stroke="none" points="769.5,-182 769.5,-288 905.5,-288 905.5,-182 769.5,-182"/>
<polygon fill="#f5f5f5" stroke="none" points="769.5,-266 769.5,-288 905.5,-288 905.5,-266 769.5,-266"/>
<polygon fill="none" stroke="black" points="769.5,-266 769.5,-288 905.5,-288 905.5,-266 769.5,-266"/>
<text text-anchor="start" x="774.5" y="-275.2" font-family="Helvetica,sans-Serif" font-weight="bold" font-size="11.00">container_tag</text>
<text text-anchor="start" x="866.5" y="-274.2" font-family="Helvetica,sans-Serif" font-size="11.00">[table]</text>
<polygon fill="none" stroke="black" points="769.5,-244 769.5,-266 905.5,-266 905.5,-244 769.5,-244"/>
<image xlink:href="../../images/primaryKeys.png" width="11px" height="12px" preserveAspectRatio="xMinYMin meet" x="774.5" y="-261"/>
<text text-anchor="start" x="789.5" y="-252.2" font-family="Helvetica,sans-Serif" font-size="11.00">content_ptr_id</text>
<polygon fill="#ffffff" stroke="none" points="769.5,-222 769.5,-244 905.5,-244 905.5,-222 769.5,-222"/>
<polygon fill="none" stroke="black" points="769.5,-222 769.5,-244 905.5,-244 905.5,-222 769.5,-222"/>
<text text-anchor="start" x="789.5" y="-230.2" font-family="Helvetica,sans-Serif" font-size="11.00">name</text>
<polygon fill="#ffffff" stroke="none" points="769.5,-200 769.5,-222 905.5,-222 905.5,-200 769.5,-200"/>
<polygon fill="none" stroke="black" points="769.5,-200 769.5,-222 905.5,-222 905.5,-200 769.5,-200"/>
<image xlink:href="../../images/foreignKeys.png" width="11px" height="12px" preserveAspectRatio="xMinYMin meet" x="774.5" y="-217"/>
<text text-anchor="start" x="789.5" y="-208.2" font-family="Helvetica,sans-Serif" font-size="11.00">tagged_manifest_id</text>
<polygon fill="#ffffff" stroke="none" points="769.5,-182 769.5,-200 821.5,-200 821.5,-182 769.5,-182"/>
<polygon fill="none" stroke="black" points="769.5,-182 769.5,-200 821.5,-200 821.5,-182 769.5,-182"/>
<text text-anchor="start" x="772.5" y="-188.2" font-family="Helvetica,sans-Serif" font-size="11.00">&lt; 2</text>
<polygon fill="#ffffff" stroke="none" points="821.5,-182 821.5,-200 877.5,-200 877.5,-182 821.5,-182"/>
<polygon fill="none" stroke="black" points="821.5,-182 821.5,-200 877.5,-200 877.5,-182 821.5,-182"/>
<text text-anchor="start" x="838.5" y="-188.2" font-family="Helvetica,sans-Serif" font-size="11.00">0 rows</text>
<polygon fill="#ffffff" stroke="none" points="877.5,-182 877.5,-200 905.5,-200 905.5,-182 877.5,-182"/>
<polygon fill="none" stroke="black" points="877.5,-182 877.5,-200 905.5,-200 905.5,-182 877.5,-182"/>
<text text-anchor="start" x="895.5" y="-188.2" font-family="Helvetica,sans-Serif" font-size="11.00"> &#160;</text>
</a>
</g>
</g>
<!-- container_tag&#45;&gt;core_content -->
<g id="edge10" class="edge"><title>container_tag:content_ptr_id:w&#45;&gt;core_content:pulp_id:e</title>
<path fill="none" stroke="black" d="M757.887,-255.067C663.677,-256.068 236.631,-268.199 178,-291 156.943,-299.189 161.094,-323 138.5,-323"/>
<polygon fill="black" stroke="black" points="767.675,-251.005 767.725,-259.005 766.125,-259.015 766.075,-251.015 767.675,-251.005"/>
<polyline fill="none" stroke="black" points="768.5,-255 764.5,-255.025 "/>
<ellipse fill="none" stroke="black" cx="761.3" cy="-255.046" rx="3.2" ry="3.2"/>
</g>
<!-- container_tag&#45;&gt;container_manifest -->
<g id="edge11" class="edge"><title>container_tag:tagged_manifest_id:w&#45;&gt;container_manifest:content_ptr_id.type:e</title>
<path fill="none" stroke="black" d="M754.171,-212.925C724.712,-222.026 730.452,-261.857 715,-299 685.107,-370.857 750.827,-469 673,-469"/>
<polygon fill="black" stroke="black" points="760.571,-212.065 768.979,-214.568 764.536,-211.533 768.5,-211 768.5,-211 768.5,-211 764.536,-211.533 768.021,-207.432 760.571,-212.065 760.571,-212.065"/>
<ellipse fill="none" stroke="black" cx="757.4" cy="-212.491" rx="3.2" ry="3.2"/>
</g>
<!-- core_contentartifact -->
<g id="node9" class="node"><title>core_contentartifact</title>
<g id="a_node9"><a xlink:href="../../tables/core_contentartifact.html" xlink:title="core_contentartifact" target="_top">
<polygon fill="#ffffff" stroke="none" points="199.5,-195 199.5,-253 365.5,-253 365.5,-195 199.5,-195"/>
<polygon fill="#f5f5f5" stroke="none" points="199.5,-231 199.5,-253 365.5,-253 365.5,-231 199.5,-231"/>
<polygon fill="none" stroke="black" points="199.5,-231 199.5,-253 365.5,-253 365.5,-231 199.5,-231"/>
<text text-anchor="start" x="204.5" y="-240.2" font-family="Helvetica,sans-Serif" font-weight="bold" font-size="11.00">core_contentartifact</text>
<text text-anchor="start" x="326.5" y="-239.2" font-family="Helvetica,sans-Serif" font-size="11.00">[table]</text>
<polygon fill="none" stroke="black" points="199.5,-213 199.5,-231 365.5,-231 365.5,-213 199.5,-213"/>
<text text-anchor="start" x="202.5" y="-219.2" font-family="Helvetica,sans-Serif" font-size="11.00">...</text>
<polygon fill="#ffffff" stroke="none" points="199.5,-195 199.5,-213 257.5,-213 257.5,-195 199.5,-195"/>
<polygon fill="none" stroke="black" points="199.5,-195 199.5,-213 257.5,-213 257.5,-195 199.5,-195"/>
<text text-anchor="start" x="202.5" y="-201.2" font-family="Helvetica,sans-Serif" font-size="11.00">&lt; 2</text>
<polygon fill="#ffffff" stroke="none" points="257.5,-195 257.5,-213 324.5,-213 324.5,-195 257.5,-195"/>
<polygon fill="none" stroke="black" points="257.5,-195 257.5,-213 324.5,-213 324.5,-195 257.5,-195"/>
<text text-anchor="start" x="278.5" y="-201.2" font-family="Helvetica,sans-Serif" font-size="11.00">88 rows</text>
<polygon fill="#ffffff" stroke="none" points="324.5,-195 324.5,-213 365.5,-213 365.5,-195 324.5,-195"/>
<polygon fill="none" stroke="black" points="324.5,-195 324.5,-213 365.5,-213 365.5,-195 324.5,-195"/>
<text text-anchor="start" x="345.5" y="-201.2" font-family="Helvetica,sans-Serif" font-size="11.00">2 &gt;</text>
</a>
</g>
</g>
<!-- core_contentartifact&#45;&gt;core_content -->
<g id="edge12" class="edge"><title>core_contentartifact:elipses:w&#45;&gt;core_content:pulp_id:e</title>
<path fill="none" stroke="black" d="M184.195,-225.595C155.113,-243.587 184.798,-323 138.5,-323"/>
<polygon fill="black" stroke="black" points="190.741,-223.95 199.377,-225.491 194.621,-222.975 198.5,-222 198.5,-222 198.5,-222 194.621,-222.975 197.623,-218.509 190.741,-223.95 190.741,-223.95"/>
<ellipse fill="none" stroke="black" cx="187.638" cy="-224.73" rx="3.2" ry="3.2"/>
</g>
<!-- core_publishedmetadata -->
<g id="node10" class="node"><title>core_publishedmetadata</title>
<g id="a_node10"><a xlink:href="../../tables/core_publishedmetadata.html" xlink:title="core_publishedmetadata" target="_top">
<polygon fill="#ffffff" stroke="none" points="187,-116 187,-174 378,-174 378,-116 187,-116"/>
<polygon fill="#f5f5f5" stroke="none" points="187.5,-152 187.5,-174 378.5,-174 378.5,-152 187.5,-152"/>
<polygon fill="none" stroke="black" points="187.5,-152 187.5,-174 378.5,-174 378.5,-152 187.5,-152"/>
<text text-anchor="start" x="192.5" y="-161.2" font-family="Helvetica,sans-Serif" font-weight="bold" font-size="11.00">core_publishedmetadata</text>
<text text-anchor="start" x="339.5" y="-160.2" font-family="Helvetica,sans-Serif" font-size="11.00">[table]</text>
<polygon fill="none" stroke="black" points="187.5,-134 187.5,-152 378.5,-152 378.5,-134 187.5,-134"/>
<text text-anchor="start" x="190.5" y="-140.2" font-family="Helvetica,sans-Serif" font-size="11.00">...</text>
<polygon fill="#ffffff" stroke="none" points="187.5,-116 187.5,-134 266.5,-134 266.5,-116 187.5,-116"/>
<polygon fill="none" stroke="black" points="187.5,-116 187.5,-134 266.5,-134 266.5,-116 187.5,-116"/>
<text text-anchor="start" x="190.5" y="-122.2" font-family="Helvetica,sans-Serif" font-size="11.00">&lt; 2</text>
<polygon fill="#ffffff" stroke="none" points="266.5,-116 266.5,-134 336.5,-134 336.5,-116 266.5,-116"/>
<polygon fill="none" stroke="black" points="266.5,-116 266.5,-134 336.5,-134 336.5,-116 266.5,-116"/>
<text text-anchor="start" x="297.5" y="-122.2" font-family="Helvetica,sans-Serif" font-size="11.00">0 rows</text>
<polygon fill="#ffffff" stroke="none" points="336.5,-116 336.5,-134 378.5,-134 378.5,-116 336.5,-116"/>
<polygon fill="none" stroke="black" points="336.5,-116 336.5,-134 378.5,-134 378.5,-116 336.5,-116"/>
<text text-anchor="start" x="368.5" y="-122.2" font-family="Helvetica,sans-Serif" font-size="11.00"> &#160;</text>
</a>
</g>
</g>
<!-- core_publishedmetadata&#45;&gt;core_content -->
<g id="edge13" class="edge"><title>core_publishedmetadata:elipses:w&#45;&gt;core_content:pulp_id:e</title>
<path fill="none" stroke="black" d="M176.136,-144.149C114.288,-159.479 217.415,-323 138.5,-323"/>
<polygon fill="black" stroke="black" points="185.264,-139.113 186.146,-147.064 184.556,-147.24 183.674,-139.289 185.264,-139.113"/>
<polyline fill="none" stroke="black" points="186.5,-143 182.524,-143.441 "/>
<ellipse fill="none" stroke="black" cx="179.344" cy="-143.794" rx="3.2" ry="3.2"/>
</g>
<!-- core_repositorycontent -->
<g id="node11" class="node"><title>core_repositorycontent</title>
<g id="a_node11"><a xlink:href="../../tables/core_repositorycontent.html" xlink:title="core_repositorycontent" target="_top">
<polygon fill="#ffffff" stroke="none" points="191.5,-37 191.5,-95 373.5,-95 373.5,-37 191.5,-37"/>
<polygon fill="#f5f5f5" stroke="none" points="191.5,-73 191.5,-95 373.5,-95 373.5,-73 191.5,-73"/>
<polygon fill="none" stroke="black" points="191.5,-73 191.5,-95 373.5,-95 373.5,-73 191.5,-73"/>
<text text-anchor="start" x="196.5" y="-82.2" font-family="Helvetica,sans-Serif" font-weight="bold" font-size="11.00">core_repositorycontent</text>
<text text-anchor="start" x="334.5" y="-81.2" font-family="Helvetica,sans-Serif" font-size="11.00">[table]</text>
<polygon fill="none" stroke="black" points="191.5,-55 191.5,-73 373.5,-73 373.5,-55 191.5,-55"/>
<text text-anchor="start" x="194.5" y="-61.2" font-family="Helvetica,sans-Serif" font-size="11.00">...</text>
<polygon fill="#ffffff" stroke="none" points="191.5,-37 191.5,-55 259.5,-55 259.5,-37 191.5,-37"/>
<polygon fill="none" stroke="black" points="191.5,-37 191.5,-55 259.5,-55 259.5,-37 191.5,-37"/>
<text text-anchor="start" x="194.5" y="-43.2" font-family="Helvetica,sans-Serif" font-size="11.00">&lt; 4</text>
<polygon fill="#ffffff" stroke="none" points="259.5,-37 259.5,-55 337.5,-55 337.5,-37 259.5,-37"/>
<polygon fill="none" stroke="black" points="259.5,-37 259.5,-55 337.5,-55 337.5,-37 259.5,-37"/>
<text text-anchor="start" x="285.5" y="-43.2" font-family="Helvetica,sans-Serif" font-size="11.00">786 rows</text>
<polygon fill="#ffffff" stroke="none" points="337.5,-37 337.5,-55 373.5,-55 373.5,-37 337.5,-37"/>
<polygon fill="none" stroke="black" points="337.5,-37 337.5,-55 373.5,-55 373.5,-37 337.5,-37"/>
<text text-anchor="start" x="363.5" y="-43.2" font-family="Helvetica,sans-Serif" font-size="11.00"> &#160;</text>
</a>
</g>
</g>
<!-- core_repositorycontent&#45;&gt;core_content -->
<g id="edge14" class="edge"><title>core_repositorycontent:elipses:w&#45;&gt;core_content:pulp_id:e</title>
<path fill="none" stroke="black" d="M177.057,-70.4023C142.969,-110.286 191.701,-323 138.5,-323"/>
<polygon fill="black" stroke="black" points="183.277,-67.44 192.048,-67.2502 186.889,-65.72 190.5,-64 190.5,-64 190.5,-64 186.889,-65.72 188.952,-60.7498 183.277,-67.44 183.277,-67.44"/>
<ellipse fill="none" stroke="black" cx="180.388" cy="-68.8159" rx="3.20001" ry="3.20001"/>
</g>
</g>
</svg>
