<?xml version="1.0" encoding="UTF-8" standalone="no"?>
<!DOCTYPE svg PUBLIC "-//W3C//DTD SVG 1.1//EN"
 "http://www.w3.org/Graphics/SVG/1.1/DTD/svg11.dtd">
<!-- Generated by graphviz version 2.38.0 (20140413.2041)
 -->
<!-- Title: twoDegreesRelationshipsDiagram Pages: 1 -->
<svg width="906pt" height="449pt"
 viewBox="0.00 0.00 906.00 449.00" xmlns="http://www.w3.org/2000/svg" xmlns:xlink="http://www.w3.org/1999/xlink">
<g id="graph0" class="graph" transform="scale(1 1) rotate(0) translate(4 445)">
<title>twoDegreesRelationshipsDiagram</title>
<polygon fill="#ffffff" stroke="none" points="-4,4 -4,-445 902,-445 902,4 -4,4"/>
<text text-anchor="middle" x="74.5" y="-7.2" font-family="Helvetica,sans-Serif" font-size="11.00">Generated by SchemaSpy</text>
<!-- container_blob -->
<g id="node1" class="node"><title>container_blob</title>
<g id="a_node1"><a xlink:href="../../tables/container_blob.html" xlink:title="container_blob" target="_top">
<polygon fill="#ffffff" stroke="none" points="180,-111 180,-169 314,-169 314,-111 180,-111"/>
<polygon fill="#f5f5f5" stroke="none" points="180,-147 180,-169 314,-169 314,-147 180,-147"/>
<polygon fill="none" stroke="black" points="180,-147 180,-169 314,-169 314,-147 180,-147"/>
<text text-anchor="start" x="185" y="-156.2" font-family="Helvetica,sans-Serif" font-weight="bold" font-size="11.00">container_blob</text>
<text text-anchor="start" x="275" y="-155.2" font-family="Helvetica,sans-Serif" font-size="11.00">[table]</text>
<polygon fill="none" stroke="black" points="180,-129 180,-147 314,-147 314,-129 180,-129"/>
<text text-anchor="start" x="183" y="-135.2" font-family="Helvetica,sans-Serif" font-size="11.00">...</text>
<polygon fill="#ffffff" stroke="none" points="180,-111 180,-129 226,-129 226,-111 180,-111"/>
<polygon fill="none" stroke="black" points="180,-111 180,-129 226,-129 226,-111 180,-111"/>
<text text-anchor="start" x="183" y="-117.2" font-family="Helvetica,sans-Serif" font-size="11.00">&lt; 1</text>
<polygon fill="#ffffff" stroke="none" points="226,-111 226,-129 279,-129 279,-111 226,-111"/>
<polygon fill="none" stroke="black" points="226,-111 226,-129 279,-129 279,-111 226,-111"/>
<text text-anchor="start" x="240" y="-117.2" font-family="Helvetica,sans-Serif" font-size="11.00">0 rows</text>
<polygon fill="#ffffff" stroke="none" points="279,-111 279,-129 314,-129 314,-111 279,-111"/>
<polygon fill="none" stroke="black" points="279,-111 279,-129 314,-129 314,-111 279,-111"/>
<text text-anchor="start" x="294" y="-117.2" font-family="Helvetica,sans-Serif" font-size="11.00">2 &gt;</text>
</a>
</g>
</g>
<!-- core_content -->
<g id="node2" class="node"><title>core_content</title>
<g id="a_node2"><a xlink:href="../../tables/core_content.html" xlink:title="core_content" target="_top">
<polygon fill="#ffffff" stroke="none" points="8,-111 8,-169 131,-169 131,-111 8,-111"/>
<polygon fill="#f5f5f5" stroke="none" points="8.5,-147 8.5,-169 131.5,-169 131.5,-147 8.5,-147"/>
<polygon fill="none" stroke="black" points="8.5,-147 8.5,-169 131.5,-169 131.5,-147 8.5,-147"/>
<text text-anchor="start" x="13.5" y="-156.2" font-family="Helvetica,sans-Serif" font-weight="bold" font-size="11.00">core_content</text>
<text text-anchor="start" x="92.5" y="-155.2" font-family="Helvetica,sans-Serif" font-size="11.00">[table]</text>
<polygon fill="none" stroke="black" points="8.5,-129 8.5,-147 131.5,-147 131.5,-129 8.5,-129"/>
<text text-anchor="start" x="11.5" y="-135.2" font-family="Helvetica,sans-Serif" font-size="11.00">...</text>
<polygon fill="#ffffff" stroke="none" points="8.5,-111 8.5,-129 40.5,-129 40.5,-111 8.5,-111"/>
<polygon fill="none" stroke="black" points="8.5,-111 8.5,-129 40.5,-129 40.5,-111 8.5,-111"/>
<text text-anchor="start" x="11.5" y="-117.2" font-family="Helvetica,sans-Serif" font-size="11.00"> &#160;</text>
<polygon fill="#ffffff" stroke="none" points="40.5,-111 40.5,-129 98.5,-129 98.5,-111 40.5,-111"/>
<polygon fill="none" stroke="black" points="40.5,-111 40.5,-129 98.5,-129 98.5,-111 40.5,-111"/>
<text text-anchor="start" x="52.5" y="-117.2" font-family="Helvetica,sans-Serif" font-size="11.00">88 rows</text>
<polygon fill="#ffffff" stroke="none" points="98.5,-111 98.5,-129 131.5,-129 131.5,-111 98.5,-111"/>
<polygon fill="none" stroke="black" points="98.5,-111 98.5,-129 131.5,-129 131.5,-111 98.5,-111"/>
<text text-anchor="start" x="111.5" y="-117.2" font-family="Helvetica,sans-Serif" font-size="11.00">8 &gt;</text>
</a>
</g>
</g>
<!-- container_blob&#45;&gt;core_content -->
<g id="edge1" class="edge"><title>container_blob:elipses:w&#45;&gt;core_content:elipses:e</title>
<path fill="none" stroke="black" d="M168.433,-138C155.724,-138 149.13,-138 132.5,-138"/>
<polygon fill="black" stroke="black" points="178.2,-134 178.2,-142 176.6,-142 176.6,-134 178.2,-134"/>
<polyline fill="none" stroke="black" points="179,-138 175,-138 "/>
<ellipse fill="none" stroke="black" cx="171.8" cy="-138" rx="3.2" ry="3.2"/>
</g>
<!-- container_blobmanifest -->
<g id="node3" class="node"><title>container_blobmanifest</title>
<g id="a_node3"><a xlink:href="../../tables/container_blobmanifest.html" xlink:title="container_blobmanifest" target="_top">
<polygon fill="#ffffff" stroke="none" points="638.5,-116 638.5,-174 823.5,-174 823.5,-116 638.5,-116"/>
<polygon fill="#f5f5f5" stroke="none" points="639,-152 639,-174 824,-174 824,-152 639,-152"/>
<polygon fill="none" stroke="black" points="639,-152 639,-174 824,-174 824,-152 639,-152"/>
<text text-anchor="start" x="644" y="-161.2" font-family="Helvetica,sans-Serif" font-weight="bold" font-size="11.00">container_blobmanifest</text>
<text text-anchor="start" x="785" y="-160.2" font-family="Helvetica,sans-Serif" font-size="11.00">[table]</text>
<polygon fill="none" stroke="black" points="639,-134 639,-152 824,-152 824,-134 639,-134"/>
<text text-anchor="start" x="642" y="-140.2" font-family="Helvetica,sans-Serif" font-size="11.00">...</text>
<polygon fill="#ffffff" stroke="none" points="639,-116 639,-134 715,-134 715,-116 639,-116"/>
<polygon fill="none" stroke="black" points="639,-116 639,-134 715,-134 715,-116 639,-116"/>
<text text-anchor="start" x="642" y="-122.2" font-family="Helvetica,sans-Serif" font-size="11.00">&lt; 2</text>
<polygon fill="#ffffff" stroke="none" points="715,-116 715,-134 784,-134 784,-116 715,-116"/>
<polygon fill="none" stroke="black" points="715,-116 715,-134 784,-134 784,-116 715,-116"/>
<text text-anchor="start" x="745" y="-122.2" font-family="Helvetica,sans-Serif" font-size="11.00">0 rows</text>
<polygon fill="#ffffff" stroke="none" points="784,-116 784,-134 824,-134 824,-116 784,-116"/>
<polygon fill="none" stroke="black" points="784,-116 784,-134 824,-134 824,-116 784,-116"/>
<text text-anchor="start" x="814" y="-122.2" font-family="Helvetica,sans-Serif" font-size="11.00"> &#160;</text>
</a>
</g>
</g>
<!-- container_blobmanifest&#45;&gt;container_blob -->
<g id="edge2" class="edge"><title>container_blobmanifest:elipses:w&#45;&gt;container_blob:elipses:e</title>
<path fill="none" stroke="black" d="M623.326,-142.399C586.714,-139.245 574.079,-124.578 531,-120 453.216,-111.734 431.48,-103.585 355,-120 335.939,-124.091 334.495,-138 315,-138"/>
<polygon fill="black" stroke="black" points="630.007,-142.673 637.853,-146.597 634.003,-142.836 638,-143 638,-143 638,-143 634.003,-142.836 638.147,-139.403 630.007,-142.673 630.007,-142.673"/>
<ellipse fill="none" stroke="black" cx="626.809" cy="-142.542" rx="3.2" ry="3.2"/>
</g>
<!-- container_manifest -->
<g id="node4" class="node"><title>container_manifest</title>
<g id="a_node4"><a xlink:href="../../tables/container_manifest.html" xlink:title="container_manifest" target="_top">
<polygon fill="#ffffff" stroke="none" points="363,-130 363,-254 523,-254 523,-130 363,-130"/>
<polygon fill="#f5f5f5" stroke="none" points="363,-232 363,-254 523,-254 523,-232 363,-232"/>
<polygon fill="none" stroke="black" points="363,-232 363,-254 523,-254 523,-232 363,-232"/>
<text text-anchor="start" x="368" y="-241.2" font-family="Helvetica,sans-Serif" font-weight="bold" font-size="11.00">container_manifest</text>
<text text-anchor="start" x="484" y="-240.2" font-family="Helvetica,sans-Serif" font-size="11.00">[table]</text>
<polygon fill="none" stroke="black" points="363,-210 363,-232 523,-232 523,-210 363,-210"/>
<image xlink:href="../../images/primaryKeys.png" width="11px" height="12px" preserveAspectRatio="xMinYMin meet" x="368" y="-227"/>
<text text-anchor="start" x="395" y="-218.2" font-family="Helvetica,sans-Serif" font-size="11.00">content_ptr_id</text>
<polygon fill="#ffffff" stroke="none" points="363,-188 363,-210 523,-210 523,-188 363,-188"/>
<polygon fill="none" stroke="black" points="363,-188 363,-210 523,-210 523,-188 363,-188"/>
<text text-anchor="start" x="395" y="-196.2" font-family="Helvetica,sans-Serif" font-size="11.00">digest</text>
<polygon fill="#ffffff" stroke="none" points="363,-166 363,-188 523,-188 523,-166 363,-166"/>
<polygon fill="none" stroke="black" points="363,-166 363,-188 523,-188 523,-166 363,-166"/>
<image xlink:href="../../images/foreignKeys.png" width="11px" height="12px" preserveAspectRatio="xMinYMin meet" x="368" y="-183"/>
<text text-anchor="start" x="395" y="-174.2" font-family="Helvetica,sans-Serif" font-size="11.00">config_blob_id</text>
<polygon fill="none" stroke="black" points="363,-148 363,-166 523,-166 523,-148 363,-148"/>
<text text-anchor="start" x="366" y="-154.2" font-family="Helvetica,sans-Serif" font-size="11.00">...</text>
<polygon fill="#ffffff" stroke="none" points="363,-130 363,-148 422,-148 422,-130 363,-130"/>
<polygon fill="none" stroke="black" points="363,-130 363,-148 422,-148 422,-130 363,-130"/>
<text text-anchor="start" x="366" y="-136.2" font-family="Helvetica,sans-Serif" font-size="11.00">&lt; 2</text>
<polygon fill="#ffffff" stroke="none" points="422,-130 422,-148 482,-148 482,-130 422,-130"/>
<polygon fill="none" stroke="black" points="422,-130 422,-148 482,-148 482,-130 422,-130"/>
<text text-anchor="start" x="443" y="-136.2" font-family="Helvetica,sans-Serif" font-size="11.00">0 rows</text>
<polygon fill="#ffffff" stroke="none" points="482,-130 482,-148 523,-148 523,-130 482,-130"/>
<polygon fill="none" stroke="black" points="482,-130 482,-148 523,-148 523,-130 482,-130"/>
<text text-anchor="start" x="503" y="-136.2" font-family="Helvetica,sans-Serif" font-size="11.00">4 &gt;</text>
</a>
</g>
</g>
<!-- container_blobmanifest&#45;&gt;container_manifest -->
<g id="edge3" class="edge"><title>container_blobmanifest:elipses:w&#45;&gt;container_manifest:content_ptr_id:e</title>
<path fill="none" stroke="black" d="M623.454,-144.193C598.066,-148.795 590.245,-166.084 564,-185 544.597,-198.985 547.918,-221 524,-221"/>
<polygon fill="black" stroke="black" points="630.027,-143.654 638.294,-146.588 634.013,-143.327 638,-143 638,-143 638,-143 634.013,-143.327 637.706,-139.412 630.027,-143.654 630.027,-143.654"/>
<ellipse fill="none" stroke="black" cx="626.837" cy="-143.916" rx="3.2" ry="3.2"/>
</g>
<!-- container_manifest&#45;&gt;container_blob -->
<g id="edge4" class="edge"><title>container_manifest:config_blob_id:w&#45;&gt;container_blob:elipses:e</title>
<path fill="none" stroke="black" d="M348.409,-172.218C336.397,-161.804 336.206,-138 315,-138"/>
<polygon fill="black" stroke="black" points="354.454,-174.345 360.805,-180.396 358.227,-175.672 362,-177 362,-177 362,-177 358.227,-175.672 363.195,-173.604 354.454,-174.345 354.454,-174.345"/>
<ellipse fill="none" stroke="black" cx="351.435" cy="-173.283" rx="3.20001" ry="3.20001"/>
</g>
<!-- container_manifest&#45;&gt;core_content -->
<g id="edge5" class="edge"><title>container_manifest:content_ptr_id:w&#45;&gt;core_content:elipses:e</title>
<path fill="none" stroke="black" d="M351.177,-221.005C273.085,-221.047 243.981,-220.67 172,-180 149.69,-167.394 158.125,-138 132.5,-138"/>
<polygon fill="black" stroke="black" points="361.198,-217 361.202,-225 359.602,-225.001 359.598,-217.001 361.198,-217"/>
<polyline fill="none" stroke="black" points="362,-221 358,-221.002 "/>
<ellipse fill="none" stroke="black" cx="354.8" cy="-221.003" rx="3.2" ry="3.2"/>
</g>
<!-- container_manifestlistmanifest -->
<g id="node5" class="node"><title>container_manifestlistmanifest</title>
<g id="a_node5"><a xlink:href="../../tables/container_manifestlistmanifest.html" xlink:title="container_manifestlistmanifest" target="_top">
<polygon fill="#ffffff" stroke="none" points="572,-195 572,-437 890,-437 890,-195 572,-195"/>
<polygon fill="#f5f5f5" stroke="none" points="574,-413 574,-435 888,-435 888,-413 574,-413"/>
<polygon fill="none" stroke="black" points="574,-413 574,-435 888,-435 888,-413 574,-413"/>
<text text-anchor="start" x="579" y="-422.2" font-family="Helvetica,sans-Serif" font-weight="bold" font-size="11.00">container_manifestlistmanifest</text>
<text text-anchor="start" x="849" y="-421.2" font-family="Helvetica,sans-Serif" font-size="11.00">[table]</text>
<polygon fill="none" stroke="black" points="574,-391 574,-413 783,-413 783,-391 574,-391"/>
<image xlink:href="../../images/primaryKeys.png" width="11px" height="12px" preserveAspectRatio="xMinYMin meet" x="579" y="-408"/>
<text text-anchor="start" x="594" y="-399.2" font-family="Helvetica,sans-Serif" font-size="11.00">id</text>
<polygon fill="none" stroke="black" points="783,-391 783,-413 888,-413 888,-391 783,-391"/>
<text text-anchor="start" x="786" y="-399.2" font-family="Helvetica,sans-Serif" font-size="11.00">serial[10]</text>
<polygon fill="none" stroke="black" points="574,-369 574,-391 783,-391 783,-369 574,-369"/>
<text text-anchor="start" x="594" y="-377.2" font-family="Helvetica,sans-Serif" font-size="11.00">architecture</text>
<polygon fill="none" stroke="black" points="783,-369 783,-391 888,-391 888,-369 783,-369"/>
<text text-anchor="start" x="786" y="-377.2" font-family="Helvetica,sans-Serif" font-size="11.00">varchar[255]</text>
<polygon fill="none" stroke="black" points="574,-347 574,-369 783,-369 783,-347 574,-347"/>
<text text-anchor="start" x="594" y="-355.2" font-family="Helvetica,sans-Serif" font-size="11.00">os</text>
<polygon fill="none" stroke="black" points="783,-347 783,-369 888,-369 888,-347 783,-347"/>
<text text-anchor="start" x="786" y="-355.2" font-family="Helvetica,sans-Serif" font-size="11.00">varchar[255]</text>
<polygon fill="none" stroke="black" points="574,-325 574,-347 783,-347 783,-325 574,-325"/>
<text text-anchor="start" x="594" y="-333.2" font-family="Helvetica,sans-Serif" font-size="11.00">os_version</text>
<polygon fill="none" stroke="black" points="783,-325 783,-347 888,-347 888,-325 783,-325"/>
<text text-anchor="start" x="786" y="-333.2" font-family="Helvetica,sans-Serif" font-size="11.00">varchar[255]</text>
<polygon fill="none" stroke="black" points="574,-303 574,-325 783,-325 783,-303 574,-303"/>
<text text-anchor="start" x="594" y="-311.2" font-family="Helvetica,sans-Serif" font-size="11.00">os_features</text>
<polygon fill="none" stroke="black" points="783,-303 783,-325 888,-325 888,-303 783,-303"/>
<text text-anchor="start" x="786" y="-311.2" font-family="Helvetica,sans-Serif" font-size="11.00">text[2147483647]</text>
<polygon fill="none" stroke="black" points="574,-281 574,-303 783,-303 783,-281 574,-281"/>
<text text-anchor="start" x="594" y="-289.2" font-family="Helvetica,sans-Serif" font-size="11.00">features</text>
<polygon fill="none" stroke="black" points="783,-281 783,-303 888,-303 888,-281 783,-281"/>
<text text-anchor="start" x="786" y="-289.2" font-family="Helvetica,sans-Serif" font-size="11.00">text[2147483647]</text>
<polygon fill="none" stroke="black" points="574,-259 574,-281 783,-281 783,-259 574,-259"/>
<text text-anchor="start" x="594" y="-267.2" font-family="Helvetica,sans-Serif" font-size="11.00">variant</text>
<polygon fill="none" stroke="black" points="783,-259 783,-281 888,-281 888,-259 783,-259"/>
<text text-anchor="start" x="786" y="-267.2" font-family="Helvetica,sans-Serif" font-size="11.00">varchar[255]</text>
<polygon fill="#ffffff" stroke="none" points="574,-237 574,-259 783,-259 783,-237 574,-237"/>
<polygon fill="none" stroke="black" points="574,-237 574,-259 783,-259 783,-237 574,-237"/>
<image xlink:href="../../images/foreignKeys.png" width="11px" height="12px" preserveAspectRatio="xMinYMin meet" x="579" y="-254"/>
<text text-anchor="start" x="594" y="-245.2" font-family="Helvetica,sans-Serif" font-size="11.00">image_manifest_id</text>
<polygon fill="none" stroke="black" points="783,-237 783,-259 888,-259 888,-237 783,-237"/>
<text text-anchor="start" x="786" y="-245.2" font-family="Helvetica,sans-Serif" font-size="11.00">uuid[2147483647]</text>
<polygon fill="#ffffff" stroke="none" points="574,-215 574,-237 783,-237 783,-215 574,-215"/>
<polygon fill="none" stroke="black" points="574,-215 574,-237 783,-237 783,-215 574,-215"/>
<image xlink:href="../../images/foreignKeys.png" width="11px" height="12px" preserveAspectRatio="xMinYMin meet" x="579" y="-232"/>
<text text-anchor="start" x="594" y="-223.2" font-family="Helvetica,sans-Serif" font-size="11.00">manifest_list_id</text>
<polygon fill="none" stroke="black" points="783,-215 783,-237 888,-237 888,-215 783,-215"/>
<text text-anchor="start" x="786" y="-223.2" font-family="Helvetica,sans-Serif" font-size="11.00">uuid[2147483647]</text>
<polygon fill="#ffffff" stroke="none" points="574,-197 574,-215 669,-215 669,-197 574,-197"/>
<polygon fill="none" stroke="black" points="574,-197 574,-215 669,-215 669,-197 574,-197"/>
<text text-anchor="start" x="577" y="-203.2" font-family="Helvetica,sans-Serif" font-size="11.00">&lt; 2</text>
<polygon fill="#ffffff" stroke="none" points="669,-197 669,-215 783,-215 783,-197 669,-197"/>
<polygon fill="none" stroke="black" points="669,-197 669,-215 783,-215 783,-197 669,-197"/>
<text text-anchor="start" x="744" y="-203.2" font-family="Helvetica,sans-Serif" font-size="11.00">0 rows</text>
<polygon fill="#ffffff" stroke="none" points="783,-197 783,-215 888,-215 888,-197 783,-197"/>
<polygon fill="none" stroke="black" points="783,-197 783,-215 888,-215 888,-197 783,-197"/>
<text text-anchor="start" x="868" y="-203.2" font-family="Helvetica,sans-Serif" font-size="11.00">0 &gt;</text>
<polygon fill="none" stroke="black" stroke-width="2" points="573,-196 573,-436 889,-436 889,-196 573,-196"/>
</a>
</g>
</g>
<!-- container_manifestlistmanifest&#45;&gt;container_manifest -->
<g id="edge6" class="edge"><title>container_manifestlistmanifest:image_manifest_id:w&#45;&gt;container_manifest:content_ptr_id:e</title>
<path fill="none" stroke="black" d="M559.076,-244.246C547.071,-236.827 543.037,-221 524,-221"/>
<polygon fill="black" stroke="black" points="565.276,-245.917 572.063,-251.476 569.138,-246.959 573,-248 573,-248 573,-248 569.138,-246.959 573.937,-244.524 565.276,-245.917 565.276,-245.917"/>
<ellipse fill="none" stroke="black" cx="562.186" cy="-245.084" rx="3.20001" ry="3.20001"/>
</g>
<!-- container_manifestlistmanifest&#45;&gt;container_manifest -->
<g id="edge7" class="edge"><title>container_manifestlistmanifest:manifest_list_id:w&#45;&gt;container_manifest:content_ptr_id:e</title>
<path fill="none" stroke="black" d="M558.46,-225.129C547.161,-223.697 540.076,-221 524,-221"/>
<polygon fill="black" stroke="black" points="565.014,-225.522 572.785,-229.594 569.007,-225.761 573,-226 573,-226 573,-226 569.007,-225.761 573.215,-222.406 565.014,-225.522 565.014,-225.522"/>
<ellipse fill="none" stroke="black" cx="561.82" cy="-225.33" rx="3.2" ry="3.2"/>
</g>
<!-- container_tag -->
<g id="node6" class="node"><title>container_tag</title>
<g id="a_node6"><a xlink:href="../../tables/container_tag.html" xlink:title="container_tag" target="_top">
<polygon fill="#ffffff" stroke="none" points="667.5,-37 667.5,-95 794.5,-95 794.5,-37 667.5,-37"/>
<polygon fill="#f5f5f5" stroke="none" points="668,-73 668,-95 795,-95 795,-73 668,-73"/>
<polygon fill="none" stroke="black" points="668,-73 668,-95 795,-95 795,-73 668,-73"/>
<text text-anchor="start" x="673" y="-82.2" font-family="Helvetica,sans-Serif" font-weight="bold" font-size="11.00">container_tag</text>
<text text-anchor="start" x="756" y="-81.2" font-family="Helvetica,sans-Serif" font-size="11.00">[table]</text>
<polygon fill="none" stroke="black" points="668,-55 668,-73 795,-73 795,-55 668,-55"/>
<text text-anchor="start" x="671" y="-61.2" font-family="Helvetica,sans-Serif" font-size="11.00">...</text>
<polygon fill="#ffffff" stroke="none" points="668,-37 668,-55 715,-55 715,-37 668,-37"/>
<polygon fill="none" stroke="black" points="668,-37 668,-55 715,-55 715,-37 668,-37"/>
<text text-anchor="start" x="671" y="-43.2" font-family="Helvetica,sans-Serif" font-size="11.00">&lt; 2</text>
<polygon fill="#ffffff" stroke="none" points="715,-37 715,-55 769,-55 769,-37 715,-37"/>
<polygon fill="none" stroke="black" points="715,-37 715,-55 769,-55 769,-37 715,-37"/>
<text text-anchor="start" x="730" y="-43.2" font-family="Helvetica,sans-Serif" font-size="11.00">0 rows</text>
<polygon fill="#ffffff" stroke="none" points="769,-37 769,-55 795,-55 795,-37 769,-37"/>
<polygon fill="none" stroke="black" points="769,-37 769,-55 795,-55 795,-37 769,-37"/>
<text text-anchor="start" x="785" y="-43.2" font-family="Helvetica,sans-Serif" font-size="11.00"> &#160;</text>
</a>
</g>
</g>
<!-- container_tag&#45;&gt;core_content -->
<g id="edge8" class="edge"><title>container_tag:elipses:w&#45;&gt;core_content:elipses:e</title>
<path fill="none" stroke="black" d="M656.45,-63.9605C444.02,-62.371 370.75,-13.7484 172,-101 149.974,-110.669 156.554,-138 132.5,-138"/>
<polygon fill="black" stroke="black" points="666.215,-59.997 666.185,-67.997 664.585,-67.991 664.615,-59.991 666.215,-59.997"/>
<polyline fill="none" stroke="black" points="667,-64 663,-63.985 "/>
<ellipse fill="none" stroke="black" cx="659.8" cy="-63.973" rx="3.2" ry="3.2"/>
</g>
<!-- container_tag&#45;&gt;container_manifest -->
<g id="edge9" class="edge"><title>container_tag:elipses:w&#45;&gt;container_manifest:content_ptr_id:e</title>
<path fill="none" stroke="black" d="M652.559,-64.2235C613.363,-65.5893 594.506,-73.8502 564,-106 526.752,-145.255 578.115,-221 524,-221"/>
<polygon fill="black" stroke="black" points="659.001,-64.1238 667.056,-67.5996 663,-64.0619 667,-64 667,-64 667,-64 663,-64.0619 666.944,-60.4004 659.001,-64.1238 659.001,-64.1238"/>
<ellipse fill="none" stroke="black" cx="655.801" cy="-64.1734" rx="3.2" ry="3.2"/>
</g>
</g>
</svg>
