<?xml version="1.0" encoding="UTF-8" standalone="no"?>
<!DOCTYPE svg PUBLIC "-//W3C//DTD SVG 1.1//EN"
 "http://www.w3.org/Graphics/SVG/1.1/DTD/svg11.dtd">
<!-- Generated by graphviz version 2.38.0 (20140413.2041)
 -->
<!-- Title: oneDegreeRelationshipsDiagram Pages: 1 -->
<svg width="552pt" height="175pt"
 viewBox="0.00 0.00 552.00 175.00" xmlns="http://www.w3.org/2000/svg" xmlns:xlink="http://www.w3.org/1999/xlink">
<g id="graph0" class="graph" transform="scale(1 1) rotate(0) translate(4 171)">
<title>oneDegreeRelationshipsDiagram</title>
<polygon fill="#ffffff" stroke="none" points="-4,4 -4,-171 548,-171 548,4 -4,4"/>
<text text-anchor="middle" x="74.5" y="-7.2" font-family="Helvetica,sans-Serif" font-size="11.00">Generated by SchemaSpy</text>
<!-- container_containerpushrepository -->
<g id="node1" class="node"><title>container_containerpushrepository</title>
<g id="a_node1"><a xlink:href="../../tables/container_containerpushrepository.html" xlink:title="container_containerpushrepository" target="_top">
<polygon fill="#ffffff" stroke="none" points="194,-97 194,-163 536,-163 536,-97 194,-97"/>
<polygon fill="#f5f5f5" stroke="none" points="196,-139 196,-161 534,-161 534,-139 196,-139"/>
<polygon fill="none" stroke="black" points="196,-139 196,-161 534,-161 534,-139 196,-139"/>
<text text-anchor="start" x="201" y="-148.2" font-family="Helvetica,sans-Serif" font-weight="bold" font-size="11.00">container_containerpushrepository</text>
<text text-anchor="start" x="495" y="-147.2" font-family="Helvetica,sans-Serif" font-size="11.00">[table]</text>
<polygon fill="none" stroke="black" points="196,-117 196,-139 429,-139 429,-117 196,-117"/>
<image xlink:href="../../images/primaryKeys.png" width="11px" height="12px" preserveAspectRatio="xMinYMin meet" x="201" y="-134"/>
<text text-anchor="start" x="216" y="-125.2" font-family="Helvetica,sans-Serif" font-size="11.00">repository_ptr_id</text>
<polygon fill="none" stroke="black" points="429,-117 429,-139 534,-139 534,-117 429,-117"/>
<text text-anchor="start" x="432" y="-125.2" font-family="Helvetica,sans-Serif" font-size="11.00">uuid[2147483647]</text>
<polygon fill="#ffffff" stroke="none" points="196,-99 196,-117 303,-117 303,-99 196,-99"/>
<polygon fill="none" stroke="black" points="196,-99 196,-117 303,-117 303,-99 196,-99"/>
<text text-anchor="start" x="199" y="-105.2" font-family="Helvetica,sans-Serif" font-size="11.00">&lt; 1</text>
<polygon fill="#ffffff" stroke="none" points="303,-99 303,-117 429,-117 429,-99 303,-99"/>
<polygon fill="none" stroke="black" points="303,-99 303,-117 429,-117 429,-99 303,-99"/>
<text text-anchor="start" x="390" y="-105.2" font-family="Helvetica,sans-Serif" font-size="11.00">0 rows</text>
<polygon fill="#ffffff" stroke="none" points="429,-99 429,-117 534,-117 534,-99 429,-99"/>
<polygon fill="none" stroke="black" points="429,-99 429,-117 534,-117 534,-99 429,-99"/>
<text text-anchor="start" x="514" y="-105.2" font-family="Helvetica,sans-Serif" font-size="11.00">0 &gt;</text>
<polygon fill="none" stroke="black" stroke-width="2" points="195,-98 195,-162 535,-162 535,-98 195,-98"/>
</a>
</g>
</g>
<!-- core_repository -->
<g id="node2" class="node"><title>core_repository</title>
<g id="a_node2"><a xlink:href="../../tables/core_repository.html" xlink:title="core_repository" target="_top">
<polygon fill="#ffffff" stroke="none" points="8,-37 8,-161 145,-161 145,-37 8,-37"/>
<polygon fill="#f5f5f5" stroke="none" points="8.5,-139 8.5,-161 145.5,-161 145.5,-139 8.5,-139"/>
<polygon fill="none" stroke="black" points="8.5,-139 8.5,-161 145.5,-161 145.5,-139 8.5,-139"/>
<text text-anchor="start" x="13.5" y="-148.2" font-family="Helvetica,sans-Serif" font-weight="bold" font-size="11.00">core_repository</text>
<text text-anchor="start" x="106.5" y="-147.2" font-family="Helvetica,sans-Serif" font-size="11.00">[table]</text>
<polygon fill="none" stroke="black" points="8.5,-117 8.5,-139 145.5,-139 145.5,-117 8.5,-117"/>
<image xlink:href="../../images/primaryKeys.png" width="11px" height="12px" preserveAspectRatio="xMinYMin meet" x="13.5" y="-134"/>
<text text-anchor="start" x="32.5" y="-125.2" font-family="Helvetica,sans-Serif" font-size="11.00">pulp_id</text>
<polygon fill="#ffffff" stroke="none" points="8.5,-95 8.5,-117 145.5,-117 145.5,-95 8.5,-95"/>
<polygon fill="none" stroke="black" points="8.5,-95 8.5,-117 145.5,-117 145.5,-95 8.5,-95"/>
<text text-anchor="start" x="32.5" y="-103.2" font-family="Helvetica,sans-Serif" font-size="11.00">name</text>
<polygon fill="#ffffff" stroke="none" points="8.5,-73 8.5,-95 145.5,-95 145.5,-73 8.5,-73"/>
<polygon fill="none" stroke="black" points="8.5,-73 8.5,-95 145.5,-95 145.5,-73 8.5,-73"/>
<image xlink:href="../../images/foreignKeys.png" width="11px" height="12px" preserveAspectRatio="xMinYMin meet" x="13.5" y="-90"/>
<text text-anchor="start" x="32.5" y="-81.2" font-family="Helvetica,sans-Serif" font-size="11.00">remote_id</text>
<polygon fill="none" stroke="black" points="8.5,-55 8.5,-73 145.5,-73 145.5,-55 8.5,-55"/>
<text text-anchor="start" x="11.5" y="-61.2" font-family="Helvetica,sans-Serif" font-size="11.00">...</text>
<polygon fill="#ffffff" stroke="none" points="8.5,-37 8.5,-55 48.5,-55 48.5,-37 8.5,-37"/>
<polygon fill="none" stroke="black" points="8.5,-37 8.5,-55 48.5,-55 48.5,-37 8.5,-37"/>
<text text-anchor="start" x="11.5" y="-43.2" font-family="Helvetica,sans-Serif" font-size="11.00">&lt; 1</text>
<polygon fill="#ffffff" stroke="none" points="48.5,-37 48.5,-55 106.5,-55 106.5,-37 48.5,-37"/>
<polygon fill="none" stroke="black" points="48.5,-37 48.5,-55 106.5,-55 106.5,-37 48.5,-37"/>
<text text-anchor="start" x="60.5" y="-43.2" font-family="Helvetica,sans-Serif" font-size="11.00">26 rows</text>
<polygon fill="#ffffff" stroke="none" points="106.5,-37 106.5,-55 145.5,-55 145.5,-37 106.5,-37"/>
<polygon fill="none" stroke="black" points="106.5,-37 106.5,-55 145.5,-55 145.5,-37 106.5,-37"/>
<text text-anchor="start" x="118.5" y="-43.2" font-family="Helvetica,sans-Serif" font-size="11.00">10 &gt;</text>
</a>
</g>
</g>
<!-- container_containerpushrepository&#45;&gt;core_repository -->
<g id="edge1" class="edge"><title>container_containerpushrepository:repository_ptr_id:w&#45;&gt;core_repository:pulp_id:e</title>
<path fill="none" stroke="black" d="M184.367,-128C170.855,-128 164.014,-128 146.5,-128"/>
<polygon fill="black" stroke="black" points="194.2,-124 194.2,-132 192.6,-132 192.6,-124 194.2,-124"/>
<polyline fill="none" stroke="black" points="195,-128 191,-128 "/>
<ellipse fill="none" stroke="black" cx="187.8" cy="-128" rx="3.2" ry="3.2"/>
</g>
</g>
</svg>
