<?xml version="1.0" encoding="UTF-8" standalone="no"?>
<!DOCTYPE svg PUBLIC "-//W3C//DTD SVG 1.1//EN"
 "http://www.w3.org/Graphics/SVG/1.1/DTD/svg11.dtd">
<!-- Generated by graphviz version 2.38.0 (20140413.2041)
 -->
<!-- Title: twoDegreesRelationshipsDiagram Pages: 1 -->
<svg width="908pt" height="608pt"
 viewBox="0.00 0.00 908.00 608.00" xmlns="http://www.w3.org/2000/svg" xmlns:xlink="http://www.w3.org/1999/xlink">
<g id="graph0" class="graph" transform="scale(1 1) rotate(0) translate(4 604)">
<title>twoDegreesRelationshipsDiagram</title>
<polygon fill="#ffffff" stroke="none" points="-4,4 -4,-604 904,-604 904,4 -4,4"/>
<text text-anchor="middle" x="74.5" y="-7.2" font-family="Helvetica,sans-Serif" font-size="11.00">Generated by SchemaSpy</text>
<!-- ansible_collectionversion -->
<g id="node1" class="node"><title>ansible_collectionversion</title>
<g id="a_node1"><a xlink:href="../../tables/ansible_collectionversion.html" xlink:title="ansible_collectionversion" target="_top">
<polygon fill="#ffffff" stroke="none" points="199,-538 199,-596 392,-596 392,-538 199,-538"/>
<polygon fill="#f5f5f5" stroke="none" points="199.5,-574 199.5,-596 392.5,-596 392.5,-574 199.5,-574"/>
<polygon fill="none" stroke="black" points="199.5,-574 199.5,-596 392.5,-596 392.5,-574 199.5,-574"/>
<text text-anchor="start" x="204.5" y="-583.2" font-family="Helvetica,sans-Serif" font-weight="bold" font-size="11.00">ansible_collectionversion</text>
<text text-anchor="start" x="353.5" y="-582.2" font-family="Helvetica,sans-Serif" font-size="11.00">[table]</text>
<polygon fill="none" stroke="black" points="199.5,-556 199.5,-574 392.5,-574 392.5,-556 199.5,-556"/>
<text text-anchor="start" x="202.5" y="-562.2" font-family="Helvetica,sans-Serif" font-size="11.00">...</text>
<polygon fill="#ffffff" stroke="none" points="199.5,-538 199.5,-556 271.5,-556 271.5,-538 199.5,-538"/>
<polygon fill="none" stroke="black" points="199.5,-538 199.5,-556 271.5,-556 271.5,-538 199.5,-538"/>
<text text-anchor="start" x="202.5" y="-544.2" font-family="Helvetica,sans-Serif" font-size="11.00">&lt; 2</text>
<polygon fill="#ffffff" stroke="none" points="271.5,-538 271.5,-556 344.5,-556 344.5,-538 271.5,-538"/>
<polygon fill="none" stroke="black" points="271.5,-538 271.5,-556 344.5,-556 344.5,-538 271.5,-538"/>
<text text-anchor="start" x="298.5" y="-544.2" font-family="Helvetica,sans-Serif" font-size="11.00">88 rows</text>
<polygon fill="#ffffff" stroke="none" points="344.5,-538 344.5,-556 392.5,-556 392.5,-538 344.5,-538"/>
<polygon fill="none" stroke="black" points="344.5,-538 344.5,-556 392.5,-556 392.5,-538 344.5,-538"/>
<text text-anchor="start" x="372.5" y="-544.2" font-family="Helvetica,sans-Serif" font-size="11.00">1 &gt;</text>
</a>
</g>
</g>
<!-- core_content -->
<g id="node2" class="node"><title>core_content</title>
<g id="a_node2"><a xlink:href="../../tables/core_content.html" xlink:title="core_content" target="_top">
<polygon fill="#ffffff" stroke="none" points="8,-279 8,-359 137,-359 137,-279 8,-279"/>
<polygon fill="#f5f5f5" stroke="none" points="8.5,-337 8.5,-359 137.5,-359 137.5,-337 8.5,-337"/>
<polygon fill="none" stroke="black" points="8.5,-337 8.5,-359 137.5,-359 137.5,-337 8.5,-337"/>
<text text-anchor="start" x="13.5" y="-346.2" font-family="Helvetica,sans-Serif" font-weight="bold" font-size="11.00">core_content</text>
<text text-anchor="start" x="98.5" y="-345.2" font-family="Helvetica,sans-Serif" font-size="11.00">[table]</text>
<polygon fill="none" stroke="black" points="8.5,-315 8.5,-337 137.5,-337 137.5,-315 8.5,-315"/>
<image xlink:href="../../images/primaryKeys.png" width="11px" height="12px" preserveAspectRatio="xMinYMin meet" x="13.5" y="-332"/>
<text text-anchor="start" x="28.5" y="-323.2" font-family="Helvetica,sans-Serif" font-size="11.00">pulp_id</text>
<polygon fill="none" stroke="black" points="8.5,-297 8.5,-315 137.5,-315 137.5,-297 8.5,-297"/>
<text text-anchor="start" x="11.5" y="-303.2" font-family="Helvetica,sans-Serif" font-size="11.00">...</text>
<polygon fill="#ffffff" stroke="none" points="8.5,-279 8.5,-297 43.5,-297 43.5,-279 8.5,-279"/>
<polygon fill="none" stroke="black" points="8.5,-279 8.5,-297 43.5,-297 43.5,-279 8.5,-279"/>
<text text-anchor="start" x="11.5" y="-285.2" font-family="Helvetica,sans-Serif" font-size="11.00"> &#160;</text>
<polygon fill="#ffffff" stroke="none" points="43.5,-279 43.5,-297 103.5,-297 103.5,-279 43.5,-279"/>
<polygon fill="none" stroke="black" points="43.5,-279 43.5,-297 103.5,-297 103.5,-279 43.5,-279"/>
<text text-anchor="start" x="57.5" y="-285.2" font-family="Helvetica,sans-Serif" font-size="11.00">88 rows</text>
<polygon fill="#ffffff" stroke="none" points="103.5,-279 103.5,-297 137.5,-297 137.5,-279 103.5,-279"/>
<polygon fill="none" stroke="black" points="103.5,-279 103.5,-297 137.5,-297 137.5,-279 103.5,-279"/>
<text text-anchor="start" x="117.5" y="-285.2" font-family="Helvetica,sans-Serif" font-size="11.00">8 &gt;</text>
</a>
</g>
</g>
<!-- ansible_collectionversion&#45;&gt;core_content -->
<g id="edge1" class="edge"><title>ansible_collectionversion:elipses:w&#45;&gt;core_content:pulp_id:e</title>
<path fill="none" stroke="black" d="M188.423,-561.621C150.189,-532.572 189.409,-326 138.5,-326"/>
<polygon fill="black" stroke="black" points="199.013,-560.953 196.47,-568.538 194.953,-568.03 197.496,-560.445 199.013,-560.953"/>
<polyline fill="none" stroke="black" points="198.5,-565 194.707,-563.728 "/>
<ellipse fill="none" stroke="black" cx="191.673" cy="-562.711" rx="3.20001" ry="3.20001"/>
</g>
<!-- ansible_role -->
<g id="node3" class="node"><title>ansible_role</title>
<g id="a_node3"><a xlink:href="../../tables/ansible_role.html" xlink:title="ansible_role" target="_top">
<polygon fill="#ffffff" stroke="none" points="237,-459 237,-517 354,-517 354,-459 237,-459"/>
<polygon fill="#f5f5f5" stroke="none" points="237.5,-495 237.5,-517 354.5,-517 354.5,-495 237.5,-495"/>
<polygon fill="none" stroke="black" points="237.5,-495 237.5,-517 354.5,-517 354.5,-495 237.5,-495"/>
<text text-anchor="start" x="242.5" y="-504.2" font-family="Helvetica,sans-Serif" font-weight="bold" font-size="11.00">ansible_role</text>
<text text-anchor="start" x="315.5" y="-503.2" font-family="Helvetica,sans-Serif" font-size="11.00">[table]</text>
<polygon fill="none" stroke="black" points="237.5,-477 237.5,-495 354.5,-495 354.5,-477 237.5,-477"/>
<text text-anchor="start" x="240.5" y="-483.2" font-family="Helvetica,sans-Serif" font-size="11.00">...</text>
<polygon fill="#ffffff" stroke="none" points="237.5,-459 237.5,-477 279.5,-477 279.5,-459 237.5,-459"/>
<polygon fill="none" stroke="black" points="237.5,-459 237.5,-477 279.5,-477 279.5,-459 237.5,-459"/>
<text text-anchor="start" x="240.5" y="-465.2" font-family="Helvetica,sans-Serif" font-size="11.00">&lt; 1</text>
<polygon fill="#ffffff" stroke="none" points="279.5,-459 279.5,-477 331.5,-477 331.5,-459 279.5,-459"/>
<polygon fill="none" stroke="black" points="279.5,-459 279.5,-477 331.5,-477 331.5,-459 279.5,-459"/>
<text text-anchor="start" x="292.5" y="-465.2" font-family="Helvetica,sans-Serif" font-size="11.00">0 rows</text>
<polygon fill="#ffffff" stroke="none" points="331.5,-459 331.5,-477 354.5,-477 354.5,-459 331.5,-459"/>
<polygon fill="none" stroke="black" points="331.5,-459 331.5,-477 354.5,-477 354.5,-459 331.5,-459"/>
<text text-anchor="start" x="344.5" y="-465.2" font-family="Helvetica,sans-Serif" font-size="11.00"> &#160;</text>
</a>
</g>
</g>
<!-- ansible_role&#45;&gt;core_content -->
<g id="edge2" class="edge"><title>ansible_role:elipses:w&#45;&gt;core_content:pulp_id:e</title>
<path fill="none" stroke="black" d="M225.958,-485.327C202.7,-482.092 194.665,-467.383 178,-445 144.721,-400.302 194.226,-326 138.5,-326"/>
<polygon fill="black" stroke="black" points="235.957,-481.957 235.447,-489.941 233.85,-489.839 234.36,-481.855 235.957,-481.957"/>
<polyline fill="none" stroke="black" points="236.5,-486 232.508,-485.745 "/>
<ellipse fill="none" stroke="black" cx="229.315" cy="-485.541" rx="3.2" ry="3.2"/>
</g>
<!-- container_blob -->
<g id="node4" class="node"><title>container_blob</title>
<g id="a_node4"><a xlink:href="../../tables/container_blob.html" xlink:title="container_blob" target="_top">
<polygon fill="#ffffff" stroke="none" points="186,-301 186,-411 405,-411 405,-301 186,-301"/>
<polygon fill="#f5f5f5" stroke="none" points="188.5,-387 188.5,-409 403.5,-409 403.5,-387 188.5,-387"/>
<polygon fill="none" stroke="black" points="188.5,-387 188.5,-409 403.5,-409 403.5,-387 188.5,-387"/>
<text text-anchor="start" x="193.5" y="-396.2" font-family="Helvetica,sans-Serif" font-weight="bold" font-size="11.00">container_blob</text>
<text text-anchor="start" x="364.5" y="-395.2" font-family="Helvetica,sans-Serif" font-size="11.00">[table]</text>
<polygon fill="none" stroke="black" points="188.5,-365 188.5,-387 298.5,-387 298.5,-365 188.5,-365"/>
<image xlink:href="../../images/primaryKeys.png" width="11px" height="12px" preserveAspectRatio="xMinYMin meet" x="193.5" y="-382"/>
<text text-anchor="start" x="208.5" y="-373.2" font-family="Helvetica,sans-Serif" font-size="11.00">content_ptr_id</text>
<polygon fill="none" stroke="black" points="298.5,-365 298.5,-387 403.5,-387 403.5,-365 298.5,-365"/>
<text text-anchor="start" x="301.5" y="-373.2" font-family="Helvetica,sans-Serif" font-size="11.00">uuid[2147483647]</text>
<polygon fill="#ffffff" stroke="none" points="188.5,-343 188.5,-365 298.5,-365 298.5,-343 188.5,-343"/>
<polygon fill="none" stroke="black" points="188.5,-343 188.5,-365 298.5,-365 298.5,-343 188.5,-343"/>
<text text-anchor="start" x="208.5" y="-351.2" font-family="Helvetica,sans-Serif" font-size="11.00">digest</text>
<polygon fill="none" stroke="black" points="298.5,-343 298.5,-365 403.5,-365 403.5,-343 298.5,-343"/>
<text text-anchor="start" x="301.5" y="-351.2" font-family="Helvetica,sans-Serif" font-size="11.00">varchar[255]</text>
<polygon fill="none" stroke="black" points="188.5,-321 188.5,-343 298.5,-343 298.5,-321 188.5,-321"/>
<text text-anchor="start" x="208.5" y="-329.2" font-family="Helvetica,sans-Serif" font-size="11.00">media_type</text>
<polygon fill="none" stroke="black" points="298.5,-321 298.5,-343 403.5,-343 403.5,-321 298.5,-321"/>
<text text-anchor="start" x="301.5" y="-329.2" font-family="Helvetica,sans-Serif" font-size="11.00">varchar[80]</text>
<polygon fill="#ffffff" stroke="none" points="188.5,-303 188.5,-321 233.5,-321 233.5,-303 188.5,-303"/>
<polygon fill="none" stroke="black" points="188.5,-303 188.5,-321 233.5,-321 233.5,-303 188.5,-303"/>
<text text-anchor="start" x="191.5" y="-309.2" font-family="Helvetica,sans-Serif" font-size="11.00">&lt; 1</text>
<polygon fill="#ffffff" stroke="none" points="233.5,-303 233.5,-321 298.5,-321 298.5,-303 233.5,-303"/>
<polygon fill="none" stroke="black" points="233.5,-303 233.5,-321 298.5,-321 298.5,-303 233.5,-303"/>
<text text-anchor="start" x="259.5" y="-309.2" font-family="Helvetica,sans-Serif" font-size="11.00">0 rows</text>
<polygon fill="#ffffff" stroke="none" points="298.5,-303 298.5,-321 403.5,-321 403.5,-303 298.5,-303"/>
<polygon fill="none" stroke="black" points="298.5,-303 298.5,-321 403.5,-321 403.5,-303 298.5,-303"/>
<text text-anchor="start" x="383.5" y="-309.2" font-family="Helvetica,sans-Serif" font-size="11.00">2 &gt;</text>
<polygon fill="none" stroke="black" stroke-width="2" points="187,-302 187,-410 404,-410 404,-302 187,-302"/>
</a>
</g>
</g>
<!-- container_blob&#45;&gt;core_content -->
<g id="edge3" class="edge"><title>container_blob:content_ptr_id:w&#45;&gt;core_content:pulp_id:e</title>
<path fill="none" stroke="black" d="M177.242,-373.588C159.117,-363.601 165.482,-326 138.5,-326"/>
<polygon fill="black" stroke="black" points="187.637,-371.923 185.806,-379.711 184.248,-379.345 186.079,-371.557 187.637,-371.923"/>
<polyline fill="none" stroke="black" points="187.5,-376 183.606,-375.085 "/>
<ellipse fill="none" stroke="black" cx="180.491" cy="-374.352" rx="3.20001" ry="3.20001"/>
</g>
<!-- container_blobmanifest -->
<g id="node5" class="node"><title>container_blobmanifest</title>
<g id="a_node5"><a xlink:href="../../tables/container_blobmanifest.html" xlink:title="container_blobmanifest" target="_top">
<polygon fill="#ffffff" stroke="none" points="685,-320 685,-426 870,-426 870,-320 685,-320"/>
<polygon fill="#f5f5f5" stroke="none" points="685.5,-404 685.5,-426 870.5,-426 870.5,-404 685.5,-404"/>
<polygon fill="none" stroke="black" points="685.5,-404 685.5,-426 870.5,-426 870.5,-404 685.5,-404"/>
<text text-anchor="start" x="690.5" y="-413.2" font-family="Helvetica,sans-Serif" font-weight="bold" font-size="11.00">container_blobmanifest</text>
<text text-anchor="start" x="831.5" y="-412.2" font-family="Helvetica,sans-Serif" font-size="11.00">[table]</text>
<polygon fill="none" stroke="black" points="685.5,-382 685.5,-404 870.5,-404 870.5,-382 685.5,-382"/>
<image xlink:href="../../images/primaryKeys.png" width="11px" height="12px" preserveAspectRatio="xMinYMin meet" x="690.5" y="-399"/>
<text text-anchor="start" x="716.5" y="-390.2" font-family="Helvetica,sans-Serif" font-size="11.00">id</text>
<polygon fill="#ffffff" stroke="none" points="685.5,-360 685.5,-382 870.5,-382 870.5,-360 685.5,-360"/>
<polygon fill="none" stroke="black" points="685.5,-360 685.5,-382 870.5,-382 870.5,-360 685.5,-360"/>
<image xlink:href="../../images/foreignKeys.png" width="11px" height="12px" preserveAspectRatio="xMinYMin meet" x="690.5" y="-377"/>
<text text-anchor="start" x="716.5" y="-368.2" font-family="Helvetica,sans-Serif" font-size="11.00">manifest_id</text>
<polygon fill="#ffffff" stroke="none" points="685.5,-338 685.5,-360 870.5,-360 870.5,-338 685.5,-338"/>
<polygon fill="none" stroke="black" points="685.5,-338 685.5,-360 870.5,-360 870.5,-338 685.5,-338"/>
<image xlink:href="../../images/foreignKeys.png" width="11px" height="12px" preserveAspectRatio="xMinYMin meet" x="690.5" y="-355"/>
<text text-anchor="start" x="716.5" y="-346.2" font-family="Helvetica,sans-Serif" font-size="11.00">manifest_blob_id</text>
<polygon fill="#ffffff" stroke="none" points="685.5,-320 685.5,-338 761.5,-338 761.5,-320 685.5,-320"/>
<polygon fill="none" stroke="black" points="685.5,-320 685.5,-338 761.5,-338 761.5,-320 685.5,-320"/>
<text text-anchor="start" x="688.5" y="-326.2" font-family="Helvetica,sans-Serif" font-size="11.00">&lt; 2</text>
<polygon fill="#ffffff" stroke="none" points="761.5,-320 761.5,-338 830.5,-338 830.5,-320 761.5,-320"/>
<polygon fill="none" stroke="black" points="761.5,-320 761.5,-338 830.5,-338 830.5,-320 761.5,-320"/>
<text text-anchor="start" x="791.5" y="-326.2" font-family="Helvetica,sans-Serif" font-size="11.00">0 rows</text>
<polygon fill="#ffffff" stroke="none" points="830.5,-320 830.5,-338 870.5,-338 870.5,-320 830.5,-320"/>
<polygon fill="none" stroke="black" points="830.5,-320 830.5,-338 870.5,-338 870.5,-320 830.5,-320"/>
<text text-anchor="start" x="860.5" y="-326.2" font-family="Helvetica,sans-Serif" font-size="11.00"> &#160;</text>
</a>
</g>
</g>
<!-- container_blobmanifest&#45;&gt;container_blob -->
<g id="edge4" class="edge"><title>container_blobmanifest:manifest_blob_id:w&#45;&gt;container_blob:content_ptr_id.type:e</title>
<path fill="none" stroke="black" d="M670.077,-348.853C575.507,-346.918 543.612,-326.884 446,-353 425.629,-358.45 425.588,-376 404.5,-376"/>
<polygon fill="black" stroke="black" points="676.5,-348.919 684.463,-352.6 680.5,-348.959 684.5,-349 684.5,-349 684.5,-349 680.5,-348.959 684.537,-345.4 676.5,-348.919 676.5,-348.919"/>
<ellipse fill="none" stroke="black" cx="673.301" cy="-348.886" rx="3.2" ry="3.2"/>
</g>
<!-- container_manifest -->
<g id="node6" class="node"><title>container_manifest</title>
<g id="a_node6"><a xlink:href="../../tables/container_manifest.html" xlink:title="container_manifest" target="_top">
<polygon fill="#ffffff" stroke="none" points="454,-363 454,-487 614,-487 614,-363 454,-363"/>
<polygon fill="#f5f5f5" stroke="none" points="454,-465 454,-487 614,-487 614,-465 454,-465"/>
<polygon fill="none" stroke="black" points="454,-465 454,-487 614,-487 614,-465 454,-465"/>
<text text-anchor="start" x="459" y="-474.2" font-family="Helvetica,sans-Serif" font-weight="bold" font-size="11.00">container_manifest</text>
<text text-anchor="start" x="575" y="-473.2" font-family="Helvetica,sans-Serif" font-size="11.00">[table]</text>
<polygon fill="none" stroke="black" points="454,-443 454,-465 614,-465 614,-443 454,-443"/>
<image xlink:href="../../images/primaryKeys.png" width="11px" height="12px" preserveAspectRatio="xMinYMin meet" x="459" y="-460"/>
<text text-anchor="start" x="486" y="-451.2" font-family="Helvetica,sans-Serif" font-size="11.00">content_ptr_id</text>
<polygon fill="#ffffff" stroke="none" points="454,-421 454,-443 614,-443 614,-421 454,-421"/>
<polygon fill="none" stroke="black" points="454,-421 454,-443 614,-443 614,-421 454,-421"/>
<text text-anchor="start" x="486" y="-429.2" font-family="Helvetica,sans-Serif" font-size="11.00">digest</text>
<polygon fill="#ffffff" stroke="none" points="454,-399 454,-421 614,-421 614,-399 454,-399"/>
<polygon fill="none" stroke="black" points="454,-399 454,-421 614,-421 614,-399 454,-399"/>
<image xlink:href="../../images/foreignKeys.png" width="11px" height="12px" preserveAspectRatio="xMinYMin meet" x="459" y="-416"/>
<text text-anchor="start" x="486" y="-407.2" font-family="Helvetica,sans-Serif" font-size="11.00">config_blob_id</text>
<polygon fill="none" stroke="black" points="454,-381 454,-399 614,-399 614,-381 454,-381"/>
<text text-anchor="start" x="457" y="-387.2" font-family="Helvetica,sans-Serif" font-size="11.00">...</text>
<polygon fill="#ffffff" stroke="none" points="454,-363 454,-381 513,-381 513,-363 454,-363"/>
<polygon fill="none" stroke="black" points="454,-363 454,-381 513,-381 513,-363 454,-363"/>
<text text-anchor="start" x="457" y="-369.2" font-family="Helvetica,sans-Serif" font-size="11.00">&lt; 2</text>
<polygon fill="#ffffff" stroke="none" points="513,-363 513,-381 573,-381 573,-363 513,-363"/>
<polygon fill="none" stroke="black" points="513,-363 513,-381 573,-381 573,-363 513,-363"/>
<text text-anchor="start" x="534" y="-369.2" font-family="Helvetica,sans-Serif" font-size="11.00">0 rows</text>
<polygon fill="#ffffff" stroke="none" points="573,-363 573,-381 614,-381 614,-363 573,-363"/>
<polygon fill="none" stroke="black" points="573,-363 573,-381 614,-381 614,-363 573,-363"/>
<text text-anchor="start" x="594" y="-369.2" font-family="Helvetica,sans-Serif" font-size="11.00">4 &gt;</text>
</a>
</g>
</g>
<!-- container_blobmanifest&#45;&gt;container_manifest -->
<g id="edge5" class="edge"><title>container_blobmanifest:manifest_id:w&#45;&gt;container_manifest:content_ptr_id:e</title>
<path fill="none" stroke="black" d="M670.428,-374.152C641.623,-389.313 657.475,-454 615,-454"/>
<polygon fill="black" stroke="black" points="676.693,-372.749 685.287,-374.513 680.597,-371.874 684.5,-371 684.5,-371 684.5,-371 680.597,-371.874 683.713,-367.487 676.693,-372.749 676.693,-372.749"/>
<ellipse fill="none" stroke="black" cx="673.571" cy="-373.448" rx="3.2" ry="3.2"/>
</g>
<!-- container_manifest&#45;&gt;core_content -->
<g id="edge7" class="edge"><title>container_manifest:content_ptr_id:w&#45;&gt;core_content:pulp_id:e</title>
<path fill="none" stroke="black" d="M442.605,-453.6C432.445,-452.739 426.758,-450.65 413,-449 360.808,-442.74 219.929,-453.704 178,-422 141.199,-394.173 184.637,-326 138.5,-326"/>
<polygon fill="black" stroke="black" points="452.354,-449.972 452.047,-457.966 450.448,-457.905 450.755,-449.911 452.354,-449.972"/>
<polyline fill="none" stroke="black" points="453,-454 449.003,-453.846 "/>
<ellipse fill="none" stroke="black" cx="445.805" cy="-453.723" rx="3.2" ry="3.2"/>
</g>
<!-- container_manifest&#45;&gt;container_blob -->
<g id="edge6" class="edge"><title>container_manifest:config_blob_id:w&#45;&gt;container_blob:content_ptr_id.type:e</title>
<path fill="none" stroke="black" d="M439.091,-405.555C426.991,-396.339 424.86,-376 404.5,-376"/>
<polygon fill="black" stroke="black" points="445.38,-407.565 451.904,-413.429 449.19,-408.782 453,-410 453,-410 453,-410 449.19,-408.782 454.096,-406.571 445.38,-407.565 445.38,-407.565"/>
<ellipse fill="none" stroke="black" cx="442.332" cy="-406.591" rx="3.20001" ry="3.20001"/>
</g>
<!-- container_manifestlistmanifest -->
<g id="node7" class="node"><title>container_manifestlistmanifest</title>
<g id="a_node7"><a xlink:href="../../tables/container_manifestlistmanifest.html" xlink:title="container_manifestlistmanifest" target="_top">
<polygon fill="#ffffff" stroke="none" points="663,-447 663,-505 892,-505 892,-447 663,-447"/>
<polygon fill="#f5f5f5" stroke="none" points="663.5,-483 663.5,-505 892.5,-505 892.5,-483 663.5,-483"/>
<polygon fill="none" stroke="black" points="663.5,-483 663.5,-505 892.5,-505 892.5,-483 663.5,-483"/>
<text text-anchor="start" x="668.5" y="-492.2" font-family="Helvetica,sans-Serif" font-weight="bold" font-size="11.00">container_manifestlistmanifest</text>
<text text-anchor="start" x="853.5" y="-491.2" font-family="Helvetica,sans-Serif" font-size="11.00">[table]</text>
<polygon fill="none" stroke="black" points="663.5,-465 663.5,-483 892.5,-483 892.5,-465 663.5,-465"/>
<text text-anchor="start" x="666.5" y="-471.2" font-family="Helvetica,sans-Serif" font-size="11.00">...</text>
<polygon fill="#ffffff" stroke="none" points="663.5,-447 663.5,-465 761.5,-465 761.5,-447 663.5,-447"/>
<polygon fill="none" stroke="black" points="663.5,-447 663.5,-465 761.5,-465 761.5,-447 663.5,-447"/>
<text text-anchor="start" x="666.5" y="-453.2" font-family="Helvetica,sans-Serif" font-size="11.00">&lt; 2</text>
<polygon fill="#ffffff" stroke="none" points="761.5,-447 761.5,-465 841.5,-465 841.5,-447 761.5,-447"/>
<polygon fill="none" stroke="black" points="761.5,-447 761.5,-465 841.5,-465 841.5,-447 761.5,-447"/>
<text text-anchor="start" x="802.5" y="-453.2" font-family="Helvetica,sans-Serif" font-size="11.00">0 rows</text>
<polygon fill="#ffffff" stroke="none" points="841.5,-447 841.5,-465 892.5,-465 892.5,-447 841.5,-447"/>
<polygon fill="none" stroke="black" points="841.5,-447 841.5,-465 892.5,-465 892.5,-447 841.5,-447"/>
<text text-anchor="start" x="882.5" y="-453.2" font-family="Helvetica,sans-Serif" font-size="11.00"> &#160;</text>
</a>
</g>
</g>
<!-- container_manifestlistmanifest&#45;&gt;container_manifest -->
<g id="edge8" class="edge"><title>container_manifestlistmanifest:elipses:w&#45;&gt;container_manifest:content_ptr_id:e</title>
<path fill="none" stroke="black" d="M649.344,-467.989C637.637,-460.053 632.538,-449.406 615,-454"/>
<polygon fill="black" stroke="black" points="655.224,-470.675 661.004,-477.274 658.862,-472.338 662.5,-474 662.5,-474 662.5,-474 658.862,-472.338 663.996,-470.726 655.224,-470.675 655.224,-470.675"/>
<ellipse fill="none" stroke="black" cx="652.313" cy="-469.345" rx="3.20001" ry="3.20001"/>
</g>
<!-- container_manifestlistmanifest&#45;&gt;container_manifest -->
<g id="edge9" class="edge"><title>container_manifestlistmanifest:elipses:w&#45;&gt;container_manifest:content_ptr_id:e</title>
<path fill="none" stroke="black" d="M647.943,-474.613C637.2,-471.292 631.822,-459.141 615,-454"/>
<polygon fill="black" stroke="black" points="654.507,-474.336 662.651,-477.597 658.504,-474.168 662.5,-474 662.5,-474 662.5,-474 658.504,-474.168 662.349,-470.403 654.507,-474.336 654.507,-474.336"/>
<ellipse fill="none" stroke="black" cx="651.31" cy="-474.471" rx="3.2" ry="3.2"/>
</g>
<!-- container_tag -->
<g id="node8" class="node"><title>container_tag</title>
<g id="a_node8"><a xlink:href="../../tables/container_tag.html" xlink:title="container_tag" target="_top">
<polygon fill="#ffffff" stroke="none" points="714,-241 714,-299 841,-299 841,-241 714,-241"/>
<polygon fill="#f5f5f5" stroke="none" points="714.5,-277 714.5,-299 841.5,-299 841.5,-277 714.5,-277"/>
<polygon fill="none" stroke="black" points="714.5,-277 714.5,-299 841.5,-299 841.5,-277 714.5,-277"/>
<text text-anchor="start" x="719.5" y="-286.2" font-family="Helvetica,sans-Serif" font-weight="bold" font-size="11.00">container_tag</text>
<text text-anchor="start" x="802.5" y="-285.2" font-family="Helvetica,sans-Serif" font-size="11.00">[table]</text>
<polygon fill="none" stroke="black" points="714.5,-259 714.5,-277 841.5,-277 841.5,-259 714.5,-259"/>
<text text-anchor="start" x="717.5" y="-265.2" font-family="Helvetica,sans-Serif" font-size="11.00">...</text>
<polygon fill="#ffffff" stroke="none" points="714.5,-241 714.5,-259 761.5,-259 761.5,-241 714.5,-241"/>
<polygon fill="none" stroke="black" points="714.5,-241 714.5,-259 761.5,-259 761.5,-241 714.5,-241"/>
<text text-anchor="start" x="717.5" y="-247.2" font-family="Helvetica,sans-Serif" font-size="11.00">&lt; 2</text>
<polygon fill="#ffffff" stroke="none" points="761.5,-241 761.5,-259 815.5,-259 815.5,-241 761.5,-241"/>
<polygon fill="none" stroke="black" points="761.5,-241 761.5,-259 815.5,-259 815.5,-241 761.5,-241"/>
<text text-anchor="start" x="776.5" y="-247.2" font-family="Helvetica,sans-Serif" font-size="11.00">0 rows</text>
<polygon fill="#ffffff" stroke="none" points="815.5,-241 815.5,-259 841.5,-259 841.5,-241 815.5,-241"/>
<polygon fill="none" stroke="black" points="815.5,-241 815.5,-259 841.5,-259 841.5,-241 815.5,-241"/>
<text text-anchor="start" x="831.5" y="-247.2" font-family="Helvetica,sans-Serif" font-size="11.00"> &#160;</text>
</a>
</g>
</g>
<!-- container_tag&#45;&gt;core_content -->
<g id="edge10" class="edge"><title>container_tag:elipses:w&#45;&gt;core_content:pulp_id:e</title>
<path fill="none" stroke="black" d="M703.087,-268.006C616.094,-268.109 230.683,-269.713 178,-291 156.252,-299.787 161.956,-326 138.5,-326"/>
<polygon fill="black" stroke="black" points="712.698,-264 712.702,-272 711.102,-272.001 711.098,-264.001 712.698,-264"/>
<polyline fill="none" stroke="black" points="713.5,-268 709.5,-268.002 "/>
<ellipse fill="none" stroke="black" cx="706.3" cy="-268.004" rx="3.2" ry="3.2"/>
</g>
<!-- container_tag&#45;&gt;container_manifest -->
<g id="edge11" class="edge"><title>container_tag:elipses:w&#45;&gt;container_manifest:content_ptr_id:e</title>
<path fill="none" stroke="black" d="M698.936,-269.37C678.385,-273.726 670.174,-288.268 655,-310 616.974,-364.461 681.423,-454 615,-454"/>
<polygon fill="black" stroke="black" points="705.535,-268.749 713.837,-271.584 709.518,-268.375 713.5,-268 713.5,-268 713.5,-268 709.518,-268.375 713.163,-264.416 705.535,-268.749 705.535,-268.749"/>
<ellipse fill="none" stroke="black" cx="702.349" cy="-269.049" rx="3.2" ry="3.2"/>
</g>
<!-- core_contentartifact -->
<g id="node9" class="node"><title>core_contentartifact</title>
<g id="a_node9"><a xlink:href="../../tables/core_contentartifact.html" xlink:title="core_contentartifact" target="_top">
<polygon fill="#ffffff" stroke="none" points="212.5,-195 212.5,-253 378.5,-253 378.5,-195 212.5,-195"/>
<polygon fill="#f5f5f5" stroke="none" points="212.5,-231 212.5,-253 378.5,-253 378.5,-231 212.5,-231"/>
<polygon fill="none" stroke="black" points="212.5,-231 212.5,-253 378.5,-253 378.5,-231 212.5,-231"/>
<text text-anchor="start" x="217.5" y="-240.2" font-family="Helvetica,sans-Serif" font-weight="bold" font-size="11.00">core_contentartifact</text>
<text text-anchor="start" x="339.5" y="-239.2" font-family="Helvetica,sans-Serif" font-size="11.00">[table]</text>
<polygon fill="none" stroke="black" points="212.5,-213 212.5,-231 378.5,-231 378.5,-213 212.5,-213"/>
<text text-anchor="start" x="215.5" y="-219.2" font-family="Helvetica,sans-Serif" font-size="11.00">...</text>
<polygon fill="#ffffff" stroke="none" points="212.5,-195 212.5,-213 270.5,-213 270.5,-195 212.5,-195"/>
<polygon fill="none" stroke="black" points="212.5,-195 212.5,-213 270.5,-213 270.5,-195 212.5,-195"/>
<text text-anchor="start" x="215.5" y="-201.2" font-family="Helvetica,sans-Serif" font-size="11.00">&lt; 2</text>
<polygon fill="#ffffff" stroke="none" points="270.5,-195 270.5,-213 337.5,-213 337.5,-195 270.5,-195"/>
<polygon fill="none" stroke="black" points="270.5,-195 270.5,-213 337.5,-213 337.5,-195 270.5,-195"/>
<text text-anchor="start" x="291.5" y="-201.2" font-family="Helvetica,sans-Serif" font-size="11.00">88 rows</text>
<polygon fill="#ffffff" stroke="none" points="337.5,-195 337.5,-213 378.5,-213 378.5,-195 337.5,-195"/>
<polygon fill="none" stroke="black" points="337.5,-195 337.5,-213 378.5,-213 378.5,-195 337.5,-195"/>
<text text-anchor="start" x="358.5" y="-201.2" font-family="Helvetica,sans-Serif" font-size="11.00">2 &gt;</text>
</a>
</g>
</g>
<!-- core_contentartifact&#45;&gt;core_content -->
<g id="edge12" class="edge"><title>core_contentartifact:elipses:w&#45;&gt;core_content:pulp_id:e</title>
<path fill="none" stroke="black" d="M197.075,-225C162.147,-242.052 189.237,-326 138.5,-326"/>
<polygon fill="black" stroke="black" points="203.668,-223.629 212.233,-225.525 207.584,-222.815 211.5,-222 211.5,-222 211.5,-222 207.584,-222.815 210.767,-218.475 203.668,-223.629 203.668,-223.629"/>
<ellipse fill="none" stroke="black" cx="200.535" cy="-224.281" rx="3.2" ry="3.2"/>
</g>
<!-- core_publishedmetadata -->
<g id="node10" class="node"><title>core_publishedmetadata</title>
<g id="a_node10"><a xlink:href="../../tables/core_publishedmetadata.html" xlink:title="core_publishedmetadata" target="_top">
<polygon fill="#ffffff" stroke="none" points="200,-116 200,-174 391,-174 391,-116 200,-116"/>
<polygon fill="#f5f5f5" stroke="none" points="200.5,-152 200.5,-174 391.5,-174 391.5,-152 200.5,-152"/>
<polygon fill="none" stroke="black" points="200.5,-152 200.5,-174 391.5,-174 391.5,-152 200.5,-152"/>
<text text-anchor="start" x="205.5" y="-161.2" font-family="Helvetica,sans-Serif" font-weight="bold" font-size="11.00">core_publishedmetadata</text>
<text text-anchor="start" x="352.5" y="-160.2" font-family="Helvetica,sans-Serif" font-size="11.00">[table]</text>
<polygon fill="none" stroke="black" points="200.5,-134 200.5,-152 391.5,-152 391.5,-134 200.5,-134"/>
<text text-anchor="start" x="203.5" y="-140.2" font-family="Helvetica,sans-Serif" font-size="11.00">...</text>
<polygon fill="#ffffff" stroke="none" points="200.5,-116 200.5,-134 279.5,-134 279.5,-116 200.5,-116"/>
<polygon fill="none" stroke="black" points="200.5,-116 200.5,-134 279.5,-134 279.5,-116 200.5,-116"/>
<text text-anchor="start" x="203.5" y="-122.2" font-family="Helvetica,sans-Serif" font-size="11.00">&lt; 2</text>
<polygon fill="#ffffff" stroke="none" points="279.5,-116 279.5,-134 349.5,-134 349.5,-116 279.5,-116"/>
<polygon fill="none" stroke="black" points="279.5,-116 279.5,-134 349.5,-134 349.5,-116 279.5,-116"/>
<text text-anchor="start" x="310.5" y="-122.2" font-family="Helvetica,sans-Serif" font-size="11.00">0 rows</text>
<polygon fill="#ffffff" stroke="none" points="349.5,-116 349.5,-134 391.5,-134 391.5,-116 349.5,-116"/>
<polygon fill="none" stroke="black" points="349.5,-116 349.5,-134 391.5,-134 391.5,-116 349.5,-116"/>
<text text-anchor="start" x="381.5" y="-122.2" font-family="Helvetica,sans-Serif" font-size="11.00"> &#160;</text>
</a>
</g>
</g>
<!-- core_publishedmetadata&#45;&gt;core_content -->
<g id="edge13" class="edge"><title>core_publishedmetadata:elipses:w&#45;&gt;core_content:pulp_id:e</title>
<path fill="none" stroke="black" d="M189.098,-144.075C123.296,-159.072 220.382,-326 138.5,-326"/>
<polygon fill="black" stroke="black" points="198.293,-139.103 199.115,-147.061 197.524,-147.225 196.702,-139.268 198.293,-139.103"/>
<polyline fill="none" stroke="black" points="199.5,-143 195.521,-143.411 "/>
<ellipse fill="none" stroke="black" cx="192.338" cy="-143.74" rx="3.2" ry="3.2"/>
</g>
<!-- core_repositorycontent -->
<g id="node11" class="node"><title>core_repositorycontent</title>
<g id="a_node11"><a xlink:href="../../tables/core_repositorycontent.html" xlink:title="core_repositorycontent" target="_top">
<polygon fill="#ffffff" stroke="none" points="204.5,-37 204.5,-95 386.5,-95 386.5,-37 204.5,-37"/>
<polygon fill="#f5f5f5" stroke="none" points="204.5,-73 204.5,-95 386.5,-95 386.5,-73 204.5,-73"/>
<polygon fill="none" stroke="black" points="204.5,-73 204.5,-95 386.5,-95 386.5,-73 204.5,-73"/>
<text text-anchor="start" x="209.5" y="-82.2" font-family="Helvetica,sans-Serif" font-weight="bold" font-size="11.00">core_repositorycontent</text>
<text text-anchor="start" x="347.5" y="-81.2" font-family="Helvetica,sans-Serif" font-size="11.00">[table]</text>
<polygon fill="none" stroke="black" points="204.5,-55 204.5,-73 386.5,-73 386.5,-55 204.5,-55"/>
<text text-anchor="start" x="207.5" y="-61.2" font-family="Helvetica,sans-Serif" font-size="11.00">...</text>
<polygon fill="#ffffff" stroke="none" points="204.5,-37 204.5,-55 272.5,-55 272.5,-37 204.5,-37"/>
<polygon fill="none" stroke="black" points="204.5,-37 204.5,-55 272.5,-55 272.5,-37 204.5,-37"/>
<text text-anchor="start" x="207.5" y="-43.2" font-family="Helvetica,sans-Serif" font-size="11.00">&lt; 4</text>
<polygon fill="#ffffff" stroke="none" points="272.5,-37 272.5,-55 350.5,-55 350.5,-37 272.5,-37"/>
<polygon fill="none" stroke="black" points="272.5,-37 272.5,-55 350.5,-55 350.5,-37 272.5,-37"/>
<text text-anchor="start" x="298.5" y="-43.2" font-family="Helvetica,sans-Serif" font-size="11.00">786 rows</text>
<polygon fill="#ffffff" stroke="none" points="350.5,-37 350.5,-55 386.5,-55 386.5,-37 350.5,-37"/>
<polygon fill="none" stroke="black" points="350.5,-37 350.5,-55 386.5,-55 386.5,-37 350.5,-37"/>
<text text-anchor="start" x="376.5" y="-43.2" font-family="Helvetica,sans-Serif" font-size="11.00"> &#160;</text>
</a>
</g>
</g>
<!-- core_repositorycontent&#45;&gt;core_content -->
<g id="edge14" class="edge"><title>core_repositorycontent:elipses:w&#45;&gt;core_content:pulp_id:e</title>
<path fill="none" stroke="black" d="M189.949,-69.9645C152.463,-108.963 193.098,-326 138.5,-326"/>
<polygon fill="black" stroke="black" points="196.178,-67.2228 204.95,-67.295 199.839,-65.6114 203.5,-64 203.5,-64 203.5,-64 199.839,-65.6114 202.05,-60.705 196.178,-67.2228 196.178,-67.2228"/>
<ellipse fill="none" stroke="black" cx="193.249" cy="-68.5119" rx="3.20001" ry="3.20001"/>
</g>
</g>
</svg>
