<?xml version="1.0" encoding="UTF-8" standalone="no"?>
<!DOCTYPE svg PUBLIC "-//W3C//DTD SVG 1.1//EN"
 "http://www.w3.org/Graphics/SVG/1.1/DTD/svg11.dtd">
<!-- Generated by graphviz version 2.38.0 (20140413.2041)
 -->
<!-- Title: oneDegreeRelationshipsDiagram Pages: 1 -->
<svg width="527pt" height="203pt"
 viewBox="0.00 0.00 527.00 203.00" xmlns="http://www.w3.org/2000/svg" xmlns:xlink="http://www.w3.org/1999/xlink">
<g id="graph0" class="graph" transform="scale(1 1) rotate(0) translate(4 199)">
<title>oneDegreeRelationshipsDiagram</title>
<polygon fill="#ffffff" stroke="none" points="-4,4 -4,-199 523,-199 523,4 -4,4"/>
<text text-anchor="middle" x="74.5" y="-7.2" font-family="Helvetica,sans-Serif" font-size="11.00">Generated by SchemaSpy</text>
<!-- container_containerremote -->
<g id="node1" class="node"><title>container_containerremote</title>
<g id="a_node1"><a xlink:href="../../tables/container_containerremote.html" xlink:title="container_containerremote" target="_top">
<polygon fill="#ffffff" stroke="none" points="216,-37 216,-191 511,-191 511,-37 216,-37"/>
<polygon fill="#f5f5f5" stroke="none" points="218.5,-167 218.5,-189 509.5,-189 509.5,-167 218.5,-167"/>
<polygon fill="none" stroke="black" points="218.5,-167 218.5,-189 509.5,-189 509.5,-167 218.5,-167"/>
<text text-anchor="start" x="223.5" y="-176.2" font-family="Helvetica,sans-Serif" font-weight="bold" font-size="11.00">container_containerremote</text>
<text text-anchor="start" x="470.5" y="-175.2" font-family="Helvetica,sans-Serif" font-size="11.00">[table]</text>
<polygon fill="none" stroke="black" points="218.5,-145 218.5,-167 404.5,-167 404.5,-145 218.5,-145"/>
<image xlink:href="../../images/primaryKeys.png" width="11px" height="12px" preserveAspectRatio="xMinYMin meet" x="223.5" y="-162"/>
<text text-anchor="start" x="238.5" y="-153.2" font-family="Helvetica,sans-Serif" font-size="11.00">remote_ptr_id</text>
<polygon fill="none" stroke="black" points="404.5,-145 404.5,-167 509.5,-167 509.5,-145 404.5,-145"/>
<text text-anchor="start" x="407.5" y="-153.2" font-family="Helvetica,sans-Serif" font-size="11.00">uuid[2147483647]</text>
<polygon fill="#ffffff" stroke="none" points="218.5,-123 218.5,-145 404.5,-145 404.5,-123 218.5,-123"/>
<polygon fill="none" stroke="black" points="218.5,-123 218.5,-145 404.5,-145 404.5,-123 218.5,-123"/>
<text text-anchor="start" x="238.5" y="-131.2" font-family="Helvetica,sans-Serif" font-size="11.00">upstream_name</text>
<polygon fill="none" stroke="black" points="404.5,-123 404.5,-145 509.5,-145 509.5,-123 404.5,-123"/>
<text text-anchor="start" x="407.5" y="-131.2" font-family="Helvetica,sans-Serif" font-size="11.00">varchar[255]</text>
<polygon fill="none" stroke="black" points="218.5,-101 218.5,-123 404.5,-123 404.5,-101 218.5,-101"/>
<text text-anchor="start" x="238.5" y="-109.2" font-family="Helvetica,sans-Serif" font-size="11.00">include_foreign_layers</text>
<polygon fill="none" stroke="black" points="404.5,-101 404.5,-123 509.5,-123 509.5,-101 404.5,-101"/>
<text text-anchor="start" x="407.5" y="-109.2" font-family="Helvetica,sans-Serif" font-size="11.00">bool[1]</text>
<polygon fill="none" stroke="black" points="218.5,-79 218.5,-101 404.5,-101 404.5,-79 218.5,-79"/>
<text text-anchor="start" x="238.5" y="-87.2" font-family="Helvetica,sans-Serif" font-size="11.00">include_tags</text>
<polygon fill="none" stroke="black" points="404.5,-79 404.5,-101 509.5,-101 509.5,-79 404.5,-79"/>
<text text-anchor="start" x="407.5" y="-87.2" font-family="Helvetica,sans-Serif" font-size="11.00">_varchar[255]</text>
<polygon fill="none" stroke="black" points="218.5,-57 218.5,-79 404.5,-79 404.5,-57 218.5,-57"/>
<text text-anchor="start" x="238.5" y="-65.2" font-family="Helvetica,sans-Serif" font-size="11.00">exclude_tags</text>
<polygon fill="none" stroke="black" points="404.5,-57 404.5,-79 509.5,-79 509.5,-57 404.5,-57"/>
<text text-anchor="start" x="407.5" y="-65.2" font-family="Helvetica,sans-Serif" font-size="11.00">_varchar[255]</text>
<polygon fill="#ffffff" stroke="none" points="218.5,-39 218.5,-57 301.5,-57 301.5,-39 218.5,-39"/>
<polygon fill="none" stroke="black" points="218.5,-39 218.5,-57 301.5,-57 301.5,-39 218.5,-39"/>
<text text-anchor="start" x="221.5" y="-45.2" font-family="Helvetica,sans-Serif" font-size="11.00">&lt; 1</text>
<polygon fill="#ffffff" stroke="none" points="301.5,-39 301.5,-57 404.5,-57 404.5,-39 301.5,-39"/>
<polygon fill="none" stroke="black" points="301.5,-39 301.5,-57 404.5,-57 404.5,-39 301.5,-39"/>
<text text-anchor="start" x="365.5" y="-45.2" font-family="Helvetica,sans-Serif" font-size="11.00">0 rows</text>
<polygon fill="#ffffff" stroke="none" points="404.5,-39 404.5,-57 509.5,-57 509.5,-39 404.5,-39"/>
<polygon fill="none" stroke="black" points="404.5,-39 404.5,-57 509.5,-57 509.5,-39 404.5,-39"/>
<text text-anchor="start" x="489.5" y="-45.2" font-family="Helvetica,sans-Serif" font-size="11.00">0 &gt;</text>
<polygon fill="none" stroke="black" stroke-width="2" points="217,-38 217,-190 510,-190 510,-38 217,-38"/>
</a>
</g>
</g>
<!-- core_remote -->
<g id="node2" class="node"><title>core_remote</title>
<g id="a_node2"><a xlink:href="../../tables/core_remote.html" xlink:title="core_remote" target="_top">
<polygon fill="#ffffff" stroke="none" points="8,-87 8,-189 167,-189 167,-87 8,-87"/>
<polygon fill="#f5f5f5" stroke="none" points="8.5,-167 8.5,-189 167.5,-189 167.5,-167 8.5,-167"/>
<polygon fill="none" stroke="black" points="8.5,-167 8.5,-189 167.5,-189 167.5,-167 8.5,-167"/>
<text text-anchor="start" x="13.5" y="-176.2" font-family="Helvetica,sans-Serif" font-weight="bold" font-size="11.00">core_remote</text>
<text text-anchor="start" x="128.5" y="-175.2" font-family="Helvetica,sans-Serif" font-size="11.00">[table]</text>
<polygon fill="none" stroke="black" points="8.5,-145 8.5,-167 167.5,-167 167.5,-145 8.5,-145"/>
<image xlink:href="../../images/primaryKeys.png" width="11px" height="12px" preserveAspectRatio="xMinYMin meet" x="13.5" y="-162"/>
<text text-anchor="start" x="28.5" y="-153.2" font-family="Helvetica,sans-Serif" font-size="11.00">pulp_id</text>
<polygon fill="#ffffff" stroke="none" points="8.5,-123 8.5,-145 167.5,-145 167.5,-123 8.5,-123"/>
<polygon fill="none" stroke="black" points="8.5,-123 8.5,-145 167.5,-145 167.5,-123 8.5,-123"/>
<text text-anchor="start" x="28.5" y="-131.2" font-family="Helvetica,sans-Serif" font-size="11.00">name</text>
<polygon fill="none" stroke="black" points="8.5,-105 8.5,-123 167.5,-123 167.5,-105 8.5,-105"/>
<text text-anchor="start" x="11.5" y="-111.2" font-family="Helvetica,sans-Serif" font-size="11.00">...</text>
<polygon fill="#ffffff" stroke="none" points="8.5,-87 8.5,-105 61.5,-105 61.5,-87 8.5,-87"/>
<polygon fill="none" stroke="black" points="8.5,-87 8.5,-105 61.5,-105 61.5,-87 8.5,-87"/>
<text text-anchor="start" x="11.5" y="-93.2" font-family="Helvetica,sans-Serif" font-size="11.00"> &#160;</text>
<polygon fill="#ffffff" stroke="none" points="61.5,-87 61.5,-105 123.5,-105 123.5,-87 61.5,-87"/>
<polygon fill="none" stroke="black" points="61.5,-87 61.5,-105 123.5,-105 123.5,-87 61.5,-87"/>
<text text-anchor="start" x="84.5" y="-93.2" font-family="Helvetica,sans-Serif" font-size="11.00">7 rows</text>
<polygon fill="#ffffff" stroke="none" points="123.5,-87 123.5,-105 167.5,-105 167.5,-87 123.5,-87"/>
<polygon fill="none" stroke="black" points="123.5,-87 123.5,-105 167.5,-105 167.5,-87 123.5,-87"/>
<text text-anchor="start" x="147.5" y="-93.2" font-family="Helvetica,sans-Serif" font-size="11.00">6 &gt;</text>
</a>
</g>
</g>
<!-- container_containerremote&#45;&gt;core_remote -->
<g id="edge1" class="edge"><title>container_containerremote:remote_ptr_id:w&#45;&gt;core_remote:pulp_id:e</title>
<path fill="none" stroke="black" d="M206.757,-156C193.106,-156 186.194,-156 168.5,-156"/>
<polygon fill="black" stroke="black" points="216.7,-152 216.7,-160 215.1,-160 215.1,-152 216.7,-152"/>
<polyline fill="none" stroke="black" points="217.5,-156 213.5,-156 "/>
<ellipse fill="none" stroke="black" cx="210.3" cy="-156" rx="3.2" ry="3.2"/>
</g>
</g>
</svg>
