<?xml version="1.0" encoding="UTF-8" standalone="no"?>
<!DOCTYPE svg PUBLIC "-//W3C//DTD SVG 1.1//EN"
 "http://www.w3.org/Graphics/SVG/1.1/DTD/svg11.dtd">
<!-- Generated by graphviz version 2.38.0 (20140413.2041)
 -->
<!-- Title: oneDegreeRelationshipsDiagram Pages: 1 -->
<svg width="656pt" height="225pt"
 viewBox="0.00 0.00 656.00 225.00" xmlns="http://www.w3.org/2000/svg" xmlns:xlink="http://www.w3.org/1999/xlink">
<g id="graph0" class="graph" transform="scale(1 1) rotate(0) translate(4 221)">
<title>oneDegreeRelationshipsDiagram</title>
<polygon fill="#ffffff" stroke="none" points="-4,4 -4,-221 652,-221 652,4 -4,4"/>
<text text-anchor="middle" x="74.5" y="-7.2" font-family="Helvetica,sans-Serif" font-size="11.00">Generated by SchemaSpy</text>
<!-- container_manifest -->
<g id="node1" class="node"><title>container_manifest</title>
<g id="a_node1"><a xlink:href="../../tables/container_manifest.html" xlink:title="container_manifest" target="_top">
<polygon fill="#ffffff" stroke="none" points="186,-37 186,-161 346,-161 346,-37 186,-37"/>
<polygon fill="#f5f5f5" stroke="none" points="186,-139 186,-161 346,-161 346,-139 186,-139"/>
<polygon fill="none" stroke="black" points="186,-139 186,-161 346,-161 346,-139 186,-139"/>
<text text-anchor="start" x="191" y="-148.2" font-family="Helvetica,sans-Serif" font-weight="bold" font-size="11.00">container_manifest</text>
<text text-anchor="start" x="307" y="-147.2" font-family="Helvetica,sans-Serif" font-size="11.00">[table]</text>
<polygon fill="none" stroke="black" points="186,-117 186,-139 346,-139 346,-117 186,-117"/>
<image xlink:href="../../images/primaryKeys.png" width="11px" height="12px" preserveAspectRatio="xMinYMin meet" x="191" y="-134"/>
<text text-anchor="start" x="218" y="-125.2" font-family="Helvetica,sans-Serif" font-size="11.00">content_ptr_id</text>
<polygon fill="#ffffff" stroke="none" points="186,-95 186,-117 346,-117 346,-95 186,-95"/>
<polygon fill="none" stroke="black" points="186,-95 186,-117 346,-117 346,-95 186,-95"/>
<text text-anchor="start" x="218" y="-103.2" font-family="Helvetica,sans-Serif" font-size="11.00">digest</text>
<polygon fill="#ffffff" stroke="none" points="186,-73 186,-95 346,-95 346,-73 186,-73"/>
<polygon fill="none" stroke="black" points="186,-73 186,-95 346,-95 346,-73 186,-73"/>
<image xlink:href="../../images/foreignKeys.png" width="11px" height="12px" preserveAspectRatio="xMinYMin meet" x="191" y="-90"/>
<text text-anchor="start" x="218" y="-81.2" font-family="Helvetica,sans-Serif" font-size="11.00">config_blob_id</text>
<polygon fill="none" stroke="black" points="186,-55 186,-73 346,-73 346,-55 186,-55"/>
<text text-anchor="start" x="189" y="-61.2" font-family="Helvetica,sans-Serif" font-size="11.00">...</text>
<polygon fill="#ffffff" stroke="none" points="186,-37 186,-55 245,-55 245,-37 186,-37"/>
<polygon fill="none" stroke="black" points="186,-37 186,-55 245,-55 245,-37 186,-37"/>
<text text-anchor="start" x="189" y="-43.2" font-family="Helvetica,sans-Serif" font-size="11.00">&lt; 2</text>
<polygon fill="#ffffff" stroke="none" points="245,-37 245,-55 305,-55 305,-37 245,-37"/>
<polygon fill="none" stroke="black" points="245,-37 245,-55 305,-55 305,-37 245,-37"/>
<text text-anchor="start" x="266" y="-43.2" font-family="Helvetica,sans-Serif" font-size="11.00">0 rows</text>
<polygon fill="#ffffff" stroke="none" points="305,-37 305,-55 346,-55 346,-37 305,-37"/>
<polygon fill="none" stroke="black" points="305,-37 305,-55 346,-55 346,-37 305,-37"/>
<text text-anchor="start" x="326" y="-43.2" font-family="Helvetica,sans-Serif" font-size="11.00">4 &gt;</text>
</a>
</g>
</g>
<!-- core_content -->
<g id="node2" class="node"><title>core_content</title>
<g id="a_node2"><a xlink:href="../../tables/core_content.html" xlink:title="core_content" target="_top">
<polygon fill="#ffffff" stroke="none" points="8,-109 8,-189 137,-189 137,-109 8,-109"/>
<polygon fill="#f5f5f5" stroke="none" points="8.5,-167 8.5,-189 137.5,-189 137.5,-167 8.5,-167"/>
<polygon fill="none" stroke="black" points="8.5,-167 8.5,-189 137.5,-189 137.5,-167 8.5,-167"/>
<text text-anchor="start" x="13.5" y="-176.2" font-family="Helvetica,sans-Serif" font-weight="bold" font-size="11.00">core_content</text>
<text text-anchor="start" x="98.5" y="-175.2" font-family="Helvetica,sans-Serif" font-size="11.00">[table]</text>
<polygon fill="none" stroke="black" points="8.5,-145 8.5,-167 137.5,-167 137.5,-145 8.5,-145"/>
<image xlink:href="../../images/primaryKeys.png" width="11px" height="12px" preserveAspectRatio="xMinYMin meet" x="13.5" y="-162"/>
<text text-anchor="start" x="28.5" y="-153.2" font-family="Helvetica,sans-Serif" font-size="11.00">pulp_id</text>
<polygon fill="none" stroke="black" points="8.5,-127 8.5,-145 137.5,-145 137.5,-127 8.5,-127"/>
<text text-anchor="start" x="11.5" y="-133.2" font-family="Helvetica,sans-Serif" font-size="11.00">...</text>
<polygon fill="#ffffff" stroke="none" points="8.5,-109 8.5,-127 43.5,-127 43.5,-109 8.5,-109"/>
<polygon fill="none" stroke="black" points="8.5,-109 8.5,-127 43.5,-127 43.5,-109 8.5,-109"/>
<text text-anchor="start" x="11.5" y="-115.2" font-family="Helvetica,sans-Serif" font-size="11.00"> &#160;</text>
<polygon fill="#ffffff" stroke="none" points="43.5,-109 43.5,-127 103.5,-127 103.5,-109 43.5,-109"/>
<polygon fill="none" stroke="black" points="43.5,-109 43.5,-127 103.5,-127 103.5,-109 43.5,-109"/>
<text text-anchor="start" x="57.5" y="-115.2" font-family="Helvetica,sans-Serif" font-size="11.00">88 rows</text>
<polygon fill="#ffffff" stroke="none" points="103.5,-109 103.5,-127 137.5,-127 137.5,-109 103.5,-109"/>
<polygon fill="none" stroke="black" points="103.5,-109 103.5,-127 137.5,-127 137.5,-109 103.5,-109"/>
<text text-anchor="start" x="117.5" y="-115.2" font-family="Helvetica,sans-Serif" font-size="11.00">8 &gt;</text>
</a>
</g>
</g>
<!-- container_manifest&#45;&gt;core_content -->
<g id="edge1" class="edge"><title>container_manifest:content_ptr_id:w&#45;&gt;core_content:pulp_id:e</title>
<path fill="none" stroke="black" d="M174.591,-130.197C160.713,-136.798 158.478,-156 138.5,-156"/>
<polygon fill="black" stroke="black" points="183.391,-124.251 185.043,-132.079 183.478,-132.409 181.826,-124.582 183.391,-124.251"/>
<polyline fill="none" stroke="black" points="185,-128 181.086,-128.826 "/>
<ellipse fill="none" stroke="black" cx="177.955" cy="-129.487" rx="3.20001" ry="3.20001"/>
</g>
<!-- container_tag -->
<g id="node3" class="node"><title>container_tag</title>
<g id="a_node3"><a xlink:href="../../tables/container_tag.html" xlink:title="container_tag" target="_top">
<polygon fill="#ffffff" stroke="none" points="395,-103 395,-213 640,-213 640,-103 395,-103"/>
<polygon fill="#f5f5f5" stroke="none" points="397.5,-189 397.5,-211 638.5,-211 638.5,-189 397.5,-189"/>
<polygon fill="none" stroke="black" points="397.5,-189 397.5,-211 638.5,-211 638.5,-189 397.5,-189"/>
<text text-anchor="start" x="402.5" y="-198.2" font-family="Helvetica,sans-Serif" font-weight="bold" font-size="11.00">container_tag</text>
<text text-anchor="start" x="599.5" y="-197.2" font-family="Helvetica,sans-Serif" font-size="11.00">[table]</text>
<polygon fill="none" stroke="black" points="397.5,-167 397.5,-189 533.5,-189 533.5,-167 397.5,-167"/>
<image xlink:href="../../images/primaryKeys.png" width="11px" height="12px" preserveAspectRatio="xMinYMin meet" x="402.5" y="-184"/>
<text text-anchor="start" x="417.5" y="-175.2" font-family="Helvetica,sans-Serif" font-size="11.00">content_ptr_id</text>
<polygon fill="none" stroke="black" points="533.5,-167 533.5,-189 638.5,-189 638.5,-167 533.5,-167"/>
<text text-anchor="start" x="536.5" y="-175.2" font-family="Helvetica,sans-Serif" font-size="11.00">uuid[2147483647]</text>
<polygon fill="#ffffff" stroke="none" points="397.5,-145 397.5,-167 533.5,-167 533.5,-145 397.5,-145"/>
<polygon fill="none" stroke="black" points="397.5,-145 397.5,-167 533.5,-167 533.5,-145 397.5,-145"/>
<text text-anchor="start" x="417.5" y="-153.2" font-family="Helvetica,sans-Serif" font-size="11.00">name</text>
<polygon fill="none" stroke="black" points="533.5,-145 533.5,-167 638.5,-167 638.5,-145 533.5,-145"/>
<text text-anchor="start" x="536.5" y="-153.2" font-family="Helvetica,sans-Serif" font-size="11.00">varchar[255]</text>
<polygon fill="#ffffff" stroke="none" points="397.5,-123 397.5,-145 533.5,-145 533.5,-123 397.5,-123"/>
<polygon fill="none" stroke="black" points="397.5,-123 397.5,-145 533.5,-145 533.5,-123 397.5,-123"/>
<image xlink:href="../../images/foreignKeys.png" width="11px" height="12px" preserveAspectRatio="xMinYMin meet" x="402.5" y="-140"/>
<text text-anchor="start" x="417.5" y="-131.2" font-family="Helvetica,sans-Serif" font-size="11.00">tagged_manifest_id</text>
<polygon fill="none" stroke="black" points="533.5,-123 533.5,-145 638.5,-145 638.5,-123 533.5,-123"/>
<text text-anchor="start" x="536.5" y="-131.2" font-family="Helvetica,sans-Serif" font-size="11.00">uuid[2147483647]</text>
<polygon fill="#ffffff" stroke="none" points="397.5,-105 397.5,-123 455.5,-123 455.5,-105 397.5,-105"/>
<polygon fill="none" stroke="black" points="397.5,-105 397.5,-123 455.5,-123 455.5,-105 397.5,-105"/>
<text text-anchor="start" x="400.5" y="-111.2" font-family="Helvetica,sans-Serif" font-size="11.00">&lt; 2</text>
<polygon fill="#ffffff" stroke="none" points="455.5,-105 455.5,-123 533.5,-123 533.5,-105 455.5,-105"/>
<polygon fill="none" stroke="black" points="455.5,-105 455.5,-123 533.5,-123 533.5,-105 455.5,-105"/>
<text text-anchor="start" x="494.5" y="-111.2" font-family="Helvetica,sans-Serif" font-size="11.00">0 rows</text>
<polygon fill="#ffffff" stroke="none" points="533.5,-105 533.5,-123 638.5,-123 638.5,-105 533.5,-105"/>
<polygon fill="none" stroke="black" points="533.5,-105 533.5,-123 638.5,-123 638.5,-105 533.5,-105"/>
<text text-anchor="start" x="618.5" y="-111.2" font-family="Helvetica,sans-Serif" font-size="11.00">0 &gt;</text>
<polygon fill="none" stroke="black" stroke-width="2" points="396,-104 396,-212 639,-212 639,-104 396,-104"/>
</a>
</g>
</g>
<!-- container_tag&#45;&gt;container_manifest -->
<g id="edge3" class="edge"><title>container_tag:tagged_manifest_id:w&#45;&gt;container_manifest:content_ptr_id:e</title>
<path fill="none" stroke="black" d="M381.799,-132.955C370.39,-131.236 363.275,-128 347,-128"/>
<polygon fill="black" stroke="black" points="388.52,-133.433 396.245,-137.591 392.51,-133.716 396.5,-134 396.5,-134 396.5,-134 392.51,-133.716 396.755,-130.409 388.52,-133.433 388.52,-133.433"/>
<ellipse fill="none" stroke="black" cx="385.328" cy="-133.206" rx="3.2" ry="3.2"/>
</g>
<!-- container_tag&#45;&gt;core_content -->
<g id="edge2" class="edge"><title>container_tag:content_ptr_id:w&#45;&gt;core_content:pulp_id:e</title>
<path fill="none" stroke="black" d="M385.97,-178.055C297.308,-178.984 269.562,-191.148 178,-172 159.46,-168.123 157.441,-156 138.5,-156"/>
<polygon fill="black" stroke="black" points="395.679,-174.004 395.721,-182.004 394.121,-182.012 394.079,-174.013 395.679,-174.004"/>
<polyline fill="none" stroke="black" points="396.5,-178 392.5,-178.021 "/>
<ellipse fill="none" stroke="black" cx="389.3" cy="-178.038" rx="3.2" ry="3.2"/>
</g>
</g>
</svg>
