<?xml version="1.0" encoding="UTF-8" standalone="no"?>
<!DOCTYPE svg PUBLIC "-//W3C//DTD SVG 1.1//EN"
 "http://www.w3.org/Graphics/SVG/1.1/DTD/svg11.dtd">
<!-- Generated by graphviz version 2.38.0 (20140413.2041)
 -->
<!-- Title: twoDegreesRelationshipsDiagram Pages: 1 -->
<svg width="527pt" height="598pt"
 viewBox="0.00 0.00 527.00 598.00" xmlns="http://www.w3.org/2000/svg" xmlns:xlink="http://www.w3.org/1999/xlink">
<g id="graph0" class="graph" transform="scale(1 1) rotate(0) translate(4 594)">
<title>twoDegreesRelationshipsDiagram</title>
<polygon fill="#ffffff" stroke="none" points="-4,4 -4,-594 523,-594 523,4 -4,4"/>
<text text-anchor="middle" x="74.5" y="-7.2" font-family="Helvetica,sans-Serif" font-size="11.00">Generated by SchemaSpy</text>
<!-- ansible_collectionremote -->
<g id="node1" class="node"><title>ansible_collectionremote</title>
<g id="a_node1"><a xlink:href="../../tables/ansible_collectionremote.html" xlink:title="ansible_collectionremote" target="_top">
<polygon fill="#ffffff" stroke="none" points="267,-528 267,-586 460,-586 460,-528 267,-528"/>
<polygon fill="#f5f5f5" stroke="none" points="267.5,-564 267.5,-586 460.5,-586 460.5,-564 267.5,-564"/>
<polygon fill="none" stroke="black" points="267.5,-564 267.5,-586 460.5,-586 460.5,-564 267.5,-564"/>
<text text-anchor="start" x="272.5" y="-573.2" font-family="Helvetica,sans-Serif" font-weight="bold" font-size="11.00">ansible_collectionremote</text>
<text text-anchor="start" x="421.5" y="-572.2" font-family="Helvetica,sans-Serif" font-size="11.00">[table]</text>
<polygon fill="none" stroke="black" points="267.5,-546 267.5,-564 460.5,-564 460.5,-546 267.5,-546"/>
<text text-anchor="start" x="270.5" y="-552.2" font-family="Helvetica,sans-Serif" font-size="11.00">...</text>
<polygon fill="#ffffff" stroke="none" points="267.5,-528 267.5,-546 347.5,-546 347.5,-528 267.5,-528"/>
<polygon fill="none" stroke="black" points="267.5,-528 267.5,-546 347.5,-546 347.5,-528 267.5,-528"/>
<text text-anchor="start" x="270.5" y="-534.2" font-family="Helvetica,sans-Serif" font-size="11.00">&lt; 1</text>
<polygon fill="#ffffff" stroke="none" points="347.5,-528 347.5,-546 418.5,-546 418.5,-528 347.5,-528"/>
<polygon fill="none" stroke="black" points="347.5,-528 347.5,-546 418.5,-546 418.5,-528 347.5,-528"/>
<text text-anchor="start" x="379.5" y="-534.2" font-family="Helvetica,sans-Serif" font-size="11.00">7 rows</text>
<polygon fill="#ffffff" stroke="none" points="418.5,-528 418.5,-546 460.5,-546 460.5,-528 418.5,-528"/>
<polygon fill="none" stroke="black" points="418.5,-528 418.5,-546 460.5,-546 460.5,-528 418.5,-528"/>
<text text-anchor="start" x="450.5" y="-534.2" font-family="Helvetica,sans-Serif" font-size="11.00"> &#160;</text>
</a>
</g>
</g>
<!-- core_remote -->
<g id="node2" class="node"><title>core_remote</title>
<g id="a_node2"><a xlink:href="../../tables/core_remote.html" xlink:title="core_remote" target="_top">
<polygon fill="#ffffff" stroke="none" points="8,-238 8,-340 167,-340 167,-238 8,-238"/>
<polygon fill="#f5f5f5" stroke="none" points="8.5,-318 8.5,-340 167.5,-340 167.5,-318 8.5,-318"/>
<polygon fill="none" stroke="black" points="8.5,-318 8.5,-340 167.5,-340 167.5,-318 8.5,-318"/>
<text text-anchor="start" x="13.5" y="-327.2" font-family="Helvetica,sans-Serif" font-weight="bold" font-size="11.00">core_remote</text>
<text text-anchor="start" x="128.5" y="-326.2" font-family="Helvetica,sans-Serif" font-size="11.00">[table]</text>
<polygon fill="none" stroke="black" points="8.5,-296 8.5,-318 167.5,-318 167.5,-296 8.5,-296"/>
<image xlink:href="../../images/primaryKeys.png" width="11px" height="12px" preserveAspectRatio="xMinYMin meet" x="13.5" y="-313"/>
<text text-anchor="start" x="28.5" y="-304.2" font-family="Helvetica,sans-Serif" font-size="11.00">pulp_id</text>
<polygon fill="#ffffff" stroke="none" points="8.5,-274 8.5,-296 167.5,-296 167.5,-274 8.5,-274"/>
<polygon fill="none" stroke="black" points="8.5,-274 8.5,-296 167.5,-296 167.5,-274 8.5,-274"/>
<text text-anchor="start" x="28.5" y="-282.2" font-family="Helvetica,sans-Serif" font-size="11.00">name</text>
<polygon fill="none" stroke="black" points="8.5,-256 8.5,-274 167.5,-274 167.5,-256 8.5,-256"/>
<text text-anchor="start" x="11.5" y="-262.2" font-family="Helvetica,sans-Serif" font-size="11.00">...</text>
<polygon fill="#ffffff" stroke="none" points="8.5,-238 8.5,-256 61.5,-256 61.5,-238 8.5,-238"/>
<polygon fill="none" stroke="black" points="8.5,-238 8.5,-256 61.5,-256 61.5,-238 8.5,-238"/>
<text text-anchor="start" x="11.5" y="-244.2" font-family="Helvetica,sans-Serif" font-size="11.00"> &#160;</text>
<polygon fill="#ffffff" stroke="none" points="61.5,-238 61.5,-256 123.5,-256 123.5,-238 61.5,-238"/>
<polygon fill="none" stroke="black" points="61.5,-238 61.5,-256 123.5,-256 123.5,-238 61.5,-238"/>
<text text-anchor="start" x="84.5" y="-244.2" font-family="Helvetica,sans-Serif" font-size="11.00">7 rows</text>
<polygon fill="#ffffff" stroke="none" points="123.5,-238 123.5,-256 167.5,-256 167.5,-238 123.5,-238"/>
<polygon fill="none" stroke="black" points="123.5,-238 123.5,-256 167.5,-256 167.5,-238 123.5,-238"/>
<text text-anchor="start" x="147.5" y="-244.2" font-family="Helvetica,sans-Serif" font-size="11.00">6 &gt;</text>
</a>
</g>
</g>
<!-- ansible_collectionremote&#45;&gt;core_remote -->
<g id="edge1" class="edge"><title>ansible_collectionremote:elipses:w&#45;&gt;core_remote:pulp_id:e</title>
<path fill="none" stroke="black" d="M255.862,-554.454C233.013,-551.898 223.109,-540.278 208,-518 181.224,-478.52 216.203,-307 168.5,-307"/>
<polygon fill="black" stroke="black" points="265.906,-550.964 265.496,-558.954 263.898,-558.872 264.308,-550.882 265.906,-550.964"/>
<polyline fill="none" stroke="black" points="266.5,-555 262.505,-554.795 "/>
<ellipse fill="none" stroke="black" cx="259.309" cy="-554.631" rx="3.2" ry="3.2"/>
</g>
<!-- ansible_roleremote -->
<g id="node3" class="node"><title>ansible_roleremote</title>
<g id="a_node3"><a xlink:href="../../tables/ansible_roleremote.html" xlink:title="ansible_roleremote" target="_top">
<polygon fill="#ffffff" stroke="none" points="284,-449 284,-507 443,-507 443,-449 284,-449"/>
<polygon fill="#f5f5f5" stroke="none" points="284.5,-485 284.5,-507 443.5,-507 443.5,-485 284.5,-485"/>
<polygon fill="none" stroke="black" points="284.5,-485 284.5,-507 443.5,-507 443.5,-485 284.5,-485"/>
<text text-anchor="start" x="289.5" y="-494.2" font-family="Helvetica,sans-Serif" font-weight="bold" font-size="11.00">ansible_roleremote</text>
<text text-anchor="start" x="404.5" y="-493.2" font-family="Helvetica,sans-Serif" font-size="11.00">[table]</text>
<polygon fill="none" stroke="black" points="284.5,-467 284.5,-485 443.5,-485 443.5,-467 284.5,-467"/>
<text text-anchor="start" x="287.5" y="-473.2" font-family="Helvetica,sans-Serif" font-size="11.00">...</text>
<polygon fill="#ffffff" stroke="none" points="284.5,-449 284.5,-467 347.5,-467 347.5,-449 284.5,-449"/>
<polygon fill="none" stroke="black" points="284.5,-449 284.5,-467 347.5,-467 347.5,-449 284.5,-449"/>
<text text-anchor="start" x="287.5" y="-455.2" font-family="Helvetica,sans-Serif" font-size="11.00">&lt; 1</text>
<polygon fill="#ffffff" stroke="none" points="347.5,-449 347.5,-467 409.5,-467 409.5,-449 347.5,-449"/>
<polygon fill="none" stroke="black" points="347.5,-449 347.5,-467 409.5,-467 409.5,-449 347.5,-449"/>
<text text-anchor="start" x="370.5" y="-455.2" font-family="Helvetica,sans-Serif" font-size="11.00">0 rows</text>
<polygon fill="#ffffff" stroke="none" points="409.5,-449 409.5,-467 443.5,-467 443.5,-449 409.5,-449"/>
<polygon fill="none" stroke="black" points="409.5,-449 409.5,-467 443.5,-467 443.5,-449 409.5,-449"/>
<text text-anchor="start" x="433.5" y="-455.2" font-family="Helvetica,sans-Serif" font-size="11.00"> &#160;</text>
</a>
</g>
</g>
<!-- ansible_roleremote&#45;&gt;core_remote -->
<g id="edge2" class="edge"><title>ansible_roleremote:elipses:w&#45;&gt;core_remote:pulp_id:e</title>
<path fill="none" stroke="black" d="M272.803,-475.725C243.188,-474.069 229.704,-464.614 208,-439 168.412,-392.28 229.737,-307 168.5,-307"/>
<polygon fill="black" stroke="black" points="282.803,-471.981 282.598,-479.978 280.998,-479.937 281.204,-471.94 282.803,-471.981"/>
<polyline fill="none" stroke="black" points="283.5,-476 279.501,-475.897 "/>
<ellipse fill="none" stroke="black" cx="276.302" cy="-475.815" rx="3.2" ry="3.2"/>
</g>
<!-- container_containerremote -->
<g id="node4" class="node"><title>container_containerremote</title>
<g id="a_node4"><a xlink:href="../../tables/container_containerremote.html" xlink:title="container_containerremote" target="_top">
<polygon fill="#ffffff" stroke="none" points="216,-274 216,-428 511,-428 511,-274 216,-274"/>
<polygon fill="#f5f5f5" stroke="none" points="218.5,-404 218.5,-426 509.5,-426 509.5,-404 218.5,-404"/>
<polygon fill="none" stroke="black" points="218.5,-404 218.5,-426 509.5,-426 509.5,-404 218.5,-404"/>
<text text-anchor="start" x="223.5" y="-413.2" font-family="Helvetica,sans-Serif" font-weight="bold" font-size="11.00">container_containerremote</text>
<text text-anchor="start" x="470.5" y="-412.2" font-family="Helvetica,sans-Serif" font-size="11.00">[table]</text>
<polygon fill="none" stroke="black" points="218.5,-382 218.5,-404 404.5,-404 404.5,-382 218.5,-382"/>
<image xlink:href="../../images/primaryKeys.png" width="11px" height="12px" preserveAspectRatio="xMinYMin meet" x="223.5" y="-399"/>
<text text-anchor="start" x="238.5" y="-390.2" font-family="Helvetica,sans-Serif" font-size="11.00">remote_ptr_id</text>
<polygon fill="none" stroke="black" points="404.5,-382 404.5,-404 509.5,-404 509.5,-382 404.5,-382"/>
<text text-anchor="start" x="407.5" y="-390.2" font-family="Helvetica,sans-Serif" font-size="11.00">uuid[2147483647]</text>
<polygon fill="#ffffff" stroke="none" points="218.5,-360 218.5,-382 404.5,-382 404.5,-360 218.5,-360"/>
<polygon fill="none" stroke="black" points="218.5,-360 218.5,-382 404.5,-382 404.5,-360 218.5,-360"/>
<text text-anchor="start" x="238.5" y="-368.2" font-family="Helvetica,sans-Serif" font-size="11.00">upstream_name</text>
<polygon fill="none" stroke="black" points="404.5,-360 404.5,-382 509.5,-382 509.5,-360 404.5,-360"/>
<text text-anchor="start" x="407.5" y="-368.2" font-family="Helvetica,sans-Serif" font-size="11.00">varchar[255]</text>
<polygon fill="none" stroke="black" points="218.5,-338 218.5,-360 404.5,-360 404.5,-338 218.5,-338"/>
<text text-anchor="start" x="238.5" y="-346.2" font-family="Helvetica,sans-Serif" font-size="11.00">include_foreign_layers</text>
<polygon fill="none" stroke="black" points="404.5,-338 404.5,-360 509.5,-360 509.5,-338 404.5,-338"/>
<text text-anchor="start" x="407.5" y="-346.2" font-family="Helvetica,sans-Serif" font-size="11.00">bool[1]</text>
<polygon fill="none" stroke="black" points="218.5,-316 218.5,-338 404.5,-338 404.5,-316 218.5,-316"/>
<text text-anchor="start" x="238.5" y="-324.2" font-family="Helvetica,sans-Serif" font-size="11.00">include_tags</text>
<polygon fill="none" stroke="black" points="404.5,-316 404.5,-338 509.5,-338 509.5,-316 404.5,-316"/>
<text text-anchor="start" x="407.5" y="-324.2" font-family="Helvetica,sans-Serif" font-size="11.00">_varchar[255]</text>
<polygon fill="none" stroke="black" points="218.5,-294 218.5,-316 404.5,-316 404.5,-294 218.5,-294"/>
<text text-anchor="start" x="238.5" y="-302.2" font-family="Helvetica,sans-Serif" font-size="11.00">exclude_tags</text>
<polygon fill="none" stroke="black" points="404.5,-294 404.5,-316 509.5,-316 509.5,-294 404.5,-294"/>
<text text-anchor="start" x="407.5" y="-302.2" font-family="Helvetica,sans-Serif" font-size="11.00">_varchar[255]</text>
<polygon fill="#ffffff" stroke="none" points="218.5,-276 218.5,-294 301.5,-294 301.5,-276 218.5,-276"/>
<polygon fill="none" stroke="black" points="218.5,-276 218.5,-294 301.5,-294 301.5,-276 218.5,-276"/>
<text text-anchor="start" x="221.5" y="-282.2" font-family="Helvetica,sans-Serif" font-size="11.00">&lt; 1</text>
<polygon fill="#ffffff" stroke="none" points="301.5,-276 301.5,-294 404.5,-294 404.5,-276 301.5,-276"/>
<polygon fill="none" stroke="black" points="301.5,-276 301.5,-294 404.5,-294 404.5,-276 301.5,-276"/>
<text text-anchor="start" x="365.5" y="-282.2" font-family="Helvetica,sans-Serif" font-size="11.00">0 rows</text>
<polygon fill="#ffffff" stroke="none" points="404.5,-276 404.5,-294 509.5,-294 509.5,-276 404.5,-276"/>
<polygon fill="none" stroke="black" points="404.5,-276 404.5,-294 509.5,-294 509.5,-276 404.5,-276"/>
<text text-anchor="start" x="489.5" y="-282.2" font-family="Helvetica,sans-Serif" font-size="11.00">0 &gt;</text>
<polygon fill="none" stroke="black" stroke-width="2" points="217,-275 217,-427 510,-427 510,-275 217,-275"/>
</a>
</g>
</g>
<!-- container_containerremote&#45;&gt;core_remote -->
<g id="edge3" class="edge"><title>container_containerremote:remote_ptr_id:w&#45;&gt;core_remote:pulp_id:e</title>
<path fill="none" stroke="black" d="M207.179,-390.874C180.089,-377.631 208.367,-307 168.5,-307"/>
<polygon fill="black" stroke="black" points="217.523,-388.921 215.909,-396.756 214.342,-396.434 215.956,-388.598 217.523,-388.921"/>
<polyline fill="none" stroke="black" points="217.5,-393 213.582,-392.193 "/>
<ellipse fill="none" stroke="black" cx="210.448" cy="-391.547" rx="3.20001" ry="3.20001"/>
</g>
<!-- core_basedistribution -->
<g id="node5" class="node"><title>core_basedistribution</title>
<g id="a_node5"><a xlink:href="../../tables/core_basedistribution.html" xlink:title="core_basedistribution" target="_top">
<polygon fill="#ffffff" stroke="none" points="277,-195 277,-253 450,-253 450,-195 277,-195"/>
<polygon fill="#f5f5f5" stroke="none" points="277.5,-231 277.5,-253 450.5,-253 450.5,-231 277.5,-231"/>
<polygon fill="none" stroke="black" points="277.5,-231 277.5,-253 450.5,-253 450.5,-231 277.5,-231"/>
<text text-anchor="start" x="282.5" y="-240.2" font-family="Helvetica,sans-Serif" font-weight="bold" font-size="11.00">core_basedistribution</text>
<text text-anchor="start" x="411.5" y="-239.2" font-family="Helvetica,sans-Serif" font-size="11.00">[table]</text>
<polygon fill="none" stroke="black" points="277.5,-213 277.5,-231 450.5,-231 450.5,-213 277.5,-213"/>
<text text-anchor="start" x="280.5" y="-219.2" font-family="Helvetica,sans-Serif" font-size="11.00">...</text>
<polygon fill="#ffffff" stroke="none" points="277.5,-195 277.5,-213 339.5,-213 339.5,-195 277.5,-195"/>
<polygon fill="none" stroke="black" points="277.5,-195 277.5,-213 339.5,-213 339.5,-195 277.5,-195"/>
<text text-anchor="start" x="280.5" y="-201.2" font-family="Helvetica,sans-Serif" font-size="11.00">&lt; 2</text>
<polygon fill="#ffffff" stroke="none" points="339.5,-195 339.5,-213 407.5,-213 407.5,-195 339.5,-195"/>
<polygon fill="none" stroke="black" points="339.5,-195 339.5,-213 407.5,-213 407.5,-195 339.5,-195"/>
<text text-anchor="start" x="361.5" y="-201.2" font-family="Helvetica,sans-Serif" font-size="11.00">32 rows</text>
<polygon fill="#ffffff" stroke="none" points="407.5,-195 407.5,-213 450.5,-213 450.5,-195 407.5,-195"/>
<polygon fill="none" stroke="black" points="407.5,-195 407.5,-213 450.5,-213 450.5,-195 407.5,-195"/>
<text text-anchor="start" x="430.5" y="-201.2" font-family="Helvetica,sans-Serif" font-size="11.00">2 &gt;</text>
</a>
</g>
</g>
<!-- core_basedistribution&#45;&gt;core_remote -->
<g id="edge4" class="edge"><title>core_basedistribution:elipses:w&#45;&gt;core_remote:pulp_id:e</title>
<path fill="none" stroke="black" d="M262.115,-223.287C238.679,-227.959 231.367,-244.757 208,-264 187.968,-280.497 194.451,-307 168.5,-307"/>
<polygon fill="black" stroke="black" points="268.532,-222.713 276.821,-225.586 272.516,-222.357 276.5,-222 276.5,-222 276.5,-222 272.516,-222.357 276.179,-218.414 268.532,-222.713 268.532,-222.713"/>
<ellipse fill="none" stroke="black" cx="265.345" cy="-222.998" rx="3.2" ry="3.2"/>
</g>
<!-- core_remoteartifact -->
<g id="node6" class="node"><title>core_remoteartifact</title>
<g id="a_node6"><a xlink:href="../../tables/core_remoteartifact.html" xlink:title="core_remoteartifact" target="_top">
<polygon fill="#ffffff" stroke="none" points="282,-116 282,-174 445,-174 445,-116 282,-116"/>
<polygon fill="#f5f5f5" stroke="none" points="282.5,-152 282.5,-174 445.5,-174 445.5,-152 282.5,-152"/>
<polygon fill="none" stroke="black" points="282.5,-152 282.5,-174 445.5,-174 445.5,-152 282.5,-152"/>
<text text-anchor="start" x="287.5" y="-161.2" font-family="Helvetica,sans-Serif" font-weight="bold" font-size="11.00">core_remoteartifact</text>
<text text-anchor="start" x="406.5" y="-160.2" font-family="Helvetica,sans-Serif" font-size="11.00">[table]</text>
<polygon fill="none" stroke="black" points="282.5,-134 282.5,-152 445.5,-152 445.5,-134 282.5,-134"/>
<text text-anchor="start" x="285.5" y="-140.2" font-family="Helvetica,sans-Serif" font-size="11.00">...</text>
<polygon fill="#ffffff" stroke="none" points="282.5,-116 282.5,-134 344.5,-134 344.5,-116 282.5,-116"/>
<polygon fill="none" stroke="black" points="282.5,-116 282.5,-134 344.5,-134 344.5,-116 282.5,-116"/>
<text text-anchor="start" x="285.5" y="-122.2" font-family="Helvetica,sans-Serif" font-size="11.00">&lt; 2</text>
<polygon fill="#ffffff" stroke="none" points="344.5,-116 344.5,-134 412.5,-134 412.5,-116 344.5,-116"/>
<polygon fill="none" stroke="black" points="344.5,-116 344.5,-134 412.5,-134 412.5,-116 344.5,-116"/>
<text text-anchor="start" x="366.5" y="-122.2" font-family="Helvetica,sans-Serif" font-size="11.00">16 rows</text>
<polygon fill="#ffffff" stroke="none" points="412.5,-116 412.5,-134 445.5,-134 445.5,-116 412.5,-116"/>
<polygon fill="none" stroke="black" points="412.5,-116 412.5,-134 445.5,-134 445.5,-116 412.5,-116"/>
<text text-anchor="start" x="435.5" y="-122.2" font-family="Helvetica,sans-Serif" font-size="11.00"> &#160;</text>
</a>
</g>
</g>
<!-- core_remoteartifact&#45;&gt;core_remote -->
<g id="edge5" class="edge"><title>core_remoteartifact:elipses:w&#45;&gt;core_remote:pulp_id:e</title>
<path fill="none" stroke="black" d="M267.036,-143.769C240.23,-146.925 228.391,-159.907 208,-185 172.057,-229.231 225.493,-307 168.5,-307"/>
<polygon fill="black" stroke="black" points="273.511,-143.425 281.691,-146.595 277.506,-143.213 281.5,-143 281.5,-143 281.5,-143 277.506,-143.213 281.309,-139.405 273.511,-143.425 273.511,-143.425"/>
<ellipse fill="none" stroke="black" cx="270.316" cy="-143.595" rx="3.2" ry="3.2"/>
</g>
<!-- core_repository -->
<g id="node7" class="node"><title>core_repository</title>
<g id="a_node7"><a xlink:href="../../tables/core_repository.html" xlink:title="core_repository" target="_top">
<polygon fill="#ffffff" stroke="none" points="295,-37 295,-95 432,-95 432,-37 295,-37"/>
<polygon fill="#f5f5f5" stroke="none" points="295.5,-73 295.5,-95 432.5,-95 432.5,-73 295.5,-73"/>
<polygon fill="none" stroke="black" points="295.5,-73 295.5,-95 432.5,-95 432.5,-73 295.5,-73"/>
<text text-anchor="start" x="300.5" y="-82.2" font-family="Helvetica,sans-Serif" font-weight="bold" font-size="11.00">core_repository</text>
<text text-anchor="start" x="393.5" y="-81.2" font-family="Helvetica,sans-Serif" font-size="11.00">[table]</text>
<polygon fill="none" stroke="black" points="295.5,-55 295.5,-73 432.5,-73 432.5,-55 295.5,-55"/>
<text text-anchor="start" x="298.5" y="-61.2" font-family="Helvetica,sans-Serif" font-size="11.00">...</text>
<polygon fill="#ffffff" stroke="none" points="295.5,-37 295.5,-55 335.5,-55 335.5,-37 295.5,-37"/>
<polygon fill="none" stroke="black" points="295.5,-37 295.5,-55 335.5,-55 335.5,-37 295.5,-37"/>
<text text-anchor="start" x="298.5" y="-43.2" font-family="Helvetica,sans-Serif" font-size="11.00">&lt; 1</text>
<polygon fill="#ffffff" stroke="none" points="335.5,-37 335.5,-55 393.5,-55 393.5,-37 335.5,-37"/>
<polygon fill="none" stroke="black" points="335.5,-37 335.5,-55 393.5,-55 393.5,-37 335.5,-37"/>
<text text-anchor="start" x="347.5" y="-43.2" font-family="Helvetica,sans-Serif" font-size="11.00">26 rows</text>
<polygon fill="#ffffff" stroke="none" points="393.5,-37 393.5,-55 432.5,-55 432.5,-37 393.5,-37"/>
<polygon fill="none" stroke="black" points="393.5,-37 393.5,-55 432.5,-55 432.5,-37 393.5,-37"/>
<text text-anchor="start" x="405.5" y="-43.2" font-family="Helvetica,sans-Serif" font-size="11.00">10 &gt;</text>
</a>
</g>
</g>
<!-- core_repository&#45;&gt;core_remote -->
<g id="edge6" class="edge"><title>core_repository:elipses:w&#45;&gt;core_remote:pulp_id:e</title>
<path fill="none" stroke="black" d="M280.017,-64.3895C247.358,-66.3495 230.923,-76.2442 208,-106 152.439,-178.122 259.542,-307 168.5,-307"/>
<polygon fill="black" stroke="black" points="286.503,-64.2151 294.597,-67.5987 290.501,-64.1076 294.5,-64 294.5,-64 294.5,-64 290.501,-64.1076 294.403,-60.4013 286.503,-64.2151 286.503,-64.2151"/>
<ellipse fill="none" stroke="black" cx="283.304" cy="-64.3012" rx="3.2" ry="3.2"/>
</g>
</g>
</svg>
