<?xml version="1.0" encoding="UTF-8" standalone="no"?>
<!DOCTYPE svg PUBLIC "-//W3C//DTD SVG 1.1//EN"
 "http://www.w3.org/Graphics/SVG/1.1/DTD/svg11.dtd">
<!-- Generated by graphviz version 2.38.0 (20140413.2041)
 -->
<!-- Title: twoDegreesRelationshipsDiagram Pages: 1 -->
<svg width="898pt" height="556pt"
 viewBox="0.00 0.00 898.00 556.00" xmlns="http://www.w3.org/2000/svg" xmlns:xlink="http://www.w3.org/1999/xlink">
<g id="graph0" class="graph" transform="scale(1 1) rotate(0) translate(4 552)">
<title>twoDegreesRelationshipsDiagram</title>
<polygon fill="#ffffff" stroke="none" points="-4,4 -4,-552 894,-552 894,4 -4,4"/>
<text text-anchor="middle" x="74.5" y="-7.2" font-family="Helvetica,sans-Serif" font-size="11.00">Generated by SchemaSpy</text>
<!-- ansible_collectionversion -->
<g id="node1" class="node"><title>ansible_collectionversion</title>
<g id="a_node1"><a xlink:href="../../tables/ansible_collectionversion.html" xlink:title="ansible_collectionversion" target="_top">
<polygon fill="#ffffff" stroke="none" points="186,-486 186,-544 379,-544 379,-486 186,-486"/>
<polygon fill="#f5f5f5" stroke="none" points="186.5,-522 186.5,-544 379.5,-544 379.5,-522 186.5,-522"/>
<polygon fill="none" stroke="black" points="186.5,-522 186.5,-544 379.5,-544 379.5,-522 186.5,-522"/>
<text text-anchor="start" x="191.5" y="-531.2" font-family="Helvetica,sans-Serif" font-weight="bold" font-size="11.00">ansible_collectionversion</text>
<text text-anchor="start" x="340.5" y="-530.2" font-family="Helvetica,sans-Serif" font-size="11.00">[table]</text>
<polygon fill="none" stroke="black" points="186.5,-504 186.5,-522 379.5,-522 379.5,-504 186.5,-504"/>
<text text-anchor="start" x="189.5" y="-510.2" font-family="Helvetica,sans-Serif" font-size="11.00">...</text>
<polygon fill="#ffffff" stroke="none" points="186.5,-486 186.5,-504 258.5,-504 258.5,-486 186.5,-486"/>
<polygon fill="none" stroke="black" points="186.5,-486 186.5,-504 258.5,-504 258.5,-486 186.5,-486"/>
<text text-anchor="start" x="189.5" y="-492.2" font-family="Helvetica,sans-Serif" font-size="11.00">&lt; 2</text>
<polygon fill="#ffffff" stroke="none" points="258.5,-486 258.5,-504 331.5,-504 331.5,-486 258.5,-486"/>
<polygon fill="none" stroke="black" points="258.5,-486 258.5,-504 331.5,-504 331.5,-486 258.5,-486"/>
<text text-anchor="start" x="285.5" y="-492.2" font-family="Helvetica,sans-Serif" font-size="11.00">88 rows</text>
<polygon fill="#ffffff" stroke="none" points="331.5,-486 331.5,-504 379.5,-504 379.5,-486 331.5,-486"/>
<polygon fill="none" stroke="black" points="331.5,-486 331.5,-504 379.5,-504 379.5,-486 331.5,-486"/>
<text text-anchor="start" x="359.5" y="-492.2" font-family="Helvetica,sans-Serif" font-size="11.00">1 &gt;</text>
</a>
</g>
</g>
<!-- core_content -->
<g id="node2" class="node"><title>core_content</title>
<g id="a_node2"><a xlink:href="../../tables/core_content.html" xlink:title="core_content" target="_top">
<polygon fill="#ffffff" stroke="none" points="8,-255 8,-335 137,-335 137,-255 8,-255"/>
<polygon fill="#f5f5f5" stroke="none" points="8.5,-313 8.5,-335 137.5,-335 137.5,-313 8.5,-313"/>
<polygon fill="none" stroke="black" points="8.5,-313 8.5,-335 137.5,-335 137.5,-313 8.5,-313"/>
<text text-anchor="start" x="13.5" y="-322.2" font-family="Helvetica,sans-Serif" font-weight="bold" font-size="11.00">core_content</text>
<text text-anchor="start" x="98.5" y="-321.2" font-family="Helvetica,sans-Serif" font-size="11.00">[table]</text>
<polygon fill="none" stroke="black" points="8.5,-291 8.5,-313 137.5,-313 137.5,-291 8.5,-291"/>
<image xlink:href="../../images/primaryKeys.png" width="11px" height="12px" preserveAspectRatio="xMinYMin meet" x="13.5" y="-308"/>
<text text-anchor="start" x="28.5" y="-299.2" font-family="Helvetica,sans-Serif" font-size="11.00">pulp_id</text>
<polygon fill="none" stroke="black" points="8.5,-273 8.5,-291 137.5,-291 137.5,-273 8.5,-273"/>
<text text-anchor="start" x="11.5" y="-279.2" font-family="Helvetica,sans-Serif" font-size="11.00">...</text>
<polygon fill="#ffffff" stroke="none" points="8.5,-255 8.5,-273 43.5,-273 43.5,-255 8.5,-255"/>
<polygon fill="none" stroke="black" points="8.5,-255 8.5,-273 43.5,-273 43.5,-255 8.5,-255"/>
<text text-anchor="start" x="11.5" y="-261.2" font-family="Helvetica,sans-Serif" font-size="11.00"> &#160;</text>
<polygon fill="#ffffff" stroke="none" points="43.5,-255 43.5,-273 103.5,-273 103.5,-255 43.5,-255"/>
<polygon fill="none" stroke="black" points="43.5,-255 43.5,-273 103.5,-273 103.5,-255 43.5,-255"/>
<text text-anchor="start" x="57.5" y="-261.2" font-family="Helvetica,sans-Serif" font-size="11.00">88 rows</text>
<polygon fill="#ffffff" stroke="none" points="103.5,-255 103.5,-273 137.5,-273 137.5,-255 103.5,-255"/>
<polygon fill="none" stroke="black" points="103.5,-255 103.5,-273 137.5,-273 137.5,-255 103.5,-255"/>
<text text-anchor="start" x="117.5" y="-261.2" font-family="Helvetica,sans-Serif" font-size="11.00">8 &gt;</text>
</a>
</g>
</g>
<!-- ansible_collectionversion&#45;&gt;core_content -->
<g id="edge1" class="edge"><title>ansible_collectionversion:elipses:w&#45;&gt;core_content:pulp_id:e</title>
<path fill="none" stroke="black" d="M174.862,-511.964C100.925,-496.046 230.635,-302 138.5,-302"/>
<polygon fill="black" stroke="black" points="185.091,-508.941 184.316,-516.904 182.724,-516.749 183.499,-508.786 185.091,-508.941"/>
<polyline fill="none" stroke="black" points="185.5,-513 181.519,-512.612 "/>
<ellipse fill="none" stroke="black" cx="178.334" cy="-512.302" rx="3.2" ry="3.2"/>
</g>
<!-- ansible_role -->
<g id="node3" class="node"><title>ansible_role</title>
<g id="a_node3"><a xlink:href="../../tables/ansible_role.html" xlink:title="ansible_role" target="_top">
<polygon fill="#ffffff" stroke="none" points="224,-407 224,-465 341,-465 341,-407 224,-407"/>
<polygon fill="#f5f5f5" stroke="none" points="224.5,-443 224.5,-465 341.5,-465 341.5,-443 224.5,-443"/>
<polygon fill="none" stroke="black" points="224.5,-443 224.5,-465 341.5,-465 341.5,-443 224.5,-443"/>
<text text-anchor="start" x="229.5" y="-452.2" font-family="Helvetica,sans-Serif" font-weight="bold" font-size="11.00">ansible_role</text>
<text text-anchor="start" x="302.5" y="-451.2" font-family="Helvetica,sans-Serif" font-size="11.00">[table]</text>
<polygon fill="none" stroke="black" points="224.5,-425 224.5,-443 341.5,-443 341.5,-425 224.5,-425"/>
<text text-anchor="start" x="227.5" y="-431.2" font-family="Helvetica,sans-Serif" font-size="11.00">...</text>
<polygon fill="#ffffff" stroke="none" points="224.5,-407 224.5,-425 266.5,-425 266.5,-407 224.5,-407"/>
<polygon fill="none" stroke="black" points="224.5,-407 224.5,-425 266.5,-425 266.5,-407 224.5,-407"/>
<text text-anchor="start" x="227.5" y="-413.2" font-family="Helvetica,sans-Serif" font-size="11.00">&lt; 1</text>
<polygon fill="#ffffff" stroke="none" points="266.5,-407 266.5,-425 318.5,-425 318.5,-407 266.5,-407"/>
<polygon fill="none" stroke="black" points="266.5,-407 266.5,-425 318.5,-425 318.5,-407 266.5,-407"/>
<text text-anchor="start" x="279.5" y="-413.2" font-family="Helvetica,sans-Serif" font-size="11.00">0 rows</text>
<polygon fill="#ffffff" stroke="none" points="318.5,-407 318.5,-425 341.5,-425 341.5,-407 318.5,-407"/>
<polygon fill="none" stroke="black" points="318.5,-407 318.5,-425 341.5,-425 341.5,-407 318.5,-407"/>
<text text-anchor="start" x="331.5" y="-413.2" font-family="Helvetica,sans-Serif" font-size="11.00"> &#160;</text>
</a>
</g>
</g>
<!-- ansible_role&#45;&gt;core_content -->
<g id="edge2" class="edge"><title>ansible_role:elipses:w&#45;&gt;core_content:pulp_id:e</title>
<path fill="none" stroke="black" d="M212.894,-432.802C195.273,-428.319 191.534,-411.82 178,-393 152.258,-357.204 182.59,-302 138.5,-302"/>
<polygon fill="black" stroke="black" points="223.154,-429.935 222.256,-437.885 220.666,-437.705 221.564,-429.756 223.154,-429.935"/>
<polyline fill="none" stroke="black" points="223.5,-434 219.525,-433.551 "/>
<ellipse fill="none" stroke="black" cx="216.345" cy="-433.192" rx="3.2" ry="3.2"/>
</g>
<!-- container_blob -->
<g id="node4" class="node"><title>container_blob</title>
<g id="a_node4"><a xlink:href="../../tables/container_blob.html" xlink:title="container_blob" target="_top">
<polygon fill="#ffffff" stroke="none" points="215.5,-301 215.5,-359 349.5,-359 349.5,-301 215.5,-301"/>
<polygon fill="#f5f5f5" stroke="none" points="215.5,-337 215.5,-359 349.5,-359 349.5,-337 215.5,-337"/>
<polygon fill="none" stroke="black" points="215.5,-337 215.5,-359 349.5,-359 349.5,-337 215.5,-337"/>
<text text-anchor="start" x="220.5" y="-346.2" font-family="Helvetica,sans-Serif" font-weight="bold" font-size="11.00">container_blob</text>
<text text-anchor="start" x="310.5" y="-345.2" font-family="Helvetica,sans-Serif" font-size="11.00">[table]</text>
<polygon fill="none" stroke="black" points="215.5,-319 215.5,-337 349.5,-337 349.5,-319 215.5,-319"/>
<text text-anchor="start" x="218.5" y="-325.2" font-family="Helvetica,sans-Serif" font-size="11.00">...</text>
<polygon fill="#ffffff" stroke="none" points="215.5,-301 215.5,-319 261.5,-319 261.5,-301 215.5,-301"/>
<polygon fill="none" stroke="black" points="215.5,-301 215.5,-319 261.5,-319 261.5,-301 215.5,-301"/>
<text text-anchor="start" x="218.5" y="-307.2" font-family="Helvetica,sans-Serif" font-size="11.00">&lt; 1</text>
<polygon fill="#ffffff" stroke="none" points="261.5,-301 261.5,-319 314.5,-319 314.5,-301 261.5,-301"/>
<polygon fill="none" stroke="black" points="261.5,-301 261.5,-319 314.5,-319 314.5,-301 261.5,-301"/>
<text text-anchor="start" x="275.5" y="-307.2" font-family="Helvetica,sans-Serif" font-size="11.00">0 rows</text>
<polygon fill="#ffffff" stroke="none" points="314.5,-301 314.5,-319 349.5,-319 349.5,-301 314.5,-301"/>
<polygon fill="none" stroke="black" points="314.5,-301 314.5,-319 349.5,-319 349.5,-301 314.5,-301"/>
<text text-anchor="start" x="329.5" y="-307.2" font-family="Helvetica,sans-Serif" font-size="11.00">2 &gt;</text>
</a>
</g>
</g>
<!-- container_blob&#45;&gt;core_content -->
<g id="edge3" class="edge"><title>container_blob:elipses:w&#45;&gt;core_content:pulp_id:e</title>
<path fill="none" stroke="black" d="M203.821,-327.135C177.422,-322.624 170.295,-302 138.5,-302"/>
<polygon fill="black" stroke="black" points="214.026,-323.948 213.38,-331.922 211.785,-331.793 212.431,-323.819 214.026,-323.948"/>
<polyline fill="none" stroke="black" points="214.5,-328 210.513,-327.677 "/>
<ellipse fill="none" stroke="black" cx="207.324" cy="-327.419" rx="3.2" ry="3.2"/>
</g>
<!-- container_blobmanifest -->
<g id="node5" class="node"><title>container_blobmanifest</title>
<g id="a_node5"><a xlink:href="../../tables/container_blobmanifest.html" xlink:title="container_blobmanifest" target="_top">
<polygon fill="#ffffff" stroke="none" points="667,-328 667,-386 852,-386 852,-328 667,-328"/>
<polygon fill="#f5f5f5" stroke="none" points="667.5,-364 667.5,-386 852.5,-386 852.5,-364 667.5,-364"/>
<polygon fill="none" stroke="black" points="667.5,-364 667.5,-386 852.5,-386 852.5,-364 667.5,-364"/>
<text text-anchor="start" x="672.5" y="-373.2" font-family="Helvetica,sans-Serif" font-weight="bold" font-size="11.00">container_blobmanifest</text>
<text text-anchor="start" x="813.5" y="-372.2" font-family="Helvetica,sans-Serif" font-size="11.00">[table]</text>
<polygon fill="none" stroke="black" points="667.5,-346 667.5,-364 852.5,-364 852.5,-346 667.5,-346"/>
<text text-anchor="start" x="670.5" y="-352.2" font-family="Helvetica,sans-Serif" font-size="11.00">...</text>
<polygon fill="#ffffff" stroke="none" points="667.5,-328 667.5,-346 743.5,-346 743.5,-328 667.5,-328"/>
<polygon fill="none" stroke="black" points="667.5,-328 667.5,-346 743.5,-346 743.5,-328 667.5,-328"/>
<text text-anchor="start" x="670.5" y="-334.2" font-family="Helvetica,sans-Serif" font-size="11.00">&lt; 2</text>
<polygon fill="#ffffff" stroke="none" points="743.5,-328 743.5,-346 812.5,-346 812.5,-328 743.5,-328"/>
<polygon fill="none" stroke="black" points="743.5,-328 743.5,-346 812.5,-346 812.5,-328 743.5,-328"/>
<text text-anchor="start" x="773.5" y="-334.2" font-family="Helvetica,sans-Serif" font-size="11.00">0 rows</text>
<polygon fill="#ffffff" stroke="none" points="812.5,-328 812.5,-346 852.5,-346 852.5,-328 812.5,-328"/>
<polygon fill="none" stroke="black" points="812.5,-328 812.5,-346 852.5,-346 852.5,-328 812.5,-328"/>
<text text-anchor="start" x="842.5" y="-334.2" font-family="Helvetica,sans-Serif" font-size="11.00"> &#160;</text>
</a>
</g>
</g>
<!-- container_blobmanifest&#45;&gt;container_blob -->
<g id="edge4" class="edge"><title>container_blobmanifest:elipses:w&#45;&gt;container_blob:elipses:e</title>
<path fill="none" stroke="black" d="M652.117,-353.47C630.868,-348.541 623.58,-333.101 596,-328 488.708,-308.157 459.611,-328 350.5,-328"/>
<polygon fill="black" stroke="black" points="658.545,-354.154 666.119,-358.58 662.522,-354.577 666.5,-355 666.5,-355 666.5,-355 662.522,-354.577 666.881,-351.42 658.545,-354.154 658.545,-354.154"/>
<ellipse fill="none" stroke="black" cx="655.363" cy="-353.815" rx="3.2" ry="3.2"/>
</g>
<!-- container_manifest -->
<g id="node6" class="node"><title>container_manifest</title>
<g id="a_node6"><a xlink:href="../../tables/container_manifest.html" xlink:title="container_manifest" target="_top">
<polygon fill="#ffffff" stroke="none" points="428,-338 428,-462 588,-462 588,-338 428,-338"/>
<polygon fill="#f5f5f5" stroke="none" points="428,-440 428,-462 588,-462 588,-440 428,-440"/>
<polygon fill="none" stroke="black" points="428,-440 428,-462 588,-462 588,-440 428,-440"/>
<text text-anchor="start" x="433" y="-449.2" font-family="Helvetica,sans-Serif" font-weight="bold" font-size="11.00">container_manifest</text>
<text text-anchor="start" x="549" y="-448.2" font-family="Helvetica,sans-Serif" font-size="11.00">[table]</text>
<polygon fill="none" stroke="black" points="428,-418 428,-440 588,-440 588,-418 428,-418"/>
<image xlink:href="../../images/primaryKeys.png" width="11px" height="12px" preserveAspectRatio="xMinYMin meet" x="433" y="-435"/>
<text text-anchor="start" x="460" y="-426.2" font-family="Helvetica,sans-Serif" font-size="11.00">content_ptr_id</text>
<polygon fill="#ffffff" stroke="none" points="428,-396 428,-418 588,-418 588,-396 428,-396"/>
<polygon fill="none" stroke="black" points="428,-396 428,-418 588,-418 588,-396 428,-396"/>
<text text-anchor="start" x="460" y="-404.2" font-family="Helvetica,sans-Serif" font-size="11.00">digest</text>
<polygon fill="#ffffff" stroke="none" points="428,-374 428,-396 588,-396 588,-374 428,-374"/>
<polygon fill="none" stroke="black" points="428,-374 428,-396 588,-396 588,-374 428,-374"/>
<image xlink:href="../../images/foreignKeys.png" width="11px" height="12px" preserveAspectRatio="xMinYMin meet" x="433" y="-391"/>
<text text-anchor="start" x="460" y="-382.2" font-family="Helvetica,sans-Serif" font-size="11.00">config_blob_id</text>
<polygon fill="none" stroke="black" points="428,-356 428,-374 588,-374 588,-356 428,-356"/>
<text text-anchor="start" x="431" y="-362.2" font-family="Helvetica,sans-Serif" font-size="11.00">...</text>
<polygon fill="#ffffff" stroke="none" points="428,-338 428,-356 487,-356 487,-338 428,-338"/>
<polygon fill="none" stroke="black" points="428,-338 428,-356 487,-356 487,-338 428,-338"/>
<text text-anchor="start" x="431" y="-344.2" font-family="Helvetica,sans-Serif" font-size="11.00">&lt; 2</text>
<polygon fill="#ffffff" stroke="none" points="487,-338 487,-356 547,-356 547,-338 487,-338"/>
<polygon fill="none" stroke="black" points="487,-338 487,-356 547,-356 547,-338 487,-338"/>
<text text-anchor="start" x="508" y="-344.2" font-family="Helvetica,sans-Serif" font-size="11.00">0 rows</text>
<polygon fill="#ffffff" stroke="none" points="547,-338 547,-356 588,-356 588,-338 547,-338"/>
<polygon fill="none" stroke="black" points="547,-338 547,-356 588,-356 588,-338 547,-338"/>
<text text-anchor="start" x="568" y="-344.2" font-family="Helvetica,sans-Serif" font-size="11.00">4 &gt;</text>
</a>
</g>
</g>
<!-- container_blobmanifest&#45;&gt;container_manifest -->
<g id="edge5" class="edge"><title>container_blobmanifest:elipses:w&#45;&gt;container_manifest:content_ptr_id:e</title>
<path fill="none" stroke="black" d="M652.24,-357.811C622.138,-371.328 631.044,-429 589,-429"/>
<polygon fill="black" stroke="black" points="658.651,-356.547 667.196,-358.532 662.575,-355.774 666.5,-355 666.5,-355 666.5,-355 662.575,-355.774 665.804,-351.468 658.651,-356.547 658.651,-356.547"/>
<ellipse fill="none" stroke="black" cx="655.511" cy="-357.166" rx="3.2" ry="3.2"/>
</g>
<!-- container_manifest&#45;&gt;core_content -->
<g id="edge7" class="edge"><title>container_manifest:content_ptr_id:w&#45;&gt;core_content:pulp_id:e</title>
<path fill="none" stroke="black" d="M416.65,-426.809C404.761,-420.837 404.026,-404.231 387,-397 300.791,-360.388 256.008,-421.838 178,-370 148.89,-350.656 173.451,-302 138.5,-302"/>
<polygon fill="black" stroke="black" points="427.046,-424.921 425.389,-432.748 423.824,-432.416 425.48,-424.59 427.046,-424.921"/>
<polyline fill="none" stroke="black" points="427,-429 423.087,-428.172 "/>
<ellipse fill="none" stroke="black" cx="419.956" cy="-427.509" rx="3.20001" ry="3.20001"/>
</g>
<!-- container_manifest&#45;&gt;container_blob -->
<g id="edge6" class="edge"><title>container_manifest:config_blob_id:w&#45;&gt;container_blob:elipses:e</title>
<path fill="none" stroke="black" d="M412.552,-382.251C385.91,-370.865 387.269,-328 350.5,-328"/>
<polygon fill="black" stroke="black" points="419.141,-383.505 426.327,-388.537 423.071,-384.252 427,-385 427,-385 427,-385 423.071,-384.252 427.673,-381.463 419.141,-383.505 419.141,-383.505"/>
<ellipse fill="none" stroke="black" cx="415.997" cy="-382.906" rx="3.2" ry="3.2"/>
</g>
<!-- container_manifestlistmanifest -->
<g id="node7" class="node"><title>container_manifestlistmanifest</title>
<g id="a_node7"><a xlink:href="../../tables/container_manifestlistmanifest.html" xlink:title="container_manifestlistmanifest" target="_top">
<polygon fill="#ffffff" stroke="none" points="645,-407 645,-465 874,-465 874,-407 645,-407"/>
<polygon fill="#f5f5f5" stroke="none" points="645.5,-443 645.5,-465 874.5,-465 874.5,-443 645.5,-443"/>
<polygon fill="none" stroke="black" points="645.5,-443 645.5,-465 874.5,-465 874.5,-443 645.5,-443"/>
<text text-anchor="start" x="650.5" y="-452.2" font-family="Helvetica,sans-Serif" font-weight="bold" font-size="11.00">container_manifestlistmanifest</text>
<text text-anchor="start" x="835.5" y="-451.2" font-family="Helvetica,sans-Serif" font-size="11.00">[table]</text>
<polygon fill="none" stroke="black" points="645.5,-425 645.5,-443 874.5,-443 874.5,-425 645.5,-425"/>
<text text-anchor="start" x="648.5" y="-431.2" font-family="Helvetica,sans-Serif" font-size="11.00">...</text>
<polygon fill="#ffffff" stroke="none" points="645.5,-407 645.5,-425 743.5,-425 743.5,-407 645.5,-407"/>
<polygon fill="none" stroke="black" points="645.5,-407 645.5,-425 743.5,-425 743.5,-407 645.5,-407"/>
<text text-anchor="start" x="648.5" y="-413.2" font-family="Helvetica,sans-Serif" font-size="11.00">&lt; 2</text>
<polygon fill="#ffffff" stroke="none" points="743.5,-407 743.5,-425 823.5,-425 823.5,-407 743.5,-407"/>
<polygon fill="none" stroke="black" points="743.5,-407 743.5,-425 823.5,-425 823.5,-407 743.5,-407"/>
<text text-anchor="start" x="784.5" y="-413.2" font-family="Helvetica,sans-Serif" font-size="11.00">0 rows</text>
<polygon fill="#ffffff" stroke="none" points="823.5,-407 823.5,-425 874.5,-425 874.5,-407 823.5,-407"/>
<polygon fill="none" stroke="black" points="823.5,-407 823.5,-425 874.5,-425 874.5,-407 823.5,-407"/>
<text text-anchor="start" x="864.5" y="-413.2" font-family="Helvetica,sans-Serif" font-size="11.00"> &#160;</text>
</a>
</g>
</g>
<!-- container_manifestlistmanifest&#45;&gt;container_manifest -->
<g id="edge8" class="edge"><title>container_manifestlistmanifest:elipses:w&#45;&gt;container_manifest:content_ptr_id:e</title>
<path fill="none" stroke="black" d="M630.552,-430.311C616.223,-426.339 608.349,-424.312 589,-429"/>
<polygon fill="black" stroke="black" points="636.766,-431.954 643.579,-437.48 640.633,-432.977 644.5,-434 644.5,-434 644.5,-434 640.633,-432.977 645.421,-430.52 636.766,-431.954 636.766,-431.954"/>
<ellipse fill="none" stroke="black" cx="633.672" cy="-431.136" rx="3.2" ry="3.2"/>
</g>
<!-- container_manifestlistmanifest&#45;&gt;container_manifest -->
<g id="edge9" class="edge"><title>container_manifestlistmanifest:elipses:w&#45;&gt;container_manifest:content_ptr_id:e</title>
<path fill="none" stroke="black" d="M630.124,-437.026C616.065,-438.632 608.155,-434.414 589,-429"/>
<polygon fill="black" stroke="black" points="636.672,-435.648 645.242,-437.523 640.586,-434.824 644.5,-434 644.5,-434 644.5,-434 640.586,-434.824 643.758,-430.477 636.672,-435.648 636.672,-435.648"/>
<ellipse fill="none" stroke="black" cx="633.54" cy="-436.307" rx="3.2" ry="3.2"/>
</g>
<!-- container_tag -->
<g id="node8" class="node"><title>container_tag</title>
<g id="a_node8"><a xlink:href="../../tables/container_tag.html" xlink:title="container_tag" target="_top">
<polygon fill="#ffffff" stroke="none" points="637,-197 637,-307 882,-307 882,-197 637,-197"/>
<polygon fill="#f5f5f5" stroke="none" points="639.5,-283 639.5,-305 880.5,-305 880.5,-283 639.5,-283"/>
<polygon fill="none" stroke="black" points="639.5,-283 639.5,-305 880.5,-305 880.5,-283 639.5,-283"/>
<text text-anchor="start" x="644.5" y="-292.2" font-family="Helvetica,sans-Serif" font-weight="bold" font-size="11.00">container_tag</text>
<text text-anchor="start" x="841.5" y="-291.2" font-family="Helvetica,sans-Serif" font-size="11.00">[table]</text>
<polygon fill="none" stroke="black" points="639.5,-261 639.5,-283 775.5,-283 775.5,-261 639.5,-261"/>
<image xlink:href="../../images/primaryKeys.png" width="11px" height="12px" preserveAspectRatio="xMinYMin meet" x="644.5" y="-278"/>
<text text-anchor="start" x="659.5" y="-269.2" font-family="Helvetica,sans-Serif" font-size="11.00">content_ptr_id</text>
<polygon fill="none" stroke="black" points="775.5,-261 775.5,-283 880.5,-283 880.5,-261 775.5,-261"/>
<text text-anchor="start" x="778.5" y="-269.2" font-family="Helvetica,sans-Serif" font-size="11.00">uuid[2147483647]</text>
<polygon fill="#ffffff" stroke="none" points="639.5,-239 639.5,-261 775.5,-261 775.5,-239 639.5,-239"/>
<polygon fill="none" stroke="black" points="639.5,-239 639.5,-261 775.5,-261 775.5,-239 639.5,-239"/>
<text text-anchor="start" x="659.5" y="-247.2" font-family="Helvetica,sans-Serif" font-size="11.00">name</text>
<polygon fill="none" stroke="black" points="775.5,-239 775.5,-261 880.5,-261 880.5,-239 775.5,-239"/>
<text text-anchor="start" x="778.5" y="-247.2" font-family="Helvetica,sans-Serif" font-size="11.00">varchar[255]</text>
<polygon fill="#ffffff" stroke="none" points="639.5,-217 639.5,-239 775.5,-239 775.5,-217 639.5,-217"/>
<polygon fill="none" stroke="black" points="639.5,-217 639.5,-239 775.5,-239 775.5,-217 639.5,-217"/>
<image xlink:href="../../images/foreignKeys.png" width="11px" height="12px" preserveAspectRatio="xMinYMin meet" x="644.5" y="-234"/>
<text text-anchor="start" x="659.5" y="-225.2" font-family="Helvetica,sans-Serif" font-size="11.00">tagged_manifest_id</text>
<polygon fill="none" stroke="black" points="775.5,-217 775.5,-239 880.5,-239 880.5,-217 775.5,-217"/>
<text text-anchor="start" x="778.5" y="-225.2" font-family="Helvetica,sans-Serif" font-size="11.00">uuid[2147483647]</text>
<polygon fill="#ffffff" stroke="none" points="639.5,-199 639.5,-217 697.5,-217 697.5,-199 639.5,-199"/>
<polygon fill="none" stroke="black" points="639.5,-199 639.5,-217 697.5,-217 697.5,-199 639.5,-199"/>
<text text-anchor="start" x="642.5" y="-205.2" font-family="Helvetica,sans-Serif" font-size="11.00">&lt; 2</text>
<polygon fill="#ffffff" stroke="none" points="697.5,-199 697.5,-217 775.5,-217 775.5,-199 697.5,-199"/>
<polygon fill="none" stroke="black" points="697.5,-199 697.5,-217 775.5,-217 775.5,-199 697.5,-199"/>
<text text-anchor="start" x="736.5" y="-205.2" font-family="Helvetica,sans-Serif" font-size="11.00">0 rows</text>
<polygon fill="#ffffff" stroke="none" points="775.5,-199 775.5,-217 880.5,-217 880.5,-199 775.5,-199"/>
<polygon fill="none" stroke="black" points="775.5,-199 775.5,-217 880.5,-217 880.5,-199 775.5,-199"/>
<text text-anchor="start" x="860.5" y="-205.2" font-family="Helvetica,sans-Serif" font-size="11.00">0 &gt;</text>
<polygon fill="none" stroke="black" stroke-width="2" points="638,-198 638,-306 881,-306 881,-198 638,-198"/>
</a>
</g>
</g>
<!-- container_tag&#45;&gt;core_content -->
<g id="edge10" class="edge"><title>container_tag:content_ptr_id:w&#45;&gt;core_content:pulp_id:e</title>
<path fill="none" stroke="black" d="M627.837,-271.988C431.739,-271.56 376.783,-259.651 178,-291 159.999,-293.839 156.724,-302 138.5,-302"/>
<polygon fill="black" stroke="black" points="637.704,-267.999 637.696,-275.999 636.096,-275.997 636.104,-267.997 637.704,-267.999"/>
<polyline fill="none" stroke="black" points="638.5,-272 634.5,-271.996 "/>
<ellipse fill="none" stroke="black" cx="631.3" cy="-271.992" rx="3.2" ry="3.2"/>
</g>
<!-- container_tag&#45;&gt;container_manifest -->
<g id="edge11" class="edge"><title>container_tag:tagged_manifest_id:w&#45;&gt;container_manifest:content_ptr_id:e</title>
<path fill="none" stroke="black" d="M624.179,-230.121C561.955,-251.603 675.432,-429 589,-429"/>
<polygon fill="black" stroke="black" points="630.586,-229.172 639.028,-231.561 634.543,-228.586 638.5,-228 638.5,-228 638.5,-228 634.543,-228.586 637.972,-224.439 630.586,-229.172 630.586,-229.172"/>
<ellipse fill="none" stroke="black" cx="627.421" cy="-229.641" rx="3.2" ry="3.2"/>
</g>
<!-- core_contentartifact -->
<g id="node9" class="node"><title>core_contentartifact</title>
<g id="a_node9"><a xlink:href="../../tables/core_contentartifact.html" xlink:title="core_contentartifact" target="_top">
<polygon fill="#ffffff" stroke="none" points="199.5,-195 199.5,-253 365.5,-253 365.5,-195 199.5,-195"/>
<polygon fill="#f5f5f5" stroke="none" points="199.5,-231 199.5,-253 365.5,-253 365.5,-231 199.5,-231"/>
<polygon fill="none" stroke="black" points="199.5,-231 199.5,-253 365.5,-253 365.5,-231 199.5,-231"/>
<text text-anchor="start" x="204.5" y="-240.2" font-family="Helvetica,sans-Serif" font-weight="bold" font-size="11.00">core_contentartifact</text>
<text text-anchor="start" x="326.5" y="-239.2" font-family="Helvetica,sans-Serif" font-size="11.00">[table]</text>
<polygon fill="none" stroke="black" points="199.5,-213 199.5,-231 365.5,-231 365.5,-213 199.5,-213"/>
<text text-anchor="start" x="202.5" y="-219.2" font-family="Helvetica,sans-Serif" font-size="11.00">...</text>
<polygon fill="#ffffff" stroke="none" points="199.5,-195 199.5,-213 257.5,-213 257.5,-195 199.5,-195"/>
<polygon fill="none" stroke="black" points="199.5,-195 199.5,-213 257.5,-213 257.5,-195 199.5,-195"/>
<text text-anchor="start" x="202.5" y="-201.2" font-family="Helvetica,sans-Serif" font-size="11.00">&lt; 2</text>
<polygon fill="#ffffff" stroke="none" points="257.5,-195 257.5,-213 324.5,-213 324.5,-195 257.5,-195"/>
<polygon fill="none" stroke="black" points="257.5,-195 257.5,-213 324.5,-213 324.5,-195 257.5,-195"/>
<text text-anchor="start" x="278.5" y="-201.2" font-family="Helvetica,sans-Serif" font-size="11.00">88 rows</text>
<polygon fill="#ffffff" stroke="none" points="324.5,-195 324.5,-213 365.5,-213 365.5,-195 324.5,-195"/>
<polygon fill="none" stroke="black" points="324.5,-195 324.5,-213 365.5,-213 365.5,-195 324.5,-195"/>
<text text-anchor="start" x="345.5" y="-201.2" font-family="Helvetica,sans-Serif" font-size="11.00">2 &gt;</text>
</a>
</g>
</g>
<!-- core_contentartifact&#45;&gt;core_content -->
<g id="edge12" class="edge"><title>core_contentartifact:elipses:w&#45;&gt;core_content:pulp_id:e</title>
<path fill="none" stroke="black" d="M184.329,-225.859C160.436,-241.839 177.042,-302 138.5,-302"/>
<polygon fill="black" stroke="black" points="190.781,-224.102 199.446,-225.474 194.641,-223.051 198.5,-222 198.5,-222 198.5,-222 194.641,-223.051 197.554,-218.526 190.781,-224.102 190.781,-224.102"/>
<ellipse fill="none" stroke="black" cx="187.693" cy="-224.942" rx="3.2" ry="3.2"/>
</g>
<!-- core_publishedmetadata -->
<g id="node10" class="node"><title>core_publishedmetadata</title>
<g id="a_node10"><a xlink:href="../../tables/core_publishedmetadata.html" xlink:title="core_publishedmetadata" target="_top">
<polygon fill="#ffffff" stroke="none" points="187,-116 187,-174 378,-174 378,-116 187,-116"/>
<polygon fill="#f5f5f5" stroke="none" points="187.5,-152 187.5,-174 378.5,-174 378.5,-152 187.5,-152"/>
<polygon fill="none" stroke="black" points="187.5,-152 187.5,-174 378.5,-174 378.5,-152 187.5,-152"/>
<text text-anchor="start" x="192.5" y="-161.2" font-family="Helvetica,sans-Serif" font-weight="bold" font-size="11.00">core_publishedmetadata</text>
<text text-anchor="start" x="339.5" y="-160.2" font-family="Helvetica,sans-Serif" font-size="11.00">[table]</text>
<polygon fill="none" stroke="black" points="187.5,-134 187.5,-152 378.5,-152 378.5,-134 187.5,-134"/>
<text text-anchor="start" x="190.5" y="-140.2" font-family="Helvetica,sans-Serif" font-size="11.00">...</text>
<polygon fill="#ffffff" stroke="none" points="187.5,-116 187.5,-134 266.5,-134 266.5,-116 187.5,-116"/>
<polygon fill="none" stroke="black" points="187.5,-116 187.5,-134 266.5,-134 266.5,-116 187.5,-116"/>
<text text-anchor="start" x="190.5" y="-122.2" font-family="Helvetica,sans-Serif" font-size="11.00">&lt; 2</text>
<polygon fill="#ffffff" stroke="none" points="266.5,-116 266.5,-134 336.5,-134 336.5,-116 266.5,-116"/>
<polygon fill="none" stroke="black" points="266.5,-116 266.5,-134 336.5,-134 336.5,-116 266.5,-116"/>
<text text-anchor="start" x="297.5" y="-122.2" font-family="Helvetica,sans-Serif" font-size="11.00">0 rows</text>
<polygon fill="#ffffff" stroke="none" points="336.5,-116 336.5,-134 378.5,-134 378.5,-116 336.5,-116"/>
<polygon fill="none" stroke="black" points="336.5,-116 336.5,-134 378.5,-134 378.5,-116 336.5,-116"/>
<text text-anchor="start" x="368.5" y="-122.2" font-family="Helvetica,sans-Serif" font-size="11.00"> &#160;</text>
</a>
</g>
</g>
<!-- core_publishedmetadata&#45;&gt;core_content -->
<g id="edge13" class="edge"><title>core_publishedmetadata:elipses:w&#45;&gt;core_content:pulp_id:e</title>
<path fill="none" stroke="black" d="M175.889,-144.375C123.062,-159.915 208.28,-302 138.5,-302"/>
<polygon fill="black" stroke="black" points="185.193,-139.136 186.221,-147.07 184.634,-147.275 183.606,-139.341 185.193,-139.136"/>
<polyline fill="none" stroke="black" points="186.5,-143 182.533,-143.514 "/>
<ellipse fill="none" stroke="black" cx="179.36" cy="-143.925" rx="3.2" ry="3.2"/>
</g>
<!-- core_repositorycontent -->
<g id="node11" class="node"><title>core_repositorycontent</title>
<g id="a_node11"><a xlink:href="../../tables/core_repositorycontent.html" xlink:title="core_repositorycontent" target="_top">
<polygon fill="#ffffff" stroke="none" points="191.5,-37 191.5,-95 373.5,-95 373.5,-37 191.5,-37"/>
<polygon fill="#f5f5f5" stroke="none" points="191.5,-73 191.5,-95 373.5,-95 373.5,-73 191.5,-73"/>
<polygon fill="none" stroke="black" points="191.5,-73 191.5,-95 373.5,-95 373.5,-73 191.5,-73"/>
<text text-anchor="start" x="196.5" y="-82.2" font-family="Helvetica,sans-Serif" font-weight="bold" font-size="11.00">core_repositorycontent</text>
<text text-anchor="start" x="334.5" y="-81.2" font-family="Helvetica,sans-Serif" font-size="11.00">[table]</text>
<polygon fill="none" stroke="black" points="191.5,-55 191.5,-73 373.5,-73 373.5,-55 191.5,-55"/>
<text text-anchor="start" x="194.5" y="-61.2" font-family="Helvetica,sans-Serif" font-size="11.00">...</text>
<polygon fill="#ffffff" stroke="none" points="191.5,-37 191.5,-55 259.5,-55 259.5,-37 191.5,-37"/>
<polygon fill="none" stroke="black" points="191.5,-37 191.5,-55 259.5,-55 259.5,-37 191.5,-37"/>
<text text-anchor="start" x="194.5" y="-43.2" font-family="Helvetica,sans-Serif" font-size="11.00">&lt; 4</text>
<polygon fill="#ffffff" stroke="none" points="259.5,-37 259.5,-55 337.5,-55 337.5,-37 259.5,-37"/>
<polygon fill="none" stroke="black" points="259.5,-37 259.5,-55 337.5,-55 337.5,-37 259.5,-37"/>
<text text-anchor="start" x="285.5" y="-43.2" font-family="Helvetica,sans-Serif" font-size="11.00">786 rows</text>
<polygon fill="#ffffff" stroke="none" points="337.5,-37 337.5,-55 373.5,-55 373.5,-37 337.5,-37"/>
<polygon fill="none" stroke="black" points="337.5,-37 337.5,-55 373.5,-55 373.5,-37 337.5,-37"/>
<text text-anchor="start" x="363.5" y="-43.2" font-family="Helvetica,sans-Serif" font-size="11.00"> &#160;</text>
</a>
</g>
</g>
<!-- core_repositorycontent&#45;&gt;core_content -->
<g id="edge14" class="edge"><title>core_repositorycontent:elipses:w&#45;&gt;core_content:pulp_id:e</title>
<path fill="none" stroke="black" d="M176.044,-65.7789C98.2351,-87.5581 241.275,-302 138.5,-302"/>
<polygon fill="black" stroke="black" points="182.56,-64.9771 190.94,-67.573 186.53,-64.4886 190.5,-64 190.5,-64 190.5,-64 186.53,-64.4886 190.06,-60.427 182.56,-64.9771 182.56,-64.9771"/>
<ellipse fill="none" stroke="black" cx="179.384" cy="-65.368" rx="3.2" ry="3.2"/>
</g>
</g>
</svg>
