<?xml version="1.0" encoding="UTF-8" standalone="no"?>
<!DOCTYPE svg PUBLIC "-//W3C//DTD SVG 1.1//EN"
 "http://www.w3.org/Graphics/SVG/1.1/DTD/svg11.dtd">
<!-- Generated by graphviz version 2.38.0 (20140413.2041)
 -->
<!-- Title: oneDegreeRelationshipsDiagram Pages: 1 -->
<svg width="864pt" height="216pt"
 viewBox="0.00 0.00 864.00 216.00" xmlns="http://www.w3.org/2000/svg" xmlns:xlink="http://www.w3.org/1999/xlink">
<g id="graph0" class="graph" transform="scale(1 1) rotate(0) translate(4 212)">
<title>oneDegreeRelationshipsDiagram</title>
<polygon fill="#ffffff" stroke="none" points="-4,4 -4,-212 860,-212 860,4 -4,4"/>
<text text-anchor="middle" x="74.5" y="-7.2" font-family="Helvetica,sans-Serif" font-size="11.00">Generated by SchemaSpy</text>
<!-- container_blob -->
<g id="node1" class="node"><title>container_blob</title>
<g id="a_node1"><a xlink:href="../../tables/container_blob.html" xlink:title="container_blob" target="_top">
<polygon fill="#ffffff" stroke="none" points="186,-37 186,-147 405,-147 405,-37 186,-37"/>
<polygon fill="#f5f5f5" stroke="none" points="188.5,-123 188.5,-145 403.5,-145 403.5,-123 188.5,-123"/>
<polygon fill="none" stroke="black" points="188.5,-123 188.5,-145 403.5,-145 403.5,-123 188.5,-123"/>
<text text-anchor="start" x="193.5" y="-132.2" font-family="Helvetica,sans-Serif" font-weight="bold" font-size="11.00">container_blob</text>
<text text-anchor="start" x="364.5" y="-131.2" font-family="Helvetica,sans-Serif" font-size="11.00">[table]</text>
<polygon fill="none" stroke="black" points="188.5,-101 188.5,-123 298.5,-123 298.5,-101 188.5,-101"/>
<image xlink:href="../../images/primaryKeys.png" width="11px" height="12px" preserveAspectRatio="xMinYMin meet" x="193.5" y="-118"/>
<text text-anchor="start" x="208.5" y="-109.2" font-family="Helvetica,sans-Serif" font-size="11.00">content_ptr_id</text>
<polygon fill="none" stroke="black" points="298.5,-101 298.5,-123 403.5,-123 403.5,-101 298.5,-101"/>
<text text-anchor="start" x="301.5" y="-109.2" font-family="Helvetica,sans-Serif" font-size="11.00">uuid[2147483647]</text>
<polygon fill="#ffffff" stroke="none" points="188.5,-79 188.5,-101 298.5,-101 298.5,-79 188.5,-79"/>
<polygon fill="none" stroke="black" points="188.5,-79 188.5,-101 298.5,-101 298.5,-79 188.5,-79"/>
<text text-anchor="start" x="208.5" y="-87.2" font-family="Helvetica,sans-Serif" font-size="11.00">digest</text>
<polygon fill="none" stroke="black" points="298.5,-79 298.5,-101 403.5,-101 403.5,-79 298.5,-79"/>
<text text-anchor="start" x="301.5" y="-87.2" font-family="Helvetica,sans-Serif" font-size="11.00">varchar[255]</text>
<polygon fill="none" stroke="black" points="188.5,-57 188.5,-79 298.5,-79 298.5,-57 188.5,-57"/>
<text text-anchor="start" x="208.5" y="-65.2" font-family="Helvetica,sans-Serif" font-size="11.00">media_type</text>
<polygon fill="none" stroke="black" points="298.5,-57 298.5,-79 403.5,-79 403.5,-57 298.5,-57"/>
<text text-anchor="start" x="301.5" y="-65.2" font-family="Helvetica,sans-Serif" font-size="11.00">varchar[80]</text>
<polygon fill="#ffffff" stroke="none" points="188.5,-39 188.5,-57 233.5,-57 233.5,-39 188.5,-39"/>
<polygon fill="none" stroke="black" points="188.5,-39 188.5,-57 233.5,-57 233.5,-39 188.5,-39"/>
<text text-anchor="start" x="191.5" y="-45.2" font-family="Helvetica,sans-Serif" font-size="11.00">&lt; 1</text>
<polygon fill="#ffffff" stroke="none" points="233.5,-39 233.5,-57 298.5,-57 298.5,-39 233.5,-39"/>
<polygon fill="none" stroke="black" points="233.5,-39 233.5,-57 298.5,-57 298.5,-39 233.5,-39"/>
<text text-anchor="start" x="259.5" y="-45.2" font-family="Helvetica,sans-Serif" font-size="11.00">0 rows</text>
<polygon fill="#ffffff" stroke="none" points="298.5,-39 298.5,-57 403.5,-57 403.5,-39 298.5,-39"/>
<polygon fill="none" stroke="black" points="298.5,-39 298.5,-57 403.5,-57 403.5,-39 298.5,-39"/>
<text text-anchor="start" x="383.5" y="-45.2" font-family="Helvetica,sans-Serif" font-size="11.00">2 &gt;</text>
<polygon fill="none" stroke="black" stroke-width="2" points="187,-38 187,-146 404,-146 404,-38 187,-38"/>
</a>
</g>
</g>
<!-- core_content -->
<g id="node2" class="node"><title>core_content</title>
<g id="a_node2"><a xlink:href="../../tables/core_content.html" xlink:title="core_content" target="_top">
<polygon fill="#ffffff" stroke="none" points="8,-94 8,-174 137,-174 137,-94 8,-94"/>
<polygon fill="#f5f5f5" stroke="none" points="8.5,-152 8.5,-174 137.5,-174 137.5,-152 8.5,-152"/>
<polygon fill="none" stroke="black" points="8.5,-152 8.5,-174 137.5,-174 137.5,-152 8.5,-152"/>
<text text-anchor="start" x="13.5" y="-161.2" font-family="Helvetica,sans-Serif" font-weight="bold" font-size="11.00">core_content</text>
<text text-anchor="start" x="98.5" y="-160.2" font-family="Helvetica,sans-Serif" font-size="11.00">[table]</text>
<polygon fill="none" stroke="black" points="8.5,-130 8.5,-152 137.5,-152 137.5,-130 8.5,-130"/>
<image xlink:href="../../images/primaryKeys.png" width="11px" height="12px" preserveAspectRatio="xMinYMin meet" x="13.5" y="-147"/>
<text text-anchor="start" x="28.5" y="-138.2" font-family="Helvetica,sans-Serif" font-size="11.00">pulp_id</text>
<polygon fill="none" stroke="black" points="8.5,-112 8.5,-130 137.5,-130 137.5,-112 8.5,-112"/>
<text text-anchor="start" x="11.5" y="-118.2" font-family="Helvetica,sans-Serif" font-size="11.00">...</text>
<polygon fill="#ffffff" stroke="none" points="8.5,-94 8.5,-112 43.5,-112 43.5,-94 8.5,-94"/>
<polygon fill="none" stroke="black" points="8.5,-94 8.5,-112 43.5,-112 43.5,-94 8.5,-94"/>
<text text-anchor="start" x="11.5" y="-100.2" font-family="Helvetica,sans-Serif" font-size="11.00"> &#160;</text>
<polygon fill="#ffffff" stroke="none" points="43.5,-94 43.5,-112 103.5,-112 103.5,-94 43.5,-94"/>
<polygon fill="none" stroke="black" points="43.5,-94 43.5,-112 103.5,-112 103.5,-94 43.5,-94"/>
<text text-anchor="start" x="57.5" y="-100.2" font-family="Helvetica,sans-Serif" font-size="11.00">88 rows</text>
<polygon fill="#ffffff" stroke="none" points="103.5,-94 103.5,-112 137.5,-112 137.5,-94 103.5,-94"/>
<polygon fill="none" stroke="black" points="103.5,-94 103.5,-112 137.5,-112 137.5,-94 103.5,-94"/>
<text text-anchor="start" x="117.5" y="-100.2" font-family="Helvetica,sans-Serif" font-size="11.00">8 &gt;</text>
</a>
</g>
</g>
<!-- container_blob&#45;&gt;core_content -->
<g id="edge1" class="edge"><title>container_blob:content_ptr_id:w&#45;&gt;core_content:pulp_id:e</title>
<path fill="none" stroke="black" d="M176.981,-114.086C161.998,-120.735 159.654,-141 138.5,-141"/>
<polygon fill="black" stroke="black" points="185.937,-108.232 187.493,-116.079 185.924,-116.39 184.368,-108.543 185.937,-108.232"/>
<polyline fill="none" stroke="black" points="187.5,-112 183.576,-112.778 "/>
<ellipse fill="none" stroke="black" cx="180.437" cy="-113.4" rx="3.20001" ry="3.20001"/>
</g>
<!-- container_blobmanifest -->
<g id="node3" class="node"><title>container_blobmanifest</title>
<g id="a_node3"><a xlink:href="../../tables/container_blobmanifest.html" xlink:title="container_blobmanifest" target="_top">
<polygon fill="#ffffff" stroke="none" points="663,-73 663,-179 848,-179 848,-73 663,-73"/>
<polygon fill="#f5f5f5" stroke="none" points="663.5,-157 663.5,-179 848.5,-179 848.5,-157 663.5,-157"/>
<polygon fill="none" stroke="black" points="663.5,-157 663.5,-179 848.5,-179 848.5,-157 663.5,-157"/>
<text text-anchor="start" x="668.5" y="-166.2" font-family="Helvetica,sans-Serif" font-weight="bold" font-size="11.00">container_blobmanifest</text>
<text text-anchor="start" x="809.5" y="-165.2" font-family="Helvetica,sans-Serif" font-size="11.00">[table]</text>
<polygon fill="none" stroke="black" points="663.5,-135 663.5,-157 848.5,-157 848.5,-135 663.5,-135"/>
<image xlink:href="../../images/primaryKeys.png" width="11px" height="12px" preserveAspectRatio="xMinYMin meet" x="668.5" y="-152"/>
<text text-anchor="start" x="694.5" y="-143.2" font-family="Helvetica,sans-Serif" font-size="11.00">id</text>
<polygon fill="#ffffff" stroke="none" points="663.5,-113 663.5,-135 848.5,-135 848.5,-113 663.5,-113"/>
<polygon fill="none" stroke="black" points="663.5,-113 663.5,-135 848.5,-135 848.5,-113 663.5,-113"/>
<image xlink:href="../../images/foreignKeys.png" width="11px" height="12px" preserveAspectRatio="xMinYMin meet" x="668.5" y="-130"/>
<text text-anchor="start" x="694.5" y="-121.2" font-family="Helvetica,sans-Serif" font-size="11.00">manifest_id</text>
<polygon fill="#ffffff" stroke="none" points="663.5,-91 663.5,-113 848.5,-113 848.5,-91 663.5,-91"/>
<polygon fill="none" stroke="black" points="663.5,-91 663.5,-113 848.5,-113 848.5,-91 663.5,-91"/>
<image xlink:href="../../images/foreignKeys.png" width="11px" height="12px" preserveAspectRatio="xMinYMin meet" x="668.5" y="-108"/>
<text text-anchor="start" x="694.5" y="-99.2" font-family="Helvetica,sans-Serif" font-size="11.00">manifest_blob_id</text>
<polygon fill="#ffffff" stroke="none" points="663.5,-73 663.5,-91 739.5,-91 739.5,-73 663.5,-73"/>
<polygon fill="none" stroke="black" points="663.5,-73 663.5,-91 739.5,-91 739.5,-73 663.5,-73"/>
<text text-anchor="start" x="666.5" y="-79.2" font-family="Helvetica,sans-Serif" font-size="11.00">&lt; 2</text>
<polygon fill="#ffffff" stroke="none" points="739.5,-73 739.5,-91 808.5,-91 808.5,-73 739.5,-73"/>
<polygon fill="none" stroke="black" points="739.5,-73 739.5,-91 808.5,-91 808.5,-73 739.5,-73"/>
<text text-anchor="start" x="769.5" y="-79.2" font-family="Helvetica,sans-Serif" font-size="11.00">0 rows</text>
<polygon fill="#ffffff" stroke="none" points="808.5,-73 808.5,-91 848.5,-91 848.5,-73 808.5,-73"/>
<polygon fill="none" stroke="black" points="808.5,-73 808.5,-91 848.5,-91 848.5,-73 808.5,-73"/>
<text text-anchor="start" x="838.5" y="-79.2" font-family="Helvetica,sans-Serif" font-size="11.00"> &#160;</text>
</a>
</g>
</g>
<!-- container_blobmanifest&#45;&gt;container_blob -->
<g id="edge2" class="edge"><title>container_blobmanifest:manifest_blob_id:w&#45;&gt;container_blob:content_ptr_id.type:e</title>
<path fill="none" stroke="black" d="M648.582,-97.2158C639.815,-89.5133 637.894,-74.6554 622,-69 548.304,-42.7772 517.999,-38.4255 446,-69 421.553,-79.3814 431.06,-112 404.5,-112"/>
<polygon fill="black" stroke="black" points="654.934,-99.3994 661.33,-105.404 658.717,-100.7 662.5,-102 662.5,-102 662.5,-102 658.717,-100.7 663.67,-98.5955 654.934,-99.3994 654.934,-99.3994"/>
<ellipse fill="none" stroke="black" cx="651.908" cy="-98.3591" rx="3.20001" ry="3.20001"/>
</g>
<!-- container_manifest -->
<g id="node4" class="node"><title>container_manifest</title>
<g id="a_node4"><a xlink:href="../../tables/container_manifest.html" xlink:title="container_manifest" target="_top">
<polygon fill="#ffffff" stroke="none" points="454,-80 454,-204 614,-204 614,-80 454,-80"/>
<polygon fill="#f5f5f5" stroke="none" points="454,-182 454,-204 614,-204 614,-182 454,-182"/>
<polygon fill="none" stroke="black" points="454,-182 454,-204 614,-204 614,-182 454,-182"/>
<text text-anchor="start" x="459" y="-191.2" font-family="Helvetica,sans-Serif" font-weight="bold" font-size="11.00">container_manifest</text>
<text text-anchor="start" x="575" y="-190.2" font-family="Helvetica,sans-Serif" font-size="11.00">[table]</text>
<polygon fill="none" stroke="black" points="454,-160 454,-182 614,-182 614,-160 454,-160"/>
<image xlink:href="../../images/primaryKeys.png" width="11px" height="12px" preserveAspectRatio="xMinYMin meet" x="459" y="-177"/>
<text text-anchor="start" x="486" y="-168.2" font-family="Helvetica,sans-Serif" font-size="11.00">content_ptr_id</text>
<polygon fill="#ffffff" stroke="none" points="454,-138 454,-160 614,-160 614,-138 454,-138"/>
<polygon fill="none" stroke="black" points="454,-138 454,-160 614,-160 614,-138 454,-138"/>
<text text-anchor="start" x="486" y="-146.2" font-family="Helvetica,sans-Serif" font-size="11.00">digest</text>
<polygon fill="#ffffff" stroke="none" points="454,-116 454,-138 614,-138 614,-116 454,-116"/>
<polygon fill="none" stroke="black" points="454,-116 454,-138 614,-138 614,-116 454,-116"/>
<image xlink:href="../../images/foreignKeys.png" width="11px" height="12px" preserveAspectRatio="xMinYMin meet" x="459" y="-133"/>
<text text-anchor="start" x="486" y="-124.2" font-family="Helvetica,sans-Serif" font-size="11.00">config_blob_id</text>
<polygon fill="none" stroke="black" points="454,-98 454,-116 614,-116 614,-98 454,-98"/>
<text text-anchor="start" x="457" y="-104.2" font-family="Helvetica,sans-Serif" font-size="11.00">...</text>
<polygon fill="#ffffff" stroke="none" points="454,-80 454,-98 513,-98 513,-80 454,-80"/>
<polygon fill="none" stroke="black" points="454,-80 454,-98 513,-98 513,-80 454,-80"/>
<text text-anchor="start" x="457" y="-86.2" font-family="Helvetica,sans-Serif" font-size="11.00">&lt; 2</text>
<polygon fill="#ffffff" stroke="none" points="513,-80 513,-98 573,-98 573,-80 513,-80"/>
<polygon fill="none" stroke="black" points="513,-80 513,-98 573,-98 573,-80 513,-80"/>
<text text-anchor="start" x="534" y="-86.2" font-family="Helvetica,sans-Serif" font-size="11.00">0 rows</text>
<polygon fill="#ffffff" stroke="none" points="573,-80 573,-98 614,-98 614,-80 573,-80"/>
<polygon fill="none" stroke="black" points="573,-80 573,-98 614,-98 614,-80 573,-80"/>
<text text-anchor="start" x="594" y="-86.2" font-family="Helvetica,sans-Serif" font-size="11.00">4 &gt;</text>
</a>
</g>
</g>
<!-- container_blobmanifest&#45;&gt;container_manifest -->
<g id="edge3" class="edge"><title>container_blobmanifest:manifest_id:w&#45;&gt;container_manifest:content_ptr_id:e</title>
<path fill="none" stroke="black" d="M648.854,-129.03C635.918,-141.155 638.666,-171 615,-171"/>
<polygon fill="black" stroke="black" points="654.994,-126.767 663.745,-127.378 658.747,-125.383 662.5,-124 662.5,-124 662.5,-124 658.747,-125.383 661.255,-120.622 654.994,-126.767 654.994,-126.767"/>
<ellipse fill="none" stroke="black" cx="651.991" cy="-127.873" rx="3.20001" ry="3.20001"/>
</g>
<!-- container_manifest&#45;&gt;container_blob -->
<g id="edge4" class="edge"><title>container_manifest:config_blob_id:w&#45;&gt;container_blob:content_ptr_id.type:e</title>
<path fill="none" stroke="black" d="M438.718,-124.523C427.422,-120.263 421.246,-112 404.5,-112"/>
<polygon fill="black" stroke="black" points="445.118,-125.633 452.385,-130.547 449.059,-126.316 453,-127 453,-127 453,-127 449.059,-126.316 453.615,-123.453 445.118,-125.633 445.118,-125.633"/>
<ellipse fill="none" stroke="black" cx="441.965" cy="-125.086" rx="3.2" ry="3.2"/>
</g>
<!-- container_manifest&#45;&gt;core_content -->
<g id="edge5" class="edge"><title>container_manifest:content_ptr_id:w&#45;&gt;core_content:pulp_id:e</title>
<path fill="none" stroke="black" d="M442.47,-171.036C328.61,-171.815 293.732,-184.711 178,-158 159.377,-153.702 157.612,-141 138.5,-141"/>
<polygon fill="black" stroke="black" points="452.186,-167.003 452.214,-175.003 450.614,-175.008 450.586,-167.008 452.186,-167.003"/>
<polyline fill="none" stroke="black" points="453,-171 449,-171.014 "/>
<ellipse fill="none" stroke="black" cx="445.8" cy="-171.025" rx="3.2" ry="3.2"/>
</g>
</g>
</svg>
