<?xml version="1.0" encoding="UTF-8" standalone="no"?>
<!DOCTYPE svg PUBLIC "-//W3C//DTD SVG 1.1//EN"
 "http://www.w3.org/Graphics/SVG/1.1/DTD/svg11.dtd">
<!-- Generated by graphviz version 2.38.0 (20140413.2041)
 -->
<!-- Title: oneDegreeRelationshipsDiagram Pages: 1 -->
<svg width="523pt" height="175pt"
 viewBox="0.00 0.00 523.00 175.00" xmlns="http://www.w3.org/2000/svg" xmlns:xlink="http://www.w3.org/1999/xlink">
<g id="graph0" class="graph" transform="scale(1 1) rotate(0) translate(4 171)">
<title>oneDegreeRelationshipsDiagram</title>
<polygon fill="#ffffff" stroke="none" points="-4,4 -4,-171 519,-171 519,4 -4,4"/>
<text text-anchor="middle" x="74.5" y="-7.2" font-family="Helvetica,sans-Serif" font-size="11.00">Generated by SchemaSpy</text>
<!-- container_containerrepository -->
<g id="node1" class="node"><title>container_containerrepository</title>
<g id="a_node1"><a xlink:href="../../tables/container_containerrepository.html" xlink:title="container_containerrepository" target="_top">
<polygon fill="#ffffff" stroke="none" points="194,-97 194,-163 507,-163 507,-97 194,-97"/>
<polygon fill="#f5f5f5" stroke="none" points="196.5,-139 196.5,-161 505.5,-161 505.5,-139 196.5,-139"/>
<polygon fill="none" stroke="black" points="196.5,-139 196.5,-161 505.5,-161 505.5,-139 196.5,-139"/>
<text text-anchor="start" x="201.5" y="-148.2" font-family="Helvetica,sans-Serif" font-weight="bold" font-size="11.00">container_containerrepository</text>
<text text-anchor="start" x="466.5" y="-147.2" font-family="Helvetica,sans-Serif" font-size="11.00">[table]</text>
<polygon fill="none" stroke="black" points="196.5,-117 196.5,-139 400.5,-139 400.5,-117 196.5,-117"/>
<image xlink:href="../../images/primaryKeys.png" width="11px" height="12px" preserveAspectRatio="xMinYMin meet" x="201.5" y="-134"/>
<text text-anchor="start" x="216.5" y="-125.2" font-family="Helvetica,sans-Serif" font-size="11.00">repository_ptr_id</text>
<polygon fill="none" stroke="black" points="400.5,-117 400.5,-139 505.5,-139 505.5,-117 400.5,-117"/>
<text text-anchor="start" x="403.5" y="-125.2" font-family="Helvetica,sans-Serif" font-size="11.00">uuid[2147483647]</text>
<polygon fill="#ffffff" stroke="none" points="196.5,-99 196.5,-117 288.5,-117 288.5,-99 196.5,-99"/>
<polygon fill="none" stroke="black" points="196.5,-99 196.5,-117 288.5,-117 288.5,-99 196.5,-99"/>
<text text-anchor="start" x="199.5" y="-105.2" font-family="Helvetica,sans-Serif" font-size="11.00">&lt; 1</text>
<polygon fill="#ffffff" stroke="none" points="288.5,-99 288.5,-117 400.5,-117 400.5,-99 288.5,-99"/>
<polygon fill="none" stroke="black" points="288.5,-99 288.5,-117 400.5,-117 400.5,-99 288.5,-99"/>
<text text-anchor="start" x="361.5" y="-105.2" font-family="Helvetica,sans-Serif" font-size="11.00">0 rows</text>
<polygon fill="#ffffff" stroke="none" points="400.5,-99 400.5,-117 505.5,-117 505.5,-99 400.5,-99"/>
<polygon fill="none" stroke="black" points="400.5,-99 400.5,-117 505.5,-117 505.5,-99 400.5,-99"/>
<text text-anchor="start" x="485.5" y="-105.2" font-family="Helvetica,sans-Serif" font-size="11.00">0 &gt;</text>
<polygon fill="none" stroke="black" stroke-width="2" points="195,-98 195,-162 506,-162 506,-98 195,-98"/>
</a>
</g>
</g>
<!-- core_repository -->
<g id="node2" class="node"><title>core_repository</title>
<g id="a_node2"><a xlink:href="../../tables/core_repository.html" xlink:title="core_repository" target="_top">
<polygon fill="#ffffff" stroke="none" points="8,-37 8,-161 145,-161 145,-37 8,-37"/>
<polygon fill="#f5f5f5" stroke="none" points="8.5,-139 8.5,-161 145.5,-161 145.5,-139 8.5,-139"/>
<polygon fill="none" stroke="black" points="8.5,-139 8.5,-161 145.5,-161 145.5,-139 8.5,-139"/>
<text text-anchor="start" x="13.5" y="-148.2" font-family="Helvetica,sans-Serif" font-weight="bold" font-size="11.00">core_repository</text>
<text text-anchor="start" x="106.5" y="-147.2" font-family="Helvetica,sans-Serif" font-size="11.00">[table]</text>
<polygon fill="none" stroke="black" points="8.5,-117 8.5,-139 145.5,-139 145.5,-117 8.5,-117"/>
<image xlink:href="../../images/primaryKeys.png" width="11px" height="12px" preserveAspectRatio="xMinYMin meet" x="13.5" y="-134"/>
<text text-anchor="start" x="32.5" y="-125.2" font-family="Helvetica,sans-Serif" font-size="11.00">pulp_id</text>
<polygon fill="#ffffff" stroke="none" points="8.5,-95 8.5,-117 145.5,-117 145.5,-95 8.5,-95"/>
<polygon fill="none" stroke="black" points="8.5,-95 8.5,-117 145.5,-117 145.5,-95 8.5,-95"/>
<text text-anchor="start" x="32.5" y="-103.2" font-family="Helvetica,sans-Serif" font-size="11.00">name</text>
<polygon fill="#ffffff" stroke="none" points="8.5,-73 8.5,-95 145.5,-95 145.5,-73 8.5,-73"/>
<polygon fill="none" stroke="black" points="8.5,-73 8.5,-95 145.5,-95 145.5,-73 8.5,-73"/>
<image xlink:href="../../images/foreignKeys.png" width="11px" height="12px" preserveAspectRatio="xMinYMin meet" x="13.5" y="-90"/>
<text text-anchor="start" x="32.5" y="-81.2" font-family="Helvetica,sans-Serif" font-size="11.00">remote_id</text>
<polygon fill="none" stroke="black" points="8.5,-55 8.5,-73 145.5,-73 145.5,-55 8.5,-55"/>
<text text-anchor="start" x="11.5" y="-61.2" font-family="Helvetica,sans-Serif" font-size="11.00">...</text>
<polygon fill="#ffffff" stroke="none" points="8.5,-37 8.5,-55 48.5,-55 48.5,-37 8.5,-37"/>
<polygon fill="none" stroke="black" points="8.5,-37 8.5,-55 48.5,-55 48.5,-37 8.5,-37"/>
<text text-anchor="start" x="11.5" y="-43.2" font-family="Helvetica,sans-Serif" font-size="11.00">&lt; 1</text>
<polygon fill="#ffffff" stroke="none" points="48.5,-37 48.5,-55 106.5,-55 106.5,-37 48.5,-37"/>
<polygon fill="none" stroke="black" points="48.5,-37 48.5,-55 106.5,-55 106.5,-37 48.5,-37"/>
<text text-anchor="start" x="60.5" y="-43.2" font-family="Helvetica,sans-Serif" font-size="11.00">26 rows</text>
<polygon fill="#ffffff" stroke="none" points="106.5,-37 106.5,-55 145.5,-55 145.5,-37 106.5,-37"/>
<polygon fill="none" stroke="black" points="106.5,-37 106.5,-55 145.5,-55 145.5,-37 106.5,-37"/>
<text text-anchor="start" x="118.5" y="-43.2" font-family="Helvetica,sans-Serif" font-size="11.00">10 &gt;</text>
</a>
</g>
</g>
<!-- container_containerrepository&#45;&gt;core_repository -->
<g id="edge1" class="edge"><title>container_containerrepository:repository_ptr_id:w&#45;&gt;core_repository:pulp_id:e</title>
<path fill="none" stroke="black" d="M184.757,-128C171.106,-128 164.194,-128 146.5,-128"/>
<polygon fill="black" stroke="black" points="194.7,-124 194.7,-132 193.1,-132 193.1,-124 194.7,-124"/>
<polyline fill="none" stroke="black" points="195.5,-128 191.5,-128 "/>
<ellipse fill="none" stroke="black" cx="188.3" cy="-128" rx="3.2" ry="3.2"/>
</g>
</g>
</svg>
