<?xml version="1.0" encoding="UTF-8" standalone="no"?>
<!DOCTYPE svg PUBLIC "-//W3C//DTD SVG 1.1//EN"
 "http://www.w3.org/Graphics/SVG/1.1/DTD/svg11.dtd">
<!-- Generated by graphviz version 2.38.0 (20140413.2041)
 -->
<!-- Title: twoDegreesRelationshipsDiagram Pages: 1 -->
<svg width="860pt" height="317pt"
 viewBox="0.00 0.00 860.00 317.00" xmlns="http://www.w3.org/2000/svg" xmlns:xlink="http://www.w3.org/1999/xlink">
<g id="graph0" class="graph" transform="scale(1 1) rotate(0) translate(4 313)">
<title>twoDegreesRelationshipsDiagram</title>
<polygon fill="#ffffff" stroke="none" points="-4,4 -4,-313 856,-313 856,4 -4,4"/>
<text text-anchor="middle" x="74.5" y="-7.2" font-family="Helvetica,sans-Serif" font-size="11.00">Generated by SchemaSpy</text>
<!-- container_blob -->
<g id="node1" class="node"><title>container_blob</title>
<g id="a_node1"><a xlink:href="../../tables/container_blob.html" xlink:title="container_blob" target="_top">
<polygon fill="#ffffff" stroke="none" points="180,-115 180,-217 314,-217 314,-115 180,-115"/>
<polygon fill="#f5f5f5" stroke="none" points="180,-195 180,-217 314,-217 314,-195 180,-195"/>
<polygon fill="none" stroke="black" points="180,-195 180,-217 314,-217 314,-195 180,-195"/>
<text text-anchor="start" x="185" y="-204.2" font-family="Helvetica,sans-Serif" font-weight="bold" font-size="11.00">container_blob</text>
<text text-anchor="start" x="275" y="-203.2" font-family="Helvetica,sans-Serif" font-size="11.00">[table]</text>
<polygon fill="none" stroke="black" points="180,-173 180,-195 314,-195 314,-173 180,-173"/>
<image xlink:href="../../images/primaryKeys.png" width="11px" height="12px" preserveAspectRatio="xMinYMin meet" x="185" y="-190"/>
<text text-anchor="start" x="212" y="-181.2" font-family="Helvetica,sans-Serif" font-size="11.00">content_ptr_id</text>
<polygon fill="#ffffff" stroke="none" points="180,-151 180,-173 314,-173 314,-151 180,-151"/>
<polygon fill="none" stroke="black" points="180,-151 180,-173 314,-173 314,-151 180,-151"/>
<text text-anchor="start" x="212" y="-159.2" font-family="Helvetica,sans-Serif" font-size="11.00">digest</text>
<polygon fill="none" stroke="black" points="180,-133 180,-151 314,-151 314,-133 180,-133"/>
<text text-anchor="start" x="183" y="-139.2" font-family="Helvetica,sans-Serif" font-size="11.00">...</text>
<polygon fill="#ffffff" stroke="none" points="180,-115 180,-133 226,-133 226,-115 180,-115"/>
<polygon fill="none" stroke="black" points="180,-115 180,-133 226,-133 226,-115 180,-115"/>
<text text-anchor="start" x="183" y="-121.2" font-family="Helvetica,sans-Serif" font-size="11.00">&lt; 1</text>
<polygon fill="#ffffff" stroke="none" points="226,-115 226,-133 279,-133 279,-115 226,-115"/>
<polygon fill="none" stroke="black" points="226,-115 226,-133 279,-133 279,-115 226,-115"/>
<text text-anchor="start" x="240" y="-121.2" font-family="Helvetica,sans-Serif" font-size="11.00">0 rows</text>
<polygon fill="#ffffff" stroke="none" points="279,-115 279,-133 314,-133 314,-115 279,-115"/>
<polygon fill="none" stroke="black" points="279,-115 279,-133 314,-133 314,-115 279,-115"/>
<text text-anchor="start" x="294" y="-121.2" font-family="Helvetica,sans-Serif" font-size="11.00">2 &gt;</text>
</a>
</g>
</g>
<!-- core_content -->
<g id="node2" class="node"><title>core_content</title>
<g id="a_node2"><a xlink:href="../../tables/core_content.html" xlink:title="core_content" target="_top">
<polygon fill="#ffffff" stroke="none" points="8,-157 8,-215 131,-215 131,-157 8,-157"/>
<polygon fill="#f5f5f5" stroke="none" points="8.5,-193 8.5,-215 131.5,-215 131.5,-193 8.5,-193"/>
<polygon fill="none" stroke="black" points="8.5,-193 8.5,-215 131.5,-215 131.5,-193 8.5,-193"/>
<text text-anchor="start" x="13.5" y="-202.2" font-family="Helvetica,sans-Serif" font-weight="bold" font-size="11.00">core_content</text>
<text text-anchor="start" x="92.5" y="-201.2" font-family="Helvetica,sans-Serif" font-size="11.00">[table]</text>
<polygon fill="none" stroke="black" points="8.5,-175 8.5,-193 131.5,-193 131.5,-175 8.5,-175"/>
<text text-anchor="start" x="11.5" y="-181.2" font-family="Helvetica,sans-Serif" font-size="11.00">...</text>
<polygon fill="#ffffff" stroke="none" points="8.5,-157 8.5,-175 40.5,-175 40.5,-157 8.5,-157"/>
<polygon fill="none" stroke="black" points="8.5,-157 8.5,-175 40.5,-175 40.5,-157 8.5,-157"/>
<text text-anchor="start" x="11.5" y="-163.2" font-family="Helvetica,sans-Serif" font-size="11.00"> &#160;</text>
<polygon fill="#ffffff" stroke="none" points="40.5,-157 40.5,-175 98.5,-175 98.5,-157 40.5,-157"/>
<polygon fill="none" stroke="black" points="40.5,-157 40.5,-175 98.5,-175 98.5,-157 40.5,-157"/>
<text text-anchor="start" x="52.5" y="-163.2" font-family="Helvetica,sans-Serif" font-size="11.00">88 rows</text>
<polygon fill="#ffffff" stroke="none" points="98.5,-157 98.5,-175 131.5,-175 131.5,-157 98.5,-157"/>
<polygon fill="none" stroke="black" points="98.5,-157 98.5,-175 131.5,-175 131.5,-157 98.5,-157"/>
<text text-anchor="start" x="111.5" y="-163.2" font-family="Helvetica,sans-Serif" font-size="11.00">8 &gt;</text>
</a>
</g>
</g>
<!-- container_blob&#45;&gt;core_content -->
<g id="edge1" class="edge"><title>container_blob:content_ptr_id:w&#45;&gt;core_content:elipses:e</title>
<path fill="none" stroke="black" d="M168.433,-184C155.724,-184 149.13,-184 132.5,-184"/>
<polygon fill="black" stroke="black" points="178.2,-180 178.2,-188 176.6,-188 176.6,-180 178.2,-180"/>
<polyline fill="none" stroke="black" points="179,-184 175,-184 "/>
<ellipse fill="none" stroke="black" cx="171.8" cy="-184" rx="3.2" ry="3.2"/>
</g>
<!-- container_blobmanifest -->
<g id="node3" class="node"><title>container_blobmanifest</title>
<g id="a_node3"><a xlink:href="../../tables/container_blobmanifest.html" xlink:title="container_blobmanifest" target="_top">
<polygon fill="#ffffff" stroke="none" points="572,-116 572,-226 844,-226 844,-116 572,-116"/>
<polygon fill="#f5f5f5" stroke="none" points="574,-202 574,-224 842,-224 842,-202 574,-202"/>
<polygon fill="none" stroke="black" points="574,-202 574,-224 842,-224 842,-202 574,-202"/>
<text text-anchor="start" x="579" y="-211.2" font-family="Helvetica,sans-Serif" font-weight="bold" font-size="11.00">container_blobmanifest</text>
<text text-anchor="start" x="803" y="-210.2" font-family="Helvetica,sans-Serif" font-size="11.00">[table]</text>
<polygon fill="none" stroke="black" points="574,-180 574,-202 737,-202 737,-180 574,-180"/>
<image xlink:href="../../images/primaryKeys.png" width="11px" height="12px" preserveAspectRatio="xMinYMin meet" x="579" y="-197"/>
<text text-anchor="start" x="594" y="-188.2" font-family="Helvetica,sans-Serif" font-size="11.00">id</text>
<polygon fill="none" stroke="black" points="737,-180 737,-202 842,-202 842,-180 737,-180"/>
<text text-anchor="start" x="740" y="-188.2" font-family="Helvetica,sans-Serif" font-size="11.00">serial[10]</text>
<polygon fill="#ffffff" stroke="none" points="574,-158 574,-180 737,-180 737,-158 574,-158"/>
<polygon fill="none" stroke="black" points="574,-158 574,-180 737,-180 737,-158 574,-158"/>
<image xlink:href="../../images/foreignKeys.png" width="11px" height="12px" preserveAspectRatio="xMinYMin meet" x="579" y="-175"/>
<text text-anchor="start" x="594" y="-166.2" font-family="Helvetica,sans-Serif" font-size="11.00">manifest_id</text>
<polygon fill="none" stroke="black" points="737,-158 737,-180 842,-180 842,-158 737,-158"/>
<text text-anchor="start" x="740" y="-166.2" font-family="Helvetica,sans-Serif" font-size="11.00">uuid[2147483647]</text>
<polygon fill="#ffffff" stroke="none" points="574,-136 574,-158 737,-158 737,-136 574,-136"/>
<polygon fill="none" stroke="black" points="574,-136 574,-158 737,-158 737,-136 574,-136"/>
<image xlink:href="../../images/foreignKeys.png" width="11px" height="12px" preserveAspectRatio="xMinYMin meet" x="579" y="-153"/>
<text text-anchor="start" x="594" y="-144.2" font-family="Helvetica,sans-Serif" font-size="11.00">manifest_blob_id</text>
<polygon fill="none" stroke="black" points="737,-136 737,-158 842,-158 842,-136 737,-136"/>
<text text-anchor="start" x="740" y="-144.2" font-family="Helvetica,sans-Serif" font-size="11.00">uuid[2147483647]</text>
<polygon fill="#ffffff" stroke="none" points="574,-118 574,-136 646,-136 646,-118 574,-118"/>
<polygon fill="none" stroke="black" points="574,-118 574,-136 646,-136 646,-118 574,-118"/>
<text text-anchor="start" x="577" y="-124.2" font-family="Helvetica,sans-Serif" font-size="11.00">&lt; 2</text>
<polygon fill="#ffffff" stroke="none" points="646,-118 646,-136 737,-136 737,-118 646,-118"/>
<polygon fill="none" stroke="black" points="646,-118 646,-136 737,-136 737,-118 646,-118"/>
<text text-anchor="start" x="698" y="-124.2" font-family="Helvetica,sans-Serif" font-size="11.00">0 rows</text>
<polygon fill="#ffffff" stroke="none" points="737,-118 737,-136 842,-136 842,-118 737,-118"/>
<polygon fill="none" stroke="black" points="737,-118 737,-136 842,-136 842,-118 737,-118"/>
<text text-anchor="start" x="822" y="-124.2" font-family="Helvetica,sans-Serif" font-size="11.00">0 &gt;</text>
<polygon fill="none" stroke="black" stroke-width="2" points="573,-117 573,-225 843,-225 843,-117 573,-117"/>
</a>
</g>
</g>
<!-- container_blobmanifest&#45;&gt;container_blob -->
<g id="edge2" class="edge"><title>container_blobmanifest:manifest_blob_id:w&#45;&gt;container_blob:content_ptr_id:e</title>
<path fill="none" stroke="black" d="M558.467,-146.857C472.847,-145.174 442.51,-129.64 355,-158 334.829,-164.537 336.203,-184 315,-184"/>
<polygon fill="black" stroke="black" points="565,-146.921 572.965,-150.6 569,-146.961 573,-147 573,-147 573,-147 569,-146.961 573.035,-143.4 565,-146.921 565,-146.921"/>
<ellipse fill="none" stroke="black" cx="561.801" cy="-146.89" rx="3.2" ry="3.2"/>
</g>
<!-- container_manifest -->
<g id="node4" class="node"><title>container_manifest</title>
<g id="a_node4"><a xlink:href="../../tables/container_manifest.html" xlink:title="container_manifest" target="_top">
<polygon fill="#ffffff" stroke="none" points="363,-168 363,-292 523,-292 523,-168 363,-168"/>
<polygon fill="#f5f5f5" stroke="none" points="363,-270 363,-292 523,-292 523,-270 363,-270"/>
<polygon fill="none" stroke="black" points="363,-270 363,-292 523,-292 523,-270 363,-270"/>
<text text-anchor="start" x="368" y="-279.2" font-family="Helvetica,sans-Serif" font-weight="bold" font-size="11.00">container_manifest</text>
<text text-anchor="start" x="484" y="-278.2" font-family="Helvetica,sans-Serif" font-size="11.00">[table]</text>
<polygon fill="none" stroke="black" points="363,-248 363,-270 523,-270 523,-248 363,-248"/>
<image xlink:href="../../images/primaryKeys.png" width="11px" height="12px" preserveAspectRatio="xMinYMin meet" x="368" y="-265"/>
<text text-anchor="start" x="395" y="-256.2" font-family="Helvetica,sans-Serif" font-size="11.00">content_ptr_id</text>
<polygon fill="#ffffff" stroke="none" points="363,-226 363,-248 523,-248 523,-226 363,-226"/>
<polygon fill="none" stroke="black" points="363,-226 363,-248 523,-248 523,-226 363,-226"/>
<text text-anchor="start" x="395" y="-234.2" font-family="Helvetica,sans-Serif" font-size="11.00">digest</text>
<polygon fill="#ffffff" stroke="none" points="363,-204 363,-226 523,-226 523,-204 363,-204"/>
<polygon fill="none" stroke="black" points="363,-204 363,-226 523,-226 523,-204 363,-204"/>
<image xlink:href="../../images/foreignKeys.png" width="11px" height="12px" preserveAspectRatio="xMinYMin meet" x="368" y="-221"/>
<text text-anchor="start" x="395" y="-212.2" font-family="Helvetica,sans-Serif" font-size="11.00">config_blob_id</text>
<polygon fill="none" stroke="black" points="363,-186 363,-204 523,-204 523,-186 363,-186"/>
<text text-anchor="start" x="366" y="-192.2" font-family="Helvetica,sans-Serif" font-size="11.00">...</text>
<polygon fill="#ffffff" stroke="none" points="363,-168 363,-186 422,-186 422,-168 363,-168"/>
<polygon fill="none" stroke="black" points="363,-168 363,-186 422,-186 422,-168 363,-168"/>
<text text-anchor="start" x="366" y="-174.2" font-family="Helvetica,sans-Serif" font-size="11.00">&lt; 2</text>
<polygon fill="#ffffff" stroke="none" points="422,-168 422,-186 482,-186 482,-168 422,-168"/>
<polygon fill="none" stroke="black" points="422,-168 422,-186 482,-186 482,-168 422,-168"/>
<text text-anchor="start" x="443" y="-174.2" font-family="Helvetica,sans-Serif" font-size="11.00">0 rows</text>
<polygon fill="#ffffff" stroke="none" points="482,-168 482,-186 523,-186 523,-168 482,-168"/>
<polygon fill="none" stroke="black" points="482,-168 482,-186 523,-186 523,-168 482,-168"/>
<text text-anchor="start" x="503" y="-174.2" font-family="Helvetica,sans-Serif" font-size="11.00">4 &gt;</text>
</a>
</g>
</g>
<!-- container_blobmanifest&#45;&gt;container_manifest -->
<g id="edge3" class="edge"><title>container_blobmanifest:manifest_id:w&#45;&gt;container_manifest:content_ptr_id:e</title>
<path fill="none" stroke="black" d="M559.08,-173.341C537.09,-191.319 563.495,-259 524,-259"/>
<polygon fill="black" stroke="black" points="565.363,-171.382 574.072,-172.437 569.181,-170.191 573,-169 573,-169 573,-169 569.181,-170.191 571.928,-165.563 565.363,-171.382 565.363,-171.382"/>
<ellipse fill="none" stroke="black" cx="562.308" cy="-172.334" rx="3.20001" ry="3.20001"/>
</g>
<!-- container_manifest&#45;&gt;container_blob -->
<g id="edge4" class="edge"><title>container_manifest:config_blob_id:w&#45;&gt;container_blob:content_ptr_id:e</title>
<path fill="none" stroke="black" d="M347.961,-210.426C336.806,-201.803 333.963,-184 315,-184"/>
<polygon fill="black" stroke="black" points="354.394,-212.522 360.885,-218.423 358.197,-213.761 362,-215 362,-215 362,-215 358.197,-213.761 363.115,-211.577 354.394,-212.522 354.394,-212.522"/>
<ellipse fill="none" stroke="black" cx="351.351" cy="-211.53" rx="3.20001" ry="3.20001"/>
</g>
<!-- container_manifest&#45;&gt;core_content -->
<g id="edge5" class="edge"><title>container_manifest:content_ptr_id:w&#45;&gt;core_content:elipses:e</title>
<path fill="none" stroke="black" d="M351.274,-259.051C273.83,-259.77 243.841,-267.292 172,-228 148.944,-215.39 158.78,-184 132.5,-184"/>
<polygon fill="black" stroke="black" points="361.181,-255.004 361.219,-263.004 359.619,-263.011 359.581,-255.011 361.181,-255.004"/>
<polyline fill="none" stroke="black" points="362,-259 358,-259.019 "/>
<ellipse fill="none" stroke="black" cx="354.8" cy="-259.034" rx="3.2" ry="3.2"/>
</g>
<!-- container_manifestlistmanifest -->
<g id="node5" class="node"><title>container_manifestlistmanifest</title>
<g id="a_node5"><a xlink:href="../../tables/container_manifestlistmanifest.html" xlink:title="container_manifestlistmanifest" target="_top">
<polygon fill="#ffffff" stroke="none" points="593.5,-247 593.5,-305 822.5,-305 822.5,-247 593.5,-247"/>
<polygon fill="#f5f5f5" stroke="none" points="594,-283 594,-305 823,-305 823,-283 594,-283"/>
<polygon fill="none" stroke="black" points="594,-283 594,-305 823,-305 823,-283 594,-283"/>
<text text-anchor="start" x="599" y="-292.2" font-family="Helvetica,sans-Serif" font-weight="bold" font-size="11.00">container_manifestlistmanifest</text>
<text text-anchor="start" x="784" y="-291.2" font-family="Helvetica,sans-Serif" font-size="11.00">[table]</text>
<polygon fill="none" stroke="black" points="594,-265 594,-283 823,-283 823,-265 594,-265"/>
<text text-anchor="start" x="597" y="-271.2" font-family="Helvetica,sans-Serif" font-size="11.00">...</text>
<polygon fill="#ffffff" stroke="none" points="594,-247 594,-265 692,-265 692,-247 594,-247"/>
<polygon fill="none" stroke="black" points="594,-247 594,-265 692,-265 692,-247 594,-247"/>
<text text-anchor="start" x="597" y="-253.2" font-family="Helvetica,sans-Serif" font-size="11.00">&lt; 2</text>
<polygon fill="#ffffff" stroke="none" points="692,-247 692,-265 772,-265 772,-247 692,-247"/>
<polygon fill="none" stroke="black" points="692,-247 692,-265 772,-265 772,-247 692,-247"/>
<text text-anchor="start" x="733" y="-253.2" font-family="Helvetica,sans-Serif" font-size="11.00">0 rows</text>
<polygon fill="#ffffff" stroke="none" points="772,-247 772,-265 823,-265 823,-247 772,-247"/>
<polygon fill="none" stroke="black" points="772,-247 772,-265 823,-265 823,-247 772,-247"/>
<text text-anchor="start" x="813" y="-253.2" font-family="Helvetica,sans-Serif" font-size="11.00"> &#160;</text>
</a>
</g>
</g>
<!-- container_manifestlistmanifest&#45;&gt;container_manifest -->
<g id="edge6" class="edge"><title>container_manifestlistmanifest:elipses:w&#45;&gt;container_manifest:content_ptr_id:e</title>
<path fill="none" stroke="black" d="M578.792,-270.261C558.731,-263.464 549.989,-254.031 524,-259"/>
<polygon fill="black" stroke="black" points="585.263,-271.964 592.084,-277.481 589.132,-272.982 593,-274 593,-274 593,-274 589.132,-272.982 593.916,-270.519 585.263,-271.964 585.263,-271.964"/>
<ellipse fill="none" stroke="black" cx="582.169" cy="-271.15" rx="3.2" ry="3.2"/>
</g>
<!-- container_manifestlistmanifest&#45;&gt;container_manifest -->
<g id="edge7" class="edge"><title>container_manifestlistmanifest:elipses:w&#45;&gt;container_manifest:content_ptr_id:e</title>
<path fill="none" stroke="black" d="M578.508,-275.815C558.648,-275.974 549.866,-264.77 524,-259"/>
<polygon fill="black" stroke="black" points="585.062,-274.994 593.447,-277.572 589.031,-274.497 593,-274 593,-274 593,-274 589.031,-274.497 592.553,-270.428 585.062,-274.994 585.062,-274.994"/>
<ellipse fill="none" stroke="black" cx="581.887" cy="-275.392" rx="3.2" ry="3.2"/>
</g>
<!-- container_tag -->
<g id="node6" class="node"><title>container_tag</title>
<g id="a_node6"><a xlink:href="../../tables/container_tag.html" xlink:title="container_tag" target="_top">
<polygon fill="#ffffff" stroke="none" points="644.5,-37 644.5,-95 771.5,-95 771.5,-37 644.5,-37"/>
<polygon fill="#f5f5f5" stroke="none" points="645,-73 645,-95 772,-95 772,-73 645,-73"/>
<polygon fill="none" stroke="black" points="645,-73 645,-95 772,-95 772,-73 645,-73"/>
<text text-anchor="start" x="650" y="-82.2" font-family="Helvetica,sans-Serif" font-weight="bold" font-size="11.00">container_tag</text>
<text text-anchor="start" x="733" y="-81.2" font-family="Helvetica,sans-Serif" font-size="11.00">[table]</text>
<polygon fill="none" stroke="black" points="645,-55 645,-73 772,-73 772,-55 645,-55"/>
<text text-anchor="start" x="648" y="-61.2" font-family="Helvetica,sans-Serif" font-size="11.00">...</text>
<polygon fill="#ffffff" stroke="none" points="645,-37 645,-55 692,-55 692,-37 645,-37"/>
<polygon fill="none" stroke="black" points="645,-37 645,-55 692,-55 692,-37 645,-37"/>
<text text-anchor="start" x="648" y="-43.2" font-family="Helvetica,sans-Serif" font-size="11.00">&lt; 2</text>
<polygon fill="#ffffff" stroke="none" points="692,-37 692,-55 746,-55 746,-37 692,-37"/>
<polygon fill="none" stroke="black" points="692,-37 692,-55 746,-55 746,-37 692,-37"/>
<text text-anchor="start" x="707" y="-43.2" font-family="Helvetica,sans-Serif" font-size="11.00">0 rows</text>
<polygon fill="#ffffff" stroke="none" points="746,-37 746,-55 772,-55 772,-37 746,-37"/>
<polygon fill="none" stroke="black" points="746,-37 746,-55 772,-55 772,-37 746,-37"/>
<text text-anchor="start" x="762" y="-43.2" font-family="Helvetica,sans-Serif" font-size="11.00"> &#160;</text>
</a>
</g>
</g>
<!-- container_tag&#45;&gt;core_content -->
<g id="edge8" class="edge"><title>container_tag:elipses:w&#45;&gt;core_content:elipses:e</title>
<path fill="none" stroke="black" d="M633.311,-63.9336C430.424,-61.4132 343.181,11.3331 172,-105 139.533,-127.065 171.755,-184 132.5,-184"/>
<polygon fill="black" stroke="black" points="643.225,-59.9951 643.175,-67.9949 641.575,-67.985 641.625,-59.9851 643.225,-59.9951"/>
<polyline fill="none" stroke="black" points="644,-64 640,-63.9751 "/>
<ellipse fill="none" stroke="black" cx="636.8" cy="-63.9552" rx="3.2" ry="3.2"/>
</g>
<!-- container_tag&#45;&gt;container_manifest -->
<g id="edge9" class="edge"><title>container_tag:elipses:w&#45;&gt;container_manifest:content_ptr_id:e</title>
<path fill="none" stroke="black" d="M629.256,-64.5831C599.717,-67.1737 585.667,-78.7371 564,-106 520.269,-161.024 594.285,-259 524,-259"/>
<polygon fill="black" stroke="black" points="636.006,-64.3162 644.142,-67.5972 640.003,-64.1581 644,-64 644,-64 644,-64 640.003,-64.1581 643.858,-60.4028 636.006,-64.3162 636.006,-64.3162"/>
<ellipse fill="none" stroke="black" cx="632.809" cy="-64.4426" rx="3.2" ry="3.2"/>
</g>
</g>
</svg>
