<?xml version="1.0" encoding="UTF-8" standalone="no"?>
<!DOCTYPE svg PUBLIC "-//W3C//DTD SVG 1.1//EN"
 "http://www.w3.org/Graphics/SVG/1.1/DTD/svg11.dtd">
<!-- Generated by graphviz version 2.38.0 (20140413.2041)
 -->
<!-- Title: twoDegreesRelationshipsDiagram Pages: 1 -->
<svg width="974pt" height="723pt"
 viewBox="0.00 0.00 974.00 723.00" xmlns="http://www.w3.org/2000/svg" xmlns:xlink="http://www.w3.org/1999/xlink">
<g id="graph0" class="graph" transform="scale(1 1) rotate(0) translate(4 719)">
<title>twoDegreesRelationshipsDiagram</title>
<polygon fill="#ffffff" stroke="none" points="-4,4 -4,-719 970,-719 970,4 -4,4"/>
<text text-anchor="middle" x="74.5" y="-7.2" font-family="Helvetica,sans-Serif" font-size="11.00">Generated by SchemaSpy</text>
<!-- ansible_ansibledistribution -->
<g id="node1" class="node"><title>ansible_ansibledistribution</title>
<g id="a_node1"><a xlink:href="../../tables/ansible_ansibledistribution.html" xlink:title="ansible_ansibledistribution" target="_top">
<polygon fill="#ffffff" stroke="none" points="739,-653 739,-711 944,-711 944,-653 739,-653"/>
<polygon fill="#f5f5f5" stroke="none" points="739.5,-689 739.5,-711 944.5,-711 944.5,-689 739.5,-689"/>
<polygon fill="none" stroke="black" points="739.5,-689 739.5,-711 944.5,-711 944.5,-689 739.5,-689"/>
<text text-anchor="start" x="744.5" y="-698.2" font-family="Helvetica,sans-Serif" font-weight="bold" font-size="11.00">ansible_ansibledistribution</text>
<text text-anchor="start" x="905.5" y="-697.2" font-family="Helvetica,sans-Serif" font-size="11.00">[table]</text>
<polygon fill="none" stroke="black" points="739.5,-671 739.5,-689 944.5,-689 944.5,-671 739.5,-671"/>
<text text-anchor="start" x="742.5" y="-677.2" font-family="Helvetica,sans-Serif" font-size="11.00">...</text>
<polygon fill="#ffffff" stroke="none" points="739.5,-653 739.5,-671 822.5,-671 822.5,-653 739.5,-653"/>
<polygon fill="none" stroke="black" points="739.5,-653 739.5,-671 822.5,-671 822.5,-653 739.5,-653"/>
<text text-anchor="start" x="742.5" y="-659.2" font-family="Helvetica,sans-Serif" font-size="11.00">&lt; 3</text>
<polygon fill="#ffffff" stroke="none" points="822.5,-653 822.5,-671 901.5,-671 901.5,-653 822.5,-653"/>
<polygon fill="none" stroke="black" points="822.5,-653 822.5,-671 901.5,-671 901.5,-653 822.5,-653"/>
<text text-anchor="start" x="855.5" y="-659.2" font-family="Helvetica,sans-Serif" font-size="11.00">32 rows</text>
<polygon fill="#ffffff" stroke="none" points="901.5,-653 901.5,-671 944.5,-671 944.5,-653 901.5,-653"/>
<polygon fill="none" stroke="black" points="901.5,-653 901.5,-671 944.5,-671 944.5,-653 901.5,-653"/>
<text text-anchor="start" x="934.5" y="-659.2" font-family="Helvetica,sans-Serif" font-size="11.00"> &#160;</text>
</a>
</g>
</g>
<!-- core_repository -->
<g id="node2" class="node"><title>core_repository</title>
<g id="a_node2"><a xlink:href="../../tables/core_repository.html" xlink:title="core_repository" target="_top">
<polygon fill="#ffffff" stroke="none" points="177,-336 177,-460 314,-460 314,-336 177,-336"/>
<polygon fill="#f5f5f5" stroke="none" points="177.5,-438 177.5,-460 314.5,-460 314.5,-438 177.5,-438"/>
<polygon fill="none" stroke="black" points="177.5,-438 177.5,-460 314.5,-460 314.5,-438 177.5,-438"/>
<text text-anchor="start" x="182.5" y="-447.2" font-family="Helvetica,sans-Serif" font-weight="bold" font-size="11.00">core_repository</text>
<text text-anchor="start" x="275.5" y="-446.2" font-family="Helvetica,sans-Serif" font-size="11.00">[table]</text>
<polygon fill="none" stroke="black" points="177.5,-416 177.5,-438 314.5,-438 314.5,-416 177.5,-416"/>
<image xlink:href="../../images/primaryKeys.png" width="11px" height="12px" preserveAspectRatio="xMinYMin meet" x="182.5" y="-433"/>
<text text-anchor="start" x="201.5" y="-424.2" font-family="Helvetica,sans-Serif" font-size="11.00">pulp_id</text>
<polygon fill="#ffffff" stroke="none" points="177.5,-394 177.5,-416 314.5,-416 314.5,-394 177.5,-394"/>
<polygon fill="none" stroke="black" points="177.5,-394 177.5,-416 314.5,-416 314.5,-394 177.5,-394"/>
<text text-anchor="start" x="201.5" y="-402.2" font-family="Helvetica,sans-Serif" font-size="11.00">name</text>
<polygon fill="#ffffff" stroke="none" points="177.5,-372 177.5,-394 314.5,-394 314.5,-372 177.5,-372"/>
<polygon fill="none" stroke="black" points="177.5,-372 177.5,-394 314.5,-394 314.5,-372 177.5,-372"/>
<image xlink:href="../../images/foreignKeys.png" width="11px" height="12px" preserveAspectRatio="xMinYMin meet" x="182.5" y="-389"/>
<text text-anchor="start" x="201.5" y="-380.2" font-family="Helvetica,sans-Serif" font-size="11.00">remote_id</text>
<polygon fill="none" stroke="black" points="177.5,-354 177.5,-372 314.5,-372 314.5,-354 177.5,-354"/>
<text text-anchor="start" x="180.5" y="-360.2" font-family="Helvetica,sans-Serif" font-size="11.00">...</text>
<polygon fill="#ffffff" stroke="none" points="177.5,-336 177.5,-354 217.5,-354 217.5,-336 177.5,-336"/>
<polygon fill="none" stroke="black" points="177.5,-336 177.5,-354 217.5,-354 217.5,-336 177.5,-336"/>
<text text-anchor="start" x="180.5" y="-342.2" font-family="Helvetica,sans-Serif" font-size="11.00">&lt; 1</text>
<polygon fill="#ffffff" stroke="none" points="217.5,-336 217.5,-354 275.5,-354 275.5,-336 217.5,-336"/>
<polygon fill="none" stroke="black" points="217.5,-336 217.5,-354 275.5,-354 275.5,-336 217.5,-336"/>
<text text-anchor="start" x="229.5" y="-342.2" font-family="Helvetica,sans-Serif" font-size="11.00">26 rows</text>
<polygon fill="#ffffff" stroke="none" points="275.5,-336 275.5,-354 314.5,-354 314.5,-336 275.5,-336"/>
<polygon fill="none" stroke="black" points="275.5,-336 275.5,-354 314.5,-354 314.5,-336 275.5,-336"/>
<text text-anchor="start" x="287.5" y="-342.2" font-family="Helvetica,sans-Serif" font-size="11.00">10 &gt;</text>
</a>
</g>
</g>
<!-- ansible_ansibledistribution&#45;&gt;core_repository -->
<g id="edge1" class="edge"><title>ansible_ansibledistribution:elipses:w&#45;&gt;core_repository:pulp_id:e</title>
<path fill="none" stroke="black" d="M723.638,-680.181C561.847,-684.105 476.953,-749.41 355,-636 285.774,-571.623 410.033,-427 315.5,-427"/>
<polygon fill="black" stroke="black" points="730.501,-680.097 738.544,-683.6 734.5,-680.049 738.5,-680 738.5,-680 738.5,-680 734.5,-680.049 738.456,-676.4 730.501,-680.097 730.501,-680.097"/>
<ellipse fill="none" stroke="black" cx="727.301" cy="-680.136" rx="3.2" ry="3.2"/>
</g>
<!-- core_repositoryversion -->
<g id="node3" class="node"><title>core_repositoryversion</title>
<g id="a_node3"><a xlink:href="../../tables/core_repositoryversion.html" xlink:title="core_repositoryversion" target="_top">
<polygon fill="#ffffff" stroke="none" points="430,-546 430,-604 609,-604 609,-546 430,-546"/>
<polygon fill="#f5f5f5" stroke="none" points="430.5,-582 430.5,-604 609.5,-604 609.5,-582 430.5,-582"/>
<polygon fill="none" stroke="black" points="430.5,-582 430.5,-604 609.5,-604 609.5,-582 430.5,-582"/>
<text text-anchor="start" x="435.5" y="-591.2" font-family="Helvetica,sans-Serif" font-weight="bold" font-size="11.00">core_repositoryversion</text>
<text text-anchor="start" x="570.5" y="-590.2" font-family="Helvetica,sans-Serif" font-size="11.00">[table]</text>
<polygon fill="none" stroke="black" points="430.5,-564 430.5,-582 609.5,-582 609.5,-564 430.5,-564"/>
<text text-anchor="start" x="433.5" y="-570.2" font-family="Helvetica,sans-Serif" font-size="11.00">...</text>
<polygon fill="#ffffff" stroke="none" points="430.5,-546 430.5,-564 492.5,-564 492.5,-546 430.5,-546"/>
<polygon fill="none" stroke="black" points="430.5,-546 430.5,-564 492.5,-564 492.5,-546 430.5,-546"/>
<text text-anchor="start" x="433.5" y="-552.2" font-family="Helvetica,sans-Serif" font-size="11.00">&lt; 2</text>
<polygon fill="#ffffff" stroke="none" points="492.5,-546 492.5,-564 566.5,-564 566.5,-546 492.5,-546"/>
<polygon fill="none" stroke="black" points="492.5,-546 492.5,-564 566.5,-564 566.5,-546 492.5,-546"/>
<text text-anchor="start" x="514.5" y="-552.2" font-family="Helvetica,sans-Serif" font-size="11.00">162 rows</text>
<polygon fill="#ffffff" stroke="none" points="566.5,-546 566.5,-564 609.5,-564 609.5,-546 566.5,-546"/>
<polygon fill="none" stroke="black" points="566.5,-546 566.5,-564 609.5,-564 609.5,-546 566.5,-546"/>
<text text-anchor="start" x="589.5" y="-552.2" font-family="Helvetica,sans-Serif" font-size="11.00">7 &gt;</text>
</a>
</g>
</g>
<!-- ansible_ansibledistribution&#45;&gt;core_repositoryversion -->
<g id="edge2" class="edge"><title>ansible_ansibledistribution:elipses:w&#45;&gt;core_repositoryversion:elipses:e</title>
<path fill="none" stroke="black" d="M723.833,-678.404C666.792,-665.094 679.289,-573 610.5,-573"/>
<polygon fill="black" stroke="black" points="730.547,-679.135 738.111,-683.579 734.523,-679.567 738.5,-680 738.5,-680 738.5,-680 734.523,-679.567 738.889,-676.421 730.547,-679.135 730.547,-679.135"/>
<ellipse fill="none" stroke="black" cx="727.366" cy="-678.789" rx="3.2" ry="3.2"/>
</g>
<!-- core_remote -->
<g id="node11" class="node"><title>core_remote</title>
<g id="a_node11"><a xlink:href="../../tables/core_remote.html" xlink:title="core_remote" target="_top">
<polygon fill="#ffffff" stroke="none" points="8,-356 8,-414 128,-414 128,-356 8,-356"/>
<polygon fill="#f5f5f5" stroke="none" points="8,-392 8,-414 128,-414 128,-392 8,-392"/>
<polygon fill="none" stroke="black" points="8,-392 8,-414 128,-414 128,-392 8,-392"/>
<text text-anchor="start" x="13" y="-401.2" font-family="Helvetica,sans-Serif" font-weight="bold" font-size="11.00">core_remote</text>
<text text-anchor="start" x="89" y="-400.2" font-family="Helvetica,sans-Serif" font-size="11.00">[table]</text>
<polygon fill="none" stroke="black" points="8,-374 8,-392 128,-392 128,-374 8,-374"/>
<text text-anchor="start" x="11" y="-380.2" font-family="Helvetica,sans-Serif" font-size="11.00">...</text>
<polygon fill="#ffffff" stroke="none" points="8,-356 8,-374 42,-374 42,-356 8,-356"/>
<polygon fill="none" stroke="black" points="8,-356 8,-374 42,-374 42,-356 8,-356"/>
<text text-anchor="start" x="11" y="-362.2" font-family="Helvetica,sans-Serif" font-size="11.00"> &#160;</text>
<polygon fill="#ffffff" stroke="none" points="42,-356 42,-374 94,-374 94,-356 42,-356"/>
<polygon fill="none" stroke="black" points="42,-356 42,-374 94,-374 94,-356 42,-356"/>
<text text-anchor="start" x="55" y="-362.2" font-family="Helvetica,sans-Serif" font-size="11.00">7 rows</text>
<polygon fill="#ffffff" stroke="none" points="94,-356 94,-374 128,-374 128,-356 94,-356"/>
<polygon fill="none" stroke="black" points="94,-356 94,-374 128,-374 128,-356 94,-356"/>
<text text-anchor="start" x="108" y="-362.2" font-family="Helvetica,sans-Serif" font-size="11.00">6 &gt;</text>
</a>
</g>
</g>
<!-- core_repository&#45;&gt;core_remote -->
<g id="edge11" class="edge"><title>core_repository:remote_id:w&#45;&gt;core_remote:elipses:e</title>
<path fill="none" stroke="black" d="M162.086,-383C151.319,-383 144.339,-383 129,-383"/>
<polygon fill="black" stroke="black" points="168.5,-383 176.5,-386.6 172.5,-383 176.5,-383 176.5,-383 176.5,-383 172.5,-383 176.5,-379.4 168.5,-383 168.5,-383"/>
<ellipse fill="none" stroke="black" cx="165.3" cy="-383" rx="3.2" ry="3.2"/>
</g>
<!-- core_repositoryversion&#45;&gt;core_repository -->
<g id="edge15" class="edge"><title>core_repositoryversion:elipses:w&#45;&gt;core_repository:pulp_id:e</title>
<path fill="none" stroke="black" d="M414.981,-572.252C388.089,-569.185 376.263,-556.551 355,-532 322.358,-494.311 365.36,-427 315.5,-427"/>
<polygon fill="black" stroke="black" points="421.511,-572.588 429.315,-576.595 425.505,-572.794 429.5,-573 429.5,-573 429.5,-573 425.505,-572.794 429.685,-569.405 421.511,-572.588 421.511,-572.588"/>
<ellipse fill="none" stroke="black" cx="418.315" cy="-572.424" rx="3.2" ry="3.2"/>
</g>
<!-- ansible_ansiblerepository -->
<g id="node4" class="node"><title>ansible_ansiblerepository</title>
<g id="a_node4"><a xlink:href="../../tables/ansible_ansiblerepository.html" xlink:title="ansible_ansiblerepository" target="_top">
<polygon fill="#ffffff" stroke="none" points="422,-440 422,-498 617,-498 617,-440 422,-440"/>
<polygon fill="#f5f5f5" stroke="none" points="422.5,-476 422.5,-498 617.5,-498 617.5,-476 422.5,-476"/>
<polygon fill="none" stroke="black" points="422.5,-476 422.5,-498 617.5,-498 617.5,-476 422.5,-476"/>
<text text-anchor="start" x="427.5" y="-485.2" font-family="Helvetica,sans-Serif" font-weight="bold" font-size="11.00">ansible_ansiblerepository</text>
<text text-anchor="start" x="578.5" y="-484.2" font-family="Helvetica,sans-Serif" font-size="11.00">[table]</text>
<polygon fill="none" stroke="black" points="422.5,-458 422.5,-476 617.5,-476 617.5,-458 422.5,-458"/>
<text text-anchor="start" x="425.5" y="-464.2" font-family="Helvetica,sans-Serif" font-size="11.00">...</text>
<polygon fill="#ffffff" stroke="none" points="422.5,-440 422.5,-458 495.5,-458 495.5,-440 422.5,-440"/>
<polygon fill="none" stroke="black" points="422.5,-440 422.5,-458 495.5,-458 495.5,-440 422.5,-440"/>
<text text-anchor="start" x="425.5" y="-446.2" font-family="Helvetica,sans-Serif" font-size="11.00">&lt; 1</text>
<polygon fill="#ffffff" stroke="none" points="495.5,-440 495.5,-458 569.5,-458 569.5,-440 495.5,-440"/>
<polygon fill="none" stroke="black" points="495.5,-440 495.5,-458 569.5,-458 569.5,-440 495.5,-440"/>
<text text-anchor="start" x="523.5" y="-446.2" font-family="Helvetica,sans-Serif" font-size="11.00">26 rows</text>
<polygon fill="#ffffff" stroke="none" points="569.5,-440 569.5,-458 617.5,-458 617.5,-440 569.5,-440"/>
<polygon fill="none" stroke="black" points="569.5,-440 569.5,-458 617.5,-458 617.5,-440 569.5,-440"/>
<text text-anchor="start" x="597.5" y="-446.2" font-family="Helvetica,sans-Serif" font-size="11.00">2 &gt;</text>
</a>
</g>
</g>
<!-- ansible_ansiblerepository&#45;&gt;core_repository -->
<g id="edge3" class="edge"><title>ansible_ansiblerepository:elipses:w&#45;&gt;core_repository:pulp_id:e</title>
<path fill="none" stroke="black" d="M410.996,-466.372C370.112,-461.283 362.117,-427 315.5,-427"/>
<polygon fill="black" stroke="black" points="420.94,-462.959 420.463,-470.945 418.865,-470.85 419.343,-462.864 420.94,-462.959"/>
<polyline fill="none" stroke="black" points="421.5,-467 417.507,-466.761 "/>
<ellipse fill="none" stroke="black" cx="414.313" cy="-466.57" rx="3.2" ry="3.2"/>
</g>
<!-- container_containerdistribution -->
<g id="node5" class="node"><title>container_containerdistribution</title>
<g id="a_node5"><a xlink:href="../../tables/container_containerdistribution.html" xlink:title="container_containerdistribution" target="_top">
<polygon fill="#ffffff" stroke="none" points="725,-574 725,-632 958,-632 958,-574 725,-574"/>
<polygon fill="#f5f5f5" stroke="none" points="725.5,-610 725.5,-632 958.5,-632 958.5,-610 725.5,-610"/>
<polygon fill="none" stroke="black" points="725.5,-610 725.5,-632 958.5,-632 958.5,-610 725.5,-610"/>
<text text-anchor="start" x="730.5" y="-619.2" font-family="Helvetica,sans-Serif" font-weight="bold" font-size="11.00">container_containerdistribution</text>
<text text-anchor="start" x="919.5" y="-618.2" font-family="Helvetica,sans-Serif" font-size="11.00">[table]</text>
<polygon fill="none" stroke="black" points="725.5,-592 725.5,-610 958.5,-610 958.5,-592 725.5,-592"/>
<text text-anchor="start" x="728.5" y="-598.2" font-family="Helvetica,sans-Serif" font-size="11.00">...</text>
<polygon fill="#ffffff" stroke="none" points="725.5,-574 725.5,-592 825.5,-592 825.5,-574 725.5,-574"/>
<polygon fill="none" stroke="black" points="725.5,-574 725.5,-592 825.5,-592 825.5,-574 725.5,-574"/>
<text text-anchor="start" x="728.5" y="-580.2" font-family="Helvetica,sans-Serif" font-size="11.00">&lt; 3</text>
<polygon fill="#ffffff" stroke="none" points="825.5,-574 825.5,-592 906.5,-592 906.5,-574 825.5,-574"/>
<polygon fill="none" stroke="black" points="825.5,-574 825.5,-592 906.5,-592 906.5,-574 825.5,-574"/>
<text text-anchor="start" x="867.5" y="-580.2" font-family="Helvetica,sans-Serif" font-size="11.00">0 rows</text>
<polygon fill="#ffffff" stroke="none" points="906.5,-574 906.5,-592 958.5,-592 958.5,-574 906.5,-574"/>
<polygon fill="none" stroke="black" points="906.5,-574 906.5,-592 958.5,-592 958.5,-574 906.5,-574"/>
<text text-anchor="start" x="948.5" y="-580.2" font-family="Helvetica,sans-Serif" font-size="11.00"> &#160;</text>
</a>
</g>
</g>
<!-- container_containerdistribution&#45;&gt;core_repository -->
<g id="edge4" class="edge"><title>container_containerdistribution:elipses:w&#45;&gt;core_repository:pulp_id:e</title>
<path fill="none" stroke="black" d="M710.171,-603.729C702.09,-607.159 696.766,-612.856 684,-615 611.899,-627.11 411.764,-661.077 355,-615 288.71,-561.191 400.88,-427 315.5,-427"/>
<polygon fill="black" stroke="black" points="716.641,-602.497 725.174,-604.536 720.571,-601.748 724.5,-601 724.5,-601 724.5,-601 720.571,-601.748 723.826,-597.464 716.641,-602.497 716.641,-602.497"/>
<ellipse fill="none" stroke="black" cx="713.498" cy="-603.095" rx="3.2" ry="3.2"/>
</g>
<!-- container_containerdistribution&#45;&gt;core_repositoryversion -->
<g id="edge5" class="edge"><title>container_containerdistribution:elipses:w&#45;&gt;core_repositoryversion:elipses:e</title>
<path fill="none" stroke="black" d="M710.091,-600.222C669.982,-595.7 657.476,-573 610.5,-573"/>
<polygon fill="black" stroke="black" points="716.512,-600.569 724.306,-604.595 720.506,-600.784 724.5,-601 724.5,-601 724.5,-601 720.506,-600.784 724.694,-597.405 716.512,-600.569 716.512,-600.569"/>
<ellipse fill="none" stroke="black" cx="713.316" cy="-600.396" rx="3.2" ry="3.2"/>
</g>
<!-- container_containerpushrepository -->
<g id="node6" class="node"><title>container_containerpushrepository</title>
<g id="a_node6"><a xlink:href="../../tables/container_containerpushrepository.html" xlink:title="container_containerpushrepository" target="_top">
<polygon fill="#ffffff" stroke="none" points="394,-361 394,-419 645,-419 645,-361 394,-361"/>
<polygon fill="#f5f5f5" stroke="none" points="394.5,-397 394.5,-419 645.5,-419 645.5,-397 394.5,-397"/>
<polygon fill="none" stroke="black" points="394.5,-397 394.5,-419 645.5,-419 645.5,-397 394.5,-397"/>
<text text-anchor="start" x="399.5" y="-406.2" font-family="Helvetica,sans-Serif" font-weight="bold" font-size="11.00">container_containerpushrepository</text>
<text text-anchor="start" x="606.5" y="-405.2" font-family="Helvetica,sans-Serif" font-size="11.00">[table]</text>
<polygon fill="none" stroke="black" points="394.5,-379 394.5,-397 645.5,-397 645.5,-379 394.5,-379"/>
<text text-anchor="start" x="397.5" y="-385.2" font-family="Helvetica,sans-Serif" font-size="11.00">...</text>
<polygon fill="#ffffff" stroke="none" points="394.5,-361 394.5,-379 503.5,-379 503.5,-361 394.5,-361"/>
<polygon fill="none" stroke="black" points="394.5,-361 394.5,-379 503.5,-379 503.5,-361 394.5,-361"/>
<text text-anchor="start" x="397.5" y="-367.2" font-family="Helvetica,sans-Serif" font-size="11.00">&lt; 1</text>
<polygon fill="#ffffff" stroke="none" points="503.5,-361 503.5,-379 588.5,-379 588.5,-361 503.5,-361"/>
<polygon fill="none" stroke="black" points="503.5,-361 503.5,-379 588.5,-379 588.5,-361 503.5,-361"/>
<text text-anchor="start" x="549.5" y="-367.2" font-family="Helvetica,sans-Serif" font-size="11.00">0 rows</text>
<polygon fill="#ffffff" stroke="none" points="588.5,-361 588.5,-379 645.5,-379 645.5,-361 588.5,-361"/>
<polygon fill="none" stroke="black" points="588.5,-361 588.5,-379 645.5,-379 645.5,-361 588.5,-361"/>
<text text-anchor="start" x="635.5" y="-367.2" font-family="Helvetica,sans-Serif" font-size="11.00"> &#160;</text>
</a>
</g>
</g>
<!-- container_containerpushrepository&#45;&gt;core_repository -->
<g id="edge6" class="edge"><title>container_containerpushrepository:elipses:w&#45;&gt;core_repository:pulp_id:e</title>
<path fill="none" stroke="black" d="M382.795,-389.125C354.249,-395.52 350.322,-427 315.5,-427"/>
<polygon fill="black" stroke="black" points="392.286,-384.106 393.123,-392.062 391.531,-392.229 390.695,-384.273 392.286,-384.106"/>
<polyline fill="none" stroke="black" points="393.5,-388 389.522,-388.418 "/>
<ellipse fill="none" stroke="black" cx="386.339" cy="-388.753" rx="3.2" ry="3.2"/>
</g>
<!-- container_containerrepository -->
<g id="node7" class="node"><title>container_containerrepository</title>
<g id="a_node7"><a xlink:href="../../tables/container_containerrepository.html" xlink:title="container_containerrepository" target="_top">
<polygon fill="#ffffff" stroke="none" points="363,-274 363,-340 676,-340 676,-274 363,-274"/>
<polygon fill="#f5f5f5" stroke="none" points="365.5,-316 365.5,-338 674.5,-338 674.5,-316 365.5,-316"/>
<polygon fill="none" stroke="black" points="365.5,-316 365.5,-338 674.5,-338 674.5,-316 365.5,-316"/>
<text text-anchor="start" x="370.5" y="-325.2" font-family="Helvetica,sans-Serif" font-weight="bold" font-size="11.00">container_containerrepository</text>
<text text-anchor="start" x="635.5" y="-324.2" font-family="Helvetica,sans-Serif" font-size="11.00">[table]</text>
<polygon fill="none" stroke="black" points="365.5,-294 365.5,-316 569.5,-316 569.5,-294 365.5,-294"/>
<image xlink:href="../../images/primaryKeys.png" width="11px" height="12px" preserveAspectRatio="xMinYMin meet" x="370.5" y="-311"/>
<text text-anchor="start" x="385.5" y="-302.2" font-family="Helvetica,sans-Serif" font-size="11.00">repository_ptr_id</text>
<polygon fill="none" stroke="black" points="569.5,-294 569.5,-316 674.5,-316 674.5,-294 569.5,-294"/>
<text text-anchor="start" x="572.5" y="-302.2" font-family="Helvetica,sans-Serif" font-size="11.00">uuid[2147483647]</text>
<polygon fill="#ffffff" stroke="none" points="365.5,-276 365.5,-294 457.5,-294 457.5,-276 365.5,-276"/>
<polygon fill="none" stroke="black" points="365.5,-276 365.5,-294 457.5,-294 457.5,-276 365.5,-276"/>
<text text-anchor="start" x="368.5" y="-282.2" font-family="Helvetica,sans-Serif" font-size="11.00">&lt; 1</text>
<polygon fill="#ffffff" stroke="none" points="457.5,-276 457.5,-294 569.5,-294 569.5,-276 457.5,-276"/>
<polygon fill="none" stroke="black" points="457.5,-276 457.5,-294 569.5,-294 569.5,-276 457.5,-276"/>
<text text-anchor="start" x="530.5" y="-282.2" font-family="Helvetica,sans-Serif" font-size="11.00">0 rows</text>
<polygon fill="#ffffff" stroke="none" points="569.5,-276 569.5,-294 674.5,-294 674.5,-276 569.5,-276"/>
<polygon fill="none" stroke="black" points="569.5,-276 569.5,-294 674.5,-294 674.5,-276 569.5,-276"/>
<text text-anchor="start" x="654.5" y="-282.2" font-family="Helvetica,sans-Serif" font-size="11.00">0 &gt;</text>
<polygon fill="none" stroke="black" stroke-width="2" points="364,-275 364,-339 675,-339 675,-275 364,-275"/>
</a>
</g>
</g>
<!-- container_containerrepository&#45;&gt;core_repository -->
<g id="edge7" class="edge"><title>container_containerrepository:repository_ptr_id:w&#45;&gt;core_repository:pulp_id:e</title>
<path fill="none" stroke="black" d="M353.96,-306.725C314.987,-321.553 369.824,-427 315.5,-427"/>
<polygon fill="black" stroke="black" points="363.065,-301.182 364.356,-309.077 362.777,-309.335 361.486,-301.44 363.065,-301.182"/>
<polyline fill="none" stroke="black" points="364.5,-305 360.552,-305.646 "/>
<ellipse fill="none" stroke="black" cx="357.394" cy="-306.163" rx="3.2" ry="3.2"/>
</g>
<!-- container_upload -->
<g id="node8" class="node"><title>container_upload</title>
<g id="a_node8"><a xlink:href="../../tables/container_upload.html" xlink:title="container_upload" target="_top">
<polygon fill="#ffffff" stroke="none" points="445.5,-195 445.5,-253 593.5,-253 593.5,-195 445.5,-195"/>
<polygon fill="#f5f5f5" stroke="none" points="445.5,-231 445.5,-253 593.5,-253 593.5,-231 445.5,-231"/>
<polygon fill="none" stroke="black" points="445.5,-231 445.5,-253 593.5,-253 593.5,-231 445.5,-231"/>
<text text-anchor="start" x="450.5" y="-240.2" font-family="Helvetica,sans-Serif" font-weight="bold" font-size="11.00">container_upload</text>
<text text-anchor="start" x="554.5" y="-239.2" font-family="Helvetica,sans-Serif" font-size="11.00">[table]</text>
<polygon fill="none" stroke="black" points="445.5,-213 445.5,-231 593.5,-231 593.5,-213 445.5,-213"/>
<text text-anchor="start" x="448.5" y="-219.2" font-family="Helvetica,sans-Serif" font-size="11.00">...</text>
<polygon fill="#ffffff" stroke="none" points="445.5,-195 445.5,-213 503.5,-213 503.5,-195 445.5,-195"/>
<polygon fill="none" stroke="black" points="445.5,-195 445.5,-213 503.5,-213 503.5,-195 445.5,-195"/>
<text text-anchor="start" x="448.5" y="-201.2" font-family="Helvetica,sans-Serif" font-size="11.00">&lt; 1</text>
<polygon fill="#ffffff" stroke="none" points="503.5,-195 503.5,-213 562.5,-213 562.5,-195 503.5,-195"/>
<polygon fill="none" stroke="black" points="503.5,-195 503.5,-213 562.5,-213 562.5,-195 503.5,-195"/>
<text text-anchor="start" x="523.5" y="-201.2" font-family="Helvetica,sans-Serif" font-size="11.00">0 rows</text>
<polygon fill="#ffffff" stroke="none" points="562.5,-195 562.5,-213 593.5,-213 593.5,-195 562.5,-195"/>
<polygon fill="none" stroke="black" points="562.5,-195 562.5,-213 593.5,-213 593.5,-195 562.5,-195"/>
<text text-anchor="start" x="583.5" y="-201.2" font-family="Helvetica,sans-Serif" font-size="11.00"> &#160;</text>
</a>
</g>
</g>
<!-- container_upload&#45;&gt;core_repository -->
<g id="edge8" class="edge"><title>container_upload:elipses:w&#45;&gt;core_repository:pulp_id:e</title>
<path fill="none" stroke="black" d="M429.678,-222.352C396.258,-224.138 379.442,-233.312 355,-263 307.347,-320.881 390.473,-427 315.5,-427"/>
<polygon fill="black" stroke="black" points="436.502,-222.19 444.586,-225.599 440.501,-222.095 444.5,-222 444.5,-222 444.5,-222 440.501,-222.095 444.414,-218.401 436.502,-222.19 436.502,-222.19"/>
<ellipse fill="none" stroke="black" cx="433.303" cy="-222.266" rx="3.2" ry="3.2"/>
</g>
<!-- core_pulpexporter_repositories -->
<g id="node9" class="node"><title>core_pulpexporter_repositories</title>
<g id="a_node9"><a xlink:href="../../tables/core_pulpexporter_repositories.html" xlink:title="core_pulpexporter_repositories" target="_top">
<polygon fill="#ffffff" stroke="none" points="406,-116 406,-174 633,-174 633,-116 406,-116"/>
<polygon fill="#f5f5f5" stroke="none" points="406.5,-152 406.5,-174 633.5,-174 633.5,-152 406.5,-152"/>
<polygon fill="none" stroke="black" points="406.5,-152 406.5,-174 633.5,-174 633.5,-152 406.5,-152"/>
<text text-anchor="start" x="411.5" y="-161.2" font-family="Helvetica,sans-Serif" font-weight="bold" font-size="11.00">core_pulpexporter_repositories</text>
<text text-anchor="start" x="594.5" y="-160.2" font-family="Helvetica,sans-Serif" font-size="11.00">[table]</text>
<polygon fill="none" stroke="black" points="406.5,-134 406.5,-152 633.5,-152 633.5,-134 406.5,-134"/>
<text text-anchor="start" x="409.5" y="-140.2" font-family="Helvetica,sans-Serif" font-size="11.00">...</text>
<polygon fill="#ffffff" stroke="none" points="406.5,-116 406.5,-134 503.5,-134 503.5,-116 406.5,-116"/>
<polygon fill="none" stroke="black" points="406.5,-116 406.5,-134 503.5,-134 503.5,-116 406.5,-116"/>
<text text-anchor="start" x="409.5" y="-122.2" font-family="Helvetica,sans-Serif" font-size="11.00">&lt; 2</text>
<polygon fill="#ffffff" stroke="none" points="503.5,-116 503.5,-134 582.5,-134 582.5,-116 503.5,-116"/>
<polygon fill="none" stroke="black" points="503.5,-116 503.5,-134 582.5,-134 582.5,-116 503.5,-116"/>
<text text-anchor="start" x="543.5" y="-122.2" font-family="Helvetica,sans-Serif" font-size="11.00">0 rows</text>
<polygon fill="#ffffff" stroke="none" points="582.5,-116 582.5,-134 633.5,-134 633.5,-116 582.5,-116"/>
<polygon fill="none" stroke="black" points="582.5,-116 582.5,-134 633.5,-134 633.5,-116 582.5,-116"/>
<text text-anchor="start" x="623.5" y="-122.2" font-family="Helvetica,sans-Serif" font-size="11.00"> &#160;</text>
</a>
</g>
</g>
<!-- core_pulpexporter_repositories&#45;&gt;core_repository -->
<g id="edge9" class="edge"><title>core_pulpexporter_repositories:elipses:w&#45;&gt;core_repository:pulp_id:e</title>
<path fill="none" stroke="black" d="M391.092,-144.708C373.601,-149.45 366.717,-163.772 355,-184 327.579,-231.341 370.209,-427 315.5,-427"/>
<polygon fill="black" stroke="black" points="397.556,-143.942 405.924,-146.575 401.528,-143.471 405.5,-143 405.5,-143 405.5,-143 401.528,-143.471 405.076,-139.425 397.556,-143.942 397.556,-143.942"/>
<ellipse fill="none" stroke="black" cx="394.378" cy="-144.318" rx="3.2" ry="3.2"/>
</g>
<!-- core_pulpimporterrepository -->
<g id="node10" class="node"><title>core_pulpimporterrepository</title>
<g id="a_node10"><a xlink:href="../../tables/core_pulpimporterrepository.html" xlink:title="core_pulpimporterrepository" target="_top">
<polygon fill="#ffffff" stroke="none" points="412,-37 412,-95 627,-95 627,-37 412,-37"/>
<polygon fill="#f5f5f5" stroke="none" points="412.5,-73 412.5,-95 627.5,-95 627.5,-73 412.5,-73"/>
<polygon fill="none" stroke="black" points="412.5,-73 412.5,-95 627.5,-95 627.5,-73 412.5,-73"/>
<text text-anchor="start" x="417.5" y="-82.2" font-family="Helvetica,sans-Serif" font-weight="bold" font-size="11.00">core_pulpimporterrepository</text>
<text text-anchor="start" x="588.5" y="-81.2" font-family="Helvetica,sans-Serif" font-size="11.00">[table]</text>
<polygon fill="none" stroke="black" points="412.5,-55 412.5,-73 627.5,-73 627.5,-55 412.5,-55"/>
<text text-anchor="start" x="415.5" y="-61.2" font-family="Helvetica,sans-Serif" font-size="11.00">...</text>
<polygon fill="#ffffff" stroke="none" points="412.5,-37 412.5,-55 503.5,-55 503.5,-37 412.5,-37"/>
<polygon fill="none" stroke="black" points="412.5,-37 412.5,-55 503.5,-55 503.5,-37 412.5,-37"/>
<text text-anchor="start" x="415.5" y="-43.2" font-family="Helvetica,sans-Serif" font-size="11.00">&lt; 2</text>
<polygon fill="#ffffff" stroke="none" points="503.5,-37 503.5,-55 579.5,-55 579.5,-37 503.5,-37"/>
<polygon fill="none" stroke="black" points="503.5,-37 503.5,-55 579.5,-55 579.5,-37 503.5,-37"/>
<text text-anchor="start" x="540.5" y="-43.2" font-family="Helvetica,sans-Serif" font-size="11.00">0 rows</text>
<polygon fill="#ffffff" stroke="none" points="579.5,-37 579.5,-55 627.5,-55 627.5,-37 579.5,-37"/>
<polygon fill="none" stroke="black" points="579.5,-37 579.5,-55 627.5,-55 627.5,-37 579.5,-37"/>
<text text-anchor="start" x="617.5" y="-43.2" font-family="Helvetica,sans-Serif" font-size="11.00"> &#160;</text>
</a>
</g>
</g>
<!-- core_pulpimporterrepository&#45;&gt;core_repository -->
<g id="edge10" class="edge"><title>core_pulpimporterrepository:elipses:w&#45;&gt;core_repository:pulp_id:e</title>
<path fill="none" stroke="black" d="M396.965,-65.313C376.87,-69.402 367.984,-82.9692 355,-105 318.396,-167.108 387.592,-427 315.5,-427"/>
<polygon fill="black" stroke="black" points="403.532,-64.7198 411.824,-67.5854 407.516,-64.3599 411.5,-64 411.5,-64 411.5,-64 407.516,-64.3599 411.176,-60.4146 403.532,-64.7198 403.532,-64.7198"/>
<ellipse fill="none" stroke="black" cx="400.345" cy="-65.0077" rx="3.2" ry="3.2"/>
</g>
<!-- core_repositorycontent -->
<g id="node12" class="node"><title>core_repositorycontent</title>
<g id="a_node12"><a xlink:href="../../tables/core_repositorycontent.html" xlink:title="core_repositorycontent" target="_top">
<polygon fill="#ffffff" stroke="none" points="750.5,-495 750.5,-553 932.5,-553 932.5,-495 750.5,-495"/>
<polygon fill="#f5f5f5" stroke="none" points="750.5,-531 750.5,-553 932.5,-553 932.5,-531 750.5,-531"/>
<polygon fill="none" stroke="black" points="750.5,-531 750.5,-553 932.5,-553 932.5,-531 750.5,-531"/>
<text text-anchor="start" x="755.5" y="-540.2" font-family="Helvetica,sans-Serif" font-weight="bold" font-size="11.00">core_repositorycontent</text>
<text text-anchor="start" x="893.5" y="-539.2" font-family="Helvetica,sans-Serif" font-size="11.00">[table]</text>
<polygon fill="none" stroke="black" points="750.5,-513 750.5,-531 932.5,-531 932.5,-513 750.5,-513"/>
<text text-anchor="start" x="753.5" y="-519.2" font-family="Helvetica,sans-Serif" font-size="11.00">...</text>
<polygon fill="#ffffff" stroke="none" points="750.5,-495 750.5,-513 818.5,-513 818.5,-495 750.5,-495"/>
<polygon fill="none" stroke="black" points="750.5,-495 750.5,-513 818.5,-513 818.5,-495 750.5,-495"/>
<text text-anchor="start" x="753.5" y="-501.2" font-family="Helvetica,sans-Serif" font-size="11.00">&lt; 4</text>
<polygon fill="#ffffff" stroke="none" points="818.5,-495 818.5,-513 896.5,-513 896.5,-495 818.5,-495"/>
<polygon fill="none" stroke="black" points="818.5,-495 818.5,-513 896.5,-513 896.5,-495 818.5,-495"/>
<text text-anchor="start" x="844.5" y="-501.2" font-family="Helvetica,sans-Serif" font-size="11.00">786 rows</text>
<polygon fill="#ffffff" stroke="none" points="896.5,-495 896.5,-513 932.5,-513 932.5,-495 896.5,-495"/>
<polygon fill="none" stroke="black" points="896.5,-495 896.5,-513 932.5,-513 932.5,-495 896.5,-495"/>
<text text-anchor="start" x="922.5" y="-501.2" font-family="Helvetica,sans-Serif" font-size="11.00"> &#160;</text>
</a>
</g>
</g>
<!-- core_repositorycontent&#45;&gt;core_repository -->
<g id="edge12" class="edge"><title>core_repositorycontent:elipses:w&#45;&gt;core_repository:pulp_id:e</title>
<path fill="none" stroke="black" d="M735.051,-522.254C638.504,-525.329 424.762,-554.448 355,-509 321.106,-486.919 355.952,-427 315.5,-427"/>
<polygon fill="black" stroke="black" points="741.501,-522.141 749.563,-525.599 745.501,-522.07 749.5,-522 749.5,-522 749.5,-522 745.501,-522.07 749.437,-518.401 741.501,-522.141 741.501,-522.141"/>
<ellipse fill="none" stroke="black" cx="738.302" cy="-522.197" rx="3.2" ry="3.2"/>
</g>
<!-- core_repositorycontent&#45;&gt;core_repositoryversion -->
<g id="edge13" class="edge"><title>core_repositorycontent:elipses:w&#45;&gt;core_repositoryversion:elipses:e</title>
<path fill="none" stroke="black" d="M735.091,-521.589C682.184,-523.694 671.164,-567.469 610.5,-573"/>
<polygon fill="black" stroke="black" points="741.503,-521.772 749.397,-525.599 745.502,-521.886 749.5,-522 749.5,-522 749.5,-522 745.502,-521.886 749.603,-518.401 741.503,-521.772 741.503,-521.772"/>
<ellipse fill="none" stroke="black" cx="738.305" cy="-521.68" rx="3.2" ry="3.2"/>
</g>
<!-- core_repositorycontent&#45;&gt;core_repositoryversion -->
<g id="edge14" class="edge"><title>core_repositorycontent:elipses:w&#45;&gt;core_repositoryversion:elipses:e</title>
<path fill="none" stroke="black" d="M735.091,-524.398C682.184,-536.615 671.164,-579.453 610.5,-573"/>
<polygon fill="black" stroke="black" points="741.609,-523.313 750.091,-525.551 745.554,-522.657 749.5,-522 749.5,-522 749.5,-522 745.554,-522.657 748.909,-518.449 741.609,-523.313 741.609,-523.313"/>
<ellipse fill="none" stroke="black" cx="738.452" cy="-523.838" rx="3.2" ry="3.2"/>
</g>
</g>
</svg>
