<?xml version="1.0" encoding="UTF-8" standalone="no"?>
<!DOCTYPE svg PUBLIC "-//W3C//DTD SVG 1.1//EN"
 "http://www.w3.org/Graphics/SVG/1.1/DTD/svg11.dtd">
<!-- Generated by graphviz version 2.38.0 (20140413.2041)
 -->
<!-- Title: twoDegreesRelationshipsDiagram Pages: 1 -->
<svg width="1003pt" height="723pt"
 viewBox="0.00 0.00 1003.00 723.00" xmlns="http://www.w3.org/2000/svg" xmlns:xlink="http://www.w3.org/1999/xlink">
<g id="graph0" class="graph" transform="scale(1 1) rotate(0) translate(4 719)">
<title>twoDegreesRelationshipsDiagram</title>
<polygon fill="#ffffff" stroke="none" points="-4,4 -4,-719 999,-719 999,4 -4,4"/>
<text text-anchor="middle" x="74.5" y="-7.2" font-family="Helvetica,sans-Serif" font-size="11.00">Generated by SchemaSpy</text>
<!-- ansible_ansibledistribution -->
<g id="node1" class="node"><title>ansible_ansibledistribution</title>
<g id="a_node1"><a xlink:href="../../tables/ansible_ansibledistribution.html" xlink:title="ansible_ansibledistribution" target="_top">
<polygon fill="#ffffff" stroke="none" points="768,-653 768,-711 973,-711 973,-653 768,-653"/>
<polygon fill="#f5f5f5" stroke="none" points="768.5,-689 768.5,-711 973.5,-711 973.5,-689 768.5,-689"/>
<polygon fill="none" stroke="black" points="768.5,-689 768.5,-711 973.5,-711 973.5,-689 768.5,-689"/>
<text text-anchor="start" x="773.5" y="-698.2" font-family="Helvetica,sans-Serif" font-weight="bold" font-size="11.00">ansible_ansibledistribution</text>
<text text-anchor="start" x="934.5" y="-697.2" font-family="Helvetica,sans-Serif" font-size="11.00">[table]</text>
<polygon fill="none" stroke="black" points="768.5,-671 768.5,-689 973.5,-689 973.5,-671 768.5,-671"/>
<text text-anchor="start" x="771.5" y="-677.2" font-family="Helvetica,sans-Serif" font-size="11.00">...</text>
<polygon fill="#ffffff" stroke="none" points="768.5,-653 768.5,-671 851.5,-671 851.5,-653 768.5,-653"/>
<polygon fill="none" stroke="black" points="768.5,-653 768.5,-671 851.5,-671 851.5,-653 768.5,-653"/>
<text text-anchor="start" x="771.5" y="-659.2" font-family="Helvetica,sans-Serif" font-size="11.00">&lt; 3</text>
<polygon fill="#ffffff" stroke="none" points="851.5,-653 851.5,-671 930.5,-671 930.5,-653 851.5,-653"/>
<polygon fill="none" stroke="black" points="851.5,-653 851.5,-671 930.5,-671 930.5,-653 851.5,-653"/>
<text text-anchor="start" x="884.5" y="-659.2" font-family="Helvetica,sans-Serif" font-size="11.00">32 rows</text>
<polygon fill="#ffffff" stroke="none" points="930.5,-653 930.5,-671 973.5,-671 973.5,-653 930.5,-653"/>
<polygon fill="none" stroke="black" points="930.5,-653 930.5,-671 973.5,-671 973.5,-653 930.5,-653"/>
<text text-anchor="start" x="963.5" y="-659.2" font-family="Helvetica,sans-Serif" font-size="11.00"> &#160;</text>
</a>
</g>
</g>
<!-- core_repository -->
<g id="node2" class="node"><title>core_repository</title>
<g id="a_node2"><a xlink:href="../../tables/core_repository.html" xlink:title="core_repository" target="_top">
<polygon fill="#ffffff" stroke="none" points="177,-334 177,-458 314,-458 314,-334 177,-334"/>
<polygon fill="#f5f5f5" stroke="none" points="177.5,-436 177.5,-458 314.5,-458 314.5,-436 177.5,-436"/>
<polygon fill="none" stroke="black" points="177.5,-436 177.5,-458 314.5,-458 314.5,-436 177.5,-436"/>
<text text-anchor="start" x="182.5" y="-445.2" font-family="Helvetica,sans-Serif" font-weight="bold" font-size="11.00">core_repository</text>
<text text-anchor="start" x="275.5" y="-444.2" font-family="Helvetica,sans-Serif" font-size="11.00">[table]</text>
<polygon fill="none" stroke="black" points="177.5,-414 177.5,-436 314.5,-436 314.5,-414 177.5,-414"/>
<image xlink:href="../../images/primaryKeys.png" width="11px" height="12px" preserveAspectRatio="xMinYMin meet" x="182.5" y="-431"/>
<text text-anchor="start" x="201.5" y="-422.2" font-family="Helvetica,sans-Serif" font-size="11.00">pulp_id</text>
<polygon fill="#ffffff" stroke="none" points="177.5,-392 177.5,-414 314.5,-414 314.5,-392 177.5,-392"/>
<polygon fill="none" stroke="black" points="177.5,-392 177.5,-414 314.5,-414 314.5,-392 177.5,-392"/>
<text text-anchor="start" x="201.5" y="-400.2" font-family="Helvetica,sans-Serif" font-size="11.00">name</text>
<polygon fill="#ffffff" stroke="none" points="177.5,-370 177.5,-392 314.5,-392 314.5,-370 177.5,-370"/>
<polygon fill="none" stroke="black" points="177.5,-370 177.5,-392 314.5,-392 314.5,-370 177.5,-370"/>
<image xlink:href="../../images/foreignKeys.png" width="11px" height="12px" preserveAspectRatio="xMinYMin meet" x="182.5" y="-387"/>
<text text-anchor="start" x="201.5" y="-378.2" font-family="Helvetica,sans-Serif" font-size="11.00">remote_id</text>
<polygon fill="none" stroke="black" points="177.5,-352 177.5,-370 314.5,-370 314.5,-352 177.5,-352"/>
<text text-anchor="start" x="180.5" y="-358.2" font-family="Helvetica,sans-Serif" font-size="11.00">...</text>
<polygon fill="#ffffff" stroke="none" points="177.5,-334 177.5,-352 217.5,-352 217.5,-334 177.5,-334"/>
<polygon fill="none" stroke="black" points="177.5,-334 177.5,-352 217.5,-352 217.5,-334 177.5,-334"/>
<text text-anchor="start" x="180.5" y="-340.2" font-family="Helvetica,sans-Serif" font-size="11.00">&lt; 1</text>
<polygon fill="#ffffff" stroke="none" points="217.5,-334 217.5,-352 275.5,-352 275.5,-334 217.5,-334"/>
<polygon fill="none" stroke="black" points="217.5,-334 217.5,-352 275.5,-352 275.5,-334 217.5,-334"/>
<text text-anchor="start" x="229.5" y="-340.2" font-family="Helvetica,sans-Serif" font-size="11.00">26 rows</text>
<polygon fill="#ffffff" stroke="none" points="275.5,-334 275.5,-352 314.5,-352 314.5,-334 275.5,-334"/>
<polygon fill="none" stroke="black" points="275.5,-334 275.5,-352 314.5,-352 314.5,-334 275.5,-334"/>
<text text-anchor="start" x="287.5" y="-340.2" font-family="Helvetica,sans-Serif" font-size="11.00">10 &gt;</text>
</a>
</g>
</g>
<!-- ansible_ansibledistribution&#45;&gt;core_repository -->
<g id="edge1" class="edge"><title>ansible_ansibledistribution:elipses:w&#45;&gt;core_repository:pulp_id:e</title>
<path fill="none" stroke="black" d="M752.845,-680.172C578.163,-684.255 486.83,-758.642 355,-637 284.561,-572.005 411.344,-425 315.5,-425"/>
<polygon fill="black" stroke="black" points="759.501,-680.094 767.542,-683.6 763.5,-680.047 767.5,-680 767.5,-680 767.5,-680 763.5,-680.047 767.458,-676.4 759.501,-680.094 759.501,-680.094"/>
<ellipse fill="none" stroke="black" cx="756.301" cy="-680.131" rx="3.2" ry="3.2"/>
</g>
<!-- core_repositoryversion -->
<g id="node3" class="node"><title>core_repositoryversion</title>
<g id="a_node3"><a xlink:href="../../tables/core_repositoryversion.html" xlink:title="core_repositoryversion" target="_top">
<polygon fill="#ffffff" stroke="none" points="444.5,-546 444.5,-604 623.5,-604 623.5,-546 444.5,-546"/>
<polygon fill="#f5f5f5" stroke="none" points="445,-582 445,-604 624,-604 624,-582 445,-582"/>
<polygon fill="none" stroke="black" points="445,-582 445,-604 624,-604 624,-582 445,-582"/>
<text text-anchor="start" x="450" y="-591.2" font-family="Helvetica,sans-Serif" font-weight="bold" font-size="11.00">core_repositoryversion</text>
<text text-anchor="start" x="585" y="-590.2" font-family="Helvetica,sans-Serif" font-size="11.00">[table]</text>
<polygon fill="none" stroke="black" points="445,-564 445,-582 624,-582 624,-564 445,-564"/>
<text text-anchor="start" x="448" y="-570.2" font-family="Helvetica,sans-Serif" font-size="11.00">...</text>
<polygon fill="#ffffff" stroke="none" points="445,-546 445,-564 507,-564 507,-546 445,-546"/>
<polygon fill="none" stroke="black" points="445,-546 445,-564 507,-564 507,-546 445,-546"/>
<text text-anchor="start" x="448" y="-552.2" font-family="Helvetica,sans-Serif" font-size="11.00">&lt; 2</text>
<polygon fill="#ffffff" stroke="none" points="507,-546 507,-564 581,-564 581,-546 507,-546"/>
<polygon fill="none" stroke="black" points="507,-546 507,-564 581,-564 581,-546 507,-546"/>
<text text-anchor="start" x="529" y="-552.2" font-family="Helvetica,sans-Serif" font-size="11.00">162 rows</text>
<polygon fill="#ffffff" stroke="none" points="581,-546 581,-564 624,-564 624,-546 581,-546"/>
<polygon fill="none" stroke="black" points="581,-546 581,-564 624,-564 624,-546 581,-546"/>
<text text-anchor="start" x="604" y="-552.2" font-family="Helvetica,sans-Serif" font-size="11.00">7 &gt;</text>
</a>
</g>
</g>
<!-- ansible_ansibledistribution&#45;&gt;core_repositoryversion -->
<g id="edge2" class="edge"><title>ansible_ansibledistribution:elipses:w&#45;&gt;core_repositoryversion:elipses:e</title>
<path fill="none" stroke="black" d="M752.924,-678.647C689.992,-666.261 698.941,-573 625,-573"/>
<polygon fill="black" stroke="black" points="759.534,-679.261 767.167,-683.585 763.517,-679.63 767.5,-680 767.5,-680 767.5,-680 763.517,-679.63 767.833,-676.415 759.534,-679.261 759.534,-679.261"/>
<ellipse fill="none" stroke="black" cx="756.348" cy="-678.965" rx="3.2" ry="3.2"/>
</g>
<!-- core_remote -->
<g id="node11" class="node"><title>core_remote</title>
<g id="a_node11"><a xlink:href="../../tables/core_remote.html" xlink:title="core_remote" target="_top">
<polygon fill="#ffffff" stroke="none" points="8,-354 8,-412 128,-412 128,-354 8,-354"/>
<polygon fill="#f5f5f5" stroke="none" points="8,-390 8,-412 128,-412 128,-390 8,-390"/>
<polygon fill="none" stroke="black" points="8,-390 8,-412 128,-412 128,-390 8,-390"/>
<text text-anchor="start" x="13" y="-399.2" font-family="Helvetica,sans-Serif" font-weight="bold" font-size="11.00">core_remote</text>
<text text-anchor="start" x="89" y="-398.2" font-family="Helvetica,sans-Serif" font-size="11.00">[table]</text>
<polygon fill="none" stroke="black" points="8,-372 8,-390 128,-390 128,-372 8,-372"/>
<text text-anchor="start" x="11" y="-378.2" font-family="Helvetica,sans-Serif" font-size="11.00">...</text>
<polygon fill="#ffffff" stroke="none" points="8,-354 8,-372 42,-372 42,-354 8,-354"/>
<polygon fill="none" stroke="black" points="8,-354 8,-372 42,-372 42,-354 8,-354"/>
<text text-anchor="start" x="11" y="-360.2" font-family="Helvetica,sans-Serif" font-size="11.00"> &#160;</text>
<polygon fill="#ffffff" stroke="none" points="42,-354 42,-372 94,-372 94,-354 42,-354"/>
<polygon fill="none" stroke="black" points="42,-354 42,-372 94,-372 94,-354 42,-354"/>
<text text-anchor="start" x="55" y="-360.2" font-family="Helvetica,sans-Serif" font-size="11.00">7 rows</text>
<polygon fill="#ffffff" stroke="none" points="94,-354 94,-372 128,-372 128,-354 94,-354"/>
<polygon fill="none" stroke="black" points="94,-354 94,-372 128,-372 128,-354 94,-354"/>
<text text-anchor="start" x="108" y="-360.2" font-family="Helvetica,sans-Serif" font-size="11.00">6 &gt;</text>
</a>
</g>
</g>
<!-- core_repository&#45;&gt;core_remote -->
<g id="edge11" class="edge"><title>core_repository:remote_id:w&#45;&gt;core_remote:elipses:e</title>
<path fill="none" stroke="black" d="M162.086,-381C151.319,-381 144.339,-381 129,-381"/>
<polygon fill="black" stroke="black" points="168.5,-381 176.5,-384.6 172.5,-381 176.5,-381 176.5,-381 176.5,-381 172.5,-381 176.5,-377.4 168.5,-381 168.5,-381"/>
<ellipse fill="none" stroke="black" cx="165.3" cy="-381" rx="3.2" ry="3.2"/>
</g>
<!-- core_repositoryversion&#45;&gt;core_repository -->
<g id="edge15" class="edge"><title>core_repositoryversion:elipses:w&#45;&gt;core_repository:pulp_id:e</title>
<path fill="none" stroke="black" d="M429.323,-572.578C396.403,-570.477 380.989,-560.102 355,-532 320.581,-494.784 366.192,-425 315.5,-425"/>
<polygon fill="black" stroke="black" points="436.003,-572.77 443.897,-576.599 440.002,-572.885 444,-573 444,-573 444,-573 440.002,-572.885 444.103,-569.401 436.003,-572.77 436.003,-572.77"/>
<ellipse fill="none" stroke="black" cx="432.805" cy="-572.678" rx="3.2" ry="3.2"/>
</g>
<!-- ansible_ansiblerepository -->
<g id="node4" class="node"><title>ansible_ansiblerepository</title>
<g id="a_node4"><a xlink:href="../../tables/ansible_ansiblerepository.html" xlink:title="ansible_ansiblerepository" target="_top">
<polygon fill="#ffffff" stroke="none" points="436.5,-440 436.5,-498 631.5,-498 631.5,-440 436.5,-440"/>
<polygon fill="#f5f5f5" stroke="none" points="437,-476 437,-498 632,-498 632,-476 437,-476"/>
<polygon fill="none" stroke="black" points="437,-476 437,-498 632,-498 632,-476 437,-476"/>
<text text-anchor="start" x="442" y="-485.2" font-family="Helvetica,sans-Serif" font-weight="bold" font-size="11.00">ansible_ansiblerepository</text>
<text text-anchor="start" x="593" y="-484.2" font-family="Helvetica,sans-Serif" font-size="11.00">[table]</text>
<polygon fill="none" stroke="black" points="437,-458 437,-476 632,-476 632,-458 437,-458"/>
<text text-anchor="start" x="440" y="-464.2" font-family="Helvetica,sans-Serif" font-size="11.00">...</text>
<polygon fill="#ffffff" stroke="none" points="437,-440 437,-458 510,-458 510,-440 437,-440"/>
<polygon fill="none" stroke="black" points="437,-440 437,-458 510,-458 510,-440 437,-440"/>
<text text-anchor="start" x="440" y="-446.2" font-family="Helvetica,sans-Serif" font-size="11.00">&lt; 1</text>
<polygon fill="#ffffff" stroke="none" points="510,-440 510,-458 584,-458 584,-440 510,-440"/>
<polygon fill="none" stroke="black" points="510,-440 510,-458 584,-458 584,-440 510,-440"/>
<text text-anchor="start" x="538" y="-446.2" font-family="Helvetica,sans-Serif" font-size="11.00">26 rows</text>
<polygon fill="#ffffff" stroke="none" points="584,-440 584,-458 632,-458 632,-440 584,-440"/>
<polygon fill="none" stroke="black" points="584,-440 584,-458 632,-458 632,-440 584,-440"/>
<text text-anchor="start" x="612" y="-446.2" font-family="Helvetica,sans-Serif" font-size="11.00">2 &gt;</text>
</a>
</g>
</g>
<!-- ansible_ansiblerepository&#45;&gt;core_repository -->
<g id="edge3" class="edge"><title>ansible_ansiblerepository:elipses:w&#45;&gt;core_repository:pulp_id:e</title>
<path fill="none" stroke="black" d="M425.329,-466.469C378.127,-461.607 368.449,-425 315.5,-425"/>
<polygon fill="black" stroke="black" points="435.4,-462.965 435.002,-470.955 433.404,-470.876 433.802,-462.886 435.4,-462.965"/>
<polyline fill="none" stroke="black" points="436,-467 432.005,-466.801 "/>
<ellipse fill="none" stroke="black" cx="428.809" cy="-466.642" rx="3.2" ry="3.2"/>
</g>
<!-- container_containerdistribution -->
<g id="node5" class="node"><title>container_containerdistribution</title>
<g id="a_node5"><a xlink:href="../../tables/container_containerdistribution.html" xlink:title="container_containerdistribution" target="_top">
<polygon fill="#ffffff" stroke="none" points="754,-574 754,-632 987,-632 987,-574 754,-574"/>
<polygon fill="#f5f5f5" stroke="none" points="754.5,-610 754.5,-632 987.5,-632 987.5,-610 754.5,-610"/>
<polygon fill="none" stroke="black" points="754.5,-610 754.5,-632 987.5,-632 987.5,-610 754.5,-610"/>
<text text-anchor="start" x="759.5" y="-619.2" font-family="Helvetica,sans-Serif" font-weight="bold" font-size="11.00">container_containerdistribution</text>
<text text-anchor="start" x="948.5" y="-618.2" font-family="Helvetica,sans-Serif" font-size="11.00">[table]</text>
<polygon fill="none" stroke="black" points="754.5,-592 754.5,-610 987.5,-610 987.5,-592 754.5,-592"/>
<text text-anchor="start" x="757.5" y="-598.2" font-family="Helvetica,sans-Serif" font-size="11.00">...</text>
<polygon fill="#ffffff" stroke="none" points="754.5,-574 754.5,-592 854.5,-592 854.5,-574 754.5,-574"/>
<polygon fill="none" stroke="black" points="754.5,-574 754.5,-592 854.5,-592 854.5,-574 754.5,-574"/>
<text text-anchor="start" x="757.5" y="-580.2" font-family="Helvetica,sans-Serif" font-size="11.00">&lt; 3</text>
<polygon fill="#ffffff" stroke="none" points="854.5,-574 854.5,-592 935.5,-592 935.5,-574 854.5,-574"/>
<polygon fill="none" stroke="black" points="854.5,-574 854.5,-592 935.5,-592 935.5,-574 854.5,-574"/>
<text text-anchor="start" x="896.5" y="-580.2" font-family="Helvetica,sans-Serif" font-size="11.00">0 rows</text>
<polygon fill="#ffffff" stroke="none" points="935.5,-574 935.5,-592 987.5,-592 987.5,-574 935.5,-574"/>
<polygon fill="none" stroke="black" points="935.5,-574 935.5,-592 987.5,-592 987.5,-574 935.5,-574"/>
<text text-anchor="start" x="977.5" y="-580.2" font-family="Helvetica,sans-Serif" font-size="11.00"> &#160;</text>
</a>
</g>
</g>
<!-- container_containerdistribution&#45;&gt;core_repository -->
<g id="edge4" class="edge"><title>container_containerdistribution:elipses:w&#45;&gt;core_repository:pulp_id:e</title>
<path fill="none" stroke="black" d="M739.171,-603.729C731.09,-607.159 725.766,-612.856 713,-615 634.543,-628.178 416.714,-665.204 355,-615 288.092,-560.572 401.75,-425 315.5,-425"/>
<polygon fill="black" stroke="black" points="745.641,-602.497 754.174,-604.536 749.571,-601.748 753.5,-601 753.5,-601 753.5,-601 749.571,-601.748 752.826,-597.464 745.641,-602.497 745.641,-602.497"/>
<ellipse fill="none" stroke="black" cx="742.498" cy="-603.095" rx="3.2" ry="3.2"/>
</g>
<!-- container_containerdistribution&#45;&gt;core_repositoryversion -->
<g id="edge5" class="edge"><title>container_containerdistribution:elipses:w&#45;&gt;core_repositoryversion:elipses:e</title>
<path fill="none" stroke="black" d="M739.11,-600.389C692.648,-596.294 678.314,-573 625,-573"/>
<polygon fill="black" stroke="black" points="745.507,-600.661 753.347,-604.597 749.504,-600.83 753.5,-601 753.5,-601 753.5,-601 749.504,-600.83 753.653,-597.403 745.507,-600.661 745.507,-600.661"/>
<ellipse fill="none" stroke="black" cx="742.31" cy="-600.525" rx="3.2" ry="3.2"/>
</g>
<!-- container_containerpushrepository -->
<g id="node6" class="node"><title>container_containerpushrepository</title>
<g id="a_node6"><a xlink:href="../../tables/container_containerpushrepository.html" xlink:title="container_containerpushrepository" target="_top">
<polygon fill="#ffffff" stroke="none" points="363,-353 363,-419 705,-419 705,-353 363,-353"/>
<polygon fill="#f5f5f5" stroke="none" points="365,-395 365,-417 703,-417 703,-395 365,-395"/>
<polygon fill="none" stroke="black" points="365,-395 365,-417 703,-417 703,-395 365,-395"/>
<text text-anchor="start" x="370" y="-404.2" font-family="Helvetica,sans-Serif" font-weight="bold" font-size="11.00">container_containerpushrepository</text>
<text text-anchor="start" x="664" y="-403.2" font-family="Helvetica,sans-Serif" font-size="11.00">[table]</text>
<polygon fill="none" stroke="black" points="365,-373 365,-395 598,-395 598,-373 365,-373"/>
<image xlink:href="../../images/primaryKeys.png" width="11px" height="12px" preserveAspectRatio="xMinYMin meet" x="370" y="-390"/>
<text text-anchor="start" x="385" y="-381.2" font-family="Helvetica,sans-Serif" font-size="11.00">repository_ptr_id</text>
<polygon fill="none" stroke="black" points="598,-373 598,-395 703,-395 703,-373 598,-373"/>
<text text-anchor="start" x="601" y="-381.2" font-family="Helvetica,sans-Serif" font-size="11.00">uuid[2147483647]</text>
<polygon fill="#ffffff" stroke="none" points="365,-355 365,-373 472,-373 472,-355 365,-355"/>
<polygon fill="none" stroke="black" points="365,-355 365,-373 472,-373 472,-355 365,-355"/>
<text text-anchor="start" x="368" y="-361.2" font-family="Helvetica,sans-Serif" font-size="11.00">&lt; 1</text>
<polygon fill="#ffffff" stroke="none" points="472,-355 472,-373 598,-373 598,-355 472,-355"/>
<polygon fill="none" stroke="black" points="472,-355 472,-373 598,-373 598,-355 472,-355"/>
<text text-anchor="start" x="559" y="-361.2" font-family="Helvetica,sans-Serif" font-size="11.00">0 rows</text>
<polygon fill="#ffffff" stroke="none" points="598,-355 598,-373 703,-373 703,-355 598,-355"/>
<polygon fill="none" stroke="black" points="598,-355 598,-373 703,-373 703,-355 598,-355"/>
<text text-anchor="start" x="683" y="-361.2" font-family="Helvetica,sans-Serif" font-size="11.00">0 &gt;</text>
<polygon fill="none" stroke="black" stroke-width="2" points="364,-354 364,-418 704,-418 704,-354 364,-354"/>
</a>
</g>
</g>
<!-- container_containerpushrepository&#45;&gt;core_repository -->
<g id="edge6" class="edge"><title>container_containerpushrepository:repository_ptr_id:w&#45;&gt;core_repository:pulp_id:e</title>
<path fill="none" stroke="black" d="M353.585,-386.442C337.338,-395.268 339.536,-425 315.5,-425"/>
<polygon fill="black" stroke="black" points="362.308,-380.288 364.134,-388.077 362.577,-388.442 360.75,-380.654 362.308,-380.288"/>
<polyline fill="none" stroke="black" points="364,-384 360.106,-384.913 "/>
<ellipse fill="none" stroke="black" cx="356.99" cy="-385.644" rx="3.20001" ry="3.20001"/>
</g>
<!-- container_containerrepository -->
<g id="node7" class="node"><title>container_containerrepository</title>
<g id="a_node7"><a xlink:href="../../tables/container_containerrepository.html" xlink:title="container_containerrepository" target="_top">
<polygon fill="#ffffff" stroke="none" points="422.5,-274 422.5,-332 645.5,-332 645.5,-274 422.5,-274"/>
<polygon fill="#f5f5f5" stroke="none" points="423,-310 423,-332 646,-332 646,-310 423,-310"/>
<polygon fill="none" stroke="black" points="423,-310 423,-332 646,-332 646,-310 423,-310"/>
<text text-anchor="start" x="428" y="-319.2" font-family="Helvetica,sans-Serif" font-weight="bold" font-size="11.00">container_containerrepository</text>
<text text-anchor="start" x="607" y="-318.2" font-family="Helvetica,sans-Serif" font-size="11.00">[table]</text>
<polygon fill="none" stroke="black" points="423,-292 423,-310 646,-310 646,-292 423,-292"/>
<text text-anchor="start" x="426" y="-298.2" font-family="Helvetica,sans-Serif" font-size="11.00">...</text>
<polygon fill="#ffffff" stroke="none" points="423,-274 423,-292 518,-292 518,-274 423,-274"/>
<polygon fill="none" stroke="black" points="423,-274 423,-292 518,-292 518,-274 423,-274"/>
<text text-anchor="start" x="426" y="-280.2" font-family="Helvetica,sans-Serif" font-size="11.00">&lt; 1</text>
<polygon fill="#ffffff" stroke="none" points="518,-274 518,-292 596,-292 596,-274 518,-274"/>
<polygon fill="none" stroke="black" points="518,-274 518,-292 596,-292 596,-274 518,-274"/>
<text text-anchor="start" x="557" y="-280.2" font-family="Helvetica,sans-Serif" font-size="11.00">0 rows</text>
<polygon fill="#ffffff" stroke="none" points="596,-274 596,-292 646,-292 646,-274 596,-274"/>
<polygon fill="none" stroke="black" points="596,-274 596,-292 646,-292 646,-274 596,-274"/>
<text text-anchor="start" x="636" y="-280.2" font-family="Helvetica,sans-Serif" font-size="11.00"> &#160;</text>
</a>
</g>
</g>
<!-- container_containerrepository&#45;&gt;core_repository -->
<g id="edge7" class="edge"><title>container_containerrepository:elipses:w&#45;&gt;core_repository:pulp_id:e</title>
<path fill="none" stroke="black" d="M411.431,-301.535C385.004,-304.423 375.802,-318.891 355,-342 327.668,-372.363 356.353,-425 315.5,-425"/>
<polygon fill="black" stroke="black" points="420.999,-297.046 421.403,-305.035 419.805,-305.116 419.401,-297.126 420.999,-297.046"/>
<polyline fill="none" stroke="black" points="422,-301 418.005,-301.202 "/>
<ellipse fill="none" stroke="black" cx="414.809" cy="-301.364" rx="3.2" ry="3.2"/>
</g>
<!-- container_upload -->
<g id="node8" class="node"><title>container_upload</title>
<g id="a_node8"><a xlink:href="../../tables/container_upload.html" xlink:title="container_upload" target="_top">
<polygon fill="#ffffff" stroke="none" points="460,-195 460,-253 608,-253 608,-195 460,-195"/>
<polygon fill="#f5f5f5" stroke="none" points="460,-231 460,-253 608,-253 608,-231 460,-231"/>
<polygon fill="none" stroke="black" points="460,-231 460,-253 608,-253 608,-231 460,-231"/>
<text text-anchor="start" x="465" y="-240.2" font-family="Helvetica,sans-Serif" font-weight="bold" font-size="11.00">container_upload</text>
<text text-anchor="start" x="569" y="-239.2" font-family="Helvetica,sans-Serif" font-size="11.00">[table]</text>
<polygon fill="none" stroke="black" points="460,-213 460,-231 608,-231 608,-213 460,-213"/>
<text text-anchor="start" x="463" y="-219.2" font-family="Helvetica,sans-Serif" font-size="11.00">...</text>
<polygon fill="#ffffff" stroke="none" points="460,-195 460,-213 518,-213 518,-195 460,-195"/>
<polygon fill="none" stroke="black" points="460,-195 460,-213 518,-213 518,-195 460,-195"/>
<text text-anchor="start" x="463" y="-201.2" font-family="Helvetica,sans-Serif" font-size="11.00">&lt; 1</text>
<polygon fill="#ffffff" stroke="none" points="518,-195 518,-213 577,-213 577,-195 518,-195"/>
<polygon fill="none" stroke="black" points="518,-195 518,-213 577,-213 577,-195 518,-195"/>
<text text-anchor="start" x="538" y="-201.2" font-family="Helvetica,sans-Serif" font-size="11.00">0 rows</text>
<polygon fill="#ffffff" stroke="none" points="577,-195 577,-213 608,-213 608,-195 577,-195"/>
<polygon fill="none" stroke="black" points="577,-195 577,-213 608,-213 608,-195 577,-195"/>
<text text-anchor="start" x="598" y="-201.2" font-family="Helvetica,sans-Serif" font-size="11.00"> &#160;</text>
</a>
</g>
</g>
<!-- container_upload&#45;&gt;core_repository -->
<g id="edge8" class="edge"><title>container_upload:elipses:w&#45;&gt;core_repository:pulp_id:e</title>
<path fill="none" stroke="black" d="M444.428,-222.148C404.714,-223.099 384.277,-229.432 355,-263 306.289,-318.852 389.609,-425 315.5,-425"/>
<polygon fill="black" stroke="black" points="451,-222.081 459.037,-225.6 455,-222.041 459,-222 459,-222 459,-222 455,-222.041 458.963,-218.4 451,-222.081 451,-222.081"/>
<ellipse fill="none" stroke="black" cx="447.801" cy="-222.114" rx="3.2" ry="3.2"/>
</g>
<!-- core_pulpexporter_repositories -->
<g id="node9" class="node"><title>core_pulpexporter_repositories</title>
<g id="a_node9"><a xlink:href="../../tables/core_pulpexporter_repositories.html" xlink:title="core_pulpexporter_repositories" target="_top">
<polygon fill="#ffffff" stroke="none" points="420.5,-116 420.5,-174 647.5,-174 647.5,-116 420.5,-116"/>
<polygon fill="#f5f5f5" stroke="none" points="421,-152 421,-174 648,-174 648,-152 421,-152"/>
<polygon fill="none" stroke="black" points="421,-152 421,-174 648,-174 648,-152 421,-152"/>
<text text-anchor="start" x="426" y="-161.2" font-family="Helvetica,sans-Serif" font-weight="bold" font-size="11.00">core_pulpexporter_repositories</text>
<text text-anchor="start" x="609" y="-160.2" font-family="Helvetica,sans-Serif" font-size="11.00">[table]</text>
<polygon fill="none" stroke="black" points="421,-134 421,-152 648,-152 648,-134 421,-134"/>
<text text-anchor="start" x="424" y="-140.2" font-family="Helvetica,sans-Serif" font-size="11.00">...</text>
<polygon fill="#ffffff" stroke="none" points="421,-116 421,-134 518,-134 518,-116 421,-116"/>
<polygon fill="none" stroke="black" points="421,-116 421,-134 518,-134 518,-116 421,-116"/>
<text text-anchor="start" x="424" y="-122.2" font-family="Helvetica,sans-Serif" font-size="11.00">&lt; 2</text>
<polygon fill="#ffffff" stroke="none" points="518,-116 518,-134 597,-134 597,-116 518,-116"/>
<polygon fill="none" stroke="black" points="518,-116 518,-134 597,-134 597,-116 518,-116"/>
<text text-anchor="start" x="558" y="-122.2" font-family="Helvetica,sans-Serif" font-size="11.00">0 rows</text>
<polygon fill="#ffffff" stroke="none" points="597,-116 597,-134 648,-134 648,-116 597,-116"/>
<polygon fill="none" stroke="black" points="597,-116 597,-134 648,-134 648,-116 597,-116"/>
<text text-anchor="start" x="638" y="-122.2" font-family="Helvetica,sans-Serif" font-size="11.00"> &#160;</text>
</a>
</g>
</g>
<!-- core_pulpexporter_repositories&#45;&gt;core_repository -->
<g id="edge9" class="edge"><title>core_pulpexporter_repositories:elipses:w&#45;&gt;core_repository:pulp_id:e</title>
<path fill="none" stroke="black" d="M405.503,-143.931C381.933,-147.304 370.92,-159.977 355,-184 325.02,-229.238 369.77,-425 315.5,-425"/>
<polygon fill="black" stroke="black" points="412.016,-143.513 420.231,-146.593 416.008,-143.256 420,-143 420,-143 420,-143 416.008,-143.256 419.769,-139.407 412.016,-143.513 412.016,-143.513"/>
<ellipse fill="none" stroke="black" cx="408.823" cy="-143.718" rx="3.2" ry="3.2"/>
</g>
<!-- core_pulpimporterrepository -->
<g id="node10" class="node"><title>core_pulpimporterrepository</title>
<g id="a_node10"><a xlink:href="../../tables/core_pulpimporterrepository.html" xlink:title="core_pulpimporterrepository" target="_top">
<polygon fill="#ffffff" stroke="none" points="426.5,-37 426.5,-95 641.5,-95 641.5,-37 426.5,-37"/>
<polygon fill="#f5f5f5" stroke="none" points="427,-73 427,-95 642,-95 642,-73 427,-73"/>
<polygon fill="none" stroke="black" points="427,-73 427,-95 642,-95 642,-73 427,-73"/>
<text text-anchor="start" x="432" y="-82.2" font-family="Helvetica,sans-Serif" font-weight="bold" font-size="11.00">core_pulpimporterrepository</text>
<text text-anchor="start" x="603" y="-81.2" font-family="Helvetica,sans-Serif" font-size="11.00">[table]</text>
<polygon fill="none" stroke="black" points="427,-55 427,-73 642,-73 642,-55 427,-55"/>
<text text-anchor="start" x="430" y="-61.2" font-family="Helvetica,sans-Serif" font-size="11.00">...</text>
<polygon fill="#ffffff" stroke="none" points="427,-37 427,-55 518,-55 518,-37 427,-37"/>
<polygon fill="none" stroke="black" points="427,-37 427,-55 518,-55 518,-37 427,-37"/>
<text text-anchor="start" x="430" y="-43.2" font-family="Helvetica,sans-Serif" font-size="11.00">&lt; 2</text>
<polygon fill="#ffffff" stroke="none" points="518,-37 518,-55 594,-55 594,-37 518,-37"/>
<polygon fill="none" stroke="black" points="518,-37 518,-55 594,-55 594,-37 518,-37"/>
<text text-anchor="start" x="555" y="-43.2" font-family="Helvetica,sans-Serif" font-size="11.00">0 rows</text>
<polygon fill="#ffffff" stroke="none" points="594,-37 594,-55 642,-55 642,-37 594,-37"/>
<polygon fill="none" stroke="black" points="594,-37 594,-55 642,-55 642,-37 594,-37"/>
<text text-anchor="start" x="632" y="-43.2" font-family="Helvetica,sans-Serif" font-size="11.00"> &#160;</text>
</a>
</g>
</g>
<!-- core_pulpimporterrepository&#45;&gt;core_repository -->
<g id="edge10" class="edge"><title>core_pulpimporterrepository:elipses:w&#45;&gt;core_repository:pulp_id:e</title>
<path fill="none" stroke="black" d="M411.495,-64.6931C385.268,-67.4825 372.212,-79.0105 355,-105 315.437,-164.738 387.151,-425 315.5,-425"/>
<polygon fill="black" stroke="black" points="418.009,-64.3819 426.172,-67.5959 422.005,-64.1909 426,-64 426,-64 426,-64 422.005,-64.1909 425.828,-60.4041 418.009,-64.3819 418.009,-64.3819"/>
<ellipse fill="none" stroke="black" cx="414.813" cy="-64.5347" rx="3.2" ry="3.2"/>
</g>
<!-- core_repositorycontent -->
<g id="node12" class="node"><title>core_repositorycontent</title>
<g id="a_node12"><a xlink:href="../../tables/core_repositorycontent.html" xlink:title="core_repositorycontent" target="_top">
<polygon fill="#ffffff" stroke="none" points="779.5,-495 779.5,-553 961.5,-553 961.5,-495 779.5,-495"/>
<polygon fill="#f5f5f5" stroke="none" points="779.5,-531 779.5,-553 961.5,-553 961.5,-531 779.5,-531"/>
<polygon fill="none" stroke="black" points="779.5,-531 779.5,-553 961.5,-553 961.5,-531 779.5,-531"/>
<text text-anchor="start" x="784.5" y="-540.2" font-family="Helvetica,sans-Serif" font-weight="bold" font-size="11.00">core_repositorycontent</text>
<text text-anchor="start" x="922.5" y="-539.2" font-family="Helvetica,sans-Serif" font-size="11.00">[table]</text>
<polygon fill="none" stroke="black" points="779.5,-513 779.5,-531 961.5,-531 961.5,-513 779.5,-513"/>
<text text-anchor="start" x="782.5" y="-519.2" font-family="Helvetica,sans-Serif" font-size="11.00">...</text>
<polygon fill="#ffffff" stroke="none" points="779.5,-495 779.5,-513 847.5,-513 847.5,-495 779.5,-495"/>
<polygon fill="none" stroke="black" points="779.5,-495 779.5,-513 847.5,-513 847.5,-495 779.5,-495"/>
<text text-anchor="start" x="782.5" y="-501.2" font-family="Helvetica,sans-Serif" font-size="11.00">&lt; 4</text>
<polygon fill="#ffffff" stroke="none" points="847.5,-495 847.5,-513 925.5,-513 925.5,-495 847.5,-495"/>
<polygon fill="none" stroke="black" points="847.5,-495 847.5,-513 925.5,-513 925.5,-495 847.5,-495"/>
<text text-anchor="start" x="873.5" y="-501.2" font-family="Helvetica,sans-Serif" font-size="11.00">786 rows</text>
<polygon fill="#ffffff" stroke="none" points="925.5,-495 925.5,-513 961.5,-513 961.5,-495 925.5,-495"/>
<polygon fill="none" stroke="black" points="925.5,-495 925.5,-513 961.5,-513 961.5,-495 925.5,-495"/>
<text text-anchor="start" x="951.5" y="-501.2" font-family="Helvetica,sans-Serif" font-size="11.00"> &#160;</text>
</a>
</g>
</g>
<!-- core_repositorycontent&#45;&gt;core_repository -->
<g id="edge12" class="edge"><title>core_repositorycontent:elipses:w&#45;&gt;core_repository:pulp_id:e</title>
<path fill="none" stroke="black" d="M763.945,-522.252C660.752,-525.494 429.941,-558.203 355,-509 320.514,-486.358 356.755,-425 315.5,-425"/>
<polygon fill="black" stroke="black" points="770.501,-522.138 778.562,-525.599 774.501,-522.069 778.5,-522 778.5,-522 778.5,-522 774.501,-522.069 778.438,-518.401 770.501,-522.138 770.501,-522.138"/>
<ellipse fill="none" stroke="black" cx="767.302" cy="-522.194" rx="3.2" ry="3.2"/>
</g>
<!-- core_repositorycontent&#45;&gt;core_repositoryversion -->
<g id="edge13" class="edge"><title>core_repositorycontent:elipses:w&#45;&gt;core_repositoryversion:elipses:e</title>
<path fill="none" stroke="black" d="M763.842,-521.554C704.881,-523.136 691.694,-567.434 625,-573"/>
<polygon fill="black" stroke="black" points="770.504,-521.757 778.39,-525.598 774.502,-521.878 778.5,-522 778.5,-522 778.5,-522 774.502,-521.878 778.61,-518.402 770.504,-521.757 770.504,-521.757"/>
<ellipse fill="none" stroke="black" cx="767.305" cy="-521.659" rx="3.2" ry="3.2"/>
</g>
<!-- core_repositorycontent&#45;&gt;core_repositoryversion -->
<g id="edge14" class="edge"><title>core_repositorycontent:elipses:w&#45;&gt;core_repositoryversion:elipses:e</title>
<path fill="none" stroke="black" d="M764.215,-524.094C704.936,-535.885 691.834,-579.508 625,-573"/>
<polygon fill="black" stroke="black" points="770.585,-523.16 779.022,-525.562 774.542,-522.58 778.5,-522 778.5,-522 778.5,-522 774.542,-522.58 777.978,-518.438 770.585,-523.16 770.585,-523.16"/>
<ellipse fill="none" stroke="black" cx="767.418" cy="-523.624" rx="3.2" ry="3.2"/>
</g>
</g>
</svg>
