<?xml version="1.0" encoding="UTF-8" standalone="no"?>
<!DOCTYPE svg PUBLIC "-//W3C//DTD SVG 1.1//EN"
 "http://www.w3.org/Graphics/SVG/1.1/DTD/svg11.dtd">
<!-- Generated by graphviz version 2.38.0 (20140413.2041)
 -->
<!-- Title: oneDegreeRelationshipsDiagram Pages: 1 -->
<svg width="603pt" height="153pt"
 viewBox="0.00 0.00 603.00 153.00" xmlns="http://www.w3.org/2000/svg" xmlns:xlink="http://www.w3.org/1999/xlink">
<g id="graph0" class="graph" transform="scale(1 1) rotate(0) translate(4 149)">
<title>oneDegreeRelationshipsDiagram</title>
<polygon fill="#ffffff" stroke="none" points="-4,4 -4,-149 599,-149 599,4 -4,4"/>
<text text-anchor="middle" x="74.5" y="-7.2" font-family="Helvetica,sans-Serif" font-size="11.00">Generated by SchemaSpy</text>
<!-- container_contentredirectcontentguard -->
<g id="node1" class="node"><title>container_contentredirectcontentguard</title>
<g id="a_node1"><a xlink:href="../../tables/container_contentredirectcontentguard.html" xlink:title="container_contentredirectcontentguard" target="_top">
<polygon fill="#ffffff" stroke="none" points="213,-53 213,-141 587,-141 587,-53 213,-53"/>
<polygon fill="#f5f5f5" stroke="none" points="215,-117 215,-139 585,-139 585,-117 215,-117"/>
<polygon fill="none" stroke="black" points="215,-117 215,-139 585,-139 585,-117 215,-117"/>
<text text-anchor="start" x="220" y="-126.2" font-family="Helvetica,sans-Serif" font-weight="bold" font-size="11.00">container_contentredirectcontentguard</text>
<text text-anchor="start" x="546" y="-125.2" font-family="Helvetica,sans-Serif" font-size="11.00">[table]</text>
<polygon fill="none" stroke="black" points="215,-95 215,-117 475,-117 475,-95 215,-95"/>
<image xlink:href="../../images/primaryKeys.png" width="11px" height="12px" preserveAspectRatio="xMinYMin meet" x="220" y="-112"/>
<text text-anchor="start" x="235" y="-103.2" font-family="Helvetica,sans-Serif" font-size="11.00">contentguard_ptr_id</text>
<polygon fill="none" stroke="black" points="475,-95 475,-117 585,-117 585,-95 475,-95"/>
<text text-anchor="start" x="478" y="-103.2" font-family="Helvetica,sans-Serif" font-size="11.00">uuid[2147483647]</text>
<polygon fill="none" stroke="black" points="215,-73 215,-95 475,-95 475,-73 215,-73"/>
<text text-anchor="start" x="235" y="-81.2" font-family="Helvetica,sans-Serif" font-size="11.00">shared_secret</text>
<polygon fill="none" stroke="black" points="475,-73 475,-95 585,-95 585,-73 475,-73"/>
<text text-anchor="start" x="478" y="-81.2" font-family="Helvetica,sans-Serif" font-size="11.00">bytea[2147483647]</text>
<polygon fill="#ffffff" stroke="none" points="215,-55 215,-73 335,-73 335,-55 215,-55"/>
<polygon fill="none" stroke="black" points="215,-55 215,-73 335,-73 335,-55 215,-55"/>
<text text-anchor="start" x="218" y="-61.2" font-family="Helvetica,sans-Serif" font-size="11.00">&lt; 1</text>
<polygon fill="#ffffff" stroke="none" points="335,-55 335,-73 475,-73 475,-55 335,-55"/>
<polygon fill="none" stroke="black" points="335,-55 335,-73 475,-73 475,-55 335,-55"/>
<text text-anchor="start" x="436" y="-61.2" font-family="Helvetica,sans-Serif" font-size="11.00">0 rows</text>
<polygon fill="#ffffff" stroke="none" points="475,-55 475,-73 585,-73 585,-55 475,-55"/>
<polygon fill="none" stroke="black" points="475,-55 475,-73 585,-73 585,-55 475,-55"/>
<text text-anchor="start" x="565" y="-61.2" font-family="Helvetica,sans-Serif" font-size="11.00">0 &gt;</text>
<polygon fill="none" stroke="black" stroke-width="2" points="214,-54 214,-140 586,-140 586,-54 214,-54"/>
</a>
</g>
</g>
<!-- core_contentguard -->
<g id="node2" class="node"><title>core_contentguard</title>
<g id="a_node2"><a xlink:href="../../tables/core_contentguard.html" xlink:title="core_contentguard" target="_top">
<polygon fill="#ffffff" stroke="none" points="8,-37 8,-139 164,-139 164,-37 8,-37"/>
<polygon fill="#f5f5f5" stroke="none" points="8,-117 8,-139 164,-139 164,-117 8,-117"/>
<polygon fill="none" stroke="black" points="8,-117 8,-139 164,-139 164,-117 8,-117"/>
<text text-anchor="start" x="13" y="-126.2" font-family="Helvetica,sans-Serif" font-weight="bold" font-size="11.00">core_contentguard</text>
<text text-anchor="start" x="125" y="-125.2" font-family="Helvetica,sans-Serif" font-size="11.00">[table]</text>
<polygon fill="none" stroke="black" points="8,-95 8,-117 164,-117 164,-95 8,-95"/>
<image xlink:href="../../images/primaryKeys.png" width="11px" height="12px" preserveAspectRatio="xMinYMin meet" x="13" y="-112"/>
<text text-anchor="start" x="40" y="-103.2" font-family="Helvetica,sans-Serif" font-size="11.00">pulp_id</text>
<polygon fill="#ffffff" stroke="none" points="8,-73 8,-95 164,-95 164,-73 8,-73"/>
<polygon fill="none" stroke="black" points="8,-73 8,-95 164,-95 164,-73 8,-73"/>
<text text-anchor="start" x="40" y="-81.2" font-family="Helvetica,sans-Serif" font-size="11.00">name</text>
<polygon fill="none" stroke="black" points="8,-55 8,-73 164,-73 164,-55 8,-55"/>
<text text-anchor="start" x="11" y="-61.2" font-family="Helvetica,sans-Serif" font-size="11.00">...</text>
<polygon fill="#ffffff" stroke="none" points="8,-37 8,-55 60,-55 60,-37 8,-37"/>
<polygon fill="none" stroke="black" points="8,-37 8,-55 60,-55 60,-37 8,-37"/>
<text text-anchor="start" x="11" y="-43.2" font-family="Helvetica,sans-Serif" font-size="11.00"> &#160;</text>
<polygon fill="#ffffff" stroke="none" points="60,-37 60,-55 121,-55 121,-37 60,-37"/>
<polygon fill="none" stroke="black" points="60,-37 60,-55 121,-55 121,-37 60,-37"/>
<text text-anchor="start" x="82" y="-43.2" font-family="Helvetica,sans-Serif" font-size="11.00">0 rows</text>
<polygon fill="#ffffff" stroke="none" points="121,-37 121,-55 164,-55 164,-37 121,-37"/>
<polygon fill="none" stroke="black" points="121,-37 121,-55 164,-55 164,-37 121,-37"/>
<text text-anchor="start" x="144" y="-43.2" font-family="Helvetica,sans-Serif" font-size="11.00">2 &gt;</text>
</a>
</g>
</g>
<!-- container_contentredirectcontentguard&#45;&gt;core_contentguard -->
<g id="edge1" class="edge"><title>container_contentredirectcontentguard:contentguard_ptr_id:w&#45;&gt;core_contentguard:pulp_id:e</title>
<path fill="none" stroke="black" d="M203.257,-106C189.606,-106 182.694,-106 165,-106"/>
<polygon fill="black" stroke="black" points="213.2,-102 213.2,-110 211.6,-110 211.6,-102 213.2,-102"/>
<polyline fill="none" stroke="black" points="214,-106 210,-106 "/>
<ellipse fill="none" stroke="black" cx="206.8" cy="-106" rx="3.2" ry="3.2"/>
</g>
</g>
</svg>
