<?xml version="1.0" encoding="UTF-8" standalone="no"?>
<!DOCTYPE svg PUBLIC "-//W3C//DTD SVG 1.1//EN"
 "http://www.w3.org/Graphics/SVG/1.1/DTD/svg11.dtd">
<!-- Generated by graphviz version 2.38.0 (20140413.2041)
 -->
<!-- Title: twoDegreesRelationshipsDiagram Pages: 1 -->
<svg width="603pt" height="216pt"
 viewBox="0.00 0.00 603.00 216.00" xmlns="http://www.w3.org/2000/svg" xmlns:xlink="http://www.w3.org/1999/xlink">
<g id="graph0" class="graph" transform="scale(1 1) rotate(0) translate(4 212)">
<title>twoDegreesRelationshipsDiagram</title>
<polygon fill="#ffffff" stroke="none" points="-4,4 -4,-212 599,-212 599,4 -4,4"/>
<text text-anchor="middle" x="74.5" y="-7.2" font-family="Helvetica,sans-Serif" font-size="11.00">Generated by SchemaSpy</text>
<!-- container_contentredirectcontentguard -->
<g id="node1" class="node"><title>container_contentredirectcontentguard</title>
<g id="a_node1"><a xlink:href="../../tables/container_contentredirectcontentguard.html" xlink:title="container_contentredirectcontentguard" target="_top">
<polygon fill="#ffffff" stroke="none" points="213,-116 213,-204 587,-204 587,-116 213,-116"/>
<polygon fill="#f5f5f5" stroke="none" points="215,-180 215,-202 585,-202 585,-180 215,-180"/>
<polygon fill="none" stroke="black" points="215,-180 215,-202 585,-202 585,-180 215,-180"/>
<text text-anchor="start" x="220" y="-189.2" font-family="Helvetica,sans-Serif" font-weight="bold" font-size="11.00">container_contentredirectcontentguard</text>
<text text-anchor="start" x="546" y="-188.2" font-family="Helvetica,sans-Serif" font-size="11.00">[table]</text>
<polygon fill="none" stroke="black" points="215,-158 215,-180 475,-180 475,-158 215,-158"/>
<image xlink:href="../../images/primaryKeys.png" width="11px" height="12px" preserveAspectRatio="xMinYMin meet" x="220" y="-175"/>
<text text-anchor="start" x="235" y="-166.2" font-family="Helvetica,sans-Serif" font-size="11.00">contentguard_ptr_id</text>
<polygon fill="none" stroke="black" points="475,-158 475,-180 585,-180 585,-158 475,-158"/>
<text text-anchor="start" x="478" y="-166.2" font-family="Helvetica,sans-Serif" font-size="11.00">uuid[2147483647]</text>
<polygon fill="none" stroke="black" points="215,-136 215,-158 475,-158 475,-136 215,-136"/>
<text text-anchor="start" x="235" y="-144.2" font-family="Helvetica,sans-Serif" font-size="11.00">shared_secret</text>
<polygon fill="none" stroke="black" points="475,-136 475,-158 585,-158 585,-136 475,-136"/>
<text text-anchor="start" x="478" y="-144.2" font-family="Helvetica,sans-Serif" font-size="11.00">bytea[2147483647]</text>
<polygon fill="#ffffff" stroke="none" points="215,-118 215,-136 335,-136 335,-118 215,-118"/>
<polygon fill="none" stroke="black" points="215,-118 215,-136 335,-136 335,-118 215,-118"/>
<text text-anchor="start" x="218" y="-124.2" font-family="Helvetica,sans-Serif" font-size="11.00">&lt; 1</text>
<polygon fill="#ffffff" stroke="none" points="335,-118 335,-136 475,-136 475,-118 335,-118"/>
<polygon fill="none" stroke="black" points="335,-118 335,-136 475,-136 475,-118 335,-118"/>
<text text-anchor="start" x="436" y="-124.2" font-family="Helvetica,sans-Serif" font-size="11.00">0 rows</text>
<polygon fill="#ffffff" stroke="none" points="475,-118 475,-136 585,-136 585,-118 475,-118"/>
<polygon fill="none" stroke="black" points="475,-118 475,-136 585,-136 585,-118 475,-118"/>
<text text-anchor="start" x="565" y="-124.2" font-family="Helvetica,sans-Serif" font-size="11.00">0 &gt;</text>
<polygon fill="none" stroke="black" stroke-width="2" points="214,-117 214,-203 586,-203 586,-117 214,-117"/>
</a>
</g>
</g>
<!-- core_contentguard -->
<g id="node2" class="node"><title>core_contentguard</title>
<g id="a_node2"><a xlink:href="../../tables/core_contentguard.html" xlink:title="core_contentguard" target="_top">
<polygon fill="#ffffff" stroke="none" points="8,-47 8,-149 164,-149 164,-47 8,-47"/>
<polygon fill="#f5f5f5" stroke="none" points="8,-127 8,-149 164,-149 164,-127 8,-127"/>
<polygon fill="none" stroke="black" points="8,-127 8,-149 164,-149 164,-127 8,-127"/>
<text text-anchor="start" x="13" y="-136.2" font-family="Helvetica,sans-Serif" font-weight="bold" font-size="11.00">core_contentguard</text>
<text text-anchor="start" x="125" y="-135.2" font-family="Helvetica,sans-Serif" font-size="11.00">[table]</text>
<polygon fill="none" stroke="black" points="8,-105 8,-127 164,-127 164,-105 8,-105"/>
<image xlink:href="../../images/primaryKeys.png" width="11px" height="12px" preserveAspectRatio="xMinYMin meet" x="13" y="-122"/>
<text text-anchor="start" x="40" y="-113.2" font-family="Helvetica,sans-Serif" font-size="11.00">pulp_id</text>
<polygon fill="#ffffff" stroke="none" points="8,-83 8,-105 164,-105 164,-83 8,-83"/>
<polygon fill="none" stroke="black" points="8,-83 8,-105 164,-105 164,-83 8,-83"/>
<text text-anchor="start" x="40" y="-91.2" font-family="Helvetica,sans-Serif" font-size="11.00">name</text>
<polygon fill="none" stroke="black" points="8,-65 8,-83 164,-83 164,-65 8,-65"/>
<text text-anchor="start" x="11" y="-71.2" font-family="Helvetica,sans-Serif" font-size="11.00">...</text>
<polygon fill="#ffffff" stroke="none" points="8,-47 8,-65 60,-65 60,-47 8,-47"/>
<polygon fill="none" stroke="black" points="8,-47 8,-65 60,-65 60,-47 8,-47"/>
<text text-anchor="start" x="11" y="-53.2" font-family="Helvetica,sans-Serif" font-size="11.00"> &#160;</text>
<polygon fill="#ffffff" stroke="none" points="60,-47 60,-65 121,-65 121,-47 60,-47"/>
<polygon fill="none" stroke="black" points="60,-47 60,-65 121,-65 121,-47 60,-47"/>
<text text-anchor="start" x="82" y="-53.2" font-family="Helvetica,sans-Serif" font-size="11.00">0 rows</text>
<polygon fill="#ffffff" stroke="none" points="121,-47 121,-65 164,-65 164,-47 121,-47"/>
<polygon fill="none" stroke="black" points="121,-47 121,-65 164,-65 164,-47 121,-47"/>
<text text-anchor="start" x="144" y="-53.2" font-family="Helvetica,sans-Serif" font-size="11.00">2 &gt;</text>
</a>
</g>
</g>
<!-- container_contentredirectcontentguard&#45;&gt;core_contentguard -->
<g id="edge1" class="edge"><title>container_contentredirectcontentguard:contentguard_ptr_id:w&#45;&gt;core_contentguard:pulp_id:e</title>
<path fill="none" stroke="black" d="M203.497,-166.444C185.114,-155.857 192.82,-116 165,-116"/>
<polygon fill="black" stroke="black" points="214.169,-164.924 212.277,-172.697 210.722,-172.319 212.614,-164.546 214.169,-164.924"/>
<polyline fill="none" stroke="black" points="214,-169 210.113,-168.054 "/>
<ellipse fill="none" stroke="black" cx="207.004" cy="-167.297" rx="3.20001" ry="3.20001"/>
</g>
<!-- core_basedistribution -->
<g id="node3" class="node"><title>core_basedistribution</title>
<g id="a_node3"><a xlink:href="../../tables/core_basedistribution.html" xlink:title="core_basedistribution" target="_top">
<polygon fill="#ffffff" stroke="none" points="313.5,-37 313.5,-95 486.5,-95 486.5,-37 313.5,-37"/>
<polygon fill="#f5f5f5" stroke="none" points="314,-73 314,-95 487,-95 487,-73 314,-73"/>
<polygon fill="none" stroke="black" points="314,-73 314,-95 487,-95 487,-73 314,-73"/>
<text text-anchor="start" x="319" y="-82.2" font-family="Helvetica,sans-Serif" font-weight="bold" font-size="11.00">core_basedistribution</text>
<text text-anchor="start" x="448" y="-81.2" font-family="Helvetica,sans-Serif" font-size="11.00">[table]</text>
<polygon fill="none" stroke="black" points="314,-55 314,-73 487,-73 487,-55 314,-55"/>
<text text-anchor="start" x="317" y="-61.2" font-family="Helvetica,sans-Serif" font-size="11.00">...</text>
<polygon fill="#ffffff" stroke="none" points="314,-37 314,-55 376,-55 376,-37 314,-37"/>
<polygon fill="none" stroke="black" points="314,-37 314,-55 376,-55 376,-37 314,-37"/>
<text text-anchor="start" x="317" y="-43.2" font-family="Helvetica,sans-Serif" font-size="11.00">&lt; 2</text>
<polygon fill="#ffffff" stroke="none" points="376,-37 376,-55 444,-55 444,-37 376,-37"/>
<polygon fill="none" stroke="black" points="376,-37 376,-55 444,-55 444,-37 376,-37"/>
<text text-anchor="start" x="398" y="-43.2" font-family="Helvetica,sans-Serif" font-size="11.00">32 rows</text>
<polygon fill="#ffffff" stroke="none" points="444,-37 444,-55 487,-55 487,-37 444,-37"/>
<polygon fill="none" stroke="black" points="444,-37 444,-55 487,-55 487,-37 444,-37"/>
<text text-anchor="start" x="467" y="-43.2" font-family="Helvetica,sans-Serif" font-size="11.00">2 &gt;</text>
</a>
</g>
</g>
<!-- core_basedistribution&#45;&gt;core_contentguard -->
<g id="edge2" class="edge"><title>core_basedistribution:elipses:w&#45;&gt;core_contentguard:pulp_id:e</title>
<path fill="none" stroke="black" d="M298.58,-66.1029C259.818,-75.8312 195.639,-116 165,-116"/>
<polygon fill="black" stroke="black" points="305.084,-65.1545 313.52,-67.5623 309.042,-64.5772 313,-64 313,-64 313,-64 309.042,-64.5772 312.48,-60.4377 305.084,-65.1545 305.084,-65.1545"/>
<ellipse fill="none" stroke="black" cx="301.917" cy="-65.6163" rx="3.2" ry="3.2"/>
</g>
</g>
</svg>
