<?xml version="1.0" encoding="UTF-8" standalone="no"?>
<!DOCTYPE svg PUBLIC "-//W3C//DTD SVG 1.1//EN"
 "http://www.w3.org/Graphics/SVG/1.1/DTD/svg11.dtd">
<!-- Generated by graphviz version 2.38.0 (20140413.2041)
 -->
<!-- Title: oneDegreeRelationshipsDiagram Pages: 1 -->
<svg width="909pt" height="427pt"
 viewBox="0.00 0.00 909.00 427.00" xmlns="http://www.w3.org/2000/svg" xmlns:xlink="http://www.w3.org/1999/xlink">
<g id="graph0" class="graph" transform="scale(1 1) rotate(0) translate(4 423)">
<title>oneDegreeRelationshipsDiagram</title>
<polygon fill="#ffffff" stroke="none" points="-4,4 -4,-423 905,-423 905,4 -4,4"/>
<text text-anchor="middle" x="74.5" y="-7.2" font-family="Helvetica,sans-Serif" font-size="11.00">Generated by SchemaSpy</text>
<!-- container_blob -->
<g id="node1" class="node"><title>container_blob</title>
<g id="a_node1"><a xlink:href="../../tables/container_blob.html" xlink:title="container_blob" target="_top">
<polygon fill="#ffffff" stroke="none" points="186,-162 186,-264 320,-264 320,-162 186,-162"/>
<polygon fill="#f5f5f5" stroke="none" points="186,-242 186,-264 320,-264 320,-242 186,-242"/>
<polygon fill="none" stroke="black" points="186,-242 186,-264 320,-264 320,-242 186,-242"/>
<text text-anchor="start" x="191" y="-251.2" font-family="Helvetica,sans-Serif" font-weight="bold" font-size="11.00">container_blob</text>
<text text-anchor="start" x="281" y="-250.2" font-family="Helvetica,sans-Serif" font-size="11.00">[table]</text>
<polygon fill="none" stroke="black" points="186,-220 186,-242 320,-242 320,-220 186,-220"/>
<image xlink:href="../../images/primaryKeys.png" width="11px" height="12px" preserveAspectRatio="xMinYMin meet" x="191" y="-237"/>
<text text-anchor="start" x="218" y="-228.2" font-family="Helvetica,sans-Serif" font-size="11.00">content_ptr_id</text>
<polygon fill="#ffffff" stroke="none" points="186,-198 186,-220 320,-220 320,-198 186,-198"/>
<polygon fill="none" stroke="black" points="186,-198 186,-220 320,-220 320,-198 186,-198"/>
<text text-anchor="start" x="218" y="-206.2" font-family="Helvetica,sans-Serif" font-size="11.00">digest</text>
<polygon fill="none" stroke="black" points="186,-180 186,-198 320,-198 320,-180 186,-180"/>
<text text-anchor="start" x="189" y="-186.2" font-family="Helvetica,sans-Serif" font-size="11.00">...</text>
<polygon fill="#ffffff" stroke="none" points="186,-162 186,-180 232,-180 232,-162 186,-162"/>
<polygon fill="none" stroke="black" points="186,-162 186,-180 232,-180 232,-162 186,-162"/>
<text text-anchor="start" x="189" y="-168.2" font-family="Helvetica,sans-Serif" font-size="11.00">&lt; 1</text>
<polygon fill="#ffffff" stroke="none" points="232,-162 232,-180 285,-180 285,-162 232,-162"/>
<polygon fill="none" stroke="black" points="232,-162 232,-180 285,-180 285,-162 232,-162"/>
<text text-anchor="start" x="246" y="-168.2" font-family="Helvetica,sans-Serif" font-size="11.00">0 rows</text>
<polygon fill="#ffffff" stroke="none" points="285,-162 285,-180 320,-180 320,-162 285,-162"/>
<polygon fill="none" stroke="black" points="285,-162 285,-180 320,-180 320,-162 285,-162"/>
<text text-anchor="start" x="300" y="-168.2" font-family="Helvetica,sans-Serif" font-size="11.00">2 &gt;</text>
</a>
</g>
</g>
<!-- core_content -->
<g id="node2" class="node"><title>core_content</title>
<g id="a_node2"><a xlink:href="../../tables/core_content.html" xlink:title="core_content" target="_top">
<polygon fill="#ffffff" stroke="none" points="8,-184 8,-264 137,-264 137,-184 8,-184"/>
<polygon fill="#f5f5f5" stroke="none" points="8.5,-242 8.5,-264 137.5,-264 137.5,-242 8.5,-242"/>
<polygon fill="none" stroke="black" points="8.5,-242 8.5,-264 137.5,-264 137.5,-242 8.5,-242"/>
<text text-anchor="start" x="13.5" y="-251.2" font-family="Helvetica,sans-Serif" font-weight="bold" font-size="11.00">core_content</text>
<text text-anchor="start" x="98.5" y="-250.2" font-family="Helvetica,sans-Serif" font-size="11.00">[table]</text>
<polygon fill="none" stroke="black" points="8.5,-220 8.5,-242 137.5,-242 137.5,-220 8.5,-220"/>
<image xlink:href="../../images/primaryKeys.png" width="11px" height="12px" preserveAspectRatio="xMinYMin meet" x="13.5" y="-237"/>
<text text-anchor="start" x="28.5" y="-228.2" font-family="Helvetica,sans-Serif" font-size="11.00">pulp_id</text>
<polygon fill="none" stroke="black" points="8.5,-202 8.5,-220 137.5,-220 137.5,-202 8.5,-202"/>
<text text-anchor="start" x="11.5" y="-208.2" font-family="Helvetica,sans-Serif" font-size="11.00">...</text>
<polygon fill="#ffffff" stroke="none" points="8.5,-184 8.5,-202 43.5,-202 43.5,-184 8.5,-184"/>
<polygon fill="none" stroke="black" points="8.5,-184 8.5,-202 43.5,-202 43.5,-184 8.5,-184"/>
<text text-anchor="start" x="11.5" y="-190.2" font-family="Helvetica,sans-Serif" font-size="11.00"> &#160;</text>
<polygon fill="#ffffff" stroke="none" points="43.5,-184 43.5,-202 103.5,-202 103.5,-184 43.5,-184"/>
<polygon fill="none" stroke="black" points="43.5,-184 43.5,-202 103.5,-202 103.5,-184 43.5,-184"/>
<text text-anchor="start" x="57.5" y="-190.2" font-family="Helvetica,sans-Serif" font-size="11.00">88 rows</text>
<polygon fill="#ffffff" stroke="none" points="103.5,-184 103.5,-202 137.5,-202 137.5,-184 103.5,-184"/>
<polygon fill="none" stroke="black" points="103.5,-184 103.5,-202 137.5,-202 137.5,-184 103.5,-184"/>
<text text-anchor="start" x="117.5" y="-190.2" font-family="Helvetica,sans-Serif" font-size="11.00">8 &gt;</text>
</a>
</g>
</g>
<!-- container_blob&#45;&gt;core_content -->
<g id="edge1" class="edge"><title>container_blob:content_ptr_id:w&#45;&gt;core_content:pulp_id:e</title>
<path fill="none" stroke="black" d="M174.433,-231C161.724,-231 155.13,-231 138.5,-231"/>
<polygon fill="black" stroke="black" points="184.2,-227 184.2,-235 182.6,-235 182.6,-227 184.2,-227"/>
<polyline fill="none" stroke="black" points="185,-231 181,-231 "/>
<ellipse fill="none" stroke="black" cx="177.8" cy="-231" rx="3.2" ry="3.2"/>
</g>
<!-- container_blobmanifest -->
<g id="node3" class="node"><title>container_blobmanifest</title>
<g id="a_node3"><a xlink:href="../../tables/container_blobmanifest.html" xlink:title="container_blobmanifest" target="_top">
<polygon fill="#ffffff" stroke="none" points="686,-164 686,-270 871,-270 871,-164 686,-164"/>
<polygon fill="#f5f5f5" stroke="none" points="686.5,-248 686.5,-270 871.5,-270 871.5,-248 686.5,-248"/>
<polygon fill="none" stroke="black" points="686.5,-248 686.5,-270 871.5,-270 871.5,-248 686.5,-248"/>
<text text-anchor="start" x="691.5" y="-257.2" font-family="Helvetica,sans-Serif" font-weight="bold" font-size="11.00">container_blobmanifest</text>
<text text-anchor="start" x="832.5" y="-256.2" font-family="Helvetica,sans-Serif" font-size="11.00">[table]</text>
<polygon fill="none" stroke="black" points="686.5,-226 686.5,-248 871.5,-248 871.5,-226 686.5,-226"/>
<image xlink:href="../../images/primaryKeys.png" width="11px" height="12px" preserveAspectRatio="xMinYMin meet" x="691.5" y="-243"/>
<text text-anchor="start" x="717.5" y="-234.2" font-family="Helvetica,sans-Serif" font-size="11.00">id</text>
<polygon fill="#ffffff" stroke="none" points="686.5,-204 686.5,-226 871.5,-226 871.5,-204 686.5,-204"/>
<polygon fill="none" stroke="black" points="686.5,-204 686.5,-226 871.5,-226 871.5,-204 686.5,-204"/>
<image xlink:href="../../images/foreignKeys.png" width="11px" height="12px" preserveAspectRatio="xMinYMin meet" x="691.5" y="-221"/>
<text text-anchor="start" x="717.5" y="-212.2" font-family="Helvetica,sans-Serif" font-size="11.00">manifest_id</text>
<polygon fill="#ffffff" stroke="none" points="686.5,-182 686.5,-204 871.5,-204 871.5,-182 686.5,-182"/>
<polygon fill="none" stroke="black" points="686.5,-182 686.5,-204 871.5,-204 871.5,-182 686.5,-182"/>
<image xlink:href="../../images/foreignKeys.png" width="11px" height="12px" preserveAspectRatio="xMinYMin meet" x="691.5" y="-199"/>
<text text-anchor="start" x="717.5" y="-190.2" font-family="Helvetica,sans-Serif" font-size="11.00">manifest_blob_id</text>
<polygon fill="#ffffff" stroke="none" points="686.5,-164 686.5,-182 762.5,-182 762.5,-164 686.5,-164"/>
<polygon fill="none" stroke="black" points="686.5,-164 686.5,-182 762.5,-182 762.5,-164 686.5,-164"/>
<text text-anchor="start" x="689.5" y="-170.2" font-family="Helvetica,sans-Serif" font-size="11.00">&lt; 2</text>
<polygon fill="#ffffff" stroke="none" points="762.5,-164 762.5,-182 831.5,-182 831.5,-164 762.5,-164"/>
<polygon fill="none" stroke="black" points="762.5,-164 762.5,-182 831.5,-182 831.5,-164 762.5,-164"/>
<text text-anchor="start" x="792.5" y="-170.2" font-family="Helvetica,sans-Serif" font-size="11.00">0 rows</text>
<polygon fill="#ffffff" stroke="none" points="831.5,-164 831.5,-182 871.5,-182 871.5,-164 831.5,-164"/>
<polygon fill="none" stroke="black" points="831.5,-164 831.5,-182 871.5,-182 871.5,-164 831.5,-164"/>
<text text-anchor="start" x="861.5" y="-170.2" font-family="Helvetica,sans-Serif" font-size="11.00"> &#160;</text>
</a>
</g>
</g>
<!-- container_blobmanifest&#45;&gt;container_blob -->
<g id="edge2" class="edge"><title>container_blobmanifest:manifest_blob_id:w&#45;&gt;container_blob:content_ptr_id:e</title>
<path fill="none" stroke="black" d="M671.051,-192.867C538.122,-190.414 492.632,-155.313 361,-201 340.006,-208.287 343.222,-231 321,-231"/>
<polygon fill="black" stroke="black" points="677.5,-192.926 685.467,-196.6 681.5,-192.963 685.5,-193 685.5,-193 685.5,-193 681.5,-192.963 685.533,-189.4 677.5,-192.926 677.5,-192.926"/>
<ellipse fill="none" stroke="black" cx="674.3" cy="-192.897" rx="3.2" ry="3.2"/>
</g>
<!-- container_manifest -->
<g id="node4" class="node"><title>container_manifest</title>
<g id="a_node4"><a xlink:href="../../tables/container_manifest.html" xlink:title="container_manifest" target="_top">
<polygon fill="#ffffff" stroke="none" points="369,-211 369,-365 615,-365 615,-211 369,-211"/>
<polygon fill="#f5f5f5" stroke="none" points="371,-341 371,-363 613,-363 613,-341 371,-341"/>
<polygon fill="none" stroke="black" points="371,-341 371,-363 613,-363 613,-341 371,-341"/>
<text text-anchor="start" x="376" y="-350.2" font-family="Helvetica,sans-Serif" font-weight="bold" font-size="11.00">container_manifest</text>
<text text-anchor="start" x="574" y="-349.2" font-family="Helvetica,sans-Serif" font-size="11.00">[table]</text>
<polygon fill="none" stroke="black" points="371,-319 371,-341 508,-341 508,-319 371,-319"/>
<image xlink:href="../../images/primaryKeys.png" width="11px" height="12px" preserveAspectRatio="xMinYMin meet" x="376" y="-336"/>
<text text-anchor="start" x="391" y="-327.2" font-family="Helvetica,sans-Serif" font-size="11.00">content_ptr_id</text>
<polygon fill="none" stroke="black" points="508,-319 508,-341 613,-341 613,-319 508,-319"/>
<text text-anchor="start" x="511" y="-327.2" font-family="Helvetica,sans-Serif" font-size="11.00">uuid[2147483647]</text>
<polygon fill="#ffffff" stroke="none" points="371,-297 371,-319 508,-319 508,-297 371,-297"/>
<polygon fill="none" stroke="black" points="371,-297 371,-319 508,-319 508,-297 371,-297"/>
<text text-anchor="start" x="391" y="-305.2" font-family="Helvetica,sans-Serif" font-size="11.00">digest</text>
<polygon fill="none" stroke="black" points="508,-297 508,-319 613,-319 613,-297 508,-297"/>
<text text-anchor="start" x="511" y="-305.2" font-family="Helvetica,sans-Serif" font-size="11.00">varchar[255]</text>
<polygon fill="none" stroke="black" points="371,-275 371,-297 508,-297 508,-275 371,-275"/>
<text text-anchor="start" x="391" y="-283.2" font-family="Helvetica,sans-Serif" font-size="11.00">schema_version</text>
<polygon fill="none" stroke="black" points="508,-275 508,-297 613,-297 613,-275 508,-275"/>
<text text-anchor="start" x="511" y="-283.2" font-family="Helvetica,sans-Serif" font-size="11.00">int4[10]</text>
<polygon fill="none" stroke="black" points="371,-253 371,-275 508,-275 508,-253 371,-253"/>
<text text-anchor="start" x="391" y="-261.2" font-family="Helvetica,sans-Serif" font-size="11.00">media_type</text>
<polygon fill="none" stroke="black" points="508,-253 508,-275 613,-275 613,-253 508,-253"/>
<text text-anchor="start" x="511" y="-261.2" font-family="Helvetica,sans-Serif" font-size="11.00">varchar[60]</text>
<polygon fill="#ffffff" stroke="none" points="371,-231 371,-253 508,-253 508,-231 371,-231"/>
<polygon fill="none" stroke="black" points="371,-231 371,-253 508,-253 508,-231 371,-231"/>
<image xlink:href="../../images/foreignKeys.png" width="11px" height="12px" preserveAspectRatio="xMinYMin meet" x="376" y="-248"/>
<text text-anchor="start" x="391" y="-239.2" font-family="Helvetica,sans-Serif" font-size="11.00">config_blob_id</text>
<polygon fill="none" stroke="black" points="508,-231 508,-253 613,-253 613,-231 508,-231"/>
<text text-anchor="start" x="511" y="-239.2" font-family="Helvetica,sans-Serif" font-size="11.00">uuid[2147483647]</text>
<polygon fill="#ffffff" stroke="none" points="371,-213 371,-231 430,-231 430,-213 371,-213"/>
<polygon fill="none" stroke="black" points="371,-213 371,-231 430,-231 430,-213 371,-213"/>
<text text-anchor="start" x="374" y="-219.2" font-family="Helvetica,sans-Serif" font-size="11.00">&lt; 2</text>
<polygon fill="#ffffff" stroke="none" points="430,-213 430,-231 508,-231 508,-213 430,-213"/>
<polygon fill="none" stroke="black" points="430,-213 430,-231 508,-231 508,-213 430,-213"/>
<text text-anchor="start" x="469" y="-219.2" font-family="Helvetica,sans-Serif" font-size="11.00">0 rows</text>
<polygon fill="#ffffff" stroke="none" points="508,-213 508,-231 613,-231 613,-213 508,-213"/>
<polygon fill="none" stroke="black" points="508,-213 508,-231 613,-231 613,-213 508,-213"/>
<text text-anchor="start" x="593" y="-219.2" font-family="Helvetica,sans-Serif" font-size="11.00">4 &gt;</text>
<polygon fill="none" stroke="black" stroke-width="2" points="370,-212 370,-364 614,-364 614,-212 370,-212"/>
</a>
</g>
</g>
<!-- container_blobmanifest&#45;&gt;container_manifest -->
<g id="edge3" class="edge"><title>container_blobmanifest:manifest_id:w&#45;&gt;container_manifest:content_ptr_id.type:e</title>
<path fill="none" stroke="black" d="M671.269,-217.843C633.52,-235.552 668.542,-330 614,-330"/>
<polygon fill="black" stroke="black" points="677.655,-216.567 686.205,-218.53 681.577,-215.784 685.5,-215 685.5,-215 685.5,-215 681.577,-215.784 684.795,-211.47 677.655,-216.567 677.655,-216.567"/>
<ellipse fill="none" stroke="black" cx="674.517" cy="-217.194" rx="3.2" ry="3.2"/>
</g>
<!-- container_manifest&#45;&gt;container_blob -->
<g id="edge4" class="edge"><title>container_manifest:config_blob_id:w&#45;&gt;container_blob:content_ptr_id:e</title>
<path fill="none" stroke="black" d="M355.703,-240.184C344.238,-237.059 337.565,-231 321,-231"/>
<polygon fill="black" stroke="black" points="362.064,-240.992 369.546,-245.571 366.032,-241.496 370,-242 370,-242 370,-242 366.032,-241.496 370.454,-238.429 362.064,-240.992 362.064,-240.992"/>
<ellipse fill="none" stroke="black" cx="358.889" cy="-240.588" rx="3.2" ry="3.2"/>
</g>
<!-- container_manifest&#45;&gt;core_content -->
<g id="edge5" class="edge"><title>container_manifest:content_ptr_id:w&#45;&gt;core_content:pulp_id:e</title>
<path fill="none" stroke="black" d="M359.377,-329.958C278.859,-329.285 250.162,-320.153 178,-275 155.722,-261.06 164.78,-231 138.5,-231"/>
<polygon fill="black" stroke="black" points="369.216,-325.997 369.184,-333.997 367.584,-333.99 367.616,-325.99 369.216,-325.997"/>
<polyline fill="none" stroke="black" points="370,-330 366,-329.984 "/>
<ellipse fill="none" stroke="black" cx="362.8" cy="-329.971" rx="3.2" ry="3.2"/>
</g>
<!-- container_manifestlistmanifest -->
<g id="node5" class="node"><title>container_manifestlistmanifest</title>
<g id="a_node5"><a xlink:href="../../tables/container_manifestlistmanifest.html" xlink:title="container_manifestlistmanifest" target="_top">
<polygon fill="#ffffff" stroke="none" points="664,-291 664,-415 893,-415 893,-291 664,-291"/>
<polygon fill="#f5f5f5" stroke="none" points="664.5,-393 664.5,-415 893.5,-415 893.5,-393 664.5,-393"/>
<polygon fill="none" stroke="black" points="664.5,-393 664.5,-415 893.5,-415 893.5,-393 664.5,-393"/>
<text text-anchor="start" x="669.5" y="-402.2" font-family="Helvetica,sans-Serif" font-weight="bold" font-size="11.00">container_manifestlistmanifest</text>
<text text-anchor="start" x="854.5" y="-401.2" font-family="Helvetica,sans-Serif" font-size="11.00">[table]</text>
<polygon fill="none" stroke="black" points="664.5,-371 664.5,-393 893.5,-393 893.5,-371 664.5,-371"/>
<image xlink:href="../../images/primaryKeys.png" width="11px" height="12px" preserveAspectRatio="xMinYMin meet" x="669.5" y="-388"/>
<text text-anchor="start" x="694.5" y="-379.2" font-family="Helvetica,sans-Serif" font-size="11.00">id</text>
<polygon fill="#ffffff" stroke="none" points="664.5,-349 664.5,-371 893.5,-371 893.5,-349 664.5,-349"/>
<polygon fill="none" stroke="black" points="664.5,-349 664.5,-371 893.5,-371 893.5,-349 664.5,-349"/>
<image xlink:href="../../images/foreignKeys.png" width="11px" height="12px" preserveAspectRatio="xMinYMin meet" x="669.5" y="-366"/>
<text text-anchor="start" x="694.5" y="-357.2" font-family="Helvetica,sans-Serif" font-size="11.00">image_manifest_id</text>
<polygon fill="#ffffff" stroke="none" points="664.5,-327 664.5,-349 893.5,-349 893.5,-327 664.5,-327"/>
<polygon fill="none" stroke="black" points="664.5,-327 664.5,-349 893.5,-349 893.5,-327 664.5,-327"/>
<image xlink:href="../../images/foreignKeys.png" width="11px" height="12px" preserveAspectRatio="xMinYMin meet" x="669.5" y="-344"/>
<text text-anchor="start" x="694.5" y="-335.2" font-family="Helvetica,sans-Serif" font-size="11.00">manifest_list_id</text>
<polygon fill="none" stroke="black" points="664.5,-309 664.5,-327 893.5,-327 893.5,-309 664.5,-309"/>
<text text-anchor="start" x="667.5" y="-315.2" font-family="Helvetica,sans-Serif" font-size="11.00">...</text>
<polygon fill="#ffffff" stroke="none" points="664.5,-291 664.5,-309 762.5,-309 762.5,-291 664.5,-291"/>
<polygon fill="none" stroke="black" points="664.5,-291 664.5,-309 762.5,-309 762.5,-291 664.5,-291"/>
<text text-anchor="start" x="667.5" y="-297.2" font-family="Helvetica,sans-Serif" font-size="11.00">&lt; 2</text>
<polygon fill="#ffffff" stroke="none" points="762.5,-291 762.5,-309 842.5,-309 842.5,-291 762.5,-291"/>
<polygon fill="none" stroke="black" points="762.5,-291 762.5,-309 842.5,-309 842.5,-291 762.5,-291"/>
<text text-anchor="start" x="803.5" y="-297.2" font-family="Helvetica,sans-Serif" font-size="11.00">0 rows</text>
<polygon fill="#ffffff" stroke="none" points="842.5,-291 842.5,-309 893.5,-309 893.5,-291 842.5,-291"/>
<polygon fill="none" stroke="black" points="842.5,-291 842.5,-309 893.5,-309 893.5,-291 842.5,-291"/>
<text text-anchor="start" x="883.5" y="-297.2" font-family="Helvetica,sans-Serif" font-size="11.00"> &#160;</text>
</a>
</g>
</g>
<!-- container_manifestlistmanifest&#45;&gt;container_manifest -->
<g id="edge6" class="edge"><title>container_manifestlistmanifest:image_manifest_id:w&#45;&gt;container_manifest:content_ptr_id.type:e</title>
<path fill="none" stroke="black" d="M649.633,-356.078C637.238,-347.946 633.897,-330 614,-330"/>
<polygon fill="black" stroke="black" points="655.802,-357.823 662.52,-363.464 659.651,-358.911 663.5,-360 663.5,-360 663.5,-360 659.651,-358.911 664.48,-356.536 655.802,-357.823 655.802,-357.823"/>
<ellipse fill="none" stroke="black" cx="652.723" cy="-356.952" rx="3.20001" ry="3.20001"/>
</g>
<!-- container_manifestlistmanifest&#45;&gt;container_manifest -->
<g id="edge7" class="edge"><title>container_manifestlistmanifest:manifest_list_id:w&#45;&gt;container_manifest:content_ptr_id.type:e</title>
<path fill="none" stroke="black" d="M649.13,-336.679C637.519,-334.407 630.54,-330 614,-330"/>
<polygon fill="black" stroke="black" points="655.534,-337.268 663.17,-341.585 659.517,-337.634 663.5,-338 663.5,-338 663.5,-338 659.517,-337.634 663.83,-334.415 655.534,-337.268 655.534,-337.268"/>
<ellipse fill="none" stroke="black" cx="652.347" cy="-336.975" rx="3.2" ry="3.2"/>
</g>
<!-- container_tag -->
<g id="node6" class="node"><title>container_tag</title>
<g id="a_node6"><a xlink:href="../../tables/container_tag.html" xlink:title="container_tag" target="_top">
<polygon fill="#ffffff" stroke="none" points="710.5,-37 710.5,-143 846.5,-143 846.5,-37 710.5,-37"/>
<polygon fill="#f5f5f5" stroke="none" points="710.5,-121 710.5,-143 846.5,-143 846.5,-121 710.5,-121"/>
<polygon fill="none" stroke="black" points="710.5,-121 710.5,-143 846.5,-143 846.5,-121 710.5,-121"/>
<text text-anchor="start" x="715.5" y="-130.2" font-family="Helvetica,sans-Serif" font-weight="bold" font-size="11.00">container_tag</text>
<text text-anchor="start" x="807.5" y="-129.2" font-family="Helvetica,sans-Serif" font-size="11.00">[table]</text>
<polygon fill="none" stroke="black" points="710.5,-99 710.5,-121 846.5,-121 846.5,-99 710.5,-99"/>
<image xlink:href="../../images/primaryKeys.png" width="11px" height="12px" preserveAspectRatio="xMinYMin meet" x="715.5" y="-116"/>
<text text-anchor="start" x="730.5" y="-107.2" font-family="Helvetica,sans-Serif" font-size="11.00">content_ptr_id</text>
<polygon fill="#ffffff" stroke="none" points="710.5,-77 710.5,-99 846.5,-99 846.5,-77 710.5,-77"/>
<polygon fill="none" stroke="black" points="710.5,-77 710.5,-99 846.5,-99 846.5,-77 710.5,-77"/>
<text text-anchor="start" x="730.5" y="-85.2" font-family="Helvetica,sans-Serif" font-size="11.00">name</text>
<polygon fill="#ffffff" stroke="none" points="710.5,-55 710.5,-77 846.5,-77 846.5,-55 710.5,-55"/>
<polygon fill="none" stroke="black" points="710.5,-55 710.5,-77 846.5,-77 846.5,-55 710.5,-55"/>
<image xlink:href="../../images/foreignKeys.png" width="11px" height="12px" preserveAspectRatio="xMinYMin meet" x="715.5" y="-72"/>
<text text-anchor="start" x="730.5" y="-63.2" font-family="Helvetica,sans-Serif" font-size="11.00">tagged_manifest_id</text>
<polygon fill="#ffffff" stroke="none" points="710.5,-37 710.5,-55 762.5,-55 762.5,-37 710.5,-37"/>
<polygon fill="none" stroke="black" points="710.5,-37 710.5,-55 762.5,-55 762.5,-37 710.5,-37"/>
<text text-anchor="start" x="713.5" y="-43.2" font-family="Helvetica,sans-Serif" font-size="11.00">&lt; 2</text>
<polygon fill="#ffffff" stroke="none" points="762.5,-37 762.5,-55 818.5,-55 818.5,-37 762.5,-37"/>
<polygon fill="none" stroke="black" points="762.5,-37 762.5,-55 818.5,-55 818.5,-37 762.5,-37"/>
<text text-anchor="start" x="779.5" y="-43.2" font-family="Helvetica,sans-Serif" font-size="11.00">0 rows</text>
<polygon fill="#ffffff" stroke="none" points="818.5,-37 818.5,-55 846.5,-55 846.5,-37 818.5,-37"/>
<polygon fill="none" stroke="black" points="818.5,-37 818.5,-55 846.5,-55 846.5,-37 818.5,-37"/>
<text text-anchor="start" x="836.5" y="-43.2" font-family="Helvetica,sans-Serif" font-size="11.00"> &#160;</text>
</a>
</g>
</g>
<!-- container_tag&#45;&gt;core_content -->
<g id="edge8" class="edge"><title>container_tag:content_ptr_id:w&#45;&gt;core_content:pulp_id:e</title>
<path fill="none" stroke="black" d="M698.834,-109.939C469.551,-107.314 371.527,-21.5792 178,-152 145.447,-173.938 177.755,-231 138.5,-231"/>
<polygon fill="black" stroke="black" points="708.723,-105.995 708.677,-113.995 707.077,-113.986 707.123,-105.986 708.723,-105.995"/>
<polyline fill="none" stroke="black" points="709.5,-110 705.5,-109.977 "/>
<ellipse fill="none" stroke="black" cx="702.3" cy="-109.959" rx="3.2" ry="3.2"/>
</g>
<!-- container_tag&#45;&gt;container_manifest -->
<g id="edge9" class="edge"><title>container_tag:tagged_manifest_id:w&#45;&gt;container_manifest:content_ptr_id.type:e</title>
<path fill="none" stroke="black" d="M695.165,-67.922C665.676,-77.0116 671.304,-116.796 656,-154 625.407,-228.372 694.419,-330 614,-330"/>
<polygon fill="black" stroke="black" points="701.571,-67.0632 709.978,-69.5681 705.535,-66.5316 709.5,-66 709.5,-66 709.5,-66 705.535,-66.5316 709.022,-62.4319 701.571,-67.0632 701.571,-67.0632"/>
<ellipse fill="none" stroke="black" cx="698.399" cy="-67.4884" rx="3.2" ry="3.2"/>
</g>
</g>
</svg>
