<?xml version="1.0" encoding="UTF-8" standalone="no"?>
<!DOCTYPE svg PUBLIC "-//W3C//DTD SVG 1.1//EN"
 "http://www.w3.org/Graphics/SVG/1.1/DTD/svg11.dtd">
<!-- Generated by graphviz version 2.38.0 (20140413.2041)
 -->
<!-- Title: oneDegreeRelationshipsDiagram Pages: 1 -->
<svg width="760pt" height="433pt"
 viewBox="0.00 0.00 760.00 433.00" xmlns="http://www.w3.org/2000/svg" xmlns:xlink="http://www.w3.org/1999/xlink">
<g id="graph0" class="graph" transform="scale(1 1) rotate(0) translate(4 429)">
<title>oneDegreeRelationshipsDiagram</title>
<polygon fill="#ffffff" stroke="none" points="-4,4 -4,-429 756,-429 756,4 -4,4"/>
<text text-anchor="middle" x="74.5" y="-7.2" font-family="Helvetica,sans-Serif" font-size="11.00">Generated by SchemaSpy</text>
<!-- container_containerdistribution -->
<g id="node1" class="node"><title>container_containerdistribution</title>
<g id="a_node1"><a xlink:href="../../tables/container_containerdistribution.html" xlink:title="container_containerdistribution" target="_top">
<polygon fill="#ffffff" stroke="none" points="422,-176 422,-286 744,-286 744,-176 422,-176"/>
<polygon fill="#f5f5f5" stroke="none" points="424,-262 424,-284 742,-284 742,-262 424,-262"/>
<polygon fill="none" stroke="black" points="424,-262 424,-284 742,-284 742,-262 424,-262"/>
<text text-anchor="start" x="429" y="-271.2" font-family="Helvetica,sans-Serif" font-weight="bold" font-size="11.00">container_containerdistribution</text>
<text text-anchor="start" x="703" y="-270.2" font-family="Helvetica,sans-Serif" font-size="11.00">[table]</text>
<polygon fill="none" stroke="black" points="424,-240 424,-262 637,-262 637,-240 424,-240"/>
<image xlink:href="../../images/primaryKeys.png" width="11px" height="12px" preserveAspectRatio="xMinYMin meet" x="429" y="-257"/>
<text text-anchor="start" x="444" y="-248.2" font-family="Helvetica,sans-Serif" font-size="11.00">basedistribution_ptr_id</text>
<polygon fill="none" stroke="black" points="637,-240 637,-262 742,-262 742,-240 637,-240"/>
<text text-anchor="start" x="640" y="-248.2" font-family="Helvetica,sans-Serif" font-size="11.00">uuid[2147483647]</text>
<polygon fill="#ffffff" stroke="none" points="424,-218 424,-240 637,-240 637,-218 424,-218"/>
<polygon fill="none" stroke="black" points="424,-218 424,-240 637,-240 637,-218 424,-218"/>
<image xlink:href="../../images/foreignKeys.png" width="11px" height="12px" preserveAspectRatio="xMinYMin meet" x="429" y="-235"/>
<text text-anchor="start" x="444" y="-226.2" font-family="Helvetica,sans-Serif" font-size="11.00">repository_id</text>
<polygon fill="none" stroke="black" points="637,-218 637,-240 742,-240 742,-218 637,-218"/>
<text text-anchor="start" x="640" y="-226.2" font-family="Helvetica,sans-Serif" font-size="11.00">uuid[2147483647]</text>
<polygon fill="#ffffff" stroke="none" points="424,-196 424,-218 637,-218 637,-196 424,-196"/>
<polygon fill="none" stroke="black" points="424,-196 424,-218 637,-218 637,-196 424,-196"/>
<image xlink:href="../../images/foreignKeys.png" width="11px" height="12px" preserveAspectRatio="xMinYMin meet" x="429" y="-213"/>
<text text-anchor="start" x="444" y="-204.2" font-family="Helvetica,sans-Serif" font-size="11.00">repository_version_id</text>
<polygon fill="none" stroke="black" points="637,-196 637,-218 742,-218 742,-196 637,-196"/>
<text text-anchor="start" x="640" y="-204.2" font-family="Helvetica,sans-Serif" font-size="11.00">uuid[2147483647]</text>
<polygon fill="#ffffff" stroke="none" points="424,-178 424,-196 521,-196 521,-178 424,-178"/>
<polygon fill="none" stroke="black" points="424,-178 424,-196 521,-196 521,-178 424,-178"/>
<text text-anchor="start" x="427" y="-184.2" font-family="Helvetica,sans-Serif" font-size="11.00">&lt; 3</text>
<polygon fill="#ffffff" stroke="none" points="521,-178 521,-196 637,-196 637,-178 521,-178"/>
<polygon fill="none" stroke="black" points="521,-178 521,-196 637,-196 637,-178 521,-178"/>
<text text-anchor="start" x="598" y="-184.2" font-family="Helvetica,sans-Serif" font-size="11.00">0 rows</text>
<polygon fill="#ffffff" stroke="none" points="637,-178 637,-196 742,-196 742,-178 637,-178"/>
<polygon fill="none" stroke="black" points="637,-178 637,-196 742,-196 742,-178 637,-178"/>
<text text-anchor="start" x="722" y="-184.2" font-family="Helvetica,sans-Serif" font-size="11.00">0 &gt;</text>
<polygon fill="none" stroke="black" stroke-width="2" points="423,-177 423,-285 743,-285 743,-177 423,-177"/>
</a>
</g>
</g>
<!-- core_basedistribution -->
<g id="node2" class="node"><title>core_basedistribution</title>
<g id="a_node2"><a xlink:href="../../tables/core_basedistribution.html" xlink:title="core_basedistribution" target="_top">
<polygon fill="#ffffff" stroke="none" points="197,-253 197,-421 370,-421 370,-253 197,-253"/>
<polygon fill="#f5f5f5" stroke="none" points="197.5,-399 197.5,-421 370.5,-421 370.5,-399 197.5,-399"/>
<polygon fill="none" stroke="black" points="197.5,-399 197.5,-421 370.5,-421 370.5,-399 197.5,-399"/>
<text text-anchor="start" x="202.5" y="-408.2" font-family="Helvetica,sans-Serif" font-weight="bold" font-size="11.00">core_basedistribution</text>
<text text-anchor="start" x="331.5" y="-407.2" font-family="Helvetica,sans-Serif" font-size="11.00">[table]</text>
<polygon fill="none" stroke="black" points="197.5,-377 197.5,-399 370.5,-399 370.5,-377 197.5,-377"/>
<image xlink:href="../../images/primaryKeys.png" width="11px" height="12px" preserveAspectRatio="xMinYMin meet" x="202.5" y="-394"/>
<text text-anchor="start" x="228.5" y="-385.2" font-family="Helvetica,sans-Serif" font-size="11.00">pulp_id</text>
<polygon fill="#ffffff" stroke="none" points="197.5,-355 197.5,-377 370.5,-377 370.5,-355 197.5,-355"/>
<polygon fill="none" stroke="black" points="197.5,-355 197.5,-377 370.5,-377 370.5,-355 197.5,-355"/>
<text text-anchor="start" x="228.5" y="-363.2" font-family="Helvetica,sans-Serif" font-size="11.00">name</text>
<polygon fill="#ffffff" stroke="none" points="197.5,-333 197.5,-355 370.5,-355 370.5,-333 197.5,-333"/>
<polygon fill="none" stroke="black" points="197.5,-333 197.5,-355 370.5,-355 370.5,-333 197.5,-333"/>
<text text-anchor="start" x="228.5" y="-341.2" font-family="Helvetica,sans-Serif" font-size="11.00">base_path</text>
<polygon fill="#ffffff" stroke="none" points="197.5,-311 197.5,-333 370.5,-333 370.5,-311 197.5,-311"/>
<polygon fill="none" stroke="black" points="197.5,-311 197.5,-333 370.5,-333 370.5,-311 197.5,-311"/>
<image xlink:href="../../images/foreignKeys.png" width="11px" height="12px" preserveAspectRatio="xMinYMin meet" x="202.5" y="-328"/>
<text text-anchor="start" x="228.5" y="-319.2" font-family="Helvetica,sans-Serif" font-size="11.00">content_guard_id</text>
<polygon fill="#ffffff" stroke="none" points="197.5,-289 197.5,-311 370.5,-311 370.5,-289 197.5,-289"/>
<polygon fill="none" stroke="black" points="197.5,-289 197.5,-311 370.5,-311 370.5,-289 197.5,-289"/>
<image xlink:href="../../images/foreignKeys.png" width="11px" height="12px" preserveAspectRatio="xMinYMin meet" x="202.5" y="-306"/>
<text text-anchor="start" x="228.5" y="-297.2" font-family="Helvetica,sans-Serif" font-size="11.00">remote_id</text>
<polygon fill="none" stroke="black" points="197.5,-271 197.5,-289 370.5,-289 370.5,-271 197.5,-271"/>
<text text-anchor="start" x="200.5" y="-277.2" font-family="Helvetica,sans-Serif" font-size="11.00">...</text>
<polygon fill="#ffffff" stroke="none" points="197.5,-253 197.5,-271 259.5,-271 259.5,-253 197.5,-253"/>
<polygon fill="none" stroke="black" points="197.5,-253 197.5,-271 259.5,-271 259.5,-253 197.5,-253"/>
<text text-anchor="start" x="200.5" y="-259.2" font-family="Helvetica,sans-Serif" font-size="11.00">&lt; 2</text>
<polygon fill="#ffffff" stroke="none" points="259.5,-253 259.5,-271 327.5,-271 327.5,-253 259.5,-253"/>
<polygon fill="none" stroke="black" points="259.5,-253 259.5,-271 327.5,-271 327.5,-253 259.5,-253"/>
<text text-anchor="start" x="281.5" y="-259.2" font-family="Helvetica,sans-Serif" font-size="11.00">32 rows</text>
<polygon fill="#ffffff" stroke="none" points="327.5,-253 327.5,-271 370.5,-271 370.5,-253 327.5,-253"/>
<polygon fill="none" stroke="black" points="327.5,-253 327.5,-271 370.5,-271 370.5,-253 327.5,-253"/>
<text text-anchor="start" x="350.5" y="-259.2" font-family="Helvetica,sans-Serif" font-size="11.00">2 &gt;</text>
</a>
</g>
</g>
<!-- container_containerdistribution&#45;&gt;core_basedistribution -->
<g id="edge1" class="edge"><title>container_containerdistribution:basedistribution_ptr_id:w&#45;&gt;core_basedistribution:pulp_id:e</title>
<path fill="none" stroke="black" d="M412.701,-252.446C366.942,-267.088 432.61,-388 371.5,-388"/>
<polygon fill="black" stroke="black" points="421.652,-247.15 422.764,-255.072 421.179,-255.295 420.067,-247.373 421.652,-247.15"/>
<polyline fill="none" stroke="black" points="423,-251 419.039,-251.556 "/>
<ellipse fill="none" stroke="black" cx="415.87" cy="-252.001" rx="3.2" ry="3.2"/>
</g>
<!-- core_repository -->
<g id="node3" class="node"><title>core_repository</title>
<g id="a_node3"><a xlink:href="../../tables/core_repository.html" xlink:title="core_repository" target="_top">
<polygon fill="#ffffff" stroke="none" points="8,-65 8,-189 145,-189 145,-65 8,-65"/>
<polygon fill="#f5f5f5" stroke="none" points="8.5,-167 8.5,-189 145.5,-189 145.5,-167 8.5,-167"/>
<polygon fill="none" stroke="black" points="8.5,-167 8.5,-189 145.5,-189 145.5,-167 8.5,-167"/>
<text text-anchor="start" x="13.5" y="-176.2" font-family="Helvetica,sans-Serif" font-weight="bold" font-size="11.00">core_repository</text>
<text text-anchor="start" x="106.5" y="-175.2" font-family="Helvetica,sans-Serif" font-size="11.00">[table]</text>
<polygon fill="none" stroke="black" points="8.5,-145 8.5,-167 145.5,-167 145.5,-145 8.5,-145"/>
<image xlink:href="../../images/primaryKeys.png" width="11px" height="12px" preserveAspectRatio="xMinYMin meet" x="13.5" y="-162"/>
<text text-anchor="start" x="32.5" y="-153.2" font-family="Helvetica,sans-Serif" font-size="11.00">pulp_id</text>
<polygon fill="#ffffff" stroke="none" points="8.5,-123 8.5,-145 145.5,-145 145.5,-123 8.5,-123"/>
<polygon fill="none" stroke="black" points="8.5,-123 8.5,-145 145.5,-145 145.5,-123 8.5,-123"/>
<text text-anchor="start" x="32.5" y="-131.2" font-family="Helvetica,sans-Serif" font-size="11.00">name</text>
<polygon fill="#ffffff" stroke="none" points="8.5,-101 8.5,-123 145.5,-123 145.5,-101 8.5,-101"/>
<polygon fill="none" stroke="black" points="8.5,-101 8.5,-123 145.5,-123 145.5,-101 8.5,-101"/>
<image xlink:href="../../images/foreignKeys.png" width="11px" height="12px" preserveAspectRatio="xMinYMin meet" x="13.5" y="-118"/>
<text text-anchor="start" x="32.5" y="-109.2" font-family="Helvetica,sans-Serif" font-size="11.00">remote_id</text>
<polygon fill="none" stroke="black" points="8.5,-83 8.5,-101 145.5,-101 145.5,-83 8.5,-83"/>
<text text-anchor="start" x="11.5" y="-89.2" font-family="Helvetica,sans-Serif" font-size="11.00">...</text>
<polygon fill="#ffffff" stroke="none" points="8.5,-65 8.5,-83 48.5,-83 48.5,-65 8.5,-65"/>
<polygon fill="none" stroke="black" points="8.5,-65 8.5,-83 48.5,-83 48.5,-65 8.5,-65"/>
<text text-anchor="start" x="11.5" y="-71.2" font-family="Helvetica,sans-Serif" font-size="11.00">&lt; 1</text>
<polygon fill="#ffffff" stroke="none" points="48.5,-65 48.5,-83 106.5,-83 106.5,-65 48.5,-65"/>
<polygon fill="none" stroke="black" points="48.5,-65 48.5,-83 106.5,-83 106.5,-65 48.5,-65"/>
<text text-anchor="start" x="60.5" y="-71.2" font-family="Helvetica,sans-Serif" font-size="11.00">26 rows</text>
<polygon fill="#ffffff" stroke="none" points="106.5,-65 106.5,-83 145.5,-83 145.5,-65 106.5,-65"/>
<polygon fill="none" stroke="black" points="106.5,-65 106.5,-83 145.5,-83 145.5,-65 106.5,-65"/>
<text text-anchor="start" x="118.5" y="-71.2" font-family="Helvetica,sans-Serif" font-size="11.00">10 &gt;</text>
</a>
</g>
</g>
<!-- container_containerdistribution&#45;&gt;core_repository -->
<g id="edge2" class="edge"><title>container_containerdistribution:repository_id:w&#45;&gt;core_repository:pulp_id:e</title>
<path fill="none" stroke="black" d="M408.582,-229.24C313.628,-232.402 273.281,-264.965 186,-215 158.614,-199.322 178.056,-156 146.5,-156"/>
<polygon fill="black" stroke="black" points="415.001,-229.133 423.06,-232.6 419.001,-229.067 423,-229 423,-229 423,-229 419.001,-229.067 422.94,-225.4 415.001,-229.133 415.001,-229.133"/>
<ellipse fill="none" stroke="black" cx="411.802" cy="-229.186" rx="3.2" ry="3.2"/>
</g>
<!-- core_repositoryversion -->
<g id="node4" class="node"><title>core_repositoryversion</title>
<g id="a_node4"><a xlink:href="../../tables/core_repositoryversion.html" xlink:title="core_repositoryversion" target="_top">
<polygon fill="#ffffff" stroke="none" points="194,-37 194,-205 373,-205 373,-37 194,-37"/>
<polygon fill="#f5f5f5" stroke="none" points="194.5,-183 194.5,-205 373.5,-205 373.5,-183 194.5,-183"/>
<polygon fill="none" stroke="black" points="194.5,-183 194.5,-205 373.5,-205 373.5,-183 194.5,-183"/>
<text text-anchor="start" x="199.5" y="-192.2" font-family="Helvetica,sans-Serif" font-weight="bold" font-size="11.00">core_repositoryversion</text>
<text text-anchor="start" x="334.5" y="-191.2" font-family="Helvetica,sans-Serif" font-size="11.00">[table]</text>
<polygon fill="none" stroke="black" points="194.5,-161 194.5,-183 373.5,-183 373.5,-161 194.5,-161"/>
<image xlink:href="../../images/primaryKeys.png" width="11px" height="12px" preserveAspectRatio="xMinYMin meet" x="199.5" y="-178"/>
<text text-anchor="start" x="225.5" y="-169.2" font-family="Helvetica,sans-Serif" font-size="11.00">pulp_id</text>
<polygon fill="#ffffff" stroke="none" points="194.5,-139 194.5,-161 373.5,-161 373.5,-139 194.5,-139"/>
<polygon fill="none" stroke="black" points="194.5,-139 194.5,-161 373.5,-161 373.5,-139 194.5,-139"/>
<text text-anchor="start" x="225.5" y="-147.2" font-family="Helvetica,sans-Serif" font-size="11.00">number</text>
<polygon fill="#ffffff" stroke="none" points="194.5,-117 194.5,-139 373.5,-139 373.5,-117 194.5,-117"/>
<polygon fill="none" stroke="black" points="194.5,-117 194.5,-139 373.5,-139 373.5,-117 194.5,-117"/>
<text text-anchor="start" x="225.5" y="-125.2" font-family="Helvetica,sans-Serif" font-size="11.00">complete</text>
<polygon fill="#ffffff" stroke="none" points="194.5,-95 194.5,-117 373.5,-117 373.5,-95 194.5,-95"/>
<polygon fill="none" stroke="black" points="194.5,-95 194.5,-117 373.5,-117 373.5,-95 194.5,-95"/>
<image xlink:href="../../images/foreignKeys.png" width="11px" height="12px" preserveAspectRatio="xMinYMin meet" x="199.5" y="-112"/>
<text text-anchor="start" x="225.5" y="-103.2" font-family="Helvetica,sans-Serif" font-size="11.00">base_version_id</text>
<polygon fill="#ffffff" stroke="none" points="194.5,-73 194.5,-95 373.5,-95 373.5,-73 194.5,-73"/>
<polygon fill="none" stroke="black" points="194.5,-73 194.5,-95 373.5,-95 373.5,-73 194.5,-73"/>
<image xlink:href="../../images/foreignKeys.png" width="11px" height="12px" preserveAspectRatio="xMinYMin meet" x="199.5" y="-90"/>
<text text-anchor="start" x="225.5" y="-81.2" font-family="Helvetica,sans-Serif" font-size="11.00">repository_id</text>
<polygon fill="none" stroke="black" points="194.5,-55 194.5,-73 373.5,-73 373.5,-55 194.5,-55"/>
<text text-anchor="start" x="197.5" y="-61.2" font-family="Helvetica,sans-Serif" font-size="11.00">...</text>
<polygon fill="#ffffff" stroke="none" points="194.5,-37 194.5,-55 256.5,-55 256.5,-37 194.5,-37"/>
<polygon fill="none" stroke="black" points="194.5,-37 194.5,-55 256.5,-55 256.5,-37 194.5,-37"/>
<text text-anchor="start" x="197.5" y="-43.2" font-family="Helvetica,sans-Serif" font-size="11.00">&lt; 2</text>
<polygon fill="#ffffff" stroke="none" points="256.5,-37 256.5,-55 330.5,-55 330.5,-37 256.5,-37"/>
<polygon fill="none" stroke="black" points="256.5,-37 256.5,-55 330.5,-55 330.5,-37 256.5,-37"/>
<text text-anchor="start" x="278.5" y="-43.2" font-family="Helvetica,sans-Serif" font-size="11.00">162 rows</text>
<polygon fill="#ffffff" stroke="none" points="330.5,-37 330.5,-55 373.5,-55 373.5,-37 330.5,-37"/>
<polygon fill="none" stroke="black" points="330.5,-37 330.5,-55 373.5,-55 373.5,-37 330.5,-37"/>
<text text-anchor="start" x="353.5" y="-43.2" font-family="Helvetica,sans-Serif" font-size="11.00">7 &gt;</text>
</a>
</g>
</g>
<!-- container_containerdistribution&#45;&gt;core_repositoryversion -->
<g id="edge3" class="edge"><title>container_containerdistribution:repository_version_id:w&#45;&gt;core_repositoryversion:pulp_id:e</title>
<path fill="none" stroke="black" d="M409.017,-202.424C396.927,-192.937 395.06,-172 374.5,-172"/>
<polygon fill="black" stroke="black" points="415.397,-204.512 421.88,-210.421 419.198,-205.756 423,-207 423,-207 423,-207 419.198,-205.756 424.12,-203.579 415.397,-204.512 415.397,-204.512"/>
<ellipse fill="none" stroke="black" cx="412.355" cy="-203.517" rx="3.20001" ry="3.20001"/>
</g>
<!-- core_repositoryversion&#45;&gt;core_repository -->
<g id="edge4" class="edge"><title>core_repositoryversion:repository_id:w&#45;&gt;core_repository:pulp_id:e</title>
<path fill="none" stroke="black" d="M179.556,-89.1781C163.121,-105.687 178.445,-156 146.5,-156"/>
<polygon fill="black" stroke="black" points="186,-86.785 194.753,-87.3748 189.75,-85.3925 193.5,-84 193.5,-84 193.5,-84 189.75,-85.3925 192.247,-80.6252 186,-86.785 186,-86.785"/>
<ellipse fill="none" stroke="black" cx="183.001" cy="-87.899" rx="3.20001" ry="3.20001"/>
</g>
</g>
</svg>
