<?xml version="1.0" encoding="UTF-8" standalone="no"?>
<!DOCTYPE svg PUBLIC "-//W3C//DTD SVG 1.1//EN"
 "http://www.w3.org/Graphics/SVG/1.1/DTD/svg11.dtd">
<!-- Generated by graphviz version 2.38.0 (20140413.2041)
 -->
<!-- Title: oneDegreeRelationshipsDiagram Pages: 1 -->
<svg width="547pt" height="814pt"
 viewBox="0.00 0.00 547.00 814.00" xmlns="http://www.w3.org/2000/svg" xmlns:xlink="http://www.w3.org/1999/xlink">
<g id="graph0" class="graph" transform="scale(1 1) rotate(0) translate(4 810)">
<title>oneDegreeRelationshipsDiagram</title>
<polygon fill="#ffffff" stroke="none" points="-4,4 -4,-810 543,-810 543,4 -4,4"/>
<text text-anchor="middle" x="74.5" y="-7.2" font-family="Helvetica,sans-Serif" font-size="11.00">Generated by SchemaSpy</text>
<!-- ansible_collectionremote -->
<g id="node1" class="node"><title>ansible_collectionremote</title>
<g id="a_node1"><a xlink:href="../../tables/ansible_collectionremote.html" xlink:title="ansible_collectionremote" target="_top">
<polygon fill="#ffffff" stroke="none" points="331.5,-722 331.5,-802 524.5,-802 524.5,-722 331.5,-722"/>
<polygon fill="#f5f5f5" stroke="none" points="332,-780 332,-802 525,-802 525,-780 332,-780"/>
<polygon fill="none" stroke="black" points="332,-780 332,-802 525,-802 525,-780 332,-780"/>
<text text-anchor="start" x="337" y="-789.2" font-family="Helvetica,sans-Serif" font-weight="bold" font-size="11.00">ansible_collectionremote</text>
<text text-anchor="start" x="486" y="-788.2" font-family="Helvetica,sans-Serif" font-size="11.00">[table]</text>
<polygon fill="none" stroke="black" points="332,-758 332,-780 525,-780 525,-758 332,-758"/>
<image xlink:href="../../images/primaryKeys.png" width="11px" height="12px" preserveAspectRatio="xMinYMin meet" x="337" y="-775"/>
<text text-anchor="start" x="363" y="-766.2" font-family="Helvetica,sans-Serif" font-size="11.00">remote_ptr_id</text>
<polygon fill="none" stroke="black" points="332,-740 332,-758 525,-758 525,-740 332,-740"/>
<text text-anchor="start" x="335" y="-746.2" font-family="Helvetica,sans-Serif" font-size="11.00">...</text>
<polygon fill="#ffffff" stroke="none" points="332,-722 332,-740 412,-740 412,-722 332,-722"/>
<polygon fill="none" stroke="black" points="332,-722 332,-740 412,-740 412,-722 332,-722"/>
<text text-anchor="start" x="335" y="-728.2" font-family="Helvetica,sans-Serif" font-size="11.00">&lt; 1</text>
<polygon fill="#ffffff" stroke="none" points="412,-722 412,-740 483,-740 483,-722 412,-722"/>
<polygon fill="none" stroke="black" points="412,-722 412,-740 483,-740 483,-722 412,-722"/>
<text text-anchor="start" x="444" y="-728.2" font-family="Helvetica,sans-Serif" font-size="11.00">7 rows</text>
<polygon fill="#ffffff" stroke="none" points="483,-722 483,-740 525,-740 525,-722 483,-722"/>
<polygon fill="none" stroke="black" points="483,-722 483,-740 525,-740 525,-722 483,-722"/>
<text text-anchor="start" x="515" y="-728.2" font-family="Helvetica,sans-Serif" font-size="11.00"> &#160;</text>
</a>
</g>
</g>
<!-- core_remote -->
<g id="node2" class="node"><title>core_remote</title>
<g id="a_node2"><a xlink:href="../../tables/core_remote.html" xlink:title="core_remote" target="_top">
<polygon fill="#ffffff" stroke="none" points="8,-140 8,-514 276,-514 276,-140 8,-140"/>
<polygon fill="#f5f5f5" stroke="none" points="10,-490 10,-512 274,-512 274,-490 10,-490"/>
<polygon fill="none" stroke="black" points="10,-490 10,-512 274,-512 274,-490 10,-490"/>
<text text-anchor="start" x="15" y="-499.2" font-family="Helvetica,sans-Serif" font-weight="bold" font-size="11.00">core_remote</text>
<text text-anchor="start" x="235" y="-498.2" font-family="Helvetica,sans-Serif" font-size="11.00">[table]</text>
<polygon fill="none" stroke="black" points="10,-468 10,-490 169,-490 169,-468 10,-468"/>
<image xlink:href="../../images/primaryKeys.png" width="11px" height="12px" preserveAspectRatio="xMinYMin meet" x="15" y="-485"/>
<text text-anchor="start" x="30" y="-476.2" font-family="Helvetica,sans-Serif" font-size="11.00">pulp_id</text>
<polygon fill="none" stroke="black" points="169,-468 169,-490 274,-490 274,-468 169,-468"/>
<text text-anchor="start" x="172" y="-476.2" font-family="Helvetica,sans-Serif" font-size="11.00">uuid[2147483647]</text>
<polygon fill="none" stroke="black" points="10,-446 10,-468 169,-468 169,-446 10,-446"/>
<text text-anchor="start" x="30" y="-454.2" font-family="Helvetica,sans-Serif" font-size="11.00">pulp_created</text>
<polygon fill="none" stroke="black" points="169,-446 169,-468 274,-468 274,-446 169,-446"/>
<text text-anchor="start" x="172" y="-454.2" font-family="Helvetica,sans-Serif" font-size="11.00">timestamptz[35,6]</text>
<polygon fill="none" stroke="black" points="10,-424 10,-446 169,-446 169,-424 10,-424"/>
<text text-anchor="start" x="30" y="-432.2" font-family="Helvetica,sans-Serif" font-size="11.00">pulp_last_updated</text>
<polygon fill="none" stroke="black" points="169,-424 169,-446 274,-446 274,-424 169,-424"/>
<text text-anchor="start" x="172" y="-432.2" font-family="Helvetica,sans-Serif" font-size="11.00">timestamptz[35,6]</text>
<polygon fill="none" stroke="black" points="10,-402 10,-424 169,-424 169,-402 10,-402"/>
<text text-anchor="start" x="30" y="-410.2" font-family="Helvetica,sans-Serif" font-size="11.00">pulp_type</text>
<polygon fill="none" stroke="black" points="169,-402 169,-424 274,-424 274,-402 169,-402"/>
<text text-anchor="start" x="172" y="-410.2" font-family="Helvetica,sans-Serif" font-size="11.00">text[2147483647]</text>
<polygon fill="#ffffff" stroke="none" points="10,-380 10,-402 169,-402 169,-380 10,-380"/>
<polygon fill="none" stroke="black" points="10,-380 10,-402 169,-402 169,-380 10,-380"/>
<text text-anchor="start" x="30" y="-388.2" font-family="Helvetica,sans-Serif" font-size="11.00">name</text>
<polygon fill="none" stroke="black" points="169,-380 169,-402 274,-402 274,-380 169,-380"/>
<text text-anchor="start" x="172" y="-388.2" font-family="Helvetica,sans-Serif" font-size="11.00">text[2147483647]</text>
<polygon fill="none" stroke="black" points="10,-358 10,-380 169,-380 169,-358 10,-358"/>
<text text-anchor="start" x="30" y="-366.2" font-family="Helvetica,sans-Serif" font-size="11.00">url</text>
<polygon fill="none" stroke="black" points="169,-358 169,-380 274,-380 274,-358 169,-358"/>
<text text-anchor="start" x="172" y="-366.2" font-family="Helvetica,sans-Serif" font-size="11.00">text[2147483647]</text>
<polygon fill="none" stroke="black" points="10,-336 10,-358 169,-358 169,-336 10,-336"/>
<text text-anchor="start" x="30" y="-344.2" font-family="Helvetica,sans-Serif" font-size="11.00">ca_cert</text>
<polygon fill="none" stroke="black" points="169,-336 169,-358 274,-358 274,-336 169,-336"/>
<text text-anchor="start" x="172" y="-344.2" font-family="Helvetica,sans-Serif" font-size="11.00">text[2147483647]</text>
<polygon fill="none" stroke="black" points="10,-314 10,-336 169,-336 169,-314 10,-314"/>
<text text-anchor="start" x="30" y="-322.2" font-family="Helvetica,sans-Serif" font-size="11.00">client_cert</text>
<polygon fill="none" stroke="black" points="169,-314 169,-336 274,-336 274,-314 169,-314"/>
<text text-anchor="start" x="172" y="-322.2" font-family="Helvetica,sans-Serif" font-size="11.00">text[2147483647]</text>
<polygon fill="none" stroke="black" points="10,-292 10,-314 169,-314 169,-292 10,-292"/>
<text text-anchor="start" x="30" y="-300.2" font-family="Helvetica,sans-Serif" font-size="11.00">client_key</text>
<polygon fill="none" stroke="black" points="169,-292 169,-314 274,-314 274,-292 169,-292"/>
<text text-anchor="start" x="172" y="-300.2" font-family="Helvetica,sans-Serif" font-size="11.00">text[2147483647]</text>
<polygon fill="none" stroke="black" points="10,-270 10,-292 169,-292 169,-270 10,-270"/>
<text text-anchor="start" x="30" y="-278.2" font-family="Helvetica,sans-Serif" font-size="11.00">tls_validation</text>
<polygon fill="none" stroke="black" points="169,-270 169,-292 274,-292 274,-270 169,-270"/>
<text text-anchor="start" x="172" y="-278.2" font-family="Helvetica,sans-Serif" font-size="11.00">bool[1]</text>
<polygon fill="none" stroke="black" points="10,-248 10,-270 169,-270 169,-248 10,-248"/>
<text text-anchor="start" x="30" y="-256.2" font-family="Helvetica,sans-Serif" font-size="11.00">proxy_url</text>
<polygon fill="none" stroke="black" points="169,-248 169,-270 274,-270 274,-248 169,-248"/>
<text text-anchor="start" x="172" y="-256.2" font-family="Helvetica,sans-Serif" font-size="11.00">text[2147483647]</text>
<polygon fill="none" stroke="black" points="10,-226 10,-248 169,-248 169,-226 10,-226"/>
<text text-anchor="start" x="30" y="-234.2" font-family="Helvetica,sans-Serif" font-size="11.00">username</text>
<polygon fill="none" stroke="black" points="169,-226 169,-248 274,-248 274,-226 169,-226"/>
<text text-anchor="start" x="172" y="-234.2" font-family="Helvetica,sans-Serif" font-size="11.00">text[2147483647]</text>
<polygon fill="none" stroke="black" points="10,-204 10,-226 169,-226 169,-204 10,-204"/>
<text text-anchor="start" x="30" y="-212.2" font-family="Helvetica,sans-Serif" font-size="11.00">password</text>
<polygon fill="none" stroke="black" points="169,-204 169,-226 274,-226 274,-204 169,-204"/>
<text text-anchor="start" x="172" y="-212.2" font-family="Helvetica,sans-Serif" font-size="11.00">text[2147483647]</text>
<polygon fill="none" stroke="black" points="10,-182 10,-204 169,-204 169,-182 10,-182"/>
<text text-anchor="start" x="30" y="-190.2" font-family="Helvetica,sans-Serif" font-size="11.00">download_concurrency</text>
<polygon fill="none" stroke="black" points="169,-182 169,-204 274,-204 274,-182 169,-182"/>
<text text-anchor="start" x="172" y="-190.2" font-family="Helvetica,sans-Serif" font-size="11.00">int4[10]</text>
<polygon fill="none" stroke="black" points="10,-160 10,-182 169,-182 169,-160 10,-160"/>
<text text-anchor="start" x="30" y="-168.2" font-family="Helvetica,sans-Serif" font-size="11.00">policy</text>
<polygon fill="none" stroke="black" points="169,-160 169,-182 274,-182 274,-160 169,-160"/>
<text text-anchor="start" x="172" y="-168.2" font-family="Helvetica,sans-Serif" font-size="11.00">text[2147483647]</text>
<polygon fill="#ffffff" stroke="none" points="10,-142 10,-160 80,-160 80,-142 10,-142"/>
<polygon fill="none" stroke="black" points="10,-142 10,-160 80,-160 80,-142 10,-142"/>
<text text-anchor="start" x="13" y="-148.2" font-family="Helvetica,sans-Serif" font-size="11.00">&lt; 0</text>
<polygon fill="#ffffff" stroke="none" points="80,-142 80,-160 169,-160 169,-142 80,-142"/>
<polygon fill="none" stroke="black" points="80,-142 80,-160 169,-160 169,-142 80,-142"/>
<text text-anchor="start" x="130" y="-148.2" font-family="Helvetica,sans-Serif" font-size="11.00">7 rows</text>
<polygon fill="#ffffff" stroke="none" points="169,-142 169,-160 274,-160 274,-142 169,-142"/>
<polygon fill="none" stroke="black" points="169,-142 169,-160 274,-160 274,-142 169,-142"/>
<text text-anchor="start" x="254" y="-148.2" font-family="Helvetica,sans-Serif" font-size="11.00">6 &gt;</text>
<polygon fill="none" stroke="black" stroke-width="2" points="9,-141 9,-513 275,-513 275,-141 9,-141"/>
</a>
</g>
</g>
<!-- ansible_collectionremote&#45;&gt;core_remote -->
<g id="edge1" class="edge"><title>ansible_collectionremote:remote_ptr_id:w&#45;&gt;core_remote:pulp_id.type:e</title>
<path fill="none" stroke="black" d="M320.857,-766.13C273.702,-736.011 336.789,-479 275,-479"/>
<polygon fill="black" stroke="black" points="331.319,-764.933 329.141,-772.631 327.601,-772.195 329.78,-764.498 331.319,-764.933"/>
<polyline fill="none" stroke="black" points="331,-769 327.151,-767.911 "/>
<ellipse fill="none" stroke="black" cx="324.072" cy="-767.039" rx="3.20001" ry="3.20001"/>
</g>
<!-- ansible_roleremote -->
<g id="node3" class="node"><title>ansible_roleremote</title>
<g id="a_node3"><a xlink:href="../../tables/ansible_roleremote.html" xlink:title="ansible_roleremote" target="_top">
<polygon fill="#ffffff" stroke="none" points="348.5,-639 348.5,-701 507.5,-701 507.5,-639 348.5,-639"/>
<polygon fill="#f5f5f5" stroke="none" points="349,-679 349,-701 508,-701 508,-679 349,-679"/>
<polygon fill="none" stroke="black" points="349,-679 349,-701 508,-701 508,-679 349,-679"/>
<text text-anchor="start" x="354" y="-688.2" font-family="Helvetica,sans-Serif" font-weight="bold" font-size="11.00">ansible_roleremote</text>
<text text-anchor="start" x="469" y="-687.2" font-family="Helvetica,sans-Serif" font-size="11.00">[table]</text>
<polygon fill="none" stroke="black" points="349,-657 349,-679 508,-679 508,-657 349,-657"/>
<image xlink:href="../../images/primaryKeys.png" width="11px" height="12px" preserveAspectRatio="xMinYMin meet" x="354" y="-674"/>
<text text-anchor="start" x="381" y="-665.2" font-family="Helvetica,sans-Serif" font-size="11.00">remote_ptr_id</text>
<polygon fill="#ffffff" stroke="none" points="349,-639 349,-657 412,-657 412,-639 349,-639"/>
<polygon fill="none" stroke="black" points="349,-639 349,-657 412,-657 412,-639 349,-639"/>
<text text-anchor="start" x="352" y="-645.2" font-family="Helvetica,sans-Serif" font-size="11.00">&lt; 1</text>
<polygon fill="#ffffff" stroke="none" points="412,-639 412,-657 474,-657 474,-639 412,-639"/>
<polygon fill="none" stroke="black" points="412,-639 412,-657 474,-657 474,-639 412,-639"/>
<text text-anchor="start" x="435" y="-645.2" font-family="Helvetica,sans-Serif" font-size="11.00">0 rows</text>
<polygon fill="#ffffff" stroke="none" points="474,-639 474,-657 508,-657 508,-639 474,-639"/>
<polygon fill="none" stroke="black" points="474,-639 474,-657 508,-657 508,-639 474,-639"/>
<text text-anchor="start" x="498" y="-645.2" font-family="Helvetica,sans-Serif" font-size="11.00"> &#160;</text>
</a>
</g>
</g>
<!-- ansible_roleremote&#45;&gt;core_remote -->
<g id="edge2" class="edge"><title>ansible_roleremote:remote_ptr_id:w&#45;&gt;core_remote:pulp_id.type:e</title>
<path fill="none" stroke="black" d="M337.453,-666.983C266.792,-652.107 361.179,-479 275,-479"/>
<polygon fill="black" stroke="black" points="347.588,-663.942 346.82,-671.905 345.227,-671.751 345.995,-663.788 347.588,-663.942"/>
<polyline fill="none" stroke="black" points="348,-668 344.018,-667.616 "/>
<ellipse fill="none" stroke="black" cx="340.833" cy="-667.309" rx="3.2" ry="3.2"/>
</g>
<!-- container_containerremote -->
<g id="node4" class="node"><title>container_containerremote</title>
<g id="a_node4"><a xlink:href="../../tables/container_containerremote.html" xlink:title="container_containerremote" target="_top">
<polygon fill="#ffffff" stroke="none" points="325,-516 325,-618 531,-618 531,-516 325,-516"/>
<polygon fill="#f5f5f5" stroke="none" points="325,-596 325,-618 531,-618 531,-596 325,-596"/>
<polygon fill="none" stroke="black" points="325,-596 325,-618 531,-618 531,-596 325,-596"/>
<text text-anchor="start" x="330" y="-605.2" font-family="Helvetica,sans-Serif" font-weight="bold" font-size="11.00">container_containerremote</text>
<text text-anchor="start" x="492" y="-604.2" font-family="Helvetica,sans-Serif" font-size="11.00">[table]</text>
<polygon fill="none" stroke="black" points="325,-574 325,-596 531,-596 531,-574 325,-574"/>
<image xlink:href="../../images/primaryKeys.png" width="11px" height="12px" preserveAspectRatio="xMinYMin meet" x="330" y="-591"/>
<text text-anchor="start" x="355" y="-582.2" font-family="Helvetica,sans-Serif" font-size="11.00">remote_ptr_id</text>
<polygon fill="#ffffff" stroke="none" points="325,-552 325,-574 531,-574 531,-552 325,-552"/>
<polygon fill="none" stroke="black" points="325,-552 325,-574 531,-574 531,-552 325,-552"/>
<text text-anchor="start" x="355" y="-560.2" font-family="Helvetica,sans-Serif" font-size="11.00">upstream_name</text>
<polygon fill="none" stroke="black" points="325,-534 325,-552 531,-552 531,-534 325,-534"/>
<text text-anchor="start" x="328" y="-540.2" font-family="Helvetica,sans-Serif" font-size="11.00">...</text>
<polygon fill="#ffffff" stroke="none" points="325,-516 325,-534 412,-534 412,-516 325,-516"/>
<polygon fill="none" stroke="black" points="325,-516 325,-534 412,-534 412,-516 325,-516"/>
<text text-anchor="start" x="328" y="-522.2" font-family="Helvetica,sans-Serif" font-size="11.00">&lt; 1</text>
<polygon fill="#ffffff" stroke="none" points="412,-516 412,-534 486,-534 486,-516 412,-516"/>
<polygon fill="none" stroke="black" points="412,-516 412,-534 486,-534 486,-516 412,-516"/>
<text text-anchor="start" x="447" y="-522.2" font-family="Helvetica,sans-Serif" font-size="11.00">0 rows</text>
<polygon fill="#ffffff" stroke="none" points="486,-516 486,-534 531,-534 531,-516 486,-516"/>
<polygon fill="none" stroke="black" points="486,-516 486,-534 531,-534 531,-516 486,-516"/>
<text text-anchor="start" x="521" y="-522.2" font-family="Helvetica,sans-Serif" font-size="11.00"> &#160;</text>
</a>
</g>
</g>
<!-- container_containerremote&#45;&gt;core_remote -->
<g id="edge3" class="edge"><title>container_containerremote:remote_ptr_id:w&#45;&gt;core_remote:pulp_id.type:e</title>
<path fill="none" stroke="black" d="M313.688,-583.16C280.01,-569.084 322.846,-479 275,-479"/>
<polygon fill="black" stroke="black" points="323.915,-580.922 322.51,-588.797 320.935,-588.516 322.34,-580.641 323.915,-580.922"/>
<polyline fill="none" stroke="black" points="324,-585 320.062,-584.297 "/>
<ellipse fill="none" stroke="black" cx="316.912" cy="-583.735" rx="3.2" ry="3.2"/>
</g>
<!-- core_basedistribution -->
<g id="node5" class="node"><title>core_basedistribution</title>
<g id="a_node5"><a xlink:href="../../tables/core_basedistribution.html" xlink:title="core_basedistribution" target="_top">
<polygon fill="#ffffff" stroke="none" points="341.5,-327 341.5,-495 514.5,-495 514.5,-327 341.5,-327"/>
<polygon fill="#f5f5f5" stroke="none" points="342,-473 342,-495 515,-495 515,-473 342,-473"/>
<polygon fill="none" stroke="black" points="342,-473 342,-495 515,-495 515,-473 342,-473"/>
<text text-anchor="start" x="347" y="-482.2" font-family="Helvetica,sans-Serif" font-weight="bold" font-size="11.00">core_basedistribution</text>
<text text-anchor="start" x="476" y="-481.2" font-family="Helvetica,sans-Serif" font-size="11.00">[table]</text>
<polygon fill="none" stroke="black" points="342,-451 342,-473 515,-473 515,-451 342,-451"/>
<image xlink:href="../../images/primaryKeys.png" width="11px" height="12px" preserveAspectRatio="xMinYMin meet" x="347" y="-468"/>
<text text-anchor="start" x="373" y="-459.2" font-family="Helvetica,sans-Serif" font-size="11.00">pulp_id</text>
<polygon fill="#ffffff" stroke="none" points="342,-429 342,-451 515,-451 515,-429 342,-429"/>
<polygon fill="none" stroke="black" points="342,-429 342,-451 515,-451 515,-429 342,-429"/>
<text text-anchor="start" x="373" y="-437.2" font-family="Helvetica,sans-Serif" font-size="11.00">name</text>
<polygon fill="#ffffff" stroke="none" points="342,-407 342,-429 515,-429 515,-407 342,-407"/>
<polygon fill="none" stroke="black" points="342,-407 342,-429 515,-429 515,-407 342,-407"/>
<text text-anchor="start" x="373" y="-415.2" font-family="Helvetica,sans-Serif" font-size="11.00">base_path</text>
<polygon fill="#ffffff" stroke="none" points="342,-385 342,-407 515,-407 515,-385 342,-385"/>
<polygon fill="none" stroke="black" points="342,-385 342,-407 515,-407 515,-385 342,-385"/>
<image xlink:href="../../images/foreignKeys.png" width="11px" height="12px" preserveAspectRatio="xMinYMin meet" x="347" y="-402"/>
<text text-anchor="start" x="373" y="-393.2" font-family="Helvetica,sans-Serif" font-size="11.00">content_guard_id</text>
<polygon fill="#ffffff" stroke="none" points="342,-363 342,-385 515,-385 515,-363 342,-363"/>
<polygon fill="none" stroke="black" points="342,-363 342,-385 515,-385 515,-363 342,-363"/>
<image xlink:href="../../images/foreignKeys.png" width="11px" height="12px" preserveAspectRatio="xMinYMin meet" x="347" y="-380"/>
<text text-anchor="start" x="373" y="-371.2" font-family="Helvetica,sans-Serif" font-size="11.00">remote_id</text>
<polygon fill="none" stroke="black" points="342,-345 342,-363 515,-363 515,-345 342,-345"/>
<text text-anchor="start" x="345" y="-351.2" font-family="Helvetica,sans-Serif" font-size="11.00">...</text>
<polygon fill="#ffffff" stroke="none" points="342,-327 342,-345 404,-345 404,-327 342,-327"/>
<polygon fill="none" stroke="black" points="342,-327 342,-345 404,-345 404,-327 342,-327"/>
<text text-anchor="start" x="345" y="-333.2" font-family="Helvetica,sans-Serif" font-size="11.00">&lt; 2</text>
<polygon fill="#ffffff" stroke="none" points="404,-327 404,-345 472,-345 472,-327 404,-327"/>
<polygon fill="none" stroke="black" points="404,-327 404,-345 472,-345 472,-327 404,-327"/>
<text text-anchor="start" x="426" y="-333.2" font-family="Helvetica,sans-Serif" font-size="11.00">32 rows</text>
<polygon fill="#ffffff" stroke="none" points="472,-327 472,-345 515,-345 515,-327 472,-327"/>
<polygon fill="none" stroke="black" points="472,-327 472,-345 515,-345 515,-327 472,-327"/>
<text text-anchor="start" x="495" y="-333.2" font-family="Helvetica,sans-Serif" font-size="11.00">2 &gt;</text>
</a>
</g>
</g>
<!-- core_basedistribution&#45;&gt;core_remote -->
<g id="edge4" class="edge"><title>core_basedistribution:remote_id:w&#45;&gt;core_remote:pulp_id.type:e</title>
<path fill="none" stroke="black" d="M326.642,-377.258C294.107,-394.98 324.307,-479 275,-479"/>
<polygon fill="black" stroke="black" points="333.198,-375.77 341.797,-377.511 337.099,-374.885 341,-374 341,-374 341,-374 337.099,-374.885 340.203,-370.489 333.198,-375.77 333.198,-375.77"/>
<ellipse fill="none" stroke="black" cx="330.078" cy="-376.478" rx="3.2" ry="3.2"/>
</g>
<!-- core_remoteartifact -->
<g id="node6" class="node"><title>core_remoteartifact</title>
<g id="a_node6"><a xlink:href="../../tables/core_remoteartifact.html" xlink:title="core_remoteartifact" target="_top">
<polygon fill="#ffffff" stroke="none" points="346.5,-182 346.5,-306 509.5,-306 509.5,-182 346.5,-182"/>
<polygon fill="#f5f5f5" stroke="none" points="347,-284 347,-306 510,-306 510,-284 347,-284"/>
<polygon fill="none" stroke="black" points="347,-284 347,-306 510,-306 510,-284 347,-284"/>
<text text-anchor="start" x="352" y="-293.2" font-family="Helvetica,sans-Serif" font-weight="bold" font-size="11.00">core_remoteartifact</text>
<text text-anchor="start" x="471" y="-292.2" font-family="Helvetica,sans-Serif" font-size="11.00">[table]</text>
<polygon fill="none" stroke="black" points="347,-262 347,-284 510,-284 510,-262 347,-262"/>
<image xlink:href="../../images/primaryKeys.png" width="11px" height="12px" preserveAspectRatio="xMinYMin meet" x="352" y="-279"/>
<text text-anchor="start" x="379" y="-270.2" font-family="Helvetica,sans-Serif" font-size="11.00">pulp_id</text>
<polygon fill="#ffffff" stroke="none" points="347,-240 347,-262 510,-262 510,-240 347,-240"/>
<polygon fill="none" stroke="black" points="347,-240 347,-262 510,-262 510,-240 347,-240"/>
<image xlink:href="../../images/foreignKeys.png" width="11px" height="12px" preserveAspectRatio="xMinYMin meet" x="352" y="-257"/>
<text text-anchor="start" x="379" y="-248.2" font-family="Helvetica,sans-Serif" font-size="11.00">content_artifact_id</text>
<polygon fill="#ffffff" stroke="none" points="347,-218 347,-240 510,-240 510,-218 347,-218"/>
<polygon fill="none" stroke="black" points="347,-218 347,-240 510,-240 510,-218 347,-218"/>
<image xlink:href="../../images/foreignKeys.png" width="11px" height="12px" preserveAspectRatio="xMinYMin meet" x="352" y="-235"/>
<text text-anchor="start" x="379" y="-226.2" font-family="Helvetica,sans-Serif" font-size="11.00">remote_id</text>
<polygon fill="none" stroke="black" points="347,-200 347,-218 510,-218 510,-200 347,-200"/>
<text text-anchor="start" x="350" y="-206.2" font-family="Helvetica,sans-Serif" font-size="11.00">...</text>
<polygon fill="#ffffff" stroke="none" points="347,-182 347,-200 409,-200 409,-182 347,-182"/>
<polygon fill="none" stroke="black" points="347,-182 347,-200 409,-200 409,-182 347,-182"/>
<text text-anchor="start" x="350" y="-188.2" font-family="Helvetica,sans-Serif" font-size="11.00">&lt; 2</text>
<polygon fill="#ffffff" stroke="none" points="409,-182 409,-200 477,-200 477,-182 409,-182"/>
<polygon fill="none" stroke="black" points="409,-182 409,-200 477,-200 477,-182 409,-182"/>
<text text-anchor="start" x="431" y="-188.2" font-family="Helvetica,sans-Serif" font-size="11.00">16 rows</text>
<polygon fill="#ffffff" stroke="none" points="477,-182 477,-200 510,-200 510,-182 477,-182"/>
<polygon fill="none" stroke="black" points="477,-182 477,-200 510,-200 510,-182 477,-182"/>
<text text-anchor="start" x="500" y="-188.2" font-family="Helvetica,sans-Serif" font-size="11.00"> &#160;</text>
</a>
</g>
</g>
<!-- core_remoteartifact&#45;&gt;core_remote -->
<g id="edge5" class="edge"><title>core_remoteartifact:remote_id:w&#45;&gt;core_remote:pulp_id.type:e</title>
<path fill="none" stroke="black" d="M332.762,-234.691C295.419,-271.904 327.564,-479 275,-479"/>
<polygon fill="black" stroke="black" points="338.65,-232.16 347.422,-232.307 342.325,-230.58 346,-229 346,-229 346,-229 342.325,-230.58 344.578,-225.693 338.65,-232.16 338.65,-232.16"/>
<ellipse fill="none" stroke="black" cx="335.711" cy="-233.424" rx="3.20001" ry="3.20001"/>
</g>
<!-- core_repository -->
<g id="node7" class="node"><title>core_repository</title>
<g id="a_node7"><a xlink:href="../../tables/core_repository.html" xlink:title="core_repository" target="_top">
<polygon fill="#ffffff" stroke="none" points="359.5,-37 359.5,-161 496.5,-161 496.5,-37 359.5,-37"/>
<polygon fill="#f5f5f5" stroke="none" points="360,-139 360,-161 497,-161 497,-139 360,-139"/>
<polygon fill="none" stroke="black" points="360,-139 360,-161 497,-161 497,-139 360,-139"/>
<text text-anchor="start" x="365" y="-148.2" font-family="Helvetica,sans-Serif" font-weight="bold" font-size="11.00">core_repository</text>
<text text-anchor="start" x="458" y="-147.2" font-family="Helvetica,sans-Serif" font-size="11.00">[table]</text>
<polygon fill="none" stroke="black" points="360,-117 360,-139 497,-139 497,-117 360,-117"/>
<image xlink:href="../../images/primaryKeys.png" width="11px" height="12px" preserveAspectRatio="xMinYMin meet" x="365" y="-134"/>
<text text-anchor="start" x="384" y="-125.2" font-family="Helvetica,sans-Serif" font-size="11.00">pulp_id</text>
<polygon fill="#ffffff" stroke="none" points="360,-95 360,-117 497,-117 497,-95 360,-95"/>
<polygon fill="none" stroke="black" points="360,-95 360,-117 497,-117 497,-95 360,-95"/>
<text text-anchor="start" x="384" y="-103.2" font-family="Helvetica,sans-Serif" font-size="11.00">name</text>
<polygon fill="#ffffff" stroke="none" points="360,-73 360,-95 497,-95 497,-73 360,-73"/>
<polygon fill="none" stroke="black" points="360,-73 360,-95 497,-95 497,-73 360,-73"/>
<image xlink:href="../../images/foreignKeys.png" width="11px" height="12px" preserveAspectRatio="xMinYMin meet" x="365" y="-90"/>
<text text-anchor="start" x="384" y="-81.2" font-family="Helvetica,sans-Serif" font-size="11.00">remote_id</text>
<polygon fill="none" stroke="black" points="360,-55 360,-73 497,-73 497,-55 360,-55"/>
<text text-anchor="start" x="363" y="-61.2" font-family="Helvetica,sans-Serif" font-size="11.00">...</text>
<polygon fill="#ffffff" stroke="none" points="360,-37 360,-55 400,-55 400,-37 360,-37"/>
<polygon fill="none" stroke="black" points="360,-37 360,-55 400,-55 400,-37 360,-37"/>
<text text-anchor="start" x="363" y="-43.2" font-family="Helvetica,sans-Serif" font-size="11.00">&lt; 1</text>
<polygon fill="#ffffff" stroke="none" points="400,-37 400,-55 458,-55 458,-37 400,-37"/>
<polygon fill="none" stroke="black" points="400,-37 400,-55 458,-55 458,-37 400,-37"/>
<text text-anchor="start" x="412" y="-43.2" font-family="Helvetica,sans-Serif" font-size="11.00">26 rows</text>
<polygon fill="#ffffff" stroke="none" points="458,-37 458,-55 497,-55 497,-37 458,-37"/>
<polygon fill="none" stroke="black" points="458,-37 458,-55 497,-55 497,-37 458,-37"/>
<text text-anchor="start" x="470" y="-43.2" font-family="Helvetica,sans-Serif" font-size="11.00">10 &gt;</text>
</a>
</g>
</g>
<!-- core_repository&#45;&gt;core_remote -->
<g id="edge6" class="edge"><title>core_repository:remote_id:w&#45;&gt;core_remote:pulp_id.type:e</title>
<path fill="none" stroke="black" d="M344.559,-86.3391C318.855,-96.2588 327.769,-135.994 317,-172 297.268,-237.97 343.858,-479 275,-479"/>
<polygon fill="black" stroke="black" points="351.103,-85.2792 359.576,-87.5537 355.051,-84.6396 359,-84 359,-84 359,-84 355.051,-84.6396 358.424,-80.4463 351.103,-85.2792 351.103,-85.2792"/>
<ellipse fill="none" stroke="black" cx="347.944" cy="-85.7909" rx="3.2" ry="3.2"/>
</g>
</g>
</svg>
