<?xml version="1.0" encoding="UTF-8" standalone="no"?>
<!DOCTYPE svg PUBLIC "-//W3C//DTD SVG 1.1//EN"
 "http://www.w3.org/Graphics/SVG/1.1/DTD/svg11.dtd">
<!-- Generated by graphviz version 2.38.0 (20140413.2041)
 -->
<!-- Title: oneDegreeRelationshipsDiagram Pages: 1 -->
<svg width="606pt" height="307pt"
 viewBox="0.00 0.00 606.00 307.00" xmlns="http://www.w3.org/2000/svg" xmlns:xlink="http://www.w3.org/1999/xlink">
<g id="graph0" class="graph" transform="scale(1 1) rotate(0) translate(4 303)">
<title>oneDegreeRelationshipsDiagram</title>
<polygon fill="#ffffff" stroke="none" points="-4,4 -4,-303 602,-303 602,4 -4,4"/>
<text text-anchor="middle" x="74.5" y="-7.2" font-family="Helvetica,sans-Serif" font-size="11.00">Generated by SchemaSpy</text>
<!-- core_repositoryversioncontentdetails -->
<g id="node1" class="node"><title>core_repositoryversioncontentdetails</title>
<g id="a_node1"><a xlink:href="../../tables/core_repositoryversioncontentdetails.html" xlink:title="core_repositoryversioncontentdetails" target="_top">
<polygon fill="#ffffff" stroke="none" points="236,-141 236,-295 590,-295 590,-141 236,-141"/>
<polygon fill="#f5f5f5" stroke="none" points="238,-271 238,-293 588,-293 588,-271 238,-271"/>
<polygon fill="none" stroke="black" points="238,-271 238,-293 588,-293 588,-271 238,-271"/>
<text text-anchor="start" x="243" y="-280.2" font-family="Helvetica,sans-Serif" font-weight="bold" font-size="11.00">core_repositoryversioncontentdetails</text>
<text text-anchor="start" x="549" y="-279.2" font-family="Helvetica,sans-Serif" font-size="11.00">[table]</text>
<polygon fill="none" stroke="black" points="238,-249 238,-271 483,-271 483,-249 238,-249"/>
<image xlink:href="../../images/primaryKeys.png" width="11px" height="12px" preserveAspectRatio="xMinYMin meet" x="243" y="-266"/>
<text text-anchor="start" x="258" y="-257.2" font-family="Helvetica,sans-Serif" font-size="11.00">id</text>
<polygon fill="none" stroke="black" points="483,-249 483,-271 588,-271 588,-249 483,-249"/>
<text text-anchor="start" x="486" y="-257.2" font-family="Helvetica,sans-Serif" font-size="11.00">serial[10]</text>
<polygon fill="none" stroke="black" points="238,-227 238,-249 483,-249 483,-227 238,-227"/>
<text text-anchor="start" x="258" y="-235.2" font-family="Helvetica,sans-Serif" font-size="11.00">count_type</text>
<polygon fill="none" stroke="black" points="483,-227 483,-249 588,-249 588,-227 483,-227"/>
<text text-anchor="start" x="486" y="-235.2" font-family="Helvetica,sans-Serif" font-size="11.00">varchar[1]</text>
<polygon fill="none" stroke="black" points="238,-205 238,-227 483,-227 483,-205 238,-205"/>
<text text-anchor="start" x="258" y="-213.2" font-family="Helvetica,sans-Serif" font-size="11.00">content_type</text>
<polygon fill="none" stroke="black" points="483,-205 483,-227 588,-227 588,-205 483,-205"/>
<text text-anchor="start" x="486" y="-213.2" font-family="Helvetica,sans-Serif" font-size="11.00">text[2147483647]</text>
<polygon fill="none" stroke="black" points="238,-183 238,-205 483,-205 483,-183 238,-183"/>
<text text-anchor="start" x="258" y="-191.2" font-family="Helvetica,sans-Serif" font-size="11.00">count</text>
<polygon fill="none" stroke="black" points="483,-183 483,-205 588,-205 588,-183 483,-183"/>
<text text-anchor="start" x="486" y="-191.2" font-family="Helvetica,sans-Serif" font-size="11.00">int4[10]</text>
<polygon fill="#ffffff" stroke="none" points="238,-161 238,-183 483,-183 483,-161 238,-161"/>
<polygon fill="none" stroke="black" points="238,-161 238,-183 483,-183 483,-161 238,-161"/>
<image xlink:href="../../images/foreignKeys.png" width="11px" height="12px" preserveAspectRatio="xMinYMin meet" x="243" y="-178"/>
<text text-anchor="start" x="258" y="-169.2" font-family="Helvetica,sans-Serif" font-size="11.00">repository_version_id</text>
<polygon fill="none" stroke="black" points="483,-161 483,-183 588,-183 588,-161 483,-161"/>
<text text-anchor="start" x="486" y="-169.2" font-family="Helvetica,sans-Serif" font-size="11.00">uuid[2147483647]</text>
<polygon fill="#ffffff" stroke="none" points="238,-143 238,-161 344,-161 344,-143 238,-143"/>
<polygon fill="none" stroke="black" points="238,-143 238,-161 344,-161 344,-143 238,-143"/>
<text text-anchor="start" x="241" y="-149.2" font-family="Helvetica,sans-Serif" font-size="11.00">&lt; 1</text>
<polygon fill="#ffffff" stroke="none" points="344,-143 344,-161 483,-161 483,-143 344,-143"/>
<polygon fill="none" stroke="black" points="344,-143 344,-161 483,-161 483,-143 344,-143"/>
<text text-anchor="start" x="431" y="-149.2" font-family="Helvetica,sans-Serif" font-size="11.00">281 rows</text>
<polygon fill="#ffffff" stroke="none" points="483,-143 483,-161 588,-161 588,-143 483,-143"/>
<polygon fill="none" stroke="black" points="483,-143 483,-161 588,-161 588,-143 483,-143"/>
<text text-anchor="start" x="568" y="-149.2" font-family="Helvetica,sans-Serif" font-size="11.00">0 &gt;</text>
<polygon fill="none" stroke="black" stroke-width="2" points="237,-142 237,-294 589,-294 589,-142 237,-142"/>
</a>
</g>
</g>
<!-- core_repositoryversion -->
<g id="node2" class="node"><title>core_repositoryversion</title>
<g id="a_node2"><a xlink:href="../../tables/core_repositoryversion.html" xlink:title="core_repositoryversion" target="_top">
<polygon fill="#ffffff" stroke="none" points="8,-37 8,-205 187,-205 187,-37 8,-37"/>
<polygon fill="#f5f5f5" stroke="none" points="8.5,-183 8.5,-205 187.5,-205 187.5,-183 8.5,-183"/>
<polygon fill="none" stroke="black" points="8.5,-183 8.5,-205 187.5,-205 187.5,-183 8.5,-183"/>
<text text-anchor="start" x="13.5" y="-192.2" font-family="Helvetica,sans-Serif" font-weight="bold" font-size="11.00">core_repositoryversion</text>
<text text-anchor="start" x="148.5" y="-191.2" font-family="Helvetica,sans-Serif" font-size="11.00">[table]</text>
<polygon fill="none" stroke="black" points="8.5,-161 8.5,-183 187.5,-183 187.5,-161 8.5,-161"/>
<image xlink:href="../../images/primaryKeys.png" width="11px" height="12px" preserveAspectRatio="xMinYMin meet" x="13.5" y="-178"/>
<text text-anchor="start" x="39.5" y="-169.2" font-family="Helvetica,sans-Serif" font-size="11.00">pulp_id</text>
<polygon fill="#ffffff" stroke="none" points="8.5,-139 8.5,-161 187.5,-161 187.5,-139 8.5,-139"/>
<polygon fill="none" stroke="black" points="8.5,-139 8.5,-161 187.5,-161 187.5,-139 8.5,-139"/>
<text text-anchor="start" x="39.5" y="-147.2" font-family="Helvetica,sans-Serif" font-size="11.00">number</text>
<polygon fill="#ffffff" stroke="none" points="8.5,-117 8.5,-139 187.5,-139 187.5,-117 8.5,-117"/>
<polygon fill="none" stroke="black" points="8.5,-117 8.5,-139 187.5,-139 187.5,-117 8.5,-117"/>
<text text-anchor="start" x="39.5" y="-125.2" font-family="Helvetica,sans-Serif" font-size="11.00">complete</text>
<polygon fill="#ffffff" stroke="none" points="8.5,-95 8.5,-117 187.5,-117 187.5,-95 8.5,-95"/>
<polygon fill="none" stroke="black" points="8.5,-95 8.5,-117 187.5,-117 187.5,-95 8.5,-95"/>
<image xlink:href="../../images/foreignKeys.png" width="11px" height="12px" preserveAspectRatio="xMinYMin meet" x="13.5" y="-112"/>
<text text-anchor="start" x="39.5" y="-103.2" font-family="Helvetica,sans-Serif" font-size="11.00">base_version_id</text>
<polygon fill="#ffffff" stroke="none" points="8.5,-73 8.5,-95 187.5,-95 187.5,-73 8.5,-73"/>
<polygon fill="none" stroke="black" points="8.5,-73 8.5,-95 187.5,-95 187.5,-73 8.5,-73"/>
<image xlink:href="../../images/foreignKeys.png" width="11px" height="12px" preserveAspectRatio="xMinYMin meet" x="13.5" y="-90"/>
<text text-anchor="start" x="39.5" y="-81.2" font-family="Helvetica,sans-Serif" font-size="11.00">repository_id</text>
<polygon fill="none" stroke="black" points="8.5,-55 8.5,-73 187.5,-73 187.5,-55 8.5,-55"/>
<text text-anchor="start" x="11.5" y="-61.2" font-family="Helvetica,sans-Serif" font-size="11.00">...</text>
<polygon fill="#ffffff" stroke="none" points="8.5,-37 8.5,-55 70.5,-55 70.5,-37 8.5,-37"/>
<polygon fill="none" stroke="black" points="8.5,-37 8.5,-55 70.5,-55 70.5,-37 8.5,-37"/>
<text text-anchor="start" x="11.5" y="-43.2" font-family="Helvetica,sans-Serif" font-size="11.00">&lt; 2</text>
<polygon fill="#ffffff" stroke="none" points="70.5,-37 70.5,-55 144.5,-55 144.5,-37 70.5,-37"/>
<polygon fill="none" stroke="black" points="70.5,-37 70.5,-55 144.5,-55 144.5,-37 70.5,-37"/>
<text text-anchor="start" x="92.5" y="-43.2" font-family="Helvetica,sans-Serif" font-size="11.00">162 rows</text>
<polygon fill="#ffffff" stroke="none" points="144.5,-37 144.5,-55 187.5,-55 187.5,-37 144.5,-37"/>
<polygon fill="none" stroke="black" points="144.5,-37 144.5,-55 187.5,-55 187.5,-37 144.5,-37"/>
<text text-anchor="start" x="167.5" y="-43.2" font-family="Helvetica,sans-Serif" font-size="11.00">7 &gt;</text>
</a>
</g>
</g>
<!-- core_repositoryversioncontentdetails&#45;&gt;core_repositoryversion -->
<g id="edge1" class="edge"><title>core_repositoryversioncontentdetails:repository_version_id:w&#45;&gt;core_repositoryversion:pulp_id:e</title>
<path fill="none" stroke="black" d="M222.283,-172C211.289,-172 204.161,-172 188.5,-172"/>
<polygon fill="black" stroke="black" points="229,-172 237,-175.6 233,-172 237,-172 237,-172 237,-172 233,-172 237,-168.4 229,-172 229,-172"/>
<ellipse fill="none" stroke="black" cx="225.8" cy="-172" rx="3.2" ry="3.2"/>
</g>
</g>
</svg>
