<?xml version="1.0" encoding="UTF-8" standalone="no"?>
<!DOCTYPE svg PUBLIC "-//W3C//DTD SVG 1.1//EN"
 "http://www.w3.org/Graphics/SVG/1.1/DTD/svg11.dtd">
<!-- Generated by graphviz version 2.38.0 (20140413.2041)
 -->
<!-- Title: twoDegreesRelationshipsDiagram Pages: 1 -->
<svg width="1148pt" height="282pt"
 viewBox="0.00 0.00 1148.00 282.00" xmlns="http://www.w3.org/2000/svg" xmlns:xlink="http://www.w3.org/1999/xlink">
<g id="graph0" class="graph" transform="scale(1 1) rotate(0) translate(4 278)">
<title>twoDegreesRelationshipsDiagram</title>
<polygon fill="#ffffff" stroke="none" points="-4,4 -4,-278 1144,-278 1144,4 -4,4"/>
<text text-anchor="middle" x="74.5" y="-7.2" font-family="Helvetica,sans-Serif" font-size="11.00">Generated by SchemaSpy</text>
<!-- core_export -->
<g id="node1" class="node"><title>core_export</title>
<g id="a_node1"><a xlink:href="../../tables/core_export.html" xlink:title="core_export" target="_top">
<polygon fill="#ffffff" stroke="none" points="295,-52 295,-176 424,-176 424,-52 295,-52"/>
<polygon fill="#f5f5f5" stroke="none" points="295.5,-154 295.5,-176 424.5,-176 424.5,-154 295.5,-154"/>
<polygon fill="none" stroke="black" points="295.5,-154 295.5,-176 424.5,-176 424.5,-154 295.5,-154"/>
<text text-anchor="start" x="300.5" y="-163.2" font-family="Helvetica,sans-Serif" font-weight="bold" font-size="11.00">core_export</text>
<text text-anchor="start" x="385.5" y="-162.2" font-family="Helvetica,sans-Serif" font-size="11.00">[table]</text>
<polygon fill="none" stroke="black" points="295.5,-132 295.5,-154 424.5,-154 424.5,-132 295.5,-132"/>
<image xlink:href="../../images/primaryKeys.png" width="11px" height="12px" preserveAspectRatio="xMinYMin meet" x="300.5" y="-149"/>
<text text-anchor="start" x="315.5" y="-140.2" font-family="Helvetica,sans-Serif" font-size="11.00">pulp_id</text>
<polygon fill="#ffffff" stroke="none" points="295.5,-110 295.5,-132 424.5,-132 424.5,-110 295.5,-110"/>
<polygon fill="none" stroke="black" points="295.5,-110 295.5,-132 424.5,-132 424.5,-110 295.5,-110"/>
<image xlink:href="../../images/foreignKeys.png" width="11px" height="12px" preserveAspectRatio="xMinYMin meet" x="300.5" y="-127"/>
<text text-anchor="start" x="315.5" y="-118.2" font-family="Helvetica,sans-Serif" font-size="11.00">exporter_id</text>
<polygon fill="#ffffff" stroke="none" points="295.5,-88 295.5,-110 424.5,-110 424.5,-88 295.5,-88"/>
<polygon fill="none" stroke="black" points="295.5,-88 295.5,-110 424.5,-110 424.5,-88 295.5,-88"/>
<image xlink:href="../../images/foreignKeys.png" width="11px" height="12px" preserveAspectRatio="xMinYMin meet" x="300.5" y="-105"/>
<text text-anchor="start" x="315.5" y="-96.2" font-family="Helvetica,sans-Serif" font-size="11.00">task_id</text>
<polygon fill="none" stroke="black" points="295.5,-70 295.5,-88 424.5,-88 424.5,-70 295.5,-70"/>
<text text-anchor="start" x="298.5" y="-76.2" font-family="Helvetica,sans-Serif" font-size="11.00">...</text>
<polygon fill="#ffffff" stroke="none" points="295.5,-52 295.5,-70 338.5,-70 338.5,-52 295.5,-52"/>
<polygon fill="none" stroke="black" points="295.5,-52 295.5,-70 338.5,-70 338.5,-52 295.5,-52"/>
<text text-anchor="start" x="298.5" y="-58.2" font-family="Helvetica,sans-Serif" font-size="11.00">&lt; 2</text>
<polygon fill="#ffffff" stroke="none" points="338.5,-52 338.5,-70 390.5,-70 390.5,-52 338.5,-52"/>
<polygon fill="none" stroke="black" points="338.5,-52 338.5,-70 390.5,-70 390.5,-52 338.5,-52"/>
<text text-anchor="start" x="351.5" y="-58.2" font-family="Helvetica,sans-Serif" font-size="11.00">0 rows</text>
<polygon fill="#ffffff" stroke="none" points="390.5,-52 390.5,-70 424.5,-70 424.5,-52 390.5,-52"/>
<polygon fill="none" stroke="black" points="390.5,-52 390.5,-70 424.5,-70 424.5,-52 390.5,-52"/>
<text text-anchor="start" x="404.5" y="-58.2" font-family="Helvetica,sans-Serif" font-size="11.00">2 &gt;</text>
</a>
</g>
</g>
<!-- core_exporter -->
<g id="node2" class="node"><title>core_exporter</title>
<g id="a_node2"><a xlink:href="../../tables/core_exporter.html" xlink:title="core_exporter" target="_top">
<polygon fill="#ffffff" stroke="none" points="8,-116 8,-270 246,-270 246,-116 8,-116"/>
<polygon fill="#f5f5f5" stroke="none" points="10,-246 10,-268 244,-268 244,-246 10,-246"/>
<polygon fill="none" stroke="black" points="10,-246 10,-268 244,-268 244,-246 10,-246"/>
<text text-anchor="start" x="15" y="-255.2" font-family="Helvetica,sans-Serif" font-weight="bold" font-size="11.00">core_exporter</text>
<text text-anchor="start" x="205" y="-254.2" font-family="Helvetica,sans-Serif" font-size="11.00">[table]</text>
<polygon fill="none" stroke="black" points="10,-224 10,-246 139,-246 139,-224 10,-224"/>
<image xlink:href="../../images/primaryKeys.png" width="11px" height="12px" preserveAspectRatio="xMinYMin meet" x="15" y="-241"/>
<text text-anchor="start" x="30" y="-232.2" font-family="Helvetica,sans-Serif" font-size="11.00">pulp_id</text>
<polygon fill="none" stroke="black" points="139,-224 139,-246 244,-246 244,-224 139,-224"/>
<text text-anchor="start" x="142" y="-232.2" font-family="Helvetica,sans-Serif" font-size="11.00">uuid[2147483647]</text>
<polygon fill="none" stroke="black" points="10,-202 10,-224 139,-224 139,-202 10,-202"/>
<text text-anchor="start" x="30" y="-210.2" font-family="Helvetica,sans-Serif" font-size="11.00">pulp_created</text>
<polygon fill="none" stroke="black" points="139,-202 139,-224 244,-224 244,-202 139,-202"/>
<text text-anchor="start" x="142" y="-210.2" font-family="Helvetica,sans-Serif" font-size="11.00">timestamptz[35,6]</text>
<polygon fill="none" stroke="black" points="10,-180 10,-202 139,-202 139,-180 10,-180"/>
<text text-anchor="start" x="30" y="-188.2" font-family="Helvetica,sans-Serif" font-size="11.00">pulp_last_updated</text>
<polygon fill="none" stroke="black" points="139,-180 139,-202 244,-202 244,-180 139,-180"/>
<text text-anchor="start" x="142" y="-188.2" font-family="Helvetica,sans-Serif" font-size="11.00">timestamptz[35,6]</text>
<polygon fill="none" stroke="black" points="10,-158 10,-180 139,-180 139,-158 10,-158"/>
<text text-anchor="start" x="30" y="-166.2" font-family="Helvetica,sans-Serif" font-size="11.00">pulp_type</text>
<polygon fill="none" stroke="black" points="139,-158 139,-180 244,-180 244,-158 139,-158"/>
<text text-anchor="start" x="142" y="-166.2" font-family="Helvetica,sans-Serif" font-size="11.00">text[2147483647]</text>
<polygon fill="#ffffff" stroke="none" points="10,-136 10,-158 139,-158 139,-136 10,-136"/>
<polygon fill="none" stroke="black" points="10,-136 10,-158 139,-158 139,-136 10,-136"/>
<text text-anchor="start" x="30" y="-144.2" font-family="Helvetica,sans-Serif" font-size="11.00">name</text>
<polygon fill="none" stroke="black" points="139,-136 139,-158 244,-158 244,-136 139,-136"/>
<text text-anchor="start" x="142" y="-144.2" font-family="Helvetica,sans-Serif" font-size="11.00">text[2147483647]</text>
<polygon fill="#ffffff" stroke="none" points="10,-118 10,-136 65,-136 65,-118 10,-118"/>
<polygon fill="none" stroke="black" points="10,-118 10,-136 65,-136 65,-118 10,-118"/>
<text text-anchor="start" x="13" y="-124.2" font-family="Helvetica,sans-Serif" font-size="11.00">&lt; 0</text>
<polygon fill="#ffffff" stroke="none" points="65,-118 65,-136 139,-136 139,-118 65,-118"/>
<polygon fill="none" stroke="black" points="65,-118 65,-136 139,-136 139,-118 65,-118"/>
<text text-anchor="start" x="100" y="-124.2" font-family="Helvetica,sans-Serif" font-size="11.00">0 rows</text>
<polygon fill="#ffffff" stroke="none" points="139,-118 139,-136 244,-136 244,-118 139,-118"/>
<polygon fill="none" stroke="black" points="139,-118 139,-136 244,-136 244,-118 139,-118"/>
<text text-anchor="start" x="224" y="-124.2" font-family="Helvetica,sans-Serif" font-size="11.00">2 &gt;</text>
<polygon fill="none" stroke="black" stroke-width="2" points="9,-117 9,-269 245,-269 245,-117 9,-117"/>
</a>
</g>
</g>
<!-- core_export&#45;&gt;core_exporter -->
<g id="edge1" class="edge"><title>core_export:exporter_id:w&#45;&gt;core_exporter:pulp_id.type:e</title>
<path fill="none" stroke="black" d="M280.242,-124.793C251.211,-144.574 294.195,-235 245,-235"/>
<polygon fill="black" stroke="black" points="286.769,-123.057 295.426,-124.479 290.634,-122.028 294.5,-121 294.5,-121 294.5,-121 290.634,-122.028 293.574,-117.521 286.769,-123.057 286.769,-123.057"/>
<ellipse fill="none" stroke="black" cx="283.676" cy="-123.879" rx="3.2" ry="3.2"/>
</g>
<!-- core_task -->
<g id="node3" class="node"><title>core_task</title>
<g id="a_node3"><a xlink:href="../../tables/core_task.html" xlink:title="core_task" target="_top">
<polygon fill="#ffffff" stroke="none" points="71.5,-37 71.5,-95 182.5,-95 182.5,-37 71.5,-37"/>
<polygon fill="#f5f5f5" stroke="none" points="72,-73 72,-95 183,-95 183,-73 72,-73"/>
<polygon fill="none" stroke="black" points="72,-73 72,-95 183,-95 183,-73 72,-73"/>
<text text-anchor="start" x="77" y="-82.2" font-family="Helvetica,sans-Serif" font-weight="bold" font-size="11.00">core_task</text>
<text text-anchor="start" x="144" y="-81.2" font-family="Helvetica,sans-Serif" font-size="11.00">[table]</text>
<polygon fill="none" stroke="black" points="72,-55 72,-73 183,-73 183,-55 72,-55"/>
<text text-anchor="start" x="75" y="-61.2" font-family="Helvetica,sans-Serif" font-size="11.00">...</text>
<polygon fill="#ffffff" stroke="none" points="72,-37 72,-55 95,-55 95,-37 72,-37"/>
<polygon fill="none" stroke="black" points="72,-37 72,-55 95,-55 95,-37 72,-37"/>
<text text-anchor="start" x="75" y="-43.2" font-family="Helvetica,sans-Serif" font-size="11.00">&lt; 3</text>
<polygon fill="#ffffff" stroke="none" points="95,-37 95,-55 160,-55 160,-37 95,-37"/>
<polygon fill="none" stroke="black" points="95,-37 95,-55 160,-55 160,-37 95,-37"/>
<text text-anchor="start" x="98" y="-43.2" font-family="Helvetica,sans-Serif" font-size="11.00">1,828 rows</text>
<polygon fill="#ffffff" stroke="none" points="160,-37 160,-55 183,-55 183,-37 160,-37"/>
<polygon fill="none" stroke="black" points="160,-37 160,-55 183,-55 183,-37 160,-37"/>
<text text-anchor="start" x="163" y="-43.2" font-family="Helvetica,sans-Serif" font-size="11.00">8 &gt;</text>
</a>
</g>
</g>
<!-- core_export&#45;&gt;core_task -->
<g id="edge2" class="edge"><title>core_export:task_id:w&#45;&gt;core_task:elipses:e</title>
<path fill="none" stroke="black" d="M280.075,-97.9903C241.013,-92.2516 230.284,-64 184,-64"/>
<polygon fill="black" stroke="black" points="286.52,-98.4413 294.249,-102.591 290.51,-98.7207 294.5,-99 294.5,-99 294.5,-99 290.51,-98.7207 294.751,-95.4088 286.52,-98.4413 286.52,-98.4413"/>
<ellipse fill="none" stroke="black" cx="283.327" cy="-98.2179" rx="3.2" ry="3.2"/>
</g>
<!-- core_exportedresource -->
<g id="node4" class="node"><title>core_exportedresource</title>
<g id="a_node4"><a xlink:href="../../tables/core_exportedresource.html" xlink:title="core_exportedresource" target="_top">
<polygon fill="#ffffff" stroke="none" points="473,-74 473,-132 653,-132 653,-74 473,-74"/>
<polygon fill="#f5f5f5" stroke="none" points="473,-110 473,-132 653,-132 653,-110 473,-110"/>
<polygon fill="none" stroke="black" points="473,-110 473,-132 653,-132 653,-110 473,-110"/>
<text text-anchor="start" x="478" y="-119.2" font-family="Helvetica,sans-Serif" font-weight="bold" font-size="11.00">core_exportedresource</text>
<text text-anchor="start" x="614" y="-118.2" font-family="Helvetica,sans-Serif" font-size="11.00">[table]</text>
<polygon fill="none" stroke="black" points="473,-92 473,-110 653,-110 653,-92 473,-92"/>
<text text-anchor="start" x="476" y="-98.2" font-family="Helvetica,sans-Serif" font-size="11.00">...</text>
<polygon fill="#ffffff" stroke="none" points="473,-74 473,-92 547,-92 547,-74 473,-74"/>
<polygon fill="none" stroke="black" points="473,-74 473,-92 547,-92 547,-74 473,-74"/>
<text text-anchor="start" x="476" y="-80.2" font-family="Helvetica,sans-Serif" font-size="11.00">&lt; 2</text>
<polygon fill="#ffffff" stroke="none" points="547,-74 547,-92 614,-92 614,-74 547,-74"/>
<polygon fill="none" stroke="black" points="547,-74 547,-92 614,-92 614,-74 547,-74"/>
<text text-anchor="start" x="575" y="-80.2" font-family="Helvetica,sans-Serif" font-size="11.00">0 rows</text>
<polygon fill="#ffffff" stroke="none" points="614,-74 614,-92 653,-92 653,-74 614,-74"/>
<polygon fill="none" stroke="black" points="614,-74 614,-92 653,-92 653,-74 614,-74"/>
<text text-anchor="start" x="643" y="-80.2" font-family="Helvetica,sans-Serif" font-size="11.00"> &#160;</text>
</a>
</g>
</g>
<!-- core_exportedresource&#45;&gt;core_export -->
<g id="edge3" class="edge"><title>core_exportedresource:elipses:w&#45;&gt;core_export:pulp_id:e</title>
<path fill="none" stroke="black" d="M458.267,-106.15C446.402,-117.365 447.257,-143 425.5,-143"/>
<polygon fill="black" stroke="black" points="464.509,-103.809 473.264,-104.371 468.255,-102.405 472,-101 472,-101 472,-101 468.255,-102.405 470.736,-97.6292 464.509,-103.809 464.509,-103.809"/>
<ellipse fill="none" stroke="black" cx="461.513" cy="-104.933" rx="3.20001" ry="3.20001"/>
</g>
<!-- core_pulpexport -->
<g id="node5" class="node"><title>core_pulpexport</title>
<g id="a_node5"><a xlink:href="../../tables/core_pulpexport.html" xlink:title="core_pulpexport" target="_top">
<polygon fill="#ffffff" stroke="none" points="492,-153 492,-211 634,-211 634,-153 492,-153"/>
<polygon fill="#f5f5f5" stroke="none" points="492,-189 492,-211 634,-211 634,-189 492,-189"/>
<polygon fill="none" stroke="black" points="492,-189 492,-211 634,-211 634,-189 492,-189"/>
<text text-anchor="start" x="497" y="-198.2" font-family="Helvetica,sans-Serif" font-weight="bold" font-size="11.00">core_pulpexport</text>
<text text-anchor="start" x="595" y="-197.2" font-family="Helvetica,sans-Serif" font-size="11.00">[table]</text>
<polygon fill="none" stroke="black" points="492,-171 492,-189 634,-189 634,-171 492,-171"/>
<text text-anchor="start" x="495" y="-177.2" font-family="Helvetica,sans-Serif" font-size="11.00">...</text>
<polygon fill="#ffffff" stroke="none" points="492,-153 492,-171 542,-171 542,-153 492,-153"/>
<polygon fill="none" stroke="black" points="492,-153 492,-171 542,-171 542,-153 492,-153"/>
<text text-anchor="start" x="495" y="-159.2" font-family="Helvetica,sans-Serif" font-size="11.00">&lt; 1</text>
<polygon fill="#ffffff" stroke="none" points="542,-153 542,-171 597,-171 597,-153 542,-153"/>
<polygon fill="none" stroke="black" points="542,-153 542,-171 597,-171 597,-153 542,-153"/>
<text text-anchor="start" x="558" y="-159.2" font-family="Helvetica,sans-Serif" font-size="11.00">0 rows</text>
<polygon fill="#ffffff" stroke="none" points="597,-153 597,-171 634,-171 634,-153 597,-153"/>
<polygon fill="none" stroke="black" points="597,-153 597,-171 634,-171 634,-153 597,-153"/>
<text text-anchor="start" x="614" y="-159.2" font-family="Helvetica,sans-Serif" font-size="11.00">1 &gt;</text>
</a>
</g>
</g>
<!-- core_pulpexport&#45;&gt;core_export -->
<g id="edge4" class="edge"><title>core_pulpexport:elipses:w&#45;&gt;core_export:pulp_id:e</title>
<path fill="none" stroke="black" d="M480.567,-178.595C457.408,-171.836 455.017,-143 425.5,-143"/>
<polygon fill="black" stroke="black" points="490.741,-175.929 489.673,-183.857 488.087,-183.644 489.155,-175.715 490.741,-175.929"/>
<polyline fill="none" stroke="black" points="491,-180 487.036,-179.466 "/>
<ellipse fill="none" stroke="black" cx="483.864" cy="-179.039" rx="3.2" ry="3.2"/>
</g>
<!-- core_pulpexporter -->
<g id="node6" class="node"><title>core_pulpexporter</title>
<g id="a_node6"><a xlink:href="../../tables/core_pulpexporter.html" xlink:title="core_pulpexporter" target="_top">
<polygon fill="#ffffff" stroke="none" points="702,-149 702,-251 856,-251 856,-149 702,-149"/>
<polygon fill="#f5f5f5" stroke="none" points="702,-229 702,-251 856,-251 856,-229 702,-229"/>
<polygon fill="none" stroke="black" points="702,-229 702,-251 856,-251 856,-229 702,-229"/>
<text text-anchor="start" x="707" y="-238.2" font-family="Helvetica,sans-Serif" font-weight="bold" font-size="11.00">core_pulpexporter</text>
<text text-anchor="start" x="817" y="-237.2" font-family="Helvetica,sans-Serif" font-size="11.00">[table]</text>
<polygon fill="none" stroke="black" points="702,-207 702,-229 856,-229 856,-207 702,-207"/>
<image xlink:href="../../images/primaryKeys.png" width="11px" height="12px" preserveAspectRatio="xMinYMin meet" x="707" y="-224"/>
<text text-anchor="start" x="734" y="-215.2" font-family="Helvetica,sans-Serif" font-size="11.00">exporter_ptr_id</text>
<polygon fill="#ffffff" stroke="none" points="702,-185 702,-207 856,-207 856,-185 702,-185"/>
<polygon fill="none" stroke="black" points="702,-185 702,-207 856,-207 856,-185 702,-185"/>
<image xlink:href="../../images/foreignKeys.png" width="11px" height="12px" preserveAspectRatio="xMinYMin meet" x="707" y="-202"/>
<text text-anchor="start" x="734" y="-193.2" font-family="Helvetica,sans-Serif" font-size="11.00">last_export_id</text>
<polygon fill="none" stroke="black" points="702,-167 702,-185 856,-185 856,-167 702,-167"/>
<text text-anchor="start" x="705" y="-173.2" font-family="Helvetica,sans-Serif" font-size="11.00">...</text>
<polygon fill="#ffffff" stroke="none" points="702,-149 702,-167 758,-167 758,-149 702,-149"/>
<polygon fill="none" stroke="black" points="702,-149 702,-167 758,-167 758,-149 702,-149"/>
<text text-anchor="start" x="705" y="-155.2" font-family="Helvetica,sans-Serif" font-size="11.00">&lt; 2</text>
<polygon fill="#ffffff" stroke="none" points="758,-149 758,-167 816,-167 816,-149 758,-149"/>
<polygon fill="none" stroke="black" points="758,-149 758,-167 816,-167 816,-149 758,-149"/>
<text text-anchor="start" x="777" y="-155.2" font-family="Helvetica,sans-Serif" font-size="11.00">0 rows</text>
<polygon fill="#ffffff" stroke="none" points="816,-149 816,-167 856,-167 856,-149 816,-149"/>
<polygon fill="none" stroke="black" points="816,-149 816,-167 856,-167 856,-149 816,-149"/>
<text text-anchor="start" x="836" y="-155.2" font-family="Helvetica,sans-Serif" font-size="11.00">1 &gt;</text>
</a>
</g>
</g>
<!-- core_pulpexporter&#45;&gt;core_exporter -->
<g id="edge5" class="edge"><title>core_pulpexporter:exporter_ptr_id:w&#45;&gt;core_exporter:pulp_id.type:e</title>
<path fill="none" stroke="black" d="M690.324,-218.409C680.373,-219.236 674.65,-221.105 661,-222 476.417,-234.099 429.979,-235 245,-235"/>
<polygon fill="black" stroke="black" points="700.048,-214.034 700.354,-222.028 698.755,-222.089 698.449,-214.095 700.048,-214.034"/>
<polyline fill="none" stroke="black" points="701,-218 697.003,-218.153 "/>
<ellipse fill="none" stroke="black" cx="693.805" cy="-218.276" rx="3.2" ry="3.2"/>
</g>
<!-- core_pulpexporter&#45;&gt;core_pulpexport -->
<g id="edge6" class="edge"><title>core_pulpexporter:last_export_id:w&#45;&gt;core_pulpexport:elipses:e</title>
<path fill="none" stroke="black" d="M686.554,-194.58C667.921,-190.664 659.642,-180 635,-180"/>
<polygon fill="black" stroke="black" points="693.038,-195.217 700.648,-199.583 697.019,-195.609 701,-196 701,-196 701,-196 697.019,-195.609 701.352,-192.417 693.038,-195.217 693.038,-195.217"/>
<ellipse fill="none" stroke="black" cx="689.854" cy="-194.904" rx="3.2" ry="3.2"/>
</g>
<!-- core_pulpexporter_repositories -->
<g id="node7" class="node"><title>core_pulpexporter_repositories</title>
<g id="a_node7"><a xlink:href="../../tables/core_pulpexporter_repositories.html" xlink:title="core_pulpexporter_repositories" target="_top">
<polygon fill="#ffffff" stroke="none" points="905,-191 905,-249 1132,-249 1132,-191 905,-191"/>
<polygon fill="#f5f5f5" stroke="none" points="905.5,-227 905.5,-249 1132.5,-249 1132.5,-227 905.5,-227"/>
<polygon fill="none" stroke="black" points="905.5,-227 905.5,-249 1132.5,-249 1132.5,-227 905.5,-227"/>
<text text-anchor="start" x="910.5" y="-236.2" font-family="Helvetica,sans-Serif" font-weight="bold" font-size="11.00">core_pulpexporter_repositories</text>
<text text-anchor="start" x="1093.5" y="-235.2" font-family="Helvetica,sans-Serif" font-size="11.00">[table]</text>
<polygon fill="none" stroke="black" points="905.5,-209 905.5,-227 1132.5,-227 1132.5,-209 905.5,-209"/>
<text text-anchor="start" x="908.5" y="-215.2" font-family="Helvetica,sans-Serif" font-size="11.00">...</text>
<polygon fill="#ffffff" stroke="none" points="905.5,-191 905.5,-209 1002.5,-209 1002.5,-191 905.5,-191"/>
<polygon fill="none" stroke="black" points="905.5,-191 905.5,-209 1002.5,-209 1002.5,-191 905.5,-191"/>
<text text-anchor="start" x="908.5" y="-197.2" font-family="Helvetica,sans-Serif" font-size="11.00">&lt; 2</text>
<polygon fill="#ffffff" stroke="none" points="1002.5,-191 1002.5,-209 1081.5,-209 1081.5,-191 1002.5,-191"/>
<polygon fill="none" stroke="black" points="1002.5,-191 1002.5,-209 1081.5,-209 1081.5,-191 1002.5,-191"/>
<text text-anchor="start" x="1042.5" y="-197.2" font-family="Helvetica,sans-Serif" font-size="11.00">0 rows</text>
<polygon fill="#ffffff" stroke="none" points="1081.5,-191 1081.5,-209 1132.5,-209 1132.5,-191 1081.5,-191"/>
<polygon fill="none" stroke="black" points="1081.5,-191 1081.5,-209 1132.5,-209 1132.5,-191 1081.5,-191"/>
<text text-anchor="start" x="1122.5" y="-197.2" font-family="Helvetica,sans-Serif" font-size="11.00"> &#160;</text>
</a>
</g>
</g>
<!-- core_pulpexporter_repositories&#45;&gt;core_pulpexporter -->
<g id="edge7" class="edge"><title>core_pulpexporter_repositories:elipses:w&#45;&gt;core_pulpexporter:exporter_ptr_id:e</title>
<path fill="none" stroke="black" d="M890.086,-218C879.319,-218 872.339,-218 857,-218"/>
<polygon fill="black" stroke="black" points="896.5,-218 904.5,-221.6 900.5,-218 904.5,-218 904.5,-218 904.5,-218 900.5,-218 904.5,-214.4 896.5,-218 896.5,-218"/>
<ellipse fill="none" stroke="black" cx="893.3" cy="-218" rx="3.2" ry="3.2"/>
</g>
</g>
</svg>
