<?xml version="1.0" encoding="UTF-8" standalone="no"?>
<!DOCTYPE svg PUBLIC "-//W3C//DTD SVG 1.1//EN"
 "http://www.w3.org/Graphics/SVG/1.1/DTD/svg11.dtd">
<!-- Generated by graphviz version 2.38.0 (20140413.2041)
 -->
<!-- Title: oneDegreeRelationshipsDiagram Pages: 1 -->
<svg width="639pt" height="357pt"
 viewBox="0.00 0.00 639.00 357.00" xmlns="http://www.w3.org/2000/svg" xmlns:xlink="http://www.w3.org/1999/xlink">
<g id="graph0" class="graph" transform="scale(1 1) rotate(0) translate(4 353)">
<title>oneDegreeRelationshipsDiagram</title>
<polygon fill="#ffffff" stroke="none" points="-4,4 -4,-353 635,-353 635,4 -4,4"/>
<text text-anchor="middle" x="74.5" y="-7.2" font-family="Helvetica,sans-Serif" font-size="11.00">Generated by SchemaSpy</text>
<!-- core_import -->
<g id="node1" class="node"><title>core_import</title>
<g id="a_node1"><a xlink:href="../../tables/core_import.html" xlink:title="core_import" target="_top">
<polygon fill="#ffffff" stroke="none" points="187,-169 187,-345 430,-345 430,-169 187,-169"/>
<polygon fill="#f5f5f5" stroke="none" points="189.5,-321 189.5,-343 428.5,-343 428.5,-321 189.5,-321"/>
<polygon fill="none" stroke="black" points="189.5,-321 189.5,-343 428.5,-343 428.5,-321 189.5,-321"/>
<text text-anchor="start" x="194.5" y="-330.2" font-family="Helvetica,sans-Serif" font-weight="bold" font-size="11.00">core_import</text>
<text text-anchor="start" x="389.5" y="-329.2" font-family="Helvetica,sans-Serif" font-size="11.00">[table]</text>
<polygon fill="none" stroke="black" points="189.5,-299 189.5,-321 318.5,-321 318.5,-299 189.5,-299"/>
<image xlink:href="../../images/primaryKeys.png" width="11px" height="12px" preserveAspectRatio="xMinYMin meet" x="194.5" y="-316"/>
<text text-anchor="start" x="209.5" y="-307.2" font-family="Helvetica,sans-Serif" font-size="11.00">pulp_id</text>
<polygon fill="none" stroke="black" points="318.5,-299 318.5,-321 428.5,-321 428.5,-299 318.5,-299"/>
<text text-anchor="start" x="321.5" y="-307.2" font-family="Helvetica,sans-Serif" font-size="11.00">uuid[2147483647]</text>
<polygon fill="none" stroke="black" points="189.5,-277 189.5,-299 318.5,-299 318.5,-277 189.5,-277"/>
<text text-anchor="start" x="209.5" y="-285.2" font-family="Helvetica,sans-Serif" font-size="11.00">pulp_created</text>
<polygon fill="none" stroke="black" points="318.5,-277 318.5,-299 428.5,-299 428.5,-277 318.5,-277"/>
<text text-anchor="start" x="321.5" y="-285.2" font-family="Helvetica,sans-Serif" font-size="11.00">timestamptz[35,6]</text>
<polygon fill="none" stroke="black" points="189.5,-255 189.5,-277 318.5,-277 318.5,-255 189.5,-255"/>
<text text-anchor="start" x="209.5" y="-263.2" font-family="Helvetica,sans-Serif" font-size="11.00">pulp_last_updated</text>
<polygon fill="none" stroke="black" points="318.5,-255 318.5,-277 428.5,-277 428.5,-255 318.5,-255"/>
<text text-anchor="start" x="321.5" y="-263.2" font-family="Helvetica,sans-Serif" font-size="11.00">timestamptz[35,6]</text>
<polygon fill="none" stroke="black" points="189.5,-233 189.5,-255 318.5,-255 318.5,-233 189.5,-233"/>
<text text-anchor="start" x="209.5" y="-241.2" font-family="Helvetica,sans-Serif" font-size="11.00">params</text>
<polygon fill="none" stroke="black" points="318.5,-233 318.5,-255 428.5,-255 428.5,-233 318.5,-233"/>
<text text-anchor="start" x="321.5" y="-241.2" font-family="Helvetica,sans-Serif" font-size="11.00">jsonb[2147483647]</text>
<polygon fill="#ffffff" stroke="none" points="189.5,-211 189.5,-233 318.5,-233 318.5,-211 189.5,-211"/>
<polygon fill="none" stroke="black" points="189.5,-211 189.5,-233 318.5,-233 318.5,-211 189.5,-211"/>
<image xlink:href="../../images/foreignKeys.png" width="11px" height="12px" preserveAspectRatio="xMinYMin meet" x="194.5" y="-228"/>
<text text-anchor="start" x="209.5" y="-219.2" font-family="Helvetica,sans-Serif" font-size="11.00">importer_id</text>
<polygon fill="none" stroke="black" points="318.5,-211 318.5,-233 428.5,-233 428.5,-211 318.5,-211"/>
<text text-anchor="start" x="321.5" y="-219.2" font-family="Helvetica,sans-Serif" font-size="11.00">uuid[2147483647]</text>
<polygon fill="#ffffff" stroke="none" points="189.5,-189 189.5,-211 318.5,-211 318.5,-189 189.5,-189"/>
<polygon fill="none" stroke="black" points="189.5,-189 189.5,-211 318.5,-211 318.5,-189 189.5,-189"/>
<image xlink:href="../../images/foreignKeys.png" width="11px" height="12px" preserveAspectRatio="xMinYMin meet" x="194.5" y="-206"/>
<text text-anchor="start" x="209.5" y="-197.2" font-family="Helvetica,sans-Serif" font-size="11.00">task_id</text>
<polygon fill="none" stroke="black" points="318.5,-189 318.5,-211 428.5,-211 428.5,-189 318.5,-189"/>
<text text-anchor="start" x="321.5" y="-197.2" font-family="Helvetica,sans-Serif" font-size="11.00">uuid[2147483647]</text>
<polygon fill="#ffffff" stroke="none" points="189.5,-171 189.5,-189 244.5,-189 244.5,-171 189.5,-171"/>
<polygon fill="none" stroke="black" points="189.5,-171 189.5,-189 244.5,-189 244.5,-171 189.5,-171"/>
<text text-anchor="start" x="192.5" y="-177.2" font-family="Helvetica,sans-Serif" font-size="11.00">&lt; 2</text>
<polygon fill="#ffffff" stroke="none" points="244.5,-171 244.5,-189 318.5,-189 318.5,-171 244.5,-171"/>
<polygon fill="none" stroke="black" points="244.5,-171 244.5,-189 318.5,-189 318.5,-171 244.5,-171"/>
<text text-anchor="start" x="279.5" y="-177.2" font-family="Helvetica,sans-Serif" font-size="11.00">0 rows</text>
<polygon fill="#ffffff" stroke="none" points="318.5,-171 318.5,-189 428.5,-189 428.5,-171 318.5,-171"/>
<polygon fill="none" stroke="black" points="318.5,-171 318.5,-189 428.5,-189 428.5,-171 318.5,-171"/>
<text text-anchor="start" x="408.5" y="-177.2" font-family="Helvetica,sans-Serif" font-size="11.00">1 &gt;</text>
<polygon fill="none" stroke="black" stroke-width="2" points="188,-170 188,-344 429,-344 429,-170 188,-170"/>
</a>
</g>
</g>
<!-- core_importer -->
<g id="node2" class="node"><title>core_importer</title>
<g id="a_node2"><a xlink:href="../../tables/core_importer.html" xlink:title="core_importer" target="_top">
<polygon fill="#ffffff" stroke="none" points="8,-204 8,-306 138,-306 138,-204 8,-204"/>
<polygon fill="#f5f5f5" stroke="none" points="8,-284 8,-306 138,-306 138,-284 8,-284"/>
<polygon fill="none" stroke="black" points="8,-284 8,-306 138,-306 138,-284 8,-284"/>
<text text-anchor="start" x="13" y="-293.2" font-family="Helvetica,sans-Serif" font-weight="bold" font-size="11.00">core_importer</text>
<text text-anchor="start" x="99" y="-292.2" font-family="Helvetica,sans-Serif" font-size="11.00">[table]</text>
<polygon fill="none" stroke="black" points="8,-262 8,-284 138,-284 138,-262 8,-262"/>
<image xlink:href="../../images/primaryKeys.png" width="11px" height="12px" preserveAspectRatio="xMinYMin meet" x="13" y="-279"/>
<text text-anchor="start" x="29" y="-270.2" font-family="Helvetica,sans-Serif" font-size="11.00">pulp_id</text>
<polygon fill="#ffffff" stroke="none" points="8,-240 8,-262 138,-262 138,-240 8,-240"/>
<polygon fill="none" stroke="black" points="8,-240 8,-262 138,-262 138,-240 8,-240"/>
<text text-anchor="start" x="29" y="-248.2" font-family="Helvetica,sans-Serif" font-size="11.00">name</text>
<polygon fill="none" stroke="black" points="8,-222 8,-240 138,-240 138,-222 8,-222"/>
<text text-anchor="start" x="11" y="-228.2" font-family="Helvetica,sans-Serif" font-size="11.00">...</text>
<polygon fill="#ffffff" stroke="none" points="8,-204 8,-222 47,-222 47,-204 8,-204"/>
<polygon fill="none" stroke="black" points="8,-204 8,-222 47,-222 47,-204 8,-204"/>
<text text-anchor="start" x="11" y="-210.2" font-family="Helvetica,sans-Serif" font-size="11.00"> &#160;</text>
<polygon fill="#ffffff" stroke="none" points="47,-204 47,-222 102,-222 102,-204 47,-204"/>
<polygon fill="none" stroke="black" points="47,-204 47,-222 102,-222 102,-204 47,-204"/>
<text text-anchor="start" x="63" y="-210.2" font-family="Helvetica,sans-Serif" font-size="11.00">0 rows</text>
<polygon fill="#ffffff" stroke="none" points="102,-204 102,-222 138,-222 138,-204 102,-204"/>
<polygon fill="none" stroke="black" points="102,-204 102,-222 138,-222 138,-204 102,-204"/>
<text text-anchor="start" x="118" y="-210.2" font-family="Helvetica,sans-Serif" font-size="11.00">2 &gt;</text>
</a>
</g>
</g>
<!-- core_import&#45;&gt;core_importer -->
<g id="edge1" class="edge"><title>core_import:importer_id:w&#45;&gt;core_importer:pulp_id:e</title>
<path fill="none" stroke="black" d="M174.497,-227.077C160.528,-239.976 164.418,-273 139,-273"/>
<polygon fill="black" stroke="black" points="180.979,-224.727 189.727,-225.384 184.739,-223.363 188.5,-222 188.5,-222 188.5,-222 184.739,-223.363 187.273,-218.616 180.979,-224.727 180.979,-224.727"/>
<ellipse fill="none" stroke="black" cx="177.971" cy="-225.817" rx="3.20001" ry="3.20001"/>
</g>
<!-- core_task -->
<g id="node3" class="node"><title>core_task</title>
<g id="a_node3"><a xlink:href="../../tables/core_task.html" xlink:title="core_task" target="_top">
<polygon fill="#ffffff" stroke="none" points="8.5,-37 8.5,-183 137.5,-183 137.5,-37 8.5,-37"/>
<polygon fill="#f5f5f5" stroke="none" points="9,-161 9,-183 138,-183 138,-161 9,-161"/>
<polygon fill="none" stroke="black" points="9,-161 9,-183 138,-183 138,-161 9,-161"/>
<text text-anchor="start" x="14" y="-170.2" font-family="Helvetica,sans-Serif" font-weight="bold" font-size="11.00">core_task</text>
<text text-anchor="start" x="99" y="-169.2" font-family="Helvetica,sans-Serif" font-size="11.00">[table]</text>
<polygon fill="none" stroke="black" points="9,-139 9,-161 138,-161 138,-139 9,-139"/>
<image xlink:href="../../images/primaryKeys.png" width="11px" height="12px" preserveAspectRatio="xMinYMin meet" x="14" y="-156"/>
<text text-anchor="start" x="29" y="-147.2" font-family="Helvetica,sans-Serif" font-size="11.00">pulp_id</text>
<polygon fill="#ffffff" stroke="none" points="9,-117 9,-139 138,-139 138,-117 9,-117"/>
<polygon fill="none" stroke="black" points="9,-117 9,-139 138,-139 138,-117 9,-117"/>
<image xlink:href="../../images/foreignKeys.png" width="11px" height="12px" preserveAspectRatio="xMinYMin meet" x="14" y="-134"/>
<text text-anchor="start" x="29" y="-125.2" font-family="Helvetica,sans-Serif" font-size="11.00">worker_id</text>
<polygon fill="#ffffff" stroke="none" points="9,-95 9,-117 138,-117 138,-95 9,-95"/>
<polygon fill="none" stroke="black" points="9,-95 9,-117 138,-117 138,-95 9,-95"/>
<image xlink:href="../../images/foreignKeys.png" width="11px" height="12px" preserveAspectRatio="xMinYMin meet" x="14" y="-112"/>
<text text-anchor="start" x="29" y="-103.2" font-family="Helvetica,sans-Serif" font-size="11.00">parent_task_id</text>
<polygon fill="#ffffff" stroke="none" points="9,-73 9,-95 138,-95 138,-73 9,-73"/>
<polygon fill="none" stroke="black" points="9,-73 9,-95 138,-95 138,-73 9,-73"/>
<image xlink:href="../../images/foreignKeys.png" width="11px" height="12px" preserveAspectRatio="xMinYMin meet" x="14" y="-90"/>
<text text-anchor="start" x="29" y="-81.2" font-family="Helvetica,sans-Serif" font-size="11.00">task_group_id</text>
<polygon fill="none" stroke="black" points="9,-55 9,-73 138,-73 138,-55 9,-55"/>
<text text-anchor="start" x="12" y="-61.2" font-family="Helvetica,sans-Serif" font-size="11.00">...</text>
<polygon fill="#ffffff" stroke="none" points="9,-37 9,-55 41,-55 41,-37 9,-37"/>
<polygon fill="none" stroke="black" points="9,-37 9,-55 41,-55 41,-37 9,-37"/>
<text text-anchor="start" x="12" y="-43.2" font-family="Helvetica,sans-Serif" font-size="11.00">&lt; 3</text>
<polygon fill="#ffffff" stroke="none" points="41,-37 41,-55 110,-55 110,-37 41,-37"/>
<polygon fill="none" stroke="black" points="41,-37 41,-55 110,-55 110,-37 41,-37"/>
<text text-anchor="start" x="48" y="-43.2" font-family="Helvetica,sans-Serif" font-size="11.00">1,828 rows</text>
<polygon fill="#ffffff" stroke="none" points="110,-37 110,-55 138,-55 138,-37 110,-37"/>
<polygon fill="none" stroke="black" points="110,-37 110,-55 138,-55 138,-37 110,-37"/>
<text text-anchor="start" x="118" y="-43.2" font-family="Helvetica,sans-Serif" font-size="11.00">8 &gt;</text>
</a>
</g>
</g>
<!-- core_import&#45;&gt;core_task -->
<g id="edge2" class="edge"><title>core_import:task_id:w&#45;&gt;core_task:pulp_id:e</title>
<path fill="none" stroke="black" d="M174.588,-195.023C160.633,-182.376 164.163,-150 139,-150"/>
<polygon fill="black" stroke="black" points="180.968,-197.305 187.287,-203.39 184.734,-198.653 188.5,-200 188.5,-200 188.5,-200 184.734,-198.653 189.713,-196.61 180.968,-197.305 180.968,-197.305"/>
<ellipse fill="none" stroke="black" cx="177.955" cy="-196.227" rx="3.20001" ry="3.20001"/>
</g>
<!-- core_pulpimport -->
<g id="node4" class="node"><title>core_pulpimport</title>
<g id="a_node4"><a xlink:href="../../tables/core_pulpimport.html" xlink:title="core_pulpimport" target="_top">
<polygon fill="#ffffff" stroke="none" points="479,-281 479,-343 623,-343 623,-281 479,-281"/>
<polygon fill="#f5f5f5" stroke="none" points="479,-321 479,-343 623,-343 623,-321 479,-321"/>
<polygon fill="none" stroke="black" points="479,-321 479,-343 623,-343 623,-321 479,-321"/>
<text text-anchor="start" x="484" y="-330.2" font-family="Helvetica,sans-Serif" font-weight="bold" font-size="11.00">core_pulpimport</text>
<text text-anchor="start" x="584" y="-329.2" font-family="Helvetica,sans-Serif" font-size="11.00">[table]</text>
<polygon fill="none" stroke="black" points="479,-299 479,-321 623,-321 623,-299 479,-299"/>
<image xlink:href="../../images/primaryKeys.png" width="11px" height="12px" preserveAspectRatio="xMinYMin meet" x="484" y="-316"/>
<text text-anchor="start" x="512" y="-307.2" font-family="Helvetica,sans-Serif" font-size="11.00">import_ptr_id</text>
<polygon fill="#ffffff" stroke="none" points="479,-281 479,-299 535,-299 535,-281 479,-281"/>
<polygon fill="none" stroke="black" points="479,-281 479,-299 535,-299 535,-281 479,-281"/>
<text text-anchor="start" x="482" y="-287.2" font-family="Helvetica,sans-Serif" font-size="11.00">&lt; 1</text>
<polygon fill="#ffffff" stroke="none" points="535,-281 535,-299 593,-299 593,-281 535,-281"/>
<polygon fill="none" stroke="black" points="535,-281 535,-299 593,-299 593,-281 535,-281"/>
<text text-anchor="start" x="554" y="-287.2" font-family="Helvetica,sans-Serif" font-size="11.00">0 rows</text>
<polygon fill="#ffffff" stroke="none" points="593,-281 593,-299 623,-299 623,-281 593,-281"/>
<polygon fill="none" stroke="black" points="593,-281 593,-299 623,-299 623,-281 593,-281"/>
<text text-anchor="start" x="613" y="-287.2" font-family="Helvetica,sans-Serif" font-size="11.00"> &#160;</text>
</a>
</g>
</g>
<!-- core_pulpimport&#45;&gt;core_import -->
<g id="edge3" class="edge"><title>core_pulpimport:import_ptr_id:w&#45;&gt;core_import:pulp_id.type:e</title>
<path fill="none" stroke="black" d="M467.367,-310C453.855,-310 447.014,-310 429.5,-310"/>
<polygon fill="black" stroke="black" points="477.2,-306 477.2,-314 475.6,-314 475.6,-306 477.2,-306"/>
<polyline fill="none" stroke="black" points="478,-310 474,-310 "/>
<ellipse fill="none" stroke="black" cx="470.8" cy="-310" rx="3.2" ry="3.2"/>
</g>
</g>
</svg>
