<?xml version="1.0" encoding="UTF-8" standalone="no"?>
<!DOCTYPE svg PUBLIC "-//W3C//DTD SVG 1.1//EN"
 "http://www.w3.org/Graphics/SVG/1.1/DTD/svg11.dtd">
<!-- Generated by graphviz version 2.38.0 (20140413.2041)
 -->
<!-- Title: oneDegreeRelationshipsDiagram Pages: 1 -->
<svg width="789pt" height="739pt"
 viewBox="0.00 0.00 789.00 739.00" xmlns="http://www.w3.org/2000/svg" xmlns:xlink="http://www.w3.org/1999/xlink">
<g id="graph0" class="graph" transform="scale(1 1) rotate(0) translate(4 735)">
<title>oneDegreeRelationshipsDiagram</title>
<polygon fill="#ffffff" stroke="none" points="-4,4 -4,-735 785,-735 785,4 -4,4"/>
<text text-anchor="middle" x="74.5" y="-7.2" font-family="Helvetica,sans-Serif" font-size="11.00">Generated by SchemaSpy</text>
<!-- ansible_ansibledistribution -->
<g id="node1" class="node"><title>ansible_ansibledistribution</title>
<g id="a_node1"><a xlink:href="../../tables/ansible_ansibledistribution.html" xlink:title="ansible_ansibledistribution" target="_top">
<polygon fill="#ffffff" stroke="none" points="539,-621 539,-727 744,-727 744,-621 539,-621"/>
<polygon fill="#f5f5f5" stroke="none" points="539.5,-705 539.5,-727 744.5,-727 744.5,-705 539.5,-705"/>
<polygon fill="none" stroke="black" points="539.5,-705 539.5,-727 744.5,-727 744.5,-705 539.5,-705"/>
<text text-anchor="start" x="544.5" y="-714.2" font-family="Helvetica,sans-Serif" font-weight="bold" font-size="11.00">ansible_ansibledistribution</text>
<text text-anchor="start" x="705.5" y="-713.2" font-family="Helvetica,sans-Serif" font-size="11.00">[table]</text>
<polygon fill="none" stroke="black" points="539.5,-683 539.5,-705 744.5,-705 744.5,-683 539.5,-683"/>
<image xlink:href="../../images/primaryKeys.png" width="11px" height="12px" preserveAspectRatio="xMinYMin meet" x="544.5" y="-700"/>
<text text-anchor="start" x="570.5" y="-691.2" font-family="Helvetica,sans-Serif" font-size="11.00">basedistribution_ptr_id</text>
<polygon fill="#ffffff" stroke="none" points="539.5,-661 539.5,-683 744.5,-683 744.5,-661 539.5,-661"/>
<polygon fill="none" stroke="black" points="539.5,-661 539.5,-683 744.5,-683 744.5,-661 539.5,-661"/>
<image xlink:href="../../images/foreignKeys.png" width="11px" height="12px" preserveAspectRatio="xMinYMin meet" x="544.5" y="-678"/>
<text text-anchor="start" x="570.5" y="-669.2" font-family="Helvetica,sans-Serif" font-size="11.00">repository_id</text>
<polygon fill="#ffffff" stroke="none" points="539.5,-639 539.5,-661 744.5,-661 744.5,-639 539.5,-639"/>
<polygon fill="none" stroke="black" points="539.5,-639 539.5,-661 744.5,-661 744.5,-639 539.5,-639"/>
<image xlink:href="../../images/foreignKeys.png" width="11px" height="12px" preserveAspectRatio="xMinYMin meet" x="544.5" y="-656"/>
<text text-anchor="start" x="570.5" y="-647.2" font-family="Helvetica,sans-Serif" font-size="11.00">repository_version_id</text>
<polygon fill="#ffffff" stroke="none" points="539.5,-621 539.5,-639 622.5,-639 622.5,-621 539.5,-621"/>
<polygon fill="none" stroke="black" points="539.5,-621 539.5,-639 622.5,-639 622.5,-621 539.5,-621"/>
<text text-anchor="start" x="542.5" y="-627.2" font-family="Helvetica,sans-Serif" font-size="11.00">&lt; 3</text>
<polygon fill="#ffffff" stroke="none" points="622.5,-621 622.5,-639 701.5,-639 701.5,-621 622.5,-621"/>
<polygon fill="none" stroke="black" points="622.5,-621 622.5,-639 701.5,-639 701.5,-621 622.5,-621"/>
<text text-anchor="start" x="655.5" y="-627.2" font-family="Helvetica,sans-Serif" font-size="11.00">32 rows</text>
<polygon fill="#ffffff" stroke="none" points="701.5,-621 701.5,-639 744.5,-639 744.5,-621 701.5,-621"/>
<polygon fill="none" stroke="black" points="701.5,-621 701.5,-639 744.5,-639 744.5,-621 701.5,-621"/>
<text text-anchor="start" x="734.5" y="-627.2" font-family="Helvetica,sans-Serif" font-size="11.00"> &#160;</text>
</a>
</g>
</g>
<!-- core_repository -->
<g id="node2" class="node"><title>core_repository</title>
<g id="a_node2"><a xlink:href="../../tables/core_repository.html" xlink:title="core_repository" target="_top">
<polygon fill="#ffffff" stroke="none" points="8,-312 8,-436 145,-436 145,-312 8,-312"/>
<polygon fill="#f5f5f5" stroke="none" points="8.5,-414 8.5,-436 145.5,-436 145.5,-414 8.5,-414"/>
<polygon fill="none" stroke="black" points="8.5,-414 8.5,-436 145.5,-436 145.5,-414 8.5,-414"/>
<text text-anchor="start" x="13.5" y="-423.2" font-family="Helvetica,sans-Serif" font-weight="bold" font-size="11.00">core_repository</text>
<text text-anchor="start" x="106.5" y="-422.2" font-family="Helvetica,sans-Serif" font-size="11.00">[table]</text>
<polygon fill="none" stroke="black" points="8.5,-392 8.5,-414 145.5,-414 145.5,-392 8.5,-392"/>
<image xlink:href="../../images/primaryKeys.png" width="11px" height="12px" preserveAspectRatio="xMinYMin meet" x="13.5" y="-409"/>
<text text-anchor="start" x="32.5" y="-400.2" font-family="Helvetica,sans-Serif" font-size="11.00">pulp_id</text>
<polygon fill="#ffffff" stroke="none" points="8.5,-370 8.5,-392 145.5,-392 145.5,-370 8.5,-370"/>
<polygon fill="none" stroke="black" points="8.5,-370 8.5,-392 145.5,-392 145.5,-370 8.5,-370"/>
<text text-anchor="start" x="32.5" y="-378.2" font-family="Helvetica,sans-Serif" font-size="11.00">name</text>
<polygon fill="#ffffff" stroke="none" points="8.5,-348 8.5,-370 145.5,-370 145.5,-348 8.5,-348"/>
<polygon fill="none" stroke="black" points="8.5,-348 8.5,-370 145.5,-370 145.5,-348 8.5,-348"/>
<image xlink:href="../../images/foreignKeys.png" width="11px" height="12px" preserveAspectRatio="xMinYMin meet" x="13.5" y="-365"/>
<text text-anchor="start" x="32.5" y="-356.2" font-family="Helvetica,sans-Serif" font-size="11.00">remote_id</text>
<polygon fill="none" stroke="black" points="8.5,-330 8.5,-348 145.5,-348 145.5,-330 8.5,-330"/>
<text text-anchor="start" x="11.5" y="-336.2" font-family="Helvetica,sans-Serif" font-size="11.00">...</text>
<polygon fill="#ffffff" stroke="none" points="8.5,-312 8.5,-330 48.5,-330 48.5,-312 8.5,-312"/>
<polygon fill="none" stroke="black" points="8.5,-312 8.5,-330 48.5,-330 48.5,-312 8.5,-312"/>
<text text-anchor="start" x="11.5" y="-318.2" font-family="Helvetica,sans-Serif" font-size="11.00">&lt; 1</text>
<polygon fill="#ffffff" stroke="none" points="48.5,-312 48.5,-330 106.5,-330 106.5,-312 48.5,-312"/>
<polygon fill="none" stroke="black" points="48.5,-312 48.5,-330 106.5,-330 106.5,-312 48.5,-312"/>
<text text-anchor="start" x="60.5" y="-318.2" font-family="Helvetica,sans-Serif" font-size="11.00">26 rows</text>
<polygon fill="#ffffff" stroke="none" points="106.5,-312 106.5,-330 145.5,-330 145.5,-312 106.5,-312"/>
<polygon fill="none" stroke="black" points="106.5,-312 106.5,-330 145.5,-330 145.5,-312 106.5,-312"/>
<text text-anchor="start" x="118.5" y="-318.2" font-family="Helvetica,sans-Serif" font-size="11.00">10 &gt;</text>
</a>
</g>
</g>
<!-- ansible_ansibledistribution&#45;&gt;core_repository -->
<g id="edge1" class="edge"><title>ansible_ansibledistribution:repository_id:w&#45;&gt;core_repository:pulp_id:e</title>
<path fill="none" stroke="black" d="M523.84,-671.941C364.746,-670.614 297.639,-646.187 186,-525 147.385,-483.082 203.493,-403 146.5,-403"/>
<polygon fill="black" stroke="black" points="530.5,-671.968 538.485,-675.6 534.5,-671.984 538.5,-672 538.5,-672 538.5,-672 534.5,-671.984 538.515,-668.4 530.5,-671.968 530.5,-671.968"/>
<ellipse fill="none" stroke="black" cx="527.3" cy="-671.955" rx="3.2" ry="3.2"/>
</g>
<!-- core_repositoryversion -->
<g id="node3" class="node"><title>core_repositoryversion</title>
<g id="a_node3"><a xlink:href="../../tables/core_repositoryversion.html" xlink:title="core_repositoryversion" target="_top">
<polygon fill="#ffffff" stroke="none" points="194,-255 194,-453 461,-453 461,-255 194,-255"/>
<polygon fill="#f5f5f5" stroke="none" points="196.5,-429 196.5,-451 459.5,-451 459.5,-429 196.5,-429"/>
<polygon fill="none" stroke="black" points="196.5,-429 196.5,-451 459.5,-451 459.5,-429 196.5,-429"/>
<text text-anchor="start" x="201.5" y="-438.2" font-family="Helvetica,sans-Serif" font-weight="bold" font-size="11.00">core_repositoryversion</text>
<text text-anchor="start" x="420.5" y="-437.2" font-family="Helvetica,sans-Serif" font-size="11.00">[table]</text>
<polygon fill="none" stroke="black" points="196.5,-407 196.5,-429 354.5,-429 354.5,-407 196.5,-407"/>
<image xlink:href="../../images/primaryKeys.png" width="11px" height="12px" preserveAspectRatio="xMinYMin meet" x="201.5" y="-424"/>
<text text-anchor="start" x="216.5" y="-415.2" font-family="Helvetica,sans-Serif" font-size="11.00">pulp_id</text>
<polygon fill="none" stroke="black" points="354.5,-407 354.5,-429 459.5,-429 459.5,-407 354.5,-407"/>
<text text-anchor="start" x="357.5" y="-415.2" font-family="Helvetica,sans-Serif" font-size="11.00">uuid[2147483647]</text>
<polygon fill="none" stroke="black" points="196.5,-385 196.5,-407 354.5,-407 354.5,-385 196.5,-385"/>
<text text-anchor="start" x="216.5" y="-393.2" font-family="Helvetica,sans-Serif" font-size="11.00">pulp_created</text>
<polygon fill="none" stroke="black" points="354.5,-385 354.5,-407 459.5,-407 459.5,-385 354.5,-385"/>
<text text-anchor="start" x="357.5" y="-393.2" font-family="Helvetica,sans-Serif" font-size="11.00">timestamptz[35,6]</text>
<polygon fill="none" stroke="black" points="196.5,-363 196.5,-385 354.5,-385 354.5,-363 196.5,-363"/>
<text text-anchor="start" x="216.5" y="-371.2" font-family="Helvetica,sans-Serif" font-size="11.00">pulp_last_updated</text>
<polygon fill="none" stroke="black" points="354.5,-363 354.5,-385 459.5,-385 459.5,-363 354.5,-363"/>
<text text-anchor="start" x="357.5" y="-371.2" font-family="Helvetica,sans-Serif" font-size="11.00">timestamptz[35,6]</text>
<polygon fill="#ffffff" stroke="none" points="196.5,-341 196.5,-363 354.5,-363 354.5,-341 196.5,-341"/>
<polygon fill="none" stroke="black" points="196.5,-341 196.5,-363 354.5,-363 354.5,-341 196.5,-341"/>
<text text-anchor="start" x="216.5" y="-349.2" font-family="Helvetica,sans-Serif" font-size="11.00">number</text>
<polygon fill="none" stroke="black" points="354.5,-341 354.5,-363 459.5,-363 459.5,-341 354.5,-341"/>
<text text-anchor="start" x="357.5" y="-349.2" font-family="Helvetica,sans-Serif" font-size="11.00">int4[10]</text>
<polygon fill="#ffffff" stroke="none" points="196.5,-319 196.5,-341 354.5,-341 354.5,-319 196.5,-319"/>
<polygon fill="none" stroke="black" points="196.5,-319 196.5,-341 354.5,-341 354.5,-319 196.5,-319"/>
<text text-anchor="start" x="216.5" y="-327.2" font-family="Helvetica,sans-Serif" font-size="11.00">complete</text>
<polygon fill="none" stroke="black" points="354.5,-319 354.5,-341 459.5,-341 459.5,-319 354.5,-319"/>
<text text-anchor="start" x="357.5" y="-327.2" font-family="Helvetica,sans-Serif" font-size="11.00">bool[1]</text>
<polygon fill="#ffffff" stroke="none" points="196.5,-297 196.5,-319 354.5,-319 354.5,-297 196.5,-297"/>
<polygon fill="none" stroke="black" points="196.5,-297 196.5,-319 354.5,-319 354.5,-297 196.5,-297"/>
<image xlink:href="../../images/foreignKeys.png" width="11px" height="12px" preserveAspectRatio="xMinYMin meet" x="201.5" y="-314"/>
<text text-anchor="start" x="216.5" y="-305.2" font-family="Helvetica,sans-Serif" font-size="11.00">base_version_id</text>
<polygon fill="none" stroke="black" points="354.5,-297 354.5,-319 459.5,-319 459.5,-297 354.5,-297"/>
<text text-anchor="start" x="357.5" y="-305.2" font-family="Helvetica,sans-Serif" font-size="11.00">uuid[2147483647]</text>
<polygon fill="#ffffff" stroke="none" points="196.5,-275 196.5,-297 354.5,-297 354.5,-275 196.5,-275"/>
<polygon fill="none" stroke="black" points="196.5,-275 196.5,-297 354.5,-297 354.5,-275 196.5,-275"/>
<image xlink:href="../../images/foreignKeys.png" width="11px" height="12px" preserveAspectRatio="xMinYMin meet" x="201.5" y="-292"/>
<text text-anchor="start" x="216.5" y="-283.2" font-family="Helvetica,sans-Serif" font-size="11.00">repository_id</text>
<polygon fill="none" stroke="black" points="354.5,-275 354.5,-297 459.5,-297 459.5,-275 354.5,-275"/>
<text text-anchor="start" x="357.5" y="-283.2" font-family="Helvetica,sans-Serif" font-size="11.00">uuid[2147483647]</text>
<polygon fill="#ffffff" stroke="none" points="196.5,-257 196.5,-275 259.5,-275 259.5,-257 196.5,-257"/>
<polygon fill="none" stroke="black" points="196.5,-257 196.5,-275 259.5,-275 259.5,-257 196.5,-257"/>
<text text-anchor="start" x="199.5" y="-263.2" font-family="Helvetica,sans-Serif" font-size="11.00">&lt; 2</text>
<polygon fill="#ffffff" stroke="none" points="259.5,-257 259.5,-275 354.5,-275 354.5,-257 259.5,-257"/>
<polygon fill="none" stroke="black" points="259.5,-257 259.5,-275 354.5,-275 354.5,-257 259.5,-257"/>
<text text-anchor="start" x="302.5" y="-263.2" font-family="Helvetica,sans-Serif" font-size="11.00">162 rows</text>
<polygon fill="#ffffff" stroke="none" points="354.5,-257 354.5,-275 459.5,-275 459.5,-257 354.5,-257"/>
<polygon fill="none" stroke="black" points="354.5,-257 354.5,-275 459.5,-275 459.5,-257 354.5,-257"/>
<text text-anchor="start" x="439.5" y="-263.2" font-family="Helvetica,sans-Serif" font-size="11.00">7 &gt;</text>
<polygon fill="none" stroke="black" stroke-width="2" points="195,-256 195,-452 460,-452 460,-256 195,-256"/>
</a>
</g>
</g>
<!-- ansible_ansibledistribution&#45;&gt;core_repositoryversion -->
<g id="edge2" class="edge"><title>ansible_ansibledistribution:repository_version_id:w&#45;&gt;core_repositoryversion:pulp_id.type:e</title>
<path fill="none" stroke="black" d="M524.329,-646.864C513.305,-640.826 510.254,-626.776 502,-611 461.325,-533.26 548.238,-418 460.5,-418"/>
<polygon fill="black" stroke="black" points="530.689,-648.272 537.722,-653.515 534.594,-649.136 538.5,-650 538.5,-650 538.5,-650 534.594,-649.136 539.278,-646.485 530.689,-648.272 530.689,-648.272"/>
<ellipse fill="none" stroke="black" cx="527.565" cy="-647.58" rx="3.2" ry="3.2"/>
</g>
<!-- core_repositoryversion&#45;&gt;core_repository -->
<g id="edge10" class="edge"><title>core_repositoryversion:repository_id:w&#45;&gt;core_repository:pulp_id:e</title>
<path fill="none" stroke="black" d="M181.389,-289.63C151.235,-309.378 196.93,-403 146.5,-403"/>
<polygon fill="black" stroke="black" points="187.752,-287.993 196.397,-289.486 191.626,-286.997 195.5,-286 195.5,-286 195.5,-286 191.626,-286.997 194.603,-282.514 187.752,-287.993 187.752,-287.993"/>
<ellipse fill="none" stroke="black" cx="184.653" cy="-288.79" rx="3.2" ry="3.2"/>
</g>
<!-- core_repositoryversion&#45;&gt;core_repositoryversion -->
<g id="edge9" class="edge"><title>core_repositoryversion:base_version_id:w&#45;&gt;core_repositoryversion:pulp_id.type:e</title>
<path fill="none" stroke="black" d="M184.914,-316.762C134.855,-362.503 146.883,-470 328,-470 522,-470 522,-456.667 459.5,-418"/>
<polygon fill="black" stroke="black" points="190.119,-312.826 198.672,-310.871 193.31,-310.413 196.5,-308 196.5,-308 196.5,-308 193.31,-310.413 194.328,-305.129 190.119,-312.826 190.119,-312.826"/>
<ellipse fill="none" stroke="black" cx="187.567" cy="-314.756" rx="3.20001" ry="3.20001"/>
</g>
<!-- container_containerdistribution -->
<g id="node4" class="node"><title>container_containerdistribution</title>
<g id="a_node4"><a xlink:href="../../tables/container_containerdistribution.html" xlink:title="container_containerdistribution" target="_top">
<polygon fill="#ffffff" stroke="none" points="525,-494 525,-600 758,-600 758,-494 525,-494"/>
<polygon fill="#f5f5f5" stroke="none" points="525.5,-578 525.5,-600 758.5,-600 758.5,-578 525.5,-578"/>
<polygon fill="none" stroke="black" points="525.5,-578 525.5,-600 758.5,-600 758.5,-578 525.5,-578"/>
<text text-anchor="start" x="530.5" y="-587.2" font-family="Helvetica,sans-Serif" font-weight="bold" font-size="11.00">container_containerdistribution</text>
<text text-anchor="start" x="719.5" y="-586.2" font-family="Helvetica,sans-Serif" font-size="11.00">[table]</text>
<polygon fill="none" stroke="black" points="525.5,-556 525.5,-578 758.5,-578 758.5,-556 525.5,-556"/>
<image xlink:href="../../images/primaryKeys.png" width="11px" height="12px" preserveAspectRatio="xMinYMin meet" x="530.5" y="-573"/>
<text text-anchor="start" x="555.5" y="-564.2" font-family="Helvetica,sans-Serif" font-size="11.00">basedistribution_ptr_id</text>
<polygon fill="#ffffff" stroke="none" points="525.5,-534 525.5,-556 758.5,-556 758.5,-534 525.5,-534"/>
<polygon fill="none" stroke="black" points="525.5,-534 525.5,-556 758.5,-556 758.5,-534 525.5,-534"/>
<image xlink:href="../../images/foreignKeys.png" width="11px" height="12px" preserveAspectRatio="xMinYMin meet" x="530.5" y="-551"/>
<text text-anchor="start" x="555.5" y="-542.2" font-family="Helvetica,sans-Serif" font-size="11.00">repository_id</text>
<polygon fill="#ffffff" stroke="none" points="525.5,-512 525.5,-534 758.5,-534 758.5,-512 525.5,-512"/>
<polygon fill="none" stroke="black" points="525.5,-512 525.5,-534 758.5,-534 758.5,-512 525.5,-512"/>
<image xlink:href="../../images/foreignKeys.png" width="11px" height="12px" preserveAspectRatio="xMinYMin meet" x="530.5" y="-529"/>
<text text-anchor="start" x="555.5" y="-520.2" font-family="Helvetica,sans-Serif" font-size="11.00">repository_version_id</text>
<polygon fill="#ffffff" stroke="none" points="525.5,-494 525.5,-512 625.5,-512 625.5,-494 525.5,-494"/>
<polygon fill="none" stroke="black" points="525.5,-494 525.5,-512 625.5,-512 625.5,-494 525.5,-494"/>
<text text-anchor="start" x="528.5" y="-500.2" font-family="Helvetica,sans-Serif" font-size="11.00">&lt; 3</text>
<polygon fill="#ffffff" stroke="none" points="625.5,-494 625.5,-512 706.5,-512 706.5,-494 625.5,-494"/>
<polygon fill="none" stroke="black" points="625.5,-494 625.5,-512 706.5,-512 706.5,-494 625.5,-494"/>
<text text-anchor="start" x="667.5" y="-500.2" font-family="Helvetica,sans-Serif" font-size="11.00">0 rows</text>
<polygon fill="#ffffff" stroke="none" points="706.5,-494 706.5,-512 758.5,-512 758.5,-494 706.5,-494"/>
<polygon fill="none" stroke="black" points="706.5,-494 706.5,-512 758.5,-512 758.5,-494 706.5,-494"/>
<text text-anchor="start" x="748.5" y="-500.2" font-family="Helvetica,sans-Serif" font-size="11.00"> &#160;</text>
</a>
</g>
</g>
<!-- container_containerdistribution&#45;&gt;core_repository -->
<g id="edge3" class="edge"><title>container_containerdistribution:repository_id:w&#45;&gt;core_repository:pulp_id:e</title>
<path fill="none" stroke="black" d="M509.98,-545.086C367.335,-546.748 304.292,-571.104 186,-482 154.645,-458.382 185.755,-403 146.5,-403"/>
<polygon fill="black" stroke="black" points="516.5,-545.047 524.521,-548.6 520.5,-545.024 524.5,-545 524.5,-545 524.5,-545 520.5,-545.024 524.479,-541.4 516.5,-545.047 516.5,-545.047"/>
<ellipse fill="none" stroke="black" cx="513.3" cy="-545.066" rx="3.2" ry="3.2"/>
</g>
<!-- container_containerdistribution&#45;&gt;core_repositoryversion -->
<g id="edge4" class="edge"><title>container_containerdistribution:repository_version_id:w&#45;&gt;core_repositoryversion:pulp_id.type:e</title>
<path fill="none" stroke="black" d="M510.309,-519.742C478.292,-502.02 509.388,-418 460.5,-418"/>
<polygon fill="black" stroke="black" points="516.703,-521.21 523.695,-526.509 520.601,-522.105 524.5,-523 524.5,-523 524.5,-523 520.601,-522.105 525.305,-519.491 516.703,-521.21 516.703,-521.21"/>
<ellipse fill="none" stroke="black" cx="513.584" cy="-520.494" rx="3.2" ry="3.2"/>
</g>
<!-- core_publication -->
<g id="node5" class="node"><title>core_publication</title>
<g id="a_node5"><a xlink:href="../../tables/core_publication.html" xlink:title="core_publication" target="_top">
<polygon fill="#ffffff" stroke="none" points="567.5,-226 567.5,-350 715.5,-350 715.5,-226 567.5,-226"/>
<polygon fill="#f5f5f5" stroke="none" points="567.5,-328 567.5,-350 715.5,-350 715.5,-328 567.5,-328"/>
<polygon fill="none" stroke="black" points="567.5,-328 567.5,-350 715.5,-350 715.5,-328 567.5,-328"/>
<text text-anchor="start" x="572.5" y="-337.2" font-family="Helvetica,sans-Serif" font-weight="bold" font-size="11.00">core_publication</text>
<text text-anchor="start" x="676.5" y="-336.2" font-family="Helvetica,sans-Serif" font-size="11.00">[table]</text>
<polygon fill="none" stroke="black" points="567.5,-306 567.5,-328 715.5,-328 715.5,-306 567.5,-306"/>
<image xlink:href="../../images/primaryKeys.png" width="11px" height="12px" preserveAspectRatio="xMinYMin meet" x="572.5" y="-323"/>
<text text-anchor="start" x="587.5" y="-314.2" font-family="Helvetica,sans-Serif" font-size="11.00">pulp_id</text>
<polygon fill="#ffffff" stroke="none" points="567.5,-284 567.5,-306 715.5,-306 715.5,-284 567.5,-284"/>
<polygon fill="none" stroke="black" points="567.5,-284 567.5,-306 715.5,-306 715.5,-284 567.5,-284"/>
<text text-anchor="start" x="587.5" y="-292.2" font-family="Helvetica,sans-Serif" font-size="11.00">complete</text>
<polygon fill="#ffffff" stroke="none" points="567.5,-262 567.5,-284 715.5,-284 715.5,-262 567.5,-262"/>
<polygon fill="none" stroke="black" points="567.5,-262 567.5,-284 715.5,-284 715.5,-262 567.5,-262"/>
<image xlink:href="../../images/foreignKeys.png" width="11px" height="12px" preserveAspectRatio="xMinYMin meet" x="572.5" y="-279"/>
<text text-anchor="start" x="587.5" y="-270.2" font-family="Helvetica,sans-Serif" font-size="11.00">repository_version_id</text>
<polygon fill="none" stroke="black" points="567.5,-244 567.5,-262 715.5,-262 715.5,-244 567.5,-244"/>
<text text-anchor="start" x="570.5" y="-250.2" font-family="Helvetica,sans-Serif" font-size="11.00">...</text>
<polygon fill="#ffffff" stroke="none" points="567.5,-226 567.5,-244 620.5,-244 620.5,-226 567.5,-226"/>
<polygon fill="none" stroke="black" points="567.5,-226 567.5,-244 620.5,-244 620.5,-226 567.5,-226"/>
<text text-anchor="start" x="570.5" y="-232.2" font-family="Helvetica,sans-Serif" font-size="11.00">&lt; 1</text>
<polygon fill="#ffffff" stroke="none" points="620.5,-226 620.5,-244 677.5,-244 677.5,-226 620.5,-226"/>
<polygon fill="none" stroke="black" points="620.5,-226 620.5,-244 677.5,-244 677.5,-226 620.5,-226"/>
<text text-anchor="start" x="638.5" y="-232.2" font-family="Helvetica,sans-Serif" font-size="11.00">0 rows</text>
<polygon fill="#ffffff" stroke="none" points="677.5,-226 677.5,-244 715.5,-244 715.5,-226 677.5,-226"/>
<polygon fill="none" stroke="black" points="677.5,-226 677.5,-244 715.5,-244 715.5,-226 677.5,-226"/>
<text text-anchor="start" x="695.5" y="-232.2" font-family="Helvetica,sans-Serif" font-size="11.00">2 &gt;</text>
</a>
</g>
</g>
<!-- core_publication&#45;&gt;core_repositoryversion -->
<g id="edge5" class="edge"><title>core_publication:repository_version_id:w&#45;&gt;core_repositoryversion:pulp_id.type:e</title>
<path fill="none" stroke="black" d="M551.804,-274.918C520.395,-284.315 527.252,-326.432 502,-361 483.515,-386.304 491.836,-418 460.5,-418"/>
<polygon fill="black" stroke="black" points="558.567,-274.035 566.966,-276.57 562.534,-273.518 566.5,-273 566.5,-273 566.5,-273 562.534,-273.518 566.034,-269.43 558.567,-274.035 558.567,-274.035"/>
<ellipse fill="none" stroke="black" cx="555.394" cy="-274.45" rx="3.2" ry="3.2"/>
</g>
<!-- core_repositorycontent -->
<g id="node6" class="node"><title>core_repositorycontent</title>
<g id="a_node6"><a xlink:href="../../tables/core_repositorycontent.html" xlink:title="core_repositorycontent" target="_top">
<polygon fill="#ffffff" stroke="none" points="550.5,-37 550.5,-205 732.5,-205 732.5,-37 550.5,-37"/>
<polygon fill="#f5f5f5" stroke="none" points="550.5,-183 550.5,-205 732.5,-205 732.5,-183 550.5,-183"/>
<polygon fill="none" stroke="black" points="550.5,-183 550.5,-205 732.5,-205 732.5,-183 550.5,-183"/>
<text text-anchor="start" x="555.5" y="-192.2" font-family="Helvetica,sans-Serif" font-weight="bold" font-size="11.00">core_repositorycontent</text>
<text text-anchor="start" x="693.5" y="-191.2" font-family="Helvetica,sans-Serif" font-size="11.00">[table]</text>
<polygon fill="none" stroke="black" points="550.5,-161 550.5,-183 732.5,-183 732.5,-161 550.5,-161"/>
<image xlink:href="../../images/primaryKeys.png" width="11px" height="12px" preserveAspectRatio="xMinYMin meet" x="555.5" y="-178"/>
<text text-anchor="start" x="581.5" y="-169.2" font-family="Helvetica,sans-Serif" font-size="11.00">pulp_id</text>
<polygon fill="#ffffff" stroke="none" points="550.5,-139 550.5,-161 732.5,-161 732.5,-139 550.5,-139"/>
<polygon fill="none" stroke="black" points="550.5,-139 550.5,-161 732.5,-161 732.5,-139 550.5,-139"/>
<image xlink:href="../../images/foreignKeys.png" width="11px" height="12px" preserveAspectRatio="xMinYMin meet" x="555.5" y="-156"/>
<text text-anchor="start" x="581.5" y="-147.2" font-family="Helvetica,sans-Serif" font-size="11.00">content_id</text>
<polygon fill="#ffffff" stroke="none" points="550.5,-117 550.5,-139 732.5,-139 732.5,-117 550.5,-117"/>
<polygon fill="none" stroke="black" points="550.5,-117 550.5,-139 732.5,-139 732.5,-117 550.5,-117"/>
<image xlink:href="../../images/foreignKeys.png" width="11px" height="12px" preserveAspectRatio="xMinYMin meet" x="555.5" y="-134"/>
<text text-anchor="start" x="581.5" y="-125.2" font-family="Helvetica,sans-Serif" font-size="11.00">repository_id</text>
<polygon fill="#ffffff" stroke="none" points="550.5,-95 550.5,-117 732.5,-117 732.5,-95 550.5,-95"/>
<polygon fill="none" stroke="black" points="550.5,-95 550.5,-117 732.5,-117 732.5,-95 550.5,-95"/>
<image xlink:href="../../images/foreignKeys.png" width="11px" height="12px" preserveAspectRatio="xMinYMin meet" x="555.5" y="-112"/>
<text text-anchor="start" x="581.5" y="-103.2" font-family="Helvetica,sans-Serif" font-size="11.00">version_added_id</text>
<polygon fill="#ffffff" stroke="none" points="550.5,-73 550.5,-95 732.5,-95 732.5,-73 550.5,-73"/>
<polygon fill="none" stroke="black" points="550.5,-73 550.5,-95 732.5,-95 732.5,-73 550.5,-73"/>
<image xlink:href="../../images/foreignKeys.png" width="11px" height="12px" preserveAspectRatio="xMinYMin meet" x="555.5" y="-90"/>
<text text-anchor="start" x="581.5" y="-81.2" font-family="Helvetica,sans-Serif" font-size="11.00">version_removed_id</text>
<polygon fill="none" stroke="black" points="550.5,-55 550.5,-73 732.5,-73 732.5,-55 550.5,-55"/>
<text text-anchor="start" x="553.5" y="-61.2" font-family="Helvetica,sans-Serif" font-size="11.00">...</text>
<polygon fill="#ffffff" stroke="none" points="550.5,-37 550.5,-55 618.5,-55 618.5,-37 550.5,-37"/>
<polygon fill="none" stroke="black" points="550.5,-37 550.5,-55 618.5,-55 618.5,-37 550.5,-37"/>
<text text-anchor="start" x="553.5" y="-43.2" font-family="Helvetica,sans-Serif" font-size="11.00">&lt; 4</text>
<polygon fill="#ffffff" stroke="none" points="618.5,-37 618.5,-55 696.5,-55 696.5,-37 618.5,-37"/>
<polygon fill="none" stroke="black" points="618.5,-37 618.5,-55 696.5,-55 696.5,-37 618.5,-37"/>
<text text-anchor="start" x="644.5" y="-43.2" font-family="Helvetica,sans-Serif" font-size="11.00">786 rows</text>
<polygon fill="#ffffff" stroke="none" points="696.5,-37 696.5,-55 732.5,-55 732.5,-37 696.5,-37"/>
<polygon fill="none" stroke="black" points="696.5,-37 696.5,-55 732.5,-55 732.5,-37 696.5,-37"/>
<text text-anchor="start" x="722.5" y="-43.2" font-family="Helvetica,sans-Serif" font-size="11.00"> &#160;</text>
</a>
</g>
</g>
<!-- core_repositorycontent&#45;&gt;core_repository -->
<g id="edge6" class="edge"><title>core_repositorycontent:repository_id:w&#45;&gt;core_repository:pulp_id:e</title>
<path fill="none" stroke="black" d="M534.817,-127.986C375.189,-127.706 298.561,-124.703 186,-245 136.545,-297.854 218.883,-403 146.5,-403"/>
<polygon fill="black" stroke="black" points="541.5,-127.992 549.496,-131.6 545.5,-127.996 549.5,-128 549.5,-128 549.5,-128 545.5,-127.996 549.504,-124.4 541.5,-127.992 541.5,-127.992"/>
<ellipse fill="none" stroke="black" cx="538.3" cy="-127.989" rx="3.2" ry="3.2"/>
</g>
<!-- core_repositorycontent&#45;&gt;core_repositoryversion -->
<g id="edge7" class="edge"><title>core_repositorycontent:version_added_id:w&#45;&gt;core_repositoryversion:pulp_id.type:e</title>
<path fill="none" stroke="black" d="M535.021,-107.896C500.416,-118.395 516.311,-170.565 502,-216 488.233,-259.71 506.326,-418 460.5,-418"/>
<polygon fill="black" stroke="black" points="541.568,-107.039 549.968,-109.57 545.534,-106.52 549.5,-106 549.5,-106 549.5,-106 545.534,-106.52 549.032,-102.43 541.568,-107.039 541.568,-107.039"/>
<ellipse fill="none" stroke="black" cx="538.395" cy="-107.455" rx="3.2" ry="3.2"/>
</g>
<!-- core_repositorycontent&#45;&gt;core_repositoryversion -->
<g id="edge8" class="edge"><title>core_repositorycontent:version_removed_id:w&#45;&gt;core_repositoryversion:pulp_id.type:e</title>
<path fill="none" stroke="black" d="M535.143,-85.611C492.351,-96.5598 517.389,-161.252 502,-216 489.599,-260.117 506.326,-418 460.5,-418"/>
<polygon fill="black" stroke="black" points="541.55,-84.8922 549.901,-87.5775 545.525,-84.4461 549.5,-84 549.5,-84 549.5,-84 545.525,-84.4461 549.099,-80.4225 541.55,-84.8922 541.55,-84.8922"/>
<ellipse fill="none" stroke="black" cx="538.37" cy="-85.249" rx="3.2" ry="3.2"/>
</g>
<!-- core_repositoryversioncontentdetails -->
<g id="node7" class="node"><title>core_repositoryversioncontentdetails</title>
<g id="a_node7"><a xlink:href="../../tables/core_repositoryversioncontentdetails.html" xlink:title="core_repositoryversioncontentdetails" target="_top">
<polygon fill="#ffffff" stroke="none" points="510,-371 510,-473 773,-473 773,-371 510,-371"/>
<polygon fill="#f5f5f5" stroke="none" points="510.5,-451 510.5,-473 773.5,-473 773.5,-451 510.5,-451"/>
<polygon fill="none" stroke="black" points="510.5,-451 510.5,-473 773.5,-473 773.5,-451 510.5,-451"/>
<text text-anchor="start" x="515.5" y="-460.2" font-family="Helvetica,sans-Serif" font-weight="bold" font-size="11.00">core_repositoryversioncontentdetails</text>
<text text-anchor="start" x="734.5" y="-459.2" font-family="Helvetica,sans-Serif" font-size="11.00">[table]</text>
<polygon fill="none" stroke="black" points="510.5,-429 510.5,-451 773.5,-451 773.5,-429 510.5,-429"/>
<image xlink:href="../../images/primaryKeys.png" width="11px" height="12px" preserveAspectRatio="xMinYMin meet" x="515.5" y="-446"/>
<text text-anchor="start" x="539.5" y="-437.2" font-family="Helvetica,sans-Serif" font-size="11.00">id</text>
<polygon fill="#ffffff" stroke="none" points="510.5,-407 510.5,-429 773.5,-429 773.5,-407 510.5,-407"/>
<polygon fill="none" stroke="black" points="510.5,-407 510.5,-429 773.5,-429 773.5,-407 510.5,-407"/>
<image xlink:href="../../images/foreignKeys.png" width="11px" height="12px" preserveAspectRatio="xMinYMin meet" x="515.5" y="-424"/>
<text text-anchor="start" x="539.5" y="-415.2" font-family="Helvetica,sans-Serif" font-size="11.00">repository_version_id</text>
<polygon fill="none" stroke="black" points="510.5,-389 510.5,-407 773.5,-407 773.5,-389 510.5,-389"/>
<text text-anchor="start" x="513.5" y="-395.2" font-family="Helvetica,sans-Serif" font-size="11.00">...</text>
<polygon fill="#ffffff" stroke="none" points="510.5,-371 510.5,-389 619.5,-389 619.5,-371 510.5,-371"/>
<polygon fill="none" stroke="black" points="510.5,-371 510.5,-389 619.5,-389 619.5,-371 510.5,-371"/>
<text text-anchor="start" x="513.5" y="-377.2" font-family="Helvetica,sans-Serif" font-size="11.00">&lt; 1</text>
<polygon fill="#ffffff" stroke="none" points="619.5,-371 619.5,-389 717.5,-389 717.5,-371 619.5,-371"/>
<polygon fill="none" stroke="black" points="619.5,-371 619.5,-389 717.5,-389 717.5,-371 619.5,-371"/>
<text text-anchor="start" x="665.5" y="-377.2" font-family="Helvetica,sans-Serif" font-size="11.00">281 rows</text>
<polygon fill="#ffffff" stroke="none" points="717.5,-371 717.5,-389 773.5,-389 773.5,-371 717.5,-371"/>
<polygon fill="none" stroke="black" points="717.5,-371 717.5,-389 773.5,-389 773.5,-371 717.5,-371"/>
<text text-anchor="start" x="763.5" y="-377.2" font-family="Helvetica,sans-Serif" font-size="11.00"> &#160;</text>
</a>
</g>
</g>
<!-- core_repositoryversioncontentdetails&#45;&gt;core_repositoryversion -->
<g id="edge11" class="edge"><title>core_repositoryversioncontentdetails:repository_version_id:w&#45;&gt;core_repositoryversion:pulp_id.type:e</title>
<path fill="none" stroke="black" d="M494.991,-418C483.677,-418 476.493,-418 460.5,-418"/>
<polygon fill="black" stroke="black" points="501.5,-418 509.5,-421.6 505.5,-418 509.5,-418 509.5,-418 509.5,-418 505.5,-418 509.5,-414.4 501.5,-418 501.5,-418"/>
<ellipse fill="none" stroke="black" cx="498.3" cy="-418" rx="3.2" ry="3.2"/>
</g>
</g>
</svg>
