<?xml version="1.0" encoding="UTF-8" standalone="no"?>
<!DOCTYPE svg PUBLIC "-//W3C//DTD SVG 1.1//EN"
 "http://www.w3.org/Graphics/SVG/1.1/DTD/svg11.dtd">
<!-- Generated by graphviz version 2.38.0 (20140413.2041)
 -->
<!-- Title: twoDegreesRelationshipsDiagram Pages: 1 -->
<svg width="704pt" height="414pt"
 viewBox="0.00 0.00 704.00 414.00" xmlns="http://www.w3.org/2000/svg" xmlns:xlink="http://www.w3.org/1999/xlink">
<g id="graph0" class="graph" transform="scale(1 1) rotate(0) translate(4 410)">
<title>twoDegreesRelationshipsDiagram</title>
<polygon fill="#ffffff" stroke="none" points="-4,4 -4,-410 700,-410 700,4 -4,4"/>
<text text-anchor="middle" x="74.5" y="-7.2" font-family="Helvetica,sans-Serif" font-size="11.00">Generated by SchemaSpy</text>
<!-- core_contentartifact -->
<g id="node1" class="node"><title>core_contentartifact</title>
<g id="a_node1"><a xlink:href="../../tables/core_contentartifact.html" xlink:title="core_contentartifact" target="_top">
<polygon fill="#ffffff" stroke="none" points="295,-157 295,-303 461,-303 461,-157 295,-157"/>
<polygon fill="#f5f5f5" stroke="none" points="295,-281 295,-303 461,-303 461,-281 295,-281"/>
<polygon fill="none" stroke="black" points="295,-281 295,-303 461,-303 461,-281 295,-281"/>
<text text-anchor="start" x="300" y="-290.2" font-family="Helvetica,sans-Serif" font-weight="bold" font-size="11.00">core_contentartifact</text>
<text text-anchor="start" x="422" y="-289.2" font-family="Helvetica,sans-Serif" font-size="11.00">[table]</text>
<polygon fill="none" stroke="black" points="295,-259 295,-281 461,-281 461,-259 295,-259"/>
<image xlink:href="../../images/primaryKeys.png" width="11px" height="12px" preserveAspectRatio="xMinYMin meet" x="300" y="-276"/>
<text text-anchor="start" x="327" y="-267.2" font-family="Helvetica,sans-Serif" font-size="11.00">pulp_id</text>
<polygon fill="#ffffff" stroke="none" points="295,-237 295,-259 461,-259 461,-237 295,-237"/>
<polygon fill="none" stroke="black" points="295,-237 295,-259 461,-259 461,-237 295,-237"/>
<text text-anchor="start" x="327" y="-245.2" font-family="Helvetica,sans-Serif" font-size="11.00">relative_path</text>
<polygon fill="#ffffff" stroke="none" points="295,-215 295,-237 461,-237 461,-215 295,-215"/>
<polygon fill="none" stroke="black" points="295,-215 295,-237 461,-237 461,-215 295,-215"/>
<image xlink:href="../../images/foreignKeys.png" width="11px" height="12px" preserveAspectRatio="xMinYMin meet" x="300" y="-232"/>
<text text-anchor="start" x="327" y="-223.2" font-family="Helvetica,sans-Serif" font-size="11.00">artifact_id</text>
<polygon fill="#ffffff" stroke="none" points="295,-193 295,-215 461,-215 461,-193 295,-193"/>
<polygon fill="none" stroke="black" points="295,-193 295,-215 461,-215 461,-193 295,-193"/>
<image xlink:href="../../images/foreignKeys.png" width="11px" height="12px" preserveAspectRatio="xMinYMin meet" x="300" y="-210"/>
<text text-anchor="start" x="327" y="-201.2" font-family="Helvetica,sans-Serif" font-size="11.00">content_id</text>
<polygon fill="none" stroke="black" points="295,-175 295,-193 461,-193 461,-175 295,-175"/>
<text text-anchor="start" x="298" y="-181.2" font-family="Helvetica,sans-Serif" font-size="11.00">...</text>
<polygon fill="#ffffff" stroke="none" points="295,-157 295,-175 353,-175 353,-157 295,-157"/>
<polygon fill="none" stroke="black" points="295,-157 295,-175 353,-175 353,-157 295,-157"/>
<text text-anchor="start" x="298" y="-163.2" font-family="Helvetica,sans-Serif" font-size="11.00">&lt; 2</text>
<polygon fill="#ffffff" stroke="none" points="353,-157 353,-175 420,-175 420,-157 353,-157"/>
<polygon fill="none" stroke="black" points="353,-157 353,-175 420,-175 420,-157 353,-157"/>
<text text-anchor="start" x="374" y="-163.2" font-family="Helvetica,sans-Serif" font-size="11.00">88 rows</text>
<polygon fill="#ffffff" stroke="none" points="420,-157 420,-175 461,-175 461,-157 420,-157"/>
<polygon fill="none" stroke="black" points="420,-157 420,-175 461,-175 461,-157 420,-157"/>
<text text-anchor="start" x="441" y="-163.2" font-family="Helvetica,sans-Serif" font-size="11.00">2 &gt;</text>
</a>
</g>
</g>
<!-- core_artifact -->
<g id="node2" class="node"><title>core_artifact</title>
<g id="a_node2"><a xlink:href="../../tables/core_artifact.html" xlink:title="core_artifact" target="_top">
<polygon fill="#ffffff" stroke="none" points="8,-116 8,-402 246,-402 246,-116 8,-116"/>
<polygon fill="#f5f5f5" stroke="none" points="10,-378 10,-400 244,-400 244,-378 10,-378"/>
<polygon fill="none" stroke="black" points="10,-378 10,-400 244,-400 244,-378 10,-378"/>
<text text-anchor="start" x="15" y="-387.2" font-family="Helvetica,sans-Serif" font-weight="bold" font-size="11.00">core_artifact</text>
<text text-anchor="start" x="205" y="-386.2" font-family="Helvetica,sans-Serif" font-size="11.00">[table]</text>
<polygon fill="none" stroke="black" points="10,-356 10,-378 139,-378 139,-356 10,-356"/>
<image xlink:href="../../images/primaryKeys.png" width="11px" height="12px" preserveAspectRatio="xMinYMin meet" x="15" y="-373"/>
<text text-anchor="start" x="30" y="-364.2" font-family="Helvetica,sans-Serif" font-size="11.00">pulp_id</text>
<polygon fill="none" stroke="black" points="139,-356 139,-378 244,-378 244,-356 139,-356"/>
<text text-anchor="start" x="142" y="-364.2" font-family="Helvetica,sans-Serif" font-size="11.00">uuid[2147483647]</text>
<polygon fill="none" stroke="black" points="10,-334 10,-356 139,-356 139,-334 10,-334"/>
<text text-anchor="start" x="30" y="-342.2" font-family="Helvetica,sans-Serif" font-size="11.00">pulp_created</text>
<polygon fill="none" stroke="black" points="139,-334 139,-356 244,-356 244,-334 139,-334"/>
<text text-anchor="start" x="142" y="-342.2" font-family="Helvetica,sans-Serif" font-size="11.00">timestamptz[35,6]</text>
<polygon fill="none" stroke="black" points="10,-312 10,-334 139,-334 139,-312 10,-312"/>
<text text-anchor="start" x="30" y="-320.2" font-family="Helvetica,sans-Serif" font-size="11.00">pulp_last_updated</text>
<polygon fill="none" stroke="black" points="139,-312 139,-334 244,-334 244,-312 139,-312"/>
<text text-anchor="start" x="142" y="-320.2" font-family="Helvetica,sans-Serif" font-size="11.00">timestamptz[35,6]</text>
<polygon fill="none" stroke="black" points="10,-290 10,-312 139,-312 139,-290 10,-290"/>
<text text-anchor="start" x="30" y="-298.2" font-family="Helvetica,sans-Serif" font-size="11.00">file</text>
<polygon fill="none" stroke="black" points="139,-290 139,-312 244,-312 244,-290 139,-290"/>
<text text-anchor="start" x="142" y="-298.2" font-family="Helvetica,sans-Serif" font-size="11.00">varchar[255]</text>
<polygon fill="none" stroke="black" points="10,-268 10,-290 139,-290 139,-268 10,-268"/>
<text text-anchor="start" x="30" y="-276.2" font-family="Helvetica,sans-Serif" font-size="11.00">size</text>
<polygon fill="none" stroke="black" points="139,-268 139,-290 244,-290 244,-268 139,-268"/>
<text text-anchor="start" x="142" y="-276.2" font-family="Helvetica,sans-Serif" font-size="11.00">int8[19]</text>
<polygon fill="#ffffff" stroke="none" points="10,-246 10,-268 139,-268 139,-246 10,-246"/>
<polygon fill="none" stroke="black" points="10,-246 10,-268 139,-268 139,-246 10,-246"/>
<text text-anchor="start" x="30" y="-254.2" font-family="Helvetica,sans-Serif" font-size="11.00">md5</text>
<polygon fill="none" stroke="black" points="139,-246 139,-268 244,-268 244,-246 139,-246"/>
<text text-anchor="start" x="142" y="-254.2" font-family="Helvetica,sans-Serif" font-size="11.00">varchar[32]</text>
<polygon fill="#ffffff" stroke="none" points="10,-224 10,-246 139,-246 139,-224 10,-224"/>
<polygon fill="none" stroke="black" points="10,-224 10,-246 139,-246 139,-224 10,-224"/>
<text text-anchor="start" x="30" y="-232.2" font-family="Helvetica,sans-Serif" font-size="11.00">sha1</text>
<polygon fill="none" stroke="black" points="139,-224 139,-246 244,-246 244,-224 139,-224"/>
<text text-anchor="start" x="142" y="-232.2" font-family="Helvetica,sans-Serif" font-size="11.00">varchar[40]</text>
<polygon fill="#ffffff" stroke="none" points="10,-202 10,-224 139,-224 139,-202 10,-202"/>
<polygon fill="none" stroke="black" points="10,-202 10,-224 139,-224 139,-202 10,-202"/>
<text text-anchor="start" x="30" y="-210.2" font-family="Helvetica,sans-Serif" font-size="11.00">sha224</text>
<polygon fill="none" stroke="black" points="139,-202 139,-224 244,-224 244,-202 139,-202"/>
<text text-anchor="start" x="142" y="-210.2" font-family="Helvetica,sans-Serif" font-size="11.00">varchar[56]</text>
<polygon fill="#ffffff" stroke="none" points="10,-180 10,-202 139,-202 139,-180 10,-180"/>
<polygon fill="none" stroke="black" points="10,-180 10,-202 139,-202 139,-180 10,-180"/>
<text text-anchor="start" x="30" y="-188.2" font-family="Helvetica,sans-Serif" font-size="11.00">sha256</text>
<polygon fill="none" stroke="black" points="139,-180 139,-202 244,-202 244,-180 139,-180"/>
<text text-anchor="start" x="142" y="-188.2" font-family="Helvetica,sans-Serif" font-size="11.00">varchar[64]</text>
<polygon fill="#ffffff" stroke="none" points="10,-158 10,-180 139,-180 139,-158 10,-158"/>
<polygon fill="none" stroke="black" points="10,-158 10,-180 139,-180 139,-158 10,-158"/>
<text text-anchor="start" x="30" y="-166.2" font-family="Helvetica,sans-Serif" font-size="11.00">sha384</text>
<polygon fill="none" stroke="black" points="139,-158 139,-180 244,-180 244,-158 139,-158"/>
<text text-anchor="start" x="142" y="-166.2" font-family="Helvetica,sans-Serif" font-size="11.00">varchar[96]</text>
<polygon fill="#ffffff" stroke="none" points="10,-136 10,-158 139,-158 139,-136 10,-136"/>
<polygon fill="none" stroke="black" points="10,-136 10,-158 139,-158 139,-136 10,-136"/>
<text text-anchor="start" x="30" y="-144.2" font-family="Helvetica,sans-Serif" font-size="11.00">sha512</text>
<polygon fill="none" stroke="black" points="139,-136 139,-158 244,-158 244,-136 139,-136"/>
<text text-anchor="start" x="142" y="-144.2" font-family="Helvetica,sans-Serif" font-size="11.00">varchar[128]</text>
<polygon fill="#ffffff" stroke="none" points="10,-118 10,-136 58,-136 58,-118 10,-118"/>
<polygon fill="none" stroke="black" points="10,-118 10,-136 58,-136 58,-118 10,-118"/>
<text text-anchor="start" x="13" y="-124.2" font-family="Helvetica,sans-Serif" font-size="11.00">&lt; 0</text>
<polygon fill="#ffffff" stroke="none" points="58,-118 58,-136 139,-136 139,-118 58,-118"/>
<polygon fill="none" stroke="black" points="58,-118 58,-136 139,-136 139,-118 58,-118"/>
<text text-anchor="start" x="87" y="-124.2" font-family="Helvetica,sans-Serif" font-size="11.00">588 rows</text>
<polygon fill="#ffffff" stroke="none" points="139,-118 139,-136 244,-136 244,-118 139,-118"/>
<polygon fill="none" stroke="black" points="139,-118 139,-136 244,-136 244,-118 139,-118"/>
<text text-anchor="start" x="224" y="-124.2" font-family="Helvetica,sans-Serif" font-size="11.00">1 &gt;</text>
<polygon fill="none" stroke="black" stroke-width="2" points="9,-117 9,-401 245,-401 245,-117 9,-117"/>
</a>
</g>
</g>
<!-- core_contentartifact&#45;&gt;core_artifact -->
<g id="edge1" class="edge"><title>core_contentartifact:artifact_id:w&#45;&gt;core_artifact:pulp_id.type:e</title>
<path fill="none" stroke="black" d="M279.534,-229.21C241.483,-250.198 305.382,-367 245,-367"/>
<polygon fill="black" stroke="black" points="286.19,-227.733 294.78,-229.515 290.095,-226.867 294,-226 294,-226 294,-226 290.095,-226.867 293.22,-222.485 286.19,-227.733 286.19,-227.733"/>
<ellipse fill="none" stroke="black" cx="283.066" cy="-228.426" rx="3.2" ry="3.2"/>
</g>
<!-- core_content -->
<g id="node3" class="node"><title>core_content</title>
<g id="a_node3"><a xlink:href="../../tables/core_content.html" xlink:title="core_content" target="_top">
<polygon fill="#ffffff" stroke="none" points="65.5,-37 65.5,-95 188.5,-95 188.5,-37 65.5,-37"/>
<polygon fill="#f5f5f5" stroke="none" points="66,-73 66,-95 189,-95 189,-73 66,-73"/>
<polygon fill="none" stroke="black" points="66,-73 66,-95 189,-95 189,-73 66,-73"/>
<text text-anchor="start" x="71" y="-82.2" font-family="Helvetica,sans-Serif" font-weight="bold" font-size="11.00">core_content</text>
<text text-anchor="start" x="150" y="-81.2" font-family="Helvetica,sans-Serif" font-size="11.00">[table]</text>
<polygon fill="none" stroke="black" points="66,-55 66,-73 189,-73 189,-55 66,-55"/>
<text text-anchor="start" x="69" y="-61.2" font-family="Helvetica,sans-Serif" font-size="11.00">...</text>
<polygon fill="#ffffff" stroke="none" points="66,-37 66,-55 98,-55 98,-37 66,-37"/>
<polygon fill="none" stroke="black" points="66,-37 66,-55 98,-55 98,-37 66,-37"/>
<text text-anchor="start" x="69" y="-43.2" font-family="Helvetica,sans-Serif" font-size="11.00"> &#160;</text>
<polygon fill="#ffffff" stroke="none" points="98,-37 98,-55 156,-55 156,-37 98,-37"/>
<polygon fill="none" stroke="black" points="98,-37 98,-55 156,-55 156,-37 98,-37"/>
<text text-anchor="start" x="110" y="-43.2" font-family="Helvetica,sans-Serif" font-size="11.00">88 rows</text>
<polygon fill="#ffffff" stroke="none" points="156,-37 156,-55 189,-55 189,-37 156,-37"/>
<polygon fill="none" stroke="black" points="156,-37 156,-55 189,-55 189,-37 156,-37"/>
<text text-anchor="start" x="169" y="-43.2" font-family="Helvetica,sans-Serif" font-size="11.00">8 &gt;</text>
</a>
</g>
</g>
<!-- core_contentartifact&#45;&gt;core_content -->
<g id="edge2" class="edge"><title>core_contentartifact:content_id:w&#45;&gt;core_content:elipses:e</title>
<path fill="none" stroke="black" d="M279.567,-201.075C255.147,-188.324 280.393,-136.816 254,-105 232.432,-79.0009 223.781,-64 190,-64"/>
<polygon fill="black" stroke="black" points="286.159,-202.411 293.285,-207.528 290.08,-203.205 294,-204 294,-204 294,-204 290.08,-203.205 294.715,-200.472 286.159,-202.411 286.159,-202.411"/>
<ellipse fill="none" stroke="black" cx="283.023" cy="-201.775" rx="3.2" ry="3.2"/>
</g>
<!-- core_publishedartifact -->
<g id="node4" class="node"><title>core_publishedartifact</title>
<g id="a_node4"><a xlink:href="../../tables/core_publishedartifact.html" xlink:title="core_publishedartifact" target="_top">
<polygon fill="#ffffff" stroke="none" points="510,-282 510,-340 688,-340 688,-282 510,-282"/>
<polygon fill="#f5f5f5" stroke="none" points="510,-318 510,-340 688,-340 688,-318 510,-318"/>
<polygon fill="none" stroke="black" points="510,-318 510,-340 688,-340 688,-318 510,-318"/>
<text text-anchor="start" x="515" y="-327.2" font-family="Helvetica,sans-Serif" font-weight="bold" font-size="11.00">core_publishedartifact</text>
<text text-anchor="start" x="649" y="-326.2" font-family="Helvetica,sans-Serif" font-size="11.00">[table]</text>
<polygon fill="none" stroke="black" points="510,-300 510,-318 688,-318 688,-300 510,-300"/>
<text text-anchor="start" x="513" y="-306.2" font-family="Helvetica,sans-Serif" font-size="11.00">...</text>
<polygon fill="#ffffff" stroke="none" points="510,-282 510,-300 583,-300 583,-282 510,-282"/>
<polygon fill="none" stroke="black" points="510,-282 510,-300 583,-300 583,-282 510,-282"/>
<text text-anchor="start" x="513" y="-288.2" font-family="Helvetica,sans-Serif" font-size="11.00">&lt; 2</text>
<polygon fill="#ffffff" stroke="none" points="583,-282 583,-300 650,-300 650,-282 583,-282"/>
<polygon fill="none" stroke="black" points="583,-282 583,-300 650,-300 650,-282 583,-282"/>
<text text-anchor="start" x="611" y="-288.2" font-family="Helvetica,sans-Serif" font-size="11.00">0 rows</text>
<polygon fill="#ffffff" stroke="none" points="650,-282 650,-300 688,-300 688,-282 650,-282"/>
<polygon fill="none" stroke="black" points="650,-282 650,-300 688,-300 688,-282 650,-282"/>
<text text-anchor="start" x="678" y="-288.2" font-family="Helvetica,sans-Serif" font-size="11.00"> &#160;</text>
</a>
</g>
</g>
<!-- core_publishedartifact&#45;&gt;core_contentartifact -->
<g id="edge3" class="edge"><title>core_publishedartifact:elipses:w&#45;&gt;core_contentartifact:pulp_id:e</title>
<path fill="none" stroke="black" d="M495.409,-304.218C483.397,-293.804 483.206,-270 462,-270"/>
<polygon fill="black" stroke="black" points="501.454,-306.345 507.805,-312.396 505.227,-307.672 509,-309 509,-309 509,-309 505.227,-307.672 510.195,-305.604 501.454,-306.345 501.454,-306.345"/>
<ellipse fill="none" stroke="black" cx="498.435" cy="-305.283" rx="3.20001" ry="3.20001"/>
</g>
<!-- core_remoteartifact -->
<g id="node5" class="node"><title>core_remoteartifact</title>
<g id="a_node5"><a xlink:href="../../tables/core_remoteartifact.html" xlink:title="core_remoteartifact" target="_top">
<polygon fill="#ffffff" stroke="none" points="517.5,-203 517.5,-261 680.5,-261 680.5,-203 517.5,-203"/>
<polygon fill="#f5f5f5" stroke="none" points="518,-239 518,-261 681,-261 681,-239 518,-239"/>
<polygon fill="none" stroke="black" points="518,-239 518,-261 681,-261 681,-239 518,-239"/>
<text text-anchor="start" x="523" y="-248.2" font-family="Helvetica,sans-Serif" font-weight="bold" font-size="11.00">core_remoteartifact</text>
<text text-anchor="start" x="642" y="-247.2" font-family="Helvetica,sans-Serif" font-size="11.00">[table]</text>
<polygon fill="none" stroke="black" points="518,-221 518,-239 681,-239 681,-221 518,-221"/>
<text text-anchor="start" x="521" y="-227.2" font-family="Helvetica,sans-Serif" font-size="11.00">...</text>
<polygon fill="#ffffff" stroke="none" points="518,-203 518,-221 580,-221 580,-203 518,-203"/>
<polygon fill="none" stroke="black" points="518,-203 518,-221 580,-221 580,-203 518,-203"/>
<text text-anchor="start" x="521" y="-209.2" font-family="Helvetica,sans-Serif" font-size="11.00">&lt; 2</text>
<polygon fill="#ffffff" stroke="none" points="580,-203 580,-221 648,-221 648,-203 580,-203"/>
<polygon fill="none" stroke="black" points="580,-203 580,-221 648,-221 648,-203 580,-203"/>
<text text-anchor="start" x="602" y="-209.2" font-family="Helvetica,sans-Serif" font-size="11.00">16 rows</text>
<polygon fill="#ffffff" stroke="none" points="648,-203 648,-221 681,-221 681,-203 648,-203"/>
<polygon fill="none" stroke="black" points="648,-203 648,-221 681,-221 681,-203 648,-203"/>
<text text-anchor="start" x="671" y="-209.2" font-family="Helvetica,sans-Serif" font-size="11.00"> &#160;</text>
</a>
</g>
</g>
<!-- core_remoteartifact&#45;&gt;core_contentartifact -->
<g id="edge4" class="edge"><title>core_remoteartifact:elipses:w&#45;&gt;core_contentartifact:pulp_id:e</title>
<path fill="none" stroke="black" d="M502.841,-233.982C487.543,-244.099 486.322,-270 462,-270"/>
<polygon fill="black" stroke="black" points="509.299,-232.166 517.975,-233.466 513.149,-231.083 517,-230 517,-230 517,-230 513.149,-231.083 516.025,-226.534 509.299,-232.166 509.299,-232.166"/>
<ellipse fill="none" stroke="black" cx="506.218" cy="-233.032" rx="3.20001" ry="3.20001"/>
</g>
</g>
</svg>
