<?xml version="1.0" encoding="UTF-8" standalone="no"?>
<!DOCTYPE svg PUBLIC "-//W3C//DTD SVG 1.1//EN"
 "http://www.w3.org/Graphics/SVG/1.1/DTD/svg11.dtd">
<!-- Generated by graphviz version 2.38.0 (20140413.2041)
 -->
<!-- Title: twoDegreesRelationshipsDiagram Pages: 1 -->
<svg width="731pt" height="282pt"
 viewBox="0.00 0.00 731.00 282.00" xmlns="http://www.w3.org/2000/svg" xmlns:xlink="http://www.w3.org/1999/xlink">
<g id="graph0" class="graph" transform="scale(1 1) rotate(0) translate(4 278)">
<title>twoDegreesRelationshipsDiagram</title>
<polygon fill="#ffffff" stroke="none" points="-4,4 -4,-278 727,-278 727,4 -4,4"/>
<text text-anchor="middle" x="74.5" y="-7.2" font-family="Helvetica,sans-Serif" font-size="11.00">Generated by SchemaSpy</text>
<!-- core_import -->
<g id="node1" class="node"><title>core_import</title>
<g id="a_node1"><a xlink:href="../../tables/core_import.html" xlink:title="core_import" target="_top">
<polygon fill="#ffffff" stroke="none" points="308.5,-39 308.5,-163 437.5,-163 437.5,-39 308.5,-39"/>
<polygon fill="#f5f5f5" stroke="none" points="309,-141 309,-163 438,-163 438,-141 309,-141"/>
<polygon fill="none" stroke="black" points="309,-141 309,-163 438,-163 438,-141 309,-141"/>
<text text-anchor="start" x="314" y="-150.2" font-family="Helvetica,sans-Serif" font-weight="bold" font-size="11.00">core_import</text>
<text text-anchor="start" x="399" y="-149.2" font-family="Helvetica,sans-Serif" font-size="11.00">[table]</text>
<polygon fill="none" stroke="black" points="309,-119 309,-141 438,-141 438,-119 309,-119"/>
<image xlink:href="../../images/primaryKeys.png" width="11px" height="12px" preserveAspectRatio="xMinYMin meet" x="314" y="-136"/>
<text text-anchor="start" x="329" y="-127.2" font-family="Helvetica,sans-Serif" font-size="11.00">pulp_id</text>
<polygon fill="#ffffff" stroke="none" points="309,-97 309,-119 438,-119 438,-97 309,-97"/>
<polygon fill="none" stroke="black" points="309,-97 309,-119 438,-119 438,-97 309,-97"/>
<image xlink:href="../../images/foreignKeys.png" width="11px" height="12px" preserveAspectRatio="xMinYMin meet" x="314" y="-114"/>
<text text-anchor="start" x="329" y="-105.2" font-family="Helvetica,sans-Serif" font-size="11.00">importer_id</text>
<polygon fill="#ffffff" stroke="none" points="309,-75 309,-97 438,-97 438,-75 309,-75"/>
<polygon fill="none" stroke="black" points="309,-75 309,-97 438,-97 438,-75 309,-75"/>
<image xlink:href="../../images/foreignKeys.png" width="11px" height="12px" preserveAspectRatio="xMinYMin meet" x="314" y="-92"/>
<text text-anchor="start" x="329" y="-83.2" font-family="Helvetica,sans-Serif" font-size="11.00">task_id</text>
<polygon fill="none" stroke="black" points="309,-57 309,-75 438,-75 438,-57 309,-57"/>
<text text-anchor="start" x="312" y="-63.2" font-family="Helvetica,sans-Serif" font-size="11.00">...</text>
<polygon fill="#ffffff" stroke="none" points="309,-39 309,-57 352,-57 352,-39 309,-39"/>
<polygon fill="none" stroke="black" points="309,-39 309,-57 352,-57 352,-39 309,-39"/>
<text text-anchor="start" x="312" y="-45.2" font-family="Helvetica,sans-Serif" font-size="11.00">&lt; 2</text>
<polygon fill="#ffffff" stroke="none" points="352,-39 352,-57 404,-57 404,-39 352,-39"/>
<polygon fill="none" stroke="black" points="352,-39 352,-57 404,-57 404,-39 352,-39"/>
<text text-anchor="start" x="365" y="-45.2" font-family="Helvetica,sans-Serif" font-size="11.00">0 rows</text>
<polygon fill="#ffffff" stroke="none" points="404,-39 404,-57 438,-57 438,-39 404,-39"/>
<polygon fill="none" stroke="black" points="404,-39 404,-57 438,-57 438,-39 404,-39"/>
<text text-anchor="start" x="418" y="-45.2" font-family="Helvetica,sans-Serif" font-size="11.00">1 &gt;</text>
</a>
</g>
</g>
<!-- core_importer -->
<g id="node2" class="node"><title>core_importer</title>
<g id="a_node2"><a xlink:href="../../tables/core_importer.html" xlink:title="core_importer" target="_top">
<polygon fill="#ffffff" stroke="none" points="8,-116 8,-270 246,-270 246,-116 8,-116"/>
<polygon fill="#f5f5f5" stroke="none" points="10,-246 10,-268 244,-268 244,-246 10,-246"/>
<polygon fill="none" stroke="black" points="10,-246 10,-268 244,-268 244,-246 10,-246"/>
<text text-anchor="start" x="15" y="-255.2" font-family="Helvetica,sans-Serif" font-weight="bold" font-size="11.00">core_importer</text>
<text text-anchor="start" x="205" y="-254.2" font-family="Helvetica,sans-Serif" font-size="11.00">[table]</text>
<polygon fill="none" stroke="black" points="10,-224 10,-246 139,-246 139,-224 10,-224"/>
<image xlink:href="../../images/primaryKeys.png" width="11px" height="12px" preserveAspectRatio="xMinYMin meet" x="15" y="-241"/>
<text text-anchor="start" x="30" y="-232.2" font-family="Helvetica,sans-Serif" font-size="11.00">pulp_id</text>
<polygon fill="none" stroke="black" points="139,-224 139,-246 244,-246 244,-224 139,-224"/>
<text text-anchor="start" x="142" y="-232.2" font-family="Helvetica,sans-Serif" font-size="11.00">uuid[2147483647]</text>
<polygon fill="none" stroke="black" points="10,-202 10,-224 139,-224 139,-202 10,-202"/>
<text text-anchor="start" x="30" y="-210.2" font-family="Helvetica,sans-Serif" font-size="11.00">pulp_created</text>
<polygon fill="none" stroke="black" points="139,-202 139,-224 244,-224 244,-202 139,-202"/>
<text text-anchor="start" x="142" y="-210.2" font-family="Helvetica,sans-Serif" font-size="11.00">timestamptz[35,6]</text>
<polygon fill="none" stroke="black" points="10,-180 10,-202 139,-202 139,-180 10,-180"/>
<text text-anchor="start" x="30" y="-188.2" font-family="Helvetica,sans-Serif" font-size="11.00">pulp_last_updated</text>
<polygon fill="none" stroke="black" points="139,-180 139,-202 244,-202 244,-180 139,-180"/>
<text text-anchor="start" x="142" y="-188.2" font-family="Helvetica,sans-Serif" font-size="11.00">timestamptz[35,6]</text>
<polygon fill="none" stroke="black" points="10,-158 10,-180 139,-180 139,-158 10,-158"/>
<text text-anchor="start" x="30" y="-166.2" font-family="Helvetica,sans-Serif" font-size="11.00">pulp_type</text>
<polygon fill="none" stroke="black" points="139,-158 139,-180 244,-180 244,-158 139,-158"/>
<text text-anchor="start" x="142" y="-166.2" font-family="Helvetica,sans-Serif" font-size="11.00">text[2147483647]</text>
<polygon fill="#ffffff" stroke="none" points="10,-136 10,-158 139,-158 139,-136 10,-136"/>
<polygon fill="none" stroke="black" points="10,-136 10,-158 139,-158 139,-136 10,-136"/>
<text text-anchor="start" x="30" y="-144.2" font-family="Helvetica,sans-Serif" font-size="11.00">name</text>
<polygon fill="none" stroke="black" points="139,-136 139,-158 244,-158 244,-136 139,-136"/>
<text text-anchor="start" x="142" y="-144.2" font-family="Helvetica,sans-Serif" font-size="11.00">text[2147483647]</text>
<polygon fill="#ffffff" stroke="none" points="10,-118 10,-136 65,-136 65,-118 10,-118"/>
<polygon fill="none" stroke="black" points="10,-118 10,-136 65,-136 65,-118 10,-118"/>
<text text-anchor="start" x="13" y="-124.2" font-family="Helvetica,sans-Serif" font-size="11.00">&lt; 0</text>
<polygon fill="#ffffff" stroke="none" points="65,-118 65,-136 139,-136 139,-118 65,-118"/>
<polygon fill="none" stroke="black" points="65,-118 65,-136 139,-136 139,-118 65,-118"/>
<text text-anchor="start" x="100" y="-124.2" font-family="Helvetica,sans-Serif" font-size="11.00">0 rows</text>
<polygon fill="#ffffff" stroke="none" points="139,-118 139,-136 244,-136 244,-118 139,-118"/>
<polygon fill="none" stroke="black" points="139,-118 139,-136 244,-136 244,-118 139,-118"/>
<text text-anchor="start" x="224" y="-124.2" font-family="Helvetica,sans-Serif" font-size="11.00">2 &gt;</text>
<polygon fill="none" stroke="black" stroke-width="2" points="9,-117 9,-269 245,-269 245,-117 9,-117"/>
</a>
</g>
</g>
<!-- core_import&#45;&gt;core_importer -->
<g id="edge1" class="edge"><title>core_import:importer_id:w&#45;&gt;core_importer:pulp_id.type:e</title>
<path fill="none" stroke="black" d="M293.886,-110.891C255.298,-129.795 302.347,-235 245,-235"/>
<polygon fill="black" stroke="black" points="300.163,-109.606 308.722,-111.527 304.081,-108.803 308,-108 308,-108 308,-108 304.081,-108.803 307.278,-104.473 300.163,-109.606 300.163,-109.606"/>
<ellipse fill="none" stroke="black" cx="297.028" cy="-110.248" rx="3.2" ry="3.2"/>
</g>
<!-- core_task -->
<g id="node3" class="node"><title>core_task</title>
<g id="a_node3"><a xlink:href="../../tables/core_task.html" xlink:title="core_task" target="_top">
<polygon fill="#ffffff" stroke="none" points="71.5,-37 71.5,-95 182.5,-95 182.5,-37 71.5,-37"/>
<polygon fill="#f5f5f5" stroke="none" points="72,-73 72,-95 183,-95 183,-73 72,-73"/>
<polygon fill="none" stroke="black" points="72,-73 72,-95 183,-95 183,-73 72,-73"/>
<text text-anchor="start" x="77" y="-82.2" font-family="Helvetica,sans-Serif" font-weight="bold" font-size="11.00">core_task</text>
<text text-anchor="start" x="144" y="-81.2" font-family="Helvetica,sans-Serif" font-size="11.00">[table]</text>
<polygon fill="none" stroke="black" points="72,-55 72,-73 183,-73 183,-55 72,-55"/>
<text text-anchor="start" x="75" y="-61.2" font-family="Helvetica,sans-Serif" font-size="11.00">...</text>
<polygon fill="#ffffff" stroke="none" points="72,-37 72,-55 95,-55 95,-37 72,-37"/>
<polygon fill="none" stroke="black" points="72,-37 72,-55 95,-55 95,-37 72,-37"/>
<text text-anchor="start" x="75" y="-43.2" font-family="Helvetica,sans-Serif" font-size="11.00">&lt; 3</text>
<polygon fill="#ffffff" stroke="none" points="95,-37 95,-55 160,-55 160,-37 95,-37"/>
<polygon fill="none" stroke="black" points="95,-37 95,-55 160,-55 160,-37 95,-37"/>
<text text-anchor="start" x="98" y="-43.2" font-family="Helvetica,sans-Serif" font-size="11.00">1,828 rows</text>
<polygon fill="#ffffff" stroke="none" points="160,-37 160,-55 183,-55 183,-37 160,-37"/>
<polygon fill="none" stroke="black" points="160,-37 160,-55 183,-55 183,-37 160,-37"/>
<text text-anchor="start" x="163" y="-43.2" font-family="Helvetica,sans-Serif" font-size="11.00">8 &gt;</text>
</a>
</g>
</g>
<!-- core_import&#45;&gt;core_task -->
<g id="edge2" class="edge"><title>core_import:task_id:w&#45;&gt;core_task:elipses:e</title>
<path fill="none" stroke="black" d="M293.343,-85.4562C249.382,-82.0684 234.724,-64 184,-64"/>
<polygon fill="black" stroke="black" points="300.006,-85.7033 307.866,-89.5975 304.003,-85.8517 308,-86 308,-86 308,-86 304.003,-85.8517 308.134,-82.4025 300.006,-85.7033 300.006,-85.7033"/>
<ellipse fill="none" stroke="black" cx="296.808" cy="-85.5846" rx="3.2" ry="3.2"/>
</g>
<!-- core_pulpimport -->
<g id="node4" class="node"><title>core_pulpimport</title>
<g id="a_node4"><a xlink:href="../../tables/core_pulpimport.html" xlink:title="core_pulpimport" target="_top">
<polygon fill="#ffffff" stroke="none" points="535.5,-103 535.5,-161 679.5,-161 679.5,-103 535.5,-103"/>
<polygon fill="#f5f5f5" stroke="none" points="535.5,-139 535.5,-161 679.5,-161 679.5,-139 535.5,-139"/>
<polygon fill="none" stroke="black" points="535.5,-139 535.5,-161 679.5,-161 679.5,-139 535.5,-139"/>
<text text-anchor="start" x="540.5" y="-148.2" font-family="Helvetica,sans-Serif" font-weight="bold" font-size="11.00">core_pulpimport</text>
<text text-anchor="start" x="640.5" y="-147.2" font-family="Helvetica,sans-Serif" font-size="11.00">[table]</text>
<polygon fill="none" stroke="black" points="535.5,-121 535.5,-139 679.5,-139 679.5,-121 535.5,-121"/>
<text text-anchor="start" x="538.5" y="-127.2" font-family="Helvetica,sans-Serif" font-size="11.00">...</text>
<polygon fill="#ffffff" stroke="none" points="535.5,-103 535.5,-121 591.5,-121 591.5,-103 535.5,-103"/>
<polygon fill="none" stroke="black" points="535.5,-103 535.5,-121 591.5,-121 591.5,-103 535.5,-103"/>
<text text-anchor="start" x="538.5" y="-109.2" font-family="Helvetica,sans-Serif" font-size="11.00">&lt; 1</text>
<polygon fill="#ffffff" stroke="none" points="591.5,-103 591.5,-121 649.5,-121 649.5,-103 591.5,-103"/>
<polygon fill="none" stroke="black" points="591.5,-103 591.5,-121 649.5,-121 649.5,-103 591.5,-103"/>
<text text-anchor="start" x="610.5" y="-109.2" font-family="Helvetica,sans-Serif" font-size="11.00">0 rows</text>
<polygon fill="#ffffff" stroke="none" points="649.5,-103 649.5,-121 679.5,-121 679.5,-103 649.5,-103"/>
<polygon fill="none" stroke="black" points="649.5,-103 649.5,-121 679.5,-121 679.5,-103 649.5,-103"/>
<text text-anchor="start" x="669.5" y="-109.2" font-family="Helvetica,sans-Serif" font-size="11.00"> &#160;</text>
</a>
</g>
</g>
<!-- core_pulpimport&#45;&gt;core_import -->
<g id="edge3" class="edge"><title>core_pulpimport:elipses:w&#45;&gt;core_import:pulp_id:e</title>
<path fill="none" stroke="black" d="M523.785,-130C489.892,-130 477.631,-130 439,-130"/>
<polygon fill="black" stroke="black" points="533.7,-126 533.7,-134 532.1,-134 532.1,-126 533.7,-126"/>
<polyline fill="none" stroke="black" points="534.5,-130 530.5,-130 "/>
<ellipse fill="none" stroke="black" cx="527.3" cy="-130" rx="3.2" ry="3.2"/>
</g>
<!-- core_pulpimporter -->
<g id="node5" class="node"><title>core_pulpimporter</title>
<g id="a_node5"><a xlink:href="../../tables/core_pulpimporter.html" xlink:title="core_pulpimporter" target="_top">
<polygon fill="#ffffff" stroke="none" points="295,-206 295,-268 451,-268 451,-206 295,-206"/>
<polygon fill="#f5f5f5" stroke="none" points="295,-246 295,-268 451,-268 451,-246 295,-246"/>
<polygon fill="none" stroke="black" points="295,-246 295,-268 451,-268 451,-246 295,-246"/>
<text text-anchor="start" x="300" y="-255.2" font-family="Helvetica,sans-Serif" font-weight="bold" font-size="11.00">core_pulpimporter</text>
<text text-anchor="start" x="412" y="-254.2" font-family="Helvetica,sans-Serif" font-size="11.00">[table]</text>
<polygon fill="none" stroke="black" points="295,-224 295,-246 451,-246 451,-224 295,-224"/>
<image xlink:href="../../images/primaryKeys.png" width="11px" height="12px" preserveAspectRatio="xMinYMin meet" x="300" y="-241"/>
<text text-anchor="start" x="327" y="-232.2" font-family="Helvetica,sans-Serif" font-size="11.00">importer_ptr_id</text>
<polygon fill="#ffffff" stroke="none" points="295,-206 295,-224 352,-224 352,-206 295,-206"/>
<polygon fill="none" stroke="black" points="295,-206 295,-224 352,-224 352,-206 295,-206"/>
<text text-anchor="start" x="298" y="-212.2" font-family="Helvetica,sans-Serif" font-size="11.00">&lt; 1</text>
<polygon fill="#ffffff" stroke="none" points="352,-206 352,-224 411,-224 411,-206 352,-206"/>
<polygon fill="none" stroke="black" points="352,-206 352,-224 411,-224 411,-206 352,-206"/>
<text text-anchor="start" x="372" y="-212.2" font-family="Helvetica,sans-Serif" font-size="11.00">0 rows</text>
<polygon fill="#ffffff" stroke="none" points="411,-206 411,-224 451,-224 451,-206 411,-206"/>
<polygon fill="none" stroke="black" points="411,-206 411,-224 451,-224 451,-206 411,-206"/>
<text text-anchor="start" x="431" y="-212.2" font-family="Helvetica,sans-Serif" font-size="11.00">1 &gt;</text>
</a>
</g>
</g>
<!-- core_pulpimporter&#45;&gt;core_importer -->
<g id="edge4" class="edge"><title>core_pulpimporter:importer_ptr_id:w&#45;&gt;core_importer:pulp_id.type:e</title>
<path fill="none" stroke="black" d="M283.257,-235C269.606,-235 262.694,-235 245,-235"/>
<polygon fill="black" stroke="black" points="293.2,-231 293.2,-239 291.6,-239 291.6,-231 293.2,-231"/>
<polyline fill="none" stroke="black" points="294,-235 290,-235 "/>
<ellipse fill="none" stroke="black" cx="286.8" cy="-235" rx="3.2" ry="3.2"/>
</g>
<!-- core_pulpimporterrepository -->
<g id="node6" class="node"><title>core_pulpimporterrepository</title>
<g id="a_node6"><a xlink:href="../../tables/core_pulpimporterrepository.html" xlink:title="core_pulpimporterrepository" target="_top">
<polygon fill="#ffffff" stroke="none" points="500,-208 500,-266 715,-266 715,-208 500,-208"/>
<polygon fill="#f5f5f5" stroke="none" points="500.5,-244 500.5,-266 715.5,-266 715.5,-244 500.5,-244"/>
<polygon fill="none" stroke="black" points="500.5,-244 500.5,-266 715.5,-266 715.5,-244 500.5,-244"/>
<text text-anchor="start" x="505.5" y="-253.2" font-family="Helvetica,sans-Serif" font-weight="bold" font-size="11.00">core_pulpimporterrepository</text>
<text text-anchor="start" x="676.5" y="-252.2" font-family="Helvetica,sans-Serif" font-size="11.00">[table]</text>
<polygon fill="none" stroke="black" points="500.5,-226 500.5,-244 715.5,-244 715.5,-226 500.5,-226"/>
<text text-anchor="start" x="503.5" y="-232.2" font-family="Helvetica,sans-Serif" font-size="11.00">...</text>
<polygon fill="#ffffff" stroke="none" points="500.5,-208 500.5,-226 591.5,-226 591.5,-208 500.5,-208"/>
<polygon fill="none" stroke="black" points="500.5,-208 500.5,-226 591.5,-226 591.5,-208 500.5,-208"/>
<text text-anchor="start" x="503.5" y="-214.2" font-family="Helvetica,sans-Serif" font-size="11.00">&lt; 2</text>
<polygon fill="#ffffff" stroke="none" points="591.5,-208 591.5,-226 667.5,-226 667.5,-208 591.5,-208"/>
<polygon fill="none" stroke="black" points="591.5,-208 591.5,-226 667.5,-226 667.5,-208 591.5,-208"/>
<text text-anchor="start" x="628.5" y="-214.2" font-family="Helvetica,sans-Serif" font-size="11.00">0 rows</text>
<polygon fill="#ffffff" stroke="none" points="667.5,-208 667.5,-226 715.5,-226 715.5,-208 667.5,-208"/>
<polygon fill="none" stroke="black" points="667.5,-208 667.5,-226 715.5,-226 715.5,-208 667.5,-208"/>
<text text-anchor="start" x="705.5" y="-214.2" font-family="Helvetica,sans-Serif" font-size="11.00"> &#160;</text>
</a>
</g>
</g>
<!-- core_pulpimporterrepository&#45;&gt;core_pulpimporter -->
<g id="edge5" class="edge"><title>core_pulpimporterrepository:elipses:w&#45;&gt;core_pulpimporter:importer_ptr_id:e</title>
<path fill="none" stroke="black" d="M485.086,-235C474.319,-235 467.339,-235 452,-235"/>
<polygon fill="black" stroke="black" points="491.5,-235 499.5,-238.6 495.5,-235 499.5,-235 499.5,-235 499.5,-235 495.5,-235 499.5,-231.4 491.5,-235 491.5,-235"/>
<ellipse fill="none" stroke="black" cx="488.3" cy="-235" rx="3.2" ry="3.2"/>
</g>
</g>
</svg>
