<?xml version="1.0" encoding="UTF-8" standalone="no"?>
<!DOCTYPE svg PUBLIC "-//W3C//DTD SVG 1.1//EN"
 "http://www.w3.org/Graphics/SVG/1.1/DTD/svg11.dtd">
<!-- Generated by graphviz version 2.38.0 (20140413.2041)
 -->
<!-- Title: oneDegreeRelationshipsDiagram Pages: 1 -->
<svg width="503pt" height="357pt"
 viewBox="0.00 0.00 503.00 357.00" xmlns="http://www.w3.org/2000/svg" xmlns:xlink="http://www.w3.org/1999/xlink">
<g id="graph0" class="graph" transform="scale(1 1) rotate(0) translate(4 353)">
<title>oneDegreeRelationshipsDiagram</title>
<polygon fill="#ffffff" stroke="none" points="-4,4 -4,-353 499,-353 499,4 -4,4"/>
<text text-anchor="middle" x="74.5" y="-7.2" font-family="Helvetica,sans-Serif" font-size="11.00">Generated by SchemaSpy</text>
<!-- core_publishedartifact -->
<g id="node1" class="node"><title>core_publishedartifact</title>
<g id="a_node1"><a xlink:href="../../tables/core_publishedartifact.html" xlink:title="core_publishedartifact" target="_top">
<polygon fill="#ffffff" stroke="none" points="223,-169 223,-345 487,-345 487,-169 223,-169"/>
<polygon fill="#f5f5f5" stroke="none" points="225,-321 225,-343 485,-343 485,-321 225,-321"/>
<polygon fill="none" stroke="black" points="225,-321 225,-343 485,-343 485,-321 225,-321"/>
<text text-anchor="start" x="230" y="-330.2" font-family="Helvetica,sans-Serif" font-weight="bold" font-size="11.00">core_publishedartifact</text>
<text text-anchor="start" x="446" y="-329.2" font-family="Helvetica,sans-Serif" font-size="11.00">[table]</text>
<polygon fill="none" stroke="black" points="225,-299 225,-321 380,-321 380,-299 225,-299"/>
<image xlink:href="../../images/primaryKeys.png" width="11px" height="12px" preserveAspectRatio="xMinYMin meet" x="230" y="-316"/>
<text text-anchor="start" x="245" y="-307.2" font-family="Helvetica,sans-Serif" font-size="11.00">pulp_id</text>
<polygon fill="none" stroke="black" points="380,-299 380,-321 485,-321 485,-299 380,-299"/>
<text text-anchor="start" x="383" y="-307.2" font-family="Helvetica,sans-Serif" font-size="11.00">uuid[2147483647]</text>
<polygon fill="none" stroke="black" points="225,-277 225,-299 380,-299 380,-277 225,-277"/>
<text text-anchor="start" x="245" y="-285.2" font-family="Helvetica,sans-Serif" font-size="11.00">pulp_created</text>
<polygon fill="none" stroke="black" points="380,-277 380,-299 485,-299 485,-277 380,-277"/>
<text text-anchor="start" x="383" y="-285.2" font-family="Helvetica,sans-Serif" font-size="11.00">timestamptz[35,6]</text>
<polygon fill="none" stroke="black" points="225,-255 225,-277 380,-277 380,-255 225,-255"/>
<text text-anchor="start" x="245" y="-263.2" font-family="Helvetica,sans-Serif" font-size="11.00">pulp_last_updated</text>
<polygon fill="none" stroke="black" points="380,-255 380,-277 485,-277 485,-255 380,-255"/>
<text text-anchor="start" x="383" y="-263.2" font-family="Helvetica,sans-Serif" font-size="11.00">timestamptz[35,6]</text>
<polygon fill="#ffffff" stroke="none" points="225,-233 225,-255 380,-255 380,-233 225,-233"/>
<polygon fill="none" stroke="black" points="225,-233 225,-255 380,-255 380,-233 225,-233"/>
<text text-anchor="start" x="245" y="-241.2" font-family="Helvetica,sans-Serif" font-size="11.00">relative_path</text>
<polygon fill="none" stroke="black" points="380,-233 380,-255 485,-255 485,-233 380,-233"/>
<text text-anchor="start" x="383" y="-241.2" font-family="Helvetica,sans-Serif" font-size="11.00">text[2147483647]</text>
<polygon fill="#ffffff" stroke="none" points="225,-211 225,-233 380,-233 380,-211 225,-211"/>
<polygon fill="none" stroke="black" points="225,-211 225,-233 380,-233 380,-211 225,-211"/>
<image xlink:href="../../images/foreignKeys.png" width="11px" height="12px" preserveAspectRatio="xMinYMin meet" x="230" y="-228"/>
<text text-anchor="start" x="245" y="-219.2" font-family="Helvetica,sans-Serif" font-size="11.00">content_artifact_id</text>
<polygon fill="none" stroke="black" points="380,-211 380,-233 485,-233 485,-211 380,-211"/>
<text text-anchor="start" x="383" y="-219.2" font-family="Helvetica,sans-Serif" font-size="11.00">uuid[2147483647]</text>
<polygon fill="#ffffff" stroke="none" points="225,-189 225,-211 380,-211 380,-189 225,-189"/>
<polygon fill="none" stroke="black" points="225,-189 225,-211 380,-211 380,-189 225,-189"/>
<image xlink:href="../../images/foreignKeys.png" width="11px" height="12px" preserveAspectRatio="xMinYMin meet" x="230" y="-206"/>
<text text-anchor="start" x="245" y="-197.2" font-family="Helvetica,sans-Serif" font-size="11.00">publication_id</text>
<polygon fill="none" stroke="black" points="380,-189 380,-211 485,-211 485,-189 380,-189"/>
<text text-anchor="start" x="383" y="-197.2" font-family="Helvetica,sans-Serif" font-size="11.00">uuid[2147483647]</text>
<polygon fill="#ffffff" stroke="none" points="225,-171 225,-189 293,-189 293,-171 225,-171"/>
<polygon fill="none" stroke="black" points="225,-171 225,-189 293,-189 293,-171 225,-171"/>
<text text-anchor="start" x="228" y="-177.2" font-family="Helvetica,sans-Serif" font-size="11.00">&lt; 2</text>
<polygon fill="#ffffff" stroke="none" points="293,-171 293,-189 380,-189 380,-171 293,-171"/>
<polygon fill="none" stroke="black" points="293,-171 293,-189 380,-189 380,-171 293,-171"/>
<text text-anchor="start" x="341" y="-177.2" font-family="Helvetica,sans-Serif" font-size="11.00">0 rows</text>
<polygon fill="#ffffff" stroke="none" points="380,-171 380,-189 485,-189 485,-171 380,-171"/>
<polygon fill="none" stroke="black" points="380,-171 380,-189 485,-189 485,-171 380,-171"/>
<text text-anchor="start" x="465" y="-177.2" font-family="Helvetica,sans-Serif" font-size="11.00">0 &gt;</text>
<polygon fill="none" stroke="black" stroke-width="2" points="224,-170 224,-344 486,-344 486,-170 224,-170"/>
</a>
</g>
</g>
<!-- core_contentartifact -->
<g id="node2" class="node"><title>core_contentartifact</title>
<g id="a_node2"><a xlink:href="../../tables/core_contentartifact.html" xlink:title="core_contentartifact" target="_top">
<polygon fill="#ffffff" stroke="none" points="8,-182 8,-328 174,-328 174,-182 8,-182"/>
<polygon fill="#f5f5f5" stroke="none" points="8,-306 8,-328 174,-328 174,-306 8,-306"/>
<polygon fill="none" stroke="black" points="8,-306 8,-328 174,-328 174,-306 8,-306"/>
<text text-anchor="start" x="13" y="-315.2" font-family="Helvetica,sans-Serif" font-weight="bold" font-size="11.00">core_contentartifact</text>
<text text-anchor="start" x="135" y="-314.2" font-family="Helvetica,sans-Serif" font-size="11.00">[table]</text>
<polygon fill="none" stroke="black" points="8,-284 8,-306 174,-306 174,-284 8,-284"/>
<image xlink:href="../../images/primaryKeys.png" width="11px" height="12px" preserveAspectRatio="xMinYMin meet" x="13" y="-301"/>
<text text-anchor="start" x="40" y="-292.2" font-family="Helvetica,sans-Serif" font-size="11.00">pulp_id</text>
<polygon fill="#ffffff" stroke="none" points="8,-262 8,-284 174,-284 174,-262 8,-262"/>
<polygon fill="none" stroke="black" points="8,-262 8,-284 174,-284 174,-262 8,-262"/>
<text text-anchor="start" x="40" y="-270.2" font-family="Helvetica,sans-Serif" font-size="11.00">relative_path</text>
<polygon fill="#ffffff" stroke="none" points="8,-240 8,-262 174,-262 174,-240 8,-240"/>
<polygon fill="none" stroke="black" points="8,-240 8,-262 174,-262 174,-240 8,-240"/>
<image xlink:href="../../images/foreignKeys.png" width="11px" height="12px" preserveAspectRatio="xMinYMin meet" x="13" y="-257"/>
<text text-anchor="start" x="40" y="-248.2" font-family="Helvetica,sans-Serif" font-size="11.00">artifact_id</text>
<polygon fill="#ffffff" stroke="none" points="8,-218 8,-240 174,-240 174,-218 8,-218"/>
<polygon fill="none" stroke="black" points="8,-218 8,-240 174,-240 174,-218 8,-218"/>
<image xlink:href="../../images/foreignKeys.png" width="11px" height="12px" preserveAspectRatio="xMinYMin meet" x="13" y="-235"/>
<text text-anchor="start" x="40" y="-226.2" font-family="Helvetica,sans-Serif" font-size="11.00">content_id</text>
<polygon fill="none" stroke="black" points="8,-200 8,-218 174,-218 174,-200 8,-200"/>
<text text-anchor="start" x="11" y="-206.2" font-family="Helvetica,sans-Serif" font-size="11.00">...</text>
<polygon fill="#ffffff" stroke="none" points="8,-182 8,-200 66,-200 66,-182 8,-182"/>
<polygon fill="none" stroke="black" points="8,-182 8,-200 66,-200 66,-182 8,-182"/>
<text text-anchor="start" x="11" y="-188.2" font-family="Helvetica,sans-Serif" font-size="11.00">&lt; 2</text>
<polygon fill="#ffffff" stroke="none" points="66,-182 66,-200 133,-200 133,-182 66,-182"/>
<polygon fill="none" stroke="black" points="66,-182 66,-200 133,-200 133,-182 66,-182"/>
<text text-anchor="start" x="87" y="-188.2" font-family="Helvetica,sans-Serif" font-size="11.00">88 rows</text>
<polygon fill="#ffffff" stroke="none" points="133,-182 133,-200 174,-200 174,-182 133,-182"/>
<polygon fill="none" stroke="black" points="133,-182 133,-200 174,-200 174,-182 133,-182"/>
<text text-anchor="start" x="154" y="-188.2" font-family="Helvetica,sans-Serif" font-size="11.00">2 &gt;</text>
</a>
</g>
</g>
<!-- core_publishedartifact&#45;&gt;core_contentartifact -->
<g id="edge1" class="edge"><title>core_publishedartifact:content_artifact_id:w&#45;&gt;core_contentartifact:pulp_id:e</title>
<path fill="none" stroke="black" d="M210.16,-226.79C192.368,-243.03 207.97,-295 175,-295"/>
<polygon fill="black" stroke="black" points="216.44,-224.616 225.177,-225.402 220.22,-223.308 224,-222 224,-222 224,-222 220.22,-223.308 222.823,-218.598 216.44,-224.616 216.44,-224.616"/>
<ellipse fill="none" stroke="black" cx="213.416" cy="-225.663" rx="3.20001" ry="3.20001"/>
</g>
<!-- core_publication -->
<g id="node3" class="node"><title>core_publication</title>
<g id="a_node3"><a xlink:href="../../tables/core_publication.html" xlink:title="core_publication" target="_top">
<polygon fill="#ffffff" stroke="none" points="17,-37 17,-161 165,-161 165,-37 17,-37"/>
<polygon fill="#f5f5f5" stroke="none" points="17,-139 17,-161 165,-161 165,-139 17,-139"/>
<polygon fill="none" stroke="black" points="17,-139 17,-161 165,-161 165,-139 17,-139"/>
<text text-anchor="start" x="22" y="-148.2" font-family="Helvetica,sans-Serif" font-weight="bold" font-size="11.00">core_publication</text>
<text text-anchor="start" x="126" y="-147.2" font-family="Helvetica,sans-Serif" font-size="11.00">[table]</text>
<polygon fill="none" stroke="black" points="17,-117 17,-139 165,-139 165,-117 17,-117"/>
<image xlink:href="../../images/primaryKeys.png" width="11px" height="12px" preserveAspectRatio="xMinYMin meet" x="22" y="-134"/>
<text text-anchor="start" x="37" y="-125.2" font-family="Helvetica,sans-Serif" font-size="11.00">pulp_id</text>
<polygon fill="#ffffff" stroke="none" points="17,-95 17,-117 165,-117 165,-95 17,-95"/>
<polygon fill="none" stroke="black" points="17,-95 17,-117 165,-117 165,-95 17,-95"/>
<text text-anchor="start" x="37" y="-103.2" font-family="Helvetica,sans-Serif" font-size="11.00">complete</text>
<polygon fill="#ffffff" stroke="none" points="17,-73 17,-95 165,-95 165,-73 17,-73"/>
<polygon fill="none" stroke="black" points="17,-73 17,-95 165,-95 165,-73 17,-73"/>
<image xlink:href="../../images/foreignKeys.png" width="11px" height="12px" preserveAspectRatio="xMinYMin meet" x="22" y="-90"/>
<text text-anchor="start" x="37" y="-81.2" font-family="Helvetica,sans-Serif" font-size="11.00">repository_version_id</text>
<polygon fill="none" stroke="black" points="17,-55 17,-73 165,-73 165,-55 17,-55"/>
<text text-anchor="start" x="20" y="-61.2" font-family="Helvetica,sans-Serif" font-size="11.00">...</text>
<polygon fill="#ffffff" stroke="none" points="17,-37 17,-55 70,-55 70,-37 17,-37"/>
<polygon fill="none" stroke="black" points="17,-37 17,-55 70,-55 70,-37 17,-37"/>
<text text-anchor="start" x="20" y="-43.2" font-family="Helvetica,sans-Serif" font-size="11.00">&lt; 1</text>
<polygon fill="#ffffff" stroke="none" points="70,-37 70,-55 127,-55 127,-37 70,-37"/>
<polygon fill="none" stroke="black" points="70,-37 70,-55 127,-55 127,-37 70,-37"/>
<text text-anchor="start" x="88" y="-43.2" font-family="Helvetica,sans-Serif" font-size="11.00">0 rows</text>
<polygon fill="#ffffff" stroke="none" points="127,-37 127,-55 165,-55 165,-37 127,-37"/>
<polygon fill="none" stroke="black" points="127,-37 127,-55 165,-55 165,-37 127,-37"/>
<text text-anchor="start" x="145" y="-43.2" font-family="Helvetica,sans-Serif" font-size="11.00">2 &gt;</text>
</a>
</g>
</g>
<!-- core_publishedartifact&#45;&gt;core_publication -->
<g id="edge2" class="edge"><title>core_publishedartifact:publication_id:w&#45;&gt;core_publication:pulp_id:e</title>
<path fill="none" stroke="black" d="M209.88,-195.923C188.535,-180.692 201.152,-128 166,-128"/>
<polygon fill="black" stroke="black" points="216.314,-197.781 223.001,-203.459 220.157,-198.89 224,-200 224,-200 224,-200 220.157,-198.89 224.999,-196.541 216.314,-197.781 216.314,-197.781"/>
<ellipse fill="none" stroke="black" cx="213.24" cy="-196.893" rx="3.20001" ry="3.20001"/>
</g>
</g>
</svg>
