<?xml version="1.0" encoding="UTF-8" standalone="no"?>
<!DOCTYPE svg PUBLIC "-//W3C//DTD SVG 1.1//EN"
 "http://www.w3.org/Graphics/SVG/1.1/DTD/svg11.dtd">
<!-- Generated by graphviz version 2.38.0 (20140413.2041)
 -->
<!-- Title: twoDegreesRelationshipsDiagram Pages: 1 -->
<svg width="1047pt" height="573pt"
 viewBox="0.00 0.00 1047.00 573.00" xmlns="http://www.w3.org/2000/svg" xmlns:xlink="http://www.w3.org/1999/xlink">
<g id="graph0" class="graph" transform="scale(1 1) rotate(0) translate(4 569)">
<title>twoDegreesRelationshipsDiagram</title>
<polygon fill="#ffffff" stroke="none" points="-4,4 -4,-569 1043,-569 1043,4 -4,4"/>
<text text-anchor="middle" x="74.5" y="-7.2" font-family="Helvetica,sans-Serif" font-size="11.00">Generated by SchemaSpy</text>
<!-- ansible_ansibledistribution -->
<g id="node1" class="node"><title>ansible_ansibledistribution</title>
<g id="a_node1"><a xlink:href="../../tables/ansible_ansibledistribution.html" xlink:title="ansible_ansibledistribution" target="_top">
<polygon fill="#ffffff" stroke="none" points="812,-75 812,-181 1017,-181 1017,-75 812,-75"/>
<polygon fill="#f5f5f5" stroke="none" points="812.5,-159 812.5,-181 1017.5,-181 1017.5,-159 812.5,-159"/>
<polygon fill="none" stroke="black" points="812.5,-159 812.5,-181 1017.5,-181 1017.5,-159 812.5,-159"/>
<text text-anchor="start" x="817.5" y="-168.2" font-family="Helvetica,sans-Serif" font-weight="bold" font-size="11.00">ansible_ansibledistribution</text>
<text text-anchor="start" x="978.5" y="-167.2" font-family="Helvetica,sans-Serif" font-size="11.00">[table]</text>
<polygon fill="none" stroke="black" points="812.5,-137 812.5,-159 1017.5,-159 1017.5,-137 812.5,-137"/>
<image xlink:href="../../images/primaryKeys.png" width="11px" height="12px" preserveAspectRatio="xMinYMin meet" x="817.5" y="-154"/>
<text text-anchor="start" x="843.5" y="-145.2" font-family="Helvetica,sans-Serif" font-size="11.00">basedistribution_ptr_id</text>
<polygon fill="#ffffff" stroke="none" points="812.5,-115 812.5,-137 1017.5,-137 1017.5,-115 812.5,-115"/>
<polygon fill="none" stroke="black" points="812.5,-115 812.5,-137 1017.5,-137 1017.5,-115 812.5,-115"/>
<image xlink:href="../../images/foreignKeys.png" width="11px" height="12px" preserveAspectRatio="xMinYMin meet" x="817.5" y="-132"/>
<text text-anchor="start" x="843.5" y="-123.2" font-family="Helvetica,sans-Serif" font-size="11.00">repository_id</text>
<polygon fill="#ffffff" stroke="none" points="812.5,-93 812.5,-115 1017.5,-115 1017.5,-93 812.5,-93"/>
<polygon fill="none" stroke="black" points="812.5,-93 812.5,-115 1017.5,-115 1017.5,-93 812.5,-93"/>
<image xlink:href="../../images/foreignKeys.png" width="11px" height="12px" preserveAspectRatio="xMinYMin meet" x="817.5" y="-110"/>
<text text-anchor="start" x="843.5" y="-101.2" font-family="Helvetica,sans-Serif" font-size="11.00">repository_version_id</text>
<polygon fill="#ffffff" stroke="none" points="812.5,-75 812.5,-93 895.5,-93 895.5,-75 812.5,-75"/>
<polygon fill="none" stroke="black" points="812.5,-75 812.5,-93 895.5,-93 895.5,-75 812.5,-75"/>
<text text-anchor="start" x="815.5" y="-81.2" font-family="Helvetica,sans-Serif" font-size="11.00">&lt; 3</text>
<polygon fill="#ffffff" stroke="none" points="895.5,-75 895.5,-93 974.5,-93 974.5,-75 895.5,-75"/>
<polygon fill="none" stroke="black" points="895.5,-75 895.5,-93 974.5,-93 974.5,-75 895.5,-75"/>
<text text-anchor="start" x="928.5" y="-81.2" font-family="Helvetica,sans-Serif" font-size="11.00">32 rows</text>
<polygon fill="#ffffff" stroke="none" points="974.5,-75 974.5,-93 1017.5,-93 1017.5,-75 974.5,-75"/>
<polygon fill="none" stroke="black" points="974.5,-75 974.5,-93 1017.5,-93 1017.5,-75 974.5,-75"/>
<text text-anchor="start" x="1007.5" y="-81.2" font-family="Helvetica,sans-Serif" font-size="11.00"> &#160;</text>
</a>
</g>
</g>
<!-- core_basedistribution -->
<g id="node2" class="node"><title>core_basedistribution</title>
<g id="a_node2"><a xlink:href="../../tables/core_basedistribution.html" xlink:title="core_basedistribution" target="_top">
<polygon fill="#ffffff" stroke="none" points="480,-194 480,-414 740,-414 740,-194 480,-194"/>
<polygon fill="#f5f5f5" stroke="none" points="482,-390 482,-412 738,-412 738,-390 482,-390"/>
<polygon fill="none" stroke="black" points="482,-390 482,-412 738,-412 738,-390 482,-390"/>
<text text-anchor="start" x="487" y="-399.2" font-family="Helvetica,sans-Serif" font-weight="bold" font-size="11.00">core_basedistribution</text>
<text text-anchor="start" x="699" y="-398.2" font-family="Helvetica,sans-Serif" font-size="11.00">[table]</text>
<polygon fill="none" stroke="black" points="482,-368 482,-390 633,-390 633,-368 482,-368"/>
<image xlink:href="../../images/primaryKeys.png" width="11px" height="12px" preserveAspectRatio="xMinYMin meet" x="487" y="-385"/>
<text text-anchor="start" x="502" y="-376.2" font-family="Helvetica,sans-Serif" font-size="11.00">pulp_id</text>
<polygon fill="none" stroke="black" points="633,-368 633,-390 738,-390 738,-368 633,-368"/>
<text text-anchor="start" x="636" y="-376.2" font-family="Helvetica,sans-Serif" font-size="11.00">uuid[2147483647]</text>
<polygon fill="none" stroke="black" points="482,-346 482,-368 633,-368 633,-346 482,-346"/>
<text text-anchor="start" x="502" y="-354.2" font-family="Helvetica,sans-Serif" font-size="11.00">pulp_created</text>
<polygon fill="none" stroke="black" points="633,-346 633,-368 738,-368 738,-346 633,-346"/>
<text text-anchor="start" x="636" y="-354.2" font-family="Helvetica,sans-Serif" font-size="11.00">timestamptz[35,6]</text>
<polygon fill="none" stroke="black" points="482,-324 482,-346 633,-346 633,-324 482,-324"/>
<text text-anchor="start" x="502" y="-332.2" font-family="Helvetica,sans-Serif" font-size="11.00">pulp_last_updated</text>
<polygon fill="none" stroke="black" points="633,-324 633,-346 738,-346 738,-324 633,-324"/>
<text text-anchor="start" x="636" y="-332.2" font-family="Helvetica,sans-Serif" font-size="11.00">timestamptz[35,6]</text>
<polygon fill="none" stroke="black" points="482,-302 482,-324 633,-324 633,-302 482,-302"/>
<text text-anchor="start" x="502" y="-310.2" font-family="Helvetica,sans-Serif" font-size="11.00">pulp_type</text>
<polygon fill="none" stroke="black" points="633,-302 633,-324 738,-324 738,-302 633,-302"/>
<text text-anchor="start" x="636" y="-310.2" font-family="Helvetica,sans-Serif" font-size="11.00">text[2147483647]</text>
<polygon fill="#ffffff" stroke="none" points="482,-280 482,-302 633,-302 633,-280 482,-280"/>
<polygon fill="none" stroke="black" points="482,-280 482,-302 633,-302 633,-280 482,-280"/>
<text text-anchor="start" x="502" y="-288.2" font-family="Helvetica,sans-Serif" font-size="11.00">name</text>
<polygon fill="none" stroke="black" points="633,-280 633,-302 738,-302 738,-280 633,-280"/>
<text text-anchor="start" x="636" y="-288.2" font-family="Helvetica,sans-Serif" font-size="11.00">text[2147483647]</text>
<polygon fill="#ffffff" stroke="none" points="482,-258 482,-280 633,-280 633,-258 482,-258"/>
<polygon fill="none" stroke="black" points="482,-258 482,-280 633,-280 633,-258 482,-258"/>
<text text-anchor="start" x="502" y="-266.2" font-family="Helvetica,sans-Serif" font-size="11.00">base_path</text>
<polygon fill="none" stroke="black" points="633,-258 633,-280 738,-280 738,-258 633,-258"/>
<text text-anchor="start" x="636" y="-266.2" font-family="Helvetica,sans-Serif" font-size="11.00">text[2147483647]</text>
<polygon fill="#ffffff" stroke="none" points="482,-236 482,-258 633,-258 633,-236 482,-236"/>
<polygon fill="none" stroke="black" points="482,-236 482,-258 633,-258 633,-236 482,-236"/>
<image xlink:href="../../images/foreignKeys.png" width="11px" height="12px" preserveAspectRatio="xMinYMin meet" x="487" y="-253"/>
<text text-anchor="start" x="502" y="-244.2" font-family="Helvetica,sans-Serif" font-size="11.00">content_guard_id</text>
<polygon fill="none" stroke="black" points="633,-236 633,-258 738,-258 738,-236 633,-236"/>
<text text-anchor="start" x="636" y="-244.2" font-family="Helvetica,sans-Serif" font-size="11.00">uuid[2147483647]</text>
<polygon fill="#ffffff" stroke="none" points="482,-214 482,-236 633,-236 633,-214 482,-214"/>
<polygon fill="none" stroke="black" points="482,-214 482,-236 633,-236 633,-214 482,-214"/>
<image xlink:href="../../images/foreignKeys.png" width="11px" height="12px" preserveAspectRatio="xMinYMin meet" x="487" y="-231"/>
<text text-anchor="start" x="502" y="-222.2" font-family="Helvetica,sans-Serif" font-size="11.00">remote_id</text>
<polygon fill="none" stroke="black" points="633,-214 633,-236 738,-236 738,-214 633,-214"/>
<text text-anchor="start" x="636" y="-222.2" font-family="Helvetica,sans-Serif" font-size="11.00">uuid[2147483647]</text>
<polygon fill="#ffffff" stroke="none" points="482,-196 482,-214 544,-214 544,-196 482,-196"/>
<polygon fill="none" stroke="black" points="482,-196 482,-214 544,-214 544,-196 482,-196"/>
<text text-anchor="start" x="485" y="-202.2" font-family="Helvetica,sans-Serif" font-size="11.00">&lt; 2</text>
<polygon fill="#ffffff" stroke="none" points="544,-196 544,-214 633,-214 633,-196 544,-196"/>
<polygon fill="none" stroke="black" points="544,-196 544,-214 633,-214 633,-196 544,-196"/>
<text text-anchor="start" x="587" y="-202.2" font-family="Helvetica,sans-Serif" font-size="11.00">32 rows</text>
<polygon fill="#ffffff" stroke="none" points="633,-196 633,-214 738,-214 738,-196 633,-196"/>
<polygon fill="none" stroke="black" points="633,-196 633,-214 738,-214 738,-196 633,-196"/>
<text text-anchor="start" x="718" y="-202.2" font-family="Helvetica,sans-Serif" font-size="11.00">2 &gt;</text>
<polygon fill="none" stroke="black" stroke-width="2" points="481,-195 481,-413 739,-413 739,-195 481,-195"/>
</a>
</g>
</g>
<!-- ansible_ansibledistribution&#45;&gt;core_basedistribution -->
<g id="edge1" class="edge"><title>ansible_ansibledistribution:basedistribution_ptr_id:w&#45;&gt;core_basedistribution:pulp_id.type:e</title>
<path fill="none" stroke="black" d="M801.057,-148.836C713.62,-163.957 842.821,-379 739,-379"/>
<polygon fill="black" stroke="black" points="810.383,-144.077 811.022,-152.051 809.427,-152.179 808.788,-144.204 810.383,-144.077"/>
<polyline fill="none" stroke="black" points="811.5,-148 807.513,-148.319 "/>
<ellipse fill="none" stroke="black" cx="804.323" cy="-148.575" rx="3.2" ry="3.2"/>
</g>
<!-- core_repository -->
<g id="node3" class="node"><title>core_repository</title>
<g id="a_node3"><a xlink:href="../../tables/core_repository.html" xlink:title="core_repository" target="_top">
<polygon fill="#ffffff" stroke="none" points="250.5,-116 250.5,-174 387.5,-174 387.5,-116 250.5,-116"/>
<polygon fill="#f5f5f5" stroke="none" points="251,-152 251,-174 388,-174 388,-152 251,-152"/>
<polygon fill="none" stroke="black" points="251,-152 251,-174 388,-174 388,-152 251,-152"/>
<text text-anchor="start" x="256" y="-161.2" font-family="Helvetica,sans-Serif" font-weight="bold" font-size="11.00">core_repository</text>
<text text-anchor="start" x="349" y="-160.2" font-family="Helvetica,sans-Serif" font-size="11.00">[table]</text>
<polygon fill="none" stroke="black" points="251,-134 251,-152 388,-152 388,-134 251,-134"/>
<text text-anchor="start" x="254" y="-140.2" font-family="Helvetica,sans-Serif" font-size="11.00">...</text>
<polygon fill="#ffffff" stroke="none" points="251,-116 251,-134 291,-134 291,-116 251,-116"/>
<polygon fill="none" stroke="black" points="251,-116 251,-134 291,-134 291,-116 251,-116"/>
<text text-anchor="start" x="254" y="-122.2" font-family="Helvetica,sans-Serif" font-size="11.00">&lt; 1</text>
<polygon fill="#ffffff" stroke="none" points="291,-116 291,-134 349,-134 349,-116 291,-116"/>
<polygon fill="none" stroke="black" points="291,-116 291,-134 349,-134 349,-116 291,-116"/>
<text text-anchor="start" x="303" y="-122.2" font-family="Helvetica,sans-Serif" font-size="11.00">26 rows</text>
<polygon fill="#ffffff" stroke="none" points="349,-116 349,-134 388,-134 388,-116 349,-116"/>
<polygon fill="none" stroke="black" points="349,-116 349,-134 388,-134 388,-116 349,-116"/>
<text text-anchor="start" x="361" y="-122.2" font-family="Helvetica,sans-Serif" font-size="11.00">10 &gt;</text>
</a>
</g>
</g>
<!-- ansible_ansibledistribution&#45;&gt;core_repository -->
<g id="edge2" class="edge"><title>ansible_ansibledistribution:repository_id:w&#45;&gt;core_repository:elipses:e</title>
<path fill="none" stroke="black" d="M796.981,-126.275C783.424,-126.837 775.553,-128.137 757,-129 593.503,-136.609 552.674,-143 389,-143"/>
<polygon fill="black" stroke="black" points="803.501,-126.151 811.568,-129.599 807.501,-126.076 811.5,-126 811.5,-126 811.5,-126 807.501,-126.076 811.432,-122.401 803.501,-126.151 803.501,-126.151"/>
<ellipse fill="none" stroke="black" cx="800.302" cy="-126.212" rx="3.2" ry="3.2"/>
</g>
<!-- core_repositoryversion -->
<g id="node4" class="node"><title>core_repositoryversion</title>
<g id="a_node4"><a xlink:href="../../tables/core_repositoryversion.html" xlink:title="core_repositoryversion" target="_top">
<polygon fill="#ffffff" stroke="none" points="520.5,-61 520.5,-119 699.5,-119 699.5,-61 520.5,-61"/>
<polygon fill="#f5f5f5" stroke="none" points="521,-97 521,-119 700,-119 700,-97 521,-97"/>
<polygon fill="none" stroke="black" points="521,-97 521,-119 700,-119 700,-97 521,-97"/>
<text text-anchor="start" x="526" y="-106.2" font-family="Helvetica,sans-Serif" font-weight="bold" font-size="11.00">core_repositoryversion</text>
<text text-anchor="start" x="661" y="-105.2" font-family="Helvetica,sans-Serif" font-size="11.00">[table]</text>
<polygon fill="none" stroke="black" points="521,-79 521,-97 700,-97 700,-79 521,-79"/>
<text text-anchor="start" x="524" y="-85.2" font-family="Helvetica,sans-Serif" font-size="11.00">...</text>
<polygon fill="#ffffff" stroke="none" points="521,-61 521,-79 583,-79 583,-61 521,-61"/>
<polygon fill="none" stroke="black" points="521,-61 521,-79 583,-79 583,-61 521,-61"/>
<text text-anchor="start" x="524" y="-67.2" font-family="Helvetica,sans-Serif" font-size="11.00">&lt; 2</text>
<polygon fill="#ffffff" stroke="none" points="583,-61 583,-79 657,-79 657,-61 583,-61"/>
<polygon fill="none" stroke="black" points="583,-61 583,-79 657,-79 657,-61 583,-61"/>
<text text-anchor="start" x="605" y="-67.2" font-family="Helvetica,sans-Serif" font-size="11.00">162 rows</text>
<polygon fill="#ffffff" stroke="none" points="657,-61 657,-79 700,-79 700,-61 657,-61"/>
<polygon fill="none" stroke="black" points="657,-61 657,-79 700,-79 700,-61 657,-61"/>
<text text-anchor="start" x="680" y="-67.2" font-family="Helvetica,sans-Serif" font-size="11.00">7 &gt;</text>
</a>
</g>
</g>
<!-- ansible_ansibledistribution&#45;&gt;core_repositoryversion -->
<g id="edge3" class="edge"><title>ansible_ansibledistribution:repository_version_id:w&#45;&gt;core_repositoryversion:elipses:e</title>
<path fill="none" stroke="black" d="M796.989,-103.504C759.076,-100.803 745.39,-88 701,-88"/>
<polygon fill="black" stroke="black" points="803.505,-103.726 811.377,-107.598 807.502,-103.863 811.5,-104 811.5,-104 811.5,-104 807.502,-103.863 811.623,-100.402 803.505,-103.726 803.505,-103.726"/>
<ellipse fill="none" stroke="black" cx="800.307" cy="-103.617" rx="3.2" ry="3.2"/>
</g>
<!-- core_remote -->
<g id="node6" class="node"><title>core_remote</title>
<g id="a_node6"><a xlink:href="../../tables/core_remote.html" xlink:title="core_remote" target="_top">
<polygon fill="#ffffff" stroke="none" points="8,-154 8,-256 167,-256 167,-154 8,-154"/>
<polygon fill="#f5f5f5" stroke="none" points="8.5,-234 8.5,-256 167.5,-256 167.5,-234 8.5,-234"/>
<polygon fill="none" stroke="black" points="8.5,-234 8.5,-256 167.5,-256 167.5,-234 8.5,-234"/>
<text text-anchor="start" x="13.5" y="-243.2" font-family="Helvetica,sans-Serif" font-weight="bold" font-size="11.00">core_remote</text>
<text text-anchor="start" x="128.5" y="-242.2" font-family="Helvetica,sans-Serif" font-size="11.00">[table]</text>
<polygon fill="none" stroke="black" points="8.5,-212 8.5,-234 167.5,-234 167.5,-212 8.5,-212"/>
<image xlink:href="../../images/primaryKeys.png" width="11px" height="12px" preserveAspectRatio="xMinYMin meet" x="13.5" y="-229"/>
<text text-anchor="start" x="28.5" y="-220.2" font-family="Helvetica,sans-Serif" font-size="11.00">pulp_id</text>
<polygon fill="#ffffff" stroke="none" points="8.5,-190 8.5,-212 167.5,-212 167.5,-190 8.5,-190"/>
<polygon fill="none" stroke="black" points="8.5,-190 8.5,-212 167.5,-212 167.5,-190 8.5,-190"/>
<text text-anchor="start" x="28.5" y="-198.2" font-family="Helvetica,sans-Serif" font-size="11.00">name</text>
<polygon fill="none" stroke="black" points="8.5,-172 8.5,-190 167.5,-190 167.5,-172 8.5,-172"/>
<text text-anchor="start" x="11.5" y="-178.2" font-family="Helvetica,sans-Serif" font-size="11.00">...</text>
<polygon fill="#ffffff" stroke="none" points="8.5,-154 8.5,-172 61.5,-172 61.5,-154 8.5,-154"/>
<polygon fill="none" stroke="black" points="8.5,-154 8.5,-172 61.5,-172 61.5,-154 8.5,-154"/>
<text text-anchor="start" x="11.5" y="-160.2" font-family="Helvetica,sans-Serif" font-size="11.00"> &#160;</text>
<polygon fill="#ffffff" stroke="none" points="61.5,-154 61.5,-172 123.5,-172 123.5,-154 61.5,-154"/>
<polygon fill="none" stroke="black" points="61.5,-154 61.5,-172 123.5,-172 123.5,-154 61.5,-154"/>
<text text-anchor="start" x="84.5" y="-160.2" font-family="Helvetica,sans-Serif" font-size="11.00">7 rows</text>
<polygon fill="#ffffff" stroke="none" points="123.5,-154 123.5,-172 167.5,-172 167.5,-154 123.5,-154"/>
<polygon fill="none" stroke="black" points="123.5,-154 123.5,-172 167.5,-172 167.5,-154 123.5,-154"/>
<text text-anchor="start" x="147.5" y="-160.2" font-family="Helvetica,sans-Serif" font-size="11.00">6 &gt;</text>
</a>
</g>
</g>
<!-- core_basedistribution&#45;&gt;core_remote -->
<g id="edge12" class="edge"><title>core_basedistribution:remote_id:w&#45;&gt;core_remote:pulp_id:e</title>
<path fill="none" stroke="black" d="M466.427,-223.378C454.233,-220.404 447.407,-214.184 430,-212 332.101,-199.719 305.758,-198.642 208,-212 189.944,-214.467 186.724,-223 168.5,-223"/>
<polygon fill="black" stroke="black" points="473.049,-224.115 480.602,-228.578 477.025,-224.558 481,-225 481,-225 481,-225 477.025,-224.558 481.398,-221.422 473.049,-224.115 473.049,-224.115"/>
<ellipse fill="none" stroke="black" cx="469.869" cy="-223.761" rx="3.2" ry="3.2"/>
</g>
<!-- core_contentguard -->
<g id="node11" class="node"><title>core_contentguard</title>
<g id="a_node11"><a xlink:href="../../tables/core_contentguard.html" xlink:title="core_contentguard" target="_top">
<polygon fill="#ffffff" stroke="none" points="241,-459 241,-561 397,-561 397,-459 241,-459"/>
<polygon fill="#f5f5f5" stroke="none" points="241,-539 241,-561 397,-561 397,-539 241,-539"/>
<polygon fill="none" stroke="black" points="241,-539 241,-561 397,-561 397,-539 241,-539"/>
<text text-anchor="start" x="246" y="-548.2" font-family="Helvetica,sans-Serif" font-weight="bold" font-size="11.00">core_contentguard</text>
<text text-anchor="start" x="358" y="-547.2" font-family="Helvetica,sans-Serif" font-size="11.00">[table]</text>
<polygon fill="none" stroke="black" points="241,-517 241,-539 397,-539 397,-517 241,-517"/>
<image xlink:href="../../images/primaryKeys.png" width="11px" height="12px" preserveAspectRatio="xMinYMin meet" x="246" y="-534"/>
<text text-anchor="start" x="273" y="-525.2" font-family="Helvetica,sans-Serif" font-size="11.00">pulp_id</text>
<polygon fill="#ffffff" stroke="none" points="241,-495 241,-517 397,-517 397,-495 241,-495"/>
<polygon fill="none" stroke="black" points="241,-495 241,-517 397,-517 397,-495 241,-495"/>
<text text-anchor="start" x="273" y="-503.2" font-family="Helvetica,sans-Serif" font-size="11.00">name</text>
<polygon fill="none" stroke="black" points="241,-477 241,-495 397,-495 397,-477 241,-477"/>
<text text-anchor="start" x="244" y="-483.2" font-family="Helvetica,sans-Serif" font-size="11.00">...</text>
<polygon fill="#ffffff" stroke="none" points="241,-459 241,-477 293,-477 293,-459 241,-459"/>
<polygon fill="none" stroke="black" points="241,-459 241,-477 293,-477 293,-459 241,-459"/>
<text text-anchor="start" x="244" y="-465.2" font-family="Helvetica,sans-Serif" font-size="11.00"> &#160;</text>
<polygon fill="#ffffff" stroke="none" points="293,-459 293,-477 354,-477 354,-459 293,-459"/>
<polygon fill="none" stroke="black" points="293,-459 293,-477 354,-477 354,-459 293,-459"/>
<text text-anchor="start" x="315" y="-465.2" font-family="Helvetica,sans-Serif" font-size="11.00">0 rows</text>
<polygon fill="#ffffff" stroke="none" points="354,-459 354,-477 397,-477 397,-459 354,-459"/>
<polygon fill="none" stroke="black" points="354,-459 354,-477 397,-477 397,-459 354,-459"/>
<text text-anchor="start" x="377" y="-465.2" font-family="Helvetica,sans-Serif" font-size="11.00">2 &gt;</text>
</a>
</g>
</g>
<!-- core_basedistribution&#45;&gt;core_contentguard -->
<g id="edge11" class="edge"><title>core_basedistribution:content_guard_id:w&#45;&gt;core_contentguard:pulp_id:e</title>
<path fill="none" stroke="black" d="M466.487,-248.379C364.816,-269.578 522.882,-528 398,-528"/>
<polygon fill="black" stroke="black" points="473.036,-247.757 481.341,-250.584 477.018,-247.378 481,-247 481,-247 481,-247 477.018,-247.378 480.659,-243.416 473.036,-247.757 473.036,-247.757"/>
<ellipse fill="none" stroke="black" cx="469.85" cy="-248.06" rx="3.2" ry="3.2"/>
</g>
<!-- core_repository&#45;&gt;core_remote -->
<g id="edge14" class="edge"><title>core_repository:elipses:w&#45;&gt;core_remote:pulp_id:e</title>
<path fill="none" stroke="black" d="M235.7,-145.662C202.775,-159.543 213.705,-223 168.5,-223"/>
<polygon fill="black" stroke="black" points="242.135,-144.464 250.659,-146.539 246.068,-143.732 250,-143 250,-143 250,-143 246.068,-143.732 249.341,-139.461 242.135,-144.464 242.135,-144.464"/>
<ellipse fill="none" stroke="black" cx="238.989" cy="-145.05" rx="3.2" ry="3.2"/>
</g>
<!-- core_repositoryversion&#45;&gt;core_repository -->
<g id="edge15" class="edge"><title>core_repositoryversion:elipses:w&#45;&gt;core_repository:elipses:e</title>
<path fill="none" stroke="black" d="M505.575,-89.0496C455.689,-96.6533 446.966,-143 389,-143"/>
<polygon fill="black" stroke="black" points="512.021,-88.5806 520.261,-91.5905 516.011,-88.2903 520,-88 520,-88 520,-88 516.011,-88.2903 519.739,-84.4095 512.021,-88.5806 512.021,-88.5806"/>
<ellipse fill="none" stroke="black" cx="508.83" cy="-88.8129" rx="3.2" ry="3.2"/>
</g>
<!-- ansible_collectionremote -->
<g id="node5" class="node"><title>ansible_collectionremote</title>
<g id="a_node5"><a xlink:href="../../tables/ansible_collectionremote.html" xlink:title="ansible_collectionremote" target="_top">
<polygon fill="#ffffff" stroke="none" points="222.5,-37 222.5,-95 415.5,-95 415.5,-37 222.5,-37"/>
<polygon fill="#f5f5f5" stroke="none" points="223,-73 223,-95 416,-95 416,-73 223,-73"/>
<polygon fill="none" stroke="black" points="223,-73 223,-95 416,-95 416,-73 223,-73"/>
<text text-anchor="start" x="228" y="-82.2" font-family="Helvetica,sans-Serif" font-weight="bold" font-size="11.00">ansible_collectionremote</text>
<text text-anchor="start" x="377" y="-81.2" font-family="Helvetica,sans-Serif" font-size="11.00">[table]</text>
<polygon fill="none" stroke="black" points="223,-55 223,-73 416,-73 416,-55 223,-55"/>
<text text-anchor="start" x="226" y="-61.2" font-family="Helvetica,sans-Serif" font-size="11.00">...</text>
<polygon fill="#ffffff" stroke="none" points="223,-37 223,-55 303,-55 303,-37 223,-37"/>
<polygon fill="none" stroke="black" points="223,-37 223,-55 303,-55 303,-37 223,-37"/>
<text text-anchor="start" x="226" y="-43.2" font-family="Helvetica,sans-Serif" font-size="11.00">&lt; 1</text>
<polygon fill="#ffffff" stroke="none" points="303,-37 303,-55 374,-55 374,-37 303,-37"/>
<polygon fill="none" stroke="black" points="303,-37 303,-55 374,-55 374,-37 303,-37"/>
<text text-anchor="start" x="335" y="-43.2" font-family="Helvetica,sans-Serif" font-size="11.00">7 rows</text>
<polygon fill="#ffffff" stroke="none" points="374,-37 374,-55 416,-55 416,-37 374,-37"/>
<polygon fill="none" stroke="black" points="374,-37 374,-55 416,-55 416,-37 374,-37"/>
<text text-anchor="start" x="406" y="-43.2" font-family="Helvetica,sans-Serif" font-size="11.00"> &#160;</text>
</a>
</g>
</g>
<!-- ansible_collectionremote&#45;&gt;core_remote -->
<g id="edge4" class="edge"><title>ansible_collectionremote:elipses:w&#45;&gt;core_remote:pulp_id:e</title>
<path fill="none" stroke="black" d="M211.574,-65.2799C157.052,-80.3274 239.128,-223 168.5,-223"/>
<polygon fill="black" stroke="black" points="220.719,-60.1273 221.693,-68.0677 220.105,-68.2626 219.13,-60.3223 220.719,-60.1273"/>
<polyline fill="none" stroke="black" points="222,-64 218.03,-64.4874 "/>
<ellipse fill="none" stroke="black" cx="214.854" cy="-64.8773" rx="3.2" ry="3.2"/>
</g>
<!-- ansible_roleremote -->
<g id="node7" class="node"><title>ansible_roleremote</title>
<g id="a_node7"><a xlink:href="../../tables/ansible_roleremote.html" xlink:title="ansible_roleremote" target="_top">
<polygon fill="#ffffff" stroke="none" points="239.5,-380 239.5,-438 398.5,-438 398.5,-380 239.5,-380"/>
<polygon fill="#f5f5f5" stroke="none" points="240,-416 240,-438 399,-438 399,-416 240,-416"/>
<polygon fill="none" stroke="black" points="240,-416 240,-438 399,-438 399,-416 240,-416"/>
<text text-anchor="start" x="245" y="-425.2" font-family="Helvetica,sans-Serif" font-weight="bold" font-size="11.00">ansible_roleremote</text>
<text text-anchor="start" x="360" y="-424.2" font-family="Helvetica,sans-Serif" font-size="11.00">[table]</text>
<polygon fill="none" stroke="black" points="240,-398 240,-416 399,-416 399,-398 240,-398"/>
<text text-anchor="start" x="243" y="-404.2" font-family="Helvetica,sans-Serif" font-size="11.00">...</text>
<polygon fill="#ffffff" stroke="none" points="240,-380 240,-398 303,-398 303,-380 240,-380"/>
<polygon fill="none" stroke="black" points="240,-380 240,-398 303,-398 303,-380 240,-380"/>
<text text-anchor="start" x="243" y="-386.2" font-family="Helvetica,sans-Serif" font-size="11.00">&lt; 1</text>
<polygon fill="#ffffff" stroke="none" points="303,-380 303,-398 365,-398 365,-380 303,-380"/>
<polygon fill="none" stroke="black" points="303,-380 303,-398 365,-398 365,-380 303,-380"/>
<text text-anchor="start" x="326" y="-386.2" font-family="Helvetica,sans-Serif" font-size="11.00">0 rows</text>
<polygon fill="#ffffff" stroke="none" points="365,-380 365,-398 399,-398 399,-380 365,-380"/>
<polygon fill="none" stroke="black" points="365,-380 365,-398 399,-398 399,-380 365,-380"/>
<text text-anchor="start" x="389" y="-386.2" font-family="Helvetica,sans-Serif" font-size="11.00"> &#160;</text>
</a>
</g>
</g>
<!-- ansible_roleremote&#45;&gt;core_remote -->
<g id="edge5" class="edge"><title>ansible_roleremote:elipses:w&#45;&gt;core_remote:pulp_id:e</title>
<path fill="none" stroke="black" d="M228.327,-405.919C160.439,-390.84 252.141,-223 168.5,-223"/>
<polygon fill="black" stroke="black" points="238.607,-402.94 237.801,-410.899 236.209,-410.738 237.015,-402.779 238.607,-402.94"/>
<polyline fill="none" stroke="black" points="239,-407 235.02,-406.597 "/>
<ellipse fill="none" stroke="black" cx="231.837" cy="-406.275" rx="3.2" ry="3.2"/>
</g>
<!-- container_containerdistribution -->
<g id="node8" class="node"><title>container_containerdistribution</title>
<g id="a_node8"><a xlink:href="../../tables/container_containerdistribution.html" xlink:title="container_containerdistribution" target="_top">
<polygon fill="#ffffff" stroke="none" points="798,-202 798,-308 1031,-308 1031,-202 798,-202"/>
<polygon fill="#f5f5f5" stroke="none" points="798.5,-286 798.5,-308 1031.5,-308 1031.5,-286 798.5,-286"/>
<polygon fill="none" stroke="black" points="798.5,-286 798.5,-308 1031.5,-308 1031.5,-286 798.5,-286"/>
<text text-anchor="start" x="803.5" y="-295.2" font-family="Helvetica,sans-Serif" font-weight="bold" font-size="11.00">container_containerdistribution</text>
<text text-anchor="start" x="992.5" y="-294.2" font-family="Helvetica,sans-Serif" font-size="11.00">[table]</text>
<polygon fill="none" stroke="black" points="798.5,-264 798.5,-286 1031.5,-286 1031.5,-264 798.5,-264"/>
<image xlink:href="../../images/primaryKeys.png" width="11px" height="12px" preserveAspectRatio="xMinYMin meet" x="803.5" y="-281"/>
<text text-anchor="start" x="828.5" y="-272.2" font-family="Helvetica,sans-Serif" font-size="11.00">basedistribution_ptr_id</text>
<polygon fill="#ffffff" stroke="none" points="798.5,-242 798.5,-264 1031.5,-264 1031.5,-242 798.5,-242"/>
<polygon fill="none" stroke="black" points="798.5,-242 798.5,-264 1031.5,-264 1031.5,-242 798.5,-242"/>
<image xlink:href="../../images/foreignKeys.png" width="11px" height="12px" preserveAspectRatio="xMinYMin meet" x="803.5" y="-259"/>
<text text-anchor="start" x="828.5" y="-250.2" font-family="Helvetica,sans-Serif" font-size="11.00">repository_id</text>
<polygon fill="#ffffff" stroke="none" points="798.5,-220 798.5,-242 1031.5,-242 1031.5,-220 798.5,-220"/>
<polygon fill="none" stroke="black" points="798.5,-220 798.5,-242 1031.5,-242 1031.5,-220 798.5,-220"/>
<image xlink:href="../../images/foreignKeys.png" width="11px" height="12px" preserveAspectRatio="xMinYMin meet" x="803.5" y="-237"/>
<text text-anchor="start" x="828.5" y="-228.2" font-family="Helvetica,sans-Serif" font-size="11.00">repository_version_id</text>
<polygon fill="#ffffff" stroke="none" points="798.5,-202 798.5,-220 898.5,-220 898.5,-202 798.5,-202"/>
<polygon fill="none" stroke="black" points="798.5,-202 798.5,-220 898.5,-220 898.5,-202 798.5,-202"/>
<text text-anchor="start" x="801.5" y="-208.2" font-family="Helvetica,sans-Serif" font-size="11.00">&lt; 3</text>
<polygon fill="#ffffff" stroke="none" points="898.5,-202 898.5,-220 979.5,-220 979.5,-202 898.5,-202"/>
<polygon fill="none" stroke="black" points="898.5,-202 898.5,-220 979.5,-220 979.5,-202 898.5,-202"/>
<text text-anchor="start" x="940.5" y="-208.2" font-family="Helvetica,sans-Serif" font-size="11.00">0 rows</text>
<polygon fill="#ffffff" stroke="none" points="979.5,-202 979.5,-220 1031.5,-220 1031.5,-202 979.5,-202"/>
<polygon fill="none" stroke="black" points="979.5,-202 979.5,-220 1031.5,-220 1031.5,-202 979.5,-202"/>
<text text-anchor="start" x="1021.5" y="-208.2" font-family="Helvetica,sans-Serif" font-size="11.00"> &#160;</text>
</a>
</g>
</g>
<!-- container_containerdistribution&#45;&gt;core_basedistribution -->
<g id="edge6" class="edge"><title>container_containerdistribution:basedistribution_ptr_id:w&#45;&gt;core_basedistribution:pulp_id.type:e</title>
<path fill="none" stroke="black" d="M786.816,-276.805C751.285,-290.615 787.89,-379 739,-379"/>
<polygon fill="black" stroke="black" points="796.045,-271.189 797.378,-279.077 795.8,-279.344 794.467,-271.456 796.045,-271.189"/>
<polyline fill="none" stroke="black" points="797.5,-275 793.556,-275.666 "/>
<ellipse fill="none" stroke="black" cx="790.401" cy="-276.2" rx="3.2" ry="3.2"/>
</g>
<!-- container_containerdistribution&#45;&gt;core_repository -->
<g id="edge7" class="edge"><title>container_containerdistribution:repository_id:w&#45;&gt;core_repository:elipses:e</title>
<path fill="none" stroke="black" d="M783.519,-248.655C769.119,-236.136 781.471,-199.875 757,-184 722.485,-161.609 430.142,-143 389,-143"/>
<polygon fill="black" stroke="black" points="789.86,-250.626 796.432,-256.438 793.68,-251.813 797.5,-253 797.5,-253 797.5,-253 793.68,-251.813 798.568,-249.562 789.86,-250.626 789.86,-250.626"/>
<ellipse fill="none" stroke="black" cx="786.805" cy="-249.676" rx="3.20001" ry="3.20001"/>
</g>
<!-- container_containerdistribution&#45;&gt;core_repositoryversion -->
<g id="edge8" class="edge"><title>container_containerdistribution:repository_version_id:w&#45;&gt;core_repositoryversion:elipses:e</title>
<path fill="none" stroke="black" d="M782.959,-227.645C765.612,-217.286 773.731,-185.003 757,-160 734.455,-126.308 741.54,-88 701,-88"/>
<polygon fill="black" stroke="black" points="789.705,-229.201 796.691,-234.508 793.602,-230.101 797.5,-231 797.5,-231 797.5,-231 793.602,-230.101 798.309,-227.492 789.705,-229.201 789.705,-229.201"/>
<ellipse fill="none" stroke="black" cx="786.587" cy="-228.482" rx="3.2" ry="3.2"/>
</g>
<!-- container_containerremote -->
<g id="node9" class="node"><title>container_containerremote</title>
<g id="a_node9"><a xlink:href="../../tables/container_containerremote.html" xlink:title="container_containerremote" target="_top">
<polygon fill="#ffffff" stroke="none" points="216,-301 216,-359 422,-359 422,-301 216,-301"/>
<polygon fill="#f5f5f5" stroke="none" points="216,-337 216,-359 422,-359 422,-337 216,-337"/>
<polygon fill="none" stroke="black" points="216,-337 216,-359 422,-359 422,-337 216,-337"/>
<text text-anchor="start" x="221" y="-346.2" font-family="Helvetica,sans-Serif" font-weight="bold" font-size="11.00">container_containerremote</text>
<text text-anchor="start" x="383" y="-345.2" font-family="Helvetica,sans-Serif" font-size="11.00">[table]</text>
<polygon fill="none" stroke="black" points="216,-319 216,-337 422,-337 422,-319 216,-319"/>
<text text-anchor="start" x="219" y="-325.2" font-family="Helvetica,sans-Serif" font-size="11.00">...</text>
<polygon fill="#ffffff" stroke="none" points="216,-301 216,-319 303,-319 303,-301 216,-301"/>
<polygon fill="none" stroke="black" points="216,-301 216,-319 303,-319 303,-301 216,-301"/>
<text text-anchor="start" x="219" y="-307.2" font-family="Helvetica,sans-Serif" font-size="11.00">&lt; 1</text>
<polygon fill="#ffffff" stroke="none" points="303,-301 303,-319 377,-319 377,-301 303,-301"/>
<polygon fill="none" stroke="black" points="303,-301 303,-319 377,-319 377,-301 303,-301"/>
<text text-anchor="start" x="338" y="-307.2" font-family="Helvetica,sans-Serif" font-size="11.00">0 rows</text>
<polygon fill="#ffffff" stroke="none" points="377,-301 377,-319 422,-319 422,-301 377,-301"/>
<polygon fill="none" stroke="black" points="377,-301 377,-319 422,-319 422,-301 377,-301"/>
<text text-anchor="start" x="412" y="-307.2" font-family="Helvetica,sans-Serif" font-size="11.00"> &#160;</text>
</a>
</g>
</g>
<!-- container_containerremote&#45;&gt;core_remote -->
<g id="edge9" class="edge"><title>container_containerremote:elipses:w&#45;&gt;core_remote:pulp_id:e</title>
<path fill="none" stroke="black" d="M204.474,-325.996C172.362,-311.48 215.351,-223 168.5,-223"/>
<polygon fill="black" stroke="black" points="214.962,-323.921 213.466,-331.78 211.894,-331.481 213.39,-323.622 214.962,-323.921"/>
<polyline fill="none" stroke="black" points="215,-328 211.071,-327.252 "/>
<ellipse fill="none" stroke="black" cx="207.927" cy="-326.653" rx="3.20001" ry="3.20001"/>
</g>
<!-- container_contentredirectcontentguard -->
<g id="node10" class="node"><title>container_contentredirectcontentguard</title>
<g id="a_node10"><a xlink:href="../../tables/container_contentredirectcontentguard.html" xlink:title="container_contentredirectcontentguard" target="_top">
<polygon fill="#ffffff" stroke="none" points="471,-501 471,-559 749,-559 749,-501 471,-501"/>
<polygon fill="#f5f5f5" stroke="none" points="471,-537 471,-559 749,-559 749,-537 471,-537"/>
<polygon fill="none" stroke="black" points="471,-537 471,-559 749,-559 749,-537 471,-537"/>
<text text-anchor="start" x="476" y="-546.2" font-family="Helvetica,sans-Serif" font-weight="bold" font-size="11.00">container_contentredirectcontentguard</text>
<text text-anchor="start" x="710" y="-545.2" font-family="Helvetica,sans-Serif" font-size="11.00">[table]</text>
<polygon fill="none" stroke="black" points="471,-519 471,-537 749,-537 749,-519 471,-519"/>
<text text-anchor="start" x="474" y="-525.2" font-family="Helvetica,sans-Serif" font-size="11.00">...</text>
<polygon fill="#ffffff" stroke="none" points="471,-501 471,-519 594,-519 594,-501 471,-501"/>
<polygon fill="none" stroke="black" points="471,-501 471,-519 594,-519 594,-501 471,-501"/>
<text text-anchor="start" x="474" y="-507.2" font-family="Helvetica,sans-Serif" font-size="11.00">&lt; 1</text>
<polygon fill="#ffffff" stroke="none" points="594,-501 594,-519 686,-519 686,-501 594,-501"/>
<polygon fill="none" stroke="black" points="594,-501 594,-519 686,-519 686,-501 594,-501"/>
<text text-anchor="start" x="647" y="-507.2" font-family="Helvetica,sans-Serif" font-size="11.00">0 rows</text>
<polygon fill="#ffffff" stroke="none" points="686,-501 686,-519 749,-519 749,-501 686,-501"/>
<polygon fill="none" stroke="black" points="686,-501 686,-519 749,-519 749,-501 686,-501"/>
<text text-anchor="start" x="739" y="-507.2" font-family="Helvetica,sans-Serif" font-size="11.00"> &#160;</text>
</a>
</g>
</g>
<!-- container_contentredirectcontentguard&#45;&gt;core_contentguard -->
<g id="edge10" class="edge"><title>container_contentredirectcontentguard:elipses:w&#45;&gt;core_contentguard:pulp_id:e</title>
<path fill="none" stroke="black" d="M459.346,-528C435.711,-528 426.125,-528 398,-528"/>
<polygon fill="black" stroke="black" points="469.2,-524 469.2,-532 467.6,-532 467.6,-524 469.2,-524"/>
<polyline fill="none" stroke="black" points="470,-528 466,-528 "/>
<ellipse fill="none" stroke="black" cx="462.8" cy="-528" rx="3.2" ry="3.2"/>
</g>
<!-- core_remoteartifact -->
<g id="node12" class="node"><title>core_remoteartifact</title>
<g id="a_node12"><a xlink:href="../../tables/core_remoteartifact.html" xlink:title="core_remoteartifact" target="_top">
<polygon fill="#ffffff" stroke="none" points="237.5,-222 237.5,-280 400.5,-280 400.5,-222 237.5,-222"/>
<polygon fill="#f5f5f5" stroke="none" points="238,-258 238,-280 401,-280 401,-258 238,-258"/>
<polygon fill="none" stroke="black" points="238,-258 238,-280 401,-280 401,-258 238,-258"/>
<text text-anchor="start" x="243" y="-267.2" font-family="Helvetica,sans-Serif" font-weight="bold" font-size="11.00">core_remoteartifact</text>
<text text-anchor="start" x="362" y="-266.2" font-family="Helvetica,sans-Serif" font-size="11.00">[table]</text>
<polygon fill="none" stroke="black" points="238,-240 238,-258 401,-258 401,-240 238,-240"/>
<text text-anchor="start" x="241" y="-246.2" font-family="Helvetica,sans-Serif" font-size="11.00">...</text>
<polygon fill="#ffffff" stroke="none" points="238,-222 238,-240 300,-240 300,-222 238,-222"/>
<polygon fill="none" stroke="black" points="238,-222 238,-240 300,-240 300,-222 238,-222"/>
<text text-anchor="start" x="241" y="-228.2" font-family="Helvetica,sans-Serif" font-size="11.00">&lt; 2</text>
<polygon fill="#ffffff" stroke="none" points="300,-222 300,-240 368,-240 368,-222 300,-222"/>
<polygon fill="none" stroke="black" points="300,-222 300,-240 368,-240 368,-222 300,-222"/>
<text text-anchor="start" x="322" y="-228.2" font-family="Helvetica,sans-Serif" font-size="11.00">16 rows</text>
<polygon fill="#ffffff" stroke="none" points="368,-222 368,-240 401,-240 401,-222 368,-222"/>
<polygon fill="none" stroke="black" points="368,-222 368,-240 401,-240 401,-222 368,-222"/>
<text text-anchor="start" x="391" y="-228.2" font-family="Helvetica,sans-Serif" font-size="11.00"> &#160;</text>
</a>
</g>
</g>
<!-- core_remoteartifact&#45;&gt;core_remote -->
<g id="edge13" class="edge"><title>core_remoteartifact:elipses:w&#45;&gt;core_remote:pulp_id:e</title>
<path fill="none" stroke="black" d="M222.5,-246.96C202.415,-240.831 195.467,-223 168.5,-223"/>
<polygon fill="black" stroke="black" points="229.078,-247.885 236.498,-252.565 233.039,-248.443 237,-249 237,-249 237,-249 233.039,-248.443 237.502,-245.435 229.078,-247.885 229.078,-247.885"/>
<ellipse fill="none" stroke="black" cx="225.909" cy="-247.439" rx="3.2" ry="3.2"/>
</g>
</g>
</svg>
