<?xml version="1.0" encoding="UTF-8" standalone="no"?>
<!DOCTYPE svg PUBLIC "-//W3C//DTD SVG 1.1//EN"
 "http://www.w3.org/Graphics/SVG/1.1/DTD/svg11.dtd">
<!-- Generated by graphviz version 2.38.0 (20140413.2041)
 -->
<!-- Title: oneDegreeRelationshipsDiagram Pages: 1 -->
<svg width="593pt" height="318pt"
 viewBox="0.00 0.00 593.00 318.00" xmlns="http://www.w3.org/2000/svg" xmlns:xlink="http://www.w3.org/1999/xlink">
<g id="graph0" class="graph" transform="scale(1 1) rotate(0) translate(4 314)">
<title>oneDegreeRelationshipsDiagram</title>
<polygon fill="#ffffff" stroke="none" points="-4,4 -4,-314 589,-314 589,4 -4,4"/>
<text text-anchor="middle" x="74.5" y="-7.2" font-family="Helvetica,sans-Serif" font-size="11.00">Generated by SchemaSpy</text>
<!-- container_contentredirectcontentguard -->
<g id="node1" class="node"><title>container_contentredirectcontentguard</title>
<g id="a_node1"><a xlink:href="../../tables/container_contentredirectcontentguard.html" xlink:title="container_contentredirectcontentguard" target="_top">
<polygon fill="#ffffff" stroke="none" points="299,-226 299,-306 577,-306 577,-226 299,-226"/>
<polygon fill="#f5f5f5" stroke="none" points="299,-284 299,-306 577,-306 577,-284 299,-284"/>
<polygon fill="none" stroke="black" points="299,-284 299,-306 577,-306 577,-284 299,-284"/>
<text text-anchor="start" x="304" y="-293.2" font-family="Helvetica,sans-Serif" font-weight="bold" font-size="11.00">container_contentredirectcontentguard</text>
<text text-anchor="start" x="538" y="-292.2" font-family="Helvetica,sans-Serif" font-size="11.00">[table]</text>
<polygon fill="none" stroke="black" points="299,-262 299,-284 577,-284 577,-262 299,-262"/>
<image xlink:href="../../images/primaryKeys.png" width="11px" height="12px" preserveAspectRatio="xMinYMin meet" x="304" y="-279"/>
<text text-anchor="start" x="328" y="-270.2" font-family="Helvetica,sans-Serif" font-size="11.00">contentguard_ptr_id</text>
<polygon fill="none" stroke="black" points="299,-244 299,-262 577,-262 577,-244 299,-244"/>
<text text-anchor="start" x="302" y="-250.2" font-family="Helvetica,sans-Serif" font-size="11.00">...</text>
<polygon fill="#ffffff" stroke="none" points="299,-226 299,-244 422,-244 422,-226 299,-226"/>
<polygon fill="none" stroke="black" points="299,-226 299,-244 422,-244 422,-226 299,-226"/>
<text text-anchor="start" x="302" y="-232.2" font-family="Helvetica,sans-Serif" font-size="11.00">&lt; 1</text>
<polygon fill="#ffffff" stroke="none" points="422,-226 422,-244 514,-244 514,-226 422,-226"/>
<polygon fill="none" stroke="black" points="422,-226 422,-244 514,-244 514,-226 422,-226"/>
<text text-anchor="start" x="475" y="-232.2" font-family="Helvetica,sans-Serif" font-size="11.00">0 rows</text>
<polygon fill="#ffffff" stroke="none" points="514,-226 514,-244 577,-244 577,-226 514,-226"/>
<polygon fill="none" stroke="black" points="514,-226 514,-244 577,-244 577,-226 514,-226"/>
<text text-anchor="start" x="567" y="-232.2" font-family="Helvetica,sans-Serif" font-size="11.00"> &#160;</text>
</a>
</g>
</g>
<!-- core_contentguard -->
<g id="node2" class="node"><title>core_contentguard</title>
<g id="a_node2"><a xlink:href="../../tables/core_contentguard.html" xlink:title="core_contentguard" target="_top">
<polygon fill="#ffffff" stroke="none" points="8,-48 8,-224 250,-224 250,-48 8,-48"/>
<polygon fill="#f5f5f5" stroke="none" points="10,-200 10,-222 248,-222 248,-200 10,-200"/>
<polygon fill="none" stroke="black" points="10,-200 10,-222 248,-222 248,-200 10,-200"/>
<text text-anchor="start" x="15" y="-209.2" font-family="Helvetica,sans-Serif" font-weight="bold" font-size="11.00">core_contentguard</text>
<text text-anchor="start" x="209" y="-208.2" font-family="Helvetica,sans-Serif" font-size="11.00">[table]</text>
<polygon fill="none" stroke="black" points="10,-178 10,-200 143,-200 143,-178 10,-178"/>
<image xlink:href="../../images/primaryKeys.png" width="11px" height="12px" preserveAspectRatio="xMinYMin meet" x="15" y="-195"/>
<text text-anchor="start" x="30" y="-186.2" font-family="Helvetica,sans-Serif" font-size="11.00">pulp_id</text>
<polygon fill="none" stroke="black" points="143,-178 143,-200 248,-200 248,-178 143,-178"/>
<text text-anchor="start" x="146" y="-186.2" font-family="Helvetica,sans-Serif" font-size="11.00">uuid[2147483647]</text>
<polygon fill="none" stroke="black" points="10,-156 10,-178 143,-178 143,-156 10,-156"/>
<text text-anchor="start" x="30" y="-164.2" font-family="Helvetica,sans-Serif" font-size="11.00">pulp_created</text>
<polygon fill="none" stroke="black" points="143,-156 143,-178 248,-178 248,-156 143,-156"/>
<text text-anchor="start" x="146" y="-164.2" font-family="Helvetica,sans-Serif" font-size="11.00">timestamptz[35,6]</text>
<polygon fill="none" stroke="black" points="10,-134 10,-156 143,-156 143,-134 10,-134"/>
<text text-anchor="start" x="30" y="-142.2" font-family="Helvetica,sans-Serif" font-size="11.00">pulp_last_updated</text>
<polygon fill="none" stroke="black" points="143,-134 143,-156 248,-156 248,-134 143,-134"/>
<text text-anchor="start" x="146" y="-142.2" font-family="Helvetica,sans-Serif" font-size="11.00">timestamptz[35,6]</text>
<polygon fill="none" stroke="black" points="10,-112 10,-134 143,-134 143,-112 10,-112"/>
<text text-anchor="start" x="30" y="-120.2" font-family="Helvetica,sans-Serif" font-size="11.00">pulp_type</text>
<polygon fill="none" stroke="black" points="143,-112 143,-134 248,-134 248,-112 143,-112"/>
<text text-anchor="start" x="146" y="-120.2" font-family="Helvetica,sans-Serif" font-size="11.00">text[2147483647]</text>
<polygon fill="#ffffff" stroke="none" points="10,-90 10,-112 143,-112 143,-90 10,-90"/>
<polygon fill="none" stroke="black" points="10,-90 10,-112 143,-112 143,-90 10,-90"/>
<text text-anchor="start" x="30" y="-98.2" font-family="Helvetica,sans-Serif" font-size="11.00">name</text>
<polygon fill="none" stroke="black" points="143,-90 143,-112 248,-112 248,-90 143,-90"/>
<text text-anchor="start" x="146" y="-98.2" font-family="Helvetica,sans-Serif" font-size="11.00">text[2147483647]</text>
<polygon fill="none" stroke="black" points="10,-68 10,-90 143,-90 143,-68 10,-68"/>
<text text-anchor="start" x="30" y="-76.2" font-family="Helvetica,sans-Serif" font-size="11.00">description</text>
<polygon fill="none" stroke="black" points="143,-68 143,-90 248,-90 248,-68 143,-68"/>
<text text-anchor="start" x="146" y="-76.2" font-family="Helvetica,sans-Serif" font-size="11.00">text[2147483647]</text>
<polygon fill="#ffffff" stroke="none" points="10,-50 10,-68 67,-68 67,-50 10,-50"/>
<polygon fill="none" stroke="black" points="10,-50 10,-68 67,-68 67,-50 10,-50"/>
<text text-anchor="start" x="13" y="-56.2" font-family="Helvetica,sans-Serif" font-size="11.00">&lt; 0</text>
<polygon fill="#ffffff" stroke="none" points="67,-50 67,-68 143,-68 143,-50 67,-50"/>
<polygon fill="none" stroke="black" points="67,-50 67,-68 143,-68 143,-50 67,-50"/>
<text text-anchor="start" x="104" y="-56.2" font-family="Helvetica,sans-Serif" font-size="11.00">0 rows</text>
<polygon fill="#ffffff" stroke="none" points="143,-50 143,-68 248,-68 248,-50 143,-50"/>
<polygon fill="none" stroke="black" points="143,-50 143,-68 248,-68 248,-50 143,-50"/>
<text text-anchor="start" x="228" y="-56.2" font-family="Helvetica,sans-Serif" font-size="11.00">2 &gt;</text>
<polygon fill="none" stroke="black" stroke-width="2" points="9,-49 9,-223 249,-223 249,-49 9,-49"/>
</a>
</g>
</g>
<!-- container_contentredirectcontentguard&#45;&gt;core_contentguard -->
<g id="edge1" class="edge"><title>container_contentredirectcontentguard:contentguard_ptr_id:w&#45;&gt;core_contentguard:pulp_id.type:e</title>
<path fill="none" stroke="black" d="M287.495,-270.753C261.323,-257.395 288,-189 249,-189"/>
<polygon fill="black" stroke="black" points="298.054,-268.921 296.381,-276.744 294.816,-276.41 296.49,-268.586 298.054,-268.921"/>
<polyline fill="none" stroke="black" points="298,-273 294.088,-272.163 "/>
<ellipse fill="none" stroke="black" cx="290.959" cy="-271.494" rx="3.20001" ry="3.20001"/>
</g>
<!-- core_basedistribution -->
<g id="node3" class="node"><title>core_basedistribution</title>
<g id="a_node3"><a xlink:href="../../tables/core_basedistribution.html" xlink:title="core_basedistribution" target="_top">
<polygon fill="#ffffff" stroke="none" points="351.5,-37 351.5,-205 524.5,-205 524.5,-37 351.5,-37"/>
<polygon fill="#f5f5f5" stroke="none" points="352,-183 352,-205 525,-205 525,-183 352,-183"/>
<polygon fill="none" stroke="black" points="352,-183 352,-205 525,-205 525,-183 352,-183"/>
<text text-anchor="start" x="357" y="-192.2" font-family="Helvetica,sans-Serif" font-weight="bold" font-size="11.00">core_basedistribution</text>
<text text-anchor="start" x="486" y="-191.2" font-family="Helvetica,sans-Serif" font-size="11.00">[table]</text>
<polygon fill="none" stroke="black" points="352,-161 352,-183 525,-183 525,-161 352,-161"/>
<image xlink:href="../../images/primaryKeys.png" width="11px" height="12px" preserveAspectRatio="xMinYMin meet" x="357" y="-178"/>
<text text-anchor="start" x="383" y="-169.2" font-family="Helvetica,sans-Serif" font-size="11.00">pulp_id</text>
<polygon fill="#ffffff" stroke="none" points="352,-139 352,-161 525,-161 525,-139 352,-139"/>
<polygon fill="none" stroke="black" points="352,-139 352,-161 525,-161 525,-139 352,-139"/>
<text text-anchor="start" x="383" y="-147.2" font-family="Helvetica,sans-Serif" font-size="11.00">name</text>
<polygon fill="#ffffff" stroke="none" points="352,-117 352,-139 525,-139 525,-117 352,-117"/>
<polygon fill="none" stroke="black" points="352,-117 352,-139 525,-139 525,-117 352,-117"/>
<text text-anchor="start" x="383" y="-125.2" font-family="Helvetica,sans-Serif" font-size="11.00">base_path</text>
<polygon fill="#ffffff" stroke="none" points="352,-95 352,-117 525,-117 525,-95 352,-95"/>
<polygon fill="none" stroke="black" points="352,-95 352,-117 525,-117 525,-95 352,-95"/>
<image xlink:href="../../images/foreignKeys.png" width="11px" height="12px" preserveAspectRatio="xMinYMin meet" x="357" y="-112"/>
<text text-anchor="start" x="383" y="-103.2" font-family="Helvetica,sans-Serif" font-size="11.00">content_guard_id</text>
<polygon fill="#ffffff" stroke="none" points="352,-73 352,-95 525,-95 525,-73 352,-73"/>
<polygon fill="none" stroke="black" points="352,-73 352,-95 525,-95 525,-73 352,-73"/>
<image xlink:href="../../images/foreignKeys.png" width="11px" height="12px" preserveAspectRatio="xMinYMin meet" x="357" y="-90"/>
<text text-anchor="start" x="383" y="-81.2" font-family="Helvetica,sans-Serif" font-size="11.00">remote_id</text>
<polygon fill="none" stroke="black" points="352,-55 352,-73 525,-73 525,-55 352,-55"/>
<text text-anchor="start" x="355" y="-61.2" font-family="Helvetica,sans-Serif" font-size="11.00">...</text>
<polygon fill="#ffffff" stroke="none" points="352,-37 352,-55 414,-55 414,-37 352,-37"/>
<polygon fill="none" stroke="black" points="352,-37 352,-55 414,-55 414,-37 352,-37"/>
<text text-anchor="start" x="355" y="-43.2" font-family="Helvetica,sans-Serif" font-size="11.00">&lt; 2</text>
<polygon fill="#ffffff" stroke="none" points="414,-37 414,-55 482,-55 482,-37 414,-37"/>
<polygon fill="none" stroke="black" points="414,-37 414,-55 482,-55 482,-37 414,-37"/>
<text text-anchor="start" x="436" y="-43.2" font-family="Helvetica,sans-Serif" font-size="11.00">32 rows</text>
<polygon fill="#ffffff" stroke="none" points="482,-37 482,-55 525,-55 525,-37 482,-37"/>
<polygon fill="none" stroke="black" points="482,-37 482,-55 525,-55 525,-37 482,-37"/>
<text text-anchor="start" x="505" y="-43.2" font-family="Helvetica,sans-Serif" font-size="11.00">2 &gt;</text>
</a>
</g>
</g>
<!-- core_basedistribution&#45;&gt;core_contentguard -->
<g id="edge2" class="edge"><title>core_basedistribution:content_guard_id:w&#45;&gt;core_contentguard:pulp_id.type:e</title>
<path fill="none" stroke="black" d="M336.645,-107.97C294.67,-120.539 302.081,-189 249,-189"/>
<polygon fill="black" stroke="black" points="343.074,-107.088 351.489,-109.567 347.037,-106.544 351,-106 351,-106 351,-106 347.037,-106.544 350.511,-102.433 343.074,-107.088 343.074,-107.088"/>
<ellipse fill="none" stroke="black" cx="339.904" cy="-107.523" rx="3.2" ry="3.2"/>
</g>
</g>
</svg>
