<?xml version="1.0" encoding="UTF-8" standalone="no"?>
<!DOCTYPE svg PUBLIC "-//W3C//DTD SVG 1.1//EN"
 "http://www.w3.org/Graphics/SVG/1.1/DTD/svg11.dtd">
<!-- Generated by graphviz version 2.38.0 (20140413.2041)
 -->
<!-- Title: twoDegreesRelationshipsDiagram Pages: 1 -->
<svg width="803pt" height="693pt"
 viewBox="0.00 0.00 803.00 693.00" xmlns="http://www.w3.org/2000/svg" xmlns:xlink="http://www.w3.org/1999/xlink">
<g id="graph0" class="graph" transform="scale(1 1) rotate(0) translate(4 689)">
<title>twoDegreesRelationshipsDiagram</title>
<polygon fill="#ffffff" stroke="none" points="-4,4 -4,-689 799,-689 799,4 -4,4"/>
<text text-anchor="middle" x="74.5" y="-7.2" font-family="Helvetica,sans-Serif" font-size="11.00">Generated by SchemaSpy</text>
<!-- ansible_collectionimport -->
<g id="node1" class="node"><title>ansible_collectionimport</title>
<g id="a_node1"><a xlink:href="../../tables/ansible_collectionimport.html" xlink:title="ansible_collectionimport" target="_top">
<polygon fill="#ffffff" stroke="none" points="526.5,-386 526.5,-444 716.5,-444 716.5,-386 526.5,-386"/>
<polygon fill="#f5f5f5" stroke="none" points="526.5,-422 526.5,-444 716.5,-444 716.5,-422 526.5,-422"/>
<polygon fill="none" stroke="black" points="526.5,-422 526.5,-444 716.5,-444 716.5,-422 526.5,-422"/>
<text text-anchor="start" x="531.5" y="-431.2" font-family="Helvetica,sans-Serif" font-weight="bold" font-size="11.00">ansible_collectionimport</text>
<text text-anchor="start" x="677.5" y="-430.2" font-family="Helvetica,sans-Serif" font-size="11.00">[table]</text>
<polygon fill="none" stroke="black" points="526.5,-404 526.5,-422 716.5,-422 716.5,-404 526.5,-404"/>
<text text-anchor="start" x="529.5" y="-410.2" font-family="Helvetica,sans-Serif" font-size="11.00">...</text>
<polygon fill="#ffffff" stroke="none" points="526.5,-386 526.5,-404 598.5,-404 598.5,-386 526.5,-386"/>
<polygon fill="none" stroke="black" points="526.5,-386 526.5,-404 598.5,-404 598.5,-386 526.5,-386"/>
<text text-anchor="start" x="529.5" y="-392.2" font-family="Helvetica,sans-Serif" font-size="11.00">&lt; 1</text>
<polygon fill="#ffffff" stroke="none" points="598.5,-386 598.5,-404 678.5,-404 678.5,-386 598.5,-386"/>
<polygon fill="none" stroke="black" points="598.5,-386 598.5,-404 678.5,-404 678.5,-386 598.5,-386"/>
<text text-anchor="start" x="626.5" y="-392.2" font-family="Helvetica,sans-Serif" font-size="11.00">111 rows</text>
<polygon fill="#ffffff" stroke="none" points="678.5,-386 678.5,-404 716.5,-404 716.5,-386 678.5,-386"/>
<polygon fill="none" stroke="black" points="678.5,-386 678.5,-404 716.5,-404 716.5,-386 678.5,-386"/>
<text text-anchor="start" x="706.5" y="-392.2" font-family="Helvetica,sans-Serif" font-size="11.00"> &#160;</text>
</a>
</g>
</g>
<!-- core_task -->
<g id="node2" class="node"><title>core_task</title>
<g id="a_node2"><a xlink:href="../../tables/core_task.html" xlink:title="core_task" target="_top">
<polygon fill="#ffffff" stroke="none" points="235,-300 235,-446 364,-446 364,-300 235,-300"/>
<polygon fill="#f5f5f5" stroke="none" points="235.5,-424 235.5,-446 364.5,-446 364.5,-424 235.5,-424"/>
<polygon fill="none" stroke="black" points="235.5,-424 235.5,-446 364.5,-446 364.5,-424 235.5,-424"/>
<text text-anchor="start" x="240.5" y="-433.2" font-family="Helvetica,sans-Serif" font-weight="bold" font-size="11.00">core_task</text>
<text text-anchor="start" x="325.5" y="-432.2" font-family="Helvetica,sans-Serif" font-size="11.00">[table]</text>
<polygon fill="none" stroke="black" points="235.5,-402 235.5,-424 364.5,-424 364.5,-402 235.5,-402"/>
<image xlink:href="../../images/primaryKeys.png" width="11px" height="12px" preserveAspectRatio="xMinYMin meet" x="240.5" y="-419"/>
<text text-anchor="start" x="255.5" y="-410.2" font-family="Helvetica,sans-Serif" font-size="11.00">pulp_id</text>
<polygon fill="#ffffff" stroke="none" points="235.5,-380 235.5,-402 364.5,-402 364.5,-380 235.5,-380"/>
<polygon fill="none" stroke="black" points="235.5,-380 235.5,-402 364.5,-402 364.5,-380 235.5,-380"/>
<image xlink:href="../../images/foreignKeys.png" width="11px" height="12px" preserveAspectRatio="xMinYMin meet" x="240.5" y="-397"/>
<text text-anchor="start" x="255.5" y="-388.2" font-family="Helvetica,sans-Serif" font-size="11.00">worker_id</text>
<polygon fill="#ffffff" stroke="none" points="235.5,-358 235.5,-380 364.5,-380 364.5,-358 235.5,-358"/>
<polygon fill="none" stroke="black" points="235.5,-358 235.5,-380 364.5,-380 364.5,-358 235.5,-358"/>
<image xlink:href="../../images/foreignKeys.png" width="11px" height="12px" preserveAspectRatio="xMinYMin meet" x="240.5" y="-375"/>
<text text-anchor="start" x="255.5" y="-366.2" font-family="Helvetica,sans-Serif" font-size="11.00">parent_task_id</text>
<polygon fill="#ffffff" stroke="none" points="235.5,-336 235.5,-358 364.5,-358 364.5,-336 235.5,-336"/>
<polygon fill="none" stroke="black" points="235.5,-336 235.5,-358 364.5,-358 364.5,-336 235.5,-336"/>
<image xlink:href="../../images/foreignKeys.png" width="11px" height="12px" preserveAspectRatio="xMinYMin meet" x="240.5" y="-353"/>
<text text-anchor="start" x="255.5" y="-344.2" font-family="Helvetica,sans-Serif" font-size="11.00">task_group_id</text>
<polygon fill="none" stroke="black" points="235.5,-318 235.5,-336 364.5,-336 364.5,-318 235.5,-318"/>
<text text-anchor="start" x="238.5" y="-324.2" font-family="Helvetica,sans-Serif" font-size="11.00">...</text>
<polygon fill="#ffffff" stroke="none" points="235.5,-300 235.5,-318 267.5,-318 267.5,-300 235.5,-300"/>
<polygon fill="none" stroke="black" points="235.5,-300 235.5,-318 267.5,-318 267.5,-300 235.5,-300"/>
<text text-anchor="start" x="238.5" y="-306.2" font-family="Helvetica,sans-Serif" font-size="11.00">&lt; 3</text>
<polygon fill="#ffffff" stroke="none" points="267.5,-300 267.5,-318 336.5,-318 336.5,-300 267.5,-300"/>
<polygon fill="none" stroke="black" points="267.5,-300 267.5,-318 336.5,-318 336.5,-300 267.5,-300"/>
<text text-anchor="start" x="274.5" y="-306.2" font-family="Helvetica,sans-Serif" font-size="11.00">1,828 rows</text>
<polygon fill="#ffffff" stroke="none" points="336.5,-300 336.5,-318 364.5,-318 364.5,-300 336.5,-300"/>
<polygon fill="none" stroke="black" points="336.5,-300 336.5,-318 364.5,-318 364.5,-300 336.5,-300"/>
<text text-anchor="start" x="344.5" y="-306.2" font-family="Helvetica,sans-Serif" font-size="11.00">8 &gt;</text>
</a>
</g>
</g>
<!-- ansible_collectionimport&#45;&gt;core_task -->
<g id="edge1" class="edge"><title>ansible_collectionimport:elipses:w&#45;&gt;core_task:pulp_id:e</title>
<path fill="none" stroke="black" d="M515.065,-413C452.446,-413 433,-413 365.5,-413"/>
<polygon fill="black" stroke="black" points="524.7,-409 524.7,-417 523.1,-417 523.1,-409 524.7,-409"/>
<polyline fill="none" stroke="black" points="525.5,-413 521.5,-413 "/>
<ellipse fill="none" stroke="black" cx="518.3" cy="-413" rx="3.2" ry="3.2"/>
</g>
<!-- core_taskgroup -->
<g id="node7" class="node"><title>core_taskgroup</title>
<g id="a_node7"><a xlink:href="../../tables/core_taskgroup.html" xlink:title="core_taskgroup" target="_top">
<polygon fill="#ffffff" stroke="none" points="8,-302 8,-360 143,-360 143,-302 8,-302"/>
<polygon fill="#f5f5f5" stroke="none" points="8.5,-338 8.5,-360 143.5,-360 143.5,-338 8.5,-338"/>
<polygon fill="none" stroke="black" points="8.5,-338 8.5,-360 143.5,-360 143.5,-338 8.5,-338"/>
<text text-anchor="start" x="13.5" y="-347.2" font-family="Helvetica,sans-Serif" font-weight="bold" font-size="11.00">core_taskgroup</text>
<text text-anchor="start" x="104.5" y="-346.2" font-family="Helvetica,sans-Serif" font-size="11.00">[table]</text>
<polygon fill="none" stroke="black" points="8.5,-320 8.5,-338 143.5,-338 143.5,-320 8.5,-320"/>
<text text-anchor="start" x="11.5" y="-326.2" font-family="Helvetica,sans-Serif" font-size="11.00">...</text>
<polygon fill="#ffffff" stroke="none" points="8.5,-302 8.5,-320 46.5,-320 46.5,-302 8.5,-302"/>
<polygon fill="none" stroke="black" points="8.5,-302 8.5,-320 46.5,-320 46.5,-302 8.5,-302"/>
<text text-anchor="start" x="11.5" y="-308.2" font-family="Helvetica,sans-Serif" font-size="11.00"> &#160;</text>
<polygon fill="#ffffff" stroke="none" points="46.5,-302 46.5,-320 107.5,-320 107.5,-302 46.5,-302"/>
<polygon fill="none" stroke="black" points="46.5,-302 46.5,-320 107.5,-320 107.5,-302 46.5,-302"/>
<text text-anchor="start" x="61.5" y="-308.2" font-family="Helvetica,sans-Serif" font-size="11.00">26 rows</text>
<polygon fill="#ffffff" stroke="none" points="107.5,-302 107.5,-320 143.5,-320 143.5,-302 107.5,-302"/>
<polygon fill="none" stroke="black" points="107.5,-302 107.5,-320 143.5,-320 143.5,-302 107.5,-302"/>
<text text-anchor="start" x="123.5" y="-308.2" font-family="Helvetica,sans-Serif" font-size="11.00">2 &gt;</text>
</a>
</g>
</g>
<!-- core_task&#45;&gt;core_taskgroup -->
<g id="edge6" class="edge"><title>core_task:task_group_id:w&#45;&gt;core_taskgroup:elipses:e</title>
<path fill="none" stroke="black" d="M219.808,-346.132C190.901,-342.536 179.874,-329 144.5,-329"/>
<polygon fill="black" stroke="black" points="226.514,-346.528 234.288,-350.594 230.507,-346.764 234.5,-347 234.5,-347 234.5,-347 230.507,-346.764 234.712,-343.406 226.514,-346.528 226.514,-346.528"/>
<ellipse fill="none" stroke="black" cx="223.32" cy="-346.339" rx="3.2" ry="3.2"/>
</g>
<!-- core_worker -->
<g id="node8" class="node"><title>core_worker</title>
<g id="a_node8"><a xlink:href="../../tables/core_worker.html" xlink:title="core_worker" target="_top">
<polygon fill="#ffffff" stroke="none" points="16.5,-381 16.5,-439 134.5,-439 134.5,-381 16.5,-381"/>
<polygon fill="#f5f5f5" stroke="none" points="16.5,-417 16.5,-439 134.5,-439 134.5,-417 16.5,-417"/>
<polygon fill="none" stroke="black" points="16.5,-417 16.5,-439 134.5,-439 134.5,-417 16.5,-417"/>
<text text-anchor="start" x="21.5" y="-426.2" font-family="Helvetica,sans-Serif" font-weight="bold" font-size="11.00">core_worker</text>
<text text-anchor="start" x="95.5" y="-425.2" font-family="Helvetica,sans-Serif" font-size="11.00">[table]</text>
<polygon fill="none" stroke="black" points="16.5,-399 16.5,-417 134.5,-417 134.5,-399 16.5,-399"/>
<text text-anchor="start" x="19.5" y="-405.2" font-family="Helvetica,sans-Serif" font-size="11.00">...</text>
<polygon fill="#ffffff" stroke="none" points="16.5,-381 16.5,-399 42.5,-399 42.5,-381 16.5,-381"/>
<polygon fill="none" stroke="black" points="16.5,-381 16.5,-399 42.5,-399 42.5,-381 16.5,-381"/>
<text text-anchor="start" x="19.5" y="-387.2" font-family="Helvetica,sans-Serif" font-size="11.00"> &#160;</text>
<polygon fill="#ffffff" stroke="none" points="42.5,-381 42.5,-399 104.5,-399 104.5,-381 42.5,-381"/>
<polygon fill="none" stroke="black" points="42.5,-381 42.5,-399 104.5,-399 104.5,-381 42.5,-381"/>
<text text-anchor="start" x="52.5" y="-387.2" font-family="Helvetica,sans-Serif" font-size="11.00">148 rows</text>
<polygon fill="#ffffff" stroke="none" points="104.5,-381 104.5,-399 134.5,-399 134.5,-381 104.5,-381"/>
<polygon fill="none" stroke="black" points="104.5,-381 104.5,-399 134.5,-399 134.5,-381 104.5,-381"/>
<text text-anchor="start" x="114.5" y="-387.2" font-family="Helvetica,sans-Serif" font-size="11.00">2 &gt;</text>
</a>
</g>
</g>
<!-- core_task&#45;&gt;core_worker -->
<g id="edge7" class="edge"><title>core_task:worker_id:w&#45;&gt;core_worker:elipses:e</title>
<path fill="none" stroke="black" d="M219.694,-391.687C186.992,-394.868 174.738,-408 135.5,-408"/>
<polygon fill="black" stroke="black" points="226.509,-391.371 234.667,-394.596 230.504,-391.186 234.5,-391 234.5,-391 234.5,-391 230.504,-391.186 234.333,-387.404 226.509,-391.371 226.509,-391.371"/>
<ellipse fill="none" stroke="black" cx="223.312" cy="-391.52" rx="3.2" ry="3.2"/>
</g>
<!-- core_createdresource -->
<g id="node3" class="node"><title>core_createdresource</title>
<g id="a_node3"><a xlink:href="../../tables/core_createdresource.html" xlink:title="core_createdresource" target="_top">
<polygon fill="#ffffff" stroke="none" points="535.5,-307 535.5,-365 707.5,-365 707.5,-307 535.5,-307"/>
<polygon fill="#f5f5f5" stroke="none" points="535.5,-343 535.5,-365 707.5,-365 707.5,-343 535.5,-343"/>
<polygon fill="none" stroke="black" points="535.5,-343 535.5,-365 707.5,-365 707.5,-343 535.5,-343"/>
<text text-anchor="start" x="540.5" y="-352.2" font-family="Helvetica,sans-Serif" font-weight="bold" font-size="11.00">core_createdresource</text>
<text text-anchor="start" x="668.5" y="-351.2" font-family="Helvetica,sans-Serif" font-size="11.00">[table]</text>
<polygon fill="none" stroke="black" points="535.5,-325 535.5,-343 707.5,-343 707.5,-325 535.5,-325"/>
<text text-anchor="start" x="538.5" y="-331.2" font-family="Helvetica,sans-Serif" font-size="11.00">...</text>
<polygon fill="#ffffff" stroke="none" points="535.5,-307 535.5,-325 598.5,-325 598.5,-307 535.5,-307"/>
<polygon fill="none" stroke="black" points="535.5,-307 535.5,-325 598.5,-325 598.5,-307 535.5,-307"/>
<text text-anchor="start" x="538.5" y="-313.2" font-family="Helvetica,sans-Serif" font-size="11.00">&lt; 2</text>
<polygon fill="#ffffff" stroke="none" points="598.5,-307 598.5,-325 673.5,-325 673.5,-307 598.5,-307"/>
<polygon fill="none" stroke="black" points="598.5,-307 598.5,-325 673.5,-325 673.5,-307 598.5,-307"/>
<text text-anchor="start" x="621.5" y="-313.2" font-family="Helvetica,sans-Serif" font-size="11.00">365 rows</text>
<polygon fill="#ffffff" stroke="none" points="673.5,-307 673.5,-325 707.5,-325 707.5,-307 673.5,-307"/>
<polygon fill="none" stroke="black" points="673.5,-307 673.5,-325 707.5,-325 707.5,-307 673.5,-307"/>
<text text-anchor="start" x="697.5" y="-313.2" font-family="Helvetica,sans-Serif" font-size="11.00"> &#160;</text>
</a>
</g>
</g>
<!-- core_createdresource&#45;&gt;core_task -->
<g id="edge2" class="edge"><title>core_createdresource:elipses:w&#45;&gt;core_task:pulp_id:e</title>
<path fill="none" stroke="black" d="M519.849,-334.887C450.879,-343.566 443.23,-413 365.5,-413"/>
<polygon fill="black" stroke="black" points="526.515,-334.484 534.718,-337.593 530.507,-334.242 534.5,-334 534.5,-334 534.5,-334 530.507,-334.242 534.282,-330.407 526.515,-334.484 526.515,-334.484"/>
<ellipse fill="none" stroke="black" cx="523.32" cy="-334.677" rx="3.2" ry="3.2"/>
</g>
<!-- core_export -->
<g id="node4" class="node"><title>core_export</title>
<g id="a_node4"><a xlink:href="../../tables/core_export.html" xlink:title="core_export" target="_top">
<polygon fill="#ffffff" stroke="none" points="563.5,-228 563.5,-286 679.5,-286 679.5,-228 563.5,-228"/>
<polygon fill="#f5f5f5" stroke="none" points="563.5,-264 563.5,-286 679.5,-286 679.5,-264 563.5,-264"/>
<polygon fill="none" stroke="black" points="563.5,-264 563.5,-286 679.5,-286 679.5,-264 563.5,-264"/>
<text text-anchor="start" x="568.5" y="-273.2" font-family="Helvetica,sans-Serif" font-weight="bold" font-size="11.00">core_export</text>
<text text-anchor="start" x="640.5" y="-272.2" font-family="Helvetica,sans-Serif" font-size="11.00">[table]</text>
<polygon fill="none" stroke="black" points="563.5,-246 563.5,-264 679.5,-264 679.5,-246 563.5,-246"/>
<text text-anchor="start" x="566.5" y="-252.2" font-family="Helvetica,sans-Serif" font-size="11.00">...</text>
<polygon fill="#ffffff" stroke="none" points="563.5,-228 563.5,-246 600.5,-246 600.5,-228 563.5,-228"/>
<polygon fill="none" stroke="black" points="563.5,-228 563.5,-246 600.5,-246 600.5,-228 563.5,-228"/>
<text text-anchor="start" x="566.5" y="-234.2" font-family="Helvetica,sans-Serif" font-size="11.00">&lt; 2</text>
<polygon fill="#ffffff" stroke="none" points="600.5,-228 600.5,-246 649.5,-246 649.5,-228 600.5,-228"/>
<polygon fill="none" stroke="black" points="600.5,-228 600.5,-246 649.5,-246 649.5,-228 600.5,-228"/>
<text text-anchor="start" x="610.5" y="-234.2" font-family="Helvetica,sans-Serif" font-size="11.00">0 rows</text>
<polygon fill="#ffffff" stroke="none" points="649.5,-228 649.5,-246 679.5,-246 679.5,-228 649.5,-228"/>
<polygon fill="none" stroke="black" points="649.5,-228 649.5,-246 679.5,-246 679.5,-228 649.5,-228"/>
<text text-anchor="start" x="659.5" y="-234.2" font-family="Helvetica,sans-Serif" font-size="11.00">2 &gt;</text>
</a>
</g>
</g>
<!-- core_export&#45;&gt;core_task -->
<g id="edge3" class="edge"><title>core_export:elipses:w&#45;&gt;core_task:pulp_id:e</title>
<path fill="none" stroke="black" d="M547.899,-255.263C504.764,-256.961 486.96,-267.254 448,-297 397.716,-335.392 428.765,-413 365.5,-413"/>
<polygon fill="black" stroke="black" points="554.501,-255.144 562.565,-258.599 558.501,-255.072 562.5,-255 562.5,-255 562.5,-255 558.501,-255.072 562.435,-251.401 554.501,-255.144 554.501,-255.144"/>
<ellipse fill="none" stroke="black" cx="551.302" cy="-255.202" rx="3.2" ry="3.2"/>
</g>
<!-- core_import -->
<g id="node5" class="node"><title>core_import</title>
<g id="a_node5"><a xlink:href="../../tables/core_import.html" xlink:title="core_import" target="_top">
<polygon fill="#ffffff" stroke="none" points="562.5,-623 562.5,-681 680.5,-681 680.5,-623 562.5,-623"/>
<polygon fill="#f5f5f5" stroke="none" points="562.5,-659 562.5,-681 680.5,-681 680.5,-659 562.5,-659"/>
<polygon fill="none" stroke="black" points="562.5,-659 562.5,-681 680.5,-681 680.5,-659 562.5,-659"/>
<text text-anchor="start" x="567.5" y="-668.2" font-family="Helvetica,sans-Serif" font-weight="bold" font-size="11.00">core_import</text>
<text text-anchor="start" x="641.5" y="-667.2" font-family="Helvetica,sans-Serif" font-size="11.00">[table]</text>
<polygon fill="none" stroke="black" points="562.5,-641 562.5,-659 680.5,-659 680.5,-641 562.5,-641"/>
<text text-anchor="start" x="565.5" y="-647.2" font-family="Helvetica,sans-Serif" font-size="11.00">...</text>
<polygon fill="#ffffff" stroke="none" points="562.5,-623 562.5,-641 600.5,-641 600.5,-623 562.5,-623"/>
<polygon fill="none" stroke="black" points="562.5,-623 562.5,-641 600.5,-641 600.5,-623 562.5,-623"/>
<text text-anchor="start" x="565.5" y="-629.2" font-family="Helvetica,sans-Serif" font-size="11.00">&lt; 2</text>
<polygon fill="#ffffff" stroke="none" points="600.5,-623 600.5,-641 649.5,-641 649.5,-623 600.5,-623"/>
<polygon fill="none" stroke="black" points="600.5,-623 600.5,-641 649.5,-641 649.5,-623 600.5,-623"/>
<text text-anchor="start" x="610.5" y="-629.2" font-family="Helvetica,sans-Serif" font-size="11.00">0 rows</text>
<polygon fill="#ffffff" stroke="none" points="649.5,-623 649.5,-641 680.5,-641 680.5,-623 649.5,-623"/>
<polygon fill="none" stroke="black" points="649.5,-623 649.5,-641 680.5,-641 680.5,-623 649.5,-623"/>
<text text-anchor="start" x="660.5" y="-629.2" font-family="Helvetica,sans-Serif" font-size="11.00">1 &gt;</text>
</a>
</g>
</g>
<!-- core_import&#45;&gt;core_task -->
<g id="edge4" class="edge"><title>core_import:elipses:w&#45;&gt;core_task:pulp_id:e</title>
<path fill="none" stroke="black" d="M547.09,-649.944C504.163,-649.499 483.193,-645.611 448,-613 377.471,-547.644 461.654,-413 365.5,-413"/>
<polygon fill="black" stroke="black" points="553.5,-649.969 561.486,-653.6 557.5,-649.985 561.5,-650 561.5,-650 561.5,-650 557.5,-649.985 561.514,-646.4 553.5,-649.969 553.5,-649.969"/>
<ellipse fill="none" stroke="black" cx="550.3" cy="-649.957" rx="3.2" ry="3.2"/>
</g>
<!-- core_progressreport -->
<g id="node6" class="node"><title>core_progressreport</title>
<g id="a_node6"><a xlink:href="../../tables/core_progressreport.html" xlink:title="core_progressreport" target="_top">
<polygon fill="#ffffff" stroke="none" points="540,-544 540,-602 703,-602 703,-544 540,-544"/>
<polygon fill="#f5f5f5" stroke="none" points="540.5,-580 540.5,-602 703.5,-602 703.5,-580 540.5,-580"/>
<polygon fill="none" stroke="black" points="540.5,-580 540.5,-602 703.5,-602 703.5,-580 540.5,-580"/>
<text text-anchor="start" x="545.5" y="-589.2" font-family="Helvetica,sans-Serif" font-weight="bold" font-size="11.00">core_progressreport</text>
<text text-anchor="start" x="664.5" y="-588.2" font-family="Helvetica,sans-Serif" font-size="11.00">[table]</text>
<polygon fill="none" stroke="black" points="540.5,-562 540.5,-580 703.5,-580 703.5,-562 540.5,-562"/>
<text text-anchor="start" x="543.5" y="-568.2" font-family="Helvetica,sans-Serif" font-size="11.00">...</text>
<polygon fill="#ffffff" stroke="none" points="540.5,-544 540.5,-562 602.5,-562 602.5,-544 540.5,-544"/>
<polygon fill="none" stroke="black" points="540.5,-544 540.5,-562 602.5,-562 602.5,-544 540.5,-544"/>
<text text-anchor="start" x="543.5" y="-550.2" font-family="Helvetica,sans-Serif" font-size="11.00">&lt; 1</text>
<polygon fill="#ffffff" stroke="none" points="602.5,-544 602.5,-562 670.5,-562 670.5,-544 602.5,-544"/>
<polygon fill="none" stroke="black" points="602.5,-544 602.5,-562 670.5,-562 670.5,-544 602.5,-544"/>
<text text-anchor="start" x="624.5" y="-550.2" font-family="Helvetica,sans-Serif" font-size="11.00">53 rows</text>
<polygon fill="#ffffff" stroke="none" points="670.5,-544 670.5,-562 703.5,-562 703.5,-544 670.5,-544"/>
<polygon fill="none" stroke="black" points="670.5,-544 670.5,-562 703.5,-562 703.5,-544 670.5,-544"/>
<text text-anchor="start" x="693.5" y="-550.2" font-family="Helvetica,sans-Serif" font-size="11.00"> &#160;</text>
</a>
</g>
</g>
<!-- core_progressreport&#45;&gt;core_task -->
<g id="edge5" class="edge"><title>core_progressreport:elipses:w&#45;&gt;core_task:pulp_id:e</title>
<path fill="none" stroke="black" d="M524.81,-570.568C492.067,-568.441 478.019,-558.192 448,-534 397.321,-493.158 430.588,-413 365.5,-413"/>
<polygon fill="black" stroke="black" points="531.503,-570.765 539.394,-574.598 535.502,-570.882 539.5,-571 539.5,-571 539.5,-571 535.502,-570.882 539.606,-567.402 531.503,-570.765 531.503,-570.765"/>
<ellipse fill="none" stroke="black" cx="528.305" cy="-570.671" rx="3.2" ry="3.2"/>
</g>
<!-- core_taskreservedresource -->
<g id="node9" class="node"><title>core_taskreservedresource</title>
<g id="a_node9"><a xlink:href="../../tables/core_taskreservedresource.html" xlink:title="core_taskreservedresource" target="_top">
<polygon fill="#ffffff" stroke="none" points="520.5,-465 520.5,-523 722.5,-523 722.5,-465 520.5,-465"/>
<polygon fill="#f5f5f5" stroke="none" points="520.5,-501 520.5,-523 722.5,-523 722.5,-501 520.5,-501"/>
<polygon fill="none" stroke="black" points="520.5,-501 520.5,-523 722.5,-523 722.5,-501 520.5,-501"/>
<text text-anchor="start" x="525.5" y="-510.2" font-family="Helvetica,sans-Serif" font-weight="bold" font-size="11.00">core_taskreservedresource</text>
<text text-anchor="start" x="683.5" y="-509.2" font-family="Helvetica,sans-Serif" font-size="11.00">[table]</text>
<polygon fill="none" stroke="black" points="520.5,-483 520.5,-501 722.5,-501 722.5,-483 520.5,-483"/>
<text text-anchor="start" x="523.5" y="-489.2" font-family="Helvetica,sans-Serif" font-size="11.00">...</text>
<polygon fill="#ffffff" stroke="none" points="520.5,-465 520.5,-483 605.5,-483 605.5,-465 520.5,-465"/>
<polygon fill="none" stroke="black" points="520.5,-465 520.5,-483 605.5,-483 605.5,-465 520.5,-465"/>
<text text-anchor="start" x="523.5" y="-471.2" font-family="Helvetica,sans-Serif" font-size="11.00">&lt; 2</text>
<polygon fill="#ffffff" stroke="none" points="605.5,-465 605.5,-483 678.5,-483 678.5,-465 605.5,-465"/>
<polygon fill="none" stroke="black" points="605.5,-465 605.5,-483 678.5,-483 678.5,-465 605.5,-465"/>
<text text-anchor="start" x="639.5" y="-471.2" font-family="Helvetica,sans-Serif" font-size="11.00">0 rows</text>
<polygon fill="#ffffff" stroke="none" points="678.5,-465 678.5,-483 722.5,-483 722.5,-465 678.5,-465"/>
<polygon fill="none" stroke="black" points="678.5,-465 678.5,-483 722.5,-483 722.5,-465 678.5,-465"/>
<text text-anchor="start" x="712.5" y="-471.2" font-family="Helvetica,sans-Serif" font-size="11.00"> &#160;</text>
</a>
</g>
</g>
<!-- core_taskreservedresource&#45;&gt;core_task -->
<g id="edge8" class="edge"><title>core_taskreservedresource:elipses:w&#45;&gt;core_task:pulp_id:e</title>
<path fill="none" stroke="black" d="M504.752,-490.943C442.196,-481.568 437.166,-413 365.5,-413"/>
<polygon fill="black" stroke="black" points="511.52,-491.428 519.243,-495.591 515.51,-491.714 519.5,-492 519.5,-492 519.5,-492 515.51,-491.714 519.757,-488.409 511.52,-491.428 511.52,-491.428"/>
<ellipse fill="none" stroke="black" cx="508.329" cy="-491.199" rx="3.2" ry="3.2"/>
</g>
<!-- core_taskreservedresourcerecord -->
<g id="node10" class="node"><title>core_taskreservedresourcerecord</title>
<g id="a_node10"><a xlink:href="../../tables/core_taskreservedresourcerecord.html" xlink:title="core_taskreservedresourcerecord" target="_top">
<polygon fill="#ffffff" stroke="none" points="456,-53 456,-207 787,-207 787,-53 456,-53"/>
<polygon fill="#f5f5f5" stroke="none" points="458.5,-183 458.5,-205 785.5,-205 785.5,-183 458.5,-183"/>
<polygon fill="none" stroke="black" points="458.5,-183 458.5,-205 785.5,-205 785.5,-183 458.5,-183"/>
<text text-anchor="start" x="463.5" y="-192.2" font-family="Helvetica,sans-Serif" font-weight="bold" font-size="11.00">core_taskreservedresourcerecord</text>
<text text-anchor="start" x="746.5" y="-191.2" font-family="Helvetica,sans-Serif" font-size="11.00">[table]</text>
<polygon fill="none" stroke="black" points="458.5,-161 458.5,-183 680.5,-183 680.5,-161 458.5,-161"/>
<image xlink:href="../../images/primaryKeys.png" width="11px" height="12px" preserveAspectRatio="xMinYMin meet" x="463.5" y="-178"/>
<text text-anchor="start" x="478.5" y="-169.2" font-family="Helvetica,sans-Serif" font-size="11.00">pulp_id</text>
<polygon fill="none" stroke="black" points="680.5,-161 680.5,-183 785.5,-183 785.5,-161 680.5,-161"/>
<text text-anchor="start" x="683.5" y="-169.2" font-family="Helvetica,sans-Serif" font-size="11.00">uuid[2147483647]</text>
<polygon fill="none" stroke="black" points="458.5,-139 458.5,-161 680.5,-161 680.5,-139 458.5,-139"/>
<text text-anchor="start" x="478.5" y="-147.2" font-family="Helvetica,sans-Serif" font-size="11.00">pulp_created</text>
<polygon fill="none" stroke="black" points="680.5,-139 680.5,-161 785.5,-161 785.5,-139 680.5,-139"/>
<text text-anchor="start" x="683.5" y="-147.2" font-family="Helvetica,sans-Serif" font-size="11.00">timestamptz[35,6]</text>
<polygon fill="none" stroke="black" points="458.5,-117 458.5,-139 680.5,-139 680.5,-117 458.5,-117"/>
<text text-anchor="start" x="478.5" y="-125.2" font-family="Helvetica,sans-Serif" font-size="11.00">pulp_last_updated</text>
<polygon fill="none" stroke="black" points="680.5,-117 680.5,-139 785.5,-139 785.5,-117 680.5,-117"/>
<text text-anchor="start" x="683.5" y="-125.2" font-family="Helvetica,sans-Serif" font-size="11.00">timestamptz[35,6]</text>
<polygon fill="#ffffff" stroke="none" points="458.5,-95 458.5,-117 680.5,-117 680.5,-95 458.5,-95"/>
<polygon fill="none" stroke="black" points="458.5,-95 458.5,-117 680.5,-117 680.5,-95 458.5,-95"/>
<image xlink:href="../../images/foreignKeys.png" width="11px" height="12px" preserveAspectRatio="xMinYMin meet" x="463.5" y="-112"/>
<text text-anchor="start" x="478.5" y="-103.2" font-family="Helvetica,sans-Serif" font-size="11.00">resource_id</text>
<polygon fill="none" stroke="black" points="680.5,-95 680.5,-117 785.5,-117 785.5,-95 680.5,-95"/>
<text text-anchor="start" x="683.5" y="-103.2" font-family="Helvetica,sans-Serif" font-size="11.00">uuid[2147483647]</text>
<polygon fill="#ffffff" stroke="none" points="458.5,-73 458.5,-95 680.5,-95 680.5,-73 458.5,-73"/>
<polygon fill="none" stroke="black" points="458.5,-73 458.5,-95 680.5,-95 680.5,-73 458.5,-73"/>
<image xlink:href="../../images/foreignKeys.png" width="11px" height="12px" preserveAspectRatio="xMinYMin meet" x="463.5" y="-90"/>
<text text-anchor="start" x="478.5" y="-81.2" font-family="Helvetica,sans-Serif" font-size="11.00">task_id</text>
<polygon fill="none" stroke="black" points="680.5,-73 680.5,-95 785.5,-95 785.5,-73 680.5,-73"/>
<text text-anchor="start" x="683.5" y="-81.2" font-family="Helvetica,sans-Serif" font-size="11.00">uuid[2147483647]</text>
<polygon fill="#ffffff" stroke="none" points="458.5,-55 458.5,-73 548.5,-73 548.5,-55 458.5,-55"/>
<polygon fill="none" stroke="black" points="458.5,-55 458.5,-73 548.5,-73 548.5,-55 458.5,-55"/>
<text text-anchor="start" x="461.5" y="-61.2" font-family="Helvetica,sans-Serif" font-size="11.00">&lt; 2</text>
<polygon fill="#ffffff" stroke="none" points="548.5,-55 548.5,-73 680.5,-73 680.5,-55 548.5,-55"/>
<polygon fill="none" stroke="black" points="548.5,-55 548.5,-73 680.5,-73 680.5,-55 548.5,-55"/>
<text text-anchor="start" x="618.5" y="-61.2" font-family="Helvetica,sans-Serif" font-size="11.00">1,937 rows</text>
<polygon fill="#ffffff" stroke="none" points="680.5,-55 680.5,-73 785.5,-73 785.5,-55 680.5,-55"/>
<polygon fill="none" stroke="black" points="680.5,-55 680.5,-73 785.5,-73 785.5,-55 680.5,-55"/>
<text text-anchor="start" x="765.5" y="-61.2" font-family="Helvetica,sans-Serif" font-size="11.00">0 &gt;</text>
<polygon fill="none" stroke="black" stroke-width="2" points="457,-54 457,-206 786,-206 786,-54 457,-54"/>
</a>
</g>
</g>
<!-- core_taskreservedresourcerecord&#45;&gt;core_task -->
<g id="edge10" class="edge"><title>core_taskreservedresourcerecord:task_id:w&#45;&gt;core_task:pulp_id:e</title>
<path fill="none" stroke="black" d="M443.748,-88.4021C389.13,-127.443 436.226,-413 365.5,-413"/>
<polygon fill="black" stroke="black" points="449.881,-86.4389 458.598,-87.4286 453.69,-85.2195 457.5,-84 457.5,-84 457.5,-84 453.69,-85.2195 456.402,-80.5714 449.881,-86.4389 449.881,-86.4389"/>
<ellipse fill="none" stroke="black" cx="446.833" cy="-87.4145" rx="3.20001" ry="3.20001"/>
</g>
<!-- core_reservedresourcerecord -->
<g id="node11" class="node"><title>core_reservedresourcerecord</title>
<g id="a_node11"><a xlink:href="../../tables/core_reservedresourcerecord.html" xlink:title="core_reservedresourcerecord" target="_top">
<polygon fill="#ffffff" stroke="none" points="192,-37 192,-139 407,-139 407,-37 192,-37"/>
<polygon fill="#f5f5f5" stroke="none" points="192.5,-117 192.5,-139 407.5,-139 407.5,-117 192.5,-117"/>
<polygon fill="none" stroke="black" points="192.5,-117 192.5,-139 407.5,-139 407.5,-117 192.5,-117"/>
<text text-anchor="start" x="197.5" y="-126.2" font-family="Helvetica,sans-Serif" font-weight="bold" font-size="11.00">core_reservedresourcerecord</text>
<text text-anchor="start" x="368.5" y="-125.2" font-family="Helvetica,sans-Serif" font-size="11.00">[table]</text>
<polygon fill="none" stroke="black" points="192.5,-95 192.5,-117 407.5,-117 407.5,-95 192.5,-95"/>
<image xlink:href="../../images/primaryKeys.png" width="11px" height="12px" preserveAspectRatio="xMinYMin meet" x="197.5" y="-112"/>
<text text-anchor="start" x="222.5" y="-103.2" font-family="Helvetica,sans-Serif" font-size="11.00">pulp_id</text>
<polygon fill="#ffffff" stroke="none" points="192.5,-73 192.5,-95 407.5,-95 407.5,-73 192.5,-73"/>
<polygon fill="none" stroke="black" points="192.5,-73 192.5,-95 407.5,-95 407.5,-73 192.5,-73"/>
<text text-anchor="start" x="222.5" y="-81.2" font-family="Helvetica,sans-Serif" font-size="11.00">resource</text>
<polygon fill="none" stroke="black" points="192.5,-55 192.5,-73 407.5,-73 407.5,-55 192.5,-55"/>
<text text-anchor="start" x="195.5" y="-61.2" font-family="Helvetica,sans-Serif" font-size="11.00">...</text>
<polygon fill="#ffffff" stroke="none" points="192.5,-37 192.5,-55 267.5,-55 267.5,-37 192.5,-37"/>
<polygon fill="none" stroke="black" points="192.5,-37 192.5,-55 267.5,-55 267.5,-37 192.5,-37"/>
<text text-anchor="start" x="195.5" y="-43.2" font-family="Helvetica,sans-Serif" font-size="11.00"> &#160;</text>
<polygon fill="#ffffff" stroke="none" points="267.5,-37 267.5,-55 353.5,-55 353.5,-37 267.5,-37"/>
<polygon fill="none" stroke="black" points="267.5,-37 267.5,-55 353.5,-55 353.5,-37 267.5,-37"/>
<text text-anchor="start" x="301.5" y="-43.2" font-family="Helvetica,sans-Serif" font-size="11.00">228 rows</text>
<polygon fill="#ffffff" stroke="none" points="353.5,-37 353.5,-55 407.5,-55 407.5,-37 353.5,-37"/>
<polygon fill="none" stroke="black" points="353.5,-37 353.5,-55 407.5,-55 407.5,-37 353.5,-37"/>
<text text-anchor="start" x="387.5" y="-43.2" font-family="Helvetica,sans-Serif" font-size="11.00">1 &gt;</text>
</a>
</g>
</g>
<!-- core_taskreservedresourcerecord&#45;&gt;core_reservedresourcerecord -->
<g id="edge9" class="edge"><title>core_taskreservedresourcerecord:resource_id:w&#45;&gt;core_reservedresourcerecord:pulp_id:e</title>
<path fill="none" stroke="black" d="M442.991,-106C431.677,-106 424.493,-106 408.5,-106"/>
<polygon fill="black" stroke="black" points="449.5,-106 457.5,-109.6 453.5,-106 457.5,-106 457.5,-106 457.5,-106 453.5,-106 457.5,-102.4 449.5,-106 449.5,-106"/>
<ellipse fill="none" stroke="black" cx="446.3" cy="-106" rx="3.2" ry="3.2"/>
</g>
</g>
</svg>
