<?xml version="1.0" encoding="UTF-8" standalone="no"?>
<!DOCTYPE svg PUBLIC "-//W3C//DTD SVG 1.1//EN"
 "http://www.w3.org/Graphics/SVG/1.1/DTD/svg11.dtd">
<!-- Generated by graphviz version 2.38.0 (20140413.2041)
 -->
<!-- Title: oneDegreeRelationshipsDiagram Pages: 1 -->
<svg width="465pt" height="296pt"
 viewBox="0.00 0.00 465.00 296.00" xmlns="http://www.w3.org/2000/svg" xmlns:xlink="http://www.w3.org/1999/xlink">
<g id="graph0" class="graph" transform="scale(1 1) rotate(0) translate(4 292)">
<title>oneDegreeRelationshipsDiagram</title>
<polygon fill="#ffffff" stroke="none" points="-4,4 -4,-292 461,-292 461,4 -4,4"/>
<text text-anchor="middle" x="74.5" y="-7.2" font-family="Helvetica,sans-Serif" font-size="11.00">Generated by SchemaSpy</text>
<!-- core_export -->
<g id="node1" class="node"><title>core_export</title>
<g id="a_node1"><a xlink:href="../../tables/core_export.html" xlink:title="core_export" target="_top">
<polygon fill="#ffffff" stroke="none" points="307.5,-160 307.5,-284 436.5,-284 436.5,-160 307.5,-160"/>
<polygon fill="#f5f5f5" stroke="none" points="308,-262 308,-284 437,-284 437,-262 308,-262"/>
<polygon fill="none" stroke="black" points="308,-262 308,-284 437,-284 437,-262 308,-262"/>
<text text-anchor="start" x="313" y="-271.2" font-family="Helvetica,sans-Serif" font-weight="bold" font-size="11.00">core_export</text>
<text text-anchor="start" x="398" y="-270.2" font-family="Helvetica,sans-Serif" font-size="11.00">[table]</text>
<polygon fill="none" stroke="black" points="308,-240 308,-262 437,-262 437,-240 308,-240"/>
<image xlink:href="../../images/primaryKeys.png" width="11px" height="12px" preserveAspectRatio="xMinYMin meet" x="313" y="-257"/>
<text text-anchor="start" x="328" y="-248.2" font-family="Helvetica,sans-Serif" font-size="11.00">pulp_id</text>
<polygon fill="#ffffff" stroke="none" points="308,-218 308,-240 437,-240 437,-218 308,-218"/>
<polygon fill="none" stroke="black" points="308,-218 308,-240 437,-240 437,-218 308,-218"/>
<image xlink:href="../../images/foreignKeys.png" width="11px" height="12px" preserveAspectRatio="xMinYMin meet" x="313" y="-235"/>
<text text-anchor="start" x="328" y="-226.2" font-family="Helvetica,sans-Serif" font-size="11.00">exporter_id</text>
<polygon fill="#ffffff" stroke="none" points="308,-196 308,-218 437,-218 437,-196 308,-196"/>
<polygon fill="none" stroke="black" points="308,-196 308,-218 437,-218 437,-196 308,-196"/>
<image xlink:href="../../images/foreignKeys.png" width="11px" height="12px" preserveAspectRatio="xMinYMin meet" x="313" y="-213"/>
<text text-anchor="start" x="328" y="-204.2" font-family="Helvetica,sans-Serif" font-size="11.00">task_id</text>
<polygon fill="none" stroke="black" points="308,-178 308,-196 437,-196 437,-178 308,-178"/>
<text text-anchor="start" x="311" y="-184.2" font-family="Helvetica,sans-Serif" font-size="11.00">...</text>
<polygon fill="#ffffff" stroke="none" points="308,-160 308,-178 351,-178 351,-160 308,-160"/>
<polygon fill="none" stroke="black" points="308,-160 308,-178 351,-178 351,-160 308,-160"/>
<text text-anchor="start" x="311" y="-166.2" font-family="Helvetica,sans-Serif" font-size="11.00">&lt; 2</text>
<polygon fill="#ffffff" stroke="none" points="351,-160 351,-178 403,-178 403,-160 351,-160"/>
<polygon fill="none" stroke="black" points="351,-160 351,-178 403,-178 403,-160 351,-160"/>
<text text-anchor="start" x="364" y="-166.2" font-family="Helvetica,sans-Serif" font-size="11.00">0 rows</text>
<polygon fill="#ffffff" stroke="none" points="403,-160 403,-178 437,-178 437,-160 403,-160"/>
<polygon fill="none" stroke="black" points="403,-160 403,-178 437,-178 437,-160 403,-160"/>
<text text-anchor="start" x="417" y="-166.2" font-family="Helvetica,sans-Serif" font-size="11.00">2 &gt;</text>
</a>
</g>
</g>
<!-- core_exporter -->
<g id="node2" class="node"><title>core_exporter</title>
<g id="a_node2"><a xlink:href="../../tables/core_exporter.html" xlink:title="core_exporter" target="_top">
<polygon fill="#ffffff" stroke="none" points="8,-48 8,-202 246,-202 246,-48 8,-48"/>
<polygon fill="#f5f5f5" stroke="none" points="10,-178 10,-200 244,-200 244,-178 10,-178"/>
<polygon fill="none" stroke="black" points="10,-178 10,-200 244,-200 244,-178 10,-178"/>
<text text-anchor="start" x="15" y="-187.2" font-family="Helvetica,sans-Serif" font-weight="bold" font-size="11.00">core_exporter</text>
<text text-anchor="start" x="205" y="-186.2" font-family="Helvetica,sans-Serif" font-size="11.00">[table]</text>
<polygon fill="none" stroke="black" points="10,-156 10,-178 139,-178 139,-156 10,-156"/>
<image xlink:href="../../images/primaryKeys.png" width="11px" height="12px" preserveAspectRatio="xMinYMin meet" x="15" y="-173"/>
<text text-anchor="start" x="30" y="-164.2" font-family="Helvetica,sans-Serif" font-size="11.00">pulp_id</text>
<polygon fill="none" stroke="black" points="139,-156 139,-178 244,-178 244,-156 139,-156"/>
<text text-anchor="start" x="142" y="-164.2" font-family="Helvetica,sans-Serif" font-size="11.00">uuid[2147483647]</text>
<polygon fill="none" stroke="black" points="10,-134 10,-156 139,-156 139,-134 10,-134"/>
<text text-anchor="start" x="30" y="-142.2" font-family="Helvetica,sans-Serif" font-size="11.00">pulp_created</text>
<polygon fill="none" stroke="black" points="139,-134 139,-156 244,-156 244,-134 139,-134"/>
<text text-anchor="start" x="142" y="-142.2" font-family="Helvetica,sans-Serif" font-size="11.00">timestamptz[35,6]</text>
<polygon fill="none" stroke="black" points="10,-112 10,-134 139,-134 139,-112 10,-112"/>
<text text-anchor="start" x="30" y="-120.2" font-family="Helvetica,sans-Serif" font-size="11.00">pulp_last_updated</text>
<polygon fill="none" stroke="black" points="139,-112 139,-134 244,-134 244,-112 139,-112"/>
<text text-anchor="start" x="142" y="-120.2" font-family="Helvetica,sans-Serif" font-size="11.00">timestamptz[35,6]</text>
<polygon fill="none" stroke="black" points="10,-90 10,-112 139,-112 139,-90 10,-90"/>
<text text-anchor="start" x="30" y="-98.2" font-family="Helvetica,sans-Serif" font-size="11.00">pulp_type</text>
<polygon fill="none" stroke="black" points="139,-90 139,-112 244,-112 244,-90 139,-90"/>
<text text-anchor="start" x="142" y="-98.2" font-family="Helvetica,sans-Serif" font-size="11.00">text[2147483647]</text>
<polygon fill="#ffffff" stroke="none" points="10,-68 10,-90 139,-90 139,-68 10,-68"/>
<polygon fill="none" stroke="black" points="10,-68 10,-90 139,-90 139,-68 10,-68"/>
<text text-anchor="start" x="30" y="-76.2" font-family="Helvetica,sans-Serif" font-size="11.00">name</text>
<polygon fill="none" stroke="black" points="139,-68 139,-90 244,-90 244,-68 139,-68"/>
<text text-anchor="start" x="142" y="-76.2" font-family="Helvetica,sans-Serif" font-size="11.00">text[2147483647]</text>
<polygon fill="#ffffff" stroke="none" points="10,-50 10,-68 65,-68 65,-50 10,-50"/>
<polygon fill="none" stroke="black" points="10,-50 10,-68 65,-68 65,-50 10,-50"/>
<text text-anchor="start" x="13" y="-56.2" font-family="Helvetica,sans-Serif" font-size="11.00">&lt; 0</text>
<polygon fill="#ffffff" stroke="none" points="65,-50 65,-68 139,-68 139,-50 65,-50"/>
<polygon fill="none" stroke="black" points="65,-50 65,-68 139,-68 139,-50 65,-50"/>
<text text-anchor="start" x="100" y="-56.2" font-family="Helvetica,sans-Serif" font-size="11.00">0 rows</text>
<polygon fill="#ffffff" stroke="none" points="139,-50 139,-68 244,-68 244,-50 139,-50"/>
<polygon fill="none" stroke="black" points="139,-50 139,-68 244,-68 244,-50 139,-50"/>
<text text-anchor="start" x="224" y="-56.2" font-family="Helvetica,sans-Serif" font-size="11.00">2 &gt;</text>
<polygon fill="none" stroke="black" stroke-width="2" points="9,-49 9,-201 245,-201 245,-49 9,-49"/>
</a>
</g>
</g>
<!-- core_export&#45;&gt;core_exporter -->
<g id="edge1" class="edge"><title>core_export:exporter_id:w&#45;&gt;core_exporter:pulp_id.type:e</title>
<path fill="none" stroke="black" d="M292.917,-225.307C271.553,-211.96 278.185,-167 245,-167"/>
<polygon fill="black" stroke="black" points="299.262,-226.971 306.087,-232.482 303.131,-227.985 307,-229 307,-229 307,-229 303.131,-227.985 307.913,-225.518 299.262,-226.971 299.262,-226.971"/>
<ellipse fill="none" stroke="black" cx="296.166" cy="-226.159" rx="3.2" ry="3.2"/>
</g>
<!-- core_pulpexporter -->
<g id="node3" class="node"><title>core_pulpexporter</title>
<g id="a_node3"><a xlink:href="../../tables/core_pulpexporter.html" xlink:title="core_pulpexporter" target="_top">
<polygon fill="#ffffff" stroke="none" points="295,-37 295,-139 449,-139 449,-37 295,-37"/>
<polygon fill="#f5f5f5" stroke="none" points="295,-117 295,-139 449,-139 449,-117 295,-117"/>
<polygon fill="none" stroke="black" points="295,-117 295,-139 449,-139 449,-117 295,-117"/>
<text text-anchor="start" x="300" y="-126.2" font-family="Helvetica,sans-Serif" font-weight="bold" font-size="11.00">core_pulpexporter</text>
<text text-anchor="start" x="410" y="-125.2" font-family="Helvetica,sans-Serif" font-size="11.00">[table]</text>
<polygon fill="none" stroke="black" points="295,-95 295,-117 449,-117 449,-95 295,-95"/>
<image xlink:href="../../images/primaryKeys.png" width="11px" height="12px" preserveAspectRatio="xMinYMin meet" x="300" y="-112"/>
<text text-anchor="start" x="327" y="-103.2" font-family="Helvetica,sans-Serif" font-size="11.00">exporter_ptr_id</text>
<polygon fill="#ffffff" stroke="none" points="295,-73 295,-95 449,-95 449,-73 295,-73"/>
<polygon fill="none" stroke="black" points="295,-73 295,-95 449,-95 449,-73 295,-73"/>
<image xlink:href="../../images/foreignKeys.png" width="11px" height="12px" preserveAspectRatio="xMinYMin meet" x="300" y="-90"/>
<text text-anchor="start" x="327" y="-81.2" font-family="Helvetica,sans-Serif" font-size="11.00">last_export_id</text>
<polygon fill="none" stroke="black" points="295,-55 295,-73 449,-73 449,-55 295,-55"/>
<text text-anchor="start" x="298" y="-61.2" font-family="Helvetica,sans-Serif" font-size="11.00">...</text>
<polygon fill="#ffffff" stroke="none" points="295,-37 295,-55 351,-55 351,-37 295,-37"/>
<polygon fill="none" stroke="black" points="295,-37 295,-55 351,-55 351,-37 295,-37"/>
<text text-anchor="start" x="298" y="-43.2" font-family="Helvetica,sans-Serif" font-size="11.00">&lt; 2</text>
<polygon fill="#ffffff" stroke="none" points="351,-37 351,-55 409,-55 409,-37 351,-37"/>
<polygon fill="none" stroke="black" points="351,-37 351,-55 409,-55 409,-37 351,-37"/>
<text text-anchor="start" x="370" y="-43.2" font-family="Helvetica,sans-Serif" font-size="11.00">0 rows</text>
<polygon fill="#ffffff" stroke="none" points="409,-37 409,-55 449,-55 449,-37 409,-37"/>
<polygon fill="none" stroke="black" points="409,-37 409,-55 449,-55 449,-37 409,-37"/>
<text text-anchor="start" x="429" y="-43.2" font-family="Helvetica,sans-Serif" font-size="11.00">1 &gt;</text>
</a>
</g>
</g>
<!-- core_pulpexporter&#45;&gt;core_exporter -->
<g id="edge2" class="edge"><title>core_pulpexporter:exporter_ptr_id:w&#45;&gt;core_exporter:pulp_id.type:e</title>
<path fill="none" stroke="black" d="M283.604,-108.467C263.391,-119.879 275.564,-167 245,-167"/>
<polygon fill="black" stroke="black" points="292.298,-102.293 294.145,-110.077 292.588,-110.446 290.741,-102.662 292.298,-102.293"/>
<polyline fill="none" stroke="black" points="294,-106 290.108,-106.924 "/>
<ellipse fill="none" stroke="black" cx="286.995" cy="-107.662" rx="3.20001" ry="3.20001"/>
</g>
</g>
</svg>
