<?xml version="1.0" encoding="UTF-8" standalone="no"?>
<!DOCTYPE svg PUBLIC "-//W3C//DTD SVG 1.1//EN"
 "http://www.w3.org/Graphics/SVG/1.1/DTD/svg11.dtd">
<!-- Generated by graphviz version 2.38.0 (20140413.2041)
 -->
<!-- Title: oneDegreeRelationshipsDiagram Pages: 1 -->
<svg width="507pt" height="337pt"
 viewBox="0.00 0.00 507.00 337.00" xmlns="http://www.w3.org/2000/svg" xmlns:xlink="http://www.w3.org/1999/xlink">
<g id="graph0" class="graph" transform="scale(1 1) rotate(0) translate(4 333)">
<title>oneDegreeRelationshipsDiagram</title>
<polygon fill="#ffffff" stroke="none" points="-4,4 -4,-333 503,-333 503,4 -4,4"/>
<text text-anchor="middle" x="74.5" y="-7.2" font-family="Helvetica,sans-Serif" font-size="11.00">Generated by SchemaSpy</text>
<!-- core_exportedresource -->
<g id="node1" class="node"><title>core_exportedresource</title>
<g id="a_node1"><a xlink:href="../../tables/core_exportedresource.html" xlink:title="core_exportedresource" target="_top">
<polygon fill="#ffffff" stroke="none" points="224,-149 224,-325 491,-325 491,-149 224,-149"/>
<polygon fill="#f5f5f5" stroke="none" points="226.5,-301 226.5,-323 489.5,-323 489.5,-301 226.5,-301"/>
<polygon fill="none" stroke="black" points="226.5,-301 226.5,-323 489.5,-323 489.5,-301 226.5,-301"/>
<text text-anchor="start" x="231.5" y="-310.2" font-family="Helvetica,sans-Serif" font-weight="bold" font-size="11.00">core_exportedresource</text>
<text text-anchor="start" x="450.5" y="-309.2" font-family="Helvetica,sans-Serif" font-size="11.00">[table]</text>
<polygon fill="none" stroke="black" points="226.5,-279 226.5,-301 384.5,-301 384.5,-279 226.5,-279"/>
<image xlink:href="../../images/primaryKeys.png" width="11px" height="12px" preserveAspectRatio="xMinYMin meet" x="231.5" y="-296"/>
<text text-anchor="start" x="246.5" y="-287.2" font-family="Helvetica,sans-Serif" font-size="11.00">pulp_id</text>
<polygon fill="none" stroke="black" points="384.5,-279 384.5,-301 489.5,-301 489.5,-279 384.5,-279"/>
<text text-anchor="start" x="387.5" y="-287.2" font-family="Helvetica,sans-Serif" font-size="11.00">uuid[2147483647]</text>
<polygon fill="none" stroke="black" points="226.5,-257 226.5,-279 384.5,-279 384.5,-257 226.5,-257"/>
<text text-anchor="start" x="246.5" y="-265.2" font-family="Helvetica,sans-Serif" font-size="11.00">pulp_created</text>
<polygon fill="none" stroke="black" points="384.5,-257 384.5,-279 489.5,-279 489.5,-257 384.5,-257"/>
<text text-anchor="start" x="387.5" y="-265.2" font-family="Helvetica,sans-Serif" font-size="11.00">timestamptz[35,6]</text>
<polygon fill="none" stroke="black" points="226.5,-235 226.5,-257 384.5,-257 384.5,-235 226.5,-235"/>
<text text-anchor="start" x="246.5" y="-243.2" font-family="Helvetica,sans-Serif" font-size="11.00">pulp_last_updated</text>
<polygon fill="none" stroke="black" points="384.5,-235 384.5,-257 489.5,-257 489.5,-235 384.5,-235"/>
<text text-anchor="start" x="387.5" y="-243.2" font-family="Helvetica,sans-Serif" font-size="11.00">timestamptz[35,6]</text>
<polygon fill="none" stroke="black" points="226.5,-213 226.5,-235 384.5,-235 384.5,-213 226.5,-213"/>
<text text-anchor="start" x="246.5" y="-221.2" font-family="Helvetica,sans-Serif" font-size="11.00">object_id</text>
<polygon fill="none" stroke="black" points="384.5,-213 384.5,-235 489.5,-235 489.5,-213 384.5,-213"/>
<text text-anchor="start" x="387.5" y="-221.2" font-family="Helvetica,sans-Serif" font-size="11.00">uuid[2147483647]</text>
<polygon fill="#ffffff" stroke="none" points="226.5,-191 226.5,-213 384.5,-213 384.5,-191 226.5,-191"/>
<polygon fill="none" stroke="black" points="226.5,-191 226.5,-213 384.5,-213 384.5,-191 226.5,-191"/>
<image xlink:href="../../images/foreignKeys.png" width="11px" height="12px" preserveAspectRatio="xMinYMin meet" x="231.5" y="-208"/>
<text text-anchor="start" x="246.5" y="-199.2" font-family="Helvetica,sans-Serif" font-size="11.00">content_type_id</text>
<polygon fill="none" stroke="black" points="384.5,-191 384.5,-213 489.5,-213 489.5,-191 384.5,-191"/>
<text text-anchor="start" x="387.5" y="-199.2" font-family="Helvetica,sans-Serif" font-size="11.00">int4[10]</text>
<polygon fill="#ffffff" stroke="none" points="226.5,-169 226.5,-191 384.5,-191 384.5,-169 226.5,-169"/>
<polygon fill="none" stroke="black" points="226.5,-169 226.5,-191 384.5,-191 384.5,-169 226.5,-169"/>
<image xlink:href="../../images/foreignKeys.png" width="11px" height="12px" preserveAspectRatio="xMinYMin meet" x="231.5" y="-186"/>
<text text-anchor="start" x="246.5" y="-177.2" font-family="Helvetica,sans-Serif" font-size="11.00">export_id</text>
<polygon fill="none" stroke="black" points="384.5,-169 384.5,-191 489.5,-191 489.5,-169 384.5,-169"/>
<text text-anchor="start" x="387.5" y="-177.2" font-family="Helvetica,sans-Serif" font-size="11.00">uuid[2147483647]</text>
<polygon fill="#ffffff" stroke="none" points="226.5,-151 226.5,-169 295.5,-169 295.5,-151 226.5,-151"/>
<polygon fill="none" stroke="black" points="226.5,-151 226.5,-169 295.5,-169 295.5,-151 226.5,-151"/>
<text text-anchor="start" x="229.5" y="-157.2" font-family="Helvetica,sans-Serif" font-size="11.00">&lt; 2</text>
<polygon fill="#ffffff" stroke="none" points="295.5,-151 295.5,-169 384.5,-169 384.5,-151 295.5,-151"/>
<polygon fill="none" stroke="black" points="295.5,-151 295.5,-169 384.5,-169 384.5,-151 295.5,-151"/>
<text text-anchor="start" x="345.5" y="-157.2" font-family="Helvetica,sans-Serif" font-size="11.00">0 rows</text>
<polygon fill="#ffffff" stroke="none" points="384.5,-151 384.5,-169 489.5,-169 489.5,-151 384.5,-151"/>
<polygon fill="none" stroke="black" points="384.5,-151 384.5,-169 489.5,-169 489.5,-151 384.5,-151"/>
<text text-anchor="start" x="469.5" y="-157.2" font-family="Helvetica,sans-Serif" font-size="11.00">0 &gt;</text>
<polygon fill="none" stroke="black" stroke-width="2" points="225,-150 225,-324 490,-324 490,-150 225,-150"/>
</a>
</g>
</g>
<!-- django_content_type -->
<g id="node2" class="node"><title>django_content_type</title>
<g id="a_node2"><a xlink:href="../../tables/django_content_type.html" xlink:title="django_content_type" target="_top">
<polygon fill="#ffffff" stroke="none" points="8,-182 8,-288 175,-288 175,-182 8,-182"/>
<polygon fill="#f5f5f5" stroke="none" points="8.5,-266 8.5,-288 175.5,-288 175.5,-266 8.5,-266"/>
<polygon fill="none" stroke="black" points="8.5,-266 8.5,-288 175.5,-288 175.5,-266 8.5,-266"/>
<text text-anchor="start" x="13.5" y="-275.2" font-family="Helvetica,sans-Serif" font-weight="bold" font-size="11.00">django_content_type</text>
<text text-anchor="start" x="136.5" y="-274.2" font-family="Helvetica,sans-Serif" font-size="11.00">[table]</text>
<polygon fill="none" stroke="black" points="8.5,-244 8.5,-266 175.5,-266 175.5,-244 8.5,-244"/>
<image xlink:href="../../images/primaryKeys.png" width="11px" height="12px" preserveAspectRatio="xMinYMin meet" x="13.5" y="-261"/>
<text text-anchor="start" x="39.5" y="-252.2" font-family="Helvetica,sans-Serif" font-size="11.00">id</text>
<polygon fill="#ffffff" stroke="none" points="8.5,-222 8.5,-244 175.5,-244 175.5,-222 8.5,-222"/>
<polygon fill="none" stroke="black" points="8.5,-222 8.5,-244 175.5,-244 175.5,-222 8.5,-222"/>
<text text-anchor="start" x="39.5" y="-230.2" font-family="Helvetica,sans-Serif" font-size="11.00">app_label</text>
<polygon fill="#ffffff" stroke="none" points="8.5,-200 8.5,-222 175.5,-222 175.5,-200 8.5,-200"/>
<polygon fill="none" stroke="black" points="8.5,-200 8.5,-222 175.5,-222 175.5,-200 8.5,-200"/>
<text text-anchor="start" x="39.5" y="-208.2" font-family="Helvetica,sans-Serif" font-size="11.00">model</text>
<polygon fill="#ffffff" stroke="none" points="8.5,-182 8.5,-200 62.5,-200 62.5,-182 8.5,-182"/>
<polygon fill="none" stroke="black" points="8.5,-182 8.5,-200 62.5,-200 62.5,-182 8.5,-182"/>
<text text-anchor="start" x="11.5" y="-188.2" font-family="Helvetica,sans-Serif" font-size="11.00"> &#160;</text>
<polygon fill="#ffffff" stroke="none" points="62.5,-182 62.5,-200 131.5,-200 131.5,-182 62.5,-182"/>
<polygon fill="none" stroke="black" points="62.5,-182 62.5,-200 131.5,-200 131.5,-182 62.5,-182"/>
<text text-anchor="start" x="85.5" y="-188.2" font-family="Helvetica,sans-Serif" font-size="11.00">79 rows</text>
<polygon fill="#ffffff" stroke="none" points="131.5,-182 131.5,-200 175.5,-200 175.5,-182 131.5,-182"/>
<polygon fill="none" stroke="black" points="131.5,-182 131.5,-200 175.5,-200 175.5,-182 131.5,-182"/>
<text text-anchor="start" x="155.5" y="-188.2" font-family="Helvetica,sans-Serif" font-size="11.00">6 &gt;</text>
</a>
</g>
</g>
<!-- core_exportedresource&#45;&gt;django_content_type -->
<g id="edge1" class="edge"><title>core_exportedresource:content_type_id:w&#45;&gt;django_content_type:id:e</title>
<path fill="none" stroke="black" d="M211.815,-206.891C197.444,-220.012 202.565,-255 176.5,-255"/>
<polygon fill="black" stroke="black" points="217.967,-204.692 226.712,-205.39 221.733,-203.346 225.5,-202 225.5,-202 225.5,-202 221.733,-203.346 224.288,-198.61 217.967,-204.692 217.967,-204.692"/>
<ellipse fill="none" stroke="black" cx="214.953" cy="-205.769" rx="3.20001" ry="3.20001"/>
</g>
<!-- core_export -->
<g id="node3" class="node"><title>core_export</title>
<g id="a_node3"><a xlink:href="../../tables/core_export.html" xlink:title="core_export" target="_top">
<polygon fill="#ffffff" stroke="none" points="27,-37 27,-161 156,-161 156,-37 27,-37"/>
<polygon fill="#f5f5f5" stroke="none" points="27.5,-139 27.5,-161 156.5,-161 156.5,-139 27.5,-139"/>
<polygon fill="none" stroke="black" points="27.5,-139 27.5,-161 156.5,-161 156.5,-139 27.5,-139"/>
<text text-anchor="start" x="32.5" y="-148.2" font-family="Helvetica,sans-Serif" font-weight="bold" font-size="11.00">core_export</text>
<text text-anchor="start" x="117.5" y="-147.2" font-family="Helvetica,sans-Serif" font-size="11.00">[table]</text>
<polygon fill="none" stroke="black" points="27.5,-117 27.5,-139 156.5,-139 156.5,-117 27.5,-117"/>
<image xlink:href="../../images/primaryKeys.png" width="11px" height="12px" preserveAspectRatio="xMinYMin meet" x="32.5" y="-134"/>
<text text-anchor="start" x="47.5" y="-125.2" font-family="Helvetica,sans-Serif" font-size="11.00">pulp_id</text>
<polygon fill="#ffffff" stroke="none" points="27.5,-95 27.5,-117 156.5,-117 156.5,-95 27.5,-95"/>
<polygon fill="none" stroke="black" points="27.5,-95 27.5,-117 156.5,-117 156.5,-95 27.5,-95"/>
<image xlink:href="../../images/foreignKeys.png" width="11px" height="12px" preserveAspectRatio="xMinYMin meet" x="32.5" y="-112"/>
<text text-anchor="start" x="47.5" y="-103.2" font-family="Helvetica,sans-Serif" font-size="11.00">exporter_id</text>
<polygon fill="#ffffff" stroke="none" points="27.5,-73 27.5,-95 156.5,-95 156.5,-73 27.5,-73"/>
<polygon fill="none" stroke="black" points="27.5,-73 27.5,-95 156.5,-95 156.5,-73 27.5,-73"/>
<image xlink:href="../../images/foreignKeys.png" width="11px" height="12px" preserveAspectRatio="xMinYMin meet" x="32.5" y="-90"/>
<text text-anchor="start" x="47.5" y="-81.2" font-family="Helvetica,sans-Serif" font-size="11.00">task_id</text>
<polygon fill="none" stroke="black" points="27.5,-55 27.5,-73 156.5,-73 156.5,-55 27.5,-55"/>
<text text-anchor="start" x="30.5" y="-61.2" font-family="Helvetica,sans-Serif" font-size="11.00">...</text>
<polygon fill="#ffffff" stroke="none" points="27.5,-37 27.5,-55 70.5,-55 70.5,-37 27.5,-37"/>
<polygon fill="none" stroke="black" points="27.5,-37 27.5,-55 70.5,-55 70.5,-37 27.5,-37"/>
<text text-anchor="start" x="30.5" y="-43.2" font-family="Helvetica,sans-Serif" font-size="11.00">&lt; 2</text>
<polygon fill="#ffffff" stroke="none" points="70.5,-37 70.5,-55 122.5,-55 122.5,-37 70.5,-37"/>
<polygon fill="none" stroke="black" points="70.5,-37 70.5,-55 122.5,-55 122.5,-37 70.5,-37"/>
<text text-anchor="start" x="83.5" y="-43.2" font-family="Helvetica,sans-Serif" font-size="11.00">0 rows</text>
<polygon fill="#ffffff" stroke="none" points="122.5,-37 122.5,-55 156.5,-55 156.5,-37 122.5,-37"/>
<polygon fill="none" stroke="black" points="122.5,-37 122.5,-55 156.5,-55 156.5,-37 122.5,-37"/>
<text text-anchor="start" x="136.5" y="-43.2" font-family="Helvetica,sans-Serif" font-size="11.00">2 &gt;</text>
</a>
</g>
</g>
<!-- core_exportedresource&#45;&gt;core_export -->
<g id="edge2" class="edge"><title>core_exportedresource:export_id:w&#45;&gt;core_export:pulp_id:e</title>
<path fill="none" stroke="black" d="M211.306,-176.903C188.84,-165.708 189.899,-128 157.5,-128"/>
<polygon fill="black" stroke="black" points="217.684,-178.295 224.733,-183.517 221.592,-179.147 225.5,-180 225.5,-180 225.5,-180 221.592,-179.147 226.267,-176.483 217.684,-178.295 217.684,-178.295"/>
<ellipse fill="none" stroke="black" cx="214.557" cy="-177.612" rx="3.2" ry="3.2"/>
</g>
</g>
</svg>
