<?xml version="1.0" encoding="UTF-8" standalone="no"?>
<!DOCTYPE svg PUBLIC "-//W3C//DTD SVG 1.1//EN"
 "http://www.w3.org/Graphics/SVG/1.1/DTD/svg11.dtd">
<!-- Generated by graphviz version 2.38.0 (20140413.2041)
 -->
<!-- Title: twoDegreesRelationshipsDiagram Pages: 1 -->
<svg width="993pt" height="780pt"
 viewBox="0.00 0.00 993.00 780.00" xmlns="http://www.w3.org/2000/svg" xmlns:xlink="http://www.w3.org/1999/xlink">
<g id="graph0" class="graph" transform="scale(1 1) rotate(0) translate(4 776)">
<title>twoDegreesRelationshipsDiagram</title>
<polygon fill="#ffffff" stroke="none" points="-4,4 -4,-776 989,-776 989,4 -4,4"/>
<text text-anchor="middle" x="74.5" y="-7.2" font-family="Helvetica,sans-Serif" font-size="11.00">Generated by SchemaSpy</text>
<!-- ansible_ansibledistribution -->
<g id="node1" class="node"><title>ansible_ansibledistribution</title>
<g id="a_node1"><a xlink:href="../../tables/ansible_ansibledistribution.html" xlink:title="ansible_ansibledistribution" target="_top">
<polygon fill="#ffffff" stroke="none" points="758,-474 758,-532 963,-532 963,-474 758,-474"/>
<polygon fill="#f5f5f5" stroke="none" points="758.5,-510 758.5,-532 963.5,-532 963.5,-510 758.5,-510"/>
<polygon fill="none" stroke="black" points="758.5,-510 758.5,-532 963.5,-532 963.5,-510 758.5,-510"/>
<text text-anchor="start" x="763.5" y="-519.2" font-family="Helvetica,sans-Serif" font-weight="bold" font-size="11.00">ansible_ansibledistribution</text>
<text text-anchor="start" x="924.5" y="-518.2" font-family="Helvetica,sans-Serif" font-size="11.00">[table]</text>
<polygon fill="none" stroke="black" points="758.5,-492 758.5,-510 963.5,-510 963.5,-492 758.5,-492"/>
<text text-anchor="start" x="761.5" y="-498.2" font-family="Helvetica,sans-Serif" font-size="11.00">...</text>
<polygon fill="#ffffff" stroke="none" points="758.5,-474 758.5,-492 841.5,-492 841.5,-474 758.5,-474"/>
<polygon fill="none" stroke="black" points="758.5,-474 758.5,-492 841.5,-492 841.5,-474 758.5,-474"/>
<text text-anchor="start" x="761.5" y="-480.2" font-family="Helvetica,sans-Serif" font-size="11.00">&lt; 3</text>
<polygon fill="#ffffff" stroke="none" points="841.5,-474 841.5,-492 920.5,-492 920.5,-474 841.5,-474"/>
<polygon fill="none" stroke="black" points="841.5,-474 841.5,-492 920.5,-492 920.5,-474 841.5,-474"/>
<text text-anchor="start" x="874.5" y="-480.2" font-family="Helvetica,sans-Serif" font-size="11.00">32 rows</text>
<polygon fill="#ffffff" stroke="none" points="920.5,-474 920.5,-492 963.5,-492 963.5,-474 920.5,-474"/>
<polygon fill="none" stroke="black" points="920.5,-474 920.5,-492 963.5,-492 963.5,-474 920.5,-474"/>
<text text-anchor="start" x="953.5" y="-480.2" font-family="Helvetica,sans-Serif" font-size="11.00"> &#160;</text>
</a>
</g>
</g>
<!-- core_repository -->
<g id="node2" class="node"><title>core_repository</title>
<g id="a_node2"><a xlink:href="../../tables/core_repository.html" xlink:title="core_repository" target="_top">
<polygon fill="#ffffff" stroke="none" points="196.5,-382 196.5,-506 333.5,-506 333.5,-382 196.5,-382"/>
<polygon fill="#f5f5f5" stroke="none" points="197,-484 197,-506 334,-506 334,-484 197,-484"/>
<polygon fill="none" stroke="black" points="197,-484 197,-506 334,-506 334,-484 197,-484"/>
<text text-anchor="start" x="202" y="-493.2" font-family="Helvetica,sans-Serif" font-weight="bold" font-size="11.00">core_repository</text>
<text text-anchor="start" x="295" y="-492.2" font-family="Helvetica,sans-Serif" font-size="11.00">[table]</text>
<polygon fill="none" stroke="black" points="197,-462 197,-484 334,-484 334,-462 197,-462"/>
<image xlink:href="../../images/primaryKeys.png" width="11px" height="12px" preserveAspectRatio="xMinYMin meet" x="202" y="-479"/>
<text text-anchor="start" x="221" y="-470.2" font-family="Helvetica,sans-Serif" font-size="11.00">pulp_id</text>
<polygon fill="#ffffff" stroke="none" points="197,-440 197,-462 334,-462 334,-440 197,-440"/>
<polygon fill="none" stroke="black" points="197,-440 197,-462 334,-462 334,-440 197,-440"/>
<text text-anchor="start" x="221" y="-448.2" font-family="Helvetica,sans-Serif" font-size="11.00">name</text>
<polygon fill="#ffffff" stroke="none" points="197,-418 197,-440 334,-440 334,-418 197,-418"/>
<polygon fill="none" stroke="black" points="197,-418 197,-440 334,-440 334,-418 197,-418"/>
<image xlink:href="../../images/foreignKeys.png" width="11px" height="12px" preserveAspectRatio="xMinYMin meet" x="202" y="-435"/>
<text text-anchor="start" x="221" y="-426.2" font-family="Helvetica,sans-Serif" font-size="11.00">remote_id</text>
<polygon fill="none" stroke="black" points="197,-400 197,-418 334,-418 334,-400 197,-400"/>
<text text-anchor="start" x="200" y="-406.2" font-family="Helvetica,sans-Serif" font-size="11.00">...</text>
<polygon fill="#ffffff" stroke="none" points="197,-382 197,-400 237,-400 237,-382 197,-382"/>
<polygon fill="none" stroke="black" points="197,-382 197,-400 237,-400 237,-382 197,-382"/>
<text text-anchor="start" x="200" y="-388.2" font-family="Helvetica,sans-Serif" font-size="11.00">&lt; 1</text>
<polygon fill="#ffffff" stroke="none" points="237,-382 237,-400 295,-400 295,-382 237,-382"/>
<polygon fill="none" stroke="black" points="237,-382 237,-400 295,-400 295,-382 237,-382"/>
<text text-anchor="start" x="249" y="-388.2" font-family="Helvetica,sans-Serif" font-size="11.00">26 rows</text>
<polygon fill="#ffffff" stroke="none" points="295,-382 295,-400 334,-400 334,-382 295,-382"/>
<polygon fill="none" stroke="black" points="295,-382 295,-400 334,-400 334,-382 295,-382"/>
<text text-anchor="start" x="307" y="-388.2" font-family="Helvetica,sans-Serif" font-size="11.00">10 &gt;</text>
</a>
</g>
</g>
<!-- ansible_ansibledistribution&#45;&gt;core_repository -->
<g id="edge1" class="edge"><title>ansible_ansibledistribution:elipses:w&#45;&gt;core_repository:pulp_id:e</title>
<path fill="none" stroke="black" d="M742.745,-501.038C588.651,-501.836 542.86,-514.604 384,-488 361.537,-484.238 357.775,-473 335,-473"/>
<polygon fill="black" stroke="black" points="749.5,-501.021 757.509,-504.6 753.5,-501.01 757.5,-501 757.5,-501 757.5,-501 753.5,-501.01 757.491,-497.4 749.5,-501.021 749.5,-501.021"/>
<ellipse fill="none" stroke="black" cx="746.3" cy="-501.029" rx="3.2" ry="3.2"/>
</g>
<!-- core_repositoryversion -->
<g id="node3" class="node"><title>core_repositoryversion</title>
<g id="a_node3"><a xlink:href="../../tables/core_repositoryversion.html" xlink:title="core_repositoryversion" target="_top">
<polygon fill="#ffffff" stroke="none" points="454,-525 454,-583 633,-583 633,-525 454,-525"/>
<polygon fill="#f5f5f5" stroke="none" points="454.5,-561 454.5,-583 633.5,-583 633.5,-561 454.5,-561"/>
<polygon fill="none" stroke="black" points="454.5,-561 454.5,-583 633.5,-583 633.5,-561 454.5,-561"/>
<text text-anchor="start" x="459.5" y="-570.2" font-family="Helvetica,sans-Serif" font-weight="bold" font-size="11.00">core_repositoryversion</text>
<text text-anchor="start" x="594.5" y="-569.2" font-family="Helvetica,sans-Serif" font-size="11.00">[table]</text>
<polygon fill="none" stroke="black" points="454.5,-543 454.5,-561 633.5,-561 633.5,-543 454.5,-543"/>
<text text-anchor="start" x="457.5" y="-549.2" font-family="Helvetica,sans-Serif" font-size="11.00">...</text>
<polygon fill="#ffffff" stroke="none" points="454.5,-525 454.5,-543 516.5,-543 516.5,-525 454.5,-525"/>
<polygon fill="none" stroke="black" points="454.5,-525 454.5,-543 516.5,-543 516.5,-525 454.5,-525"/>
<text text-anchor="start" x="457.5" y="-531.2" font-family="Helvetica,sans-Serif" font-size="11.00">&lt; 2</text>
<polygon fill="#ffffff" stroke="none" points="516.5,-525 516.5,-543 590.5,-543 590.5,-525 516.5,-525"/>
<polygon fill="none" stroke="black" points="516.5,-525 516.5,-543 590.5,-543 590.5,-525 516.5,-525"/>
<text text-anchor="start" x="538.5" y="-531.2" font-family="Helvetica,sans-Serif" font-size="11.00">162 rows</text>
<polygon fill="#ffffff" stroke="none" points="590.5,-525 590.5,-543 633.5,-543 633.5,-525 590.5,-525"/>
<polygon fill="none" stroke="black" points="590.5,-525 590.5,-543 633.5,-543 633.5,-525 590.5,-525"/>
<text text-anchor="start" x="613.5" y="-531.2" font-family="Helvetica,sans-Serif" font-size="11.00">7 &gt;</text>
</a>
</g>
</g>
<!-- ansible_ansibledistribution&#45;&gt;core_repositoryversion -->
<g id="edge2" class="edge"><title>ansible_ansibledistribution:elipses:w&#45;&gt;core_repositoryversion:elipses:e</title>
<path fill="none" stroke="black" d="M743.086,-502.113C697.083,-509.571 688.478,-552 634.5,-552"/>
<polygon fill="black" stroke="black" points="749.524,-501.616 757.777,-504.589 753.512,-501.308 757.5,-501 757.5,-501 757.5,-501 753.512,-501.308 757.223,-497.411 749.524,-501.616 749.524,-501.616"/>
<ellipse fill="none" stroke="black" cx="746.333" cy="-501.862" rx="3.2" ry="3.2"/>
</g>
<!-- core_remote -->
<g id="node13" class="node"><title>core_remote</title>
<g id="a_node13"><a xlink:href="../../tables/core_remote.html" xlink:title="core_remote" target="_top">
<polygon fill="#ffffff" stroke="none" points="13,-402 13,-460 133,-460 133,-402 13,-402"/>
<polygon fill="#f5f5f5" stroke="none" points="13,-438 13,-460 133,-460 133,-438 13,-438"/>
<polygon fill="none" stroke="black" points="13,-438 13,-460 133,-460 133,-438 13,-438"/>
<text text-anchor="start" x="18" y="-447.2" font-family="Helvetica,sans-Serif" font-weight="bold" font-size="11.00">core_remote</text>
<text text-anchor="start" x="94" y="-446.2" font-family="Helvetica,sans-Serif" font-size="11.00">[table]</text>
<polygon fill="none" stroke="black" points="13,-420 13,-438 133,-438 133,-420 13,-420"/>
<text text-anchor="start" x="16" y="-426.2" font-family="Helvetica,sans-Serif" font-size="11.00">...</text>
<polygon fill="#ffffff" stroke="none" points="13,-402 13,-420 47,-420 47,-402 13,-402"/>
<polygon fill="none" stroke="black" points="13,-402 13,-420 47,-420 47,-402 13,-402"/>
<text text-anchor="start" x="16" y="-408.2" font-family="Helvetica,sans-Serif" font-size="11.00"> &#160;</text>
<polygon fill="#ffffff" stroke="none" points="47,-402 47,-420 99,-420 99,-402 47,-402"/>
<polygon fill="none" stroke="black" points="47,-402 47,-420 99,-420 99,-402 47,-402"/>
<text text-anchor="start" x="60" y="-408.2" font-family="Helvetica,sans-Serif" font-size="11.00">7 rows</text>
<polygon fill="#ffffff" stroke="none" points="99,-402 99,-420 133,-420 133,-402 99,-402"/>
<polygon fill="none" stroke="black" points="99,-402 99,-420 133,-420 133,-402 99,-402"/>
<text text-anchor="start" x="113" y="-408.2" font-family="Helvetica,sans-Serif" font-size="11.00">6 &gt;</text>
</a>
</g>
</g>
<!-- core_repository&#45;&gt;core_remote -->
<g id="edge13" class="edge"><title>core_repository:remote_id:w&#45;&gt;core_remote:elipses:e</title>
<path fill="none" stroke="black" d="M181.42,-429C164.793,-429 155.958,-429 134,-429"/>
<polygon fill="black" stroke="black" points="188,-429 196,-432.6 192,-429 196,-429 196,-429 196,-429 192,-429 196,-425.4 188,-429 188,-429"/>
<ellipse fill="none" stroke="black" cx="184.8" cy="-429" rx="3.2" ry="3.2"/>
</g>
<!-- core_repositoryversion&#45;&gt;core_repository -->
<g id="edge17" class="edge"><title>core_repositoryversion:elipses:w&#45;&gt;core_repository:pulp_id:e</title>
<path fill="none" stroke="black" d="M439.127,-550.624C415.833,-545.661 409.153,-528.072 384,-511 361.197,-495.523 362.559,-473 335,-473"/>
<polygon fill="black" stroke="black" points="445.536,-551.238 453.157,-555.584 449.518,-551.619 453.5,-552 453.5,-552 453.5,-552 449.518,-551.619 453.843,-548.416 445.536,-551.238 445.536,-551.238"/>
<ellipse fill="none" stroke="black" cx="442.351" cy="-550.933" rx="3.2" ry="3.2"/>
</g>
<!-- ansible_ansiblerepository -->
<g id="node4" class="node"><title>ansible_ansiblerepository</title>
<g id="a_node4"><a xlink:href="../../tables/ansible_ansiblerepository.html" xlink:title="ansible_ansiblerepository" target="_top">
<polygon fill="#ffffff" stroke="none" points="446,-419 446,-477 641,-477 641,-419 446,-419"/>
<polygon fill="#f5f5f5" stroke="none" points="446.5,-455 446.5,-477 641.5,-477 641.5,-455 446.5,-455"/>
<polygon fill="none" stroke="black" points="446.5,-455 446.5,-477 641.5,-477 641.5,-455 446.5,-455"/>
<text text-anchor="start" x="451.5" y="-464.2" font-family="Helvetica,sans-Serif" font-weight="bold" font-size="11.00">ansible_ansiblerepository</text>
<text text-anchor="start" x="602.5" y="-463.2" font-family="Helvetica,sans-Serif" font-size="11.00">[table]</text>
<polygon fill="none" stroke="black" points="446.5,-437 446.5,-455 641.5,-455 641.5,-437 446.5,-437"/>
<text text-anchor="start" x="449.5" y="-443.2" font-family="Helvetica,sans-Serif" font-size="11.00">...</text>
<polygon fill="#ffffff" stroke="none" points="446.5,-419 446.5,-437 519.5,-437 519.5,-419 446.5,-419"/>
<polygon fill="none" stroke="black" points="446.5,-419 446.5,-437 519.5,-437 519.5,-419 446.5,-419"/>
<text text-anchor="start" x="449.5" y="-425.2" font-family="Helvetica,sans-Serif" font-size="11.00">&lt; 1</text>
<polygon fill="#ffffff" stroke="none" points="519.5,-419 519.5,-437 593.5,-437 593.5,-419 519.5,-419"/>
<polygon fill="none" stroke="black" points="519.5,-419 519.5,-437 593.5,-437 593.5,-419 519.5,-419"/>
<text text-anchor="start" x="547.5" y="-425.2" font-family="Helvetica,sans-Serif" font-size="11.00">26 rows</text>
<polygon fill="#ffffff" stroke="none" points="593.5,-419 593.5,-437 641.5,-437 641.5,-419 593.5,-419"/>
<polygon fill="none" stroke="black" points="593.5,-419 593.5,-437 641.5,-437 641.5,-419 593.5,-419"/>
<text text-anchor="start" x="621.5" y="-425.2" font-family="Helvetica,sans-Serif" font-size="11.00">2 &gt;</text>
</a>
</g>
</g>
<!-- ansible_ansiblerepository&#45;&gt;core_repository -->
<g id="edge3" class="edge"><title>ansible_ansiblerepository:elipses:w&#45;&gt;core_repository:pulp_id:e</title>
<path fill="none" stroke="black" d="M434.89,-446.424C393.324,-449.859 381.804,-473 335,-473"/>
<polygon fill="black" stroke="black" points="444.541,-442.035 444.86,-450.029 443.262,-450.093 442.942,-442.099 444.541,-442.035"/>
<polyline fill="none" stroke="black" points="445.5,-446 441.503,-446.16 "/>
<ellipse fill="none" stroke="black" cx="438.306" cy="-446.288" rx="3.2" ry="3.2"/>
</g>
<!-- container_containerdistribution -->
<g id="node5" class="node"><title>container_containerdistribution</title>
<g id="a_node5"><a xlink:href="../../tables/container_containerdistribution.html" xlink:title="container_containerdistribution" target="_top">
<polygon fill="#ffffff" stroke="none" points="744,-381 744,-439 977,-439 977,-381 744,-381"/>
<polygon fill="#f5f5f5" stroke="none" points="744.5,-417 744.5,-439 977.5,-439 977.5,-417 744.5,-417"/>
<polygon fill="none" stroke="black" points="744.5,-417 744.5,-439 977.5,-439 977.5,-417 744.5,-417"/>
<text text-anchor="start" x="749.5" y="-426.2" font-family="Helvetica,sans-Serif" font-weight="bold" font-size="11.00">container_containerdistribution</text>
<text text-anchor="start" x="938.5" y="-425.2" font-family="Helvetica,sans-Serif" font-size="11.00">[table]</text>
<polygon fill="none" stroke="black" points="744.5,-399 744.5,-417 977.5,-417 977.5,-399 744.5,-399"/>
<text text-anchor="start" x="747.5" y="-405.2" font-family="Helvetica,sans-Serif" font-size="11.00">...</text>
<polygon fill="#ffffff" stroke="none" points="744.5,-381 744.5,-399 844.5,-399 844.5,-381 744.5,-381"/>
<polygon fill="none" stroke="black" points="744.5,-381 744.5,-399 844.5,-399 844.5,-381 744.5,-381"/>
<text text-anchor="start" x="747.5" y="-387.2" font-family="Helvetica,sans-Serif" font-size="11.00">&lt; 3</text>
<polygon fill="#ffffff" stroke="none" points="844.5,-381 844.5,-399 925.5,-399 925.5,-381 844.5,-381"/>
<polygon fill="none" stroke="black" points="844.5,-381 844.5,-399 925.5,-399 925.5,-381 844.5,-381"/>
<text text-anchor="start" x="886.5" y="-387.2" font-family="Helvetica,sans-Serif" font-size="11.00">0 rows</text>
<polygon fill="#ffffff" stroke="none" points="925.5,-381 925.5,-399 977.5,-399 977.5,-381 925.5,-381"/>
<polygon fill="none" stroke="black" points="925.5,-381 925.5,-399 977.5,-399 977.5,-381 925.5,-381"/>
<text text-anchor="start" x="967.5" y="-387.2" font-family="Helvetica,sans-Serif" font-size="11.00"> &#160;</text>
</a>
</g>
</g>
<!-- container_containerdistribution&#45;&gt;core_repository -->
<g id="edge4" class="edge"><title>container_containerdistribution:elipses:w&#45;&gt;core_repository:pulp_id:e</title>
<path fill="none" stroke="black" d="M729.014,-407.698C640.874,-404.379 451.598,-375.502 384,-409 351.901,-424.906 370.824,-473 335,-473"/>
<polygon fill="black" stroke="black" points="735.502,-407.833 743.425,-411.599 739.501,-407.916 743.5,-408 743.5,-408 743.5,-408 739.501,-407.916 743.575,-404.401 735.502,-407.833 735.502,-407.833"/>
<ellipse fill="none" stroke="black" cx="732.302" cy="-407.766" rx="3.2" ry="3.2"/>
</g>
<!-- container_containerdistribution&#45;&gt;core_repositoryversion -->
<g id="edge5" class="edge"><title>container_containerdistribution:elipses:w&#45;&gt;core_repositoryversion:elipses:e</title>
<path fill="none" stroke="black" d="M729.292,-411.123C709.645,-422.287 723.282,-460.985 703,-488 677.985,-521.32 676.165,-552 634.5,-552"/>
<polygon fill="black" stroke="black" points="735.687,-409.718 744.273,-411.516 739.593,-408.859 743.5,-408 743.5,-408 743.5,-408 739.593,-408.859 742.727,-404.484 735.687,-409.718 735.687,-409.718"/>
<ellipse fill="none" stroke="black" cx="732.561" cy="-410.405" rx="3.2" ry="3.2"/>
</g>
<!-- container_containerpushrepository -->
<g id="node6" class="node"><title>container_containerpushrepository</title>
<g id="a_node6"><a xlink:href="../../tables/container_containerpushrepository.html" xlink:title="container_containerpushrepository" target="_top">
<polygon fill="#ffffff" stroke="none" points="418,-313 418,-371 669,-371 669,-313 418,-313"/>
<polygon fill="#f5f5f5" stroke="none" points="418.5,-349 418.5,-371 669.5,-371 669.5,-349 418.5,-349"/>
<polygon fill="none" stroke="black" points="418.5,-349 418.5,-371 669.5,-371 669.5,-349 418.5,-349"/>
<text text-anchor="start" x="423.5" y="-358.2" font-family="Helvetica,sans-Serif" font-weight="bold" font-size="11.00">container_containerpushrepository</text>
<text text-anchor="start" x="630.5" y="-357.2" font-family="Helvetica,sans-Serif" font-size="11.00">[table]</text>
<polygon fill="none" stroke="black" points="418.5,-331 418.5,-349 669.5,-349 669.5,-331 418.5,-331"/>
<text text-anchor="start" x="421.5" y="-337.2" font-family="Helvetica,sans-Serif" font-size="11.00">...</text>
<polygon fill="#ffffff" stroke="none" points="418.5,-313 418.5,-331 527.5,-331 527.5,-313 418.5,-313"/>
<polygon fill="none" stroke="black" points="418.5,-313 418.5,-331 527.5,-331 527.5,-313 418.5,-313"/>
<text text-anchor="start" x="421.5" y="-319.2" font-family="Helvetica,sans-Serif" font-size="11.00">&lt; 1</text>
<polygon fill="#ffffff" stroke="none" points="527.5,-313 527.5,-331 612.5,-331 612.5,-313 527.5,-313"/>
<polygon fill="none" stroke="black" points="527.5,-313 527.5,-331 612.5,-331 612.5,-313 527.5,-313"/>
<text text-anchor="start" x="573.5" y="-319.2" font-family="Helvetica,sans-Serif" font-size="11.00">0 rows</text>
<polygon fill="#ffffff" stroke="none" points="612.5,-313 612.5,-331 669.5,-331 669.5,-313 612.5,-313"/>
<polygon fill="none" stroke="black" points="612.5,-313 612.5,-331 669.5,-331 669.5,-313 612.5,-313"/>
<text text-anchor="start" x="659.5" y="-319.2" font-family="Helvetica,sans-Serif" font-size="11.00"> &#160;</text>
</a>
</g>
</g>
<!-- container_containerpushrepository&#45;&gt;core_repository -->
<g id="edge6" class="edge"><title>container_containerpushrepository:elipses:w&#45;&gt;core_repository:pulp_id:e</title>
<path fill="none" stroke="black" d="M406.849,-341.232C353.949,-354.64 400.62,-473 335,-473"/>
<polygon fill="black" stroke="black" points="416.246,-336.118 417.165,-344.065 415.575,-344.249 414.656,-336.302 416.246,-336.118"/>
<polyline fill="none" stroke="black" points="417.5,-340 413.526,-340.46 "/>
<ellipse fill="none" stroke="black" cx="410.348" cy="-340.827" rx="3.2" ry="3.2"/>
</g>
<!-- container_containerrepository -->
<g id="node7" class="node"><title>container_containerrepository</title>
<g id="a_node7"><a xlink:href="../../tables/container_containerrepository.html" xlink:title="container_containerrepository" target="_top">
<polygon fill="#ffffff" stroke="none" points="432,-234 432,-292 655,-292 655,-234 432,-234"/>
<polygon fill="#f5f5f5" stroke="none" points="432.5,-270 432.5,-292 655.5,-292 655.5,-270 432.5,-270"/>
<polygon fill="none" stroke="black" points="432.5,-270 432.5,-292 655.5,-292 655.5,-270 432.5,-270"/>
<text text-anchor="start" x="437.5" y="-279.2" font-family="Helvetica,sans-Serif" font-weight="bold" font-size="11.00">container_containerrepository</text>
<text text-anchor="start" x="616.5" y="-278.2" font-family="Helvetica,sans-Serif" font-size="11.00">[table]</text>
<polygon fill="none" stroke="black" points="432.5,-252 432.5,-270 655.5,-270 655.5,-252 432.5,-252"/>
<text text-anchor="start" x="435.5" y="-258.2" font-family="Helvetica,sans-Serif" font-size="11.00">...</text>
<polygon fill="#ffffff" stroke="none" points="432.5,-234 432.5,-252 527.5,-252 527.5,-234 432.5,-234"/>
<polygon fill="none" stroke="black" points="432.5,-234 432.5,-252 527.5,-252 527.5,-234 432.5,-234"/>
<text text-anchor="start" x="435.5" y="-240.2" font-family="Helvetica,sans-Serif" font-size="11.00">&lt; 1</text>
<polygon fill="#ffffff" stroke="none" points="527.5,-234 527.5,-252 605.5,-252 605.5,-234 527.5,-234"/>
<polygon fill="none" stroke="black" points="527.5,-234 527.5,-252 605.5,-252 605.5,-234 527.5,-234"/>
<text text-anchor="start" x="566.5" y="-240.2" font-family="Helvetica,sans-Serif" font-size="11.00">0 rows</text>
<polygon fill="#ffffff" stroke="none" points="605.5,-234 605.5,-252 655.5,-252 655.5,-234 605.5,-234"/>
<polygon fill="none" stroke="black" points="605.5,-234 605.5,-252 655.5,-252 655.5,-234 605.5,-234"/>
<text text-anchor="start" x="645.5" y="-240.2" font-family="Helvetica,sans-Serif" font-size="11.00"> &#160;</text>
</a>
</g>
</g>
<!-- container_containerrepository&#45;&gt;core_repository -->
<g id="edge7" class="edge"><title>container_containerrepository:elipses:w&#45;&gt;core_repository:pulp_id:e</title>
<path fill="none" stroke="black" d="M421.023,-262.006C402.115,-266.042 396.91,-281.809 384,-302 341.411,-368.607 414.059,-473 335,-473"/>
<polygon fill="black" stroke="black" points="430.321,-257.095 431.086,-265.058 429.494,-265.211 428.728,-257.248 430.321,-257.095"/>
<polyline fill="none" stroke="black" points="431.5,-261 427.518,-261.383 "/>
<ellipse fill="none" stroke="black" cx="424.333" cy="-261.689" rx="3.2" ry="3.2"/>
</g>
<!-- container_upload -->
<g id="node8" class="node"><title>container_upload</title>
<g id="a_node8"><a xlink:href="../../tables/container_upload.html" xlink:title="container_upload" target="_top">
<polygon fill="#ffffff" stroke="none" points="469.5,-710 469.5,-768 617.5,-768 617.5,-710 469.5,-710"/>
<polygon fill="#f5f5f5" stroke="none" points="469.5,-746 469.5,-768 617.5,-768 617.5,-746 469.5,-746"/>
<polygon fill="none" stroke="black" points="469.5,-746 469.5,-768 617.5,-768 617.5,-746 469.5,-746"/>
<text text-anchor="start" x="474.5" y="-755.2" font-family="Helvetica,sans-Serif" font-weight="bold" font-size="11.00">container_upload</text>
<text text-anchor="start" x="578.5" y="-754.2" font-family="Helvetica,sans-Serif" font-size="11.00">[table]</text>
<polygon fill="none" stroke="black" points="469.5,-728 469.5,-746 617.5,-746 617.5,-728 469.5,-728"/>
<text text-anchor="start" x="472.5" y="-734.2" font-family="Helvetica,sans-Serif" font-size="11.00">...</text>
<polygon fill="#ffffff" stroke="none" points="469.5,-710 469.5,-728 527.5,-728 527.5,-710 469.5,-710"/>
<polygon fill="none" stroke="black" points="469.5,-710 469.5,-728 527.5,-728 527.5,-710 469.5,-710"/>
<text text-anchor="start" x="472.5" y="-716.2" font-family="Helvetica,sans-Serif" font-size="11.00">&lt; 1</text>
<polygon fill="#ffffff" stroke="none" points="527.5,-710 527.5,-728 586.5,-728 586.5,-710 527.5,-710"/>
<polygon fill="none" stroke="black" points="527.5,-710 527.5,-728 586.5,-728 586.5,-710 527.5,-710"/>
<text text-anchor="start" x="547.5" y="-716.2" font-family="Helvetica,sans-Serif" font-size="11.00">0 rows</text>
<polygon fill="#ffffff" stroke="none" points="586.5,-710 586.5,-728 617.5,-728 617.5,-710 586.5,-710"/>
<polygon fill="none" stroke="black" points="586.5,-710 586.5,-728 617.5,-728 617.5,-710 586.5,-710"/>
<text text-anchor="start" x="607.5" y="-716.2" font-family="Helvetica,sans-Serif" font-size="11.00"> &#160;</text>
</a>
</g>
</g>
<!-- container_upload&#45;&gt;core_repository -->
<g id="edge8" class="edge"><title>container_upload:elipses:w&#45;&gt;core_repository:pulp_id:e</title>
<path fill="none" stroke="black" d="M453.746,-736.692C422.837,-735.204 406.604,-727.649 384,-700 318.673,-620.092 438.213,-473 335,-473"/>
<polygon fill="black" stroke="black" points="460.502,-736.833 468.425,-740.599 464.501,-736.917 468.5,-737 468.5,-737 468.5,-737 464.501,-736.917 468.575,-733.401 460.502,-736.833 460.502,-736.833"/>
<ellipse fill="none" stroke="black" cx="457.302" cy="-736.766" rx="3.2" ry="3.2"/>
</g>
<!-- core_pulpexporter_repositories -->
<g id="node9" class="node"><title>core_pulpexporter_repositories</title>
<g id="a_node9"><a xlink:href="../../tables/core_pulpexporter_repositories.html" xlink:title="core_pulpexporter_repositories" target="_top">
<polygon fill="#ffffff" stroke="none" points="430,-631 430,-689 657,-689 657,-631 430,-631"/>
<polygon fill="#f5f5f5" stroke="none" points="430.5,-667 430.5,-689 657.5,-689 657.5,-667 430.5,-667"/>
<polygon fill="none" stroke="black" points="430.5,-667 430.5,-689 657.5,-689 657.5,-667 430.5,-667"/>
<text text-anchor="start" x="435.5" y="-676.2" font-family="Helvetica,sans-Serif" font-weight="bold" font-size="11.00">core_pulpexporter_repositories</text>
<text text-anchor="start" x="618.5" y="-675.2" font-family="Helvetica,sans-Serif" font-size="11.00">[table]</text>
<polygon fill="none" stroke="black" points="430.5,-649 430.5,-667 657.5,-667 657.5,-649 430.5,-649"/>
<text text-anchor="start" x="433.5" y="-655.2" font-family="Helvetica,sans-Serif" font-size="11.00">...</text>
<polygon fill="#ffffff" stroke="none" points="430.5,-631 430.5,-649 527.5,-649 527.5,-631 430.5,-631"/>
<polygon fill="none" stroke="black" points="430.5,-631 430.5,-649 527.5,-649 527.5,-631 430.5,-631"/>
<text text-anchor="start" x="433.5" y="-637.2" font-family="Helvetica,sans-Serif" font-size="11.00">&lt; 2</text>
<polygon fill="#ffffff" stroke="none" points="527.5,-631 527.5,-649 606.5,-649 606.5,-631 527.5,-631"/>
<polygon fill="none" stroke="black" points="527.5,-631 527.5,-649 606.5,-649 606.5,-631 527.5,-631"/>
<text text-anchor="start" x="567.5" y="-637.2" font-family="Helvetica,sans-Serif" font-size="11.00">0 rows</text>
<polygon fill="#ffffff" stroke="none" points="606.5,-631 606.5,-649 657.5,-649 657.5,-631 606.5,-631"/>
<polygon fill="none" stroke="black" points="606.5,-631 606.5,-649 657.5,-649 657.5,-631 606.5,-631"/>
<text text-anchor="start" x="647.5" y="-637.2" font-family="Helvetica,sans-Serif" font-size="11.00"> &#160;</text>
</a>
</g>
</g>
<!-- core_pulpexporter_repositories&#45;&gt;core_repository -->
<g id="edge9" class="edge"><title>core_pulpexporter_repositories:elipses:w&#45;&gt;core_repository:pulp_id:e</title>
<path fill="none" stroke="black" d="M415.133,-655.691C400.367,-650.094 395.819,-634.935 384,-617 346.8,-560.551 402.604,-473 335,-473"/>
<polygon fill="black" stroke="black" points="421.601,-656.73 428.929,-661.554 425.551,-657.365 429.5,-658 429.5,-658 429.5,-658 425.551,-657.365 430.071,-654.446 421.601,-656.73 421.601,-656.73"/>
<ellipse fill="none" stroke="black" cx="418.442" cy="-656.223" rx="3.2" ry="3.2"/>
</g>
<!-- core_pulpimporter -->
<g id="node10" class="node"><title>core_pulpimporter</title>
<g id="a_node10"><a xlink:href="../../tables/core_pulpimporter.html" xlink:title="core_pulpimporter" target="_top">
<polygon fill="#ffffff" stroke="none" points="187,-39 187,-101 343,-101 343,-39 187,-39"/>
<polygon fill="#f5f5f5" stroke="none" points="187,-79 187,-101 343,-101 343,-79 187,-79"/>
<polygon fill="none" stroke="black" points="187,-79 187,-101 343,-101 343,-79 187,-79"/>
<text text-anchor="start" x="192" y="-88.2" font-family="Helvetica,sans-Serif" font-weight="bold" font-size="11.00">core_pulpimporter</text>
<text text-anchor="start" x="304" y="-87.2" font-family="Helvetica,sans-Serif" font-size="11.00">[table]</text>
<polygon fill="none" stroke="black" points="187,-57 187,-79 343,-79 343,-57 187,-57"/>
<image xlink:href="../../images/primaryKeys.png" width="11px" height="12px" preserveAspectRatio="xMinYMin meet" x="192" y="-74"/>
<text text-anchor="start" x="219" y="-65.2" font-family="Helvetica,sans-Serif" font-size="11.00">importer_ptr_id</text>
<polygon fill="#ffffff" stroke="none" points="187,-39 187,-57 244,-57 244,-39 187,-39"/>
<polygon fill="none" stroke="black" points="187,-39 187,-57 244,-57 244,-39 187,-39"/>
<text text-anchor="start" x="190" y="-45.2" font-family="Helvetica,sans-Serif" font-size="11.00">&lt; 1</text>
<polygon fill="#ffffff" stroke="none" points="244,-39 244,-57 303,-57 303,-39 244,-39"/>
<polygon fill="none" stroke="black" points="244,-39 244,-57 303,-57 303,-39 244,-39"/>
<text text-anchor="start" x="264" y="-45.2" font-family="Helvetica,sans-Serif" font-size="11.00">0 rows</text>
<polygon fill="#ffffff" stroke="none" points="303,-39 303,-57 343,-57 343,-39 303,-39"/>
<polygon fill="none" stroke="black" points="303,-39 303,-57 343,-57 343,-39 303,-39"/>
<text text-anchor="start" x="323" y="-45.2" font-family="Helvetica,sans-Serif" font-size="11.00">1 &gt;</text>
</a>
</g>
</g>
<!-- core_importer -->
<g id="node11" class="node"><title>core_importer</title>
<g id="a_node11"><a xlink:href="../../tables/core_importer.html" xlink:title="core_importer" target="_top">
<polygon fill="#ffffff" stroke="none" points="8,-41 8,-99 138,-99 138,-41 8,-41"/>
<polygon fill="#f5f5f5" stroke="none" points="8,-77 8,-99 138,-99 138,-77 8,-77"/>
<polygon fill="none" stroke="black" points="8,-77 8,-99 138,-99 138,-77 8,-77"/>
<text text-anchor="start" x="13" y="-86.2" font-family="Helvetica,sans-Serif" font-weight="bold" font-size="11.00">core_importer</text>
<text text-anchor="start" x="99" y="-85.2" font-family="Helvetica,sans-Serif" font-size="11.00">[table]</text>
<polygon fill="none" stroke="black" points="8,-59 8,-77 138,-77 138,-59 8,-59"/>
<text text-anchor="start" x="11" y="-65.2" font-family="Helvetica,sans-Serif" font-size="11.00">...</text>
<polygon fill="#ffffff" stroke="none" points="8,-41 8,-59 47,-59 47,-41 8,-41"/>
<polygon fill="none" stroke="black" points="8,-41 8,-59 47,-59 47,-41 8,-41"/>
<text text-anchor="start" x="11" y="-47.2" font-family="Helvetica,sans-Serif" font-size="11.00"> &#160;</text>
<polygon fill="#ffffff" stroke="none" points="47,-41 47,-59 102,-59 102,-41 47,-41"/>
<polygon fill="none" stroke="black" points="47,-41 47,-59 102,-59 102,-41 47,-41"/>
<text text-anchor="start" x="63" y="-47.2" font-family="Helvetica,sans-Serif" font-size="11.00">0 rows</text>
<polygon fill="#ffffff" stroke="none" points="102,-41 102,-59 138,-59 138,-41 102,-41"/>
<polygon fill="none" stroke="black" points="102,-41 102,-59 138,-59 138,-41 102,-41"/>
<text text-anchor="start" x="118" y="-47.2" font-family="Helvetica,sans-Serif" font-size="11.00">2 &gt;</text>
</a>
</g>
</g>
<!-- core_pulpimporter&#45;&gt;core_importer -->
<g id="edge10" class="edge"><title>core_pulpimporter:importer_ptr_id:w&#45;&gt;core_importer:elipses:e</title>
<path fill="none" stroke="black" d="M175.32,-68C162.474,-68 155.809,-68 139,-68"/>
<polygon fill="black" stroke="black" points="185.2,-64 185.2,-72 183.6,-72 183.6,-64 185.2,-64"/>
<polyline fill="none" stroke="black" points="186,-68 182,-68 "/>
<ellipse fill="none" stroke="black" cx="178.8" cy="-68.0001" rx="3.2" ry="3.2"/>
</g>
<!-- core_pulpimporterrepository -->
<g id="node12" class="node"><title>core_pulpimporterrepository</title>
<g id="a_node12"><a xlink:href="../../tables/core_pulpimporterrepository.html" xlink:title="core_pulpimporterrepository" target="_top">
<polygon fill="#ffffff" stroke="none" points="392,-37 392,-213 695,-213 695,-37 392,-37"/>
<polygon fill="#f5f5f5" stroke="none" points="394.5,-189 394.5,-211 693.5,-211 693.5,-189 394.5,-189"/>
<polygon fill="none" stroke="black" points="394.5,-189 394.5,-211 693.5,-211 693.5,-189 394.5,-189"/>
<text text-anchor="start" x="399.5" y="-198.2" font-family="Helvetica,sans-Serif" font-weight="bold" font-size="11.00">core_pulpimporterrepository</text>
<text text-anchor="start" x="654.5" y="-197.2" font-family="Helvetica,sans-Serif" font-size="11.00">[table]</text>
<polygon fill="none" stroke="black" points="394.5,-167 394.5,-189 588.5,-189 588.5,-167 394.5,-167"/>
<image xlink:href="../../images/primaryKeys.png" width="11px" height="12px" preserveAspectRatio="xMinYMin meet" x="399.5" y="-184"/>
<text text-anchor="start" x="414.5" y="-175.2" font-family="Helvetica,sans-Serif" font-size="11.00">pulp_id</text>
<polygon fill="none" stroke="black" points="588.5,-167 588.5,-189 693.5,-189 693.5,-167 588.5,-167"/>
<text text-anchor="start" x="591.5" y="-175.2" font-family="Helvetica,sans-Serif" font-size="11.00">uuid[2147483647]</text>
<polygon fill="none" stroke="black" points="394.5,-145 394.5,-167 588.5,-167 588.5,-145 394.5,-145"/>
<text text-anchor="start" x="414.5" y="-153.2" font-family="Helvetica,sans-Serif" font-size="11.00">pulp_created</text>
<polygon fill="none" stroke="black" points="588.5,-145 588.5,-167 693.5,-167 693.5,-145 588.5,-145"/>
<text text-anchor="start" x="591.5" y="-153.2" font-family="Helvetica,sans-Serif" font-size="11.00">timestamptz[35,6]</text>
<polygon fill="none" stroke="black" points="394.5,-123 394.5,-145 588.5,-145 588.5,-123 394.5,-123"/>
<text text-anchor="start" x="414.5" y="-131.2" font-family="Helvetica,sans-Serif" font-size="11.00">pulp_last_updated</text>
<polygon fill="none" stroke="black" points="588.5,-123 588.5,-145 693.5,-145 693.5,-123 588.5,-123"/>
<text text-anchor="start" x="591.5" y="-131.2" font-family="Helvetica,sans-Serif" font-size="11.00">timestamptz[35,6]</text>
<polygon fill="none" stroke="black" points="394.5,-101 394.5,-123 588.5,-123 588.5,-101 394.5,-101"/>
<text text-anchor="start" x="414.5" y="-109.2" font-family="Helvetica,sans-Serif" font-size="11.00">source_repo</text>
<polygon fill="none" stroke="black" points="588.5,-101 588.5,-123 693.5,-123 693.5,-101 588.5,-101"/>
<text text-anchor="start" x="591.5" y="-109.2" font-family="Helvetica,sans-Serif" font-size="11.00">text[2147483647]</text>
<polygon fill="#ffffff" stroke="none" points="394.5,-79 394.5,-101 588.5,-101 588.5,-79 394.5,-79"/>
<polygon fill="none" stroke="black" points="394.5,-79 394.5,-101 588.5,-101 588.5,-79 394.5,-79"/>
<image xlink:href="../../images/foreignKeys.png" width="11px" height="12px" preserveAspectRatio="xMinYMin meet" x="399.5" y="-96"/>
<text text-anchor="start" x="414.5" y="-87.2" font-family="Helvetica,sans-Serif" font-size="11.00">repository_id</text>
<polygon fill="none" stroke="black" points="588.5,-79 588.5,-101 693.5,-101 693.5,-79 588.5,-79"/>
<text text-anchor="start" x="591.5" y="-87.2" font-family="Helvetica,sans-Serif" font-size="11.00">uuid[2147483647]</text>
<polygon fill="#ffffff" stroke="none" points="394.5,-57 394.5,-79 588.5,-79 588.5,-57 394.5,-57"/>
<polygon fill="none" stroke="black" points="394.5,-57 394.5,-79 588.5,-79 588.5,-57 394.5,-57"/>
<image xlink:href="../../images/foreignKeys.png" width="11px" height="12px" preserveAspectRatio="xMinYMin meet" x="399.5" y="-74"/>
<text text-anchor="start" x="414.5" y="-65.2" font-family="Helvetica,sans-Serif" font-size="11.00">pulp_importer_id</text>
<polygon fill="none" stroke="black" points="588.5,-57 588.5,-79 693.5,-79 693.5,-57 588.5,-57"/>
<text text-anchor="start" x="591.5" y="-65.2" font-family="Helvetica,sans-Serif" font-size="11.00">uuid[2147483647]</text>
<polygon fill="#ffffff" stroke="none" points="394.5,-39 394.5,-57 481.5,-57 481.5,-39 394.5,-39"/>
<polygon fill="none" stroke="black" points="394.5,-39 394.5,-57 481.5,-57 481.5,-39 394.5,-39"/>
<text text-anchor="start" x="397.5" y="-45.2" font-family="Helvetica,sans-Serif" font-size="11.00">&lt; 2</text>
<polygon fill="#ffffff" stroke="none" points="481.5,-39 481.5,-57 588.5,-57 588.5,-39 481.5,-39"/>
<polygon fill="none" stroke="black" points="481.5,-39 481.5,-57 588.5,-57 588.5,-39 481.5,-39"/>
<text text-anchor="start" x="549.5" y="-45.2" font-family="Helvetica,sans-Serif" font-size="11.00">0 rows</text>
<polygon fill="#ffffff" stroke="none" points="588.5,-39 588.5,-57 693.5,-57 693.5,-39 588.5,-39"/>
<polygon fill="none" stroke="black" points="588.5,-39 588.5,-57 693.5,-57 693.5,-39 588.5,-39"/>
<text text-anchor="start" x="673.5" y="-45.2" font-family="Helvetica,sans-Serif" font-size="11.00">0 &gt;</text>
<polygon fill="none" stroke="black" stroke-width="2" points="393,-38 393,-212 694,-212 694,-38 393,-38"/>
</a>
</g>
</g>
<!-- core_pulpimporterrepository&#45;&gt;core_repository -->
<g id="edge12" class="edge"><title>core_pulpimporterrepository:repository_id:w&#45;&gt;core_repository:pulp_id:e</title>
<path fill="none" stroke="black" d="M379.6,-94.3013C320.833,-136.379 415.717,-473 335,-473"/>
<polygon fill="black" stroke="black" points="385.858,-92.365 394.564,-93.4391 389.679,-91.1825 393.5,-90 393.5,-90 393.5,-90 389.679,-91.1825 392.436,-86.5609 385.858,-92.365 385.858,-92.365"/>
<ellipse fill="none" stroke="black" cx="382.801" cy="-93.311" rx="3.20001" ry="3.20001"/>
</g>
<!-- core_pulpimporterrepository&#45;&gt;core_pulpimporter -->
<g id="edge11" class="edge"><title>core_pulpimporterrepository:pulp_importer_id:w&#45;&gt;core_pulpimporter:importer_ptr_id:e</title>
<path fill="none" stroke="black" d="M378.843,-68C367.414,-68 360.156,-68 344,-68"/>
<polygon fill="black" stroke="black" points="385.5,-68.0001 393.5,-71.6 389.5,-68 393.5,-68 393.5,-68 393.5,-68 389.5,-68 393.5,-64.4 385.5,-68.0001 385.5,-68.0001"/>
<ellipse fill="none" stroke="black" cx="382.3" cy="-68.0001" rx="3.2" ry="3.2"/>
</g>
<!-- core_repositorycontent -->
<g id="node14" class="node"><title>core_repositorycontent</title>
<g id="a_node14"><a xlink:href="../../tables/core_repositorycontent.html" xlink:title="core_repositorycontent" target="_top">
<polygon fill="#ffffff" stroke="none" points="769.5,-553 769.5,-611 951.5,-611 951.5,-553 769.5,-553"/>
<polygon fill="#f5f5f5" stroke="none" points="769.5,-589 769.5,-611 951.5,-611 951.5,-589 769.5,-589"/>
<polygon fill="none" stroke="black" points="769.5,-589 769.5,-611 951.5,-611 951.5,-589 769.5,-589"/>
<text text-anchor="start" x="774.5" y="-598.2" font-family="Helvetica,sans-Serif" font-weight="bold" font-size="11.00">core_repositorycontent</text>
<text text-anchor="start" x="912.5" y="-597.2" font-family="Helvetica,sans-Serif" font-size="11.00">[table]</text>
<polygon fill="none" stroke="black" points="769.5,-571 769.5,-589 951.5,-589 951.5,-571 769.5,-571"/>
<text text-anchor="start" x="772.5" y="-577.2" font-family="Helvetica,sans-Serif" font-size="11.00">...</text>
<polygon fill="#ffffff" stroke="none" points="769.5,-553 769.5,-571 837.5,-571 837.5,-553 769.5,-553"/>
<polygon fill="none" stroke="black" points="769.5,-553 769.5,-571 837.5,-571 837.5,-553 769.5,-553"/>
<text text-anchor="start" x="772.5" y="-559.2" font-family="Helvetica,sans-Serif" font-size="11.00">&lt; 4</text>
<polygon fill="#ffffff" stroke="none" points="837.5,-553 837.5,-571 915.5,-571 915.5,-553 837.5,-553"/>
<polygon fill="none" stroke="black" points="837.5,-553 837.5,-571 915.5,-571 915.5,-553 837.5,-553"/>
<text text-anchor="start" x="863.5" y="-559.2" font-family="Helvetica,sans-Serif" font-size="11.00">786 rows</text>
<polygon fill="#ffffff" stroke="none" points="915.5,-553 915.5,-571 951.5,-571 951.5,-553 915.5,-553"/>
<polygon fill="none" stroke="black" points="915.5,-553 915.5,-571 951.5,-571 951.5,-553 915.5,-553"/>
<text text-anchor="start" x="941.5" y="-559.2" font-family="Helvetica,sans-Serif" font-size="11.00"> &#160;</text>
</a>
</g>
</g>
<!-- core_repositorycontent&#45;&gt;core_repository -->
<g id="edge14" class="edge"><title>core_repositorycontent:elipses:w&#45;&gt;core_repository:pulp_id:e</title>
<path fill="none" stroke="black" d="M753.938,-581.024C735.608,-583.805 727.053,-591.458 703,-594 632.504,-601.45 442.785,-633.617 384,-594 335.886,-561.575 393.02,-473 335,-473"/>
<polygon fill="black" stroke="black" points="760.52,-580.561 768.753,-583.591 764.51,-580.281 768.5,-580 768.5,-580 768.5,-580 764.51,-580.281 768.247,-576.409 760.52,-580.561 760.52,-580.561"/>
<ellipse fill="none" stroke="black" cx="757.328" cy="-580.786" rx="3.2" ry="3.2"/>
</g>
<!-- core_repositorycontent&#45;&gt;core_repositoryversion -->
<g id="edge15" class="edge"><title>core_repositorycontent:elipses:w&#45;&gt;core_repositoryversion:elipses:e</title>
<path fill="none" stroke="black" d="M754.14,-578.056C705.247,-569.537 690.232,-546.504 634.5,-552"/>
<polygon fill="black" stroke="black" points="760.572,-578.927 768.017,-583.567 764.536,-579.463 768.5,-580 768.5,-580 768.5,-580 764.536,-579.463 768.983,-576.433 760.572,-578.927 760.572,-578.927"/>
<ellipse fill="none" stroke="black" cx="757.401" cy="-578.497" rx="3.2" ry="3.2"/>
</g>
<!-- core_repositorycontent&#45;&gt;core_repositoryversion -->
<g id="edge16" class="edge"><title>core_repositorycontent:elipses:w&#45;&gt;core_repositoryversion:elipses:e</title>
<path fill="none" stroke="black" d="M753.828,-581.065C705.183,-582.343 690.113,-558.398 634.5,-552"/>
<polygon fill="black" stroke="black" points="760.521,-580.579 768.761,-583.591 764.51,-580.29 768.5,-580 768.5,-580 768.5,-580 764.51,-580.29 768.239,-576.409 760.521,-580.579 760.521,-580.579"/>
<ellipse fill="none" stroke="black" cx="757.329" cy="-580.811" rx="3.2" ry="3.2"/>
</g>
</g>
</svg>
