<?xml version="1.0" encoding="UTF-8" standalone="no"?>
<!DOCTYPE svg PUBLIC "-//W3C//DTD SVG 1.1//EN"
 "http://www.w3.org/Graphics/SVG/1.1/DTD/svg11.dtd">
<!-- Generated by graphviz version 2.38.0 (20140413.2041)
 -->
<!-- Title: twoDegreesRelationshipsDiagram Pages: 1 -->
<svg width="637pt" height="787pt"
 viewBox="0.00 0.00 637.00 787.00" xmlns="http://www.w3.org/2000/svg" xmlns:xlink="http://www.w3.org/1999/xlink">
<g id="graph0" class="graph" transform="scale(1 1) rotate(0) translate(4 783)">
<title>twoDegreesRelationshipsDiagram</title>
<polygon fill="#ffffff" stroke="none" points="-4,4 -4,-783 633,-783 633,4 -4,4"/>
<text text-anchor="middle" x="74.5" y="-7.2" font-family="Helvetica,sans-Serif" font-size="11.00">Generated by SchemaSpy</text>
<!-- ansible_collectionimport -->
<g id="node1" class="node"><title>ansible_collectionimport</title>
<g id="a_node1"><a xlink:href="../../tables/ansible_collectionimport.html" xlink:title="ansible_collectionimport" target="_top">
<polygon fill="#ffffff" stroke="none" points="400.5,-717 400.5,-775 590.5,-775 590.5,-717 400.5,-717"/>
<polygon fill="#f5f5f5" stroke="none" points="400.5,-753 400.5,-775 590.5,-775 590.5,-753 400.5,-753"/>
<polygon fill="none" stroke="black" points="400.5,-753 400.5,-775 590.5,-775 590.5,-753 400.5,-753"/>
<text text-anchor="start" x="405.5" y="-762.2" font-family="Helvetica,sans-Serif" font-weight="bold" font-size="11.00">ansible_collectionimport</text>
<text text-anchor="start" x="551.5" y="-761.2" font-family="Helvetica,sans-Serif" font-size="11.00">[table]</text>
<polygon fill="none" stroke="black" points="400.5,-735 400.5,-753 590.5,-753 590.5,-735 400.5,-735"/>
<text text-anchor="start" x="403.5" y="-741.2" font-family="Helvetica,sans-Serif" font-size="11.00">...</text>
<polygon fill="#ffffff" stroke="none" points="400.5,-717 400.5,-735 472.5,-735 472.5,-717 400.5,-717"/>
<polygon fill="none" stroke="black" points="400.5,-717 400.5,-735 472.5,-735 472.5,-717 400.5,-717"/>
<text text-anchor="start" x="403.5" y="-723.2" font-family="Helvetica,sans-Serif" font-size="11.00">&lt; 1</text>
<polygon fill="#ffffff" stroke="none" points="472.5,-717 472.5,-735 552.5,-735 552.5,-717 472.5,-717"/>
<polygon fill="none" stroke="black" points="472.5,-717 472.5,-735 552.5,-735 552.5,-717 472.5,-717"/>
<text text-anchor="start" x="500.5" y="-723.2" font-family="Helvetica,sans-Serif" font-size="11.00">111 rows</text>
<polygon fill="#ffffff" stroke="none" points="552.5,-717 552.5,-735 590.5,-735 590.5,-717 552.5,-717"/>
<polygon fill="none" stroke="black" points="552.5,-717 552.5,-735 590.5,-735 590.5,-717 552.5,-717"/>
<text text-anchor="start" x="580.5" y="-723.2" font-family="Helvetica,sans-Serif" font-size="11.00"> &#160;</text>
</a>
</g>
</g>
<!-- core_task -->
<g id="node2" class="node"><title>core_task</title>
<g id="a_node2"><a xlink:href="../../tables/core_task.html" xlink:title="core_task" target="_top">
<polygon fill="#ffffff" stroke="none" points="192,-394 192,-540 321,-540 321,-394 192,-394"/>
<polygon fill="#f5f5f5" stroke="none" points="192.5,-518 192.5,-540 321.5,-540 321.5,-518 192.5,-518"/>
<polygon fill="none" stroke="black" points="192.5,-518 192.5,-540 321.5,-540 321.5,-518 192.5,-518"/>
<text text-anchor="start" x="197.5" y="-527.2" font-family="Helvetica,sans-Serif" font-weight="bold" font-size="11.00">core_task</text>
<text text-anchor="start" x="282.5" y="-526.2" font-family="Helvetica,sans-Serif" font-size="11.00">[table]</text>
<polygon fill="none" stroke="black" points="192.5,-496 192.5,-518 321.5,-518 321.5,-496 192.5,-496"/>
<image xlink:href="../../images/primaryKeys.png" width="11px" height="12px" preserveAspectRatio="xMinYMin meet" x="197.5" y="-513"/>
<text text-anchor="start" x="212.5" y="-504.2" font-family="Helvetica,sans-Serif" font-size="11.00">pulp_id</text>
<polygon fill="#ffffff" stroke="none" points="192.5,-474 192.5,-496 321.5,-496 321.5,-474 192.5,-474"/>
<polygon fill="none" stroke="black" points="192.5,-474 192.5,-496 321.5,-496 321.5,-474 192.5,-474"/>
<image xlink:href="../../images/foreignKeys.png" width="11px" height="12px" preserveAspectRatio="xMinYMin meet" x="197.5" y="-491"/>
<text text-anchor="start" x="212.5" y="-482.2" font-family="Helvetica,sans-Serif" font-size="11.00">worker_id</text>
<polygon fill="#ffffff" stroke="none" points="192.5,-452 192.5,-474 321.5,-474 321.5,-452 192.5,-452"/>
<polygon fill="none" stroke="black" points="192.5,-452 192.5,-474 321.5,-474 321.5,-452 192.5,-452"/>
<image xlink:href="../../images/foreignKeys.png" width="11px" height="12px" preserveAspectRatio="xMinYMin meet" x="197.5" y="-469"/>
<text text-anchor="start" x="212.5" y="-460.2" font-family="Helvetica,sans-Serif" font-size="11.00">parent_task_id</text>
<polygon fill="#ffffff" stroke="none" points="192.5,-430 192.5,-452 321.5,-452 321.5,-430 192.5,-430"/>
<polygon fill="none" stroke="black" points="192.5,-430 192.5,-452 321.5,-452 321.5,-430 192.5,-430"/>
<image xlink:href="../../images/foreignKeys.png" width="11px" height="12px" preserveAspectRatio="xMinYMin meet" x="197.5" y="-447"/>
<text text-anchor="start" x="212.5" y="-438.2" font-family="Helvetica,sans-Serif" font-size="11.00">task_group_id</text>
<polygon fill="none" stroke="black" points="192.5,-412 192.5,-430 321.5,-430 321.5,-412 192.5,-412"/>
<text text-anchor="start" x="195.5" y="-418.2" font-family="Helvetica,sans-Serif" font-size="11.00">...</text>
<polygon fill="#ffffff" stroke="none" points="192.5,-394 192.5,-412 224.5,-412 224.5,-394 192.5,-394"/>
<polygon fill="none" stroke="black" points="192.5,-394 192.5,-412 224.5,-412 224.5,-394 192.5,-394"/>
<text text-anchor="start" x="195.5" y="-400.2" font-family="Helvetica,sans-Serif" font-size="11.00">&lt; 3</text>
<polygon fill="#ffffff" stroke="none" points="224.5,-394 224.5,-412 293.5,-412 293.5,-394 224.5,-394"/>
<polygon fill="none" stroke="black" points="224.5,-394 224.5,-412 293.5,-412 293.5,-394 224.5,-394"/>
<text text-anchor="start" x="231.5" y="-400.2" font-family="Helvetica,sans-Serif" font-size="11.00">1,828 rows</text>
<polygon fill="#ffffff" stroke="none" points="293.5,-394 293.5,-412 321.5,-412 321.5,-394 293.5,-394"/>
<polygon fill="none" stroke="black" points="293.5,-394 293.5,-412 321.5,-412 321.5,-394 293.5,-394"/>
<text text-anchor="start" x="301.5" y="-400.2" font-family="Helvetica,sans-Serif" font-size="11.00">8 &gt;</text>
</a>
</g>
</g>
<!-- ansible_collectionimport&#45;&gt;core_task -->
<g id="edge1" class="edge"><title>ansible_collectionimport:elipses:w&#45;&gt;core_task:pulp_id:e</title>
<path fill="none" stroke="black" d="M389.092,-742.61C374.818,-738.244 371.186,-724.075 362,-707 340.537,-667.104 367.803,-507 322.5,-507"/>
<polygon fill="black" stroke="black" points="399.237,-739.929 398.177,-747.859 396.592,-747.647 397.651,-739.717 399.237,-739.929"/>
<polyline fill="none" stroke="black" points="399.5,-744 395.535,-743.47 "/>
<ellipse fill="none" stroke="black" cx="392.363" cy="-743.047" rx="3.2" ry="3.2"/>
</g>
<!-- core_taskgroup -->
<g id="node7" class="node"><title>core_taskgroup</title>
<g id="a_node7"><a xlink:href="../../tables/core_taskgroup.html" xlink:title="core_taskgroup" target="_top">
<polygon fill="#ffffff" stroke="none" points="8,-397 8,-455 143,-455 143,-397 8,-397"/>
<polygon fill="#f5f5f5" stroke="none" points="8.5,-433 8.5,-455 143.5,-455 143.5,-433 8.5,-433"/>
<polygon fill="none" stroke="black" points="8.5,-433 8.5,-455 143.5,-455 143.5,-433 8.5,-433"/>
<text text-anchor="start" x="13.5" y="-442.2" font-family="Helvetica,sans-Serif" font-weight="bold" font-size="11.00">core_taskgroup</text>
<text text-anchor="start" x="104.5" y="-441.2" font-family="Helvetica,sans-Serif" font-size="11.00">[table]</text>
<polygon fill="none" stroke="black" points="8.5,-415 8.5,-433 143.5,-433 143.5,-415 8.5,-415"/>
<text text-anchor="start" x="11.5" y="-421.2" font-family="Helvetica,sans-Serif" font-size="11.00">...</text>
<polygon fill="#ffffff" stroke="none" points="8.5,-397 8.5,-415 46.5,-415 46.5,-397 8.5,-397"/>
<polygon fill="none" stroke="black" points="8.5,-397 8.5,-415 46.5,-415 46.5,-397 8.5,-397"/>
<text text-anchor="start" x="11.5" y="-403.2" font-family="Helvetica,sans-Serif" font-size="11.00"> &#160;</text>
<polygon fill="#ffffff" stroke="none" points="46.5,-397 46.5,-415 107.5,-415 107.5,-397 46.5,-397"/>
<polygon fill="none" stroke="black" points="46.5,-397 46.5,-415 107.5,-415 107.5,-397 46.5,-397"/>
<text text-anchor="start" x="61.5" y="-403.2" font-family="Helvetica,sans-Serif" font-size="11.00">26 rows</text>
<polygon fill="#ffffff" stroke="none" points="107.5,-397 107.5,-415 143.5,-415 143.5,-397 107.5,-397"/>
<polygon fill="none" stroke="black" points="107.5,-397 107.5,-415 143.5,-415 143.5,-397 107.5,-397"/>
<text text-anchor="start" x="123.5" y="-403.2" font-family="Helvetica,sans-Serif" font-size="11.00">2 &gt;</text>
</a>
</g>
</g>
<!-- core_task&#45;&gt;core_taskgroup -->
<g id="edge6" class="edge"><title>core_task:task_group_id:w&#45;&gt;core_taskgroup:elipses:e</title>
<path fill="none" stroke="black" d="M177.22,-438.039C166.534,-433.168 160.813,-424 144.5,-424"/>
<polygon fill="black" stroke="black" points="183.667,-439.376 190.769,-444.525 187.583,-440.188 191.5,-441 191.5,-441 191.5,-441 187.583,-440.188 192.231,-437.475 183.667,-439.376 183.667,-439.376"/>
<ellipse fill="none" stroke="black" cx="180.533" cy="-438.726" rx="3.2" ry="3.2"/>
</g>
<!-- core_worker -->
<g id="node8" class="node"><title>core_worker</title>
<g id="a_node8"><a xlink:href="../../tables/core_worker.html" xlink:title="core_worker" target="_top">
<polygon fill="#ffffff" stroke="none" points="16.5,-476 16.5,-534 134.5,-534 134.5,-476 16.5,-476"/>
<polygon fill="#f5f5f5" stroke="none" points="16.5,-512 16.5,-534 134.5,-534 134.5,-512 16.5,-512"/>
<polygon fill="none" stroke="black" points="16.5,-512 16.5,-534 134.5,-534 134.5,-512 16.5,-512"/>
<text text-anchor="start" x="21.5" y="-521.2" font-family="Helvetica,sans-Serif" font-weight="bold" font-size="11.00">core_worker</text>
<text text-anchor="start" x="95.5" y="-520.2" font-family="Helvetica,sans-Serif" font-size="11.00">[table]</text>
<polygon fill="none" stroke="black" points="16.5,-494 16.5,-512 134.5,-512 134.5,-494 16.5,-494"/>
<text text-anchor="start" x="19.5" y="-500.2" font-family="Helvetica,sans-Serif" font-size="11.00">...</text>
<polygon fill="#ffffff" stroke="none" points="16.5,-476 16.5,-494 42.5,-494 42.5,-476 16.5,-476"/>
<polygon fill="none" stroke="black" points="16.5,-476 16.5,-494 42.5,-494 42.5,-476 16.5,-476"/>
<text text-anchor="start" x="19.5" y="-482.2" font-family="Helvetica,sans-Serif" font-size="11.00"> &#160;</text>
<polygon fill="#ffffff" stroke="none" points="42.5,-476 42.5,-494 104.5,-494 104.5,-476 42.5,-476"/>
<polygon fill="none" stroke="black" points="42.5,-476 42.5,-494 104.5,-494 104.5,-476 42.5,-476"/>
<text text-anchor="start" x="52.5" y="-482.2" font-family="Helvetica,sans-Serif" font-size="11.00">148 rows</text>
<polygon fill="#ffffff" stroke="none" points="104.5,-476 104.5,-494 134.5,-494 134.5,-476 104.5,-476"/>
<polygon fill="none" stroke="black" points="104.5,-476 104.5,-494 134.5,-494 134.5,-476 104.5,-476"/>
<text text-anchor="start" x="114.5" y="-482.2" font-family="Helvetica,sans-Serif" font-size="11.00">2 &gt;</text>
</a>
</g>
</g>
<!-- core_task&#45;&gt;core_worker -->
<g id="edge7" class="edge"><title>core_task:worker_id:w&#45;&gt;core_worker:elipses:e</title>
<path fill="none" stroke="black" d="M177.094,-487.207C162.659,-492.014 155.924,-503 135.5,-503"/>
<polygon fill="black" stroke="black" points="183.592,-486.212 192.045,-488.558 187.546,-485.606 191.5,-485 191.5,-485 191.5,-485 187.546,-485.606 190.955,-481.442 183.592,-486.212 183.592,-486.212"/>
<ellipse fill="none" stroke="black" cx="180.429" cy="-486.696" rx="3.2" ry="3.2"/>
</g>
<!-- core_createdresource -->
<g id="node3" class="node"><title>core_createdresource</title>
<g id="a_node3"><a xlink:href="../../tables/core_createdresource.html" xlink:title="core_createdresource" target="_top">
<polygon fill="#ffffff" stroke="none" points="409.5,-638 409.5,-696 581.5,-696 581.5,-638 409.5,-638"/>
<polygon fill="#f5f5f5" stroke="none" points="409.5,-674 409.5,-696 581.5,-696 581.5,-674 409.5,-674"/>
<polygon fill="none" stroke="black" points="409.5,-674 409.5,-696 581.5,-696 581.5,-674 409.5,-674"/>
<text text-anchor="start" x="414.5" y="-683.2" font-family="Helvetica,sans-Serif" font-weight="bold" font-size="11.00">core_createdresource</text>
<text text-anchor="start" x="542.5" y="-682.2" font-family="Helvetica,sans-Serif" font-size="11.00">[table]</text>
<polygon fill="none" stroke="black" points="409.5,-656 409.5,-674 581.5,-674 581.5,-656 409.5,-656"/>
<text text-anchor="start" x="412.5" y="-662.2" font-family="Helvetica,sans-Serif" font-size="11.00">...</text>
<polygon fill="#ffffff" stroke="none" points="409.5,-638 409.5,-656 472.5,-656 472.5,-638 409.5,-638"/>
<polygon fill="none" stroke="black" points="409.5,-638 409.5,-656 472.5,-656 472.5,-638 409.5,-638"/>
<text text-anchor="start" x="412.5" y="-644.2" font-family="Helvetica,sans-Serif" font-size="11.00">&lt; 2</text>
<polygon fill="#ffffff" stroke="none" points="472.5,-638 472.5,-656 547.5,-656 547.5,-638 472.5,-638"/>
<polygon fill="none" stroke="black" points="472.5,-638 472.5,-656 547.5,-656 547.5,-638 472.5,-638"/>
<text text-anchor="start" x="495.5" y="-644.2" font-family="Helvetica,sans-Serif" font-size="11.00">365 rows</text>
<polygon fill="#ffffff" stroke="none" points="547.5,-638 547.5,-656 581.5,-656 581.5,-638 547.5,-638"/>
<polygon fill="none" stroke="black" points="547.5,-638 547.5,-656 581.5,-656 581.5,-638 547.5,-638"/>
<text text-anchor="start" x="571.5" y="-644.2" font-family="Helvetica,sans-Serif" font-size="11.00"> &#160;</text>
</a>
</g>
</g>
<!-- core_createdresource&#45;&gt;core_task -->
<g id="edge2" class="edge"><title>core_createdresource:elipses:w&#45;&gt;core_task:pulp_id:e</title>
<path fill="none" stroke="black" d="M393.909,-662.896C379.411,-657.997 373.771,-644.946 362,-628 329.727,-581.539 379.071,-507 322.5,-507"/>
<polygon fill="black" stroke="black" points="400.582,-663.858 407.986,-668.563 404.541,-664.429 408.5,-665 408.5,-665 408.5,-665 404.541,-664.429 409.014,-661.437 400.582,-663.858 400.582,-663.858"/>
<ellipse fill="none" stroke="black" cx="397.415" cy="-663.401" rx="3.2" ry="3.2"/>
</g>
<!-- core_export -->
<g id="node4" class="node"><title>core_export</title>
<g id="a_node4"><a xlink:href="../../tables/core_export.html" xlink:title="core_export" target="_top">
<polygon fill="#ffffff" stroke="none" points="437.5,-559 437.5,-617 553.5,-617 553.5,-559 437.5,-559"/>
<polygon fill="#f5f5f5" stroke="none" points="437.5,-595 437.5,-617 553.5,-617 553.5,-595 437.5,-595"/>
<polygon fill="none" stroke="black" points="437.5,-595 437.5,-617 553.5,-617 553.5,-595 437.5,-595"/>
<text text-anchor="start" x="442.5" y="-604.2" font-family="Helvetica,sans-Serif" font-weight="bold" font-size="11.00">core_export</text>
<text text-anchor="start" x="514.5" y="-603.2" font-family="Helvetica,sans-Serif" font-size="11.00">[table]</text>
<polygon fill="none" stroke="black" points="437.5,-577 437.5,-595 553.5,-595 553.5,-577 437.5,-577"/>
<text text-anchor="start" x="440.5" y="-583.2" font-family="Helvetica,sans-Serif" font-size="11.00">...</text>
<polygon fill="#ffffff" stroke="none" points="437.5,-559 437.5,-577 474.5,-577 474.5,-559 437.5,-559"/>
<polygon fill="none" stroke="black" points="437.5,-559 437.5,-577 474.5,-577 474.5,-559 437.5,-559"/>
<text text-anchor="start" x="440.5" y="-565.2" font-family="Helvetica,sans-Serif" font-size="11.00">&lt; 2</text>
<polygon fill="#ffffff" stroke="none" points="474.5,-559 474.5,-577 523.5,-577 523.5,-559 474.5,-559"/>
<polygon fill="none" stroke="black" points="474.5,-559 474.5,-577 523.5,-577 523.5,-559 474.5,-559"/>
<text text-anchor="start" x="484.5" y="-565.2" font-family="Helvetica,sans-Serif" font-size="11.00">0 rows</text>
<polygon fill="#ffffff" stroke="none" points="523.5,-559 523.5,-577 553.5,-577 553.5,-559 523.5,-559"/>
<polygon fill="none" stroke="black" points="523.5,-559 523.5,-577 553.5,-577 553.5,-559 523.5,-559"/>
<text text-anchor="start" x="533.5" y="-565.2" font-family="Helvetica,sans-Serif" font-size="11.00">2 &gt;</text>
</a>
</g>
</g>
<!-- core_export&#45;&gt;core_task -->
<g id="edge3" class="edge"><title>core_export:elipses:w&#45;&gt;core_task:pulp_id:e</title>
<path fill="none" stroke="black" d="M421.795,-585.037C396.72,-581.401 387.28,-567.763 362,-549 341.424,-533.727 348.125,-507 322.5,-507"/>
<polygon fill="black" stroke="black" points="428.517,-585.477 436.265,-589.592 432.509,-585.738 436.5,-586 436.5,-586 436.5,-586 432.509,-585.738 436.735,-582.408 428.517,-585.477 428.517,-585.477"/>
<ellipse fill="none" stroke="black" cx="425.324" cy="-585.268" rx="3.2" ry="3.2"/>
</g>
<!-- core_import -->
<g id="node5" class="node"><title>core_import</title>
<g id="a_node5"><a xlink:href="../../tables/core_import.html" xlink:title="core_import" target="_top">
<polygon fill="#ffffff" stroke="none" points="436.5,-480 436.5,-538 554.5,-538 554.5,-480 436.5,-480"/>
<polygon fill="#f5f5f5" stroke="none" points="436.5,-516 436.5,-538 554.5,-538 554.5,-516 436.5,-516"/>
<polygon fill="none" stroke="black" points="436.5,-516 436.5,-538 554.5,-538 554.5,-516 436.5,-516"/>
<text text-anchor="start" x="441.5" y="-525.2" font-family="Helvetica,sans-Serif" font-weight="bold" font-size="11.00">core_import</text>
<text text-anchor="start" x="515.5" y="-524.2" font-family="Helvetica,sans-Serif" font-size="11.00">[table]</text>
<polygon fill="none" stroke="black" points="436.5,-498 436.5,-516 554.5,-516 554.5,-498 436.5,-498"/>
<text text-anchor="start" x="439.5" y="-504.2" font-family="Helvetica,sans-Serif" font-size="11.00">...</text>
<polygon fill="#ffffff" stroke="none" points="436.5,-480 436.5,-498 474.5,-498 474.5,-480 436.5,-480"/>
<polygon fill="none" stroke="black" points="436.5,-480 436.5,-498 474.5,-498 474.5,-480 436.5,-480"/>
<text text-anchor="start" x="439.5" y="-486.2" font-family="Helvetica,sans-Serif" font-size="11.00">&lt; 2</text>
<polygon fill="#ffffff" stroke="none" points="474.5,-480 474.5,-498 523.5,-498 523.5,-480 474.5,-480"/>
<polygon fill="none" stroke="black" points="474.5,-480 474.5,-498 523.5,-498 523.5,-480 474.5,-480"/>
<text text-anchor="start" x="484.5" y="-486.2" font-family="Helvetica,sans-Serif" font-size="11.00">0 rows</text>
<polygon fill="#ffffff" stroke="none" points="523.5,-480 523.5,-498 554.5,-498 554.5,-480 523.5,-480"/>
<polygon fill="none" stroke="black" points="523.5,-480 523.5,-498 554.5,-498 554.5,-480 523.5,-480"/>
<text text-anchor="start" x="534.5" y="-486.2" font-family="Helvetica,sans-Serif" font-size="11.00">1 &gt;</text>
</a>
</g>
</g>
<!-- core_import&#45;&gt;core_task -->
<g id="edge4" class="edge"><title>core_import:elipses:w&#45;&gt;core_task:pulp_id:e</title>
<path fill="none" stroke="black" d="M421.031,-507C382.275,-507 367.523,-507 322.5,-507"/>
<polygon fill="black" stroke="black" points="427.5,-507 435.5,-510.6 431.5,-507 435.5,-507 435.5,-507 435.5,-507 431.5,-507 435.5,-503.4 427.5,-507 427.5,-507"/>
<ellipse fill="none" stroke="black" cx="424.3" cy="-507" rx="3.2" ry="3.2"/>
</g>
<!-- core_progressreport -->
<g id="node6" class="node"><title>core_progressreport</title>
<g id="a_node6"><a xlink:href="../../tables/core_progressreport.html" xlink:title="core_progressreport" target="_top">
<polygon fill="#ffffff" stroke="none" points="370,-195 370,-459 621,-459 621,-195 370,-195"/>
<polygon fill="#f5f5f5" stroke="none" points="372.5,-435 372.5,-457 619.5,-457 619.5,-435 372.5,-435"/>
<polygon fill="none" stroke="black" points="372.5,-435 372.5,-457 619.5,-457 619.5,-435 372.5,-435"/>
<text text-anchor="start" x="377.5" y="-444.2" font-family="Helvetica,sans-Serif" font-weight="bold" font-size="11.00">core_progressreport</text>
<text text-anchor="start" x="580.5" y="-443.2" font-family="Helvetica,sans-Serif" font-size="11.00">[table]</text>
<polygon fill="none" stroke="black" points="372.5,-413 372.5,-435 514.5,-435 514.5,-413 372.5,-413"/>
<image xlink:href="../../images/primaryKeys.png" width="11px" height="12px" preserveAspectRatio="xMinYMin meet" x="377.5" y="-430"/>
<text text-anchor="start" x="392.5" y="-421.2" font-family="Helvetica,sans-Serif" font-size="11.00">pulp_id</text>
<polygon fill="none" stroke="black" points="514.5,-413 514.5,-435 619.5,-435 619.5,-413 514.5,-413"/>
<text text-anchor="start" x="517.5" y="-421.2" font-family="Helvetica,sans-Serif" font-size="11.00">uuid[2147483647]</text>
<polygon fill="none" stroke="black" points="372.5,-391 372.5,-413 514.5,-413 514.5,-391 372.5,-391"/>
<text text-anchor="start" x="392.5" y="-399.2" font-family="Helvetica,sans-Serif" font-size="11.00">pulp_created</text>
<polygon fill="none" stroke="black" points="514.5,-391 514.5,-413 619.5,-413 619.5,-391 514.5,-391"/>
<text text-anchor="start" x="517.5" y="-399.2" font-family="Helvetica,sans-Serif" font-size="11.00">timestamptz[35,6]</text>
<polygon fill="none" stroke="black" points="372.5,-369 372.5,-391 514.5,-391 514.5,-369 372.5,-369"/>
<text text-anchor="start" x="392.5" y="-377.2" font-family="Helvetica,sans-Serif" font-size="11.00">pulp_last_updated</text>
<polygon fill="none" stroke="black" points="514.5,-369 514.5,-391 619.5,-391 619.5,-369 514.5,-369"/>
<text text-anchor="start" x="517.5" y="-377.2" font-family="Helvetica,sans-Serif" font-size="11.00">timestamptz[35,6]</text>
<polygon fill="none" stroke="black" points="372.5,-347 372.5,-369 514.5,-369 514.5,-347 372.5,-347"/>
<text text-anchor="start" x="392.5" y="-355.2" font-family="Helvetica,sans-Serif" font-size="11.00">message</text>
<polygon fill="none" stroke="black" points="514.5,-347 514.5,-369 619.5,-369 619.5,-347 514.5,-347"/>
<text text-anchor="start" x="517.5" y="-355.2" font-family="Helvetica,sans-Serif" font-size="11.00">text[2147483647]</text>
<polygon fill="none" stroke="black" points="372.5,-325 372.5,-347 514.5,-347 514.5,-325 372.5,-325"/>
<text text-anchor="start" x="392.5" y="-333.2" font-family="Helvetica,sans-Serif" font-size="11.00">state</text>
<polygon fill="none" stroke="black" points="514.5,-325 514.5,-347 619.5,-347 619.5,-325 514.5,-325"/>
<text text-anchor="start" x="517.5" y="-333.2" font-family="Helvetica,sans-Serif" font-size="11.00">text[2147483647]</text>
<polygon fill="none" stroke="black" points="372.5,-303 372.5,-325 514.5,-325 514.5,-303 372.5,-303"/>
<text text-anchor="start" x="392.5" y="-311.2" font-family="Helvetica,sans-Serif" font-size="11.00">total</text>
<polygon fill="none" stroke="black" points="514.5,-303 514.5,-325 619.5,-325 619.5,-303 514.5,-303"/>
<text text-anchor="start" x="517.5" y="-311.2" font-family="Helvetica,sans-Serif" font-size="11.00">int4[10]</text>
<polygon fill="none" stroke="black" points="372.5,-281 372.5,-303 514.5,-303 514.5,-281 372.5,-281"/>
<text text-anchor="start" x="392.5" y="-289.2" font-family="Helvetica,sans-Serif" font-size="11.00">done</text>
<polygon fill="none" stroke="black" points="514.5,-281 514.5,-303 619.5,-303 619.5,-281 514.5,-281"/>
<text text-anchor="start" x="517.5" y="-289.2" font-family="Helvetica,sans-Serif" font-size="11.00">int4[10]</text>
<polygon fill="none" stroke="black" points="372.5,-259 372.5,-281 514.5,-281 514.5,-259 372.5,-259"/>
<text text-anchor="start" x="392.5" y="-267.2" font-family="Helvetica,sans-Serif" font-size="11.00">suffix</text>
<polygon fill="none" stroke="black" points="514.5,-259 514.5,-281 619.5,-281 619.5,-259 514.5,-259"/>
<text text-anchor="start" x="517.5" y="-267.2" font-family="Helvetica,sans-Serif" font-size="11.00">text[2147483647]</text>
<polygon fill="#ffffff" stroke="none" points="372.5,-237 372.5,-259 514.5,-259 514.5,-237 372.5,-237"/>
<polygon fill="none" stroke="black" points="372.5,-237 372.5,-259 514.5,-259 514.5,-237 372.5,-237"/>
<image xlink:href="../../images/foreignKeys.png" width="11px" height="12px" preserveAspectRatio="xMinYMin meet" x="377.5" y="-254"/>
<text text-anchor="start" x="392.5" y="-245.2" font-family="Helvetica,sans-Serif" font-size="11.00">task_id</text>
<polygon fill="none" stroke="black" points="514.5,-237 514.5,-259 619.5,-259 619.5,-237 514.5,-237"/>
<text text-anchor="start" x="517.5" y="-245.2" font-family="Helvetica,sans-Serif" font-size="11.00">uuid[2147483647]</text>
<polygon fill="none" stroke="black" points="372.5,-215 372.5,-237 514.5,-237 514.5,-215 372.5,-215"/>
<text text-anchor="start" x="392.5" y="-223.2" font-family="Helvetica,sans-Serif" font-size="11.00">code</text>
<polygon fill="none" stroke="black" points="514.5,-215 514.5,-237 619.5,-237 619.5,-215 514.5,-215"/>
<text text-anchor="start" x="517.5" y="-223.2" font-family="Helvetica,sans-Serif" font-size="11.00">varchar[36]</text>
<polygon fill="#ffffff" stroke="none" points="372.5,-197 372.5,-215 430.5,-215 430.5,-197 372.5,-197"/>
<polygon fill="none" stroke="black" points="372.5,-197 372.5,-215 430.5,-215 430.5,-197 372.5,-197"/>
<text text-anchor="start" x="375.5" y="-203.2" font-family="Helvetica,sans-Serif" font-size="11.00">&lt; 1</text>
<polygon fill="#ffffff" stroke="none" points="430.5,-197 430.5,-215 514.5,-215 514.5,-197 430.5,-197"/>
<polygon fill="none" stroke="black" points="430.5,-197 430.5,-215 514.5,-215 514.5,-197 430.5,-197"/>
<text text-anchor="start" x="468.5" y="-203.2" font-family="Helvetica,sans-Serif" font-size="11.00">53 rows</text>
<polygon fill="#ffffff" stroke="none" points="514.5,-197 514.5,-215 619.5,-215 619.5,-197 514.5,-197"/>
<polygon fill="none" stroke="black" points="514.5,-197 514.5,-215 619.5,-215 619.5,-197 514.5,-197"/>
<text text-anchor="start" x="599.5" y="-203.2" font-family="Helvetica,sans-Serif" font-size="11.00">0 &gt;</text>
<polygon fill="none" stroke="black" stroke-width="2" points="371,-196 371,-458 620,-458 620,-196 371,-196"/>
</a>
</g>
</g>
<!-- core_progressreport&#45;&gt;core_task -->
<g id="edge5" class="edge"><title>core_progressreport:task_id:w&#45;&gt;core_task:pulp_id:e</title>
<path fill="none" stroke="black" d="M358.158,-254.402C324.588,-294.286 375.585,-507 322.5,-507"/>
<polygon fill="black" stroke="black" points="364.287,-251.461 373.057,-251.246 367.894,-249.731 371.5,-248 371.5,-248 371.5,-248 367.894,-249.731 369.943,-244.754 364.287,-251.461 364.287,-251.461"/>
<ellipse fill="none" stroke="black" cx="361.402" cy="-252.845" rx="3.20001" ry="3.20001"/>
</g>
<!-- core_taskreservedresource -->
<g id="node9" class="node"><title>core_taskreservedresource</title>
<g id="a_node9"><a xlink:href="../../tables/core_taskreservedresource.html" xlink:title="core_taskreservedresource" target="_top">
<polygon fill="#ffffff" stroke="none" points="394.5,-116 394.5,-174 596.5,-174 596.5,-116 394.5,-116"/>
<polygon fill="#f5f5f5" stroke="none" points="394.5,-152 394.5,-174 596.5,-174 596.5,-152 394.5,-152"/>
<polygon fill="none" stroke="black" points="394.5,-152 394.5,-174 596.5,-174 596.5,-152 394.5,-152"/>
<text text-anchor="start" x="399.5" y="-161.2" font-family="Helvetica,sans-Serif" font-weight="bold" font-size="11.00">core_taskreservedresource</text>
<text text-anchor="start" x="557.5" y="-160.2" font-family="Helvetica,sans-Serif" font-size="11.00">[table]</text>
<polygon fill="none" stroke="black" points="394.5,-134 394.5,-152 596.5,-152 596.5,-134 394.5,-134"/>
<text text-anchor="start" x="397.5" y="-140.2" font-family="Helvetica,sans-Serif" font-size="11.00">...</text>
<polygon fill="#ffffff" stroke="none" points="394.5,-116 394.5,-134 479.5,-134 479.5,-116 394.5,-116"/>
<polygon fill="none" stroke="black" points="394.5,-116 394.5,-134 479.5,-134 479.5,-116 394.5,-116"/>
<text text-anchor="start" x="397.5" y="-122.2" font-family="Helvetica,sans-Serif" font-size="11.00">&lt; 2</text>
<polygon fill="#ffffff" stroke="none" points="479.5,-116 479.5,-134 552.5,-134 552.5,-116 479.5,-116"/>
<polygon fill="none" stroke="black" points="479.5,-116 479.5,-134 552.5,-134 552.5,-116 479.5,-116"/>
<text text-anchor="start" x="513.5" y="-122.2" font-family="Helvetica,sans-Serif" font-size="11.00">0 rows</text>
<polygon fill="#ffffff" stroke="none" points="552.5,-116 552.5,-134 596.5,-134 596.5,-116 552.5,-116"/>
<polygon fill="none" stroke="black" points="552.5,-116 552.5,-134 596.5,-134 596.5,-116 552.5,-116"/>
<text text-anchor="start" x="586.5" y="-122.2" font-family="Helvetica,sans-Serif" font-size="11.00"> &#160;</text>
</a>
</g>
</g>
<!-- core_taskreservedresource&#45;&gt;core_task -->
<g id="edge8" class="edge"><title>core_taskreservedresource:elipses:w&#45;&gt;core_task:pulp_id:e</title>
<path fill="none" stroke="black" d="M379.667,-147.341C322.449,-188.41 399.601,-507 322.5,-507"/>
<polygon fill="black" stroke="black" points="385.867,-145.396 394.578,-146.435 389.684,-144.198 393.5,-143 393.5,-143 393.5,-143 389.684,-144.198 392.422,-139.565 385.867,-145.396 385.867,-145.396"/>
<ellipse fill="none" stroke="black" cx="382.814" cy="-146.354" rx="3.20001" ry="3.20001"/>
</g>
<!-- core_taskreservedresourcerecord -->
<g id="node10" class="node"><title>core_taskreservedresourcerecord</title>
<g id="a_node10"><a xlink:href="../../tables/core_taskreservedresourcerecord.html" xlink:title="core_taskreservedresourcerecord" target="_top">
<polygon fill="#ffffff" stroke="none" points="376,-37 376,-95 615,-95 615,-37 376,-37"/>
<polygon fill="#f5f5f5" stroke="none" points="376.5,-73 376.5,-95 615.5,-95 615.5,-73 376.5,-73"/>
<polygon fill="none" stroke="black" points="376.5,-73 376.5,-95 615.5,-95 615.5,-73 376.5,-73"/>
<text text-anchor="start" x="381.5" y="-82.2" font-family="Helvetica,sans-Serif" font-weight="bold" font-size="11.00">core_taskreservedresourcerecord</text>
<text text-anchor="start" x="576.5" y="-81.2" font-family="Helvetica,sans-Serif" font-size="11.00">[table]</text>
<polygon fill="none" stroke="black" points="376.5,-55 376.5,-73 615.5,-73 615.5,-55 376.5,-55"/>
<text text-anchor="start" x="379.5" y="-61.2" font-family="Helvetica,sans-Serif" font-size="11.00">...</text>
<polygon fill="#ffffff" stroke="none" points="376.5,-37 376.5,-55 468.5,-55 468.5,-37 376.5,-37"/>
<polygon fill="none" stroke="black" points="376.5,-37 376.5,-55 468.5,-55 468.5,-37 376.5,-37"/>
<text text-anchor="start" x="379.5" y="-43.2" font-family="Helvetica,sans-Serif" font-size="11.00">&lt; 2</text>
<polygon fill="#ffffff" stroke="none" points="468.5,-37 468.5,-55 567.5,-55 567.5,-37 468.5,-37"/>
<polygon fill="none" stroke="black" points="468.5,-37 468.5,-55 567.5,-55 567.5,-37 468.5,-37"/>
<text text-anchor="start" x="505.5" y="-43.2" font-family="Helvetica,sans-Serif" font-size="11.00">1,937 rows</text>
<polygon fill="#ffffff" stroke="none" points="567.5,-37 567.5,-55 615.5,-55 615.5,-37 567.5,-37"/>
<polygon fill="none" stroke="black" points="567.5,-37 567.5,-55 615.5,-55 615.5,-37 567.5,-37"/>
<text text-anchor="start" x="605.5" y="-43.2" font-family="Helvetica,sans-Serif" font-size="11.00"> &#160;</text>
</a>
</g>
</g>
<!-- core_taskreservedresourcerecord&#45;&gt;core_task -->
<g id="edge9" class="edge"><title>core_taskreservedresourcerecord:elipses:w&#45;&gt;core_task:pulp_id:e</title>
<path fill="none" stroke="black" d="M361.347,-67.8298C291.514,-111.128 416.224,-507 322.5,-507"/>
<polygon fill="black" stroke="black" points="367.778,-66.0897 376.44,-67.475 371.639,-65.0448 375.5,-64 375.5,-64 375.5,-64 371.639,-65.0448 374.56,-60.525 367.778,-66.0897 367.778,-66.0897"/>
<ellipse fill="none" stroke="black" cx="364.689" cy="-66.9255" rx="3.2" ry="3.2"/>
</g>
</g>
</svg>
