<?xml version="1.0" encoding="UTF-8" standalone="no"?>
<!DOCTYPE svg PUBLIC "-//W3C//DTD SVG 1.1//EN"
 "http://www.w3.org/Graphics/SVG/1.1/DTD/svg11.dtd">
<!-- Generated by graphviz version 2.38.0 (20140413.2041)
 -->
<!-- Title: oneDegreeRelationshipsDiagram Pages: 1 -->
<svg width="430pt" height="175pt"
 viewBox="0.00 0.00 430.00 175.00" xmlns="http://www.w3.org/2000/svg" xmlns:xlink="http://www.w3.org/1999/xlink">
<g id="graph0" class="graph" transform="scale(1 1) rotate(0) translate(4 171)">
<title>oneDegreeRelationshipsDiagram</title>
<polygon fill="#ffffff" stroke="none" points="-4,4 -4,-171 426,-171 426,4 -4,4"/>
<text text-anchor="middle" x="74.5" y="-7.2" font-family="Helvetica,sans-Serif" font-size="11.00">Generated by SchemaSpy</text>
<!-- core_pulpimport -->
<g id="node1" class="node"><title>core_pulpimport</title>
<g id="a_node1"><a xlink:href="../../tables/core_pulpimport.html" xlink:title="core_pulpimport" target="_top">
<polygon fill="#ffffff" stroke="none" points="186,-97 186,-163 414,-163 414,-97 186,-97"/>
<polygon fill="#f5f5f5" stroke="none" points="188,-139 188,-161 412,-161 412,-139 188,-139"/>
<polygon fill="none" stroke="black" points="188,-139 188,-161 412,-161 412,-139 188,-139"/>
<text text-anchor="start" x="193" y="-148.2" font-family="Helvetica,sans-Serif" font-weight="bold" font-size="11.00">core_pulpimport</text>
<text text-anchor="start" x="373" y="-147.2" font-family="Helvetica,sans-Serif" font-size="11.00">[table]</text>
<polygon fill="none" stroke="black" points="188,-117 188,-139 307,-139 307,-117 188,-117"/>
<image xlink:href="../../images/primaryKeys.png" width="11px" height="12px" preserveAspectRatio="xMinYMin meet" x="193" y="-134"/>
<text text-anchor="start" x="208" y="-125.2" font-family="Helvetica,sans-Serif" font-size="11.00">import_ptr_id</text>
<polygon fill="none" stroke="black" points="307,-117 307,-139 412,-139 412,-117 307,-117"/>
<text text-anchor="start" x="310" y="-125.2" font-family="Helvetica,sans-Serif" font-size="11.00">uuid[2147483647]</text>
<polygon fill="#ffffff" stroke="none" points="188,-99 188,-117 238,-117 238,-99 188,-99"/>
<polygon fill="none" stroke="black" points="188,-99 188,-117 238,-117 238,-99 188,-99"/>
<text text-anchor="start" x="191" y="-105.2" font-family="Helvetica,sans-Serif" font-size="11.00">&lt; 1</text>
<polygon fill="#ffffff" stroke="none" points="238,-99 238,-117 307,-117 307,-99 238,-99"/>
<polygon fill="none" stroke="black" points="238,-99 238,-117 307,-117 307,-99 238,-99"/>
<text text-anchor="start" x="268" y="-105.2" font-family="Helvetica,sans-Serif" font-size="11.00">0 rows</text>
<polygon fill="#ffffff" stroke="none" points="307,-99 307,-117 412,-117 412,-99 307,-99"/>
<polygon fill="none" stroke="black" points="307,-99 307,-117 412,-117 412,-99 307,-99"/>
<text text-anchor="start" x="392" y="-105.2" font-family="Helvetica,sans-Serif" font-size="11.00">0 &gt;</text>
<polygon fill="none" stroke="black" stroke-width="2" points="187,-98 187,-162 413,-162 413,-98 187,-98"/>
</a>
</g>
</g>
<!-- core_import -->
<g id="node2" class="node"><title>core_import</title>
<g id="a_node2"><a xlink:href="../../tables/core_import.html" xlink:title="core_import" target="_top">
<polygon fill="#ffffff" stroke="none" points="8,-37 8,-161 137,-161 137,-37 8,-37"/>
<polygon fill="#f5f5f5" stroke="none" points="8.5,-139 8.5,-161 137.5,-161 137.5,-139 8.5,-139"/>
<polygon fill="none" stroke="black" points="8.5,-139 8.5,-161 137.5,-161 137.5,-139 8.5,-139"/>
<text text-anchor="start" x="13.5" y="-148.2" font-family="Helvetica,sans-Serif" font-weight="bold" font-size="11.00">core_import</text>
<text text-anchor="start" x="98.5" y="-147.2" font-family="Helvetica,sans-Serif" font-size="11.00">[table]</text>
<polygon fill="none" stroke="black" points="8.5,-117 8.5,-139 137.5,-139 137.5,-117 8.5,-117"/>
<image xlink:href="../../images/primaryKeys.png" width="11px" height="12px" preserveAspectRatio="xMinYMin meet" x="13.5" y="-134"/>
<text text-anchor="start" x="28.5" y="-125.2" font-family="Helvetica,sans-Serif" font-size="11.00">pulp_id</text>
<polygon fill="#ffffff" stroke="none" points="8.5,-95 8.5,-117 137.5,-117 137.5,-95 8.5,-95"/>
<polygon fill="none" stroke="black" points="8.5,-95 8.5,-117 137.5,-117 137.5,-95 8.5,-95"/>
<image xlink:href="../../images/foreignKeys.png" width="11px" height="12px" preserveAspectRatio="xMinYMin meet" x="13.5" y="-112"/>
<text text-anchor="start" x="28.5" y="-103.2" font-family="Helvetica,sans-Serif" font-size="11.00">importer_id</text>
<polygon fill="#ffffff" stroke="none" points="8.5,-73 8.5,-95 137.5,-95 137.5,-73 8.5,-73"/>
<polygon fill="none" stroke="black" points="8.5,-73 8.5,-95 137.5,-95 137.5,-73 8.5,-73"/>
<image xlink:href="../../images/foreignKeys.png" width="11px" height="12px" preserveAspectRatio="xMinYMin meet" x="13.5" y="-90"/>
<text text-anchor="start" x="28.5" y="-81.2" font-family="Helvetica,sans-Serif" font-size="11.00">task_id</text>
<polygon fill="none" stroke="black" points="8.5,-55 8.5,-73 137.5,-73 137.5,-55 8.5,-55"/>
<text text-anchor="start" x="11.5" y="-61.2" font-family="Helvetica,sans-Serif" font-size="11.00">...</text>
<polygon fill="#ffffff" stroke="none" points="8.5,-37 8.5,-55 51.5,-55 51.5,-37 8.5,-37"/>
<polygon fill="none" stroke="black" points="8.5,-37 8.5,-55 51.5,-55 51.5,-37 8.5,-37"/>
<text text-anchor="start" x="11.5" y="-43.2" font-family="Helvetica,sans-Serif" font-size="11.00">&lt; 2</text>
<polygon fill="#ffffff" stroke="none" points="51.5,-37 51.5,-55 103.5,-55 103.5,-37 51.5,-37"/>
<polygon fill="none" stroke="black" points="51.5,-37 51.5,-55 103.5,-55 103.5,-37 51.5,-37"/>
<text text-anchor="start" x="64.5" y="-43.2" font-family="Helvetica,sans-Serif" font-size="11.00">0 rows</text>
<polygon fill="#ffffff" stroke="none" points="103.5,-37 103.5,-55 137.5,-55 137.5,-37 103.5,-37"/>
<polygon fill="none" stroke="black" points="103.5,-37 103.5,-55 137.5,-55 137.5,-37 103.5,-37"/>
<text text-anchor="start" x="117.5" y="-43.2" font-family="Helvetica,sans-Serif" font-size="11.00">1 &gt;</text>
</a>
</g>
</g>
<!-- core_pulpimport&#45;&gt;core_import -->
<g id="edge1" class="edge"><title>core_pulpimport:import_ptr_id:w&#45;&gt;core_import:pulp_id:e</title>
<path fill="none" stroke="black" d="M176.367,-128C162.855,-128 156.014,-128 138.5,-128"/>
<polygon fill="black" stroke="black" points="186.2,-124 186.2,-132 184.6,-132 184.6,-124 186.2,-124"/>
<polyline fill="none" stroke="black" points="187,-128 183,-128 "/>
<ellipse fill="none" stroke="black" cx="179.8" cy="-128" rx="3.2" ry="3.2"/>
</g>
</g>
</svg>
