<?xml version="1.0" encoding="UTF-8" standalone="no"?>
<!DOCTYPE svg PUBLIC "-//W3C//DTD SVG 1.1//EN"
 "http://www.w3.org/Graphics/SVG/1.1/DTD/svg11.dtd">
<!-- Generated by graphviz version 2.38.0 (20140413.2041)
 -->
<!-- Title: twoDegreesRelationshipsDiagram Pages: 1 -->
<svg width="875pt" height="322pt"
 viewBox="0.00 0.00 875.00 322.00" xmlns="http://www.w3.org/2000/svg" xmlns:xlink="http://www.w3.org/1999/xlink">
<g id="graph0" class="graph" transform="scale(1 1) rotate(0) translate(4 318)">
<title>twoDegreesRelationshipsDiagram</title>
<polygon fill="#ffffff" stroke="none" points="-4,4 -4,-318 871,-318 871,4 -4,4"/>
<text text-anchor="middle" x="74.5" y="-7.2" font-family="Helvetica,sans-Serif" font-size="11.00">Generated by SchemaSpy</text>
<!-- ansible_ansibledistribution -->
<g id="node1" class="node"><title>ansible_ansibledistribution</title>
<g id="a_node1"><a xlink:href="../../tables/ansible_ansibledistribution.html" xlink:title="ansible_ansibledistribution" target="_top">
<polygon fill="#ffffff" stroke="none" points="640,-185 640,-243 845,-243 845,-185 640,-185"/>
<polygon fill="#f5f5f5" stroke="none" points="640.5,-221 640.5,-243 845.5,-243 845.5,-221 640.5,-221"/>
<polygon fill="none" stroke="black" points="640.5,-221 640.5,-243 845.5,-243 845.5,-221 640.5,-221"/>
<text text-anchor="start" x="645.5" y="-230.2" font-family="Helvetica,sans-Serif" font-weight="bold" font-size="11.00">ansible_ansibledistribution</text>
<text text-anchor="start" x="806.5" y="-229.2" font-family="Helvetica,sans-Serif" font-size="11.00">[table]</text>
<polygon fill="none" stroke="black" points="640.5,-203 640.5,-221 845.5,-221 845.5,-203 640.5,-203"/>
<text text-anchor="start" x="643.5" y="-209.2" font-family="Helvetica,sans-Serif" font-size="11.00">...</text>
<polygon fill="#ffffff" stroke="none" points="640.5,-185 640.5,-203 723.5,-203 723.5,-185 640.5,-185"/>
<polygon fill="none" stroke="black" points="640.5,-185 640.5,-203 723.5,-203 723.5,-185 640.5,-185"/>
<text text-anchor="start" x="643.5" y="-191.2" font-family="Helvetica,sans-Serif" font-size="11.00">&lt; 3</text>
<polygon fill="#ffffff" stroke="none" points="723.5,-185 723.5,-203 802.5,-203 802.5,-185 723.5,-185"/>
<polygon fill="none" stroke="black" points="723.5,-185 723.5,-203 802.5,-203 802.5,-185 723.5,-185"/>
<text text-anchor="start" x="756.5" y="-191.2" font-family="Helvetica,sans-Serif" font-size="11.00">32 rows</text>
<polygon fill="#ffffff" stroke="none" points="802.5,-185 802.5,-203 845.5,-203 845.5,-185 802.5,-185"/>
<polygon fill="none" stroke="black" points="802.5,-185 802.5,-203 845.5,-203 845.5,-185 802.5,-185"/>
<text text-anchor="start" x="835.5" y="-191.2" font-family="Helvetica,sans-Serif" font-size="11.00"> &#160;</text>
</a>
</g>
</g>
<!-- core_basedistribution -->
<g id="node2" class="node"><title>core_basedistribution</title>
<g id="a_node2"><a xlink:href="../../tables/core_basedistribution.html" xlink:title="core_basedistribution" target="_top">
<polygon fill="#ffffff" stroke="none" points="351.5,-37 351.5,-205 524.5,-205 524.5,-37 351.5,-37"/>
<polygon fill="#f5f5f5" stroke="none" points="352,-183 352,-205 525,-205 525,-183 352,-183"/>
<polygon fill="none" stroke="black" points="352,-183 352,-205 525,-205 525,-183 352,-183"/>
<text text-anchor="start" x="357" y="-192.2" font-family="Helvetica,sans-Serif" font-weight="bold" font-size="11.00">core_basedistribution</text>
<text text-anchor="start" x="486" y="-191.2" font-family="Helvetica,sans-Serif" font-size="11.00">[table]</text>
<polygon fill="none" stroke="black" points="352,-161 352,-183 525,-183 525,-161 352,-161"/>
<image xlink:href="../../images/primaryKeys.png" width="11px" height="12px" preserveAspectRatio="xMinYMin meet" x="357" y="-178"/>
<text text-anchor="start" x="383" y="-169.2" font-family="Helvetica,sans-Serif" font-size="11.00">pulp_id</text>
<polygon fill="#ffffff" stroke="none" points="352,-139 352,-161 525,-161 525,-139 352,-139"/>
<polygon fill="none" stroke="black" points="352,-139 352,-161 525,-161 525,-139 352,-139"/>
<text text-anchor="start" x="383" y="-147.2" font-family="Helvetica,sans-Serif" font-size="11.00">name</text>
<polygon fill="#ffffff" stroke="none" points="352,-117 352,-139 525,-139 525,-117 352,-117"/>
<polygon fill="none" stroke="black" points="352,-117 352,-139 525,-139 525,-117 352,-117"/>
<text text-anchor="start" x="383" y="-125.2" font-family="Helvetica,sans-Serif" font-size="11.00">base_path</text>
<polygon fill="#ffffff" stroke="none" points="352,-95 352,-117 525,-117 525,-95 352,-95"/>
<polygon fill="none" stroke="black" points="352,-95 352,-117 525,-117 525,-95 352,-95"/>
<image xlink:href="../../images/foreignKeys.png" width="11px" height="12px" preserveAspectRatio="xMinYMin meet" x="357" y="-112"/>
<text text-anchor="start" x="383" y="-103.2" font-family="Helvetica,sans-Serif" font-size="11.00">content_guard_id</text>
<polygon fill="#ffffff" stroke="none" points="352,-73 352,-95 525,-95 525,-73 352,-73"/>
<polygon fill="none" stroke="black" points="352,-73 352,-95 525,-95 525,-73 352,-73"/>
<image xlink:href="../../images/foreignKeys.png" width="11px" height="12px" preserveAspectRatio="xMinYMin meet" x="357" y="-90"/>
<text text-anchor="start" x="383" y="-81.2" font-family="Helvetica,sans-Serif" font-size="11.00">remote_id</text>
<polygon fill="none" stroke="black" points="352,-55 352,-73 525,-73 525,-55 352,-55"/>
<text text-anchor="start" x="355" y="-61.2" font-family="Helvetica,sans-Serif" font-size="11.00">...</text>
<polygon fill="#ffffff" stroke="none" points="352,-37 352,-55 414,-55 414,-37 352,-37"/>
<polygon fill="none" stroke="black" points="352,-37 352,-55 414,-55 414,-37 352,-37"/>
<text text-anchor="start" x="355" y="-43.2" font-family="Helvetica,sans-Serif" font-size="11.00">&lt; 2</text>
<polygon fill="#ffffff" stroke="none" points="414,-37 414,-55 482,-55 482,-37 414,-37"/>
<polygon fill="none" stroke="black" points="414,-37 414,-55 482,-55 482,-37 414,-37"/>
<text text-anchor="start" x="436" y="-43.2" font-family="Helvetica,sans-Serif" font-size="11.00">32 rows</text>
<polygon fill="#ffffff" stroke="none" points="482,-37 482,-55 525,-55 525,-37 482,-37"/>
<polygon fill="none" stroke="black" points="482,-37 482,-55 525,-55 525,-37 482,-37"/>
<text text-anchor="start" x="505" y="-43.2" font-family="Helvetica,sans-Serif" font-size="11.00">2 &gt;</text>
</a>
</g>
</g>
<!-- ansible_ansibledistribution&#45;&gt;core_basedistribution -->
<g id="edge1" class="edge"><title>ansible_ansibledistribution:elipses:w&#45;&gt;core_basedistribution:pulp_id:e</title>
<path fill="none" stroke="black" d="M628.882,-211.435C584.864,-206.573 575.725,-172 526,-172"/>
<polygon fill="black" stroke="black" points="638.914,-207.963 638.488,-215.952 636.891,-215.867 637.316,-207.878 638.914,-207.963"/>
<polyline fill="none" stroke="black" points="639.5,-212 635.506,-211.787 "/>
<ellipse fill="none" stroke="black" cx="632.31" cy="-211.617" rx="3.2" ry="3.2"/>
</g>
<!-- core_contentguard -->
<g id="node5" class="node"><title>core_contentguard</title>
<g id="a_node5"><a xlink:href="../../tables/core_contentguard.html" xlink:title="core_contentguard" target="_top">
<polygon fill="#ffffff" stroke="none" points="8,-134 8,-310 250,-310 250,-134 8,-134"/>
<polygon fill="#f5f5f5" stroke="none" points="10,-286 10,-308 248,-308 248,-286 10,-286"/>
<polygon fill="none" stroke="black" points="10,-286 10,-308 248,-308 248,-286 10,-286"/>
<text text-anchor="start" x="15" y="-295.2" font-family="Helvetica,sans-Serif" font-weight="bold" font-size="11.00">core_contentguard</text>
<text text-anchor="start" x="209" y="-294.2" font-family="Helvetica,sans-Serif" font-size="11.00">[table]</text>
<polygon fill="none" stroke="black" points="10,-264 10,-286 143,-286 143,-264 10,-264"/>
<image xlink:href="../../images/primaryKeys.png" width="11px" height="12px" preserveAspectRatio="xMinYMin meet" x="15" y="-281"/>
<text text-anchor="start" x="30" y="-272.2" font-family="Helvetica,sans-Serif" font-size="11.00">pulp_id</text>
<polygon fill="none" stroke="black" points="143,-264 143,-286 248,-286 248,-264 143,-264"/>
<text text-anchor="start" x="146" y="-272.2" font-family="Helvetica,sans-Serif" font-size="11.00">uuid[2147483647]</text>
<polygon fill="none" stroke="black" points="10,-242 10,-264 143,-264 143,-242 10,-242"/>
<text text-anchor="start" x="30" y="-250.2" font-family="Helvetica,sans-Serif" font-size="11.00">pulp_created</text>
<polygon fill="none" stroke="black" points="143,-242 143,-264 248,-264 248,-242 143,-242"/>
<text text-anchor="start" x="146" y="-250.2" font-family="Helvetica,sans-Serif" font-size="11.00">timestamptz[35,6]</text>
<polygon fill="none" stroke="black" points="10,-220 10,-242 143,-242 143,-220 10,-220"/>
<text text-anchor="start" x="30" y="-228.2" font-family="Helvetica,sans-Serif" font-size="11.00">pulp_last_updated</text>
<polygon fill="none" stroke="black" points="143,-220 143,-242 248,-242 248,-220 143,-220"/>
<text text-anchor="start" x="146" y="-228.2" font-family="Helvetica,sans-Serif" font-size="11.00">timestamptz[35,6]</text>
<polygon fill="none" stroke="black" points="10,-198 10,-220 143,-220 143,-198 10,-198"/>
<text text-anchor="start" x="30" y="-206.2" font-family="Helvetica,sans-Serif" font-size="11.00">pulp_type</text>
<polygon fill="none" stroke="black" points="143,-198 143,-220 248,-220 248,-198 143,-198"/>
<text text-anchor="start" x="146" y="-206.2" font-family="Helvetica,sans-Serif" font-size="11.00">text[2147483647]</text>
<polygon fill="#ffffff" stroke="none" points="10,-176 10,-198 143,-198 143,-176 10,-176"/>
<polygon fill="none" stroke="black" points="10,-176 10,-198 143,-198 143,-176 10,-176"/>
<text text-anchor="start" x="30" y="-184.2" font-family="Helvetica,sans-Serif" font-size="11.00">name</text>
<polygon fill="none" stroke="black" points="143,-176 143,-198 248,-198 248,-176 143,-176"/>
<text text-anchor="start" x="146" y="-184.2" font-family="Helvetica,sans-Serif" font-size="11.00">text[2147483647]</text>
<polygon fill="none" stroke="black" points="10,-154 10,-176 143,-176 143,-154 10,-154"/>
<text text-anchor="start" x="30" y="-162.2" font-family="Helvetica,sans-Serif" font-size="11.00">description</text>
<polygon fill="none" stroke="black" points="143,-154 143,-176 248,-176 248,-154 143,-154"/>
<text text-anchor="start" x="146" y="-162.2" font-family="Helvetica,sans-Serif" font-size="11.00">text[2147483647]</text>
<polygon fill="#ffffff" stroke="none" points="10,-136 10,-154 67,-154 67,-136 10,-136"/>
<polygon fill="none" stroke="black" points="10,-136 10,-154 67,-154 67,-136 10,-136"/>
<text text-anchor="start" x="13" y="-142.2" font-family="Helvetica,sans-Serif" font-size="11.00">&lt; 0</text>
<polygon fill="#ffffff" stroke="none" points="67,-136 67,-154 143,-154 143,-136 67,-136"/>
<polygon fill="none" stroke="black" points="67,-136 67,-154 143,-154 143,-136 67,-136"/>
<text text-anchor="start" x="104" y="-142.2" font-family="Helvetica,sans-Serif" font-size="11.00">0 rows</text>
<polygon fill="#ffffff" stroke="none" points="143,-136 143,-154 248,-154 248,-136 143,-136"/>
<polygon fill="none" stroke="black" points="143,-136 143,-154 248,-154 248,-136 143,-136"/>
<text text-anchor="start" x="228" y="-142.2" font-family="Helvetica,sans-Serif" font-size="11.00">2 &gt;</text>
<polygon fill="none" stroke="black" stroke-width="2" points="9,-135 9,-309 249,-309 249,-135 9,-135"/>
</a>
</g>
</g>
<!-- core_basedistribution&#45;&gt;core_contentguard -->
<g id="edge4" class="edge"><title>core_basedistribution:content_guard_id:w&#45;&gt;core_contentguard:pulp_id.type:e</title>
<path fill="none" stroke="black" d="M337.591,-111.623C303.659,-140.947 288.068,-275 249,-275"/>
<polygon fill="black" stroke="black" points="343.622,-109.094 352.392,-109.32 347.311,-107.547 351,-106 351,-106 351,-106 347.311,-107.547 349.608,-102.68 343.622,-109.094 343.622,-109.094"/>
<ellipse fill="none" stroke="black" cx="340.671" cy="-110.331" rx="3.20001" ry="3.20001"/>
</g>
<!-- core_remote -->
<g id="node6" class="node"><title>core_remote</title>
<g id="a_node6"><a xlink:href="../../tables/core_remote.html" xlink:title="core_remote" target="_top">
<polygon fill="#ffffff" stroke="none" points="69,-55 69,-113 189,-113 189,-55 69,-55"/>
<polygon fill="#f5f5f5" stroke="none" points="69,-91 69,-113 189,-113 189,-91 69,-91"/>
<polygon fill="none" stroke="black" points="69,-91 69,-113 189,-113 189,-91 69,-91"/>
<text text-anchor="start" x="74" y="-100.2" font-family="Helvetica,sans-Serif" font-weight="bold" font-size="11.00">core_remote</text>
<text text-anchor="start" x="150" y="-99.2" font-family="Helvetica,sans-Serif" font-size="11.00">[table]</text>
<polygon fill="none" stroke="black" points="69,-73 69,-91 189,-91 189,-73 69,-73"/>
<text text-anchor="start" x="72" y="-79.2" font-family="Helvetica,sans-Serif" font-size="11.00">...</text>
<polygon fill="#ffffff" stroke="none" points="69,-55 69,-73 103,-73 103,-55 69,-55"/>
<polygon fill="none" stroke="black" points="69,-55 69,-73 103,-73 103,-55 69,-55"/>
<text text-anchor="start" x="72" y="-61.2" font-family="Helvetica,sans-Serif" font-size="11.00"> &#160;</text>
<polygon fill="#ffffff" stroke="none" points="103,-55 103,-73 155,-73 155,-55 103,-55"/>
<polygon fill="none" stroke="black" points="103,-55 103,-73 155,-73 155,-55 103,-55"/>
<text text-anchor="start" x="116" y="-61.2" font-family="Helvetica,sans-Serif" font-size="11.00">7 rows</text>
<polygon fill="#ffffff" stroke="none" points="155,-55 155,-73 189,-73 189,-55 155,-55"/>
<polygon fill="none" stroke="black" points="155,-55 155,-73 189,-73 189,-55 155,-55"/>
<text text-anchor="start" x="169" y="-61.2" font-family="Helvetica,sans-Serif" font-size="11.00">6 &gt;</text>
</a>
</g>
</g>
<!-- core_basedistribution&#45;&gt;core_remote -->
<g id="edge5" class="edge"><title>core_basedistribution:remote_id:w&#45;&gt;core_remote:elipses:e</title>
<path fill="none" stroke="black" d="M336.286,-83.9702C276.575,-83.7214 256.39,-82 190,-82"/>
<polygon fill="black" stroke="black" points="343,-83.9837 350.993,-87.6 347,-83.9919 351,-84 351,-84 351,-84 347,-83.9919 351.007,-80.4 343,-83.9837 343,-83.9837"/>
<ellipse fill="none" stroke="black" cx="339.8" cy="-83.9772" rx="3.2" ry="3.2"/>
</g>
<!-- container_containerdistribution -->
<g id="node3" class="node"><title>container_containerdistribution</title>
<g id="a_node3"><a xlink:href="../../tables/container_containerdistribution.html" xlink:title="container_containerdistribution" target="_top">
<polygon fill="#ffffff" stroke="none" points="626,-106 626,-164 859,-164 859,-106 626,-106"/>
<polygon fill="#f5f5f5" stroke="none" points="626.5,-142 626.5,-164 859.5,-164 859.5,-142 626.5,-142"/>
<polygon fill="none" stroke="black" points="626.5,-142 626.5,-164 859.5,-164 859.5,-142 626.5,-142"/>
<text text-anchor="start" x="631.5" y="-151.2" font-family="Helvetica,sans-Serif" font-weight="bold" font-size="11.00">container_containerdistribution</text>
<text text-anchor="start" x="820.5" y="-150.2" font-family="Helvetica,sans-Serif" font-size="11.00">[table]</text>
<polygon fill="none" stroke="black" points="626.5,-124 626.5,-142 859.5,-142 859.5,-124 626.5,-124"/>
<text text-anchor="start" x="629.5" y="-130.2" font-family="Helvetica,sans-Serif" font-size="11.00">...</text>
<polygon fill="#ffffff" stroke="none" points="626.5,-106 626.5,-124 726.5,-124 726.5,-106 626.5,-106"/>
<polygon fill="none" stroke="black" points="626.5,-106 626.5,-124 726.5,-124 726.5,-106 626.5,-106"/>
<text text-anchor="start" x="629.5" y="-112.2" font-family="Helvetica,sans-Serif" font-size="11.00">&lt; 3</text>
<polygon fill="#ffffff" stroke="none" points="726.5,-106 726.5,-124 807.5,-124 807.5,-106 726.5,-106"/>
<polygon fill="none" stroke="black" points="726.5,-106 726.5,-124 807.5,-124 807.5,-106 726.5,-106"/>
<text text-anchor="start" x="768.5" y="-112.2" font-family="Helvetica,sans-Serif" font-size="11.00">0 rows</text>
<polygon fill="#ffffff" stroke="none" points="807.5,-106 807.5,-124 859.5,-124 859.5,-106 807.5,-106"/>
<polygon fill="none" stroke="black" points="807.5,-106 807.5,-124 859.5,-124 859.5,-106 807.5,-106"/>
<text text-anchor="start" x="849.5" y="-112.2" font-family="Helvetica,sans-Serif" font-size="11.00"> &#160;</text>
</a>
</g>
</g>
<!-- container_containerdistribution&#45;&gt;core_basedistribution -->
<g id="edge2" class="edge"><title>container_containerdistribution:elipses:w&#45;&gt;core_basedistribution:pulp_id:e</title>
<path fill="none" stroke="black" d="M615.114,-133.677C577.036,-138.856 569.787,-172 526,-172"/>
<polygon fill="black" stroke="black" points="624.442,-129.061 624.962,-137.044 623.365,-137.148 622.845,-129.165 624.442,-129.061"/>
<polyline fill="none" stroke="black" points="625.5,-133 621.508,-133.26 "/>
<ellipse fill="none" stroke="black" cx="618.315" cy="-133.468" rx="3.2" ry="3.2"/>
</g>
<!-- container_contentredirectcontentguard -->
<g id="node4" class="node"><title>container_contentredirectcontentguard</title>
<g id="a_node4"><a xlink:href="../../tables/container_contentredirectcontentguard.html" xlink:title="container_contentredirectcontentguard" target="_top">
<polygon fill="#ffffff" stroke="none" points="299,-228 299,-308 577,-308 577,-228 299,-228"/>
<polygon fill="#f5f5f5" stroke="none" points="299,-286 299,-308 577,-308 577,-286 299,-286"/>
<polygon fill="none" stroke="black" points="299,-286 299,-308 577,-308 577,-286 299,-286"/>
<text text-anchor="start" x="304" y="-295.2" font-family="Helvetica,sans-Serif" font-weight="bold" font-size="11.00">container_contentredirectcontentguard</text>
<text text-anchor="start" x="538" y="-294.2" font-family="Helvetica,sans-Serif" font-size="11.00">[table]</text>
<polygon fill="none" stroke="black" points="299,-264 299,-286 577,-286 577,-264 299,-264"/>
<image xlink:href="../../images/primaryKeys.png" width="11px" height="12px" preserveAspectRatio="xMinYMin meet" x="304" y="-281"/>
<text text-anchor="start" x="328" y="-272.2" font-family="Helvetica,sans-Serif" font-size="11.00">contentguard_ptr_id</text>
<polygon fill="none" stroke="black" points="299,-246 299,-264 577,-264 577,-246 299,-246"/>
<text text-anchor="start" x="302" y="-252.2" font-family="Helvetica,sans-Serif" font-size="11.00">...</text>
<polygon fill="#ffffff" stroke="none" points="299,-228 299,-246 422,-246 422,-228 299,-228"/>
<polygon fill="none" stroke="black" points="299,-228 299,-246 422,-246 422,-228 299,-228"/>
<text text-anchor="start" x="302" y="-234.2" font-family="Helvetica,sans-Serif" font-size="11.00">&lt; 1</text>
<polygon fill="#ffffff" stroke="none" points="422,-228 422,-246 514,-246 514,-228 422,-228"/>
<polygon fill="none" stroke="black" points="422,-228 422,-246 514,-246 514,-228 422,-228"/>
<text text-anchor="start" x="475" y="-234.2" font-family="Helvetica,sans-Serif" font-size="11.00">0 rows</text>
<polygon fill="#ffffff" stroke="none" points="514,-228 514,-246 577,-246 577,-228 514,-228"/>
<polygon fill="none" stroke="black" points="514,-228 514,-246 577,-246 577,-228 514,-228"/>
<text text-anchor="start" x="567" y="-234.2" font-family="Helvetica,sans-Serif" font-size="11.00"> &#160;</text>
</a>
</g>
</g>
<!-- container_contentredirectcontentguard&#45;&gt;core_contentguard -->
<g id="edge3" class="edge"><title>container_contentredirectcontentguard:contentguard_ptr_id:w&#45;&gt;core_contentguard:pulp_id.type:e</title>
<path fill="none" stroke="black" d="M287.257,-275C273.606,-275 266.694,-275 249,-275"/>
<polygon fill="black" stroke="black" points="297.2,-271 297.2,-279 295.6,-279 295.6,-271 297.2,-271"/>
<polyline fill="none" stroke="black" points="298,-275 294,-275 "/>
<ellipse fill="none" stroke="black" cx="290.8" cy="-275" rx="3.2" ry="3.2"/>
</g>
</g>
</svg>
