<?xml version="1.0" encoding="UTF-8" standalone="no"?>
<!DOCTYPE svg PUBLIC "-//W3C//DTD SVG 1.1//EN"
 "http://www.w3.org/Graphics/SVG/1.1/DTD/svg11.dtd">
<!-- Generated by graphviz version 2.38.0 (20140413.2041)
 -->
<!-- Title: oneDegreeRelationshipsDiagram Pages: 1 -->
<svg width="543pt" height="296pt"
 viewBox="0.00 0.00 543.00 296.00" xmlns="http://www.w3.org/2000/svg" xmlns:xlink="http://www.w3.org/1999/xlink">
<g id="graph0" class="graph" transform="scale(1 1) rotate(0) translate(4 292)">
<title>oneDegreeRelationshipsDiagram</title>
<polygon fill="#ffffff" stroke="none" points="-4,4 -4,-292 539,-292 539,4 -4,4"/>
<text text-anchor="middle" x="74.5" y="-7.2" font-family="Helvetica,sans-Serif" font-size="11.00">Generated by SchemaSpy</text>
<!-- core_pulpexporter_repositories -->
<g id="node1" class="node"><title>core_pulpexporter_repositories</title>
<g id="a_node1"><a xlink:href="../../tables/core_pulpexporter_repositories.html" xlink:title="core_pulpexporter_repositories" target="_top">
<polygon fill="#ffffff" stroke="none" points="211,-147 211,-257 527,-257 527,-147 211,-147"/>
<polygon fill="#f5f5f5" stroke="none" points="213,-233 213,-255 525,-255 525,-233 213,-233"/>
<polygon fill="none" stroke="black" points="213,-233 213,-255 525,-255 525,-233 213,-233"/>
<text text-anchor="start" x="218" y="-242.2" font-family="Helvetica,sans-Serif" font-weight="bold" font-size="11.00">core_pulpexporter_repositories</text>
<text text-anchor="start" x="486" y="-241.2" font-family="Helvetica,sans-Serif" font-size="11.00">[table]</text>
<polygon fill="none" stroke="black" points="213,-211 213,-233 420,-233 420,-211 213,-211"/>
<image xlink:href="../../images/primaryKeys.png" width="11px" height="12px" preserveAspectRatio="xMinYMin meet" x="218" y="-228"/>
<text text-anchor="start" x="233" y="-219.2" font-family="Helvetica,sans-Serif" font-size="11.00">id</text>
<polygon fill="none" stroke="black" points="420,-211 420,-233 525,-233 525,-211 420,-211"/>
<text text-anchor="start" x="423" y="-219.2" font-family="Helvetica,sans-Serif" font-size="11.00">serial[10]</text>
<polygon fill="#ffffff" stroke="none" points="213,-189 213,-211 420,-211 420,-189 213,-189"/>
<polygon fill="none" stroke="black" points="213,-189 213,-211 420,-211 420,-189 213,-189"/>
<image xlink:href="../../images/foreignKeys.png" width="11px" height="12px" preserveAspectRatio="xMinYMin meet" x="218" y="-206"/>
<text text-anchor="start" x="233" y="-197.2" font-family="Helvetica,sans-Serif" font-size="11.00">pulpexporter_id</text>
<polygon fill="none" stroke="black" points="420,-189 420,-211 525,-211 525,-189 420,-189"/>
<text text-anchor="start" x="423" y="-197.2" font-family="Helvetica,sans-Serif" font-size="11.00">uuid[2147483647]</text>
<polygon fill="#ffffff" stroke="none" points="213,-167 213,-189 420,-189 420,-167 213,-167"/>
<polygon fill="none" stroke="black" points="213,-167 213,-189 420,-189 420,-167 213,-167"/>
<image xlink:href="../../images/foreignKeys.png" width="11px" height="12px" preserveAspectRatio="xMinYMin meet" x="218" y="-184"/>
<text text-anchor="start" x="233" y="-175.2" font-family="Helvetica,sans-Serif" font-size="11.00">repository_id</text>
<polygon fill="none" stroke="black" points="420,-167 420,-189 525,-189 525,-167 420,-167"/>
<text text-anchor="start" x="423" y="-175.2" font-family="Helvetica,sans-Serif" font-size="11.00">uuid[2147483647]</text>
<polygon fill="#ffffff" stroke="none" points="213,-149 213,-167 307,-167 307,-149 213,-149"/>
<polygon fill="none" stroke="black" points="213,-149 213,-167 307,-167 307,-149 213,-149"/>
<text text-anchor="start" x="216" y="-155.2" font-family="Helvetica,sans-Serif" font-size="11.00">&lt; 2</text>
<polygon fill="#ffffff" stroke="none" points="307,-149 307,-167 420,-167 420,-149 307,-149"/>
<polygon fill="none" stroke="black" points="307,-149 307,-167 420,-167 420,-149 307,-149"/>
<text text-anchor="start" x="381" y="-155.2" font-family="Helvetica,sans-Serif" font-size="11.00">0 rows</text>
<polygon fill="#ffffff" stroke="none" points="420,-149 420,-167 525,-167 525,-149 420,-149"/>
<polygon fill="none" stroke="black" points="420,-149 420,-167 525,-167 525,-149 420,-149"/>
<text text-anchor="start" x="505" y="-155.2" font-family="Helvetica,sans-Serif" font-size="11.00">0 &gt;</text>
<polygon fill="none" stroke="black" stroke-width="2" points="212,-148 212,-256 526,-256 526,-148 212,-148"/>
</a>
</g>
</g>
<!-- core_pulpexporter -->
<g id="node2" class="node"><title>core_pulpexporter</title>
<g id="a_node2"><a xlink:href="../../tables/core_pulpexporter.html" xlink:title="core_pulpexporter" target="_top">
<polygon fill="#ffffff" stroke="none" points="8,-182 8,-284 162,-284 162,-182 8,-182"/>
<polygon fill="#f5f5f5" stroke="none" points="8,-262 8,-284 162,-284 162,-262 8,-262"/>
<polygon fill="none" stroke="black" points="8,-262 8,-284 162,-284 162,-262 8,-262"/>
<text text-anchor="start" x="13" y="-271.2" font-family="Helvetica,sans-Serif" font-weight="bold" font-size="11.00">core_pulpexporter</text>
<text text-anchor="start" x="123" y="-270.2" font-family="Helvetica,sans-Serif" font-size="11.00">[table]</text>
<polygon fill="none" stroke="black" points="8,-240 8,-262 162,-262 162,-240 8,-240"/>
<image xlink:href="../../images/primaryKeys.png" width="11px" height="12px" preserveAspectRatio="xMinYMin meet" x="13" y="-257"/>
<text text-anchor="start" x="40" y="-248.2" font-family="Helvetica,sans-Serif" font-size="11.00">exporter_ptr_id</text>
<polygon fill="#ffffff" stroke="none" points="8,-218 8,-240 162,-240 162,-218 8,-218"/>
<polygon fill="none" stroke="black" points="8,-218 8,-240 162,-240 162,-218 8,-218"/>
<image xlink:href="../../images/foreignKeys.png" width="11px" height="12px" preserveAspectRatio="xMinYMin meet" x="13" y="-235"/>
<text text-anchor="start" x="40" y="-226.2" font-family="Helvetica,sans-Serif" font-size="11.00">last_export_id</text>
<polygon fill="none" stroke="black" points="8,-200 8,-218 162,-218 162,-200 8,-200"/>
<text text-anchor="start" x="11" y="-206.2" font-family="Helvetica,sans-Serif" font-size="11.00">...</text>
<polygon fill="#ffffff" stroke="none" points="8,-182 8,-200 64,-200 64,-182 8,-182"/>
<polygon fill="none" stroke="black" points="8,-182 8,-200 64,-200 64,-182 8,-182"/>
<text text-anchor="start" x="11" y="-188.2" font-family="Helvetica,sans-Serif" font-size="11.00">&lt; 2</text>
<polygon fill="#ffffff" stroke="none" points="64,-182 64,-200 122,-200 122,-182 64,-182"/>
<polygon fill="none" stroke="black" points="64,-182 64,-200 122,-200 122,-182 64,-182"/>
<text text-anchor="start" x="83" y="-188.2" font-family="Helvetica,sans-Serif" font-size="11.00">0 rows</text>
<polygon fill="#ffffff" stroke="none" points="122,-182 122,-200 162,-200 162,-182 122,-182"/>
<polygon fill="none" stroke="black" points="122,-182 122,-200 162,-200 162,-182 122,-182"/>
<text text-anchor="start" x="142" y="-188.2" font-family="Helvetica,sans-Serif" font-size="11.00">1 &gt;</text>
</a>
</g>
</g>
<!-- core_pulpexporter_repositories&#45;&gt;core_pulpexporter -->
<g id="edge1" class="edge"><title>core_pulpexporter_repositories:pulpexporter_id:w&#45;&gt;core_pulpexporter:exporter_ptr_id:e</title>
<path fill="none" stroke="black" d="M198.091,-205.077C184.255,-217.976 188.294,-251 163,-251"/>
<polygon fill="black" stroke="black" points="204.485,-202.743 213.234,-203.382 208.242,-201.371 212,-200 212,-200 212,-200 208.242,-201.371 210.766,-196.618 204.485,-202.743 204.485,-202.743"/>
<ellipse fill="none" stroke="black" cx="201.479" cy="-203.84" rx="3.20001" ry="3.20001"/>
</g>
<!-- core_repository -->
<g id="node3" class="node"><title>core_repository</title>
<g id="a_node3"><a xlink:href="../../tables/core_repository.html" xlink:title="core_repository" target="_top">
<polygon fill="#ffffff" stroke="none" points="16.5,-37 16.5,-161 153.5,-161 153.5,-37 16.5,-37"/>
<polygon fill="#f5f5f5" stroke="none" points="17,-139 17,-161 154,-161 154,-139 17,-139"/>
<polygon fill="none" stroke="black" points="17,-139 17,-161 154,-161 154,-139 17,-139"/>
<text text-anchor="start" x="22" y="-148.2" font-family="Helvetica,sans-Serif" font-weight="bold" font-size="11.00">core_repository</text>
<text text-anchor="start" x="115" y="-147.2" font-family="Helvetica,sans-Serif" font-size="11.00">[table]</text>
<polygon fill="none" stroke="black" points="17,-117 17,-139 154,-139 154,-117 17,-117"/>
<image xlink:href="../../images/primaryKeys.png" width="11px" height="12px" preserveAspectRatio="xMinYMin meet" x="22" y="-134"/>
<text text-anchor="start" x="41" y="-125.2" font-family="Helvetica,sans-Serif" font-size="11.00">pulp_id</text>
<polygon fill="#ffffff" stroke="none" points="17,-95 17,-117 154,-117 154,-95 17,-95"/>
<polygon fill="none" stroke="black" points="17,-95 17,-117 154,-117 154,-95 17,-95"/>
<text text-anchor="start" x="41" y="-103.2" font-family="Helvetica,sans-Serif" font-size="11.00">name</text>
<polygon fill="#ffffff" stroke="none" points="17,-73 17,-95 154,-95 154,-73 17,-73"/>
<polygon fill="none" stroke="black" points="17,-73 17,-95 154,-95 154,-73 17,-73"/>
<image xlink:href="../../images/foreignKeys.png" width="11px" height="12px" preserveAspectRatio="xMinYMin meet" x="22" y="-90"/>
<text text-anchor="start" x="41" y="-81.2" font-family="Helvetica,sans-Serif" font-size="11.00">remote_id</text>
<polygon fill="none" stroke="black" points="17,-55 17,-73 154,-73 154,-55 17,-55"/>
<text text-anchor="start" x="20" y="-61.2" font-family="Helvetica,sans-Serif" font-size="11.00">...</text>
<polygon fill="#ffffff" stroke="none" points="17,-37 17,-55 57,-55 57,-37 17,-37"/>
<polygon fill="none" stroke="black" points="17,-37 17,-55 57,-55 57,-37 17,-37"/>
<text text-anchor="start" x="20" y="-43.2" font-family="Helvetica,sans-Serif" font-size="11.00">&lt; 1</text>
<polygon fill="#ffffff" stroke="none" points="57,-37 57,-55 115,-55 115,-37 57,-37"/>
<polygon fill="none" stroke="black" points="57,-37 57,-55 115,-55 115,-37 57,-37"/>
<text text-anchor="start" x="69" y="-43.2" font-family="Helvetica,sans-Serif" font-size="11.00">26 rows</text>
<polygon fill="#ffffff" stroke="none" points="115,-37 115,-55 154,-55 154,-37 115,-37"/>
<polygon fill="none" stroke="black" points="115,-37 115,-55 154,-55 154,-37 115,-37"/>
<text text-anchor="start" x="127" y="-43.2" font-family="Helvetica,sans-Serif" font-size="11.00">10 &gt;</text>
</a>
</g>
</g>
<!-- core_pulpexporter_repositories&#45;&gt;core_repository -->
<g id="edge2" class="edge"><title>core_pulpexporter_repositories:repository_id:w&#45;&gt;core_repository:pulp_id:e</title>
<path fill="none" stroke="black" d="M198.084,-174.077C180.573,-162.29 182.907,-128 155,-128"/>
<polygon fill="black" stroke="black" points="204.3,-175.829 211.023,-181.465 208.15,-176.915 212,-178 212,-178 212,-178 208.15,-176.915 212.977,-174.535 204.3,-175.829 204.3,-175.829"/>
<ellipse fill="none" stroke="black" cx="201.22" cy="-174.961" rx="3.20001" ry="3.20001"/>
</g>
</g>
</svg>
