<?xml version="1.0" encoding="UTF-8" standalone="no"?>
<!DOCTYPE svg PUBLIC "-//W3C//DTD SVG 1.1//EN"
 "http://www.w3.org/Graphics/SVG/1.1/DTD/svg11.dtd">
<!-- Generated by graphviz version 2.38.0 (20140413.2041)
 -->
<!-- Title: twoDegreesRelationshipsDiagram Pages: 1 -->
<svg width="792pt" height="519pt"
 viewBox="0.00 0.00 792.00 519.00" xmlns="http://www.w3.org/2000/svg" xmlns:xlink="http://www.w3.org/1999/xlink">
<g id="graph0" class="graph" transform="scale(1 1) rotate(0) translate(4 515)">
<title>twoDegreesRelationshipsDiagram</title>
<polygon fill="#ffffff" stroke="none" points="-4,4 -4,-515 788,-515 788,4 -4,4"/>
<text text-anchor="middle" x="74.5" y="-7.2" font-family="Helvetica,sans-Serif" font-size="11.00">Generated by SchemaSpy</text>
<!-- ansible_ansibledistribution -->
<g id="node1" class="node"><title>ansible_ansibledistribution</title>
<g id="a_node1"><a xlink:href="../../tables/ansible_ansibledistribution.html" xlink:title="ansible_ansibledistribution" target="_top">
<polygon fill="#ffffff" stroke="none" points="496.5,-449 496.5,-507 701.5,-507 701.5,-449 496.5,-449"/>
<polygon fill="#f5f5f5" stroke="none" points="497,-485 497,-507 702,-507 702,-485 497,-485"/>
<polygon fill="none" stroke="black" points="497,-485 497,-507 702,-507 702,-485 497,-485"/>
<text text-anchor="start" x="502" y="-494.2" font-family="Helvetica,sans-Serif" font-weight="bold" font-size="11.00">ansible_ansibledistribution</text>
<text text-anchor="start" x="663" y="-493.2" font-family="Helvetica,sans-Serif" font-size="11.00">[table]</text>
<polygon fill="none" stroke="black" points="497,-467 497,-485 702,-485 702,-467 497,-467"/>
<text text-anchor="start" x="500" y="-473.2" font-family="Helvetica,sans-Serif" font-size="11.00">...</text>
<polygon fill="#ffffff" stroke="none" points="497,-449 497,-467 580,-467 580,-449 497,-449"/>
<polygon fill="none" stroke="black" points="497,-449 497,-467 580,-467 580,-449 497,-449"/>
<text text-anchor="start" x="500" y="-455.2" font-family="Helvetica,sans-Serif" font-size="11.00">&lt; 3</text>
<polygon fill="#ffffff" stroke="none" points="580,-449 580,-467 659,-467 659,-449 580,-449"/>
<polygon fill="none" stroke="black" points="580,-449 580,-467 659,-467 659,-449 580,-449"/>
<text text-anchor="start" x="613" y="-455.2" font-family="Helvetica,sans-Serif" font-size="11.00">32 rows</text>
<polygon fill="#ffffff" stroke="none" points="659,-449 659,-467 702,-467 702,-449 659,-449"/>
<polygon fill="none" stroke="black" points="659,-449 659,-467 702,-467 702,-449 659,-449"/>
<text text-anchor="start" x="692" y="-455.2" font-family="Helvetica,sans-Serif" font-size="11.00"> &#160;</text>
</a>
</g>
</g>
<!-- core_repository -->
<g id="node2" class="node"><title>core_repository</title>
<g id="a_node2"><a xlink:href="../../tables/core_repository.html" xlink:title="core_repository" target="_top">
<polygon fill="#ffffff" stroke="none" points="8,-212 8,-270 145,-270 145,-212 8,-212"/>
<polygon fill="#f5f5f5" stroke="none" points="8.5,-248 8.5,-270 145.5,-270 145.5,-248 8.5,-248"/>
<polygon fill="none" stroke="black" points="8.5,-248 8.5,-270 145.5,-270 145.5,-248 8.5,-248"/>
<text text-anchor="start" x="13.5" y="-257.2" font-family="Helvetica,sans-Serif" font-weight="bold" font-size="11.00">core_repository</text>
<text text-anchor="start" x="106.5" y="-256.2" font-family="Helvetica,sans-Serif" font-size="11.00">[table]</text>
<polygon fill="none" stroke="black" points="8.5,-230 8.5,-248 145.5,-248 145.5,-230 8.5,-230"/>
<text text-anchor="start" x="11.5" y="-236.2" font-family="Helvetica,sans-Serif" font-size="11.00">...</text>
<polygon fill="#ffffff" stroke="none" points="8.5,-212 8.5,-230 48.5,-230 48.5,-212 8.5,-212"/>
<polygon fill="none" stroke="black" points="8.5,-212 8.5,-230 48.5,-230 48.5,-212 8.5,-212"/>
<text text-anchor="start" x="11.5" y="-218.2" font-family="Helvetica,sans-Serif" font-size="11.00">&lt; 1</text>
<polygon fill="#ffffff" stroke="none" points="48.5,-212 48.5,-230 106.5,-230 106.5,-212 48.5,-212"/>
<polygon fill="none" stroke="black" points="48.5,-212 48.5,-230 106.5,-230 106.5,-212 48.5,-212"/>
<text text-anchor="start" x="60.5" y="-218.2" font-family="Helvetica,sans-Serif" font-size="11.00">26 rows</text>
<polygon fill="#ffffff" stroke="none" points="106.5,-212 106.5,-230 145.5,-230 145.5,-212 106.5,-212"/>
<polygon fill="none" stroke="black" points="106.5,-212 106.5,-230 145.5,-230 145.5,-212 106.5,-212"/>
<text text-anchor="start" x="118.5" y="-218.2" font-family="Helvetica,sans-Serif" font-size="11.00">10 &gt;</text>
</a>
</g>
</g>
<!-- ansible_ansibledistribution&#45;&gt;core_repository -->
<g id="edge1" class="edge"><title>ansible_ansibledistribution:elipses:w&#45;&gt;core_repository:elipses:e</title>
<path fill="none" stroke="black" d="M481.307,-475.347C420.569,-470.487 283.562,-437.301 186,-336 153.71,-302.472 193.049,-239 146.5,-239"/>
<polygon fill="black" stroke="black" points="488.008,-475.645 495.84,-479.596 492.004,-475.822 496,-476 496,-476 496,-476 492.004,-475.822 496.16,-472.404 488.008,-475.645 488.008,-475.645"/>
<ellipse fill="none" stroke="black" cx="484.811" cy="-475.503" rx="3.2" ry="3.2"/>
</g>
<!-- core_repositoryversion -->
<g id="node3" class="node"><title>core_repositoryversion</title>
<g id="a_node3"><a xlink:href="../../tables/core_repositoryversion.html" xlink:title="core_repositoryversion" target="_top">
<polygon fill="#ffffff" stroke="none" points="194,-91 194,-259 373,-259 373,-91 194,-91"/>
<polygon fill="#f5f5f5" stroke="none" points="194.5,-237 194.5,-259 373.5,-259 373.5,-237 194.5,-237"/>
<polygon fill="none" stroke="black" points="194.5,-237 194.5,-259 373.5,-259 373.5,-237 194.5,-237"/>
<text text-anchor="start" x="199.5" y="-246.2" font-family="Helvetica,sans-Serif" font-weight="bold" font-size="11.00">core_repositoryversion</text>
<text text-anchor="start" x="334.5" y="-245.2" font-family="Helvetica,sans-Serif" font-size="11.00">[table]</text>
<polygon fill="none" stroke="black" points="194.5,-215 194.5,-237 373.5,-237 373.5,-215 194.5,-215"/>
<image xlink:href="../../images/primaryKeys.png" width="11px" height="12px" preserveAspectRatio="xMinYMin meet" x="199.5" y="-232"/>
<text text-anchor="start" x="225.5" y="-223.2" font-family="Helvetica,sans-Serif" font-size="11.00">pulp_id</text>
<polygon fill="#ffffff" stroke="none" points="194.5,-193 194.5,-215 373.5,-215 373.5,-193 194.5,-193"/>
<polygon fill="none" stroke="black" points="194.5,-193 194.5,-215 373.5,-215 373.5,-193 194.5,-193"/>
<text text-anchor="start" x="225.5" y="-201.2" font-family="Helvetica,sans-Serif" font-size="11.00">number</text>
<polygon fill="#ffffff" stroke="none" points="194.5,-171 194.5,-193 373.5,-193 373.5,-171 194.5,-171"/>
<polygon fill="none" stroke="black" points="194.5,-171 194.5,-193 373.5,-193 373.5,-171 194.5,-171"/>
<text text-anchor="start" x="225.5" y="-179.2" font-family="Helvetica,sans-Serif" font-size="11.00">complete</text>
<polygon fill="#ffffff" stroke="none" points="194.5,-149 194.5,-171 373.5,-171 373.5,-149 194.5,-149"/>
<polygon fill="none" stroke="black" points="194.5,-149 194.5,-171 373.5,-171 373.5,-149 194.5,-149"/>
<image xlink:href="../../images/foreignKeys.png" width="11px" height="12px" preserveAspectRatio="xMinYMin meet" x="199.5" y="-166"/>
<text text-anchor="start" x="225.5" y="-157.2" font-family="Helvetica,sans-Serif" font-size="11.00">base_version_id</text>
<polygon fill="#ffffff" stroke="none" points="194.5,-127 194.5,-149 373.5,-149 373.5,-127 194.5,-127"/>
<polygon fill="none" stroke="black" points="194.5,-127 194.5,-149 373.5,-149 373.5,-127 194.5,-127"/>
<image xlink:href="../../images/foreignKeys.png" width="11px" height="12px" preserveAspectRatio="xMinYMin meet" x="199.5" y="-144"/>
<text text-anchor="start" x="225.5" y="-135.2" font-family="Helvetica,sans-Serif" font-size="11.00">repository_id</text>
<polygon fill="none" stroke="black" points="194.5,-109 194.5,-127 373.5,-127 373.5,-109 194.5,-109"/>
<text text-anchor="start" x="197.5" y="-115.2" font-family="Helvetica,sans-Serif" font-size="11.00">...</text>
<polygon fill="#ffffff" stroke="none" points="194.5,-91 194.5,-109 256.5,-109 256.5,-91 194.5,-91"/>
<polygon fill="none" stroke="black" points="194.5,-91 194.5,-109 256.5,-109 256.5,-91 194.5,-91"/>
<text text-anchor="start" x="197.5" y="-97.2" font-family="Helvetica,sans-Serif" font-size="11.00">&lt; 2</text>
<polygon fill="#ffffff" stroke="none" points="256.5,-91 256.5,-109 330.5,-109 330.5,-91 256.5,-91"/>
<polygon fill="none" stroke="black" points="256.5,-91 256.5,-109 330.5,-109 330.5,-91 256.5,-91"/>
<text text-anchor="start" x="278.5" y="-97.2" font-family="Helvetica,sans-Serif" font-size="11.00">162 rows</text>
<polygon fill="#ffffff" stroke="none" points="330.5,-91 330.5,-109 373.5,-109 373.5,-91 330.5,-91"/>
<polygon fill="none" stroke="black" points="330.5,-91 330.5,-109 373.5,-109 373.5,-91 330.5,-91"/>
<text text-anchor="start" x="353.5" y="-97.2" font-family="Helvetica,sans-Serif" font-size="11.00">7 &gt;</text>
</a>
</g>
</g>
<!-- ansible_ansibledistribution&#45;&gt;core_repositoryversion -->
<g id="edge2" class="edge"><title>ansible_ansibledistribution:elipses:w&#45;&gt;core_repositoryversion:pulp_id:e</title>
<path fill="none" stroke="black" d="M481.602,-475.68C451.425,-474.141 435.495,-466.404 414,-439 384.289,-401.122 422.64,-226 374.5,-226"/>
<polygon fill="black" stroke="black" points="488.002,-475.822 495.92,-479.599 492.001,-475.911 496,-476 496,-476 496,-476 492.001,-475.911 496.08,-472.401 488.002,-475.822 488.002,-475.822"/>
<ellipse fill="none" stroke="black" cx="484.803" cy="-475.751" rx="3.2" ry="3.2"/>
</g>
<!-- core_repositoryversion&#45;&gt;core_repository -->
<g id="edge9" class="edge"><title>core_repositoryversion:repository_id:w&#45;&gt;core_repository:elipses:e</title>
<path fill="none" stroke="black" d="M179.62,-142.084C155.099,-160.98 190.016,-239 146.5,-239"/>
<polygon fill="black" stroke="black" points="185.825,-140.258 194.516,-141.454 189.663,-139.129 193.5,-138 193.5,-138 193.5,-138 189.663,-139.129 192.484,-134.546 185.825,-140.258 185.825,-140.258"/>
<ellipse fill="none" stroke="black" cx="182.756" cy="-141.162" rx="3.20001" ry="3.20001"/>
</g>
<!-- container_containerdistribution -->
<g id="node4" class="node"><title>container_containerdistribution</title>
<g id="a_node4"><a xlink:href="../../tables/container_containerdistribution.html" xlink:title="container_containerdistribution" target="_top">
<polygon fill="#ffffff" stroke="none" points="482.5,-370 482.5,-428 715.5,-428 715.5,-370 482.5,-370"/>
<polygon fill="#f5f5f5" stroke="none" points="483,-406 483,-428 716,-428 716,-406 483,-406"/>
<polygon fill="none" stroke="black" points="483,-406 483,-428 716,-428 716,-406 483,-406"/>
<text text-anchor="start" x="488" y="-415.2" font-family="Helvetica,sans-Serif" font-weight="bold" font-size="11.00">container_containerdistribution</text>
<text text-anchor="start" x="677" y="-414.2" font-family="Helvetica,sans-Serif" font-size="11.00">[table]</text>
<polygon fill="none" stroke="black" points="483,-388 483,-406 716,-406 716,-388 483,-388"/>
<text text-anchor="start" x="486" y="-394.2" font-family="Helvetica,sans-Serif" font-size="11.00">...</text>
<polygon fill="#ffffff" stroke="none" points="483,-370 483,-388 583,-388 583,-370 483,-370"/>
<polygon fill="none" stroke="black" points="483,-370 483,-388 583,-388 583,-370 483,-370"/>
<text text-anchor="start" x="486" y="-376.2" font-family="Helvetica,sans-Serif" font-size="11.00">&lt; 3</text>
<polygon fill="#ffffff" stroke="none" points="583,-370 583,-388 664,-388 664,-370 583,-370"/>
<polygon fill="none" stroke="black" points="583,-370 583,-388 664,-388 664,-370 583,-370"/>
<text text-anchor="start" x="625" y="-376.2" font-family="Helvetica,sans-Serif" font-size="11.00">0 rows</text>
<polygon fill="#ffffff" stroke="none" points="664,-370 664,-388 716,-388 716,-370 664,-370"/>
<polygon fill="none" stroke="black" points="664,-370 664,-388 716,-388 716,-370 664,-370"/>
<text text-anchor="start" x="706" y="-376.2" font-family="Helvetica,sans-Serif" font-size="11.00"> &#160;</text>
</a>
</g>
</g>
<!-- container_containerdistribution&#45;&gt;core_repository -->
<g id="edge3" class="edge"><title>container_containerdistribution:elipses:w&#45;&gt;core_repository:elipses:e</title>
<path fill="none" stroke="black" d="M467.298,-396.795C336.52,-393.064 305.398,-338.773 186,-269 166.967,-257.877 168.545,-239 146.5,-239"/>
<polygon fill="black" stroke="black" points="474.001,-396.889 481.95,-400.6 478,-396.944 482,-397 482,-397 482,-397 478,-396.944 482.05,-393.4 474.001,-396.889 474.001,-396.889"/>
<ellipse fill="none" stroke="black" cx="470.801" cy="-396.844" rx="3.2" ry="3.2"/>
</g>
<!-- container_containerdistribution&#45;&gt;core_repositoryversion -->
<g id="edge4" class="edge"><title>container_containerdistribution:elipses:w&#45;&gt;core_repositoryversion:pulp_id:e</title>
<path fill="none" stroke="black" d="M467.393,-396.226C443.617,-393.397 432.244,-382.581 414,-360 374.98,-311.704 436.589,-226 374.5,-226"/>
<polygon fill="black" stroke="black" points="474.011,-396.577 481.81,-400.595 478.006,-396.788 482,-397 482,-397 482,-397 478.006,-396.788 482.19,-393.405 474.011,-396.577 474.011,-396.577"/>
<ellipse fill="none" stroke="black" cx="470.816" cy="-396.407" rx="3.2" ry="3.2"/>
</g>
<!-- core_publication -->
<g id="node5" class="node"><title>core_publication</title>
<g id="a_node5"><a xlink:href="../../tables/core_publication.html" xlink:title="core_publication" target="_top">
<polygon fill="#ffffff" stroke="none" points="527,-116 527,-174 671,-174 671,-116 527,-116"/>
<polygon fill="#f5f5f5" stroke="none" points="527,-152 527,-174 671,-174 671,-152 527,-152"/>
<polygon fill="none" stroke="black" points="527,-152 527,-174 671,-174 671,-152 527,-152"/>
<text text-anchor="start" x="532" y="-161.2" font-family="Helvetica,sans-Serif" font-weight="bold" font-size="11.00">core_publication</text>
<text text-anchor="start" x="632" y="-160.2" font-family="Helvetica,sans-Serif" font-size="11.00">[table]</text>
<polygon fill="none" stroke="black" points="527,-134 527,-152 671,-152 671,-134 527,-134"/>
<text text-anchor="start" x="530" y="-140.2" font-family="Helvetica,sans-Serif" font-size="11.00">...</text>
<polygon fill="#ffffff" stroke="none" points="527,-116 527,-134 578,-134 578,-116 527,-116"/>
<polygon fill="none" stroke="black" points="527,-116 527,-134 578,-134 578,-116 527,-116"/>
<text text-anchor="start" x="530" y="-122.2" font-family="Helvetica,sans-Serif" font-size="11.00">&lt; 1</text>
<polygon fill="#ffffff" stroke="none" points="578,-116 578,-134 634,-134 634,-116 578,-116"/>
<polygon fill="none" stroke="black" points="578,-116 578,-134 634,-134 634,-116 578,-116"/>
<text text-anchor="start" x="595" y="-122.2" font-family="Helvetica,sans-Serif" font-size="11.00">0 rows</text>
<polygon fill="#ffffff" stroke="none" points="634,-116 634,-134 671,-134 671,-116 634,-116"/>
<polygon fill="none" stroke="black" points="634,-116 634,-134 671,-134 671,-116 634,-116"/>
<text text-anchor="start" x="651" y="-122.2" font-family="Helvetica,sans-Serif" font-size="11.00">2 &gt;</text>
</a>
</g>
</g>
<!-- core_publication&#45;&gt;core_repositoryversion -->
<g id="edge5" class="edge"><title>core_publication:elipses:w&#45;&gt;core_repositoryversion:pulp_id:e</title>
<path fill="none" stroke="black" d="M511.502,-143.343C469.829,-145.47 453.918,-157.648 414,-184 392.615,-198.118 400.125,-226 374.5,-226"/>
<polygon fill="black" stroke="black" points="518.002,-143.189 526.085,-146.599 522.001,-143.095 526,-143 526,-143 526,-143 522.001,-143.095 525.915,-139.401 518.002,-143.189 518.002,-143.189"/>
<ellipse fill="none" stroke="black" cx="514.803" cy="-143.265" rx="3.2" ry="3.2"/>
</g>
<!-- core_repositorycontent -->
<g id="node6" class="node"><title>core_repositorycontent</title>
<g id="a_node6"><a xlink:href="../../tables/core_repositorycontent.html" xlink:title="core_repositorycontent" target="_top">
<polygon fill="#ffffff" stroke="none" points="508,-37 508,-95 690,-95 690,-37 508,-37"/>
<polygon fill="#f5f5f5" stroke="none" points="508,-73 508,-95 690,-95 690,-73 508,-73"/>
<polygon fill="none" stroke="black" points="508,-73 508,-95 690,-95 690,-73 508,-73"/>
<text text-anchor="start" x="513" y="-82.2" font-family="Helvetica,sans-Serif" font-weight="bold" font-size="11.00">core_repositorycontent</text>
<text text-anchor="start" x="651" y="-81.2" font-family="Helvetica,sans-Serif" font-size="11.00">[table]</text>
<polygon fill="none" stroke="black" points="508,-55 508,-73 690,-73 690,-55 508,-55"/>
<text text-anchor="start" x="511" y="-61.2" font-family="Helvetica,sans-Serif" font-size="11.00">...</text>
<polygon fill="#ffffff" stroke="none" points="508,-37 508,-55 576,-55 576,-37 508,-37"/>
<polygon fill="none" stroke="black" points="508,-37 508,-55 576,-55 576,-37 508,-37"/>
<text text-anchor="start" x="511" y="-43.2" font-family="Helvetica,sans-Serif" font-size="11.00">&lt; 4</text>
<polygon fill="#ffffff" stroke="none" points="576,-37 576,-55 654,-55 654,-37 576,-37"/>
<polygon fill="none" stroke="black" points="576,-37 576,-55 654,-55 654,-37 576,-37"/>
<text text-anchor="start" x="602" y="-43.2" font-family="Helvetica,sans-Serif" font-size="11.00">786 rows</text>
<polygon fill="#ffffff" stroke="none" points="654,-37 654,-55 690,-55 690,-37 654,-37"/>
<polygon fill="none" stroke="black" points="654,-37 654,-55 690,-55 690,-37 654,-37"/>
<text text-anchor="start" x="680" y="-43.2" font-family="Helvetica,sans-Serif" font-size="11.00"> &#160;</text>
</a>
</g>
</g>
<!-- core_repositorycontent&#45;&gt;core_repository -->
<g id="edge6" class="edge"><title>core_repositorycontent:elipses:w&#45;&gt;core_repository:elipses:e</title>
<path fill="none" stroke="black" d="M492.207,-63.7332C359.333,-58.9476 292.422,7.57462 186,-80 129.775,-126.268 219.315,-239 146.5,-239"/>
<polygon fill="black" stroke="black" points="499.001,-63.8557 506.935,-67.5994 503.001,-63.9278 507,-64 507,-64 507,-64 503.001,-63.9278 507.065,-60.4006 499.001,-63.8557 499.001,-63.8557"/>
<ellipse fill="none" stroke="black" cx="495.802" cy="-63.798" rx="3.2" ry="3.2"/>
</g>
<!-- core_repositorycontent&#45;&gt;core_repositoryversion -->
<g id="edge7" class="edge"><title>core_repositorycontent:elipses:w&#45;&gt;core_repositoryversion:pulp_id:e</title>
<path fill="none" stroke="black" d="M492.654,-62.4991C457.695,-60.0343 440.877,-69.3011 414,-99 376.041,-140.945 431.071,-220 374.5,-226"/>
<polygon fill="black" stroke="black" points="499.043,-63.1675 506.625,-67.5805 503.022,-63.5837 507,-64 507,-64 507,-64 503.022,-63.5837 507.375,-60.4195 499.043,-63.1675 499.043,-63.1675"/>
<ellipse fill="none" stroke="black" cx="495.861" cy="-62.8345" rx="3.2" ry="3.2"/>
</g>
<!-- core_repositorycontent&#45;&gt;core_repositoryversion -->
<g id="edge8" class="edge"><title>core_repositorycontent:elipses:w&#45;&gt;core_repositoryversion:pulp_id:e</title>
<path fill="none" stroke="black" d="M492.654,-66.4355C457.695,-73.0343 440.877,-82.3011 414,-112 376.041,-153.945 431.071,-233 374.5,-226"/>
<polygon fill="black" stroke="black" points="499.113,-65.3391 507.603,-67.5492 503.056,-64.6695 507,-64 507,-64 507,-64 503.056,-64.6695 506.397,-60.4508 499.113,-65.3391 499.113,-65.3391"/>
<ellipse fill="none" stroke="black" cx="495.958" cy="-65.8747" rx="3.2" ry="3.2"/>
</g>
<!-- core_repositoryversioncontentdetails -->
<g id="node7" class="node"><title>core_repositoryversioncontentdetails</title>
<g id="a_node7"><a xlink:href="../../tables/core_repositoryversioncontentdetails.html" xlink:title="core_repositoryversioncontentdetails" target="_top">
<polygon fill="#ffffff" stroke="none" points="422,-195 422,-349 776,-349 776,-195 422,-195"/>
<polygon fill="#f5f5f5" stroke="none" points="424,-325 424,-347 774,-347 774,-325 424,-325"/>
<polygon fill="none" stroke="black" points="424,-325 424,-347 774,-347 774,-325 424,-325"/>
<text text-anchor="start" x="429" y="-334.2" font-family="Helvetica,sans-Serif" font-weight="bold" font-size="11.00">core_repositoryversioncontentdetails</text>
<text text-anchor="start" x="735" y="-333.2" font-family="Helvetica,sans-Serif" font-size="11.00">[table]</text>
<polygon fill="none" stroke="black" points="424,-303 424,-325 669,-325 669,-303 424,-303"/>
<image xlink:href="../../images/primaryKeys.png" width="11px" height="12px" preserveAspectRatio="xMinYMin meet" x="429" y="-320"/>
<text text-anchor="start" x="444" y="-311.2" font-family="Helvetica,sans-Serif" font-size="11.00">id</text>
<polygon fill="none" stroke="black" points="669,-303 669,-325 774,-325 774,-303 669,-303"/>
<text text-anchor="start" x="672" y="-311.2" font-family="Helvetica,sans-Serif" font-size="11.00">serial[10]</text>
<polygon fill="none" stroke="black" points="424,-281 424,-303 669,-303 669,-281 424,-281"/>
<text text-anchor="start" x="444" y="-289.2" font-family="Helvetica,sans-Serif" font-size="11.00">count_type</text>
<polygon fill="none" stroke="black" points="669,-281 669,-303 774,-303 774,-281 669,-281"/>
<text text-anchor="start" x="672" y="-289.2" font-family="Helvetica,sans-Serif" font-size="11.00">varchar[1]</text>
<polygon fill="none" stroke="black" points="424,-259 424,-281 669,-281 669,-259 424,-259"/>
<text text-anchor="start" x="444" y="-267.2" font-family="Helvetica,sans-Serif" font-size="11.00">content_type</text>
<polygon fill="none" stroke="black" points="669,-259 669,-281 774,-281 774,-259 669,-259"/>
<text text-anchor="start" x="672" y="-267.2" font-family="Helvetica,sans-Serif" font-size="11.00">text[2147483647]</text>
<polygon fill="none" stroke="black" points="424,-237 424,-259 669,-259 669,-237 424,-237"/>
<text text-anchor="start" x="444" y="-245.2" font-family="Helvetica,sans-Serif" font-size="11.00">count</text>
<polygon fill="none" stroke="black" points="669,-237 669,-259 774,-259 774,-237 669,-237"/>
<text text-anchor="start" x="672" y="-245.2" font-family="Helvetica,sans-Serif" font-size="11.00">int4[10]</text>
<polygon fill="#ffffff" stroke="none" points="424,-215 424,-237 669,-237 669,-215 424,-215"/>
<polygon fill="none" stroke="black" points="424,-215 424,-237 669,-237 669,-215 424,-215"/>
<image xlink:href="../../images/foreignKeys.png" width="11px" height="12px" preserveAspectRatio="xMinYMin meet" x="429" y="-232"/>
<text text-anchor="start" x="444" y="-223.2" font-family="Helvetica,sans-Serif" font-size="11.00">repository_version_id</text>
<polygon fill="none" stroke="black" points="669,-215 669,-237 774,-237 774,-215 669,-215"/>
<text text-anchor="start" x="672" y="-223.2" font-family="Helvetica,sans-Serif" font-size="11.00">uuid[2147483647]</text>
<polygon fill="#ffffff" stroke="none" points="424,-197 424,-215 530,-215 530,-197 424,-197"/>
<polygon fill="none" stroke="black" points="424,-197 424,-215 530,-215 530,-197 424,-197"/>
<text text-anchor="start" x="427" y="-203.2" font-family="Helvetica,sans-Serif" font-size="11.00">&lt; 1</text>
<polygon fill="#ffffff" stroke="none" points="530,-197 530,-215 669,-215 669,-197 530,-197"/>
<polygon fill="none" stroke="black" points="530,-197 530,-215 669,-215 669,-197 530,-197"/>
<text text-anchor="start" x="617" y="-203.2" font-family="Helvetica,sans-Serif" font-size="11.00">281 rows</text>
<polygon fill="#ffffff" stroke="none" points="669,-197 669,-215 774,-215 774,-197 669,-197"/>
<polygon fill="none" stroke="black" points="669,-197 669,-215 774,-215 774,-197 669,-197"/>
<text text-anchor="start" x="754" y="-203.2" font-family="Helvetica,sans-Serif" font-size="11.00">0 &gt;</text>
<polygon fill="none" stroke="black" stroke-width="2" points="423,-196 423,-348 775,-348 775,-196 423,-196"/>
</a>
</g>
</g>
<!-- core_repositoryversioncontentdetails&#45;&gt;core_repositoryversion -->
<g id="edge10" class="edge"><title>core_repositoryversioncontentdetails:repository_version_id:w&#45;&gt;core_repositoryversion:pulp_id:e</title>
<path fill="none" stroke="black" d="M408.283,-226C397.289,-226 390.161,-226 374.5,-226"/>
<polygon fill="black" stroke="black" points="415,-226 423,-229.6 419,-226 423,-226 423,-226 423,-226 419,-226 423,-222.4 415,-226 415,-226"/>
<ellipse fill="none" stroke="black" cx="411.8" cy="-226" rx="3.2" ry="3.2"/>
</g>
</g>
</svg>
