<?xml version="1.0" encoding="UTF-8" standalone="no"?>
<!DOCTYPE svg PUBLIC "-//W3C//DTD SVG 1.1//EN"
 "http://www.w3.org/Graphics/SVG/1.1/DTD/svg11.dtd">
<!-- Generated by graphviz version 2.38.0 (20140413.2041)
 -->
<!-- Title: twoDegreesRelationshipsDiagram Pages: 1 -->
<svg width="823pt" height="778pt"
 viewBox="0.00 0.00 823.00 778.00" xmlns="http://www.w3.org/2000/svg" xmlns:xlink="http://www.w3.org/1999/xlink">
<g id="graph0" class="graph" transform="scale(1 1) rotate(0) translate(4 774)">
<title>twoDegreesRelationshipsDiagram</title>
<polygon fill="#ffffff" stroke="none" points="-4,4 -4,-774 819,-774 819,4 -4,4"/>
<text text-anchor="middle" x="74.5" y="-7.2" font-family="Helvetica,sans-Serif" font-size="11.00">Generated by SchemaSpy</text>
<!-- ansible_collectionimport -->
<g id="node1" class="node"><title>ansible_collectionimport</title>
<g id="a_node1"><a xlink:href="../../tables/ansible_collectionimport.html" xlink:title="ansible_collectionimport" target="_top">
<polygon fill="#ffffff" stroke="none" points="397.5,-708 397.5,-766 587.5,-766 587.5,-708 397.5,-708"/>
<polygon fill="#f5f5f5" stroke="none" points="397.5,-744 397.5,-766 587.5,-766 587.5,-744 397.5,-744"/>
<polygon fill="none" stroke="black" points="397.5,-744 397.5,-766 587.5,-766 587.5,-744 397.5,-744"/>
<text text-anchor="start" x="402.5" y="-753.2" font-family="Helvetica,sans-Serif" font-weight="bold" font-size="11.00">ansible_collectionimport</text>
<text text-anchor="start" x="548.5" y="-752.2" font-family="Helvetica,sans-Serif" font-size="11.00">[table]</text>
<polygon fill="none" stroke="black" points="397.5,-726 397.5,-744 587.5,-744 587.5,-726 397.5,-726"/>
<text text-anchor="start" x="400.5" y="-732.2" font-family="Helvetica,sans-Serif" font-size="11.00">...</text>
<polygon fill="#ffffff" stroke="none" points="397.5,-708 397.5,-726 469.5,-726 469.5,-708 397.5,-708"/>
<polygon fill="none" stroke="black" points="397.5,-708 397.5,-726 469.5,-726 469.5,-708 397.5,-708"/>
<text text-anchor="start" x="400.5" y="-714.2" font-family="Helvetica,sans-Serif" font-size="11.00">&lt; 1</text>
<polygon fill="#ffffff" stroke="none" points="469.5,-708 469.5,-726 549.5,-726 549.5,-708 469.5,-708"/>
<polygon fill="none" stroke="black" points="469.5,-708 469.5,-726 549.5,-726 549.5,-708 469.5,-708"/>
<text text-anchor="start" x="497.5" y="-714.2" font-family="Helvetica,sans-Serif" font-size="11.00">111 rows</text>
<polygon fill="#ffffff" stroke="none" points="549.5,-708 549.5,-726 587.5,-726 587.5,-708 549.5,-708"/>
<polygon fill="none" stroke="black" points="549.5,-708 549.5,-726 587.5,-726 587.5,-708 549.5,-708"/>
<text text-anchor="start" x="577.5" y="-714.2" font-family="Helvetica,sans-Serif" font-size="11.00"> &#160;</text>
</a>
</g>
</g>
<!-- core_task -->
<g id="node2" class="node"><title>core_task</title>
<g id="a_node2"><a xlink:href="../../tables/core_task.html" xlink:title="core_task" target="_top">
<polygon fill="#ffffff" stroke="none" points="192.5,-385 192.5,-531 321.5,-531 321.5,-385 192.5,-385"/>
<polygon fill="#f5f5f5" stroke="none" points="193,-509 193,-531 322,-531 322,-509 193,-509"/>
<polygon fill="none" stroke="black" points="193,-509 193,-531 322,-531 322,-509 193,-509"/>
<text text-anchor="start" x="198" y="-518.2" font-family="Helvetica,sans-Serif" font-weight="bold" font-size="11.00">core_task</text>
<text text-anchor="start" x="283" y="-517.2" font-family="Helvetica,sans-Serif" font-size="11.00">[table]</text>
<polygon fill="none" stroke="black" points="193,-487 193,-509 322,-509 322,-487 193,-487"/>
<image xlink:href="../../images/primaryKeys.png" width="11px" height="12px" preserveAspectRatio="xMinYMin meet" x="198" y="-504"/>
<text text-anchor="start" x="213" y="-495.2" font-family="Helvetica,sans-Serif" font-size="11.00">pulp_id</text>
<polygon fill="#ffffff" stroke="none" points="193,-465 193,-487 322,-487 322,-465 193,-465"/>
<polygon fill="none" stroke="black" points="193,-465 193,-487 322,-487 322,-465 193,-465"/>
<image xlink:href="../../images/foreignKeys.png" width="11px" height="12px" preserveAspectRatio="xMinYMin meet" x="198" y="-482"/>
<text text-anchor="start" x="213" y="-473.2" font-family="Helvetica,sans-Serif" font-size="11.00">worker_id</text>
<polygon fill="#ffffff" stroke="none" points="193,-443 193,-465 322,-465 322,-443 193,-443"/>
<polygon fill="none" stroke="black" points="193,-443 193,-465 322,-465 322,-443 193,-443"/>
<image xlink:href="../../images/foreignKeys.png" width="11px" height="12px" preserveAspectRatio="xMinYMin meet" x="198" y="-460"/>
<text text-anchor="start" x="213" y="-451.2" font-family="Helvetica,sans-Serif" font-size="11.00">parent_task_id</text>
<polygon fill="#ffffff" stroke="none" points="193,-421 193,-443 322,-443 322,-421 193,-421"/>
<polygon fill="none" stroke="black" points="193,-421 193,-443 322,-443 322,-421 193,-421"/>
<image xlink:href="../../images/foreignKeys.png" width="11px" height="12px" preserveAspectRatio="xMinYMin meet" x="198" y="-438"/>
<text text-anchor="start" x="213" y="-429.2" font-family="Helvetica,sans-Serif" font-size="11.00">task_group_id</text>
<polygon fill="none" stroke="black" points="193,-403 193,-421 322,-421 322,-403 193,-403"/>
<text text-anchor="start" x="196" y="-409.2" font-family="Helvetica,sans-Serif" font-size="11.00">...</text>
<polygon fill="#ffffff" stroke="none" points="193,-385 193,-403 225,-403 225,-385 193,-385"/>
<polygon fill="none" stroke="black" points="193,-385 193,-403 225,-403 225,-385 193,-385"/>
<text text-anchor="start" x="196" y="-391.2" font-family="Helvetica,sans-Serif" font-size="11.00">&lt; 3</text>
<polygon fill="#ffffff" stroke="none" points="225,-385 225,-403 294,-403 294,-385 225,-385"/>
<polygon fill="none" stroke="black" points="225,-385 225,-403 294,-403 294,-385 225,-385"/>
<text text-anchor="start" x="232" y="-391.2" font-family="Helvetica,sans-Serif" font-size="11.00">1,828 rows</text>
<polygon fill="#ffffff" stroke="none" points="294,-385 294,-403 322,-403 322,-385 294,-385"/>
<polygon fill="none" stroke="black" points="294,-385 294,-403 322,-403 322,-385 294,-385"/>
<text text-anchor="start" x="302" y="-391.2" font-family="Helvetica,sans-Serif" font-size="11.00">8 &gt;</text>
</a>
</g>
</g>
<!-- ansible_collectionimport&#45;&gt;core_task -->
<g id="edge1" class="edge"><title>ansible_collectionimport:elipses:w&#45;&gt;core_task:pulp_id:e</title>
<path fill="none" stroke="black" d="M386.026,-733.283C373.511,-728.462 371.108,-714.097 363,-698 342.611,-657.52 368.325,-498 323,-498"/>
<polygon fill="black" stroke="black" points="396.358,-730.923 395.063,-738.818 393.485,-738.559 394.779,-730.664 396.358,-730.923"/>
<polyline fill="none" stroke="black" points="396.5,-735 392.553,-734.353 "/>
<ellipse fill="none" stroke="black" cx="389.395" cy="-733.835" rx="3.2" ry="3.2"/>
</g>
<!-- core_taskgroup -->
<g id="node10" class="node"><title>core_taskgroup</title>
<g id="a_node10"><a xlink:href="../../tables/core_taskgroup.html" xlink:title="core_taskgroup" target="_top">
<polygon fill="#ffffff" stroke="none" points="8,-387 8,-445 143,-445 143,-387 8,-387"/>
<polygon fill="#f5f5f5" stroke="none" points="8.5,-423 8.5,-445 143.5,-445 143.5,-423 8.5,-423"/>
<polygon fill="none" stroke="black" points="8.5,-423 8.5,-445 143.5,-445 143.5,-423 8.5,-423"/>
<text text-anchor="start" x="13.5" y="-432.2" font-family="Helvetica,sans-Serif" font-weight="bold" font-size="11.00">core_taskgroup</text>
<text text-anchor="start" x="104.5" y="-431.2" font-family="Helvetica,sans-Serif" font-size="11.00">[table]</text>
<polygon fill="none" stroke="black" points="8.5,-405 8.5,-423 143.5,-423 143.5,-405 8.5,-405"/>
<text text-anchor="start" x="11.5" y="-411.2" font-family="Helvetica,sans-Serif" font-size="11.00">...</text>
<polygon fill="#ffffff" stroke="none" points="8.5,-387 8.5,-405 46.5,-405 46.5,-387 8.5,-387"/>
<polygon fill="none" stroke="black" points="8.5,-387 8.5,-405 46.5,-405 46.5,-387 8.5,-387"/>
<text text-anchor="start" x="11.5" y="-393.2" font-family="Helvetica,sans-Serif" font-size="11.00"> &#160;</text>
<polygon fill="#ffffff" stroke="none" points="46.5,-387 46.5,-405 107.5,-405 107.5,-387 46.5,-387"/>
<polygon fill="none" stroke="black" points="46.5,-387 46.5,-405 107.5,-405 107.5,-387 46.5,-387"/>
<text text-anchor="start" x="61.5" y="-393.2" font-family="Helvetica,sans-Serif" font-size="11.00">26 rows</text>
<polygon fill="#ffffff" stroke="none" points="107.5,-387 107.5,-405 143.5,-405 143.5,-387 107.5,-387"/>
<polygon fill="none" stroke="black" points="107.5,-387 107.5,-405 143.5,-405 143.5,-387 107.5,-387"/>
<text text-anchor="start" x="123.5" y="-393.2" font-family="Helvetica,sans-Serif" font-size="11.00">2 &gt;</text>
</a>
</g>
</g>
<!-- core_task&#45;&gt;core_taskgroup -->
<g id="edge9" class="edge"><title>core_task:task_group_id:w&#45;&gt;core_taskgroup:elipses:e</title>
<path fill="none" stroke="black" d="M177.879,-429.028C166.869,-423.915 161.256,-414 144.5,-414"/>
<polygon fill="black" stroke="black" points="184.172,-430.352 191.258,-435.523 188.086,-431.176 192,-432 192,-432 192,-432 188.086,-431.176 192.742,-428.477 184.172,-430.352 184.172,-430.352"/>
<ellipse fill="none" stroke="black" cx="181.04" cy="-429.693" rx="3.2" ry="3.2"/>
</g>
<!-- core_worker -->
<g id="node11" class="node"><title>core_worker</title>
<g id="a_node11"><a xlink:href="../../tables/core_worker.html" xlink:title="core_worker" target="_top">
<polygon fill="#ffffff" stroke="none" points="16.5,-466 16.5,-524 134.5,-524 134.5,-466 16.5,-466"/>
<polygon fill="#f5f5f5" stroke="none" points="16.5,-502 16.5,-524 134.5,-524 134.5,-502 16.5,-502"/>
<polygon fill="none" stroke="black" points="16.5,-502 16.5,-524 134.5,-524 134.5,-502 16.5,-502"/>
<text text-anchor="start" x="21.5" y="-511.2" font-family="Helvetica,sans-Serif" font-weight="bold" font-size="11.00">core_worker</text>
<text text-anchor="start" x="95.5" y="-510.2" font-family="Helvetica,sans-Serif" font-size="11.00">[table]</text>
<polygon fill="none" stroke="black" points="16.5,-484 16.5,-502 134.5,-502 134.5,-484 16.5,-484"/>
<text text-anchor="start" x="19.5" y="-490.2" font-family="Helvetica,sans-Serif" font-size="11.00">...</text>
<polygon fill="#ffffff" stroke="none" points="16.5,-466 16.5,-484 42.5,-484 42.5,-466 16.5,-466"/>
<polygon fill="none" stroke="black" points="16.5,-466 16.5,-484 42.5,-484 42.5,-466 16.5,-466"/>
<text text-anchor="start" x="19.5" y="-472.2" font-family="Helvetica,sans-Serif" font-size="11.00"> &#160;</text>
<polygon fill="#ffffff" stroke="none" points="42.5,-466 42.5,-484 104.5,-484 104.5,-466 42.5,-466"/>
<polygon fill="none" stroke="black" points="42.5,-466 42.5,-484 104.5,-484 104.5,-466 42.5,-466"/>
<text text-anchor="start" x="52.5" y="-472.2" font-family="Helvetica,sans-Serif" font-size="11.00">148 rows</text>
<polygon fill="#ffffff" stroke="none" points="104.5,-466 104.5,-484 134.5,-484 134.5,-466 104.5,-466"/>
<polygon fill="none" stroke="black" points="104.5,-466 104.5,-484 134.5,-484 134.5,-466 104.5,-466"/>
<text text-anchor="start" x="114.5" y="-472.2" font-family="Helvetica,sans-Serif" font-size="11.00">2 &gt;</text>
</a>
</g>
</g>
<!-- core_task&#45;&gt;core_worker -->
<g id="edge10" class="edge"><title>core_task:worker_id:w&#45;&gt;core_worker:elipses:e</title>
<path fill="none" stroke="black" d="M177.509,-478.085C162.943,-482.624 155.987,-493 135.5,-493"/>
<polygon fill="black" stroke="black" points="184.082,-477.139 192.513,-479.563 188.041,-476.57 192,-476 192,-476 192,-476 188.041,-476.57 191.487,-472.437 184.082,-477.139 184.082,-477.139"/>
<ellipse fill="none" stroke="black" cx="180.914" cy="-477.595" rx="3.2" ry="3.2"/>
</g>
<!-- core_createdresource -->
<g id="node3" class="node"><title>core_createdresource</title>
<g id="a_node3"><a xlink:href="../../tables/core_createdresource.html" xlink:title="core_createdresource" target="_top">
<polygon fill="#ffffff" stroke="none" points="406.5,-629 406.5,-687 578.5,-687 578.5,-629 406.5,-629"/>
<polygon fill="#f5f5f5" stroke="none" points="406.5,-665 406.5,-687 578.5,-687 578.5,-665 406.5,-665"/>
<polygon fill="none" stroke="black" points="406.5,-665 406.5,-687 578.5,-687 578.5,-665 406.5,-665"/>
<text text-anchor="start" x="411.5" y="-674.2" font-family="Helvetica,sans-Serif" font-weight="bold" font-size="11.00">core_createdresource</text>
<text text-anchor="start" x="539.5" y="-673.2" font-family="Helvetica,sans-Serif" font-size="11.00">[table]</text>
<polygon fill="none" stroke="black" points="406.5,-647 406.5,-665 578.5,-665 578.5,-647 406.5,-647"/>
<text text-anchor="start" x="409.5" y="-653.2" font-family="Helvetica,sans-Serif" font-size="11.00">...</text>
<polygon fill="#ffffff" stroke="none" points="406.5,-629 406.5,-647 469.5,-647 469.5,-629 406.5,-629"/>
<polygon fill="none" stroke="black" points="406.5,-629 406.5,-647 469.5,-647 469.5,-629 406.5,-629"/>
<text text-anchor="start" x="409.5" y="-635.2" font-family="Helvetica,sans-Serif" font-size="11.00">&lt; 2</text>
<polygon fill="#ffffff" stroke="none" points="469.5,-629 469.5,-647 544.5,-647 544.5,-629 469.5,-629"/>
<polygon fill="none" stroke="black" points="469.5,-629 469.5,-647 544.5,-647 544.5,-629 469.5,-629"/>
<text text-anchor="start" x="492.5" y="-635.2" font-family="Helvetica,sans-Serif" font-size="11.00">365 rows</text>
<polygon fill="#ffffff" stroke="none" points="544.5,-629 544.5,-647 578.5,-647 578.5,-629 544.5,-629"/>
<polygon fill="none" stroke="black" points="544.5,-629 544.5,-647 578.5,-647 578.5,-629 544.5,-629"/>
<text text-anchor="start" x="568.5" y="-635.2" font-family="Helvetica,sans-Serif" font-size="11.00"> &#160;</text>
</a>
</g>
</g>
<!-- core_createdresource&#45;&gt;core_task -->
<g id="edge2" class="edge"><title>core_createdresource:elipses:w&#45;&gt;core_task:pulp_id:e</title>
<path fill="none" stroke="black" d="M391.018,-653.486C378.209,-648.173 373.618,-634.966 363,-619 331.635,-571.837 379.64,-498 323,-498"/>
<polygon fill="black" stroke="black" points="397.618,-654.632 404.884,-659.547 401.559,-655.316 405.5,-656 405.5,-656 405.5,-656 401.559,-655.316 406.116,-652.453 397.618,-654.632 397.618,-654.632"/>
<ellipse fill="none" stroke="black" cx="394.465" cy="-654.085" rx="3.2" ry="3.2"/>
</g>
<!-- core_export -->
<g id="node4" class="node"><title>core_export</title>
<g id="a_node4"><a xlink:href="../../tables/core_export.html" xlink:title="core_export" target="_top">
<polygon fill="#ffffff" stroke="none" points="434.5,-550 434.5,-608 550.5,-608 550.5,-550 434.5,-550"/>
<polygon fill="#f5f5f5" stroke="none" points="434.5,-586 434.5,-608 550.5,-608 550.5,-586 434.5,-586"/>
<polygon fill="none" stroke="black" points="434.5,-586 434.5,-608 550.5,-608 550.5,-586 434.5,-586"/>
<text text-anchor="start" x="439.5" y="-595.2" font-family="Helvetica,sans-Serif" font-weight="bold" font-size="11.00">core_export</text>
<text text-anchor="start" x="511.5" y="-594.2" font-family="Helvetica,sans-Serif" font-size="11.00">[table]</text>
<polygon fill="none" stroke="black" points="434.5,-568 434.5,-586 550.5,-586 550.5,-568 434.5,-568"/>
<text text-anchor="start" x="437.5" y="-574.2" font-family="Helvetica,sans-Serif" font-size="11.00">...</text>
<polygon fill="#ffffff" stroke="none" points="434.5,-550 434.5,-568 471.5,-568 471.5,-550 434.5,-550"/>
<polygon fill="none" stroke="black" points="434.5,-550 434.5,-568 471.5,-568 471.5,-550 434.5,-550"/>
<text text-anchor="start" x="437.5" y="-556.2" font-family="Helvetica,sans-Serif" font-size="11.00">&lt; 2</text>
<polygon fill="#ffffff" stroke="none" points="471.5,-550 471.5,-568 520.5,-568 520.5,-550 471.5,-550"/>
<polygon fill="none" stroke="black" points="471.5,-550 471.5,-568 520.5,-568 520.5,-550 471.5,-550"/>
<text text-anchor="start" x="481.5" y="-556.2" font-family="Helvetica,sans-Serif" font-size="11.00">0 rows</text>
<polygon fill="#ffffff" stroke="none" points="520.5,-550 520.5,-568 550.5,-568 550.5,-550 520.5,-550"/>
<polygon fill="none" stroke="black" points="520.5,-550 520.5,-568 550.5,-568 550.5,-550 520.5,-550"/>
<text text-anchor="start" x="530.5" y="-556.2" font-family="Helvetica,sans-Serif" font-size="11.00">2 &gt;</text>
</a>
</g>
</g>
<!-- core_export&#45;&gt;core_task -->
<g id="edge3" class="edge"><title>core_export:elipses:w&#45;&gt;core_task:pulp_id:e</title>
<path fill="none" stroke="black" d="M419.136,-575.944C395.525,-572.091 386.941,-558.07 363,-540 342.425,-524.471 348.778,-498 323,-498"/>
<polygon fill="black" stroke="black" points="425.522,-576.413 433.236,-580.59 429.511,-576.707 433.5,-577 433.5,-577 433.5,-577 429.511,-576.707 433.764,-573.41 425.522,-576.413 425.522,-576.413"/>
<ellipse fill="none" stroke="black" cx="422.33" cy="-576.178" rx="3.2" ry="3.2"/>
</g>
<!-- core_import -->
<g id="node5" class="node"><title>core_import</title>
<g id="a_node5"><a xlink:href="../../tables/core_import.html" xlink:title="core_import" target="_top">
<polygon fill="#ffffff" stroke="none" points="371,-116 371,-292 614,-292 614,-116 371,-116"/>
<polygon fill="#f5f5f5" stroke="none" points="373.5,-268 373.5,-290 612.5,-290 612.5,-268 373.5,-268"/>
<polygon fill="none" stroke="black" points="373.5,-268 373.5,-290 612.5,-290 612.5,-268 373.5,-268"/>
<text text-anchor="start" x="378.5" y="-277.2" font-family="Helvetica,sans-Serif" font-weight="bold" font-size="11.00">core_import</text>
<text text-anchor="start" x="573.5" y="-276.2" font-family="Helvetica,sans-Serif" font-size="11.00">[table]</text>
<polygon fill="none" stroke="black" points="373.5,-246 373.5,-268 502.5,-268 502.5,-246 373.5,-246"/>
<image xlink:href="../../images/primaryKeys.png" width="11px" height="12px" preserveAspectRatio="xMinYMin meet" x="378.5" y="-263"/>
<text text-anchor="start" x="393.5" y="-254.2" font-family="Helvetica,sans-Serif" font-size="11.00">pulp_id</text>
<polygon fill="none" stroke="black" points="502.5,-246 502.5,-268 612.5,-268 612.5,-246 502.5,-246"/>
<text text-anchor="start" x="505.5" y="-254.2" font-family="Helvetica,sans-Serif" font-size="11.00">uuid[2147483647]</text>
<polygon fill="none" stroke="black" points="373.5,-224 373.5,-246 502.5,-246 502.5,-224 373.5,-224"/>
<text text-anchor="start" x="393.5" y="-232.2" font-family="Helvetica,sans-Serif" font-size="11.00">pulp_created</text>
<polygon fill="none" stroke="black" points="502.5,-224 502.5,-246 612.5,-246 612.5,-224 502.5,-224"/>
<text text-anchor="start" x="505.5" y="-232.2" font-family="Helvetica,sans-Serif" font-size="11.00">timestamptz[35,6]</text>
<polygon fill="none" stroke="black" points="373.5,-202 373.5,-224 502.5,-224 502.5,-202 373.5,-202"/>
<text text-anchor="start" x="393.5" y="-210.2" font-family="Helvetica,sans-Serif" font-size="11.00">pulp_last_updated</text>
<polygon fill="none" stroke="black" points="502.5,-202 502.5,-224 612.5,-224 612.5,-202 502.5,-202"/>
<text text-anchor="start" x="505.5" y="-210.2" font-family="Helvetica,sans-Serif" font-size="11.00">timestamptz[35,6]</text>
<polygon fill="none" stroke="black" points="373.5,-180 373.5,-202 502.5,-202 502.5,-180 373.5,-180"/>
<text text-anchor="start" x="393.5" y="-188.2" font-family="Helvetica,sans-Serif" font-size="11.00">params</text>
<polygon fill="none" stroke="black" points="502.5,-180 502.5,-202 612.5,-202 612.5,-180 502.5,-180"/>
<text text-anchor="start" x="505.5" y="-188.2" font-family="Helvetica,sans-Serif" font-size="11.00">jsonb[2147483647]</text>
<polygon fill="#ffffff" stroke="none" points="373.5,-158 373.5,-180 502.5,-180 502.5,-158 373.5,-158"/>
<polygon fill="none" stroke="black" points="373.5,-158 373.5,-180 502.5,-180 502.5,-158 373.5,-158"/>
<image xlink:href="../../images/foreignKeys.png" width="11px" height="12px" preserveAspectRatio="xMinYMin meet" x="378.5" y="-175"/>
<text text-anchor="start" x="393.5" y="-166.2" font-family="Helvetica,sans-Serif" font-size="11.00">importer_id</text>
<polygon fill="none" stroke="black" points="502.5,-158 502.5,-180 612.5,-180 612.5,-158 502.5,-158"/>
<text text-anchor="start" x="505.5" y="-166.2" font-family="Helvetica,sans-Serif" font-size="11.00">uuid[2147483647]</text>
<polygon fill="#ffffff" stroke="none" points="373.5,-136 373.5,-158 502.5,-158 502.5,-136 373.5,-136"/>
<polygon fill="none" stroke="black" points="373.5,-136 373.5,-158 502.5,-158 502.5,-136 373.5,-136"/>
<image xlink:href="../../images/foreignKeys.png" width="11px" height="12px" preserveAspectRatio="xMinYMin meet" x="378.5" y="-153"/>
<text text-anchor="start" x="393.5" y="-144.2" font-family="Helvetica,sans-Serif" font-size="11.00">task_id</text>
<polygon fill="none" stroke="black" points="502.5,-136 502.5,-158 612.5,-158 612.5,-136 502.5,-136"/>
<text text-anchor="start" x="505.5" y="-144.2" font-family="Helvetica,sans-Serif" font-size="11.00">uuid[2147483647]</text>
<polygon fill="#ffffff" stroke="none" points="373.5,-118 373.5,-136 428.5,-136 428.5,-118 373.5,-118"/>
<polygon fill="none" stroke="black" points="373.5,-118 373.5,-136 428.5,-136 428.5,-118 373.5,-118"/>
<text text-anchor="start" x="376.5" y="-124.2" font-family="Helvetica,sans-Serif" font-size="11.00">&lt; 2</text>
<polygon fill="#ffffff" stroke="none" points="428.5,-118 428.5,-136 502.5,-136 502.5,-118 428.5,-118"/>
<polygon fill="none" stroke="black" points="428.5,-118 428.5,-136 502.5,-136 502.5,-118 428.5,-118"/>
<text text-anchor="start" x="463.5" y="-124.2" font-family="Helvetica,sans-Serif" font-size="11.00">0 rows</text>
<polygon fill="#ffffff" stroke="none" points="502.5,-118 502.5,-136 612.5,-136 612.5,-118 502.5,-118"/>
<polygon fill="none" stroke="black" points="502.5,-118 502.5,-136 612.5,-136 612.5,-118 502.5,-118"/>
<text text-anchor="start" x="592.5" y="-124.2" font-family="Helvetica,sans-Serif" font-size="11.00">1 &gt;</text>
<polygon fill="none" stroke="black" stroke-width="2" points="372,-117 372,-291 613,-291 613,-117 372,-117"/>
</a>
</g>
</g>
<!-- core_import&#45;&gt;core_task -->
<g id="edge5" class="edge"><title>core_import:task_id:w&#45;&gt;core_task:pulp_id:e</title>
<path fill="none" stroke="black" d="M358.845,-151.696C307.627,-193.348 396.387,-498 323,-498"/>
<polygon fill="black" stroke="black" points="364.935,-149.602 373.671,-150.404 368.717,-148.301 372.5,-147 372.5,-147 372.5,-147 368.717,-148.301 371.329,-143.596 364.935,-149.602 364.935,-149.602"/>
<ellipse fill="none" stroke="black" cx="361.909" cy="-150.643" rx="3.20001" ry="3.20001"/>
</g>
<!-- core_importer -->
<g id="node6" class="node"><title>core_importer</title>
<g id="a_node6"><a xlink:href="../../tables/core_importer.html" xlink:title="core_importer" target="_top">
<polygon fill="#ffffff" stroke="none" points="192,-47 192,-149 322,-149 322,-47 192,-47"/>
<polygon fill="#f5f5f5" stroke="none" points="192,-127 192,-149 322,-149 322,-127 192,-127"/>
<polygon fill="none" stroke="black" points="192,-127 192,-149 322,-149 322,-127 192,-127"/>
<text text-anchor="start" x="197" y="-136.2" font-family="Helvetica,sans-Serif" font-weight="bold" font-size="11.00">core_importer</text>
<text text-anchor="start" x="283" y="-135.2" font-family="Helvetica,sans-Serif" font-size="11.00">[table]</text>
<polygon fill="none" stroke="black" points="192,-105 192,-127 322,-127 322,-105 192,-105"/>
<image xlink:href="../../images/primaryKeys.png" width="11px" height="12px" preserveAspectRatio="xMinYMin meet" x="197" y="-122"/>
<text text-anchor="start" x="213" y="-113.2" font-family="Helvetica,sans-Serif" font-size="11.00">pulp_id</text>
<polygon fill="#ffffff" stroke="none" points="192,-83 192,-105 322,-105 322,-83 192,-83"/>
<polygon fill="none" stroke="black" points="192,-83 192,-105 322,-105 322,-83 192,-83"/>
<text text-anchor="start" x="213" y="-91.2" font-family="Helvetica,sans-Serif" font-size="11.00">name</text>
<polygon fill="none" stroke="black" points="192,-65 192,-83 322,-83 322,-65 192,-65"/>
<text text-anchor="start" x="195" y="-71.2" font-family="Helvetica,sans-Serif" font-size="11.00">...</text>
<polygon fill="#ffffff" stroke="none" points="192,-47 192,-65 231,-65 231,-47 192,-47"/>
<polygon fill="none" stroke="black" points="192,-47 192,-65 231,-65 231,-47 192,-47"/>
<text text-anchor="start" x="195" y="-53.2" font-family="Helvetica,sans-Serif" font-size="11.00"> &#160;</text>
<polygon fill="#ffffff" stroke="none" points="231,-47 231,-65 286,-65 286,-47 231,-47"/>
<polygon fill="none" stroke="black" points="231,-47 231,-65 286,-65 286,-47 231,-47"/>
<text text-anchor="start" x="247" y="-53.2" font-family="Helvetica,sans-Serif" font-size="11.00">0 rows</text>
<polygon fill="#ffffff" stroke="none" points="286,-47 286,-65 322,-65 322,-47 286,-47"/>
<polygon fill="none" stroke="black" points="286,-47 286,-65 322,-65 322,-47 286,-47"/>
<text text-anchor="start" x="302" y="-53.2" font-family="Helvetica,sans-Serif" font-size="11.00">2 &gt;</text>
</a>
</g>
</g>
<!-- core_import&#45;&gt;core_importer -->
<g id="edge4" class="edge"><title>core_import:importer_id:w&#45;&gt;core_importer:pulp_id:e</title>
<path fill="none" stroke="black" d="M358.725,-164.109C344.22,-150.988 349.188,-116 323,-116"/>
<polygon fill="black" stroke="black" points="364.961,-166.323 371.295,-172.392 368.731,-167.662 372.5,-169 372.5,-169 372.5,-169 368.731,-167.662 373.705,-165.608 364.961,-166.323 364.961,-166.323"/>
<ellipse fill="none" stroke="black" cx="361.946" cy="-165.252" rx="3.20001" ry="3.20001"/>
</g>
<!-- core_progressreport -->
<g id="node7" class="node"><title>core_progressreport</title>
<g id="a_node7"><a xlink:href="../../tables/core_progressreport.html" xlink:title="core_progressreport" target="_top">
<polygon fill="#ffffff" stroke="none" points="411,-471 411,-529 574,-529 574,-471 411,-471"/>
<polygon fill="#f5f5f5" stroke="none" points="411.5,-507 411.5,-529 574.5,-529 574.5,-507 411.5,-507"/>
<polygon fill="none" stroke="black" points="411.5,-507 411.5,-529 574.5,-529 574.5,-507 411.5,-507"/>
<text text-anchor="start" x="416.5" y="-516.2" font-family="Helvetica,sans-Serif" font-weight="bold" font-size="11.00">core_progressreport</text>
<text text-anchor="start" x="535.5" y="-515.2" font-family="Helvetica,sans-Serif" font-size="11.00">[table]</text>
<polygon fill="none" stroke="black" points="411.5,-489 411.5,-507 574.5,-507 574.5,-489 411.5,-489"/>
<text text-anchor="start" x="414.5" y="-495.2" font-family="Helvetica,sans-Serif" font-size="11.00">...</text>
<polygon fill="#ffffff" stroke="none" points="411.5,-471 411.5,-489 473.5,-489 473.5,-471 411.5,-471"/>
<polygon fill="none" stroke="black" points="411.5,-471 411.5,-489 473.5,-489 473.5,-471 411.5,-471"/>
<text text-anchor="start" x="414.5" y="-477.2" font-family="Helvetica,sans-Serif" font-size="11.00">&lt; 1</text>
<polygon fill="#ffffff" stroke="none" points="473.5,-471 473.5,-489 541.5,-489 541.5,-471 473.5,-471"/>
<polygon fill="none" stroke="black" points="473.5,-471 473.5,-489 541.5,-489 541.5,-471 473.5,-471"/>
<text text-anchor="start" x="495.5" y="-477.2" font-family="Helvetica,sans-Serif" font-size="11.00">53 rows</text>
<polygon fill="#ffffff" stroke="none" points="541.5,-471 541.5,-489 574.5,-489 574.5,-471 541.5,-471"/>
<polygon fill="none" stroke="black" points="541.5,-471 541.5,-489 574.5,-489 574.5,-471 541.5,-471"/>
<text text-anchor="start" x="564.5" y="-477.2" font-family="Helvetica,sans-Serif" font-size="11.00"> &#160;</text>
</a>
</g>
</g>
<!-- core_progressreport&#45;&gt;core_task -->
<g id="edge6" class="edge"><title>core_progressreport:elipses:w&#45;&gt;core_task:pulp_id:e</title>
<path fill="none" stroke="black" d="M396.036,-498C368.408,-498 356.572,-498 323,-498"/>
<polygon fill="black" stroke="black" points="402.5,-498 410.5,-501.6 406.5,-498 410.5,-498 410.5,-498 410.5,-498 406.5,-498 410.5,-494.4 402.5,-498 402.5,-498"/>
<ellipse fill="none" stroke="black" cx="399.3" cy="-498" rx="3.2" ry="3.2"/>
</g>
<!-- core_pulpimport -->
<g id="node8" class="node"><title>core_pulpimport</title>
<g id="a_node8"><a xlink:href="../../tables/core_pulpimport.html" xlink:title="core_pulpimport" target="_top">
<polygon fill="#ffffff" stroke="none" points="663,-228 663,-290 807,-290 807,-228 663,-228"/>
<polygon fill="#f5f5f5" stroke="none" points="663,-268 663,-290 807,-290 807,-268 663,-268"/>
<polygon fill="none" stroke="black" points="663,-268 663,-290 807,-290 807,-268 663,-268"/>
<text text-anchor="start" x="668" y="-277.2" font-family="Helvetica,sans-Serif" font-weight="bold" font-size="11.00">core_pulpimport</text>
<text text-anchor="start" x="768" y="-276.2" font-family="Helvetica,sans-Serif" font-size="11.00">[table]</text>
<polygon fill="none" stroke="black" points="663,-246 663,-268 807,-268 807,-246 663,-246"/>
<image xlink:href="../../images/primaryKeys.png" width="11px" height="12px" preserveAspectRatio="xMinYMin meet" x="668" y="-263"/>
<text text-anchor="start" x="696" y="-254.2" font-family="Helvetica,sans-Serif" font-size="11.00">import_ptr_id</text>
<polygon fill="#ffffff" stroke="none" points="663,-228 663,-246 719,-246 719,-228 663,-228"/>
<polygon fill="none" stroke="black" points="663,-228 663,-246 719,-246 719,-228 663,-228"/>
<text text-anchor="start" x="666" y="-234.2" font-family="Helvetica,sans-Serif" font-size="11.00">&lt; 1</text>
<polygon fill="#ffffff" stroke="none" points="719,-228 719,-246 777,-246 777,-228 719,-228"/>
<polygon fill="none" stroke="black" points="719,-228 719,-246 777,-246 777,-228 719,-228"/>
<text text-anchor="start" x="738" y="-234.2" font-family="Helvetica,sans-Serif" font-size="11.00">0 rows</text>
<polygon fill="#ffffff" stroke="none" points="777,-228 777,-246 807,-246 807,-228 777,-228"/>
<polygon fill="none" stroke="black" points="777,-228 777,-246 807,-246 807,-228 777,-228"/>
<text text-anchor="start" x="797" y="-234.2" font-family="Helvetica,sans-Serif" font-size="11.00"> &#160;</text>
</a>
</g>
</g>
<!-- core_pulpimport&#45;&gt;core_import -->
<g id="edge7" class="edge"><title>core_pulpimport:import_ptr_id:w&#45;&gt;core_import:pulp_id.type:e</title>
<path fill="none" stroke="black" d="M651.367,-257C637.855,-257 631.014,-257 613.5,-257"/>
<polygon fill="black" stroke="black" points="661.2,-253 661.2,-261 659.6,-261 659.6,-253 661.2,-253"/>
<polyline fill="none" stroke="black" points="662,-257 658,-257 "/>
<ellipse fill="none" stroke="black" cx="654.8" cy="-257" rx="3.2" ry="3.2"/>
</g>
<!-- core_pulpimporter -->
<g id="node9" class="node"><title>core_pulpimporter</title>
<g id="a_node9"><a xlink:href="../../tables/core_pulpimporter.html" xlink:title="core_pulpimporter" target="_top">
<polygon fill="#ffffff" stroke="none" points="414.5,-37 414.5,-95 570.5,-95 570.5,-37 414.5,-37"/>
<polygon fill="#f5f5f5" stroke="none" points="414.5,-73 414.5,-95 570.5,-95 570.5,-73 414.5,-73"/>
<polygon fill="none" stroke="black" points="414.5,-73 414.5,-95 570.5,-95 570.5,-73 414.5,-73"/>
<text text-anchor="start" x="419.5" y="-82.2" font-family="Helvetica,sans-Serif" font-weight="bold" font-size="11.00">core_pulpimporter</text>
<text text-anchor="start" x="531.5" y="-81.2" font-family="Helvetica,sans-Serif" font-size="11.00">[table]</text>
<polygon fill="none" stroke="black" points="414.5,-55 414.5,-73 570.5,-73 570.5,-55 414.5,-55"/>
<text text-anchor="start" x="417.5" y="-61.2" font-family="Helvetica,sans-Serif" font-size="11.00">...</text>
<polygon fill="#ffffff" stroke="none" points="414.5,-37 414.5,-55 471.5,-55 471.5,-37 414.5,-37"/>
<polygon fill="none" stroke="black" points="414.5,-37 414.5,-55 471.5,-55 471.5,-37 414.5,-37"/>
<text text-anchor="start" x="417.5" y="-43.2" font-family="Helvetica,sans-Serif" font-size="11.00">&lt; 1</text>
<polygon fill="#ffffff" stroke="none" points="471.5,-37 471.5,-55 530.5,-55 530.5,-37 471.5,-37"/>
<polygon fill="none" stroke="black" points="471.5,-37 471.5,-55 530.5,-55 530.5,-37 471.5,-37"/>
<text text-anchor="start" x="491.5" y="-43.2" font-family="Helvetica,sans-Serif" font-size="11.00">0 rows</text>
<polygon fill="#ffffff" stroke="none" points="530.5,-37 530.5,-55 570.5,-55 570.5,-37 530.5,-37"/>
<polygon fill="none" stroke="black" points="530.5,-37 530.5,-55 570.5,-55 570.5,-37 530.5,-37"/>
<text text-anchor="start" x="550.5" y="-43.2" font-family="Helvetica,sans-Serif" font-size="11.00">1 &gt;</text>
</a>
</g>
</g>
<!-- core_pulpimporter&#45;&gt;core_importer -->
<g id="edge8" class="edge"><title>core_pulpimporter:elipses:w&#45;&gt;core_importer:pulp_id:e</title>
<path fill="none" stroke="black" d="M403.013,-64.9923C367.157,-72.1813 365.584,-116 323,-116"/>
<polygon fill="black" stroke="black" points="412.327,-60.0932 413.08,-68.0576 411.488,-68.2083 410.734,-60.2439 412.327,-60.0932"/>
<polyline fill="none" stroke="black" points="413.5,-64 409.518,-64.3768 "/>
<ellipse fill="none" stroke="black" cx="406.332" cy="-64.6783" rx="3.2" ry="3.2"/>
</g>
<!-- core_taskreservedresource -->
<g id="node12" class="node"><title>core_taskreservedresource</title>
<g id="a_node12"><a xlink:href="../../tables/core_taskreservedresource.html" xlink:title="core_taskreservedresource" target="_top">
<polygon fill="#ffffff" stroke="none" points="391.5,-392 391.5,-450 593.5,-450 593.5,-392 391.5,-392"/>
<polygon fill="#f5f5f5" stroke="none" points="391.5,-428 391.5,-450 593.5,-450 593.5,-428 391.5,-428"/>
<polygon fill="none" stroke="black" points="391.5,-428 391.5,-450 593.5,-450 593.5,-428 391.5,-428"/>
<text text-anchor="start" x="396.5" y="-437.2" font-family="Helvetica,sans-Serif" font-weight="bold" font-size="11.00">core_taskreservedresource</text>
<text text-anchor="start" x="554.5" y="-436.2" font-family="Helvetica,sans-Serif" font-size="11.00">[table]</text>
<polygon fill="none" stroke="black" points="391.5,-410 391.5,-428 593.5,-428 593.5,-410 391.5,-410"/>
<text text-anchor="start" x="394.5" y="-416.2" font-family="Helvetica,sans-Serif" font-size="11.00">...</text>
<polygon fill="#ffffff" stroke="none" points="391.5,-392 391.5,-410 476.5,-410 476.5,-392 391.5,-392"/>
<polygon fill="none" stroke="black" points="391.5,-392 391.5,-410 476.5,-410 476.5,-392 391.5,-392"/>
<text text-anchor="start" x="394.5" y="-398.2" font-family="Helvetica,sans-Serif" font-size="11.00">&lt; 2</text>
<polygon fill="#ffffff" stroke="none" points="476.5,-392 476.5,-410 549.5,-410 549.5,-392 476.5,-392"/>
<polygon fill="none" stroke="black" points="476.5,-392 476.5,-410 549.5,-410 549.5,-392 476.5,-392"/>
<text text-anchor="start" x="510.5" y="-398.2" font-family="Helvetica,sans-Serif" font-size="11.00">0 rows</text>
<polygon fill="#ffffff" stroke="none" points="549.5,-392 549.5,-410 593.5,-410 593.5,-392 549.5,-392"/>
<polygon fill="none" stroke="black" points="549.5,-392 549.5,-410 593.5,-410 593.5,-392 549.5,-392"/>
<text text-anchor="start" x="583.5" y="-398.2" font-family="Helvetica,sans-Serif" font-size="11.00"> &#160;</text>
</a>
</g>
</g>
<!-- core_taskreservedresource&#45;&gt;core_task -->
<g id="edge11" class="edge"><title>core_taskreservedresource:elipses:w&#45;&gt;core_task:pulp_id:e</title>
<path fill="none" stroke="black" d="M376.234,-422.395C349.424,-437.516 363.409,-498 323,-498"/>
<polygon fill="black" stroke="black" points="382.717,-420.852 391.333,-422.502 386.609,-419.926 390.5,-419 390.5,-419 390.5,-419 386.609,-419.926 389.667,-415.498 382.717,-420.852 382.717,-420.852"/>
<ellipse fill="none" stroke="black" cx="379.604" cy="-421.593" rx="3.2" ry="3.2"/>
</g>
<!-- core_taskreservedresourcerecord -->
<g id="node13" class="node"><title>core_taskreservedresourcerecord</title>
<g id="a_node13"><a xlink:href="../../tables/core_taskreservedresourcerecord.html" xlink:title="core_taskreservedresourcerecord" target="_top">
<polygon fill="#ffffff" stroke="none" points="373,-313 373,-371 612,-371 612,-313 373,-313"/>
<polygon fill="#f5f5f5" stroke="none" points="373.5,-349 373.5,-371 612.5,-371 612.5,-349 373.5,-349"/>
<polygon fill="none" stroke="black" points="373.5,-349 373.5,-371 612.5,-371 612.5,-349 373.5,-349"/>
<text text-anchor="start" x="378.5" y="-358.2" font-family="Helvetica,sans-Serif" font-weight="bold" font-size="11.00">core_taskreservedresourcerecord</text>
<text text-anchor="start" x="573.5" y="-357.2" font-family="Helvetica,sans-Serif" font-size="11.00">[table]</text>
<polygon fill="none" stroke="black" points="373.5,-331 373.5,-349 612.5,-349 612.5,-331 373.5,-331"/>
<text text-anchor="start" x="376.5" y="-337.2" font-family="Helvetica,sans-Serif" font-size="11.00">...</text>
<polygon fill="#ffffff" stroke="none" points="373.5,-313 373.5,-331 465.5,-331 465.5,-313 373.5,-313"/>
<polygon fill="none" stroke="black" points="373.5,-313 373.5,-331 465.5,-331 465.5,-313 373.5,-313"/>
<text text-anchor="start" x="376.5" y="-319.2" font-family="Helvetica,sans-Serif" font-size="11.00">&lt; 2</text>
<polygon fill="#ffffff" stroke="none" points="465.5,-313 465.5,-331 564.5,-331 564.5,-313 465.5,-313"/>
<polygon fill="none" stroke="black" points="465.5,-313 465.5,-331 564.5,-331 564.5,-313 465.5,-313"/>
<text text-anchor="start" x="502.5" y="-319.2" font-family="Helvetica,sans-Serif" font-size="11.00">1,937 rows</text>
<polygon fill="#ffffff" stroke="none" points="564.5,-313 564.5,-331 612.5,-331 612.5,-313 564.5,-313"/>
<polygon fill="none" stroke="black" points="564.5,-313 564.5,-331 612.5,-331 612.5,-313 564.5,-313"/>
<text text-anchor="start" x="602.5" y="-319.2" font-family="Helvetica,sans-Serif" font-size="11.00"> &#160;</text>
</a>
</g>
</g>
<!-- core_taskreservedresourcerecord&#45;&gt;core_task -->
<g id="edge12" class="edge"><title>core_taskreservedresourcerecord:elipses:w&#45;&gt;core_task:pulp_id:e</title>
<path fill="none" stroke="black" d="M358.225,-342.742C313.129,-363.723 390.839,-498 323,-498"/>
<polygon fill="black" stroke="black" points="364.644,-341.509 373.179,-343.535 368.572,-340.755 372.5,-340 372.5,-340 372.5,-340 368.572,-340.755 371.821,-336.465 364.644,-341.509 364.644,-341.509"/>
<ellipse fill="none" stroke="black" cx="361.501" cy="-342.113" rx="3.2" ry="3.2"/>
</g>
</g>
</svg>
