<?xml version="1.0" encoding="UTF-8" standalone="no"?>
<!DOCTYPE svg PUBLIC "-//W3C//DTD SVG 1.1//EN"
 "http://www.w3.org/Graphics/SVG/1.1/DTD/svg11.dtd">
<!-- Generated by graphviz version 2.38.0 (20140413.2041)
 -->
<!-- Title: twoDegreesRelationshipsDiagram Pages: 1 -->
<svg width="941pt" height="669pt"
 viewBox="0.00 0.00 941.00 669.00" xmlns="http://www.w3.org/2000/svg" xmlns:xlink="http://www.w3.org/1999/xlink">
<g id="graph0" class="graph" transform="scale(1 1) rotate(0) translate(4 665)">
<title>twoDegreesRelationshipsDiagram</title>
<polygon fill="#ffffff" stroke="none" points="-4,4 -4,-665 937,-665 937,4 -4,4"/>
<text text-anchor="middle" x="74.5" y="-7.2" font-family="Helvetica,sans-Serif" font-size="11.00">Generated by SchemaSpy</text>
<!-- ansible_ansibledistribution -->
<g id="node1" class="node"><title>ansible_ansibledistribution</title>
<g id="a_node1"><a xlink:href="../../tables/ansible_ansibledistribution.html" xlink:title="ansible_ansibledistribution" target="_top">
<polygon fill="#ffffff" stroke="none" points="451,-599 451,-657 656,-657 656,-599 451,-599"/>
<polygon fill="#f5f5f5" stroke="none" points="451.5,-635 451.5,-657 656.5,-657 656.5,-635 451.5,-635"/>
<polygon fill="none" stroke="black" points="451.5,-635 451.5,-657 656.5,-657 656.5,-635 451.5,-635"/>
<text text-anchor="start" x="456.5" y="-644.2" font-family="Helvetica,sans-Serif" font-weight="bold" font-size="11.00">ansible_ansibledistribution</text>
<text text-anchor="start" x="617.5" y="-643.2" font-family="Helvetica,sans-Serif" font-size="11.00">[table]</text>
<polygon fill="none" stroke="black" points="451.5,-617 451.5,-635 656.5,-635 656.5,-617 451.5,-617"/>
<text text-anchor="start" x="454.5" y="-623.2" font-family="Helvetica,sans-Serif" font-size="11.00">...</text>
<polygon fill="#ffffff" stroke="none" points="451.5,-599 451.5,-617 534.5,-617 534.5,-599 451.5,-599"/>
<polygon fill="none" stroke="black" points="451.5,-599 451.5,-617 534.5,-617 534.5,-599 451.5,-599"/>
<text text-anchor="start" x="454.5" y="-605.2" font-family="Helvetica,sans-Serif" font-size="11.00">&lt; 3</text>
<polygon fill="#ffffff" stroke="none" points="534.5,-599 534.5,-617 613.5,-617 613.5,-599 534.5,-599"/>
<polygon fill="none" stroke="black" points="534.5,-599 534.5,-617 613.5,-617 613.5,-599 534.5,-599"/>
<text text-anchor="start" x="567.5" y="-605.2" font-family="Helvetica,sans-Serif" font-size="11.00">32 rows</text>
<polygon fill="#ffffff" stroke="none" points="613.5,-599 613.5,-617 656.5,-617 656.5,-599 613.5,-599"/>
<polygon fill="none" stroke="black" points="613.5,-599 613.5,-617 656.5,-617 656.5,-599 613.5,-599"/>
<text text-anchor="start" x="646.5" y="-605.2" font-family="Helvetica,sans-Serif" font-size="11.00"> &#160;</text>
</a>
</g>
</g>
<!-- core_repository -->
<g id="node2" class="node"><title>core_repository</title>
<g id="a_node2"><a xlink:href="../../tables/core_repository.html" xlink:title="core_repository" target="_top">
<polygon fill="#ffffff" stroke="none" points="8,-329 8,-387 145,-387 145,-329 8,-329"/>
<polygon fill="#f5f5f5" stroke="none" points="8.5,-365 8.5,-387 145.5,-387 145.5,-365 8.5,-365"/>
<polygon fill="none" stroke="black" points="8.5,-365 8.5,-387 145.5,-387 145.5,-365 8.5,-365"/>
<text text-anchor="start" x="13.5" y="-374.2" font-family="Helvetica,sans-Serif" font-weight="bold" font-size="11.00">core_repository</text>
<text text-anchor="start" x="106.5" y="-373.2" font-family="Helvetica,sans-Serif" font-size="11.00">[table]</text>
<polygon fill="none" stroke="black" points="8.5,-347 8.5,-365 145.5,-365 145.5,-347 8.5,-347"/>
<text text-anchor="start" x="11.5" y="-353.2" font-family="Helvetica,sans-Serif" font-size="11.00">...</text>
<polygon fill="#ffffff" stroke="none" points="8.5,-329 8.5,-347 48.5,-347 48.5,-329 8.5,-329"/>
<polygon fill="none" stroke="black" points="8.5,-329 8.5,-347 48.5,-347 48.5,-329 8.5,-329"/>
<text text-anchor="start" x="11.5" y="-335.2" font-family="Helvetica,sans-Serif" font-size="11.00">&lt; 1</text>
<polygon fill="#ffffff" stroke="none" points="48.5,-329 48.5,-347 106.5,-347 106.5,-329 48.5,-329"/>
<polygon fill="none" stroke="black" points="48.5,-329 48.5,-347 106.5,-347 106.5,-329 48.5,-329"/>
<text text-anchor="start" x="60.5" y="-335.2" font-family="Helvetica,sans-Serif" font-size="11.00">26 rows</text>
<polygon fill="#ffffff" stroke="none" points="106.5,-329 106.5,-347 145.5,-347 145.5,-329 106.5,-329"/>
<polygon fill="none" stroke="black" points="106.5,-329 106.5,-347 145.5,-347 145.5,-329 106.5,-329"/>
<text text-anchor="start" x="118.5" y="-335.2" font-family="Helvetica,sans-Serif" font-size="11.00">10 &gt;</text>
</a>
</g>
</g>
<!-- ansible_ansibledistribution&#45;&gt;core_repository -->
<g id="edge1" class="edge"><title>ansible_ansibledistribution:elipses:w&#45;&gt;core_repository:elipses:e</title>
<path fill="none" stroke="black" d="M435.727,-625.755C307.874,-621.397 271.704,-559.21 186,-455 155.909,-418.411 193.873,-356 146.5,-356"/>
<polygon fill="black" stroke="black" points="442.501,-625.867 450.44,-629.6 446.501,-625.934 450.5,-626 450.5,-626 450.5,-626 446.501,-625.934 450.56,-622.4 442.501,-625.867 442.501,-625.867"/>
<ellipse fill="none" stroke="black" cx="439.302" cy="-625.814" rx="3.2" ry="3.2"/>
</g>
<!-- core_repositoryversion -->
<g id="node3" class="node"><title>core_repositoryversion</title>
<g id="a_node3"><a xlink:href="../../tables/core_repositoryversion.html" xlink:title="core_repositoryversion" target="_top">
<polygon fill="#ffffff" stroke="none" points="194,-197 194,-365 373,-365 373,-197 194,-197"/>
<polygon fill="#f5f5f5" stroke="none" points="194.5,-343 194.5,-365 373.5,-365 373.5,-343 194.5,-343"/>
<polygon fill="none" stroke="black" points="194.5,-343 194.5,-365 373.5,-365 373.5,-343 194.5,-343"/>
<text text-anchor="start" x="199.5" y="-352.2" font-family="Helvetica,sans-Serif" font-weight="bold" font-size="11.00">core_repositoryversion</text>
<text text-anchor="start" x="334.5" y="-351.2" font-family="Helvetica,sans-Serif" font-size="11.00">[table]</text>
<polygon fill="none" stroke="black" points="194.5,-321 194.5,-343 373.5,-343 373.5,-321 194.5,-321"/>
<image xlink:href="../../images/primaryKeys.png" width="11px" height="12px" preserveAspectRatio="xMinYMin meet" x="199.5" y="-338"/>
<text text-anchor="start" x="225.5" y="-329.2" font-family="Helvetica,sans-Serif" font-size="11.00">pulp_id</text>
<polygon fill="#ffffff" stroke="none" points="194.5,-299 194.5,-321 373.5,-321 373.5,-299 194.5,-299"/>
<polygon fill="none" stroke="black" points="194.5,-299 194.5,-321 373.5,-321 373.5,-299 194.5,-299"/>
<text text-anchor="start" x="225.5" y="-307.2" font-family="Helvetica,sans-Serif" font-size="11.00">number</text>
<polygon fill="#ffffff" stroke="none" points="194.5,-277 194.5,-299 373.5,-299 373.5,-277 194.5,-277"/>
<polygon fill="none" stroke="black" points="194.5,-277 194.5,-299 373.5,-299 373.5,-277 194.5,-277"/>
<text text-anchor="start" x="225.5" y="-285.2" font-family="Helvetica,sans-Serif" font-size="11.00">complete</text>
<polygon fill="#ffffff" stroke="none" points="194.5,-255 194.5,-277 373.5,-277 373.5,-255 194.5,-255"/>
<polygon fill="none" stroke="black" points="194.5,-255 194.5,-277 373.5,-277 373.5,-255 194.5,-255"/>
<image xlink:href="../../images/foreignKeys.png" width="11px" height="12px" preserveAspectRatio="xMinYMin meet" x="199.5" y="-272"/>
<text text-anchor="start" x="225.5" y="-263.2" font-family="Helvetica,sans-Serif" font-size="11.00">base_version_id</text>
<polygon fill="#ffffff" stroke="none" points="194.5,-233 194.5,-255 373.5,-255 373.5,-233 194.5,-233"/>
<polygon fill="none" stroke="black" points="194.5,-233 194.5,-255 373.5,-255 373.5,-233 194.5,-233"/>
<image xlink:href="../../images/foreignKeys.png" width="11px" height="12px" preserveAspectRatio="xMinYMin meet" x="199.5" y="-250"/>
<text text-anchor="start" x="225.5" y="-241.2" font-family="Helvetica,sans-Serif" font-size="11.00">repository_id</text>
<polygon fill="none" stroke="black" points="194.5,-215 194.5,-233 373.5,-233 373.5,-215 194.5,-215"/>
<text text-anchor="start" x="197.5" y="-221.2" font-family="Helvetica,sans-Serif" font-size="11.00">...</text>
<polygon fill="#ffffff" stroke="none" points="194.5,-197 194.5,-215 256.5,-215 256.5,-197 194.5,-197"/>
<polygon fill="none" stroke="black" points="194.5,-197 194.5,-215 256.5,-215 256.5,-197 194.5,-197"/>
<text text-anchor="start" x="197.5" y="-203.2" font-family="Helvetica,sans-Serif" font-size="11.00">&lt; 2</text>
<polygon fill="#ffffff" stroke="none" points="256.5,-197 256.5,-215 330.5,-215 330.5,-197 256.5,-197"/>
<polygon fill="none" stroke="black" points="256.5,-197 256.5,-215 330.5,-215 330.5,-197 256.5,-197"/>
<text text-anchor="start" x="278.5" y="-203.2" font-family="Helvetica,sans-Serif" font-size="11.00">162 rows</text>
<polygon fill="#ffffff" stroke="none" points="330.5,-197 330.5,-215 373.5,-215 373.5,-197 330.5,-197"/>
<polygon fill="none" stroke="black" points="330.5,-197 330.5,-215 373.5,-215 373.5,-197 330.5,-197"/>
<text text-anchor="start" x="353.5" y="-203.2" font-family="Helvetica,sans-Serif" font-size="11.00">7 &gt;</text>
</a>
</g>
</g>
<!-- ansible_ansibledistribution&#45;&gt;core_repositoryversion -->
<g id="edge2" class="edge"><title>ansible_ansibledistribution:elipses:w&#45;&gt;core_repositoryversion:pulp_id:e</title>
<path fill="none" stroke="black" d="M436.166,-622.945C425.35,-617.28 421.696,-604.319 414,-589 388.061,-537.368 432.282,-332 374.5,-332"/>
<polygon fill="black" stroke="black" points="442.676,-624.332 449.75,-629.521 446.588,-625.166 450.5,-626 450.5,-626 450.5,-626 446.588,-625.166 451.25,-622.479 442.676,-624.332 442.676,-624.332"/>
<ellipse fill="none" stroke="black" cx="439.546" cy="-623.665" rx="3.2" ry="3.2"/>
</g>
<!-- core_repositoryversion&#45;&gt;core_repository -->
<g id="edge15" class="edge"><title>core_repositoryversion:repository_id:w&#45;&gt;core_repository:elipses:e</title>
<path fill="none" stroke="black" d="M179.245,-247.986C151.854,-267.938 194.368,-356 146.5,-356"/>
<polygon fill="black" stroke="black" points="185.796,-246.154 194.47,-247.467 189.648,-245.077 193.5,-244 193.5,-244 193.5,-244 189.648,-245.077 192.53,-240.533 185.796,-246.154 185.796,-246.154"/>
<ellipse fill="none" stroke="black" cx="182.714" cy="-247.016" rx="3.20001" ry="3.20001"/>
</g>
<!-- container_containerdistribution -->
<g id="node4" class="node"><title>container_containerdistribution</title>
<g id="a_node4"><a xlink:href="../../tables/container_containerdistribution.html" xlink:title="container_containerdistribution" target="_top">
<polygon fill="#ffffff" stroke="none" points="437,-520 437,-578 670,-578 670,-520 437,-520"/>
<polygon fill="#f5f5f5" stroke="none" points="437.5,-556 437.5,-578 670.5,-578 670.5,-556 437.5,-556"/>
<polygon fill="none" stroke="black" points="437.5,-556 437.5,-578 670.5,-578 670.5,-556 437.5,-556"/>
<text text-anchor="start" x="442.5" y="-565.2" font-family="Helvetica,sans-Serif" font-weight="bold" font-size="11.00">container_containerdistribution</text>
<text text-anchor="start" x="631.5" y="-564.2" font-family="Helvetica,sans-Serif" font-size="11.00">[table]</text>
<polygon fill="none" stroke="black" points="437.5,-538 437.5,-556 670.5,-556 670.5,-538 437.5,-538"/>
<text text-anchor="start" x="440.5" y="-544.2" font-family="Helvetica,sans-Serif" font-size="11.00">...</text>
<polygon fill="#ffffff" stroke="none" points="437.5,-520 437.5,-538 537.5,-538 537.5,-520 437.5,-520"/>
<polygon fill="none" stroke="black" points="437.5,-520 437.5,-538 537.5,-538 537.5,-520 437.5,-520"/>
<text text-anchor="start" x="440.5" y="-526.2" font-family="Helvetica,sans-Serif" font-size="11.00">&lt; 3</text>
<polygon fill="#ffffff" stroke="none" points="537.5,-520 537.5,-538 618.5,-538 618.5,-520 537.5,-520"/>
<polygon fill="none" stroke="black" points="537.5,-520 537.5,-538 618.5,-538 618.5,-520 537.5,-520"/>
<text text-anchor="start" x="579.5" y="-526.2" font-family="Helvetica,sans-Serif" font-size="11.00">0 rows</text>
<polygon fill="#ffffff" stroke="none" points="618.5,-520 618.5,-538 670.5,-538 670.5,-520 618.5,-520"/>
<polygon fill="none" stroke="black" points="618.5,-520 618.5,-538 670.5,-538 670.5,-520 618.5,-520"/>
<text text-anchor="start" x="660.5" y="-526.2" font-family="Helvetica,sans-Serif" font-size="11.00"> &#160;</text>
</a>
</g>
</g>
<!-- container_containerdistribution&#45;&gt;core_repository -->
<g id="edge3" class="edge"><title>container_containerdistribution:elipses:w&#45;&gt;core_repository:elipses:e</title>
<path fill="none" stroke="black" d="M423.194,-541.074C366.757,-508.836 163.757,-356 146.5,-356"/>
<polygon fill="black" stroke="black" points="429.192,-543.745 435.035,-550.289 432.846,-545.373 436.5,-547 436.5,-547 436.5,-547 432.846,-545.373 437.965,-543.711 429.192,-543.745 429.192,-543.745"/>
<ellipse fill="none" stroke="black" cx="426.269" cy="-542.443" rx="3.20001" ry="3.20001"/>
</g>
<!-- container_containerdistribution&#45;&gt;core_repositoryversion -->
<g id="edge4" class="edge"><title>container_containerdistribution:elipses:w&#45;&gt;core_repositoryversion:pulp_id:e</title>
<path fill="none" stroke="black" d="M421.79,-545.009C351.8,-523.334 468.316,-332 374.5,-332"/>
<polygon fill="black" stroke="black" points="428.572,-545.927 436.017,-550.567 432.536,-546.463 436.5,-547 436.5,-547 436.5,-547 432.536,-546.463 436.983,-543.433 428.572,-545.927 428.572,-545.927"/>
<ellipse fill="none" stroke="black" cx="425.401" cy="-545.498" rx="3.2" ry="3.2"/>
</g>
<!-- core_contentartifact -->
<g id="node5" class="node"><title>core_contentartifact</title>
<g id="a_node5"><a xlink:href="../../tables/core_contentartifact.html" xlink:title="core_contentartifact" target="_top">
<polygon fill="#ffffff" stroke="none" points="470.5,-37 470.5,-95 636.5,-95 636.5,-37 470.5,-37"/>
<polygon fill="#f5f5f5" stroke="none" points="470.5,-73 470.5,-95 636.5,-95 636.5,-73 470.5,-73"/>
<polygon fill="none" stroke="black" points="470.5,-73 470.5,-95 636.5,-95 636.5,-73 470.5,-73"/>
<text text-anchor="start" x="475.5" y="-82.2" font-family="Helvetica,sans-Serif" font-weight="bold" font-size="11.00">core_contentartifact</text>
<text text-anchor="start" x="597.5" y="-81.2" font-family="Helvetica,sans-Serif" font-size="11.00">[table]</text>
<polygon fill="none" stroke="black" points="470.5,-55 470.5,-73 636.5,-73 636.5,-55 470.5,-55"/>
<text text-anchor="start" x="473.5" y="-61.2" font-family="Helvetica,sans-Serif" font-size="11.00">...</text>
<polygon fill="#ffffff" stroke="none" points="470.5,-37 470.5,-55 528.5,-55 528.5,-37 470.5,-37"/>
<polygon fill="none" stroke="black" points="470.5,-37 470.5,-55 528.5,-55 528.5,-37 470.5,-37"/>
<text text-anchor="start" x="473.5" y="-43.2" font-family="Helvetica,sans-Serif" font-size="11.00">&lt; 2</text>
<polygon fill="#ffffff" stroke="none" points="528.5,-37 528.5,-55 595.5,-55 595.5,-37 528.5,-37"/>
<polygon fill="none" stroke="black" points="528.5,-37 528.5,-55 595.5,-55 595.5,-37 528.5,-37"/>
<text text-anchor="start" x="549.5" y="-43.2" font-family="Helvetica,sans-Serif" font-size="11.00">88 rows</text>
<polygon fill="#ffffff" stroke="none" points="595.5,-37 595.5,-55 636.5,-55 636.5,-37 595.5,-37"/>
<polygon fill="none" stroke="black" points="595.5,-37 595.5,-55 636.5,-55 636.5,-37 595.5,-37"/>
<text text-anchor="start" x="616.5" y="-43.2" font-family="Helvetica,sans-Serif" font-size="11.00">2 &gt;</text>
</a>
</g>
</g>
<!-- core_content -->
<g id="node6" class="node"><title>core_content</title>
<g id="a_node6"><a xlink:href="../../tables/core_content.html" xlink:title="core_content" target="_top">
<polygon fill="#ffffff" stroke="none" points="222,-91 222,-149 345,-149 345,-91 222,-91"/>
<polygon fill="#f5f5f5" stroke="none" points="222.5,-127 222.5,-149 345.5,-149 345.5,-127 222.5,-127"/>
<polygon fill="none" stroke="black" points="222.5,-127 222.5,-149 345.5,-149 345.5,-127 222.5,-127"/>
<text text-anchor="start" x="227.5" y="-136.2" font-family="Helvetica,sans-Serif" font-weight="bold" font-size="11.00">core_content</text>
<text text-anchor="start" x="306.5" y="-135.2" font-family="Helvetica,sans-Serif" font-size="11.00">[table]</text>
<polygon fill="none" stroke="black" points="222.5,-109 222.5,-127 345.5,-127 345.5,-109 222.5,-109"/>
<text text-anchor="start" x="225.5" y="-115.2" font-family="Helvetica,sans-Serif" font-size="11.00">...</text>
<polygon fill="#ffffff" stroke="none" points="222.5,-91 222.5,-109 254.5,-109 254.5,-91 222.5,-91"/>
<polygon fill="none" stroke="black" points="222.5,-91 222.5,-109 254.5,-109 254.5,-91 222.5,-91"/>
<text text-anchor="start" x="225.5" y="-97.2" font-family="Helvetica,sans-Serif" font-size="11.00"> &#160;</text>
<polygon fill="#ffffff" stroke="none" points="254.5,-91 254.5,-109 312.5,-109 312.5,-91 254.5,-91"/>
<polygon fill="none" stroke="black" points="254.5,-91 254.5,-109 312.5,-109 312.5,-91 254.5,-91"/>
<text text-anchor="start" x="266.5" y="-97.2" font-family="Helvetica,sans-Serif" font-size="11.00">88 rows</text>
<polygon fill="#ffffff" stroke="none" points="312.5,-91 312.5,-109 345.5,-109 345.5,-91 312.5,-91"/>
<polygon fill="none" stroke="black" points="312.5,-91 312.5,-109 345.5,-109 345.5,-91 312.5,-91"/>
<text text-anchor="start" x="325.5" y="-97.2" font-family="Helvetica,sans-Serif" font-size="11.00">8 &gt;</text>
</a>
</g>
</g>
<!-- core_contentartifact&#45;&gt;core_content -->
<g id="edge5" class="edge"><title>core_contentartifact:elipses:w&#45;&gt;core_content:elipses:e</title>
<path fill="none" stroke="black" d="M454.982,-65.1781C408.732,-73.0751 400.956,-118 346.5,-118"/>
<polygon fill="black" stroke="black" points="461.526,-64.6471 469.791,-67.5882 465.513,-64.3236 469.5,-64 469.5,-64 469.5,-64 465.513,-64.3236 469.209,-60.4118 461.526,-64.6471 461.526,-64.6471"/>
<ellipse fill="none" stroke="black" cx="458.337" cy="-64.9059" rx="3.2" ry="3.2"/>
</g>
<!-- core_publication -->
<g id="node7" class="node"><title>core_publication</title>
<g id="a_node7"><a xlink:href="../../tables/core_publication.html" xlink:title="core_publication" target="_top">
<polygon fill="#ffffff" stroke="none" points="425,-301 425,-499 682,-499 682,-301 425,-301"/>
<polygon fill="#f5f5f5" stroke="none" points="427.5,-475 427.5,-497 680.5,-497 680.5,-475 427.5,-475"/>
<polygon fill="none" stroke="black" points="427.5,-475 427.5,-497 680.5,-497 680.5,-475 427.5,-475"/>
<text text-anchor="start" x="432.5" y="-484.2" font-family="Helvetica,sans-Serif" font-weight="bold" font-size="11.00">core_publication</text>
<text text-anchor="start" x="641.5" y="-483.2" font-family="Helvetica,sans-Serif" font-size="11.00">[table]</text>
<polygon fill="none" stroke="black" points="427.5,-453 427.5,-475 575.5,-475 575.5,-453 427.5,-453"/>
<image xlink:href="../../images/primaryKeys.png" width="11px" height="12px" preserveAspectRatio="xMinYMin meet" x="432.5" y="-470"/>
<text text-anchor="start" x="447.5" y="-461.2" font-family="Helvetica,sans-Serif" font-size="11.00">pulp_id</text>
<polygon fill="none" stroke="black" points="575.5,-453 575.5,-475 680.5,-475 680.5,-453 575.5,-453"/>
<text text-anchor="start" x="578.5" y="-461.2" font-family="Helvetica,sans-Serif" font-size="11.00">uuid[2147483647]</text>
<polygon fill="none" stroke="black" points="427.5,-431 427.5,-453 575.5,-453 575.5,-431 427.5,-431"/>
<text text-anchor="start" x="447.5" y="-439.2" font-family="Helvetica,sans-Serif" font-size="11.00">pulp_created</text>
<polygon fill="none" stroke="black" points="575.5,-431 575.5,-453 680.5,-453 680.5,-431 575.5,-431"/>
<text text-anchor="start" x="578.5" y="-439.2" font-family="Helvetica,sans-Serif" font-size="11.00">timestamptz[35,6]</text>
<polygon fill="none" stroke="black" points="427.5,-409 427.5,-431 575.5,-431 575.5,-409 427.5,-409"/>
<text text-anchor="start" x="447.5" y="-417.2" font-family="Helvetica,sans-Serif" font-size="11.00">pulp_last_updated</text>
<polygon fill="none" stroke="black" points="575.5,-409 575.5,-431 680.5,-431 680.5,-409 575.5,-409"/>
<text text-anchor="start" x="578.5" y="-417.2" font-family="Helvetica,sans-Serif" font-size="11.00">timestamptz[35,6]</text>
<polygon fill="none" stroke="black" points="427.5,-387 427.5,-409 575.5,-409 575.5,-387 427.5,-387"/>
<text text-anchor="start" x="447.5" y="-395.2" font-family="Helvetica,sans-Serif" font-size="11.00">pulp_type</text>
<polygon fill="none" stroke="black" points="575.5,-387 575.5,-409 680.5,-409 680.5,-387 575.5,-387"/>
<text text-anchor="start" x="578.5" y="-395.2" font-family="Helvetica,sans-Serif" font-size="11.00">text[2147483647]</text>
<polygon fill="#ffffff" stroke="none" points="427.5,-365 427.5,-387 575.5,-387 575.5,-365 427.5,-365"/>
<polygon fill="none" stroke="black" points="427.5,-365 427.5,-387 575.5,-387 575.5,-365 427.5,-365"/>
<text text-anchor="start" x="447.5" y="-373.2" font-family="Helvetica,sans-Serif" font-size="11.00">complete</text>
<polygon fill="none" stroke="black" points="575.5,-365 575.5,-387 680.5,-387 680.5,-365 575.5,-365"/>
<text text-anchor="start" x="578.5" y="-373.2" font-family="Helvetica,sans-Serif" font-size="11.00">bool[1]</text>
<polygon fill="none" stroke="black" points="427.5,-343 427.5,-365 575.5,-365 575.5,-343 427.5,-343"/>
<text text-anchor="start" x="447.5" y="-351.2" font-family="Helvetica,sans-Serif" font-size="11.00">pass_through</text>
<polygon fill="none" stroke="black" points="575.5,-343 575.5,-365 680.5,-365 680.5,-343 575.5,-343"/>
<text text-anchor="start" x="578.5" y="-351.2" font-family="Helvetica,sans-Serif" font-size="11.00">bool[1]</text>
<polygon fill="#ffffff" stroke="none" points="427.5,-321 427.5,-343 575.5,-343 575.5,-321 427.5,-321"/>
<polygon fill="none" stroke="black" points="427.5,-321 427.5,-343 575.5,-343 575.5,-321 427.5,-321"/>
<image xlink:href="../../images/foreignKeys.png" width="11px" height="12px" preserveAspectRatio="xMinYMin meet" x="432.5" y="-338"/>
<text text-anchor="start" x="447.5" y="-329.2" font-family="Helvetica,sans-Serif" font-size="11.00">repository_version_id</text>
<polygon fill="none" stroke="black" points="575.5,-321 575.5,-343 680.5,-343 680.5,-321 575.5,-321"/>
<text text-anchor="start" x="578.5" y="-329.2" font-family="Helvetica,sans-Serif" font-size="11.00">uuid[2147483647]</text>
<polygon fill="#ffffff" stroke="none" points="427.5,-303 427.5,-321 491.5,-321 491.5,-303 427.5,-303"/>
<polygon fill="none" stroke="black" points="427.5,-303 427.5,-321 491.5,-321 491.5,-303 427.5,-303"/>
<text text-anchor="start" x="430.5" y="-309.2" font-family="Helvetica,sans-Serif" font-size="11.00">&lt; 1</text>
<polygon fill="#ffffff" stroke="none" points="491.5,-303 491.5,-321 575.5,-321 575.5,-303 491.5,-303"/>
<polygon fill="none" stroke="black" points="491.5,-303 491.5,-321 575.5,-321 575.5,-303 491.5,-303"/>
<text text-anchor="start" x="536.5" y="-309.2" font-family="Helvetica,sans-Serif" font-size="11.00">0 rows</text>
<polygon fill="#ffffff" stroke="none" points="575.5,-303 575.5,-321 680.5,-321 680.5,-303 575.5,-303"/>
<polygon fill="none" stroke="black" points="575.5,-303 575.5,-321 680.5,-321 680.5,-303 575.5,-303"/>
<text text-anchor="start" x="660.5" y="-309.2" font-family="Helvetica,sans-Serif" font-size="11.00">2 &gt;</text>
<polygon fill="none" stroke="black" stroke-width="2" points="426,-302 426,-498 681,-498 681,-302 426,-302"/>
</a>
</g>
</g>
<!-- core_publication&#45;&gt;core_repositoryversion -->
<g id="edge6" class="edge"><title>core_publication:repository_version_id:w&#45;&gt;core_repositoryversion:pulp_id:e</title>
<path fill="none" stroke="black" d="M411.875,-332C399.417,-332 391.833,-332 374.5,-332"/>
<polygon fill="black" stroke="black" points="418.5,-332 426.5,-335.6 422.5,-332 426.5,-332 426.5,-332 426.5,-332 422.5,-332 426.5,-328.4 418.5,-332 418.5,-332"/>
<ellipse fill="none" stroke="black" cx="415.3" cy="-332" rx="3.2" ry="3.2"/>
</g>
<!-- core_publishedartifact -->
<g id="node8" class="node"><title>core_publishedartifact</title>
<g id="a_node8"><a xlink:href="../../tables/core_publishedartifact.html" xlink:title="core_publishedartifact" target="_top">
<polygon fill="#ffffff" stroke="none" points="740.5,-120 740.5,-266 918.5,-266 918.5,-120 740.5,-120"/>
<polygon fill="#f5f5f5" stroke="none" points="740.5,-244 740.5,-266 918.5,-266 918.5,-244 740.5,-244"/>
<polygon fill="none" stroke="black" points="740.5,-244 740.5,-266 918.5,-266 918.5,-244 740.5,-244"/>
<text text-anchor="start" x="745.5" y="-253.2" font-family="Helvetica,sans-Serif" font-weight="bold" font-size="11.00">core_publishedartifact</text>
<text text-anchor="start" x="879.5" y="-252.2" font-family="Helvetica,sans-Serif" font-size="11.00">[table]</text>
<polygon fill="none" stroke="black" points="740.5,-222 740.5,-244 918.5,-244 918.5,-222 740.5,-222"/>
<image xlink:href="../../images/primaryKeys.png" width="11px" height="12px" preserveAspectRatio="xMinYMin meet" x="745.5" y="-239"/>
<text text-anchor="start" x="772.5" y="-230.2" font-family="Helvetica,sans-Serif" font-size="11.00">pulp_id</text>
<polygon fill="#ffffff" stroke="none" points="740.5,-200 740.5,-222 918.5,-222 918.5,-200 740.5,-200"/>
<polygon fill="none" stroke="black" points="740.5,-200 740.5,-222 918.5,-222 918.5,-200 740.5,-200"/>
<text text-anchor="start" x="772.5" y="-208.2" font-family="Helvetica,sans-Serif" font-size="11.00">relative_path</text>
<polygon fill="#ffffff" stroke="none" points="740.5,-178 740.5,-200 918.5,-200 918.5,-178 740.5,-178"/>
<polygon fill="none" stroke="black" points="740.5,-178 740.5,-200 918.5,-200 918.5,-178 740.5,-178"/>
<image xlink:href="../../images/foreignKeys.png" width="11px" height="12px" preserveAspectRatio="xMinYMin meet" x="745.5" y="-195"/>
<text text-anchor="start" x="772.5" y="-186.2" font-family="Helvetica,sans-Serif" font-size="11.00">content_artifact_id</text>
<polygon fill="#ffffff" stroke="none" points="740.5,-156 740.5,-178 918.5,-178 918.5,-156 740.5,-156"/>
<polygon fill="none" stroke="black" points="740.5,-156 740.5,-178 918.5,-178 918.5,-156 740.5,-156"/>
<image xlink:href="../../images/foreignKeys.png" width="11px" height="12px" preserveAspectRatio="xMinYMin meet" x="745.5" y="-173"/>
<text text-anchor="start" x="772.5" y="-164.2" font-family="Helvetica,sans-Serif" font-size="11.00">publication_id</text>
<polygon fill="none" stroke="black" points="740.5,-138 740.5,-156 918.5,-156 918.5,-138 740.5,-138"/>
<text text-anchor="start" x="743.5" y="-144.2" font-family="Helvetica,sans-Serif" font-size="11.00">...</text>
<polygon fill="#ffffff" stroke="none" points="740.5,-120 740.5,-138 813.5,-138 813.5,-120 740.5,-120"/>
<polygon fill="none" stroke="black" points="740.5,-120 740.5,-138 813.5,-138 813.5,-120 740.5,-120"/>
<text text-anchor="start" x="743.5" y="-126.2" font-family="Helvetica,sans-Serif" font-size="11.00">&lt; 2</text>
<polygon fill="#ffffff" stroke="none" points="813.5,-120 813.5,-138 880.5,-138 880.5,-120 813.5,-120"/>
<polygon fill="none" stroke="black" points="813.5,-120 813.5,-138 880.5,-138 880.5,-120 813.5,-120"/>
<text text-anchor="start" x="841.5" y="-126.2" font-family="Helvetica,sans-Serif" font-size="11.00">0 rows</text>
<polygon fill="#ffffff" stroke="none" points="880.5,-120 880.5,-138 918.5,-138 918.5,-120 880.5,-120"/>
<polygon fill="none" stroke="black" points="880.5,-120 880.5,-138 918.5,-138 918.5,-120 880.5,-120"/>
<text text-anchor="start" x="908.5" y="-126.2" font-family="Helvetica,sans-Serif" font-size="11.00"> &#160;</text>
</a>
</g>
</g>
<!-- core_publishedartifact&#45;&gt;core_contentartifact -->
<g id="edge7" class="edge"><title>core_publishedartifact:content_artifact_id:w&#45;&gt;core_contentartifact:elipses:e</title>
<path fill="none" stroke="black" d="M725.251,-186.144C703.547,-175.272 715.879,-135.726 693,-109 672.348,-84.8763 669.256,-64 637.5,-64"/>
<polygon fill="black" stroke="black" points="731.656,-187.428 738.793,-192.53 735.578,-188.214 739.5,-189 739.5,-189 739.5,-189 735.578,-188.214 740.207,-185.47 731.656,-187.428 731.656,-187.428"/>
<ellipse fill="none" stroke="black" cx="728.518" cy="-186.799" rx="3.2" ry="3.2"/>
</g>
<!-- core_publishedartifact&#45;&gt;core_publication -->
<g id="edge8" class="edge"><title>core_publishedartifact:publication_id:w&#45;&gt;core_publication:pulp_id.type:e</title>
<path fill="none" stroke="black" d="M725.963,-172.409C683.582,-212.662 743.362,-464 681.5,-464"/>
<polygon fill="black" stroke="black" points="732.071,-169.968 740.836,-170.343 735.785,-168.484 739.5,-167 739.5,-167 739.5,-167 735.785,-168.484 738.164,-163.657 732.071,-169.968 732.071,-169.968"/>
<ellipse fill="none" stroke="black" cx="729.099" cy="-171.155" rx="3.20001" ry="3.20001"/>
</g>
<!-- core_publishedmetadata -->
<g id="node9" class="node"><title>core_publishedmetadata</title>
<g id="a_node9"><a xlink:href="../../tables/core_publishedmetadata.html" xlink:title="core_publishedmetadata" target="_top">
<polygon fill="#ffffff" stroke="none" points="734,-350 734,-456 925,-456 925,-350 734,-350"/>
<polygon fill="#f5f5f5" stroke="none" points="734.5,-434 734.5,-456 925.5,-456 925.5,-434 734.5,-434"/>
<polygon fill="none" stroke="black" points="734.5,-434 734.5,-456 925.5,-456 925.5,-434 734.5,-434"/>
<text text-anchor="start" x="739.5" y="-443.2" font-family="Helvetica,sans-Serif" font-weight="bold" font-size="11.00">core_publishedmetadata</text>
<text text-anchor="start" x="886.5" y="-442.2" font-family="Helvetica,sans-Serif" font-size="11.00">[table]</text>
<polygon fill="#ffffff" stroke="none" points="734.5,-412 734.5,-434 925.5,-434 925.5,-412 734.5,-412"/>
<polygon fill="none" stroke="black" points="734.5,-412 734.5,-434 925.5,-434 925.5,-412 734.5,-412"/>
<text text-anchor="start" x="765.5" y="-420.2" font-family="Helvetica,sans-Serif" font-size="11.00">relative_path</text>
<polygon fill="#ffffff" stroke="none" points="734.5,-390 734.5,-412 925.5,-412 925.5,-390 734.5,-390"/>
<polygon fill="none" stroke="black" points="734.5,-390 734.5,-412 925.5,-412 925.5,-390 734.5,-390"/>
<image xlink:href="../../images/foreignKeys.png" width="11px" height="12px" preserveAspectRatio="xMinYMin meet" x="739.5" y="-407"/>
<text text-anchor="start" x="765.5" y="-398.2" font-family="Helvetica,sans-Serif" font-size="11.00">publication_id</text>
<polygon fill="none" stroke="black" points="734.5,-368 734.5,-390 925.5,-390 925.5,-368 734.5,-368"/>
<image xlink:href="../../images/primaryKeys.png" width="11px" height="12px" preserveAspectRatio="xMinYMin meet" x="739.5" y="-385"/>
<text text-anchor="start" x="765.5" y="-376.2" font-family="Helvetica,sans-Serif" font-size="11.00">content_ptr_id</text>
<polygon fill="#ffffff" stroke="none" points="734.5,-350 734.5,-368 813.5,-368 813.5,-350 734.5,-350"/>
<polygon fill="none" stroke="black" points="734.5,-350 734.5,-368 813.5,-368 813.5,-350 734.5,-350"/>
<text text-anchor="start" x="737.5" y="-356.2" font-family="Helvetica,sans-Serif" font-size="11.00">&lt; 2</text>
<polygon fill="#ffffff" stroke="none" points="813.5,-350 813.5,-368 883.5,-368 883.5,-350 813.5,-350"/>
<polygon fill="none" stroke="black" points="813.5,-350 813.5,-368 883.5,-368 883.5,-350 813.5,-350"/>
<text text-anchor="start" x="844.5" y="-356.2" font-family="Helvetica,sans-Serif" font-size="11.00">0 rows</text>
<polygon fill="#ffffff" stroke="none" points="883.5,-350 883.5,-368 925.5,-368 925.5,-350 883.5,-350"/>
<polygon fill="none" stroke="black" points="883.5,-350 883.5,-368 925.5,-368 925.5,-350 883.5,-350"/>
<text text-anchor="start" x="915.5" y="-356.2" font-family="Helvetica,sans-Serif" font-size="11.00"> &#160;</text>
</a>
</g>
</g>
<!-- core_publishedmetadata&#45;&gt;core_content -->
<g id="edge9" class="edge"><title>core_publishedmetadata:content_ptr_id:w&#45;&gt;core_content:elipses:e</title>
<path fill="none" stroke="black" d="M723.398,-376.029C685.539,-350.428 731.538,-167.173 693,-133 635.334,-81.8651 423.572,-118 346.5,-118"/>
<polygon fill="black" stroke="black" points="733.861,-374.937 731.604,-382.612 730.069,-382.16 732.326,-374.485 733.861,-374.937"/>
<polyline fill="none" stroke="black" points="733.5,-379 729.662,-377.871 "/>
<ellipse fill="none" stroke="black" cx="726.592" cy="-376.969" rx="3.20001" ry="3.20001"/>
</g>
<!-- core_publishedmetadata&#45;&gt;core_publication -->
<g id="edge10" class="edge"><title>core_publishedmetadata:publication_id:w&#45;&gt;core_publication:pulp_id.type:e</title>
<path fill="none" stroke="black" d="M719.724,-405.531C702.425,-419.976 711.85,-464 681.5,-464"/>
<polygon fill="black" stroke="black" points="725.9,-403.499 734.625,-404.42 729.7,-402.25 733.5,-401 733.5,-401 733.5,-401 729.7,-402.25 732.375,-397.58 725.9,-403.499 725.9,-403.499"/>
<ellipse fill="none" stroke="black" cx="722.861" cy="-404.499" rx="3.20001" ry="3.20001"/>
</g>
<!-- core_repositorycontent -->
<g id="node10" class="node"><title>core_repositorycontent</title>
<g id="a_node10"><a xlink:href="../../tables/core_repositorycontent.html" xlink:title="core_repositorycontent" target="_top">
<polygon fill="#ffffff" stroke="none" points="462.5,-143 462.5,-201 644.5,-201 644.5,-143 462.5,-143"/>
<polygon fill="#f5f5f5" stroke="none" points="462.5,-179 462.5,-201 644.5,-201 644.5,-179 462.5,-179"/>
<polygon fill="none" stroke="black" points="462.5,-179 462.5,-201 644.5,-201 644.5,-179 462.5,-179"/>
<text text-anchor="start" x="467.5" y="-188.2" font-family="Helvetica,sans-Serif" font-weight="bold" font-size="11.00">core_repositorycontent</text>
<text text-anchor="start" x="605.5" y="-187.2" font-family="Helvetica,sans-Serif" font-size="11.00">[table]</text>
<polygon fill="none" stroke="black" points="462.5,-161 462.5,-179 644.5,-179 644.5,-161 462.5,-161"/>
<text text-anchor="start" x="465.5" y="-167.2" font-family="Helvetica,sans-Serif" font-size="11.00">...</text>
<polygon fill="#ffffff" stroke="none" points="462.5,-143 462.5,-161 530.5,-161 530.5,-143 462.5,-143"/>
<polygon fill="none" stroke="black" points="462.5,-143 462.5,-161 530.5,-161 530.5,-143 462.5,-143"/>
<text text-anchor="start" x="465.5" y="-149.2" font-family="Helvetica,sans-Serif" font-size="11.00">&lt; 4</text>
<polygon fill="#ffffff" stroke="none" points="530.5,-143 530.5,-161 608.5,-161 608.5,-143 530.5,-143"/>
<polygon fill="none" stroke="black" points="530.5,-143 530.5,-161 608.5,-161 608.5,-143 530.5,-143"/>
<text text-anchor="start" x="556.5" y="-149.2" font-family="Helvetica,sans-Serif" font-size="11.00">786 rows</text>
<polygon fill="#ffffff" stroke="none" points="608.5,-143 608.5,-161 644.5,-161 644.5,-143 608.5,-143"/>
<polygon fill="none" stroke="black" points="608.5,-143 608.5,-161 644.5,-161 644.5,-143 608.5,-143"/>
<text text-anchor="start" x="634.5" y="-149.2" font-family="Helvetica,sans-Serif" font-size="11.00"> &#160;</text>
</a>
</g>
</g>
<!-- core_repositorycontent&#45;&gt;core_repository -->
<g id="edge12" class="edge"><title>core_repositorycontent:elipses:w&#45;&gt;core_repository:elipses:e</title>
<path fill="none" stroke="black" d="M447.068,-169.695C377.23,-167.132 229.564,-150.202 186,-187 127.074,-236.775 223.635,-356 146.5,-356"/>
<polygon fill="black" stroke="black" points="453.502,-169.831 461.424,-173.599 457.501,-169.915 461.5,-170 461.5,-170 461.5,-170 457.501,-169.915 461.576,-166.401 453.502,-169.831 453.502,-169.831"/>
<ellipse fill="none" stroke="black" cx="450.303" cy="-169.763" rx="3.2" ry="3.2"/>
</g>
<!-- core_repositorycontent&#45;&gt;core_repositoryversion -->
<g id="edge13" class="edge"><title>core_repositorycontent:elipses:w&#45;&gt;core_repositoryversion:pulp_id:e</title>
<path fill="none" stroke="black" d="M447.041,-169.209C431.286,-171.711 426.351,-187.246 414,-206 383.117,-252.893 430.648,-326 374.5,-332"/>
<polygon fill="black" stroke="black" points="453.512,-169.563 461.303,-173.595 457.506,-169.782 461.5,-170 461.5,-170 461.5,-170 457.506,-169.782 461.697,-166.405 453.512,-169.563 453.512,-169.563"/>
<ellipse fill="none" stroke="black" cx="450.317" cy="-169.389" rx="3.2" ry="3.2"/>
</g>
<!-- core_repositorycontent&#45;&gt;core_repositoryversion -->
<g id="edge14" class="edge"><title>core_repositorycontent:elipses:w&#45;&gt;core_repositoryversion:pulp_id:e</title>
<path fill="none" stroke="black" d="M447.98,-175.105C431.477,-184.103 426.593,-199.878 414,-219 383.117,-265.893 430.648,-339 374.5,-332"/>
<polygon fill="black" stroke="black" points="454.016,-172.826 462.772,-173.368 457.758,-171.413 461.5,-170 461.5,-170 461.5,-170 457.758,-171.413 460.228,-166.632 454.016,-172.826 454.016,-172.826"/>
<ellipse fill="none" stroke="black" cx="451.022" cy="-173.956" rx="3.20001" ry="3.20001"/>
</g>
<!-- core_repositorycontent&#45;&gt;core_content -->
<g id="edge11" class="edge"><title>core_repositorycontent:elipses:w&#45;&gt;core_content:elipses:e</title>
<path fill="none" stroke="black" d="M447.041,-168.715C404.411,-160.707 397.335,-118 346.5,-118"/>
<polygon fill="black" stroke="black" points="453.531,-169.292 461.181,-173.586 457.516,-169.646 461.5,-170 461.5,-170 461.5,-170 457.516,-169.646 461.819,-166.414 453.531,-169.292 453.531,-169.292"/>
<ellipse fill="none" stroke="black" cx="450.344" cy="-169.008" rx="3.2" ry="3.2"/>
</g>
<!-- core_repositoryversioncontentdetails -->
<g id="node11" class="node"><title>core_repositoryversioncontentdetails</title>
<g id="a_node11"><a xlink:href="../../tables/core_repositoryversioncontentdetails.html" xlink:title="core_repositoryversioncontentdetails" target="_top">
<polygon fill="#ffffff" stroke="none" points="422,-222 422,-280 685,-280 685,-222 422,-222"/>
<polygon fill="#f5f5f5" stroke="none" points="422.5,-258 422.5,-280 685.5,-280 685.5,-258 422.5,-258"/>
<polygon fill="none" stroke="black" points="422.5,-258 422.5,-280 685.5,-280 685.5,-258 422.5,-258"/>
<text text-anchor="start" x="427.5" y="-267.2" font-family="Helvetica,sans-Serif" font-weight="bold" font-size="11.00">core_repositoryversioncontentdetails</text>
<text text-anchor="start" x="646.5" y="-266.2" font-family="Helvetica,sans-Serif" font-size="11.00">[table]</text>
<polygon fill="none" stroke="black" points="422.5,-240 422.5,-258 685.5,-258 685.5,-240 422.5,-240"/>
<text text-anchor="start" x="425.5" y="-246.2" font-family="Helvetica,sans-Serif" font-size="11.00">...</text>
<polygon fill="#ffffff" stroke="none" points="422.5,-222 422.5,-240 531.5,-240 531.5,-222 422.5,-222"/>
<polygon fill="none" stroke="black" points="422.5,-222 422.5,-240 531.5,-240 531.5,-222 422.5,-222"/>
<text text-anchor="start" x="425.5" y="-228.2" font-family="Helvetica,sans-Serif" font-size="11.00">&lt; 1</text>
<polygon fill="#ffffff" stroke="none" points="531.5,-222 531.5,-240 629.5,-240 629.5,-222 531.5,-222"/>
<polygon fill="none" stroke="black" points="531.5,-222 531.5,-240 629.5,-240 629.5,-222 531.5,-222"/>
<text text-anchor="start" x="577.5" y="-228.2" font-family="Helvetica,sans-Serif" font-size="11.00">281 rows</text>
<polygon fill="#ffffff" stroke="none" points="629.5,-222 629.5,-240 685.5,-240 685.5,-222 629.5,-222"/>
<polygon fill="none" stroke="black" points="629.5,-222 629.5,-240 685.5,-240 685.5,-222 629.5,-222"/>
<text text-anchor="start" x="675.5" y="-228.2" font-family="Helvetica,sans-Serif" font-size="11.00"> &#160;</text>
</a>
</g>
</g>
<!-- core_repositoryversioncontentdetails&#45;&gt;core_repositoryversion -->
<g id="edge16" class="edge"><title>core_repositoryversioncontentdetails:elipses:w&#45;&gt;core_repositoryversion:pulp_id:e</title>
<path fill="none" stroke="black" d="M407.659,-253.7C388.355,-271.258 410.766,-332 374.5,-332"/>
<polygon fill="black" stroke="black" points="413.925,-251.573 422.658,-252.409 417.712,-250.286 421.5,-249 421.5,-249 421.5,-249 417.712,-250.286 420.342,-245.591 413.925,-251.573 413.925,-251.573"/>
<ellipse fill="none" stroke="black" cx="410.895" cy="-252.602" rx="3.20001" ry="3.20001"/>
</g>
</g>
</svg>
