<?xml version="1.0" encoding="UTF-8" standalone="no"?>
<!DOCTYPE svg PUBLIC "-//W3C//DTD SVG 1.1//EN"
 "http://www.w3.org/Graphics/SVG/1.1/DTD/svg11.dtd">
<!-- Generated by graphviz version 2.38.0 (20140413.2041)
 -->
<!-- Title: twoDegreesRelationshipsDiagram Pages: 1 -->
<svg width="1061pt" height="781pt"
 viewBox="0.00 0.00 1061.00 781.00" xmlns="http://www.w3.org/2000/svg" xmlns:xlink="http://www.w3.org/1999/xlink">
<g id="graph0" class="graph" transform="scale(1 1) rotate(0) translate(4 777)">
<title>twoDegreesRelationshipsDiagram</title>
<polygon fill="#ffffff" stroke="none" points="-4,4 -4,-777 1057,-777 1057,4 -4,4"/>
<text text-anchor="middle" x="74.5" y="-7.2" font-family="Helvetica,sans-Serif" font-size="11.00">Generated by SchemaSpy</text>
<!-- ansible_collectionimport -->
<g id="node1" class="node"><title>ansible_collectionimport</title>
<g id="a_node1"><a xlink:href="../../tables/ansible_collectionimport.html" xlink:title="ansible_collectionimport" target="_top">
<polygon fill="#ffffff" stroke="none" points="396.5,-474 396.5,-532 586.5,-532 586.5,-474 396.5,-474"/>
<polygon fill="#f5f5f5" stroke="none" points="396.5,-510 396.5,-532 586.5,-532 586.5,-510 396.5,-510"/>
<polygon fill="none" stroke="black" points="396.5,-510 396.5,-532 586.5,-532 586.5,-510 396.5,-510"/>
<text text-anchor="start" x="401.5" y="-519.2" font-family="Helvetica,sans-Serif" font-weight="bold" font-size="11.00">ansible_collectionimport</text>
<text text-anchor="start" x="547.5" y="-518.2" font-family="Helvetica,sans-Serif" font-size="11.00">[table]</text>
<polygon fill="none" stroke="black" points="396.5,-492 396.5,-510 586.5,-510 586.5,-492 396.5,-492"/>
<text text-anchor="start" x="399.5" y="-498.2" font-family="Helvetica,sans-Serif" font-size="11.00">...</text>
<polygon fill="#ffffff" stroke="none" points="396.5,-474 396.5,-492 468.5,-492 468.5,-474 396.5,-474"/>
<polygon fill="none" stroke="black" points="396.5,-474 396.5,-492 468.5,-492 468.5,-474 396.5,-474"/>
<text text-anchor="start" x="399.5" y="-480.2" font-family="Helvetica,sans-Serif" font-size="11.00">&lt; 1</text>
<polygon fill="#ffffff" stroke="none" points="468.5,-474 468.5,-492 548.5,-492 548.5,-474 468.5,-474"/>
<polygon fill="none" stroke="black" points="468.5,-474 468.5,-492 548.5,-492 548.5,-474 468.5,-474"/>
<text text-anchor="start" x="496.5" y="-480.2" font-family="Helvetica,sans-Serif" font-size="11.00">111 rows</text>
<polygon fill="#ffffff" stroke="none" points="548.5,-474 548.5,-492 586.5,-492 586.5,-474 548.5,-474"/>
<polygon fill="none" stroke="black" points="548.5,-474 548.5,-492 586.5,-492 586.5,-474 548.5,-474"/>
<text text-anchor="start" x="576.5" y="-480.2" font-family="Helvetica,sans-Serif" font-size="11.00"> &#160;</text>
</a>
</g>
</g>
<!-- core_task -->
<g id="node2" class="node"><title>core_task</title>
<g id="a_node2"><a xlink:href="../../tables/core_task.html" xlink:title="core_task" target="_top">
<polygon fill="#ffffff" stroke="none" points="192,-388 192,-534 321,-534 321,-388 192,-388"/>
<polygon fill="#f5f5f5" stroke="none" points="192.5,-512 192.5,-534 321.5,-534 321.5,-512 192.5,-512"/>
<polygon fill="none" stroke="black" points="192.5,-512 192.5,-534 321.5,-534 321.5,-512 192.5,-512"/>
<text text-anchor="start" x="197.5" y="-521.2" font-family="Helvetica,sans-Serif" font-weight="bold" font-size="11.00">core_task</text>
<text text-anchor="start" x="282.5" y="-520.2" font-family="Helvetica,sans-Serif" font-size="11.00">[table]</text>
<polygon fill="none" stroke="black" points="192.5,-490 192.5,-512 321.5,-512 321.5,-490 192.5,-490"/>
<image xlink:href="../../images/primaryKeys.png" width="11px" height="12px" preserveAspectRatio="xMinYMin meet" x="197.5" y="-507"/>
<text text-anchor="start" x="212.5" y="-498.2" font-family="Helvetica,sans-Serif" font-size="11.00">pulp_id</text>
<polygon fill="#ffffff" stroke="none" points="192.5,-468 192.5,-490 321.5,-490 321.5,-468 192.5,-468"/>
<polygon fill="none" stroke="black" points="192.5,-468 192.5,-490 321.5,-490 321.5,-468 192.5,-468"/>
<image xlink:href="../../images/foreignKeys.png" width="11px" height="12px" preserveAspectRatio="xMinYMin meet" x="197.5" y="-485"/>
<text text-anchor="start" x="212.5" y="-476.2" font-family="Helvetica,sans-Serif" font-size="11.00">worker_id</text>
<polygon fill="#ffffff" stroke="none" points="192.5,-446 192.5,-468 321.5,-468 321.5,-446 192.5,-446"/>
<polygon fill="none" stroke="black" points="192.5,-446 192.5,-468 321.5,-468 321.5,-446 192.5,-446"/>
<image xlink:href="../../images/foreignKeys.png" width="11px" height="12px" preserveAspectRatio="xMinYMin meet" x="197.5" y="-463"/>
<text text-anchor="start" x="212.5" y="-454.2" font-family="Helvetica,sans-Serif" font-size="11.00">parent_task_id</text>
<polygon fill="#ffffff" stroke="none" points="192.5,-424 192.5,-446 321.5,-446 321.5,-424 192.5,-424"/>
<polygon fill="none" stroke="black" points="192.5,-424 192.5,-446 321.5,-446 321.5,-424 192.5,-424"/>
<image xlink:href="../../images/foreignKeys.png" width="11px" height="12px" preserveAspectRatio="xMinYMin meet" x="197.5" y="-441"/>
<text text-anchor="start" x="212.5" y="-432.2" font-family="Helvetica,sans-Serif" font-size="11.00">task_group_id</text>
<polygon fill="none" stroke="black" points="192.5,-406 192.5,-424 321.5,-424 321.5,-406 192.5,-406"/>
<text text-anchor="start" x="195.5" y="-412.2" font-family="Helvetica,sans-Serif" font-size="11.00">...</text>
<polygon fill="#ffffff" stroke="none" points="192.5,-388 192.5,-406 224.5,-406 224.5,-388 192.5,-388"/>
<polygon fill="none" stroke="black" points="192.5,-388 192.5,-406 224.5,-406 224.5,-388 192.5,-388"/>
<text text-anchor="start" x="195.5" y="-394.2" font-family="Helvetica,sans-Serif" font-size="11.00">&lt; 3</text>
<polygon fill="#ffffff" stroke="none" points="224.5,-388 224.5,-406 293.5,-406 293.5,-388 224.5,-388"/>
<polygon fill="none" stroke="black" points="224.5,-388 224.5,-406 293.5,-406 293.5,-388 224.5,-388"/>
<text text-anchor="start" x="231.5" y="-394.2" font-family="Helvetica,sans-Serif" font-size="11.00">1,828 rows</text>
<polygon fill="#ffffff" stroke="none" points="293.5,-388 293.5,-406 321.5,-406 321.5,-388 293.5,-388"/>
<polygon fill="none" stroke="black" points="293.5,-388 293.5,-406 321.5,-406 321.5,-388 293.5,-388"/>
<text text-anchor="start" x="301.5" y="-394.2" font-family="Helvetica,sans-Serif" font-size="11.00">8 &gt;</text>
</a>
</g>
</g>
<!-- ansible_collectionimport&#45;&gt;core_task -->
<g id="edge1" class="edge"><title>ansible_collectionimport:elipses:w&#45;&gt;core_task:pulp_id:e</title>
<path fill="none" stroke="black" d="M385.018,-501C360.82,-501 351.142,-501 322.5,-501"/>
<polygon fill="black" stroke="black" points="394.7,-497 394.7,-505 393.1,-505 393.1,-497 394.7,-497"/>
<polyline fill="none" stroke="black" points="395.5,-501 391.5,-501 "/>
<ellipse fill="none" stroke="black" cx="388.3" cy="-501" rx="3.2" ry="3.2"/>
</g>
<!-- core_taskgroup -->
<g id="node12" class="node"><title>core_taskgroup</title>
<g id="a_node12"><a xlink:href="../../tables/core_taskgroup.html" xlink:title="core_taskgroup" target="_top">
<polygon fill="#ffffff" stroke="none" points="8,-391 8,-449 143,-449 143,-391 8,-391"/>
<polygon fill="#f5f5f5" stroke="none" points="8.5,-427 8.5,-449 143.5,-449 143.5,-427 8.5,-427"/>
<polygon fill="none" stroke="black" points="8.5,-427 8.5,-449 143.5,-449 143.5,-427 8.5,-427"/>
<text text-anchor="start" x="13.5" y="-436.2" font-family="Helvetica,sans-Serif" font-weight="bold" font-size="11.00">core_taskgroup</text>
<text text-anchor="start" x="104.5" y="-435.2" font-family="Helvetica,sans-Serif" font-size="11.00">[table]</text>
<polygon fill="none" stroke="black" points="8.5,-409 8.5,-427 143.5,-427 143.5,-409 8.5,-409"/>
<text text-anchor="start" x="11.5" y="-415.2" font-family="Helvetica,sans-Serif" font-size="11.00">...</text>
<polygon fill="#ffffff" stroke="none" points="8.5,-391 8.5,-409 46.5,-409 46.5,-391 8.5,-391"/>
<polygon fill="none" stroke="black" points="8.5,-391 8.5,-409 46.5,-409 46.5,-391 8.5,-391"/>
<text text-anchor="start" x="11.5" y="-397.2" font-family="Helvetica,sans-Serif" font-size="11.00"> &#160;</text>
<polygon fill="#ffffff" stroke="none" points="46.5,-391 46.5,-409 107.5,-409 107.5,-391 46.5,-391"/>
<polygon fill="none" stroke="black" points="46.5,-391 46.5,-409 107.5,-409 107.5,-391 46.5,-391"/>
<text text-anchor="start" x="61.5" y="-397.2" font-family="Helvetica,sans-Serif" font-size="11.00">26 rows</text>
<polygon fill="#ffffff" stroke="none" points="107.5,-391 107.5,-409 143.5,-409 143.5,-391 107.5,-391"/>
<polygon fill="none" stroke="black" points="107.5,-391 107.5,-409 143.5,-409 143.5,-391 107.5,-391"/>
<text text-anchor="start" x="123.5" y="-397.2" font-family="Helvetica,sans-Serif" font-size="11.00">2 &gt;</text>
</a>
</g>
</g>
<!-- core_task&#45;&gt;core_taskgroup -->
<g id="edge13" class="edge"><title>core_task:task_group_id:w&#45;&gt;core_taskgroup:elipses:e</title>
<path fill="none" stroke="black" d="M177.22,-432.039C166.534,-427.168 160.813,-418 144.5,-418"/>
<polygon fill="black" stroke="black" points="183.667,-433.376 190.769,-438.525 187.583,-434.188 191.5,-435 191.5,-435 191.5,-435 187.583,-434.188 192.231,-431.475 183.667,-433.376 183.667,-433.376"/>
<ellipse fill="none" stroke="black" cx="180.533" cy="-432.726" rx="3.2" ry="3.2"/>
</g>
<!-- core_worker -->
<g id="node13" class="node"><title>core_worker</title>
<g id="a_node13"><a xlink:href="../../tables/core_worker.html" xlink:title="core_worker" target="_top">
<polygon fill="#ffffff" stroke="none" points="16.5,-470 16.5,-528 134.5,-528 134.5,-470 16.5,-470"/>
<polygon fill="#f5f5f5" stroke="none" points="16.5,-506 16.5,-528 134.5,-528 134.5,-506 16.5,-506"/>
<polygon fill="none" stroke="black" points="16.5,-506 16.5,-528 134.5,-528 134.5,-506 16.5,-506"/>
<text text-anchor="start" x="21.5" y="-515.2" font-family="Helvetica,sans-Serif" font-weight="bold" font-size="11.00">core_worker</text>
<text text-anchor="start" x="95.5" y="-514.2" font-family="Helvetica,sans-Serif" font-size="11.00">[table]</text>
<polygon fill="none" stroke="black" points="16.5,-488 16.5,-506 134.5,-506 134.5,-488 16.5,-488"/>
<text text-anchor="start" x="19.5" y="-494.2" font-family="Helvetica,sans-Serif" font-size="11.00">...</text>
<polygon fill="#ffffff" stroke="none" points="16.5,-470 16.5,-488 42.5,-488 42.5,-470 16.5,-470"/>
<polygon fill="none" stroke="black" points="16.5,-470 16.5,-488 42.5,-488 42.5,-470 16.5,-470"/>
<text text-anchor="start" x="19.5" y="-476.2" font-family="Helvetica,sans-Serif" font-size="11.00"> &#160;</text>
<polygon fill="#ffffff" stroke="none" points="42.5,-470 42.5,-488 104.5,-488 104.5,-470 42.5,-470"/>
<polygon fill="none" stroke="black" points="42.5,-470 42.5,-488 104.5,-488 104.5,-470 42.5,-470"/>
<text text-anchor="start" x="52.5" y="-476.2" font-family="Helvetica,sans-Serif" font-size="11.00">148 rows</text>
<polygon fill="#ffffff" stroke="none" points="104.5,-470 104.5,-488 134.5,-488 134.5,-470 104.5,-470"/>
<polygon fill="none" stroke="black" points="104.5,-470 104.5,-488 134.5,-488 134.5,-470 104.5,-470"/>
<text text-anchor="start" x="114.5" y="-476.2" font-family="Helvetica,sans-Serif" font-size="11.00">2 &gt;</text>
</a>
</g>
</g>
<!-- core_task&#45;&gt;core_worker -->
<g id="edge14" class="edge"><title>core_task:worker_id:w&#45;&gt;core_worker:elipses:e</title>
<path fill="none" stroke="black" d="M177.094,-481.207C162.659,-486.014 155.924,-497 135.5,-497"/>
<polygon fill="black" stroke="black" points="183.592,-480.212 192.045,-482.558 187.546,-479.606 191.5,-479 191.5,-479 191.5,-479 187.546,-479.606 190.955,-475.442 183.592,-480.212 183.592,-480.212"/>
<ellipse fill="none" stroke="black" cx="180.429" cy="-480.696" rx="3.2" ry="3.2"/>
</g>
<!-- core_createdresource -->
<g id="node3" class="node"><title>core_createdresource</title>
<g id="a_node3"><a xlink:href="../../tables/core_createdresource.html" xlink:title="core_createdresource" target="_top">
<polygon fill="#ffffff" stroke="none" points="666,-400 666,-458 838,-458 838,-400 666,-400"/>
<polygon fill="#f5f5f5" stroke="none" points="666,-436 666,-458 838,-458 838,-436 666,-436"/>
<polygon fill="none" stroke="black" points="666,-436 666,-458 838,-458 838,-436 666,-436"/>
<text text-anchor="start" x="671" y="-445.2" font-family="Helvetica,sans-Serif" font-weight="bold" font-size="11.00">core_createdresource</text>
<text text-anchor="start" x="799" y="-444.2" font-family="Helvetica,sans-Serif" font-size="11.00">[table]</text>
<polygon fill="none" stroke="black" points="666,-418 666,-436 838,-436 838,-418 666,-418"/>
<text text-anchor="start" x="669" y="-424.2" font-family="Helvetica,sans-Serif" font-size="11.00">...</text>
<polygon fill="#ffffff" stroke="none" points="666,-400 666,-418 729,-418 729,-400 666,-400"/>
<polygon fill="none" stroke="black" points="666,-400 666,-418 729,-418 729,-400 666,-400"/>
<text text-anchor="start" x="669" y="-406.2" font-family="Helvetica,sans-Serif" font-size="11.00">&lt; 2</text>
<polygon fill="#ffffff" stroke="none" points="729,-400 729,-418 804,-418 804,-400 729,-400"/>
<polygon fill="none" stroke="black" points="729,-400 729,-418 804,-418 804,-400 729,-400"/>
<text text-anchor="start" x="752" y="-406.2" font-family="Helvetica,sans-Serif" font-size="11.00">365 rows</text>
<polygon fill="#ffffff" stroke="none" points="804,-400 804,-418 838,-418 838,-400 804,-400"/>
<polygon fill="none" stroke="black" points="804,-400 804,-418 838,-418 838,-400 804,-400"/>
<text text-anchor="start" x="828" y="-406.2" font-family="Helvetica,sans-Serif" font-size="11.00"> &#160;</text>
</a>
</g>
</g>
<!-- core_createdresource&#45;&gt;core_task -->
<g id="edge3" class="edge"><title>core_createdresource:elipses:w&#45;&gt;core_task:pulp_id:e</title>
<path fill="none" stroke="black" d="M650.548,-428.344C641.121,-430.282 634.871,-433.864 621,-436 506.614,-453.618 466.959,-414.232 362,-463 339.908,-473.265 346.86,-501 322.5,-501"/>
<polygon fill="black" stroke="black" points="657.034,-427.741 665.333,-430.585 661.017,-427.37 665,-427 665,-427 665,-427 661.017,-427.37 664.667,-423.415 657.034,-427.741 657.034,-427.741"/>
<ellipse fill="none" stroke="black" cx="653.848" cy="-428.037" rx="3.2" ry="3.2"/>
</g>
<!-- django_content_type -->
<g id="node4" class="node"><title>django_content_type</title>
<g id="a_node4"><a xlink:href="../../tables/django_content_type.html" xlink:title="django_content_type" target="_top">
<polygon fill="#ffffff" stroke="none" points="408,-289 408,-347 575,-347 575,-289 408,-289"/>
<polygon fill="#f5f5f5" stroke="none" points="408.5,-325 408.5,-347 575.5,-347 575.5,-325 408.5,-325"/>
<polygon fill="none" stroke="black" points="408.5,-325 408.5,-347 575.5,-347 575.5,-325 408.5,-325"/>
<text text-anchor="start" x="413.5" y="-334.2" font-family="Helvetica,sans-Serif" font-weight="bold" font-size="11.00">django_content_type</text>
<text text-anchor="start" x="536.5" y="-333.2" font-family="Helvetica,sans-Serif" font-size="11.00">[table]</text>
<polygon fill="none" stroke="black" points="408.5,-307 408.5,-325 575.5,-325 575.5,-307 408.5,-307"/>
<text text-anchor="start" x="411.5" y="-313.2" font-family="Helvetica,sans-Serif" font-size="11.00">...</text>
<polygon fill="#ffffff" stroke="none" points="408.5,-289 408.5,-307 462.5,-307 462.5,-289 408.5,-289"/>
<polygon fill="none" stroke="black" points="408.5,-289 408.5,-307 462.5,-307 462.5,-289 408.5,-289"/>
<text text-anchor="start" x="411.5" y="-295.2" font-family="Helvetica,sans-Serif" font-size="11.00"> &#160;</text>
<polygon fill="#ffffff" stroke="none" points="462.5,-289 462.5,-307 531.5,-307 531.5,-289 462.5,-289"/>
<polygon fill="none" stroke="black" points="462.5,-289 462.5,-307 531.5,-307 531.5,-289 462.5,-289"/>
<text text-anchor="start" x="485.5" y="-295.2" font-family="Helvetica,sans-Serif" font-size="11.00">79 rows</text>
<polygon fill="#ffffff" stroke="none" points="531.5,-289 531.5,-307 575.5,-307 575.5,-289 531.5,-289"/>
<polygon fill="none" stroke="black" points="531.5,-289 531.5,-307 575.5,-307 575.5,-289 531.5,-289"/>
<text text-anchor="start" x="555.5" y="-295.2" font-family="Helvetica,sans-Serif" font-size="11.00">6 &gt;</text>
</a>
</g>
</g>
<!-- core_createdresource&#45;&gt;django_content_type -->
<g id="edge2" class="edge"><title>core_createdresource:elipses:w&#45;&gt;django_content_type:elipses:e</title>
<path fill="none" stroke="black" d="M650.783,-423.873C632.513,-413.665 640.642,-380.618 621,-357 603.804,-336.323 603.393,-316 576.5,-316"/>
<polygon fill="black" stroke="black" points="657.187,-425.281 664.227,-430.516 661.093,-426.141 665,-427 665,-427 665,-427 661.093,-426.141 665.773,-423.484 657.187,-425.281 657.187,-425.281"/>
<ellipse fill="none" stroke="black" cx="654.061" cy="-424.594" rx="3.2" ry="3.2"/>
</g>
<!-- core_export -->
<g id="node5" class="node"><title>core_export</title>
<g id="a_node5"><a xlink:href="../../tables/core_export.html" xlink:title="core_export" target="_top">
<polygon fill="#ffffff" stroke="none" points="370,-92 370,-268 613,-268 613,-92 370,-92"/>
<polygon fill="#f5f5f5" stroke="none" points="372.5,-244 372.5,-266 611.5,-266 611.5,-244 372.5,-244"/>
<polygon fill="none" stroke="black" points="372.5,-244 372.5,-266 611.5,-266 611.5,-244 372.5,-244"/>
<text text-anchor="start" x="377.5" y="-253.2" font-family="Helvetica,sans-Serif" font-weight="bold" font-size="11.00">core_export</text>
<text text-anchor="start" x="572.5" y="-252.2" font-family="Helvetica,sans-Serif" font-size="11.00">[table]</text>
<polygon fill="none" stroke="black" points="372.5,-222 372.5,-244 501.5,-244 501.5,-222 372.5,-222"/>
<image xlink:href="../../images/primaryKeys.png" width="11px" height="12px" preserveAspectRatio="xMinYMin meet" x="377.5" y="-239"/>
<text text-anchor="start" x="392.5" y="-230.2" font-family="Helvetica,sans-Serif" font-size="11.00">pulp_id</text>
<polygon fill="none" stroke="black" points="501.5,-222 501.5,-244 611.5,-244 611.5,-222 501.5,-222"/>
<text text-anchor="start" x="504.5" y="-230.2" font-family="Helvetica,sans-Serif" font-size="11.00">uuid[2147483647]</text>
<polygon fill="none" stroke="black" points="372.5,-200 372.5,-222 501.5,-222 501.5,-200 372.5,-200"/>
<text text-anchor="start" x="392.5" y="-208.2" font-family="Helvetica,sans-Serif" font-size="11.00">pulp_created</text>
<polygon fill="none" stroke="black" points="501.5,-200 501.5,-222 611.5,-222 611.5,-200 501.5,-200"/>
<text text-anchor="start" x="504.5" y="-208.2" font-family="Helvetica,sans-Serif" font-size="11.00">timestamptz[35,6]</text>
<polygon fill="none" stroke="black" points="372.5,-178 372.5,-200 501.5,-200 501.5,-178 372.5,-178"/>
<text text-anchor="start" x="392.5" y="-186.2" font-family="Helvetica,sans-Serif" font-size="11.00">pulp_last_updated</text>
<polygon fill="none" stroke="black" points="501.5,-178 501.5,-200 611.5,-200 611.5,-178 501.5,-178"/>
<text text-anchor="start" x="504.5" y="-186.2" font-family="Helvetica,sans-Serif" font-size="11.00">timestamptz[35,6]</text>
<polygon fill="none" stroke="black" points="372.5,-156 372.5,-178 501.5,-178 501.5,-156 372.5,-156"/>
<text text-anchor="start" x="392.5" y="-164.2" font-family="Helvetica,sans-Serif" font-size="11.00">params</text>
<polygon fill="none" stroke="black" points="501.5,-156 501.5,-178 611.5,-178 611.5,-156 501.5,-156"/>
<text text-anchor="start" x="504.5" y="-164.2" font-family="Helvetica,sans-Serif" font-size="11.00">jsonb[2147483647]</text>
<polygon fill="#ffffff" stroke="none" points="372.5,-134 372.5,-156 501.5,-156 501.5,-134 372.5,-134"/>
<polygon fill="none" stroke="black" points="372.5,-134 372.5,-156 501.5,-156 501.5,-134 372.5,-134"/>
<image xlink:href="../../images/foreignKeys.png" width="11px" height="12px" preserveAspectRatio="xMinYMin meet" x="377.5" y="-151"/>
<text text-anchor="start" x="392.5" y="-142.2" font-family="Helvetica,sans-Serif" font-size="11.00">exporter_id</text>
<polygon fill="none" stroke="black" points="501.5,-134 501.5,-156 611.5,-156 611.5,-134 501.5,-134"/>
<text text-anchor="start" x="504.5" y="-142.2" font-family="Helvetica,sans-Serif" font-size="11.00">uuid[2147483647]</text>
<polygon fill="#ffffff" stroke="none" points="372.5,-112 372.5,-134 501.5,-134 501.5,-112 372.5,-112"/>
<polygon fill="none" stroke="black" points="372.5,-112 372.5,-134 501.5,-134 501.5,-112 372.5,-112"/>
<image xlink:href="../../images/foreignKeys.png" width="11px" height="12px" preserveAspectRatio="xMinYMin meet" x="377.5" y="-129"/>
<text text-anchor="start" x="392.5" y="-120.2" font-family="Helvetica,sans-Serif" font-size="11.00">task_id</text>
<polygon fill="none" stroke="black" points="501.5,-112 501.5,-134 611.5,-134 611.5,-112 501.5,-112"/>
<text text-anchor="start" x="504.5" y="-120.2" font-family="Helvetica,sans-Serif" font-size="11.00">uuid[2147483647]</text>
<polygon fill="#ffffff" stroke="none" points="372.5,-94 372.5,-112 427.5,-112 427.5,-94 372.5,-94"/>
<polygon fill="none" stroke="black" points="372.5,-94 372.5,-112 427.5,-112 427.5,-94 372.5,-94"/>
<text text-anchor="start" x="375.5" y="-100.2" font-family="Helvetica,sans-Serif" font-size="11.00">&lt; 2</text>
<polygon fill="#ffffff" stroke="none" points="427.5,-94 427.5,-112 501.5,-112 501.5,-94 427.5,-94"/>
<polygon fill="none" stroke="black" points="427.5,-94 427.5,-112 501.5,-112 501.5,-94 427.5,-94"/>
<text text-anchor="start" x="462.5" y="-100.2" font-family="Helvetica,sans-Serif" font-size="11.00">0 rows</text>
<polygon fill="#ffffff" stroke="none" points="501.5,-94 501.5,-112 611.5,-112 611.5,-94 501.5,-94"/>
<polygon fill="none" stroke="black" points="501.5,-94 501.5,-112 611.5,-112 611.5,-94 501.5,-94"/>
<text text-anchor="start" x="591.5" y="-100.2" font-family="Helvetica,sans-Serif" font-size="11.00">2 &gt;</text>
<polygon fill="none" stroke="black" stroke-width="2" points="371,-93 371,-267 612,-267 612,-93 371,-93"/>
</a>
</g>
</g>
<!-- core_export&#45;&gt;core_task -->
<g id="edge5" class="edge"><title>core_export:task_id:w&#45;&gt;core_task:pulp_id:e</title>
<path fill="none" stroke="black" d="M357.568,-127.508C301.466,-170.156 401.743,-501 322.5,-501"/>
<polygon fill="black" stroke="black" points="363.889,-125.463 372.608,-126.425 367.694,-124.232 371.5,-123 371.5,-123 371.5,-123 367.694,-124.232 370.392,-119.575 363.889,-125.463 363.889,-125.463"/>
<ellipse fill="none" stroke="black" cx="360.844" cy="-126.448" rx="3.20001" ry="3.20001"/>
</g>
<!-- core_exporter -->
<g id="node6" class="node"><title>core_exporter</title>
<g id="a_node6"><a xlink:href="../../tables/core_exporter.html" xlink:title="core_exporter" target="_top">
<polygon fill="#ffffff" stroke="none" points="192,-37 192,-139 321,-139 321,-37 192,-37"/>
<polygon fill="#f5f5f5" stroke="none" points="192.5,-117 192.5,-139 321.5,-139 321.5,-117 192.5,-117"/>
<polygon fill="none" stroke="black" points="192.5,-117 192.5,-139 321.5,-139 321.5,-117 192.5,-117"/>
<text text-anchor="start" x="197.5" y="-126.2" font-family="Helvetica,sans-Serif" font-weight="bold" font-size="11.00">core_exporter</text>
<text text-anchor="start" x="282.5" y="-125.2" font-family="Helvetica,sans-Serif" font-size="11.00">[table]</text>
<polygon fill="none" stroke="black" points="192.5,-95 192.5,-117 321.5,-117 321.5,-95 192.5,-95"/>
<image xlink:href="../../images/primaryKeys.png" width="11px" height="12px" preserveAspectRatio="xMinYMin meet" x="197.5" y="-112"/>
<text text-anchor="start" x="212.5" y="-103.2" font-family="Helvetica,sans-Serif" font-size="11.00">pulp_id</text>
<polygon fill="#ffffff" stroke="none" points="192.5,-73 192.5,-95 321.5,-95 321.5,-73 192.5,-73"/>
<polygon fill="none" stroke="black" points="192.5,-73 192.5,-95 321.5,-95 321.5,-73 192.5,-73"/>
<text text-anchor="start" x="212.5" y="-81.2" font-family="Helvetica,sans-Serif" font-size="11.00">name</text>
<polygon fill="none" stroke="black" points="192.5,-55 192.5,-73 321.5,-73 321.5,-55 192.5,-55"/>
<text text-anchor="start" x="195.5" y="-61.2" font-family="Helvetica,sans-Serif" font-size="11.00">...</text>
<polygon fill="#ffffff" stroke="none" points="192.5,-37 192.5,-55 230.5,-55 230.5,-37 192.5,-37"/>
<polygon fill="none" stroke="black" points="192.5,-37 192.5,-55 230.5,-55 230.5,-37 192.5,-37"/>
<text text-anchor="start" x="195.5" y="-43.2" font-family="Helvetica,sans-Serif" font-size="11.00"> &#160;</text>
<polygon fill="#ffffff" stroke="none" points="230.5,-37 230.5,-55 285.5,-55 285.5,-37 230.5,-37"/>
<polygon fill="none" stroke="black" points="230.5,-37 230.5,-55 285.5,-55 285.5,-37 230.5,-37"/>
<text text-anchor="start" x="246.5" y="-43.2" font-family="Helvetica,sans-Serif" font-size="11.00">0 rows</text>
<polygon fill="#ffffff" stroke="none" points="285.5,-37 285.5,-55 321.5,-55 321.5,-37 285.5,-37"/>
<polygon fill="none" stroke="black" points="285.5,-37 285.5,-55 321.5,-55 321.5,-37 285.5,-37"/>
<text text-anchor="start" x="301.5" y="-43.2" font-family="Helvetica,sans-Serif" font-size="11.00">2 &gt;</text>
</a>
</g>
</g>
<!-- core_export&#45;&gt;core_exporter -->
<g id="edge4" class="edge"><title>core_export:exporter_id:w&#45;&gt;core_exporter:pulp_id:e</title>
<path fill="none" stroke="black" d="M357.465,-140.218C344.932,-129.804 344.245,-106 322.5,-106"/>
<polygon fill="black" stroke="black" points="363.927,-142.42 370.339,-148.408 367.714,-143.71 371.5,-145 371.5,-145 371.5,-145 367.714,-143.71 372.661,-141.592 363.927,-142.42 363.927,-142.42"/>
<ellipse fill="none" stroke="black" cx="360.898" cy="-141.388" rx="3.20001" ry="3.20001"/>
</g>
<!-- core_exportedresource -->
<g id="node7" class="node"><title>core_exportedresource</title>
<g id="a_node7"><a xlink:href="../../tables/core_exportedresource.html" xlink:title="core_exportedresource" target="_top">
<polygon fill="#ffffff" stroke="none" points="662,-233 662,-357 842,-357 842,-233 662,-233"/>
<polygon fill="#f5f5f5" stroke="none" points="662,-335 662,-357 842,-357 842,-335 662,-335"/>
<polygon fill="none" stroke="black" points="662,-335 662,-357 842,-357 842,-335 662,-335"/>
<text text-anchor="start" x="667" y="-344.2" font-family="Helvetica,sans-Serif" font-weight="bold" font-size="11.00">core_exportedresource</text>
<text text-anchor="start" x="803" y="-343.2" font-family="Helvetica,sans-Serif" font-size="11.00">[table]</text>
<polygon fill="none" stroke="black" points="662,-313 662,-335 842,-335 842,-313 662,-313"/>
<image xlink:href="../../images/primaryKeys.png" width="11px" height="12px" preserveAspectRatio="xMinYMin meet" x="667" y="-330"/>
<text text-anchor="start" x="693" y="-321.2" font-family="Helvetica,sans-Serif" font-size="11.00">pulp_id</text>
<polygon fill="#ffffff" stroke="none" points="662,-291 662,-313 842,-313 842,-291 662,-291"/>
<polygon fill="none" stroke="black" points="662,-291 662,-313 842,-313 842,-291 662,-291"/>
<image xlink:href="../../images/foreignKeys.png" width="11px" height="12px" preserveAspectRatio="xMinYMin meet" x="667" y="-308"/>
<text text-anchor="start" x="693" y="-299.2" font-family="Helvetica,sans-Serif" font-size="11.00">content_type_id</text>
<polygon fill="#ffffff" stroke="none" points="662,-269 662,-291 842,-291 842,-269 662,-269"/>
<polygon fill="none" stroke="black" points="662,-269 662,-291 842,-291 842,-269 662,-269"/>
<image xlink:href="../../images/foreignKeys.png" width="11px" height="12px" preserveAspectRatio="xMinYMin meet" x="667" y="-286"/>
<text text-anchor="start" x="693" y="-277.2" font-family="Helvetica,sans-Serif" font-size="11.00">export_id</text>
<polygon fill="none" stroke="black" points="662,-251 662,-269 842,-269 842,-251 662,-251"/>
<text text-anchor="start" x="665" y="-257.2" font-family="Helvetica,sans-Serif" font-size="11.00">...</text>
<polygon fill="#ffffff" stroke="none" points="662,-233 662,-251 736,-251 736,-233 662,-233"/>
<polygon fill="none" stroke="black" points="662,-233 662,-251 736,-251 736,-233 662,-233"/>
<text text-anchor="start" x="665" y="-239.2" font-family="Helvetica,sans-Serif" font-size="11.00">&lt; 2</text>
<polygon fill="#ffffff" stroke="none" points="736,-233 736,-251 803,-251 803,-233 736,-233"/>
<polygon fill="none" stroke="black" points="736,-233 736,-251 803,-251 803,-233 736,-233"/>
<text text-anchor="start" x="764" y="-239.2" font-family="Helvetica,sans-Serif" font-size="11.00">0 rows</text>
<polygon fill="#ffffff" stroke="none" points="803,-233 803,-251 842,-251 842,-233 803,-233"/>
<polygon fill="none" stroke="black" points="803,-233 803,-251 842,-251 842,-233 803,-233"/>
<text text-anchor="start" x="832" y="-239.2" font-family="Helvetica,sans-Serif" font-size="11.00"> &#160;</text>
</a>
</g>
</g>
<!-- core_exportedresource&#45;&gt;django_content_type -->
<g id="edge6" class="edge"><title>core_exportedresource:content_type_id:w&#45;&gt;django_content_type:elipses:e</title>
<path fill="none" stroke="black" d="M646.537,-302.753C619.992,-305.661 609.214,-316 576.5,-316"/>
<polygon fill="black" stroke="black" points="653.011,-302.416 661.187,-305.595 657.005,-302.208 661,-302 661,-302 661,-302 657.005,-302.208 660.813,-298.405 653.011,-302.416 653.011,-302.416"/>
<ellipse fill="none" stroke="black" cx="649.815" cy="-302.582" rx="3.2" ry="3.2"/>
</g>
<!-- core_exportedresource&#45;&gt;core_export -->
<g id="edge7" class="edge"><title>core_exportedresource:export_id:w&#45;&gt;core_export:pulp_id.type:e</title>
<path fill="none" stroke="black" d="M647.155,-274.97C633.954,-262.845 636.419,-233 612.5,-233"/>
<polygon fill="black" stroke="black" points="653.481,-277.268 659.771,-283.384 657.24,-278.634 661,-280 661,-280 661,-280 657.24,-278.634 662.229,-276.616 653.481,-277.268 653.481,-277.268"/>
<ellipse fill="none" stroke="black" cx="650.473" cy="-276.176" rx="3.20001" ry="3.20001"/>
</g>
<!-- core_import -->
<g id="node8" class="node"><title>core_import</title>
<g id="a_node8"><a xlink:href="../../tables/core_import.html" xlink:title="core_import" target="_top">
<polygon fill="#ffffff" stroke="none" points="432.5,-368 432.5,-426 550.5,-426 550.5,-368 432.5,-368"/>
<polygon fill="#f5f5f5" stroke="none" points="432.5,-404 432.5,-426 550.5,-426 550.5,-404 432.5,-404"/>
<polygon fill="none" stroke="black" points="432.5,-404 432.5,-426 550.5,-426 550.5,-404 432.5,-404"/>
<text text-anchor="start" x="437.5" y="-413.2" font-family="Helvetica,sans-Serif" font-weight="bold" font-size="11.00">core_import</text>
<text text-anchor="start" x="511.5" y="-412.2" font-family="Helvetica,sans-Serif" font-size="11.00">[table]</text>
<polygon fill="none" stroke="black" points="432.5,-386 432.5,-404 550.5,-404 550.5,-386 432.5,-386"/>
<text text-anchor="start" x="435.5" y="-392.2" font-family="Helvetica,sans-Serif" font-size="11.00">...</text>
<polygon fill="#ffffff" stroke="none" points="432.5,-368 432.5,-386 470.5,-386 470.5,-368 432.5,-368"/>
<polygon fill="none" stroke="black" points="432.5,-368 432.5,-386 470.5,-386 470.5,-368 432.5,-368"/>
<text text-anchor="start" x="435.5" y="-374.2" font-family="Helvetica,sans-Serif" font-size="11.00">&lt; 2</text>
<polygon fill="#ffffff" stroke="none" points="470.5,-368 470.5,-386 519.5,-386 519.5,-368 470.5,-368"/>
<polygon fill="none" stroke="black" points="470.5,-368 470.5,-386 519.5,-386 519.5,-368 470.5,-368"/>
<text text-anchor="start" x="480.5" y="-374.2" font-family="Helvetica,sans-Serif" font-size="11.00">0 rows</text>
<polygon fill="#ffffff" stroke="none" points="519.5,-368 519.5,-386 550.5,-386 550.5,-368 519.5,-368"/>
<polygon fill="none" stroke="black" points="519.5,-368 519.5,-386 550.5,-386 550.5,-368 519.5,-368"/>
<text text-anchor="start" x="530.5" y="-374.2" font-family="Helvetica,sans-Serif" font-size="11.00">1 &gt;</text>
</a>
</g>
</g>
<!-- core_import&#45;&gt;core_task -->
<g id="edge8" class="edge"><title>core_import:elipses:w&#45;&gt;core_task:pulp_id:e</title>
<path fill="none" stroke="black" d="M416.942,-396.216C392.292,-400.79 384.158,-417.842 362,-440 339.161,-462.838 354.799,-501 322.5,-501"/>
<polygon fill="black" stroke="black" points="423.528,-395.666 431.8,-398.588 427.514,-395.333 431.5,-395 431.5,-395 431.5,-395 427.514,-395.333 431.2,-391.412 423.528,-395.666 423.528,-395.666"/>
<ellipse fill="none" stroke="black" cx="420.339" cy="-395.932" rx="3.2" ry="3.2"/>
</g>
<!-- core_progressreport -->
<g id="node9" class="node"><title>core_progressreport</title>
<g id="a_node9"><a xlink:href="../../tables/core_progressreport.html" xlink:title="core_progressreport" target="_top">
<polygon fill="#ffffff" stroke="none" points="410,-711 410,-769 573,-769 573,-711 410,-711"/>
<polygon fill="#f5f5f5" stroke="none" points="410.5,-747 410.5,-769 573.5,-769 573.5,-747 410.5,-747"/>
<polygon fill="none" stroke="black" points="410.5,-747 410.5,-769 573.5,-769 573.5,-747 410.5,-747"/>
<text text-anchor="start" x="415.5" y="-756.2" font-family="Helvetica,sans-Serif" font-weight="bold" font-size="11.00">core_progressreport</text>
<text text-anchor="start" x="534.5" y="-755.2" font-family="Helvetica,sans-Serif" font-size="11.00">[table]</text>
<polygon fill="none" stroke="black" points="410.5,-729 410.5,-747 573.5,-747 573.5,-729 410.5,-729"/>
<text text-anchor="start" x="413.5" y="-735.2" font-family="Helvetica,sans-Serif" font-size="11.00">...</text>
<polygon fill="#ffffff" stroke="none" points="410.5,-711 410.5,-729 472.5,-729 472.5,-711 410.5,-711"/>
<polygon fill="none" stroke="black" points="410.5,-711 410.5,-729 472.5,-729 472.5,-711 410.5,-711"/>
<text text-anchor="start" x="413.5" y="-717.2" font-family="Helvetica,sans-Serif" font-size="11.00">&lt; 1</text>
<polygon fill="#ffffff" stroke="none" points="472.5,-711 472.5,-729 540.5,-729 540.5,-711 472.5,-711"/>
<polygon fill="none" stroke="black" points="472.5,-711 472.5,-729 540.5,-729 540.5,-711 472.5,-711"/>
<text text-anchor="start" x="494.5" y="-717.2" font-family="Helvetica,sans-Serif" font-size="11.00">53 rows</text>
<polygon fill="#ffffff" stroke="none" points="540.5,-711 540.5,-729 573.5,-729 573.5,-711 540.5,-711"/>
<polygon fill="none" stroke="black" points="540.5,-711 540.5,-729 573.5,-729 573.5,-711 540.5,-711"/>
<text text-anchor="start" x="563.5" y="-717.2" font-family="Helvetica,sans-Serif" font-size="11.00"> &#160;</text>
</a>
</g>
</g>
<!-- core_progressreport&#45;&gt;core_task -->
<g id="edge9" class="edge"><title>core_progressreport:elipses:w&#45;&gt;core_task:pulp_id:e</title>
<path fill="none" stroke="black" d="M394.986,-736.156C379.584,-731.622 373.073,-718.979 362,-701 338.243,-662.426 367.803,-501 322.5,-501"/>
<polygon fill="black" stroke="black" points="401.564,-736.991 409.046,-741.571 405.532,-737.496 409.5,-738 409.5,-738 409.5,-738 405.532,-737.496 409.954,-734.429 401.564,-736.991 401.564,-736.991"/>
<ellipse fill="none" stroke="black" cx="398.389" cy="-736.588" rx="3.2" ry="3.2"/>
</g>
<!-- core_pulpexport -->
<g id="node10" class="node"><title>core_pulpexport</title>
<g id="a_node10"><a xlink:href="../../tables/core_pulpexport.html" xlink:title="core_pulpexport" target="_top">
<polygon fill="#ffffff" stroke="none" points="681,-119 681,-199 823,-199 823,-119 681,-119"/>
<polygon fill="#f5f5f5" stroke="none" points="681,-177 681,-199 823,-199 823,-177 681,-177"/>
<polygon fill="none" stroke="black" points="681,-177 681,-199 823,-199 823,-177 681,-177"/>
<text text-anchor="start" x="686" y="-186.2" font-family="Helvetica,sans-Serif" font-weight="bold" font-size="11.00">core_pulpexport</text>
<text text-anchor="start" x="784" y="-185.2" font-family="Helvetica,sans-Serif" font-size="11.00">[table]</text>
<polygon fill="none" stroke="black" points="681,-155 681,-177 823,-177 823,-155 681,-155"/>
<image xlink:href="../../images/primaryKeys.png" width="11px" height="12px" preserveAspectRatio="xMinYMin meet" x="686" y="-172"/>
<text text-anchor="start" x="713" y="-163.2" font-family="Helvetica,sans-Serif" font-size="11.00">export_ptr_id</text>
<polygon fill="none" stroke="black" points="681,-137 681,-155 823,-155 823,-137 681,-137"/>
<text text-anchor="start" x="684" y="-143.2" font-family="Helvetica,sans-Serif" font-size="11.00">...</text>
<polygon fill="#ffffff" stroke="none" points="681,-119 681,-137 731,-137 731,-119 681,-119"/>
<polygon fill="none" stroke="black" points="681,-119 681,-137 731,-137 731,-119 681,-119"/>
<text text-anchor="start" x="684" y="-125.2" font-family="Helvetica,sans-Serif" font-size="11.00">&lt; 1</text>
<polygon fill="#ffffff" stroke="none" points="731,-119 731,-137 786,-137 786,-119 731,-119"/>
<polygon fill="none" stroke="black" points="731,-119 731,-137 786,-137 786,-119 731,-119"/>
<text text-anchor="start" x="747" y="-125.2" font-family="Helvetica,sans-Serif" font-size="11.00">0 rows</text>
<polygon fill="#ffffff" stroke="none" points="786,-119 786,-137 823,-137 823,-119 786,-119"/>
<polygon fill="none" stroke="black" points="786,-119 786,-137 823,-137 823,-119 786,-119"/>
<text text-anchor="start" x="803" y="-125.2" font-family="Helvetica,sans-Serif" font-size="11.00">1 &gt;</text>
</a>
</g>
</g>
<!-- core_pulpexport&#45;&gt;core_export -->
<g id="edge10" class="edge"><title>core_pulpexport:export_ptr_id:w&#45;&gt;core_export:pulp_id.type:e</title>
<path fill="none" stroke="black" d="M669.578,-167.656C640.404,-177.974 650.807,-233 612.5,-233"/>
<polygon fill="black" stroke="black" points="678.582,-162.175 679.838,-170.076 678.258,-170.327 677.002,-162.426 678.582,-162.175"/>
<polyline fill="none" stroke="black" points="680,-166 676.05,-166.628 "/>
<ellipse fill="none" stroke="black" cx="672.889" cy="-167.13" rx="3.2" ry="3.2"/>
</g>
<!-- core_pulpexporter -->
<g id="node11" class="node"><title>core_pulpexporter</title>
<g id="a_node11"><a xlink:href="../../tables/core_pulpexporter.html" xlink:title="core_pulpexporter" target="_top">
<polygon fill="#ffffff" stroke="none" points="891,-90 891,-148 1045,-148 1045,-90 891,-90"/>
<polygon fill="#f5f5f5" stroke="none" points="891,-126 891,-148 1045,-148 1045,-126 891,-126"/>
<polygon fill="none" stroke="black" points="891,-126 891,-148 1045,-148 1045,-126 891,-126"/>
<text text-anchor="start" x="896" y="-135.2" font-family="Helvetica,sans-Serif" font-weight="bold" font-size="11.00">core_pulpexporter</text>
<text text-anchor="start" x="1006" y="-134.2" font-family="Helvetica,sans-Serif" font-size="11.00">[table]</text>
<polygon fill="none" stroke="black" points="891,-108 891,-126 1045,-126 1045,-108 891,-108"/>
<text text-anchor="start" x="894" y="-114.2" font-family="Helvetica,sans-Serif" font-size="11.00">...</text>
<polygon fill="#ffffff" stroke="none" points="891,-90 891,-108 947,-108 947,-90 891,-90"/>
<polygon fill="none" stroke="black" points="891,-90 891,-108 947,-108 947,-90 891,-90"/>
<text text-anchor="start" x="894" y="-96.2" font-family="Helvetica,sans-Serif" font-size="11.00">&lt; 2</text>
<polygon fill="#ffffff" stroke="none" points="947,-90 947,-108 1005,-108 1005,-90 947,-90"/>
<polygon fill="none" stroke="black" points="947,-90 947,-108 1005,-108 1005,-90 947,-90"/>
<text text-anchor="start" x="966" y="-96.2" font-family="Helvetica,sans-Serif" font-size="11.00">0 rows</text>
<polygon fill="#ffffff" stroke="none" points="1005,-90 1005,-108 1045,-108 1045,-90 1005,-90"/>
<polygon fill="none" stroke="black" points="1005,-90 1005,-108 1045,-108 1045,-90 1005,-90"/>
<text text-anchor="start" x="1025" y="-96.2" font-family="Helvetica,sans-Serif" font-size="11.00">1 &gt;</text>
</a>
</g>
</g>
<!-- core_pulpexporter&#45;&gt;core_exporter -->
<g id="edge11" class="edge"><title>core_pulpexporter:elipses:w&#45;&gt;core_exporter:pulp_id:e</title>
<path fill="none" stroke="black" d="M879.501,-116.189C869.322,-114.46 863.892,-110.375 850,-108 748.983,-90.7286 723.306,-87.0103 621,-81 506.087,-74.249 472.56,-48.9524 362,-81 342.045,-86.7842 343.276,-106 322.5,-106"/>
<polygon fill="black" stroke="black" points="889.51,-112.95 888.894,-120.927 887.299,-120.803 887.915,-112.827 889.51,-112.95"/>
<polyline fill="none" stroke="black" points="890,-117 886.012,-116.692 "/>
<ellipse fill="none" stroke="black" cx="882.821" cy="-116.446" rx="3.2" ry="3.2"/>
</g>
<!-- core_pulpexporter&#45;&gt;core_pulpexport -->
<g id="edge12" class="edge"><title>core_pulpexporter:elipses:w&#45;&gt;core_pulpexport:export_ptr_id:e</title>
<path fill="none" stroke="black" d="M875.736,-120.215C854.61,-131.116 854.825,-166 824,-166"/>
<polygon fill="black" stroke="black" points="882.196,-118.759 890.792,-120.512 886.098,-117.88 890,-117 890,-117 890,-117 886.098,-117.88 889.208,-113.488 882.196,-118.759 882.196,-118.759"/>
<ellipse fill="none" stroke="black" cx="879.074" cy="-119.463" rx="3.2" ry="3.2"/>
</g>
<!-- core_taskreservedresource -->
<g id="node14" class="node"><title>core_taskreservedresource</title>
<g id="a_node14"><a xlink:href="../../tables/core_taskreservedresource.html" xlink:title="core_taskreservedresource" target="_top">
<polygon fill="#ffffff" stroke="none" points="390.5,-632 390.5,-690 592.5,-690 592.5,-632 390.5,-632"/>
<polygon fill="#f5f5f5" stroke="none" points="390.5,-668 390.5,-690 592.5,-690 592.5,-668 390.5,-668"/>
<polygon fill="none" stroke="black" points="390.5,-668 390.5,-690 592.5,-690 592.5,-668 390.5,-668"/>
<text text-anchor="start" x="395.5" y="-677.2" font-family="Helvetica,sans-Serif" font-weight="bold" font-size="11.00">core_taskreservedresource</text>
<text text-anchor="start" x="553.5" y="-676.2" font-family="Helvetica,sans-Serif" font-size="11.00">[table]</text>
<polygon fill="none" stroke="black" points="390.5,-650 390.5,-668 592.5,-668 592.5,-650 390.5,-650"/>
<text text-anchor="start" x="393.5" y="-656.2" font-family="Helvetica,sans-Serif" font-size="11.00">...</text>
<polygon fill="#ffffff" stroke="none" points="390.5,-632 390.5,-650 475.5,-650 475.5,-632 390.5,-632"/>
<polygon fill="none" stroke="black" points="390.5,-632 390.5,-650 475.5,-650 475.5,-632 390.5,-632"/>
<text text-anchor="start" x="393.5" y="-638.2" font-family="Helvetica,sans-Serif" font-size="11.00">&lt; 2</text>
<polygon fill="#ffffff" stroke="none" points="475.5,-632 475.5,-650 548.5,-650 548.5,-632 475.5,-632"/>
<polygon fill="none" stroke="black" points="475.5,-632 475.5,-650 548.5,-650 548.5,-632 475.5,-632"/>
<text text-anchor="start" x="509.5" y="-638.2" font-family="Helvetica,sans-Serif" font-size="11.00">0 rows</text>
<polygon fill="#ffffff" stroke="none" points="548.5,-632 548.5,-650 592.5,-650 592.5,-632 548.5,-632"/>
<polygon fill="none" stroke="black" points="548.5,-632 548.5,-650 592.5,-650 592.5,-632 548.5,-632"/>
<text text-anchor="start" x="582.5" y="-638.2" font-family="Helvetica,sans-Serif" font-size="11.00"> &#160;</text>
</a>
</g>
</g>
<!-- core_taskreservedresource&#45;&gt;core_task -->
<g id="edge15" class="edge"><title>core_taskreservedresource:elipses:w&#45;&gt;core_task:pulp_id:e</title>
<path fill="none" stroke="black" d="M375.059,-656.518C325.032,-636.417 393.114,-501 322.5,-501"/>
<polygon fill="black" stroke="black" points="381.616,-657.645 388.89,-662.548 385.558,-658.322 389.5,-659 389.5,-659 389.5,-659 385.558,-658.322 390.11,-655.452 381.616,-657.645 381.616,-657.645"/>
<ellipse fill="none" stroke="black" cx="378.462" cy="-657.103" rx="3.2" ry="3.2"/>
</g>
<!-- core_taskreservedresourcerecord -->
<g id="node15" class="node"><title>core_taskreservedresourcerecord</title>
<g id="a_node15"><a xlink:href="../../tables/core_taskreservedresourcerecord.html" xlink:title="core_taskreservedresourcerecord" target="_top">
<polygon fill="#ffffff" stroke="none" points="372,-553 372,-611 611,-611 611,-553 372,-553"/>
<polygon fill="#f5f5f5" stroke="none" points="372.5,-589 372.5,-611 611.5,-611 611.5,-589 372.5,-589"/>
<polygon fill="none" stroke="black" points="372.5,-589 372.5,-611 611.5,-611 611.5,-589 372.5,-589"/>
<text text-anchor="start" x="377.5" y="-598.2" font-family="Helvetica,sans-Serif" font-weight="bold" font-size="11.00">core_taskreservedresourcerecord</text>
<text text-anchor="start" x="572.5" y="-597.2" font-family="Helvetica,sans-Serif" font-size="11.00">[table]</text>
<polygon fill="none" stroke="black" points="372.5,-571 372.5,-589 611.5,-589 611.5,-571 372.5,-571"/>
<text text-anchor="start" x="375.5" y="-577.2" font-family="Helvetica,sans-Serif" font-size="11.00">...</text>
<polygon fill="#ffffff" stroke="none" points="372.5,-553 372.5,-571 464.5,-571 464.5,-553 372.5,-553"/>
<polygon fill="none" stroke="black" points="372.5,-553 372.5,-571 464.5,-571 464.5,-553 372.5,-553"/>
<text text-anchor="start" x="375.5" y="-559.2" font-family="Helvetica,sans-Serif" font-size="11.00">&lt; 2</text>
<polygon fill="#ffffff" stroke="none" points="464.5,-553 464.5,-571 563.5,-571 563.5,-553 464.5,-553"/>
<polygon fill="none" stroke="black" points="464.5,-553 464.5,-571 563.5,-571 563.5,-553 464.5,-553"/>
<text text-anchor="start" x="501.5" y="-559.2" font-family="Helvetica,sans-Serif" font-size="11.00">1,937 rows</text>
<polygon fill="#ffffff" stroke="none" points="563.5,-553 563.5,-571 611.5,-571 611.5,-553 563.5,-553"/>
<polygon fill="none" stroke="black" points="563.5,-553 563.5,-571 611.5,-571 611.5,-553 563.5,-553"/>
<text text-anchor="start" x="601.5" y="-559.2" font-family="Helvetica,sans-Serif" font-size="11.00"> &#160;</text>
</a>
</g>
</g>
<!-- core_taskreservedresourcerecord&#45;&gt;core_task -->
<g id="edge16" class="edge"><title>core_taskreservedresourcerecord:elipses:w&#45;&gt;core_task:pulp_id:e</title>
<path fill="none" stroke="black" d="M357.565,-575.295C338.517,-558.288 357.684,-501 322.5,-501"/>
<polygon fill="black" stroke="black" points="363.92,-577.441 370.348,-583.411 367.71,-578.72 371.5,-580 371.5,-580 371.5,-580 367.71,-578.72 372.652,-576.589 363.92,-577.441 363.92,-577.441"/>
<ellipse fill="none" stroke="black" cx="360.889" cy="-576.417" rx="3.20001" ry="3.20001"/>
</g>
</g>
</svg>
