<?xml version="1.0" encoding="UTF-8" standalone="no"?>
<!DOCTYPE svg PUBLIC "-//W3C//DTD SVG 1.1//EN"
 "http://www.w3.org/Graphics/SVG/1.1/DTD/svg11.dtd">
<!-- Generated by graphviz version 2.38.0 (20140413.2041)
 -->
<!-- Title: twoDegreesRelationshipsDiagram Pages: 1 -->
<svg width="617pt" height="260pt"
 viewBox="0.00 0.00 617.00 260.00" xmlns="http://www.w3.org/2000/svg" xmlns:xlink="http://www.w3.org/1999/xlink">
<g id="graph0" class="graph" transform="scale(1 1) rotate(0) translate(4 256)">
<title>twoDegreesRelationshipsDiagram</title>
<polygon fill="#ffffff" stroke="none" points="-4,4 -4,-256 613,-256 613,4 -4,4"/>
<text text-anchor="middle" x="74.5" y="-7.2" font-family="Helvetica,sans-Serif" font-size="11.00">Generated by SchemaSpy</text>
<!-- core_taskreservedresourcerecord -->
<g id="node1" class="node"><title>core_taskreservedresourcerecord</title>
<g id="a_node1"><a xlink:href="../../tables/core_taskreservedresourcerecord.html" xlink:title="core_taskreservedresourcerecord" target="_top">
<polygon fill="#ffffff" stroke="none" points="362,-80 362,-204 601,-204 601,-80 362,-80"/>
<polygon fill="#f5f5f5" stroke="none" points="362.5,-182 362.5,-204 601.5,-204 601.5,-182 362.5,-182"/>
<polygon fill="none" stroke="black" points="362.5,-182 362.5,-204 601.5,-204 601.5,-182 362.5,-182"/>
<text text-anchor="start" x="367.5" y="-191.2" font-family="Helvetica,sans-Serif" font-weight="bold" font-size="11.00">core_taskreservedresourcerecord</text>
<text text-anchor="start" x="562.5" y="-190.2" font-family="Helvetica,sans-Serif" font-size="11.00">[table]</text>
<polygon fill="none" stroke="black" points="362.5,-160 362.5,-182 601.5,-182 601.5,-160 362.5,-160"/>
<image xlink:href="../../images/primaryKeys.png" width="11px" height="12px" preserveAspectRatio="xMinYMin meet" x="367.5" y="-177"/>
<text text-anchor="start" x="391.5" y="-168.2" font-family="Helvetica,sans-Serif" font-size="11.00">pulp_id</text>
<polygon fill="#ffffff" stroke="none" points="362.5,-138 362.5,-160 601.5,-160 601.5,-138 362.5,-138"/>
<polygon fill="none" stroke="black" points="362.5,-138 362.5,-160 601.5,-160 601.5,-138 362.5,-138"/>
<image xlink:href="../../images/foreignKeys.png" width="11px" height="12px" preserveAspectRatio="xMinYMin meet" x="367.5" y="-155"/>
<text text-anchor="start" x="391.5" y="-146.2" font-family="Helvetica,sans-Serif" font-size="11.00">resource_id</text>
<polygon fill="#ffffff" stroke="none" points="362.5,-116 362.5,-138 601.5,-138 601.5,-116 362.5,-116"/>
<polygon fill="none" stroke="black" points="362.5,-116 362.5,-138 601.5,-138 601.5,-116 362.5,-116"/>
<image xlink:href="../../images/foreignKeys.png" width="11px" height="12px" preserveAspectRatio="xMinYMin meet" x="367.5" y="-133"/>
<text text-anchor="start" x="391.5" y="-124.2" font-family="Helvetica,sans-Serif" font-size="11.00">task_id</text>
<polygon fill="none" stroke="black" points="362.5,-98 362.5,-116 601.5,-116 601.5,-98 362.5,-98"/>
<text text-anchor="start" x="365.5" y="-104.2" font-family="Helvetica,sans-Serif" font-size="11.00">...</text>
<polygon fill="#ffffff" stroke="none" points="362.5,-80 362.5,-98 454.5,-98 454.5,-80 362.5,-80"/>
<polygon fill="none" stroke="black" points="362.5,-80 362.5,-98 454.5,-98 454.5,-80 362.5,-80"/>
<text text-anchor="start" x="365.5" y="-86.2" font-family="Helvetica,sans-Serif" font-size="11.00">&lt; 2</text>
<polygon fill="#ffffff" stroke="none" points="454.5,-80 454.5,-98 553.5,-98 553.5,-80 454.5,-80"/>
<polygon fill="none" stroke="black" points="454.5,-80 454.5,-98 553.5,-98 553.5,-80 454.5,-80"/>
<text text-anchor="start" x="491.5" y="-86.2" font-family="Helvetica,sans-Serif" font-size="11.00">1,937 rows</text>
<polygon fill="#ffffff" stroke="none" points="553.5,-80 553.5,-98 601.5,-98 601.5,-80 553.5,-80"/>
<polygon fill="none" stroke="black" points="553.5,-80 553.5,-98 601.5,-98 601.5,-80 553.5,-80"/>
<text text-anchor="start" x="591.5" y="-86.2" font-family="Helvetica,sans-Serif" font-size="11.00"> &#160;</text>
</a>
</g>
</g>
<!-- core_reservedresourcerecord -->
<g id="node2" class="node"><title>core_reservedresourcerecord</title>
<g id="a_node2"><a xlink:href="../../tables/core_reservedresourcerecord.html" xlink:title="core_reservedresourcerecord" target="_top">
<polygon fill="#ffffff" stroke="none" points="8,-116 8,-248 313,-248 313,-116 8,-116"/>
<polygon fill="#f5f5f5" stroke="none" points="10.5,-224 10.5,-246 311.5,-246 311.5,-224 10.5,-224"/>
<polygon fill="none" stroke="black" points="10.5,-224 10.5,-246 311.5,-246 311.5,-224 10.5,-224"/>
<text text-anchor="start" x="15.5" y="-233.2" font-family="Helvetica,sans-Serif" font-weight="bold" font-size="11.00">core_reservedresourcerecord</text>
<text text-anchor="start" x="272.5" y="-232.2" font-family="Helvetica,sans-Serif" font-size="11.00">[table]</text>
<polygon fill="none" stroke="black" points="10.5,-202 10.5,-224 206.5,-224 206.5,-202 10.5,-202"/>
<image xlink:href="../../images/primaryKeys.png" width="11px" height="12px" preserveAspectRatio="xMinYMin meet" x="15.5" y="-219"/>
<text text-anchor="start" x="30.5" y="-210.2" font-family="Helvetica,sans-Serif" font-size="11.00">pulp_id</text>
<polygon fill="none" stroke="black" points="206.5,-202 206.5,-224 311.5,-224 311.5,-202 206.5,-202"/>
<text text-anchor="start" x="209.5" y="-210.2" font-family="Helvetica,sans-Serif" font-size="11.00">uuid[2147483647]</text>
<polygon fill="none" stroke="black" points="10.5,-180 10.5,-202 206.5,-202 206.5,-180 10.5,-180"/>
<text text-anchor="start" x="30.5" y="-188.2" font-family="Helvetica,sans-Serif" font-size="11.00">pulp_created</text>
<polygon fill="none" stroke="black" points="206.5,-180 206.5,-202 311.5,-202 311.5,-180 206.5,-180"/>
<text text-anchor="start" x="209.5" y="-188.2" font-family="Helvetica,sans-Serif" font-size="11.00">timestamptz[35,6]</text>
<polygon fill="none" stroke="black" points="10.5,-158 10.5,-180 206.5,-180 206.5,-158 10.5,-158"/>
<text text-anchor="start" x="30.5" y="-166.2" font-family="Helvetica,sans-Serif" font-size="11.00">pulp_last_updated</text>
<polygon fill="none" stroke="black" points="206.5,-158 206.5,-180 311.5,-180 311.5,-158 206.5,-158"/>
<text text-anchor="start" x="209.5" y="-166.2" font-family="Helvetica,sans-Serif" font-size="11.00">timestamptz[35,6]</text>
<polygon fill="#ffffff" stroke="none" points="10.5,-136 10.5,-158 206.5,-158 206.5,-136 10.5,-136"/>
<polygon fill="none" stroke="black" points="10.5,-136 10.5,-158 206.5,-158 206.5,-136 10.5,-136"/>
<text text-anchor="start" x="30.5" y="-144.2" font-family="Helvetica,sans-Serif" font-size="11.00">resource</text>
<polygon fill="none" stroke="black" points="206.5,-136 206.5,-158 311.5,-158 311.5,-136 206.5,-136"/>
<text text-anchor="start" x="209.5" y="-144.2" font-family="Helvetica,sans-Serif" font-size="11.00">text[2147483647]</text>
<polygon fill="#ffffff" stroke="none" points="10.5,-118 10.5,-136 92.5,-136 92.5,-118 10.5,-118"/>
<polygon fill="none" stroke="black" points="10.5,-118 10.5,-136 92.5,-136 92.5,-118 10.5,-118"/>
<text text-anchor="start" x="13.5" y="-124.2" font-family="Helvetica,sans-Serif" font-size="11.00">&lt; 0</text>
<polygon fill="#ffffff" stroke="none" points="92.5,-118 92.5,-136 206.5,-136 206.5,-118 92.5,-118"/>
<polygon fill="none" stroke="black" points="92.5,-118 92.5,-136 206.5,-136 206.5,-118 92.5,-118"/>
<text text-anchor="start" x="154.5" y="-124.2" font-family="Helvetica,sans-Serif" font-size="11.00">228 rows</text>
<polygon fill="#ffffff" stroke="none" points="206.5,-118 206.5,-136 311.5,-136 311.5,-118 206.5,-118"/>
<polygon fill="none" stroke="black" points="206.5,-118 206.5,-136 311.5,-136 311.5,-118 206.5,-118"/>
<text text-anchor="start" x="291.5" y="-124.2" font-family="Helvetica,sans-Serif" font-size="11.00">1 &gt;</text>
<polygon fill="none" stroke="black" stroke-width="2" points="9,-117 9,-247 312,-247 312,-117 9,-117"/>
</a>
</g>
</g>
<!-- core_taskreservedresourcerecord&#45;&gt;core_reservedresourcerecord -->
<g id="edge1" class="edge"><title>core_taskreservedresourcerecord:resource_id:w&#45;&gt;core_reservedresourcerecord:pulp_id.type:e</title>
<path fill="none" stroke="black" d="M347.616,-154.022C331.734,-169.109 342.167,-213 312.5,-213"/>
<polygon fill="black" stroke="black" points="353.977,-151.721 362.725,-152.385 357.739,-150.361 361.5,-149 361.5,-149 361.5,-149 357.739,-150.361 360.275,-145.615 353.977,-151.721 353.977,-151.721"/>
<ellipse fill="none" stroke="black" cx="350.968" cy="-152.81" rx="3.20001" ry="3.20001"/>
</g>
<!-- core_task -->
<g id="node3" class="node"><title>core_task</title>
<g id="a_node3"><a xlink:href="../../tables/core_task.html" xlink:title="core_task" target="_top">
<polygon fill="#ffffff" stroke="none" points="105,-37 105,-95 216,-95 216,-37 105,-37"/>
<polygon fill="#f5f5f5" stroke="none" points="105.5,-73 105.5,-95 216.5,-95 216.5,-73 105.5,-73"/>
<polygon fill="none" stroke="black" points="105.5,-73 105.5,-95 216.5,-95 216.5,-73 105.5,-73"/>
<text text-anchor="start" x="110.5" y="-82.2" font-family="Helvetica,sans-Serif" font-weight="bold" font-size="11.00">core_task</text>
<text text-anchor="start" x="177.5" y="-81.2" font-family="Helvetica,sans-Serif" font-size="11.00">[table]</text>
<polygon fill="none" stroke="black" points="105.5,-55 105.5,-73 216.5,-73 216.5,-55 105.5,-55"/>
<text text-anchor="start" x="108.5" y="-61.2" font-family="Helvetica,sans-Serif" font-size="11.00">...</text>
<polygon fill="#ffffff" stroke="none" points="105.5,-37 105.5,-55 128.5,-55 128.5,-37 105.5,-37"/>
<polygon fill="none" stroke="black" points="105.5,-37 105.5,-55 128.5,-55 128.5,-37 105.5,-37"/>
<text text-anchor="start" x="108.5" y="-43.2" font-family="Helvetica,sans-Serif" font-size="11.00">&lt; 3</text>
<polygon fill="#ffffff" stroke="none" points="128.5,-37 128.5,-55 193.5,-55 193.5,-37 128.5,-37"/>
<polygon fill="none" stroke="black" points="128.5,-37 128.5,-55 193.5,-55 193.5,-37 128.5,-37"/>
<text text-anchor="start" x="131.5" y="-43.2" font-family="Helvetica,sans-Serif" font-size="11.00">1,828 rows</text>
<polygon fill="#ffffff" stroke="none" points="193.5,-37 193.5,-55 216.5,-55 216.5,-37 193.5,-37"/>
<polygon fill="none" stroke="black" points="193.5,-37 193.5,-55 216.5,-55 216.5,-37 193.5,-37"/>
<text text-anchor="start" x="196.5" y="-43.2" font-family="Helvetica,sans-Serif" font-size="11.00">8 &gt;</text>
</a>
</g>
</g>
<!-- core_taskreservedresourcerecord&#45;&gt;core_task -->
<g id="edge2" class="edge"><title>core_taskreservedresourcerecord:task_id:w&#45;&gt;core_task:elipses:e</title>
<path fill="none" stroke="black" d="M347.117,-123.983C338.58,-119.749 333.803,-111.902 321,-106 275.916,-85.2185 267.143,-64 217.5,-64"/>
<polygon fill="black" stroke="black" points="353.67,-125.358 360.761,-130.523 357.585,-126.179 361.5,-127 361.5,-127 361.5,-127 357.585,-126.179 362.239,-123.477 353.67,-125.358 353.67,-125.358"/>
<ellipse fill="none" stroke="black" cx="350.539" cy="-124.701" rx="3.2" ry="3.2"/>
</g>
</g>
</svg>
