<?xml version="1.0" encoding="UTF-8" standalone="no"?>
<!DOCTYPE svg PUBLIC "-//W3C//DTD SVG 1.1//EN"
 "http://www.w3.org/Graphics/SVG/1.1/DTD/svg11.dtd">
<!-- Generated by graphviz version 2.38.0 (20140413.2041)
 -->
<!-- Title: twoDegreesRelationshipsDiagram Pages: 1 -->
<svg width="948pt" height="649pt"
 viewBox="0.00 0.00 948.00 649.00" xmlns="http://www.w3.org/2000/svg" xmlns:xlink="http://www.w3.org/1999/xlink">
<g id="graph0" class="graph" transform="scale(1 1) rotate(0) translate(4 645)">
<title>twoDegreesRelationshipsDiagram</title>
<polygon fill="#ffffff" stroke="none" points="-4,4 -4,-645 944,-645 944,4 -4,4"/>
<text text-anchor="middle" x="74.5" y="-7.2" font-family="Helvetica,sans-Serif" font-size="11.00">Generated by SchemaSpy</text>
<!-- ansible_collectionversion -->
<g id="node1" class="node"><title>ansible_collectionversion</title>
<g id="a_node1"><a xlink:href="../../tables/ansible_collectionversion.html" xlink:title="ansible_collectionversion" target="_top">
<polygon fill="#ffffff" stroke="none" points="236,-116 236,-174 429,-174 429,-116 236,-116"/>
<polygon fill="#f5f5f5" stroke="none" points="236.5,-152 236.5,-174 429.5,-174 429.5,-152 236.5,-152"/>
<polygon fill="none" stroke="black" points="236.5,-152 236.5,-174 429.5,-174 429.5,-152 236.5,-152"/>
<text text-anchor="start" x="241.5" y="-161.2" font-family="Helvetica,sans-Serif" font-weight="bold" font-size="11.00">ansible_collectionversion</text>
<text text-anchor="start" x="390.5" y="-160.2" font-family="Helvetica,sans-Serif" font-size="11.00">[table]</text>
<polygon fill="none" stroke="black" points="236.5,-134 236.5,-152 429.5,-152 429.5,-134 236.5,-134"/>
<text text-anchor="start" x="239.5" y="-140.2" font-family="Helvetica,sans-Serif" font-size="11.00">...</text>
<polygon fill="#ffffff" stroke="none" points="236.5,-116 236.5,-134 308.5,-134 308.5,-116 236.5,-116"/>
<polygon fill="none" stroke="black" points="236.5,-116 236.5,-134 308.5,-134 308.5,-116 236.5,-116"/>
<text text-anchor="start" x="239.5" y="-122.2" font-family="Helvetica,sans-Serif" font-size="11.00">&lt; 2</text>
<polygon fill="#ffffff" stroke="none" points="308.5,-116 308.5,-134 381.5,-134 381.5,-116 308.5,-116"/>
<polygon fill="none" stroke="black" points="308.5,-116 308.5,-134 381.5,-134 381.5,-116 308.5,-116"/>
<text text-anchor="start" x="335.5" y="-122.2" font-family="Helvetica,sans-Serif" font-size="11.00">88 rows</text>
<polygon fill="#ffffff" stroke="none" points="381.5,-116 381.5,-134 429.5,-134 429.5,-116 381.5,-116"/>
<polygon fill="none" stroke="black" points="381.5,-116 381.5,-134 429.5,-134 429.5,-116 381.5,-116"/>
<text text-anchor="start" x="409.5" y="-122.2" font-family="Helvetica,sans-Serif" font-size="11.00">1 &gt;</text>
</a>
</g>
</g>
<!-- core_content -->
<g id="node2" class="node"><title>core_content</title>
<g id="a_node2"><a xlink:href="../../tables/core_content.html" xlink:title="core_content" target="_top">
<polygon fill="#ffffff" stroke="none" points="33,-203 33,-283 162,-283 162,-203 33,-203"/>
<polygon fill="#f5f5f5" stroke="none" points="33.5,-261 33.5,-283 162.5,-283 162.5,-261 33.5,-261"/>
<polygon fill="none" stroke="black" points="33.5,-261 33.5,-283 162.5,-283 162.5,-261 33.5,-261"/>
<text text-anchor="start" x="38.5" y="-270.2" font-family="Helvetica,sans-Serif" font-weight="bold" font-size="11.00">core_content</text>
<text text-anchor="start" x="123.5" y="-269.2" font-family="Helvetica,sans-Serif" font-size="11.00">[table]</text>
<polygon fill="none" stroke="black" points="33.5,-239 33.5,-261 162.5,-261 162.5,-239 33.5,-239"/>
<image xlink:href="../../images/primaryKeys.png" width="11px" height="12px" preserveAspectRatio="xMinYMin meet" x="38.5" y="-256"/>
<text text-anchor="start" x="53.5" y="-247.2" font-family="Helvetica,sans-Serif" font-size="11.00">pulp_id</text>
<polygon fill="none" stroke="black" points="33.5,-221 33.5,-239 162.5,-239 162.5,-221 33.5,-221"/>
<text text-anchor="start" x="36.5" y="-227.2" font-family="Helvetica,sans-Serif" font-size="11.00">...</text>
<polygon fill="#ffffff" stroke="none" points="33.5,-203 33.5,-221 68.5,-221 68.5,-203 33.5,-203"/>
<polygon fill="none" stroke="black" points="33.5,-203 33.5,-221 68.5,-221 68.5,-203 33.5,-203"/>
<text text-anchor="start" x="36.5" y="-209.2" font-family="Helvetica,sans-Serif" font-size="11.00"> &#160;</text>
<polygon fill="#ffffff" stroke="none" points="68.5,-203 68.5,-221 128.5,-221 128.5,-203 68.5,-203"/>
<polygon fill="none" stroke="black" points="68.5,-203 68.5,-221 128.5,-221 128.5,-203 68.5,-203"/>
<text text-anchor="start" x="82.5" y="-209.2" font-family="Helvetica,sans-Serif" font-size="11.00">88 rows</text>
<polygon fill="#ffffff" stroke="none" points="128.5,-203 128.5,-221 162.5,-221 162.5,-203 128.5,-203"/>
<polygon fill="none" stroke="black" points="128.5,-203 128.5,-221 162.5,-221 162.5,-203 128.5,-203"/>
<text text-anchor="start" x="142.5" y="-209.2" font-family="Helvetica,sans-Serif" font-size="11.00">8 &gt;</text>
</a>
</g>
</g>
<!-- ansible_collectionversion&#45;&gt;core_content -->
<g id="edge1" class="edge"><title>ansible_collectionversion:elipses:w&#45;&gt;core_content:pulp_id:e</title>
<path fill="none" stroke="black" d="M225.082,-144.432C183.543,-157.129 216.901,-250 163.5,-250"/>
<polygon fill="black" stroke="black" points="234.163,-139.146 235.252,-147.072 233.667,-147.29 232.578,-139.364 234.163,-139.146"/>
<polyline fill="none" stroke="black" points="235.5,-143 231.537,-143.545 "/>
<ellipse fill="none" stroke="black" cx="228.367" cy="-143.98" rx="3.2" ry="3.2"/>
</g>
<!-- ansible_role -->
<g id="node3" class="node"><title>ansible_role</title>
<g id="a_node3"><a xlink:href="../../tables/ansible_role.html" xlink:title="ansible_role" target="_top">
<polygon fill="#ffffff" stroke="none" points="274,-37 274,-95 391,-95 391,-37 274,-37"/>
<polygon fill="#f5f5f5" stroke="none" points="274.5,-73 274.5,-95 391.5,-95 391.5,-73 274.5,-73"/>
<polygon fill="none" stroke="black" points="274.5,-73 274.5,-95 391.5,-95 391.5,-73 274.5,-73"/>
<text text-anchor="start" x="279.5" y="-82.2" font-family="Helvetica,sans-Serif" font-weight="bold" font-size="11.00">ansible_role</text>
<text text-anchor="start" x="352.5" y="-81.2" font-family="Helvetica,sans-Serif" font-size="11.00">[table]</text>
<polygon fill="none" stroke="black" points="274.5,-55 274.5,-73 391.5,-73 391.5,-55 274.5,-55"/>
<text text-anchor="start" x="277.5" y="-61.2" font-family="Helvetica,sans-Serif" font-size="11.00">...</text>
<polygon fill="#ffffff" stroke="none" points="274.5,-37 274.5,-55 316.5,-55 316.5,-37 274.5,-37"/>
<polygon fill="none" stroke="black" points="274.5,-37 274.5,-55 316.5,-55 316.5,-37 274.5,-37"/>
<text text-anchor="start" x="277.5" y="-43.2" font-family="Helvetica,sans-Serif" font-size="11.00">&lt; 1</text>
<polygon fill="#ffffff" stroke="none" points="316.5,-37 316.5,-55 368.5,-55 368.5,-37 316.5,-37"/>
<polygon fill="none" stroke="black" points="316.5,-37 316.5,-55 368.5,-55 368.5,-37 316.5,-37"/>
<text text-anchor="start" x="329.5" y="-43.2" font-family="Helvetica,sans-Serif" font-size="11.00">0 rows</text>
<polygon fill="#ffffff" stroke="none" points="368.5,-37 368.5,-55 391.5,-55 391.5,-37 368.5,-37"/>
<polygon fill="none" stroke="black" points="368.5,-37 368.5,-55 391.5,-55 391.5,-37 368.5,-37"/>
<text text-anchor="start" x="381.5" y="-43.2" font-family="Helvetica,sans-Serif" font-size="11.00"> &#160;</text>
</a>
</g>
</g>
<!-- ansible_role&#45;&gt;core_content -->
<g id="edge2" class="edge"><title>ansible_role:elipses:w&#45;&gt;core_content:pulp_id:e</title>
<path fill="none" stroke="black" d="M263.039,-64.8293C183.6,-78.2474 255.79,-250 163.5,-250"/>
<polygon fill="black" stroke="black" points="272.386,-60.0757 273.019,-68.0507 271.424,-68.1772 270.791,-60.2022 272.386,-60.0757"/>
<polyline fill="none" stroke="black" points="273.5,-64 269.513,-64.3161 "/>
<ellipse fill="none" stroke="black" cx="266.323" cy="-64.5691" rx="3.2" ry="3.2"/>
</g>
<!-- container_blob -->
<g id="node4" class="node"><title>container_blob</title>
<g id="a_node4"><a xlink:href="../../tables/container_blob.html" xlink:title="container_blob" target="_top">
<polygon fill="#ffffff" stroke="none" points="265.5,-249 265.5,-307 399.5,-307 399.5,-249 265.5,-249"/>
<polygon fill="#f5f5f5" stroke="none" points="265.5,-285 265.5,-307 399.5,-307 399.5,-285 265.5,-285"/>
<polygon fill="none" stroke="black" points="265.5,-285 265.5,-307 399.5,-307 399.5,-285 265.5,-285"/>
<text text-anchor="start" x="270.5" y="-294.2" font-family="Helvetica,sans-Serif" font-weight="bold" font-size="11.00">container_blob</text>
<text text-anchor="start" x="360.5" y="-293.2" font-family="Helvetica,sans-Serif" font-size="11.00">[table]</text>
<polygon fill="none" stroke="black" points="265.5,-267 265.5,-285 399.5,-285 399.5,-267 265.5,-267"/>
<text text-anchor="start" x="268.5" y="-273.2" font-family="Helvetica,sans-Serif" font-size="11.00">...</text>
<polygon fill="#ffffff" stroke="none" points="265.5,-249 265.5,-267 311.5,-267 311.5,-249 265.5,-249"/>
<polygon fill="none" stroke="black" points="265.5,-249 265.5,-267 311.5,-267 311.5,-249 265.5,-249"/>
<text text-anchor="start" x="268.5" y="-255.2" font-family="Helvetica,sans-Serif" font-size="11.00">&lt; 1</text>
<polygon fill="#ffffff" stroke="none" points="311.5,-249 311.5,-267 364.5,-267 364.5,-249 311.5,-249"/>
<polygon fill="none" stroke="black" points="311.5,-249 311.5,-267 364.5,-267 364.5,-249 311.5,-249"/>
<text text-anchor="start" x="325.5" y="-255.2" font-family="Helvetica,sans-Serif" font-size="11.00">0 rows</text>
<polygon fill="#ffffff" stroke="none" points="364.5,-249 364.5,-267 399.5,-267 399.5,-249 364.5,-249"/>
<polygon fill="none" stroke="black" points="364.5,-249 364.5,-267 399.5,-267 399.5,-249 364.5,-249"/>
<text text-anchor="start" x="379.5" y="-255.2" font-family="Helvetica,sans-Serif" font-size="11.00">2 &gt;</text>
</a>
</g>
</g>
<!-- container_blob&#45;&gt;core_content -->
<g id="edge3" class="edge"><title>container_blob:elipses:w&#45;&gt;core_content:pulp_id:e</title>
<path fill="none" stroke="black" d="M253.819,-275.504C216.531,-271.909 206.05,-250 163.5,-250"/>
<polygon fill="black" stroke="black" points="263.887,-271.967 263.515,-279.959 261.917,-279.884 262.288,-271.893 263.887,-271.967"/>
<polyline fill="none" stroke="black" points="264.5,-276 260.504,-275.814 "/>
<ellipse fill="none" stroke="black" cx="257.308" cy="-275.666" rx="3.2" ry="3.2"/>
</g>
<!-- container_manifest -->
<g id="node5" class="node"><title>container_manifest</title>
<g id="a_node5"><a xlink:href="../../tables/container_manifest.html" xlink:title="container_manifest" target="_top">
<polygon fill="#ffffff" stroke="none" points="537,-222 537,-280 697,-280 697,-222 537,-222"/>
<polygon fill="#f5f5f5" stroke="none" points="537,-258 537,-280 697,-280 697,-258 537,-258"/>
<polygon fill="none" stroke="black" points="537,-258 537,-280 697,-280 697,-258 537,-258"/>
<text text-anchor="start" x="542" y="-267.2" font-family="Helvetica,sans-Serif" font-weight="bold" font-size="11.00">container_manifest</text>
<text text-anchor="start" x="658" y="-266.2" font-family="Helvetica,sans-Serif" font-size="11.00">[table]</text>
<polygon fill="none" stroke="black" points="537,-240 537,-258 697,-258 697,-240 537,-240"/>
<text text-anchor="start" x="540" y="-246.2" font-family="Helvetica,sans-Serif" font-size="11.00">...</text>
<polygon fill="#ffffff" stroke="none" points="537,-222 537,-240 596,-240 596,-222 537,-222"/>
<polygon fill="none" stroke="black" points="537,-222 537,-240 596,-240 596,-222 537,-222"/>
<text text-anchor="start" x="540" y="-228.2" font-family="Helvetica,sans-Serif" font-size="11.00">&lt; 2</text>
<polygon fill="#ffffff" stroke="none" points="596,-222 596,-240 656,-240 656,-222 596,-222"/>
<polygon fill="none" stroke="black" points="596,-222 596,-240 656,-240 656,-222 596,-222"/>
<text text-anchor="start" x="617" y="-228.2" font-family="Helvetica,sans-Serif" font-size="11.00">0 rows</text>
<polygon fill="#ffffff" stroke="none" points="656,-222 656,-240 697,-240 697,-222 656,-222"/>
<polygon fill="none" stroke="black" points="656,-222 656,-240 697,-240 697,-222 656,-222"/>
<text text-anchor="start" x="677" y="-228.2" font-family="Helvetica,sans-Serif" font-size="11.00">4 &gt;</text>
</a>
</g>
</g>
<!-- container_manifest&#45;&gt;core_content -->
<g id="edge5" class="edge"><title>container_manifest:elipses:w&#45;&gt;core_content:pulp_id:e</title>
<path fill="none" stroke="black" d="M525.291,-248.82C489.671,-247.575 477.404,-240.238 437,-238 344.253,-232.863 320.496,-229.469 228,-238 198.965,-240.678 192.659,-250 163.5,-250"/>
<polygon fill="black" stroke="black" points="535.267,-244.987 535.133,-252.986 533.533,-252.959 533.668,-244.96 535.267,-244.987"/>
<polyline fill="none" stroke="black" points="536,-249 532.001,-248.933 "/>
<ellipse fill="none" stroke="black" cx="528.801" cy="-248.879" rx="3.2" ry="3.2"/>
</g>
<!-- container_manifest&#45;&gt;container_blob -->
<g id="edge4" class="edge"><title>container_manifest:elipses:w&#45;&gt;container_blob:elipses:e</title>
<path fill="none" stroke="black" d="M521.502,-249.539C472.119,-253.345 456.749,-276 400.5,-276"/>
<polygon fill="black" stroke="black" points="528.006,-249.297 536.134,-252.598 532.003,-249.149 536,-249 536,-249 536,-249 532.003,-249.149 535.866,-245.402 528.006,-249.297 528.006,-249.297"/>
<ellipse fill="none" stroke="black" cx="524.808" cy="-249.416" rx="3.2" ry="3.2"/>
</g>
<!-- container_tag -->
<g id="node6" class="node"><title>container_tag</title>
<g id="a_node6"><a xlink:href="../../tables/container_tag.html" xlink:title="container_tag" target="_top">
<polygon fill="#ffffff" stroke="none" points="805,-196 805,-254 932,-254 932,-196 805,-196"/>
<polygon fill="#f5f5f5" stroke="none" points="805.5,-232 805.5,-254 932.5,-254 932.5,-232 805.5,-232"/>
<polygon fill="none" stroke="black" points="805.5,-232 805.5,-254 932.5,-254 932.5,-232 805.5,-232"/>
<text text-anchor="start" x="810.5" y="-241.2" font-family="Helvetica,sans-Serif" font-weight="bold" font-size="11.00">container_tag</text>
<text text-anchor="start" x="893.5" y="-240.2" font-family="Helvetica,sans-Serif" font-size="11.00">[table]</text>
<polygon fill="none" stroke="black" points="805.5,-214 805.5,-232 932.5,-232 932.5,-214 805.5,-214"/>
<text text-anchor="start" x="808.5" y="-220.2" font-family="Helvetica,sans-Serif" font-size="11.00">...</text>
<polygon fill="#ffffff" stroke="none" points="805.5,-196 805.5,-214 852.5,-214 852.5,-196 805.5,-196"/>
<polygon fill="none" stroke="black" points="805.5,-196 805.5,-214 852.5,-214 852.5,-196 805.5,-196"/>
<text text-anchor="start" x="808.5" y="-202.2" font-family="Helvetica,sans-Serif" font-size="11.00">&lt; 2</text>
<polygon fill="#ffffff" stroke="none" points="852.5,-196 852.5,-214 906.5,-214 906.5,-196 852.5,-196"/>
<polygon fill="none" stroke="black" points="852.5,-196 852.5,-214 906.5,-214 906.5,-196 852.5,-196"/>
<text text-anchor="start" x="867.5" y="-202.2" font-family="Helvetica,sans-Serif" font-size="11.00">0 rows</text>
<polygon fill="#ffffff" stroke="none" points="906.5,-196 906.5,-214 932.5,-214 932.5,-196 906.5,-196"/>
<polygon fill="none" stroke="black" points="906.5,-196 906.5,-214 932.5,-214 932.5,-196 906.5,-196"/>
<text text-anchor="start" x="922.5" y="-202.2" font-family="Helvetica,sans-Serif" font-size="11.00"> &#160;</text>
</a>
</g>
</g>
<!-- container_tag&#45;&gt;core_content -->
<g id="edge6" class="edge"><title>container_tag:elipses:w&#45;&gt;core_content:pulp_id:e</title>
<path fill="none" stroke="black" d="M794.098,-221.831C783.611,-219.245 778.515,-213.105 764,-211 528.096,-176.786 462.104,-185.095 228,-230 198.524,-235.654 193.513,-250 163.5,-250"/>
<polygon fill="black" stroke="black" points="804.152,-218.936 803.258,-226.886 801.668,-226.707 802.562,-218.757 804.152,-218.936"/>
<polyline fill="none" stroke="black" points="804.5,-223 800.525,-222.553 "/>
<ellipse fill="none" stroke="black" cx="797.345" cy="-222.196" rx="3.2" ry="3.2"/>
</g>
<!-- container_tag&#45;&gt;container_manifest -->
<g id="edge7" class="edge"><title>container_tag:elipses:w&#45;&gt;container_manifest:elipses:e</title>
<path fill="none" stroke="black" d="M789.833,-223.865C753.322,-228.376 741.394,-249 698,-249"/>
<polygon fill="black" stroke="black" points="796.514,-223.471 804.712,-226.594 800.507,-223.236 804.5,-223 804.5,-223 804.5,-223 800.507,-223.236 804.288,-219.406 796.514,-223.471 796.514,-223.471"/>
<ellipse fill="none" stroke="black" cx="793.319" cy="-223.659" rx="3.2" ry="3.2"/>
</g>
<!-- core_contentartifact -->
<g id="node7" class="node"><title>core_contentartifact</title>
<g id="a_node7"><a xlink:href="../../tables/core_contentartifact.html" xlink:title="core_contentartifact" target="_top">
<polygon fill="#ffffff" stroke="none" points="249.5,-355 249.5,-413 415.5,-413 415.5,-355 249.5,-355"/>
<polygon fill="#f5f5f5" stroke="none" points="249.5,-391 249.5,-413 415.5,-413 415.5,-391 249.5,-391"/>
<polygon fill="none" stroke="black" points="249.5,-391 249.5,-413 415.5,-413 415.5,-391 249.5,-391"/>
<text text-anchor="start" x="254.5" y="-400.2" font-family="Helvetica,sans-Serif" font-weight="bold" font-size="11.00">core_contentartifact</text>
<text text-anchor="start" x="376.5" y="-399.2" font-family="Helvetica,sans-Serif" font-size="11.00">[table]</text>
<polygon fill="none" stroke="black" points="249.5,-373 249.5,-391 415.5,-391 415.5,-373 249.5,-373"/>
<text text-anchor="start" x="252.5" y="-379.2" font-family="Helvetica,sans-Serif" font-size="11.00">...</text>
<polygon fill="#ffffff" stroke="none" points="249.5,-355 249.5,-373 307.5,-373 307.5,-355 249.5,-355"/>
<polygon fill="none" stroke="black" points="249.5,-355 249.5,-373 307.5,-373 307.5,-355 249.5,-355"/>
<text text-anchor="start" x="252.5" y="-361.2" font-family="Helvetica,sans-Serif" font-size="11.00">&lt; 2</text>
<polygon fill="#ffffff" stroke="none" points="307.5,-355 307.5,-373 374.5,-373 374.5,-355 307.5,-355"/>
<polygon fill="none" stroke="black" points="307.5,-355 307.5,-373 374.5,-373 374.5,-355 307.5,-355"/>
<text text-anchor="start" x="328.5" y="-361.2" font-family="Helvetica,sans-Serif" font-size="11.00">88 rows</text>
<polygon fill="#ffffff" stroke="none" points="374.5,-355 374.5,-373 415.5,-373 415.5,-355 374.5,-355"/>
<polygon fill="none" stroke="black" points="374.5,-355 374.5,-373 415.5,-373 415.5,-355 374.5,-355"/>
<text text-anchor="start" x="395.5" y="-361.2" font-family="Helvetica,sans-Serif" font-size="11.00">2 &gt;</text>
</a>
</g>
</g>
<!-- core_contentartifact&#45;&gt;core_content -->
<g id="edge8" class="edge"><title>core_contentartifact:elipses:w&#45;&gt;core_content:pulp_id:e</title>
<path fill="none" stroke="black" d="M234.001,-379.596C186.662,-361.706 227.69,-250 163.5,-250"/>
<polygon fill="black" stroke="black" points="240.608,-380.691 247.911,-385.552 244.554,-381.346 248.5,-382 248.5,-382 248.5,-382 244.554,-381.346 249.089,-378.448 240.608,-380.691 240.608,-380.691"/>
<ellipse fill="none" stroke="black" cx="237.451" cy="-380.168" rx="3.2" ry="3.2"/>
</g>
<!-- core_publication -->
<g id="node8" class="node"><title>core_publication</title>
<g id="a_node8"><a xlink:href="../../tables/core_publication.html" xlink:title="core_publication" target="_top">
<polygon fill="#ffffff" stroke="none" points="258.5,-513 258.5,-637 406.5,-637 406.5,-513 258.5,-513"/>
<polygon fill="#f5f5f5" stroke="none" points="258.5,-615 258.5,-637 406.5,-637 406.5,-615 258.5,-615"/>
<polygon fill="none" stroke="black" points="258.5,-615 258.5,-637 406.5,-637 406.5,-615 258.5,-615"/>
<text text-anchor="start" x="263.5" y="-624.2" font-family="Helvetica,sans-Serif" font-weight="bold" font-size="11.00">core_publication</text>
<text text-anchor="start" x="367.5" y="-623.2" font-family="Helvetica,sans-Serif" font-size="11.00">[table]</text>
<polygon fill="none" stroke="black" points="258.5,-593 258.5,-615 406.5,-615 406.5,-593 258.5,-593"/>
<image xlink:href="../../images/primaryKeys.png" width="11px" height="12px" preserveAspectRatio="xMinYMin meet" x="263.5" y="-610"/>
<text text-anchor="start" x="278.5" y="-601.2" font-family="Helvetica,sans-Serif" font-size="11.00">pulp_id</text>
<polygon fill="#ffffff" stroke="none" points="258.5,-571 258.5,-593 406.5,-593 406.5,-571 258.5,-571"/>
<polygon fill="none" stroke="black" points="258.5,-571 258.5,-593 406.5,-593 406.5,-571 258.5,-571"/>
<text text-anchor="start" x="278.5" y="-579.2" font-family="Helvetica,sans-Serif" font-size="11.00">complete</text>
<polygon fill="#ffffff" stroke="none" points="258.5,-549 258.5,-571 406.5,-571 406.5,-549 258.5,-549"/>
<polygon fill="none" stroke="black" points="258.5,-549 258.5,-571 406.5,-571 406.5,-549 258.5,-549"/>
<image xlink:href="../../images/foreignKeys.png" width="11px" height="12px" preserveAspectRatio="xMinYMin meet" x="263.5" y="-566"/>
<text text-anchor="start" x="278.5" y="-557.2" font-family="Helvetica,sans-Serif" font-size="11.00">repository_version_id</text>
<polygon fill="none" stroke="black" points="258.5,-531 258.5,-549 406.5,-549 406.5,-531 258.5,-531"/>
<text text-anchor="start" x="261.5" y="-537.2" font-family="Helvetica,sans-Serif" font-size="11.00">...</text>
<polygon fill="#ffffff" stroke="none" points="258.5,-513 258.5,-531 311.5,-531 311.5,-513 258.5,-513"/>
<polygon fill="none" stroke="black" points="258.5,-513 258.5,-531 311.5,-531 311.5,-513 258.5,-513"/>
<text text-anchor="start" x="261.5" y="-519.2" font-family="Helvetica,sans-Serif" font-size="11.00">&lt; 1</text>
<polygon fill="#ffffff" stroke="none" points="311.5,-513 311.5,-531 368.5,-531 368.5,-513 311.5,-513"/>
<polygon fill="none" stroke="black" points="311.5,-513 311.5,-531 368.5,-531 368.5,-513 311.5,-513"/>
<text text-anchor="start" x="329.5" y="-519.2" font-family="Helvetica,sans-Serif" font-size="11.00">0 rows</text>
<polygon fill="#ffffff" stroke="none" points="368.5,-513 368.5,-531 406.5,-531 406.5,-513 368.5,-513"/>
<polygon fill="none" stroke="black" points="368.5,-513 368.5,-531 406.5,-531 406.5,-513 368.5,-513"/>
<text text-anchor="start" x="386.5" y="-519.2" font-family="Helvetica,sans-Serif" font-size="11.00">2 &gt;</text>
</a>
</g>
</g>
<!-- core_repositoryversion -->
<g id="node9" class="node"><title>core_repositoryversion</title>
<g id="a_node9"><a xlink:href="../../tables/core_repositoryversion.html" xlink:title="core_repositoryversion" target="_top">
<polygon fill="#ffffff" stroke="none" points="8,-434 8,-492 187,-492 187,-434 8,-434"/>
<polygon fill="#f5f5f5" stroke="none" points="8.5,-470 8.5,-492 187.5,-492 187.5,-470 8.5,-470"/>
<polygon fill="none" stroke="black" points="8.5,-470 8.5,-492 187.5,-492 187.5,-470 8.5,-470"/>
<text text-anchor="start" x="13.5" y="-479.2" font-family="Helvetica,sans-Serif" font-weight="bold" font-size="11.00">core_repositoryversion</text>
<text text-anchor="start" x="148.5" y="-478.2" font-family="Helvetica,sans-Serif" font-size="11.00">[table]</text>
<polygon fill="none" stroke="black" points="8.5,-452 8.5,-470 187.5,-470 187.5,-452 8.5,-452"/>
<text text-anchor="start" x="11.5" y="-458.2" font-family="Helvetica,sans-Serif" font-size="11.00">...</text>
<polygon fill="#ffffff" stroke="none" points="8.5,-434 8.5,-452 70.5,-452 70.5,-434 8.5,-434"/>
<polygon fill="none" stroke="black" points="8.5,-434 8.5,-452 70.5,-452 70.5,-434 8.5,-434"/>
<text text-anchor="start" x="11.5" y="-440.2" font-family="Helvetica,sans-Serif" font-size="11.00">&lt; 2</text>
<polygon fill="#ffffff" stroke="none" points="70.5,-434 70.5,-452 144.5,-452 144.5,-434 70.5,-434"/>
<polygon fill="none" stroke="black" points="70.5,-434 70.5,-452 144.5,-452 144.5,-434 70.5,-434"/>
<text text-anchor="start" x="92.5" y="-440.2" font-family="Helvetica,sans-Serif" font-size="11.00">162 rows</text>
<polygon fill="#ffffff" stroke="none" points="144.5,-434 144.5,-452 187.5,-452 187.5,-434 144.5,-434"/>
<polygon fill="none" stroke="black" points="144.5,-434 144.5,-452 187.5,-452 187.5,-434 144.5,-434"/>
<text text-anchor="start" x="167.5" y="-440.2" font-family="Helvetica,sans-Serif" font-size="11.00">7 &gt;</text>
</a>
</g>
</g>
<!-- core_publication&#45;&gt;core_repositoryversion -->
<g id="edge9" class="edge"><title>core_publication:repository_version_id:w&#45;&gt;core_repositoryversion:elipses:e</title>
<path fill="none" stroke="black" d="M243.381,-556.929C210.917,-540.218 236.476,-461 188.5,-461"/>
<polygon fill="black" stroke="black" points="249.683,-558.299 256.735,-563.518 253.591,-559.15 257.5,-560 257.5,-560 257.5,-560 253.591,-559.15 258.265,-556.482 249.683,-558.299 249.683,-558.299"/>
<ellipse fill="none" stroke="black" cx="246.556" cy="-557.619" rx="3.2" ry="3.2"/>
</g>
<!-- core_publishedartifact -->
<g id="node10" class="node"><title>core_publishedartifact</title>
<g id="a_node10"><a xlink:href="../../tables/core_publishedartifact.html" xlink:title="core_publishedartifact" target="_top">
<polygon fill="#ffffff" stroke="none" points="528,-540 528,-598 706,-598 706,-540 528,-540"/>
<polygon fill="#f5f5f5" stroke="none" points="528,-576 528,-598 706,-598 706,-576 528,-576"/>
<polygon fill="none" stroke="black" points="528,-576 528,-598 706,-598 706,-576 528,-576"/>
<text text-anchor="start" x="533" y="-585.2" font-family="Helvetica,sans-Serif" font-weight="bold" font-size="11.00">core_publishedartifact</text>
<text text-anchor="start" x="667" y="-584.2" font-family="Helvetica,sans-Serif" font-size="11.00">[table]</text>
<polygon fill="none" stroke="black" points="528,-558 528,-576 706,-576 706,-558 528,-558"/>
<text text-anchor="start" x="531" y="-564.2" font-family="Helvetica,sans-Serif" font-size="11.00">...</text>
<polygon fill="#ffffff" stroke="none" points="528,-540 528,-558 601,-558 601,-540 528,-540"/>
<polygon fill="none" stroke="black" points="528,-540 528,-558 601,-558 601,-540 528,-540"/>
<text text-anchor="start" x="531" y="-546.2" font-family="Helvetica,sans-Serif" font-size="11.00">&lt; 2</text>
<polygon fill="#ffffff" stroke="none" points="601,-540 601,-558 668,-558 668,-540 601,-540"/>
<polygon fill="none" stroke="black" points="601,-540 601,-558 668,-558 668,-540 601,-540"/>
<text text-anchor="start" x="629" y="-546.2" font-family="Helvetica,sans-Serif" font-size="11.00">0 rows</text>
<polygon fill="#ffffff" stroke="none" points="668,-540 668,-558 706,-558 706,-540 668,-540"/>
<polygon fill="none" stroke="black" points="668,-540 668,-558 706,-558 706,-540 668,-540"/>
<text text-anchor="start" x="696" y="-546.2" font-family="Helvetica,sans-Serif" font-size="11.00"> &#160;</text>
</a>
</g>
</g>
<!-- core_publishedartifact&#45;&gt;core_contentartifact -->
<g id="edge10" class="edge"><title>core_publishedartifact:elipses:w&#45;&gt;core_contentartifact:elipses:e</title>
<path fill="none" stroke="black" d="M513.366,-561.663C475.78,-531.33 459.523,-382 416.5,-382"/>
<polygon fill="black" stroke="black" points="519.55,-564.084 525.688,-570.352 523.275,-565.542 527,-567 527,-567 527,-567 523.275,-565.542 528.312,-563.648 519.55,-564.084 519.55,-564.084"/>
<ellipse fill="none" stroke="black" cx="516.571" cy="-562.917" rx="3.20001" ry="3.20001"/>
</g>
<!-- core_publishedartifact&#45;&gt;core_publication -->
<g id="edge11" class="edge"><title>core_publishedartifact:elipses:w&#45;&gt;core_publication:pulp_id:e</title>
<path fill="none" stroke="black" d="M512.532,-567.915C469.429,-573.612 457.886,-604 407.5,-604"/>
<polygon fill="black" stroke="black" points="519.016,-567.505 527.227,-570.593 523.008,-567.252 527,-567 527,-567 527,-567 523.008,-567.252 526.773,-563.407 519.016,-567.505 519.016,-567.505"/>
<ellipse fill="none" stroke="black" cx="515.822" cy="-567.707" rx="3.2" ry="3.2"/>
</g>
<!-- core_publishedmetadata -->
<g id="node11" class="node"><title>core_publishedmetadata</title>
<g id="a_node11"><a xlink:href="../../tables/core_publishedmetadata.html" xlink:title="core_publishedmetadata" target="_top">
<polygon fill="#ffffff" stroke="none" points="478,-337 478,-447 756,-447 756,-337 478,-337"/>
<polygon fill="#f5f5f5" stroke="none" points="480,-423 480,-445 754,-445 754,-423 480,-423"/>
<polygon fill="none" stroke="black" points="480,-423 480,-445 754,-445 754,-423 480,-423"/>
<text text-anchor="start" x="485" y="-432.2" font-family="Helvetica,sans-Serif" font-weight="bold" font-size="11.00">core_publishedmetadata</text>
<text text-anchor="start" x="715" y="-431.2" font-family="Helvetica,sans-Serif" font-size="11.00">[table]</text>
<polygon fill="#ffffff" stroke="none" points="480,-401 480,-423 649,-423 649,-401 480,-401"/>
<polygon fill="none" stroke="black" points="480,-401 480,-423 649,-423 649,-401 480,-401"/>
<text text-anchor="start" x="500" y="-409.2" font-family="Helvetica,sans-Serif" font-size="11.00">relative_path</text>
<polygon fill="none" stroke="black" points="649,-401 649,-423 754,-423 754,-401 649,-401"/>
<text text-anchor="start" x="652" y="-409.2" font-family="Helvetica,sans-Serif" font-size="11.00">text[2147483647]</text>
<polygon fill="#ffffff" stroke="none" points="480,-379 480,-401 649,-401 649,-379 480,-379"/>
<polygon fill="none" stroke="black" points="480,-379 480,-401 649,-401 649,-379 480,-379"/>
<image xlink:href="../../images/foreignKeys.png" width="11px" height="12px" preserveAspectRatio="xMinYMin meet" x="485" y="-396"/>
<text text-anchor="start" x="500" y="-387.2" font-family="Helvetica,sans-Serif" font-size="11.00">publication_id</text>
<polygon fill="none" stroke="black" points="649,-379 649,-401 754,-401 754,-379 649,-379"/>
<text text-anchor="start" x="652" y="-387.2" font-family="Helvetica,sans-Serif" font-size="11.00">uuid[2147483647]</text>
<polygon fill="none" stroke="black" points="480,-357 480,-379 649,-379 649,-357 480,-357"/>
<image xlink:href="../../images/primaryKeys.png" width="11px" height="12px" preserveAspectRatio="xMinYMin meet" x="485" y="-374"/>
<text text-anchor="start" x="500" y="-365.2" font-family="Helvetica,sans-Serif" font-size="11.00">content_ptr_id</text>
<polygon fill="none" stroke="black" points="649,-357 649,-379 754,-379 754,-357 649,-357"/>
<text text-anchor="start" x="652" y="-365.2" font-family="Helvetica,sans-Serif" font-size="11.00">uuid[2147483647]</text>
<polygon fill="#ffffff" stroke="none" points="480,-339 480,-357 555,-357 555,-339 480,-339"/>
<polygon fill="none" stroke="black" points="480,-339 480,-357 555,-357 555,-339 480,-339"/>
<text text-anchor="start" x="483" y="-345.2" font-family="Helvetica,sans-Serif" font-size="11.00">&lt; 2</text>
<polygon fill="#ffffff" stroke="none" points="555,-339 555,-357 649,-357 649,-339 555,-339"/>
<polygon fill="none" stroke="black" points="555,-339 555,-357 649,-357 649,-339 555,-339"/>
<text text-anchor="start" x="610" y="-345.2" font-family="Helvetica,sans-Serif" font-size="11.00">0 rows</text>
<polygon fill="#ffffff" stroke="none" points="649,-339 649,-357 754,-357 754,-339 649,-339"/>
<polygon fill="none" stroke="black" points="649,-339 649,-357 754,-357 754,-339 649,-339"/>
<text text-anchor="start" x="734" y="-345.2" font-family="Helvetica,sans-Serif" font-size="11.00">0 &gt;</text>
<polygon fill="none" stroke="black" stroke-width="2" points="479,-338 479,-446 755,-446 755,-338 479,-338"/>
</a>
</g>
</g>
<!-- core_publishedmetadata&#45;&gt;core_content -->
<g id="edge12" class="edge"><title>core_publishedmetadata:content_ptr_id:w&#45;&gt;core_content:pulp_id:e</title>
<path fill="none" stroke="black" d="M468.608,-366.317C456.776,-361.964 453.284,-350.302 437,-345 347.94,-316.005 311.499,-360.429 228,-318 190.864,-299.13 205.155,-250 163.5,-250"/>
<polygon fill="black" stroke="black" points="478.85,-363.924 477.571,-371.821 475.991,-371.565 477.27,-363.668 478.85,-363.924"/>
<polyline fill="none" stroke="black" points="479,-368 475.051,-367.361 "/>
<ellipse fill="none" stroke="black" cx="471.893" cy="-366.849" rx="3.2" ry="3.2"/>
</g>
<!-- core_publishedmetadata&#45;&gt;core_publication -->
<g id="edge13" class="edge"><title>core_publishedmetadata:publication_id:w&#45;&gt;core_publication:pulp_id:e</title>
<path fill="none" stroke="black" d="M464.531,-391.85C392.151,-412.766 502.295,-604 407.5,-604"/>
<polygon fill="black" stroke="black" points="471.065,-391.015 479.457,-393.571 475.032,-390.507 479,-390 479,-390 479,-390 475.032,-390.507 478.543,-386.429 471.065,-391.015 471.065,-391.015"/>
<ellipse fill="none" stroke="black" cx="467.89" cy="-391.421" rx="3.2" ry="3.2"/>
</g>
<!-- core_repositorycontent -->
<g id="node12" class="node"><title>core_repositorycontent</title>
<g id="a_node12"><a xlink:href="../../tables/core_repositorycontent.html" xlink:title="core_repositorycontent" target="_top">
<polygon fill="#ffffff" stroke="none" points="241.5,-434 241.5,-492 423.5,-492 423.5,-434 241.5,-434"/>
<polygon fill="#f5f5f5" stroke="none" points="241.5,-470 241.5,-492 423.5,-492 423.5,-470 241.5,-470"/>
<polygon fill="none" stroke="black" points="241.5,-470 241.5,-492 423.5,-492 423.5,-470 241.5,-470"/>
<text text-anchor="start" x="246.5" y="-479.2" font-family="Helvetica,sans-Serif" font-weight="bold" font-size="11.00">core_repositorycontent</text>
<text text-anchor="start" x="384.5" y="-478.2" font-family="Helvetica,sans-Serif" font-size="11.00">[table]</text>
<polygon fill="none" stroke="black" points="241.5,-452 241.5,-470 423.5,-470 423.5,-452 241.5,-452"/>
<text text-anchor="start" x="244.5" y="-458.2" font-family="Helvetica,sans-Serif" font-size="11.00">...</text>
<polygon fill="#ffffff" stroke="none" points="241.5,-434 241.5,-452 309.5,-452 309.5,-434 241.5,-434"/>
<polygon fill="none" stroke="black" points="241.5,-434 241.5,-452 309.5,-452 309.5,-434 241.5,-434"/>
<text text-anchor="start" x="244.5" y="-440.2" font-family="Helvetica,sans-Serif" font-size="11.00">&lt; 4</text>
<polygon fill="#ffffff" stroke="none" points="309.5,-434 309.5,-452 387.5,-452 387.5,-434 309.5,-434"/>
<polygon fill="none" stroke="black" points="309.5,-434 309.5,-452 387.5,-452 387.5,-434 309.5,-434"/>
<text text-anchor="start" x="335.5" y="-440.2" font-family="Helvetica,sans-Serif" font-size="11.00">786 rows</text>
<polygon fill="#ffffff" stroke="none" points="387.5,-434 387.5,-452 423.5,-452 423.5,-434 387.5,-434"/>
<polygon fill="none" stroke="black" points="387.5,-434 387.5,-452 423.5,-452 423.5,-434 387.5,-434"/>
<text text-anchor="start" x="413.5" y="-440.2" font-family="Helvetica,sans-Serif" font-size="11.00"> &#160;</text>
</a>
</g>
</g>
<!-- core_repositorycontent&#45;&gt;core_content -->
<g id="edge14" class="edge"><title>core_repositorycontent:elipses:w&#45;&gt;core_content:pulp_id:e</title>
<path fill="none" stroke="black" d="M226.045,-459.176C153.423,-438.553 257.868,-250 163.5,-250"/>
<polygon fill="black" stroke="black" points="232.563,-459.998 240.049,-464.572 236.531,-460.499 240.5,-461 240.5,-461 240.5,-461 236.531,-460.499 240.951,-457.428 232.563,-459.998 232.563,-459.998"/>
<ellipse fill="none" stroke="black" cx="229.388" cy="-459.598" rx="3.2" ry="3.2"/>
</g>
<!-- core_repositorycontent&#45;&gt;core_repositoryversion -->
<g id="edge15" class="edge"><title>core_repositorycontent:elipses:w&#45;&gt;core_repositoryversion:elipses:e</title>
<path fill="none" stroke="black" d="M226.266,-457.696C213.574,-455.352 206.014,-456.453 188.5,-461"/>
<polygon fill="black" stroke="black" points="232.707,-459.191 239.686,-464.507 236.604,-460.096 240.5,-461 240.5,-461 240.5,-461 236.604,-460.096 241.314,-457.493 232.707,-459.191 232.707,-459.191"/>
<ellipse fill="none" stroke="black" cx="229.59" cy="-458.468" rx="3.2" ry="3.2"/>
</g>
<!-- core_repositorycontent&#45;&gt;core_repositoryversion -->
<g id="edge16" class="edge"><title>core_repositorycontent:elipses:w&#45;&gt;core_repositoryversion:elipses:e</title>
<path fill="none" stroke="black" d="M226.266,-464.854C213.574,-467.589 206.014,-466.305 188.5,-461"/>
<polygon fill="black" stroke="black" points="232.778,-463.091 241.441,-464.475 236.639,-462.045 240.5,-461 240.5,-461 240.5,-461 236.639,-462.045 239.559,-457.525 232.778,-463.091 232.778,-463.091"/>
<ellipse fill="none" stroke="black" cx="229.689" cy="-463.927" rx="3.2" ry="3.2"/>
</g>
</g>
</svg>
