<?xml version="1.0" encoding="UTF-8" standalone="no"?>
<!DOCTYPE svg PUBLIC "-//W3C//DTD SVG 1.1//EN"
 "http://www.w3.org/Graphics/SVG/1.1/DTD/svg11.dtd">
<!-- Generated by graphviz version 2.38.0 (20140413.2041)
 -->
<!-- Title: oneDegreeRelationshipsDiagram Pages: 1 -->
<svg width="441pt" height="241pt"
 viewBox="0.00 0.00 441.00 241.00" xmlns="http://www.w3.org/2000/svg" xmlns:xlink="http://www.w3.org/1999/xlink">
<g id="graph0" class="graph" transform="scale(1 1) rotate(0) translate(4 237)">
<title>oneDegreeRelationshipsDiagram</title>
<polygon fill="#ffffff" stroke="none" points="-4,4 -4,-237 437,-237 437,4 -4,4"/>
<text text-anchor="middle" x="74.5" y="-7.2" font-family="Helvetica,sans-Serif" font-size="11.00">Generated by SchemaSpy</text>
<!-- core_uploadchunk -->
<g id="node1" class="node"><title>core_uploadchunk</title>
<g id="a_node1"><a xlink:href="../../tables/core_uploadchunk.html" xlink:title="core_uploadchunk" target="_top">
<polygon fill="#ffffff" stroke="none" points="186,-53 186,-229 425,-229 425,-53 186,-53"/>
<polygon fill="#f5f5f5" stroke="none" points="188.5,-205 188.5,-227 423.5,-227 423.5,-205 188.5,-205"/>
<polygon fill="none" stroke="black" points="188.5,-205 188.5,-227 423.5,-227 423.5,-205 188.5,-205"/>
<text text-anchor="start" x="193.5" y="-214.2" font-family="Helvetica,sans-Serif" font-weight="bold" font-size="11.00">core_uploadchunk</text>
<text text-anchor="start" x="384.5" y="-213.2" font-family="Helvetica,sans-Serif" font-size="11.00">[table]</text>
<polygon fill="none" stroke="black" points="188.5,-183 188.5,-205 318.5,-205 318.5,-183 188.5,-183"/>
<image xlink:href="../../images/primaryKeys.png" width="11px" height="12px" preserveAspectRatio="xMinYMin meet" x="193.5" y="-200"/>
<text text-anchor="start" x="208.5" y="-191.2" font-family="Helvetica,sans-Serif" font-size="11.00">pulp_id</text>
<polygon fill="none" stroke="black" points="318.5,-183 318.5,-205 423.5,-205 423.5,-183 318.5,-183"/>
<text text-anchor="start" x="321.5" y="-191.2" font-family="Helvetica,sans-Serif" font-size="11.00">uuid[2147483647]</text>
<polygon fill="none" stroke="black" points="188.5,-161 188.5,-183 318.5,-183 318.5,-161 188.5,-161"/>
<text text-anchor="start" x="208.5" y="-169.2" font-family="Helvetica,sans-Serif" font-size="11.00">pulp_created</text>
<polygon fill="none" stroke="black" points="318.5,-161 318.5,-183 423.5,-183 423.5,-161 318.5,-161"/>
<text text-anchor="start" x="321.5" y="-169.2" font-family="Helvetica,sans-Serif" font-size="11.00">timestamptz[35,6]</text>
<polygon fill="none" stroke="black" points="188.5,-139 188.5,-161 318.5,-161 318.5,-139 188.5,-139"/>
<text text-anchor="start" x="208.5" y="-147.2" font-family="Helvetica,sans-Serif" font-size="11.00">pulp_last_updated</text>
<polygon fill="none" stroke="black" points="318.5,-139 318.5,-161 423.5,-161 423.5,-139 318.5,-139"/>
<text text-anchor="start" x="321.5" y="-147.2" font-family="Helvetica,sans-Serif" font-size="11.00">timestamptz[35,6]</text>
<polygon fill="none" stroke="black" points="188.5,-117 188.5,-139 318.5,-139 318.5,-117 188.5,-117"/>
<text text-anchor="start" x="208.5" y="-125.2" font-family="Helvetica,sans-Serif" font-size="11.00">offset</text>
<polygon fill="none" stroke="black" points="318.5,-117 318.5,-139 423.5,-139 423.5,-117 318.5,-117"/>
<text text-anchor="start" x="321.5" y="-125.2" font-family="Helvetica,sans-Serif" font-size="11.00">int8[19]</text>
<polygon fill="none" stroke="black" points="188.5,-95 188.5,-117 318.5,-117 318.5,-95 188.5,-95"/>
<text text-anchor="start" x="208.5" y="-103.2" font-family="Helvetica,sans-Serif" font-size="11.00">size</text>
<polygon fill="none" stroke="black" points="318.5,-95 318.5,-117 423.5,-117 423.5,-95 318.5,-95"/>
<text text-anchor="start" x="321.5" y="-103.2" font-family="Helvetica,sans-Serif" font-size="11.00">int8[19]</text>
<polygon fill="#ffffff" stroke="none" points="188.5,-73 188.5,-95 318.5,-95 318.5,-73 188.5,-73"/>
<polygon fill="none" stroke="black" points="188.5,-73 188.5,-95 318.5,-95 318.5,-73 188.5,-73"/>
<image xlink:href="../../images/foreignKeys.png" width="11px" height="12px" preserveAspectRatio="xMinYMin meet" x="193.5" y="-90"/>
<text text-anchor="start" x="208.5" y="-81.2" font-family="Helvetica,sans-Serif" font-size="11.00">upload_id</text>
<polygon fill="none" stroke="black" points="318.5,-73 318.5,-95 423.5,-95 423.5,-73 318.5,-73"/>
<text text-anchor="start" x="321.5" y="-81.2" font-family="Helvetica,sans-Serif" font-size="11.00">uuid[2147483647]</text>
<polygon fill="#ffffff" stroke="none" points="188.5,-55 188.5,-73 243.5,-73 243.5,-55 188.5,-55"/>
<polygon fill="none" stroke="black" points="188.5,-55 188.5,-73 243.5,-73 243.5,-55 188.5,-55"/>
<text text-anchor="start" x="191.5" y="-61.2" font-family="Helvetica,sans-Serif" font-size="11.00">&lt; 1</text>
<polygon fill="#ffffff" stroke="none" points="243.5,-55 243.5,-73 318.5,-73 318.5,-55 243.5,-55"/>
<polygon fill="none" stroke="black" points="243.5,-55 243.5,-73 318.5,-73 318.5,-55 243.5,-55"/>
<text text-anchor="start" x="279.5" y="-61.2" font-family="Helvetica,sans-Serif" font-size="11.00">0 rows</text>
<polygon fill="#ffffff" stroke="none" points="318.5,-55 318.5,-73 423.5,-73 423.5,-55 318.5,-55"/>
<polygon fill="none" stroke="black" points="318.5,-55 318.5,-73 423.5,-73 423.5,-55 318.5,-55"/>
<text text-anchor="start" x="403.5" y="-61.2" font-family="Helvetica,sans-Serif" font-size="11.00">0 &gt;</text>
<polygon fill="none" stroke="black" stroke-width="2" points="187,-54 187,-228 424,-228 424,-54 187,-54"/>
</a>
</g>
</g>
<!-- core_upload -->
<g id="node2" class="node"><title>core_upload</title>
<g id="a_node2"><a xlink:href="../../tables/core_upload.html" xlink:title="core_upload" target="_top">
<polygon fill="#ffffff" stroke="none" points="8,-37 8,-117 137,-117 137,-37 8,-37"/>
<polygon fill="#f5f5f5" stroke="none" points="8.5,-95 8.5,-117 137.5,-117 137.5,-95 8.5,-95"/>
<polygon fill="none" stroke="black" points="8.5,-95 8.5,-117 137.5,-117 137.5,-95 8.5,-95"/>
<text text-anchor="start" x="13.5" y="-104.2" font-family="Helvetica,sans-Serif" font-weight="bold" font-size="11.00">core_upload</text>
<text text-anchor="start" x="98.5" y="-103.2" font-family="Helvetica,sans-Serif" font-size="11.00">[table]</text>
<polygon fill="none" stroke="black" points="8.5,-73 8.5,-95 137.5,-95 137.5,-73 8.5,-73"/>
<image xlink:href="../../images/primaryKeys.png" width="11px" height="12px" preserveAspectRatio="xMinYMin meet" x="13.5" y="-90"/>
<text text-anchor="start" x="28.5" y="-81.2" font-family="Helvetica,sans-Serif" font-size="11.00">pulp_id</text>
<polygon fill="none" stroke="black" points="8.5,-55 8.5,-73 137.5,-73 137.5,-55 8.5,-55"/>
<text text-anchor="start" x="11.5" y="-61.2" font-family="Helvetica,sans-Serif" font-size="11.00">...</text>
<polygon fill="#ffffff" stroke="none" points="8.5,-37 8.5,-55 46.5,-55 46.5,-37 8.5,-37"/>
<polygon fill="none" stroke="black" points="8.5,-37 8.5,-55 46.5,-55 46.5,-37 8.5,-37"/>
<text text-anchor="start" x="11.5" y="-43.2" font-family="Helvetica,sans-Serif" font-size="11.00"> &#160;</text>
<polygon fill="#ffffff" stroke="none" points="46.5,-37 46.5,-55 101.5,-55 101.5,-37 46.5,-37"/>
<polygon fill="none" stroke="black" points="46.5,-37 46.5,-55 101.5,-55 101.5,-37 46.5,-37"/>
<text text-anchor="start" x="62.5" y="-43.2" font-family="Helvetica,sans-Serif" font-size="11.00">0 rows</text>
<polygon fill="#ffffff" stroke="none" points="101.5,-37 101.5,-55 137.5,-55 137.5,-37 101.5,-37"/>
<polygon fill="none" stroke="black" points="101.5,-37 101.5,-55 137.5,-55 137.5,-37 101.5,-37"/>
<text text-anchor="start" x="117.5" y="-43.2" font-family="Helvetica,sans-Serif" font-size="11.00">1 &gt;</text>
</a>
</g>
</g>
<!-- core_uploadchunk&#45;&gt;core_upload -->
<g id="edge1" class="edge"><title>core_uploadchunk:upload_id:w&#45;&gt;core_upload:pulp_id:e</title>
<path fill="none" stroke="black" d="M172.991,-84C161.677,-84 154.493,-84 138.5,-84"/>
<polygon fill="black" stroke="black" points="179.5,-84.0001 187.5,-87.6 183.5,-84 187.5,-84 187.5,-84 187.5,-84 183.5,-84 187.5,-80.4 179.5,-84.0001 179.5,-84.0001"/>
<ellipse fill="none" stroke="black" cx="176.3" cy="-84.0001" rx="3.2" ry="3.2"/>
</g>
</g>
</svg>
