<?xml version="1.0" encoding="UTF-8" standalone="no"?>
<!DOCTYPE svg PUBLIC "-//W3C//DTD SVG 1.1//EN"
 "http://www.w3.org/Graphics/SVG/1.1/DTD/svg11.dtd">
<!-- Generated by graphviz version 2.38.0 (20140413.2041)
 -->
<!-- Title: oneDegreeRelationshipsDiagram Pages: 1 -->
<svg width="637pt" height="195pt"
 viewBox="0.00 0.00 637.00 195.00" xmlns="http://www.w3.org/2000/svg" xmlns:xlink="http://www.w3.org/1999/xlink">
<g id="graph0" class="graph" transform="scale(1 1) rotate(0) translate(4 191)">
<title>oneDegreeRelationshipsDiagram</title>
<polygon fill="#ffffff" stroke="none" points="-4,4 -4,-191 633,-191 633,4 -4,4"/>
<text text-anchor="middle" x="74.5" y="-7.2" font-family="Helvetica,sans-Serif" font-size="11.00">Generated by SchemaSpy</text>
<!-- core_pulpexport -->
<g id="node1" class="node"><title>core_pulpexport</title>
<g id="a_node1"><a xlink:href="../../tables/core_pulpexport.html" xlink:title="core_pulpexport" target="_top">
<polygon fill="#ffffff" stroke="none" points="186,-75 186,-163 418,-163 418,-75 186,-75"/>
<polygon fill="#f5f5f5" stroke="none" points="188,-139 188,-161 416,-161 416,-139 188,-139"/>
<polygon fill="none" stroke="black" points="188,-139 188,-161 416,-161 416,-139 188,-139"/>
<text text-anchor="start" x="193" y="-148.2" font-family="Helvetica,sans-Serif" font-weight="bold" font-size="11.00">core_pulpexport</text>
<text text-anchor="start" x="377" y="-147.2" font-family="Helvetica,sans-Serif" font-size="11.00">[table]</text>
<polygon fill="none" stroke="black" points="188,-117 188,-139 306,-139 306,-117 188,-117"/>
<image xlink:href="../../images/primaryKeys.png" width="11px" height="12px" preserveAspectRatio="xMinYMin meet" x="193" y="-134"/>
<text text-anchor="start" x="208" y="-125.2" font-family="Helvetica,sans-Serif" font-size="11.00">export_ptr_id</text>
<polygon fill="none" stroke="black" points="306,-117 306,-139 416,-139 416,-117 306,-117"/>
<text text-anchor="start" x="309" y="-125.2" font-family="Helvetica,sans-Serif" font-size="11.00">uuid[2147483647]</text>
<polygon fill="none" stroke="black" points="188,-95 188,-117 306,-117 306,-95 188,-95"/>
<text text-anchor="start" x="208" y="-103.2" font-family="Helvetica,sans-Serif" font-size="11.00">output_file_info</text>
<polygon fill="none" stroke="black" points="306,-95 306,-117 416,-117 416,-95 306,-95"/>
<text text-anchor="start" x="309" y="-103.2" font-family="Helvetica,sans-Serif" font-size="11.00">jsonb[2147483647]</text>
<polygon fill="#ffffff" stroke="none" points="188,-77 188,-95 237,-95 237,-77 188,-77"/>
<polygon fill="none" stroke="black" points="188,-77 188,-95 237,-95 237,-77 188,-77"/>
<text text-anchor="start" x="191" y="-83.2" font-family="Helvetica,sans-Serif" font-size="11.00">&lt; 1</text>
<polygon fill="#ffffff" stroke="none" points="237,-77 237,-95 306,-95 306,-77 237,-77"/>
<polygon fill="none" stroke="black" points="237,-77 237,-95 306,-95 306,-77 237,-77"/>
<text text-anchor="start" x="267" y="-83.2" font-family="Helvetica,sans-Serif" font-size="11.00">0 rows</text>
<polygon fill="#ffffff" stroke="none" points="306,-77 306,-95 416,-95 416,-77 306,-77"/>
<polygon fill="none" stroke="black" points="306,-77 306,-95 416,-95 416,-77 306,-77"/>
<text text-anchor="start" x="396" y="-83.2" font-family="Helvetica,sans-Serif" font-size="11.00">1 &gt;</text>
<polygon fill="none" stroke="black" stroke-width="2" points="187,-76 187,-162 417,-162 417,-76 187,-76"/>
</a>
</g>
</g>
<!-- core_export -->
<g id="node2" class="node"><title>core_export</title>
<g id="a_node2"><a xlink:href="../../tables/core_export.html" xlink:title="core_export" target="_top">
<polygon fill="#ffffff" stroke="none" points="8,-37 8,-161 137,-161 137,-37 8,-37"/>
<polygon fill="#f5f5f5" stroke="none" points="8.5,-139 8.5,-161 137.5,-161 137.5,-139 8.5,-139"/>
<polygon fill="none" stroke="black" points="8.5,-139 8.5,-161 137.5,-161 137.5,-139 8.5,-139"/>
<text text-anchor="start" x="13.5" y="-148.2" font-family="Helvetica,sans-Serif" font-weight="bold" font-size="11.00">core_export</text>
<text text-anchor="start" x="98.5" y="-147.2" font-family="Helvetica,sans-Serif" font-size="11.00">[table]</text>
<polygon fill="none" stroke="black" points="8.5,-117 8.5,-139 137.5,-139 137.5,-117 8.5,-117"/>
<image xlink:href="../../images/primaryKeys.png" width="11px" height="12px" preserveAspectRatio="xMinYMin meet" x="13.5" y="-134"/>
<text text-anchor="start" x="28.5" y="-125.2" font-family="Helvetica,sans-Serif" font-size="11.00">pulp_id</text>
<polygon fill="#ffffff" stroke="none" points="8.5,-95 8.5,-117 137.5,-117 137.5,-95 8.5,-95"/>
<polygon fill="none" stroke="black" points="8.5,-95 8.5,-117 137.5,-117 137.5,-95 8.5,-95"/>
<image xlink:href="../../images/foreignKeys.png" width="11px" height="12px" preserveAspectRatio="xMinYMin meet" x="13.5" y="-112"/>
<text text-anchor="start" x="28.5" y="-103.2" font-family="Helvetica,sans-Serif" font-size="11.00">exporter_id</text>
<polygon fill="#ffffff" stroke="none" points="8.5,-73 8.5,-95 137.5,-95 137.5,-73 8.5,-73"/>
<polygon fill="none" stroke="black" points="8.5,-73 8.5,-95 137.5,-95 137.5,-73 8.5,-73"/>
<image xlink:href="../../images/foreignKeys.png" width="11px" height="12px" preserveAspectRatio="xMinYMin meet" x="13.5" y="-90"/>
<text text-anchor="start" x="28.5" y="-81.2" font-family="Helvetica,sans-Serif" font-size="11.00">task_id</text>
<polygon fill="none" stroke="black" points="8.5,-55 8.5,-73 137.5,-73 137.5,-55 8.5,-55"/>
<text text-anchor="start" x="11.5" y="-61.2" font-family="Helvetica,sans-Serif" font-size="11.00">...</text>
<polygon fill="#ffffff" stroke="none" points="8.5,-37 8.5,-55 51.5,-55 51.5,-37 8.5,-37"/>
<polygon fill="none" stroke="black" points="8.5,-37 8.5,-55 51.5,-55 51.5,-37 8.5,-37"/>
<text text-anchor="start" x="11.5" y="-43.2" font-family="Helvetica,sans-Serif" font-size="11.00">&lt; 2</text>
<polygon fill="#ffffff" stroke="none" points="51.5,-37 51.5,-55 103.5,-55 103.5,-37 51.5,-37"/>
<polygon fill="none" stroke="black" points="51.5,-37 51.5,-55 103.5,-55 103.5,-37 51.5,-37"/>
<text text-anchor="start" x="64.5" y="-43.2" font-family="Helvetica,sans-Serif" font-size="11.00">0 rows</text>
<polygon fill="#ffffff" stroke="none" points="103.5,-37 103.5,-55 137.5,-55 137.5,-37 103.5,-37"/>
<polygon fill="none" stroke="black" points="103.5,-37 103.5,-55 137.5,-55 137.5,-37 103.5,-37"/>
<text text-anchor="start" x="117.5" y="-43.2" font-family="Helvetica,sans-Serif" font-size="11.00">2 &gt;</text>
</a>
</g>
</g>
<!-- core_pulpexport&#45;&gt;core_export -->
<g id="edge1" class="edge"><title>core_pulpexport:export_ptr_id:w&#45;&gt;core_export:pulp_id:e</title>
<path fill="none" stroke="black" d="M176.367,-128C162.855,-128 156.014,-128 138.5,-128"/>
<polygon fill="black" stroke="black" points="186.2,-124 186.2,-132 184.6,-132 184.6,-124 186.2,-124"/>
<polyline fill="none" stroke="black" points="187,-128 183,-128 "/>
<ellipse fill="none" stroke="black" cx="179.8" cy="-128" rx="3.2" ry="3.2"/>
</g>
<!-- core_pulpexporter -->
<g id="node3" class="node"><title>core_pulpexporter</title>
<g id="a_node3"><a xlink:href="../../tables/core_pulpexporter.html" xlink:title="core_pulpexporter" target="_top">
<polygon fill="#ffffff" stroke="none" points="467,-81 467,-183 621,-183 621,-81 467,-81"/>
<polygon fill="#f5f5f5" stroke="none" points="467,-161 467,-183 621,-183 621,-161 467,-161"/>
<polygon fill="none" stroke="black" points="467,-161 467,-183 621,-183 621,-161 467,-161"/>
<text text-anchor="start" x="472" y="-170.2" font-family="Helvetica,sans-Serif" font-weight="bold" font-size="11.00">core_pulpexporter</text>
<text text-anchor="start" x="582" y="-169.2" font-family="Helvetica,sans-Serif" font-size="11.00">[table]</text>
<polygon fill="none" stroke="black" points="467,-139 467,-161 621,-161 621,-139 467,-139"/>
<image xlink:href="../../images/primaryKeys.png" width="11px" height="12px" preserveAspectRatio="xMinYMin meet" x="472" y="-156"/>
<text text-anchor="start" x="499" y="-147.2" font-family="Helvetica,sans-Serif" font-size="11.00">exporter_ptr_id</text>
<polygon fill="#ffffff" stroke="none" points="467,-117 467,-139 621,-139 621,-117 467,-117"/>
<polygon fill="none" stroke="black" points="467,-117 467,-139 621,-139 621,-117 467,-117"/>
<image xlink:href="../../images/foreignKeys.png" width="11px" height="12px" preserveAspectRatio="xMinYMin meet" x="472" y="-134"/>
<text text-anchor="start" x="499" y="-125.2" font-family="Helvetica,sans-Serif" font-size="11.00">last_export_id</text>
<polygon fill="none" stroke="black" points="467,-99 467,-117 621,-117 621,-99 467,-99"/>
<text text-anchor="start" x="470" y="-105.2" font-family="Helvetica,sans-Serif" font-size="11.00">...</text>
<polygon fill="#ffffff" stroke="none" points="467,-81 467,-99 523,-99 523,-81 467,-81"/>
<polygon fill="none" stroke="black" points="467,-81 467,-99 523,-99 523,-81 467,-81"/>
<text text-anchor="start" x="470" y="-87.2" font-family="Helvetica,sans-Serif" font-size="11.00">&lt; 2</text>
<polygon fill="#ffffff" stroke="none" points="523,-81 523,-99 581,-99 581,-81 523,-81"/>
<polygon fill="none" stroke="black" points="523,-81 523,-99 581,-99 581,-81 523,-81"/>
<text text-anchor="start" x="542" y="-87.2" font-family="Helvetica,sans-Serif" font-size="11.00">0 rows</text>
<polygon fill="#ffffff" stroke="none" points="581,-81 581,-99 621,-99 621,-81 581,-81"/>
<polygon fill="none" stroke="black" points="581,-81 581,-99 621,-99 621,-81 581,-81"/>
<text text-anchor="start" x="601" y="-87.2" font-family="Helvetica,sans-Serif" font-size="11.00">1 &gt;</text>
</a>
</g>
</g>
<!-- core_pulpexporter&#45;&gt;core_pulpexport -->
<g id="edge2" class="edge"><title>core_pulpexporter:last_export_id:w&#45;&gt;core_pulpexport:export_ptr_id.type:e</title>
<path fill="none" stroke="black" d="M451.491,-128C440.177,-128 432.993,-128 417,-128"/>
<polygon fill="black" stroke="black" points="458,-128 466,-131.6 462,-128 466,-128 466,-128 466,-128 462,-128 466,-124.4 458,-128 458,-128"/>
<ellipse fill="none" stroke="black" cx="454.8" cy="-128" rx="3.2" ry="3.2"/>
</g>
</g>
</svg>
