<?xml version="1.0" encoding="UTF-8" standalone="no"?>
<!DOCTYPE svg PUBLIC "-//W3C//DTD SVG 1.1//EN"
 "http://www.w3.org/Graphics/SVG/1.1/DTD/svg11.dtd">
<!-- Generated by graphviz version 2.38.0 (20140413.2041)
 -->
<!-- Title: oneDegreeRelationshipsDiagram Pages: 1 -->
<svg width="499pt" height="359pt"
 viewBox="0.00 0.00 499.00 359.00" xmlns="http://www.w3.org/2000/svg" xmlns:xlink="http://www.w3.org/1999/xlink">
<g id="graph0" class="graph" transform="scale(1 1) rotate(0) translate(4 355)">
<title>oneDegreeRelationshipsDiagram</title>
<polygon fill="#ffffff" stroke="none" points="-4,4 -4,-355 495,-355 495,4 -4,4"/>
<text text-anchor="middle" x="74.5" y="-7.2" font-family="Helvetica,sans-Serif" font-size="11.00">Generated by SchemaSpy</text>
<!-- core_createdresource -->
<g id="node1" class="node"><title>core_createdresource</title>
<g id="a_node1"><a xlink:href="../../tables/core_createdresource.html" xlink:title="core_createdresource" target="_top">
<polygon fill="#ffffff" stroke="none" points="224,-171 224,-347 483,-347 483,-171 224,-171"/>
<polygon fill="#f5f5f5" stroke="none" points="226.5,-323 226.5,-345 481.5,-345 481.5,-323 226.5,-323"/>
<polygon fill="none" stroke="black" points="226.5,-323 226.5,-345 481.5,-345 481.5,-323 226.5,-323"/>
<text text-anchor="start" x="231.5" y="-332.2" font-family="Helvetica,sans-Serif" font-weight="bold" font-size="11.00">core_createdresource</text>
<text text-anchor="start" x="442.5" y="-331.2" font-family="Helvetica,sans-Serif" font-size="11.00">[table]</text>
<polygon fill="none" stroke="black" points="226.5,-301 226.5,-323 376.5,-323 376.5,-301 226.5,-301"/>
<image xlink:href="../../images/primaryKeys.png" width="11px" height="12px" preserveAspectRatio="xMinYMin meet" x="231.5" y="-318"/>
<text text-anchor="start" x="246.5" y="-309.2" font-family="Helvetica,sans-Serif" font-size="11.00">pulp_id</text>
<polygon fill="none" stroke="black" points="376.5,-301 376.5,-323 481.5,-323 481.5,-301 376.5,-301"/>
<text text-anchor="start" x="379.5" y="-309.2" font-family="Helvetica,sans-Serif" font-size="11.00">uuid[2147483647]</text>
<polygon fill="none" stroke="black" points="226.5,-279 226.5,-301 376.5,-301 376.5,-279 226.5,-279"/>
<text text-anchor="start" x="246.5" y="-287.2" font-family="Helvetica,sans-Serif" font-size="11.00">pulp_created</text>
<polygon fill="none" stroke="black" points="376.5,-279 376.5,-301 481.5,-301 481.5,-279 376.5,-279"/>
<text text-anchor="start" x="379.5" y="-287.2" font-family="Helvetica,sans-Serif" font-size="11.00">timestamptz[35,6]</text>
<polygon fill="none" stroke="black" points="226.5,-257 226.5,-279 376.5,-279 376.5,-257 226.5,-257"/>
<text text-anchor="start" x="246.5" y="-265.2" font-family="Helvetica,sans-Serif" font-size="11.00">pulp_last_updated</text>
<polygon fill="none" stroke="black" points="376.5,-257 376.5,-279 481.5,-279 481.5,-257 376.5,-257"/>
<text text-anchor="start" x="379.5" y="-265.2" font-family="Helvetica,sans-Serif" font-size="11.00">timestamptz[35,6]</text>
<polygon fill="none" stroke="black" points="226.5,-235 226.5,-257 376.5,-257 376.5,-235 226.5,-235"/>
<text text-anchor="start" x="246.5" y="-243.2" font-family="Helvetica,sans-Serif" font-size="11.00">object_id</text>
<polygon fill="none" stroke="black" points="376.5,-235 376.5,-257 481.5,-257 481.5,-235 376.5,-235"/>
<text text-anchor="start" x="379.5" y="-243.2" font-family="Helvetica,sans-Serif" font-size="11.00">uuid[2147483647]</text>
<polygon fill="#ffffff" stroke="none" points="226.5,-213 226.5,-235 376.5,-235 376.5,-213 226.5,-213"/>
<polygon fill="none" stroke="black" points="226.5,-213 226.5,-235 376.5,-235 376.5,-213 226.5,-213"/>
<image xlink:href="../../images/foreignKeys.png" width="11px" height="12px" preserveAspectRatio="xMinYMin meet" x="231.5" y="-230"/>
<text text-anchor="start" x="246.5" y="-221.2" font-family="Helvetica,sans-Serif" font-size="11.00">content_type_id</text>
<polygon fill="none" stroke="black" points="376.5,-213 376.5,-235 481.5,-235 481.5,-213 376.5,-213"/>
<text text-anchor="start" x="379.5" y="-221.2" font-family="Helvetica,sans-Serif" font-size="11.00">int4[10]</text>
<polygon fill="#ffffff" stroke="none" points="226.5,-191 226.5,-213 376.5,-213 376.5,-191 226.5,-191"/>
<polygon fill="none" stroke="black" points="226.5,-191 226.5,-213 376.5,-213 376.5,-191 226.5,-191"/>
<image xlink:href="../../images/foreignKeys.png" width="11px" height="12px" preserveAspectRatio="xMinYMin meet" x="231.5" y="-208"/>
<text text-anchor="start" x="246.5" y="-199.2" font-family="Helvetica,sans-Serif" font-size="11.00">task_id</text>
<polygon fill="none" stroke="black" points="376.5,-191 376.5,-213 481.5,-213 481.5,-191 376.5,-191"/>
<text text-anchor="start" x="379.5" y="-199.2" font-family="Helvetica,sans-Serif" font-size="11.00">uuid[2147483647]</text>
<polygon fill="#ffffff" stroke="none" points="226.5,-173 226.5,-191 285.5,-191 285.5,-173 226.5,-173"/>
<polygon fill="none" stroke="black" points="226.5,-173 226.5,-191 285.5,-191 285.5,-173 226.5,-173"/>
<text text-anchor="start" x="229.5" y="-179.2" font-family="Helvetica,sans-Serif" font-size="11.00">&lt; 2</text>
<polygon fill="#ffffff" stroke="none" points="285.5,-173 285.5,-191 376.5,-191 376.5,-173 285.5,-173"/>
<polygon fill="none" stroke="black" points="285.5,-173 285.5,-191 376.5,-191 376.5,-173 285.5,-173"/>
<text text-anchor="start" x="324.5" y="-179.2" font-family="Helvetica,sans-Serif" font-size="11.00">365 rows</text>
<polygon fill="#ffffff" stroke="none" points="376.5,-173 376.5,-191 481.5,-191 481.5,-173 376.5,-173"/>
<polygon fill="none" stroke="black" points="376.5,-173 376.5,-191 481.5,-191 481.5,-173 376.5,-173"/>
<text text-anchor="start" x="461.5" y="-179.2" font-family="Helvetica,sans-Serif" font-size="11.00">0 &gt;</text>
<polygon fill="none" stroke="black" stroke-width="2" points="225,-172 225,-346 482,-346 482,-172 225,-172"/>
</a>
</g>
</g>
<!-- django_content_type -->
<g id="node2" class="node"><title>django_content_type</title>
<g id="a_node2"><a xlink:href="../../tables/django_content_type.html" xlink:title="django_content_type" target="_top">
<polygon fill="#ffffff" stroke="none" points="8,-204 8,-310 175,-310 175,-204 8,-204"/>
<polygon fill="#f5f5f5" stroke="none" points="8.5,-288 8.5,-310 175.5,-310 175.5,-288 8.5,-288"/>
<polygon fill="none" stroke="black" points="8.5,-288 8.5,-310 175.5,-310 175.5,-288 8.5,-288"/>
<text text-anchor="start" x="13.5" y="-297.2" font-family="Helvetica,sans-Serif" font-weight="bold" font-size="11.00">django_content_type</text>
<text text-anchor="start" x="136.5" y="-296.2" font-family="Helvetica,sans-Serif" font-size="11.00">[table]</text>
<polygon fill="none" stroke="black" points="8.5,-266 8.5,-288 175.5,-288 175.5,-266 8.5,-266"/>
<image xlink:href="../../images/primaryKeys.png" width="11px" height="12px" preserveAspectRatio="xMinYMin meet" x="13.5" y="-283"/>
<text text-anchor="start" x="39.5" y="-274.2" font-family="Helvetica,sans-Serif" font-size="11.00">id</text>
<polygon fill="#ffffff" stroke="none" points="8.5,-244 8.5,-266 175.5,-266 175.5,-244 8.5,-244"/>
<polygon fill="none" stroke="black" points="8.5,-244 8.5,-266 175.5,-266 175.5,-244 8.5,-244"/>
<text text-anchor="start" x="39.5" y="-252.2" font-family="Helvetica,sans-Serif" font-size="11.00">app_label</text>
<polygon fill="#ffffff" stroke="none" points="8.5,-222 8.5,-244 175.5,-244 175.5,-222 8.5,-222"/>
<polygon fill="none" stroke="black" points="8.5,-222 8.5,-244 175.5,-244 175.5,-222 8.5,-222"/>
<text text-anchor="start" x="39.5" y="-230.2" font-family="Helvetica,sans-Serif" font-size="11.00">model</text>
<polygon fill="#ffffff" stroke="none" points="8.5,-204 8.5,-222 62.5,-222 62.5,-204 8.5,-204"/>
<polygon fill="none" stroke="black" points="8.5,-204 8.5,-222 62.5,-222 62.5,-204 8.5,-204"/>
<text text-anchor="start" x="11.5" y="-210.2" font-family="Helvetica,sans-Serif" font-size="11.00"> &#160;</text>
<polygon fill="#ffffff" stroke="none" points="62.5,-204 62.5,-222 131.5,-222 131.5,-204 62.5,-204"/>
<polygon fill="none" stroke="black" points="62.5,-204 62.5,-222 131.5,-222 131.5,-204 62.5,-204"/>
<text text-anchor="start" x="85.5" y="-210.2" font-family="Helvetica,sans-Serif" font-size="11.00">79 rows</text>
<polygon fill="#ffffff" stroke="none" points="131.5,-204 131.5,-222 175.5,-222 175.5,-204 131.5,-204"/>
<polygon fill="none" stroke="black" points="131.5,-204 131.5,-222 175.5,-222 175.5,-204 131.5,-204"/>
<text text-anchor="start" x="155.5" y="-210.2" font-family="Helvetica,sans-Serif" font-size="11.00">6 &gt;</text>
</a>
</g>
</g>
<!-- core_createdresource&#45;&gt;django_content_type -->
<g id="edge1" class="edge"><title>core_createdresource:content_type_id:w&#45;&gt;django_content_type:id:e</title>
<path fill="none" stroke="black" d="M211.815,-228.891C197.444,-242.012 202.565,-277 176.5,-277"/>
<polygon fill="black" stroke="black" points="217.967,-226.692 226.712,-227.39 221.733,-225.346 225.5,-224 225.5,-224 225.5,-224 221.733,-225.346 224.288,-220.61 217.967,-226.692 217.967,-226.692"/>
<ellipse fill="none" stroke="black" cx="214.953" cy="-227.769" rx="3.20001" ry="3.20001"/>
</g>
<!-- core_task -->
<g id="node3" class="node"><title>core_task</title>
<g id="a_node3"><a xlink:href="../../tables/core_task.html" xlink:title="core_task" target="_top">
<polygon fill="#ffffff" stroke="none" points="27,-37 27,-183 156,-183 156,-37 27,-37"/>
<polygon fill="#f5f5f5" stroke="none" points="27.5,-161 27.5,-183 156.5,-183 156.5,-161 27.5,-161"/>
<polygon fill="none" stroke="black" points="27.5,-161 27.5,-183 156.5,-183 156.5,-161 27.5,-161"/>
<text text-anchor="start" x="32.5" y="-170.2" font-family="Helvetica,sans-Serif" font-weight="bold" font-size="11.00">core_task</text>
<text text-anchor="start" x="117.5" y="-169.2" font-family="Helvetica,sans-Serif" font-size="11.00">[table]</text>
<polygon fill="none" stroke="black" points="27.5,-139 27.5,-161 156.5,-161 156.5,-139 27.5,-139"/>
<image xlink:href="../../images/primaryKeys.png" width="11px" height="12px" preserveAspectRatio="xMinYMin meet" x="32.5" y="-156"/>
<text text-anchor="start" x="47.5" y="-147.2" font-family="Helvetica,sans-Serif" font-size="11.00">pulp_id</text>
<polygon fill="#ffffff" stroke="none" points="27.5,-117 27.5,-139 156.5,-139 156.5,-117 27.5,-117"/>
<polygon fill="none" stroke="black" points="27.5,-117 27.5,-139 156.5,-139 156.5,-117 27.5,-117"/>
<image xlink:href="../../images/foreignKeys.png" width="11px" height="12px" preserveAspectRatio="xMinYMin meet" x="32.5" y="-134"/>
<text text-anchor="start" x="47.5" y="-125.2" font-family="Helvetica,sans-Serif" font-size="11.00">worker_id</text>
<polygon fill="#ffffff" stroke="none" points="27.5,-95 27.5,-117 156.5,-117 156.5,-95 27.5,-95"/>
<polygon fill="none" stroke="black" points="27.5,-95 27.5,-117 156.5,-117 156.5,-95 27.5,-95"/>
<image xlink:href="../../images/foreignKeys.png" width="11px" height="12px" preserveAspectRatio="xMinYMin meet" x="32.5" y="-112"/>
<text text-anchor="start" x="47.5" y="-103.2" font-family="Helvetica,sans-Serif" font-size="11.00">parent_task_id</text>
<polygon fill="#ffffff" stroke="none" points="27.5,-73 27.5,-95 156.5,-95 156.5,-73 27.5,-73"/>
<polygon fill="none" stroke="black" points="27.5,-73 27.5,-95 156.5,-95 156.5,-73 27.5,-73"/>
<image xlink:href="../../images/foreignKeys.png" width="11px" height="12px" preserveAspectRatio="xMinYMin meet" x="32.5" y="-90"/>
<text text-anchor="start" x="47.5" y="-81.2" font-family="Helvetica,sans-Serif" font-size="11.00">task_group_id</text>
<polygon fill="none" stroke="black" points="27.5,-55 27.5,-73 156.5,-73 156.5,-55 27.5,-55"/>
<text text-anchor="start" x="30.5" y="-61.2" font-family="Helvetica,sans-Serif" font-size="11.00">...</text>
<polygon fill="#ffffff" stroke="none" points="27.5,-37 27.5,-55 59.5,-55 59.5,-37 27.5,-37"/>
<polygon fill="none" stroke="black" points="27.5,-37 27.5,-55 59.5,-55 59.5,-37 27.5,-37"/>
<text text-anchor="start" x="30.5" y="-43.2" font-family="Helvetica,sans-Serif" font-size="11.00">&lt; 3</text>
<polygon fill="#ffffff" stroke="none" points="59.5,-37 59.5,-55 128.5,-55 128.5,-37 59.5,-37"/>
<polygon fill="none" stroke="black" points="59.5,-37 59.5,-55 128.5,-55 128.5,-37 59.5,-37"/>
<text text-anchor="start" x="66.5" y="-43.2" font-family="Helvetica,sans-Serif" font-size="11.00">1,828 rows</text>
<polygon fill="#ffffff" stroke="none" points="128.5,-37 128.5,-55 156.5,-55 156.5,-37 128.5,-37"/>
<polygon fill="none" stroke="black" points="128.5,-37 128.5,-55 156.5,-55 156.5,-37 128.5,-37"/>
<text text-anchor="start" x="136.5" y="-43.2" font-family="Helvetica,sans-Serif" font-size="11.00">8 &gt;</text>
</a>
</g>
</g>
<!-- core_createdresource&#45;&gt;core_task -->
<g id="edge2" class="edge"><title>core_createdresource:task_id:w&#45;&gt;core_task:pulp_id:e</title>
<path fill="none" stroke="black" d="M211.306,-198.903C188.84,-187.708 189.899,-150 157.5,-150"/>
<polygon fill="black" stroke="black" points="217.684,-200.295 224.733,-205.517 221.592,-201.147 225.5,-202 225.5,-202 225.5,-202 221.592,-201.147 226.267,-198.483 217.684,-200.295 217.684,-200.295"/>
<ellipse fill="none" stroke="black" cx="214.557" cy="-199.612" rx="3.2" ry="3.2"/>
</g>
</g>
</svg>
