<?xml version="1.0" encoding="UTF-8" standalone="no"?>
<!DOCTYPE svg PUBLIC "-//W3C//DTD SVG 1.1//EN"
 "http://www.w3.org/Graphics/SVG/1.1/DTD/svg11.dtd">
<!-- Generated by graphviz version 2.38.0 (20140413.2041)
 -->
<!-- Title: oneDegreeRelationshipsDiagram Pages: 1 -->
<svg width="502pt" height="307pt"
 viewBox="0.00 0.00 502.00 307.00" xmlns="http://www.w3.org/2000/svg" xmlns:xlink="http://www.w3.org/1999/xlink">
<g id="graph0" class="graph" transform="scale(1 1) rotate(0) translate(4 303)">
<title>oneDegreeRelationshipsDiagram</title>
<polygon fill="#ffffff" stroke="none" points="-4,4 -4,-303 498,-303 498,4 -4,4"/>
<text text-anchor="middle" x="74.5" y="-7.2" font-family="Helvetica,sans-Serif" font-size="11.00">Generated by SchemaSpy</text>
<!-- core_groupprogressreport -->
<g id="node1" class="node"><title>core_groupprogressreport</title>
<g id="a_node1"><a xlink:href="../../tables/core_groupprogressreport.html" xlink:title="core_groupprogressreport" target="_top">
<polygon fill="#ffffff" stroke="none" points="200,-53 200,-295 486,-295 486,-53 200,-53"/>
<polygon fill="#f5f5f5" stroke="none" points="202,-271 202,-293 484,-293 484,-271 202,-271"/>
<polygon fill="none" stroke="black" points="202,-271 202,-293 484,-293 484,-271 202,-271"/>
<text text-anchor="start" x="207" y="-280.2" font-family="Helvetica,sans-Serif" font-weight="bold" font-size="11.00">core_groupprogressreport</text>
<text text-anchor="start" x="445" y="-279.2" font-family="Helvetica,sans-Serif" font-size="11.00">[table]</text>
<polygon fill="none" stroke="black" points="202,-249 202,-271 379,-271 379,-249 202,-249"/>
<image xlink:href="../../images/primaryKeys.png" width="11px" height="12px" preserveAspectRatio="xMinYMin meet" x="207" y="-266"/>
<text text-anchor="start" x="222" y="-257.2" font-family="Helvetica,sans-Serif" font-size="11.00">pulp_id</text>
<polygon fill="none" stroke="black" points="379,-249 379,-271 484,-271 484,-249 379,-249"/>
<text text-anchor="start" x="382" y="-257.2" font-family="Helvetica,sans-Serif" font-size="11.00">uuid[2147483647]</text>
<polygon fill="none" stroke="black" points="202,-227 202,-249 379,-249 379,-227 202,-227"/>
<text text-anchor="start" x="222" y="-235.2" font-family="Helvetica,sans-Serif" font-size="11.00">pulp_created</text>
<polygon fill="none" stroke="black" points="379,-227 379,-249 484,-249 484,-227 379,-227"/>
<text text-anchor="start" x="382" y="-235.2" font-family="Helvetica,sans-Serif" font-size="11.00">timestamptz[35,6]</text>
<polygon fill="none" stroke="black" points="202,-205 202,-227 379,-227 379,-205 202,-205"/>
<text text-anchor="start" x="222" y="-213.2" font-family="Helvetica,sans-Serif" font-size="11.00">pulp_last_updated</text>
<polygon fill="none" stroke="black" points="379,-205 379,-227 484,-227 484,-205 379,-205"/>
<text text-anchor="start" x="382" y="-213.2" font-family="Helvetica,sans-Serif" font-size="11.00">timestamptz[35,6]</text>
<polygon fill="none" stroke="black" points="202,-183 202,-205 379,-205 379,-183 202,-183"/>
<text text-anchor="start" x="222" y="-191.2" font-family="Helvetica,sans-Serif" font-size="11.00">message</text>
<polygon fill="none" stroke="black" points="379,-183 379,-205 484,-205 484,-183 379,-183"/>
<text text-anchor="start" x="382" y="-191.2" font-family="Helvetica,sans-Serif" font-size="11.00">text[2147483647]</text>
<polygon fill="#ffffff" stroke="none" points="202,-161 202,-183 379,-183 379,-161 202,-161"/>
<polygon fill="none" stroke="black" points="202,-161 202,-183 379,-183 379,-161 202,-161"/>
<text text-anchor="start" x="222" y="-169.2" font-family="Helvetica,sans-Serif" font-size="11.00">code</text>
<polygon fill="none" stroke="black" points="379,-161 379,-183 484,-183 484,-161 379,-161"/>
<text text-anchor="start" x="382" y="-169.2" font-family="Helvetica,sans-Serif" font-size="11.00">varchar[36]</text>
<polygon fill="none" stroke="black" points="202,-139 202,-161 379,-161 379,-139 202,-139"/>
<text text-anchor="start" x="222" y="-147.2" font-family="Helvetica,sans-Serif" font-size="11.00">total</text>
<polygon fill="none" stroke="black" points="379,-139 379,-161 484,-161 484,-139 379,-139"/>
<text text-anchor="start" x="382" y="-147.2" font-family="Helvetica,sans-Serif" font-size="11.00">int4[10]</text>
<polygon fill="none" stroke="black" points="202,-117 202,-139 379,-139 379,-117 202,-117"/>
<text text-anchor="start" x="222" y="-125.2" font-family="Helvetica,sans-Serif" font-size="11.00">done</text>
<polygon fill="none" stroke="black" points="379,-117 379,-139 484,-139 484,-117 379,-117"/>
<text text-anchor="start" x="382" y="-125.2" font-family="Helvetica,sans-Serif" font-size="11.00">int4[10]</text>
<polygon fill="none" stroke="black" points="202,-95 202,-117 379,-117 379,-95 202,-95"/>
<text text-anchor="start" x="222" y="-103.2" font-family="Helvetica,sans-Serif" font-size="11.00">suffix</text>
<polygon fill="none" stroke="black" points="379,-95 379,-117 484,-117 484,-95 379,-95"/>
<text text-anchor="start" x="382" y="-103.2" font-family="Helvetica,sans-Serif" font-size="11.00">text[2147483647]</text>
<polygon fill="#ffffff" stroke="none" points="202,-73 202,-95 379,-95 379,-73 202,-73"/>
<polygon fill="none" stroke="black" points="202,-73 202,-95 379,-95 379,-73 202,-73"/>
<image xlink:href="../../images/foreignKeys.png" width="11px" height="12px" preserveAspectRatio="xMinYMin meet" x="207" y="-90"/>
<text text-anchor="start" x="222" y="-81.2" font-family="Helvetica,sans-Serif" font-size="11.00">task_group_id</text>
<polygon fill="none" stroke="black" points="379,-73 379,-95 484,-95 484,-73 379,-73"/>
<text text-anchor="start" x="382" y="-81.2" font-family="Helvetica,sans-Serif" font-size="11.00">uuid[2147483647]</text>
<polygon fill="#ffffff" stroke="none" points="202,-55 202,-73 277,-73 277,-55 202,-55"/>
<polygon fill="none" stroke="black" points="202,-55 202,-73 277,-73 277,-55 202,-55"/>
<text text-anchor="start" x="205" y="-61.2" font-family="Helvetica,sans-Serif" font-size="11.00">&lt; 1</text>
<polygon fill="#ffffff" stroke="none" points="277,-55 277,-73 379,-73 379,-55 277,-55"/>
<polygon fill="none" stroke="black" points="277,-55 277,-73 379,-73 379,-55 277,-55"/>
<text text-anchor="start" x="333" y="-61.2" font-family="Helvetica,sans-Serif" font-size="11.00">21 rows</text>
<polygon fill="#ffffff" stroke="none" points="379,-55 379,-73 484,-73 484,-55 379,-55"/>
<polygon fill="none" stroke="black" points="379,-55 379,-73 484,-73 484,-55 379,-55"/>
<text text-anchor="start" x="464" y="-61.2" font-family="Helvetica,sans-Serif" font-size="11.00">0 &gt;</text>
<polygon fill="none" stroke="black" stroke-width="2" points="201,-54 201,-294 485,-294 485,-54 201,-54"/>
</a>
</g>
</g>
<!-- core_taskgroup -->
<g id="node2" class="node"><title>core_taskgroup</title>
<g id="a_node2"><a xlink:href="../../tables/core_taskgroup.html" xlink:title="core_taskgroup" target="_top">
<polygon fill="#ffffff" stroke="none" points="8,-37 8,-117 151,-117 151,-37 8,-37"/>
<polygon fill="#f5f5f5" stroke="none" points="8.5,-95 8.5,-117 151.5,-117 151.5,-95 8.5,-95"/>
<polygon fill="none" stroke="black" points="8.5,-95 8.5,-117 151.5,-117 151.5,-95 8.5,-95"/>
<text text-anchor="start" x="13.5" y="-104.2" font-family="Helvetica,sans-Serif" font-weight="bold" font-size="11.00">core_taskgroup</text>
<text text-anchor="start" x="112.5" y="-103.2" font-family="Helvetica,sans-Serif" font-size="11.00">[table]</text>
<polygon fill="none" stroke="black" points="8.5,-73 8.5,-95 151.5,-95 151.5,-73 8.5,-73"/>
<image xlink:href="../../images/primaryKeys.png" width="11px" height="12px" preserveAspectRatio="xMinYMin meet" x="13.5" y="-90"/>
<text text-anchor="start" x="28.5" y="-81.2" font-family="Helvetica,sans-Serif" font-size="11.00">pulp_id</text>
<polygon fill="none" stroke="black" points="8.5,-55 8.5,-73 151.5,-73 151.5,-55 8.5,-55"/>
<text text-anchor="start" x="11.5" y="-61.2" font-family="Helvetica,sans-Serif" font-size="11.00">...</text>
<polygon fill="#ffffff" stroke="none" points="8.5,-37 8.5,-55 50.5,-55 50.5,-37 8.5,-37"/>
<polygon fill="none" stroke="black" points="8.5,-37 8.5,-55 50.5,-55 50.5,-37 8.5,-37"/>
<text text-anchor="start" x="11.5" y="-43.2" font-family="Helvetica,sans-Serif" font-size="11.00"> &#160;</text>
<polygon fill="#ffffff" stroke="none" points="50.5,-37 50.5,-55 113.5,-55 113.5,-37 50.5,-37"/>
<polygon fill="none" stroke="black" points="50.5,-37 50.5,-55 113.5,-55 113.5,-37 50.5,-37"/>
<text text-anchor="start" x="67.5" y="-43.2" font-family="Helvetica,sans-Serif" font-size="11.00">26 rows</text>
<polygon fill="#ffffff" stroke="none" points="113.5,-37 113.5,-55 151.5,-55 151.5,-37 113.5,-37"/>
<polygon fill="none" stroke="black" points="113.5,-37 113.5,-55 151.5,-55 151.5,-37 113.5,-37"/>
<text text-anchor="start" x="131.5" y="-43.2" font-family="Helvetica,sans-Serif" font-size="11.00">2 &gt;</text>
</a>
</g>
</g>
<!-- core_groupprogressreport&#45;&gt;core_taskgroup -->
<g id="edge1" class="edge"><title>core_groupprogressreport:task_group_id:w&#45;&gt;core_taskgroup:pulp_id:e</title>
<path fill="none" stroke="black" d="M186.283,-84C175.289,-84 168.161,-84 152.5,-84"/>
<polygon fill="black" stroke="black" points="193,-84.0001 201,-87.6 197,-84 201,-84 201,-84 201,-84 197,-84 201,-80.4 193,-84.0001 193,-84.0001"/>
<ellipse fill="none" stroke="black" cx="189.8" cy="-84.0001" rx="3.2" ry="3.2"/>
</g>
</g>
</svg>
