<?xml version="1.0" encoding="UTF-8" standalone="no"?>
<!DOCTYPE svg PUBLIC "-//W3C//DTD SVG 1.1//EN"
 "http://www.w3.org/Graphics/SVG/1.1/DTD/svg11.dtd">
<!-- Generated by graphviz version 2.38.0 (20140413.2041)
 -->
<!-- Title: oneDegreeRelationshipsDiagram Pages: 1 -->
<svg width="747pt" height="977pt"
 viewBox="0.00 0.00 747.00 977.00" xmlns="http://www.w3.org/2000/svg" xmlns:xlink="http://www.w3.org/1999/xlink">
<g id="graph0" class="graph" transform="scale(1 1) rotate(0) translate(4 973)">
<title>oneDegreeRelationshipsDiagram</title>
<polygon fill="#ffffff" stroke="none" points="-4,4 -4,-973 743,-973 743,4 -4,4"/>
<text text-anchor="middle" x="74.5" y="-7.2" font-family="Helvetica,sans-Serif" font-size="11.00">Generated by SchemaSpy</text>
<!-- ansible_collectionimport -->
<g id="node1" class="node"><title>ansible_collectionimport</title>
<g id="a_node1"><a xlink:href="../../tables/ansible_collectionimport.html" xlink:title="ansible_collectionimport" target="_top">
<polygon fill="#ffffff" stroke="none" points="516.5,-885 516.5,-965 706.5,-965 706.5,-885 516.5,-885"/>
<polygon fill="#f5f5f5" stroke="none" points="516.5,-943 516.5,-965 706.5,-965 706.5,-943 516.5,-943"/>
<polygon fill="none" stroke="black" points="516.5,-943 516.5,-965 706.5,-965 706.5,-943 516.5,-943"/>
<text text-anchor="start" x="521.5" y="-952.2" font-family="Helvetica,sans-Serif" font-weight="bold" font-size="11.00">ansible_collectionimport</text>
<text text-anchor="start" x="667.5" y="-951.2" font-family="Helvetica,sans-Serif" font-size="11.00">[table]</text>
<polygon fill="none" stroke="black" points="516.5,-921 516.5,-943 706.5,-943 706.5,-921 516.5,-921"/>
<image xlink:href="../../images/primaryKeys.png" width="11px" height="12px" preserveAspectRatio="xMinYMin meet" x="521.5" y="-938"/>
<text text-anchor="start" x="547.5" y="-929.2" font-family="Helvetica,sans-Serif" font-size="11.00">task_id</text>
<polygon fill="none" stroke="black" points="516.5,-903 516.5,-921 706.5,-921 706.5,-903 516.5,-903"/>
<text text-anchor="start" x="519.5" y="-909.2" font-family="Helvetica,sans-Serif" font-size="11.00">...</text>
<polygon fill="#ffffff" stroke="none" points="516.5,-885 516.5,-903 588.5,-903 588.5,-885 516.5,-885"/>
<polygon fill="none" stroke="black" points="516.5,-885 516.5,-903 588.5,-903 588.5,-885 516.5,-885"/>
<text text-anchor="start" x="519.5" y="-891.2" font-family="Helvetica,sans-Serif" font-size="11.00">&lt; 1</text>
<polygon fill="#ffffff" stroke="none" points="588.5,-885 588.5,-903 668.5,-903 668.5,-885 588.5,-885"/>
<polygon fill="none" stroke="black" points="588.5,-885 588.5,-903 668.5,-903 668.5,-885 588.5,-885"/>
<text text-anchor="start" x="616.5" y="-891.2" font-family="Helvetica,sans-Serif" font-size="11.00">111 rows</text>
<polygon fill="#ffffff" stroke="none" points="668.5,-885 668.5,-903 706.5,-903 706.5,-885 668.5,-885"/>
<polygon fill="none" stroke="black" points="668.5,-885 668.5,-903 706.5,-903 706.5,-885 668.5,-885"/>
<text text-anchor="start" x="696.5" y="-891.2" font-family="Helvetica,sans-Serif" font-size="11.00"> &#160;</text>
</a>
</g>
</g>
<!-- core_task -->
<g id="node2" class="node"><title>core_task</title>
<g id="a_node2"><a xlink:href="../../tables/core_task.html" xlink:title="core_task" target="_top">
<polygon fill="#ffffff" stroke="none" points="200,-246 200,-532 443,-532 443,-246 200,-246"/>
<polygon fill="#f5f5f5" stroke="none" points="202.5,-508 202.5,-530 441.5,-530 441.5,-508 202.5,-508"/>
<polygon fill="none" stroke="black" points="202.5,-508 202.5,-530 441.5,-530 441.5,-508 202.5,-508"/>
<text text-anchor="start" x="207.5" y="-517.2" font-family="Helvetica,sans-Serif" font-weight="bold" font-size="11.00">core_task</text>
<text text-anchor="start" x="402.5" y="-516.2" font-family="Helvetica,sans-Serif" font-size="11.00">[table]</text>
<polygon fill="none" stroke="black" points="202.5,-486 202.5,-508 331.5,-508 331.5,-486 202.5,-486"/>
<image xlink:href="../../images/primaryKeys.png" width="11px" height="12px" preserveAspectRatio="xMinYMin meet" x="207.5" y="-503"/>
<text text-anchor="start" x="222.5" y="-494.2" font-family="Helvetica,sans-Serif" font-size="11.00">pulp_id</text>
<polygon fill="none" stroke="black" points="331.5,-486 331.5,-508 441.5,-508 441.5,-486 331.5,-486"/>
<text text-anchor="start" x="334.5" y="-494.2" font-family="Helvetica,sans-Serif" font-size="11.00">uuid[2147483647]</text>
<polygon fill="none" stroke="black" points="202.5,-464 202.5,-486 331.5,-486 331.5,-464 202.5,-464"/>
<text text-anchor="start" x="222.5" y="-472.2" font-family="Helvetica,sans-Serif" font-size="11.00">pulp_created</text>
<polygon fill="none" stroke="black" points="331.5,-464 331.5,-486 441.5,-486 441.5,-464 331.5,-464"/>
<text text-anchor="start" x="334.5" y="-472.2" font-family="Helvetica,sans-Serif" font-size="11.00">timestamptz[35,6]</text>
<polygon fill="none" stroke="black" points="202.5,-442 202.5,-464 331.5,-464 331.5,-442 202.5,-442"/>
<text text-anchor="start" x="222.5" y="-450.2" font-family="Helvetica,sans-Serif" font-size="11.00">pulp_last_updated</text>
<polygon fill="none" stroke="black" points="331.5,-442 331.5,-464 441.5,-464 441.5,-442 331.5,-442"/>
<text text-anchor="start" x="334.5" y="-450.2" font-family="Helvetica,sans-Serif" font-size="11.00">timestamptz[35,6]</text>
<polygon fill="none" stroke="black" points="202.5,-420 202.5,-442 331.5,-442 331.5,-420 202.5,-420"/>
<text text-anchor="start" x="222.5" y="-428.2" font-family="Helvetica,sans-Serif" font-size="11.00">state</text>
<polygon fill="none" stroke="black" points="331.5,-420 331.5,-442 441.5,-442 441.5,-420 331.5,-420"/>
<text text-anchor="start" x="334.5" y="-428.2" font-family="Helvetica,sans-Serif" font-size="11.00">text[2147483647]</text>
<polygon fill="none" stroke="black" points="202.5,-398 202.5,-420 331.5,-420 331.5,-398 202.5,-398"/>
<text text-anchor="start" x="222.5" y="-406.2" font-family="Helvetica,sans-Serif" font-size="11.00">name</text>
<polygon fill="none" stroke="black" points="331.5,-398 331.5,-420 441.5,-420 441.5,-398 331.5,-398"/>
<text text-anchor="start" x="334.5" y="-406.2" font-family="Helvetica,sans-Serif" font-size="11.00">text[2147483647]</text>
<polygon fill="none" stroke="black" points="202.5,-376 202.5,-398 331.5,-398 331.5,-376 202.5,-376"/>
<text text-anchor="start" x="222.5" y="-384.2" font-family="Helvetica,sans-Serif" font-size="11.00">started_at</text>
<polygon fill="none" stroke="black" points="331.5,-376 331.5,-398 441.5,-398 441.5,-376 331.5,-376"/>
<text text-anchor="start" x="334.5" y="-384.2" font-family="Helvetica,sans-Serif" font-size="11.00">timestamptz[35,6]</text>
<polygon fill="none" stroke="black" points="202.5,-354 202.5,-376 331.5,-376 331.5,-354 202.5,-354"/>
<text text-anchor="start" x="222.5" y="-362.2" font-family="Helvetica,sans-Serif" font-size="11.00">finished_at</text>
<polygon fill="none" stroke="black" points="331.5,-354 331.5,-376 441.5,-376 441.5,-354 331.5,-354"/>
<text text-anchor="start" x="334.5" y="-362.2" font-family="Helvetica,sans-Serif" font-size="11.00">timestamptz[35,6]</text>
<polygon fill="none" stroke="black" points="202.5,-332 202.5,-354 331.5,-354 331.5,-332 202.5,-332"/>
<text text-anchor="start" x="222.5" y="-340.2" font-family="Helvetica,sans-Serif" font-size="11.00">error</text>
<polygon fill="none" stroke="black" points="331.5,-332 331.5,-354 441.5,-354 441.5,-332 331.5,-332"/>
<text text-anchor="start" x="334.5" y="-340.2" font-family="Helvetica,sans-Serif" font-size="11.00">jsonb[2147483647]</text>
<polygon fill="#ffffff" stroke="none" points="202.5,-310 202.5,-332 331.5,-332 331.5,-310 202.5,-310"/>
<polygon fill="none" stroke="black" points="202.5,-310 202.5,-332 331.5,-332 331.5,-310 202.5,-310"/>
<image xlink:href="../../images/foreignKeys.png" width="11px" height="12px" preserveAspectRatio="xMinYMin meet" x="207.5" y="-327"/>
<text text-anchor="start" x="222.5" y="-318.2" font-family="Helvetica,sans-Serif" font-size="11.00">worker_id</text>
<polygon fill="none" stroke="black" points="331.5,-310 331.5,-332 441.5,-332 441.5,-310 331.5,-310"/>
<text text-anchor="start" x="334.5" y="-318.2" font-family="Helvetica,sans-Serif" font-size="11.00">uuid[2147483647]</text>
<polygon fill="#ffffff" stroke="none" points="202.5,-288 202.5,-310 331.5,-310 331.5,-288 202.5,-288"/>
<polygon fill="none" stroke="black" points="202.5,-288 202.5,-310 331.5,-310 331.5,-288 202.5,-288"/>
<image xlink:href="../../images/foreignKeys.png" width="11px" height="12px" preserveAspectRatio="xMinYMin meet" x="207.5" y="-305"/>
<text text-anchor="start" x="222.5" y="-296.2" font-family="Helvetica,sans-Serif" font-size="11.00">parent_task_id</text>
<polygon fill="none" stroke="black" points="331.5,-288 331.5,-310 441.5,-310 441.5,-288 331.5,-288"/>
<text text-anchor="start" x="334.5" y="-296.2" font-family="Helvetica,sans-Serif" font-size="11.00">uuid[2147483647]</text>
<polygon fill="#ffffff" stroke="none" points="202.5,-266 202.5,-288 331.5,-288 331.5,-266 202.5,-266"/>
<polygon fill="none" stroke="black" points="202.5,-266 202.5,-288 331.5,-288 331.5,-266 202.5,-266"/>
<image xlink:href="../../images/foreignKeys.png" width="11px" height="12px" preserveAspectRatio="xMinYMin meet" x="207.5" y="-283"/>
<text text-anchor="start" x="222.5" y="-274.2" font-family="Helvetica,sans-Serif" font-size="11.00">task_group_id</text>
<polygon fill="none" stroke="black" points="331.5,-266 331.5,-288 441.5,-288 441.5,-266 331.5,-266"/>
<text text-anchor="start" x="334.5" y="-274.2" font-family="Helvetica,sans-Serif" font-size="11.00">uuid[2147483647]</text>
<polygon fill="#ffffff" stroke="none" points="202.5,-248 202.5,-266 245.5,-266 245.5,-248 202.5,-248"/>
<polygon fill="none" stroke="black" points="202.5,-248 202.5,-266 245.5,-266 245.5,-248 202.5,-248"/>
<text text-anchor="start" x="205.5" y="-254.2" font-family="Helvetica,sans-Serif" font-size="11.00">&lt; 3</text>
<polygon fill="#ffffff" stroke="none" points="245.5,-248 245.5,-266 331.5,-266 331.5,-248 245.5,-248"/>
<polygon fill="none" stroke="black" points="245.5,-248 245.5,-266 331.5,-266 331.5,-248 245.5,-248"/>
<text text-anchor="start" x="269.5" y="-254.2" font-family="Helvetica,sans-Serif" font-size="11.00">1,828 rows</text>
<polygon fill="#ffffff" stroke="none" points="331.5,-248 331.5,-266 441.5,-266 441.5,-248 331.5,-248"/>
<polygon fill="none" stroke="black" points="331.5,-248 331.5,-266 441.5,-266 441.5,-248 331.5,-248"/>
<text text-anchor="start" x="421.5" y="-254.2" font-family="Helvetica,sans-Serif" font-size="11.00">8 &gt;</text>
<polygon fill="none" stroke="black" stroke-width="2" points="201,-247 201,-531 442,-531 442,-247 201,-247"/>
</a>
</g>
</g>
<!-- ansible_collectionimport&#45;&gt;core_task -->
<g id="edge1" class="edge"><title>ansible_collectionimport:task_id:w&#45;&gt;core_task:pulp_id.type:e</title>
<path fill="none" stroke="black" d="M504.999,-930.061C426.757,-898.679 536.69,-497 442.5,-497"/>
<polygon fill="black" stroke="black" points="515.44,-927.921 513.987,-935.788 512.413,-935.498 513.866,-927.631 515.44,-927.921"/>
<polyline fill="none" stroke="black" points="515.5,-932 511.567,-931.273 "/>
<ellipse fill="none" stroke="black" cx="508.42" cy="-930.692" rx="3.2" ry="3.2"/>
</g>
<!-- core_task&#45;&gt;core_task -->
<g id="edge6" class="edge"><title>core_task:parent_task_id:w&#45;&gt;core_task:pulp_id.type:e</title>
<path fill="none" stroke="black" d="M192.512,-309.783C142.618,-374.705 152.547,-549 322,-549 502,-549 502,-540.333 441.5,-497"/>
<polygon fill="black" stroke="black" points="197.064,-304.869 205.141,-301.446 199.782,-301.935 202.5,-299 202.5,-299 202.5,-299 199.782,-301.935 199.859,-296.554 197.064,-304.869 197.064,-304.869"/>
<ellipse fill="none" stroke="black" cx="194.889" cy="-307.217" rx="3.20001" ry="3.20001"/>
</g>
<!-- core_taskgroup -->
<g id="node7" class="node"><title>core_taskgroup</title>
<g id="a_node7"><a xlink:href="../../tables/core_taskgroup.html" xlink:title="core_taskgroup" target="_top">
<polygon fill="#ffffff" stroke="none" points="8,-191 8,-271 151,-271 151,-191 8,-191"/>
<polygon fill="#f5f5f5" stroke="none" points="8.5,-249 8.5,-271 151.5,-271 151.5,-249 8.5,-249"/>
<polygon fill="none" stroke="black" points="8.5,-249 8.5,-271 151.5,-271 151.5,-249 8.5,-249"/>
<text text-anchor="start" x="13.5" y="-258.2" font-family="Helvetica,sans-Serif" font-weight="bold" font-size="11.00">core_taskgroup</text>
<text text-anchor="start" x="112.5" y="-257.2" font-family="Helvetica,sans-Serif" font-size="11.00">[table]</text>
<polygon fill="none" stroke="black" points="8.5,-227 8.5,-249 151.5,-249 151.5,-227 8.5,-227"/>
<image xlink:href="../../images/primaryKeys.png" width="11px" height="12px" preserveAspectRatio="xMinYMin meet" x="13.5" y="-244"/>
<text text-anchor="start" x="28.5" y="-235.2" font-family="Helvetica,sans-Serif" font-size="11.00">pulp_id</text>
<polygon fill="none" stroke="black" points="8.5,-209 8.5,-227 151.5,-227 151.5,-209 8.5,-209"/>
<text text-anchor="start" x="11.5" y="-215.2" font-family="Helvetica,sans-Serif" font-size="11.00">...</text>
<polygon fill="#ffffff" stroke="none" points="8.5,-191 8.5,-209 50.5,-209 50.5,-191 8.5,-191"/>
<polygon fill="none" stroke="black" points="8.5,-191 8.5,-209 50.5,-209 50.5,-191 8.5,-191"/>
<text text-anchor="start" x="11.5" y="-197.2" font-family="Helvetica,sans-Serif" font-size="11.00"> &#160;</text>
<polygon fill="#ffffff" stroke="none" points="50.5,-191 50.5,-209 113.5,-209 113.5,-191 50.5,-191"/>
<polygon fill="none" stroke="black" points="50.5,-191 50.5,-209 113.5,-209 113.5,-191 50.5,-191"/>
<text text-anchor="start" x="67.5" y="-197.2" font-family="Helvetica,sans-Serif" font-size="11.00">26 rows</text>
<polygon fill="#ffffff" stroke="none" points="113.5,-191 113.5,-209 151.5,-209 151.5,-191 113.5,-191"/>
<polygon fill="none" stroke="black" points="113.5,-191 113.5,-209 151.5,-209 151.5,-191 113.5,-191"/>
<text text-anchor="start" x="131.5" y="-197.2" font-family="Helvetica,sans-Serif" font-size="11.00">2 &gt;</text>
</a>
</g>
</g>
<!-- core_task&#45;&gt;core_taskgroup -->
<g id="edge7" class="edge"><title>core_task:task_group_id:w&#45;&gt;core_taskgroup:pulp_id:e</title>
<path fill="none" stroke="black" d="M187.465,-272.218C174.932,-261.804 174.245,-238 152.5,-238"/>
<polygon fill="black" stroke="black" points="193.927,-274.42 200.339,-280.408 197.714,-275.71 201.5,-277 201.5,-277 201.5,-277 197.714,-275.71 202.661,-273.592 193.927,-274.42 193.927,-274.42"/>
<ellipse fill="none" stroke="black" cx="190.898" cy="-273.388" rx="3.20001" ry="3.20001"/>
</g>
<!-- core_worker -->
<g id="node8" class="node"><title>core_worker</title>
<g id="a_node8"><a xlink:href="../../tables/core_worker.html" xlink:title="core_worker" target="_top">
<polygon fill="#ffffff" stroke="none" points="13,-292 13,-394 146,-394 146,-292 13,-292"/>
<polygon fill="#f5f5f5" stroke="none" points="13.5,-372 13.5,-394 146.5,-394 146.5,-372 13.5,-372"/>
<polygon fill="none" stroke="black" points="13.5,-372 13.5,-394 146.5,-394 146.5,-372 13.5,-372"/>
<text text-anchor="start" x="18.5" y="-381.2" font-family="Helvetica,sans-Serif" font-weight="bold" font-size="11.00">core_worker</text>
<text text-anchor="start" x="107.5" y="-380.2" font-family="Helvetica,sans-Serif" font-size="11.00">[table]</text>
<polygon fill="none" stroke="black" points="13.5,-350 13.5,-372 146.5,-372 146.5,-350 13.5,-350"/>
<image xlink:href="../../images/primaryKeys.png" width="11px" height="12px" preserveAspectRatio="xMinYMin meet" x="18.5" y="-367"/>
<text text-anchor="start" x="33.5" y="-358.2" font-family="Helvetica,sans-Serif" font-size="11.00">pulp_id</text>
<polygon fill="#ffffff" stroke="none" points="13.5,-328 13.5,-350 146.5,-350 146.5,-328 13.5,-328"/>
<polygon fill="none" stroke="black" points="13.5,-328 13.5,-350 146.5,-350 146.5,-328 13.5,-328"/>
<text text-anchor="start" x="33.5" y="-336.2" font-family="Helvetica,sans-Serif" font-size="11.00">name</text>
<polygon fill="none" stroke="black" points="13.5,-310 13.5,-328 146.5,-328 146.5,-310 13.5,-310"/>
<text text-anchor="start" x="16.5" y="-316.2" font-family="Helvetica,sans-Serif" font-size="11.00">...</text>
<polygon fill="#ffffff" stroke="none" points="13.5,-292 13.5,-310 47.5,-310 47.5,-292 13.5,-292"/>
<polygon fill="none" stroke="black" points="13.5,-292 13.5,-310 47.5,-310 47.5,-292 13.5,-292"/>
<text text-anchor="start" x="16.5" y="-298.2" font-family="Helvetica,sans-Serif" font-size="11.00"> &#160;</text>
<polygon fill="#ffffff" stroke="none" points="47.5,-292 47.5,-310 112.5,-310 112.5,-292 47.5,-292"/>
<polygon fill="none" stroke="black" points="47.5,-292 47.5,-310 112.5,-310 112.5,-292 47.5,-292"/>
<text text-anchor="start" x="60.5" y="-298.2" font-family="Helvetica,sans-Serif" font-size="11.00">148 rows</text>
<polygon fill="#ffffff" stroke="none" points="112.5,-292 112.5,-310 146.5,-310 146.5,-292 112.5,-292"/>
<polygon fill="none" stroke="black" points="112.5,-292 112.5,-310 146.5,-310 146.5,-292 112.5,-292"/>
<text text-anchor="start" x="126.5" y="-298.2" font-family="Helvetica,sans-Serif" font-size="11.00">2 &gt;</text>
</a>
</g>
</g>
<!-- core_task&#45;&gt;core_worker -->
<g id="edge8" class="edge"><title>core_task:worker_id:w&#45;&gt;core_worker:pulp_id:e</title>
<path fill="none" stroke="black" d="M187.543,-324.982C172.515,-335.099 171.534,-361 147.5,-361"/>
<polygon fill="black" stroke="black" points="193.807,-323.195 202.488,-324.462 197.653,-322.097 201.5,-321 201.5,-321 201.5,-321 197.653,-322.097 200.512,-317.538 193.807,-323.195 193.807,-323.195"/>
<ellipse fill="none" stroke="black" cx="190.73" cy="-324.073" rx="3.20001" ry="3.20001"/>
</g>
<!-- core_createdresource -->
<g id="node3" class="node"><title>core_createdresource</title>
<g id="a_node3"><a xlink:href="../../tables/core_createdresource.html" xlink:title="core_createdresource" target="_top">
<polygon fill="#ffffff" stroke="none" points="525.5,-740 525.5,-864 697.5,-864 697.5,-740 525.5,-740"/>
<polygon fill="#f5f5f5" stroke="none" points="525.5,-842 525.5,-864 697.5,-864 697.5,-842 525.5,-842"/>
<polygon fill="none" stroke="black" points="525.5,-842 525.5,-864 697.5,-864 697.5,-842 525.5,-842"/>
<text text-anchor="start" x="530.5" y="-851.2" font-family="Helvetica,sans-Serif" font-weight="bold" font-size="11.00">core_createdresource</text>
<text text-anchor="start" x="658.5" y="-850.2" font-family="Helvetica,sans-Serif" font-size="11.00">[table]</text>
<polygon fill="none" stroke="black" points="525.5,-820 525.5,-842 697.5,-842 697.5,-820 525.5,-820"/>
<image xlink:href="../../images/primaryKeys.png" width="11px" height="12px" preserveAspectRatio="xMinYMin meet" x="530.5" y="-837"/>
<text text-anchor="start" x="556.5" y="-828.2" font-family="Helvetica,sans-Serif" font-size="11.00">pulp_id</text>
<polygon fill="#ffffff" stroke="none" points="525.5,-798 525.5,-820 697.5,-820 697.5,-798 525.5,-798"/>
<polygon fill="none" stroke="black" points="525.5,-798 525.5,-820 697.5,-820 697.5,-798 525.5,-798"/>
<image xlink:href="../../images/foreignKeys.png" width="11px" height="12px" preserveAspectRatio="xMinYMin meet" x="530.5" y="-815"/>
<text text-anchor="start" x="556.5" y="-806.2" font-family="Helvetica,sans-Serif" font-size="11.00">content_type_id</text>
<polygon fill="#ffffff" stroke="none" points="525.5,-776 525.5,-798 697.5,-798 697.5,-776 525.5,-776"/>
<polygon fill="none" stroke="black" points="525.5,-776 525.5,-798 697.5,-798 697.5,-776 525.5,-776"/>
<image xlink:href="../../images/foreignKeys.png" width="11px" height="12px" preserveAspectRatio="xMinYMin meet" x="530.5" y="-793"/>
<text text-anchor="start" x="556.5" y="-784.2" font-family="Helvetica,sans-Serif" font-size="11.00">task_id</text>
<polygon fill="none" stroke="black" points="525.5,-758 525.5,-776 697.5,-776 697.5,-758 525.5,-758"/>
<text text-anchor="start" x="528.5" y="-764.2" font-family="Helvetica,sans-Serif" font-size="11.00">...</text>
<polygon fill="#ffffff" stroke="none" points="525.5,-740 525.5,-758 588.5,-758 588.5,-740 525.5,-740"/>
<polygon fill="none" stroke="black" points="525.5,-740 525.5,-758 588.5,-758 588.5,-740 525.5,-740"/>
<text text-anchor="start" x="528.5" y="-746.2" font-family="Helvetica,sans-Serif" font-size="11.00">&lt; 2</text>
<polygon fill="#ffffff" stroke="none" points="588.5,-740 588.5,-758 663.5,-758 663.5,-740 588.5,-740"/>
<polygon fill="none" stroke="black" points="588.5,-740 588.5,-758 663.5,-758 663.5,-740 588.5,-740"/>
<text text-anchor="start" x="611.5" y="-746.2" font-family="Helvetica,sans-Serif" font-size="11.00">365 rows</text>
<polygon fill="#ffffff" stroke="none" points="663.5,-740 663.5,-758 697.5,-758 697.5,-740 663.5,-740"/>
<polygon fill="none" stroke="black" points="663.5,-740 663.5,-758 697.5,-758 697.5,-740 663.5,-740"/>
<text text-anchor="start" x="687.5" y="-746.2" font-family="Helvetica,sans-Serif" font-size="11.00"> &#160;</text>
</a>
</g>
</g>
<!-- core_createdresource&#45;&gt;core_task -->
<g id="edge2" class="edge"><title>core_createdresource:task_id:w&#45;&gt;core_task:pulp_id.type:e</title>
<path fill="none" stroke="black" d="M510.252,-784.196C493.882,-776.361 493.763,-753.286 484,-730 463.664,-681.498 495.093,-497 442.5,-497"/>
<polygon fill="black" stroke="black" points="516.651,-785.455 523.805,-790.532 520.575,-786.228 524.5,-787 524.5,-787 524.5,-787 520.575,-786.228 525.195,-783.468 516.651,-785.455 516.651,-785.455"/>
<ellipse fill="none" stroke="black" cx="513.511" cy="-784.837" rx="3.2" ry="3.2"/>
</g>
<!-- core_export -->
<g id="node4" class="node"><title>core_export</title>
<g id="a_node4"><a xlink:href="../../tables/core_export.html" xlink:title="core_export" target="_top">
<polygon fill="#ffffff" stroke="none" points="547,-595 547,-719 676,-719 676,-595 547,-595"/>
<polygon fill="#f5f5f5" stroke="none" points="547.5,-697 547.5,-719 676.5,-719 676.5,-697 547.5,-697"/>
<polygon fill="none" stroke="black" points="547.5,-697 547.5,-719 676.5,-719 676.5,-697 547.5,-697"/>
<text text-anchor="start" x="552.5" y="-706.2" font-family="Helvetica,sans-Serif" font-weight="bold" font-size="11.00">core_export</text>
<text text-anchor="start" x="637.5" y="-705.2" font-family="Helvetica,sans-Serif" font-size="11.00">[table]</text>
<polygon fill="none" stroke="black" points="547.5,-675 547.5,-697 676.5,-697 676.5,-675 547.5,-675"/>
<image xlink:href="../../images/primaryKeys.png" width="11px" height="12px" preserveAspectRatio="xMinYMin meet" x="552.5" y="-692"/>
<text text-anchor="start" x="567.5" y="-683.2" font-family="Helvetica,sans-Serif" font-size="11.00">pulp_id</text>
<polygon fill="#ffffff" stroke="none" points="547.5,-653 547.5,-675 676.5,-675 676.5,-653 547.5,-653"/>
<polygon fill="none" stroke="black" points="547.5,-653 547.5,-675 676.5,-675 676.5,-653 547.5,-653"/>
<image xlink:href="../../images/foreignKeys.png" width="11px" height="12px" preserveAspectRatio="xMinYMin meet" x="552.5" y="-670"/>
<text text-anchor="start" x="567.5" y="-661.2" font-family="Helvetica,sans-Serif" font-size="11.00">exporter_id</text>
<polygon fill="#ffffff" stroke="none" points="547.5,-631 547.5,-653 676.5,-653 676.5,-631 547.5,-631"/>
<polygon fill="none" stroke="black" points="547.5,-631 547.5,-653 676.5,-653 676.5,-631 547.5,-631"/>
<image xlink:href="../../images/foreignKeys.png" width="11px" height="12px" preserveAspectRatio="xMinYMin meet" x="552.5" y="-648"/>
<text text-anchor="start" x="567.5" y="-639.2" font-family="Helvetica,sans-Serif" font-size="11.00">task_id</text>
<polygon fill="none" stroke="black" points="547.5,-613 547.5,-631 676.5,-631 676.5,-613 547.5,-613"/>
<text text-anchor="start" x="550.5" y="-619.2" font-family="Helvetica,sans-Serif" font-size="11.00">...</text>
<polygon fill="#ffffff" stroke="none" points="547.5,-595 547.5,-613 590.5,-613 590.5,-595 547.5,-595"/>
<polygon fill="none" stroke="black" points="547.5,-595 547.5,-613 590.5,-613 590.5,-595 547.5,-595"/>
<text text-anchor="start" x="550.5" y="-601.2" font-family="Helvetica,sans-Serif" font-size="11.00">&lt; 2</text>
<polygon fill="#ffffff" stroke="none" points="590.5,-595 590.5,-613 642.5,-613 642.5,-595 590.5,-595"/>
<polygon fill="none" stroke="black" points="590.5,-595 590.5,-613 642.5,-613 642.5,-595 590.5,-595"/>
<text text-anchor="start" x="603.5" y="-601.2" font-family="Helvetica,sans-Serif" font-size="11.00">0 rows</text>
<polygon fill="#ffffff" stroke="none" points="642.5,-595 642.5,-613 676.5,-613 676.5,-595 642.5,-595"/>
<polygon fill="none" stroke="black" points="642.5,-595 642.5,-613 676.5,-613 676.5,-595 642.5,-595"/>
<text text-anchor="start" x="656.5" y="-601.2" font-family="Helvetica,sans-Serif" font-size="11.00">2 &gt;</text>
</a>
</g>
</g>
<!-- core_export&#45;&gt;core_task -->
<g id="edge3" class="edge"><title>core_export:task_id:w&#45;&gt;core_task:pulp_id.type:e</title>
<path fill="none" stroke="black" d="M531.894,-640.307C507.706,-633.98 503.017,-610.754 484,-585 458.314,-550.213 485.742,-497 442.5,-497"/>
<polygon fill="black" stroke="black" points="538.553,-641.079 546.086,-645.576 542.527,-641.54 546.5,-642 546.5,-642 546.5,-642 542.527,-641.54 546.914,-638.424 538.553,-641.079 538.553,-641.079"/>
<ellipse fill="none" stroke="black" cx="535.374" cy="-640.711" rx="3.2" ry="3.2"/>
</g>
<!-- core_import -->
<g id="node5" class="node"><title>core_import</title>
<g id="a_node5"><a xlink:href="../../tables/core_import.html" xlink:title="core_import" target="_top">
<polygon fill="#ffffff" stroke="none" points="547,-450 547,-574 676,-574 676,-450 547,-450"/>
<polygon fill="#f5f5f5" stroke="none" points="547.5,-552 547.5,-574 676.5,-574 676.5,-552 547.5,-552"/>
<polygon fill="none" stroke="black" points="547.5,-552 547.5,-574 676.5,-574 676.5,-552 547.5,-552"/>
<text text-anchor="start" x="552.5" y="-561.2" font-family="Helvetica,sans-Serif" font-weight="bold" font-size="11.00">core_import</text>
<text text-anchor="start" x="637.5" y="-560.2" font-family="Helvetica,sans-Serif" font-size="11.00">[table]</text>
<polygon fill="none" stroke="black" points="547.5,-530 547.5,-552 676.5,-552 676.5,-530 547.5,-530"/>
<image xlink:href="../../images/primaryKeys.png" width="11px" height="12px" preserveAspectRatio="xMinYMin meet" x="552.5" y="-547"/>
<text text-anchor="start" x="567.5" y="-538.2" font-family="Helvetica,sans-Serif" font-size="11.00">pulp_id</text>
<polygon fill="#ffffff" stroke="none" points="547.5,-508 547.5,-530 676.5,-530 676.5,-508 547.5,-508"/>
<polygon fill="none" stroke="black" points="547.5,-508 547.5,-530 676.5,-530 676.5,-508 547.5,-508"/>
<image xlink:href="../../images/foreignKeys.png" width="11px" height="12px" preserveAspectRatio="xMinYMin meet" x="552.5" y="-525"/>
<text text-anchor="start" x="567.5" y="-516.2" font-family="Helvetica,sans-Serif" font-size="11.00">importer_id</text>
<polygon fill="#ffffff" stroke="none" points="547.5,-486 547.5,-508 676.5,-508 676.5,-486 547.5,-486"/>
<polygon fill="none" stroke="black" points="547.5,-486 547.5,-508 676.5,-508 676.5,-486 547.5,-486"/>
<image xlink:href="../../images/foreignKeys.png" width="11px" height="12px" preserveAspectRatio="xMinYMin meet" x="552.5" y="-503"/>
<text text-anchor="start" x="567.5" y="-494.2" font-family="Helvetica,sans-Serif" font-size="11.00">task_id</text>
<polygon fill="none" stroke="black" points="547.5,-468 547.5,-486 676.5,-486 676.5,-468 547.5,-468"/>
<text text-anchor="start" x="550.5" y="-474.2" font-family="Helvetica,sans-Serif" font-size="11.00">...</text>
<polygon fill="#ffffff" stroke="none" points="547.5,-450 547.5,-468 590.5,-468 590.5,-450 547.5,-450"/>
<polygon fill="none" stroke="black" points="547.5,-450 547.5,-468 590.5,-468 590.5,-450 547.5,-450"/>
<text text-anchor="start" x="550.5" y="-456.2" font-family="Helvetica,sans-Serif" font-size="11.00">&lt; 2</text>
<polygon fill="#ffffff" stroke="none" points="590.5,-450 590.5,-468 642.5,-468 642.5,-450 590.5,-450"/>
<polygon fill="none" stroke="black" points="590.5,-450 590.5,-468 642.5,-468 642.5,-450 590.5,-450"/>
<text text-anchor="start" x="603.5" y="-456.2" font-family="Helvetica,sans-Serif" font-size="11.00">0 rows</text>
<polygon fill="#ffffff" stroke="none" points="642.5,-450 642.5,-468 676.5,-468 676.5,-450 642.5,-450"/>
<polygon fill="none" stroke="black" points="642.5,-450 642.5,-468 676.5,-468 676.5,-450 642.5,-450"/>
<text text-anchor="start" x="656.5" y="-456.2" font-family="Helvetica,sans-Serif" font-size="11.00">1 &gt;</text>
</a>
</g>
</g>
<!-- core_import&#45;&gt;core_task -->
<g id="edge4" class="edge"><title>core_import:task_id:w&#45;&gt;core_task:pulp_id.type:e</title>
<path fill="none" stroke="black" d="M532.025,-497C497.215,-497 483.486,-497 442.5,-497"/>
<polygon fill="black" stroke="black" points="538.5,-497 546.5,-500.6 542.5,-497 546.5,-497 546.5,-497 546.5,-497 542.5,-497 546.5,-493.4 538.5,-497 538.5,-497"/>
<ellipse fill="none" stroke="black" cx="535.3" cy="-497" rx="3.2" ry="3.2"/>
</g>
<!-- core_progressreport -->
<g id="node6" class="node"><title>core_progressreport</title>
<g id="a_node6"><a xlink:href="../../tables/core_progressreport.html" xlink:title="core_progressreport" target="_top">
<polygon fill="#ffffff" stroke="none" points="530,-327 530,-429 693,-429 693,-327 530,-327"/>
<polygon fill="#f5f5f5" stroke="none" points="530.5,-407 530.5,-429 693.5,-429 693.5,-407 530.5,-407"/>
<polygon fill="none" stroke="black" points="530.5,-407 530.5,-429 693.5,-429 693.5,-407 530.5,-407"/>
<text text-anchor="start" x="535.5" y="-416.2" font-family="Helvetica,sans-Serif" font-weight="bold" font-size="11.00">core_progressreport</text>
<text text-anchor="start" x="654.5" y="-415.2" font-family="Helvetica,sans-Serif" font-size="11.00">[table]</text>
<polygon fill="none" stroke="black" points="530.5,-385 530.5,-407 693.5,-407 693.5,-385 530.5,-385"/>
<image xlink:href="../../images/primaryKeys.png" width="11px" height="12px" preserveAspectRatio="xMinYMin meet" x="535.5" y="-402"/>
<text text-anchor="start" x="561.5" y="-393.2" font-family="Helvetica,sans-Serif" font-size="11.00">pulp_id</text>
<polygon fill="#ffffff" stroke="none" points="530.5,-363 530.5,-385 693.5,-385 693.5,-363 530.5,-363"/>
<polygon fill="none" stroke="black" points="530.5,-363 530.5,-385 693.5,-385 693.5,-363 530.5,-363"/>
<image xlink:href="../../images/foreignKeys.png" width="11px" height="12px" preserveAspectRatio="xMinYMin meet" x="535.5" y="-380"/>
<text text-anchor="start" x="561.5" y="-371.2" font-family="Helvetica,sans-Serif" font-size="11.00">task_id</text>
<polygon fill="none" stroke="black" points="530.5,-345 530.5,-363 693.5,-363 693.5,-345 530.5,-345"/>
<text text-anchor="start" x="533.5" y="-351.2" font-family="Helvetica,sans-Serif" font-size="11.00">...</text>
<polygon fill="#ffffff" stroke="none" points="530.5,-327 530.5,-345 592.5,-345 592.5,-327 530.5,-327"/>
<polygon fill="none" stroke="black" points="530.5,-327 530.5,-345 592.5,-345 592.5,-327 530.5,-327"/>
<text text-anchor="start" x="533.5" y="-333.2" font-family="Helvetica,sans-Serif" font-size="11.00">&lt; 1</text>
<polygon fill="#ffffff" stroke="none" points="592.5,-327 592.5,-345 660.5,-345 660.5,-327 592.5,-327"/>
<polygon fill="none" stroke="black" points="592.5,-327 592.5,-345 660.5,-345 660.5,-327 592.5,-327"/>
<text text-anchor="start" x="614.5" y="-333.2" font-family="Helvetica,sans-Serif" font-size="11.00">53 rows</text>
<polygon fill="#ffffff" stroke="none" points="660.5,-327 660.5,-345 693.5,-345 693.5,-327 660.5,-327"/>
<polygon fill="none" stroke="black" points="660.5,-327 660.5,-345 693.5,-345 693.5,-327 660.5,-327"/>
<text text-anchor="start" x="683.5" y="-333.2" font-family="Helvetica,sans-Serif" font-size="11.00"> &#160;</text>
</a>
</g>
</g>
<!-- core_progressreport&#45;&gt;core_task -->
<g id="edge5" class="edge"><title>core_progressreport:task_id:w&#45;&gt;core_task:pulp_id.type:e</title>
<path fill="none" stroke="black" d="M518.3,-383.245C495.818,-411.85 456.428,-497 442.5,-497"/>
<polygon fill="black" stroke="black" points="523.33,-379.093 531.792,-376.776 526.415,-376.546 529.5,-374 529.5,-374 529.5,-374 526.415,-376.546 527.208,-371.224 523.33,-379.093 523.33,-379.093"/>
<ellipse fill="none" stroke="black" cx="520.863" cy="-381.13" rx="3.20001" ry="3.20001"/>
</g>
<!-- core_taskreservedresource -->
<g id="node9" class="node"><title>core_taskreservedresource</title>
<g id="a_node9"><a xlink:href="../../tables/core_taskreservedresource.html" xlink:title="core_taskreservedresource" target="_top">
<polygon fill="#ffffff" stroke="none" points="510.5,-182 510.5,-306 712.5,-306 712.5,-182 510.5,-182"/>
<polygon fill="#f5f5f5" stroke="none" points="510.5,-284 510.5,-306 712.5,-306 712.5,-284 510.5,-284"/>
<polygon fill="none" stroke="black" points="510.5,-284 510.5,-306 712.5,-306 712.5,-284 510.5,-284"/>
<text text-anchor="start" x="515.5" y="-293.2" font-family="Helvetica,sans-Serif" font-weight="bold" font-size="11.00">core_taskreservedresource</text>
<text text-anchor="start" x="673.5" y="-292.2" font-family="Helvetica,sans-Serif" font-size="11.00">[table]</text>
<polygon fill="none" stroke="black" points="510.5,-262 510.5,-284 712.5,-284 712.5,-262 510.5,-262"/>
<image xlink:href="../../images/primaryKeys.png" width="11px" height="12px" preserveAspectRatio="xMinYMin meet" x="515.5" y="-279"/>
<text text-anchor="start" x="540.5" y="-270.2" font-family="Helvetica,sans-Serif" font-size="11.00">pulp_id</text>
<polygon fill="#ffffff" stroke="none" points="510.5,-240 510.5,-262 712.5,-262 712.5,-240 510.5,-240"/>
<polygon fill="none" stroke="black" points="510.5,-240 510.5,-262 712.5,-262 712.5,-240 510.5,-240"/>
<image xlink:href="../../images/foreignKeys.png" width="11px" height="12px" preserveAspectRatio="xMinYMin meet" x="515.5" y="-257"/>
<text text-anchor="start" x="540.5" y="-248.2" font-family="Helvetica,sans-Serif" font-size="11.00">resource_id</text>
<polygon fill="#ffffff" stroke="none" points="510.5,-218 510.5,-240 712.5,-240 712.5,-218 510.5,-218"/>
<polygon fill="none" stroke="black" points="510.5,-218 510.5,-240 712.5,-240 712.5,-218 510.5,-218"/>
<image xlink:href="../../images/foreignKeys.png" width="11px" height="12px" preserveAspectRatio="xMinYMin meet" x="515.5" y="-235"/>
<text text-anchor="start" x="540.5" y="-226.2" font-family="Helvetica,sans-Serif" font-size="11.00">task_id</text>
<polygon fill="none" stroke="black" points="510.5,-200 510.5,-218 712.5,-218 712.5,-200 510.5,-200"/>
<text text-anchor="start" x="513.5" y="-206.2" font-family="Helvetica,sans-Serif" font-size="11.00">...</text>
<polygon fill="#ffffff" stroke="none" points="510.5,-182 510.5,-200 595.5,-200 595.5,-182 510.5,-182"/>
<polygon fill="none" stroke="black" points="510.5,-182 510.5,-200 595.5,-200 595.5,-182 510.5,-182"/>
<text text-anchor="start" x="513.5" y="-188.2" font-family="Helvetica,sans-Serif" font-size="11.00">&lt; 2</text>
<polygon fill="#ffffff" stroke="none" points="595.5,-182 595.5,-200 668.5,-200 668.5,-182 595.5,-182"/>
<polygon fill="none" stroke="black" points="595.5,-182 595.5,-200 668.5,-200 668.5,-182 595.5,-182"/>
<text text-anchor="start" x="629.5" y="-188.2" font-family="Helvetica,sans-Serif" font-size="11.00">0 rows</text>
<polygon fill="#ffffff" stroke="none" points="668.5,-182 668.5,-200 712.5,-200 712.5,-182 668.5,-182"/>
<polygon fill="none" stroke="black" points="668.5,-182 668.5,-200 712.5,-200 712.5,-182 668.5,-182"/>
<text text-anchor="start" x="702.5" y="-188.2" font-family="Helvetica,sans-Serif" font-size="11.00"> &#160;</text>
</a>
</g>
</g>
<!-- core_taskreservedresource&#45;&gt;core_task -->
<g id="edge9" class="edge"><title>core_taskreservedresource:task_id:w&#45;&gt;core_task:pulp_id.type:e</title>
<path fill="none" stroke="black" d="M496.12,-234.598C456.833,-273.083 498.613,-497 442.5,-497"/>
<polygon fill="black" stroke="black" points="502.12,-232.088 510.889,-232.321 505.81,-230.544 509.5,-229 509.5,-229 509.5,-229 505.81,-230.544 508.111,-225.679 502.12,-232.088 502.12,-232.088"/>
<ellipse fill="none" stroke="black" cx="499.168" cy="-233.323" rx="3.20001" ry="3.20001"/>
</g>
<!-- core_taskreservedresourcerecord -->
<g id="node10" class="node"><title>core_taskreservedresourcerecord</title>
<g id="a_node10"><a xlink:href="../../tables/core_taskreservedresourcerecord.html" xlink:title="core_taskreservedresourcerecord" target="_top">
<polygon fill="#ffffff" stroke="none" points="492,-37 492,-161 731,-161 731,-37 492,-37"/>
<polygon fill="#f5f5f5" stroke="none" points="492.5,-139 492.5,-161 731.5,-161 731.5,-139 492.5,-139"/>
<polygon fill="none" stroke="black" points="492.5,-139 492.5,-161 731.5,-161 731.5,-139 492.5,-139"/>
<text text-anchor="start" x="497.5" y="-148.2" font-family="Helvetica,sans-Serif" font-weight="bold" font-size="11.00">core_taskreservedresourcerecord</text>
<text text-anchor="start" x="692.5" y="-147.2" font-family="Helvetica,sans-Serif" font-size="11.00">[table]</text>
<polygon fill="none" stroke="black" points="492.5,-117 492.5,-139 731.5,-139 731.5,-117 492.5,-117"/>
<image xlink:href="../../images/primaryKeys.png" width="11px" height="12px" preserveAspectRatio="xMinYMin meet" x="497.5" y="-134"/>
<text text-anchor="start" x="521.5" y="-125.2" font-family="Helvetica,sans-Serif" font-size="11.00">pulp_id</text>
<polygon fill="#ffffff" stroke="none" points="492.5,-95 492.5,-117 731.5,-117 731.5,-95 492.5,-95"/>
<polygon fill="none" stroke="black" points="492.5,-95 492.5,-117 731.5,-117 731.5,-95 492.5,-95"/>
<image xlink:href="../../images/foreignKeys.png" width="11px" height="12px" preserveAspectRatio="xMinYMin meet" x="497.5" y="-112"/>
<text text-anchor="start" x="521.5" y="-103.2" font-family="Helvetica,sans-Serif" font-size="11.00">resource_id</text>
<polygon fill="#ffffff" stroke="none" points="492.5,-73 492.5,-95 731.5,-95 731.5,-73 492.5,-73"/>
<polygon fill="none" stroke="black" points="492.5,-73 492.5,-95 731.5,-95 731.5,-73 492.5,-73"/>
<image xlink:href="../../images/foreignKeys.png" width="11px" height="12px" preserveAspectRatio="xMinYMin meet" x="497.5" y="-90"/>
<text text-anchor="start" x="521.5" y="-81.2" font-family="Helvetica,sans-Serif" font-size="11.00">task_id</text>
<polygon fill="none" stroke="black" points="492.5,-55 492.5,-73 731.5,-73 731.5,-55 492.5,-55"/>
<text text-anchor="start" x="495.5" y="-61.2" font-family="Helvetica,sans-Serif" font-size="11.00">...</text>
<polygon fill="#ffffff" stroke="none" points="492.5,-37 492.5,-55 584.5,-55 584.5,-37 492.5,-37"/>
<polygon fill="none" stroke="black" points="492.5,-37 492.5,-55 584.5,-55 584.5,-37 492.5,-37"/>
<text text-anchor="start" x="495.5" y="-43.2" font-family="Helvetica,sans-Serif" font-size="11.00">&lt; 2</text>
<polygon fill="#ffffff" stroke="none" points="584.5,-37 584.5,-55 683.5,-55 683.5,-37 584.5,-37"/>
<polygon fill="none" stroke="black" points="584.5,-37 584.5,-55 683.5,-55 683.5,-37 584.5,-37"/>
<text text-anchor="start" x="621.5" y="-43.2" font-family="Helvetica,sans-Serif" font-size="11.00">1,937 rows</text>
<polygon fill="#ffffff" stroke="none" points="683.5,-37 683.5,-55 731.5,-55 731.5,-37 683.5,-37"/>
<polygon fill="none" stroke="black" points="683.5,-37 683.5,-55 731.5,-55 731.5,-37 683.5,-37"/>
<text text-anchor="start" x="721.5" y="-43.2" font-family="Helvetica,sans-Serif" font-size="11.00"> &#160;</text>
</a>
</g>
</g>
<!-- core_taskreservedresourcerecord&#45;&gt;core_task -->
<g id="edge10" class="edge"><title>core_taskreservedresourcerecord:task_id:w&#45;&gt;core_task:pulp_id.type:e</title>
<path fill="none" stroke="black" d="M477.513,-88.0876C414.214,-130.981 529.506,-497 442.5,-497"/>
<polygon fill="black" stroke="black" points="483.821,-86.2442 492.51,-87.4555 487.661,-85.1221 491.5,-84 491.5,-84 491.5,-84 487.661,-85.1221 490.49,-80.5445 483.821,-86.2442 483.821,-86.2442"/>
<ellipse fill="none" stroke="black" cx="480.75" cy="-87.1418" rx="3.20001" ry="3.20001"/>
</g>
</g>
</svg>
