<?xml version="1.0" encoding="UTF-8" standalone="no"?>
<!DOCTYPE svg PUBLIC "-//W3C//DTD SVG 1.1//EN"
 "http://www.w3.org/Graphics/SVG/1.1/DTD/svg11.dtd">
<!-- Generated by graphviz version 2.38.0 (20140413.2041)
 -->
<!-- Title: oneDegreeRelationshipsDiagram Pages: 1 -->
<svg width="493pt" height="351pt"
 viewBox="0.00 0.00 493.00 351.00" xmlns="http://www.w3.org/2000/svg" xmlns:xlink="http://www.w3.org/1999/xlink">
<g id="graph0" class="graph" transform="scale(1 1) rotate(0) translate(4 347)">
<title>oneDegreeRelationshipsDiagram</title>
<polygon fill="#ffffff" stroke="none" points="-4,4 -4,-347 489,-347 489,4 -4,4"/>
<text text-anchor="middle" x="74.5" y="-7.2" font-family="Helvetica,sans-Serif" font-size="11.00">Generated by SchemaSpy</text>
<!-- core_reservedresource -->
<g id="node1" class="node"><title>core_reservedresource</title>
<g id="a_node1"><a xlink:href="../../tables/core_reservedresource.html" xlink:title="core_reservedresource" target="_top">
<polygon fill="#ffffff" stroke="none" points="299,-215 299,-339 477,-339 477,-215 299,-215"/>
<polygon fill="#f5f5f5" stroke="none" points="299,-317 299,-339 477,-339 477,-317 299,-317"/>
<polygon fill="none" stroke="black" points="299,-317 299,-339 477,-339 477,-317 299,-317"/>
<text text-anchor="start" x="304" y="-326.2" font-family="Helvetica,sans-Serif" font-weight="bold" font-size="11.00">core_reservedresource</text>
<text text-anchor="start" x="438" y="-325.2" font-family="Helvetica,sans-Serif" font-size="11.00">[table]</text>
<polygon fill="none" stroke="black" points="299,-295 299,-317 477,-317 477,-295 299,-295"/>
<image xlink:href="../../images/primaryKeys.png" width="11px" height="12px" preserveAspectRatio="xMinYMin meet" x="304" y="-312"/>
<text text-anchor="start" x="330" y="-303.2" font-family="Helvetica,sans-Serif" font-size="11.00">pulp_id</text>
<polygon fill="#ffffff" stroke="none" points="299,-273 299,-295 477,-295 477,-273 299,-273"/>
<polygon fill="none" stroke="black" points="299,-273 299,-295 477,-295 477,-273 299,-273"/>
<text text-anchor="start" x="330" y="-281.2" font-family="Helvetica,sans-Serif" font-size="11.00">resource</text>
<polygon fill="#ffffff" stroke="none" points="299,-251 299,-273 477,-273 477,-251 299,-251"/>
<polygon fill="none" stroke="black" points="299,-251 299,-273 477,-273 477,-251 299,-251"/>
<image xlink:href="../../images/foreignKeys.png" width="11px" height="12px" preserveAspectRatio="xMinYMin meet" x="304" y="-268"/>
<text text-anchor="start" x="330" y="-259.2" font-family="Helvetica,sans-Serif" font-size="11.00">worker_id</text>
<polygon fill="none" stroke="black" points="299,-233 299,-251 477,-251 477,-233 299,-233"/>
<text text-anchor="start" x="302" y="-239.2" font-family="Helvetica,sans-Serif" font-size="11.00">...</text>
<polygon fill="#ffffff" stroke="none" points="299,-215 299,-233 367,-233 367,-215 299,-215"/>
<polygon fill="none" stroke="black" points="299,-215 299,-233 367,-233 367,-215 299,-215"/>
<text text-anchor="start" x="302" y="-221.2" font-family="Helvetica,sans-Serif" font-size="11.00">&lt; 1</text>
<polygon fill="#ffffff" stroke="none" points="367,-215 367,-233 431,-233 431,-215 367,-215"/>
<polygon fill="none" stroke="black" points="367,-215 367,-233 431,-233 431,-215 367,-215"/>
<text text-anchor="start" x="392" y="-221.2" font-family="Helvetica,sans-Serif" font-size="11.00">0 rows</text>
<polygon fill="#ffffff" stroke="none" points="431,-215 431,-233 477,-233 477,-215 431,-215"/>
<polygon fill="none" stroke="black" points="431,-215 431,-233 477,-233 477,-215 431,-215"/>
<text text-anchor="start" x="457" y="-221.2" font-family="Helvetica,sans-Serif" font-size="11.00">1 &gt;</text>
</a>
</g>
</g>
<!-- core_worker -->
<g id="node2" class="node"><title>core_worker</title>
<g id="a_node2"><a xlink:href="../../tables/core_worker.html" xlink:title="core_worker" target="_top">
<polygon fill="#ffffff" stroke="none" points="8,-37 8,-235 250,-235 250,-37 8,-37"/>
<polygon fill="#f5f5f5" stroke="none" points="10,-211 10,-233 248,-233 248,-211 10,-211"/>
<polygon fill="none" stroke="black" points="10,-211 10,-233 248,-233 248,-211 10,-211"/>
<text text-anchor="start" x="15" y="-220.2" font-family="Helvetica,sans-Serif" font-weight="bold" font-size="11.00">core_worker</text>
<text text-anchor="start" x="209" y="-219.2" font-family="Helvetica,sans-Serif" font-size="11.00">[table]</text>
<polygon fill="none" stroke="black" points="10,-189 10,-211 143,-211 143,-189 10,-189"/>
<image xlink:href="../../images/primaryKeys.png" width="11px" height="12px" preserveAspectRatio="xMinYMin meet" x="15" y="-206"/>
<text text-anchor="start" x="30" y="-197.2" font-family="Helvetica,sans-Serif" font-size="11.00">pulp_id</text>
<polygon fill="none" stroke="black" points="143,-189 143,-211 248,-211 248,-189 143,-189"/>
<text text-anchor="start" x="146" y="-197.2" font-family="Helvetica,sans-Serif" font-size="11.00">uuid[2147483647]</text>
<polygon fill="none" stroke="black" points="10,-167 10,-189 143,-189 143,-167 10,-167"/>
<text text-anchor="start" x="30" y="-175.2" font-family="Helvetica,sans-Serif" font-size="11.00">pulp_created</text>
<polygon fill="none" stroke="black" points="143,-167 143,-189 248,-189 248,-167 143,-167"/>
<text text-anchor="start" x="146" y="-175.2" font-family="Helvetica,sans-Serif" font-size="11.00">timestamptz[35,6]</text>
<polygon fill="none" stroke="black" points="10,-145 10,-167 143,-167 143,-145 10,-145"/>
<text text-anchor="start" x="30" y="-153.2" font-family="Helvetica,sans-Serif" font-size="11.00">pulp_last_updated</text>
<polygon fill="none" stroke="black" points="143,-145 143,-167 248,-167 248,-145 143,-145"/>
<text text-anchor="start" x="146" y="-153.2" font-family="Helvetica,sans-Serif" font-size="11.00">timestamptz[35,6]</text>
<polygon fill="#ffffff" stroke="none" points="10,-123 10,-145 143,-145 143,-123 10,-123"/>
<polygon fill="none" stroke="black" points="10,-123 10,-145 143,-145 143,-123 10,-123"/>
<text text-anchor="start" x="30" y="-131.2" font-family="Helvetica,sans-Serif" font-size="11.00">name</text>
<polygon fill="none" stroke="black" points="143,-123 143,-145 248,-145 248,-123 143,-123"/>
<text text-anchor="start" x="146" y="-131.2" font-family="Helvetica,sans-Serif" font-size="11.00">text[2147483647]</text>
<polygon fill="none" stroke="black" points="10,-101 10,-123 143,-123 143,-101 10,-101"/>
<text text-anchor="start" x="30" y="-109.2" font-family="Helvetica,sans-Serif" font-size="11.00">last_heartbeat</text>
<polygon fill="none" stroke="black" points="143,-101 143,-123 248,-123 248,-101 143,-101"/>
<text text-anchor="start" x="146" y="-109.2" font-family="Helvetica,sans-Serif" font-size="11.00">timestamptz[35,6]</text>
<polygon fill="none" stroke="black" points="10,-79 10,-101 143,-101 143,-79 10,-79"/>
<text text-anchor="start" x="30" y="-87.2" font-family="Helvetica,sans-Serif" font-size="11.00">gracefully_stopped</text>
<polygon fill="none" stroke="black" points="143,-79 143,-101 248,-101 248,-79 143,-79"/>
<text text-anchor="start" x="146" y="-87.2" font-family="Helvetica,sans-Serif" font-size="11.00">bool[1]</text>
<polygon fill="none" stroke="black" points="10,-57 10,-79 143,-79 143,-57 10,-57"/>
<text text-anchor="start" x="30" y="-65.2" font-family="Helvetica,sans-Serif" font-size="11.00">cleaned_up</text>
<polygon fill="none" stroke="black" points="143,-57 143,-79 248,-79 248,-57 143,-57"/>
<text text-anchor="start" x="146" y="-65.2" font-family="Helvetica,sans-Serif" font-size="11.00">bool[1]</text>
<polygon fill="#ffffff" stroke="none" points="10,-39 10,-57 60,-57 60,-39 10,-39"/>
<polygon fill="none" stroke="black" points="10,-39 10,-57 60,-57 60,-39 10,-39"/>
<text text-anchor="start" x="13" y="-45.2" font-family="Helvetica,sans-Serif" font-size="11.00">&lt; 0</text>
<polygon fill="#ffffff" stroke="none" points="60,-39 60,-57 143,-57 143,-39 60,-39"/>
<polygon fill="none" stroke="black" points="60,-39 60,-57 143,-57 143,-39 60,-39"/>
<text text-anchor="start" x="91" y="-45.2" font-family="Helvetica,sans-Serif" font-size="11.00">148 rows</text>
<polygon fill="#ffffff" stroke="none" points="143,-39 143,-57 248,-57 248,-39 143,-39"/>
<polygon fill="none" stroke="black" points="143,-39 143,-57 248,-57 248,-39 143,-39"/>
<text text-anchor="start" x="228" y="-45.2" font-family="Helvetica,sans-Serif" font-size="11.00">2 &gt;</text>
<polygon fill="none" stroke="black" stroke-width="2" points="9,-38 9,-234 249,-234 249,-38 9,-38"/>
</a>
</g>
</g>
<!-- core_reservedresource&#45;&gt;core_worker -->
<g id="edge1" class="edge"><title>core_reservedresource:worker_id:w&#45;&gt;core_worker:pulp_id.type:e</title>
<path fill="none" stroke="black" d="M284.313,-257.135C268.515,-242.519 278.086,-200 249,-200"/>
<polygon fill="black" stroke="black" points="290.462,-259.321 296.794,-265.392 294.231,-260.66 298,-262 298,-262 298,-262 294.231,-260.66 299.206,-258.608 290.462,-259.321 290.462,-259.321"/>
<ellipse fill="none" stroke="black" cx="287.447" cy="-258.249" rx="3.20001" ry="3.20001"/>
</g>
<!-- core_task -->
<g id="node3" class="node"><title>core_task</title>
<g id="a_node3"><a xlink:href="../../tables/core_task.html" xlink:title="core_task" target="_top">
<polygon fill="#ffffff" stroke="none" points="323.5,-48 323.5,-194 452.5,-194 452.5,-48 323.5,-48"/>
<polygon fill="#f5f5f5" stroke="none" points="324,-172 324,-194 453,-194 453,-172 324,-172"/>
<polygon fill="none" stroke="black" points="324,-172 324,-194 453,-194 453,-172 324,-172"/>
<text text-anchor="start" x="329" y="-181.2" font-family="Helvetica,sans-Serif" font-weight="bold" font-size="11.00">core_task</text>
<text text-anchor="start" x="414" y="-180.2" font-family="Helvetica,sans-Serif" font-size="11.00">[table]</text>
<polygon fill="none" stroke="black" points="324,-150 324,-172 453,-172 453,-150 324,-150"/>
<image xlink:href="../../images/primaryKeys.png" width="11px" height="12px" preserveAspectRatio="xMinYMin meet" x="329" y="-167"/>
<text text-anchor="start" x="344" y="-158.2" font-family="Helvetica,sans-Serif" font-size="11.00">pulp_id</text>
<polygon fill="#ffffff" stroke="none" points="324,-128 324,-150 453,-150 453,-128 324,-128"/>
<polygon fill="none" stroke="black" points="324,-128 324,-150 453,-150 453,-128 324,-128"/>
<image xlink:href="../../images/foreignKeys.png" width="11px" height="12px" preserveAspectRatio="xMinYMin meet" x="329" y="-145"/>
<text text-anchor="start" x="344" y="-136.2" font-family="Helvetica,sans-Serif" font-size="11.00">worker_id</text>
<polygon fill="#ffffff" stroke="none" points="324,-106 324,-128 453,-128 453,-106 324,-106"/>
<polygon fill="none" stroke="black" points="324,-106 324,-128 453,-128 453,-106 324,-106"/>
<image xlink:href="../../images/foreignKeys.png" width="11px" height="12px" preserveAspectRatio="xMinYMin meet" x="329" y="-123"/>
<text text-anchor="start" x="344" y="-114.2" font-family="Helvetica,sans-Serif" font-size="11.00">parent_task_id</text>
<polygon fill="#ffffff" stroke="none" points="324,-84 324,-106 453,-106 453,-84 324,-84"/>
<polygon fill="none" stroke="black" points="324,-84 324,-106 453,-106 453,-84 324,-84"/>
<image xlink:href="../../images/foreignKeys.png" width="11px" height="12px" preserveAspectRatio="xMinYMin meet" x="329" y="-101"/>
<text text-anchor="start" x="344" y="-92.2" font-family="Helvetica,sans-Serif" font-size="11.00">task_group_id</text>
<polygon fill="none" stroke="black" points="324,-66 324,-84 453,-84 453,-66 324,-66"/>
<text text-anchor="start" x="327" y="-72.2" font-family="Helvetica,sans-Serif" font-size="11.00">...</text>
<polygon fill="#ffffff" stroke="none" points="324,-48 324,-66 356,-66 356,-48 324,-48"/>
<polygon fill="none" stroke="black" points="324,-48 324,-66 356,-66 356,-48 324,-48"/>
<text text-anchor="start" x="327" y="-54.2" font-family="Helvetica,sans-Serif" font-size="11.00">&lt; 3</text>
<polygon fill="#ffffff" stroke="none" points="356,-48 356,-66 425,-66 425,-48 356,-48"/>
<polygon fill="none" stroke="black" points="356,-48 356,-66 425,-66 425,-48 356,-48"/>
<text text-anchor="start" x="363" y="-54.2" font-family="Helvetica,sans-Serif" font-size="11.00">1,828 rows</text>
<polygon fill="#ffffff" stroke="none" points="425,-48 425,-66 453,-66 453,-48 425,-48"/>
<polygon fill="none" stroke="black" points="425,-48 425,-66 453,-66 453,-48 425,-48"/>
<text text-anchor="start" x="433" y="-54.2" font-family="Helvetica,sans-Serif" font-size="11.00">8 &gt;</text>
</a>
</g>
</g>
<!-- core_task&#45;&gt;core_worker -->
<g id="edge2" class="edge"><title>core_task:worker_id:w&#45;&gt;core_worker:pulp_id.type:e</title>
<path fill="none" stroke="black" d="M308.616,-141.942C282.414,-154.127 285.962,-200 249,-200"/>
<polygon fill="black" stroke="black" points="315.162,-140.603 323.721,-142.527 319.081,-139.802 323,-139 323,-139 323,-139 319.081,-139.802 322.279,-135.473 315.162,-140.603 315.162,-140.603"/>
<ellipse fill="none" stroke="black" cx="312.027" cy="-141.244" rx="3.2" ry="3.2"/>
</g>
</g>
</svg>
