<?xml version="1.0" encoding="UTF-8" standalone="no"?>
<!DOCTYPE svg PUBLIC "-//W3C//DTD SVG 1.1//EN"
 "http://www.w3.org/Graphics/SVG/1.1/DTD/svg11.dtd">
<!-- Generated by graphviz version 2.38.0 (20140413.2041)
 -->
<!-- Title: oneDegreeRelationshipsDiagram Pages: 1 -->
<svg width="774pt" height="419pt"
 viewBox="0.00 0.00 774.00 419.00" xmlns="http://www.w3.org/2000/svg" xmlns:xlink="http://www.w3.org/1999/xlink">
<g id="graph0" class="graph" transform="scale(1 1) rotate(0) translate(4 415)">
<title>oneDegreeRelationshipsDiagram</title>
<polygon fill="#ffffff" stroke="none" points="-4,4 -4,-415 770,-415 770,4 -4,4"/>
<text text-anchor="middle" x="74.5" y="-7.2" font-family="Helvetica,sans-Serif" font-size="11.00">Generated by SchemaSpy</text>
<!-- ansible_ansibledistribution -->
<g id="node1" class="node"><title>ansible_ansibledistribution</title>
<g id="a_node1"><a xlink:href="../../tables/ansible_ansibledistribution.html" xlink:title="ansible_ansibledistribution" target="_top">
<polygon fill="#ffffff" stroke="none" points="539,-301 539,-407 744,-407 744,-301 539,-301"/>
<polygon fill="#f5f5f5" stroke="none" points="539.5,-385 539.5,-407 744.5,-407 744.5,-385 539.5,-385"/>
<polygon fill="none" stroke="black" points="539.5,-385 539.5,-407 744.5,-407 744.5,-385 539.5,-385"/>
<text text-anchor="start" x="544.5" y="-394.2" font-family="Helvetica,sans-Serif" font-weight="bold" font-size="11.00">ansible_ansibledistribution</text>
<text text-anchor="start" x="705.5" y="-393.2" font-family="Helvetica,sans-Serif" font-size="11.00">[table]</text>
<polygon fill="none" stroke="black" points="539.5,-363 539.5,-385 744.5,-385 744.5,-363 539.5,-363"/>
<image xlink:href="../../images/primaryKeys.png" width="11px" height="12px" preserveAspectRatio="xMinYMin meet" x="544.5" y="-380"/>
<text text-anchor="start" x="570.5" y="-371.2" font-family="Helvetica,sans-Serif" font-size="11.00">basedistribution_ptr_id</text>
<polygon fill="#ffffff" stroke="none" points="539.5,-341 539.5,-363 744.5,-363 744.5,-341 539.5,-341"/>
<polygon fill="none" stroke="black" points="539.5,-341 539.5,-363 744.5,-363 744.5,-341 539.5,-341"/>
<image xlink:href="../../images/foreignKeys.png" width="11px" height="12px" preserveAspectRatio="xMinYMin meet" x="544.5" y="-358"/>
<text text-anchor="start" x="570.5" y="-349.2" font-family="Helvetica,sans-Serif" font-size="11.00">repository_id</text>
<polygon fill="#ffffff" stroke="none" points="539.5,-319 539.5,-341 744.5,-341 744.5,-319 539.5,-319"/>
<polygon fill="none" stroke="black" points="539.5,-319 539.5,-341 744.5,-341 744.5,-319 539.5,-319"/>
<image xlink:href="../../images/foreignKeys.png" width="11px" height="12px" preserveAspectRatio="xMinYMin meet" x="544.5" y="-336"/>
<text text-anchor="start" x="570.5" y="-327.2" font-family="Helvetica,sans-Serif" font-size="11.00">repository_version_id</text>
<polygon fill="#ffffff" stroke="none" points="539.5,-301 539.5,-319 622.5,-319 622.5,-301 539.5,-301"/>
<polygon fill="none" stroke="black" points="539.5,-301 539.5,-319 622.5,-319 622.5,-301 539.5,-301"/>
<text text-anchor="start" x="542.5" y="-307.2" font-family="Helvetica,sans-Serif" font-size="11.00">&lt; 3</text>
<polygon fill="#ffffff" stroke="none" points="622.5,-301 622.5,-319 701.5,-319 701.5,-301 622.5,-301"/>
<polygon fill="none" stroke="black" points="622.5,-301 622.5,-319 701.5,-319 701.5,-301 622.5,-301"/>
<text text-anchor="start" x="655.5" y="-307.2" font-family="Helvetica,sans-Serif" font-size="11.00">32 rows</text>
<polygon fill="#ffffff" stroke="none" points="701.5,-301 701.5,-319 744.5,-319 744.5,-301 701.5,-301"/>
<polygon fill="none" stroke="black" points="701.5,-301 701.5,-319 744.5,-319 744.5,-301 701.5,-301"/>
<text text-anchor="start" x="734.5" y="-307.2" font-family="Helvetica,sans-Serif" font-size="11.00"> &#160;</text>
</a>
</g>
</g>
<!-- core_basedistribution -->
<g id="node2" class="node"><title>core_basedistribution</title>
<g id="a_node2"><a xlink:href="../../tables/core_basedistribution.html" xlink:title="core_basedistribution" target="_top">
<polygon fill="#ffffff" stroke="none" points="216,-125 216,-345 476,-345 476,-125 216,-125"/>
<polygon fill="#f5f5f5" stroke="none" points="218,-321 218,-343 474,-343 474,-321 218,-321"/>
<polygon fill="none" stroke="black" points="218,-321 218,-343 474,-343 474,-321 218,-321"/>
<text text-anchor="start" x="223" y="-330.2" font-family="Helvetica,sans-Serif" font-weight="bold" font-size="11.00">core_basedistribution</text>
<text text-anchor="start" x="435" y="-329.2" font-family="Helvetica,sans-Serif" font-size="11.00">[table]</text>
<polygon fill="none" stroke="black" points="218,-299 218,-321 369,-321 369,-299 218,-299"/>
<image xlink:href="../../images/primaryKeys.png" width="11px" height="12px" preserveAspectRatio="xMinYMin meet" x="223" y="-316"/>
<text text-anchor="start" x="238" y="-307.2" font-family="Helvetica,sans-Serif" font-size="11.00">pulp_id</text>
<polygon fill="none" stroke="black" points="369,-299 369,-321 474,-321 474,-299 369,-299"/>
<text text-anchor="start" x="372" y="-307.2" font-family="Helvetica,sans-Serif" font-size="11.00">uuid[2147483647]</text>
<polygon fill="none" stroke="black" points="218,-277 218,-299 369,-299 369,-277 218,-277"/>
<text text-anchor="start" x="238" y="-285.2" font-family="Helvetica,sans-Serif" font-size="11.00">pulp_created</text>
<polygon fill="none" stroke="black" points="369,-277 369,-299 474,-299 474,-277 369,-277"/>
<text text-anchor="start" x="372" y="-285.2" font-family="Helvetica,sans-Serif" font-size="11.00">timestamptz[35,6]</text>
<polygon fill="none" stroke="black" points="218,-255 218,-277 369,-277 369,-255 218,-255"/>
<text text-anchor="start" x="238" y="-263.2" font-family="Helvetica,sans-Serif" font-size="11.00">pulp_last_updated</text>
<polygon fill="none" stroke="black" points="369,-255 369,-277 474,-277 474,-255 369,-255"/>
<text text-anchor="start" x="372" y="-263.2" font-family="Helvetica,sans-Serif" font-size="11.00">timestamptz[35,6]</text>
<polygon fill="none" stroke="black" points="218,-233 218,-255 369,-255 369,-233 218,-233"/>
<text text-anchor="start" x="238" y="-241.2" font-family="Helvetica,sans-Serif" font-size="11.00">pulp_type</text>
<polygon fill="none" stroke="black" points="369,-233 369,-255 474,-255 474,-233 369,-233"/>
<text text-anchor="start" x="372" y="-241.2" font-family="Helvetica,sans-Serif" font-size="11.00">text[2147483647]</text>
<polygon fill="#ffffff" stroke="none" points="218,-211 218,-233 369,-233 369,-211 218,-211"/>
<polygon fill="none" stroke="black" points="218,-211 218,-233 369,-233 369,-211 218,-211"/>
<text text-anchor="start" x="238" y="-219.2" font-family="Helvetica,sans-Serif" font-size="11.00">name</text>
<polygon fill="none" stroke="black" points="369,-211 369,-233 474,-233 474,-211 369,-211"/>
<text text-anchor="start" x="372" y="-219.2" font-family="Helvetica,sans-Serif" font-size="11.00">text[2147483647]</text>
<polygon fill="#ffffff" stroke="none" points="218,-189 218,-211 369,-211 369,-189 218,-189"/>
<polygon fill="none" stroke="black" points="218,-189 218,-211 369,-211 369,-189 218,-189"/>
<text text-anchor="start" x="238" y="-197.2" font-family="Helvetica,sans-Serif" font-size="11.00">base_path</text>
<polygon fill="none" stroke="black" points="369,-189 369,-211 474,-211 474,-189 369,-189"/>
<text text-anchor="start" x="372" y="-197.2" font-family="Helvetica,sans-Serif" font-size="11.00">text[2147483647]</text>
<polygon fill="#ffffff" stroke="none" points="218,-167 218,-189 369,-189 369,-167 218,-167"/>
<polygon fill="none" stroke="black" points="218,-167 218,-189 369,-189 369,-167 218,-167"/>
<image xlink:href="../../images/foreignKeys.png" width="11px" height="12px" preserveAspectRatio="xMinYMin meet" x="223" y="-184"/>
<text text-anchor="start" x="238" y="-175.2" font-family="Helvetica,sans-Serif" font-size="11.00">content_guard_id</text>
<polygon fill="none" stroke="black" points="369,-167 369,-189 474,-189 474,-167 369,-167"/>
<text text-anchor="start" x="372" y="-175.2" font-family="Helvetica,sans-Serif" font-size="11.00">uuid[2147483647]</text>
<polygon fill="#ffffff" stroke="none" points="218,-145 218,-167 369,-167 369,-145 218,-145"/>
<polygon fill="none" stroke="black" points="218,-145 218,-167 369,-167 369,-145 218,-145"/>
<image xlink:href="../../images/foreignKeys.png" width="11px" height="12px" preserveAspectRatio="xMinYMin meet" x="223" y="-162"/>
<text text-anchor="start" x="238" y="-153.2" font-family="Helvetica,sans-Serif" font-size="11.00">remote_id</text>
<polygon fill="none" stroke="black" points="369,-145 369,-167 474,-167 474,-145 369,-145"/>
<text text-anchor="start" x="372" y="-153.2" font-family="Helvetica,sans-Serif" font-size="11.00">uuid[2147483647]</text>
<polygon fill="#ffffff" stroke="none" points="218,-127 218,-145 280,-145 280,-127 218,-127"/>
<polygon fill="none" stroke="black" points="218,-127 218,-145 280,-145 280,-127 218,-127"/>
<text text-anchor="start" x="221" y="-133.2" font-family="Helvetica,sans-Serif" font-size="11.00">&lt; 2</text>
<polygon fill="#ffffff" stroke="none" points="280,-127 280,-145 369,-145 369,-127 280,-127"/>
<polygon fill="none" stroke="black" points="280,-127 280,-145 369,-145 369,-127 280,-127"/>
<text text-anchor="start" x="323" y="-133.2" font-family="Helvetica,sans-Serif" font-size="11.00">32 rows</text>
<polygon fill="#ffffff" stroke="none" points="369,-127 369,-145 474,-145 474,-127 369,-127"/>
<polygon fill="none" stroke="black" points="369,-127 369,-145 474,-145 474,-127 369,-127"/>
<text text-anchor="start" x="454" y="-133.2" font-family="Helvetica,sans-Serif" font-size="11.00">2 &gt;</text>
<polygon fill="none" stroke="black" stroke-width="2" points="217,-126 217,-344 475,-344 475,-126 217,-126"/>
</a>
</g>
</g>
<!-- ansible_ansibledistribution&#45;&gt;core_basedistribution -->
<g id="edge1" class="edge"><title>ansible_ansibledistribution:basedistribution_ptr_id:w&#45;&gt;core_basedistribution:pulp_id.type:e</title>
<path fill="none" stroke="black" d="M527.927,-372.154C501.225,-361.66 511,-310 475,-310"/>
<polygon fill="black" stroke="black" points="538.4,-369.922 537.024,-377.803 535.448,-377.527 536.824,-369.647 538.4,-369.922"/>
<polyline fill="none" stroke="black" points="538.5,-374 534.56,-373.312 "/>
<ellipse fill="none" stroke="black" cx="531.407" cy="-372.761" rx="3.2" ry="3.2"/>
</g>
<!-- core_contentguard -->
<g id="node4" class="node"><title>core_contentguard</title>
<g id="a_node4"><a xlink:href="../../tables/core_contentguard.html" xlink:title="core_contentguard" target="_top">
<polygon fill="#ffffff" stroke="none" points="9.5,-160 9.5,-262 165.5,-262 165.5,-160 9.5,-160"/>
<polygon fill="#f5f5f5" stroke="none" points="9.5,-240 9.5,-262 165.5,-262 165.5,-240 9.5,-240"/>
<polygon fill="none" stroke="black" points="9.5,-240 9.5,-262 165.5,-262 165.5,-240 9.5,-240"/>
<text text-anchor="start" x="14.5" y="-249.2" font-family="Helvetica,sans-Serif" font-weight="bold" font-size="11.00">core_contentguard</text>
<text text-anchor="start" x="126.5" y="-248.2" font-family="Helvetica,sans-Serif" font-size="11.00">[table]</text>
<polygon fill="none" stroke="black" points="9.5,-218 9.5,-240 165.5,-240 165.5,-218 9.5,-218"/>
<image xlink:href="../../images/primaryKeys.png" width="11px" height="12px" preserveAspectRatio="xMinYMin meet" x="14.5" y="-235"/>
<text text-anchor="start" x="41.5" y="-226.2" font-family="Helvetica,sans-Serif" font-size="11.00">pulp_id</text>
<polygon fill="#ffffff" stroke="none" points="9.5,-196 9.5,-218 165.5,-218 165.5,-196 9.5,-196"/>
<polygon fill="none" stroke="black" points="9.5,-196 9.5,-218 165.5,-218 165.5,-196 9.5,-196"/>
<text text-anchor="start" x="41.5" y="-204.2" font-family="Helvetica,sans-Serif" font-size="11.00">name</text>
<polygon fill="none" stroke="black" points="9.5,-178 9.5,-196 165.5,-196 165.5,-178 9.5,-178"/>
<text text-anchor="start" x="12.5" y="-184.2" font-family="Helvetica,sans-Serif" font-size="11.00">...</text>
<polygon fill="#ffffff" stroke="none" points="9.5,-160 9.5,-178 61.5,-178 61.5,-160 9.5,-160"/>
<polygon fill="none" stroke="black" points="9.5,-160 9.5,-178 61.5,-178 61.5,-160 9.5,-160"/>
<text text-anchor="start" x="12.5" y="-166.2" font-family="Helvetica,sans-Serif" font-size="11.00"> &#160;</text>
<polygon fill="#ffffff" stroke="none" points="61.5,-160 61.5,-178 122.5,-178 122.5,-160 61.5,-160"/>
<polygon fill="none" stroke="black" points="61.5,-160 61.5,-178 122.5,-178 122.5,-160 61.5,-160"/>
<text text-anchor="start" x="83.5" y="-166.2" font-family="Helvetica,sans-Serif" font-size="11.00">0 rows</text>
<polygon fill="#ffffff" stroke="none" points="122.5,-160 122.5,-178 165.5,-178 165.5,-160 122.5,-160"/>
<polygon fill="none" stroke="black" points="122.5,-160 122.5,-178 165.5,-178 165.5,-160 122.5,-160"/>
<text text-anchor="start" x="145.5" y="-166.2" font-family="Helvetica,sans-Serif" font-size="11.00">2 &gt;</text>
</a>
</g>
</g>
<!-- core_basedistribution&#45;&gt;core_contentguard -->
<g id="edge3" class="edge"><title>core_basedistribution:content_guard_id:w&#45;&gt;core_contentguard:pulp_id:e</title>
<path fill="none" stroke="black" d="M203.228,-182.707C188.499,-195.332 192.418,-229 166.5,-229"/>
<polygon fill="black" stroke="black" points="209.43,-180.587 218.164,-181.407 213.215,-179.294 217,-178 217,-178 217,-178 213.215,-179.294 215.836,-174.593 209.43,-180.587 209.43,-180.587"/>
<ellipse fill="none" stroke="black" cx="206.402" cy="-181.622" rx="3.20001" ry="3.20001"/>
</g>
<!-- core_remote -->
<g id="node5" class="node"><title>core_remote</title>
<g id="a_node5"><a xlink:href="../../tables/core_remote.html" xlink:title="core_remote" target="_top">
<polygon fill="#ffffff" stroke="none" points="8,-37 8,-139 167,-139 167,-37 8,-37"/>
<polygon fill="#f5f5f5" stroke="none" points="8.5,-117 8.5,-139 167.5,-139 167.5,-117 8.5,-117"/>
<polygon fill="none" stroke="black" points="8.5,-117 8.5,-139 167.5,-139 167.5,-117 8.5,-117"/>
<text text-anchor="start" x="13.5" y="-126.2" font-family="Helvetica,sans-Serif" font-weight="bold" font-size="11.00">core_remote</text>
<text text-anchor="start" x="128.5" y="-125.2" font-family="Helvetica,sans-Serif" font-size="11.00">[table]</text>
<polygon fill="none" stroke="black" points="8.5,-95 8.5,-117 167.5,-117 167.5,-95 8.5,-95"/>
<image xlink:href="../../images/primaryKeys.png" width="11px" height="12px" preserveAspectRatio="xMinYMin meet" x="13.5" y="-112"/>
<text text-anchor="start" x="28.5" y="-103.2" font-family="Helvetica,sans-Serif" font-size="11.00">pulp_id</text>
<polygon fill="#ffffff" stroke="none" points="8.5,-73 8.5,-95 167.5,-95 167.5,-73 8.5,-73"/>
<polygon fill="none" stroke="black" points="8.5,-73 8.5,-95 167.5,-95 167.5,-73 8.5,-73"/>
<text text-anchor="start" x="28.5" y="-81.2" font-family="Helvetica,sans-Serif" font-size="11.00">name</text>
<polygon fill="none" stroke="black" points="8.5,-55 8.5,-73 167.5,-73 167.5,-55 8.5,-55"/>
<text text-anchor="start" x="11.5" y="-61.2" font-family="Helvetica,sans-Serif" font-size="11.00">...</text>
<polygon fill="#ffffff" stroke="none" points="8.5,-37 8.5,-55 61.5,-55 61.5,-37 8.5,-37"/>
<polygon fill="none" stroke="black" points="8.5,-37 8.5,-55 61.5,-55 61.5,-37 8.5,-37"/>
<text text-anchor="start" x="11.5" y="-43.2" font-family="Helvetica,sans-Serif" font-size="11.00"> &#160;</text>
<polygon fill="#ffffff" stroke="none" points="61.5,-37 61.5,-55 123.5,-55 123.5,-37 61.5,-37"/>
<polygon fill="none" stroke="black" points="61.5,-37 61.5,-55 123.5,-55 123.5,-37 61.5,-37"/>
<text text-anchor="start" x="84.5" y="-43.2" font-family="Helvetica,sans-Serif" font-size="11.00">7 rows</text>
<polygon fill="#ffffff" stroke="none" points="123.5,-37 123.5,-55 167.5,-55 167.5,-37 123.5,-37"/>
<polygon fill="none" stroke="black" points="123.5,-37 123.5,-55 167.5,-55 167.5,-37 123.5,-37"/>
<text text-anchor="start" x="147.5" y="-43.2" font-family="Helvetica,sans-Serif" font-size="11.00">6 &gt;</text>
</a>
</g>
</g>
<!-- core_basedistribution&#45;&gt;core_remote -->
<g id="edge4" class="edge"><title>core_basedistribution:remote_id:w&#45;&gt;core_remote:pulp_id:e</title>
<path fill="none" stroke="black" d="M203.277,-151.023C189.59,-138.376 193.412,-106 168.5,-106"/>
<polygon fill="black" stroke="black" points="209.479,-153.272 215.773,-159.384 213.24,-154.636 217,-156 217,-156 217,-156 213.24,-154.636 218.227,-152.616 209.479,-153.272 209.479,-153.272"/>
<ellipse fill="none" stroke="black" cx="206.471" cy="-152.181" rx="3.20001" ry="3.20001"/>
</g>
<!-- container_containerdistribution -->
<g id="node3" class="node"><title>container_containerdistribution</title>
<g id="a_node3"><a xlink:href="../../tables/container_containerdistribution.html" xlink:title="container_containerdistribution" target="_top">
<polygon fill="#ffffff" stroke="none" points="525,-174 525,-280 758,-280 758,-174 525,-174"/>
<polygon fill="#f5f5f5" stroke="none" points="525.5,-258 525.5,-280 758.5,-280 758.5,-258 525.5,-258"/>
<polygon fill="none" stroke="black" points="525.5,-258 525.5,-280 758.5,-280 758.5,-258 525.5,-258"/>
<text text-anchor="start" x="530.5" y="-267.2" font-family="Helvetica,sans-Serif" font-weight="bold" font-size="11.00">container_containerdistribution</text>
<text text-anchor="start" x="719.5" y="-266.2" font-family="Helvetica,sans-Serif" font-size="11.00">[table]</text>
<polygon fill="none" stroke="black" points="525.5,-236 525.5,-258 758.5,-258 758.5,-236 525.5,-236"/>
<image xlink:href="../../images/primaryKeys.png" width="11px" height="12px" preserveAspectRatio="xMinYMin meet" x="530.5" y="-253"/>
<text text-anchor="start" x="555.5" y="-244.2" font-family="Helvetica,sans-Serif" font-size="11.00">basedistribution_ptr_id</text>
<polygon fill="#ffffff" stroke="none" points="525.5,-214 525.5,-236 758.5,-236 758.5,-214 525.5,-214"/>
<polygon fill="none" stroke="black" points="525.5,-214 525.5,-236 758.5,-236 758.5,-214 525.5,-214"/>
<image xlink:href="../../images/foreignKeys.png" width="11px" height="12px" preserveAspectRatio="xMinYMin meet" x="530.5" y="-231"/>
<text text-anchor="start" x="555.5" y="-222.2" font-family="Helvetica,sans-Serif" font-size="11.00">repository_id</text>
<polygon fill="#ffffff" stroke="none" points="525.5,-192 525.5,-214 758.5,-214 758.5,-192 525.5,-192"/>
<polygon fill="none" stroke="black" points="525.5,-192 525.5,-214 758.5,-214 758.5,-192 525.5,-192"/>
<image xlink:href="../../images/foreignKeys.png" width="11px" height="12px" preserveAspectRatio="xMinYMin meet" x="530.5" y="-209"/>
<text text-anchor="start" x="555.5" y="-200.2" font-family="Helvetica,sans-Serif" font-size="11.00">repository_version_id</text>
<polygon fill="#ffffff" stroke="none" points="525.5,-174 525.5,-192 625.5,-192 625.5,-174 525.5,-174"/>
<polygon fill="none" stroke="black" points="525.5,-174 525.5,-192 625.5,-192 625.5,-174 525.5,-174"/>
<text text-anchor="start" x="528.5" y="-180.2" font-family="Helvetica,sans-Serif" font-size="11.00">&lt; 3</text>
<polygon fill="#ffffff" stroke="none" points="625.5,-174 625.5,-192 706.5,-192 706.5,-174 625.5,-174"/>
<polygon fill="none" stroke="black" points="625.5,-174 625.5,-192 706.5,-192 706.5,-174 625.5,-174"/>
<text text-anchor="start" x="667.5" y="-180.2" font-family="Helvetica,sans-Serif" font-size="11.00">0 rows</text>
<polygon fill="#ffffff" stroke="none" points="706.5,-174 706.5,-192 758.5,-192 758.5,-174 706.5,-174"/>
<polygon fill="none" stroke="black" points="706.5,-174 706.5,-192 758.5,-192 758.5,-174 706.5,-174"/>
<text text-anchor="start" x="748.5" y="-180.2" font-family="Helvetica,sans-Serif" font-size="11.00"> &#160;</text>
</a>
</g>
</g>
<!-- container_containerdistribution&#45;&gt;core_basedistribution -->
<g id="edge2" class="edge"><title>container_containerdistribution:basedistribution_ptr_id:w&#45;&gt;core_basedistribution:pulp_id.type:e</title>
<path fill="none" stroke="black" d="M514.158,-249.393C493.194,-260.9 506.436,-310 475,-310"/>
<polygon fill="black" stroke="black" points="522.819,-243.283 524.622,-251.077 523.063,-251.438 521.26,-243.644 522.819,-243.283"/>
<polyline fill="none" stroke="black" points="524.5,-247 520.603,-247.902 "/>
<ellipse fill="none" stroke="black" cx="517.485" cy="-248.623" rx="3.20001" ry="3.20001"/>
</g>
</g>
</svg>
