<?xml version="1.0" encoding="UTF-8" standalone="no"?>
<!DOCTYPE svg PUBLIC "-//W3C//DTD SVG 1.1//EN"
 "http://www.w3.org/Graphics/SVG/1.1/DTD/svg11.dtd">
<!-- Generated by graphviz version 2.38.0 (20140413.2041)
 -->
<!-- Title: oneDegreeRelationshipsDiagram Pages: 1 -->
<svg width="467pt" height="285pt"
 viewBox="0.00 0.00 467.00 285.00" xmlns="http://www.w3.org/2000/svg" xmlns:xlink="http://www.w3.org/1999/xlink">
<g id="graph0" class="graph" transform="scale(1 1) rotate(0) translate(4 281)">
<title>oneDegreeRelationshipsDiagram</title>
<polygon fill="#ffffff" stroke="none" points="-4,4 -4,-281 463,-281 463,4 -4,4"/>
<text text-anchor="middle" x="74.5" y="-7.2" font-family="Helvetica,sans-Serif" font-size="11.00">Generated by SchemaSpy</text>
<!-- core_import -->
<g id="node1" class="node"><title>core_import</title>
<g id="a_node1"><a xlink:href="../../tables/core_import.html" xlink:title="core_import" target="_top">
<polygon fill="#ffffff" stroke="none" points="308.5,-149 308.5,-273 437.5,-273 437.5,-149 308.5,-149"/>
<polygon fill="#f5f5f5" stroke="none" points="309,-251 309,-273 438,-273 438,-251 309,-251"/>
<polygon fill="none" stroke="black" points="309,-251 309,-273 438,-273 438,-251 309,-251"/>
<text text-anchor="start" x="314" y="-260.2" font-family="Helvetica,sans-Serif" font-weight="bold" font-size="11.00">core_import</text>
<text text-anchor="start" x="399" y="-259.2" font-family="Helvetica,sans-Serif" font-size="11.00">[table]</text>
<polygon fill="none" stroke="black" points="309,-229 309,-251 438,-251 438,-229 309,-229"/>
<image xlink:href="../../images/primaryKeys.png" width="11px" height="12px" preserveAspectRatio="xMinYMin meet" x="314" y="-246"/>
<text text-anchor="start" x="329" y="-237.2" font-family="Helvetica,sans-Serif" font-size="11.00">pulp_id</text>
<polygon fill="#ffffff" stroke="none" points="309,-207 309,-229 438,-229 438,-207 309,-207"/>
<polygon fill="none" stroke="black" points="309,-207 309,-229 438,-229 438,-207 309,-207"/>
<image xlink:href="../../images/foreignKeys.png" width="11px" height="12px" preserveAspectRatio="xMinYMin meet" x="314" y="-224"/>
<text text-anchor="start" x="329" y="-215.2" font-family="Helvetica,sans-Serif" font-size="11.00">importer_id</text>
<polygon fill="#ffffff" stroke="none" points="309,-185 309,-207 438,-207 438,-185 309,-185"/>
<polygon fill="none" stroke="black" points="309,-185 309,-207 438,-207 438,-185 309,-185"/>
<image xlink:href="../../images/foreignKeys.png" width="11px" height="12px" preserveAspectRatio="xMinYMin meet" x="314" y="-202"/>
<text text-anchor="start" x="329" y="-193.2" font-family="Helvetica,sans-Serif" font-size="11.00">task_id</text>
<polygon fill="none" stroke="black" points="309,-167 309,-185 438,-185 438,-167 309,-167"/>
<text text-anchor="start" x="312" y="-173.2" font-family="Helvetica,sans-Serif" font-size="11.00">...</text>
<polygon fill="#ffffff" stroke="none" points="309,-149 309,-167 352,-167 352,-149 309,-149"/>
<polygon fill="none" stroke="black" points="309,-149 309,-167 352,-167 352,-149 309,-149"/>
<text text-anchor="start" x="312" y="-155.2" font-family="Helvetica,sans-Serif" font-size="11.00">&lt; 2</text>
<polygon fill="#ffffff" stroke="none" points="352,-149 352,-167 404,-167 404,-149 352,-149"/>
<polygon fill="none" stroke="black" points="352,-149 352,-167 404,-167 404,-149 352,-149"/>
<text text-anchor="start" x="365" y="-155.2" font-family="Helvetica,sans-Serif" font-size="11.00">0 rows</text>
<polygon fill="#ffffff" stroke="none" points="404,-149 404,-167 438,-167 438,-149 404,-149"/>
<polygon fill="none" stroke="black" points="404,-149 404,-167 438,-167 438,-149 404,-149"/>
<text text-anchor="start" x="418" y="-155.2" font-family="Helvetica,sans-Serif" font-size="11.00">1 &gt;</text>
</a>
</g>
</g>
<!-- core_importer -->
<g id="node2" class="node"><title>core_importer</title>
<g id="a_node2"><a xlink:href="../../tables/core_importer.html" xlink:title="core_importer" target="_top">
<polygon fill="#ffffff" stroke="none" points="8,-37 8,-191 246,-191 246,-37 8,-37"/>
<polygon fill="#f5f5f5" stroke="none" points="10,-167 10,-189 244,-189 244,-167 10,-167"/>
<polygon fill="none" stroke="black" points="10,-167 10,-189 244,-189 244,-167 10,-167"/>
<text text-anchor="start" x="15" y="-176.2" font-family="Helvetica,sans-Serif" font-weight="bold" font-size="11.00">core_importer</text>
<text text-anchor="start" x="205" y="-175.2" font-family="Helvetica,sans-Serif" font-size="11.00">[table]</text>
<polygon fill="none" stroke="black" points="10,-145 10,-167 139,-167 139,-145 10,-145"/>
<image xlink:href="../../images/primaryKeys.png" width="11px" height="12px" preserveAspectRatio="xMinYMin meet" x="15" y="-162"/>
<text text-anchor="start" x="30" y="-153.2" font-family="Helvetica,sans-Serif" font-size="11.00">pulp_id</text>
<polygon fill="none" stroke="black" points="139,-145 139,-167 244,-167 244,-145 139,-145"/>
<text text-anchor="start" x="142" y="-153.2" font-family="Helvetica,sans-Serif" font-size="11.00">uuid[2147483647]</text>
<polygon fill="none" stroke="black" points="10,-123 10,-145 139,-145 139,-123 10,-123"/>
<text text-anchor="start" x="30" y="-131.2" font-family="Helvetica,sans-Serif" font-size="11.00">pulp_created</text>
<polygon fill="none" stroke="black" points="139,-123 139,-145 244,-145 244,-123 139,-123"/>
<text text-anchor="start" x="142" y="-131.2" font-family="Helvetica,sans-Serif" font-size="11.00">timestamptz[35,6]</text>
<polygon fill="none" stroke="black" points="10,-101 10,-123 139,-123 139,-101 10,-101"/>
<text text-anchor="start" x="30" y="-109.2" font-family="Helvetica,sans-Serif" font-size="11.00">pulp_last_updated</text>
<polygon fill="none" stroke="black" points="139,-101 139,-123 244,-123 244,-101 139,-101"/>
<text text-anchor="start" x="142" y="-109.2" font-family="Helvetica,sans-Serif" font-size="11.00">timestamptz[35,6]</text>
<polygon fill="none" stroke="black" points="10,-79 10,-101 139,-101 139,-79 10,-79"/>
<text text-anchor="start" x="30" y="-87.2" font-family="Helvetica,sans-Serif" font-size="11.00">pulp_type</text>
<polygon fill="none" stroke="black" points="139,-79 139,-101 244,-101 244,-79 139,-79"/>
<text text-anchor="start" x="142" y="-87.2" font-family="Helvetica,sans-Serif" font-size="11.00">text[2147483647]</text>
<polygon fill="#ffffff" stroke="none" points="10,-57 10,-79 139,-79 139,-57 10,-57"/>
<polygon fill="none" stroke="black" points="10,-57 10,-79 139,-79 139,-57 10,-57"/>
<text text-anchor="start" x="30" y="-65.2" font-family="Helvetica,sans-Serif" font-size="11.00">name</text>
<polygon fill="none" stroke="black" points="139,-57 139,-79 244,-79 244,-57 139,-57"/>
<text text-anchor="start" x="142" y="-65.2" font-family="Helvetica,sans-Serif" font-size="11.00">text[2147483647]</text>
<polygon fill="#ffffff" stroke="none" points="10,-39 10,-57 65,-57 65,-39 10,-39"/>
<polygon fill="none" stroke="black" points="10,-39 10,-57 65,-57 65,-39 10,-39"/>
<text text-anchor="start" x="13" y="-45.2" font-family="Helvetica,sans-Serif" font-size="11.00">&lt; 0</text>
<polygon fill="#ffffff" stroke="none" points="65,-39 65,-57 139,-57 139,-39 65,-39"/>
<polygon fill="none" stroke="black" points="65,-39 65,-57 139,-57 139,-39 65,-39"/>
<text text-anchor="start" x="100" y="-45.2" font-family="Helvetica,sans-Serif" font-size="11.00">0 rows</text>
<polygon fill="#ffffff" stroke="none" points="139,-39 139,-57 244,-57 244,-39 139,-39"/>
<polygon fill="none" stroke="black" points="139,-39 139,-57 244,-57 244,-39 139,-39"/>
<text text-anchor="start" x="224" y="-45.2" font-family="Helvetica,sans-Serif" font-size="11.00">2 &gt;</text>
<polygon fill="none" stroke="black" stroke-width="2" points="9,-38 9,-190 245,-190 245,-38 9,-38"/>
</a>
</g>
</g>
<!-- core_import&#45;&gt;core_importer -->
<g id="edge1" class="edge"><title>core_import:importer_id:w&#45;&gt;core_importer:pulp_id.type:e</title>
<path fill="none" stroke="black" d="M293.773,-214.307C272.129,-200.96 278.454,-156 245,-156"/>
<polygon fill="black" stroke="black" points="300.257,-215.99 307.096,-221.485 304.128,-216.995 308,-218 308,-218 308,-218 304.128,-216.995 308.904,-214.515 300.257,-215.99 300.257,-215.99"/>
<ellipse fill="none" stroke="black" cx="297.159" cy="-215.186" rx="3.2" ry="3.2"/>
</g>
<!-- core_pulpimporter -->
<g id="node3" class="node"><title>core_pulpimporter</title>
<g id="a_node3"><a xlink:href="../../tables/core_pulpimporter.html" xlink:title="core_pulpimporter" target="_top">
<polygon fill="#ffffff" stroke="none" points="295,-66 295,-128 451,-128 451,-66 295,-66"/>
<polygon fill="#f5f5f5" stroke="none" points="295,-106 295,-128 451,-128 451,-106 295,-106"/>
<polygon fill="none" stroke="black" points="295,-106 295,-128 451,-128 451,-106 295,-106"/>
<text text-anchor="start" x="300" y="-115.2" font-family="Helvetica,sans-Serif" font-weight="bold" font-size="11.00">core_pulpimporter</text>
<text text-anchor="start" x="412" y="-114.2" font-family="Helvetica,sans-Serif" font-size="11.00">[table]</text>
<polygon fill="none" stroke="black" points="295,-84 295,-106 451,-106 451,-84 295,-84"/>
<image xlink:href="../../images/primaryKeys.png" width="11px" height="12px" preserveAspectRatio="xMinYMin meet" x="300" y="-101"/>
<text text-anchor="start" x="327" y="-92.2" font-family="Helvetica,sans-Serif" font-size="11.00">importer_ptr_id</text>
<polygon fill="#ffffff" stroke="none" points="295,-66 295,-84 352,-84 352,-66 295,-66"/>
<polygon fill="none" stroke="black" points="295,-66 295,-84 352,-84 352,-66 295,-66"/>
<text text-anchor="start" x="298" y="-72.2" font-family="Helvetica,sans-Serif" font-size="11.00">&lt; 1</text>
<polygon fill="#ffffff" stroke="none" points="352,-66 352,-84 411,-84 411,-66 352,-66"/>
<polygon fill="none" stroke="black" points="352,-66 352,-84 411,-84 411,-66 352,-66"/>
<text text-anchor="start" x="372" y="-72.2" font-family="Helvetica,sans-Serif" font-size="11.00">0 rows</text>
<polygon fill="#ffffff" stroke="none" points="411,-66 411,-84 451,-84 451,-66 411,-66"/>
<polygon fill="none" stroke="black" points="411,-66 411,-84 451,-84 451,-66 411,-66"/>
<text text-anchor="start" x="431" y="-72.2" font-family="Helvetica,sans-Serif" font-size="11.00">1 &gt;</text>
</a>
</g>
</g>
<!-- core_pulpimporter&#45;&gt;core_importer -->
<g id="edge2" class="edge"><title>core_pulpimporter:importer_ptr_id:w&#45;&gt;core_importer:pulp_id.type:e</title>
<path fill="none" stroke="black" d="M283.604,-97.4668C263.391,-108.879 275.564,-156 245,-156"/>
<polygon fill="black" stroke="black" points="292.298,-91.2928 294.145,-99.0766 292.588,-99.4461 290.741,-91.6622 292.298,-91.2928"/>
<polyline fill="none" stroke="black" points="294,-95 290.108,-95.9236 "/>
<ellipse fill="none" stroke="black" cx="286.995" cy="-96.6624" rx="3.20001" ry="3.20001"/>
</g>
</g>
</svg>
