<?xml version="1.0" encoding="UTF-8" standalone="no"?>
<!DOCTYPE svg PUBLIC "-//W3C//DTD SVG 1.1//EN"
 "http://www.w3.org/Graphics/SVG/1.1/DTD/svg11.dtd">
<!-- Generated by graphviz version 2.38.0 (20140413.2041)
 -->
<!-- Title: twoDegreesRelationshipsDiagram Pages: 1 -->
<svg width="727pt" height="677pt"
 viewBox="0.00 0.00 727.00 677.00" xmlns="http://www.w3.org/2000/svg" xmlns:xlink="http://www.w3.org/1999/xlink">
<g id="graph0" class="graph" transform="scale(1 1) rotate(0) translate(4 673)">
<title>twoDegreesRelationshipsDiagram</title>
<polygon fill="#ffffff" stroke="none" points="-4,4 -4,-673 723,-673 723,4 -4,4"/>
<text text-anchor="middle" x="74.5" y="-7.2" font-family="Helvetica,sans-Serif" font-size="11.00">Generated by SchemaSpy</text>
<!-- ansible_collectionimport -->
<g id="node1" class="node"><title>ansible_collectionimport</title>
<g id="a_node1"><a xlink:href="../../tables/ansible_collectionimport.html" xlink:title="ansible_collectionimport" target="_top">
<polygon fill="#ffffff" stroke="none" points="470,-432 470,-490 660,-490 660,-432 470,-432"/>
<polygon fill="#f5f5f5" stroke="none" points="470,-468 470,-490 660,-490 660,-468 470,-468"/>
<polygon fill="none" stroke="black" points="470,-468 470,-490 660,-490 660,-468 470,-468"/>
<text text-anchor="start" x="475" y="-477.2" font-family="Helvetica,sans-Serif" font-weight="bold" font-size="11.00">ansible_collectionimport</text>
<text text-anchor="start" x="621" y="-476.2" font-family="Helvetica,sans-Serif" font-size="11.00">[table]</text>
<polygon fill="none" stroke="black" points="470,-450 470,-468 660,-468 660,-450 470,-450"/>
<text text-anchor="start" x="473" y="-456.2" font-family="Helvetica,sans-Serif" font-size="11.00">...</text>
<polygon fill="#ffffff" stroke="none" points="470,-432 470,-450 542,-450 542,-432 470,-432"/>
<polygon fill="none" stroke="black" points="470,-432 470,-450 542,-450 542,-432 470,-432"/>
<text text-anchor="start" x="473" y="-438.2" font-family="Helvetica,sans-Serif" font-size="11.00">&lt; 1</text>
<polygon fill="#ffffff" stroke="none" points="542,-432 542,-450 622,-450 622,-432 542,-432"/>
<polygon fill="none" stroke="black" points="542,-432 542,-450 622,-450 622,-432 542,-432"/>
<text text-anchor="start" x="570" y="-438.2" font-family="Helvetica,sans-Serif" font-size="11.00">111 rows</text>
<polygon fill="#ffffff" stroke="none" points="622,-432 622,-450 660,-450 660,-432 622,-432"/>
<polygon fill="none" stroke="black" points="622,-432 622,-450 660,-450 660,-432 622,-432"/>
<text text-anchor="start" x="650" y="-438.2" font-family="Helvetica,sans-Serif" font-size="11.00"> &#160;</text>
</a>
</g>
</g>
<!-- core_task -->
<g id="node2" class="node"><title>core_task</title>
<g id="a_node2"><a xlink:href="../../tables/core_task.html" xlink:title="core_task" target="_top">
<polygon fill="#ffffff" stroke="none" points="216.5,-217 216.5,-363 345.5,-363 345.5,-217 216.5,-217"/>
<polygon fill="#f5f5f5" stroke="none" points="217,-341 217,-363 346,-363 346,-341 217,-341"/>
<polygon fill="none" stroke="black" points="217,-341 217,-363 346,-363 346,-341 217,-341"/>
<text text-anchor="start" x="222" y="-350.2" font-family="Helvetica,sans-Serif" font-weight="bold" font-size="11.00">core_task</text>
<text text-anchor="start" x="307" y="-349.2" font-family="Helvetica,sans-Serif" font-size="11.00">[table]</text>
<polygon fill="none" stroke="black" points="217,-319 217,-341 346,-341 346,-319 217,-319"/>
<image xlink:href="../../images/primaryKeys.png" width="11px" height="12px" preserveAspectRatio="xMinYMin meet" x="222" y="-336"/>
<text text-anchor="start" x="237" y="-327.2" font-family="Helvetica,sans-Serif" font-size="11.00">pulp_id</text>
<polygon fill="#ffffff" stroke="none" points="217,-297 217,-319 346,-319 346,-297 217,-297"/>
<polygon fill="none" stroke="black" points="217,-297 217,-319 346,-319 346,-297 217,-297"/>
<image xlink:href="../../images/foreignKeys.png" width="11px" height="12px" preserveAspectRatio="xMinYMin meet" x="222" y="-314"/>
<text text-anchor="start" x="237" y="-305.2" font-family="Helvetica,sans-Serif" font-size="11.00">worker_id</text>
<polygon fill="#ffffff" stroke="none" points="217,-275 217,-297 346,-297 346,-275 217,-275"/>
<polygon fill="none" stroke="black" points="217,-275 217,-297 346,-297 346,-275 217,-275"/>
<image xlink:href="../../images/foreignKeys.png" width="11px" height="12px" preserveAspectRatio="xMinYMin meet" x="222" y="-292"/>
<text text-anchor="start" x="237" y="-283.2" font-family="Helvetica,sans-Serif" font-size="11.00">parent_task_id</text>
<polygon fill="#ffffff" stroke="none" points="217,-253 217,-275 346,-275 346,-253 217,-253"/>
<polygon fill="none" stroke="black" points="217,-253 217,-275 346,-275 346,-253 217,-253"/>
<image xlink:href="../../images/foreignKeys.png" width="11px" height="12px" preserveAspectRatio="xMinYMin meet" x="222" y="-270"/>
<text text-anchor="start" x="237" y="-261.2" font-family="Helvetica,sans-Serif" font-size="11.00">task_group_id</text>
<polygon fill="none" stroke="black" points="217,-235 217,-253 346,-253 346,-235 217,-235"/>
<text text-anchor="start" x="220" y="-241.2" font-family="Helvetica,sans-Serif" font-size="11.00">...</text>
<polygon fill="#ffffff" stroke="none" points="217,-217 217,-235 249,-235 249,-217 217,-217"/>
<polygon fill="none" stroke="black" points="217,-217 217,-235 249,-235 249,-217 217,-217"/>
<text text-anchor="start" x="220" y="-223.2" font-family="Helvetica,sans-Serif" font-size="11.00">&lt; 3</text>
<polygon fill="#ffffff" stroke="none" points="249,-217 249,-235 318,-235 318,-217 249,-217"/>
<polygon fill="none" stroke="black" points="249,-217 249,-235 318,-235 318,-217 249,-217"/>
<text text-anchor="start" x="256" y="-223.2" font-family="Helvetica,sans-Serif" font-size="11.00">1,828 rows</text>
<polygon fill="#ffffff" stroke="none" points="318,-217 318,-235 346,-235 346,-217 318,-217"/>
<polygon fill="none" stroke="black" points="318,-217 318,-235 346,-235 346,-217 318,-217"/>
<text text-anchor="start" x="326" y="-223.2" font-family="Helvetica,sans-Serif" font-size="11.00">8 &gt;</text>
</a>
</g>
</g>
<!-- ansible_collectionimport&#45;&gt;core_task -->
<g id="edge1" class="edge"><title>ansible_collectionimport:elipses:w&#45;&gt;core_task:pulp_id:e</title>
<path fill="none" stroke="black" d="M458.342,-458.234C436.761,-454.833 430.206,-440.454 411,-422 375.083,-387.49 396.81,-330 347,-330"/>
<polygon fill="black" stroke="black" points="468.489,-454.953 467.915,-462.932 466.319,-462.818 466.893,-454.838 468.489,-454.953"/>
<polyline fill="none" stroke="black" points="469,-459 465.01,-458.713 "/>
<ellipse fill="none" stroke="black" cx="461.819" cy="-458.484" rx="3.2" ry="3.2"/>
</g>
<!-- core_worker -->
<g id="node8" class="node"><title>core_worker</title>
<g id="a_node8"><a xlink:href="../../tables/core_worker.html" xlink:title="core_worker" target="_top">
<polygon fill="#ffffff" stroke="none" points="16.5,-389 16.5,-447 134.5,-447 134.5,-389 16.5,-389"/>
<polygon fill="#f5f5f5" stroke="none" points="16.5,-425 16.5,-447 134.5,-447 134.5,-425 16.5,-425"/>
<polygon fill="none" stroke="black" points="16.5,-425 16.5,-447 134.5,-447 134.5,-425 16.5,-425"/>
<text text-anchor="start" x="21.5" y="-434.2" font-family="Helvetica,sans-Serif" font-weight="bold" font-size="11.00">core_worker</text>
<text text-anchor="start" x="95.5" y="-433.2" font-family="Helvetica,sans-Serif" font-size="11.00">[table]</text>
<polygon fill="none" stroke="black" points="16.5,-407 16.5,-425 134.5,-425 134.5,-407 16.5,-407"/>
<text text-anchor="start" x="19.5" y="-413.2" font-family="Helvetica,sans-Serif" font-size="11.00">...</text>
<polygon fill="#ffffff" stroke="none" points="16.5,-389 16.5,-407 42.5,-407 42.5,-389 16.5,-389"/>
<polygon fill="none" stroke="black" points="16.5,-389 16.5,-407 42.5,-407 42.5,-389 16.5,-389"/>
<text text-anchor="start" x="19.5" y="-395.2" font-family="Helvetica,sans-Serif" font-size="11.00"> &#160;</text>
<polygon fill="#ffffff" stroke="none" points="42.5,-389 42.5,-407 104.5,-407 104.5,-389 42.5,-389"/>
<polygon fill="none" stroke="black" points="42.5,-389 42.5,-407 104.5,-407 104.5,-389 42.5,-389"/>
<text text-anchor="start" x="52.5" y="-395.2" font-family="Helvetica,sans-Serif" font-size="11.00">148 rows</text>
<polygon fill="#ffffff" stroke="none" points="104.5,-389 104.5,-407 134.5,-407 134.5,-389 104.5,-389"/>
<polygon fill="none" stroke="black" points="104.5,-389 104.5,-407 134.5,-407 134.5,-389 104.5,-389"/>
<text text-anchor="start" x="114.5" y="-395.2" font-family="Helvetica,sans-Serif" font-size="11.00">2 &gt;</text>
</a>
</g>
</g>
<!-- core_task&#45;&gt;core_worker -->
<g id="edge8" class="edge"><title>core_task:worker_id:w&#45;&gt;core_worker:elipses:e</title>
<path fill="none" stroke="black" d="M201.612,-310.67C162.618,-327.301 189.754,-416 135.5,-416"/>
<polygon fill="black" stroke="black" points="208.134,-309.46 216.657,-311.54 212.067,-308.73 216,-308 216,-308 216,-308 212.067,-308.73 215.343,-304.46 208.134,-309.46 208.134,-309.46"/>
<ellipse fill="none" stroke="black" cx="204.988" cy="-310.043" rx="3.2" ry="3.2"/>
</g>
<!-- core_taskgroup -->
<g id="node9" class="node"><title>core_taskgroup</title>
<g id="a_node9"><a xlink:href="../../tables/core_taskgroup.html" xlink:title="core_taskgroup" target="_top">
<polygon fill="#ffffff" stroke="none" points="8,-237 8,-295 143,-295 143,-237 8,-237"/>
<polygon fill="#f5f5f5" stroke="none" points="8.5,-273 8.5,-295 143.5,-295 143.5,-273 8.5,-273"/>
<polygon fill="none" stroke="black" points="8.5,-273 8.5,-295 143.5,-295 143.5,-273 8.5,-273"/>
<text text-anchor="start" x="13.5" y="-282.2" font-family="Helvetica,sans-Serif" font-weight="bold" font-size="11.00">core_taskgroup</text>
<text text-anchor="start" x="104.5" y="-281.2" font-family="Helvetica,sans-Serif" font-size="11.00">[table]</text>
<polygon fill="none" stroke="black" points="8.5,-255 8.5,-273 143.5,-273 143.5,-255 8.5,-255"/>
<text text-anchor="start" x="11.5" y="-261.2" font-family="Helvetica,sans-Serif" font-size="11.00">...</text>
<polygon fill="#ffffff" stroke="none" points="8.5,-237 8.5,-255 46.5,-255 46.5,-237 8.5,-237"/>
<polygon fill="none" stroke="black" points="8.5,-237 8.5,-255 46.5,-255 46.5,-237 8.5,-237"/>
<text text-anchor="start" x="11.5" y="-243.2" font-family="Helvetica,sans-Serif" font-size="11.00"> &#160;</text>
<polygon fill="#ffffff" stroke="none" points="46.5,-237 46.5,-255 107.5,-255 107.5,-237 46.5,-237"/>
<polygon fill="none" stroke="black" points="46.5,-237 46.5,-255 107.5,-255 107.5,-237 46.5,-237"/>
<text text-anchor="start" x="61.5" y="-243.2" font-family="Helvetica,sans-Serif" font-size="11.00">26 rows</text>
<polygon fill="#ffffff" stroke="none" points="107.5,-237 107.5,-255 143.5,-255 143.5,-237 107.5,-237"/>
<polygon fill="none" stroke="black" points="107.5,-237 107.5,-255 143.5,-255 143.5,-237 107.5,-237"/>
<text text-anchor="start" x="123.5" y="-243.2" font-family="Helvetica,sans-Serif" font-size="11.00">2 &gt;</text>
</a>
</g>
</g>
<!-- core_task&#45;&gt;core_taskgroup -->
<g id="edge7" class="edge"><title>core_task:task_group_id:w&#45;&gt;core_taskgroup:elipses:e</title>
<path fill="none" stroke="black" d="M201.485,-264C180.787,-264 170.816,-264 144.5,-264"/>
<polygon fill="black" stroke="black" points="208,-264 216,-267.6 212,-264 216,-264 216,-264 216,-264 212,-264 216,-260.4 208,-264 208,-264"/>
<ellipse fill="none" stroke="black" cx="204.8" cy="-264" rx="3.2" ry="3.2"/>
</g>
<!-- core_createdresource -->
<g id="node3" class="node"><title>core_createdresource</title>
<g id="a_node3"><a xlink:href="../../tables/core_createdresource.html" xlink:title="core_createdresource" target="_top">
<polygon fill="#ffffff" stroke="none" points="479,-353 479,-411 651,-411 651,-353 479,-353"/>
<polygon fill="#f5f5f5" stroke="none" points="479,-389 479,-411 651,-411 651,-389 479,-389"/>
<polygon fill="none" stroke="black" points="479,-389 479,-411 651,-411 651,-389 479,-389"/>
<text text-anchor="start" x="484" y="-398.2" font-family="Helvetica,sans-Serif" font-weight="bold" font-size="11.00">core_createdresource</text>
<text text-anchor="start" x="612" y="-397.2" font-family="Helvetica,sans-Serif" font-size="11.00">[table]</text>
<polygon fill="none" stroke="black" points="479,-371 479,-389 651,-389 651,-371 479,-371"/>
<text text-anchor="start" x="482" y="-377.2" font-family="Helvetica,sans-Serif" font-size="11.00">...</text>
<polygon fill="#ffffff" stroke="none" points="479,-353 479,-371 542,-371 542,-353 479,-353"/>
<polygon fill="none" stroke="black" points="479,-353 479,-371 542,-371 542,-353 479,-353"/>
<text text-anchor="start" x="482" y="-359.2" font-family="Helvetica,sans-Serif" font-size="11.00">&lt; 2</text>
<polygon fill="#ffffff" stroke="none" points="542,-353 542,-371 617,-371 617,-353 542,-353"/>
<polygon fill="none" stroke="black" points="542,-353 542,-371 617,-371 617,-353 542,-353"/>
<text text-anchor="start" x="565" y="-359.2" font-family="Helvetica,sans-Serif" font-size="11.00">365 rows</text>
<polygon fill="#ffffff" stroke="none" points="617,-353 617,-371 651,-371 651,-353 617,-353"/>
<polygon fill="none" stroke="black" points="617,-353 617,-371 651,-371 651,-353 617,-353"/>
<text text-anchor="start" x="641" y="-359.2" font-family="Helvetica,sans-Serif" font-size="11.00"> &#160;</text>
</a>
</g>
</g>
<!-- core_createdresource&#45;&gt;core_task -->
<g id="edge2" class="edge"><title>core_createdresource:elipses:w&#45;&gt;core_task:pulp_id:e</title>
<path fill="none" stroke="black" d="M463.416,-379.001C414.218,-371.954 404.085,-330 347,-330"/>
<polygon fill="black" stroke="black" points="470.019,-379.453 477.754,-383.592 474.009,-379.727 478,-380 478,-380 478,-380 474.009,-379.727 478.246,-376.408 470.019,-379.453 470.019,-379.453"/>
<ellipse fill="none" stroke="black" cx="466.826" cy="-379.235" rx="3.2" ry="3.2"/>
</g>
<!-- core_export -->
<g id="node4" class="node"><title>core_export</title>
<g id="a_node4"><a xlink:href="../../tables/core_export.html" xlink:title="core_export" target="_top">
<polygon fill="#ffffff" stroke="none" points="507,-274 507,-332 623,-332 623,-274 507,-274"/>
<polygon fill="#f5f5f5" stroke="none" points="507,-310 507,-332 623,-332 623,-310 507,-310"/>
<polygon fill="none" stroke="black" points="507,-310 507,-332 623,-332 623,-310 507,-310"/>
<text text-anchor="start" x="512" y="-319.2" font-family="Helvetica,sans-Serif" font-weight="bold" font-size="11.00">core_export</text>
<text text-anchor="start" x="584" y="-318.2" font-family="Helvetica,sans-Serif" font-size="11.00">[table]</text>
<polygon fill="none" stroke="black" points="507,-292 507,-310 623,-310 623,-292 507,-292"/>
<text text-anchor="start" x="510" y="-298.2" font-family="Helvetica,sans-Serif" font-size="11.00">...</text>
<polygon fill="#ffffff" stroke="none" points="507,-274 507,-292 544,-292 544,-274 507,-274"/>
<polygon fill="none" stroke="black" points="507,-274 507,-292 544,-292 544,-274 507,-274"/>
<text text-anchor="start" x="510" y="-280.2" font-family="Helvetica,sans-Serif" font-size="11.00">&lt; 2</text>
<polygon fill="#ffffff" stroke="none" points="544,-274 544,-292 593,-292 593,-274 544,-274"/>
<polygon fill="none" stroke="black" points="544,-274 544,-292 593,-292 593,-274 544,-274"/>
<text text-anchor="start" x="554" y="-280.2" font-family="Helvetica,sans-Serif" font-size="11.00">0 rows</text>
<polygon fill="#ffffff" stroke="none" points="593,-274 593,-292 623,-292 623,-274 593,-274"/>
<polygon fill="none" stroke="black" points="593,-274 593,-292 623,-292 623,-274 593,-274"/>
<text text-anchor="start" x="603" y="-280.2" font-family="Helvetica,sans-Serif" font-size="11.00">2 &gt;</text>
</a>
</g>
</g>
<!-- core_export&#45;&gt;core_task -->
<g id="edge3" class="edge"><title>core_export:elipses:w&#45;&gt;core_task:pulp_id:e</title>
<path fill="none" stroke="black" d="M491.269,-301.432C431.656,-305.04 413.641,-330 347,-330"/>
<polygon fill="black" stroke="black" points="498.003,-301.235 506.106,-304.598 502.002,-301.117 506,-301 506,-301 506,-301 502.002,-301.117 505.894,-297.402 498.003,-301.235 498.003,-301.235"/>
<ellipse fill="none" stroke="black" cx="494.805" cy="-301.329" rx="3.2" ry="3.2"/>
</g>
<!-- core_import -->
<g id="node5" class="node"><title>core_import</title>
<g id="a_node5"><a xlink:href="../../tables/core_import.html" xlink:title="core_import" target="_top">
<polygon fill="#ffffff" stroke="none" points="506,-195 506,-253 624,-253 624,-195 506,-195"/>
<polygon fill="#f5f5f5" stroke="none" points="506,-231 506,-253 624,-253 624,-231 506,-231"/>
<polygon fill="none" stroke="black" points="506,-231 506,-253 624,-253 624,-231 506,-231"/>
<text text-anchor="start" x="511" y="-240.2" font-family="Helvetica,sans-Serif" font-weight="bold" font-size="11.00">core_import</text>
<text text-anchor="start" x="585" y="-239.2" font-family="Helvetica,sans-Serif" font-size="11.00">[table]</text>
<polygon fill="none" stroke="black" points="506,-213 506,-231 624,-231 624,-213 506,-213"/>
<text text-anchor="start" x="509" y="-219.2" font-family="Helvetica,sans-Serif" font-size="11.00">...</text>
<polygon fill="#ffffff" stroke="none" points="506,-195 506,-213 544,-213 544,-195 506,-195"/>
<polygon fill="none" stroke="black" points="506,-195 506,-213 544,-213 544,-195 506,-195"/>
<text text-anchor="start" x="509" y="-201.2" font-family="Helvetica,sans-Serif" font-size="11.00">&lt; 2</text>
<polygon fill="#ffffff" stroke="none" points="544,-195 544,-213 593,-213 593,-195 544,-195"/>
<polygon fill="none" stroke="black" points="544,-195 544,-213 593,-213 593,-195 544,-195"/>
<text text-anchor="start" x="554" y="-201.2" font-family="Helvetica,sans-Serif" font-size="11.00">0 rows</text>
<polygon fill="#ffffff" stroke="none" points="593,-195 593,-213 624,-213 624,-195 593,-195"/>
<polygon fill="none" stroke="black" points="593,-195 593,-213 624,-213 624,-195 593,-195"/>
<text text-anchor="start" x="604" y="-201.2" font-family="Helvetica,sans-Serif" font-size="11.00">1 &gt;</text>
</a>
</g>
</g>
<!-- core_import&#45;&gt;core_task -->
<g id="edge4" class="edge"><title>core_import:elipses:w&#45;&gt;core_task:pulp_id:e</title>
<path fill="none" stroke="black" d="M490.256,-222.641C456.355,-225.839 444.099,-240.842 411,-264 377.521,-287.424 387.86,-330 347,-330"/>
<polygon fill="black" stroke="black" points="497.008,-222.348 505.156,-225.597 501.004,-222.174 505,-222 505,-222 505,-222 501.004,-222.174 504.844,-218.403 497.008,-222.348 497.008,-222.348"/>
<ellipse fill="none" stroke="black" cx="493.811" cy="-222.487" rx="3.2" ry="3.2"/>
</g>
<!-- core_progressreport -->
<g id="node6" class="node"><title>core_progressreport</title>
<g id="a_node6"><a xlink:href="../../tables/core_progressreport.html" xlink:title="core_progressreport" target="_top">
<polygon fill="#ffffff" stroke="none" points="483.5,-116 483.5,-174 646.5,-174 646.5,-116 483.5,-116"/>
<polygon fill="#f5f5f5" stroke="none" points="484,-152 484,-174 647,-174 647,-152 484,-152"/>
<polygon fill="none" stroke="black" points="484,-152 484,-174 647,-174 647,-152 484,-152"/>
<text text-anchor="start" x="489" y="-161.2" font-family="Helvetica,sans-Serif" font-weight="bold" font-size="11.00">core_progressreport</text>
<text text-anchor="start" x="608" y="-160.2" font-family="Helvetica,sans-Serif" font-size="11.00">[table]</text>
<polygon fill="none" stroke="black" points="484,-134 484,-152 647,-152 647,-134 484,-134"/>
<text text-anchor="start" x="487" y="-140.2" font-family="Helvetica,sans-Serif" font-size="11.00">...</text>
<polygon fill="#ffffff" stroke="none" points="484,-116 484,-134 546,-134 546,-116 484,-116"/>
<polygon fill="none" stroke="black" points="484,-116 484,-134 546,-134 546,-116 484,-116"/>
<text text-anchor="start" x="487" y="-122.2" font-family="Helvetica,sans-Serif" font-size="11.00">&lt; 1</text>
<polygon fill="#ffffff" stroke="none" points="546,-116 546,-134 614,-134 614,-116 546,-116"/>
<polygon fill="none" stroke="black" points="546,-116 546,-134 614,-134 614,-116 546,-116"/>
<text text-anchor="start" x="568" y="-122.2" font-family="Helvetica,sans-Serif" font-size="11.00">53 rows</text>
<polygon fill="#ffffff" stroke="none" points="614,-116 614,-134 647,-134 647,-116 614,-116"/>
<polygon fill="none" stroke="black" points="614,-116 614,-134 647,-134 647,-116 614,-116"/>
<text text-anchor="start" x="637" y="-122.2" font-family="Helvetica,sans-Serif" font-size="11.00"> &#160;</text>
</a>
</g>
</g>
<!-- core_progressreport&#45;&gt;core_task -->
<g id="edge5" class="edge"><title>core_progressreport:elipses:w&#45;&gt;core_task:pulp_id:e</title>
<path fill="none" stroke="black" d="M468.49,-143.897C442.684,-147.432 432.115,-161.367 411,-185 364.066,-237.53 417.443,-330 347,-330"/>
<polygon fill="black" stroke="black" points="475.015,-143.494 483.222,-146.593 479.008,-143.247 483,-143 483,-143 483,-143 479.008,-143.247 482.778,-139.407 475.015,-143.494 475.015,-143.494"/>
<ellipse fill="none" stroke="black" cx="471.821" cy="-143.691" rx="3.2" ry="3.2"/>
</g>
<!-- core_reservedresource -->
<g id="node7" class="node"><title>core_reservedresource</title>
<g id="a_node7"><a xlink:href="../../tables/core_reservedresource.html" xlink:title="core_reservedresource" target="_top">
<polygon fill="#ffffff" stroke="none" points="192,-443 192,-567 370,-567 370,-443 192,-443"/>
<polygon fill="#f5f5f5" stroke="none" points="192,-545 192,-567 370,-567 370,-545 192,-545"/>
<polygon fill="none" stroke="black" points="192,-545 192,-567 370,-567 370,-545 192,-545"/>
<text text-anchor="start" x="197" y="-554.2" font-family="Helvetica,sans-Serif" font-weight="bold" font-size="11.00">core_reservedresource</text>
<text text-anchor="start" x="331" y="-553.2" font-family="Helvetica,sans-Serif" font-size="11.00">[table]</text>
<polygon fill="none" stroke="black" points="192,-523 192,-545 370,-545 370,-523 192,-523"/>
<image xlink:href="../../images/primaryKeys.png" width="11px" height="12px" preserveAspectRatio="xMinYMin meet" x="197" y="-540"/>
<text text-anchor="start" x="223" y="-531.2" font-family="Helvetica,sans-Serif" font-size="11.00">pulp_id</text>
<polygon fill="#ffffff" stroke="none" points="192,-501 192,-523 370,-523 370,-501 192,-501"/>
<polygon fill="none" stroke="black" points="192,-501 192,-523 370,-523 370,-501 192,-501"/>
<text text-anchor="start" x="223" y="-509.2" font-family="Helvetica,sans-Serif" font-size="11.00">resource</text>
<polygon fill="#ffffff" stroke="none" points="192,-479 192,-501 370,-501 370,-479 192,-479"/>
<polygon fill="none" stroke="black" points="192,-479 192,-501 370,-501 370,-479 192,-479"/>
<image xlink:href="../../images/foreignKeys.png" width="11px" height="12px" preserveAspectRatio="xMinYMin meet" x="197" y="-496"/>
<text text-anchor="start" x="223" y="-487.2" font-family="Helvetica,sans-Serif" font-size="11.00">worker_id</text>
<polygon fill="none" stroke="black" points="192,-461 192,-479 370,-479 370,-461 192,-461"/>
<text text-anchor="start" x="195" y="-467.2" font-family="Helvetica,sans-Serif" font-size="11.00">...</text>
<polygon fill="#ffffff" stroke="none" points="192,-443 192,-461 260,-461 260,-443 192,-443"/>
<polygon fill="none" stroke="black" points="192,-443 192,-461 260,-461 260,-443 192,-443"/>
<text text-anchor="start" x="195" y="-449.2" font-family="Helvetica,sans-Serif" font-size="11.00">&lt; 1</text>
<polygon fill="#ffffff" stroke="none" points="260,-443 260,-461 324,-461 324,-443 260,-443"/>
<polygon fill="none" stroke="black" points="260,-443 260,-461 324,-461 324,-443 260,-443"/>
<text text-anchor="start" x="285" y="-449.2" font-family="Helvetica,sans-Serif" font-size="11.00">0 rows</text>
<polygon fill="#ffffff" stroke="none" points="324,-443 324,-461 370,-461 370,-443 324,-443"/>
<polygon fill="none" stroke="black" points="324,-443 324,-461 370,-461 370,-443 324,-443"/>
<text text-anchor="start" x="350" y="-449.2" font-family="Helvetica,sans-Serif" font-size="11.00">1 &gt;</text>
</a>
</g>
</g>
<!-- core_reservedresource&#45;&gt;core_worker -->
<g id="edge6" class="edge"><title>core_reservedresource:worker_id:w&#45;&gt;core_worker:elipses:e</title>
<path fill="none" stroke="black" d="M177.016,-485.809C156.196,-470.155 170.669,-416 135.5,-416"/>
<polygon fill="black" stroke="black" points="183.337,-487.704 189.967,-493.448 187.168,-488.852 191,-490 191,-490 191,-490 187.168,-488.852 192.033,-486.552 183.337,-487.704 183.337,-487.704"/>
<ellipse fill="none" stroke="black" cx="180.271" cy="-486.785" rx="3.20001" ry="3.20001"/>
</g>
<!-- core_taskreservedresource -->
<g id="node10" class="node"><title>core_taskreservedresource</title>
<g id="a_node10"><a xlink:href="../../tables/core_taskreservedresource.html" xlink:title="core_taskreservedresource" target="_top">
<polygon fill="#ffffff" stroke="none" points="419,-511 419,-665 711,-665 711,-511 419,-511"/>
<polygon fill="#f5f5f5" stroke="none" points="421,-641 421,-663 709,-663 709,-641 421,-641"/>
<polygon fill="none" stroke="black" points="421,-641 421,-663 709,-663 709,-641 421,-641"/>
<text text-anchor="start" x="426" y="-650.2" font-family="Helvetica,sans-Serif" font-weight="bold" font-size="11.00">core_taskreservedresource</text>
<text text-anchor="start" x="670" y="-649.2" font-family="Helvetica,sans-Serif" font-size="11.00">[table]</text>
<polygon fill="none" stroke="black" points="421,-619 421,-641 604,-641 604,-619 421,-619"/>
<image xlink:href="../../images/primaryKeys.png" width="11px" height="12px" preserveAspectRatio="xMinYMin meet" x="426" y="-636"/>
<text text-anchor="start" x="441" y="-627.2" font-family="Helvetica,sans-Serif" font-size="11.00">pulp_id</text>
<polygon fill="none" stroke="black" points="604,-619 604,-641 709,-641 709,-619 604,-619"/>
<text text-anchor="start" x="607" y="-627.2" font-family="Helvetica,sans-Serif" font-size="11.00">uuid[2147483647]</text>
<polygon fill="none" stroke="black" points="421,-597 421,-619 604,-619 604,-597 421,-597"/>
<text text-anchor="start" x="441" y="-605.2" font-family="Helvetica,sans-Serif" font-size="11.00">pulp_created</text>
<polygon fill="none" stroke="black" points="604,-597 604,-619 709,-619 709,-597 604,-597"/>
<text text-anchor="start" x="607" y="-605.2" font-family="Helvetica,sans-Serif" font-size="11.00">timestamptz[35,6]</text>
<polygon fill="none" stroke="black" points="421,-575 421,-597 604,-597 604,-575 421,-575"/>
<text text-anchor="start" x="441" y="-583.2" font-family="Helvetica,sans-Serif" font-size="11.00">pulp_last_updated</text>
<polygon fill="none" stroke="black" points="604,-575 604,-597 709,-597 709,-575 604,-575"/>
<text text-anchor="start" x="607" y="-583.2" font-family="Helvetica,sans-Serif" font-size="11.00">timestamptz[35,6]</text>
<polygon fill="#ffffff" stroke="none" points="421,-553 421,-575 604,-575 604,-553 421,-553"/>
<polygon fill="none" stroke="black" points="421,-553 421,-575 604,-575 604,-553 421,-553"/>
<image xlink:href="../../images/foreignKeys.png" width="11px" height="12px" preserveAspectRatio="xMinYMin meet" x="426" y="-570"/>
<text text-anchor="start" x="441" y="-561.2" font-family="Helvetica,sans-Serif" font-size="11.00">resource_id</text>
<polygon fill="none" stroke="black" points="604,-553 604,-575 709,-575 709,-553 604,-553"/>
<text text-anchor="start" x="607" y="-561.2" font-family="Helvetica,sans-Serif" font-size="11.00">uuid[2147483647]</text>
<polygon fill="#ffffff" stroke="none" points="421,-531 421,-553 604,-553 604,-531 421,-531"/>
<polygon fill="none" stroke="black" points="421,-531 421,-553 604,-553 604,-531 421,-531"/>
<image xlink:href="../../images/foreignKeys.png" width="11px" height="12px" preserveAspectRatio="xMinYMin meet" x="426" y="-548"/>
<text text-anchor="start" x="441" y="-539.2" font-family="Helvetica,sans-Serif" font-size="11.00">task_id</text>
<polygon fill="none" stroke="black" points="604,-531 604,-553 709,-553 709,-531 604,-531"/>
<text text-anchor="start" x="607" y="-539.2" font-family="Helvetica,sans-Serif" font-size="11.00">uuid[2147483647]</text>
<polygon fill="#ffffff" stroke="none" points="421,-513 421,-531 503,-531 503,-513 421,-513"/>
<polygon fill="none" stroke="black" points="421,-513 421,-531 503,-531 503,-513 421,-513"/>
<text text-anchor="start" x="424" y="-519.2" font-family="Helvetica,sans-Serif" font-size="11.00">&lt; 2</text>
<polygon fill="#ffffff" stroke="none" points="503,-513 503,-531 604,-531 604,-513 503,-513"/>
<polygon fill="none" stroke="black" points="503,-513 503,-531 604,-531 604,-513 503,-513"/>
<text text-anchor="start" x="565" y="-519.2" font-family="Helvetica,sans-Serif" font-size="11.00">0 rows</text>
<polygon fill="#ffffff" stroke="none" points="604,-513 604,-531 709,-531 709,-513 604,-513"/>
<polygon fill="none" stroke="black" points="604,-513 604,-531 709,-531 709,-513 604,-513"/>
<text text-anchor="start" x="689" y="-519.2" font-family="Helvetica,sans-Serif" font-size="11.00">0 &gt;</text>
<polygon fill="none" stroke="black" stroke-width="2" points="420,-512 420,-664 710,-664 710,-512 420,-512"/>
</a>
</g>
</g>
<!-- core_taskreservedresource&#45;&gt;core_task -->
<g id="edge10" class="edge"><title>core_taskreservedresource:task_id:w&#45;&gt;core_task:pulp_id:e</title>
<path fill="none" stroke="black" d="M405.604,-540.167C333.487,-519.447 441.202,-330 347,-330"/>
<polygon fill="black" stroke="black" points="412.064,-540.99 419.545,-545.571 416.032,-541.495 420,-542 420,-542 420,-542 416.032,-541.495 420.455,-538.429 412.064,-540.99 412.064,-540.99"/>
<ellipse fill="none" stroke="black" cx="408.89" cy="-540.585" rx="3.2" ry="3.2"/>
</g>
<!-- core_taskreservedresource&#45;&gt;core_reservedresource -->
<g id="edge9" class="edge"><title>core_taskreservedresource:resource_id:w&#45;&gt;core_reservedresource:pulp_id:e</title>
<path fill="none" stroke="black" d="M405.884,-559.829C393.919,-551.585 390.55,-534 371,-534"/>
<polygon fill="black" stroke="black" points="412.328,-561.733 418.98,-567.452 416.164,-562.866 420,-564 420,-564 420,-564 416.164,-562.866 421.02,-560.548 412.328,-561.733 412.328,-561.733"/>
<ellipse fill="none" stroke="black" cx="409.259" cy="-560.826" rx="3.20001" ry="3.20001"/>
</g>
<!-- core_taskreservedresourcerecord -->
<g id="node11" class="node"><title>core_taskreservedresourcerecord</title>
<g id="a_node11"><a xlink:href="../../tables/core_taskreservedresourcerecord.html" xlink:title="core_taskreservedresourcerecord" target="_top">
<polygon fill="#ffffff" stroke="none" points="445.5,-37 445.5,-95 684.5,-95 684.5,-37 445.5,-37"/>
<polygon fill="#f5f5f5" stroke="none" points="446,-73 446,-95 685,-95 685,-73 446,-73"/>
<polygon fill="none" stroke="black" points="446,-73 446,-95 685,-95 685,-73 446,-73"/>
<text text-anchor="start" x="451" y="-82.2" font-family="Helvetica,sans-Serif" font-weight="bold" font-size="11.00">core_taskreservedresourcerecord</text>
<text text-anchor="start" x="646" y="-81.2" font-family="Helvetica,sans-Serif" font-size="11.00">[table]</text>
<polygon fill="none" stroke="black" points="446,-55 446,-73 685,-73 685,-55 446,-55"/>
<text text-anchor="start" x="449" y="-61.2" font-family="Helvetica,sans-Serif" font-size="11.00">...</text>
<polygon fill="#ffffff" stroke="none" points="446,-37 446,-55 538,-55 538,-37 446,-37"/>
<polygon fill="none" stroke="black" points="446,-37 446,-55 538,-55 538,-37 446,-37"/>
<text text-anchor="start" x="449" y="-43.2" font-family="Helvetica,sans-Serif" font-size="11.00">&lt; 2</text>
<polygon fill="#ffffff" stroke="none" points="538,-37 538,-55 637,-55 637,-37 538,-37"/>
<polygon fill="none" stroke="black" points="538,-37 538,-55 637,-55 637,-37 538,-37"/>
<text text-anchor="start" x="575" y="-43.2" font-family="Helvetica,sans-Serif" font-size="11.00">1,937 rows</text>
<polygon fill="#ffffff" stroke="none" points="637,-37 637,-55 685,-55 685,-37 637,-37"/>
<polygon fill="none" stroke="black" points="637,-37 637,-55 685,-55 685,-37 637,-37"/>
<text text-anchor="start" x="675" y="-43.2" font-family="Helvetica,sans-Serif" font-size="11.00"> &#160;</text>
</a>
</g>
</g>
<!-- core_taskreservedresourcerecord&#45;&gt;core_task -->
<g id="edge11" class="edge"><title>core_taskreservedresourcerecord:elipses:w&#45;&gt;core_task:pulp_id:e</title>
<path fill="none" stroke="black" d="M430.568,-65.3678C331.448,-85.8708 467.7,-330 347,-330"/>
<polygon fill="black" stroke="black" points="437.036,-64.7548 445.34,-67.5839 441.018,-64.3774 445,-64 445,-64 445,-64 441.018,-64.3774 444.66,-60.4161 437.036,-64.7548 437.036,-64.7548"/>
<ellipse fill="none" stroke="black" cx="433.85" cy="-65.0568" rx="3.2" ry="3.2"/>
</g>
</g>
</svg>
