<?xml version="1.0" encoding="UTF-8" standalone="no"?>
<!DOCTYPE svg PUBLIC "-//W3C//DTD SVG 1.1//EN"
 "http://www.w3.org/Graphics/SVG/1.1/DTD/svg11.dtd">
<!-- Generated by graphviz version 2.38.0 (20140413.2041)
 -->
<!-- Title: oneDegreeRelationshipsDiagram Pages: 1 -->
<svg width="477pt" height="377pt"
 viewBox="0.00 0.00 477.00 377.00" xmlns="http://www.w3.org/2000/svg" xmlns:xlink="http://www.w3.org/1999/xlink">
<g id="graph0" class="graph" transform="scale(1 1) rotate(0) translate(4 373)">
<title>oneDegreeRelationshipsDiagram</title>
<polygon fill="#ffffff" stroke="none" points="-4,4 -4,-373 473,-373 473,4 -4,4"/>
<text text-anchor="middle" x="74.5" y="-7.2" font-family="Helvetica,sans-Serif" font-size="11.00">Generated by SchemaSpy</text>
<!-- core_contentartifact -->
<g id="node1" class="node"><title>core_contentartifact</title>
<g id="a_node1"><a xlink:href="../../tables/core_contentartifact.html" xlink:title="core_contentartifact" target="_top">
<polygon fill="#ffffff" stroke="none" points="295,-219 295,-365 461,-365 461,-219 295,-219"/>
<polygon fill="#f5f5f5" stroke="none" points="295,-343 295,-365 461,-365 461,-343 295,-343"/>
<polygon fill="none" stroke="black" points="295,-343 295,-365 461,-365 461,-343 295,-343"/>
<text text-anchor="start" x="300" y="-352.2" font-family="Helvetica,sans-Serif" font-weight="bold" font-size="11.00">core_contentartifact</text>
<text text-anchor="start" x="422" y="-351.2" font-family="Helvetica,sans-Serif" font-size="11.00">[table]</text>
<polygon fill="none" stroke="black" points="295,-321 295,-343 461,-343 461,-321 295,-321"/>
<image xlink:href="../../images/primaryKeys.png" width="11px" height="12px" preserveAspectRatio="xMinYMin meet" x="300" y="-338"/>
<text text-anchor="start" x="327" y="-329.2" font-family="Helvetica,sans-Serif" font-size="11.00">pulp_id</text>
<polygon fill="#ffffff" stroke="none" points="295,-299 295,-321 461,-321 461,-299 295,-299"/>
<polygon fill="none" stroke="black" points="295,-299 295,-321 461,-321 461,-299 295,-299"/>
<text text-anchor="start" x="327" y="-307.2" font-family="Helvetica,sans-Serif" font-size="11.00">relative_path</text>
<polygon fill="#ffffff" stroke="none" points="295,-277 295,-299 461,-299 461,-277 295,-277"/>
<polygon fill="none" stroke="black" points="295,-277 295,-299 461,-299 461,-277 295,-277"/>
<image xlink:href="../../images/foreignKeys.png" width="11px" height="12px" preserveAspectRatio="xMinYMin meet" x="300" y="-294"/>
<text text-anchor="start" x="327" y="-285.2" font-family="Helvetica,sans-Serif" font-size="11.00">artifact_id</text>
<polygon fill="#ffffff" stroke="none" points="295,-255 295,-277 461,-277 461,-255 295,-255"/>
<polygon fill="none" stroke="black" points="295,-255 295,-277 461,-277 461,-255 295,-255"/>
<image xlink:href="../../images/foreignKeys.png" width="11px" height="12px" preserveAspectRatio="xMinYMin meet" x="300" y="-272"/>
<text text-anchor="start" x="327" y="-263.2" font-family="Helvetica,sans-Serif" font-size="11.00">content_id</text>
<polygon fill="none" stroke="black" points="295,-237 295,-255 461,-255 461,-237 295,-237"/>
<text text-anchor="start" x="298" y="-243.2" font-family="Helvetica,sans-Serif" font-size="11.00">...</text>
<polygon fill="#ffffff" stroke="none" points="295,-219 295,-237 353,-237 353,-219 295,-219"/>
<polygon fill="none" stroke="black" points="295,-219 295,-237 353,-237 353,-219 295,-219"/>
<text text-anchor="start" x="298" y="-225.2" font-family="Helvetica,sans-Serif" font-size="11.00">&lt; 2</text>
<polygon fill="#ffffff" stroke="none" points="353,-219 353,-237 420,-237 420,-219 353,-219"/>
<polygon fill="none" stroke="black" points="353,-219 353,-237 420,-237 420,-219 353,-219"/>
<text text-anchor="start" x="374" y="-225.2" font-family="Helvetica,sans-Serif" font-size="11.00">88 rows</text>
<polygon fill="#ffffff" stroke="none" points="420,-219 420,-237 461,-237 461,-219 420,-219"/>
<polygon fill="none" stroke="black" points="420,-219 420,-237 461,-237 461,-219 420,-219"/>
<text text-anchor="start" x="441" y="-225.2" font-family="Helvetica,sans-Serif" font-size="11.00">2 &gt;</text>
</a>
</g>
</g>
<!-- core_artifact -->
<g id="node2" class="node"><title>core_artifact</title>
<g id="a_node2"><a xlink:href="../../tables/core_artifact.html" xlink:title="core_artifact" target="_top">
<polygon fill="#ffffff" stroke="none" points="8,-37 8,-323 246,-323 246,-37 8,-37"/>
<polygon fill="#f5f5f5" stroke="none" points="10,-299 10,-321 244,-321 244,-299 10,-299"/>
<polygon fill="none" stroke="black" points="10,-299 10,-321 244,-321 244,-299 10,-299"/>
<text text-anchor="start" x="15" y="-308.2" font-family="Helvetica,sans-Serif" font-weight="bold" font-size="11.00">core_artifact</text>
<text text-anchor="start" x="205" y="-307.2" font-family="Helvetica,sans-Serif" font-size="11.00">[table]</text>
<polygon fill="none" stroke="black" points="10,-277 10,-299 139,-299 139,-277 10,-277"/>
<image xlink:href="../../images/primaryKeys.png" width="11px" height="12px" preserveAspectRatio="xMinYMin meet" x="15" y="-294"/>
<text text-anchor="start" x="30" y="-285.2" font-family="Helvetica,sans-Serif" font-size="11.00">pulp_id</text>
<polygon fill="none" stroke="black" points="139,-277 139,-299 244,-299 244,-277 139,-277"/>
<text text-anchor="start" x="142" y="-285.2" font-family="Helvetica,sans-Serif" font-size="11.00">uuid[2147483647]</text>
<polygon fill="none" stroke="black" points="10,-255 10,-277 139,-277 139,-255 10,-255"/>
<text text-anchor="start" x="30" y="-263.2" font-family="Helvetica,sans-Serif" font-size="11.00">pulp_created</text>
<polygon fill="none" stroke="black" points="139,-255 139,-277 244,-277 244,-255 139,-255"/>
<text text-anchor="start" x="142" y="-263.2" font-family="Helvetica,sans-Serif" font-size="11.00">timestamptz[35,6]</text>
<polygon fill="none" stroke="black" points="10,-233 10,-255 139,-255 139,-233 10,-233"/>
<text text-anchor="start" x="30" y="-241.2" font-family="Helvetica,sans-Serif" font-size="11.00">pulp_last_updated</text>
<polygon fill="none" stroke="black" points="139,-233 139,-255 244,-255 244,-233 139,-233"/>
<text text-anchor="start" x="142" y="-241.2" font-family="Helvetica,sans-Serif" font-size="11.00">timestamptz[35,6]</text>
<polygon fill="none" stroke="black" points="10,-211 10,-233 139,-233 139,-211 10,-211"/>
<text text-anchor="start" x="30" y="-219.2" font-family="Helvetica,sans-Serif" font-size="11.00">file</text>
<polygon fill="none" stroke="black" points="139,-211 139,-233 244,-233 244,-211 139,-211"/>
<text text-anchor="start" x="142" y="-219.2" font-family="Helvetica,sans-Serif" font-size="11.00">varchar[255]</text>
<polygon fill="none" stroke="black" points="10,-189 10,-211 139,-211 139,-189 10,-189"/>
<text text-anchor="start" x="30" y="-197.2" font-family="Helvetica,sans-Serif" font-size="11.00">size</text>
<polygon fill="none" stroke="black" points="139,-189 139,-211 244,-211 244,-189 139,-189"/>
<text text-anchor="start" x="142" y="-197.2" font-family="Helvetica,sans-Serif" font-size="11.00">int8[19]</text>
<polygon fill="#ffffff" stroke="none" points="10,-167 10,-189 139,-189 139,-167 10,-167"/>
<polygon fill="none" stroke="black" points="10,-167 10,-189 139,-189 139,-167 10,-167"/>
<text text-anchor="start" x="30" y="-175.2" font-family="Helvetica,sans-Serif" font-size="11.00">md5</text>
<polygon fill="none" stroke="black" points="139,-167 139,-189 244,-189 244,-167 139,-167"/>
<text text-anchor="start" x="142" y="-175.2" font-family="Helvetica,sans-Serif" font-size="11.00">varchar[32]</text>
<polygon fill="#ffffff" stroke="none" points="10,-145 10,-167 139,-167 139,-145 10,-145"/>
<polygon fill="none" stroke="black" points="10,-145 10,-167 139,-167 139,-145 10,-145"/>
<text text-anchor="start" x="30" y="-153.2" font-family="Helvetica,sans-Serif" font-size="11.00">sha1</text>
<polygon fill="none" stroke="black" points="139,-145 139,-167 244,-167 244,-145 139,-145"/>
<text text-anchor="start" x="142" y="-153.2" font-family="Helvetica,sans-Serif" font-size="11.00">varchar[40]</text>
<polygon fill="#ffffff" stroke="none" points="10,-123 10,-145 139,-145 139,-123 10,-123"/>
<polygon fill="none" stroke="black" points="10,-123 10,-145 139,-145 139,-123 10,-123"/>
<text text-anchor="start" x="30" y="-131.2" font-family="Helvetica,sans-Serif" font-size="11.00">sha224</text>
<polygon fill="none" stroke="black" points="139,-123 139,-145 244,-145 244,-123 139,-123"/>
<text text-anchor="start" x="142" y="-131.2" font-family="Helvetica,sans-Serif" font-size="11.00">varchar[56]</text>
<polygon fill="#ffffff" stroke="none" points="10,-101 10,-123 139,-123 139,-101 10,-101"/>
<polygon fill="none" stroke="black" points="10,-101 10,-123 139,-123 139,-101 10,-101"/>
<text text-anchor="start" x="30" y="-109.2" font-family="Helvetica,sans-Serif" font-size="11.00">sha256</text>
<polygon fill="none" stroke="black" points="139,-101 139,-123 244,-123 244,-101 139,-101"/>
<text text-anchor="start" x="142" y="-109.2" font-family="Helvetica,sans-Serif" font-size="11.00">varchar[64]</text>
<polygon fill="#ffffff" stroke="none" points="10,-79 10,-101 139,-101 139,-79 10,-79"/>
<polygon fill="none" stroke="black" points="10,-79 10,-101 139,-101 139,-79 10,-79"/>
<text text-anchor="start" x="30" y="-87.2" font-family="Helvetica,sans-Serif" font-size="11.00">sha384</text>
<polygon fill="none" stroke="black" points="139,-79 139,-101 244,-101 244,-79 139,-79"/>
<text text-anchor="start" x="142" y="-87.2" font-family="Helvetica,sans-Serif" font-size="11.00">varchar[96]</text>
<polygon fill="#ffffff" stroke="none" points="10,-57 10,-79 139,-79 139,-57 10,-57"/>
<polygon fill="none" stroke="black" points="10,-57 10,-79 139,-79 139,-57 10,-57"/>
<text text-anchor="start" x="30" y="-65.2" font-family="Helvetica,sans-Serif" font-size="11.00">sha512</text>
<polygon fill="none" stroke="black" points="139,-57 139,-79 244,-79 244,-57 139,-57"/>
<text text-anchor="start" x="142" y="-65.2" font-family="Helvetica,sans-Serif" font-size="11.00">varchar[128]</text>
<polygon fill="#ffffff" stroke="none" points="10,-39 10,-57 58,-57 58,-39 10,-39"/>
<polygon fill="none" stroke="black" points="10,-39 10,-57 58,-57 58,-39 10,-39"/>
<text text-anchor="start" x="13" y="-45.2" font-family="Helvetica,sans-Serif" font-size="11.00">&lt; 0</text>
<polygon fill="#ffffff" stroke="none" points="58,-39 58,-57 139,-57 139,-39 58,-39"/>
<polygon fill="none" stroke="black" points="58,-39 58,-57 139,-57 139,-39 58,-39"/>
<text text-anchor="start" x="87" y="-45.2" font-family="Helvetica,sans-Serif" font-size="11.00">588 rows</text>
<polygon fill="#ffffff" stroke="none" points="139,-39 139,-57 244,-57 244,-39 139,-39"/>
<polygon fill="none" stroke="black" points="139,-39 139,-57 244,-57 244,-39 139,-39"/>
<text text-anchor="start" x="224" y="-45.2" font-family="Helvetica,sans-Serif" font-size="11.00">1 &gt;</text>
<polygon fill="none" stroke="black" stroke-width="2" points="9,-38 9,-322 245,-322 245,-38 9,-38"/>
</a>
</g>
</g>
<!-- core_contentartifact&#45;&gt;core_artifact -->
<g id="edge1" class="edge"><title>core_contentartifact:artifact_id:w&#45;&gt;core_artifact:pulp_id.type:e</title>
<path fill="none" stroke="black" d="M279.491,-288C268.177,-288 260.993,-288 245,-288"/>
<polygon fill="black" stroke="black" points="286,-288 294,-291.6 290,-288 294,-288 294,-288 294,-288 290,-288 294,-284.4 286,-288 286,-288"/>
<ellipse fill="none" stroke="black" cx="282.8" cy="-288" rx="3.2" ry="3.2"/>
</g>
</g>
</svg>
