<?xml version="1.0" encoding="UTF-8" standalone="no"?>
<!DOCTYPE svg PUBLIC "-//W3C//DTD SVG 1.1//EN"
 "http://www.w3.org/Graphics/SVG/1.1/DTD/svg11.dtd">
<!-- Generated by graphviz version 2.38.0 (20140413.2041)
 -->
<!-- Title: oneDegreeRelationshipsDiagram Pages: 1 -->
<svg width="617pt" height="201pt"
 viewBox="0.00 0.00 617.00 201.00" xmlns="http://www.w3.org/2000/svg" xmlns:xlink="http://www.w3.org/1999/xlink">
<g id="graph0" class="graph" transform="scale(1 1) rotate(0) translate(4 197)">
<title>oneDegreeRelationshipsDiagram</title>
<polygon fill="#ffffff" stroke="none" points="-4,4 -4,-197 613,-197 613,4 -4,4"/>
<text text-anchor="middle" x="74.5" y="-7.2" font-family="Helvetica,sans-Serif" font-size="11.00">Generated by SchemaSpy</text>
<!-- core_taskreservedresourcerecord -->
<g id="node1" class="node"><title>core_taskreservedresourcerecord</title>
<g id="a_node1"><a xlink:href="../../tables/core_taskreservedresourcerecord.html" xlink:title="core_taskreservedresourcerecord" target="_top">
<polygon fill="#ffffff" stroke="none" points="362,-65 362,-189 601,-189 601,-65 362,-65"/>
<polygon fill="#f5f5f5" stroke="none" points="362.5,-167 362.5,-189 601.5,-189 601.5,-167 362.5,-167"/>
<polygon fill="none" stroke="black" points="362.5,-167 362.5,-189 601.5,-189 601.5,-167 362.5,-167"/>
<text text-anchor="start" x="367.5" y="-176.2" font-family="Helvetica,sans-Serif" font-weight="bold" font-size="11.00">core_taskreservedresourcerecord</text>
<text text-anchor="start" x="562.5" y="-175.2" font-family="Helvetica,sans-Serif" font-size="11.00">[table]</text>
<polygon fill="none" stroke="black" points="362.5,-145 362.5,-167 601.5,-167 601.5,-145 362.5,-145"/>
<image xlink:href="../../images/primaryKeys.png" width="11px" height="12px" preserveAspectRatio="xMinYMin meet" x="367.5" y="-162"/>
<text text-anchor="start" x="391.5" y="-153.2" font-family="Helvetica,sans-Serif" font-size="11.00">pulp_id</text>
<polygon fill="#ffffff" stroke="none" points="362.5,-123 362.5,-145 601.5,-145 601.5,-123 362.5,-123"/>
<polygon fill="none" stroke="black" points="362.5,-123 362.5,-145 601.5,-145 601.5,-123 362.5,-123"/>
<image xlink:href="../../images/foreignKeys.png" width="11px" height="12px" preserveAspectRatio="xMinYMin meet" x="367.5" y="-140"/>
<text text-anchor="start" x="391.5" y="-131.2" font-family="Helvetica,sans-Serif" font-size="11.00">resource_id</text>
<polygon fill="#ffffff" stroke="none" points="362.5,-101 362.5,-123 601.5,-123 601.5,-101 362.5,-101"/>
<polygon fill="none" stroke="black" points="362.5,-101 362.5,-123 601.5,-123 601.5,-101 362.5,-101"/>
<image xlink:href="../../images/foreignKeys.png" width="11px" height="12px" preserveAspectRatio="xMinYMin meet" x="367.5" y="-118"/>
<text text-anchor="start" x="391.5" y="-109.2" font-family="Helvetica,sans-Serif" font-size="11.00">task_id</text>
<polygon fill="none" stroke="black" points="362.5,-83 362.5,-101 601.5,-101 601.5,-83 362.5,-83"/>
<text text-anchor="start" x="365.5" y="-89.2" font-family="Helvetica,sans-Serif" font-size="11.00">...</text>
<polygon fill="#ffffff" stroke="none" points="362.5,-65 362.5,-83 454.5,-83 454.5,-65 362.5,-65"/>
<polygon fill="none" stroke="black" points="362.5,-65 362.5,-83 454.5,-83 454.5,-65 362.5,-65"/>
<text text-anchor="start" x="365.5" y="-71.2" font-family="Helvetica,sans-Serif" font-size="11.00">&lt; 2</text>
<polygon fill="#ffffff" stroke="none" points="454.5,-65 454.5,-83 553.5,-83 553.5,-65 454.5,-65"/>
<polygon fill="none" stroke="black" points="454.5,-65 454.5,-83 553.5,-83 553.5,-65 454.5,-65"/>
<text text-anchor="start" x="491.5" y="-71.2" font-family="Helvetica,sans-Serif" font-size="11.00">1,937 rows</text>
<polygon fill="#ffffff" stroke="none" points="553.5,-65 553.5,-83 601.5,-83 601.5,-65 553.5,-65"/>
<polygon fill="none" stroke="black" points="553.5,-65 553.5,-83 601.5,-83 601.5,-65 553.5,-65"/>
<text text-anchor="start" x="591.5" y="-71.2" font-family="Helvetica,sans-Serif" font-size="11.00"> &#160;</text>
</a>
</g>
</g>
<!-- core_reservedresourcerecord -->
<g id="node2" class="node"><title>core_reservedresourcerecord</title>
<g id="a_node2"><a xlink:href="../../tables/core_reservedresourcerecord.html" xlink:title="core_reservedresourcerecord" target="_top">
<polygon fill="#ffffff" stroke="none" points="8,-37 8,-169 313,-169 313,-37 8,-37"/>
<polygon fill="#f5f5f5" stroke="none" points="10.5,-145 10.5,-167 311.5,-167 311.5,-145 10.5,-145"/>
<polygon fill="none" stroke="black" points="10.5,-145 10.5,-167 311.5,-167 311.5,-145 10.5,-145"/>
<text text-anchor="start" x="15.5" y="-154.2" font-family="Helvetica,sans-Serif" font-weight="bold" font-size="11.00">core_reservedresourcerecord</text>
<text text-anchor="start" x="272.5" y="-153.2" font-family="Helvetica,sans-Serif" font-size="11.00">[table]</text>
<polygon fill="none" stroke="black" points="10.5,-123 10.5,-145 206.5,-145 206.5,-123 10.5,-123"/>
<image xlink:href="../../images/primaryKeys.png" width="11px" height="12px" preserveAspectRatio="xMinYMin meet" x="15.5" y="-140"/>
<text text-anchor="start" x="30.5" y="-131.2" font-family="Helvetica,sans-Serif" font-size="11.00">pulp_id</text>
<polygon fill="none" stroke="black" points="206.5,-123 206.5,-145 311.5,-145 311.5,-123 206.5,-123"/>
<text text-anchor="start" x="209.5" y="-131.2" font-family="Helvetica,sans-Serif" font-size="11.00">uuid[2147483647]</text>
<polygon fill="none" stroke="black" points="10.5,-101 10.5,-123 206.5,-123 206.5,-101 10.5,-101"/>
<text text-anchor="start" x="30.5" y="-109.2" font-family="Helvetica,sans-Serif" font-size="11.00">pulp_created</text>
<polygon fill="none" stroke="black" points="206.5,-101 206.5,-123 311.5,-123 311.5,-101 206.5,-101"/>
<text text-anchor="start" x="209.5" y="-109.2" font-family="Helvetica,sans-Serif" font-size="11.00">timestamptz[35,6]</text>
<polygon fill="none" stroke="black" points="10.5,-79 10.5,-101 206.5,-101 206.5,-79 10.5,-79"/>
<text text-anchor="start" x="30.5" y="-87.2" font-family="Helvetica,sans-Serif" font-size="11.00">pulp_last_updated</text>
<polygon fill="none" stroke="black" points="206.5,-79 206.5,-101 311.5,-101 311.5,-79 206.5,-79"/>
<text text-anchor="start" x="209.5" y="-87.2" font-family="Helvetica,sans-Serif" font-size="11.00">timestamptz[35,6]</text>
<polygon fill="#ffffff" stroke="none" points="10.5,-57 10.5,-79 206.5,-79 206.5,-57 10.5,-57"/>
<polygon fill="none" stroke="black" points="10.5,-57 10.5,-79 206.5,-79 206.5,-57 10.5,-57"/>
<text text-anchor="start" x="30.5" y="-65.2" font-family="Helvetica,sans-Serif" font-size="11.00">resource</text>
<polygon fill="none" stroke="black" points="206.5,-57 206.5,-79 311.5,-79 311.5,-57 206.5,-57"/>
<text text-anchor="start" x="209.5" y="-65.2" font-family="Helvetica,sans-Serif" font-size="11.00">text[2147483647]</text>
<polygon fill="#ffffff" stroke="none" points="10.5,-39 10.5,-57 92.5,-57 92.5,-39 10.5,-39"/>
<polygon fill="none" stroke="black" points="10.5,-39 10.5,-57 92.5,-57 92.5,-39 10.5,-39"/>
<text text-anchor="start" x="13.5" y="-45.2" font-family="Helvetica,sans-Serif" font-size="11.00">&lt; 0</text>
<polygon fill="#ffffff" stroke="none" points="92.5,-39 92.5,-57 206.5,-57 206.5,-39 92.5,-39"/>
<polygon fill="none" stroke="black" points="92.5,-39 92.5,-57 206.5,-57 206.5,-39 92.5,-39"/>
<text text-anchor="start" x="154.5" y="-45.2" font-family="Helvetica,sans-Serif" font-size="11.00">228 rows</text>
<polygon fill="#ffffff" stroke="none" points="206.5,-39 206.5,-57 311.5,-57 311.5,-39 206.5,-39"/>
<polygon fill="none" stroke="black" points="206.5,-39 206.5,-57 311.5,-57 311.5,-39 206.5,-39"/>
<text text-anchor="start" x="291.5" y="-45.2" font-family="Helvetica,sans-Serif" font-size="11.00">1 &gt;</text>
<polygon fill="none" stroke="black" stroke-width="2" points="9,-38 9,-168 312,-168 312,-38 9,-38"/>
</a>
</g>
</g>
<!-- core_taskreservedresourcerecord&#45;&gt;core_reservedresourcerecord -->
<g id="edge1" class="edge"><title>core_taskreservedresourcerecord:resource_id:w&#45;&gt;core_reservedresourcerecord:pulp_id.type:e</title>
<path fill="none" stroke="black" d="M346.991,-134C335.677,-134 328.493,-134 312.5,-134"/>
<polygon fill="black" stroke="black" points="353.5,-134 361.5,-137.6 357.5,-134 361.5,-134 361.5,-134 361.5,-134 357.5,-134 361.5,-130.4 353.5,-134 353.5,-134"/>
<ellipse fill="none" stroke="black" cx="350.3" cy="-134" rx="3.2" ry="3.2"/>
</g>
</g>
</svg>
