<?xml version="1.0" encoding="UTF-8" standalone="no"?>
<!DOCTYPE svg PUBLIC "-//W3C//DTD SVG 1.1//EN"
 "http://www.w3.org/Graphics/SVG/1.1/DTD/svg11.dtd">
<!-- Generated by graphviz version 2.38.0 (20140413.2041)
 -->
<!-- Title: oneDegreeRelationshipsDiagram Pages: 1 -->
<svg width="532pt" height="284pt"
 viewBox="0.00 0.00 532.00 284.00" xmlns="http://www.w3.org/2000/svg" xmlns:xlink="http://www.w3.org/1999/xlink">
<g id="graph0" class="graph" transform="scale(1 1) rotate(0) translate(4 280)">
<title>oneDegreeRelationshipsDiagram</title>
<polygon fill="#ffffff" stroke="none" points="-4,4 -4,-280 528,-280 528,4 -4,4"/>
<text text-anchor="middle" x="74.5" y="-7.2" font-family="Helvetica,sans-Serif" font-size="11.00">Generated by SchemaSpy</text>
<!-- core_pulpimporterrepository -->
<g id="node1" class="node"><title>core_pulpimporterrepository</title>
<g id="a_node1"><a xlink:href="../../tables/core_pulpimporterrepository.html" xlink:title="core_pulpimporterrepository" target="_top">
<polygon fill="#ffffff" stroke="none" points="213,-96 213,-272 516,-272 516,-96 213,-96"/>
<polygon fill="#f5f5f5" stroke="none" points="215.5,-248 215.5,-270 514.5,-270 514.5,-248 215.5,-248"/>
<polygon fill="none" stroke="black" points="215.5,-248 215.5,-270 514.5,-270 514.5,-248 215.5,-248"/>
<text text-anchor="start" x="220.5" y="-257.2" font-family="Helvetica,sans-Serif" font-weight="bold" font-size="11.00">core_pulpimporterrepository</text>
<text text-anchor="start" x="475.5" y="-256.2" font-family="Helvetica,sans-Serif" font-size="11.00">[table]</text>
<polygon fill="none" stroke="black" points="215.5,-226 215.5,-248 409.5,-248 409.5,-226 215.5,-226"/>
<image xlink:href="../../images/primaryKeys.png" width="11px" height="12px" preserveAspectRatio="xMinYMin meet" x="220.5" y="-243"/>
<text text-anchor="start" x="235.5" y="-234.2" font-family="Helvetica,sans-Serif" font-size="11.00">pulp_id</text>
<polygon fill="none" stroke="black" points="409.5,-226 409.5,-248 514.5,-248 514.5,-226 409.5,-226"/>
<text text-anchor="start" x="412.5" y="-234.2" font-family="Helvetica,sans-Serif" font-size="11.00">uuid[2147483647]</text>
<polygon fill="none" stroke="black" points="215.5,-204 215.5,-226 409.5,-226 409.5,-204 215.5,-204"/>
<text text-anchor="start" x="235.5" y="-212.2" font-family="Helvetica,sans-Serif" font-size="11.00">pulp_created</text>
<polygon fill="none" stroke="black" points="409.5,-204 409.5,-226 514.5,-226 514.5,-204 409.5,-204"/>
<text text-anchor="start" x="412.5" y="-212.2" font-family="Helvetica,sans-Serif" font-size="11.00">timestamptz[35,6]</text>
<polygon fill="none" stroke="black" points="215.5,-182 215.5,-204 409.5,-204 409.5,-182 215.5,-182"/>
<text text-anchor="start" x="235.5" y="-190.2" font-family="Helvetica,sans-Serif" font-size="11.00">pulp_last_updated</text>
<polygon fill="none" stroke="black" points="409.5,-182 409.5,-204 514.5,-204 514.5,-182 409.5,-182"/>
<text text-anchor="start" x="412.5" y="-190.2" font-family="Helvetica,sans-Serif" font-size="11.00">timestamptz[35,6]</text>
<polygon fill="none" stroke="black" points="215.5,-160 215.5,-182 409.5,-182 409.5,-160 215.5,-160"/>
<text text-anchor="start" x="235.5" y="-168.2" font-family="Helvetica,sans-Serif" font-size="11.00">source_repo</text>
<polygon fill="none" stroke="black" points="409.5,-160 409.5,-182 514.5,-182 514.5,-160 409.5,-160"/>
<text text-anchor="start" x="412.5" y="-168.2" font-family="Helvetica,sans-Serif" font-size="11.00">text[2147483647]</text>
<polygon fill="#ffffff" stroke="none" points="215.5,-138 215.5,-160 409.5,-160 409.5,-138 215.5,-138"/>
<polygon fill="none" stroke="black" points="215.5,-138 215.5,-160 409.5,-160 409.5,-138 215.5,-138"/>
<image xlink:href="../../images/foreignKeys.png" width="11px" height="12px" preserveAspectRatio="xMinYMin meet" x="220.5" y="-155"/>
<text text-anchor="start" x="235.5" y="-146.2" font-family="Helvetica,sans-Serif" font-size="11.00">repository_id</text>
<polygon fill="none" stroke="black" points="409.5,-138 409.5,-160 514.5,-160 514.5,-138 409.5,-138"/>
<text text-anchor="start" x="412.5" y="-146.2" font-family="Helvetica,sans-Serif" font-size="11.00">uuid[2147483647]</text>
<polygon fill="#ffffff" stroke="none" points="215.5,-116 215.5,-138 409.5,-138 409.5,-116 215.5,-116"/>
<polygon fill="none" stroke="black" points="215.5,-116 215.5,-138 409.5,-138 409.5,-116 215.5,-116"/>
<image xlink:href="../../images/foreignKeys.png" width="11px" height="12px" preserveAspectRatio="xMinYMin meet" x="220.5" y="-133"/>
<text text-anchor="start" x="235.5" y="-124.2" font-family="Helvetica,sans-Serif" font-size="11.00">pulp_importer_id</text>
<polygon fill="none" stroke="black" points="409.5,-116 409.5,-138 514.5,-138 514.5,-116 409.5,-116"/>
<text text-anchor="start" x="412.5" y="-124.2" font-family="Helvetica,sans-Serif" font-size="11.00">uuid[2147483647]</text>
<polygon fill="#ffffff" stroke="none" points="215.5,-98 215.5,-116 302.5,-116 302.5,-98 215.5,-98"/>
<polygon fill="none" stroke="black" points="215.5,-98 215.5,-116 302.5,-116 302.5,-98 215.5,-98"/>
<text text-anchor="start" x="218.5" y="-104.2" font-family="Helvetica,sans-Serif" font-size="11.00">&lt; 2</text>
<polygon fill="#ffffff" stroke="none" points="302.5,-98 302.5,-116 409.5,-116 409.5,-98 302.5,-98"/>
<polygon fill="none" stroke="black" points="302.5,-98 302.5,-116 409.5,-116 409.5,-98 302.5,-98"/>
<text text-anchor="start" x="370.5" y="-104.2" font-family="Helvetica,sans-Serif" font-size="11.00">0 rows</text>
<polygon fill="#ffffff" stroke="none" points="409.5,-98 409.5,-116 514.5,-116 514.5,-98 409.5,-98"/>
<polygon fill="none" stroke="black" points="409.5,-98 409.5,-116 514.5,-116 514.5,-98 409.5,-98"/>
<text text-anchor="start" x="494.5" y="-104.2" font-family="Helvetica,sans-Serif" font-size="11.00">0 &gt;</text>
<polygon fill="none" stroke="black" stroke-width="2" points="214,-97 214,-271 515,-271 515,-97 214,-97"/>
</a>
</g>
</g>
<!-- core_pulpimporter -->
<g id="node2" class="node"><title>core_pulpimporter</title>
<g id="a_node2"><a xlink:href="../../tables/core_pulpimporter.html" xlink:title="core_pulpimporter" target="_top">
<polygon fill="#ffffff" stroke="none" points="8,-37 8,-99 164,-99 164,-37 8,-37"/>
<polygon fill="#f5f5f5" stroke="none" points="8,-77 8,-99 164,-99 164,-77 8,-77"/>
<polygon fill="none" stroke="black" points="8,-77 8,-99 164,-99 164,-77 8,-77"/>
<text text-anchor="start" x="13" y="-86.2" font-family="Helvetica,sans-Serif" font-weight="bold" font-size="11.00">core_pulpimporter</text>
<text text-anchor="start" x="125" y="-85.2" font-family="Helvetica,sans-Serif" font-size="11.00">[table]</text>
<polygon fill="none" stroke="black" points="8,-55 8,-77 164,-77 164,-55 8,-55"/>
<image xlink:href="../../images/primaryKeys.png" width="11px" height="12px" preserveAspectRatio="xMinYMin meet" x="13" y="-72"/>
<text text-anchor="start" x="40" y="-63.2" font-family="Helvetica,sans-Serif" font-size="11.00">importer_ptr_id</text>
<polygon fill="#ffffff" stroke="none" points="8,-37 8,-55 65,-55 65,-37 8,-37"/>
<polygon fill="none" stroke="black" points="8,-37 8,-55 65,-55 65,-37 8,-37"/>
<text text-anchor="start" x="11" y="-43.2" font-family="Helvetica,sans-Serif" font-size="11.00">&lt; 1</text>
<polygon fill="#ffffff" stroke="none" points="65,-37 65,-55 124,-55 124,-37 65,-37"/>
<polygon fill="none" stroke="black" points="65,-37 65,-55 124,-55 124,-37 65,-37"/>
<text text-anchor="start" x="85" y="-43.2" font-family="Helvetica,sans-Serif" font-size="11.00">0 rows</text>
<polygon fill="#ffffff" stroke="none" points="124,-37 124,-55 164,-55 164,-37 124,-37"/>
<polygon fill="none" stroke="black" points="124,-37 124,-55 164,-55 164,-37 124,-37"/>
<text text-anchor="start" x="144" y="-43.2" font-family="Helvetica,sans-Serif" font-size="11.00">1 &gt;</text>
</a>
</g>
</g>
<!-- core_pulpimporterrepository&#45;&gt;core_pulpimporter -->
<g id="edge1" class="edge"><title>core_pulpimporterrepository:pulp_importer_id:w&#45;&gt;core_pulpimporter:importer_ptr_id:e</title>
<path fill="none" stroke="black" d="M200.832,-122.213C184.942,-107.833 193.913,-66 165,-66"/>
<polygon fill="black" stroke="black" points="206.95,-124.356 213.31,-130.398 210.725,-125.678 214.5,-127 214.5,-127 214.5,-127 210.725,-125.678 215.69,-123.602 206.95,-124.356 206.95,-124.356"/>
<ellipse fill="none" stroke="black" cx="203.929" cy="-123.298" rx="3.20001" ry="3.20001"/>
</g>
<!-- core_repository -->
<g id="node3" class="node"><title>core_repository</title>
<g id="a_node3"><a xlink:href="../../tables/core_repository.html" xlink:title="core_repository" target="_top">
<polygon fill="#ffffff" stroke="none" points="17.5,-120 17.5,-244 154.5,-244 154.5,-120 17.5,-120"/>
<polygon fill="#f5f5f5" stroke="none" points="18,-222 18,-244 155,-244 155,-222 18,-222"/>
<polygon fill="none" stroke="black" points="18,-222 18,-244 155,-244 155,-222 18,-222"/>
<text text-anchor="start" x="23" y="-231.2" font-family="Helvetica,sans-Serif" font-weight="bold" font-size="11.00">core_repository</text>
<text text-anchor="start" x="116" y="-230.2" font-family="Helvetica,sans-Serif" font-size="11.00">[table]</text>
<polygon fill="none" stroke="black" points="18,-200 18,-222 155,-222 155,-200 18,-200"/>
<image xlink:href="../../images/primaryKeys.png" width="11px" height="12px" preserveAspectRatio="xMinYMin meet" x="23" y="-217"/>
<text text-anchor="start" x="42" y="-208.2" font-family="Helvetica,sans-Serif" font-size="11.00">pulp_id</text>
<polygon fill="#ffffff" stroke="none" points="18,-178 18,-200 155,-200 155,-178 18,-178"/>
<polygon fill="none" stroke="black" points="18,-178 18,-200 155,-200 155,-178 18,-178"/>
<text text-anchor="start" x="42" y="-186.2" font-family="Helvetica,sans-Serif" font-size="11.00">name</text>
<polygon fill="#ffffff" stroke="none" points="18,-156 18,-178 155,-178 155,-156 18,-156"/>
<polygon fill="none" stroke="black" points="18,-156 18,-178 155,-178 155,-156 18,-156"/>
<image xlink:href="../../images/foreignKeys.png" width="11px" height="12px" preserveAspectRatio="xMinYMin meet" x="23" y="-173"/>
<text text-anchor="start" x="42" y="-164.2" font-family="Helvetica,sans-Serif" font-size="11.00">remote_id</text>
<polygon fill="none" stroke="black" points="18,-138 18,-156 155,-156 155,-138 18,-138"/>
<text text-anchor="start" x="21" y="-144.2" font-family="Helvetica,sans-Serif" font-size="11.00">...</text>
<polygon fill="#ffffff" stroke="none" points="18,-120 18,-138 58,-138 58,-120 18,-120"/>
<polygon fill="none" stroke="black" points="18,-120 18,-138 58,-138 58,-120 18,-120"/>
<text text-anchor="start" x="21" y="-126.2" font-family="Helvetica,sans-Serif" font-size="11.00">&lt; 1</text>
<polygon fill="#ffffff" stroke="none" points="58,-120 58,-138 116,-138 116,-120 58,-120"/>
<polygon fill="none" stroke="black" points="58,-120 58,-138 116,-138 116,-120 58,-120"/>
<text text-anchor="start" x="70" y="-126.2" font-family="Helvetica,sans-Serif" font-size="11.00">26 rows</text>
<polygon fill="#ffffff" stroke="none" points="116,-120 116,-138 155,-138 155,-120 116,-120"/>
<polygon fill="none" stroke="black" points="116,-120 116,-138 155,-138 155,-120 116,-120"/>
<text text-anchor="start" x="128" y="-126.2" font-family="Helvetica,sans-Serif" font-size="11.00">10 &gt;</text>
</a>
</g>
</g>
<!-- core_pulpimporterrepository&#45;&gt;core_repository -->
<g id="edge2" class="edge"><title>core_pulpimporterrepository:repository_id:w&#45;&gt;core_repository:pulp_id:e</title>
<path fill="none" stroke="black" d="M200.36,-153.068C180.665,-166.861 187.966,-211 156,-211"/>
<polygon fill="black" stroke="black" points="206.812,-151.212 215.495,-152.46 210.656,-150.106 214.5,-149 214.5,-149 214.5,-149 210.656,-150.106 213.505,-145.54 206.812,-151.212 206.812,-151.212"/>
<ellipse fill="none" stroke="black" cx="203.737" cy="-152.097" rx="3.20001" ry="3.20001"/>
</g>
</g>
</svg>
