<?xml version="1.0" encoding="UTF-8" standalone="no"?>
<!DOCTYPE svg PUBLIC "-//W3C//DTD SVG 1.1//EN"
 "http://www.w3.org/Graphics/SVG/1.1/DTD/svg11.dtd">
<!-- Generated by graphviz version 2.38.0 (20140413.2041)
 -->
<!-- Title: twoDegreesRelationshipsDiagram Pages: 1 -->
<svg width="609pt" height="186pt"
 viewBox="0.00 0.00 609.00 186.00" xmlns="http://www.w3.org/2000/svg" xmlns:xlink="http://www.w3.org/1999/xlink">
<g id="graph0" class="graph" transform="scale(1 1) rotate(0) translate(4 182)">
<title>twoDegreesRelationshipsDiagram</title>
<polygon fill="#ffffff" stroke="none" points="-4,4 -4,-182 605,-182 605,4 -4,4"/>
<text text-anchor="middle" x="74.5" y="-7.2" font-family="Helvetica,sans-Serif" font-size="11.00">Generated by SchemaSpy</text>
<!-- core_import -->
<g id="node1" class="node"><title>core_import</title>
<g id="a_node1"><a xlink:href="../../tables/core_import.html" xlink:title="core_import" target="_top">
<polygon fill="#ffffff" stroke="none" points="187,-45 187,-169 316,-169 316,-45 187,-45"/>
<polygon fill="#f5f5f5" stroke="none" points="187.5,-147 187.5,-169 316.5,-169 316.5,-147 187.5,-147"/>
<polygon fill="none" stroke="black" points="187.5,-147 187.5,-169 316.5,-169 316.5,-147 187.5,-147"/>
<text text-anchor="start" x="192.5" y="-156.2" font-family="Helvetica,sans-Serif" font-weight="bold" font-size="11.00">core_import</text>
<text text-anchor="start" x="277.5" y="-155.2" font-family="Helvetica,sans-Serif" font-size="11.00">[table]</text>
<polygon fill="none" stroke="black" points="187.5,-125 187.5,-147 316.5,-147 316.5,-125 187.5,-125"/>
<image xlink:href="../../images/primaryKeys.png" width="11px" height="12px" preserveAspectRatio="xMinYMin meet" x="192.5" y="-142"/>
<text text-anchor="start" x="207.5" y="-133.2" font-family="Helvetica,sans-Serif" font-size="11.00">pulp_id</text>
<polygon fill="#ffffff" stroke="none" points="187.5,-103 187.5,-125 316.5,-125 316.5,-103 187.5,-103"/>
<polygon fill="none" stroke="black" points="187.5,-103 187.5,-125 316.5,-125 316.5,-103 187.5,-103"/>
<image xlink:href="../../images/foreignKeys.png" width="11px" height="12px" preserveAspectRatio="xMinYMin meet" x="192.5" y="-120"/>
<text text-anchor="start" x="207.5" y="-111.2" font-family="Helvetica,sans-Serif" font-size="11.00">importer_id</text>
<polygon fill="#ffffff" stroke="none" points="187.5,-81 187.5,-103 316.5,-103 316.5,-81 187.5,-81"/>
<polygon fill="none" stroke="black" points="187.5,-81 187.5,-103 316.5,-103 316.5,-81 187.5,-81"/>
<image xlink:href="../../images/foreignKeys.png" width="11px" height="12px" preserveAspectRatio="xMinYMin meet" x="192.5" y="-98"/>
<text text-anchor="start" x="207.5" y="-89.2" font-family="Helvetica,sans-Serif" font-size="11.00">task_id</text>
<polygon fill="none" stroke="black" points="187.5,-63 187.5,-81 316.5,-81 316.5,-63 187.5,-63"/>
<text text-anchor="start" x="190.5" y="-69.2" font-family="Helvetica,sans-Serif" font-size="11.00">...</text>
<polygon fill="#ffffff" stroke="none" points="187.5,-45 187.5,-63 230.5,-63 230.5,-45 187.5,-45"/>
<polygon fill="none" stroke="black" points="187.5,-45 187.5,-63 230.5,-63 230.5,-45 187.5,-45"/>
<text text-anchor="start" x="190.5" y="-51.2" font-family="Helvetica,sans-Serif" font-size="11.00">&lt; 2</text>
<polygon fill="#ffffff" stroke="none" points="230.5,-45 230.5,-63 282.5,-63 282.5,-45 230.5,-45"/>
<polygon fill="none" stroke="black" points="230.5,-45 230.5,-63 282.5,-63 282.5,-45 230.5,-45"/>
<text text-anchor="start" x="243.5" y="-51.2" font-family="Helvetica,sans-Serif" font-size="11.00">0 rows</text>
<polygon fill="#ffffff" stroke="none" points="282.5,-45 282.5,-63 316.5,-63 316.5,-45 282.5,-45"/>
<polygon fill="none" stroke="black" points="282.5,-45 282.5,-63 316.5,-63 316.5,-45 282.5,-45"/>
<text text-anchor="start" x="296.5" y="-51.2" font-family="Helvetica,sans-Serif" font-size="11.00">1 &gt;</text>
</a>
</g>
</g>
<!-- core_importer -->
<g id="node2" class="node"><title>core_importer</title>
<g id="a_node2"><a xlink:href="../../tables/core_importer.html" xlink:title="core_importer" target="_top">
<polygon fill="#ffffff" stroke="none" points="8,-116 8,-174 138,-174 138,-116 8,-116"/>
<polygon fill="#f5f5f5" stroke="none" points="8,-152 8,-174 138,-174 138,-152 8,-152"/>
<polygon fill="none" stroke="black" points="8,-152 8,-174 138,-174 138,-152 8,-152"/>
<text text-anchor="start" x="13" y="-161.2" font-family="Helvetica,sans-Serif" font-weight="bold" font-size="11.00">core_importer</text>
<text text-anchor="start" x="99" y="-160.2" font-family="Helvetica,sans-Serif" font-size="11.00">[table]</text>
<polygon fill="none" stroke="black" points="8,-134 8,-152 138,-152 138,-134 8,-134"/>
<text text-anchor="start" x="11" y="-140.2" font-family="Helvetica,sans-Serif" font-size="11.00">...</text>
<polygon fill="#ffffff" stroke="none" points="8,-116 8,-134 47,-134 47,-116 8,-116"/>
<polygon fill="none" stroke="black" points="8,-116 8,-134 47,-134 47,-116 8,-116"/>
<text text-anchor="start" x="11" y="-122.2" font-family="Helvetica,sans-Serif" font-size="11.00"> &#160;</text>
<polygon fill="#ffffff" stroke="none" points="47,-116 47,-134 102,-134 102,-116 47,-116"/>
<polygon fill="none" stroke="black" points="47,-116 47,-134 102,-134 102,-116 47,-116"/>
<text text-anchor="start" x="63" y="-122.2" font-family="Helvetica,sans-Serif" font-size="11.00">0 rows</text>
<polygon fill="#ffffff" stroke="none" points="102,-116 102,-134 138,-134 138,-116 102,-116"/>
<polygon fill="none" stroke="black" points="102,-116 102,-134 138,-134 138,-116 102,-116"/>
<text text-anchor="start" x="118" y="-122.2" font-family="Helvetica,sans-Serif" font-size="11.00">2 &gt;</text>
</a>
</g>
</g>
<!-- core_import&#45;&gt;core_importer -->
<g id="edge1" class="edge"><title>core_import:importer_id:w&#45;&gt;core_importer:elipses:e</title>
<path fill="none" stroke="black" d="M172.469,-118.279C161.153,-126.346 157.744,-143 139,-143"/>
<polygon fill="black" stroke="black" points="178.848,-116.334 187.55,-117.443 182.674,-115.167 186.5,-114 186.5,-114 186.5,-114 182.674,-115.167 185.45,-110.557 178.848,-116.334 178.848,-116.334"/>
<ellipse fill="none" stroke="black" cx="175.787" cy="-117.267" rx="3.20001" ry="3.20001"/>
</g>
<!-- core_task -->
<g id="node3" class="node"><title>core_task</title>
<g id="a_node3"><a xlink:href="../../tables/core_task.html" xlink:title="core_task" target="_top">
<polygon fill="#ffffff" stroke="none" points="17.5,-37 17.5,-95 128.5,-95 128.5,-37 17.5,-37"/>
<polygon fill="#f5f5f5" stroke="none" points="18,-73 18,-95 129,-95 129,-73 18,-73"/>
<polygon fill="none" stroke="black" points="18,-73 18,-95 129,-95 129,-73 18,-73"/>
<text text-anchor="start" x="23" y="-82.2" font-family="Helvetica,sans-Serif" font-weight="bold" font-size="11.00">core_task</text>
<text text-anchor="start" x="90" y="-81.2" font-family="Helvetica,sans-Serif" font-size="11.00">[table]</text>
<polygon fill="none" stroke="black" points="18,-55 18,-73 129,-73 129,-55 18,-55"/>
<text text-anchor="start" x="21" y="-61.2" font-family="Helvetica,sans-Serif" font-size="11.00">...</text>
<polygon fill="#ffffff" stroke="none" points="18,-37 18,-55 41,-55 41,-37 18,-37"/>
<polygon fill="none" stroke="black" points="18,-37 18,-55 41,-55 41,-37 18,-37"/>
<text text-anchor="start" x="21" y="-43.2" font-family="Helvetica,sans-Serif" font-size="11.00">&lt; 3</text>
<polygon fill="#ffffff" stroke="none" points="41,-37 41,-55 106,-55 106,-37 41,-37"/>
<polygon fill="none" stroke="black" points="41,-37 41,-55 106,-55 106,-37 41,-37"/>
<text text-anchor="start" x="44" y="-43.2" font-family="Helvetica,sans-Serif" font-size="11.00">1,828 rows</text>
<polygon fill="#ffffff" stroke="none" points="106,-37 106,-55 129,-55 129,-37 106,-37"/>
<polygon fill="none" stroke="black" points="106,-37 106,-55 129,-55 129,-37 106,-37"/>
<text text-anchor="start" x="109" y="-43.2" font-family="Helvetica,sans-Serif" font-size="11.00">8 &gt;</text>
</a>
</g>
</g>
<!-- core_import&#45;&gt;core_task -->
<g id="edge2" class="edge"><title>core_import:task_id:w&#45;&gt;core_task:elipses:e</title>
<path fill="none" stroke="black" d="M172.373,-89.0035C157.154,-81.7803 152.333,-64 130,-64"/>
<polygon fill="black" stroke="black" points="178.674,-90.34 185.753,-95.5216 182.587,-91.17 186.5,-92 186.5,-92 186.5,-92 182.587,-91.17 187.247,-88.4784 178.674,-90.34 178.674,-90.34"/>
<ellipse fill="none" stroke="black" cx="175.544" cy="-89.676" rx="3.2" ry="3.2"/>
</g>
<!-- core_pulpimport -->
<g id="node4" class="node"><title>core_pulpimport</title>
<g id="a_node4"><a xlink:href="../../tables/core_pulpimport.html" xlink:title="core_pulpimport" target="_top">
<polygon fill="#ffffff" stroke="none" points="365,-105 365,-171 593,-171 593,-105 365,-105"/>
<polygon fill="#f5f5f5" stroke="none" points="367,-147 367,-169 591,-169 591,-147 367,-147"/>
<polygon fill="none" stroke="black" points="367,-147 367,-169 591,-169 591,-147 367,-147"/>
<text text-anchor="start" x="372" y="-156.2" font-family="Helvetica,sans-Serif" font-weight="bold" font-size="11.00">core_pulpimport</text>
<text text-anchor="start" x="552" y="-155.2" font-family="Helvetica,sans-Serif" font-size="11.00">[table]</text>
<polygon fill="none" stroke="black" points="367,-125 367,-147 486,-147 486,-125 367,-125"/>
<image xlink:href="../../images/primaryKeys.png" width="11px" height="12px" preserveAspectRatio="xMinYMin meet" x="372" y="-142"/>
<text text-anchor="start" x="387" y="-133.2" font-family="Helvetica,sans-Serif" font-size="11.00">import_ptr_id</text>
<polygon fill="none" stroke="black" points="486,-125 486,-147 591,-147 591,-125 486,-125"/>
<text text-anchor="start" x="489" y="-133.2" font-family="Helvetica,sans-Serif" font-size="11.00">uuid[2147483647]</text>
<polygon fill="#ffffff" stroke="none" points="367,-107 367,-125 417,-125 417,-107 367,-107"/>
<polygon fill="none" stroke="black" points="367,-107 367,-125 417,-125 417,-107 367,-107"/>
<text text-anchor="start" x="370" y="-113.2" font-family="Helvetica,sans-Serif" font-size="11.00">&lt; 1</text>
<polygon fill="#ffffff" stroke="none" points="417,-107 417,-125 486,-125 486,-107 417,-107"/>
<polygon fill="none" stroke="black" points="417,-107 417,-125 486,-125 486,-107 417,-107"/>
<text text-anchor="start" x="447" y="-113.2" font-family="Helvetica,sans-Serif" font-size="11.00">0 rows</text>
<polygon fill="#ffffff" stroke="none" points="486,-107 486,-125 591,-125 591,-107 486,-107"/>
<polygon fill="none" stroke="black" points="486,-107 486,-125 591,-125 591,-107 486,-107"/>
<text text-anchor="start" x="571" y="-113.2" font-family="Helvetica,sans-Serif" font-size="11.00">0 &gt;</text>
<polygon fill="none" stroke="black" stroke-width="2" points="366,-106 366,-170 592,-170 592,-106 366,-106"/>
</a>
</g>
</g>
<!-- core_pulpimport&#45;&gt;core_import -->
<g id="edge3" class="edge"><title>core_pulpimport:import_ptr_id:w&#45;&gt;core_import:pulp_id:e</title>
<path fill="none" stroke="black" d="M355.367,-136C341.855,-136 335.014,-136 317.5,-136"/>
<polygon fill="black" stroke="black" points="365.2,-132 365.2,-140 363.6,-140 363.6,-132 365.2,-132"/>
<polyline fill="none" stroke="black" points="366,-136 362,-136 "/>
<ellipse fill="none" stroke="black" cx="358.8" cy="-136" rx="3.2" ry="3.2"/>
</g>
</g>
</svg>
