<?xml version="1.0" encoding="UTF-8" standalone="no"?>
<!DOCTYPE svg PUBLIC "-//W3C//DTD SVG 1.1//EN"
 "http://www.w3.org/Graphics/SVG/1.1/DTD/svg11.dtd">
<!-- Generated by graphviz version 2.38.0 (20140413.2041)
 -->
<!-- Title: twoDegreesRelationshipsDiagram Pages: 1 -->
<svg width="723pt" height="283pt"
 viewBox="0.00 0.00 723.00 283.00" xmlns="http://www.w3.org/2000/svg" xmlns:xlink="http://www.w3.org/1999/xlink">
<g id="graph0" class="graph" transform="scale(1 1) rotate(0) translate(4 279)">
<title>twoDegreesRelationshipsDiagram</title>
<polygon fill="#ffffff" stroke="none" points="-4,4 -4,-279 719,-279 719,4 -4,4"/>
<text text-anchor="middle" x="74.5" y="-7.2" font-family="Helvetica,sans-Serif" font-size="11.00">Generated by SchemaSpy</text>
<!-- core_reservedresource -->
<g id="node1" class="node"><title>core_reservedresource</title>
<g id="a_node1"><a xlink:href="../../tables/core_reservedresource.html" xlink:title="core_reservedresource" target="_top">
<polygon fill="#ffffff" stroke="none" points="190,-117 190,-271 456,-271 456,-117 190,-117"/>
<polygon fill="#f5f5f5" stroke="none" points="192,-247 192,-269 454,-269 454,-247 192,-247"/>
<polygon fill="none" stroke="black" points="192,-247 192,-269 454,-269 454,-247 192,-247"/>
<text text-anchor="start" x="197" y="-256.2" font-family="Helvetica,sans-Serif" font-weight="bold" font-size="11.00">core_reservedresource</text>
<text text-anchor="start" x="415" y="-255.2" font-family="Helvetica,sans-Serif" font-size="11.00">[table]</text>
<polygon fill="none" stroke="black" points="192,-225 192,-247 349,-247 349,-225 192,-225"/>
<image xlink:href="../../images/primaryKeys.png" width="11px" height="12px" preserveAspectRatio="xMinYMin meet" x="197" y="-242"/>
<text text-anchor="start" x="212" y="-233.2" font-family="Helvetica,sans-Serif" font-size="11.00">pulp_id</text>
<polygon fill="none" stroke="black" points="349,-225 349,-247 454,-247 454,-225 349,-225"/>
<text text-anchor="start" x="352" y="-233.2" font-family="Helvetica,sans-Serif" font-size="11.00">uuid[2147483647]</text>
<polygon fill="none" stroke="black" points="192,-203 192,-225 349,-225 349,-203 192,-203"/>
<text text-anchor="start" x="212" y="-211.2" font-family="Helvetica,sans-Serif" font-size="11.00">pulp_created</text>
<polygon fill="none" stroke="black" points="349,-203 349,-225 454,-225 454,-203 349,-203"/>
<text text-anchor="start" x="352" y="-211.2" font-family="Helvetica,sans-Serif" font-size="11.00">timestamptz[35,6]</text>
<polygon fill="none" stroke="black" points="192,-181 192,-203 349,-203 349,-181 192,-181"/>
<text text-anchor="start" x="212" y="-189.2" font-family="Helvetica,sans-Serif" font-size="11.00">pulp_last_updated</text>
<polygon fill="none" stroke="black" points="349,-181 349,-203 454,-203 454,-181 349,-181"/>
<text text-anchor="start" x="352" y="-189.2" font-family="Helvetica,sans-Serif" font-size="11.00">timestamptz[35,6]</text>
<polygon fill="#ffffff" stroke="none" points="192,-159 192,-181 349,-181 349,-159 192,-159"/>
<polygon fill="none" stroke="black" points="192,-159 192,-181 349,-181 349,-159 192,-159"/>
<text text-anchor="start" x="212" y="-167.2" font-family="Helvetica,sans-Serif" font-size="11.00">resource</text>
<polygon fill="none" stroke="black" points="349,-159 349,-181 454,-181 454,-159 349,-159"/>
<text text-anchor="start" x="352" y="-167.2" font-family="Helvetica,sans-Serif" font-size="11.00">text[2147483647]</text>
<polygon fill="#ffffff" stroke="none" points="192,-137 192,-159 349,-159 349,-137 192,-137"/>
<polygon fill="none" stroke="black" points="192,-137 192,-159 349,-159 349,-137 192,-137"/>
<image xlink:href="../../images/foreignKeys.png" width="11px" height="12px" preserveAspectRatio="xMinYMin meet" x="197" y="-154"/>
<text text-anchor="start" x="212" y="-145.2" font-family="Helvetica,sans-Serif" font-size="11.00">worker_id</text>
<polygon fill="none" stroke="black" points="349,-137 349,-159 454,-159 454,-137 349,-137"/>
<text text-anchor="start" x="352" y="-145.2" font-family="Helvetica,sans-Serif" font-size="11.00">uuid[2147483647]</text>
<polygon fill="#ffffff" stroke="none" points="192,-119 192,-137 261,-137 261,-119 192,-119"/>
<polygon fill="none" stroke="black" points="192,-119 192,-137 261,-137 261,-119 192,-119"/>
<text text-anchor="start" x="195" y="-125.2" font-family="Helvetica,sans-Serif" font-size="11.00">&lt; 1</text>
<polygon fill="#ffffff" stroke="none" points="261,-119 261,-137 349,-137 349,-119 261,-119"/>
<polygon fill="none" stroke="black" points="261,-119 261,-137 349,-137 349,-119 261,-119"/>
<text text-anchor="start" x="310" y="-125.2" font-family="Helvetica,sans-Serif" font-size="11.00">0 rows</text>
<polygon fill="#ffffff" stroke="none" points="349,-119 349,-137 454,-137 454,-119 349,-119"/>
<polygon fill="none" stroke="black" points="349,-119 349,-137 454,-137 454,-119 349,-119"/>
<text text-anchor="start" x="434" y="-125.2" font-family="Helvetica,sans-Serif" font-size="11.00">1 &gt;</text>
<polygon fill="none" stroke="black" stroke-width="2" points="191,-118 191,-270 455,-270 455,-118 191,-118"/>
</a>
</g>
</g>
<!-- core_worker -->
<g id="node2" class="node"><title>core_worker</title>
<g id="a_node2"><a xlink:href="../../tables/core_worker.html" xlink:title="core_worker" target="_top">
<polygon fill="#ffffff" stroke="none" points="8,-37 8,-139 141,-139 141,-37 8,-37"/>
<polygon fill="#f5f5f5" stroke="none" points="8.5,-117 8.5,-139 141.5,-139 141.5,-117 8.5,-117"/>
<polygon fill="none" stroke="black" points="8.5,-117 8.5,-139 141.5,-139 141.5,-117 8.5,-117"/>
<text text-anchor="start" x="13.5" y="-126.2" font-family="Helvetica,sans-Serif" font-weight="bold" font-size="11.00">core_worker</text>
<text text-anchor="start" x="102.5" y="-125.2" font-family="Helvetica,sans-Serif" font-size="11.00">[table]</text>
<polygon fill="none" stroke="black" points="8.5,-95 8.5,-117 141.5,-117 141.5,-95 8.5,-95"/>
<image xlink:href="../../images/primaryKeys.png" width="11px" height="12px" preserveAspectRatio="xMinYMin meet" x="13.5" y="-112"/>
<text text-anchor="start" x="28.5" y="-103.2" font-family="Helvetica,sans-Serif" font-size="11.00">pulp_id</text>
<polygon fill="#ffffff" stroke="none" points="8.5,-73 8.5,-95 141.5,-95 141.5,-73 8.5,-73"/>
<polygon fill="none" stroke="black" points="8.5,-73 8.5,-95 141.5,-95 141.5,-73 8.5,-73"/>
<text text-anchor="start" x="28.5" y="-81.2" font-family="Helvetica,sans-Serif" font-size="11.00">name</text>
<polygon fill="none" stroke="black" points="8.5,-55 8.5,-73 141.5,-73 141.5,-55 8.5,-55"/>
<text text-anchor="start" x="11.5" y="-61.2" font-family="Helvetica,sans-Serif" font-size="11.00">...</text>
<polygon fill="#ffffff" stroke="none" points="8.5,-37 8.5,-55 42.5,-55 42.5,-37 8.5,-37"/>
<polygon fill="none" stroke="black" points="8.5,-37 8.5,-55 42.5,-55 42.5,-37 8.5,-37"/>
<text text-anchor="start" x="11.5" y="-43.2" font-family="Helvetica,sans-Serif" font-size="11.00"> &#160;</text>
<polygon fill="#ffffff" stroke="none" points="42.5,-37 42.5,-55 107.5,-55 107.5,-37 42.5,-37"/>
<polygon fill="none" stroke="black" points="42.5,-37 42.5,-55 107.5,-55 107.5,-37 42.5,-37"/>
<text text-anchor="start" x="55.5" y="-43.2" font-family="Helvetica,sans-Serif" font-size="11.00">148 rows</text>
<polygon fill="#ffffff" stroke="none" points="107.5,-37 107.5,-55 141.5,-55 141.5,-37 107.5,-37"/>
<polygon fill="none" stroke="black" points="107.5,-37 107.5,-55 141.5,-55 141.5,-37 107.5,-37"/>
<text text-anchor="start" x="121.5" y="-43.2" font-family="Helvetica,sans-Serif" font-size="11.00">2 &gt;</text>
</a>
</g>
</g>
<!-- core_reservedresource&#45;&gt;core_worker -->
<g id="edge1" class="edge"><title>core_reservedresource:worker_id:w&#45;&gt;core_worker:pulp_id:e</title>
<path fill="none" stroke="black" d="M177.205,-143.182C164.435,-132.15 165,-106 142.5,-106"/>
<polygon fill="black" stroke="black" points="183.447,-145.362 189.813,-151.399 187.224,-146.681 191,-148 191,-148 191,-148 187.224,-146.681 192.187,-144.601 183.447,-145.362 183.447,-145.362"/>
<ellipse fill="none" stroke="black" cx="180.426" cy="-144.307" rx="3.20001" ry="3.20001"/>
</g>
<!-- core_task -->
<g id="node3" class="node"><title>core_task</title>
<g id="a_node3"><a xlink:href="../../tables/core_task.html" xlink:title="core_task" target="_top">
<polygon fill="#ffffff" stroke="none" points="267.5,-38 267.5,-96 378.5,-96 378.5,-38 267.5,-38"/>
<polygon fill="#f5f5f5" stroke="none" points="268,-74 268,-96 379,-96 379,-74 268,-74"/>
<polygon fill="none" stroke="black" points="268,-74 268,-96 379,-96 379,-74 268,-74"/>
<text text-anchor="start" x="273" y="-83.2" font-family="Helvetica,sans-Serif" font-weight="bold" font-size="11.00">core_task</text>
<text text-anchor="start" x="340" y="-82.2" font-family="Helvetica,sans-Serif" font-size="11.00">[table]</text>
<polygon fill="none" stroke="black" points="268,-56 268,-74 379,-74 379,-56 268,-56"/>
<text text-anchor="start" x="271" y="-62.2" font-family="Helvetica,sans-Serif" font-size="11.00">...</text>
<polygon fill="#ffffff" stroke="none" points="268,-38 268,-56 291,-56 291,-38 268,-38"/>
<polygon fill="none" stroke="black" points="268,-38 268,-56 291,-56 291,-38 268,-38"/>
<text text-anchor="start" x="271" y="-44.2" font-family="Helvetica,sans-Serif" font-size="11.00">&lt; 3</text>
<polygon fill="#ffffff" stroke="none" points="291,-38 291,-56 356,-56 356,-38 291,-38"/>
<polygon fill="none" stroke="black" points="291,-38 291,-56 356,-56 356,-38 291,-38"/>
<text text-anchor="start" x="294" y="-44.2" font-family="Helvetica,sans-Serif" font-size="11.00">1,828 rows</text>
<polygon fill="#ffffff" stroke="none" points="356,-38 356,-56 379,-56 379,-38 356,-38"/>
<polygon fill="none" stroke="black" points="356,-38 356,-56 379,-56 379,-38 356,-38"/>
<text text-anchor="start" x="359" y="-44.2" font-family="Helvetica,sans-Serif" font-size="11.00">8 &gt;</text>
</a>
</g>
</g>
<!-- core_task&#45;&gt;core_worker -->
<g id="edge2" class="edge"><title>core_task:elipses:w&#45;&gt;core_worker:pulp_id:e</title>
<path fill="none" stroke="black" d="M252.442,-65.9334C206.903,-72.0362 195.523,-106 142.5,-106"/>
<polygon fill="black" stroke="black" points="259.016,-65.5119 267.23,-68.5926 263.008,-65.256 267,-65 267,-65 267,-65 263.008,-65.256 266.77,-61.4074 259.016,-65.5119 259.016,-65.5119"/>
<ellipse fill="none" stroke="black" cx="255.823" cy="-65.7167" rx="3.2" ry="3.2"/>
</g>
<!-- core_taskreservedresource -->
<g id="node4" class="node"><title>core_taskreservedresource</title>
<g id="a_node4"><a xlink:href="../../tables/core_taskreservedresource.html" xlink:title="core_taskreservedresource" target="_top">
<polygon fill="#ffffff" stroke="none" points="505,-92 505,-216 707,-216 707,-92 505,-92"/>
<polygon fill="#f5f5f5" stroke="none" points="505,-194 505,-216 707,-216 707,-194 505,-194"/>
<polygon fill="none" stroke="black" points="505,-194 505,-216 707,-216 707,-194 505,-194"/>
<text text-anchor="start" x="510" y="-203.2" font-family="Helvetica,sans-Serif" font-weight="bold" font-size="11.00">core_taskreservedresource</text>
<text text-anchor="start" x="668" y="-202.2" font-family="Helvetica,sans-Serif" font-size="11.00">[table]</text>
<polygon fill="none" stroke="black" points="505,-172 505,-194 707,-194 707,-172 505,-172"/>
<image xlink:href="../../images/primaryKeys.png" width="11px" height="12px" preserveAspectRatio="xMinYMin meet" x="510" y="-189"/>
<text text-anchor="start" x="535" y="-180.2" font-family="Helvetica,sans-Serif" font-size="11.00">pulp_id</text>
<polygon fill="#ffffff" stroke="none" points="505,-150 505,-172 707,-172 707,-150 505,-150"/>
<polygon fill="none" stroke="black" points="505,-150 505,-172 707,-172 707,-150 505,-150"/>
<image xlink:href="../../images/foreignKeys.png" width="11px" height="12px" preserveAspectRatio="xMinYMin meet" x="510" y="-167"/>
<text text-anchor="start" x="535" y="-158.2" font-family="Helvetica,sans-Serif" font-size="11.00">resource_id</text>
<polygon fill="#ffffff" stroke="none" points="505,-128 505,-150 707,-150 707,-128 505,-128"/>
<polygon fill="none" stroke="black" points="505,-128 505,-150 707,-150 707,-128 505,-128"/>
<image xlink:href="../../images/foreignKeys.png" width="11px" height="12px" preserveAspectRatio="xMinYMin meet" x="510" y="-145"/>
<text text-anchor="start" x="535" y="-136.2" font-family="Helvetica,sans-Serif" font-size="11.00">task_id</text>
<polygon fill="none" stroke="black" points="505,-110 505,-128 707,-128 707,-110 505,-110"/>
<text text-anchor="start" x="508" y="-116.2" font-family="Helvetica,sans-Serif" font-size="11.00">...</text>
<polygon fill="#ffffff" stroke="none" points="505,-92 505,-110 590,-110 590,-92 505,-92"/>
<polygon fill="none" stroke="black" points="505,-92 505,-110 590,-110 590,-92 505,-92"/>
<text text-anchor="start" x="508" y="-98.2" font-family="Helvetica,sans-Serif" font-size="11.00">&lt; 2</text>
<polygon fill="#ffffff" stroke="none" points="590,-92 590,-110 663,-110 663,-92 590,-92"/>
<polygon fill="none" stroke="black" points="590,-92 590,-110 663,-110 663,-92 590,-92"/>
<text text-anchor="start" x="624" y="-98.2" font-family="Helvetica,sans-Serif" font-size="11.00">0 rows</text>
<polygon fill="#ffffff" stroke="none" points="663,-92 663,-110 707,-110 707,-92 663,-92"/>
<polygon fill="none" stroke="black" points="663,-92 663,-110 707,-110 707,-92 663,-92"/>
<text text-anchor="start" x="697" y="-98.2" font-family="Helvetica,sans-Serif" font-size="11.00"> &#160;</text>
</a>
</g>
</g>
<!-- core_taskreservedresource&#45;&gt;core_reservedresource -->
<g id="edge3" class="edge"><title>core_taskreservedresource:resource_id:w&#45;&gt;core_reservedresource:pulp_id.type:e</title>
<path fill="none" stroke="black" d="M490.209,-165.692C471.882,-182.111 488.751,-236 455,-236"/>
<polygon fill="black" stroke="black" points="496.426,-163.577 505.159,-164.408 500.213,-162.288 504,-161 504,-161 504,-161 500.213,-162.288 502.841,-157.592 496.426,-163.577 496.426,-163.577"/>
<ellipse fill="none" stroke="black" cx="493.397" cy="-164.607" rx="3.20001" ry="3.20001"/>
</g>
<!-- core_taskreservedresource&#45;&gt;core_task -->
<g id="edge4" class="edge"><title>core_taskreservedresource:task_id:w&#45;&gt;core_task:elipses:e</title>
<path fill="none" stroke="black" d="M489.93,-135.13C480.717,-128.768 477.933,-115.915 464,-107 428.841,-84.5041 421.74,-65 380,-65"/>
<polygon fill="black" stroke="black" points="496.286,-136.879 503.045,-142.471 500.143,-137.939 504,-139 504,-139 504,-139 500.143,-137.939 504.955,-135.529 496.286,-136.879 496.286,-136.879"/>
<ellipse fill="none" stroke="black" cx="493.201" cy="-136.03" rx="3.20001" ry="3.20001"/>
</g>
</g>
</svg>
