<?xml version="1.0" encoding="UTF-8" standalone="no"?>
<!DOCTYPE svg PUBLIC "-//W3C//DTD SVG 1.1//EN"
 "http://www.w3.org/Graphics/SVG/1.1/DTD/svg11.dtd">
<!-- Generated by graphviz version 2.38.0 (20140413.2041)
 -->
<!-- Title: oneDegreeRelationshipsDiagram Pages: 1 -->
<svg width="674pt" height="450pt"
 viewBox="0.00 0.00 674.00 450.00" xmlns="http://www.w3.org/2000/svg" xmlns:xlink="http://www.w3.org/1999/xlink">
<g id="graph0" class="graph" transform="scale(1 1) rotate(0) translate(4 446)">
<title>oneDegreeRelationshipsDiagram</title>
<polygon fill="#ffffff" stroke="none" points="-4,4 -4,-446 670,-446 670,4 -4,4"/>
<text text-anchor="middle" x="74.5" y="-7.2" font-family="Helvetica,sans-Serif" font-size="11.00">Generated by SchemaSpy</text>
<!-- core_export -->
<g id="node1" class="node"><title>core_export</title>
<g id="a_node1"><a xlink:href="../../tables/core_export.html" xlink:title="core_export" target="_top">
<polygon fill="#ffffff" stroke="none" points="186,-169 186,-345 429,-345 429,-169 186,-169"/>
<polygon fill="#f5f5f5" stroke="none" points="188.5,-321 188.5,-343 427.5,-343 427.5,-321 188.5,-321"/>
<polygon fill="none" stroke="black" points="188.5,-321 188.5,-343 427.5,-343 427.5,-321 188.5,-321"/>
<text text-anchor="start" x="193.5" y="-330.2" font-family="Helvetica,sans-Serif" font-weight="bold" font-size="11.00">core_export</text>
<text text-anchor="start" x="388.5" y="-329.2" font-family="Helvetica,sans-Serif" font-size="11.00">[table]</text>
<polygon fill="none" stroke="black" points="188.5,-299 188.5,-321 317.5,-321 317.5,-299 188.5,-299"/>
<image xlink:href="../../images/primaryKeys.png" width="11px" height="12px" preserveAspectRatio="xMinYMin meet" x="193.5" y="-316"/>
<text text-anchor="start" x="208.5" y="-307.2" font-family="Helvetica,sans-Serif" font-size="11.00">pulp_id</text>
<polygon fill="none" stroke="black" points="317.5,-299 317.5,-321 427.5,-321 427.5,-299 317.5,-299"/>
<text text-anchor="start" x="320.5" y="-307.2" font-family="Helvetica,sans-Serif" font-size="11.00">uuid[2147483647]</text>
<polygon fill="none" stroke="black" points="188.5,-277 188.5,-299 317.5,-299 317.5,-277 188.5,-277"/>
<text text-anchor="start" x="208.5" y="-285.2" font-family="Helvetica,sans-Serif" font-size="11.00">pulp_created</text>
<polygon fill="none" stroke="black" points="317.5,-277 317.5,-299 427.5,-299 427.5,-277 317.5,-277"/>
<text text-anchor="start" x="320.5" y="-285.2" font-family="Helvetica,sans-Serif" font-size="11.00">timestamptz[35,6]</text>
<polygon fill="none" stroke="black" points="188.5,-255 188.5,-277 317.5,-277 317.5,-255 188.5,-255"/>
<text text-anchor="start" x="208.5" y="-263.2" font-family="Helvetica,sans-Serif" font-size="11.00">pulp_last_updated</text>
<polygon fill="none" stroke="black" points="317.5,-255 317.5,-277 427.5,-277 427.5,-255 317.5,-255"/>
<text text-anchor="start" x="320.5" y="-263.2" font-family="Helvetica,sans-Serif" font-size="11.00">timestamptz[35,6]</text>
<polygon fill="none" stroke="black" points="188.5,-233 188.5,-255 317.5,-255 317.5,-233 188.5,-233"/>
<text text-anchor="start" x="208.5" y="-241.2" font-family="Helvetica,sans-Serif" font-size="11.00">params</text>
<polygon fill="none" stroke="black" points="317.5,-233 317.5,-255 427.5,-255 427.5,-233 317.5,-233"/>
<text text-anchor="start" x="320.5" y="-241.2" font-family="Helvetica,sans-Serif" font-size="11.00">jsonb[2147483647]</text>
<polygon fill="#ffffff" stroke="none" points="188.5,-211 188.5,-233 317.5,-233 317.5,-211 188.5,-211"/>
<polygon fill="none" stroke="black" points="188.5,-211 188.5,-233 317.5,-233 317.5,-211 188.5,-211"/>
<image xlink:href="../../images/foreignKeys.png" width="11px" height="12px" preserveAspectRatio="xMinYMin meet" x="193.5" y="-228"/>
<text text-anchor="start" x="208.5" y="-219.2" font-family="Helvetica,sans-Serif" font-size="11.00">exporter_id</text>
<polygon fill="none" stroke="black" points="317.5,-211 317.5,-233 427.5,-233 427.5,-211 317.5,-211"/>
<text text-anchor="start" x="320.5" y="-219.2" font-family="Helvetica,sans-Serif" font-size="11.00">uuid[2147483647]</text>
<polygon fill="#ffffff" stroke="none" points="188.5,-189 188.5,-211 317.5,-211 317.5,-189 188.5,-189"/>
<polygon fill="none" stroke="black" points="188.5,-189 188.5,-211 317.5,-211 317.5,-189 188.5,-189"/>
<image xlink:href="../../images/foreignKeys.png" width="11px" height="12px" preserveAspectRatio="xMinYMin meet" x="193.5" y="-206"/>
<text text-anchor="start" x="208.5" y="-197.2" font-family="Helvetica,sans-Serif" font-size="11.00">task_id</text>
<polygon fill="none" stroke="black" points="317.5,-189 317.5,-211 427.5,-211 427.5,-189 317.5,-189"/>
<text text-anchor="start" x="320.5" y="-197.2" font-family="Helvetica,sans-Serif" font-size="11.00">uuid[2147483647]</text>
<polygon fill="#ffffff" stroke="none" points="188.5,-171 188.5,-189 243.5,-189 243.5,-171 188.5,-171"/>
<polygon fill="none" stroke="black" points="188.5,-171 188.5,-189 243.5,-189 243.5,-171 188.5,-171"/>
<text text-anchor="start" x="191.5" y="-177.2" font-family="Helvetica,sans-Serif" font-size="11.00">&lt; 2</text>
<polygon fill="#ffffff" stroke="none" points="243.5,-171 243.5,-189 317.5,-189 317.5,-171 243.5,-171"/>
<polygon fill="none" stroke="black" points="243.5,-171 243.5,-189 317.5,-189 317.5,-171 243.5,-171"/>
<text text-anchor="start" x="278.5" y="-177.2" font-family="Helvetica,sans-Serif" font-size="11.00">0 rows</text>
<polygon fill="#ffffff" stroke="none" points="317.5,-171 317.5,-189 427.5,-189 427.5,-171 317.5,-171"/>
<polygon fill="none" stroke="black" points="317.5,-171 317.5,-189 427.5,-189 427.5,-171 317.5,-171"/>
<text text-anchor="start" x="407.5" y="-177.2" font-family="Helvetica,sans-Serif" font-size="11.00">2 &gt;</text>
<polygon fill="none" stroke="black" stroke-width="2" points="187,-170 187,-344 428,-344 428,-170 187,-170"/>
</a>
</g>
</g>
<!-- core_exporter -->
<g id="node2" class="node"><title>core_exporter</title>
<g id="a_node2"><a xlink:href="../../tables/core_exporter.html" xlink:title="core_exporter" target="_top">
<polygon fill="#ffffff" stroke="none" points="8,-204 8,-306 137,-306 137,-204 8,-204"/>
<polygon fill="#f5f5f5" stroke="none" points="8.5,-284 8.5,-306 137.5,-306 137.5,-284 8.5,-284"/>
<polygon fill="none" stroke="black" points="8.5,-284 8.5,-306 137.5,-306 137.5,-284 8.5,-284"/>
<text text-anchor="start" x="13.5" y="-293.2" font-family="Helvetica,sans-Serif" font-weight="bold" font-size="11.00">core_exporter</text>
<text text-anchor="start" x="98.5" y="-292.2" font-family="Helvetica,sans-Serif" font-size="11.00">[table]</text>
<polygon fill="none" stroke="black" points="8.5,-262 8.5,-284 137.5,-284 137.5,-262 8.5,-262"/>
<image xlink:href="../../images/primaryKeys.png" width="11px" height="12px" preserveAspectRatio="xMinYMin meet" x="13.5" y="-279"/>
<text text-anchor="start" x="28.5" y="-270.2" font-family="Helvetica,sans-Serif" font-size="11.00">pulp_id</text>
<polygon fill="#ffffff" stroke="none" points="8.5,-240 8.5,-262 137.5,-262 137.5,-240 8.5,-240"/>
<polygon fill="none" stroke="black" points="8.5,-240 8.5,-262 137.5,-262 137.5,-240 8.5,-240"/>
<text text-anchor="start" x="28.5" y="-248.2" font-family="Helvetica,sans-Serif" font-size="11.00">name</text>
<polygon fill="none" stroke="black" points="8.5,-222 8.5,-240 137.5,-240 137.5,-222 8.5,-222"/>
<text text-anchor="start" x="11.5" y="-228.2" font-family="Helvetica,sans-Serif" font-size="11.00">...</text>
<polygon fill="#ffffff" stroke="none" points="8.5,-204 8.5,-222 46.5,-222 46.5,-204 8.5,-204"/>
<polygon fill="none" stroke="black" points="8.5,-204 8.5,-222 46.5,-222 46.5,-204 8.5,-204"/>
<text text-anchor="start" x="11.5" y="-210.2" font-family="Helvetica,sans-Serif" font-size="11.00"> &#160;</text>
<polygon fill="#ffffff" stroke="none" points="46.5,-204 46.5,-222 101.5,-222 101.5,-204 46.5,-204"/>
<polygon fill="none" stroke="black" points="46.5,-204 46.5,-222 101.5,-222 101.5,-204 46.5,-204"/>
<text text-anchor="start" x="62.5" y="-210.2" font-family="Helvetica,sans-Serif" font-size="11.00">0 rows</text>
<polygon fill="#ffffff" stroke="none" points="101.5,-204 101.5,-222 137.5,-222 137.5,-204 101.5,-204"/>
<polygon fill="none" stroke="black" points="101.5,-204 101.5,-222 137.5,-222 137.5,-204 101.5,-204"/>
<text text-anchor="start" x="117.5" y="-210.2" font-family="Helvetica,sans-Serif" font-size="11.00">2 &gt;</text>
</a>
</g>
</g>
<!-- core_export&#45;&gt;core_exporter -->
<g id="edge1" class="edge"><title>core_export:exporter_id:w&#45;&gt;core_exporter:pulp_id:e</title>
<path fill="none" stroke="black" d="M173.591,-227.077C159.755,-239.976 163.794,-273 138.5,-273"/>
<polygon fill="black" stroke="black" points="179.985,-224.743 188.734,-225.382 183.742,-223.371 187.5,-222 187.5,-222 187.5,-222 183.742,-223.371 186.266,-218.618 179.985,-224.743 179.985,-224.743"/>
<ellipse fill="none" stroke="black" cx="176.979" cy="-225.84" rx="3.20001" ry="3.20001"/>
</g>
<!-- core_task -->
<g id="node3" class="node"><title>core_task</title>
<g id="a_node3"><a xlink:href="../../tables/core_task.html" xlink:title="core_task" target="_top">
<polygon fill="#ffffff" stroke="none" points="8,-37 8,-183 137,-183 137,-37 8,-37"/>
<polygon fill="#f5f5f5" stroke="none" points="8.5,-161 8.5,-183 137.5,-183 137.5,-161 8.5,-161"/>
<polygon fill="none" stroke="black" points="8.5,-161 8.5,-183 137.5,-183 137.5,-161 8.5,-161"/>
<text text-anchor="start" x="13.5" y="-170.2" font-family="Helvetica,sans-Serif" font-weight="bold" font-size="11.00">core_task</text>
<text text-anchor="start" x="98.5" y="-169.2" font-family="Helvetica,sans-Serif" font-size="11.00">[table]</text>
<polygon fill="none" stroke="black" points="8.5,-139 8.5,-161 137.5,-161 137.5,-139 8.5,-139"/>
<image xlink:href="../../images/primaryKeys.png" width="11px" height="12px" preserveAspectRatio="xMinYMin meet" x="13.5" y="-156"/>
<text text-anchor="start" x="28.5" y="-147.2" font-family="Helvetica,sans-Serif" font-size="11.00">pulp_id</text>
<polygon fill="#ffffff" stroke="none" points="8.5,-117 8.5,-139 137.5,-139 137.5,-117 8.5,-117"/>
<polygon fill="none" stroke="black" points="8.5,-117 8.5,-139 137.5,-139 137.5,-117 8.5,-117"/>
<image xlink:href="../../images/foreignKeys.png" width="11px" height="12px" preserveAspectRatio="xMinYMin meet" x="13.5" y="-134"/>
<text text-anchor="start" x="28.5" y="-125.2" font-family="Helvetica,sans-Serif" font-size="11.00">worker_id</text>
<polygon fill="#ffffff" stroke="none" points="8.5,-95 8.5,-117 137.5,-117 137.5,-95 8.5,-95"/>
<polygon fill="none" stroke="black" points="8.5,-95 8.5,-117 137.5,-117 137.5,-95 8.5,-95"/>
<image xlink:href="../../images/foreignKeys.png" width="11px" height="12px" preserveAspectRatio="xMinYMin meet" x="13.5" y="-112"/>
<text text-anchor="start" x="28.5" y="-103.2" font-family="Helvetica,sans-Serif" font-size="11.00">parent_task_id</text>
<polygon fill="#ffffff" stroke="none" points="8.5,-73 8.5,-95 137.5,-95 137.5,-73 8.5,-73"/>
<polygon fill="none" stroke="black" points="8.5,-73 8.5,-95 137.5,-95 137.5,-73 8.5,-73"/>
<image xlink:href="../../images/foreignKeys.png" width="11px" height="12px" preserveAspectRatio="xMinYMin meet" x="13.5" y="-90"/>
<text text-anchor="start" x="28.5" y="-81.2" font-family="Helvetica,sans-Serif" font-size="11.00">task_group_id</text>
<polygon fill="none" stroke="black" points="8.5,-55 8.5,-73 137.5,-73 137.5,-55 8.5,-55"/>
<text text-anchor="start" x="11.5" y="-61.2" font-family="Helvetica,sans-Serif" font-size="11.00">...</text>
<polygon fill="#ffffff" stroke="none" points="8.5,-37 8.5,-55 40.5,-55 40.5,-37 8.5,-37"/>
<polygon fill="none" stroke="black" points="8.5,-37 8.5,-55 40.5,-55 40.5,-37 8.5,-37"/>
<text text-anchor="start" x="11.5" y="-43.2" font-family="Helvetica,sans-Serif" font-size="11.00">&lt; 3</text>
<polygon fill="#ffffff" stroke="none" points="40.5,-37 40.5,-55 109.5,-55 109.5,-37 40.5,-37"/>
<polygon fill="none" stroke="black" points="40.5,-37 40.5,-55 109.5,-55 109.5,-37 40.5,-37"/>
<text text-anchor="start" x="47.5" y="-43.2" font-family="Helvetica,sans-Serif" font-size="11.00">1,828 rows</text>
<polygon fill="#ffffff" stroke="none" points="109.5,-37 109.5,-55 137.5,-55 137.5,-37 109.5,-37"/>
<polygon fill="none" stroke="black" points="109.5,-37 109.5,-55 137.5,-55 137.5,-37 109.5,-37"/>
<text text-anchor="start" x="117.5" y="-43.2" font-family="Helvetica,sans-Serif" font-size="11.00">8 &gt;</text>
</a>
</g>
</g>
<!-- core_export&#45;&gt;core_task -->
<g id="edge2" class="edge"><title>core_export:task_id:w&#45;&gt;core_task:pulp_id:e</title>
<path fill="none" stroke="black" d="M173.683,-195.023C159.862,-182.376 163.537,-150 138.5,-150"/>
<polygon fill="black" stroke="black" points="179.973,-197.289 186.28,-203.387 183.737,-198.644 187.5,-200 187.5,-200 187.5,-200 183.737,-198.644 188.72,-196.613 179.973,-197.289 179.973,-197.289"/>
<ellipse fill="none" stroke="black" cx="176.963" cy="-196.204" rx="3.20001" ry="3.20001"/>
</g>
<!-- core_exportedresource -->
<g id="node4" class="node"><title>core_exportedresource</title>
<g id="a_node4"><a xlink:href="../../tables/core_exportedresource.html" xlink:title="core_exportedresource" target="_top">
<polygon fill="#ffffff" stroke="none" points="478,-314 478,-438 658,-438 658,-314 478,-314"/>
<polygon fill="#f5f5f5" stroke="none" points="478,-416 478,-438 658,-438 658,-416 478,-416"/>
<polygon fill="none" stroke="black" points="478,-416 478,-438 658,-438 658,-416 478,-416"/>
<text text-anchor="start" x="483" y="-425.2" font-family="Helvetica,sans-Serif" font-weight="bold" font-size="11.00">core_exportedresource</text>
<text text-anchor="start" x="619" y="-424.2" font-family="Helvetica,sans-Serif" font-size="11.00">[table]</text>
<polygon fill="none" stroke="black" points="478,-394 478,-416 658,-416 658,-394 478,-394"/>
<image xlink:href="../../images/primaryKeys.png" width="11px" height="12px" preserveAspectRatio="xMinYMin meet" x="483" y="-411"/>
<text text-anchor="start" x="509" y="-402.2" font-family="Helvetica,sans-Serif" font-size="11.00">pulp_id</text>
<polygon fill="#ffffff" stroke="none" points="478,-372 478,-394 658,-394 658,-372 478,-372"/>
<polygon fill="none" stroke="black" points="478,-372 478,-394 658,-394 658,-372 478,-372"/>
<image xlink:href="../../images/foreignKeys.png" width="11px" height="12px" preserveAspectRatio="xMinYMin meet" x="483" y="-389"/>
<text text-anchor="start" x="509" y="-380.2" font-family="Helvetica,sans-Serif" font-size="11.00">content_type_id</text>
<polygon fill="#ffffff" stroke="none" points="478,-350 478,-372 658,-372 658,-350 478,-350"/>
<polygon fill="none" stroke="black" points="478,-350 478,-372 658,-372 658,-350 478,-350"/>
<image xlink:href="../../images/foreignKeys.png" width="11px" height="12px" preserveAspectRatio="xMinYMin meet" x="483" y="-367"/>
<text text-anchor="start" x="509" y="-358.2" font-family="Helvetica,sans-Serif" font-size="11.00">export_id</text>
<polygon fill="none" stroke="black" points="478,-332 478,-350 658,-350 658,-332 478,-332"/>
<text text-anchor="start" x="481" y="-338.2" font-family="Helvetica,sans-Serif" font-size="11.00">...</text>
<polygon fill="#ffffff" stroke="none" points="478,-314 478,-332 552,-332 552,-314 478,-314"/>
<polygon fill="none" stroke="black" points="478,-314 478,-332 552,-332 552,-314 478,-314"/>
<text text-anchor="start" x="481" y="-320.2" font-family="Helvetica,sans-Serif" font-size="11.00">&lt; 2</text>
<polygon fill="#ffffff" stroke="none" points="552,-314 552,-332 619,-332 619,-314 552,-314"/>
<polygon fill="none" stroke="black" points="552,-314 552,-332 619,-332 619,-314 552,-314"/>
<text text-anchor="start" x="580" y="-320.2" font-family="Helvetica,sans-Serif" font-size="11.00">0 rows</text>
<polygon fill="#ffffff" stroke="none" points="619,-314 619,-332 658,-332 658,-314 619,-314"/>
<polygon fill="none" stroke="black" points="619,-314 619,-332 658,-332 658,-314 619,-314"/>
<text text-anchor="start" x="648" y="-320.2" font-family="Helvetica,sans-Serif" font-size="11.00"> &#160;</text>
</a>
</g>
</g>
<!-- core_exportedresource&#45;&gt;core_export -->
<g id="edge3" class="edge"><title>core_exportedresource:export_id:w&#45;&gt;core_export:pulp_id.type:e</title>
<path fill="none" stroke="black" d="M463.185,-355.923C449.483,-343.024 453.67,-310 428.5,-310"/>
<polygon fill="black" stroke="black" points="469.491,-358.241 475.758,-364.379 473.245,-359.62 477,-361 477,-361 477,-361 473.245,-359.62 478.242,-357.621 469.491,-358.241 469.491,-358.241"/>
<ellipse fill="none" stroke="black" cx="466.487" cy="-357.137" rx="3.20001" ry="3.20001"/>
</g>
<!-- core_pulpexport -->
<g id="node5" class="node"><title>core_pulpexport</title>
<g id="a_node5"><a xlink:href="../../tables/core_pulpexport.html" xlink:title="core_pulpexport" target="_top">
<polygon fill="#ffffff" stroke="none" points="497,-213 497,-293 639,-293 639,-213 497,-213"/>
<polygon fill="#f5f5f5" stroke="none" points="497,-271 497,-293 639,-293 639,-271 497,-271"/>
<polygon fill="none" stroke="black" points="497,-271 497,-293 639,-293 639,-271 497,-271"/>
<text text-anchor="start" x="502" y="-280.2" font-family="Helvetica,sans-Serif" font-weight="bold" font-size="11.00">core_pulpexport</text>
<text text-anchor="start" x="600" y="-279.2" font-family="Helvetica,sans-Serif" font-size="11.00">[table]</text>
<polygon fill="none" stroke="black" points="497,-249 497,-271 639,-271 639,-249 497,-249"/>
<image xlink:href="../../images/primaryKeys.png" width="11px" height="12px" preserveAspectRatio="xMinYMin meet" x="502" y="-266"/>
<text text-anchor="start" x="529" y="-257.2" font-family="Helvetica,sans-Serif" font-size="11.00">export_ptr_id</text>
<polygon fill="none" stroke="black" points="497,-231 497,-249 639,-249 639,-231 497,-231"/>
<text text-anchor="start" x="500" y="-237.2" font-family="Helvetica,sans-Serif" font-size="11.00">...</text>
<polygon fill="#ffffff" stroke="none" points="497,-213 497,-231 547,-231 547,-213 497,-213"/>
<polygon fill="none" stroke="black" points="497,-213 497,-231 547,-231 547,-213 497,-213"/>
<text text-anchor="start" x="500" y="-219.2" font-family="Helvetica,sans-Serif" font-size="11.00">&lt; 1</text>
<polygon fill="#ffffff" stroke="none" points="547,-213 547,-231 602,-231 602,-213 547,-213"/>
<polygon fill="none" stroke="black" points="547,-213 547,-231 602,-231 602,-213 547,-213"/>
<text text-anchor="start" x="563" y="-219.2" font-family="Helvetica,sans-Serif" font-size="11.00">0 rows</text>
<polygon fill="#ffffff" stroke="none" points="602,-213 602,-231 639,-231 639,-213 602,-213"/>
<polygon fill="none" stroke="black" points="602,-213 602,-231 639,-231 639,-213 602,-213"/>
<text text-anchor="start" x="619" y="-219.2" font-family="Helvetica,sans-Serif" font-size="11.00">1 &gt;</text>
</a>
</g>
</g>
<!-- core_pulpexport&#45;&gt;core_export -->
<g id="edge4" class="edge"><title>core_pulpexport:export_ptr_id:w&#45;&gt;core_export:pulp_id.type:e</title>
<path fill="none" stroke="black" d="M485.568,-261.551C459.683,-269.991 461.896,-310 428.5,-310"/>
<polygon fill="black" stroke="black" points="494.62,-256.161 495.797,-264.074 494.214,-264.31 493.038,-256.397 494.62,-256.161"/>
<polyline fill="none" stroke="black" points="496,-260 492.044,-260.588 "/>
<ellipse fill="none" stroke="black" cx="488.878" cy="-261.059" rx="3.2" ry="3.2"/>
</g>
</g>
</svg>
