<?xml version="1.0" encoding="UTF-8" standalone="no"?>
<!DOCTYPE svg PUBLIC "-//W3C//DTD SVG 1.1//EN"
 "http://www.w3.org/Graphics/SVG/1.1/DTD/svg11.dtd">
<!-- Generated by graphviz version 2.38.0 (20140413.2041)
 -->
<!-- Title: oneDegreeRelationshipsDiagram Pages: 1 -->
<svg width="898pt" height="1048pt"
 viewBox="0.00 0.00 898.00 1048.00" xmlns="http://www.w3.org/2000/svg" xmlns:xlink="http://www.w3.org/1999/xlink">
<g id="graph0" class="graph" transform="scale(1 1) rotate(0) translate(4 1044)">
<title>oneDegreeRelationshipsDiagram</title>
<polygon fill="#ffffff" stroke="none" points="-4,4 -4,-1044 894,-1044 894,4 -4,4"/>
<text text-anchor="middle" x="74.5" y="-7.2" font-family="Helvetica,sans-Serif" font-size="11.00">Generated by SchemaSpy</text>
<!-- ansible_collectionversion -->
<g id="node1" class="node"><title>ansible_collectionversion</title>
<g id="a_node1"><a xlink:href="../../tables/ansible_collectionversion.html" xlink:title="ansible_collectionversion" target="_top">
<polygon fill="#ffffff" stroke="none" points="295,-846 295,-1036 488,-1036 488,-846 295,-846"/>
<polygon fill="#f5f5f5" stroke="none" points="295.5,-1014 295.5,-1036 488.5,-1036 488.5,-1014 295.5,-1014"/>
<polygon fill="none" stroke="black" points="295.5,-1014 295.5,-1036 488.5,-1036 488.5,-1014 295.5,-1014"/>
<text text-anchor="start" x="300.5" y="-1023.2" font-family="Helvetica,sans-Serif" font-weight="bold" font-size="11.00">ansible_collectionversion</text>
<text text-anchor="start" x="449.5" y="-1022.2" font-family="Helvetica,sans-Serif" font-size="11.00">[table]</text>
<polygon fill="none" stroke="black" points="295.5,-992 295.5,-1014 488.5,-1014 488.5,-992 295.5,-992"/>
<image xlink:href="../../images/primaryKeys.png" width="11px" height="12px" preserveAspectRatio="xMinYMin meet" x="300.5" y="-1009"/>
<text text-anchor="start" x="326.5" y="-1000.2" font-family="Helvetica,sans-Serif" font-size="11.00">content_ptr_id</text>
<polygon fill="#ffffff" stroke="none" points="295.5,-970 295.5,-992 488.5,-992 488.5,-970 295.5,-970"/>
<polygon fill="none" stroke="black" points="295.5,-970 295.5,-992 488.5,-992 488.5,-970 295.5,-970"/>
<text text-anchor="start" x="326.5" y="-978.2" font-family="Helvetica,sans-Serif" font-size="11.00">version</text>
<polygon fill="#ffffff" stroke="none" points="295.5,-948 295.5,-970 488.5,-970 488.5,-948 295.5,-948"/>
<polygon fill="none" stroke="black" points="295.5,-948 295.5,-970 488.5,-970 488.5,-948 295.5,-948"/>
<image xlink:href="../../images/foreignKeys.png" width="11px" height="12px" preserveAspectRatio="xMinYMin meet" x="300.5" y="-965"/>
<text text-anchor="start" x="326.5" y="-956.2" font-family="Helvetica,sans-Serif" font-size="11.00">collection_id</text>
<polygon fill="#ffffff" stroke="none" points="295.5,-926 295.5,-948 488.5,-948 488.5,-926 295.5,-926"/>
<polygon fill="none" stroke="black" points="295.5,-926 295.5,-948 488.5,-948 488.5,-926 295.5,-926"/>
<text text-anchor="start" x="326.5" y="-934.2" font-family="Helvetica,sans-Serif" font-size="11.00">name</text>
<polygon fill="#ffffff" stroke="none" points="295.5,-904 295.5,-926 488.5,-926 488.5,-904 295.5,-904"/>
<polygon fill="none" stroke="black" points="295.5,-904 295.5,-926 488.5,-926 488.5,-904 295.5,-904"/>
<text text-anchor="start" x="326.5" y="-912.2" font-family="Helvetica,sans-Serif" font-size="11.00">namespace</text>
<polygon fill="#ffffff" stroke="none" points="295.5,-882 295.5,-904 488.5,-904 488.5,-882 295.5,-882"/>
<polygon fill="none" stroke="black" points="295.5,-882 295.5,-904 488.5,-904 488.5,-882 295.5,-882"/>
<text text-anchor="start" x="326.5" y="-890.2" font-family="Helvetica,sans-Serif" font-size="11.00">is_highest</text>
<polygon fill="none" stroke="black" points="295.5,-864 295.5,-882 488.5,-882 488.5,-864 295.5,-864"/>
<text text-anchor="start" x="298.5" y="-870.2" font-family="Helvetica,sans-Serif" font-size="11.00">...</text>
<polygon fill="#ffffff" stroke="none" points="295.5,-846 295.5,-864 367.5,-864 367.5,-846 295.5,-846"/>
<polygon fill="none" stroke="black" points="295.5,-846 295.5,-864 367.5,-864 367.5,-846 295.5,-846"/>
<text text-anchor="start" x="298.5" y="-852.2" font-family="Helvetica,sans-Serif" font-size="11.00">&lt; 2</text>
<polygon fill="#ffffff" stroke="none" points="367.5,-846 367.5,-864 440.5,-864 440.5,-846 367.5,-846"/>
<polygon fill="none" stroke="black" points="367.5,-846 367.5,-864 440.5,-864 440.5,-846 367.5,-846"/>
<text text-anchor="start" x="394.5" y="-852.2" font-family="Helvetica,sans-Serif" font-size="11.00">88 rows</text>
<polygon fill="#ffffff" stroke="none" points="440.5,-846 440.5,-864 488.5,-864 488.5,-846 440.5,-846"/>
<polygon fill="none" stroke="black" points="440.5,-846 440.5,-864 488.5,-864 488.5,-846 440.5,-846"/>
<text text-anchor="start" x="468.5" y="-852.2" font-family="Helvetica,sans-Serif" font-size="11.00">1 &gt;</text>
</a>
</g>
</g>
<!-- core_content -->
<g id="node2" class="node"><title>core_content</title>
<g id="a_node2"><a xlink:href="../../tables/core_content.html" xlink:title="core_content" target="_top">
<polygon fill="#ffffff" stroke="none" points="8,-498 8,-652 246,-652 246,-498 8,-498"/>
<polygon fill="#f5f5f5" stroke="none" points="10,-628 10,-650 244,-650 244,-628 10,-628"/>
<polygon fill="none" stroke="black" points="10,-628 10,-650 244,-650 244,-628 10,-628"/>
<text text-anchor="start" x="15" y="-637.2" font-family="Helvetica,sans-Serif" font-weight="bold" font-size="11.00">core_content</text>
<text text-anchor="start" x="205" y="-636.2" font-family="Helvetica,sans-Serif" font-size="11.00">[table]</text>
<polygon fill="none" stroke="black" points="10,-606 10,-628 139,-628 139,-606 10,-606"/>
<image xlink:href="../../images/primaryKeys.png" width="11px" height="12px" preserveAspectRatio="xMinYMin meet" x="15" y="-623"/>
<text text-anchor="start" x="30" y="-614.2" font-family="Helvetica,sans-Serif" font-size="11.00">pulp_id</text>
<polygon fill="none" stroke="black" points="139,-606 139,-628 244,-628 244,-606 139,-606"/>
<text text-anchor="start" x="142" y="-614.2" font-family="Helvetica,sans-Serif" font-size="11.00">uuid[2147483647]</text>
<polygon fill="none" stroke="black" points="10,-584 10,-606 139,-606 139,-584 10,-584"/>
<text text-anchor="start" x="30" y="-592.2" font-family="Helvetica,sans-Serif" font-size="11.00">pulp_created</text>
<polygon fill="none" stroke="black" points="139,-584 139,-606 244,-606 244,-584 139,-584"/>
<text text-anchor="start" x="142" y="-592.2" font-family="Helvetica,sans-Serif" font-size="11.00">timestamptz[35,6]</text>
<polygon fill="none" stroke="black" points="10,-562 10,-584 139,-584 139,-562 10,-562"/>
<text text-anchor="start" x="30" y="-570.2" font-family="Helvetica,sans-Serif" font-size="11.00">pulp_last_updated</text>
<polygon fill="none" stroke="black" points="139,-562 139,-584 244,-584 244,-562 139,-562"/>
<text text-anchor="start" x="142" y="-570.2" font-family="Helvetica,sans-Serif" font-size="11.00">timestamptz[35,6]</text>
<polygon fill="none" stroke="black" points="10,-540 10,-562 139,-562 139,-540 10,-540"/>
<text text-anchor="start" x="30" y="-548.2" font-family="Helvetica,sans-Serif" font-size="11.00">pulp_type</text>
<polygon fill="none" stroke="black" points="139,-540 139,-562 244,-562 244,-540 139,-540"/>
<text text-anchor="start" x="142" y="-548.2" font-family="Helvetica,sans-Serif" font-size="11.00">text[2147483647]</text>
<polygon fill="none" stroke="black" points="10,-518 10,-540 139,-540 139,-518 10,-518"/>
<text text-anchor="start" x="30" y="-526.2" font-family="Helvetica,sans-Serif" font-size="11.00">upstream_id</text>
<polygon fill="none" stroke="black" points="139,-518 139,-540 244,-540 244,-518 139,-518"/>
<text text-anchor="start" x="142" y="-526.2" font-family="Helvetica,sans-Serif" font-size="11.00">uuid[2147483647]</text>
<polygon fill="#ffffff" stroke="none" points="10,-500 10,-518 61,-518 61,-500 10,-500"/>
<polygon fill="none" stroke="black" points="10,-500 10,-518 61,-518 61,-500 10,-500"/>
<text text-anchor="start" x="13" y="-506.2" font-family="Helvetica,sans-Serif" font-size="11.00">&lt; 0</text>
<polygon fill="#ffffff" stroke="none" points="61,-500 61,-518 139,-518 139,-500 61,-500"/>
<polygon fill="none" stroke="black" points="61,-500 61,-518 139,-518 139,-500 61,-500"/>
<text text-anchor="start" x="93" y="-506.2" font-family="Helvetica,sans-Serif" font-size="11.00">88 rows</text>
<polygon fill="#ffffff" stroke="none" points="139,-500 139,-518 244,-518 244,-500 139,-500"/>
<polygon fill="none" stroke="black" points="139,-500 139,-518 244,-518 244,-500 139,-500"/>
<text text-anchor="start" x="224" y="-506.2" font-family="Helvetica,sans-Serif" font-size="11.00">8 &gt;</text>
<polygon fill="none" stroke="black" stroke-width="2" points="9,-499 9,-651 245,-651 245,-499 9,-499"/>
</a>
</g>
</g>
<!-- ansible_collectionversion&#45;&gt;core_content -->
<g id="edge1" class="edge"><title>ansible_collectionversion:content_ptr_id:w&#45;&gt;core_content:pulp_id.type:e</title>
<path fill="none" stroke="black" d="M284.078,-1000.73C218.688,-969.099 327.595,-617 245,-617"/>
<polygon fill="black" stroke="black" points="294.568,-998.921 292.868,-1006.74 291.305,-1006.4 293.005,-998.581 294.568,-998.921"/>
<polyline fill="none" stroke="black" points="294.5,-1003 290.591,-1002.15 "/>
<ellipse fill="none" stroke="black" cx="287.465" cy="-1001.47" rx="3.20001" ry="3.20001"/>
</g>
<!-- ansible_role -->
<g id="node3" class="node"><title>ansible_role</title>
<g id="a_node3"><a xlink:href="../../tables/ansible_role.html" xlink:title="ansible_role" target="_top">
<polygon fill="#ffffff" stroke="none" points="333,-697 333,-825 450,-825 450,-697 333,-697"/>
<polygon fill="#f5f5f5" stroke="none" points="333.5,-803 333.5,-825 450.5,-825 450.5,-803 333.5,-803"/>
<polygon fill="none" stroke="black" points="333.5,-803 333.5,-825 450.5,-825 450.5,-803 333.5,-803"/>
<text text-anchor="start" x="338.5" y="-812.2" font-family="Helvetica,sans-Serif" font-weight="bold" font-size="11.00">ansible_role</text>
<text text-anchor="start" x="411.5" y="-811.2" font-family="Helvetica,sans-Serif" font-size="11.00">[table]</text>
<polygon fill="none" stroke="black" points="333.5,-781 333.5,-803 450.5,-803 450.5,-781 333.5,-781"/>
<image xlink:href="../../images/primaryKeys.png" width="11px" height="12px" preserveAspectRatio="xMinYMin meet" x="338.5" y="-798"/>
<text text-anchor="start" x="358.5" y="-789.2" font-family="Helvetica,sans-Serif" font-size="11.00">content_ptr_id</text>
<polygon fill="#ffffff" stroke="none" points="333.5,-759 333.5,-781 450.5,-781 450.5,-759 333.5,-759"/>
<polygon fill="none" stroke="black" points="333.5,-759 333.5,-781 450.5,-781 450.5,-759 333.5,-759"/>
<text text-anchor="start" x="358.5" y="-767.2" font-family="Helvetica,sans-Serif" font-size="11.00">namespace</text>
<polygon fill="#ffffff" stroke="none" points="333.5,-737 333.5,-759 450.5,-759 450.5,-737 333.5,-737"/>
<polygon fill="none" stroke="black" points="333.5,-737 333.5,-759 450.5,-759 450.5,-737 333.5,-737"/>
<text text-anchor="start" x="358.5" y="-745.2" font-family="Helvetica,sans-Serif" font-size="11.00">name</text>
<polygon fill="#ffffff" stroke="none" points="333.5,-715 333.5,-737 450.5,-737 450.5,-715 333.5,-715"/>
<polygon fill="none" stroke="black" points="333.5,-715 333.5,-737 450.5,-737 450.5,-715 333.5,-715"/>
<text text-anchor="start" x="358.5" y="-723.2" font-family="Helvetica,sans-Serif" font-size="11.00">version</text>
<polygon fill="#ffffff" stroke="none" points="333.5,-697 333.5,-715 375.5,-715 375.5,-697 333.5,-697"/>
<polygon fill="none" stroke="black" points="333.5,-697 333.5,-715 375.5,-715 375.5,-697 333.5,-697"/>
<text text-anchor="start" x="336.5" y="-703.2" font-family="Helvetica,sans-Serif" font-size="11.00">&lt; 1</text>
<polygon fill="#ffffff" stroke="none" points="375.5,-697 375.5,-715 427.5,-715 427.5,-697 375.5,-697"/>
<polygon fill="none" stroke="black" points="375.5,-697 375.5,-715 427.5,-715 427.5,-697 375.5,-697"/>
<text text-anchor="start" x="388.5" y="-703.2" font-family="Helvetica,sans-Serif" font-size="11.00">0 rows</text>
<polygon fill="#ffffff" stroke="none" points="427.5,-697 427.5,-715 450.5,-715 450.5,-697 427.5,-697"/>
<polygon fill="none" stroke="black" points="427.5,-697 427.5,-715 450.5,-715 450.5,-697 427.5,-697"/>
<text text-anchor="start" x="440.5" y="-703.2" font-family="Helvetica,sans-Serif" font-size="11.00"> &#160;</text>
</a>
</g>
</g>
<!-- ansible_role&#45;&gt;core_content -->
<g id="edge2" class="edge"><title>ansible_role:content_ptr_id:w&#45;&gt;core_content:pulp_id.type:e</title>
<path fill="none" stroke="black" d="M322.619,-788.66C288.643,-764.467 284.912,-617 245,-617"/>
<polygon fill="black" stroke="black" points="333.023,-787.954 330.461,-795.533 328.946,-795.021 331.507,-787.442 333.023,-787.954"/>
<polyline fill="none" stroke="black" points="332.5,-792 328.711,-790.719 "/>
<ellipse fill="none" stroke="black" cx="325.679" cy="-789.695" rx="3.20001" ry="3.20001"/>
</g>
<!-- container_blob -->
<g id="node4" class="node"><title>container_blob</title>
<g id="a_node4"><a xlink:href="../../tables/container_blob.html" xlink:title="container_blob" target="_top">
<polygon fill="#ffffff" stroke="none" points="324.5,-520 324.5,-622 458.5,-622 458.5,-520 324.5,-520"/>
<polygon fill="#f5f5f5" stroke="none" points="324.5,-600 324.5,-622 458.5,-622 458.5,-600 324.5,-600"/>
<polygon fill="none" stroke="black" points="324.5,-600 324.5,-622 458.5,-622 458.5,-600 324.5,-600"/>
<text text-anchor="start" x="329.5" y="-609.2" font-family="Helvetica,sans-Serif" font-weight="bold" font-size="11.00">container_blob</text>
<text text-anchor="start" x="419.5" y="-608.2" font-family="Helvetica,sans-Serif" font-size="11.00">[table]</text>
<polygon fill="none" stroke="black" points="324.5,-578 324.5,-600 458.5,-600 458.5,-578 324.5,-578"/>
<image xlink:href="../../images/primaryKeys.png" width="11px" height="12px" preserveAspectRatio="xMinYMin meet" x="329.5" y="-595"/>
<text text-anchor="start" x="356.5" y="-586.2" font-family="Helvetica,sans-Serif" font-size="11.00">content_ptr_id</text>
<polygon fill="#ffffff" stroke="none" points="324.5,-556 324.5,-578 458.5,-578 458.5,-556 324.5,-556"/>
<polygon fill="none" stroke="black" points="324.5,-556 324.5,-578 458.5,-578 458.5,-556 324.5,-556"/>
<text text-anchor="start" x="356.5" y="-564.2" font-family="Helvetica,sans-Serif" font-size="11.00">digest</text>
<polygon fill="none" stroke="black" points="324.5,-538 324.5,-556 458.5,-556 458.5,-538 324.5,-538"/>
<text text-anchor="start" x="327.5" y="-544.2" font-family="Helvetica,sans-Serif" font-size="11.00">...</text>
<polygon fill="#ffffff" stroke="none" points="324.5,-520 324.5,-538 370.5,-538 370.5,-520 324.5,-520"/>
<polygon fill="none" stroke="black" points="324.5,-520 324.5,-538 370.5,-538 370.5,-520 324.5,-520"/>
<text text-anchor="start" x="327.5" y="-526.2" font-family="Helvetica,sans-Serif" font-size="11.00">&lt; 1</text>
<polygon fill="#ffffff" stroke="none" points="370.5,-520 370.5,-538 423.5,-538 423.5,-520 370.5,-520"/>
<polygon fill="none" stroke="black" points="370.5,-520 370.5,-538 423.5,-538 423.5,-520 370.5,-520"/>
<text text-anchor="start" x="384.5" y="-526.2" font-family="Helvetica,sans-Serif" font-size="11.00">0 rows</text>
<polygon fill="#ffffff" stroke="none" points="423.5,-520 423.5,-538 458.5,-538 458.5,-520 423.5,-520"/>
<polygon fill="none" stroke="black" points="423.5,-520 423.5,-538 458.5,-538 458.5,-520 423.5,-520"/>
<text text-anchor="start" x="438.5" y="-526.2" font-family="Helvetica,sans-Serif" font-size="11.00">2 &gt;</text>
</a>
</g>
</g>
<!-- container_blob&#45;&gt;core_content -->
<g id="edge3" class="edge"><title>container_blob:content_ptr_id:w&#45;&gt;core_content:pulp_id.type:e</title>
<path fill="none" stroke="black" d="M312.792,-589.869C285.164,-594.595 278.135,-617 245,-617"/>
<polygon fill="black" stroke="black" points="322.379,-585.078 323.026,-593.052 321.431,-593.181 320.784,-585.207 322.379,-585.078"/>
<polyline fill="none" stroke="black" points="323.5,-589 319.513,-589.323 "/>
<ellipse fill="none" stroke="black" cx="316.324" cy="-589.582" rx="3.2" ry="3.2"/>
</g>
<!-- container_manifest -->
<g id="node5" class="node"><title>container_manifest</title>
<g id="a_node5"><a xlink:href="../../tables/container_manifest.html" xlink:title="container_manifest" target="_top">
<polygon fill="#ffffff" stroke="none" points="537,-525 537,-649 697,-649 697,-525 537,-525"/>
<polygon fill="#f5f5f5" stroke="none" points="537,-627 537,-649 697,-649 697,-627 537,-627"/>
<polygon fill="none" stroke="black" points="537,-627 537,-649 697,-649 697,-627 537,-627"/>
<text text-anchor="start" x="542" y="-636.2" font-family="Helvetica,sans-Serif" font-weight="bold" font-size="11.00">container_manifest</text>
<text text-anchor="start" x="658" y="-635.2" font-family="Helvetica,sans-Serif" font-size="11.00">[table]</text>
<polygon fill="none" stroke="black" points="537,-605 537,-627 697,-627 697,-605 537,-605"/>
<image xlink:href="../../images/primaryKeys.png" width="11px" height="12px" preserveAspectRatio="xMinYMin meet" x="542" y="-622"/>
<text text-anchor="start" x="569" y="-613.2" font-family="Helvetica,sans-Serif" font-size="11.00">content_ptr_id</text>
<polygon fill="#ffffff" stroke="none" points="537,-583 537,-605 697,-605 697,-583 537,-583"/>
<polygon fill="none" stroke="black" points="537,-583 537,-605 697,-605 697,-583 537,-583"/>
<text text-anchor="start" x="569" y="-591.2" font-family="Helvetica,sans-Serif" font-size="11.00">digest</text>
<polygon fill="#ffffff" stroke="none" points="537,-561 537,-583 697,-583 697,-561 537,-561"/>
<polygon fill="none" stroke="black" points="537,-561 537,-583 697,-583 697,-561 537,-561"/>
<image xlink:href="../../images/foreignKeys.png" width="11px" height="12px" preserveAspectRatio="xMinYMin meet" x="542" y="-578"/>
<text text-anchor="start" x="569" y="-569.2" font-family="Helvetica,sans-Serif" font-size="11.00">config_blob_id</text>
<polygon fill="none" stroke="black" points="537,-543 537,-561 697,-561 697,-543 537,-543"/>
<text text-anchor="start" x="540" y="-549.2" font-family="Helvetica,sans-Serif" font-size="11.00">...</text>
<polygon fill="#ffffff" stroke="none" points="537,-525 537,-543 596,-543 596,-525 537,-525"/>
<polygon fill="none" stroke="black" points="537,-525 537,-543 596,-543 596,-525 537,-525"/>
<text text-anchor="start" x="540" y="-531.2" font-family="Helvetica,sans-Serif" font-size="11.00">&lt; 2</text>
<polygon fill="#ffffff" stroke="none" points="596,-525 596,-543 656,-543 656,-525 596,-525"/>
<polygon fill="none" stroke="black" points="596,-525 596,-543 656,-543 656,-525 596,-525"/>
<text text-anchor="start" x="617" y="-531.2" font-family="Helvetica,sans-Serif" font-size="11.00">0 rows</text>
<polygon fill="#ffffff" stroke="none" points="656,-525 656,-543 697,-543 697,-525 656,-525"/>
<polygon fill="none" stroke="black" points="656,-525 656,-543 697,-543 697,-525 656,-525"/>
<text text-anchor="start" x="677" y="-531.2" font-family="Helvetica,sans-Serif" font-size="11.00">4 &gt;</text>
</a>
</g>
</g>
<!-- container_manifest&#45;&gt;core_content -->
<g id="edge5" class="edge"><title>container_manifest:content_ptr_id:w&#45;&gt;core_content:pulp_id.type:e</title>
<path fill="none" stroke="black" d="M525.535,-617.556C515.154,-620.997 510.689,-629.171 496,-632 404.787,-649.566 378.526,-647.854 287,-632 267.469,-628.617 264.821,-617 245,-617"/>
<polygon fill="black" stroke="black" points="534.62,-612.161 535.797,-620.074 534.214,-620.309 533.038,-612.396 534.62,-612.161"/>
<polyline fill="none" stroke="black" points="536,-616 532.043,-616.588 "/>
<ellipse fill="none" stroke="black" cx="528.878" cy="-617.059" rx="3.2" ry="3.2"/>
</g>
<!-- container_manifest&#45;&gt;container_blob -->
<g id="edge4" class="edge"><title>container_manifest:config_blob_id:w&#45;&gt;container_blob:content_ptr_id:e</title>
<path fill="none" stroke="black" d="M521.51,-573.115C498.349,-576.897 488.887,-589 459.5,-589"/>
<polygon fill="black" stroke="black" points="528.024,-572.614 536.276,-575.589 532.012,-572.307 536,-572 536,-572 536,-572 532.012,-572.307 535.724,-568.411 528.024,-572.614 528.024,-572.614"/>
<ellipse fill="none" stroke="black" cx="524.833" cy="-572.86" rx="3.2" ry="3.2"/>
</g>
<!-- container_tag -->
<g id="node6" class="node"><title>container_tag</title>
<g id="a_node6"><a xlink:href="../../tables/container_tag.html" xlink:title="container_tag" target="_top">
<polygon fill="#ffffff" stroke="none" points="746,-593 746,-699 882,-699 882,-593 746,-593"/>
<polygon fill="#f5f5f5" stroke="none" points="746,-677 746,-699 882,-699 882,-677 746,-677"/>
<polygon fill="none" stroke="black" points="746,-677 746,-699 882,-699 882,-677 746,-677"/>
<text text-anchor="start" x="751" y="-686.2" font-family="Helvetica,sans-Serif" font-weight="bold" font-size="11.00">container_tag</text>
<text text-anchor="start" x="843" y="-685.2" font-family="Helvetica,sans-Serif" font-size="11.00">[table]</text>
<polygon fill="none" stroke="black" points="746,-655 746,-677 882,-677 882,-655 746,-655"/>
<image xlink:href="../../images/primaryKeys.png" width="11px" height="12px" preserveAspectRatio="xMinYMin meet" x="751" y="-672"/>
<text text-anchor="start" x="766" y="-663.2" font-family="Helvetica,sans-Serif" font-size="11.00">content_ptr_id</text>
<polygon fill="#ffffff" stroke="none" points="746,-633 746,-655 882,-655 882,-633 746,-633"/>
<polygon fill="none" stroke="black" points="746,-633 746,-655 882,-655 882,-633 746,-633"/>
<text text-anchor="start" x="766" y="-641.2" font-family="Helvetica,sans-Serif" font-size="11.00">name</text>
<polygon fill="#ffffff" stroke="none" points="746,-611 746,-633 882,-633 882,-611 746,-611"/>
<polygon fill="none" stroke="black" points="746,-611 746,-633 882,-633 882,-611 746,-611"/>
<image xlink:href="../../images/foreignKeys.png" width="11px" height="12px" preserveAspectRatio="xMinYMin meet" x="751" y="-628"/>
<text text-anchor="start" x="766" y="-619.2" font-family="Helvetica,sans-Serif" font-size="11.00">tagged_manifest_id</text>
<polygon fill="#ffffff" stroke="none" points="746,-593 746,-611 798,-611 798,-593 746,-593"/>
<polygon fill="none" stroke="black" points="746,-593 746,-611 798,-611 798,-593 746,-593"/>
<text text-anchor="start" x="749" y="-599.2" font-family="Helvetica,sans-Serif" font-size="11.00">&lt; 2</text>
<polygon fill="#ffffff" stroke="none" points="798,-593 798,-611 854,-611 854,-593 798,-593"/>
<polygon fill="none" stroke="black" points="798,-593 798,-611 854,-611 854,-593 798,-593"/>
<text text-anchor="start" x="815" y="-599.2" font-family="Helvetica,sans-Serif" font-size="11.00">0 rows</text>
<polygon fill="#ffffff" stroke="none" points="854,-593 854,-611 882,-611 882,-593 854,-593"/>
<polygon fill="none" stroke="black" points="854,-593 854,-611 882,-611 882,-593 854,-593"/>
<text text-anchor="start" x="872" y="-599.2" font-family="Helvetica,sans-Serif" font-size="11.00"> &#160;</text>
</a>
</g>
</g>
<!-- container_tag&#45;&gt;core_content -->
<g id="edge6" class="edge"><title>container_tag:content_ptr_id:w&#45;&gt;core_content:pulp_id.type:e</title>
<path fill="none" stroke="black" d="M734.387,-666.048C539.055,-667.808 475.102,-717.29 287,-649 264.941,-640.992 268.467,-617 245,-617"/>
<polygon fill="black" stroke="black" points="744.182,-662.004 744.218,-670.004 742.618,-670.011 742.582,-662.011 744.182,-662.004"/>
<polyline fill="none" stroke="black" points="745,-666 741,-666.018 "/>
<ellipse fill="none" stroke="black" cx="737.8" cy="-666.032" rx="3.2" ry="3.2"/>
</g>
<!-- container_tag&#45;&gt;container_manifest -->
<g id="edge7" class="edge"><title>container_tag:tagged_manifest_id:w&#45;&gt;container_manifest:content_ptr_id:e</title>
<path fill="none" stroke="black" d="M730.351,-620.843C719.915,-619.1 713.136,-616 698,-616"/>
<polygon fill="black" stroke="black" points="737.025,-621.37 744.717,-625.589 741.012,-621.685 745,-622 745,-622 745,-622 741.012,-621.685 745.283,-618.411 737.025,-621.37 737.025,-621.37"/>
<ellipse fill="none" stroke="black" cx="733.835" cy="-621.118" rx="3.2" ry="3.2"/>
</g>
<!-- core_contentartifact -->
<g id="node7" class="node"><title>core_contentartifact</title>
<g id="a_node7"><a xlink:href="../../tables/core_contentartifact.html" xlink:title="core_contentartifact" target="_top">
<polygon fill="#ffffff" stroke="none" points="308.5,-353 308.5,-499 474.5,-499 474.5,-353 308.5,-353"/>
<polygon fill="#f5f5f5" stroke="none" points="308.5,-477 308.5,-499 474.5,-499 474.5,-477 308.5,-477"/>
<polygon fill="none" stroke="black" points="308.5,-477 308.5,-499 474.5,-499 474.5,-477 308.5,-477"/>
<text text-anchor="start" x="313.5" y="-486.2" font-family="Helvetica,sans-Serif" font-weight="bold" font-size="11.00">core_contentartifact</text>
<text text-anchor="start" x="435.5" y="-485.2" font-family="Helvetica,sans-Serif" font-size="11.00">[table]</text>
<polygon fill="none" stroke="black" points="308.5,-455 308.5,-477 474.5,-477 474.5,-455 308.5,-455"/>
<image xlink:href="../../images/primaryKeys.png" width="11px" height="12px" preserveAspectRatio="xMinYMin meet" x="313.5" y="-472"/>
<text text-anchor="start" x="340.5" y="-463.2" font-family="Helvetica,sans-Serif" font-size="11.00">pulp_id</text>
<polygon fill="#ffffff" stroke="none" points="308.5,-433 308.5,-455 474.5,-455 474.5,-433 308.5,-433"/>
<polygon fill="none" stroke="black" points="308.5,-433 308.5,-455 474.5,-455 474.5,-433 308.5,-433"/>
<text text-anchor="start" x="340.5" y="-441.2" font-family="Helvetica,sans-Serif" font-size="11.00">relative_path</text>
<polygon fill="#ffffff" stroke="none" points="308.5,-411 308.5,-433 474.5,-433 474.5,-411 308.5,-411"/>
<polygon fill="none" stroke="black" points="308.5,-411 308.5,-433 474.5,-433 474.5,-411 308.5,-411"/>
<image xlink:href="../../images/foreignKeys.png" width="11px" height="12px" preserveAspectRatio="xMinYMin meet" x="313.5" y="-428"/>
<text text-anchor="start" x="340.5" y="-419.2" font-family="Helvetica,sans-Serif" font-size="11.00">artifact_id</text>
<polygon fill="#ffffff" stroke="none" points="308.5,-389 308.5,-411 474.5,-411 474.5,-389 308.5,-389"/>
<polygon fill="none" stroke="black" points="308.5,-389 308.5,-411 474.5,-411 474.5,-389 308.5,-389"/>
<image xlink:href="../../images/foreignKeys.png" width="11px" height="12px" preserveAspectRatio="xMinYMin meet" x="313.5" y="-406"/>
<text text-anchor="start" x="340.5" y="-397.2" font-family="Helvetica,sans-Serif" font-size="11.00">content_id</text>
<polygon fill="none" stroke="black" points="308.5,-371 308.5,-389 474.5,-389 474.5,-371 308.5,-371"/>
<text text-anchor="start" x="311.5" y="-377.2" font-family="Helvetica,sans-Serif" font-size="11.00">...</text>
<polygon fill="#ffffff" stroke="none" points="308.5,-353 308.5,-371 366.5,-371 366.5,-353 308.5,-353"/>
<polygon fill="none" stroke="black" points="308.5,-353 308.5,-371 366.5,-371 366.5,-353 308.5,-353"/>
<text text-anchor="start" x="311.5" y="-359.2" font-family="Helvetica,sans-Serif" font-size="11.00">&lt; 2</text>
<polygon fill="#ffffff" stroke="none" points="366.5,-353 366.5,-371 433.5,-371 433.5,-353 366.5,-353"/>
<polygon fill="none" stroke="black" points="366.5,-353 366.5,-371 433.5,-371 433.5,-353 366.5,-353"/>
<text text-anchor="start" x="387.5" y="-359.2" font-family="Helvetica,sans-Serif" font-size="11.00">88 rows</text>
<polygon fill="#ffffff" stroke="none" points="433.5,-353 433.5,-371 474.5,-371 474.5,-353 433.5,-353"/>
<polygon fill="none" stroke="black" points="433.5,-353 433.5,-371 474.5,-371 474.5,-353 433.5,-353"/>
<text text-anchor="start" x="454.5" y="-359.2" font-family="Helvetica,sans-Serif" font-size="11.00">2 &gt;</text>
</a>
</g>
</g>
<!-- core_contentartifact&#45;&gt;core_content -->
<g id="edge8" class="edge"><title>core_contentartifact:content_id:w&#45;&gt;core_content:pulp_id.type:e</title>
<path fill="none" stroke="black" d="M293.097,-401.876C221.54,-423.085 339.876,-617 245,-617"/>
<polygon fill="black" stroke="black" points="299.567,-401.033 307.965,-403.57 303.534,-400.517 307.5,-400 307.5,-400 307.5,-400 303.534,-400.517 307.035,-396.43 299.567,-401.033 299.567,-401.033"/>
<ellipse fill="none" stroke="black" cx="296.394" cy="-401.447" rx="3.2" ry="3.2"/>
</g>
<!-- core_publishedmetadata -->
<g id="node8" class="node"><title>core_publishedmetadata</title>
<g id="a_node8"><a xlink:href="../../tables/core_publishedmetadata.html" xlink:title="core_publishedmetadata" target="_top">
<polygon fill="#ffffff" stroke="none" points="296,-226 296,-332 487,-332 487,-226 296,-226"/>
<polygon fill="#f5f5f5" stroke="none" points="296.5,-310 296.5,-332 487.5,-332 487.5,-310 296.5,-310"/>
<polygon fill="none" stroke="black" points="296.5,-310 296.5,-332 487.5,-332 487.5,-310 296.5,-310"/>
<text text-anchor="start" x="301.5" y="-319.2" font-family="Helvetica,sans-Serif" font-weight="bold" font-size="11.00">core_publishedmetadata</text>
<text text-anchor="start" x="448.5" y="-318.2" font-family="Helvetica,sans-Serif" font-size="11.00">[table]</text>
<polygon fill="#ffffff" stroke="none" points="296.5,-288 296.5,-310 487.5,-310 487.5,-288 296.5,-288"/>
<polygon fill="none" stroke="black" points="296.5,-288 296.5,-310 487.5,-310 487.5,-288 296.5,-288"/>
<text text-anchor="start" x="327.5" y="-296.2" font-family="Helvetica,sans-Serif" font-size="11.00">relative_path</text>
<polygon fill="#ffffff" stroke="none" points="296.5,-266 296.5,-288 487.5,-288 487.5,-266 296.5,-266"/>
<polygon fill="none" stroke="black" points="296.5,-266 296.5,-288 487.5,-288 487.5,-266 296.5,-266"/>
<image xlink:href="../../images/foreignKeys.png" width="11px" height="12px" preserveAspectRatio="xMinYMin meet" x="301.5" y="-283"/>
<text text-anchor="start" x="327.5" y="-274.2" font-family="Helvetica,sans-Serif" font-size="11.00">publication_id</text>
<polygon fill="none" stroke="black" points="296.5,-244 296.5,-266 487.5,-266 487.5,-244 296.5,-244"/>
<image xlink:href="../../images/primaryKeys.png" width="11px" height="12px" preserveAspectRatio="xMinYMin meet" x="301.5" y="-261"/>
<text text-anchor="start" x="327.5" y="-252.2" font-family="Helvetica,sans-Serif" font-size="11.00">content_ptr_id</text>
<polygon fill="#ffffff" stroke="none" points="296.5,-226 296.5,-244 375.5,-244 375.5,-226 296.5,-226"/>
<polygon fill="none" stroke="black" points="296.5,-226 296.5,-244 375.5,-244 375.5,-226 296.5,-226"/>
<text text-anchor="start" x="299.5" y="-232.2" font-family="Helvetica,sans-Serif" font-size="11.00">&lt; 2</text>
<polygon fill="#ffffff" stroke="none" points="375.5,-226 375.5,-244 445.5,-244 445.5,-226 375.5,-226"/>
<polygon fill="none" stroke="black" points="375.5,-226 375.5,-244 445.5,-244 445.5,-226 375.5,-226"/>
<text text-anchor="start" x="406.5" y="-232.2" font-family="Helvetica,sans-Serif" font-size="11.00">0 rows</text>
<polygon fill="#ffffff" stroke="none" points="445.5,-226 445.5,-244 487.5,-244 487.5,-226 445.5,-226"/>
<polygon fill="none" stroke="black" points="445.5,-226 445.5,-244 487.5,-244 487.5,-226 445.5,-226"/>
<text text-anchor="start" x="477.5" y="-232.2" font-family="Helvetica,sans-Serif" font-size="11.00"> &#160;</text>
</a>
</g>
</g>
<!-- core_publishedmetadata&#45;&gt;core_content -->
<g id="edge9" class="edge"><title>core_publishedmetadata:content_ptr_id:w&#45;&gt;core_content:pulp_id.type:e</title>
<path fill="none" stroke="black" d="M285.312,-257.312C224.347,-288.142 322.416,-617 245,-617"/>
<polygon fill="black" stroke="black" points="293.835,-251.276 295.605,-259.078 294.045,-259.432 292.274,-251.63 293.835,-251.276"/>
<polyline fill="none" stroke="black" points="295.5,-255 291.599,-255.885 "/>
<ellipse fill="none" stroke="black" cx="288.478" cy="-256.593" rx="3.20001" ry="3.20001"/>
</g>
<!-- core_repositorycontent -->
<g id="node9" class="node"><title>core_repositorycontent</title>
<g id="a_node9"><a xlink:href="../../tables/core_repositorycontent.html" xlink:title="core_repositorycontent" target="_top">
<polygon fill="#ffffff" stroke="none" points="300.5,-37 300.5,-205 482.5,-205 482.5,-37 300.5,-37"/>
<polygon fill="#f5f5f5" stroke="none" points="300.5,-183 300.5,-205 482.5,-205 482.5,-183 300.5,-183"/>
<polygon fill="none" stroke="black" points="300.5,-183 300.5,-205 482.5,-205 482.5,-183 300.5,-183"/>
<text text-anchor="start" x="305.5" y="-192.2" font-family="Helvetica,sans-Serif" font-weight="bold" font-size="11.00">core_repositorycontent</text>
<text text-anchor="start" x="443.5" y="-191.2" font-family="Helvetica,sans-Serif" font-size="11.00">[table]</text>
<polygon fill="none" stroke="black" points="300.5,-161 300.5,-183 482.5,-183 482.5,-161 300.5,-161"/>
<image xlink:href="../../images/primaryKeys.png" width="11px" height="12px" preserveAspectRatio="xMinYMin meet" x="305.5" y="-178"/>
<text text-anchor="start" x="331.5" y="-169.2" font-family="Helvetica,sans-Serif" font-size="11.00">pulp_id</text>
<polygon fill="#ffffff" stroke="none" points="300.5,-139 300.5,-161 482.5,-161 482.5,-139 300.5,-139"/>
<polygon fill="none" stroke="black" points="300.5,-139 300.5,-161 482.5,-161 482.5,-139 300.5,-139"/>
<image xlink:href="../../images/foreignKeys.png" width="11px" height="12px" preserveAspectRatio="xMinYMin meet" x="305.5" y="-156"/>
<text text-anchor="start" x="331.5" y="-147.2" font-family="Helvetica,sans-Serif" font-size="11.00">content_id</text>
<polygon fill="#ffffff" stroke="none" points="300.5,-117 300.5,-139 482.5,-139 482.5,-117 300.5,-117"/>
<polygon fill="none" stroke="black" points="300.5,-117 300.5,-139 482.5,-139 482.5,-117 300.5,-117"/>
<image xlink:href="../../images/foreignKeys.png" width="11px" height="12px" preserveAspectRatio="xMinYMin meet" x="305.5" y="-134"/>
<text text-anchor="start" x="331.5" y="-125.2" font-family="Helvetica,sans-Serif" font-size="11.00">repository_id</text>
<polygon fill="#ffffff" stroke="none" points="300.5,-95 300.5,-117 482.5,-117 482.5,-95 300.5,-95"/>
<polygon fill="none" stroke="black" points="300.5,-95 300.5,-117 482.5,-117 482.5,-95 300.5,-95"/>
<image xlink:href="../../images/foreignKeys.png" width="11px" height="12px" preserveAspectRatio="xMinYMin meet" x="305.5" y="-112"/>
<text text-anchor="start" x="331.5" y="-103.2" font-family="Helvetica,sans-Serif" font-size="11.00">version_added_id</text>
<polygon fill="#ffffff" stroke="none" points="300.5,-73 300.5,-95 482.5,-95 482.5,-73 300.5,-73"/>
<polygon fill="none" stroke="black" points="300.5,-73 300.5,-95 482.5,-95 482.5,-73 300.5,-73"/>
<image xlink:href="../../images/foreignKeys.png" width="11px" height="12px" preserveAspectRatio="xMinYMin meet" x="305.5" y="-90"/>
<text text-anchor="start" x="331.5" y="-81.2" font-family="Helvetica,sans-Serif" font-size="11.00">version_removed_id</text>
<polygon fill="none" stroke="black" points="300.5,-55 300.5,-73 482.5,-73 482.5,-55 300.5,-55"/>
<text text-anchor="start" x="303.5" y="-61.2" font-family="Helvetica,sans-Serif" font-size="11.00">...</text>
<polygon fill="#ffffff" stroke="none" points="300.5,-37 300.5,-55 368.5,-55 368.5,-37 300.5,-37"/>
<polygon fill="none" stroke="black" points="300.5,-37 300.5,-55 368.5,-55 368.5,-37 300.5,-37"/>
<text text-anchor="start" x="303.5" y="-43.2" font-family="Helvetica,sans-Serif" font-size="11.00">&lt; 4</text>
<polygon fill="#ffffff" stroke="none" points="368.5,-37 368.5,-55 446.5,-55 446.5,-37 368.5,-37"/>
<polygon fill="none" stroke="black" points="368.5,-37 368.5,-55 446.5,-55 446.5,-37 368.5,-37"/>
<text text-anchor="start" x="394.5" y="-43.2" font-family="Helvetica,sans-Serif" font-size="11.00">786 rows</text>
<polygon fill="#ffffff" stroke="none" points="446.5,-37 446.5,-55 482.5,-55 482.5,-37 446.5,-37"/>
<polygon fill="none" stroke="black" points="446.5,-37 446.5,-55 482.5,-55 482.5,-37 446.5,-37"/>
<text text-anchor="start" x="472.5" y="-43.2" font-family="Helvetica,sans-Serif" font-size="11.00"> &#160;</text>
</a>
</g>
</g>
<!-- core_repositorycontent&#45;&gt;core_content -->
<g id="edge10" class="edge"><title>core_repositorycontent:content_id:w&#45;&gt;core_content:pulp_id.type:e</title>
<path fill="none" stroke="black" d="M285.518,-153.49C210.038,-196.225 344.176,-617 245,-617"/>
<polygon fill="black" stroke="black" points="291.738,-151.938 300.372,-153.493 295.619,-150.969 299.5,-150 299.5,-150 299.5,-150 295.619,-150.969 298.628,-146.507 291.738,-151.938 291.738,-151.938"/>
<ellipse fill="none" stroke="black" cx="288.633" cy="-152.713" rx="3.2" ry="3.2"/>
</g>
</g>
</svg>
