<?xml version="1.0" encoding="UTF-8" standalone="no"?>
<!DOCTYPE svg PUBLIC "-//W3C//DTD SVG 1.1//EN"
 "http://www.w3.org/Graphics/SVG/1.1/DTD/svg11.dtd">
<!-- Generated by graphviz version 2.38.0 (20140413.2041)
 -->
<!-- Title: oneDegreeRelationshipsDiagram Pages: 1 -->
<svg width="453pt" height="373pt"
 viewBox="0.00 0.00 453.00 373.00" xmlns="http://www.w3.org/2000/svg" xmlns:xlink="http://www.w3.org/1999/xlink">
<g id="graph0" class="graph" transform="scale(1 1) rotate(0) translate(4 369)">
<title>oneDegreeRelationshipsDiagram</title>
<polygon fill="#ffffff" stroke="none" points="-4,4 -4,-369 449,-369 449,4 -4,4"/>
<text text-anchor="middle" x="74.5" y="-7.2" font-family="Helvetica,sans-Serif" font-size="11.00">Generated by SchemaSpy</text>
<!-- core_progressreport -->
<g id="node1" class="node"><title>core_progressreport</title>
<g id="a_node1"><a xlink:href="../../tables/core_progressreport.html" xlink:title="core_progressreport" target="_top">
<polygon fill="#ffffff" stroke="none" points="186,-97 186,-361 437,-361 437,-97 186,-97"/>
<polygon fill="#f5f5f5" stroke="none" points="188.5,-337 188.5,-359 435.5,-359 435.5,-337 188.5,-337"/>
<polygon fill="none" stroke="black" points="188.5,-337 188.5,-359 435.5,-359 435.5,-337 188.5,-337"/>
<text text-anchor="start" x="193.5" y="-346.2" font-family="Helvetica,sans-Serif" font-weight="bold" font-size="11.00">core_progressreport</text>
<text text-anchor="start" x="396.5" y="-345.2" font-family="Helvetica,sans-Serif" font-size="11.00">[table]</text>
<polygon fill="none" stroke="black" points="188.5,-315 188.5,-337 330.5,-337 330.5,-315 188.5,-315"/>
<image xlink:href="../../images/primaryKeys.png" width="11px" height="12px" preserveAspectRatio="xMinYMin meet" x="193.5" y="-332"/>
<text text-anchor="start" x="208.5" y="-323.2" font-family="Helvetica,sans-Serif" font-size="11.00">pulp_id</text>
<polygon fill="none" stroke="black" points="330.5,-315 330.5,-337 435.5,-337 435.5,-315 330.5,-315"/>
<text text-anchor="start" x="333.5" y="-323.2" font-family="Helvetica,sans-Serif" font-size="11.00">uuid[2147483647]</text>
<polygon fill="none" stroke="black" points="188.5,-293 188.5,-315 330.5,-315 330.5,-293 188.5,-293"/>
<text text-anchor="start" x="208.5" y="-301.2" font-family="Helvetica,sans-Serif" font-size="11.00">pulp_created</text>
<polygon fill="none" stroke="black" points="330.5,-293 330.5,-315 435.5,-315 435.5,-293 330.5,-293"/>
<text text-anchor="start" x="333.5" y="-301.2" font-family="Helvetica,sans-Serif" font-size="11.00">timestamptz[35,6]</text>
<polygon fill="none" stroke="black" points="188.5,-271 188.5,-293 330.5,-293 330.5,-271 188.5,-271"/>
<text text-anchor="start" x="208.5" y="-279.2" font-family="Helvetica,sans-Serif" font-size="11.00">pulp_last_updated</text>
<polygon fill="none" stroke="black" points="330.5,-271 330.5,-293 435.5,-293 435.5,-271 330.5,-271"/>
<text text-anchor="start" x="333.5" y="-279.2" font-family="Helvetica,sans-Serif" font-size="11.00">timestamptz[35,6]</text>
<polygon fill="none" stroke="black" points="188.5,-249 188.5,-271 330.5,-271 330.5,-249 188.5,-249"/>
<text text-anchor="start" x="208.5" y="-257.2" font-family="Helvetica,sans-Serif" font-size="11.00">message</text>
<polygon fill="none" stroke="black" points="330.5,-249 330.5,-271 435.5,-271 435.5,-249 330.5,-249"/>
<text text-anchor="start" x="333.5" y="-257.2" font-family="Helvetica,sans-Serif" font-size="11.00">text[2147483647]</text>
<polygon fill="none" stroke="black" points="188.5,-227 188.5,-249 330.5,-249 330.5,-227 188.5,-227"/>
<text text-anchor="start" x="208.5" y="-235.2" font-family="Helvetica,sans-Serif" font-size="11.00">state</text>
<polygon fill="none" stroke="black" points="330.5,-227 330.5,-249 435.5,-249 435.5,-227 330.5,-227"/>
<text text-anchor="start" x="333.5" y="-235.2" font-family="Helvetica,sans-Serif" font-size="11.00">text[2147483647]</text>
<polygon fill="none" stroke="black" points="188.5,-205 188.5,-227 330.5,-227 330.5,-205 188.5,-205"/>
<text text-anchor="start" x="208.5" y="-213.2" font-family="Helvetica,sans-Serif" font-size="11.00">total</text>
<polygon fill="none" stroke="black" points="330.5,-205 330.5,-227 435.5,-227 435.5,-205 330.5,-205"/>
<text text-anchor="start" x="333.5" y="-213.2" font-family="Helvetica,sans-Serif" font-size="11.00">int4[10]</text>
<polygon fill="none" stroke="black" points="188.5,-183 188.5,-205 330.5,-205 330.5,-183 188.5,-183"/>
<text text-anchor="start" x="208.5" y="-191.2" font-family="Helvetica,sans-Serif" font-size="11.00">done</text>
<polygon fill="none" stroke="black" points="330.5,-183 330.5,-205 435.5,-205 435.5,-183 330.5,-183"/>
<text text-anchor="start" x="333.5" y="-191.2" font-family="Helvetica,sans-Serif" font-size="11.00">int4[10]</text>
<polygon fill="none" stroke="black" points="188.5,-161 188.5,-183 330.5,-183 330.5,-161 188.5,-161"/>
<text text-anchor="start" x="208.5" y="-169.2" font-family="Helvetica,sans-Serif" font-size="11.00">suffix</text>
<polygon fill="none" stroke="black" points="330.5,-161 330.5,-183 435.5,-183 435.5,-161 330.5,-161"/>
<text text-anchor="start" x="333.5" y="-169.2" font-family="Helvetica,sans-Serif" font-size="11.00">text[2147483647]</text>
<polygon fill="#ffffff" stroke="none" points="188.5,-139 188.5,-161 330.5,-161 330.5,-139 188.5,-139"/>
<polygon fill="none" stroke="black" points="188.5,-139 188.5,-161 330.5,-161 330.5,-139 188.5,-139"/>
<image xlink:href="../../images/foreignKeys.png" width="11px" height="12px" preserveAspectRatio="xMinYMin meet" x="193.5" y="-156"/>
<text text-anchor="start" x="208.5" y="-147.2" font-family="Helvetica,sans-Serif" font-size="11.00">task_id</text>
<polygon fill="none" stroke="black" points="330.5,-139 330.5,-161 435.5,-161 435.5,-139 330.5,-139"/>
<text text-anchor="start" x="333.5" y="-147.2" font-family="Helvetica,sans-Serif" font-size="11.00">uuid[2147483647]</text>
<polygon fill="none" stroke="black" points="188.5,-117 188.5,-139 330.5,-139 330.5,-117 188.5,-117"/>
<text text-anchor="start" x="208.5" y="-125.2" font-family="Helvetica,sans-Serif" font-size="11.00">code</text>
<polygon fill="none" stroke="black" points="330.5,-117 330.5,-139 435.5,-139 435.5,-117 330.5,-117"/>
<text text-anchor="start" x="333.5" y="-125.2" font-family="Helvetica,sans-Serif" font-size="11.00">varchar[36]</text>
<polygon fill="#ffffff" stroke="none" points="188.5,-99 188.5,-117 246.5,-117 246.5,-99 188.5,-99"/>
<polygon fill="none" stroke="black" points="188.5,-99 188.5,-117 246.5,-117 246.5,-99 188.5,-99"/>
<text text-anchor="start" x="191.5" y="-105.2" font-family="Helvetica,sans-Serif" font-size="11.00">&lt; 1</text>
<polygon fill="#ffffff" stroke="none" points="246.5,-99 246.5,-117 330.5,-117 330.5,-99 246.5,-99"/>
<polygon fill="none" stroke="black" points="246.5,-99 246.5,-117 330.5,-117 330.5,-99 246.5,-99"/>
<text text-anchor="start" x="284.5" y="-105.2" font-family="Helvetica,sans-Serif" font-size="11.00">53 rows</text>
<polygon fill="#ffffff" stroke="none" points="330.5,-99 330.5,-117 435.5,-117 435.5,-99 330.5,-99"/>
<polygon fill="none" stroke="black" points="330.5,-99 330.5,-117 435.5,-117 435.5,-99 330.5,-99"/>
<text text-anchor="start" x="415.5" y="-105.2" font-family="Helvetica,sans-Serif" font-size="11.00">0 &gt;</text>
<polygon fill="none" stroke="black" stroke-width="2" points="187,-98 187,-360 436,-360 436,-98 187,-98"/>
</a>
</g>
</g>
<!-- core_task -->
<g id="node2" class="node"><title>core_task</title>
<g id="a_node2"><a xlink:href="../../tables/core_task.html" xlink:title="core_task" target="_top">
<polygon fill="#ffffff" stroke="none" points="8,-37 8,-183 137,-183 137,-37 8,-37"/>
<polygon fill="#f5f5f5" stroke="none" points="8.5,-161 8.5,-183 137.5,-183 137.5,-161 8.5,-161"/>
<polygon fill="none" stroke="black" points="8.5,-161 8.5,-183 137.5,-183 137.5,-161 8.5,-161"/>
<text text-anchor="start" x="13.5" y="-170.2" font-family="Helvetica,sans-Serif" font-weight="bold" font-size="11.00">core_task</text>
<text text-anchor="start" x="98.5" y="-169.2" font-family="Helvetica,sans-Serif" font-size="11.00">[table]</text>
<polygon fill="none" stroke="black" points="8.5,-139 8.5,-161 137.5,-161 137.5,-139 8.5,-139"/>
<image xlink:href="../../images/primaryKeys.png" width="11px" height="12px" preserveAspectRatio="xMinYMin meet" x="13.5" y="-156"/>
<text text-anchor="start" x="28.5" y="-147.2" font-family="Helvetica,sans-Serif" font-size="11.00">pulp_id</text>
<polygon fill="#ffffff" stroke="none" points="8.5,-117 8.5,-139 137.5,-139 137.5,-117 8.5,-117"/>
<polygon fill="none" stroke="black" points="8.5,-117 8.5,-139 137.5,-139 137.5,-117 8.5,-117"/>
<image xlink:href="../../images/foreignKeys.png" width="11px" height="12px" preserveAspectRatio="xMinYMin meet" x="13.5" y="-134"/>
<text text-anchor="start" x="28.5" y="-125.2" font-family="Helvetica,sans-Serif" font-size="11.00">worker_id</text>
<polygon fill="#ffffff" stroke="none" points="8.5,-95 8.5,-117 137.5,-117 137.5,-95 8.5,-95"/>
<polygon fill="none" stroke="black" points="8.5,-95 8.5,-117 137.5,-117 137.5,-95 8.5,-95"/>
<image xlink:href="../../images/foreignKeys.png" width="11px" height="12px" preserveAspectRatio="xMinYMin meet" x="13.5" y="-112"/>
<text text-anchor="start" x="28.5" y="-103.2" font-family="Helvetica,sans-Serif" font-size="11.00">parent_task_id</text>
<polygon fill="#ffffff" stroke="none" points="8.5,-73 8.5,-95 137.5,-95 137.5,-73 8.5,-73"/>
<polygon fill="none" stroke="black" points="8.5,-73 8.5,-95 137.5,-95 137.5,-73 8.5,-73"/>
<image xlink:href="../../images/foreignKeys.png" width="11px" height="12px" preserveAspectRatio="xMinYMin meet" x="13.5" y="-90"/>
<text text-anchor="start" x="28.5" y="-81.2" font-family="Helvetica,sans-Serif" font-size="11.00">task_group_id</text>
<polygon fill="none" stroke="black" points="8.5,-55 8.5,-73 137.5,-73 137.5,-55 8.5,-55"/>
<text text-anchor="start" x="11.5" y="-61.2" font-family="Helvetica,sans-Serif" font-size="11.00">...</text>
<polygon fill="#ffffff" stroke="none" points="8.5,-37 8.5,-55 40.5,-55 40.5,-37 8.5,-37"/>
<polygon fill="none" stroke="black" points="8.5,-37 8.5,-55 40.5,-55 40.5,-37 8.5,-37"/>
<text text-anchor="start" x="11.5" y="-43.2" font-family="Helvetica,sans-Serif" font-size="11.00">&lt; 3</text>
<polygon fill="#ffffff" stroke="none" points="40.5,-37 40.5,-55 109.5,-55 109.5,-37 40.5,-37"/>
<polygon fill="none" stroke="black" points="40.5,-37 40.5,-55 109.5,-55 109.5,-37 40.5,-37"/>
<text text-anchor="start" x="47.5" y="-43.2" font-family="Helvetica,sans-Serif" font-size="11.00">1,828 rows</text>
<polygon fill="#ffffff" stroke="none" points="109.5,-37 109.5,-55 137.5,-55 137.5,-37 109.5,-37"/>
<polygon fill="none" stroke="black" points="109.5,-37 109.5,-55 137.5,-55 137.5,-37 109.5,-37"/>
<text text-anchor="start" x="117.5" y="-43.2" font-family="Helvetica,sans-Serif" font-size="11.00">8 &gt;</text>
</a>
</g>
</g>
<!-- core_progressreport&#45;&gt;core_task -->
<g id="edge1" class="edge"><title>core_progressreport:task_id:w&#45;&gt;core_task:pulp_id:e</title>
<path fill="none" stroke="black" d="M172.991,-150C161.677,-150 154.493,-150 138.5,-150"/>
<polygon fill="black" stroke="black" points="179.5,-150 187.5,-153.6 183.5,-150 187.5,-150 187.5,-150 187.5,-150 183.5,-150 187.5,-146.4 179.5,-150 179.5,-150"/>
<ellipse fill="none" stroke="black" cx="176.3" cy="-150" rx="3.2" ry="3.2"/>
</g>
</g>
</svg>
