<?xml version="1.0" encoding="UTF-8" standalone="no"?>
<!DOCTYPE svg PUBLIC "-//W3C//DTD SVG 1.1//EN"
 "http://www.w3.org/Graphics/SVG/1.1/DTD/svg11.dtd">
<!-- Generated by graphviz version 2.38.0 (20140413.2041)
 -->
<!-- Title: twoDegreesRelationshipsDiagram Pages: 1 -->
<svg width="1016pt" height="738pt"
 viewBox="0.00 0.00 1016.00 738.00" xmlns="http://www.w3.org/2000/svg" xmlns:xlink="http://www.w3.org/1999/xlink">
<g id="graph0" class="graph" transform="scale(1 1) rotate(0) translate(4 734)">
<title>twoDegreesRelationshipsDiagram</title>
<polygon fill="#ffffff" stroke="none" points="-4,4 -4,-734 1012,-734 1012,4 -4,4"/>
<text text-anchor="middle" x="74.5" y="-7.2" font-family="Helvetica,sans-Serif" font-size="11.00">Generated by SchemaSpy</text>
<!-- ansible_ansibledistribution -->
<g id="node1" class="node"><title>ansible_ansibledistribution</title>
<g id="a_node1"><a xlink:href="../../tables/ansible_ansibledistribution.html" xlink:title="ansible_ansibledistribution" target="_top">
<polygon fill="#ffffff" stroke="none" points="781,-432 781,-490 986,-490 986,-432 781,-432"/>
<polygon fill="#f5f5f5" stroke="none" points="781.5,-468 781.5,-490 986.5,-490 986.5,-468 781.5,-468"/>
<polygon fill="none" stroke="black" points="781.5,-468 781.5,-490 986.5,-490 986.5,-468 781.5,-468"/>
<text text-anchor="start" x="786.5" y="-477.2" font-family="Helvetica,sans-Serif" font-weight="bold" font-size="11.00">ansible_ansibledistribution</text>
<text text-anchor="start" x="947.5" y="-476.2" font-family="Helvetica,sans-Serif" font-size="11.00">[table]</text>
<polygon fill="none" stroke="black" points="781.5,-450 781.5,-468 986.5,-468 986.5,-450 781.5,-450"/>
<text text-anchor="start" x="784.5" y="-456.2" font-family="Helvetica,sans-Serif" font-size="11.00">...</text>
<polygon fill="#ffffff" stroke="none" points="781.5,-432 781.5,-450 864.5,-450 864.5,-432 781.5,-432"/>
<polygon fill="none" stroke="black" points="781.5,-432 781.5,-450 864.5,-450 864.5,-432 781.5,-432"/>
<text text-anchor="start" x="784.5" y="-438.2" font-family="Helvetica,sans-Serif" font-size="11.00">&lt; 3</text>
<polygon fill="#ffffff" stroke="none" points="864.5,-432 864.5,-450 943.5,-450 943.5,-432 864.5,-432"/>
<polygon fill="none" stroke="black" points="864.5,-432 864.5,-450 943.5,-450 943.5,-432 864.5,-432"/>
<text text-anchor="start" x="897.5" y="-438.2" font-family="Helvetica,sans-Serif" font-size="11.00">32 rows</text>
<polygon fill="#ffffff" stroke="none" points="943.5,-432 943.5,-450 986.5,-450 986.5,-432 943.5,-432"/>
<polygon fill="none" stroke="black" points="943.5,-432 943.5,-450 986.5,-450 986.5,-432 943.5,-432"/>
<text text-anchor="start" x="976.5" y="-438.2" font-family="Helvetica,sans-Serif" font-size="11.00"> &#160;</text>
</a>
</g>
</g>
<!-- core_repository -->
<g id="node2" class="node"><title>core_repository</title>
<g id="a_node2"><a xlink:href="../../tables/core_repository.html" xlink:title="core_repository" target="_top">
<polygon fill="#ffffff" stroke="none" points="207.5,-340 207.5,-464 344.5,-464 344.5,-340 207.5,-340"/>
<polygon fill="#f5f5f5" stroke="none" points="208,-442 208,-464 345,-464 345,-442 208,-442"/>
<polygon fill="none" stroke="black" points="208,-442 208,-464 345,-464 345,-442 208,-442"/>
<text text-anchor="start" x="213" y="-451.2" font-family="Helvetica,sans-Serif" font-weight="bold" font-size="11.00">core_repository</text>
<text text-anchor="start" x="306" y="-450.2" font-family="Helvetica,sans-Serif" font-size="11.00">[table]</text>
<polygon fill="none" stroke="black" points="208,-420 208,-442 345,-442 345,-420 208,-420"/>
<image xlink:href="../../images/primaryKeys.png" width="11px" height="12px" preserveAspectRatio="xMinYMin meet" x="213" y="-437"/>
<text text-anchor="start" x="232" y="-428.2" font-family="Helvetica,sans-Serif" font-size="11.00">pulp_id</text>
<polygon fill="#ffffff" stroke="none" points="208,-398 208,-420 345,-420 345,-398 208,-398"/>
<polygon fill="none" stroke="black" points="208,-398 208,-420 345,-420 345,-398 208,-398"/>
<text text-anchor="start" x="232" y="-406.2" font-family="Helvetica,sans-Serif" font-size="11.00">name</text>
<polygon fill="#ffffff" stroke="none" points="208,-376 208,-398 345,-398 345,-376 208,-376"/>
<polygon fill="none" stroke="black" points="208,-376 208,-398 345,-398 345,-376 208,-376"/>
<image xlink:href="../../images/foreignKeys.png" width="11px" height="12px" preserveAspectRatio="xMinYMin meet" x="213" y="-393"/>
<text text-anchor="start" x="232" y="-384.2" font-family="Helvetica,sans-Serif" font-size="11.00">remote_id</text>
<polygon fill="none" stroke="black" points="208,-358 208,-376 345,-376 345,-358 208,-358"/>
<text text-anchor="start" x="211" y="-364.2" font-family="Helvetica,sans-Serif" font-size="11.00">...</text>
<polygon fill="#ffffff" stroke="none" points="208,-340 208,-358 248,-358 248,-340 208,-340"/>
<polygon fill="none" stroke="black" points="208,-340 208,-358 248,-358 248,-340 208,-340"/>
<text text-anchor="start" x="211" y="-346.2" font-family="Helvetica,sans-Serif" font-size="11.00">&lt; 1</text>
<polygon fill="#ffffff" stroke="none" points="248,-340 248,-358 306,-358 306,-340 248,-340"/>
<polygon fill="none" stroke="black" points="248,-340 248,-358 306,-358 306,-340 248,-340"/>
<text text-anchor="start" x="260" y="-346.2" font-family="Helvetica,sans-Serif" font-size="11.00">26 rows</text>
<polygon fill="#ffffff" stroke="none" points="306,-340 306,-358 345,-358 345,-340 306,-340"/>
<polygon fill="none" stroke="black" points="306,-340 306,-358 345,-358 345,-340 306,-340"/>
<text text-anchor="start" x="318" y="-346.2" font-family="Helvetica,sans-Serif" font-size="11.00">10 &gt;</text>
</a>
</g>
</g>
<!-- ansible_ansibledistribution&#45;&gt;core_repository -->
<g id="edge1" class="edge"><title>ansible_ansibledistribution:elipses:w&#45;&gt;core_repository:pulp_id:e</title>
<path fill="none" stroke="black" d="M765.713,-459.033C605.871,-459.749 558.723,-471.583 394,-445 372.062,-441.46 368.222,-431 346,-431"/>
<polygon fill="black" stroke="black" points="772.5,-459.018 780.508,-462.6 776.5,-459.009 780.5,-459 780.5,-459 780.5,-459 776.5,-459.009 780.492,-455.4 772.5,-459.018 772.5,-459.018"/>
<ellipse fill="none" stroke="black" cx="769.3" cy="-459.025" rx="3.2" ry="3.2"/>
</g>
<!-- core_repositoryversion -->
<g id="node3" class="node"><title>core_repositoryversion</title>
<g id="a_node3"><a xlink:href="../../tables/core_repositoryversion.html" xlink:title="core_repositoryversion" target="_top">
<polygon fill="#ffffff" stroke="none" points="470.5,-483 470.5,-541 649.5,-541 649.5,-483 470.5,-483"/>
<polygon fill="#f5f5f5" stroke="none" points="471,-519 471,-541 650,-541 650,-519 471,-519"/>
<polygon fill="none" stroke="black" points="471,-519 471,-541 650,-541 650,-519 471,-519"/>
<text text-anchor="start" x="476" y="-528.2" font-family="Helvetica,sans-Serif" font-weight="bold" font-size="11.00">core_repositoryversion</text>
<text text-anchor="start" x="611" y="-527.2" font-family="Helvetica,sans-Serif" font-size="11.00">[table]</text>
<polygon fill="none" stroke="black" points="471,-501 471,-519 650,-519 650,-501 471,-501"/>
<text text-anchor="start" x="474" y="-507.2" font-family="Helvetica,sans-Serif" font-size="11.00">...</text>
<polygon fill="#ffffff" stroke="none" points="471,-483 471,-501 533,-501 533,-483 471,-483"/>
<polygon fill="none" stroke="black" points="471,-483 471,-501 533,-501 533,-483 471,-483"/>
<text text-anchor="start" x="474" y="-489.2" font-family="Helvetica,sans-Serif" font-size="11.00">&lt; 2</text>
<polygon fill="#ffffff" stroke="none" points="533,-483 533,-501 607,-501 607,-483 533,-483"/>
<polygon fill="none" stroke="black" points="533,-483 533,-501 607,-501 607,-483 533,-483"/>
<text text-anchor="start" x="555" y="-489.2" font-family="Helvetica,sans-Serif" font-size="11.00">162 rows</text>
<polygon fill="#ffffff" stroke="none" points="607,-483 607,-501 650,-501 650,-483 607,-483"/>
<polygon fill="none" stroke="black" points="607,-483 607,-501 650,-501 650,-483 607,-483"/>
<text text-anchor="start" x="630" y="-489.2" font-family="Helvetica,sans-Serif" font-size="11.00">7 &gt;</text>
</a>
</g>
</g>
<!-- ansible_ansibledistribution&#45;&gt;core_repositoryversion -->
<g id="edge2" class="edge"><title>ansible_ansibledistribution:elipses:w&#45;&gt;core_repositoryversion:elipses:e</title>
<path fill="none" stroke="black" d="M766.035,-460.019C717.275,-467.207 707.663,-510 651,-510"/>
<polygon fill="black" stroke="black" points="772.52,-459.562 780.753,-462.591 776.51,-459.281 780.5,-459 780.5,-459 780.5,-459 776.51,-459.281 780.247,-455.409 772.52,-459.562 772.52,-459.562"/>
<ellipse fill="none" stroke="black" cx="769.328" cy="-459.787" rx="3.2" ry="3.2"/>
</g>
<!-- core_remote -->
<g id="node14" class="node"><title>core_remote</title>
<g id="a_node14"><a xlink:href="../../tables/core_remote.html" xlink:title="core_remote" target="_top">
<polygon fill="#ffffff" stroke="none" points="19,-360 19,-418 139,-418 139,-360 19,-360"/>
<polygon fill="#f5f5f5" stroke="none" points="19,-396 19,-418 139,-418 139,-396 19,-396"/>
<polygon fill="none" stroke="black" points="19,-396 19,-418 139,-418 139,-396 19,-396"/>
<text text-anchor="start" x="24" y="-405.2" font-family="Helvetica,sans-Serif" font-weight="bold" font-size="11.00">core_remote</text>
<text text-anchor="start" x="100" y="-404.2" font-family="Helvetica,sans-Serif" font-size="11.00">[table]</text>
<polygon fill="none" stroke="black" points="19,-378 19,-396 139,-396 139,-378 19,-378"/>
<text text-anchor="start" x="22" y="-384.2" font-family="Helvetica,sans-Serif" font-size="11.00">...</text>
<polygon fill="#ffffff" stroke="none" points="19,-360 19,-378 53,-378 53,-360 19,-360"/>
<polygon fill="none" stroke="black" points="19,-360 19,-378 53,-378 53,-360 19,-360"/>
<text text-anchor="start" x="22" y="-366.2" font-family="Helvetica,sans-Serif" font-size="11.00"> &#160;</text>
<polygon fill="#ffffff" stroke="none" points="53,-360 53,-378 105,-378 105,-360 53,-360"/>
<polygon fill="none" stroke="black" points="53,-360 53,-378 105,-378 105,-360 53,-360"/>
<text text-anchor="start" x="66" y="-366.2" font-family="Helvetica,sans-Serif" font-size="11.00">7 rows</text>
<polygon fill="#ffffff" stroke="none" points="105,-360 105,-378 139,-378 139,-360 105,-360"/>
<polygon fill="none" stroke="black" points="105,-360 105,-378 139,-378 139,-360 105,-360"/>
<text text-anchor="start" x="119" y="-366.2" font-family="Helvetica,sans-Serif" font-size="11.00">6 &gt;</text>
</a>
</g>
</g>
<!-- core_repository&#45;&gt;core_remote -->
<g id="edge14" class="edge"><title>core_repository:remote_id:w&#45;&gt;core_remote:elipses:e</title>
<path fill="none" stroke="black" d="M192.581,-387C173.736,-387 164.311,-387 140,-387"/>
<polygon fill="black" stroke="black" points="199,-387 207,-390.6 203,-387 207,-387 207,-387 207,-387 203,-387 207,-383.4 199,-387 199,-387"/>
<ellipse fill="none" stroke="black" cx="195.8" cy="-387" rx="3.2" ry="3.2"/>
</g>
<!-- core_repositoryversion&#45;&gt;core_repository -->
<g id="edge18" class="edge"><title>core_repositoryversion:elipses:w&#45;&gt;core_repository:pulp_id:e</title>
<path fill="none" stroke="black" d="M455.591,-508.872C429.532,-504.38 421.549,-487.135 394,-469 371.273,-454.039 373.209,-431 346,-431"/>
<polygon fill="black" stroke="black" points="462.024,-509.375 469.719,-513.589 466.012,-509.688 470,-510 470,-510 470,-510 466.012,-509.688 470.281,-506.411 462.024,-509.375 462.024,-509.375"/>
<ellipse fill="none" stroke="black" cx="458.834" cy="-509.126" rx="3.2" ry="3.2"/>
</g>
<!-- ansible_ansiblerepository -->
<g id="node4" class="node"><title>ansible_ansiblerepository</title>
<g id="a_node4"><a xlink:href="../../tables/ansible_ansiblerepository.html" xlink:title="ansible_ansiblerepository" target="_top">
<polygon fill="#ffffff" stroke="none" points="462.5,-377 462.5,-435 657.5,-435 657.5,-377 462.5,-377"/>
<polygon fill="#f5f5f5" stroke="none" points="463,-413 463,-435 658,-435 658,-413 463,-413"/>
<polygon fill="none" stroke="black" points="463,-413 463,-435 658,-435 658,-413 463,-413"/>
<text text-anchor="start" x="468" y="-422.2" font-family="Helvetica,sans-Serif" font-weight="bold" font-size="11.00">ansible_ansiblerepository</text>
<text text-anchor="start" x="619" y="-421.2" font-family="Helvetica,sans-Serif" font-size="11.00">[table]</text>
<polygon fill="none" stroke="black" points="463,-395 463,-413 658,-413 658,-395 463,-395"/>
<text text-anchor="start" x="466" y="-401.2" font-family="Helvetica,sans-Serif" font-size="11.00">...</text>
<polygon fill="#ffffff" stroke="none" points="463,-377 463,-395 536,-395 536,-377 463,-377"/>
<polygon fill="none" stroke="black" points="463,-377 463,-395 536,-395 536,-377 463,-377"/>
<text text-anchor="start" x="466" y="-383.2" font-family="Helvetica,sans-Serif" font-size="11.00">&lt; 1</text>
<polygon fill="#ffffff" stroke="none" points="536,-377 536,-395 610,-395 610,-377 536,-377"/>
<polygon fill="none" stroke="black" points="536,-377 536,-395 610,-395 610,-377 536,-377"/>
<text text-anchor="start" x="564" y="-383.2" font-family="Helvetica,sans-Serif" font-size="11.00">26 rows</text>
<polygon fill="#ffffff" stroke="none" points="610,-377 610,-395 658,-395 658,-377 610,-377"/>
<polygon fill="none" stroke="black" points="610,-377 610,-395 658,-395 658,-377 610,-377"/>
<text text-anchor="start" x="638" y="-383.2" font-family="Helvetica,sans-Serif" font-size="11.00">2 &gt;</text>
</a>
</g>
</g>
<!-- ansible_ansiblerepository&#45;&gt;core_repository -->
<g id="edge3" class="edge"><title>ansible_ansiblerepository:elipses:w&#45;&gt;core_repository:pulp_id:e</title>
<path fill="none" stroke="black" d="M451.439,-404.382C407.43,-407.663 395.212,-431 346,-431"/>
<polygon fill="black" stroke="black" points="461.056,-400.032 461.345,-408.026 459.746,-408.084 459.457,-400.089 461.056,-400.032"/>
<polyline fill="none" stroke="black" points="462,-404 458.003,-404.145 "/>
<ellipse fill="none" stroke="black" cx="454.805" cy="-404.26" rx="3.2" ry="3.2"/>
</g>
<!-- container_containerdistribution -->
<g id="node5" class="node"><title>container_containerdistribution</title>
<g id="a_node5"><a xlink:href="../../tables/container_containerdistribution.html" xlink:title="container_containerdistribution" target="_top">
<polygon fill="#ffffff" stroke="none" points="767,-339 767,-397 1000,-397 1000,-339 767,-339"/>
<polygon fill="#f5f5f5" stroke="none" points="767.5,-375 767.5,-397 1000.5,-397 1000.5,-375 767.5,-375"/>
<polygon fill="none" stroke="black" points="767.5,-375 767.5,-397 1000.5,-397 1000.5,-375 767.5,-375"/>
<text text-anchor="start" x="772.5" y="-384.2" font-family="Helvetica,sans-Serif" font-weight="bold" font-size="11.00">container_containerdistribution</text>
<text text-anchor="start" x="961.5" y="-383.2" font-family="Helvetica,sans-Serif" font-size="11.00">[table]</text>
<polygon fill="none" stroke="black" points="767.5,-357 767.5,-375 1000.5,-375 1000.5,-357 767.5,-357"/>
<text text-anchor="start" x="770.5" y="-363.2" font-family="Helvetica,sans-Serif" font-size="11.00">...</text>
<polygon fill="#ffffff" stroke="none" points="767.5,-339 767.5,-357 867.5,-357 867.5,-339 767.5,-339"/>
<polygon fill="none" stroke="black" points="767.5,-339 767.5,-357 867.5,-357 867.5,-339 767.5,-339"/>
<text text-anchor="start" x="770.5" y="-345.2" font-family="Helvetica,sans-Serif" font-size="11.00">&lt; 3</text>
<polygon fill="#ffffff" stroke="none" points="867.5,-339 867.5,-357 948.5,-357 948.5,-339 867.5,-339"/>
<polygon fill="none" stroke="black" points="867.5,-339 867.5,-357 948.5,-357 948.5,-339 867.5,-339"/>
<text text-anchor="start" x="909.5" y="-345.2" font-family="Helvetica,sans-Serif" font-size="11.00">0 rows</text>
<polygon fill="#ffffff" stroke="none" points="948.5,-339 948.5,-357 1000.5,-357 1000.5,-339 948.5,-339"/>
<polygon fill="none" stroke="black" points="948.5,-339 948.5,-357 1000.5,-357 1000.5,-339 948.5,-339"/>
<text text-anchor="start" x="990.5" y="-345.2" font-family="Helvetica,sans-Serif" font-size="11.00"> &#160;</text>
</a>
</g>
</g>
<!-- container_containerdistribution&#45;&gt;core_repository -->
<g id="edge4" class="edge"><title>container_containerdistribution:elipses:w&#45;&gt;core_repository:pulp_id:e</title>
<path fill="none" stroke="black" d="M752.053,-365.695C660.948,-362.209 463.931,-330.709 394,-366 361.939,-382.18 381.912,-431 346,-431"/>
<polygon fill="black" stroke="black" points="758.502,-365.831 766.424,-369.599 762.501,-365.915 766.5,-366 766.5,-366 766.5,-366 762.501,-365.915 766.576,-362.401 758.502,-365.831 758.502,-365.831"/>
<ellipse fill="none" stroke="black" cx="755.303" cy="-365.763" rx="3.2" ry="3.2"/>
</g>
<!-- container_containerdistribution&#45;&gt;core_repositoryversion -->
<g id="edge5" class="edge"><title>container_containerdistribution:elipses:w&#45;&gt;core_repositoryversion:elipses:e</title>
<path fill="none" stroke="black" d="M752.181,-369.265C733.164,-380.573 746.548,-418.807 726,-445 698.774,-479.705 695.11,-510 651,-510"/>
<polygon fill="black" stroke="black" points="758.7,-367.779 767.3,-369.51 762.6,-366.889 766.5,-366 766.5,-366 766.5,-366 762.6,-366.889 765.7,-362.49 758.7,-367.779 758.7,-367.779"/>
<ellipse fill="none" stroke="black" cx="755.58" cy="-368.49" rx="3.2" ry="3.2"/>
</g>
<!-- container_containerpushrepository -->
<g id="node6" class="node"><title>container_containerpushrepository</title>
<g id="a_node6"><a xlink:href="../../tables/container_containerpushrepository.html" xlink:title="container_containerpushrepository" target="_top">
<polygon fill="#ffffff" stroke="none" points="434.5,-271 434.5,-329 685.5,-329 685.5,-271 434.5,-271"/>
<polygon fill="#f5f5f5" stroke="none" points="435,-307 435,-329 686,-329 686,-307 435,-307"/>
<polygon fill="none" stroke="black" points="435,-307 435,-329 686,-329 686,-307 435,-307"/>
<text text-anchor="start" x="440" y="-316.2" font-family="Helvetica,sans-Serif" font-weight="bold" font-size="11.00">container_containerpushrepository</text>
<text text-anchor="start" x="647" y="-315.2" font-family="Helvetica,sans-Serif" font-size="11.00">[table]</text>
<polygon fill="none" stroke="black" points="435,-289 435,-307 686,-307 686,-289 435,-289"/>
<text text-anchor="start" x="438" y="-295.2" font-family="Helvetica,sans-Serif" font-size="11.00">...</text>
<polygon fill="#ffffff" stroke="none" points="435,-271 435,-289 544,-289 544,-271 435,-271"/>
<polygon fill="none" stroke="black" points="435,-271 435,-289 544,-289 544,-271 435,-271"/>
<text text-anchor="start" x="438" y="-277.2" font-family="Helvetica,sans-Serif" font-size="11.00">&lt; 1</text>
<polygon fill="#ffffff" stroke="none" points="544,-271 544,-289 629,-289 629,-271 544,-271"/>
<polygon fill="none" stroke="black" points="544,-271 544,-289 629,-289 629,-271 544,-271"/>
<text text-anchor="start" x="590" y="-277.2" font-family="Helvetica,sans-Serif" font-size="11.00">0 rows</text>
<polygon fill="#ffffff" stroke="none" points="629,-271 629,-289 686,-289 686,-271 629,-271"/>
<polygon fill="none" stroke="black" points="629,-271 629,-289 686,-289 686,-271 629,-271"/>
<text text-anchor="start" x="676" y="-277.2" font-family="Helvetica,sans-Serif" font-size="11.00"> &#160;</text>
</a>
</g>
</g>
<!-- container_containerpushrepository&#45;&gt;core_repository -->
<g id="edge6" class="edge"><title>container_containerpushrepository:elipses:w&#45;&gt;core_repository:pulp_id:e</title>
<path fill="none" stroke="black" d="M423.449,-299.15C368.628,-312.149 413.003,-431 346,-431"/>
<polygon fill="black" stroke="black" points="432.771,-294.11 433.638,-302.063 432.047,-302.236 431.181,-294.284 432.771,-294.11"/>
<polyline fill="none" stroke="black" points="434,-298 430.024,-298.433 "/>
<ellipse fill="none" stroke="black" cx="426.842" cy="-298.78" rx="3.2" ry="3.2"/>
</g>
<!-- container_containerrepository -->
<g id="node7" class="node"><title>container_containerrepository</title>
<g id="a_node7"><a xlink:href="../../tables/container_containerrepository.html" xlink:title="container_containerrepository" target="_top">
<polygon fill="#ffffff" stroke="none" points="448.5,-192 448.5,-250 671.5,-250 671.5,-192 448.5,-192"/>
<polygon fill="#f5f5f5" stroke="none" points="449,-228 449,-250 672,-250 672,-228 449,-228"/>
<polygon fill="none" stroke="black" points="449,-228 449,-250 672,-250 672,-228 449,-228"/>
<text text-anchor="start" x="454" y="-237.2" font-family="Helvetica,sans-Serif" font-weight="bold" font-size="11.00">container_containerrepository</text>
<text text-anchor="start" x="633" y="-236.2" font-family="Helvetica,sans-Serif" font-size="11.00">[table]</text>
<polygon fill="none" stroke="black" points="449,-210 449,-228 672,-228 672,-210 449,-210"/>
<text text-anchor="start" x="452" y="-216.2" font-family="Helvetica,sans-Serif" font-size="11.00">...</text>
<polygon fill="#ffffff" stroke="none" points="449,-192 449,-210 544,-210 544,-192 449,-192"/>
<polygon fill="none" stroke="black" points="449,-192 449,-210 544,-210 544,-192 449,-192"/>
<text text-anchor="start" x="452" y="-198.2" font-family="Helvetica,sans-Serif" font-size="11.00">&lt; 1</text>
<polygon fill="#ffffff" stroke="none" points="544,-192 544,-210 622,-210 622,-192 544,-192"/>
<polygon fill="none" stroke="black" points="544,-192 544,-210 622,-210 622,-192 544,-192"/>
<text text-anchor="start" x="583" y="-198.2" font-family="Helvetica,sans-Serif" font-size="11.00">0 rows</text>
<polygon fill="#ffffff" stroke="none" points="622,-192 622,-210 672,-210 672,-192 622,-192"/>
<polygon fill="none" stroke="black" points="622,-192 622,-210 672,-210 672,-192 622,-192"/>
<text text-anchor="start" x="662" y="-198.2" font-family="Helvetica,sans-Serif" font-size="11.00"> &#160;</text>
</a>
</g>
</g>
<!-- container_containerrepository&#45;&gt;core_repository -->
<g id="edge7" class="edge"><title>container_containerrepository:elipses:w&#45;&gt;core_repository:pulp_id:e</title>
<path fill="none" stroke="black" d="M437.433,-219.786C415.917,-223.294 408.768,-238.299 394,-260 349.59,-325.26 424.937,-431 346,-431"/>
<polygon fill="black" stroke="black" points="446.905,-215.07 447.499,-223.048 445.904,-223.167 445.31,-215.189 446.905,-215.07"/>
<polyline fill="none" stroke="black" points="448,-219 444.011,-219.297 "/>
<ellipse fill="none" stroke="black" cx="440.82" cy="-219.534" rx="3.2" ry="3.2"/>
</g>
<!-- container_upload -->
<g id="node8" class="node"><title>container_upload</title>
<g id="a_node8"><a xlink:href="../../tables/container_upload.html" xlink:title="container_upload" target="_top">
<polygon fill="#ffffff" stroke="none" points="486,-668 486,-726 634,-726 634,-668 486,-668"/>
<polygon fill="#f5f5f5" stroke="none" points="486,-704 486,-726 634,-726 634,-704 486,-704"/>
<polygon fill="none" stroke="black" points="486,-704 486,-726 634,-726 634,-704 486,-704"/>
<text text-anchor="start" x="491" y="-713.2" font-family="Helvetica,sans-Serif" font-weight="bold" font-size="11.00">container_upload</text>
<text text-anchor="start" x="595" y="-712.2" font-family="Helvetica,sans-Serif" font-size="11.00">[table]</text>
<polygon fill="none" stroke="black" points="486,-686 486,-704 634,-704 634,-686 486,-686"/>
<text text-anchor="start" x="489" y="-692.2" font-family="Helvetica,sans-Serif" font-size="11.00">...</text>
<polygon fill="#ffffff" stroke="none" points="486,-668 486,-686 544,-686 544,-668 486,-668"/>
<polygon fill="none" stroke="black" points="486,-668 486,-686 544,-686 544,-668 486,-668"/>
<text text-anchor="start" x="489" y="-674.2" font-family="Helvetica,sans-Serif" font-size="11.00">&lt; 1</text>
<polygon fill="#ffffff" stroke="none" points="544,-668 544,-686 603,-686 603,-668 544,-668"/>
<polygon fill="none" stroke="black" points="544,-668 544,-686 603,-686 603,-668 544,-668"/>
<text text-anchor="start" x="564" y="-674.2" font-family="Helvetica,sans-Serif" font-size="11.00">0 rows</text>
<polygon fill="#ffffff" stroke="none" points="603,-668 603,-686 634,-686 634,-668 603,-668"/>
<polygon fill="none" stroke="black" points="603,-668 603,-686 634,-686 634,-668 603,-668"/>
<text text-anchor="start" x="624" y="-674.2" font-family="Helvetica,sans-Serif" font-size="11.00"> &#160;</text>
</a>
</g>
</g>
<!-- container_upload&#45;&gt;core_repository -->
<g id="edge8" class="edge"><title>container_upload:elipses:w&#45;&gt;core_repository:pulp_id:e</title>
<path fill="none" stroke="black" d="M470.6,-694.813C436.69,-693.766 418.727,-687.566 394,-658 327.845,-578.898 449.12,-431 346,-431"/>
<polygon fill="black" stroke="black" points="477.001,-694.896 484.953,-698.6 481,-694.948 485,-695 485,-695 485,-695 481,-694.948 485.047,-691.4 477.001,-694.896 477.001,-694.896"/>
<ellipse fill="none" stroke="black" cx="473.801" cy="-694.854" rx="3.2" ry="3.2"/>
</g>
<!-- core_pulpexporter -->
<g id="node9" class="node"><title>core_pulpexporter</title>
<g id="a_node9"><a xlink:href="../../tables/core_pulpexporter.html" xlink:title="core_pulpexporter" target="_top">
<polygon fill="#ffffff" stroke="none" points="199,-45 199,-147 353,-147 353,-45 199,-45"/>
<polygon fill="#f5f5f5" stroke="none" points="199,-125 199,-147 353,-147 353,-125 199,-125"/>
<polygon fill="none" stroke="black" points="199,-125 199,-147 353,-147 353,-125 199,-125"/>
<text text-anchor="start" x="204" y="-134.2" font-family="Helvetica,sans-Serif" font-weight="bold" font-size="11.00">core_pulpexporter</text>
<text text-anchor="start" x="314" y="-133.2" font-family="Helvetica,sans-Serif" font-size="11.00">[table]</text>
<polygon fill="none" stroke="black" points="199,-103 199,-125 353,-125 353,-103 199,-103"/>
<image xlink:href="../../images/primaryKeys.png" width="11px" height="12px" preserveAspectRatio="xMinYMin meet" x="204" y="-120"/>
<text text-anchor="start" x="231" y="-111.2" font-family="Helvetica,sans-Serif" font-size="11.00">exporter_ptr_id</text>
<polygon fill="#ffffff" stroke="none" points="199,-81 199,-103 353,-103 353,-81 199,-81"/>
<polygon fill="none" stroke="black" points="199,-81 199,-103 353,-103 353,-81 199,-81"/>
<image xlink:href="../../images/foreignKeys.png" width="11px" height="12px" preserveAspectRatio="xMinYMin meet" x="204" y="-98"/>
<text text-anchor="start" x="231" y="-89.2" font-family="Helvetica,sans-Serif" font-size="11.00">last_export_id</text>
<polygon fill="none" stroke="black" points="199,-63 199,-81 353,-81 353,-63 199,-63"/>
<text text-anchor="start" x="202" y="-69.2" font-family="Helvetica,sans-Serif" font-size="11.00">...</text>
<polygon fill="#ffffff" stroke="none" points="199,-45 199,-63 255,-63 255,-45 199,-45"/>
<polygon fill="none" stroke="black" points="199,-45 199,-63 255,-63 255,-45 199,-45"/>
<text text-anchor="start" x="202" y="-51.2" font-family="Helvetica,sans-Serif" font-size="11.00">&lt; 2</text>
<polygon fill="#ffffff" stroke="none" points="255,-45 255,-63 313,-63 313,-45 255,-45"/>
<polygon fill="none" stroke="black" points="255,-45 255,-63 313,-63 313,-45 255,-45"/>
<text text-anchor="start" x="274" y="-51.2" font-family="Helvetica,sans-Serif" font-size="11.00">0 rows</text>
<polygon fill="#ffffff" stroke="none" points="313,-45 313,-63 353,-63 353,-45 313,-45"/>
<polygon fill="none" stroke="black" points="313,-45 313,-63 353,-63 353,-45 313,-45"/>
<text text-anchor="start" x="333" y="-51.2" font-family="Helvetica,sans-Serif" font-size="11.00">1 &gt;</text>
</a>
</g>
</g>
<!-- core_exporter -->
<g id="node10" class="node"><title>core_exporter</title>
<g id="a_node10"><a xlink:href="../../tables/core_exporter.html" xlink:title="core_exporter" target="_top">
<polygon fill="#ffffff" stroke="none" points="15,-116 15,-174 143,-174 143,-116 15,-116"/>
<polygon fill="#f5f5f5" stroke="none" points="15,-152 15,-174 143,-174 143,-152 15,-152"/>
<polygon fill="none" stroke="black" points="15,-152 15,-174 143,-174 143,-152 15,-152"/>
<text text-anchor="start" x="20" y="-161.2" font-family="Helvetica,sans-Serif" font-weight="bold" font-size="11.00">core_exporter</text>
<text text-anchor="start" x="104" y="-160.2" font-family="Helvetica,sans-Serif" font-size="11.00">[table]</text>
<polygon fill="none" stroke="black" points="15,-134 15,-152 143,-152 143,-134 15,-134"/>
<text text-anchor="start" x="18" y="-140.2" font-family="Helvetica,sans-Serif" font-size="11.00">...</text>
<polygon fill="#ffffff" stroke="none" points="15,-116 15,-134 53,-134 53,-116 15,-116"/>
<polygon fill="none" stroke="black" points="15,-116 15,-134 53,-134 53,-116 15,-116"/>
<text text-anchor="start" x="18" y="-122.2" font-family="Helvetica,sans-Serif" font-size="11.00"> &#160;</text>
<polygon fill="#ffffff" stroke="none" points="53,-116 53,-134 107,-134 107,-116 53,-116"/>
<polygon fill="none" stroke="black" points="53,-116 53,-134 107,-134 107,-116 53,-116"/>
<text text-anchor="start" x="68" y="-122.2" font-family="Helvetica,sans-Serif" font-size="11.00">0 rows</text>
<polygon fill="#ffffff" stroke="none" points="107,-116 107,-134 143,-134 143,-116 107,-116"/>
<polygon fill="none" stroke="black" points="107,-116 107,-134 143,-134 143,-116 107,-116"/>
<text text-anchor="start" x="123" y="-122.2" font-family="Helvetica,sans-Serif" font-size="11.00">2 &gt;</text>
</a>
</g>
</g>
<!-- core_pulpexporter&#45;&gt;core_exporter -->
<g id="edge9" class="edge"><title>core_pulpexporter:exporter_ptr_id:w&#45;&gt;core_exporter:elipses:e</title>
<path fill="none" stroke="black" d="M187.52,-115.727C170.291,-121.97 167.198,-143 144,-143"/>
<polygon fill="black" stroke="black" points="196.56,-110.183 197.861,-118.077 196.282,-118.337 194.981,-110.444 196.56,-110.183"/>
<polyline fill="none" stroke="black" points="198,-114 194.053,-114.651 "/>
<ellipse fill="none" stroke="black" cx="190.896" cy="-115.171" rx="3.2" ry="3.2"/>
</g>
<!-- core_pulpexport -->
<g id="node11" class="node"><title>core_pulpexport</title>
<g id="a_node11"><a xlink:href="../../tables/core_pulpexport.html" xlink:title="core_pulpexport" target="_top">
<polygon fill="#ffffff" stroke="none" points="8,-37 8,-95 150,-95 150,-37 8,-37"/>
<polygon fill="#f5f5f5" stroke="none" points="8,-73 8,-95 150,-95 150,-73 8,-73"/>
<polygon fill="none" stroke="black" points="8,-73 8,-95 150,-95 150,-73 8,-73"/>
<text text-anchor="start" x="13" y="-82.2" font-family="Helvetica,sans-Serif" font-weight="bold" font-size="11.00">core_pulpexport</text>
<text text-anchor="start" x="111" y="-81.2" font-family="Helvetica,sans-Serif" font-size="11.00">[table]</text>
<polygon fill="none" stroke="black" points="8,-55 8,-73 150,-73 150,-55 8,-55"/>
<text text-anchor="start" x="11" y="-61.2" font-family="Helvetica,sans-Serif" font-size="11.00">...</text>
<polygon fill="#ffffff" stroke="none" points="8,-37 8,-55 58,-55 58,-37 8,-37"/>
<polygon fill="none" stroke="black" points="8,-37 8,-55 58,-55 58,-37 8,-37"/>
<text text-anchor="start" x="11" y="-43.2" font-family="Helvetica,sans-Serif" font-size="11.00">&lt; 1</text>
<polygon fill="#ffffff" stroke="none" points="58,-37 58,-55 113,-55 113,-37 58,-37"/>
<polygon fill="none" stroke="black" points="58,-37 58,-55 113,-55 113,-37 58,-37"/>
<text text-anchor="start" x="74" y="-43.2" font-family="Helvetica,sans-Serif" font-size="11.00">0 rows</text>
<polygon fill="#ffffff" stroke="none" points="113,-37 113,-55 150,-55 150,-37 113,-37"/>
<polygon fill="none" stroke="black" points="113,-37 113,-55 150,-55 150,-37 113,-37"/>
<text text-anchor="start" x="130" y="-43.2" font-family="Helvetica,sans-Serif" font-size="11.00">1 &gt;</text>
</a>
</g>
</g>
<!-- core_pulpexporter&#45;&gt;core_pulpexport -->
<g id="edge10" class="edge"><title>core_pulpexporter:last_export_id:w&#45;&gt;core_pulpexport:elipses:e</title>
<path fill="none" stroke="black" d="M184.162,-87.8685C172.953,-80.0798 169.426,-64 151,-64"/>
<polygon fill="black" stroke="black" points="190.334,-89.7113 196.97,-95.4495 194.167,-90.8557 198,-92 198,-92 198,-92 194.167,-90.8557 199.03,-88.5505 190.334,-89.7113 190.334,-89.7113"/>
<ellipse fill="none" stroke="black" cx="187.268" cy="-88.7958" rx="3.20001" ry="3.20001"/>
</g>
<!-- core_pulpexporter_repositories -->
<g id="node12" class="node"><title>core_pulpexporter_repositories</title>
<g id="a_node12"><a xlink:href="../../tables/core_pulpexporter_repositories.html" xlink:title="core_pulpexporter_repositories" target="_top">
<polygon fill="#ffffff" stroke="none" points="402,-61 402,-171 718,-171 718,-61 402,-61"/>
<polygon fill="#f5f5f5" stroke="none" points="404,-147 404,-169 716,-169 716,-147 404,-147"/>
<polygon fill="none" stroke="black" points="404,-147 404,-169 716,-169 716,-147 404,-147"/>
<text text-anchor="start" x="409" y="-156.2" font-family="Helvetica,sans-Serif" font-weight="bold" font-size="11.00">core_pulpexporter_repositories</text>
<text text-anchor="start" x="677" y="-155.2" font-family="Helvetica,sans-Serif" font-size="11.00">[table]</text>
<polygon fill="none" stroke="black" points="404,-125 404,-147 611,-147 611,-125 404,-125"/>
<image xlink:href="../../images/primaryKeys.png" width="11px" height="12px" preserveAspectRatio="xMinYMin meet" x="409" y="-142"/>
<text text-anchor="start" x="424" y="-133.2" font-family="Helvetica,sans-Serif" font-size="11.00">id</text>
<polygon fill="none" stroke="black" points="611,-125 611,-147 716,-147 716,-125 611,-125"/>
<text text-anchor="start" x="614" y="-133.2" font-family="Helvetica,sans-Serif" font-size="11.00">serial[10]</text>
<polygon fill="#ffffff" stroke="none" points="404,-103 404,-125 611,-125 611,-103 404,-103"/>
<polygon fill="none" stroke="black" points="404,-103 404,-125 611,-125 611,-103 404,-103"/>
<image xlink:href="../../images/foreignKeys.png" width="11px" height="12px" preserveAspectRatio="xMinYMin meet" x="409" y="-120"/>
<text text-anchor="start" x="424" y="-111.2" font-family="Helvetica,sans-Serif" font-size="11.00">pulpexporter_id</text>
<polygon fill="none" stroke="black" points="611,-103 611,-125 716,-125 716,-103 611,-103"/>
<text text-anchor="start" x="614" y="-111.2" font-family="Helvetica,sans-Serif" font-size="11.00">uuid[2147483647]</text>
<polygon fill="#ffffff" stroke="none" points="404,-81 404,-103 611,-103 611,-81 404,-81"/>
<polygon fill="none" stroke="black" points="404,-81 404,-103 611,-103 611,-81 404,-81"/>
<image xlink:href="../../images/foreignKeys.png" width="11px" height="12px" preserveAspectRatio="xMinYMin meet" x="409" y="-98"/>
<text text-anchor="start" x="424" y="-89.2" font-family="Helvetica,sans-Serif" font-size="11.00">repository_id</text>
<polygon fill="none" stroke="black" points="611,-81 611,-103 716,-103 716,-81 611,-81"/>
<text text-anchor="start" x="614" y="-89.2" font-family="Helvetica,sans-Serif" font-size="11.00">uuid[2147483647]</text>
<polygon fill="#ffffff" stroke="none" points="404,-63 404,-81 498,-81 498,-63 404,-63"/>
<polygon fill="none" stroke="black" points="404,-63 404,-81 498,-81 498,-63 404,-63"/>
<text text-anchor="start" x="407" y="-69.2" font-family="Helvetica,sans-Serif" font-size="11.00">&lt; 2</text>
<polygon fill="#ffffff" stroke="none" points="498,-63 498,-81 611,-81 611,-63 498,-63"/>
<polygon fill="none" stroke="black" points="498,-63 498,-81 611,-81 611,-63 498,-63"/>
<text text-anchor="start" x="572" y="-69.2" font-family="Helvetica,sans-Serif" font-size="11.00">0 rows</text>
<polygon fill="#ffffff" stroke="none" points="611,-63 611,-81 716,-81 716,-63 611,-63"/>
<polygon fill="none" stroke="black" points="611,-63 611,-81 716,-81 716,-63 611,-63"/>
<text text-anchor="start" x="696" y="-69.2" font-family="Helvetica,sans-Serif" font-size="11.00">0 &gt;</text>
<polygon fill="none" stroke="black" stroke-width="2" points="403,-62 403,-170 717,-170 717,-62 403,-62"/>
</a>
</g>
</g>
<!-- core_pulpexporter_repositories&#45;&gt;core_repository -->
<g id="edge12" class="edge"><title>core_pulpexporter_repositories:repository_id:w&#45;&gt;core_repository:pulp_id:e</title>
<path fill="none" stroke="black" d="M389.32,-96.7922C339.227,-137.996 417.02,-431 346,-431"/>
<polygon fill="black" stroke="black" points="395.45,-94.6449 404.19,-95.3976 399.225,-93.3225 403,-92 403,-92 403,-92 399.225,-93.3225 401.81,-88.6024 395.45,-94.6449 395.45,-94.6449"/>
<ellipse fill="none" stroke="black" cx="392.43" cy="-95.7029" rx="3.20001" ry="3.20001"/>
</g>
<!-- core_pulpexporter_repositories&#45;&gt;core_pulpexporter -->
<g id="edge11" class="edge"><title>core_pulpexporter_repositories:pulpexporter_id:w&#45;&gt;core_pulpexporter:exporter_ptr_id:e</title>
<path fill="none" stroke="black" d="M388.491,-114C377.177,-114 369.993,-114 354,-114"/>
<polygon fill="black" stroke="black" points="395,-114 403,-117.6 399,-114 403,-114 403,-114 403,-114 399,-114 403,-110.4 395,-114 395,-114"/>
<ellipse fill="none" stroke="black" cx="391.8" cy="-114" rx="3.2" ry="3.2"/>
</g>
<!-- core_pulpimporterrepository -->
<g id="node13" class="node"><title>core_pulpimporterrepository</title>
<g id="a_node13"><a xlink:href="../../tables/core_pulpimporterrepository.html" xlink:title="core_pulpimporterrepository" target="_top">
<polygon fill="#ffffff" stroke="none" points="452.5,-589 452.5,-647 667.5,-647 667.5,-589 452.5,-589"/>
<polygon fill="#f5f5f5" stroke="none" points="453,-625 453,-647 668,-647 668,-625 453,-625"/>
<polygon fill="none" stroke="black" points="453,-625 453,-647 668,-647 668,-625 453,-625"/>
<text text-anchor="start" x="458" y="-634.2" font-family="Helvetica,sans-Serif" font-weight="bold" font-size="11.00">core_pulpimporterrepository</text>
<text text-anchor="start" x="629" y="-633.2" font-family="Helvetica,sans-Serif" font-size="11.00">[table]</text>
<polygon fill="none" stroke="black" points="453,-607 453,-625 668,-625 668,-607 453,-607"/>
<text text-anchor="start" x="456" y="-613.2" font-family="Helvetica,sans-Serif" font-size="11.00">...</text>
<polygon fill="#ffffff" stroke="none" points="453,-589 453,-607 544,-607 544,-589 453,-589"/>
<polygon fill="none" stroke="black" points="453,-589 453,-607 544,-607 544,-589 453,-589"/>
<text text-anchor="start" x="456" y="-595.2" font-family="Helvetica,sans-Serif" font-size="11.00">&lt; 2</text>
<polygon fill="#ffffff" stroke="none" points="544,-589 544,-607 620,-607 620,-589 544,-589"/>
<polygon fill="none" stroke="black" points="544,-589 544,-607 620,-607 620,-589 544,-589"/>
<text text-anchor="start" x="581" y="-595.2" font-family="Helvetica,sans-Serif" font-size="11.00">0 rows</text>
<polygon fill="#ffffff" stroke="none" points="620,-589 620,-607 668,-607 668,-589 620,-589"/>
<polygon fill="none" stroke="black" points="620,-589 620,-607 668,-607 668,-589 620,-589"/>
<text text-anchor="start" x="658" y="-595.2" font-family="Helvetica,sans-Serif" font-size="11.00"> &#160;</text>
</a>
</g>
</g>
<!-- core_pulpimporterrepository&#45;&gt;core_repository -->
<g id="edge13" class="edge"><title>core_pulpimporterrepository:elipses:w&#45;&gt;core_repository:pulp_id:e</title>
<path fill="none" stroke="black" d="M437.382,-614.581C417.409,-610.197 409.509,-595.891 394,-575 353.788,-520.833 413.462,-431 346,-431"/>
<polygon fill="black" stroke="black" points="444.037,-615.227 451.652,-619.583 448.019,-615.614 452,-616 452,-616 452,-616 448.019,-615.614 452.348,-612.417 444.037,-615.227 444.037,-615.227"/>
<ellipse fill="none" stroke="black" cx="440.852" cy="-614.918" rx="3.2" ry="3.2"/>
</g>
<!-- core_repositorycontent -->
<g id="node15" class="node"><title>core_repositorycontent</title>
<g id="a_node15"><a xlink:href="../../tables/core_repositorycontent.html" xlink:title="core_repositorycontent" target="_top">
<polygon fill="#ffffff" stroke="none" points="792.5,-511 792.5,-569 974.5,-569 974.5,-511 792.5,-511"/>
<polygon fill="#f5f5f5" stroke="none" points="792.5,-547 792.5,-569 974.5,-569 974.5,-547 792.5,-547"/>
<polygon fill="none" stroke="black" points="792.5,-547 792.5,-569 974.5,-569 974.5,-547 792.5,-547"/>
<text text-anchor="start" x="797.5" y="-556.2" font-family="Helvetica,sans-Serif" font-weight="bold" font-size="11.00">core_repositorycontent</text>
<text text-anchor="start" x="935.5" y="-555.2" font-family="Helvetica,sans-Serif" font-size="11.00">[table]</text>
<polygon fill="none" stroke="black" points="792.5,-529 792.5,-547 974.5,-547 974.5,-529 792.5,-529"/>
<text text-anchor="start" x="795.5" y="-535.2" font-family="Helvetica,sans-Serif" font-size="11.00">...</text>
<polygon fill="#ffffff" stroke="none" points="792.5,-511 792.5,-529 860.5,-529 860.5,-511 792.5,-511"/>
<polygon fill="none" stroke="black" points="792.5,-511 792.5,-529 860.5,-529 860.5,-511 792.5,-511"/>
<text text-anchor="start" x="795.5" y="-517.2" font-family="Helvetica,sans-Serif" font-size="11.00">&lt; 4</text>
<polygon fill="#ffffff" stroke="none" points="860.5,-511 860.5,-529 938.5,-529 938.5,-511 860.5,-511"/>
<polygon fill="none" stroke="black" points="860.5,-511 860.5,-529 938.5,-529 938.5,-511 860.5,-511"/>
<text text-anchor="start" x="886.5" y="-517.2" font-family="Helvetica,sans-Serif" font-size="11.00">786 rows</text>
<polygon fill="#ffffff" stroke="none" points="938.5,-511 938.5,-529 974.5,-529 974.5,-511 938.5,-511"/>
<polygon fill="none" stroke="black" points="938.5,-511 938.5,-529 974.5,-529 974.5,-511 938.5,-511"/>
<text text-anchor="start" x="964.5" y="-517.2" font-family="Helvetica,sans-Serif" font-size="11.00"> &#160;</text>
</a>
</g>
</g>
<!-- core_repositorycontent&#45;&gt;core_repository -->
<g id="edge15" class="edge"><title>core_repositorycontent:elipses:w&#45;&gt;core_repository:pulp_id:e</title>
<path fill="none" stroke="black" d="M776.938,-539.024C758.608,-541.805 750.053,-549.458 726,-552 652.631,-559.753 455.034,-593.449 394,-552 346.139,-519.497 403.855,-431 346,-431"/>
<polygon fill="black" stroke="black" points="783.52,-538.561 791.753,-541.591 787.51,-538.281 791.5,-538 791.5,-538 791.5,-538 787.51,-538.281 791.247,-534.409 783.52,-538.561 783.52,-538.561"/>
<ellipse fill="none" stroke="black" cx="780.328" cy="-538.786" rx="3.2" ry="3.2"/>
</g>
<!-- core_repositorycontent&#45;&gt;core_repositoryversion -->
<g id="edge16" class="edge"><title>core_repositorycontent:elipses:w&#45;&gt;core_repositoryversion:elipses:e</title>
<path fill="none" stroke="black" d="M777.124,-536.164C725.397,-527.734 709.574,-504.48 651,-510"/>
<polygon fill="black" stroke="black" points="783.564,-536.987 791.044,-541.571 787.532,-537.493 791.5,-538 791.5,-538 791.5,-538 787.532,-537.493 791.956,-534.429 783.564,-536.987 783.564,-536.987"/>
<ellipse fill="none" stroke="black" cx="780.39" cy="-536.581" rx="3.2" ry="3.2"/>
</g>
<!-- core_repositorycontent&#45;&gt;core_repositoryversion -->
<g id="edge17" class="edge"><title>core_repositorycontent:elipses:w&#45;&gt;core_repositoryversion:elipses:e</title>
<path fill="none" stroke="black" d="M777.124,-539.037C725.397,-540.65 709.574,-516.439 651,-510"/>
<polygon fill="black" stroke="black" points="783.521,-538.576 791.759,-541.591 787.51,-538.288 791.5,-538 791.5,-538 791.5,-538 787.51,-538.288 791.241,-534.409 783.521,-538.576 783.521,-538.576"/>
<ellipse fill="none" stroke="black" cx="780.329" cy="-538.806" rx="3.2" ry="3.2"/>
</g>
</g>
</svg>
