<?xml version="1.0" encoding="UTF-8" standalone="no"?>
<!DOCTYPE svg PUBLIC "-//W3C//DTD SVG 1.1//EN"
 "http://www.w3.org/Graphics/SVG/1.1/DTD/svg11.dtd">
<!-- Generated by graphviz version 2.38.0 (20140413.2041)
 -->
<!-- Title: twoDegreesRelationshipsDiagram Pages: 1 -->
<svg width="1090pt" height="259pt"
 viewBox="0.00 0.00 1090.00 259.00" xmlns="http://www.w3.org/2000/svg" xmlns:xlink="http://www.w3.org/1999/xlink">
<g id="graph0" class="graph" transform="scale(1 1) rotate(0) translate(4 255)">
<title>twoDegreesRelationshipsDiagram</title>
<polygon fill="#ffffff" stroke="none" points="-4,4 -4,-255 1086,-255 1086,4 -4,4"/>
<text text-anchor="middle" x="74.5" y="-7.2" font-family="Helvetica,sans-Serif" font-size="11.00">Generated by SchemaSpy</text>
<!-- core_export -->
<g id="node1" class="node"><title>core_export</title>
<g id="a_node1"><a xlink:href="../../tables/core_export.html" xlink:title="core_export" target="_top">
<polygon fill="#ffffff" stroke="none" points="185,-78 185,-202 314,-202 314,-78 185,-78"/>
<polygon fill="#f5f5f5" stroke="none" points="185.5,-180 185.5,-202 314.5,-202 314.5,-180 185.5,-180"/>
<polygon fill="none" stroke="black" points="185.5,-180 185.5,-202 314.5,-202 314.5,-180 185.5,-180"/>
<text text-anchor="start" x="190.5" y="-189.2" font-family="Helvetica,sans-Serif" font-weight="bold" font-size="11.00">core_export</text>
<text text-anchor="start" x="275.5" y="-188.2" font-family="Helvetica,sans-Serif" font-size="11.00">[table]</text>
<polygon fill="none" stroke="black" points="185.5,-158 185.5,-180 314.5,-180 314.5,-158 185.5,-158"/>
<image xlink:href="../../images/primaryKeys.png" width="11px" height="12px" preserveAspectRatio="xMinYMin meet" x="190.5" y="-175"/>
<text text-anchor="start" x="205.5" y="-166.2" font-family="Helvetica,sans-Serif" font-size="11.00">pulp_id</text>
<polygon fill="#ffffff" stroke="none" points="185.5,-136 185.5,-158 314.5,-158 314.5,-136 185.5,-136"/>
<polygon fill="none" stroke="black" points="185.5,-136 185.5,-158 314.5,-158 314.5,-136 185.5,-136"/>
<image xlink:href="../../images/foreignKeys.png" width="11px" height="12px" preserveAspectRatio="xMinYMin meet" x="190.5" y="-153"/>
<text text-anchor="start" x="205.5" y="-144.2" font-family="Helvetica,sans-Serif" font-size="11.00">exporter_id</text>
<polygon fill="#ffffff" stroke="none" points="185.5,-114 185.5,-136 314.5,-136 314.5,-114 185.5,-114"/>
<polygon fill="none" stroke="black" points="185.5,-114 185.5,-136 314.5,-136 314.5,-114 185.5,-114"/>
<image xlink:href="../../images/foreignKeys.png" width="11px" height="12px" preserveAspectRatio="xMinYMin meet" x="190.5" y="-131"/>
<text text-anchor="start" x="205.5" y="-122.2" font-family="Helvetica,sans-Serif" font-size="11.00">task_id</text>
<polygon fill="none" stroke="black" points="185.5,-96 185.5,-114 314.5,-114 314.5,-96 185.5,-96"/>
<text text-anchor="start" x="188.5" y="-102.2" font-family="Helvetica,sans-Serif" font-size="11.00">...</text>
<polygon fill="#ffffff" stroke="none" points="185.5,-78 185.5,-96 228.5,-96 228.5,-78 185.5,-78"/>
<polygon fill="none" stroke="black" points="185.5,-78 185.5,-96 228.5,-96 228.5,-78 185.5,-78"/>
<text text-anchor="start" x="188.5" y="-84.2" font-family="Helvetica,sans-Serif" font-size="11.00">&lt; 2</text>
<polygon fill="#ffffff" stroke="none" points="228.5,-78 228.5,-96 280.5,-96 280.5,-78 228.5,-78"/>
<polygon fill="none" stroke="black" points="228.5,-78 228.5,-96 280.5,-96 280.5,-78 228.5,-78"/>
<text text-anchor="start" x="241.5" y="-84.2" font-family="Helvetica,sans-Serif" font-size="11.00">0 rows</text>
<polygon fill="#ffffff" stroke="none" points="280.5,-78 280.5,-96 314.5,-96 314.5,-78 280.5,-78"/>
<polygon fill="none" stroke="black" points="280.5,-78 280.5,-96 314.5,-96 314.5,-78 280.5,-78"/>
<text text-anchor="start" x="294.5" y="-84.2" font-family="Helvetica,sans-Serif" font-size="11.00">2 &gt;</text>
</a>
</g>
</g>
<!-- core_exporter -->
<g id="node2" class="node"><title>core_exporter</title>
<g id="a_node2"><a xlink:href="../../tables/core_exporter.html" xlink:title="core_exporter" target="_top">
<polygon fill="#ffffff" stroke="none" points="8,-189 8,-247 136,-247 136,-189 8,-189"/>
<polygon fill="#f5f5f5" stroke="none" points="8,-225 8,-247 136,-247 136,-225 8,-225"/>
<polygon fill="none" stroke="black" points="8,-225 8,-247 136,-247 136,-225 8,-225"/>
<text text-anchor="start" x="13" y="-234.2" font-family="Helvetica,sans-Serif" font-weight="bold" font-size="11.00">core_exporter</text>
<text text-anchor="start" x="97" y="-233.2" font-family="Helvetica,sans-Serif" font-size="11.00">[table]</text>
<polygon fill="none" stroke="black" points="8,-207 8,-225 136,-225 136,-207 8,-207"/>
<text text-anchor="start" x="11" y="-213.2" font-family="Helvetica,sans-Serif" font-size="11.00">...</text>
<polygon fill="#ffffff" stroke="none" points="8,-189 8,-207 46,-207 46,-189 8,-189"/>
<polygon fill="none" stroke="black" points="8,-189 8,-207 46,-207 46,-189 8,-189"/>
<text text-anchor="start" x="11" y="-195.2" font-family="Helvetica,sans-Serif" font-size="11.00"> &#160;</text>
<polygon fill="#ffffff" stroke="none" points="46,-189 46,-207 100,-207 100,-189 46,-189"/>
<polygon fill="none" stroke="black" points="46,-189 46,-207 100,-207 100,-189 46,-189"/>
<text text-anchor="start" x="61" y="-195.2" font-family="Helvetica,sans-Serif" font-size="11.00">0 rows</text>
<polygon fill="#ffffff" stroke="none" points="100,-189 100,-207 136,-207 136,-189 100,-189"/>
<polygon fill="none" stroke="black" points="100,-189 100,-207 136,-207 136,-189 100,-189"/>
<text text-anchor="start" x="116" y="-195.2" font-family="Helvetica,sans-Serif" font-size="11.00">2 &gt;</text>
</a>
</g>
</g>
<!-- core_export&#45;&gt;core_exporter -->
<g id="edge1" class="edge"><title>core_export:exporter_id:w&#45;&gt;core_exporter:elipses:e</title>
<path fill="none" stroke="black" d="M170.792,-151.962C154.388,-167.783 168.123,-216 137,-216"/>
<polygon fill="black" stroke="black" points="176.978,-149.723 185.725,-150.385 180.739,-148.362 184.5,-147 184.5,-147 184.5,-147 180.739,-148.362 183.275,-143.615 176.978,-149.723 176.978,-149.723"/>
<ellipse fill="none" stroke="black" cx="173.969" cy="-150.812" rx="3.20001" ry="3.20001"/>
</g>
<!-- core_task -->
<g id="node3" class="node"><title>core_task</title>
<g id="a_node3"><a xlink:href="../../tables/core_task.html" xlink:title="core_task" target="_top">
<polygon fill="#ffffff" stroke="none" points="16.5,-98 16.5,-156 127.5,-156 127.5,-98 16.5,-98"/>
<polygon fill="#f5f5f5" stroke="none" points="17,-134 17,-156 128,-156 128,-134 17,-134"/>
<polygon fill="none" stroke="black" points="17,-134 17,-156 128,-156 128,-134 17,-134"/>
<text text-anchor="start" x="22" y="-143.2" font-family="Helvetica,sans-Serif" font-weight="bold" font-size="11.00">core_task</text>
<text text-anchor="start" x="89" y="-142.2" font-family="Helvetica,sans-Serif" font-size="11.00">[table]</text>
<polygon fill="none" stroke="black" points="17,-116 17,-134 128,-134 128,-116 17,-116"/>
<text text-anchor="start" x="20" y="-122.2" font-family="Helvetica,sans-Serif" font-size="11.00">...</text>
<polygon fill="#ffffff" stroke="none" points="17,-98 17,-116 40,-116 40,-98 17,-98"/>
<polygon fill="none" stroke="black" points="17,-98 17,-116 40,-116 40,-98 17,-98"/>
<text text-anchor="start" x="20" y="-104.2" font-family="Helvetica,sans-Serif" font-size="11.00">&lt; 3</text>
<polygon fill="#ffffff" stroke="none" points="40,-98 40,-116 105,-116 105,-98 40,-98"/>
<polygon fill="none" stroke="black" points="40,-98 40,-116 105,-116 105,-98 40,-98"/>
<text text-anchor="start" x="43" y="-104.2" font-family="Helvetica,sans-Serif" font-size="11.00">1,828 rows</text>
<polygon fill="#ffffff" stroke="none" points="105,-98 105,-116 128,-116 128,-98 105,-98"/>
<polygon fill="none" stroke="black" points="105,-98 105,-116 128,-116 128,-98 105,-98"/>
<text text-anchor="start" x="108" y="-104.2" font-family="Helvetica,sans-Serif" font-size="11.00">8 &gt;</text>
</a>
</g>
</g>
<!-- core_export&#45;&gt;core_task -->
<g id="edge2" class="edge"><title>core_export:task_id:w&#45;&gt;core_task:elipses:e</title>
<path fill="none" stroke="black" d="M169.729,-125C155.926,-125 147.885,-125 129,-125"/>
<polygon fill="black" stroke="black" points="176.5,-125 184.5,-128.6 180.5,-125 184.5,-125 184.5,-125 184.5,-125 180.5,-125 184.5,-121.4 176.5,-125 176.5,-125"/>
<ellipse fill="none" stroke="black" cx="173.3" cy="-125" rx="3.2" ry="3.2"/>
</g>
<!-- core_exportedresource -->
<g id="node4" class="node"><title>core_exportedresource</title>
<g id="a_node4"><a xlink:href="../../tables/core_exportedresource.html" xlink:title="core_exportedresource" target="_top">
<polygon fill="#ffffff" stroke="none" points="389,-37 389,-95 569,-95 569,-37 389,-37"/>
<polygon fill="#f5f5f5" stroke="none" points="389,-73 389,-95 569,-95 569,-73 389,-73"/>
<polygon fill="none" stroke="black" points="389,-73 389,-95 569,-95 569,-73 389,-73"/>
<text text-anchor="start" x="394" y="-82.2" font-family="Helvetica,sans-Serif" font-weight="bold" font-size="11.00">core_exportedresource</text>
<text text-anchor="start" x="530" y="-81.2" font-family="Helvetica,sans-Serif" font-size="11.00">[table]</text>
<polygon fill="none" stroke="black" points="389,-55 389,-73 569,-73 569,-55 389,-55"/>
<text text-anchor="start" x="392" y="-61.2" font-family="Helvetica,sans-Serif" font-size="11.00">...</text>
<polygon fill="#ffffff" stroke="none" points="389,-37 389,-55 463,-55 463,-37 389,-37"/>
<polygon fill="none" stroke="black" points="389,-37 389,-55 463,-55 463,-37 389,-37"/>
<text text-anchor="start" x="392" y="-43.2" font-family="Helvetica,sans-Serif" font-size="11.00">&lt; 2</text>
<polygon fill="#ffffff" stroke="none" points="463,-37 463,-55 530,-55 530,-37 463,-37"/>
<polygon fill="none" stroke="black" points="463,-37 463,-55 530,-55 530,-37 463,-37"/>
<text text-anchor="start" x="491" y="-43.2" font-family="Helvetica,sans-Serif" font-size="11.00">0 rows</text>
<polygon fill="#ffffff" stroke="none" points="530,-37 530,-55 569,-55 569,-37 530,-37"/>
<polygon fill="none" stroke="black" points="530,-37 530,-55 569,-55 569,-37 530,-37"/>
<text text-anchor="start" x="559" y="-43.2" font-family="Helvetica,sans-Serif" font-size="11.00"> &#160;</text>
</a>
</g>
</g>
<!-- core_exportedresource&#45;&gt;core_export -->
<g id="edge3" class="edge"><title>core_exportedresource:elipses:w&#45;&gt;core_export:pulp_id:e</title>
<path fill="none" stroke="black" d="M373.538,-67.0292C338.595,-84.2451 366.451,-169 315.5,-169"/>
<polygon fill="black" stroke="black" points="380.17,-65.6401 388.738,-67.5235 384.085,-64.82 388,-64 388,-64 388,-64 384.085,-64.82 387.262,-60.4765 380.17,-65.6401 380.17,-65.6401"/>
<ellipse fill="none" stroke="black" cx="377.038" cy="-66.2961" rx="3.2" ry="3.2"/>
</g>
<!-- core_pulpexport -->
<g id="node5" class="node"><title>core_pulpexport</title>
<g id="a_node5"><a xlink:href="../../tables/core_pulpexport.html" xlink:title="core_pulpexport" target="_top">
<polygon fill="#ffffff" stroke="none" points="363,-116 363,-204 595,-204 595,-116 363,-116"/>
<polygon fill="#f5f5f5" stroke="none" points="365,-180 365,-202 593,-202 593,-180 365,-180"/>
<polygon fill="none" stroke="black" points="365,-180 365,-202 593,-202 593,-180 365,-180"/>
<text text-anchor="start" x="370" y="-189.2" font-family="Helvetica,sans-Serif" font-weight="bold" font-size="11.00">core_pulpexport</text>
<text text-anchor="start" x="554" y="-188.2" font-family="Helvetica,sans-Serif" font-size="11.00">[table]</text>
<polygon fill="none" stroke="black" points="365,-158 365,-180 483,-180 483,-158 365,-158"/>
<image xlink:href="../../images/primaryKeys.png" width="11px" height="12px" preserveAspectRatio="xMinYMin meet" x="370" y="-175"/>
<text text-anchor="start" x="385" y="-166.2" font-family="Helvetica,sans-Serif" font-size="11.00">export_ptr_id</text>
<polygon fill="none" stroke="black" points="483,-158 483,-180 593,-180 593,-158 483,-158"/>
<text text-anchor="start" x="486" y="-166.2" font-family="Helvetica,sans-Serif" font-size="11.00">uuid[2147483647]</text>
<polygon fill="none" stroke="black" points="365,-136 365,-158 483,-158 483,-136 365,-136"/>
<text text-anchor="start" x="385" y="-144.2" font-family="Helvetica,sans-Serif" font-size="11.00">output_file_info</text>
<polygon fill="none" stroke="black" points="483,-136 483,-158 593,-158 593,-136 483,-136"/>
<text text-anchor="start" x="486" y="-144.2" font-family="Helvetica,sans-Serif" font-size="11.00">jsonb[2147483647]</text>
<polygon fill="#ffffff" stroke="none" points="365,-118 365,-136 414,-136 414,-118 365,-118"/>
<polygon fill="none" stroke="black" points="365,-118 365,-136 414,-136 414,-118 365,-118"/>
<text text-anchor="start" x="368" y="-124.2" font-family="Helvetica,sans-Serif" font-size="11.00">&lt; 1</text>
<polygon fill="#ffffff" stroke="none" points="414,-118 414,-136 483,-136 483,-118 414,-118"/>
<polygon fill="none" stroke="black" points="414,-118 414,-136 483,-136 483,-118 414,-118"/>
<text text-anchor="start" x="444" y="-124.2" font-family="Helvetica,sans-Serif" font-size="11.00">0 rows</text>
<polygon fill="#ffffff" stroke="none" points="483,-118 483,-136 593,-136 593,-118 483,-118"/>
<polygon fill="none" stroke="black" points="483,-118 483,-136 593,-136 593,-118 483,-118"/>
<text text-anchor="start" x="573" y="-124.2" font-family="Helvetica,sans-Serif" font-size="11.00">1 &gt;</text>
<polygon fill="none" stroke="black" stroke-width="2" points="364,-117 364,-203 594,-203 594,-117 364,-117"/>
</a>
</g>
</g>
<!-- core_pulpexport&#45;&gt;core_export -->
<g id="edge4" class="edge"><title>core_pulpexport:export_ptr_id:w&#45;&gt;core_export:pulp_id:e</title>
<path fill="none" stroke="black" d="M353.367,-169C339.855,-169 333.014,-169 315.5,-169"/>
<polygon fill="black" stroke="black" points="363.2,-165 363.2,-173 361.6,-173 361.6,-165 363.2,-165"/>
<polyline fill="none" stroke="black" points="364,-169 360,-169 "/>
<ellipse fill="none" stroke="black" cx="356.8" cy="-169" rx="3.2" ry="3.2"/>
</g>
<!-- core_pulpexporter -->
<g id="node6" class="node"><title>core_pulpexporter</title>
<g id="a_node6"><a xlink:href="../../tables/core_pulpexporter.html" xlink:title="core_pulpexporter" target="_top">
<polygon fill="#ffffff" stroke="none" points="644,-140 644,-242 798,-242 798,-140 644,-140"/>
<polygon fill="#f5f5f5" stroke="none" points="644,-220 644,-242 798,-242 798,-220 644,-220"/>
<polygon fill="none" stroke="black" points="644,-220 644,-242 798,-242 798,-220 644,-220"/>
<text text-anchor="start" x="649" y="-229.2" font-family="Helvetica,sans-Serif" font-weight="bold" font-size="11.00">core_pulpexporter</text>
<text text-anchor="start" x="759" y="-228.2" font-family="Helvetica,sans-Serif" font-size="11.00">[table]</text>
<polygon fill="none" stroke="black" points="644,-198 644,-220 798,-220 798,-198 644,-198"/>
<image xlink:href="../../images/primaryKeys.png" width="11px" height="12px" preserveAspectRatio="xMinYMin meet" x="649" y="-215"/>
<text text-anchor="start" x="676" y="-206.2" font-family="Helvetica,sans-Serif" font-size="11.00">exporter_ptr_id</text>
<polygon fill="#ffffff" stroke="none" points="644,-176 644,-198 798,-198 798,-176 644,-176"/>
<polygon fill="none" stroke="black" points="644,-176 644,-198 798,-198 798,-176 644,-176"/>
<image xlink:href="../../images/foreignKeys.png" width="11px" height="12px" preserveAspectRatio="xMinYMin meet" x="649" y="-193"/>
<text text-anchor="start" x="676" y="-184.2" font-family="Helvetica,sans-Serif" font-size="11.00">last_export_id</text>
<polygon fill="none" stroke="black" points="644,-158 644,-176 798,-176 798,-158 644,-158"/>
<text text-anchor="start" x="647" y="-164.2" font-family="Helvetica,sans-Serif" font-size="11.00">...</text>
<polygon fill="#ffffff" stroke="none" points="644,-140 644,-158 700,-158 700,-140 644,-140"/>
<polygon fill="none" stroke="black" points="644,-140 644,-158 700,-158 700,-140 644,-140"/>
<text text-anchor="start" x="647" y="-146.2" font-family="Helvetica,sans-Serif" font-size="11.00">&lt; 2</text>
<polygon fill="#ffffff" stroke="none" points="700,-140 700,-158 758,-158 758,-140 700,-140"/>
<polygon fill="none" stroke="black" points="700,-140 700,-158 758,-158 758,-140 700,-140"/>
<text text-anchor="start" x="719" y="-146.2" font-family="Helvetica,sans-Serif" font-size="11.00">0 rows</text>
<polygon fill="#ffffff" stroke="none" points="758,-140 758,-158 798,-158 798,-140 758,-140"/>
<polygon fill="none" stroke="black" points="758,-140 758,-158 798,-158 798,-140 758,-140"/>
<text text-anchor="start" x="778" y="-146.2" font-family="Helvetica,sans-Serif" font-size="11.00">1 &gt;</text>
</a>
</g>
</g>
<!-- core_pulpexporter&#45;&gt;core_exporter -->
<g id="edge5" class="edge"><title>core_pulpexporter:exporter_ptr_id:w&#45;&gt;core_exporter:elipses:e</title>
<path fill="none" stroke="black" d="M632.596,-209.623C622.457,-210.935 616.864,-213.951 603,-215 396.479,-230.626 344.112,-216 137,-216"/>
<polygon fill="black" stroke="black" points="641.962,-205.055 642.441,-213.041 640.843,-213.136 640.365,-205.151 641.962,-205.055"/>
<polyline fill="none" stroke="black" points="643,-209 639.007,-209.239 "/>
<ellipse fill="none" stroke="black" cx="635.813" cy="-209.43" rx="3.2" ry="3.2"/>
</g>
<!-- core_pulpexporter&#45;&gt;core_pulpexport -->
<g id="edge6" class="edge"><title>core_pulpexporter:last_export_id:w&#45;&gt;core_pulpexport:export_ptr_id.type:e</title>
<path fill="none" stroke="black" d="M628.819,-184.188C617.212,-179.125 611.401,-169 594,-169"/>
<polygon fill="black" stroke="black" points="635.153,-185.444 642.3,-190.531 639.076,-186.222 643,-187 643,-187 643,-187 639.076,-186.222 643.7,-183.469 635.153,-185.444 635.153,-185.444"/>
<ellipse fill="none" stroke="black" cx="632.014" cy="-184.821" rx="3.2" ry="3.2"/>
</g>
<!-- core_pulpexporter_repositories -->
<g id="node7" class="node"><title>core_pulpexporter_repositories</title>
<g id="a_node7"><a xlink:href="../../tables/core_pulpexporter_repositories.html" xlink:title="core_pulpexporter_repositories" target="_top">
<polygon fill="#ffffff" stroke="none" points="847,-182 847,-240 1074,-240 1074,-182 847,-182"/>
<polygon fill="#f5f5f5" stroke="none" points="847.5,-218 847.5,-240 1074.5,-240 1074.5,-218 847.5,-218"/>
<polygon fill="none" stroke="black" points="847.5,-218 847.5,-240 1074.5,-240 1074.5,-218 847.5,-218"/>
<text text-anchor="start" x="852.5" y="-227.2" font-family="Helvetica,sans-Serif" font-weight="bold" font-size="11.00">core_pulpexporter_repositories</text>
<text text-anchor="start" x="1035.5" y="-226.2" font-family="Helvetica,sans-Serif" font-size="11.00">[table]</text>
<polygon fill="none" stroke="black" points="847.5,-200 847.5,-218 1074.5,-218 1074.5,-200 847.5,-200"/>
<text text-anchor="start" x="850.5" y="-206.2" font-family="Helvetica,sans-Serif" font-size="11.00">...</text>
<polygon fill="#ffffff" stroke="none" points="847.5,-182 847.5,-200 944.5,-200 944.5,-182 847.5,-182"/>
<polygon fill="none" stroke="black" points="847.5,-182 847.5,-200 944.5,-200 944.5,-182 847.5,-182"/>
<text text-anchor="start" x="850.5" y="-188.2" font-family="Helvetica,sans-Serif" font-size="11.00">&lt; 2</text>
<polygon fill="#ffffff" stroke="none" points="944.5,-182 944.5,-200 1023.5,-200 1023.5,-182 944.5,-182"/>
<polygon fill="none" stroke="black" points="944.5,-182 944.5,-200 1023.5,-200 1023.5,-182 944.5,-182"/>
<text text-anchor="start" x="984.5" y="-188.2" font-family="Helvetica,sans-Serif" font-size="11.00">0 rows</text>
<polygon fill="#ffffff" stroke="none" points="1023.5,-182 1023.5,-200 1074.5,-200 1074.5,-182 1023.5,-182"/>
<polygon fill="none" stroke="black" points="1023.5,-182 1023.5,-200 1074.5,-200 1074.5,-182 1023.5,-182"/>
<text text-anchor="start" x="1064.5" y="-188.2" font-family="Helvetica,sans-Serif" font-size="11.00"> &#160;</text>
</a>
</g>
</g>
<!-- core_pulpexporter_repositories&#45;&gt;core_pulpexporter -->
<g id="edge7" class="edge"><title>core_pulpexporter_repositories:elipses:w&#45;&gt;core_pulpexporter:exporter_ptr_id:e</title>
<path fill="none" stroke="black" d="M832.086,-209C821.319,-209 814.339,-209 799,-209"/>
<polygon fill="black" stroke="black" points="838.5,-209 846.5,-212.6 842.5,-209 846.5,-209 846.5,-209 846.5,-209 842.5,-209 846.5,-205.4 838.5,-209 838.5,-209"/>
<ellipse fill="none" stroke="black" cx="835.3" cy="-209" rx="3.2" ry="3.2"/>
</g>
</g>
</svg>
