<?xml version="1.0" encoding="UTF-8" standalone="no"?>
<!DOCTYPE svg PUBLIC "-//W3C//DTD SVG 1.1//EN"
 "http://www.w3.org/Graphics/SVG/1.1/DTD/svg11.dtd">
<!-- Generated by graphviz version 2.38.0 (20140413.2041)
 -->
<!-- Title: oneDegreeRelationshipsDiagram Pages: 1 -->
<svg width="499pt" height="274pt"
 viewBox="0.00 0.00 499.00 274.00" xmlns="http://www.w3.org/2000/svg" xmlns:xlink="http://www.w3.org/1999/xlink">
<g id="graph0" class="graph" transform="scale(1 1) rotate(0) translate(4 270)">
<title>oneDegreeRelationshipsDiagram</title>
<polygon fill="#ffffff" stroke="none" points="-4,4 -4,-270 495,-270 495,4 -4,4"/>
<text text-anchor="middle" x="74.5" y="-7.2" font-family="Helvetica,sans-Serif" font-size="11.00">Generated by SchemaSpy</text>
<!-- core_publishedmetadata -->
<g id="node1" class="node"><title>core_publishedmetadata</title>
<g id="a_node1"><a xlink:href="../../tables/core_publishedmetadata.html" xlink:title="core_publishedmetadata" target="_top">
<polygon fill="#ffffff" stroke="none" points="205,-114 205,-224 483,-224 483,-114 205,-114"/>
<polygon fill="#f5f5f5" stroke="none" points="207,-200 207,-222 481,-222 481,-200 207,-200"/>
<polygon fill="none" stroke="black" points="207,-200 207,-222 481,-222 481,-200 207,-200"/>
<text text-anchor="start" x="212" y="-209.2" font-family="Helvetica,sans-Serif" font-weight="bold" font-size="11.00">core_publishedmetadata</text>
<text text-anchor="start" x="442" y="-208.2" font-family="Helvetica,sans-Serif" font-size="11.00">[table]</text>
<polygon fill="#ffffff" stroke="none" points="207,-178 207,-200 376,-200 376,-178 207,-178"/>
<polygon fill="none" stroke="black" points="207,-178 207,-200 376,-200 376,-178 207,-178"/>
<text text-anchor="start" x="227" y="-186.2" font-family="Helvetica,sans-Serif" font-size="11.00">relative_path</text>
<polygon fill="none" stroke="black" points="376,-178 376,-200 481,-200 481,-178 376,-178"/>
<text text-anchor="start" x="379" y="-186.2" font-family="Helvetica,sans-Serif" font-size="11.00">text[2147483647]</text>
<polygon fill="#ffffff" stroke="none" points="207,-156 207,-178 376,-178 376,-156 207,-156"/>
<polygon fill="none" stroke="black" points="207,-156 207,-178 376,-178 376,-156 207,-156"/>
<image xlink:href="../../images/foreignKeys.png" width="11px" height="12px" preserveAspectRatio="xMinYMin meet" x="212" y="-173"/>
<text text-anchor="start" x="227" y="-164.2" font-family="Helvetica,sans-Serif" font-size="11.00">publication_id</text>
<polygon fill="none" stroke="black" points="376,-156 376,-178 481,-178 481,-156 376,-156"/>
<text text-anchor="start" x="379" y="-164.2" font-family="Helvetica,sans-Serif" font-size="11.00">uuid[2147483647]</text>
<polygon fill="none" stroke="black" points="207,-134 207,-156 376,-156 376,-134 207,-134"/>
<image xlink:href="../../images/primaryKeys.png" width="11px" height="12px" preserveAspectRatio="xMinYMin meet" x="212" y="-151"/>
<text text-anchor="start" x="227" y="-142.2" font-family="Helvetica,sans-Serif" font-size="11.00">content_ptr_id</text>
<polygon fill="none" stroke="black" points="376,-134 376,-156 481,-156 481,-134 376,-134"/>
<text text-anchor="start" x="379" y="-142.2" font-family="Helvetica,sans-Serif" font-size="11.00">uuid[2147483647]</text>
<polygon fill="#ffffff" stroke="none" points="207,-116 207,-134 282,-134 282,-116 207,-116"/>
<polygon fill="none" stroke="black" points="207,-116 207,-134 282,-134 282,-116 207,-116"/>
<text text-anchor="start" x="210" y="-122.2" font-family="Helvetica,sans-Serif" font-size="11.00">&lt; 2</text>
<polygon fill="#ffffff" stroke="none" points="282,-116 282,-134 376,-134 376,-116 282,-116"/>
<polygon fill="none" stroke="black" points="282,-116 282,-134 376,-134 376,-116 282,-116"/>
<text text-anchor="start" x="337" y="-122.2" font-family="Helvetica,sans-Serif" font-size="11.00">0 rows</text>
<polygon fill="#ffffff" stroke="none" points="376,-116 376,-134 481,-134 481,-116 376,-116"/>
<polygon fill="none" stroke="black" points="376,-116 376,-134 481,-134 481,-116 376,-116"/>
<text text-anchor="start" x="461" y="-122.2" font-family="Helvetica,sans-Serif" font-size="11.00">0 &gt;</text>
<polygon fill="none" stroke="black" stroke-width="2" points="206,-115 206,-223 482,-223 482,-115 206,-115"/>
</a>
</g>
</g>
<!-- core_content -->
<g id="node2" class="node"><title>core_content</title>
<g id="a_node2"><a xlink:href="../../tables/core_content.html" xlink:title="core_content" target="_top">
<polygon fill="#ffffff" stroke="none" points="17.5,-37 17.5,-117 146.5,-117 146.5,-37 17.5,-37"/>
<polygon fill="#f5f5f5" stroke="none" points="18,-95 18,-117 147,-117 147,-95 18,-95"/>
<polygon fill="none" stroke="black" points="18,-95 18,-117 147,-117 147,-95 18,-95"/>
<text text-anchor="start" x="23" y="-104.2" font-family="Helvetica,sans-Serif" font-weight="bold" font-size="11.00">core_content</text>
<text text-anchor="start" x="108" y="-103.2" font-family="Helvetica,sans-Serif" font-size="11.00">[table]</text>
<polygon fill="none" stroke="black" points="18,-73 18,-95 147,-95 147,-73 18,-73"/>
<image xlink:href="../../images/primaryKeys.png" width="11px" height="12px" preserveAspectRatio="xMinYMin meet" x="23" y="-90"/>
<text text-anchor="start" x="38" y="-81.2" font-family="Helvetica,sans-Serif" font-size="11.00">pulp_id</text>
<polygon fill="none" stroke="black" points="18,-55 18,-73 147,-73 147,-55 18,-55"/>
<text text-anchor="start" x="21" y="-61.2" font-family="Helvetica,sans-Serif" font-size="11.00">...</text>
<polygon fill="#ffffff" stroke="none" points="18,-37 18,-55 53,-55 53,-37 18,-37"/>
<polygon fill="none" stroke="black" points="18,-37 18,-55 53,-55 53,-37 18,-37"/>
<text text-anchor="start" x="21" y="-43.2" font-family="Helvetica,sans-Serif" font-size="11.00"> &#160;</text>
<polygon fill="#ffffff" stroke="none" points="53,-37 53,-55 113,-55 113,-37 53,-37"/>
<polygon fill="none" stroke="black" points="53,-37 53,-55 113,-55 113,-37 53,-37"/>
<text text-anchor="start" x="67" y="-43.2" font-family="Helvetica,sans-Serif" font-size="11.00">88 rows</text>
<polygon fill="#ffffff" stroke="none" points="113,-37 113,-55 147,-55 147,-37 113,-37"/>
<polygon fill="none" stroke="black" points="113,-37 113,-55 147,-55 147,-37 113,-37"/>
<text text-anchor="start" x="127" y="-43.2" font-family="Helvetica,sans-Serif" font-size="11.00">8 &gt;</text>
</a>
</g>
</g>
<!-- core_publishedmetadata&#45;&gt;core_content -->
<g id="edge1" class="edge"><title>core_publishedmetadata:content_ptr_id:w&#45;&gt;core_content:pulp_id:e</title>
<path fill="none" stroke="black" d="M195.529,-142.97C171.621,-132.386 181.318,-84 148,-84"/>
<polygon fill="black" stroke="black" points="205.976,-140.921 204.453,-148.775 202.883,-148.47 204.405,-140.616 205.976,-140.921"/>
<polyline fill="none" stroke="black" points="206,-145 202.073,-144.239 "/>
<ellipse fill="none" stroke="black" cx="198.932" cy="-143.63" rx="3.20001" ry="3.20001"/>
</g>
<!-- core_publication -->
<g id="node3" class="node"><title>core_publication</title>
<g id="a_node3"><a xlink:href="../../tables/core_publication.html" xlink:title="core_publication" target="_top">
<polygon fill="#ffffff" stroke="none" points="8,-138 8,-262 156,-262 156,-138 8,-138"/>
<polygon fill="#f5f5f5" stroke="none" points="8,-240 8,-262 156,-262 156,-240 8,-240"/>
<polygon fill="none" stroke="black" points="8,-240 8,-262 156,-262 156,-240 8,-240"/>
<text text-anchor="start" x="13" y="-249.2" font-family="Helvetica,sans-Serif" font-weight="bold" font-size="11.00">core_publication</text>
<text text-anchor="start" x="117" y="-248.2" font-family="Helvetica,sans-Serif" font-size="11.00">[table]</text>
<polygon fill="none" stroke="black" points="8,-218 8,-240 156,-240 156,-218 8,-218"/>
<image xlink:href="../../images/primaryKeys.png" width="11px" height="12px" preserveAspectRatio="xMinYMin meet" x="13" y="-235"/>
<text text-anchor="start" x="28" y="-226.2" font-family="Helvetica,sans-Serif" font-size="11.00">pulp_id</text>
<polygon fill="#ffffff" stroke="none" points="8,-196 8,-218 156,-218 156,-196 8,-196"/>
<polygon fill="none" stroke="black" points="8,-196 8,-218 156,-218 156,-196 8,-196"/>
<text text-anchor="start" x="28" y="-204.2" font-family="Helvetica,sans-Serif" font-size="11.00">complete</text>
<polygon fill="#ffffff" stroke="none" points="8,-174 8,-196 156,-196 156,-174 8,-174"/>
<polygon fill="none" stroke="black" points="8,-174 8,-196 156,-196 156,-174 8,-174"/>
<image xlink:href="../../images/foreignKeys.png" width="11px" height="12px" preserveAspectRatio="xMinYMin meet" x="13" y="-191"/>
<text text-anchor="start" x="28" y="-182.2" font-family="Helvetica,sans-Serif" font-size="11.00">repository_version_id</text>
<polygon fill="none" stroke="black" points="8,-156 8,-174 156,-174 156,-156 8,-156"/>
<text text-anchor="start" x="11" y="-162.2" font-family="Helvetica,sans-Serif" font-size="11.00">...</text>
<polygon fill="#ffffff" stroke="none" points="8,-138 8,-156 61,-156 61,-138 8,-138"/>
<polygon fill="none" stroke="black" points="8,-138 8,-156 61,-156 61,-138 8,-138"/>
<text text-anchor="start" x="11" y="-144.2" font-family="Helvetica,sans-Serif" font-size="11.00">&lt; 1</text>
<polygon fill="#ffffff" stroke="none" points="61,-138 61,-156 118,-156 118,-138 61,-138"/>
<polygon fill="none" stroke="black" points="61,-138 61,-156 118,-156 118,-138 61,-138"/>
<text text-anchor="start" x="79" y="-144.2" font-family="Helvetica,sans-Serif" font-size="11.00">0 rows</text>
<polygon fill="#ffffff" stroke="none" points="118,-138 118,-156 156,-156 156,-138 118,-138"/>
<polygon fill="none" stroke="black" points="118,-138 118,-156 156,-156 156,-138 118,-138"/>
<text text-anchor="start" x="136" y="-144.2" font-family="Helvetica,sans-Serif" font-size="11.00">2 &gt;</text>
</a>
</g>
</g>
<!-- core_publishedmetadata&#45;&gt;core_publication -->
<g id="edge2" class="edge"><title>core_publishedmetadata:publication_id:w&#45;&gt;core_publication:pulp_id:e</title>
<path fill="none" stroke="black" d="M192.313,-171.865C176.515,-186.481 186.086,-229 157,-229"/>
<polygon fill="black" stroke="black" points="198.462,-169.679 207.206,-170.392 202.231,-168.34 206,-167 206,-167 206,-167 202.231,-168.34 204.794,-163.608 198.462,-169.679 198.462,-169.679"/>
<ellipse fill="none" stroke="black" cx="195.447" cy="-170.751" rx="3.20001" ry="3.20001"/>
</g>
</g>
</svg>
