<?xml version="1.0" encoding="UTF-8" standalone="no"?>
<!DOCTYPE svg PUBLIC "-//W3C//DTD SVG 1.1//EN"
 "http://www.w3.org/Graphics/SVG/1.1/DTD/svg11.dtd">
<!-- Generated by graphviz version 2.38.0 (20140413.2041)
 -->
<!-- Title: oneDegreeRelationshipsDiagram Pages: 1 -->
<svg width="1052pt" height="970pt"
 viewBox="0.00 0.00 1052.00 970.01" xmlns="http://www.w3.org/2000/svg" xmlns:xlink="http://www.w3.org/1999/xlink">
<g id="graph0" class="graph" transform="scale(1 1) rotate(0) translate(4 966.008)">
<title>oneDegreeRelationshipsDiagram</title>
<polygon fill="#ffffff" stroke="none" points="-4,4 -4,-966.008 1048,-966.008 1048,4 -4,4"/>
<text text-anchor="middle" x="74.5" y="-7.2" font-family="Helvetica,sans-Serif" font-size="11.00">Generated by SchemaSpy</text>
<!-- ansible_ansibledistribution -->
<g id="node1" class="node"><title>ansible_ansibledistribution</title>
<g id="a_node1"><a xlink:href="../../tables/ansible_ansibledistribution.html" xlink:title="ansible_ansibledistribution" target="_top">
<polygon fill="#ffffff" stroke="none" points="817,-767 817,-873 1022,-873 1022,-767 817,-767"/>
<polygon fill="#f5f5f5" stroke="none" points="817.5,-851 817.5,-873 1022.5,-873 1022.5,-851 817.5,-851"/>
<polygon fill="none" stroke="black" points="817.5,-851 817.5,-873 1022.5,-873 1022.5,-851 817.5,-851"/>
<text text-anchor="start" x="822.5" y="-860.2" font-family="Helvetica,sans-Serif" font-weight="bold" font-size="11.00">ansible_ansibledistribution</text>
<text text-anchor="start" x="983.5" y="-859.2" font-family="Helvetica,sans-Serif" font-size="11.00">[table]</text>
<polygon fill="none" stroke="black" points="817.5,-829 817.5,-851 1022.5,-851 1022.5,-829 817.5,-829"/>
<image xlink:href="../../images/primaryKeys.png" width="11px" height="12px" preserveAspectRatio="xMinYMin meet" x="822.5" y="-846"/>
<text text-anchor="start" x="848.5" y="-837.2" font-family="Helvetica,sans-Serif" font-size="11.00">basedistribution_ptr_id</text>
<polygon fill="#ffffff" stroke="none" points="817.5,-807 817.5,-829 1022.5,-829 1022.5,-807 817.5,-807"/>
<polygon fill="none" stroke="black" points="817.5,-807 817.5,-829 1022.5,-829 1022.5,-807 817.5,-807"/>
<image xlink:href="../../images/foreignKeys.png" width="11px" height="12px" preserveAspectRatio="xMinYMin meet" x="822.5" y="-824"/>
<text text-anchor="start" x="848.5" y="-815.2" font-family="Helvetica,sans-Serif" font-size="11.00">repository_id</text>
<polygon fill="#ffffff" stroke="none" points="817.5,-785 817.5,-807 1022.5,-807 1022.5,-785 817.5,-785"/>
<polygon fill="none" stroke="black" points="817.5,-785 817.5,-807 1022.5,-807 1022.5,-785 817.5,-785"/>
<image xlink:href="../../images/foreignKeys.png" width="11px" height="12px" preserveAspectRatio="xMinYMin meet" x="822.5" y="-802"/>
<text text-anchor="start" x="848.5" y="-793.2" font-family="Helvetica,sans-Serif" font-size="11.00">repository_version_id</text>
<polygon fill="#ffffff" stroke="none" points="817.5,-767 817.5,-785 900.5,-785 900.5,-767 817.5,-767"/>
<polygon fill="none" stroke="black" points="817.5,-767 817.5,-785 900.5,-785 900.5,-767 817.5,-767"/>
<text text-anchor="start" x="820.5" y="-773.2" font-family="Helvetica,sans-Serif" font-size="11.00">&lt; 3</text>
<polygon fill="#ffffff" stroke="none" points="900.5,-767 900.5,-785 979.5,-785 979.5,-767 900.5,-767"/>
<polygon fill="none" stroke="black" points="900.5,-767 900.5,-785 979.5,-785 979.5,-767 900.5,-767"/>
<text text-anchor="start" x="933.5" y="-773.2" font-family="Helvetica,sans-Serif" font-size="11.00">32 rows</text>
<polygon fill="#ffffff" stroke="none" points="979.5,-767 979.5,-785 1022.5,-785 1022.5,-767 979.5,-767"/>
<polygon fill="none" stroke="black" points="979.5,-767 979.5,-785 1022.5,-785 1022.5,-767 979.5,-767"/>
<text text-anchor="start" x="1012.5" y="-773.2" font-family="Helvetica,sans-Serif" font-size="11.00"> &#160;</text>
</a>
</g>
</g>
<!-- core_repository -->
<g id="node2" class="node"><title>core_repository</title>
<g id="a_node2"><a xlink:href="../../tables/core_repository.html" xlink:title="core_repository" target="_top">
<polygon fill="#ffffff" stroke="none" points="216,-506 216,-726 454,-726 454,-506 216,-506"/>
<polygon fill="#f5f5f5" stroke="none" points="218,-702 218,-724 452,-724 452,-702 218,-702"/>
<polygon fill="none" stroke="black" points="218,-702 218,-724 452,-724 452,-702 218,-702"/>
<text text-anchor="start" x="223" y="-711.2" font-family="Helvetica,sans-Serif" font-weight="bold" font-size="11.00">core_repository</text>
<text text-anchor="start" x="413" y="-710.2" font-family="Helvetica,sans-Serif" font-size="11.00">[table]</text>
<polygon fill="none" stroke="black" points="218,-680 218,-702 347,-702 347,-680 218,-680"/>
<image xlink:href="../../images/primaryKeys.png" width="11px" height="12px" preserveAspectRatio="xMinYMin meet" x="223" y="-697"/>
<text text-anchor="start" x="238" y="-688.2" font-family="Helvetica,sans-Serif" font-size="11.00">pulp_id</text>
<polygon fill="none" stroke="black" points="347,-680 347,-702 452,-702 452,-680 347,-680"/>
<text text-anchor="start" x="350" y="-688.2" font-family="Helvetica,sans-Serif" font-size="11.00">uuid[2147483647]</text>
<polygon fill="none" stroke="black" points="218,-658 218,-680 347,-680 347,-658 218,-658"/>
<text text-anchor="start" x="238" y="-666.2" font-family="Helvetica,sans-Serif" font-size="11.00">pulp_created</text>
<polygon fill="none" stroke="black" points="347,-658 347,-680 452,-680 452,-658 347,-658"/>
<text text-anchor="start" x="350" y="-666.2" font-family="Helvetica,sans-Serif" font-size="11.00">timestamptz[35,6]</text>
<polygon fill="none" stroke="black" points="218,-636 218,-658 347,-658 347,-636 218,-636"/>
<text text-anchor="start" x="238" y="-644.2" font-family="Helvetica,sans-Serif" font-size="11.00">pulp_last_updated</text>
<polygon fill="none" stroke="black" points="347,-636 347,-658 452,-658 452,-636 347,-636"/>
<text text-anchor="start" x="350" y="-644.2" font-family="Helvetica,sans-Serif" font-size="11.00">timestamptz[35,6]</text>
<polygon fill="#ffffff" stroke="none" points="218,-614 218,-636 347,-636 347,-614 218,-614"/>
<polygon fill="none" stroke="black" points="218,-614 218,-636 347,-636 347,-614 218,-614"/>
<text text-anchor="start" x="238" y="-622.2" font-family="Helvetica,sans-Serif" font-size="11.00">name</text>
<polygon fill="none" stroke="black" points="347,-614 347,-636 452,-636 452,-614 347,-614"/>
<text text-anchor="start" x="350" y="-622.2" font-family="Helvetica,sans-Serif" font-size="11.00">text[2147483647]</text>
<polygon fill="none" stroke="black" points="218,-592 218,-614 347,-614 347,-592 218,-592"/>
<text text-anchor="start" x="238" y="-600.2" font-family="Helvetica,sans-Serif" font-size="11.00">description</text>
<polygon fill="none" stroke="black" points="347,-592 347,-614 452,-614 452,-592 347,-592"/>
<text text-anchor="start" x="350" y="-600.2" font-family="Helvetica,sans-Serif" font-size="11.00">text[2147483647]</text>
<polygon fill="none" stroke="black" points="218,-570 218,-592 347,-592 347,-570 218,-570"/>
<text text-anchor="start" x="238" y="-578.2" font-family="Helvetica,sans-Serif" font-size="11.00">next_version</text>
<polygon fill="none" stroke="black" points="347,-570 347,-592 452,-592 452,-570 347,-570"/>
<text text-anchor="start" x="350" y="-578.2" font-family="Helvetica,sans-Serif" font-size="11.00">int4[10]</text>
<polygon fill="none" stroke="black" points="218,-548 218,-570 347,-570 347,-548 218,-548"/>
<text text-anchor="start" x="238" y="-556.2" font-family="Helvetica,sans-Serif" font-size="11.00">pulp_type</text>
<polygon fill="none" stroke="black" points="347,-548 347,-570 452,-570 452,-548 347,-548"/>
<text text-anchor="start" x="350" y="-556.2" font-family="Helvetica,sans-Serif" font-size="11.00">text[2147483647]</text>
<polygon fill="#ffffff" stroke="none" points="218,-526 218,-548 347,-548 347,-526 218,-526"/>
<polygon fill="none" stroke="black" points="218,-526 218,-548 347,-548 347,-526 218,-526"/>
<image xlink:href="../../images/foreignKeys.png" width="11px" height="12px" preserveAspectRatio="xMinYMin meet" x="223" y="-543"/>
<text text-anchor="start" x="238" y="-534.2" font-family="Helvetica,sans-Serif" font-size="11.00">remote_id</text>
<polygon fill="none" stroke="black" points="347,-526 347,-548 452,-548 452,-526 347,-526"/>
<text text-anchor="start" x="350" y="-534.2" font-family="Helvetica,sans-Serif" font-size="11.00">uuid[2147483647]</text>
<polygon fill="#ffffff" stroke="none" points="218,-508 218,-526 269,-526 269,-508 218,-508"/>
<polygon fill="none" stroke="black" points="218,-508 218,-526 269,-526 269,-508 218,-508"/>
<text text-anchor="start" x="221" y="-514.2" font-family="Helvetica,sans-Serif" font-size="11.00">&lt; 1</text>
<polygon fill="#ffffff" stroke="none" points="269,-508 269,-526 347,-526 347,-508 269,-508"/>
<polygon fill="none" stroke="black" points="269,-508 269,-526 347,-526 347,-508 269,-508"/>
<text text-anchor="start" x="301" y="-514.2" font-family="Helvetica,sans-Serif" font-size="11.00">26 rows</text>
<polygon fill="#ffffff" stroke="none" points="347,-508 347,-526 452,-526 452,-508 347,-508"/>
<polygon fill="none" stroke="black" points="347,-508 347,-526 452,-526 452,-508 347,-508"/>
<text text-anchor="start" x="425" y="-514.2" font-family="Helvetica,sans-Serif" font-size="11.00">10 &gt;</text>
<polygon fill="none" stroke="black" stroke-width="2" points="217,-507 217,-725 453,-725 453,-507 217,-507"/>
</a>
</g>
</g>
<!-- ansible_ansibledistribution&#45;&gt;core_repository -->
<g id="edge1" class="edge"><title>ansible_ansibledistribution:repository_id:w&#45;&gt;core_repository:pulp_id.type:e</title>
<path fill="none" stroke="black" d="M802.108,-821.019C776.14,-834.586 798.371,-890.158 762,-911 659.04,-970 586.44,-986.634 495,-911 418.296,-847.554 552.544,-691 453,-691"/>
<polygon fill="black" stroke="black" points="808.67,-819.643 817.239,-821.523 812.585,-818.821 816.5,-818 816.5,-818 816.5,-818 812.585,-818.821 815.761,-814.477 808.67,-819.643 808.67,-819.643"/>
<ellipse fill="none" stroke="black" cx="805.539" cy="-820.3" rx="3.2" ry="3.2"/>
</g>
<!-- core_repositoryversion -->
<g id="node3" class="node"><title>core_repositoryversion</title>
<g id="a_node3"><a xlink:href="../../tables/core_repositoryversion.html" xlink:title="core_repositoryversion" target="_top">
<polygon fill="#ffffff" stroke="none" points="539,-37 539,-205 718,-205 718,-37 539,-37"/>
<polygon fill="#f5f5f5" stroke="none" points="539.5,-183 539.5,-205 718.5,-205 718.5,-183 539.5,-183"/>
<polygon fill="none" stroke="black" points="539.5,-183 539.5,-205 718.5,-205 718.5,-183 539.5,-183"/>
<text text-anchor="start" x="544.5" y="-192.2" font-family="Helvetica,sans-Serif" font-weight="bold" font-size="11.00">core_repositoryversion</text>
<text text-anchor="start" x="679.5" y="-191.2" font-family="Helvetica,sans-Serif" font-size="11.00">[table]</text>
<polygon fill="none" stroke="black" points="539.5,-161 539.5,-183 718.5,-183 718.5,-161 539.5,-161"/>
<image xlink:href="../../images/primaryKeys.png" width="11px" height="12px" preserveAspectRatio="xMinYMin meet" x="544.5" y="-178"/>
<text text-anchor="start" x="570.5" y="-169.2" font-family="Helvetica,sans-Serif" font-size="11.00">pulp_id</text>
<polygon fill="#ffffff" stroke="none" points="539.5,-139 539.5,-161 718.5,-161 718.5,-139 539.5,-139"/>
<polygon fill="none" stroke="black" points="539.5,-139 539.5,-161 718.5,-161 718.5,-139 539.5,-139"/>
<text text-anchor="start" x="570.5" y="-147.2" font-family="Helvetica,sans-Serif" font-size="11.00">number</text>
<polygon fill="#ffffff" stroke="none" points="539.5,-117 539.5,-139 718.5,-139 718.5,-117 539.5,-117"/>
<polygon fill="none" stroke="black" points="539.5,-117 539.5,-139 718.5,-139 718.5,-117 539.5,-117"/>
<text text-anchor="start" x="570.5" y="-125.2" font-family="Helvetica,sans-Serif" font-size="11.00">complete</text>
<polygon fill="#ffffff" stroke="none" points="539.5,-95 539.5,-117 718.5,-117 718.5,-95 539.5,-95"/>
<polygon fill="none" stroke="black" points="539.5,-95 539.5,-117 718.5,-117 718.5,-95 539.5,-95"/>
<image xlink:href="../../images/foreignKeys.png" width="11px" height="12px" preserveAspectRatio="xMinYMin meet" x="544.5" y="-112"/>
<text text-anchor="start" x="570.5" y="-103.2" font-family="Helvetica,sans-Serif" font-size="11.00">base_version_id</text>
<polygon fill="#ffffff" stroke="none" points="539.5,-73 539.5,-95 718.5,-95 718.5,-73 539.5,-73"/>
<polygon fill="none" stroke="black" points="539.5,-73 539.5,-95 718.5,-95 718.5,-73 539.5,-73"/>
<image xlink:href="../../images/foreignKeys.png" width="11px" height="12px" preserveAspectRatio="xMinYMin meet" x="544.5" y="-90"/>
<text text-anchor="start" x="570.5" y="-81.2" font-family="Helvetica,sans-Serif" font-size="11.00">repository_id</text>
<polygon fill="none" stroke="black" points="539.5,-55 539.5,-73 718.5,-73 718.5,-55 539.5,-55"/>
<text text-anchor="start" x="542.5" y="-61.2" font-family="Helvetica,sans-Serif" font-size="11.00">...</text>
<polygon fill="#ffffff" stroke="none" points="539.5,-37 539.5,-55 601.5,-55 601.5,-37 539.5,-37"/>
<polygon fill="none" stroke="black" points="539.5,-37 539.5,-55 601.5,-55 601.5,-37 539.5,-37"/>
<text text-anchor="start" x="542.5" y="-43.2" font-family="Helvetica,sans-Serif" font-size="11.00">&lt; 2</text>
<polygon fill="#ffffff" stroke="none" points="601.5,-37 601.5,-55 675.5,-55 675.5,-37 601.5,-37"/>
<polygon fill="none" stroke="black" points="601.5,-37 601.5,-55 675.5,-55 675.5,-37 601.5,-37"/>
<text text-anchor="start" x="623.5" y="-43.2" font-family="Helvetica,sans-Serif" font-size="11.00">162 rows</text>
<polygon fill="#ffffff" stroke="none" points="675.5,-37 675.5,-55 718.5,-55 718.5,-37 675.5,-37"/>
<polygon fill="none" stroke="black" points="675.5,-37 675.5,-55 718.5,-55 718.5,-37 675.5,-37"/>
<text text-anchor="start" x="698.5" y="-43.2" font-family="Helvetica,sans-Serif" font-size="11.00">7 &gt;</text>
</a>
</g>
</g>
<!-- ansible_ansibledistribution&#45;&gt;core_repositoryversion -->
<g id="edge2" class="edge"><title>ansible_ansibledistribution:repository_version_id:w&#45;&gt;core_repositoryversion:pulp_id:e</title>
<path fill="none" stroke="black" d="M802.16,-794.324C758.393,-782.349 801.699,-708.516 795,-648 783.216,-541.55 826.6,-172 719.5,-172"/>
<polygon fill="black" stroke="black" points="808.554,-795.071 816.082,-799.576 812.527,-795.536 816.5,-796 816.5,-796 816.5,-796 812.527,-795.536 816.918,-792.424 808.554,-795.071 808.554,-795.071"/>
<ellipse fill="none" stroke="black" cx="805.376" cy="-794.7" rx="3.2" ry="3.2"/>
</g>
<!-- core_remote -->
<g id="node11" class="node"><title>core_remote</title>
<g id="a_node11"><a xlink:href="../../tables/core_remote.html" xlink:title="core_remote" target="_top">
<polygon fill="#ffffff" stroke="none" points="8,-468 8,-570 167,-570 167,-468 8,-468"/>
<polygon fill="#f5f5f5" stroke="none" points="8.5,-548 8.5,-570 167.5,-570 167.5,-548 8.5,-548"/>
<polygon fill="none" stroke="black" points="8.5,-548 8.5,-570 167.5,-570 167.5,-548 8.5,-548"/>
<text text-anchor="start" x="13.5" y="-557.2" font-family="Helvetica,sans-Serif" font-weight="bold" font-size="11.00">core_remote</text>
<text text-anchor="start" x="128.5" y="-556.2" font-family="Helvetica,sans-Serif" font-size="11.00">[table]</text>
<polygon fill="none" stroke="black" points="8.5,-526 8.5,-548 167.5,-548 167.5,-526 8.5,-526"/>
<image xlink:href="../../images/primaryKeys.png" width="11px" height="12px" preserveAspectRatio="xMinYMin meet" x="13.5" y="-543"/>
<text text-anchor="start" x="28.5" y="-534.2" font-family="Helvetica,sans-Serif" font-size="11.00">pulp_id</text>
<polygon fill="#ffffff" stroke="none" points="8.5,-504 8.5,-526 167.5,-526 167.5,-504 8.5,-504"/>
<polygon fill="none" stroke="black" points="8.5,-504 8.5,-526 167.5,-526 167.5,-504 8.5,-504"/>
<text text-anchor="start" x="28.5" y="-512.2" font-family="Helvetica,sans-Serif" font-size="11.00">name</text>
<polygon fill="none" stroke="black" points="8.5,-486 8.5,-504 167.5,-504 167.5,-486 8.5,-486"/>
<text text-anchor="start" x="11.5" y="-492.2" font-family="Helvetica,sans-Serif" font-size="11.00">...</text>
<polygon fill="#ffffff" stroke="none" points="8.5,-468 8.5,-486 61.5,-486 61.5,-468 8.5,-468"/>
<polygon fill="none" stroke="black" points="8.5,-468 8.5,-486 61.5,-486 61.5,-468 8.5,-468"/>
<text text-anchor="start" x="11.5" y="-474.2" font-family="Helvetica,sans-Serif" font-size="11.00"> &#160;</text>
<polygon fill="#ffffff" stroke="none" points="61.5,-468 61.5,-486 123.5,-486 123.5,-468 61.5,-468"/>
<polygon fill="none" stroke="black" points="61.5,-468 61.5,-486 123.5,-486 123.5,-468 61.5,-468"/>
<text text-anchor="start" x="84.5" y="-474.2" font-family="Helvetica,sans-Serif" font-size="11.00">7 rows</text>
<polygon fill="#ffffff" stroke="none" points="123.5,-468 123.5,-486 167.5,-486 167.5,-468 123.5,-468"/>
<polygon fill="none" stroke="black" points="123.5,-468 123.5,-486 167.5,-486 167.5,-468 123.5,-468"/>
<text text-anchor="start" x="147.5" y="-474.2" font-family="Helvetica,sans-Serif" font-size="11.00">6 &gt;</text>
</a>
</g>
</g>
<!-- core_repository&#45;&gt;core_remote -->
<g id="edge11" class="edge"><title>core_repository:remote_id:w&#45;&gt;core_remote:pulp_id:e</title>
<path fill="none" stroke="black" d="M202.283,-537C191.289,-537 184.161,-537 168.5,-537"/>
<polygon fill="black" stroke="black" points="209,-537 217,-540.6 213,-537 217,-537 217,-537 217,-537 213,-537 217,-533.4 209,-537 209,-537"/>
<ellipse fill="none" stroke="black" cx="205.8" cy="-537" rx="3.2" ry="3.2"/>
</g>
<!-- core_repositoryversion&#45;&gt;core_repository -->
<g id="edge15" class="edge"><title>core_repositoryversion:repository_id:w&#45;&gt;core_repository:pulp_id.type:e</title>
<path fill="none" stroke="black" d="M523.993,-85.6716C481.905,-96.7591 506.349,-160.937 495,-216 484.304,-267.893 505.984,-691 453,-691"/>
<polygon fill="black" stroke="black" points="530.553,-84.9158 538.912,-87.5763 534.526,-84.4579 538.5,-84 538.5,-84 538.5,-84 534.526,-84.4579 538.088,-80.4237 530.553,-84.9158 530.553,-84.9158"/>
<ellipse fill="none" stroke="black" cx="527.374" cy="-85.2821" rx="3.2" ry="3.2"/>
</g>
<!-- ansible_ansiblerepository -->
<g id="node4" class="node"><title>ansible_ansiblerepository</title>
<g id="a_node4"><a xlink:href="../../tables/ansible_ansiblerepository.html" xlink:title="ansible_ansiblerepository" target="_top">
<polygon fill="#ffffff" stroke="none" points="531,-814 531,-876 726,-876 726,-814 531,-814"/>
<polygon fill="#f5f5f5" stroke="none" points="531.5,-854 531.5,-876 726.5,-876 726.5,-854 531.5,-854"/>
<polygon fill="none" stroke="black" points="531.5,-854 531.5,-876 726.5,-876 726.5,-854 531.5,-854"/>
<text text-anchor="start" x="536.5" y="-863.2" font-family="Helvetica,sans-Serif" font-weight="bold" font-size="11.00">ansible_ansiblerepository</text>
<text text-anchor="start" x="687.5" y="-862.2" font-family="Helvetica,sans-Serif" font-size="11.00">[table]</text>
<polygon fill="none" stroke="black" points="531.5,-832 531.5,-854 726.5,-854 726.5,-832 531.5,-832"/>
<image xlink:href="../../images/primaryKeys.png" width="11px" height="12px" preserveAspectRatio="xMinYMin meet" x="536.5" y="-849"/>
<text text-anchor="start" x="562.5" y="-840.2" font-family="Helvetica,sans-Serif" font-size="11.00">repository_ptr_id</text>
<polygon fill="#ffffff" stroke="none" points="531.5,-814 531.5,-832 604.5,-832 604.5,-814 531.5,-814"/>
<polygon fill="none" stroke="black" points="531.5,-814 531.5,-832 604.5,-832 604.5,-814 531.5,-814"/>
<text text-anchor="start" x="534.5" y="-820.2" font-family="Helvetica,sans-Serif" font-size="11.00">&lt; 1</text>
<polygon fill="#ffffff" stroke="none" points="604.5,-814 604.5,-832 678.5,-832 678.5,-814 604.5,-814"/>
<polygon fill="none" stroke="black" points="604.5,-814 604.5,-832 678.5,-832 678.5,-814 604.5,-814"/>
<text text-anchor="start" x="632.5" y="-820.2" font-family="Helvetica,sans-Serif" font-size="11.00">26 rows</text>
<polygon fill="#ffffff" stroke="none" points="678.5,-814 678.5,-832 726.5,-832 726.5,-814 678.5,-814"/>
<polygon fill="none" stroke="black" points="678.5,-814 678.5,-832 726.5,-832 726.5,-814 678.5,-814"/>
<text text-anchor="start" x="706.5" y="-820.2" font-family="Helvetica,sans-Serif" font-size="11.00">2 &gt;</text>
</a>
</g>
</g>
<!-- ansible_ansiblerepository&#45;&gt;core_repository -->
<g id="edge3" class="edge"><title>ansible_ansiblerepository:repository_ptr_id:w&#45;&gt;core_repository:pulp_id.type:e</title>
<path fill="none" stroke="black" d="M520.069,-841.864C461.815,-827.954 524.979,-691 453,-691"/>
<polygon fill="black" stroke="black" points="530.138,-838.937 529.272,-846.89 527.681,-846.717 528.547,-838.764 530.138,-838.937"/>
<polyline fill="none" stroke="black" points="530.5,-843 526.524,-842.567 "/>
<ellipse fill="none" stroke="black" cx="523.342" cy="-842.22" rx="3.2" ry="3.2"/>
</g>
<!-- container_containerdistribution -->
<g id="node5" class="node"><title>container_containerdistribution</title>
<g id="a_node5"><a xlink:href="../../tables/container_containerdistribution.html" xlink:title="container_containerdistribution" target="_top">
<polygon fill="#ffffff" stroke="none" points="803,-531 803,-637 1036,-637 1036,-531 803,-531"/>
<polygon fill="#f5f5f5" stroke="none" points="803.5,-615 803.5,-637 1036.5,-637 1036.5,-615 803.5,-615"/>
<polygon fill="none" stroke="black" points="803.5,-615 803.5,-637 1036.5,-637 1036.5,-615 803.5,-615"/>
<text text-anchor="start" x="808.5" y="-624.2" font-family="Helvetica,sans-Serif" font-weight="bold" font-size="11.00">container_containerdistribution</text>
<text text-anchor="start" x="997.5" y="-623.2" font-family="Helvetica,sans-Serif" font-size="11.00">[table]</text>
<polygon fill="none" stroke="black" points="803.5,-593 803.5,-615 1036.5,-615 1036.5,-593 803.5,-593"/>
<image xlink:href="../../images/primaryKeys.png" width="11px" height="12px" preserveAspectRatio="xMinYMin meet" x="808.5" y="-610"/>
<text text-anchor="start" x="833.5" y="-601.2" font-family="Helvetica,sans-Serif" font-size="11.00">basedistribution_ptr_id</text>
<polygon fill="#ffffff" stroke="none" points="803.5,-571 803.5,-593 1036.5,-593 1036.5,-571 803.5,-571"/>
<polygon fill="none" stroke="black" points="803.5,-571 803.5,-593 1036.5,-593 1036.5,-571 803.5,-571"/>
<image xlink:href="../../images/foreignKeys.png" width="11px" height="12px" preserveAspectRatio="xMinYMin meet" x="808.5" y="-588"/>
<text text-anchor="start" x="833.5" y="-579.2" font-family="Helvetica,sans-Serif" font-size="11.00">repository_id</text>
<polygon fill="#ffffff" stroke="none" points="803.5,-549 803.5,-571 1036.5,-571 1036.5,-549 803.5,-549"/>
<polygon fill="none" stroke="black" points="803.5,-549 803.5,-571 1036.5,-571 1036.5,-549 803.5,-549"/>
<image xlink:href="../../images/foreignKeys.png" width="11px" height="12px" preserveAspectRatio="xMinYMin meet" x="808.5" y="-566"/>
<text text-anchor="start" x="833.5" y="-557.2" font-family="Helvetica,sans-Serif" font-size="11.00">repository_version_id</text>
<polygon fill="#ffffff" stroke="none" points="803.5,-531 803.5,-549 903.5,-549 903.5,-531 803.5,-531"/>
<polygon fill="none" stroke="black" points="803.5,-531 803.5,-549 903.5,-549 903.5,-531 803.5,-531"/>
<text text-anchor="start" x="806.5" y="-537.2" font-family="Helvetica,sans-Serif" font-size="11.00">&lt; 3</text>
<polygon fill="#ffffff" stroke="none" points="903.5,-531 903.5,-549 984.5,-549 984.5,-531 903.5,-531"/>
<polygon fill="none" stroke="black" points="903.5,-531 903.5,-549 984.5,-549 984.5,-531 903.5,-531"/>
<text text-anchor="start" x="945.5" y="-537.2" font-family="Helvetica,sans-Serif" font-size="11.00">0 rows</text>
<polygon fill="#ffffff" stroke="none" points="984.5,-531 984.5,-549 1036.5,-549 1036.5,-531 984.5,-531"/>
<polygon fill="none" stroke="black" points="984.5,-531 984.5,-549 1036.5,-549 1036.5,-531 984.5,-531"/>
<text text-anchor="start" x="1026.5" y="-537.2" font-family="Helvetica,sans-Serif" font-size="11.00"> &#160;</text>
</a>
</g>
</g>
<!-- container_containerdistribution&#45;&gt;core_repository -->
<g id="edge4" class="edge"><title>container_containerdistribution:repository_id:w&#45;&gt;core_repository:pulp_id.type:e</title>
<path fill="none" stroke="black" d="M788.772,-586.757C745.99,-622.254 809.312,-845.555 762,-887 717.369,-926.096 541.142,-924.302 495,-887 425.719,-830.992 542.089,-691 453,-691"/>
<polygon fill="black" stroke="black" points="794.941,-584.619 803.679,-585.402 798.72,-583.31 802.5,-582 802.5,-582 802.5,-582 798.72,-583.31 801.321,-578.598 794.941,-584.619 794.941,-584.619"/>
<ellipse fill="none" stroke="black" cx="791.917" cy="-585.667" rx="3.20001" ry="3.20001"/>
</g>
<!-- container_containerdistribution&#45;&gt;core_repositoryversion -->
<g id="edge5" class="edge"><title>container_containerdistribution:repository_version_id:w&#45;&gt;core_repositoryversion:pulp_id:e</title>
<path fill="none" stroke="black" d="M788.349,-556.096C734.786,-522.419 792.65,-280.664 762,-216 750.355,-191.432 746.688,-172 719.5,-172"/>
<polygon fill="black" stroke="black" points="794.788,-557.873 801.543,-563.47 798.644,-558.936 802.5,-560 802.5,-560 802.5,-560 798.644,-558.936 803.457,-556.53 794.788,-557.873 794.788,-557.873"/>
<ellipse fill="none" stroke="black" cx="791.703" cy="-557.022" rx="3.20001" ry="3.20001"/>
</g>
<!-- container_containerpushrepository -->
<g id="node6" class="node"><title>container_containerpushrepository</title>
<g id="a_node6"><a xlink:href="../../tables/container_containerpushrepository.html" xlink:title="container_containerpushrepository" target="_top">
<polygon fill="#ffffff" stroke="none" points="503,-704 503,-766 754,-766 754,-704 503,-704"/>
<polygon fill="#f5f5f5" stroke="none" points="503.5,-744 503.5,-766 754.5,-766 754.5,-744 503.5,-744"/>
<polygon fill="none" stroke="black" points="503.5,-744 503.5,-766 754.5,-766 754.5,-744 503.5,-744"/>
<text text-anchor="start" x="508.5" y="-753.2" font-family="Helvetica,sans-Serif" font-weight="bold" font-size="11.00">container_containerpushrepository</text>
<text text-anchor="start" x="715.5" y="-752.2" font-family="Helvetica,sans-Serif" font-size="11.00">[table]</text>
<polygon fill="none" stroke="black" points="503.5,-722 503.5,-744 754.5,-744 754.5,-722 503.5,-722"/>
<image xlink:href="../../images/primaryKeys.png" width="11px" height="12px" preserveAspectRatio="xMinYMin meet" x="508.5" y="-739"/>
<text text-anchor="start" x="532.5" y="-730.2" font-family="Helvetica,sans-Serif" font-size="11.00">repository_ptr_id</text>
<polygon fill="#ffffff" stroke="none" points="503.5,-704 503.5,-722 612.5,-722 612.5,-704 503.5,-704"/>
<polygon fill="none" stroke="black" points="503.5,-704 503.5,-722 612.5,-722 612.5,-704 503.5,-704"/>
<text text-anchor="start" x="506.5" y="-710.2" font-family="Helvetica,sans-Serif" font-size="11.00">&lt; 1</text>
<polygon fill="#ffffff" stroke="none" points="612.5,-704 612.5,-722 697.5,-722 697.5,-704 612.5,-704"/>
<polygon fill="none" stroke="black" points="612.5,-704 612.5,-722 697.5,-722 697.5,-704 612.5,-704"/>
<text text-anchor="start" x="658.5" y="-710.2" font-family="Helvetica,sans-Serif" font-size="11.00">0 rows</text>
<polygon fill="#ffffff" stroke="none" points="697.5,-704 697.5,-722 754.5,-722 754.5,-704 697.5,-704"/>
<polygon fill="none" stroke="black" points="697.5,-704 697.5,-722 754.5,-722 754.5,-704 697.5,-704"/>
<text text-anchor="start" x="744.5" y="-710.2" font-family="Helvetica,sans-Serif" font-size="11.00"> &#160;</text>
</a>
</g>
</g>
<!-- container_containerpushrepository&#45;&gt;core_repository -->
<g id="edge6" class="edge"><title>container_containerpushrepository:repository_ptr_id:w&#45;&gt;core_repository:pulp_id.type:e</title>
<path fill="none" stroke="black" d="M492.32,-730.742C475.223,-722.018 477.795,-691 453,-691"/>
<polygon fill="black" stroke="black" points="502.585,-728.922 500.853,-736.732 499.291,-736.385 501.023,-728.575 502.585,-728.922"/>
<polyline fill="none" stroke="black" points="502.5,-733 498.595,-732.134 "/>
<ellipse fill="none" stroke="black" cx="495.471" cy="-731.441" rx="3.20001" ry="3.20001"/>
</g>
<!-- container_containerrepository -->
<g id="node7" class="node"><title>container_containerrepository</title>
<g id="a_node7"><a xlink:href="../../tables/container_containerrepository.html" xlink:title="container_containerrepository" target="_top">
<polygon fill="#ffffff" stroke="none" points="517,-621 517,-683 740,-683 740,-621 517,-621"/>
<polygon fill="#f5f5f5" stroke="none" points="517.5,-661 517.5,-683 740.5,-683 740.5,-661 517.5,-661"/>
<polygon fill="none" stroke="black" points="517.5,-661 517.5,-683 740.5,-683 740.5,-661 517.5,-661"/>
<text text-anchor="start" x="522.5" y="-670.2" font-family="Helvetica,sans-Serif" font-weight="bold" font-size="11.00">container_containerrepository</text>
<text text-anchor="start" x="701.5" y="-669.2" font-family="Helvetica,sans-Serif" font-size="11.00">[table]</text>
<polygon fill="none" stroke="black" points="517.5,-639 517.5,-661 740.5,-661 740.5,-639 517.5,-639"/>
<image xlink:href="../../images/primaryKeys.png" width="11px" height="12px" preserveAspectRatio="xMinYMin meet" x="522.5" y="-656"/>
<text text-anchor="start" x="547.5" y="-647.2" font-family="Helvetica,sans-Serif" font-size="11.00">repository_ptr_id</text>
<polygon fill="#ffffff" stroke="none" points="517.5,-621 517.5,-639 612.5,-639 612.5,-621 517.5,-621"/>
<polygon fill="none" stroke="black" points="517.5,-621 517.5,-639 612.5,-639 612.5,-621 517.5,-621"/>
<text text-anchor="start" x="520.5" y="-627.2" font-family="Helvetica,sans-Serif" font-size="11.00">&lt; 1</text>
<polygon fill="#ffffff" stroke="none" points="612.5,-621 612.5,-639 690.5,-639 690.5,-621 612.5,-621"/>
<polygon fill="none" stroke="black" points="612.5,-621 612.5,-639 690.5,-639 690.5,-621 612.5,-621"/>
<text text-anchor="start" x="651.5" y="-627.2" font-family="Helvetica,sans-Serif" font-size="11.00">0 rows</text>
<polygon fill="#ffffff" stroke="none" points="690.5,-621 690.5,-639 740.5,-639 740.5,-621 690.5,-621"/>
<polygon fill="none" stroke="black" points="690.5,-621 690.5,-639 740.5,-639 740.5,-621 690.5,-621"/>
<text text-anchor="start" x="730.5" y="-627.2" font-family="Helvetica,sans-Serif" font-size="11.00"> &#160;</text>
</a>
</g>
</g>
<!-- container_containerrepository&#45;&gt;core_repository -->
<g id="edge7" class="edge"><title>container_containerrepository:repository_ptr_id:w&#45;&gt;core_repository:pulp_id.type:e</title>
<path fill="none" stroke="black" d="M506.106,-651.557C483.259,-659.046 482.657,-691 453,-691"/>
<polygon fill="black" stroke="black" points="515.116,-646.163 516.301,-654.074 514.719,-654.311 513.534,-646.4 515.116,-646.163"/>
<polyline fill="none" stroke="black" points="516.5,-650 512.544,-650.593 "/>
<ellipse fill="none" stroke="black" cx="509.379" cy="-651.067" rx="3.2" ry="3.2"/>
</g>
<!-- container_upload -->
<g id="node8" class="node"><title>container_upload</title>
<g id="a_node8"><a xlink:href="../../tables/container_upload.html" xlink:title="container_upload" target="_top">
<polygon fill="#ffffff" stroke="none" points="554.5,-498 554.5,-600 702.5,-600 702.5,-498 554.5,-498"/>
<polygon fill="#f5f5f5" stroke="none" points="554.5,-578 554.5,-600 702.5,-600 702.5,-578 554.5,-578"/>
<polygon fill="none" stroke="black" points="554.5,-578 554.5,-600 702.5,-600 702.5,-578 554.5,-578"/>
<text text-anchor="start" x="559.5" y="-587.2" font-family="Helvetica,sans-Serif" font-weight="bold" font-size="11.00">container_upload</text>
<text text-anchor="start" x="663.5" y="-586.2" font-family="Helvetica,sans-Serif" font-size="11.00">[table]</text>
<polygon fill="none" stroke="black" points="554.5,-556 554.5,-578 702.5,-578 702.5,-556 554.5,-556"/>
<image xlink:href="../../images/primaryKeys.png" width="11px" height="12px" preserveAspectRatio="xMinYMin meet" x="559.5" y="-573"/>
<text text-anchor="start" x="584.5" y="-564.2" font-family="Helvetica,sans-Serif" font-size="11.00">pulp_id</text>
<polygon fill="#ffffff" stroke="none" points="554.5,-534 554.5,-556 702.5,-556 702.5,-534 554.5,-534"/>
<polygon fill="none" stroke="black" points="554.5,-534 554.5,-556 702.5,-556 702.5,-534 554.5,-534"/>
<image xlink:href="../../images/foreignKeys.png" width="11px" height="12px" preserveAspectRatio="xMinYMin meet" x="559.5" y="-551"/>
<text text-anchor="start" x="584.5" y="-542.2" font-family="Helvetica,sans-Serif" font-size="11.00">repository_id</text>
<polygon fill="none" stroke="black" points="554.5,-516 554.5,-534 702.5,-534 702.5,-516 554.5,-516"/>
<text text-anchor="start" x="557.5" y="-522.2" font-family="Helvetica,sans-Serif" font-size="11.00">...</text>
<polygon fill="#ffffff" stroke="none" points="554.5,-498 554.5,-516 612.5,-516 612.5,-498 554.5,-498"/>
<polygon fill="none" stroke="black" points="554.5,-498 554.5,-516 612.5,-516 612.5,-498 554.5,-498"/>
<text text-anchor="start" x="557.5" y="-504.2" font-family="Helvetica,sans-Serif" font-size="11.00">&lt; 1</text>
<polygon fill="#ffffff" stroke="none" points="612.5,-498 612.5,-516 671.5,-516 671.5,-498 612.5,-498"/>
<polygon fill="none" stroke="black" points="612.5,-498 612.5,-516 671.5,-516 671.5,-498 612.5,-498"/>
<text text-anchor="start" x="632.5" y="-504.2" font-family="Helvetica,sans-Serif" font-size="11.00">0 rows</text>
<polygon fill="#ffffff" stroke="none" points="671.5,-498 671.5,-516 702.5,-516 702.5,-498 671.5,-498"/>
<polygon fill="none" stroke="black" points="671.5,-498 671.5,-516 702.5,-516 702.5,-498 671.5,-498"/>
<text text-anchor="start" x="692.5" y="-504.2" font-family="Helvetica,sans-Serif" font-size="11.00"> &#160;</text>
</a>
</g>
</g>
<!-- container_upload&#45;&gt;core_repository -->
<g id="edge8" class="edge"><title>container_upload:repository_id:w&#45;&gt;core_repository:pulp_id.type:e</title>
<path fill="none" stroke="black" d="M538.943,-547.008C514.634,-554.723 514.054,-583.407 495,-611 472.182,-644.045 493.158,-691 453,-691"/>
<polygon fill="black" stroke="black" points="545.575,-546.093 553.992,-548.566 549.538,-545.547 553.5,-545 553.5,-545 553.5,-545 549.538,-545.547 553.008,-541.434 545.575,-546.093 545.575,-546.093"/>
<ellipse fill="none" stroke="black" cx="542.405" cy="-546.531" rx="3.2" ry="3.2"/>
</g>
<!-- core_pulpexporter_repositories -->
<g id="node9" class="node"><title>core_pulpexporter_repositories</title>
<g id="a_node9"><a xlink:href="../../tables/core_pulpexporter_repositories.html" xlink:title="core_pulpexporter_repositories" target="_top">
<polygon fill="#ffffff" stroke="none" points="515,-371 515,-477 742,-477 742,-371 515,-371"/>
<polygon fill="#f5f5f5" stroke="none" points="515.5,-455 515.5,-477 742.5,-477 742.5,-455 515.5,-455"/>
<polygon fill="none" stroke="black" points="515.5,-455 515.5,-477 742.5,-477 742.5,-455 515.5,-455"/>
<text text-anchor="start" x="520.5" y="-464.2" font-family="Helvetica,sans-Serif" font-weight="bold" font-size="11.00">core_pulpexporter_repositories</text>
<text text-anchor="start" x="703.5" y="-463.2" font-family="Helvetica,sans-Serif" font-size="11.00">[table]</text>
<polygon fill="none" stroke="black" points="515.5,-433 515.5,-455 742.5,-455 742.5,-433 515.5,-433"/>
<image xlink:href="../../images/primaryKeys.png" width="11px" height="12px" preserveAspectRatio="xMinYMin meet" x="520.5" y="-450"/>
<text text-anchor="start" x="545.5" y="-441.2" font-family="Helvetica,sans-Serif" font-size="11.00">id</text>
<polygon fill="#ffffff" stroke="none" points="515.5,-411 515.5,-433 742.5,-433 742.5,-411 515.5,-411"/>
<polygon fill="none" stroke="black" points="515.5,-411 515.5,-433 742.5,-433 742.5,-411 515.5,-411"/>
<image xlink:href="../../images/foreignKeys.png" width="11px" height="12px" preserveAspectRatio="xMinYMin meet" x="520.5" y="-428"/>
<text text-anchor="start" x="545.5" y="-419.2" font-family="Helvetica,sans-Serif" font-size="11.00">pulpexporter_id</text>
<polygon fill="#ffffff" stroke="none" points="515.5,-389 515.5,-411 742.5,-411 742.5,-389 515.5,-389"/>
<polygon fill="none" stroke="black" points="515.5,-389 515.5,-411 742.5,-411 742.5,-389 515.5,-389"/>
<image xlink:href="../../images/foreignKeys.png" width="11px" height="12px" preserveAspectRatio="xMinYMin meet" x="520.5" y="-406"/>
<text text-anchor="start" x="545.5" y="-397.2" font-family="Helvetica,sans-Serif" font-size="11.00">repository_id</text>
<polygon fill="#ffffff" stroke="none" points="515.5,-371 515.5,-389 612.5,-389 612.5,-371 515.5,-371"/>
<polygon fill="none" stroke="black" points="515.5,-371 515.5,-389 612.5,-389 612.5,-371 515.5,-371"/>
<text text-anchor="start" x="518.5" y="-377.2" font-family="Helvetica,sans-Serif" font-size="11.00">&lt; 2</text>
<polygon fill="#ffffff" stroke="none" points="612.5,-371 612.5,-389 691.5,-389 691.5,-371 612.5,-371"/>
<polygon fill="none" stroke="black" points="612.5,-371 612.5,-389 691.5,-389 691.5,-371 612.5,-371"/>
<text text-anchor="start" x="652.5" y="-377.2" font-family="Helvetica,sans-Serif" font-size="11.00">0 rows</text>
<polygon fill="#ffffff" stroke="none" points="691.5,-371 691.5,-389 742.5,-389 742.5,-371 691.5,-371"/>
<polygon fill="none" stroke="black" points="691.5,-371 691.5,-389 742.5,-389 742.5,-371 691.5,-371"/>
<text text-anchor="start" x="732.5" y="-377.2" font-family="Helvetica,sans-Serif" font-size="11.00"> &#160;</text>
</a>
</g>
</g>
<!-- core_pulpexporter_repositories&#45;&gt;core_repository -->
<g id="edge9" class="edge"><title>core_pulpexporter_repositories:repository_id:w&#45;&gt;core_repository:pulp_id.type:e</title>
<path fill="none" stroke="black" d="M500.845,-405.553C459.082,-445.784 513.673,-691 453,-691"/>
<polygon fill="black" stroke="black" points="507.089,-403.014 515.856,-403.335 510.795,-401.507 514.5,-400 514.5,-400 514.5,-400 510.795,-401.507 513.144,-396.665 507.089,-403.014 507.089,-403.014"/>
<ellipse fill="none" stroke="black" cx="504.125" cy="-404.219" rx="3.20001" ry="3.20001"/>
</g>
<!-- core_pulpimporterrepository -->
<g id="node10" class="node"><title>core_pulpimporterrepository</title>
<g id="a_node10"><a xlink:href="../../tables/core_pulpimporterrepository.html" xlink:title="core_pulpimporterrepository" target="_top">
<polygon fill="#ffffff" stroke="none" points="521,-226 521,-350 736,-350 736,-226 521,-226"/>
<polygon fill="#f5f5f5" stroke="none" points="521.5,-328 521.5,-350 736.5,-350 736.5,-328 521.5,-328"/>
<polygon fill="none" stroke="black" points="521.5,-328 521.5,-350 736.5,-350 736.5,-328 521.5,-328"/>
<text text-anchor="start" x="526.5" y="-337.2" font-family="Helvetica,sans-Serif" font-weight="bold" font-size="11.00">core_pulpimporterrepository</text>
<text text-anchor="start" x="697.5" y="-336.2" font-family="Helvetica,sans-Serif" font-size="11.00">[table]</text>
<polygon fill="none" stroke="black" points="521.5,-306 521.5,-328 736.5,-328 736.5,-306 521.5,-306"/>
<image xlink:href="../../images/primaryKeys.png" width="11px" height="12px" preserveAspectRatio="xMinYMin meet" x="526.5" y="-323"/>
<text text-anchor="start" x="552.5" y="-314.2" font-family="Helvetica,sans-Serif" font-size="11.00">pulp_id</text>
<polygon fill="#ffffff" stroke="none" points="521.5,-284 521.5,-306 736.5,-306 736.5,-284 521.5,-284"/>
<polygon fill="none" stroke="black" points="521.5,-284 521.5,-306 736.5,-306 736.5,-284 521.5,-284"/>
<image xlink:href="../../images/foreignKeys.png" width="11px" height="12px" preserveAspectRatio="xMinYMin meet" x="526.5" y="-301"/>
<text text-anchor="start" x="552.5" y="-292.2" font-family="Helvetica,sans-Serif" font-size="11.00">repository_id</text>
<polygon fill="#ffffff" stroke="none" points="521.5,-262 521.5,-284 736.5,-284 736.5,-262 521.5,-262"/>
<polygon fill="none" stroke="black" points="521.5,-262 521.5,-284 736.5,-284 736.5,-262 521.5,-262"/>
<image xlink:href="../../images/foreignKeys.png" width="11px" height="12px" preserveAspectRatio="xMinYMin meet" x="526.5" y="-279"/>
<text text-anchor="start" x="552.5" y="-270.2" font-family="Helvetica,sans-Serif" font-size="11.00">pulp_importer_id</text>
<polygon fill="none" stroke="black" points="521.5,-244 521.5,-262 736.5,-262 736.5,-244 521.5,-244"/>
<text text-anchor="start" x="524.5" y="-250.2" font-family="Helvetica,sans-Serif" font-size="11.00">...</text>
<polygon fill="#ffffff" stroke="none" points="521.5,-226 521.5,-244 612.5,-244 612.5,-226 521.5,-226"/>
<polygon fill="none" stroke="black" points="521.5,-226 521.5,-244 612.5,-244 612.5,-226 521.5,-226"/>
<text text-anchor="start" x="524.5" y="-232.2" font-family="Helvetica,sans-Serif" font-size="11.00">&lt; 2</text>
<polygon fill="#ffffff" stroke="none" points="612.5,-226 612.5,-244 688.5,-244 688.5,-226 612.5,-226"/>
<polygon fill="none" stroke="black" points="612.5,-226 612.5,-244 688.5,-244 688.5,-226 612.5,-226"/>
<text text-anchor="start" x="649.5" y="-232.2" font-family="Helvetica,sans-Serif" font-size="11.00">0 rows</text>
<polygon fill="#ffffff" stroke="none" points="688.5,-226 688.5,-244 736.5,-244 736.5,-226 688.5,-226"/>
<polygon fill="none" stroke="black" points="688.5,-226 688.5,-244 736.5,-244 736.5,-226 688.5,-226"/>
<text text-anchor="start" x="726.5" y="-232.2" font-family="Helvetica,sans-Serif" font-size="11.00"> &#160;</text>
</a>
</g>
</g>
<!-- core_pulpimporterrepository&#45;&gt;core_repository -->
<g id="edge10" class="edge"><title>core_pulpimporterrepository:repository_id:w&#45;&gt;core_repository:pulp_id.type:e</title>
<path fill="none" stroke="black" d="M506.399,-299.179C443.943,-341.501 536.864,-691 453,-691"/>
<polygon fill="black" stroke="black" points="512.83,-297.273 521.523,-298.452 516.665,-296.137 520.5,-295 520.5,-295 520.5,-295 516.665,-296.137 519.477,-291.548 512.83,-297.273 512.83,-297.273"/>
<ellipse fill="none" stroke="black" cx="509.762" cy="-298.183" rx="3.20001" ry="3.20001"/>
</g>
<!-- core_repositorycontent -->
<g id="node12" class="node"><title>core_repositorycontent</title>
<g id="a_node12"><a xlink:href="../../tables/core_repositorycontent.html" xlink:title="core_repositorycontent" target="_top">
<polygon fill="#ffffff" stroke="none" points="828.5,-125 828.5,-293 1010.5,-293 1010.5,-125 828.5,-125"/>
<polygon fill="#f5f5f5" stroke="none" points="828.5,-271 828.5,-293 1010.5,-293 1010.5,-271 828.5,-271"/>
<polygon fill="none" stroke="black" points="828.5,-271 828.5,-293 1010.5,-293 1010.5,-271 828.5,-271"/>
<text text-anchor="start" x="833.5" y="-280.2" font-family="Helvetica,sans-Serif" font-weight="bold" font-size="11.00">core_repositorycontent</text>
<text text-anchor="start" x="971.5" y="-279.2" font-family="Helvetica,sans-Serif" font-size="11.00">[table]</text>
<polygon fill="none" stroke="black" points="828.5,-249 828.5,-271 1010.5,-271 1010.5,-249 828.5,-249"/>
<image xlink:href="../../images/primaryKeys.png" width="11px" height="12px" preserveAspectRatio="xMinYMin meet" x="833.5" y="-266"/>
<text text-anchor="start" x="859.5" y="-257.2" font-family="Helvetica,sans-Serif" font-size="11.00">pulp_id</text>
<polygon fill="#ffffff" stroke="none" points="828.5,-227 828.5,-249 1010.5,-249 1010.5,-227 828.5,-227"/>
<polygon fill="none" stroke="black" points="828.5,-227 828.5,-249 1010.5,-249 1010.5,-227 828.5,-227"/>
<image xlink:href="../../images/foreignKeys.png" width="11px" height="12px" preserveAspectRatio="xMinYMin meet" x="833.5" y="-244"/>
<text text-anchor="start" x="859.5" y="-235.2" font-family="Helvetica,sans-Serif" font-size="11.00">content_id</text>
<polygon fill="#ffffff" stroke="none" points="828.5,-205 828.5,-227 1010.5,-227 1010.5,-205 828.5,-205"/>
<polygon fill="none" stroke="black" points="828.5,-205 828.5,-227 1010.5,-227 1010.5,-205 828.5,-205"/>
<image xlink:href="../../images/foreignKeys.png" width="11px" height="12px" preserveAspectRatio="xMinYMin meet" x="833.5" y="-222"/>
<text text-anchor="start" x="859.5" y="-213.2" font-family="Helvetica,sans-Serif" font-size="11.00">repository_id</text>
<polygon fill="#ffffff" stroke="none" points="828.5,-183 828.5,-205 1010.5,-205 1010.5,-183 828.5,-183"/>
<polygon fill="none" stroke="black" points="828.5,-183 828.5,-205 1010.5,-205 1010.5,-183 828.5,-183"/>
<image xlink:href="../../images/foreignKeys.png" width="11px" height="12px" preserveAspectRatio="xMinYMin meet" x="833.5" y="-200"/>
<text text-anchor="start" x="859.5" y="-191.2" font-family="Helvetica,sans-Serif" font-size="11.00">version_added_id</text>
<polygon fill="#ffffff" stroke="none" points="828.5,-161 828.5,-183 1010.5,-183 1010.5,-161 828.5,-161"/>
<polygon fill="none" stroke="black" points="828.5,-161 828.5,-183 1010.5,-183 1010.5,-161 828.5,-161"/>
<image xlink:href="../../images/foreignKeys.png" width="11px" height="12px" preserveAspectRatio="xMinYMin meet" x="833.5" y="-178"/>
<text text-anchor="start" x="859.5" y="-169.2" font-family="Helvetica,sans-Serif" font-size="11.00">version_removed_id</text>
<polygon fill="none" stroke="black" points="828.5,-143 828.5,-161 1010.5,-161 1010.5,-143 828.5,-143"/>
<text text-anchor="start" x="831.5" y="-149.2" font-family="Helvetica,sans-Serif" font-size="11.00">...</text>
<polygon fill="#ffffff" stroke="none" points="828.5,-125 828.5,-143 896.5,-143 896.5,-125 828.5,-125"/>
<polygon fill="none" stroke="black" points="828.5,-125 828.5,-143 896.5,-143 896.5,-125 828.5,-125"/>
<text text-anchor="start" x="831.5" y="-131.2" font-family="Helvetica,sans-Serif" font-size="11.00">&lt; 4</text>
<polygon fill="#ffffff" stroke="none" points="896.5,-125 896.5,-143 974.5,-143 974.5,-125 896.5,-125"/>
<polygon fill="none" stroke="black" points="896.5,-125 896.5,-143 974.5,-143 974.5,-125 896.5,-125"/>
<text text-anchor="start" x="922.5" y="-131.2" font-family="Helvetica,sans-Serif" font-size="11.00">786 rows</text>
<polygon fill="#ffffff" stroke="none" points="974.5,-125 974.5,-143 1010.5,-143 1010.5,-125 974.5,-125"/>
<polygon fill="none" stroke="black" points="974.5,-125 974.5,-143 1010.5,-143 1010.5,-125 974.5,-125"/>
<text text-anchor="start" x="1000.5" y="-131.2" font-family="Helvetica,sans-Serif" font-size="11.00"> &#160;</text>
</a>
</g>
</g>
<!-- core_repositorycontent&#45;&gt;core_repository -->
<g id="edge12" class="edge"><title>core_repositorycontent:repository_id:w&#45;&gt;core_repository:pulp_id.type:e</title>
<path fill="none" stroke="black" d="M813.127,-218.462C714.464,-255.412 851.819,-697.057 762,-777 717.679,-816.447 545.326,-808.429 495,-777 458.921,-754.468 495.537,-691 453,-691"/>
<polygon fill="black" stroke="black" points="819.615,-217.351 828.108,-219.548 823.557,-216.675 827.5,-216 827.5,-216 827.5,-216 823.557,-216.675 826.892,-212.452 819.615,-217.351 819.615,-217.351"/>
<ellipse fill="none" stroke="black" cx="816.461" cy="-217.891" rx="3.2" ry="3.2"/>
</g>
<!-- core_repositorycontent&#45;&gt;core_repositoryversion -->
<g id="edge13" class="edge"><title>core_repositorycontent:version_added_id:w&#45;&gt;core_repositoryversion:pulp_id:e</title>
<path fill="none" stroke="black" d="M812.723,-193.268C775.854,-189.451 763.128,-172 719.5,-172"/>
<polygon fill="black" stroke="black" points="819.51,-193.604 827.322,-197.596 823.505,-193.802 827.5,-194 827.5,-194 827.5,-194 823.505,-193.802 827.678,-190.404 819.51,-193.604 819.51,-193.604"/>
<ellipse fill="none" stroke="black" cx="816.314" cy="-193.446" rx="3.2" ry="3.2"/>
</g>
<!-- core_repositorycontent&#45;&gt;core_repositoryversion -->
<g id="edge14" class="edge"><title>core_repositorycontent:version_removed_id:w&#45;&gt;core_repositoryversion:pulp_id:e</title>
<path fill="none" stroke="black" d="M812.948,-172C776.444,-172 762.25,-172 719.5,-172"/>
<polygon fill="black" stroke="black" points="819.5,-172 827.5,-175.6 823.5,-172 827.5,-172 827.5,-172 827.5,-172 823.5,-172 827.5,-168.4 819.5,-172 819.5,-172"/>
<ellipse fill="none" stroke="black" cx="816.3" cy="-172" rx="3.2" ry="3.2"/>
</g>
</g>
</svg>
