<?xml version="1.0" encoding="UTF-8" standalone="no"?>
<!DOCTYPE svg PUBLIC "-//W3C//DTD SVG 1.1//EN"
 "http://www.w3.org/Graphics/SVG/1.1/DTD/svg11.dtd">
<!-- Generated by graphviz version 2.38.0 (20140413.2041)
 -->
<!-- Title: oneDegreeRelationshipsDiagram Pages: 1 -->
<svg width="488pt" height="489pt"
 viewBox="0.00 0.00 488.00 489.00" xmlns="http://www.w3.org/2000/svg" xmlns:xlink="http://www.w3.org/1999/xlink">
<g id="graph0" class="graph" transform="scale(1 1) rotate(0) translate(4 485)">
<title>oneDegreeRelationshipsDiagram</title>
<polygon fill="#ffffff" stroke="none" points="-4,4 -4,-485 484,-485 484,4 -4,4"/>
<text text-anchor="middle" x="74.5" y="-7.2" font-family="Helvetica,sans-Serif" font-size="11.00">Generated by SchemaSpy</text>
<!-- core_remoteartifact -->
<g id="node1" class="node"><title>core_remoteartifact</title>
<g id="a_node1"><a xlink:href="../../tables/core_remoteartifact.html" xlink:title="core_remoteartifact" target="_top">
<polygon fill="#ffffff" stroke="none" points="223,-147 223,-477 472,-477 472,-147 223,-147"/>
<polygon fill="#f5f5f5" stroke="none" points="225.5,-453 225.5,-475 470.5,-475 470.5,-453 225.5,-453"/>
<polygon fill="none" stroke="black" points="225.5,-453 225.5,-475 470.5,-475 470.5,-453 225.5,-453"/>
<text text-anchor="start" x="230.5" y="-462.2" font-family="Helvetica,sans-Serif" font-weight="bold" font-size="11.00">core_remoteartifact</text>
<text text-anchor="start" x="431.5" y="-461.2" font-family="Helvetica,sans-Serif" font-size="11.00">[table]</text>
<polygon fill="none" stroke="black" points="225.5,-431 225.5,-453 365.5,-453 365.5,-431 225.5,-431"/>
<image xlink:href="../../images/primaryKeys.png" width="11px" height="12px" preserveAspectRatio="xMinYMin meet" x="230.5" y="-448"/>
<text text-anchor="start" x="245.5" y="-439.2" font-family="Helvetica,sans-Serif" font-size="11.00">pulp_id</text>
<polygon fill="none" stroke="black" points="365.5,-431 365.5,-453 470.5,-453 470.5,-431 365.5,-431"/>
<text text-anchor="start" x="368.5" y="-439.2" font-family="Helvetica,sans-Serif" font-size="11.00">uuid[2147483647]</text>
<polygon fill="none" stroke="black" points="225.5,-409 225.5,-431 365.5,-431 365.5,-409 225.5,-409"/>
<text text-anchor="start" x="245.5" y="-417.2" font-family="Helvetica,sans-Serif" font-size="11.00">pulp_created</text>
<polygon fill="none" stroke="black" points="365.5,-409 365.5,-431 470.5,-431 470.5,-409 365.5,-409"/>
<text text-anchor="start" x="368.5" y="-417.2" font-family="Helvetica,sans-Serif" font-size="11.00">timestamptz[35,6]</text>
<polygon fill="none" stroke="black" points="225.5,-387 225.5,-409 365.5,-409 365.5,-387 225.5,-387"/>
<text text-anchor="start" x="245.5" y="-395.2" font-family="Helvetica,sans-Serif" font-size="11.00">pulp_last_updated</text>
<polygon fill="none" stroke="black" points="365.5,-387 365.5,-409 470.5,-409 470.5,-387 365.5,-387"/>
<text text-anchor="start" x="368.5" y="-395.2" font-family="Helvetica,sans-Serif" font-size="11.00">timestamptz[35,6]</text>
<polygon fill="none" stroke="black" points="225.5,-365 225.5,-387 365.5,-387 365.5,-365 225.5,-365"/>
<text text-anchor="start" x="245.5" y="-373.2" font-family="Helvetica,sans-Serif" font-size="11.00">url</text>
<polygon fill="none" stroke="black" points="365.5,-365 365.5,-387 470.5,-387 470.5,-365 365.5,-365"/>
<text text-anchor="start" x="368.5" y="-373.2" font-family="Helvetica,sans-Serif" font-size="11.00">text[2147483647]</text>
<polygon fill="none" stroke="black" points="225.5,-343 225.5,-365 365.5,-365 365.5,-343 225.5,-343"/>
<text text-anchor="start" x="245.5" y="-351.2" font-family="Helvetica,sans-Serif" font-size="11.00">size</text>
<polygon fill="none" stroke="black" points="365.5,-343 365.5,-365 470.5,-365 470.5,-343 365.5,-343"/>
<text text-anchor="start" x="368.5" y="-351.2" font-family="Helvetica,sans-Serif" font-size="11.00">int8[19]</text>
<polygon fill="none" stroke="black" points="225.5,-321 225.5,-343 365.5,-343 365.5,-321 225.5,-321"/>
<text text-anchor="start" x="245.5" y="-329.2" font-family="Helvetica,sans-Serif" font-size="11.00">md5</text>
<polygon fill="none" stroke="black" points="365.5,-321 365.5,-343 470.5,-343 470.5,-321 365.5,-321"/>
<text text-anchor="start" x="368.5" y="-329.2" font-family="Helvetica,sans-Serif" font-size="11.00">varchar[32]</text>
<polygon fill="none" stroke="black" points="225.5,-299 225.5,-321 365.5,-321 365.5,-299 225.5,-299"/>
<text text-anchor="start" x="245.5" y="-307.2" font-family="Helvetica,sans-Serif" font-size="11.00">sha1</text>
<polygon fill="none" stroke="black" points="365.5,-299 365.5,-321 470.5,-321 470.5,-299 365.5,-299"/>
<text text-anchor="start" x="368.5" y="-307.2" font-family="Helvetica,sans-Serif" font-size="11.00">varchar[40]</text>
<polygon fill="none" stroke="black" points="225.5,-277 225.5,-299 365.5,-299 365.5,-277 225.5,-277"/>
<text text-anchor="start" x="245.5" y="-285.2" font-family="Helvetica,sans-Serif" font-size="11.00">sha224</text>
<polygon fill="none" stroke="black" points="365.5,-277 365.5,-299 470.5,-299 470.5,-277 365.5,-277"/>
<text text-anchor="start" x="368.5" y="-285.2" font-family="Helvetica,sans-Serif" font-size="11.00">varchar[56]</text>
<polygon fill="none" stroke="black" points="225.5,-255 225.5,-277 365.5,-277 365.5,-255 225.5,-255"/>
<text text-anchor="start" x="245.5" y="-263.2" font-family="Helvetica,sans-Serif" font-size="11.00">sha256</text>
<polygon fill="none" stroke="black" points="365.5,-255 365.5,-277 470.5,-277 470.5,-255 365.5,-255"/>
<text text-anchor="start" x="368.5" y="-263.2" font-family="Helvetica,sans-Serif" font-size="11.00">varchar[64]</text>
<polygon fill="none" stroke="black" points="225.5,-233 225.5,-255 365.5,-255 365.5,-233 225.5,-233"/>
<text text-anchor="start" x="245.5" y="-241.2" font-family="Helvetica,sans-Serif" font-size="11.00">sha384</text>
<polygon fill="none" stroke="black" points="365.5,-233 365.5,-255 470.5,-255 470.5,-233 365.5,-233"/>
<text text-anchor="start" x="368.5" y="-241.2" font-family="Helvetica,sans-Serif" font-size="11.00">varchar[96]</text>
<polygon fill="none" stroke="black" points="225.5,-211 225.5,-233 365.5,-233 365.5,-211 225.5,-211"/>
<text text-anchor="start" x="245.5" y="-219.2" font-family="Helvetica,sans-Serif" font-size="11.00">sha512</text>
<polygon fill="none" stroke="black" points="365.5,-211 365.5,-233 470.5,-233 470.5,-211 365.5,-211"/>
<text text-anchor="start" x="368.5" y="-219.2" font-family="Helvetica,sans-Serif" font-size="11.00">varchar[128]</text>
<polygon fill="#ffffff" stroke="none" points="225.5,-189 225.5,-211 365.5,-211 365.5,-189 225.5,-189"/>
<polygon fill="none" stroke="black" points="225.5,-189 225.5,-211 365.5,-211 365.5,-189 225.5,-189"/>
<image xlink:href="../../images/foreignKeys.png" width="11px" height="12px" preserveAspectRatio="xMinYMin meet" x="230.5" y="-206"/>
<text text-anchor="start" x="245.5" y="-197.2" font-family="Helvetica,sans-Serif" font-size="11.00">content_artifact_id</text>
<polygon fill="none" stroke="black" points="365.5,-189 365.5,-211 470.5,-211 470.5,-189 365.5,-189"/>
<text text-anchor="start" x="368.5" y="-197.2" font-family="Helvetica,sans-Serif" font-size="11.00">uuid[2147483647]</text>
<polygon fill="#ffffff" stroke="none" points="225.5,-167 225.5,-189 365.5,-189 365.5,-167 225.5,-167"/>
<polygon fill="none" stroke="black" points="225.5,-167 225.5,-189 365.5,-189 365.5,-167 225.5,-167"/>
<image xlink:href="../../images/foreignKeys.png" width="11px" height="12px" preserveAspectRatio="xMinYMin meet" x="230.5" y="-184"/>
<text text-anchor="start" x="245.5" y="-175.2" font-family="Helvetica,sans-Serif" font-size="11.00">remote_id</text>
<polygon fill="none" stroke="black" points="365.5,-167 365.5,-189 470.5,-189 470.5,-167 365.5,-167"/>
<text text-anchor="start" x="368.5" y="-175.2" font-family="Helvetica,sans-Serif" font-size="11.00">uuid[2147483647]</text>
<polygon fill="#ffffff" stroke="none" points="225.5,-149 225.5,-167 282.5,-167 282.5,-149 225.5,-149"/>
<polygon fill="none" stroke="black" points="225.5,-149 225.5,-167 282.5,-167 282.5,-149 225.5,-149"/>
<text text-anchor="start" x="228.5" y="-155.2" font-family="Helvetica,sans-Serif" font-size="11.00">&lt; 2</text>
<polygon fill="#ffffff" stroke="none" points="282.5,-149 282.5,-167 365.5,-167 365.5,-149 282.5,-149"/>
<polygon fill="none" stroke="black" points="282.5,-149 282.5,-167 365.5,-167 365.5,-149 282.5,-149"/>
<text text-anchor="start" x="319.5" y="-155.2" font-family="Helvetica,sans-Serif" font-size="11.00">16 rows</text>
<polygon fill="#ffffff" stroke="none" points="365.5,-149 365.5,-167 470.5,-167 470.5,-149 365.5,-149"/>
<polygon fill="none" stroke="black" points="365.5,-149 365.5,-167 470.5,-167 470.5,-149 365.5,-149"/>
<text text-anchor="start" x="450.5" y="-155.2" font-family="Helvetica,sans-Serif" font-size="11.00">0 &gt;</text>
<polygon fill="none" stroke="black" stroke-width="2" points="224,-148 224,-476 471,-476 471,-148 224,-148"/>
</a>
</g>
</g>
<!-- core_contentartifact -->
<g id="node2" class="node"><title>core_contentartifact</title>
<g id="a_node2"><a xlink:href="../../tables/core_contentartifact.html" xlink:title="core_contentartifact" target="_top">
<polygon fill="#ffffff" stroke="none" points="8,-160 8,-306 174,-306 174,-160 8,-160"/>
<polygon fill="#f5f5f5" stroke="none" points="8,-284 8,-306 174,-306 174,-284 8,-284"/>
<polygon fill="none" stroke="black" points="8,-284 8,-306 174,-306 174,-284 8,-284"/>
<text text-anchor="start" x="13" y="-293.2" font-family="Helvetica,sans-Serif" font-weight="bold" font-size="11.00">core_contentartifact</text>
<text text-anchor="start" x="135" y="-292.2" font-family="Helvetica,sans-Serif" font-size="11.00">[table]</text>
<polygon fill="none" stroke="black" points="8,-262 8,-284 174,-284 174,-262 8,-262"/>
<image xlink:href="../../images/primaryKeys.png" width="11px" height="12px" preserveAspectRatio="xMinYMin meet" x="13" y="-279"/>
<text text-anchor="start" x="40" y="-270.2" font-family="Helvetica,sans-Serif" font-size="11.00">pulp_id</text>
<polygon fill="#ffffff" stroke="none" points="8,-240 8,-262 174,-262 174,-240 8,-240"/>
<polygon fill="none" stroke="black" points="8,-240 8,-262 174,-262 174,-240 8,-240"/>
<text text-anchor="start" x="40" y="-248.2" font-family="Helvetica,sans-Serif" font-size="11.00">relative_path</text>
<polygon fill="#ffffff" stroke="none" points="8,-218 8,-240 174,-240 174,-218 8,-218"/>
<polygon fill="none" stroke="black" points="8,-218 8,-240 174,-240 174,-218 8,-218"/>
<image xlink:href="../../images/foreignKeys.png" width="11px" height="12px" preserveAspectRatio="xMinYMin meet" x="13" y="-235"/>
<text text-anchor="start" x="40" y="-226.2" font-family="Helvetica,sans-Serif" font-size="11.00">artifact_id</text>
<polygon fill="#ffffff" stroke="none" points="8,-196 8,-218 174,-218 174,-196 8,-196"/>
<polygon fill="none" stroke="black" points="8,-196 8,-218 174,-218 174,-196 8,-196"/>
<image xlink:href="../../images/foreignKeys.png" width="11px" height="12px" preserveAspectRatio="xMinYMin meet" x="13" y="-213"/>
<text text-anchor="start" x="40" y="-204.2" font-family="Helvetica,sans-Serif" font-size="11.00">content_id</text>
<polygon fill="none" stroke="black" points="8,-178 8,-196 174,-196 174,-178 8,-178"/>
<text text-anchor="start" x="11" y="-184.2" font-family="Helvetica,sans-Serif" font-size="11.00">...</text>
<polygon fill="#ffffff" stroke="none" points="8,-160 8,-178 66,-178 66,-160 8,-160"/>
<polygon fill="none" stroke="black" points="8,-160 8,-178 66,-178 66,-160 8,-160"/>
<text text-anchor="start" x="11" y="-166.2" font-family="Helvetica,sans-Serif" font-size="11.00">&lt; 2</text>
<polygon fill="#ffffff" stroke="none" points="66,-160 66,-178 133,-178 133,-160 66,-160"/>
<polygon fill="none" stroke="black" points="66,-160 66,-178 133,-178 133,-160 66,-160"/>
<text text-anchor="start" x="87" y="-166.2" font-family="Helvetica,sans-Serif" font-size="11.00">88 rows</text>
<polygon fill="#ffffff" stroke="none" points="133,-160 133,-178 174,-178 174,-160 133,-160"/>
<polygon fill="none" stroke="black" points="133,-160 133,-178 174,-178 174,-160 133,-160"/>
<text text-anchor="start" x="154" y="-166.2" font-family="Helvetica,sans-Serif" font-size="11.00">2 &gt;</text>
</a>
</g>
</g>
<!-- core_remoteartifact&#45;&gt;core_contentartifact -->
<g id="edge1" class="edge"><title>core_remoteartifact:content_artifact_id:w&#45;&gt;core_contentartifact:pulp_id:e</title>
<path fill="none" stroke="black" d="M210.593,-204.79C192.669,-221.03 208.075,-273 175,-273"/>
<polygon fill="black" stroke="black" points="216.936,-202.605 225.672,-203.404 220.718,-201.303 224.5,-200 224.5,-200 224.5,-200 220.718,-201.303 223.328,-196.596 216.936,-202.605 216.936,-202.605"/>
<ellipse fill="none" stroke="black" cx="213.91" cy="-203.647" rx="3.20001" ry="3.20001"/>
</g>
<!-- core_remote -->
<g id="node3" class="node"><title>core_remote</title>
<g id="a_node3"><a xlink:href="../../tables/core_remote.html" xlink:title="core_remote" target="_top">
<polygon fill="#ffffff" stroke="none" points="11.5,-37 11.5,-139 170.5,-139 170.5,-37 11.5,-37"/>
<polygon fill="#f5f5f5" stroke="none" points="12,-117 12,-139 171,-139 171,-117 12,-117"/>
<polygon fill="none" stroke="black" points="12,-117 12,-139 171,-139 171,-117 12,-117"/>
<text text-anchor="start" x="17" y="-126.2" font-family="Helvetica,sans-Serif" font-weight="bold" font-size="11.00">core_remote</text>
<text text-anchor="start" x="132" y="-125.2" font-family="Helvetica,sans-Serif" font-size="11.00">[table]</text>
<polygon fill="none" stroke="black" points="12,-95 12,-117 171,-117 171,-95 12,-95"/>
<image xlink:href="../../images/primaryKeys.png" width="11px" height="12px" preserveAspectRatio="xMinYMin meet" x="17" y="-112"/>
<text text-anchor="start" x="32" y="-103.2" font-family="Helvetica,sans-Serif" font-size="11.00">pulp_id</text>
<polygon fill="#ffffff" stroke="none" points="12,-73 12,-95 171,-95 171,-73 12,-73"/>
<polygon fill="none" stroke="black" points="12,-73 12,-95 171,-95 171,-73 12,-73"/>
<text text-anchor="start" x="32" y="-81.2" font-family="Helvetica,sans-Serif" font-size="11.00">name</text>
<polygon fill="none" stroke="black" points="12,-55 12,-73 171,-73 171,-55 12,-55"/>
<text text-anchor="start" x="15" y="-61.2" font-family="Helvetica,sans-Serif" font-size="11.00">...</text>
<polygon fill="#ffffff" stroke="none" points="12,-37 12,-55 65,-55 65,-37 12,-37"/>
<polygon fill="none" stroke="black" points="12,-37 12,-55 65,-55 65,-37 12,-37"/>
<text text-anchor="start" x="15" y="-43.2" font-family="Helvetica,sans-Serif" font-size="11.00"> &#160;</text>
<polygon fill="#ffffff" stroke="none" points="65,-37 65,-55 127,-55 127,-37 65,-37"/>
<polygon fill="none" stroke="black" points="65,-37 65,-55 127,-55 127,-37 65,-37"/>
<text text-anchor="start" x="88" y="-43.2" font-family="Helvetica,sans-Serif" font-size="11.00">7 rows</text>
<polygon fill="#ffffff" stroke="none" points="127,-37 127,-55 171,-55 171,-37 127,-37"/>
<polygon fill="none" stroke="black" points="127,-37 127,-55 171,-55 171,-37 127,-37"/>
<text text-anchor="start" x="151" y="-43.2" font-family="Helvetica,sans-Serif" font-size="11.00">6 &gt;</text>
</a>
</g>
</g>
<!-- core_remoteartifact&#45;&gt;core_remote -->
<g id="edge2" class="edge"><title>core_remoteartifact:remote_id:w&#45;&gt;core_remote:pulp_id:e</title>
<path fill="none" stroke="black" d="M210.548,-173.496C191.495,-157.734 205.57,-106 172,-106"/>
<polygon fill="black" stroke="black" points="216.887,-175.542 223.394,-181.426 220.693,-176.771 224.5,-178 224.5,-178 224.5,-178 220.693,-176.771 225.606,-174.574 216.887,-175.542 216.887,-175.542"/>
<ellipse fill="none" stroke="black" cx="213.842" cy="-174.559" rx="3.20001" ry="3.20001"/>
</g>
</g>
</svg>
