<?xml version="1.0" encoding="UTF-8" standalone="no"?>
<!DOCTYPE svg PUBLIC "-//W3C//DTD SVG 1.1//EN"
 "http://www.w3.org/Graphics/SVG/1.1/DTD/svg11.dtd">
<!-- Generated by graphviz version 2.38.0 (20140413.2041)
 -->
<!-- Title: oneDegreeRelationshipsDiagram Pages: 1 -->
<svg width="619pt" height="335pt"
 viewBox="0.00 0.00 619.00 335.00" xmlns="http://www.w3.org/2000/svg" xmlns:xlink="http://www.w3.org/1999/xlink">
<g id="graph0" class="graph" transform="scale(1 1) rotate(0) translate(4 331)">
<title>oneDegreeRelationshipsDiagram</title>
<polygon fill="#ffffff" stroke="none" points="-4,4 -4,-331 615,-331 615,4 -4,4"/>
<text text-anchor="middle" x="74.5" y="-7.2" font-family="Helvetica,sans-Serif" font-size="11.00">Generated by SchemaSpy</text>
<!-- core_taskreservedresourcerecord -->
<g id="node1" class="node"><title>core_taskreservedresourcerecord</title>
<g id="a_node1"><a xlink:href="../../tables/core_taskreservedresourcerecord.html" xlink:title="core_taskreservedresourcerecord" target="_top">
<polygon fill="#ffffff" stroke="none" points="272,-169 272,-323 603,-323 603,-169 272,-169"/>
<polygon fill="#f5f5f5" stroke="none" points="274.5,-299 274.5,-321 601.5,-321 601.5,-299 274.5,-299"/>
<polygon fill="none" stroke="black" points="274.5,-299 274.5,-321 601.5,-321 601.5,-299 274.5,-299"/>
<text text-anchor="start" x="279.5" y="-308.2" font-family="Helvetica,sans-Serif" font-weight="bold" font-size="11.00">core_taskreservedresourcerecord</text>
<text text-anchor="start" x="562.5" y="-307.2" font-family="Helvetica,sans-Serif" font-size="11.00">[table]</text>
<polygon fill="none" stroke="black" points="274.5,-277 274.5,-299 496.5,-299 496.5,-277 274.5,-277"/>
<image xlink:href="../../images/primaryKeys.png" width="11px" height="12px" preserveAspectRatio="xMinYMin meet" x="279.5" y="-294"/>
<text text-anchor="start" x="294.5" y="-285.2" font-family="Helvetica,sans-Serif" font-size="11.00">pulp_id</text>
<polygon fill="none" stroke="black" points="496.5,-277 496.5,-299 601.5,-299 601.5,-277 496.5,-277"/>
<text text-anchor="start" x="499.5" y="-285.2" font-family="Helvetica,sans-Serif" font-size="11.00">uuid[2147483647]</text>
<polygon fill="none" stroke="black" points="274.5,-255 274.5,-277 496.5,-277 496.5,-255 274.5,-255"/>
<text text-anchor="start" x="294.5" y="-263.2" font-family="Helvetica,sans-Serif" font-size="11.00">pulp_created</text>
<polygon fill="none" stroke="black" points="496.5,-255 496.5,-277 601.5,-277 601.5,-255 496.5,-255"/>
<text text-anchor="start" x="499.5" y="-263.2" font-family="Helvetica,sans-Serif" font-size="11.00">timestamptz[35,6]</text>
<polygon fill="none" stroke="black" points="274.5,-233 274.5,-255 496.5,-255 496.5,-233 274.5,-233"/>
<text text-anchor="start" x="294.5" y="-241.2" font-family="Helvetica,sans-Serif" font-size="11.00">pulp_last_updated</text>
<polygon fill="none" stroke="black" points="496.5,-233 496.5,-255 601.5,-255 601.5,-233 496.5,-233"/>
<text text-anchor="start" x="499.5" y="-241.2" font-family="Helvetica,sans-Serif" font-size="11.00">timestamptz[35,6]</text>
<polygon fill="#ffffff" stroke="none" points="274.5,-211 274.5,-233 496.5,-233 496.5,-211 274.5,-211"/>
<polygon fill="none" stroke="black" points="274.5,-211 274.5,-233 496.5,-233 496.5,-211 274.5,-211"/>
<image xlink:href="../../images/foreignKeys.png" width="11px" height="12px" preserveAspectRatio="xMinYMin meet" x="279.5" y="-228"/>
<text text-anchor="start" x="294.5" y="-219.2" font-family="Helvetica,sans-Serif" font-size="11.00">resource_id</text>
<polygon fill="none" stroke="black" points="496.5,-211 496.5,-233 601.5,-233 601.5,-211 496.5,-211"/>
<text text-anchor="start" x="499.5" y="-219.2" font-family="Helvetica,sans-Serif" font-size="11.00">uuid[2147483647]</text>
<polygon fill="#ffffff" stroke="none" points="274.5,-189 274.5,-211 496.5,-211 496.5,-189 274.5,-189"/>
<polygon fill="none" stroke="black" points="274.5,-189 274.5,-211 496.5,-211 496.5,-189 274.5,-189"/>
<image xlink:href="../../images/foreignKeys.png" width="11px" height="12px" preserveAspectRatio="xMinYMin meet" x="279.5" y="-206"/>
<text text-anchor="start" x="294.5" y="-197.2" font-family="Helvetica,sans-Serif" font-size="11.00">task_id</text>
<polygon fill="none" stroke="black" points="496.5,-189 496.5,-211 601.5,-211 601.5,-189 496.5,-189"/>
<text text-anchor="start" x="499.5" y="-197.2" font-family="Helvetica,sans-Serif" font-size="11.00">uuid[2147483647]</text>
<polygon fill="#ffffff" stroke="none" points="274.5,-171 274.5,-189 364.5,-189 364.5,-171 274.5,-171"/>
<polygon fill="none" stroke="black" points="274.5,-171 274.5,-189 364.5,-189 364.5,-171 274.5,-171"/>
<text text-anchor="start" x="277.5" y="-177.2" font-family="Helvetica,sans-Serif" font-size="11.00">&lt; 2</text>
<polygon fill="#ffffff" stroke="none" points="364.5,-171 364.5,-189 496.5,-189 496.5,-171 364.5,-171"/>
<polygon fill="none" stroke="black" points="364.5,-171 364.5,-189 496.5,-189 496.5,-171 364.5,-171"/>
<text text-anchor="start" x="434.5" y="-177.2" font-family="Helvetica,sans-Serif" font-size="11.00">1,937 rows</text>
<polygon fill="#ffffff" stroke="none" points="496.5,-171 496.5,-189 601.5,-189 601.5,-171 496.5,-171"/>
<polygon fill="none" stroke="black" points="496.5,-171 496.5,-189 601.5,-189 601.5,-171 496.5,-171"/>
<text text-anchor="start" x="581.5" y="-177.2" font-family="Helvetica,sans-Serif" font-size="11.00">0 &gt;</text>
<polygon fill="none" stroke="black" stroke-width="2" points="273,-170 273,-322 602,-322 602,-170 273,-170"/>
</a>
</g>
</g>
<!-- core_reservedresourcerecord -->
<g id="node2" class="node"><title>core_reservedresourcerecord</title>
<g id="a_node2"><a xlink:href="../../tables/core_reservedresourcerecord.html" xlink:title="core_reservedresourcerecord" target="_top">
<polygon fill="#ffffff" stroke="none" points="8,-204 8,-306 223,-306 223,-204 8,-204"/>
<polygon fill="#f5f5f5" stroke="none" points="8.5,-284 8.5,-306 223.5,-306 223.5,-284 8.5,-284"/>
<polygon fill="none" stroke="black" points="8.5,-284 8.5,-306 223.5,-306 223.5,-284 8.5,-284"/>
<text text-anchor="start" x="13.5" y="-293.2" font-family="Helvetica,sans-Serif" font-weight="bold" font-size="11.00">core_reservedresourcerecord</text>
<text text-anchor="start" x="184.5" y="-292.2" font-family="Helvetica,sans-Serif" font-size="11.00">[table]</text>
<polygon fill="none" stroke="black" points="8.5,-262 8.5,-284 223.5,-284 223.5,-262 8.5,-262"/>
<image xlink:href="../../images/primaryKeys.png" width="11px" height="12px" preserveAspectRatio="xMinYMin meet" x="13.5" y="-279"/>
<text text-anchor="start" x="38.5" y="-270.2" font-family="Helvetica,sans-Serif" font-size="11.00">pulp_id</text>
<polygon fill="#ffffff" stroke="none" points="8.5,-240 8.5,-262 223.5,-262 223.5,-240 8.5,-240"/>
<polygon fill="none" stroke="black" points="8.5,-240 8.5,-262 223.5,-262 223.5,-240 8.5,-240"/>
<text text-anchor="start" x="38.5" y="-248.2" font-family="Helvetica,sans-Serif" font-size="11.00">resource</text>
<polygon fill="none" stroke="black" points="8.5,-222 8.5,-240 223.5,-240 223.5,-222 8.5,-222"/>
<text text-anchor="start" x="11.5" y="-228.2" font-family="Helvetica,sans-Serif" font-size="11.00">...</text>
<polygon fill="#ffffff" stroke="none" points="8.5,-204 8.5,-222 83.5,-222 83.5,-204 8.5,-204"/>
<polygon fill="none" stroke="black" points="8.5,-204 8.5,-222 83.5,-222 83.5,-204 8.5,-204"/>
<text text-anchor="start" x="11.5" y="-210.2" font-family="Helvetica,sans-Serif" font-size="11.00"> &#160;</text>
<polygon fill="#ffffff" stroke="none" points="83.5,-204 83.5,-222 169.5,-222 169.5,-204 83.5,-204"/>
<polygon fill="none" stroke="black" points="83.5,-204 83.5,-222 169.5,-222 169.5,-204 83.5,-204"/>
<text text-anchor="start" x="117.5" y="-210.2" font-family="Helvetica,sans-Serif" font-size="11.00">228 rows</text>
<polygon fill="#ffffff" stroke="none" points="169.5,-204 169.5,-222 223.5,-222 223.5,-204 169.5,-204"/>
<polygon fill="none" stroke="black" points="169.5,-204 169.5,-222 223.5,-222 223.5,-204 169.5,-204"/>
<text text-anchor="start" x="203.5" y="-210.2" font-family="Helvetica,sans-Serif" font-size="11.00">1 &gt;</text>
</a>
</g>
</g>
<!-- core_taskreservedresourcerecord&#45;&gt;core_reservedresourcerecord -->
<g id="edge1" class="edge"><title>core_taskreservedresourcerecord:resource_id:w&#45;&gt;core_reservedresourcerecord:pulp_id:e</title>
<path fill="none" stroke="black" d="M259.591,-227.077C245.755,-239.976 249.794,-273 224.5,-273"/>
<polygon fill="black" stroke="black" points="265.985,-224.743 274.734,-225.382 269.742,-223.371 273.5,-222 273.5,-222 273.5,-222 269.742,-223.371 272.266,-218.618 265.985,-224.743 265.985,-224.743"/>
<ellipse fill="none" stroke="black" cx="262.979" cy="-225.84" rx="3.20001" ry="3.20001"/>
</g>
<!-- core_task -->
<g id="node3" class="node"><title>core_task</title>
<g id="a_node3"><a xlink:href="../../tables/core_task.html" xlink:title="core_task" target="_top">
<polygon fill="#ffffff" stroke="none" points="51,-37 51,-183 180,-183 180,-37 51,-37"/>
<polygon fill="#f5f5f5" stroke="none" points="51.5,-161 51.5,-183 180.5,-183 180.5,-161 51.5,-161"/>
<polygon fill="none" stroke="black" points="51.5,-161 51.5,-183 180.5,-183 180.5,-161 51.5,-161"/>
<text text-anchor="start" x="56.5" y="-170.2" font-family="Helvetica,sans-Serif" font-weight="bold" font-size="11.00">core_task</text>
<text text-anchor="start" x="141.5" y="-169.2" font-family="Helvetica,sans-Serif" font-size="11.00">[table]</text>
<polygon fill="none" stroke="black" points="51.5,-139 51.5,-161 180.5,-161 180.5,-139 51.5,-139"/>
<image xlink:href="../../images/primaryKeys.png" width="11px" height="12px" preserveAspectRatio="xMinYMin meet" x="56.5" y="-156"/>
<text text-anchor="start" x="71.5" y="-147.2" font-family="Helvetica,sans-Serif" font-size="11.00">pulp_id</text>
<polygon fill="#ffffff" stroke="none" points="51.5,-117 51.5,-139 180.5,-139 180.5,-117 51.5,-117"/>
<polygon fill="none" stroke="black" points="51.5,-117 51.5,-139 180.5,-139 180.5,-117 51.5,-117"/>
<image xlink:href="../../images/foreignKeys.png" width="11px" height="12px" preserveAspectRatio="xMinYMin meet" x="56.5" y="-134"/>
<text text-anchor="start" x="71.5" y="-125.2" font-family="Helvetica,sans-Serif" font-size="11.00">worker_id</text>
<polygon fill="#ffffff" stroke="none" points="51.5,-95 51.5,-117 180.5,-117 180.5,-95 51.5,-95"/>
<polygon fill="none" stroke="black" points="51.5,-95 51.5,-117 180.5,-117 180.5,-95 51.5,-95"/>
<image xlink:href="../../images/foreignKeys.png" width="11px" height="12px" preserveAspectRatio="xMinYMin meet" x="56.5" y="-112"/>
<text text-anchor="start" x="71.5" y="-103.2" font-family="Helvetica,sans-Serif" font-size="11.00">parent_task_id</text>
<polygon fill="#ffffff" stroke="none" points="51.5,-73 51.5,-95 180.5,-95 180.5,-73 51.5,-73"/>
<polygon fill="none" stroke="black" points="51.5,-73 51.5,-95 180.5,-95 180.5,-73 51.5,-73"/>
<image xlink:href="../../images/foreignKeys.png" width="11px" height="12px" preserveAspectRatio="xMinYMin meet" x="56.5" y="-90"/>
<text text-anchor="start" x="71.5" y="-81.2" font-family="Helvetica,sans-Serif" font-size="11.00">task_group_id</text>
<polygon fill="none" stroke="black" points="51.5,-55 51.5,-73 180.5,-73 180.5,-55 51.5,-55"/>
<text text-anchor="start" x="54.5" y="-61.2" font-family="Helvetica,sans-Serif" font-size="11.00">...</text>
<polygon fill="#ffffff" stroke="none" points="51.5,-37 51.5,-55 83.5,-55 83.5,-37 51.5,-37"/>
<polygon fill="none" stroke="black" points="51.5,-37 51.5,-55 83.5,-55 83.5,-37 51.5,-37"/>
<text text-anchor="start" x="54.5" y="-43.2" font-family="Helvetica,sans-Serif" font-size="11.00">&lt; 3</text>
<polygon fill="#ffffff" stroke="none" points="83.5,-37 83.5,-55 152.5,-55 152.5,-37 83.5,-37"/>
<polygon fill="none" stroke="black" points="83.5,-37 83.5,-55 152.5,-55 152.5,-37 83.5,-37"/>
<text text-anchor="start" x="90.5" y="-43.2" font-family="Helvetica,sans-Serif" font-size="11.00">1,828 rows</text>
<polygon fill="#ffffff" stroke="none" points="152.5,-37 152.5,-55 180.5,-55 180.5,-37 152.5,-37"/>
<polygon fill="none" stroke="black" points="152.5,-37 152.5,-55 180.5,-55 180.5,-37 152.5,-37"/>
<text text-anchor="start" x="160.5" y="-43.2" font-family="Helvetica,sans-Serif" font-size="11.00">8 &gt;</text>
</a>
</g>
</g>
<!-- core_taskreservedresourcerecord&#45;&gt;core_task -->
<g id="edge2" class="edge"><title>core_taskreservedresourcerecord:task_id:w&#45;&gt;core_task:pulp_id:e</title>
<path fill="none" stroke="black" d="M258.948,-198.101C226.561,-188.968 222.584,-150 181.5,-150"/>
<polygon fill="black" stroke="black" points="265.567,-198.965 273.034,-203.57 269.534,-199.482 273.5,-200 273.5,-200 273.5,-200 269.534,-199.482 273.966,-196.43 265.567,-198.965 265.567,-198.965"/>
<ellipse fill="none" stroke="black" cx="262.394" cy="-198.551" rx="3.2" ry="3.2"/>
</g>
</g>
</svg>
