<?xml version="1.0" encoding="UTF-8" standalone="no"?>
<!DOCTYPE svg PUBLIC "-//W3C//DTD SVG 1.1//EN"
 "http://www.w3.org/Graphics/SVG/1.1/DTD/svg11.dtd">
<!-- Generated by graphviz version 2.38.0 (20140413.2041)
 -->
<!-- Title: oneDegreeRelationshipsDiagram Pages: 1 -->
<svg width="708pt" height="357pt"
 viewBox="0.00 0.00 708.00 357.00" xmlns="http://www.w3.org/2000/svg" xmlns:xlink="http://www.w3.org/1999/xlink">
<g id="graph0" class="graph" transform="scale(1 1) rotate(0) translate(4 353)">
<title>oneDegreeRelationshipsDiagram</title>
<polygon fill="#ffffff" stroke="none" points="-4,4 -4,-353 704,-353 704,4 -4,4"/>
<text text-anchor="middle" x="74.5" y="-7.2" font-family="Helvetica,sans-Serif" font-size="11.00">Generated by SchemaSpy</text>
<!-- core_repositorycontent -->
<g id="node1" class="node"><title>core_repositorycontent</title>
<g id="a_node1"><a xlink:href="../../tables/core_repositorycontent.html" xlink:title="core_repositorycontent" target="_top">
<polygon fill="#ffffff" stroke="none" points="422,-147 422,-345 692,-345 692,-147 422,-147"/>
<polygon fill="#f5f5f5" stroke="none" points="424,-321 424,-343 690,-343 690,-321 424,-321"/>
<polygon fill="none" stroke="black" points="424,-321 424,-343 690,-343 690,-321 424,-321"/>
<text text-anchor="start" x="429" y="-330.2" font-family="Helvetica,sans-Serif" font-weight="bold" font-size="11.00">core_repositorycontent</text>
<text text-anchor="start" x="651" y="-329.2" font-family="Helvetica,sans-Serif" font-size="11.00">[table]</text>
<polygon fill="none" stroke="black" points="424,-299 424,-321 585,-321 585,-299 424,-299"/>
<image xlink:href="../../images/primaryKeys.png" width="11px" height="12px" preserveAspectRatio="xMinYMin meet" x="429" y="-316"/>
<text text-anchor="start" x="444" y="-307.2" font-family="Helvetica,sans-Serif" font-size="11.00">pulp_id</text>
<polygon fill="none" stroke="black" points="585,-299 585,-321 690,-321 690,-299 585,-299"/>
<text text-anchor="start" x="588" y="-307.2" font-family="Helvetica,sans-Serif" font-size="11.00">uuid[2147483647]</text>
<polygon fill="none" stroke="black" points="424,-277 424,-299 585,-299 585,-277 424,-277"/>
<text text-anchor="start" x="444" y="-285.2" font-family="Helvetica,sans-Serif" font-size="11.00">pulp_created</text>
<polygon fill="none" stroke="black" points="585,-277 585,-299 690,-299 690,-277 585,-277"/>
<text text-anchor="start" x="588" y="-285.2" font-family="Helvetica,sans-Serif" font-size="11.00">timestamptz[35,6]</text>
<polygon fill="none" stroke="black" points="424,-255 424,-277 585,-277 585,-255 424,-255"/>
<text text-anchor="start" x="444" y="-263.2" font-family="Helvetica,sans-Serif" font-size="11.00">pulp_last_updated</text>
<polygon fill="none" stroke="black" points="585,-255 585,-277 690,-277 690,-255 585,-255"/>
<text text-anchor="start" x="588" y="-263.2" font-family="Helvetica,sans-Serif" font-size="11.00">timestamptz[35,6]</text>
<polygon fill="#ffffff" stroke="none" points="424,-233 424,-255 585,-255 585,-233 424,-233"/>
<polygon fill="none" stroke="black" points="424,-233 424,-255 585,-255 585,-233 424,-233"/>
<image xlink:href="../../images/foreignKeys.png" width="11px" height="12px" preserveAspectRatio="xMinYMin meet" x="429" y="-250"/>
<text text-anchor="start" x="444" y="-241.2" font-family="Helvetica,sans-Serif" font-size="11.00">content_id</text>
<polygon fill="none" stroke="black" points="585,-233 585,-255 690,-255 690,-233 585,-233"/>
<text text-anchor="start" x="588" y="-241.2" font-family="Helvetica,sans-Serif" font-size="11.00">uuid[2147483647]</text>
<polygon fill="#ffffff" stroke="none" points="424,-211 424,-233 585,-233 585,-211 424,-211"/>
<polygon fill="none" stroke="black" points="424,-211 424,-233 585,-233 585,-211 424,-211"/>
<image xlink:href="../../images/foreignKeys.png" width="11px" height="12px" preserveAspectRatio="xMinYMin meet" x="429" y="-228"/>
<text text-anchor="start" x="444" y="-219.2" font-family="Helvetica,sans-Serif" font-size="11.00">repository_id</text>
<polygon fill="none" stroke="black" points="585,-211 585,-233 690,-233 690,-211 585,-211"/>
<text text-anchor="start" x="588" y="-219.2" font-family="Helvetica,sans-Serif" font-size="11.00">uuid[2147483647]</text>
<polygon fill="#ffffff" stroke="none" points="424,-189 424,-211 585,-211 585,-189 424,-189"/>
<polygon fill="none" stroke="black" points="424,-189 424,-211 585,-211 585,-189 424,-189"/>
<image xlink:href="../../images/foreignKeys.png" width="11px" height="12px" preserveAspectRatio="xMinYMin meet" x="429" y="-206"/>
<text text-anchor="start" x="444" y="-197.2" font-family="Helvetica,sans-Serif" font-size="11.00">version_added_id</text>
<polygon fill="none" stroke="black" points="585,-189 585,-211 690,-211 690,-189 585,-189"/>
<text text-anchor="start" x="588" y="-197.2" font-family="Helvetica,sans-Serif" font-size="11.00">uuid[2147483647]</text>
<polygon fill="#ffffff" stroke="none" points="424,-167 424,-189 585,-189 585,-167 424,-167"/>
<polygon fill="none" stroke="black" points="424,-167 424,-189 585,-189 585,-167 424,-167"/>
<image xlink:href="../../images/foreignKeys.png" width="11px" height="12px" preserveAspectRatio="xMinYMin meet" x="429" y="-184"/>
<text text-anchor="start" x="444" y="-175.2" font-family="Helvetica,sans-Serif" font-size="11.00">version_removed_id</text>
<polygon fill="none" stroke="black" points="585,-167 585,-189 690,-189 690,-167 585,-167"/>
<text text-anchor="start" x="588" y="-175.2" font-family="Helvetica,sans-Serif" font-size="11.00">uuid[2147483647]</text>
<polygon fill="#ffffff" stroke="none" points="424,-149 424,-167 488,-167 488,-149 424,-149"/>
<polygon fill="none" stroke="black" points="424,-149 424,-167 488,-167 488,-149 424,-149"/>
<text text-anchor="start" x="427" y="-155.2" font-family="Helvetica,sans-Serif" font-size="11.00">&lt; 4</text>
<polygon fill="#ffffff" stroke="none" points="488,-149 488,-167 585,-167 585,-149 488,-149"/>
<polygon fill="none" stroke="black" points="488,-149 488,-167 585,-167 585,-149 488,-149"/>
<text text-anchor="start" x="533" y="-155.2" font-family="Helvetica,sans-Serif" font-size="11.00">786 rows</text>
<polygon fill="#ffffff" stroke="none" points="585,-149 585,-167 690,-167 690,-149 585,-149"/>
<polygon fill="none" stroke="black" points="585,-149 585,-167 690,-167 690,-149 585,-149"/>
<text text-anchor="start" x="670" y="-155.2" font-family="Helvetica,sans-Serif" font-size="11.00">0 &gt;</text>
<polygon fill="none" stroke="black" stroke-width="2" points="423,-148 423,-344 691,-344 691,-148 423,-148"/>
</a>
</g>
</g>
<!-- core_content -->
<g id="node2" class="node"><title>core_content</title>
<g id="a_node2"><a xlink:href="../../tables/core_content.html" xlink:title="core_content" target="_top">
<polygon fill="#ffffff" stroke="none" points="219,-253 219,-333 348,-333 348,-253 219,-253"/>
<polygon fill="#f5f5f5" stroke="none" points="219.5,-311 219.5,-333 348.5,-333 348.5,-311 219.5,-311"/>
<polygon fill="none" stroke="black" points="219.5,-311 219.5,-333 348.5,-333 348.5,-311 219.5,-311"/>
<text text-anchor="start" x="224.5" y="-320.2" font-family="Helvetica,sans-Serif" font-weight="bold" font-size="11.00">core_content</text>
<text text-anchor="start" x="309.5" y="-319.2" font-family="Helvetica,sans-Serif" font-size="11.00">[table]</text>
<polygon fill="none" stroke="black" points="219.5,-289 219.5,-311 348.5,-311 348.5,-289 219.5,-289"/>
<image xlink:href="../../images/primaryKeys.png" width="11px" height="12px" preserveAspectRatio="xMinYMin meet" x="224.5" y="-306"/>
<text text-anchor="start" x="239.5" y="-297.2" font-family="Helvetica,sans-Serif" font-size="11.00">pulp_id</text>
<polygon fill="none" stroke="black" points="219.5,-271 219.5,-289 348.5,-289 348.5,-271 219.5,-271"/>
<text text-anchor="start" x="222.5" y="-277.2" font-family="Helvetica,sans-Serif" font-size="11.00">...</text>
<polygon fill="#ffffff" stroke="none" points="219.5,-253 219.5,-271 254.5,-271 254.5,-253 219.5,-253"/>
<polygon fill="none" stroke="black" points="219.5,-253 219.5,-271 254.5,-271 254.5,-253 219.5,-253"/>
<text text-anchor="start" x="222.5" y="-259.2" font-family="Helvetica,sans-Serif" font-size="11.00"> &#160;</text>
<polygon fill="#ffffff" stroke="none" points="254.5,-253 254.5,-271 314.5,-271 314.5,-253 254.5,-253"/>
<polygon fill="none" stroke="black" points="254.5,-253 254.5,-271 314.5,-271 314.5,-253 254.5,-253"/>
<text text-anchor="start" x="268.5" y="-259.2" font-family="Helvetica,sans-Serif" font-size="11.00">88 rows</text>
<polygon fill="#ffffff" stroke="none" points="314.5,-253 314.5,-271 348.5,-271 348.5,-253 314.5,-253"/>
<polygon fill="none" stroke="black" points="314.5,-253 314.5,-271 348.5,-271 348.5,-253 314.5,-253"/>
<text text-anchor="start" x="328.5" y="-259.2" font-family="Helvetica,sans-Serif" font-size="11.00">8 &gt;</text>
</a>
</g>
</g>
<!-- core_repositorycontent&#45;&gt;core_content -->
<g id="edge1" class="edge"><title>core_repositorycontent:content_id:w&#45;&gt;core_content:pulp_id:e</title>
<path fill="none" stroke="black" d="M408.689,-246.854C383.364,-258.266 384.953,-300 349.5,-300"/>
<polygon fill="black" stroke="black" points="415.154,-245.565 423.704,-247.53 419.077,-244.782 423,-244 423,-244 423,-244 419.077,-244.782 422.296,-240.47 415.154,-245.565 415.154,-245.565"/>
<ellipse fill="none" stroke="black" cx="412.016" cy="-246.191" rx="3.2" ry="3.2"/>
</g>
<!-- core_repository -->
<g id="node3" class="node"><title>core_repository</title>
<g id="a_node3"><a xlink:href="../../tables/core_repository.html" xlink:title="core_repository" target="_top">
<polygon fill="#ffffff" stroke="none" points="8,-65 8,-189 145,-189 145,-65 8,-65"/>
<polygon fill="#f5f5f5" stroke="none" points="8.5,-167 8.5,-189 145.5,-189 145.5,-167 8.5,-167"/>
<polygon fill="none" stroke="black" points="8.5,-167 8.5,-189 145.5,-189 145.5,-167 8.5,-167"/>
<text text-anchor="start" x="13.5" y="-176.2" font-family="Helvetica,sans-Serif" font-weight="bold" font-size="11.00">core_repository</text>
<text text-anchor="start" x="106.5" y="-175.2" font-family="Helvetica,sans-Serif" font-size="11.00">[table]</text>
<polygon fill="none" stroke="black" points="8.5,-145 8.5,-167 145.5,-167 145.5,-145 8.5,-145"/>
<image xlink:href="../../images/primaryKeys.png" width="11px" height="12px" preserveAspectRatio="xMinYMin meet" x="13.5" y="-162"/>
<text text-anchor="start" x="32.5" y="-153.2" font-family="Helvetica,sans-Serif" font-size="11.00">pulp_id</text>
<polygon fill="#ffffff" stroke="none" points="8.5,-123 8.5,-145 145.5,-145 145.5,-123 8.5,-123"/>
<polygon fill="none" stroke="black" points="8.5,-123 8.5,-145 145.5,-145 145.5,-123 8.5,-123"/>
<text text-anchor="start" x="32.5" y="-131.2" font-family="Helvetica,sans-Serif" font-size="11.00">name</text>
<polygon fill="#ffffff" stroke="none" points="8.5,-101 8.5,-123 145.5,-123 145.5,-101 8.5,-101"/>
<polygon fill="none" stroke="black" points="8.5,-101 8.5,-123 145.5,-123 145.5,-101 8.5,-101"/>
<image xlink:href="../../images/foreignKeys.png" width="11px" height="12px" preserveAspectRatio="xMinYMin meet" x="13.5" y="-118"/>
<text text-anchor="start" x="32.5" y="-109.2" font-family="Helvetica,sans-Serif" font-size="11.00">remote_id</text>
<polygon fill="none" stroke="black" points="8.5,-83 8.5,-101 145.5,-101 145.5,-83 8.5,-83"/>
<text text-anchor="start" x="11.5" y="-89.2" font-family="Helvetica,sans-Serif" font-size="11.00">...</text>
<polygon fill="#ffffff" stroke="none" points="8.5,-65 8.5,-83 48.5,-83 48.5,-65 8.5,-65"/>
<polygon fill="none" stroke="black" points="8.5,-65 8.5,-83 48.5,-83 48.5,-65 8.5,-65"/>
<text text-anchor="start" x="11.5" y="-71.2" font-family="Helvetica,sans-Serif" font-size="11.00">&lt; 1</text>
<polygon fill="#ffffff" stroke="none" points="48.5,-65 48.5,-83 106.5,-83 106.5,-65 48.5,-65"/>
<polygon fill="none" stroke="black" points="48.5,-65 48.5,-83 106.5,-83 106.5,-65 48.5,-65"/>
<text text-anchor="start" x="60.5" y="-71.2" font-family="Helvetica,sans-Serif" font-size="11.00">26 rows</text>
<polygon fill="#ffffff" stroke="none" points="106.5,-65 106.5,-83 145.5,-83 145.5,-65 106.5,-65"/>
<polygon fill="none" stroke="black" points="106.5,-65 106.5,-83 145.5,-83 145.5,-65 106.5,-65"/>
<text text-anchor="start" x="118.5" y="-71.2" font-family="Helvetica,sans-Serif" font-size="11.00">10 &gt;</text>
</a>
</g>
</g>
<!-- core_repositorycontent&#45;&gt;core_repository -->
<g id="edge2" class="edge"><title>core_repositorycontent:repository_id:w&#45;&gt;core_repository:pulp_id:e</title>
<path fill="none" stroke="black" d="M408.312,-222.287C313.729,-225.993 273.803,-263.56 186,-215 158.386,-199.728 178.056,-156 146.5,-156"/>
<polygon fill="black" stroke="black" points="415.002,-222.156 423.07,-225.599 419.001,-222.078 423,-222 423,-222 423,-222 419.001,-222.078 422.93,-218.401 415.002,-222.156 415.002,-222.156"/>
<ellipse fill="none" stroke="black" cx="411.802" cy="-222.219" rx="3.2" ry="3.2"/>
</g>
<!-- core_repositoryversion -->
<g id="node4" class="node"><title>core_repositoryversion</title>
<g id="a_node4"><a xlink:href="../../tables/core_repositoryversion.html" xlink:title="core_repositoryversion" target="_top">
<polygon fill="#ffffff" stroke="none" points="194,-37 194,-205 373,-205 373,-37 194,-37"/>
<polygon fill="#f5f5f5" stroke="none" points="194.5,-183 194.5,-205 373.5,-205 373.5,-183 194.5,-183"/>
<polygon fill="none" stroke="black" points="194.5,-183 194.5,-205 373.5,-205 373.5,-183 194.5,-183"/>
<text text-anchor="start" x="199.5" y="-192.2" font-family="Helvetica,sans-Serif" font-weight="bold" font-size="11.00">core_repositoryversion</text>
<text text-anchor="start" x="334.5" y="-191.2" font-family="Helvetica,sans-Serif" font-size="11.00">[table]</text>
<polygon fill="none" stroke="black" points="194.5,-161 194.5,-183 373.5,-183 373.5,-161 194.5,-161"/>
<image xlink:href="../../images/primaryKeys.png" width="11px" height="12px" preserveAspectRatio="xMinYMin meet" x="199.5" y="-178"/>
<text text-anchor="start" x="225.5" y="-169.2" font-family="Helvetica,sans-Serif" font-size="11.00">pulp_id</text>
<polygon fill="#ffffff" stroke="none" points="194.5,-139 194.5,-161 373.5,-161 373.5,-139 194.5,-139"/>
<polygon fill="none" stroke="black" points="194.5,-139 194.5,-161 373.5,-161 373.5,-139 194.5,-139"/>
<text text-anchor="start" x="225.5" y="-147.2" font-family="Helvetica,sans-Serif" font-size="11.00">number</text>
<polygon fill="#ffffff" stroke="none" points="194.5,-117 194.5,-139 373.5,-139 373.5,-117 194.5,-117"/>
<polygon fill="none" stroke="black" points="194.5,-117 194.5,-139 373.5,-139 373.5,-117 194.5,-117"/>
<text text-anchor="start" x="225.5" y="-125.2" font-family="Helvetica,sans-Serif" font-size="11.00">complete</text>
<polygon fill="#ffffff" stroke="none" points="194.5,-95 194.5,-117 373.5,-117 373.5,-95 194.5,-95"/>
<polygon fill="none" stroke="black" points="194.5,-95 194.5,-117 373.5,-117 373.5,-95 194.5,-95"/>
<image xlink:href="../../images/foreignKeys.png" width="11px" height="12px" preserveAspectRatio="xMinYMin meet" x="199.5" y="-112"/>
<text text-anchor="start" x="225.5" y="-103.2" font-family="Helvetica,sans-Serif" font-size="11.00">base_version_id</text>
<polygon fill="#ffffff" stroke="none" points="194.5,-73 194.5,-95 373.5,-95 373.5,-73 194.5,-73"/>
<polygon fill="none" stroke="black" points="194.5,-73 194.5,-95 373.5,-95 373.5,-73 194.5,-73"/>
<image xlink:href="../../images/foreignKeys.png" width="11px" height="12px" preserveAspectRatio="xMinYMin meet" x="199.5" y="-90"/>
<text text-anchor="start" x="225.5" y="-81.2" font-family="Helvetica,sans-Serif" font-size="11.00">repository_id</text>
<polygon fill="none" stroke="black" points="194.5,-55 194.5,-73 373.5,-73 373.5,-55 194.5,-55"/>
<text text-anchor="start" x="197.5" y="-61.2" font-family="Helvetica,sans-Serif" font-size="11.00">...</text>
<polygon fill="#ffffff" stroke="none" points="194.5,-37 194.5,-55 256.5,-55 256.5,-37 194.5,-37"/>
<polygon fill="none" stroke="black" points="194.5,-37 194.5,-55 256.5,-55 256.5,-37 194.5,-37"/>
<text text-anchor="start" x="197.5" y="-43.2" font-family="Helvetica,sans-Serif" font-size="11.00">&lt; 2</text>
<polygon fill="#ffffff" stroke="none" points="256.5,-37 256.5,-55 330.5,-55 330.5,-37 256.5,-37"/>
<polygon fill="none" stroke="black" points="256.5,-37 256.5,-55 330.5,-55 330.5,-37 256.5,-37"/>
<text text-anchor="start" x="278.5" y="-43.2" font-family="Helvetica,sans-Serif" font-size="11.00">162 rows</text>
<polygon fill="#ffffff" stroke="none" points="330.5,-37 330.5,-55 373.5,-55 373.5,-37 330.5,-37"/>
<polygon fill="none" stroke="black" points="330.5,-37 330.5,-55 373.5,-55 373.5,-37 330.5,-37"/>
<text text-anchor="start" x="353.5" y="-43.2" font-family="Helvetica,sans-Serif" font-size="11.00">7 &gt;</text>
</a>
</g>
</g>
<!-- core_repositorycontent&#45;&gt;core_repositoryversion -->
<g id="edge3" class="edge"><title>core_repositorycontent:version_added_id:w&#45;&gt;core_repositoryversion:pulp_id:e</title>
<path fill="none" stroke="black" d="M408.777,-195.869C397.195,-188.08 393.362,-172 374.5,-172"/>
<polygon fill="black" stroke="black" points="415.318,-197.768 421.996,-203.457 419.159,-198.884 423,-200 423,-200 423,-200 419.159,-198.884 424.004,-196.543 415.318,-197.768 415.318,-197.768"/>
<ellipse fill="none" stroke="black" cx="412.245" cy="-196.876" rx="3.20001" ry="3.20001"/>
</g>
<!-- core_repositorycontent&#45;&gt;core_repositoryversion -->
<g id="edge4" class="edge"><title>core_repositorycontent:version_removed_id:w&#45;&gt;core_repositoryversion:pulp_id:e</title>
<path fill="none" stroke="black" d="M408.594,-176.955C397.416,-175.236 390.451,-172 374.5,-172"/>
<polygon fill="black" stroke="black" points="415.021,-177.421 422.739,-181.591 419.01,-177.711 423,-178 423,-178 423,-178 419.01,-177.711 423.261,-174.409 415.021,-177.421 415.021,-177.421"/>
<ellipse fill="none" stroke="black" cx="411.829" cy="-177.19" rx="3.2" ry="3.2"/>
</g>
<!-- core_repositoryversion&#45;&gt;core_repository -->
<g id="edge5" class="edge"><title>core_repositoryversion:repository_id:w&#45;&gt;core_repository:pulp_id:e</title>
<path fill="none" stroke="black" d="M179.556,-89.1781C163.121,-105.687 178.445,-156 146.5,-156"/>
<polygon fill="black" stroke="black" points="186,-86.785 194.753,-87.3748 189.75,-85.3925 193.5,-84 193.5,-84 193.5,-84 189.75,-85.3925 192.247,-80.6252 186,-86.785 186,-86.785"/>
<ellipse fill="none" stroke="black" cx="183.001" cy="-87.899" rx="3.20001" ry="3.20001"/>
</g>
</g>
</svg>
