<?xml version="1.0" encoding="UTF-8" standalone="no"?>
<!DOCTYPE svg PUBLIC "-//W3C//DTD SVG 1.1//EN"
 "http://www.w3.org/Graphics/SVG/1.1/DTD/svg11.dtd">
<!-- Generated by graphviz version 2.38.0 (20140413.2041)
 -->
<!-- Title: twoDegreesRelationshipsDiagram Pages: 1 -->
<svg width="502pt" height="370pt"
 viewBox="0.00 0.00 502.00 370.00" xmlns="http://www.w3.org/2000/svg" xmlns:xlink="http://www.w3.org/1999/xlink">
<g id="graph0" class="graph" transform="scale(1 1) rotate(0) translate(4 366)">
<title>twoDegreesRelationshipsDiagram</title>
<polygon fill="#ffffff" stroke="none" points="-4,4 -4,-366 498,-366 498,4 -4,4"/>
<text text-anchor="middle" x="74.5" y="-7.2" font-family="Helvetica,sans-Serif" font-size="11.00">Generated by SchemaSpy</text>
<!-- core_groupprogressreport -->
<g id="node1" class="node"><title>core_groupprogressreport</title>
<g id="a_node1"><a xlink:href="../../tables/core_groupprogressreport.html" xlink:title="core_groupprogressreport" target="_top">
<polygon fill="#ffffff" stroke="none" points="200,-116 200,-358 486,-358 486,-116 200,-116"/>
<polygon fill="#f5f5f5" stroke="none" points="202,-334 202,-356 484,-356 484,-334 202,-334"/>
<polygon fill="none" stroke="black" points="202,-334 202,-356 484,-356 484,-334 202,-334"/>
<text text-anchor="start" x="207" y="-343.2" font-family="Helvetica,sans-Serif" font-weight="bold" font-size="11.00">core_groupprogressreport</text>
<text text-anchor="start" x="445" y="-342.2" font-family="Helvetica,sans-Serif" font-size="11.00">[table]</text>
<polygon fill="none" stroke="black" points="202,-312 202,-334 379,-334 379,-312 202,-312"/>
<image xlink:href="../../images/primaryKeys.png" width="11px" height="12px" preserveAspectRatio="xMinYMin meet" x="207" y="-329"/>
<text text-anchor="start" x="222" y="-320.2" font-family="Helvetica,sans-Serif" font-size="11.00">pulp_id</text>
<polygon fill="none" stroke="black" points="379,-312 379,-334 484,-334 484,-312 379,-312"/>
<text text-anchor="start" x="382" y="-320.2" font-family="Helvetica,sans-Serif" font-size="11.00">uuid[2147483647]</text>
<polygon fill="none" stroke="black" points="202,-290 202,-312 379,-312 379,-290 202,-290"/>
<text text-anchor="start" x="222" y="-298.2" font-family="Helvetica,sans-Serif" font-size="11.00">pulp_created</text>
<polygon fill="none" stroke="black" points="379,-290 379,-312 484,-312 484,-290 379,-290"/>
<text text-anchor="start" x="382" y="-298.2" font-family="Helvetica,sans-Serif" font-size="11.00">timestamptz[35,6]</text>
<polygon fill="none" stroke="black" points="202,-268 202,-290 379,-290 379,-268 202,-268"/>
<text text-anchor="start" x="222" y="-276.2" font-family="Helvetica,sans-Serif" font-size="11.00">pulp_last_updated</text>
<polygon fill="none" stroke="black" points="379,-268 379,-290 484,-290 484,-268 379,-268"/>
<text text-anchor="start" x="382" y="-276.2" font-family="Helvetica,sans-Serif" font-size="11.00">timestamptz[35,6]</text>
<polygon fill="none" stroke="black" points="202,-246 202,-268 379,-268 379,-246 202,-246"/>
<text text-anchor="start" x="222" y="-254.2" font-family="Helvetica,sans-Serif" font-size="11.00">message</text>
<polygon fill="none" stroke="black" points="379,-246 379,-268 484,-268 484,-246 379,-246"/>
<text text-anchor="start" x="382" y="-254.2" font-family="Helvetica,sans-Serif" font-size="11.00">text[2147483647]</text>
<polygon fill="#ffffff" stroke="none" points="202,-224 202,-246 379,-246 379,-224 202,-224"/>
<polygon fill="none" stroke="black" points="202,-224 202,-246 379,-246 379,-224 202,-224"/>
<text text-anchor="start" x="222" y="-232.2" font-family="Helvetica,sans-Serif" font-size="11.00">code</text>
<polygon fill="none" stroke="black" points="379,-224 379,-246 484,-246 484,-224 379,-224"/>
<text text-anchor="start" x="382" y="-232.2" font-family="Helvetica,sans-Serif" font-size="11.00">varchar[36]</text>
<polygon fill="none" stroke="black" points="202,-202 202,-224 379,-224 379,-202 202,-202"/>
<text text-anchor="start" x="222" y="-210.2" font-family="Helvetica,sans-Serif" font-size="11.00">total</text>
<polygon fill="none" stroke="black" points="379,-202 379,-224 484,-224 484,-202 379,-202"/>
<text text-anchor="start" x="382" y="-210.2" font-family="Helvetica,sans-Serif" font-size="11.00">int4[10]</text>
<polygon fill="none" stroke="black" points="202,-180 202,-202 379,-202 379,-180 202,-180"/>
<text text-anchor="start" x="222" y="-188.2" font-family="Helvetica,sans-Serif" font-size="11.00">done</text>
<polygon fill="none" stroke="black" points="379,-180 379,-202 484,-202 484,-180 379,-180"/>
<text text-anchor="start" x="382" y="-188.2" font-family="Helvetica,sans-Serif" font-size="11.00">int4[10]</text>
<polygon fill="none" stroke="black" points="202,-158 202,-180 379,-180 379,-158 202,-158"/>
<text text-anchor="start" x="222" y="-166.2" font-family="Helvetica,sans-Serif" font-size="11.00">suffix</text>
<polygon fill="none" stroke="black" points="379,-158 379,-180 484,-180 484,-158 379,-158"/>
<text text-anchor="start" x="382" y="-166.2" font-family="Helvetica,sans-Serif" font-size="11.00">text[2147483647]</text>
<polygon fill="#ffffff" stroke="none" points="202,-136 202,-158 379,-158 379,-136 202,-136"/>
<polygon fill="none" stroke="black" points="202,-136 202,-158 379,-158 379,-136 202,-136"/>
<image xlink:href="../../images/foreignKeys.png" width="11px" height="12px" preserveAspectRatio="xMinYMin meet" x="207" y="-153"/>
<text text-anchor="start" x="222" y="-144.2" font-family="Helvetica,sans-Serif" font-size="11.00">task_group_id</text>
<polygon fill="none" stroke="black" points="379,-136 379,-158 484,-158 484,-136 379,-136"/>
<text text-anchor="start" x="382" y="-144.2" font-family="Helvetica,sans-Serif" font-size="11.00">uuid[2147483647]</text>
<polygon fill="#ffffff" stroke="none" points="202,-118 202,-136 277,-136 277,-118 202,-118"/>
<polygon fill="none" stroke="black" points="202,-118 202,-136 277,-136 277,-118 202,-118"/>
<text text-anchor="start" x="205" y="-124.2" font-family="Helvetica,sans-Serif" font-size="11.00">&lt; 1</text>
<polygon fill="#ffffff" stroke="none" points="277,-118 277,-136 379,-136 379,-118 277,-118"/>
<polygon fill="none" stroke="black" points="277,-118 277,-136 379,-136 379,-118 277,-118"/>
<text text-anchor="start" x="333" y="-124.2" font-family="Helvetica,sans-Serif" font-size="11.00">21 rows</text>
<polygon fill="#ffffff" stroke="none" points="379,-118 379,-136 484,-136 484,-118 379,-118"/>
<polygon fill="none" stroke="black" points="379,-118 379,-136 484,-136 484,-118 379,-118"/>
<text text-anchor="start" x="464" y="-124.2" font-family="Helvetica,sans-Serif" font-size="11.00">0 &gt;</text>
<polygon fill="none" stroke="black" stroke-width="2" points="201,-117 201,-357 485,-357 485,-117 201,-117"/>
</a>
</g>
</g>
<!-- core_taskgroup -->
<g id="node2" class="node"><title>core_taskgroup</title>
<g id="a_node2"><a xlink:href="../../tables/core_taskgroup.html" xlink:title="core_taskgroup" target="_top">
<polygon fill="#ffffff" stroke="none" points="8,-58 8,-138 151,-138 151,-58 8,-58"/>
<polygon fill="#f5f5f5" stroke="none" points="8.5,-116 8.5,-138 151.5,-138 151.5,-116 8.5,-116"/>
<polygon fill="none" stroke="black" points="8.5,-116 8.5,-138 151.5,-138 151.5,-116 8.5,-116"/>
<text text-anchor="start" x="13.5" y="-125.2" font-family="Helvetica,sans-Serif" font-weight="bold" font-size="11.00">core_taskgroup</text>
<text text-anchor="start" x="112.5" y="-124.2" font-family="Helvetica,sans-Serif" font-size="11.00">[table]</text>
<polygon fill="none" stroke="black" points="8.5,-94 8.5,-116 151.5,-116 151.5,-94 8.5,-94"/>
<image xlink:href="../../images/primaryKeys.png" width="11px" height="12px" preserveAspectRatio="xMinYMin meet" x="13.5" y="-111"/>
<text text-anchor="start" x="28.5" y="-102.2" font-family="Helvetica,sans-Serif" font-size="11.00">pulp_id</text>
<polygon fill="none" stroke="black" points="8.5,-76 8.5,-94 151.5,-94 151.5,-76 8.5,-76"/>
<text text-anchor="start" x="11.5" y="-82.2" font-family="Helvetica,sans-Serif" font-size="11.00">...</text>
<polygon fill="#ffffff" stroke="none" points="8.5,-58 8.5,-76 50.5,-76 50.5,-58 8.5,-58"/>
<polygon fill="none" stroke="black" points="8.5,-58 8.5,-76 50.5,-76 50.5,-58 8.5,-58"/>
<text text-anchor="start" x="11.5" y="-64.2" font-family="Helvetica,sans-Serif" font-size="11.00"> &#160;</text>
<polygon fill="#ffffff" stroke="none" points="50.5,-58 50.5,-76 113.5,-76 113.5,-58 50.5,-58"/>
<polygon fill="none" stroke="black" points="50.5,-58 50.5,-76 113.5,-76 113.5,-58 50.5,-58"/>
<text text-anchor="start" x="67.5" y="-64.2" font-family="Helvetica,sans-Serif" font-size="11.00">26 rows</text>
<polygon fill="#ffffff" stroke="none" points="113.5,-58 113.5,-76 151.5,-76 151.5,-58 113.5,-58"/>
<polygon fill="none" stroke="black" points="113.5,-58 113.5,-76 151.5,-76 151.5,-58 113.5,-58"/>
<text text-anchor="start" x="131.5" y="-64.2" font-family="Helvetica,sans-Serif" font-size="11.00">2 &gt;</text>
</a>
</g>
</g>
<!-- core_groupprogressreport&#45;&gt;core_taskgroup -->
<g id="edge1" class="edge"><title>core_groupprogressreport:task_group_id:w&#45;&gt;core_taskgroup:pulp_id:e</title>
<path fill="none" stroke="black" d="M187.205,-142.182C174.435,-131.15 175,-105 152.5,-105"/>
<polygon fill="black" stroke="black" points="193.447,-144.362 199.813,-150.399 197.224,-145.681 201,-147 201,-147 201,-147 197.224,-145.681 202.187,-143.601 193.447,-144.362 193.447,-144.362"/>
<ellipse fill="none" stroke="black" cx="190.426" cy="-143.307" rx="3.20001" ry="3.20001"/>
</g>
<!-- core_task -->
<g id="node3" class="node"><title>core_task</title>
<g id="a_node3"><a xlink:href="../../tables/core_task.html" xlink:title="core_task" target="_top">
<polygon fill="#ffffff" stroke="none" points="287.5,-37 287.5,-95 398.5,-95 398.5,-37 287.5,-37"/>
<polygon fill="#f5f5f5" stroke="none" points="288,-73 288,-95 399,-95 399,-73 288,-73"/>
<polygon fill="none" stroke="black" points="288,-73 288,-95 399,-95 399,-73 288,-73"/>
<text text-anchor="start" x="293" y="-82.2" font-family="Helvetica,sans-Serif" font-weight="bold" font-size="11.00">core_task</text>
<text text-anchor="start" x="360" y="-81.2" font-family="Helvetica,sans-Serif" font-size="11.00">[table]</text>
<polygon fill="none" stroke="black" points="288,-55 288,-73 399,-73 399,-55 288,-55"/>
<text text-anchor="start" x="291" y="-61.2" font-family="Helvetica,sans-Serif" font-size="11.00">...</text>
<polygon fill="#ffffff" stroke="none" points="288,-37 288,-55 311,-55 311,-37 288,-37"/>
<polygon fill="none" stroke="black" points="288,-37 288,-55 311,-55 311,-37 288,-37"/>
<text text-anchor="start" x="291" y="-43.2" font-family="Helvetica,sans-Serif" font-size="11.00">&lt; 3</text>
<polygon fill="#ffffff" stroke="none" points="311,-37 311,-55 376,-55 376,-37 311,-37"/>
<polygon fill="none" stroke="black" points="311,-37 311,-55 376,-55 376,-37 311,-37"/>
<text text-anchor="start" x="314" y="-43.2" font-family="Helvetica,sans-Serif" font-size="11.00">1,828 rows</text>
<polygon fill="#ffffff" stroke="none" points="376,-37 376,-55 399,-55 399,-37 376,-37"/>
<polygon fill="none" stroke="black" points="376,-37 376,-55 399,-55 399,-37 376,-37"/>
<text text-anchor="start" x="379" y="-43.2" font-family="Helvetica,sans-Serif" font-size="11.00">8 &gt;</text>
</a>
</g>
</g>
<!-- core_task&#45;&gt;core_taskgroup -->
<g id="edge2" class="edge"><title>core_task:elipses:w&#45;&gt;core_taskgroup:pulp_id:e</title>
<path fill="none" stroke="black" d="M272.313,-64.819C222.535,-70.5975 209.745,-105 152.5,-105"/>
<polygon fill="black" stroke="black" points="279.012,-64.4455 287.2,-67.5944 283.006,-64.2227 287,-64 287,-64 287,-64 283.006,-64.2227 286.8,-60.4056 279.012,-64.4455 279.012,-64.4455"/>
<ellipse fill="none" stroke="black" cx="275.817" cy="-64.6236" rx="3.2" ry="3.2"/>
</g>
</g>
</svg>
