<?xml version="1.0" encoding="UTF-8" standalone="no"?>
<!DOCTYPE svg PUBLIC "-//W3C//DTD SVG 1.1//EN"
 "http://www.w3.org/Graphics/SVG/1.1/DTD/svg11.dtd">
<!-- Generated by graphviz version 2.38.0 (20140413.2041)
 -->
<!-- Title: twoDegreesRelationshipsDiagram Pages: 1 -->
<svg width="1074pt" height="238pt"
 viewBox="0.00 0.00 1074.00 238.00" xmlns="http://www.w3.org/2000/svg" xmlns:xlink="http://www.w3.org/1999/xlink">
<g id="graph0" class="graph" transform="scale(1 1) rotate(0) translate(4 234)">
<title>twoDegreesRelationshipsDiagram</title>
<polygon fill="#ffffff" stroke="none" points="-4,4 -4,-234 1070,-234 1070,4 -4,4"/>
<text text-anchor="middle" x="74.5" y="-7.2" font-family="Helvetica,sans-Serif" font-size="11.00">Generated by SchemaSpy</text>
<!-- core_export -->
<g id="node1" class="node"><title>core_export</title>
<g id="a_node1"><a xlink:href="../../tables/core_export.html" xlink:title="core_export" target="_top">
<polygon fill="#ffffff" stroke="none" points="186,-115 186,-173 302,-173 302,-115 186,-115"/>
<polygon fill="#f5f5f5" stroke="none" points="186,-151 186,-173 302,-173 302,-151 186,-151"/>
<polygon fill="none" stroke="black" points="186,-151 186,-173 302,-173 302,-151 186,-151"/>
<text text-anchor="start" x="191" y="-160.2" font-family="Helvetica,sans-Serif" font-weight="bold" font-size="11.00">core_export</text>
<text text-anchor="start" x="263" y="-159.2" font-family="Helvetica,sans-Serif" font-size="11.00">[table]</text>
<polygon fill="none" stroke="black" points="186,-133 186,-151 302,-151 302,-133 186,-133"/>
<text text-anchor="start" x="189" y="-139.2" font-family="Helvetica,sans-Serif" font-size="11.00">...</text>
<polygon fill="#ffffff" stroke="none" points="186,-115 186,-133 223,-133 223,-115 186,-115"/>
<polygon fill="none" stroke="black" points="186,-115 186,-133 223,-133 223,-115 186,-115"/>
<text text-anchor="start" x="189" y="-121.2" font-family="Helvetica,sans-Serif" font-size="11.00">&lt; 2</text>
<polygon fill="#ffffff" stroke="none" points="223,-115 223,-133 272,-133 272,-115 223,-115"/>
<polygon fill="none" stroke="black" points="223,-115 223,-133 272,-133 272,-115 223,-115"/>
<text text-anchor="start" x="233" y="-121.2" font-family="Helvetica,sans-Serif" font-size="11.00">0 rows</text>
<polygon fill="#ffffff" stroke="none" points="272,-115 272,-133 302,-133 302,-115 272,-115"/>
<polygon fill="none" stroke="black" points="272,-115 272,-133 302,-133 302,-115 272,-115"/>
<text text-anchor="start" x="282" y="-121.2" font-family="Helvetica,sans-Serif" font-size="11.00">2 &gt;</text>
</a>
</g>
</g>
<!-- core_exporter -->
<g id="node2" class="node"><title>core_exporter</title>
<g id="a_node2"><a xlink:href="../../tables/core_exporter.html" xlink:title="core_exporter" target="_top">
<polygon fill="#ffffff" stroke="none" points="8,-101 8,-203 137,-203 137,-101 8,-101"/>
<polygon fill="#f5f5f5" stroke="none" points="8.5,-181 8.5,-203 137.5,-203 137.5,-181 8.5,-181"/>
<polygon fill="none" stroke="black" points="8.5,-181 8.5,-203 137.5,-203 137.5,-181 8.5,-181"/>
<text text-anchor="start" x="13.5" y="-190.2" font-family="Helvetica,sans-Serif" font-weight="bold" font-size="11.00">core_exporter</text>
<text text-anchor="start" x="98.5" y="-189.2" font-family="Helvetica,sans-Serif" font-size="11.00">[table]</text>
<polygon fill="none" stroke="black" points="8.5,-159 8.5,-181 137.5,-181 137.5,-159 8.5,-159"/>
<image xlink:href="../../images/primaryKeys.png" width="11px" height="12px" preserveAspectRatio="xMinYMin meet" x="13.5" y="-176"/>
<text text-anchor="start" x="28.5" y="-167.2" font-family="Helvetica,sans-Serif" font-size="11.00">pulp_id</text>
<polygon fill="#ffffff" stroke="none" points="8.5,-137 8.5,-159 137.5,-159 137.5,-137 8.5,-137"/>
<polygon fill="none" stroke="black" points="8.5,-137 8.5,-159 137.5,-159 137.5,-137 8.5,-137"/>
<text text-anchor="start" x="28.5" y="-145.2" font-family="Helvetica,sans-Serif" font-size="11.00">name</text>
<polygon fill="none" stroke="black" points="8.5,-119 8.5,-137 137.5,-137 137.5,-119 8.5,-119"/>
<text text-anchor="start" x="11.5" y="-125.2" font-family="Helvetica,sans-Serif" font-size="11.00">...</text>
<polygon fill="#ffffff" stroke="none" points="8.5,-101 8.5,-119 46.5,-119 46.5,-101 8.5,-101"/>
<polygon fill="none" stroke="black" points="8.5,-101 8.5,-119 46.5,-119 46.5,-101 8.5,-101"/>
<text text-anchor="start" x="11.5" y="-107.2" font-family="Helvetica,sans-Serif" font-size="11.00"> &#160;</text>
<polygon fill="#ffffff" stroke="none" points="46.5,-101 46.5,-119 101.5,-119 101.5,-101 46.5,-101"/>
<polygon fill="none" stroke="black" points="46.5,-101 46.5,-119 101.5,-119 101.5,-101 46.5,-101"/>
<text text-anchor="start" x="62.5" y="-107.2" font-family="Helvetica,sans-Serif" font-size="11.00">0 rows</text>
<polygon fill="#ffffff" stroke="none" points="101.5,-101 101.5,-119 137.5,-119 137.5,-101 101.5,-101"/>
<polygon fill="none" stroke="black" points="101.5,-101 101.5,-119 137.5,-119 137.5,-101 101.5,-101"/>
<text text-anchor="start" x="117.5" y="-107.2" font-family="Helvetica,sans-Serif" font-size="11.00">2 &gt;</text>
</a>
</g>
</g>
<!-- core_export&#45;&gt;core_exporter -->
<g id="edge1" class="edge"><title>core_export:elipses:w&#45;&gt;core_exporter:pulp_id:e</title>
<path fill="none" stroke="black" d="M170.949,-146.375C160.133,-154.25 156.593,-170 138.5,-170"/>
<polygon fill="black" stroke="black" points="177.362,-144.378 186.07,-145.437 181.181,-143.189 185,-142 185,-142 185,-142 181.181,-143.189 183.93,-138.563 177.362,-144.378 177.362,-144.378"/>
<ellipse fill="none" stroke="black" cx="174.306" cy="-145.33" rx="3.20001" ry="3.20001"/>
</g>
<!-- core_pulpexport -->
<g id="node3" class="node"><title>core_pulpexport</title>
<g id="a_node3"><a xlink:href="../../tables/core_pulpexport.html" xlink:title="core_pulpexport" target="_top">
<polygon fill="#ffffff" stroke="none" points="351,-94 351,-174 493,-174 493,-94 351,-94"/>
<polygon fill="#f5f5f5" stroke="none" points="351,-152 351,-174 493,-174 493,-152 351,-152"/>
<polygon fill="none" stroke="black" points="351,-152 351,-174 493,-174 493,-152 351,-152"/>
<text text-anchor="start" x="356" y="-161.2" font-family="Helvetica,sans-Serif" font-weight="bold" font-size="11.00">core_pulpexport</text>
<text text-anchor="start" x="454" y="-160.2" font-family="Helvetica,sans-Serif" font-size="11.00">[table]</text>
<polygon fill="none" stroke="black" points="351,-130 351,-152 493,-152 493,-130 351,-130"/>
<image xlink:href="../../images/primaryKeys.png" width="11px" height="12px" preserveAspectRatio="xMinYMin meet" x="356" y="-147"/>
<text text-anchor="start" x="383" y="-138.2" font-family="Helvetica,sans-Serif" font-size="11.00">export_ptr_id</text>
<polygon fill="none" stroke="black" points="351,-112 351,-130 493,-130 493,-112 351,-112"/>
<text text-anchor="start" x="354" y="-118.2" font-family="Helvetica,sans-Serif" font-size="11.00">...</text>
<polygon fill="#ffffff" stroke="none" points="351,-94 351,-112 401,-112 401,-94 351,-94"/>
<polygon fill="none" stroke="black" points="351,-94 351,-112 401,-112 401,-94 351,-94"/>
<text text-anchor="start" x="354" y="-100.2" font-family="Helvetica,sans-Serif" font-size="11.00">&lt; 1</text>
<polygon fill="#ffffff" stroke="none" points="401,-94 401,-112 456,-112 456,-94 401,-94"/>
<polygon fill="none" stroke="black" points="401,-94 401,-112 456,-112 456,-94 401,-94"/>
<text text-anchor="start" x="417" y="-100.2" font-family="Helvetica,sans-Serif" font-size="11.00">0 rows</text>
<polygon fill="#ffffff" stroke="none" points="456,-94 456,-112 493,-112 493,-94 456,-94"/>
<polygon fill="none" stroke="black" points="456,-94 456,-112 493,-112 493,-94 456,-94"/>
<text text-anchor="start" x="473" y="-100.2" font-family="Helvetica,sans-Serif" font-size="11.00">1 &gt;</text>
</a>
</g>
</g>
<!-- core_pulpexport&#45;&gt;core_export -->
<g id="edge2" class="edge"><title>core_pulpexport:export_ptr_id:w&#45;&gt;core_export:elipses:e</title>
<path fill="none" stroke="black" d="M339.319,-141.1C326.472,-141.352 319.813,-142 303,-142"/>
<polygon fill="black" stroke="black" points="349.163,-137.008 349.237,-145.007 347.637,-145.022 347.563,-137.023 349.163,-137.008"/>
<polyline fill="none" stroke="black" points="350,-141 346,-141.037 "/>
<ellipse fill="none" stroke="black" cx="342.8" cy="-141.067" rx="3.2" ry="3.2"/>
</g>
<!-- core_pulpexporter -->
<g id="node4" class="node"><title>core_pulpexporter</title>
<g id="a_node4"><a xlink:href="../../tables/core_pulpexporter.html" xlink:title="core_pulpexporter" target="_top">
<polygon fill="#ffffff" stroke="none" points="542,-116 542,-226 782,-226 782,-116 542,-116"/>
<polygon fill="#f5f5f5" stroke="none" points="544,-202 544,-224 780,-224 780,-202 544,-202"/>
<polygon fill="none" stroke="black" points="544,-202 544,-224 780,-224 780,-202 544,-202"/>
<text text-anchor="start" x="549" y="-211.2" font-family="Helvetica,sans-Serif" font-weight="bold" font-size="11.00">core_pulpexporter</text>
<text text-anchor="start" x="741" y="-210.2" font-family="Helvetica,sans-Serif" font-size="11.00">[table]</text>
<polygon fill="none" stroke="black" points="544,-180 544,-202 675,-202 675,-180 544,-180"/>
<image xlink:href="../../images/primaryKeys.png" width="11px" height="12px" preserveAspectRatio="xMinYMin meet" x="549" y="-197"/>
<text text-anchor="start" x="564" y="-188.2" font-family="Helvetica,sans-Serif" font-size="11.00">exporter_ptr_id</text>
<polygon fill="none" stroke="black" points="675,-180 675,-202 780,-202 780,-180 675,-180"/>
<text text-anchor="start" x="678" y="-188.2" font-family="Helvetica,sans-Serif" font-size="11.00">uuid[2147483647]</text>
<polygon fill="none" stroke="black" points="544,-158 544,-180 675,-180 675,-158 544,-158"/>
<text text-anchor="start" x="564" y="-166.2" font-family="Helvetica,sans-Serif" font-size="11.00">path</text>
<polygon fill="none" stroke="black" points="675,-158 675,-180 780,-180 780,-158 675,-158"/>
<text text-anchor="start" x="678" y="-166.2" font-family="Helvetica,sans-Serif" font-size="11.00">text[2147483647]</text>
<polygon fill="#ffffff" stroke="none" points="544,-136 544,-158 675,-158 675,-136 544,-136"/>
<polygon fill="none" stroke="black" points="544,-136 544,-158 675,-158 675,-136 544,-136"/>
<image xlink:href="../../images/foreignKeys.png" width="11px" height="12px" preserveAspectRatio="xMinYMin meet" x="549" y="-153"/>
<text text-anchor="start" x="564" y="-144.2" font-family="Helvetica,sans-Serif" font-size="11.00">last_export_id</text>
<polygon fill="none" stroke="black" points="675,-136 675,-158 780,-158 780,-136 675,-136"/>
<text text-anchor="start" x="678" y="-144.2" font-family="Helvetica,sans-Serif" font-size="11.00">uuid[2147483647]</text>
<polygon fill="#ffffff" stroke="none" points="544,-118 544,-136 600,-136 600,-118 544,-118"/>
<polygon fill="none" stroke="black" points="544,-118 544,-136 600,-136 600,-118 544,-118"/>
<text text-anchor="start" x="547" y="-124.2" font-family="Helvetica,sans-Serif" font-size="11.00">&lt; 2</text>
<polygon fill="#ffffff" stroke="none" points="600,-118 600,-136 675,-136 675,-118 600,-118"/>
<polygon fill="none" stroke="black" points="600,-118 600,-136 675,-136 675,-118 600,-118"/>
<text text-anchor="start" x="636" y="-124.2" font-family="Helvetica,sans-Serif" font-size="11.00">0 rows</text>
<polygon fill="#ffffff" stroke="none" points="675,-118 675,-136 780,-136 780,-118 675,-118"/>
<polygon fill="none" stroke="black" points="675,-118 675,-136 780,-136 780,-118 675,-118"/>
<text text-anchor="start" x="760" y="-124.2" font-family="Helvetica,sans-Serif" font-size="11.00">1 &gt;</text>
<polygon fill="none" stroke="black" stroke-width="2" points="543,-117 543,-225 781,-225 781,-117 543,-117"/>
</a>
</g>
</g>
<!-- core_pulpexporter&#45;&gt;core_exporter -->
<g id="edge3" class="edge"><title>core_pulpexporter:exporter_ptr_id:w&#45;&gt;core_exporter:pulp_id:e</title>
<path fill="none" stroke="black" d="M532.244,-191.029C378.756,-191.85 334.332,-209.824 178,-183 159.784,-179.874 156.982,-170 138.5,-170"/>
<polygon fill="black" stroke="black" points="542.189,-187.002 542.211,-195.002 540.611,-195.006 540.589,-187.006 542.189,-187.002"/>
<polyline fill="none" stroke="black" points="543,-191 539,-191.011 "/>
<ellipse fill="none" stroke="black" cx="535.8" cy="-191.019" rx="3.2" ry="3.2"/>
</g>
<!-- core_pulpexporter&#45;&gt;core_pulpexport -->
<g id="edge4" class="edge"><title>core_pulpexporter:last_export_id:w&#45;&gt;core_pulpexport:export_ptr_id:e</title>
<path fill="none" stroke="black" d="M528.446,-145.955C517.153,-144.236 510.113,-141 494,-141"/>
<polygon fill="black" stroke="black" points="535.021,-146.427 542.742,-150.591 539.01,-146.713 543,-147 543,-147 543,-147 539.01,-146.713 543.258,-143.409 535.021,-146.427 535.021,-146.427"/>
<ellipse fill="none" stroke="black" cx="531.829" cy="-146.198" rx="3.2" ry="3.2"/>
</g>
<!-- core_pulpexporter_repositories -->
<g id="node5" class="node"><title>core_pulpexporter_repositories</title>
<g id="a_node5"><a xlink:href="../../tables/core_pulpexporter_repositories.html" xlink:title="core_pulpexporter_repositories" target="_top">
<polygon fill="#ffffff" stroke="none" points="831,-87 831,-193 1058,-193 1058,-87 831,-87"/>
<polygon fill="#f5f5f5" stroke="none" points="831.5,-171 831.5,-193 1058.5,-193 1058.5,-171 831.5,-171"/>
<polygon fill="none" stroke="black" points="831.5,-171 831.5,-193 1058.5,-193 1058.5,-171 831.5,-171"/>
<text text-anchor="start" x="836.5" y="-180.2" font-family="Helvetica,sans-Serif" font-weight="bold" font-size="11.00">core_pulpexporter_repositories</text>
<text text-anchor="start" x="1019.5" y="-179.2" font-family="Helvetica,sans-Serif" font-size="11.00">[table]</text>
<polygon fill="none" stroke="black" points="831.5,-149 831.5,-171 1058.5,-171 1058.5,-149 831.5,-149"/>
<image xlink:href="../../images/primaryKeys.png" width="11px" height="12px" preserveAspectRatio="xMinYMin meet" x="836.5" y="-166"/>
<text text-anchor="start" x="861.5" y="-157.2" font-family="Helvetica,sans-Serif" font-size="11.00">id</text>
<polygon fill="#ffffff" stroke="none" points="831.5,-127 831.5,-149 1058.5,-149 1058.5,-127 831.5,-127"/>
<polygon fill="none" stroke="black" points="831.5,-127 831.5,-149 1058.5,-149 1058.5,-127 831.5,-127"/>
<image xlink:href="../../images/foreignKeys.png" width="11px" height="12px" preserveAspectRatio="xMinYMin meet" x="836.5" y="-144"/>
<text text-anchor="start" x="861.5" y="-135.2" font-family="Helvetica,sans-Serif" font-size="11.00">pulpexporter_id</text>
<polygon fill="#ffffff" stroke="none" points="831.5,-105 831.5,-127 1058.5,-127 1058.5,-105 831.5,-105"/>
<polygon fill="none" stroke="black" points="831.5,-105 831.5,-127 1058.5,-127 1058.5,-105 831.5,-105"/>
<image xlink:href="../../images/foreignKeys.png" width="11px" height="12px" preserveAspectRatio="xMinYMin meet" x="836.5" y="-122"/>
<text text-anchor="start" x="861.5" y="-113.2" font-family="Helvetica,sans-Serif" font-size="11.00">repository_id</text>
<polygon fill="#ffffff" stroke="none" points="831.5,-87 831.5,-105 928.5,-105 928.5,-87 831.5,-87"/>
<polygon fill="none" stroke="black" points="831.5,-87 831.5,-105 928.5,-105 928.5,-87 831.5,-87"/>
<text text-anchor="start" x="834.5" y="-93.2" font-family="Helvetica,sans-Serif" font-size="11.00">&lt; 2</text>
<polygon fill="#ffffff" stroke="none" points="928.5,-87 928.5,-105 1007.5,-105 1007.5,-87 928.5,-87"/>
<polygon fill="none" stroke="black" points="928.5,-87 928.5,-105 1007.5,-105 1007.5,-87 928.5,-87"/>
<text text-anchor="start" x="968.5" y="-93.2" font-family="Helvetica,sans-Serif" font-size="11.00">0 rows</text>
<polygon fill="#ffffff" stroke="none" points="1007.5,-87 1007.5,-105 1058.5,-105 1058.5,-87 1007.5,-87"/>
<polygon fill="none" stroke="black" points="1007.5,-87 1007.5,-105 1058.5,-105 1058.5,-87 1007.5,-87"/>
<text text-anchor="start" x="1048.5" y="-93.2" font-family="Helvetica,sans-Serif" font-size="11.00"> &#160;</text>
</a>
</g>
</g>
<!-- core_pulpexporter_repositories&#45;&gt;core_pulpexporter -->
<g id="edge5" class="edge"><title>core_pulpexporter_repositories:pulpexporter_id:w&#45;&gt;core_pulpexporter:exporter_ptr_id.type:e</title>
<path fill="none" stroke="black" d="M816.725,-142.891C802.22,-156.012 807.188,-191 781,-191"/>
<polygon fill="black" stroke="black" points="822.961,-140.677 831.705,-141.392 826.731,-139.338 830.5,-138 830.5,-138 830.5,-138 826.731,-139.338 829.295,-134.608 822.961,-140.677 822.961,-140.677"/>
<ellipse fill="none" stroke="black" cx="819.946" cy="-141.748" rx="3.20001" ry="3.20001"/>
</g>
<!-- core_repository -->
<g id="node6" class="node"><title>core_repository</title>
<g id="a_node6"><a xlink:href="../../tables/core_repository.html" xlink:title="core_repository" target="_top">
<polygon fill="#ffffff" stroke="none" points="593.5,-37 593.5,-95 730.5,-95 730.5,-37 593.5,-37"/>
<polygon fill="#f5f5f5" stroke="none" points="594,-73 594,-95 731,-95 731,-73 594,-73"/>
<polygon fill="none" stroke="black" points="594,-73 594,-95 731,-95 731,-73 594,-73"/>
<text text-anchor="start" x="599" y="-82.2" font-family="Helvetica,sans-Serif" font-weight="bold" font-size="11.00">core_repository</text>
<text text-anchor="start" x="692" y="-81.2" font-family="Helvetica,sans-Serif" font-size="11.00">[table]</text>
<polygon fill="none" stroke="black" points="594,-55 594,-73 731,-73 731,-55 594,-55"/>
<text text-anchor="start" x="597" y="-61.2" font-family="Helvetica,sans-Serif" font-size="11.00">...</text>
<polygon fill="#ffffff" stroke="none" points="594,-37 594,-55 634,-55 634,-37 594,-37"/>
<polygon fill="none" stroke="black" points="594,-37 594,-55 634,-55 634,-37 594,-37"/>
<text text-anchor="start" x="597" y="-43.2" font-family="Helvetica,sans-Serif" font-size="11.00">&lt; 1</text>
<polygon fill="#ffffff" stroke="none" points="634,-37 634,-55 692,-55 692,-37 634,-37"/>
<polygon fill="none" stroke="black" points="634,-37 634,-55 692,-55 692,-37 634,-37"/>
<text text-anchor="start" x="646" y="-43.2" font-family="Helvetica,sans-Serif" font-size="11.00">26 rows</text>
<polygon fill="#ffffff" stroke="none" points="692,-37 692,-55 731,-55 731,-37 692,-37"/>
<polygon fill="none" stroke="black" points="692,-37 692,-55 731,-55 731,-37 692,-37"/>
<text text-anchor="start" x="704" y="-43.2" font-family="Helvetica,sans-Serif" font-size="11.00">10 &gt;</text>
</a>
</g>
</g>
<!-- core_pulpexporter_repositories&#45;&gt;core_repository -->
<g id="edge6" class="edge"><title>core_pulpexporter_repositories:repository_id:w&#45;&gt;core_repository:elipses:e</title>
<path fill="none" stroke="black" d="M815.921,-114.27C780.509,-105.247 776.089,-64 732,-64"/>
<polygon fill="black" stroke="black" points="822.556,-115.057 830.076,-119.575 826.528,-115.529 830.5,-116 830.5,-116 830.5,-116 826.528,-115.529 830.924,-112.425 822.556,-115.057 822.556,-115.057"/>
<ellipse fill="none" stroke="black" cx="819.378" cy="-114.68" rx="3.2" ry="3.2"/>
</g>
</g>
</svg>
