<?xml version="1.0" encoding="UTF-8" standalone="no"?>
<!DOCTYPE svg PUBLIC "-//W3C//DTD SVG 1.1//EN"
 "http://www.w3.org/Graphics/SVG/1.1/DTD/svg11.dtd">
<!-- Generated by graphviz version 2.38.0 (20140413.2041)
 -->
<!-- Title: twoDegreesRelationshipsDiagram Pages: 1 -->
<svg width="809pt" height="594pt"
 viewBox="0.00 0.00 809.00 594.00" xmlns="http://www.w3.org/2000/svg" xmlns:xlink="http://www.w3.org/1999/xlink">
<g id="graph0" class="graph" transform="scale(1 1) rotate(0) translate(4 590)">
<title>twoDegreesRelationshipsDiagram</title>
<polygon fill="#ffffff" stroke="none" points="-4,4 -4,-590 805,-590 805,4 -4,4"/>
<text text-anchor="middle" x="74.5" y="-7.2" font-family="Helvetica,sans-Serif" font-size="11.00">Generated by SchemaSpy</text>
<!-- ansible_collectionimport -->
<g id="node1" class="node"><title>ansible_collectionimport</title>
<g id="a_node1"><a xlink:href="../../tables/ansible_collectionimport.html" xlink:title="ansible_collectionimport" target="_top">
<polygon fill="#ffffff" stroke="none" points="578.5,-524 578.5,-582 768.5,-582 768.5,-524 578.5,-524"/>
<polygon fill="#f5f5f5" stroke="none" points="578.5,-560 578.5,-582 768.5,-582 768.5,-560 578.5,-560"/>
<polygon fill="none" stroke="black" points="578.5,-560 578.5,-582 768.5,-582 768.5,-560 578.5,-560"/>
<text text-anchor="start" x="583.5" y="-569.2" font-family="Helvetica,sans-Serif" font-weight="bold" font-size="11.00">ansible_collectionimport</text>
<text text-anchor="start" x="729.5" y="-568.2" font-family="Helvetica,sans-Serif" font-size="11.00">[table]</text>
<polygon fill="none" stroke="black" points="578.5,-542 578.5,-560 768.5,-560 768.5,-542 578.5,-542"/>
<text text-anchor="start" x="581.5" y="-548.2" font-family="Helvetica,sans-Serif" font-size="11.00">...</text>
<polygon fill="#ffffff" stroke="none" points="578.5,-524 578.5,-542 650.5,-542 650.5,-524 578.5,-524"/>
<polygon fill="none" stroke="black" points="578.5,-524 578.5,-542 650.5,-542 650.5,-524 578.5,-524"/>
<text text-anchor="start" x="581.5" y="-530.2" font-family="Helvetica,sans-Serif" font-size="11.00">&lt; 1</text>
<polygon fill="#ffffff" stroke="none" points="650.5,-524 650.5,-542 730.5,-542 730.5,-524 650.5,-524"/>
<polygon fill="none" stroke="black" points="650.5,-524 650.5,-542 730.5,-542 730.5,-524 650.5,-524"/>
<text text-anchor="start" x="678.5" y="-530.2" font-family="Helvetica,sans-Serif" font-size="11.00">111 rows</text>
<polygon fill="#ffffff" stroke="none" points="730.5,-524 730.5,-542 768.5,-542 768.5,-524 730.5,-524"/>
<polygon fill="none" stroke="black" points="730.5,-524 730.5,-542 768.5,-542 768.5,-524 730.5,-524"/>
<text text-anchor="start" x="758.5" y="-530.2" font-family="Helvetica,sans-Serif" font-size="11.00"> &#160;</text>
</a>
</g>
</g>
<!-- core_task -->
<g id="node2" class="node"><title>core_task</title>
<g id="a_node2"><a xlink:href="../../tables/core_task.html" xlink:title="core_task" target="_top">
<polygon fill="#ffffff" stroke="none" points="342.5,-201 342.5,-347 471.5,-347 471.5,-201 342.5,-201"/>
<polygon fill="#f5f5f5" stroke="none" points="343,-325 343,-347 472,-347 472,-325 343,-325"/>
<polygon fill="none" stroke="black" points="343,-325 343,-347 472,-347 472,-325 343,-325"/>
<text text-anchor="start" x="348" y="-334.2" font-family="Helvetica,sans-Serif" font-weight="bold" font-size="11.00">core_task</text>
<text text-anchor="start" x="433" y="-333.2" font-family="Helvetica,sans-Serif" font-size="11.00">[table]</text>
<polygon fill="none" stroke="black" points="343,-303 343,-325 472,-325 472,-303 343,-303"/>
<image xlink:href="../../images/primaryKeys.png" width="11px" height="12px" preserveAspectRatio="xMinYMin meet" x="348" y="-320"/>
<text text-anchor="start" x="363" y="-311.2" font-family="Helvetica,sans-Serif" font-size="11.00">pulp_id</text>
<polygon fill="#ffffff" stroke="none" points="343,-281 343,-303 472,-303 472,-281 343,-281"/>
<polygon fill="none" stroke="black" points="343,-281 343,-303 472,-303 472,-281 343,-281"/>
<image xlink:href="../../images/foreignKeys.png" width="11px" height="12px" preserveAspectRatio="xMinYMin meet" x="348" y="-298"/>
<text text-anchor="start" x="363" y="-289.2" font-family="Helvetica,sans-Serif" font-size="11.00">worker_id</text>
<polygon fill="#ffffff" stroke="none" points="343,-259 343,-281 472,-281 472,-259 343,-259"/>
<polygon fill="none" stroke="black" points="343,-259 343,-281 472,-281 472,-259 343,-259"/>
<image xlink:href="../../images/foreignKeys.png" width="11px" height="12px" preserveAspectRatio="xMinYMin meet" x="348" y="-276"/>
<text text-anchor="start" x="363" y="-267.2" font-family="Helvetica,sans-Serif" font-size="11.00">parent_task_id</text>
<polygon fill="#ffffff" stroke="none" points="343,-237 343,-259 472,-259 472,-237 343,-237"/>
<polygon fill="none" stroke="black" points="343,-237 343,-259 472,-259 472,-237 343,-237"/>
<image xlink:href="../../images/foreignKeys.png" width="11px" height="12px" preserveAspectRatio="xMinYMin meet" x="348" y="-254"/>
<text text-anchor="start" x="363" y="-245.2" font-family="Helvetica,sans-Serif" font-size="11.00">task_group_id</text>
<polygon fill="none" stroke="black" points="343,-219 343,-237 472,-237 472,-219 343,-219"/>
<text text-anchor="start" x="346" y="-225.2" font-family="Helvetica,sans-Serif" font-size="11.00">...</text>
<polygon fill="#ffffff" stroke="none" points="343,-201 343,-219 375,-219 375,-201 343,-201"/>
<polygon fill="none" stroke="black" points="343,-201 343,-219 375,-219 375,-201 343,-201"/>
<text text-anchor="start" x="346" y="-207.2" font-family="Helvetica,sans-Serif" font-size="11.00">&lt; 3</text>
<polygon fill="#ffffff" stroke="none" points="375,-201 375,-219 444,-219 444,-201 375,-201"/>
<polygon fill="none" stroke="black" points="375,-201 375,-219 444,-219 444,-201 375,-201"/>
<text text-anchor="start" x="382" y="-207.2" font-family="Helvetica,sans-Serif" font-size="11.00">1,828 rows</text>
<polygon fill="#ffffff" stroke="none" points="444,-201 444,-219 472,-219 472,-201 444,-201"/>
<polygon fill="none" stroke="black" points="444,-201 444,-219 472,-219 472,-201 444,-201"/>
<text text-anchor="start" x="452" y="-207.2" font-family="Helvetica,sans-Serif" font-size="11.00">8 &gt;</text>
</a>
</g>
</g>
<!-- ansible_collectionimport&#45;&gt;core_task -->
<g id="edge1" class="edge"><title>ansible_collectionimport:elipses:w&#45;&gt;core_task:pulp_id:e</title>
<path fill="none" stroke="black" d="M567.105,-550.277C470.236,-535.971 584.408,-314 473,-314"/>
<polygon fill="black" stroke="black" points="576.979,-546.954 576.425,-554.935 574.828,-554.824 575.383,-546.843 576.979,-546.954"/>
<polyline fill="none" stroke="black" points="577.5,-551 573.51,-550.723 "/>
<ellipse fill="none" stroke="black" cx="570.317" cy="-550.501" rx="3.2" ry="3.2"/>
</g>
<!-- core_taskgroup -->
<g id="node6" class="node"><title>core_taskgroup</title>
<g id="a_node6"><a xlink:href="../../tables/core_taskgroup.html" xlink:title="core_taskgroup" target="_top">
<polygon fill="#ffffff" stroke="none" points="8,-37 8,-191 260,-191 260,-37 8,-37"/>
<polygon fill="#f5f5f5" stroke="none" points="10,-167 10,-189 258,-189 258,-167 10,-167"/>
<polygon fill="none" stroke="black" points="10,-167 10,-189 258,-189 258,-167 10,-167"/>
<text text-anchor="start" x="15" y="-176.2" font-family="Helvetica,sans-Serif" font-weight="bold" font-size="11.00">core_taskgroup</text>
<text text-anchor="start" x="219" y="-175.2" font-family="Helvetica,sans-Serif" font-size="11.00">[table]</text>
<polygon fill="none" stroke="black" points="10,-145 10,-167 153,-167 153,-145 10,-145"/>
<image xlink:href="../../images/primaryKeys.png" width="11px" height="12px" preserveAspectRatio="xMinYMin meet" x="15" y="-162"/>
<text text-anchor="start" x="30" y="-153.2" font-family="Helvetica,sans-Serif" font-size="11.00">pulp_id</text>
<polygon fill="none" stroke="black" points="153,-145 153,-167 258,-167 258,-145 153,-145"/>
<text text-anchor="start" x="156" y="-153.2" font-family="Helvetica,sans-Serif" font-size="11.00">uuid[2147483647]</text>
<polygon fill="none" stroke="black" points="10,-123 10,-145 153,-145 153,-123 10,-123"/>
<text text-anchor="start" x="30" y="-131.2" font-family="Helvetica,sans-Serif" font-size="11.00">pulp_created</text>
<polygon fill="none" stroke="black" points="153,-123 153,-145 258,-145 258,-123 153,-123"/>
<text text-anchor="start" x="156" y="-131.2" font-family="Helvetica,sans-Serif" font-size="11.00">timestamptz[35,6]</text>
<polygon fill="none" stroke="black" points="10,-101 10,-123 153,-123 153,-101 10,-101"/>
<text text-anchor="start" x="30" y="-109.2" font-family="Helvetica,sans-Serif" font-size="11.00">pulp_last_updated</text>
<polygon fill="none" stroke="black" points="153,-101 153,-123 258,-123 258,-101 153,-101"/>
<text text-anchor="start" x="156" y="-109.2" font-family="Helvetica,sans-Serif" font-size="11.00">timestamptz[35,6]</text>
<polygon fill="none" stroke="black" points="10,-79 10,-101 153,-101 153,-79 10,-79"/>
<text text-anchor="start" x="30" y="-87.2" font-family="Helvetica,sans-Serif" font-size="11.00">description</text>
<polygon fill="none" stroke="black" points="153,-79 153,-101 258,-101 258,-79 153,-79"/>
<text text-anchor="start" x="156" y="-87.2" font-family="Helvetica,sans-Serif" font-size="11.00">text[2147483647]</text>
<polygon fill="none" stroke="black" points="10,-57 10,-79 153,-79 153,-57 10,-57"/>
<text text-anchor="start" x="30" y="-65.2" font-family="Helvetica,sans-Serif" font-size="11.00">all_tasks_dispatched</text>
<polygon fill="none" stroke="black" points="153,-57 153,-79 258,-79 258,-57 153,-57"/>
<text text-anchor="start" x="156" y="-65.2" font-family="Helvetica,sans-Serif" font-size="11.00">bool[1]</text>
<polygon fill="#ffffff" stroke="none" points="10,-39 10,-57 68,-57 68,-39 10,-39"/>
<polygon fill="none" stroke="black" points="10,-39 10,-57 68,-57 68,-39 10,-39"/>
<text text-anchor="start" x="13" y="-45.2" font-family="Helvetica,sans-Serif" font-size="11.00">&lt; 0</text>
<polygon fill="#ffffff" stroke="none" points="68,-39 68,-57 153,-57 153,-39 68,-39"/>
<polygon fill="none" stroke="black" points="68,-39 68,-57 153,-57 153,-39 68,-39"/>
<text text-anchor="start" x="107" y="-45.2" font-family="Helvetica,sans-Serif" font-size="11.00">26 rows</text>
<polygon fill="#ffffff" stroke="none" points="153,-39 153,-57 258,-57 258,-39 153,-39"/>
<polygon fill="none" stroke="black" points="153,-39 153,-57 258,-57 258,-39 153,-39"/>
<text text-anchor="start" x="238" y="-45.2" font-family="Helvetica,sans-Serif" font-size="11.00">2 &gt;</text>
<polygon fill="none" stroke="black" stroke-width="2" points="9,-38 9,-190 259,-190 259,-38 9,-38"/>
</a>
</g>
</g>
<!-- core_task&#45;&gt;core_taskgroup -->
<g id="edge7" class="edge"><title>core_task:task_group_id:w&#45;&gt;core_taskgroup:pulp_id.type:e</title>
<path fill="none" stroke="black" d="M327.593,-245.346C291.595,-230.261 308.477,-156 259,-156"/>
<polygon fill="black" stroke="black" points="334.132,-246.551 341.348,-251.54 338.066,-247.275 342,-248 342,-248 342,-248 338.066,-247.275 342.652,-244.46 334.132,-246.551 334.132,-246.551"/>
<ellipse fill="none" stroke="black" cx="330.985" cy="-245.971" rx="3.2" ry="3.2"/>
</g>
<!-- core_worker -->
<g id="node9" class="node"><title>core_worker</title>
<g id="a_node9"><a xlink:href="../../tables/core_worker.html" xlink:title="core_worker" target="_top">
<polygon fill="#ffffff" stroke="none" points="75,-265 75,-323 193,-323 193,-265 75,-265"/>
<polygon fill="#f5f5f5" stroke="none" points="75,-301 75,-323 193,-323 193,-301 75,-301"/>
<polygon fill="none" stroke="black" points="75,-301 75,-323 193,-323 193,-301 75,-301"/>
<text text-anchor="start" x="80" y="-310.2" font-family="Helvetica,sans-Serif" font-weight="bold" font-size="11.00">core_worker</text>
<text text-anchor="start" x="154" y="-309.2" font-family="Helvetica,sans-Serif" font-size="11.00">[table]</text>
<polygon fill="none" stroke="black" points="75,-283 75,-301 193,-301 193,-283 75,-283"/>
<text text-anchor="start" x="78" y="-289.2" font-family="Helvetica,sans-Serif" font-size="11.00">...</text>
<polygon fill="#ffffff" stroke="none" points="75,-265 75,-283 101,-283 101,-265 75,-265"/>
<polygon fill="none" stroke="black" points="75,-265 75,-283 101,-283 101,-265 75,-265"/>
<text text-anchor="start" x="78" y="-271.2" font-family="Helvetica,sans-Serif" font-size="11.00"> &#160;</text>
<polygon fill="#ffffff" stroke="none" points="101,-265 101,-283 163,-283 163,-265 101,-265"/>
<polygon fill="none" stroke="black" points="101,-265 101,-283 163,-283 163,-265 101,-265"/>
<text text-anchor="start" x="111" y="-271.2" font-family="Helvetica,sans-Serif" font-size="11.00">148 rows</text>
<polygon fill="#ffffff" stroke="none" points="163,-265 163,-283 193,-283 193,-265 163,-265"/>
<polygon fill="none" stroke="black" points="163,-265 163,-283 193,-283 193,-265 163,-265"/>
<text text-anchor="start" x="173" y="-271.2" font-family="Helvetica,sans-Serif" font-size="11.00">2 &gt;</text>
</a>
</g>
</g>
<!-- core_task&#45;&gt;core_worker -->
<g id="edge8" class="edge"><title>core_task:worker_id:w&#45;&gt;core_worker:elipses:e</title>
<path fill="none" stroke="black" d="M327.44,-292C273.352,-292 254.639,-292 194,-292"/>
<polygon fill="black" stroke="black" points="334,-292 342,-295.6 338,-292 342,-292 342,-292 342,-292 338,-292 342,-288.4 334,-292 334,-292"/>
<ellipse fill="none" stroke="black" cx="330.8" cy="-292" rx="3.2" ry="3.2"/>
</g>
<!-- core_createdresource -->
<g id="node3" class="node"><title>core_createdresource</title>
<g id="a_node3"><a xlink:href="../../tables/core_createdresource.html" xlink:title="core_createdresource" target="_top">
<polygon fill="#ffffff" stroke="none" points="587.5,-445 587.5,-503 759.5,-503 759.5,-445 587.5,-445"/>
<polygon fill="#f5f5f5" stroke="none" points="587.5,-481 587.5,-503 759.5,-503 759.5,-481 587.5,-481"/>
<polygon fill="none" stroke="black" points="587.5,-481 587.5,-503 759.5,-503 759.5,-481 587.5,-481"/>
<text text-anchor="start" x="592.5" y="-490.2" font-family="Helvetica,sans-Serif" font-weight="bold" font-size="11.00">core_createdresource</text>
<text text-anchor="start" x="720.5" y="-489.2" font-family="Helvetica,sans-Serif" font-size="11.00">[table]</text>
<polygon fill="none" stroke="black" points="587.5,-463 587.5,-481 759.5,-481 759.5,-463 587.5,-463"/>
<text text-anchor="start" x="590.5" y="-469.2" font-family="Helvetica,sans-Serif" font-size="11.00">...</text>
<polygon fill="#ffffff" stroke="none" points="587.5,-445 587.5,-463 650.5,-463 650.5,-445 587.5,-445"/>
<polygon fill="none" stroke="black" points="587.5,-445 587.5,-463 650.5,-463 650.5,-445 587.5,-445"/>
<text text-anchor="start" x="590.5" y="-451.2" font-family="Helvetica,sans-Serif" font-size="11.00">&lt; 2</text>
<polygon fill="#ffffff" stroke="none" points="650.5,-445 650.5,-463 725.5,-463 725.5,-445 650.5,-445"/>
<polygon fill="none" stroke="black" points="650.5,-445 650.5,-463 725.5,-463 725.5,-445 650.5,-445"/>
<text text-anchor="start" x="673.5" y="-451.2" font-family="Helvetica,sans-Serif" font-size="11.00">365 rows</text>
<polygon fill="#ffffff" stroke="none" points="725.5,-445 725.5,-463 759.5,-463 759.5,-445 725.5,-445"/>
<polygon fill="none" stroke="black" points="725.5,-445 725.5,-463 759.5,-463 759.5,-445 725.5,-445"/>
<text text-anchor="start" x="749.5" y="-451.2" font-family="Helvetica,sans-Serif" font-size="11.00"> &#160;</text>
</a>
</g>
</g>
<!-- core_createdresource&#45;&gt;core_task -->
<g id="edge2" class="edge"><title>core_createdresource:elipses:w&#45;&gt;core_task:pulp_id:e</title>
<path fill="none" stroke="black" d="M571.927,-470.226C506.896,-452.867 554.059,-314 473,-314"/>
<polygon fill="black" stroke="black" points="578.559,-471.033 586.065,-475.574 582.529,-471.517 586.5,-472 586.5,-472 586.5,-472 582.529,-471.517 586.935,-468.426 578.559,-471.033 578.559,-471.033"/>
<ellipse fill="none" stroke="black" cx="575.382" cy="-470.646" rx="3.2" ry="3.2"/>
</g>
<!-- core_export -->
<g id="node4" class="node"><title>core_export</title>
<g id="a_node4"><a xlink:href="../../tables/core_export.html" xlink:title="core_export" target="_top">
<polygon fill="#ffffff" stroke="none" points="615.5,-366 615.5,-424 731.5,-424 731.5,-366 615.5,-366"/>
<polygon fill="#f5f5f5" stroke="none" points="615.5,-402 615.5,-424 731.5,-424 731.5,-402 615.5,-402"/>
<polygon fill="none" stroke="black" points="615.5,-402 615.5,-424 731.5,-424 731.5,-402 615.5,-402"/>
<text text-anchor="start" x="620.5" y="-411.2" font-family="Helvetica,sans-Serif" font-weight="bold" font-size="11.00">core_export</text>
<text text-anchor="start" x="692.5" y="-410.2" font-family="Helvetica,sans-Serif" font-size="11.00">[table]</text>
<polygon fill="none" stroke="black" points="615.5,-384 615.5,-402 731.5,-402 731.5,-384 615.5,-384"/>
<text text-anchor="start" x="618.5" y="-390.2" font-family="Helvetica,sans-Serif" font-size="11.00">...</text>
<polygon fill="#ffffff" stroke="none" points="615.5,-366 615.5,-384 652.5,-384 652.5,-366 615.5,-366"/>
<polygon fill="none" stroke="black" points="615.5,-366 615.5,-384 652.5,-384 652.5,-366 615.5,-366"/>
<text text-anchor="start" x="618.5" y="-372.2" font-family="Helvetica,sans-Serif" font-size="11.00">&lt; 2</text>
<polygon fill="#ffffff" stroke="none" points="652.5,-366 652.5,-384 701.5,-384 701.5,-366 652.5,-366"/>
<polygon fill="none" stroke="black" points="652.5,-366 652.5,-384 701.5,-384 701.5,-366 652.5,-366"/>
<text text-anchor="start" x="662.5" y="-372.2" font-family="Helvetica,sans-Serif" font-size="11.00">0 rows</text>
<polygon fill="#ffffff" stroke="none" points="701.5,-366 701.5,-384 731.5,-384 731.5,-366 701.5,-366"/>
<polygon fill="none" stroke="black" points="701.5,-366 701.5,-384 731.5,-384 731.5,-366 701.5,-366"/>
<text text-anchor="start" x="711.5" y="-372.2" font-family="Helvetica,sans-Serif" font-size="11.00">2 &gt;</text>
</a>
</g>
</g>
<!-- core_export&#45;&gt;core_task -->
<g id="edge3" class="edge"><title>core_export:elipses:w&#45;&gt;core_task:pulp_id:e</title>
<path fill="none" stroke="black" d="M599.997,-391.822C542.453,-381.995 539.821,-314 473,-314"/>
<polygon fill="black" stroke="black" points="606.526,-392.352 614.209,-396.588 610.513,-392.676 614.5,-393 614.5,-393 614.5,-393 610.513,-392.676 614.791,-389.412 606.526,-392.352 606.526,-392.352"/>
<ellipse fill="none" stroke="black" cx="603.337" cy="-392.093" rx="3.2" ry="3.2"/>
</g>
<!-- core_groupprogressreport -->
<g id="node5" class="node"><title>core_groupprogressreport</title>
<g id="a_node5"><a xlink:href="../../tables/core_groupprogressreport.html" xlink:title="core_groupprogressreport" target="_top">
<polygon fill="#ffffff" stroke="none" points="309,-56 309,-180 505,-180 505,-56 309,-56"/>
<polygon fill="#f5f5f5" stroke="none" points="309,-158 309,-180 505,-180 505,-158 309,-158"/>
<polygon fill="none" stroke="black" points="309,-158 309,-180 505,-180 505,-158 309,-158"/>
<text text-anchor="start" x="314" y="-167.2" font-family="Helvetica,sans-Serif" font-weight="bold" font-size="11.00">core_groupprogressreport</text>
<text text-anchor="start" x="466" y="-166.2" font-family="Helvetica,sans-Serif" font-size="11.00">[table]</text>
<polygon fill="none" stroke="black" points="309,-136 309,-158 505,-158 505,-136 309,-136"/>
<image xlink:href="../../images/primaryKeys.png" width="11px" height="12px" preserveAspectRatio="xMinYMin meet" x="314" y="-153"/>
<text text-anchor="start" x="339" y="-144.2" font-family="Helvetica,sans-Serif" font-size="11.00">pulp_id</text>
<polygon fill="#ffffff" stroke="none" points="309,-114 309,-136 505,-136 505,-114 309,-114"/>
<polygon fill="none" stroke="black" points="309,-114 309,-136 505,-136 505,-114 309,-114"/>
<text text-anchor="start" x="339" y="-122.2" font-family="Helvetica,sans-Serif" font-size="11.00">code</text>
<polygon fill="#ffffff" stroke="none" points="309,-92 309,-114 505,-114 505,-92 309,-92"/>
<polygon fill="none" stroke="black" points="309,-92 309,-114 505,-114 505,-92 309,-92"/>
<image xlink:href="../../images/foreignKeys.png" width="11px" height="12px" preserveAspectRatio="xMinYMin meet" x="314" y="-109"/>
<text text-anchor="start" x="339" y="-100.2" font-family="Helvetica,sans-Serif" font-size="11.00">task_group_id</text>
<polygon fill="none" stroke="black" points="309,-74 309,-92 505,-92 505,-74 309,-74"/>
<text text-anchor="start" x="312" y="-80.2" font-family="Helvetica,sans-Serif" font-size="11.00">...</text>
<polygon fill="#ffffff" stroke="none" points="309,-56 309,-74 387,-74 387,-56 309,-56"/>
<polygon fill="none" stroke="black" points="309,-56 309,-74 387,-74 387,-56 309,-56"/>
<text text-anchor="start" x="312" y="-62.2" font-family="Helvetica,sans-Serif" font-size="11.00">&lt; 1</text>
<polygon fill="#ffffff" stroke="none" points="387,-56 387,-74 464,-74 464,-56 387,-56"/>
<polygon fill="none" stroke="black" points="387,-56 387,-74 464,-74 464,-56 387,-56"/>
<text text-anchor="start" x="418" y="-62.2" font-family="Helvetica,sans-Serif" font-size="11.00">21 rows</text>
<polygon fill="#ffffff" stroke="none" points="464,-56 464,-74 505,-74 505,-56 464,-56"/>
<polygon fill="none" stroke="black" points="464,-56 464,-74 505,-74 505,-56 464,-56"/>
<text text-anchor="start" x="495" y="-62.2" font-family="Helvetica,sans-Serif" font-size="11.00"> &#160;</text>
</a>
</g>
</g>
<!-- core_groupprogressreport&#45;&gt;core_taskgroup -->
<g id="edge4" class="edge"><title>core_groupprogressreport:task_group_id:w&#45;&gt;core_taskgroup:pulp_id.type:e</title>
<path fill="none" stroke="black" d="M294.315,-107.891C279.944,-121.012 285.065,-156 259,-156"/>
<polygon fill="black" stroke="black" points="300.467,-105.692 309.212,-106.39 304.233,-104.346 308,-103 308,-103 308,-103 304.233,-104.346 306.788,-99.61 300.467,-105.692 300.467,-105.692"/>
<ellipse fill="none" stroke="black" cx="297.453" cy="-106.769" rx="3.20001" ry="3.20001"/>
</g>
<!-- core_import -->
<g id="node7" class="node"><title>core_import</title>
<g id="a_node7"><a xlink:href="../../tables/core_import.html" xlink:title="core_import" target="_top">
<polygon fill="#ffffff" stroke="none" points="614.5,-287 614.5,-345 732.5,-345 732.5,-287 614.5,-287"/>
<polygon fill="#f5f5f5" stroke="none" points="614.5,-323 614.5,-345 732.5,-345 732.5,-323 614.5,-323"/>
<polygon fill="none" stroke="black" points="614.5,-323 614.5,-345 732.5,-345 732.5,-323 614.5,-323"/>
<text text-anchor="start" x="619.5" y="-332.2" font-family="Helvetica,sans-Serif" font-weight="bold" font-size="11.00">core_import</text>
<text text-anchor="start" x="693.5" y="-331.2" font-family="Helvetica,sans-Serif" font-size="11.00">[table]</text>
<polygon fill="none" stroke="black" points="614.5,-305 614.5,-323 732.5,-323 732.5,-305 614.5,-305"/>
<text text-anchor="start" x="617.5" y="-311.2" font-family="Helvetica,sans-Serif" font-size="11.00">...</text>
<polygon fill="#ffffff" stroke="none" points="614.5,-287 614.5,-305 652.5,-305 652.5,-287 614.5,-287"/>
<polygon fill="none" stroke="black" points="614.5,-287 614.5,-305 652.5,-305 652.5,-287 614.5,-287"/>
<text text-anchor="start" x="617.5" y="-293.2" font-family="Helvetica,sans-Serif" font-size="11.00">&lt; 2</text>
<polygon fill="#ffffff" stroke="none" points="652.5,-287 652.5,-305 701.5,-305 701.5,-287 652.5,-287"/>
<polygon fill="none" stroke="black" points="652.5,-287 652.5,-305 701.5,-305 701.5,-287 652.5,-287"/>
<text text-anchor="start" x="662.5" y="-293.2" font-family="Helvetica,sans-Serif" font-size="11.00">0 rows</text>
<polygon fill="#ffffff" stroke="none" points="701.5,-287 701.5,-305 732.5,-305 732.5,-287 701.5,-287"/>
<polygon fill="none" stroke="black" points="701.5,-287 701.5,-305 732.5,-305 732.5,-287 701.5,-287"/>
<text text-anchor="start" x="712.5" y="-293.2" font-family="Helvetica,sans-Serif" font-size="11.00">1 &gt;</text>
</a>
</g>
</g>
<!-- core_import&#45;&gt;core_task -->
<g id="edge5" class="edge"><title>core_import:elipses:w&#45;&gt;core_task:pulp_id:e</title>
<path fill="none" stroke="black" d="M599.027,-314C548.179,-314 530.322,-314 473,-314"/>
<polygon fill="black" stroke="black" points="605.5,-314 613.5,-317.6 609.5,-314 613.5,-314 613.5,-314 613.5,-314 609.5,-314 613.5,-310.4 605.5,-314 605.5,-314"/>
<ellipse fill="none" stroke="black" cx="602.3" cy="-314" rx="3.2" ry="3.2"/>
</g>
<!-- core_progressreport -->
<g id="node8" class="node"><title>core_progressreport</title>
<g id="a_node8"><a xlink:href="../../tables/core_progressreport.html" xlink:title="core_progressreport" target="_top">
<polygon fill="#ffffff" stroke="none" points="592,-208 592,-266 755,-266 755,-208 592,-208"/>
<polygon fill="#f5f5f5" stroke="none" points="592.5,-244 592.5,-266 755.5,-266 755.5,-244 592.5,-244"/>
<polygon fill="none" stroke="black" points="592.5,-244 592.5,-266 755.5,-266 755.5,-244 592.5,-244"/>
<text text-anchor="start" x="597.5" y="-253.2" font-family="Helvetica,sans-Serif" font-weight="bold" font-size="11.00">core_progressreport</text>
<text text-anchor="start" x="716.5" y="-252.2" font-family="Helvetica,sans-Serif" font-size="11.00">[table]</text>
<polygon fill="none" stroke="black" points="592.5,-226 592.5,-244 755.5,-244 755.5,-226 592.5,-226"/>
<text text-anchor="start" x="595.5" y="-232.2" font-family="Helvetica,sans-Serif" font-size="11.00">...</text>
<polygon fill="#ffffff" stroke="none" points="592.5,-208 592.5,-226 654.5,-226 654.5,-208 592.5,-208"/>
<polygon fill="none" stroke="black" points="592.5,-208 592.5,-226 654.5,-226 654.5,-208 592.5,-208"/>
<text text-anchor="start" x="595.5" y="-214.2" font-family="Helvetica,sans-Serif" font-size="11.00">&lt; 1</text>
<polygon fill="#ffffff" stroke="none" points="654.5,-208 654.5,-226 722.5,-226 722.5,-208 654.5,-208"/>
<polygon fill="none" stroke="black" points="654.5,-208 654.5,-226 722.5,-226 722.5,-208 654.5,-208"/>
<text text-anchor="start" x="676.5" y="-214.2" font-family="Helvetica,sans-Serif" font-size="11.00">53 rows</text>
<polygon fill="#ffffff" stroke="none" points="722.5,-208 722.5,-226 755.5,-226 755.5,-208 722.5,-208"/>
<polygon fill="none" stroke="black" points="722.5,-208 722.5,-226 755.5,-226 755.5,-208 722.5,-208"/>
<text text-anchor="start" x="745.5" y="-214.2" font-family="Helvetica,sans-Serif" font-size="11.00"> &#160;</text>
</a>
</g>
</g>
<!-- core_progressreport&#45;&gt;core_task -->
<g id="edge6" class="edge"><title>core_progressreport:elipses:w&#45;&gt;core_task:pulp_id:e</title>
<path fill="none" stroke="black" d="M576.978,-236.578C529.059,-247.712 530.981,-314 473,-314"/>
<polygon fill="black" stroke="black" points="583.547,-235.864 591.889,-238.579 587.523,-235.432 591.5,-235 591.5,-235 591.5,-235 587.523,-235.432 591.111,-231.421 583.547,-235.864 583.547,-235.864"/>
<ellipse fill="none" stroke="black" cx="580.366" cy="-236.21" rx="3.2" ry="3.2"/>
</g>
<!-- core_taskreservedresource -->
<g id="node10" class="node"><title>core_taskreservedresource</title>
<g id="a_node10"><a xlink:href="../../tables/core_taskreservedresource.html" xlink:title="core_taskreservedresource" target="_top">
<polygon fill="#ffffff" stroke="none" points="572.5,-129 572.5,-187 774.5,-187 774.5,-129 572.5,-129"/>
<polygon fill="#f5f5f5" stroke="none" points="572.5,-165 572.5,-187 774.5,-187 774.5,-165 572.5,-165"/>
<polygon fill="none" stroke="black" points="572.5,-165 572.5,-187 774.5,-187 774.5,-165 572.5,-165"/>
<text text-anchor="start" x="577.5" y="-174.2" font-family="Helvetica,sans-Serif" font-weight="bold" font-size="11.00">core_taskreservedresource</text>
<text text-anchor="start" x="735.5" y="-173.2" font-family="Helvetica,sans-Serif" font-size="11.00">[table]</text>
<polygon fill="none" stroke="black" points="572.5,-147 572.5,-165 774.5,-165 774.5,-147 572.5,-147"/>
<text text-anchor="start" x="575.5" y="-153.2" font-family="Helvetica,sans-Serif" font-size="11.00">...</text>
<polygon fill="#ffffff" stroke="none" points="572.5,-129 572.5,-147 657.5,-147 657.5,-129 572.5,-129"/>
<polygon fill="none" stroke="black" points="572.5,-129 572.5,-147 657.5,-147 657.5,-129 572.5,-129"/>
<text text-anchor="start" x="575.5" y="-135.2" font-family="Helvetica,sans-Serif" font-size="11.00">&lt; 2</text>
<polygon fill="#ffffff" stroke="none" points="657.5,-129 657.5,-147 730.5,-147 730.5,-129 657.5,-129"/>
<polygon fill="none" stroke="black" points="657.5,-129 657.5,-147 730.5,-147 730.5,-129 657.5,-129"/>
<text text-anchor="start" x="691.5" y="-135.2" font-family="Helvetica,sans-Serif" font-size="11.00">0 rows</text>
<polygon fill="#ffffff" stroke="none" points="730.5,-129 730.5,-147 774.5,-147 774.5,-129 730.5,-129"/>
<polygon fill="none" stroke="black" points="730.5,-129 730.5,-147 774.5,-147 774.5,-129 730.5,-129"/>
<text text-anchor="start" x="764.5" y="-135.2" font-family="Helvetica,sans-Serif" font-size="11.00"> &#160;</text>
</a>
</g>
</g>
<!-- core_taskreservedresource&#45;&gt;core_task -->
<g id="edge9" class="edge"><title>core_taskreservedresource:elipses:w&#45;&gt;core_task:pulp_id:e</title>
<path fill="none" stroke="black" d="M556.908,-157.998C496.988,-176.288 550.255,-314 473,-314"/>
<polygon fill="black" stroke="black" points="563.574,-157.085 571.988,-159.567 567.537,-156.543 571.5,-156 571.5,-156 571.5,-156 567.537,-156.543 571.012,-152.433 563.574,-157.085 563.574,-157.085"/>
<ellipse fill="none" stroke="black" cx="560.404" cy="-157.519" rx="3.2" ry="3.2"/>
</g>
<!-- core_taskreservedresourcerecord -->
<g id="node11" class="node"><title>core_taskreservedresourcerecord</title>
<g id="a_node11"><a xlink:href="../../tables/core_taskreservedresourcerecord.html" xlink:title="core_taskreservedresourcerecord" target="_top">
<polygon fill="#ffffff" stroke="none" points="554,-50 554,-108 793,-108 793,-50 554,-50"/>
<polygon fill="#f5f5f5" stroke="none" points="554.5,-86 554.5,-108 793.5,-108 793.5,-86 554.5,-86"/>
<polygon fill="none" stroke="black" points="554.5,-86 554.5,-108 793.5,-108 793.5,-86 554.5,-86"/>
<text text-anchor="start" x="559.5" y="-95.2" font-family="Helvetica,sans-Serif" font-weight="bold" font-size="11.00">core_taskreservedresourcerecord</text>
<text text-anchor="start" x="754.5" y="-94.2" font-family="Helvetica,sans-Serif" font-size="11.00">[table]</text>
<polygon fill="none" stroke="black" points="554.5,-68 554.5,-86 793.5,-86 793.5,-68 554.5,-68"/>
<text text-anchor="start" x="557.5" y="-74.2" font-family="Helvetica,sans-Serif" font-size="11.00">...</text>
<polygon fill="#ffffff" stroke="none" points="554.5,-50 554.5,-68 646.5,-68 646.5,-50 554.5,-50"/>
<polygon fill="none" stroke="black" points="554.5,-50 554.5,-68 646.5,-68 646.5,-50 554.5,-50"/>
<text text-anchor="start" x="557.5" y="-56.2" font-family="Helvetica,sans-Serif" font-size="11.00">&lt; 2</text>
<polygon fill="#ffffff" stroke="none" points="646.5,-50 646.5,-68 745.5,-68 745.5,-50 646.5,-50"/>
<polygon fill="none" stroke="black" points="646.5,-50 646.5,-68 745.5,-68 745.5,-50 646.5,-50"/>
<text text-anchor="start" x="683.5" y="-56.2" font-family="Helvetica,sans-Serif" font-size="11.00">1,937 rows</text>
<polygon fill="#ffffff" stroke="none" points="745.5,-50 745.5,-68 793.5,-68 793.5,-50 745.5,-50"/>
<polygon fill="none" stroke="black" points="745.5,-50 745.5,-68 793.5,-68 793.5,-50 745.5,-50"/>
<text text-anchor="start" x="783.5" y="-56.2" font-family="Helvetica,sans-Serif" font-size="11.00"> &#160;</text>
</a>
</g>
</g>
<!-- core_taskreservedresourcerecord&#45;&gt;core_task -->
<g id="edge10" class="edge"><title>core_taskreservedresourcerecord:elipses:w&#45;&gt;core_task:pulp_id:e</title>
<path fill="none" stroke="black" d="M539.991,-82.8585C502.884,-119.354 523.407,-314 473,-314"/>
<polygon fill="black" stroke="black" points="546.16,-80.183 554.932,-80.3028 549.83,-78.5915 553.5,-77 553.5,-77 553.5,-77 549.83,-78.5915 552.068,-73.6972 546.16,-80.183 546.16,-80.183"/>
<ellipse fill="none" stroke="black" cx="543.225" cy="-81.4562" rx="3.20001" ry="3.20001"/>
</g>
</g>
</svg>
