<?xml version="1.0" encoding="UTF-8" standalone="no"?>
<!DOCTYPE svg PUBLIC "-//W3C//DTD SVG 1.1//EN"
 "http://www.w3.org/Graphics/SVG/1.1/DTD/svg11.dtd">
<!-- Generated by graphviz version 2.38.0 (20140413.2041)
 -->
<!-- Title: twoDegreesRelationshipsDiagram Pages: 1 -->
<svg width="969pt" height="595pt"
 viewBox="0.00 0.00 969.00 595.00" xmlns="http://www.w3.org/2000/svg" xmlns:xlink="http://www.w3.org/1999/xlink">
<g id="graph0" class="graph" transform="scale(1 1) rotate(0) translate(4 591)">
<title>twoDegreesRelationshipsDiagram</title>
<polygon fill="#ffffff" stroke="none" points="-4,4 -4,-591 965,-591 965,4 -4,4"/>
<text text-anchor="middle" x="74.5" y="-7.2" font-family="Helvetica,sans-Serif" font-size="11.00">Generated by SchemaSpy</text>
<!-- auth_permission -->
<g id="node1" class="node"><title>auth_permission</title>
<g id="a_node1"><a xlink:href="../../tables/auth_permission.html" xlink:title="auth_permission" target="_top">
<polygon fill="#ffffff" stroke="none" points="463,-222 463,-280 606,-280 606,-222 463,-222"/>
<polygon fill="#f5f5f5" stroke="none" points="463.5,-258 463.5,-280 606.5,-280 606.5,-258 463.5,-258"/>
<polygon fill="none" stroke="black" points="463.5,-258 463.5,-280 606.5,-280 606.5,-258 463.5,-258"/>
<text text-anchor="start" x="468.5" y="-267.2" font-family="Helvetica,sans-Serif" font-weight="bold" font-size="11.00">auth_permission</text>
<text text-anchor="start" x="567.5" y="-266.2" font-family="Helvetica,sans-Serif" font-size="11.00">[table]</text>
<polygon fill="none" stroke="black" points="463.5,-240 463.5,-258 606.5,-258 606.5,-240 463.5,-240"/>
<text text-anchor="start" x="466.5" y="-246.2" font-family="Helvetica,sans-Serif" font-size="11.00">...</text>
<polygon fill="#ffffff" stroke="none" points="463.5,-222 463.5,-240 507.5,-240 507.5,-222 463.5,-222"/>
<polygon fill="none" stroke="black" points="463.5,-222 463.5,-240 507.5,-240 507.5,-222 463.5,-222"/>
<text text-anchor="start" x="466.5" y="-228.2" font-family="Helvetica,sans-Serif" font-size="11.00">&lt; 1</text>
<polygon fill="#ffffff" stroke="none" points="507.5,-222 507.5,-240 572.5,-240 572.5,-222 507.5,-222"/>
<polygon fill="none" stroke="black" points="507.5,-222 507.5,-240 572.5,-240 572.5,-222 507.5,-222"/>
<text text-anchor="start" x="520.5" y="-228.2" font-family="Helvetica,sans-Serif" font-size="11.00">322 rows</text>
<polygon fill="#ffffff" stroke="none" points="572.5,-222 572.5,-240 606.5,-240 606.5,-222 572.5,-222"/>
<polygon fill="none" stroke="black" points="572.5,-222 572.5,-240 606.5,-240 606.5,-222 572.5,-222"/>
<text text-anchor="start" x="586.5" y="-228.2" font-family="Helvetica,sans-Serif" font-size="11.00">4 &gt;</text>
</a>
</g>
</g>
<!-- django_content_type -->
<g id="node2" class="node"><title>django_content_type</title>
<g id="a_node2"><a xlink:href="../../tables/django_content_type.html" xlink:title="django_content_type" target="_top">
<polygon fill="#ffffff" stroke="none" points="185,-128 185,-234 352,-234 352,-128 185,-128"/>
<polygon fill="#f5f5f5" stroke="none" points="185.5,-212 185.5,-234 352.5,-234 352.5,-212 185.5,-212"/>
<polygon fill="none" stroke="black" points="185.5,-212 185.5,-234 352.5,-234 352.5,-212 185.5,-212"/>
<text text-anchor="start" x="190.5" y="-221.2" font-family="Helvetica,sans-Serif" font-weight="bold" font-size="11.00">django_content_type</text>
<text text-anchor="start" x="313.5" y="-220.2" font-family="Helvetica,sans-Serif" font-size="11.00">[table]</text>
<polygon fill="none" stroke="black" points="185.5,-190 185.5,-212 352.5,-212 352.5,-190 185.5,-190"/>
<image xlink:href="../../images/primaryKeys.png" width="11px" height="12px" preserveAspectRatio="xMinYMin meet" x="190.5" y="-207"/>
<text text-anchor="start" x="216.5" y="-198.2" font-family="Helvetica,sans-Serif" font-size="11.00">id</text>
<polygon fill="#ffffff" stroke="none" points="185.5,-168 185.5,-190 352.5,-190 352.5,-168 185.5,-168"/>
<polygon fill="none" stroke="black" points="185.5,-168 185.5,-190 352.5,-190 352.5,-168 185.5,-168"/>
<text text-anchor="start" x="216.5" y="-176.2" font-family="Helvetica,sans-Serif" font-size="11.00">app_label</text>
<polygon fill="#ffffff" stroke="none" points="185.5,-146 185.5,-168 352.5,-168 352.5,-146 185.5,-146"/>
<polygon fill="none" stroke="black" points="185.5,-146 185.5,-168 352.5,-168 352.5,-146 185.5,-146"/>
<text text-anchor="start" x="216.5" y="-154.2" font-family="Helvetica,sans-Serif" font-size="11.00">model</text>
<polygon fill="#ffffff" stroke="none" points="185.5,-128 185.5,-146 239.5,-146 239.5,-128 185.5,-128"/>
<polygon fill="none" stroke="black" points="185.5,-128 185.5,-146 239.5,-146 239.5,-128 185.5,-128"/>
<text text-anchor="start" x="188.5" y="-134.2" font-family="Helvetica,sans-Serif" font-size="11.00"> &#160;</text>
<polygon fill="#ffffff" stroke="none" points="239.5,-128 239.5,-146 308.5,-146 308.5,-128 239.5,-128"/>
<polygon fill="none" stroke="black" points="239.5,-128 239.5,-146 308.5,-146 308.5,-128 239.5,-128"/>
<text text-anchor="start" x="262.5" y="-134.2" font-family="Helvetica,sans-Serif" font-size="11.00">79 rows</text>
<polygon fill="#ffffff" stroke="none" points="308.5,-128 308.5,-146 352.5,-146 352.5,-128 308.5,-128"/>
<polygon fill="none" stroke="black" points="308.5,-128 308.5,-146 352.5,-146 352.5,-128 308.5,-128"/>
<text text-anchor="start" x="332.5" y="-134.2" font-family="Helvetica,sans-Serif" font-size="11.00">6 &gt;</text>
</a>
</g>
</g>
<!-- auth_permission&#45;&gt;django_content_type -->
<g id="edge1" class="edge"><title>auth_permission:elipses:w&#45;&gt;django_content_type:id:e</title>
<path fill="none" stroke="black" d="M448.066,-247.666C408.448,-239.914 401.161,-201 353.5,-201"/>
<polygon fill="black" stroke="black" points="454.534,-248.264 462.169,-252.585 458.517,-248.632 462.5,-249 462.5,-249 462.5,-249 458.517,-248.632 462.831,-245.415 454.534,-248.264 454.534,-248.264"/>
<ellipse fill="none" stroke="black" cx="451.348" cy="-247.969" rx="3.2" ry="3.2"/>
</g>
<!-- core_createdresource -->
<g id="node3" class="node"><title>core_createdresource</title>
<g id="a_node3"><a xlink:href="../../tables/core_createdresource.html" xlink:title="core_createdresource" target="_top">
<polygon fill="#ffffff" stroke="none" points="448.5,-37 448.5,-95 620.5,-95 620.5,-37 448.5,-37"/>
<polygon fill="#f5f5f5" stroke="none" points="448.5,-73 448.5,-95 620.5,-95 620.5,-73 448.5,-73"/>
<polygon fill="none" stroke="black" points="448.5,-73 448.5,-95 620.5,-95 620.5,-73 448.5,-73"/>
<text text-anchor="start" x="453.5" y="-82.2" font-family="Helvetica,sans-Serif" font-weight="bold" font-size="11.00">core_createdresource</text>
<text text-anchor="start" x="581.5" y="-81.2" font-family="Helvetica,sans-Serif" font-size="11.00">[table]</text>
<polygon fill="none" stroke="black" points="448.5,-55 448.5,-73 620.5,-73 620.5,-55 448.5,-55"/>
<text text-anchor="start" x="451.5" y="-61.2" font-family="Helvetica,sans-Serif" font-size="11.00">...</text>
<polygon fill="#ffffff" stroke="none" points="448.5,-37 448.5,-55 511.5,-55 511.5,-37 448.5,-37"/>
<polygon fill="none" stroke="black" points="448.5,-37 448.5,-55 511.5,-55 511.5,-37 448.5,-37"/>
<text text-anchor="start" x="451.5" y="-43.2" font-family="Helvetica,sans-Serif" font-size="11.00">&lt; 2</text>
<polygon fill="#ffffff" stroke="none" points="511.5,-37 511.5,-55 586.5,-55 586.5,-37 511.5,-37"/>
<polygon fill="none" stroke="black" points="511.5,-37 511.5,-55 586.5,-55 586.5,-37 511.5,-37"/>
<text text-anchor="start" x="534.5" y="-43.2" font-family="Helvetica,sans-Serif" font-size="11.00">365 rows</text>
<polygon fill="#ffffff" stroke="none" points="586.5,-37 586.5,-55 620.5,-55 620.5,-37 586.5,-37"/>
<polygon fill="none" stroke="black" points="586.5,-37 586.5,-55 620.5,-55 620.5,-37 586.5,-37"/>
<text text-anchor="start" x="610.5" y="-43.2" font-family="Helvetica,sans-Serif" font-size="11.00"> &#160;</text>
</a>
</g>
</g>
<!-- core_createdresource&#45;&gt;django_content_type -->
<g id="edge2" class="edge"><title>core_createdresource:elipses:w&#45;&gt;django_content_type:id:e</title>
<path fill="none" stroke="black" d="M432.956,-65.8393C414.089,-71.3083 408.452,-88.3791 393,-109 366.316,-144.61 397.998,-201 353.5,-201"/>
<polygon fill="black" stroke="black" points="439.563,-65.0037 447.952,-67.5716 443.532,-64.5019 447.5,-64 447.5,-64 447.5,-64 443.532,-64.5019 447.048,-60.4284 439.563,-65.0037 439.563,-65.0037"/>
<ellipse fill="none" stroke="black" cx="436.388" cy="-65.4052" rx="3.2" ry="3.2"/>
</g>
<!-- core_task -->
<g id="node4" class="node"><title>core_task</title>
<g id="a_node4"><a xlink:href="../../tables/core_task.html" xlink:title="core_task" target="_top">
<polygon fill="#ffffff" stroke="none" points="16.5,-141 16.5,-199 127.5,-199 127.5,-141 16.5,-141"/>
<polygon fill="#f5f5f5" stroke="none" points="17,-177 17,-199 128,-199 128,-177 17,-177"/>
<polygon fill="none" stroke="black" points="17,-177 17,-199 128,-199 128,-177 17,-177"/>
<text text-anchor="start" x="22" y="-186.2" font-family="Helvetica,sans-Serif" font-weight="bold" font-size="11.00">core_task</text>
<text text-anchor="start" x="89" y="-185.2" font-family="Helvetica,sans-Serif" font-size="11.00">[table]</text>
<polygon fill="none" stroke="black" points="17,-159 17,-177 128,-177 128,-159 17,-159"/>
<text text-anchor="start" x="20" y="-165.2" font-family="Helvetica,sans-Serif" font-size="11.00">...</text>
<polygon fill="#ffffff" stroke="none" points="17,-141 17,-159 40,-159 40,-141 17,-141"/>
<polygon fill="none" stroke="black" points="17,-141 17,-159 40,-159 40,-141 17,-141"/>
<text text-anchor="start" x="20" y="-147.2" font-family="Helvetica,sans-Serif" font-size="11.00">&lt; 3</text>
<polygon fill="#ffffff" stroke="none" points="40,-141 40,-159 105,-159 105,-141 40,-141"/>
<polygon fill="none" stroke="black" points="40,-141 40,-159 105,-159 105,-141 40,-141"/>
<text text-anchor="start" x="43" y="-147.2" font-family="Helvetica,sans-Serif" font-size="11.00">1,828 rows</text>
<polygon fill="#ffffff" stroke="none" points="105,-141 105,-159 128,-159 128,-141 105,-141"/>
<polygon fill="none" stroke="black" points="105,-141 105,-159 128,-159 128,-141 105,-141"/>
<text text-anchor="start" x="108" y="-147.2" font-family="Helvetica,sans-Serif" font-size="11.00">8 &gt;</text>
</a>
</g>
</g>
<!-- core_createdresource&#45;&gt;core_task -->
<g id="edge3" class="edge"><title>core_createdresource:elipses:w&#45;&gt;core_task:elipses:e</title>
<path fill="none" stroke="black" d="M432.82,-63.9799C321.478,-63.7032 280.094,-61.4892 177,-118 149.987,-132.807 159.805,-168 129,-168"/>
<polygon fill="black" stroke="black" points="439.5,-63.989 447.495,-67.6 443.5,-63.9945 447.5,-64 447.5,-64 447.5,-64 443.5,-63.9945 447.505,-60.4 439.5,-63.989 439.5,-63.989"/>
<ellipse fill="none" stroke="black" cx="436.3" cy="-63.9846" rx="3.2" ry="3.2"/>
</g>
<!-- core_export -->
<g id="node5" class="node"><title>core_export</title>
<g id="a_node5"><a xlink:href="../../tables/core_export.html" xlink:title="core_export" target="_top">
<polygon fill="#ffffff" stroke="none" points="204,-268 204,-392 333,-392 333,-268 204,-268"/>
<polygon fill="#f5f5f5" stroke="none" points="204.5,-370 204.5,-392 333.5,-392 333.5,-370 204.5,-370"/>
<polygon fill="none" stroke="black" points="204.5,-370 204.5,-392 333.5,-392 333.5,-370 204.5,-370"/>
<text text-anchor="start" x="209.5" y="-379.2" font-family="Helvetica,sans-Serif" font-weight="bold" font-size="11.00">core_export</text>
<text text-anchor="start" x="294.5" y="-378.2" font-family="Helvetica,sans-Serif" font-size="11.00">[table]</text>
<polygon fill="none" stroke="black" points="204.5,-348 204.5,-370 333.5,-370 333.5,-348 204.5,-348"/>
<image xlink:href="../../images/primaryKeys.png" width="11px" height="12px" preserveAspectRatio="xMinYMin meet" x="209.5" y="-365"/>
<text text-anchor="start" x="224.5" y="-356.2" font-family="Helvetica,sans-Serif" font-size="11.00">pulp_id</text>
<polygon fill="#ffffff" stroke="none" points="204.5,-326 204.5,-348 333.5,-348 333.5,-326 204.5,-326"/>
<polygon fill="none" stroke="black" points="204.5,-326 204.5,-348 333.5,-348 333.5,-326 204.5,-326"/>
<image xlink:href="../../images/foreignKeys.png" width="11px" height="12px" preserveAspectRatio="xMinYMin meet" x="209.5" y="-343"/>
<text text-anchor="start" x="224.5" y="-334.2" font-family="Helvetica,sans-Serif" font-size="11.00">exporter_id</text>
<polygon fill="#ffffff" stroke="none" points="204.5,-304 204.5,-326 333.5,-326 333.5,-304 204.5,-304"/>
<polygon fill="none" stroke="black" points="204.5,-304 204.5,-326 333.5,-326 333.5,-304 204.5,-304"/>
<image xlink:href="../../images/foreignKeys.png" width="11px" height="12px" preserveAspectRatio="xMinYMin meet" x="209.5" y="-321"/>
<text text-anchor="start" x="224.5" y="-312.2" font-family="Helvetica,sans-Serif" font-size="11.00">task_id</text>
<polygon fill="none" stroke="black" points="204.5,-286 204.5,-304 333.5,-304 333.5,-286 204.5,-286"/>
<text text-anchor="start" x="207.5" y="-292.2" font-family="Helvetica,sans-Serif" font-size="11.00">...</text>
<polygon fill="#ffffff" stroke="none" points="204.5,-268 204.5,-286 247.5,-286 247.5,-268 204.5,-268"/>
<polygon fill="none" stroke="black" points="204.5,-268 204.5,-286 247.5,-286 247.5,-268 204.5,-268"/>
<text text-anchor="start" x="207.5" y="-274.2" font-family="Helvetica,sans-Serif" font-size="11.00">&lt; 2</text>
<polygon fill="#ffffff" stroke="none" points="247.5,-268 247.5,-286 299.5,-286 299.5,-268 247.5,-268"/>
<polygon fill="none" stroke="black" points="247.5,-268 247.5,-286 299.5,-286 299.5,-268 247.5,-268"/>
<text text-anchor="start" x="260.5" y="-274.2" font-family="Helvetica,sans-Serif" font-size="11.00">0 rows</text>
<polygon fill="#ffffff" stroke="none" points="299.5,-268 299.5,-286 333.5,-286 333.5,-268 299.5,-268"/>
<polygon fill="none" stroke="black" points="299.5,-268 299.5,-286 333.5,-286 333.5,-268 299.5,-268"/>
<text text-anchor="start" x="313.5" y="-274.2" font-family="Helvetica,sans-Serif" font-size="11.00">2 &gt;</text>
</a>
</g>
</g>
<!-- core_export&#45;&gt;core_task -->
<g id="edge5" class="edge"><title>core_export:task_id:w&#45;&gt;core_task:elipses:e</title>
<path fill="none" stroke="black" d="M189.162,-312.571C140.38,-293.458 196.666,-168 129,-168"/>
<polygon fill="black" stroke="black" points="195.612,-313.664 202.899,-318.549 199.556,-314.332 203.5,-315 203.5,-315 203.5,-315 199.556,-314.332 204.101,-311.451 195.612,-313.664 195.612,-313.664"/>
<ellipse fill="none" stroke="black" cx="192.457" cy="-313.129" rx="3.2" ry="3.2"/>
</g>
<!-- core_exporter -->
<g id="node6" class="node"><title>core_exporter</title>
<g id="a_node6"><a xlink:href="../../tables/core_exporter.html" xlink:title="core_exporter" target="_top">
<polygon fill="#ffffff" stroke="none" points="8,-310 8,-368 136,-368 136,-310 8,-310"/>
<polygon fill="#f5f5f5" stroke="none" points="8,-346 8,-368 136,-368 136,-346 8,-346"/>
<polygon fill="none" stroke="black" points="8,-346 8,-368 136,-368 136,-346 8,-346"/>
<text text-anchor="start" x="13" y="-355.2" font-family="Helvetica,sans-Serif" font-weight="bold" font-size="11.00">core_exporter</text>
<text text-anchor="start" x="97" y="-354.2" font-family="Helvetica,sans-Serif" font-size="11.00">[table]</text>
<polygon fill="none" stroke="black" points="8,-328 8,-346 136,-346 136,-328 8,-328"/>
<text text-anchor="start" x="11" y="-334.2" font-family="Helvetica,sans-Serif" font-size="11.00">...</text>
<polygon fill="#ffffff" stroke="none" points="8,-310 8,-328 46,-328 46,-310 8,-310"/>
<polygon fill="none" stroke="black" points="8,-310 8,-328 46,-328 46,-310 8,-310"/>
<text text-anchor="start" x="11" y="-316.2" font-family="Helvetica,sans-Serif" font-size="11.00"> &#160;</text>
<polygon fill="#ffffff" stroke="none" points="46,-310 46,-328 100,-328 100,-310 46,-310"/>
<polygon fill="none" stroke="black" points="46,-310 46,-328 100,-328 100,-310 46,-310"/>
<text text-anchor="start" x="61" y="-316.2" font-family="Helvetica,sans-Serif" font-size="11.00">0 rows</text>
<polygon fill="#ffffff" stroke="none" points="100,-310 100,-328 136,-328 136,-310 100,-310"/>
<polygon fill="none" stroke="black" points="100,-310 100,-328 136,-328 136,-310 100,-310"/>
<text text-anchor="start" x="116" y="-316.2" font-family="Helvetica,sans-Serif" font-size="11.00">2 &gt;</text>
</a>
</g>
</g>
<!-- core_export&#45;&gt;core_exporter -->
<g id="edge4" class="edge"><title>core_export:exporter_id:w&#45;&gt;core_exporter:elipses:e</title>
<path fill="none" stroke="black" d="M188.921,-337C170.394,-337 161.014,-337 137,-337"/>
<polygon fill="black" stroke="black" points="195.5,-337 203.5,-340.6 199.5,-337 203.5,-337 203.5,-337 203.5,-337 199.5,-337 203.5,-333.4 195.5,-337 195.5,-337"/>
<ellipse fill="none" stroke="black" cx="192.3" cy="-337" rx="3.2" ry="3.2"/>
</g>
<!-- core_exportedresource -->
<g id="node7" class="node"><title>core_exportedresource</title>
<g id="a_node7"><a xlink:href="../../tables/core_exportedresource.html" xlink:title="core_exportedresource" target="_top">
<polygon fill="#ffffff" stroke="none" points="401,-328 401,-504 668,-504 668,-328 401,-328"/>
<polygon fill="#f5f5f5" stroke="none" points="403.5,-480 403.5,-502 666.5,-502 666.5,-480 403.5,-480"/>
<polygon fill="none" stroke="black" points="403.5,-480 403.5,-502 666.5,-502 666.5,-480 403.5,-480"/>
<text text-anchor="start" x="408.5" y="-489.2" font-family="Helvetica,sans-Serif" font-weight="bold" font-size="11.00">core_exportedresource</text>
<text text-anchor="start" x="627.5" y="-488.2" font-family="Helvetica,sans-Serif" font-size="11.00">[table]</text>
<polygon fill="none" stroke="black" points="403.5,-458 403.5,-480 561.5,-480 561.5,-458 403.5,-458"/>
<image xlink:href="../../images/primaryKeys.png" width="11px" height="12px" preserveAspectRatio="xMinYMin meet" x="408.5" y="-475"/>
<text text-anchor="start" x="423.5" y="-466.2" font-family="Helvetica,sans-Serif" font-size="11.00">pulp_id</text>
<polygon fill="none" stroke="black" points="561.5,-458 561.5,-480 666.5,-480 666.5,-458 561.5,-458"/>
<text text-anchor="start" x="564.5" y="-466.2" font-family="Helvetica,sans-Serif" font-size="11.00">uuid[2147483647]</text>
<polygon fill="none" stroke="black" points="403.5,-436 403.5,-458 561.5,-458 561.5,-436 403.5,-436"/>
<text text-anchor="start" x="423.5" y="-444.2" font-family="Helvetica,sans-Serif" font-size="11.00">pulp_created</text>
<polygon fill="none" stroke="black" points="561.5,-436 561.5,-458 666.5,-458 666.5,-436 561.5,-436"/>
<text text-anchor="start" x="564.5" y="-444.2" font-family="Helvetica,sans-Serif" font-size="11.00">timestamptz[35,6]</text>
<polygon fill="none" stroke="black" points="403.5,-414 403.5,-436 561.5,-436 561.5,-414 403.5,-414"/>
<text text-anchor="start" x="423.5" y="-422.2" font-family="Helvetica,sans-Serif" font-size="11.00">pulp_last_updated</text>
<polygon fill="none" stroke="black" points="561.5,-414 561.5,-436 666.5,-436 666.5,-414 561.5,-414"/>
<text text-anchor="start" x="564.5" y="-422.2" font-family="Helvetica,sans-Serif" font-size="11.00">timestamptz[35,6]</text>
<polygon fill="none" stroke="black" points="403.5,-392 403.5,-414 561.5,-414 561.5,-392 403.5,-392"/>
<text text-anchor="start" x="423.5" y="-400.2" font-family="Helvetica,sans-Serif" font-size="11.00">object_id</text>
<polygon fill="none" stroke="black" points="561.5,-392 561.5,-414 666.5,-414 666.5,-392 561.5,-392"/>
<text text-anchor="start" x="564.5" y="-400.2" font-family="Helvetica,sans-Serif" font-size="11.00">uuid[2147483647]</text>
<polygon fill="#ffffff" stroke="none" points="403.5,-370 403.5,-392 561.5,-392 561.5,-370 403.5,-370"/>
<polygon fill="none" stroke="black" points="403.5,-370 403.5,-392 561.5,-392 561.5,-370 403.5,-370"/>
<image xlink:href="../../images/foreignKeys.png" width="11px" height="12px" preserveAspectRatio="xMinYMin meet" x="408.5" y="-387"/>
<text text-anchor="start" x="423.5" y="-378.2" font-family="Helvetica,sans-Serif" font-size="11.00">content_type_id</text>
<polygon fill="none" stroke="black" points="561.5,-370 561.5,-392 666.5,-392 666.5,-370 561.5,-370"/>
<text text-anchor="start" x="564.5" y="-378.2" font-family="Helvetica,sans-Serif" font-size="11.00">int4[10]</text>
<polygon fill="#ffffff" stroke="none" points="403.5,-348 403.5,-370 561.5,-370 561.5,-348 403.5,-348"/>
<polygon fill="none" stroke="black" points="403.5,-348 403.5,-370 561.5,-370 561.5,-348 403.5,-348"/>
<image xlink:href="../../images/foreignKeys.png" width="11px" height="12px" preserveAspectRatio="xMinYMin meet" x="408.5" y="-365"/>
<text text-anchor="start" x="423.5" y="-356.2" font-family="Helvetica,sans-Serif" font-size="11.00">export_id</text>
<polygon fill="none" stroke="black" points="561.5,-348 561.5,-370 666.5,-370 666.5,-348 561.5,-348"/>
<text text-anchor="start" x="564.5" y="-356.2" font-family="Helvetica,sans-Serif" font-size="11.00">uuid[2147483647]</text>
<polygon fill="#ffffff" stroke="none" points="403.5,-330 403.5,-348 472.5,-348 472.5,-330 403.5,-330"/>
<polygon fill="none" stroke="black" points="403.5,-330 403.5,-348 472.5,-348 472.5,-330 403.5,-330"/>
<text text-anchor="start" x="406.5" y="-336.2" font-family="Helvetica,sans-Serif" font-size="11.00">&lt; 2</text>
<polygon fill="#ffffff" stroke="none" points="472.5,-330 472.5,-348 561.5,-348 561.5,-330 472.5,-330"/>
<polygon fill="none" stroke="black" points="472.5,-330 472.5,-348 561.5,-348 561.5,-330 472.5,-330"/>
<text text-anchor="start" x="522.5" y="-336.2" font-family="Helvetica,sans-Serif" font-size="11.00">0 rows</text>
<polygon fill="#ffffff" stroke="none" points="561.5,-330 561.5,-348 666.5,-348 666.5,-330 561.5,-330"/>
<polygon fill="none" stroke="black" points="561.5,-330 561.5,-348 666.5,-348 666.5,-330 561.5,-330"/>
<text text-anchor="start" x="646.5" y="-336.2" font-family="Helvetica,sans-Serif" font-size="11.00">0 &gt;</text>
<polygon fill="none" stroke="black" stroke-width="2" points="402,-329 402,-503 667,-503 667,-329 402,-329"/>
</a>
</g>
</g>
<!-- core_exportedresource&#45;&gt;django_content_type -->
<g id="edge6" class="edge"><title>core_exportedresource:content_type_id:w&#45;&gt;django_content_type:id:e</title>
<path fill="none" stroke="black" d="M388.169,-378.592C334.627,-357.232 430.743,-201 353.5,-201"/>
<polygon fill="black" stroke="black" points="394.611,-379.674 401.903,-384.55 398.555,-380.337 402.5,-381 402.5,-381 402.5,-381 398.555,-380.337 403.097,-377.45 394.611,-379.674 394.611,-379.674"/>
<ellipse fill="none" stroke="black" cx="391.455" cy="-379.144" rx="3.2" ry="3.2"/>
</g>
<!-- core_exportedresource&#45;&gt;core_export -->
<g id="edge7" class="edge"><title>core_exportedresource:export_id:w&#45;&gt;core_export:pulp_id:e</title>
<path fill="none" stroke="black" d="M387.866,-359C368.739,-359 359.174,-359 334.5,-359"/>
<polygon fill="black" stroke="black" points="394.5,-359 402.5,-362.6 398.5,-359 402.5,-359 402.5,-359 402.5,-359 398.5,-359 402.5,-355.4 394.5,-359 394.5,-359"/>
<ellipse fill="none" stroke="black" cx="391.3" cy="-359" rx="3.2" ry="3.2"/>
</g>
<!-- core_pulpexport -->
<g id="node8" class="node"><title>core_pulpexport</title>
<g id="a_node8"><a xlink:href="../../tables/core_pulpexport.html" xlink:title="core_pulpexport" target="_top">
<polygon fill="#ffffff" stroke="none" points="463.5,-525 463.5,-583 605.5,-583 605.5,-525 463.5,-525"/>
<polygon fill="#f5f5f5" stroke="none" points="463.5,-561 463.5,-583 605.5,-583 605.5,-561 463.5,-561"/>
<polygon fill="none" stroke="black" points="463.5,-561 463.5,-583 605.5,-583 605.5,-561 463.5,-561"/>
<text text-anchor="start" x="468.5" y="-570.2" font-family="Helvetica,sans-Serif" font-weight="bold" font-size="11.00">core_pulpexport</text>
<text text-anchor="start" x="566.5" y="-569.2" font-family="Helvetica,sans-Serif" font-size="11.00">[table]</text>
<polygon fill="none" stroke="black" points="463.5,-543 463.5,-561 605.5,-561 605.5,-543 463.5,-543"/>
<text text-anchor="start" x="466.5" y="-549.2" font-family="Helvetica,sans-Serif" font-size="11.00">...</text>
<polygon fill="#ffffff" stroke="none" points="463.5,-525 463.5,-543 513.5,-543 513.5,-525 463.5,-525"/>
<polygon fill="none" stroke="black" points="463.5,-525 463.5,-543 513.5,-543 513.5,-525 463.5,-525"/>
<text text-anchor="start" x="466.5" y="-531.2" font-family="Helvetica,sans-Serif" font-size="11.00">&lt; 1</text>
<polygon fill="#ffffff" stroke="none" points="513.5,-525 513.5,-543 568.5,-543 568.5,-525 513.5,-525"/>
<polygon fill="none" stroke="black" points="513.5,-525 513.5,-543 568.5,-543 568.5,-525 513.5,-525"/>
<text text-anchor="start" x="529.5" y="-531.2" font-family="Helvetica,sans-Serif" font-size="11.00">0 rows</text>
<polygon fill="#ffffff" stroke="none" points="568.5,-525 568.5,-543 605.5,-543 605.5,-525 568.5,-525"/>
<polygon fill="none" stroke="black" points="568.5,-525 568.5,-543 605.5,-543 605.5,-525 568.5,-525"/>
<text text-anchor="start" x="585.5" y="-531.2" font-family="Helvetica,sans-Serif" font-size="11.00">1 &gt;</text>
</a>
</g>
</g>
<!-- core_pulpexport&#45;&gt;core_export -->
<g id="edge8" class="edge"><title>core_pulpexport:elipses:w&#45;&gt;core_export:pulp_id:e</title>
<path fill="none" stroke="black" d="M451.817,-551.61C424.867,-549.474 413.555,-538.427 393,-515 344.164,-459.339 408.548,-359 334.5,-359"/>
<polygon fill="black" stroke="black" points="461.847,-547.973 461.554,-555.968 459.956,-555.91 460.248,-547.915 461.847,-547.973"/>
<polyline fill="none" stroke="black" points="462.5,-552 458.503,-551.854 "/>
<ellipse fill="none" stroke="black" cx="455.305" cy="-551.737" rx="3.2" ry="3.2"/>
</g>
<!-- django_admin_log -->
<g id="node9" class="node"><title>django_admin_log</title>
<g id="a_node9"><a xlink:href="../../tables/django_admin_log.html" xlink:title="django_admin_log" target="_top">
<polygon fill="#ffffff" stroke="none" points="460,-143 460,-201 609,-201 609,-143 460,-143"/>
<polygon fill="#f5f5f5" stroke="none" points="460.5,-179 460.5,-201 609.5,-201 609.5,-179 460.5,-179"/>
<polygon fill="none" stroke="black" points="460.5,-179 460.5,-201 609.5,-201 609.5,-179 460.5,-179"/>
<text text-anchor="start" x="465.5" y="-188.2" font-family="Helvetica,sans-Serif" font-weight="bold" font-size="11.00">django_admin_log</text>
<text text-anchor="start" x="570.5" y="-187.2" font-family="Helvetica,sans-Serif" font-size="11.00">[table]</text>
<polygon fill="none" stroke="black" points="460.5,-161 460.5,-179 609.5,-179 609.5,-161 460.5,-161"/>
<text text-anchor="start" x="463.5" y="-167.2" font-family="Helvetica,sans-Serif" font-size="11.00">...</text>
<polygon fill="#ffffff" stroke="none" points="460.5,-143 460.5,-161 512.5,-161 512.5,-143 460.5,-143"/>
<polygon fill="none" stroke="black" points="460.5,-143 460.5,-161 512.5,-161 512.5,-143 460.5,-143"/>
<text text-anchor="start" x="463.5" y="-149.2" font-family="Helvetica,sans-Serif" font-size="11.00">&lt; 2</text>
<polygon fill="#ffffff" stroke="none" points="512.5,-143 512.5,-161 581.5,-161 581.5,-143 512.5,-143"/>
<polygon fill="none" stroke="black" points="512.5,-143 512.5,-161 581.5,-161 581.5,-143 512.5,-143"/>
<text text-anchor="start" x="529.5" y="-149.2" font-family="Helvetica,sans-Serif" font-size="11.00">229 rows</text>
<polygon fill="#ffffff" stroke="none" points="581.5,-143 581.5,-161 609.5,-161 609.5,-143 581.5,-143"/>
<polygon fill="none" stroke="black" points="581.5,-143 581.5,-161 609.5,-161 609.5,-143 581.5,-143"/>
<text text-anchor="start" x="599.5" y="-149.2" font-family="Helvetica,sans-Serif" font-size="11.00"> &#160;</text>
</a>
</g>
</g>
<!-- django_admin_log&#45;&gt;django_content_type -->
<g id="edge9" class="edge"><title>django_admin_log:elipses:w&#45;&gt;django_content_type:id:e</title>
<path fill="none" stroke="black" d="M444.767,-171.031C408.209,-176.41 397.216,-201 353.5,-201"/>
<polygon fill="black" stroke="black" points="451.52,-170.559 459.751,-173.591 455.51,-170.279 459.5,-170 459.5,-170 459.5,-170 455.51,-170.279 459.249,-166.409 451.52,-170.559 451.52,-170.559"/>
<ellipse fill="none" stroke="black" cx="448.327" cy="-170.782" rx="3.2" ry="3.2"/>
</g>
<!-- guardian_groupobjectpermission -->
<g id="node10" class="node"><title>guardian_groupobjectpermission</title>
<g id="a_node10"><a xlink:href="../../tables/guardian_groupobjectpermission.html" xlink:title="guardian_groupobjectpermission" target="_top">
<polygon fill="#ffffff" stroke="none" points="717,-249 717,-307 953,-307 953,-249 717,-249"/>
<polygon fill="#f5f5f5" stroke="none" points="717,-285 717,-307 953,-307 953,-285 717,-285"/>
<polygon fill="none" stroke="black" points="717,-285 717,-307 953,-307 953,-285 717,-285"/>
<text text-anchor="start" x="722" y="-294.2" font-family="Helvetica,sans-Serif" font-weight="bold" font-size="11.00">guardian_groupobjectpermission</text>
<text text-anchor="start" x="914" y="-293.2" font-family="Helvetica,sans-Serif" font-size="11.00">[table]</text>
<polygon fill="none" stroke="black" points="717,-267 717,-285 953,-285 953,-267 717,-267"/>
<text text-anchor="start" x="720" y="-273.2" font-family="Helvetica,sans-Serif" font-size="11.00">...</text>
<polygon fill="#ffffff" stroke="none" points="717,-249 717,-267 812,-267 812,-249 717,-249"/>
<polygon fill="none" stroke="black" points="717,-249 717,-267 812,-267 812,-249 717,-249"/>
<text text-anchor="start" x="720" y="-255.2" font-family="Helvetica,sans-Serif" font-size="11.00">&lt; 3</text>
<polygon fill="#ffffff" stroke="none" points="812,-249 812,-267 903,-267 903,-249 812,-249"/>
<polygon fill="none" stroke="black" points="812,-249 812,-267 903,-267 903,-249 812,-249"/>
<text text-anchor="start" x="851" y="-255.2" font-family="Helvetica,sans-Serif" font-size="11.00">168 rows</text>
<polygon fill="#ffffff" stroke="none" points="903,-249 903,-267 953,-267 953,-249 903,-249"/>
<polygon fill="none" stroke="black" points="903,-249 903,-267 953,-267 953,-249 903,-249"/>
<text text-anchor="start" x="943" y="-255.2" font-family="Helvetica,sans-Serif" font-size="11.00"> &#160;</text>
</a>
</g>
</g>
<!-- guardian_groupobjectpermission&#45;&gt;auth_permission -->
<g id="edge11" class="edge"><title>guardian_groupobjectpermission:elipses:w&#45;&gt;auth_permission:elipses:e</title>
<path fill="none" stroke="black" d="M701.536,-275.162C663.933,-270.605 651.952,-249 607.5,-249"/>
<polygon fill="black" stroke="black" points="708.013,-275.537 715.792,-279.594 712.007,-275.769 716,-276 716,-276 716,-276 712.007,-275.769 716.208,-272.406 708.013,-275.537 708.013,-275.537"/>
<ellipse fill="none" stroke="black" cx="704.819" cy="-275.352" rx="3.2" ry="3.2"/>
</g>
<!-- guardian_groupobjectpermission&#45;&gt;django_content_type -->
<g id="edge10" class="edge"><title>guardian_groupobjectpermission:elipses:w&#45;&gt;django_content_type:id:e</title>
<path fill="none" stroke="black" d="M701.797,-278.922C693.842,-282.595 688.698,-288.697 676,-291 614.12,-302.221 445.652,-325.391 393,-291 356.428,-267.112 397.183,-201 353.5,-201"/>
<polygon fill="black" stroke="black" points="708.164,-277.612 716.726,-279.526 712.082,-276.806 716,-276 716,-276 716,-276 712.082,-276.806 715.274,-272.474 708.164,-277.612 708.164,-277.612"/>
<ellipse fill="none" stroke="black" cx="705.03" cy="-278.257" rx="3.2" ry="3.2"/>
</g>
<!-- guardian_userobjectpermission -->
<g id="node11" class="node"><title>guardian_userobjectpermission</title>
<g id="a_node11"><a xlink:href="../../tables/guardian_userobjectpermission.html" xlink:title="guardian_userobjectpermission" target="_top">
<polygon fill="#ffffff" stroke="none" points="721,-145 721,-203 949,-203 949,-145 721,-145"/>
<polygon fill="#f5f5f5" stroke="none" points="721,-181 721,-203 949,-203 949,-181 721,-181"/>
<polygon fill="none" stroke="black" points="721,-181 721,-203 949,-203 949,-181 721,-181"/>
<text text-anchor="start" x="726" y="-190.2" font-family="Helvetica,sans-Serif" font-weight="bold" font-size="11.00">guardian_userobjectpermission</text>
<text text-anchor="start" x="910" y="-189.2" font-family="Helvetica,sans-Serif" font-size="11.00">[table]</text>
<polygon fill="none" stroke="black" points="721,-163 721,-181 949,-181 949,-163 721,-163"/>
<text text-anchor="start" x="724" y="-169.2" font-family="Helvetica,sans-Serif" font-size="11.00">...</text>
<polygon fill="#ffffff" stroke="none" points="721,-145 721,-163 819,-163 819,-145 721,-145"/>
<polygon fill="none" stroke="black" points="721,-145 721,-163 819,-163 819,-145 721,-145"/>
<text text-anchor="start" x="724" y="-151.2" font-family="Helvetica,sans-Serif" font-size="11.00">&lt; 3</text>
<polygon fill="#ffffff" stroke="none" points="819,-145 819,-163 898,-163 898,-145 819,-145"/>
<polygon fill="none" stroke="black" points="819,-145 819,-163 898,-163 898,-145 819,-145"/>
<text text-anchor="start" x="859" y="-151.2" font-family="Helvetica,sans-Serif" font-size="11.00">0 rows</text>
<polygon fill="#ffffff" stroke="none" points="898,-145 898,-163 949,-163 949,-145 898,-145"/>
<polygon fill="none" stroke="black" points="898,-145 898,-163 949,-163 949,-145 898,-145"/>
<text text-anchor="start" x="939" y="-151.2" font-family="Helvetica,sans-Serif" font-size="11.00"> &#160;</text>
</a>
</g>
</g>
<!-- guardian_userobjectpermission&#45;&gt;auth_permission -->
<g id="edge13" class="edge"><title>guardian_userobjectpermission:elipses:w&#45;&gt;auth_permission:elipses:e</title>
<path fill="none" stroke="black" d="M705.71,-175.634C694.039,-183.069 692.509,-200.3 676,-212 647.769,-232.007 642.102,-249 607.5,-249"/>
<polygon fill="black" stroke="black" points="712.247,-173.972 720.887,-175.489 716.123,-172.986 720,-172 720,-172 720,-172 716.123,-172.986 719.113,-168.511 712.247,-173.972 712.247,-173.972"/>
<ellipse fill="none" stroke="black" cx="709.145" cy="-174.76" rx="3.2" ry="3.2"/>
</g>
<!-- guardian_userobjectpermission&#45;&gt;django_content_type -->
<g id="edge12" class="edge"><title>guardian_userobjectpermission:elipses:w&#45;&gt;django_content_type:id:e</title>
<path fill="none" stroke="black" d="M706.194,-167.747C695.243,-159.188 694.706,-140.097 676,-133 617.201,-110.692 447.505,-101.628 393,-133 362.708,-150.436 388.451,-201 353.5,-201"/>
<polygon fill="black" stroke="black" points="712.355,-169.645 718.94,-175.44 716.177,-170.822 720,-172 720,-172 720,-172 716.177,-170.822 721.06,-168.56 712.355,-169.645 712.355,-169.645"/>
<ellipse fill="none" stroke="black" cx="709.296" cy="-168.702" rx="3.20001" ry="3.20001"/>
</g>
</g>
</svg>
