<?xml version="1.0" encoding="UTF-8" standalone="no"?>
<!DOCTYPE svg PUBLIC "-//W3C//DTD SVG 1.1//EN"
 "http://www.w3.org/Graphics/SVG/1.1/DTD/svg11.dtd">
<!-- Generated by graphviz version 2.38.0 (20140413.2041)
 -->
<!-- Title: oneDegreeRelationshipsDiagram Pages: 1 -->
<svg width="464pt" height="223pt"
 viewBox="0.00 0.00 464.00 223.00" xmlns="http://www.w3.org/2000/svg" xmlns:xlink="http://www.w3.org/1999/xlink">
<g id="graph0" class="graph" transform="scale(1 1) rotate(0) translate(4 219)">
<title>oneDegreeRelationshipsDiagram</title>
<polygon fill="#ffffff" stroke="none" points="-4,4 -4,-219 460,-219 460,4 -4,4"/>
<text text-anchor="middle" x="74.5" y="-7.2" font-family="Helvetica,sans-Serif" font-size="11.00">Generated by SchemaSpy</text>
<!-- core_uploadchunk -->
<g id="node1" class="node"><title>core_uploadchunk</title>
<g id="a_node1"><a xlink:href="../../tables/core_uploadchunk.html" xlink:title="core_uploadchunk" target="_top">
<polygon fill="#ffffff" stroke="none" points="295,-109 295,-211 448,-211 448,-109 295,-109"/>
<polygon fill="#f5f5f5" stroke="none" points="295.5,-189 295.5,-211 448.5,-211 448.5,-189 295.5,-189"/>
<polygon fill="none" stroke="black" points="295.5,-189 295.5,-211 448.5,-211 448.5,-189 295.5,-189"/>
<text text-anchor="start" x="300.5" y="-198.2" font-family="Helvetica,sans-Serif" font-weight="bold" font-size="11.00">core_uploadchunk</text>
<text text-anchor="start" x="409.5" y="-197.2" font-family="Helvetica,sans-Serif" font-size="11.00">[table]</text>
<polygon fill="none" stroke="black" points="295.5,-167 295.5,-189 448.5,-189 448.5,-167 295.5,-167"/>
<image xlink:href="../../images/primaryKeys.png" width="11px" height="12px" preserveAspectRatio="xMinYMin meet" x="300.5" y="-184"/>
<text text-anchor="start" x="327.5" y="-175.2" font-family="Helvetica,sans-Serif" font-size="11.00">pulp_id</text>
<polygon fill="#ffffff" stroke="none" points="295.5,-145 295.5,-167 448.5,-167 448.5,-145 295.5,-145"/>
<polygon fill="none" stroke="black" points="295.5,-145 295.5,-167 448.5,-167 448.5,-145 295.5,-145"/>
<image xlink:href="../../images/foreignKeys.png" width="11px" height="12px" preserveAspectRatio="xMinYMin meet" x="300.5" y="-162"/>
<text text-anchor="start" x="327.5" y="-153.2" font-family="Helvetica,sans-Serif" font-size="11.00">upload_id</text>
<polygon fill="none" stroke="black" points="295.5,-127 295.5,-145 448.5,-145 448.5,-127 295.5,-127"/>
<text text-anchor="start" x="298.5" y="-133.2" font-family="Helvetica,sans-Serif" font-size="11.00">...</text>
<polygon fill="#ffffff" stroke="none" points="295.5,-109 295.5,-127 355.5,-127 355.5,-109 295.5,-109"/>
<polygon fill="none" stroke="black" points="295.5,-109 295.5,-127 355.5,-127 355.5,-109 295.5,-109"/>
<text text-anchor="start" x="298.5" y="-115.2" font-family="Helvetica,sans-Serif" font-size="11.00">&lt; 1</text>
<polygon fill="#ffffff" stroke="none" points="355.5,-109 355.5,-127 416.5,-127 416.5,-109 355.5,-109"/>
<polygon fill="none" stroke="black" points="355.5,-109 355.5,-127 416.5,-127 416.5,-109 355.5,-109"/>
<text text-anchor="start" x="377.5" y="-115.2" font-family="Helvetica,sans-Serif" font-size="11.00">0 rows</text>
<polygon fill="#ffffff" stroke="none" points="416.5,-109 416.5,-127 448.5,-127 448.5,-109 416.5,-109"/>
<polygon fill="none" stroke="black" points="416.5,-109 416.5,-127 448.5,-127 448.5,-109 416.5,-109"/>
<text text-anchor="start" x="438.5" y="-115.2" font-family="Helvetica,sans-Serif" font-size="11.00"> &#160;</text>
</a>
</g>
</g>
<!-- core_upload -->
<g id="node2" class="node"><title>core_upload</title>
<g id="a_node2"><a xlink:href="../../tables/core_upload.html" xlink:title="core_upload" target="_top">
<polygon fill="#ffffff" stroke="none" points="8,-37 8,-191 246,-191 246,-37 8,-37"/>
<polygon fill="#f5f5f5" stroke="none" points="10,-167 10,-189 244,-189 244,-167 10,-167"/>
<polygon fill="none" stroke="black" points="10,-167 10,-189 244,-189 244,-167 10,-167"/>
<text text-anchor="start" x="15" y="-176.2" font-family="Helvetica,sans-Serif" font-weight="bold" font-size="11.00">core_upload</text>
<text text-anchor="start" x="205" y="-175.2" font-family="Helvetica,sans-Serif" font-size="11.00">[table]</text>
<polygon fill="none" stroke="black" points="10,-145 10,-167 139,-167 139,-145 10,-145"/>
<image xlink:href="../../images/primaryKeys.png" width="11px" height="12px" preserveAspectRatio="xMinYMin meet" x="15" y="-162"/>
<text text-anchor="start" x="30" y="-153.2" font-family="Helvetica,sans-Serif" font-size="11.00">pulp_id</text>
<polygon fill="none" stroke="black" points="139,-145 139,-167 244,-167 244,-145 139,-145"/>
<text text-anchor="start" x="142" y="-153.2" font-family="Helvetica,sans-Serif" font-size="11.00">uuid[2147483647]</text>
<polygon fill="none" stroke="black" points="10,-123 10,-145 139,-145 139,-123 10,-123"/>
<text text-anchor="start" x="30" y="-131.2" font-family="Helvetica,sans-Serif" font-size="11.00">pulp_created</text>
<polygon fill="none" stroke="black" points="139,-123 139,-145 244,-145 244,-123 139,-123"/>
<text text-anchor="start" x="142" y="-131.2" font-family="Helvetica,sans-Serif" font-size="11.00">timestamptz[35,6]</text>
<polygon fill="none" stroke="black" points="10,-101 10,-123 139,-123 139,-101 10,-101"/>
<text text-anchor="start" x="30" y="-109.2" font-family="Helvetica,sans-Serif" font-size="11.00">pulp_last_updated</text>
<polygon fill="none" stroke="black" points="139,-101 139,-123 244,-123 244,-101 139,-101"/>
<text text-anchor="start" x="142" y="-109.2" font-family="Helvetica,sans-Serif" font-size="11.00">timestamptz[35,6]</text>
<polygon fill="none" stroke="black" points="10,-79 10,-101 139,-101 139,-79 10,-79"/>
<text text-anchor="start" x="30" y="-87.2" font-family="Helvetica,sans-Serif" font-size="11.00">file</text>
<polygon fill="none" stroke="black" points="139,-79 139,-101 244,-101 244,-79 139,-79"/>
<text text-anchor="start" x="142" y="-87.2" font-family="Helvetica,sans-Serif" font-size="11.00">varchar[255]</text>
<polygon fill="none" stroke="black" points="10,-57 10,-79 139,-79 139,-57 10,-57"/>
<text text-anchor="start" x="30" y="-65.2" font-family="Helvetica,sans-Serif" font-size="11.00">size</text>
<polygon fill="none" stroke="black" points="139,-57 139,-79 244,-79 244,-57 139,-57"/>
<text text-anchor="start" x="142" y="-65.2" font-family="Helvetica,sans-Serif" font-size="11.00">int8[19]</text>
<polygon fill="#ffffff" stroke="none" points="10,-39 10,-57 65,-57 65,-39 10,-39"/>
<polygon fill="none" stroke="black" points="10,-39 10,-57 65,-57 65,-39 10,-39"/>
<text text-anchor="start" x="13" y="-45.2" font-family="Helvetica,sans-Serif" font-size="11.00">&lt; 0</text>
<polygon fill="#ffffff" stroke="none" points="65,-39 65,-57 139,-57 139,-39 65,-39"/>
<polygon fill="none" stroke="black" points="65,-39 65,-57 139,-57 139,-39 65,-39"/>
<text text-anchor="start" x="100" y="-45.2" font-family="Helvetica,sans-Serif" font-size="11.00">0 rows</text>
<polygon fill="#ffffff" stroke="none" points="139,-39 139,-57 244,-57 244,-39 139,-39"/>
<polygon fill="none" stroke="black" points="139,-39 139,-57 244,-57 244,-39 139,-39"/>
<text text-anchor="start" x="224" y="-45.2" font-family="Helvetica,sans-Serif" font-size="11.00">1 &gt;</text>
<polygon fill="none" stroke="black" stroke-width="2" points="9,-38 9,-190 245,-190 245,-38 9,-38"/>
</a>
</g>
</g>
<!-- core_uploadchunk&#45;&gt;core_upload -->
<g id="edge1" class="edge"><title>core_uploadchunk:upload_id:w&#45;&gt;core_upload:pulp_id.type:e</title>
<path fill="none" stroke="black" d="M279.843,-156C268.414,-156 261.156,-156 245,-156"/>
<polygon fill="black" stroke="black" points="286.5,-156 294.5,-159.6 290.5,-156 294.5,-156 294.5,-156 294.5,-156 290.5,-156 294.5,-152.4 286.5,-156 286.5,-156"/>
<ellipse fill="none" stroke="black" cx="283.3" cy="-156" rx="3.2" ry="3.2"/>
</g>
</g>
</svg>
