<?xml version="1.0" encoding="UTF-8" standalone="no"?>
<!DOCTYPE svg PUBLIC "-//W3C//DTD SVG 1.1//EN"
 "http://www.w3.org/Graphics/SVG/1.1/DTD/svg11.dtd">
<!-- Generated by graphviz version 2.38.0 (20140413.2041)
 -->
<!-- Title: oneDegreeRelationshipsDiagram Pages: 1 -->
<svg width="708pt" height="195pt"
 viewBox="0.00 0.00 708.00 195.00" xmlns="http://www.w3.org/2000/svg" xmlns:xlink="http://www.w3.org/1999/xlink">
<g id="graph0" class="graph" transform="scale(1 1) rotate(0) translate(4 191)">
<title>oneDegreeRelationshipsDiagram</title>
<polygon fill="#ffffff" stroke="none" points="-4,4 -4,-191 704,-191 704,4 -4,4"/>
<text text-anchor="middle" x="74.5" y="-7.2" font-family="Helvetica,sans-Serif" font-size="11.00">Generated by SchemaSpy</text>
<!-- core_pulpimporter -->
<g id="node1" class="node"><title>core_pulpimporter</title>
<g id="a_node1"><a xlink:href="../../tables/core_pulpimporter.html" xlink:title="core_pulpimporter" target="_top">
<polygon fill="#ffffff" stroke="none" points="187,-75 187,-141 428,-141 428,-75 187,-75"/>
<polygon fill="#f5f5f5" stroke="none" points="189.5,-117 189.5,-139 426.5,-139 426.5,-117 189.5,-117"/>
<polygon fill="none" stroke="black" points="189.5,-117 189.5,-139 426.5,-139 426.5,-117 189.5,-117"/>
<text text-anchor="start" x="194.5" y="-126.2" font-family="Helvetica,sans-Serif" font-weight="bold" font-size="11.00">core_pulpimporter</text>
<text text-anchor="start" x="387.5" y="-125.2" font-family="Helvetica,sans-Serif" font-size="11.00">[table]</text>
<polygon fill="none" stroke="black" points="189.5,-95 189.5,-117 321.5,-117 321.5,-95 189.5,-95"/>
<image xlink:href="../../images/primaryKeys.png" width="11px" height="12px" preserveAspectRatio="xMinYMin meet" x="194.5" y="-112"/>
<text text-anchor="start" x="209.5" y="-103.2" font-family="Helvetica,sans-Serif" font-size="11.00">importer_ptr_id</text>
<polygon fill="none" stroke="black" points="321.5,-95 321.5,-117 426.5,-117 426.5,-95 321.5,-95"/>
<text text-anchor="start" x="324.5" y="-103.2" font-family="Helvetica,sans-Serif" font-size="11.00">uuid[2147483647]</text>
<polygon fill="#ffffff" stroke="none" points="189.5,-77 189.5,-95 245.5,-95 245.5,-77 189.5,-77"/>
<polygon fill="none" stroke="black" points="189.5,-77 189.5,-95 245.5,-95 245.5,-77 189.5,-77"/>
<text text-anchor="start" x="192.5" y="-83.2" font-family="Helvetica,sans-Serif" font-size="11.00">&lt; 1</text>
<polygon fill="#ffffff" stroke="none" points="245.5,-77 245.5,-95 321.5,-95 321.5,-77 245.5,-77"/>
<polygon fill="none" stroke="black" points="245.5,-77 245.5,-95 321.5,-95 321.5,-77 245.5,-77"/>
<text text-anchor="start" x="282.5" y="-83.2" font-family="Helvetica,sans-Serif" font-size="11.00">0 rows</text>
<polygon fill="#ffffff" stroke="none" points="321.5,-77 321.5,-95 426.5,-95 426.5,-77 321.5,-77"/>
<polygon fill="none" stroke="black" points="321.5,-77 321.5,-95 426.5,-95 426.5,-77 321.5,-77"/>
<text text-anchor="start" x="406.5" y="-83.2" font-family="Helvetica,sans-Serif" font-size="11.00">1 &gt;</text>
<polygon fill="none" stroke="black" stroke-width="2" points="188,-76 188,-140 427,-140 427,-76 188,-76"/>
</a>
</g>
</g>
<!-- core_importer -->
<g id="node2" class="node"><title>core_importer</title>
<g id="a_node2"><a xlink:href="../../tables/core_importer.html" xlink:title="core_importer" target="_top">
<polygon fill="#ffffff" stroke="none" points="8,-37 8,-139 138,-139 138,-37 8,-37"/>
<polygon fill="#f5f5f5" stroke="none" points="8,-117 8,-139 138,-139 138,-117 8,-117"/>
<polygon fill="none" stroke="black" points="8,-117 8,-139 138,-139 138,-117 8,-117"/>
<text text-anchor="start" x="13" y="-126.2" font-family="Helvetica,sans-Serif" font-weight="bold" font-size="11.00">core_importer</text>
<text text-anchor="start" x="99" y="-125.2" font-family="Helvetica,sans-Serif" font-size="11.00">[table]</text>
<polygon fill="none" stroke="black" points="8,-95 8,-117 138,-117 138,-95 8,-95"/>
<image xlink:href="../../images/primaryKeys.png" width="11px" height="12px" preserveAspectRatio="xMinYMin meet" x="13" y="-112"/>
<text text-anchor="start" x="29" y="-103.2" font-family="Helvetica,sans-Serif" font-size="11.00">pulp_id</text>
<polygon fill="#ffffff" stroke="none" points="8,-73 8,-95 138,-95 138,-73 8,-73"/>
<polygon fill="none" stroke="black" points="8,-73 8,-95 138,-95 138,-73 8,-73"/>
<text text-anchor="start" x="29" y="-81.2" font-family="Helvetica,sans-Serif" font-size="11.00">name</text>
<polygon fill="none" stroke="black" points="8,-55 8,-73 138,-73 138,-55 8,-55"/>
<text text-anchor="start" x="11" y="-61.2" font-family="Helvetica,sans-Serif" font-size="11.00">...</text>
<polygon fill="#ffffff" stroke="none" points="8,-37 8,-55 47,-55 47,-37 8,-37"/>
<polygon fill="none" stroke="black" points="8,-37 8,-55 47,-55 47,-37 8,-37"/>
<text text-anchor="start" x="11" y="-43.2" font-family="Helvetica,sans-Serif" font-size="11.00"> &#160;</text>
<polygon fill="#ffffff" stroke="none" points="47,-37 47,-55 102,-55 102,-37 47,-37"/>
<polygon fill="none" stroke="black" points="47,-37 47,-55 102,-55 102,-37 47,-37"/>
<text text-anchor="start" x="63" y="-43.2" font-family="Helvetica,sans-Serif" font-size="11.00">0 rows</text>
<polygon fill="#ffffff" stroke="none" points="102,-37 102,-55 138,-55 138,-37 102,-37"/>
<polygon fill="none" stroke="black" points="102,-37 102,-55 138,-55 138,-37 102,-37"/>
<text text-anchor="start" x="118" y="-43.2" font-family="Helvetica,sans-Serif" font-size="11.00">2 &gt;</text>
</a>
</g>
</g>
<!-- core_pulpimporter&#45;&gt;core_importer -->
<g id="edge1" class="edge"><title>core_pulpimporter:importer_ptr_id:w&#45;&gt;core_importer:pulp_id:e</title>
<path fill="none" stroke="black" d="M178.047,-106C163.991,-106 157.047,-106 139,-106"/>
<polygon fill="black" stroke="black" points="187.7,-102 187.7,-110 186.1,-110 186.1,-102 187.7,-102"/>
<polyline fill="none" stroke="black" points="188.5,-106 184.5,-106 "/>
<ellipse fill="none" stroke="black" cx="181.3" cy="-106" rx="3.2" ry="3.2"/>
</g>
<!-- core_pulpimporterrepository -->
<g id="node3" class="node"><title>core_pulpimporterrepository</title>
<g id="a_node3"><a xlink:href="../../tables/core_pulpimporterrepository.html" xlink:title="core_pulpimporterrepository" target="_top">
<polygon fill="#ffffff" stroke="none" points="477,-59 477,-183 692,-183 692,-59 477,-59"/>
<polygon fill="#f5f5f5" stroke="none" points="477.5,-161 477.5,-183 692.5,-183 692.5,-161 477.5,-161"/>
<polygon fill="none" stroke="black" points="477.5,-161 477.5,-183 692.5,-183 692.5,-161 477.5,-161"/>
<text text-anchor="start" x="482.5" y="-170.2" font-family="Helvetica,sans-Serif" font-weight="bold" font-size="11.00">core_pulpimporterrepository</text>
<text text-anchor="start" x="653.5" y="-169.2" font-family="Helvetica,sans-Serif" font-size="11.00">[table]</text>
<polygon fill="none" stroke="black" points="477.5,-139 477.5,-161 692.5,-161 692.5,-139 477.5,-139"/>
<image xlink:href="../../images/primaryKeys.png" width="11px" height="12px" preserveAspectRatio="xMinYMin meet" x="482.5" y="-156"/>
<text text-anchor="start" x="508.5" y="-147.2" font-family="Helvetica,sans-Serif" font-size="11.00">pulp_id</text>
<polygon fill="#ffffff" stroke="none" points="477.5,-117 477.5,-139 692.5,-139 692.5,-117 477.5,-117"/>
<polygon fill="none" stroke="black" points="477.5,-117 477.5,-139 692.5,-139 692.5,-117 477.5,-117"/>
<image xlink:href="../../images/foreignKeys.png" width="11px" height="12px" preserveAspectRatio="xMinYMin meet" x="482.5" y="-134"/>
<text text-anchor="start" x="508.5" y="-125.2" font-family="Helvetica,sans-Serif" font-size="11.00">repository_id</text>
<polygon fill="#ffffff" stroke="none" points="477.5,-95 477.5,-117 692.5,-117 692.5,-95 477.5,-95"/>
<polygon fill="none" stroke="black" points="477.5,-95 477.5,-117 692.5,-117 692.5,-95 477.5,-95"/>
<image xlink:href="../../images/foreignKeys.png" width="11px" height="12px" preserveAspectRatio="xMinYMin meet" x="482.5" y="-112"/>
<text text-anchor="start" x="508.5" y="-103.2" font-family="Helvetica,sans-Serif" font-size="11.00">pulp_importer_id</text>
<polygon fill="none" stroke="black" points="477.5,-77 477.5,-95 692.5,-95 692.5,-77 477.5,-77"/>
<text text-anchor="start" x="480.5" y="-83.2" font-family="Helvetica,sans-Serif" font-size="11.00">...</text>
<polygon fill="#ffffff" stroke="none" points="477.5,-59 477.5,-77 568.5,-77 568.5,-59 477.5,-59"/>
<polygon fill="none" stroke="black" points="477.5,-59 477.5,-77 568.5,-77 568.5,-59 477.5,-59"/>
<text text-anchor="start" x="480.5" y="-65.2" font-family="Helvetica,sans-Serif" font-size="11.00">&lt; 2</text>
<polygon fill="#ffffff" stroke="none" points="568.5,-59 568.5,-77 644.5,-77 644.5,-59 568.5,-59"/>
<polygon fill="none" stroke="black" points="568.5,-59 568.5,-77 644.5,-77 644.5,-59 568.5,-59"/>
<text text-anchor="start" x="605.5" y="-65.2" font-family="Helvetica,sans-Serif" font-size="11.00">0 rows</text>
<polygon fill="#ffffff" stroke="none" points="644.5,-59 644.5,-77 692.5,-77 692.5,-59 644.5,-59"/>
<polygon fill="none" stroke="black" points="644.5,-59 644.5,-77 692.5,-77 692.5,-59 644.5,-59"/>
<text text-anchor="start" x="682.5" y="-65.2" font-family="Helvetica,sans-Serif" font-size="11.00"> &#160;</text>
</a>
</g>
</g>
<!-- core_pulpimporterrepository&#45;&gt;core_pulpimporter -->
<g id="edge2" class="edge"><title>core_pulpimporterrepository:pulp_importer_id:w&#45;&gt;core_pulpimporter:importer_ptr_id.type:e</title>
<path fill="none" stroke="black" d="M461.991,-106C450.677,-106 443.493,-106 427.5,-106"/>
<polygon fill="black" stroke="black" points="468.5,-106 476.5,-109.6 472.5,-106 476.5,-106 476.5,-106 476.5,-106 472.5,-106 476.5,-102.4 468.5,-106 468.5,-106"/>
<ellipse fill="none" stroke="black" cx="465.3" cy="-106" rx="3.2" ry="3.2"/>
</g>
</g>
</svg>
