<?xml version="1.0" encoding="UTF-8" standalone="no"?>
<!DOCTYPE svg PUBLIC "-//W3C//DTD SVG 1.1//EN"
 "http://www.w3.org/Graphics/SVG/1.1/DTD/svg11.dtd">
<!-- Generated by graphviz version 2.38.0 (20140413.2041)
 -->
<!-- Title: twoDegreesRelationshipsDiagram Pages: 1 -->
<svg width="781pt" height="581pt"
 viewBox="0.00 0.00 781.00 581.00" xmlns="http://www.w3.org/2000/svg" xmlns:xlink="http://www.w3.org/1999/xlink">
<g id="graph0" class="graph" transform="scale(1 1) rotate(0) translate(4 577)">
<title>twoDegreesRelationshipsDiagram</title>
<polygon fill="#ffffff" stroke="none" points="-4,4 -4,-577 777,-577 777,4 -4,4"/>
<text text-anchor="middle" x="74.5" y="-7.2" font-family="Helvetica,sans-Serif" font-size="11.00">Generated by SchemaSpy</text>
<!-- ansible_collectionimport -->
<g id="node1" class="node"><title>ansible_collectionimport</title>
<g id="a_node1"><a xlink:href="../../tables/ansible_collectionimport.html" xlink:title="ansible_collectionimport" target="_top">
<polygon fill="#ffffff" stroke="none" points="550.5,-432 550.5,-490 740.5,-490 740.5,-432 550.5,-432"/>
<polygon fill="#f5f5f5" stroke="none" points="550.5,-468 550.5,-490 740.5,-490 740.5,-468 550.5,-468"/>
<polygon fill="none" stroke="black" points="550.5,-468 550.5,-490 740.5,-490 740.5,-468 550.5,-468"/>
<text text-anchor="start" x="555.5" y="-477.2" font-family="Helvetica,sans-Serif" font-weight="bold" font-size="11.00">ansible_collectionimport</text>
<text text-anchor="start" x="701.5" y="-476.2" font-family="Helvetica,sans-Serif" font-size="11.00">[table]</text>
<polygon fill="none" stroke="black" points="550.5,-450 550.5,-468 740.5,-468 740.5,-450 550.5,-450"/>
<text text-anchor="start" x="553.5" y="-456.2" font-family="Helvetica,sans-Serif" font-size="11.00">...</text>
<polygon fill="#ffffff" stroke="none" points="550.5,-432 550.5,-450 622.5,-450 622.5,-432 550.5,-432"/>
<polygon fill="none" stroke="black" points="550.5,-432 550.5,-450 622.5,-450 622.5,-432 550.5,-432"/>
<text text-anchor="start" x="553.5" y="-438.2" font-family="Helvetica,sans-Serif" font-size="11.00">&lt; 1</text>
<polygon fill="#ffffff" stroke="none" points="622.5,-432 622.5,-450 702.5,-450 702.5,-432 622.5,-432"/>
<polygon fill="none" stroke="black" points="622.5,-432 622.5,-450 702.5,-450 702.5,-432 622.5,-432"/>
<text text-anchor="start" x="650.5" y="-438.2" font-family="Helvetica,sans-Serif" font-size="11.00">111 rows</text>
<polygon fill="#ffffff" stroke="none" points="702.5,-432 702.5,-450 740.5,-450 740.5,-432 702.5,-432"/>
<polygon fill="none" stroke="black" points="702.5,-432 702.5,-450 740.5,-450 740.5,-432 702.5,-432"/>
<text text-anchor="start" x="730.5" y="-438.2" font-family="Helvetica,sans-Serif" font-size="11.00"> &#160;</text>
</a>
</g>
</g>
<!-- core_task -->
<g id="node2" class="node"><title>core_task</title>
<g id="a_node2"><a xlink:href="../../tables/core_task.html" xlink:title="core_task" target="_top">
<polygon fill="#ffffff" stroke="none" points="323.5,-193 323.5,-339 452.5,-339 452.5,-193 323.5,-193"/>
<polygon fill="#f5f5f5" stroke="none" points="324,-317 324,-339 453,-339 453,-317 324,-317"/>
<polygon fill="none" stroke="black" points="324,-317 324,-339 453,-339 453,-317 324,-317"/>
<text text-anchor="start" x="329" y="-326.2" font-family="Helvetica,sans-Serif" font-weight="bold" font-size="11.00">core_task</text>
<text text-anchor="start" x="414" y="-325.2" font-family="Helvetica,sans-Serif" font-size="11.00">[table]</text>
<polygon fill="none" stroke="black" points="324,-295 324,-317 453,-317 453,-295 324,-295"/>
<image xlink:href="../../images/primaryKeys.png" width="11px" height="12px" preserveAspectRatio="xMinYMin meet" x="329" y="-312"/>
<text text-anchor="start" x="344" y="-303.2" font-family="Helvetica,sans-Serif" font-size="11.00">pulp_id</text>
<polygon fill="#ffffff" stroke="none" points="324,-273 324,-295 453,-295 453,-273 324,-273"/>
<polygon fill="none" stroke="black" points="324,-273 324,-295 453,-295 453,-273 324,-273"/>
<image xlink:href="../../images/foreignKeys.png" width="11px" height="12px" preserveAspectRatio="xMinYMin meet" x="329" y="-290"/>
<text text-anchor="start" x="344" y="-281.2" font-family="Helvetica,sans-Serif" font-size="11.00">worker_id</text>
<polygon fill="#ffffff" stroke="none" points="324,-251 324,-273 453,-273 453,-251 324,-251"/>
<polygon fill="none" stroke="black" points="324,-251 324,-273 453,-273 453,-251 324,-251"/>
<image xlink:href="../../images/foreignKeys.png" width="11px" height="12px" preserveAspectRatio="xMinYMin meet" x="329" y="-268"/>
<text text-anchor="start" x="344" y="-259.2" font-family="Helvetica,sans-Serif" font-size="11.00">parent_task_id</text>
<polygon fill="#ffffff" stroke="none" points="324,-229 324,-251 453,-251 453,-229 324,-229"/>
<polygon fill="none" stroke="black" points="324,-229 324,-251 453,-251 453,-229 324,-229"/>
<image xlink:href="../../images/foreignKeys.png" width="11px" height="12px" preserveAspectRatio="xMinYMin meet" x="329" y="-246"/>
<text text-anchor="start" x="344" y="-237.2" font-family="Helvetica,sans-Serif" font-size="11.00">task_group_id</text>
<polygon fill="none" stroke="black" points="324,-211 324,-229 453,-229 453,-211 324,-211"/>
<text text-anchor="start" x="327" y="-217.2" font-family="Helvetica,sans-Serif" font-size="11.00">...</text>
<polygon fill="#ffffff" stroke="none" points="324,-193 324,-211 356,-211 356,-193 324,-193"/>
<polygon fill="none" stroke="black" points="324,-193 324,-211 356,-211 356,-193 324,-193"/>
<text text-anchor="start" x="327" y="-199.2" font-family="Helvetica,sans-Serif" font-size="11.00">&lt; 3</text>
<polygon fill="#ffffff" stroke="none" points="356,-193 356,-211 425,-211 425,-193 356,-193"/>
<polygon fill="none" stroke="black" points="356,-193 356,-211 425,-211 425,-193 356,-193"/>
<text text-anchor="start" x="363" y="-199.2" font-family="Helvetica,sans-Serif" font-size="11.00">1,828 rows</text>
<polygon fill="#ffffff" stroke="none" points="425,-193 425,-211 453,-211 453,-193 425,-193"/>
<polygon fill="none" stroke="black" points="425,-193 425,-211 453,-211 453,-193 425,-193"/>
<text text-anchor="start" x="433" y="-199.2" font-family="Helvetica,sans-Serif" font-size="11.00">8 &gt;</text>
</a>
</g>
</g>
<!-- ansible_collectionimport&#45;&gt;core_task -->
<g id="edge1" class="edge"><title>ansible_collectionimport:elipses:w&#45;&gt;core_task:pulp_id:e</title>
<path fill="none" stroke="black" d="M538.761,-457.941C475.325,-444.423 530.245,-306 454,-306"/>
<polygon fill="black" stroke="black" points="549.096,-454.941 548.311,-462.902 546.719,-462.745 547.504,-454.784 549.096,-454.941"/>
<polyline fill="none" stroke="black" points="549.5,-459 545.519,-458.608 "/>
<ellipse fill="none" stroke="black" cx="542.335" cy="-458.294" rx="3.2" ry="3.2"/>
</g>
<!-- core_worker -->
<g id="node8" class="node"><title>core_worker</title>
<g id="a_node8"><a xlink:href="../../tables/core_worker.html" xlink:title="core_worker" target="_top">
<polygon fill="#ffffff" stroke="none" points="8,-303 8,-501 250,-501 250,-303 8,-303"/>
<polygon fill="#f5f5f5" stroke="none" points="10,-477 10,-499 248,-499 248,-477 10,-477"/>
<polygon fill="none" stroke="black" points="10,-477 10,-499 248,-499 248,-477 10,-477"/>
<text text-anchor="start" x="15" y="-486.2" font-family="Helvetica,sans-Serif" font-weight="bold" font-size="11.00">core_worker</text>
<text text-anchor="start" x="209" y="-485.2" font-family="Helvetica,sans-Serif" font-size="11.00">[table]</text>
<polygon fill="none" stroke="black" points="10,-455 10,-477 143,-477 143,-455 10,-455"/>
<image xlink:href="../../images/primaryKeys.png" width="11px" height="12px" preserveAspectRatio="xMinYMin meet" x="15" y="-472"/>
<text text-anchor="start" x="30" y="-463.2" font-family="Helvetica,sans-Serif" font-size="11.00">pulp_id</text>
<polygon fill="none" stroke="black" points="143,-455 143,-477 248,-477 248,-455 143,-455"/>
<text text-anchor="start" x="146" y="-463.2" font-family="Helvetica,sans-Serif" font-size="11.00">uuid[2147483647]</text>
<polygon fill="none" stroke="black" points="10,-433 10,-455 143,-455 143,-433 10,-433"/>
<text text-anchor="start" x="30" y="-441.2" font-family="Helvetica,sans-Serif" font-size="11.00">pulp_created</text>
<polygon fill="none" stroke="black" points="143,-433 143,-455 248,-455 248,-433 143,-433"/>
<text text-anchor="start" x="146" y="-441.2" font-family="Helvetica,sans-Serif" font-size="11.00">timestamptz[35,6]</text>
<polygon fill="none" stroke="black" points="10,-411 10,-433 143,-433 143,-411 10,-411"/>
<text text-anchor="start" x="30" y="-419.2" font-family="Helvetica,sans-Serif" font-size="11.00">pulp_last_updated</text>
<polygon fill="none" stroke="black" points="143,-411 143,-433 248,-433 248,-411 143,-411"/>
<text text-anchor="start" x="146" y="-419.2" font-family="Helvetica,sans-Serif" font-size="11.00">timestamptz[35,6]</text>
<polygon fill="#ffffff" stroke="none" points="10,-389 10,-411 143,-411 143,-389 10,-389"/>
<polygon fill="none" stroke="black" points="10,-389 10,-411 143,-411 143,-389 10,-389"/>
<text text-anchor="start" x="30" y="-397.2" font-family="Helvetica,sans-Serif" font-size="11.00">name</text>
<polygon fill="none" stroke="black" points="143,-389 143,-411 248,-411 248,-389 143,-389"/>
<text text-anchor="start" x="146" y="-397.2" font-family="Helvetica,sans-Serif" font-size="11.00">text[2147483647]</text>
<polygon fill="none" stroke="black" points="10,-367 10,-389 143,-389 143,-367 10,-367"/>
<text text-anchor="start" x="30" y="-375.2" font-family="Helvetica,sans-Serif" font-size="11.00">last_heartbeat</text>
<polygon fill="none" stroke="black" points="143,-367 143,-389 248,-389 248,-367 143,-367"/>
<text text-anchor="start" x="146" y="-375.2" font-family="Helvetica,sans-Serif" font-size="11.00">timestamptz[35,6]</text>
<polygon fill="none" stroke="black" points="10,-345 10,-367 143,-367 143,-345 10,-345"/>
<text text-anchor="start" x="30" y="-353.2" font-family="Helvetica,sans-Serif" font-size="11.00">gracefully_stopped</text>
<polygon fill="none" stroke="black" points="143,-345 143,-367 248,-367 248,-345 143,-345"/>
<text text-anchor="start" x="146" y="-353.2" font-family="Helvetica,sans-Serif" font-size="11.00">bool[1]</text>
<polygon fill="none" stroke="black" points="10,-323 10,-345 143,-345 143,-323 10,-323"/>
<text text-anchor="start" x="30" y="-331.2" font-family="Helvetica,sans-Serif" font-size="11.00">cleaned_up</text>
<polygon fill="none" stroke="black" points="143,-323 143,-345 248,-345 248,-323 143,-323"/>
<text text-anchor="start" x="146" y="-331.2" font-family="Helvetica,sans-Serif" font-size="11.00">bool[1]</text>
<polygon fill="#ffffff" stroke="none" points="10,-305 10,-323 60,-323 60,-305 10,-305"/>
<polygon fill="none" stroke="black" points="10,-305 10,-323 60,-323 60,-305 10,-305"/>
<text text-anchor="start" x="13" y="-311.2" font-family="Helvetica,sans-Serif" font-size="11.00">&lt; 0</text>
<polygon fill="#ffffff" stroke="none" points="60,-305 60,-323 143,-323 143,-305 60,-305"/>
<polygon fill="none" stroke="black" points="60,-305 60,-323 143,-323 143,-305 60,-305"/>
<text text-anchor="start" x="91" y="-311.2" font-family="Helvetica,sans-Serif" font-size="11.00">148 rows</text>
<polygon fill="#ffffff" stroke="none" points="143,-305 143,-323 248,-323 248,-305 143,-305"/>
<polygon fill="none" stroke="black" points="143,-305 143,-323 248,-323 248,-305 143,-305"/>
<text text-anchor="start" x="228" y="-311.2" font-family="Helvetica,sans-Serif" font-size="11.00">2 &gt;</text>
<polygon fill="none" stroke="black" stroke-width="2" points="9,-304 9,-500 249,-500 249,-304 9,-304"/>
</a>
</g>
</g>
<!-- core_task&#45;&gt;core_worker -->
<g id="edge8" class="edge"><title>core_task:worker_id:w&#45;&gt;core_worker:pulp_id.type:e</title>
<path fill="none" stroke="black" d="M308.738,-286.044C247.526,-306.039 330.862,-466 249,-466"/>
<polygon fill="black" stroke="black" points="315.081,-285.135 323.511,-287.564 319.04,-284.568 323,-284 323,-284 323,-284 319.04,-284.568 322.489,-280.436 315.081,-285.135 315.081,-285.135"/>
<ellipse fill="none" stroke="black" cx="311.913" cy="-285.589" rx="3.2" ry="3.2"/>
</g>
<!-- core_taskgroup -->
<g id="node9" class="node"><title>core_taskgroup</title>
<g id="a_node9"><a xlink:href="../../tables/core_taskgroup.html" xlink:title="core_taskgroup" target="_top">
<polygon fill="#ffffff" stroke="none" points="61.5,-213 61.5,-271 196.5,-271 196.5,-213 61.5,-213"/>
<polygon fill="#f5f5f5" stroke="none" points="62,-249 62,-271 197,-271 197,-249 62,-249"/>
<polygon fill="none" stroke="black" points="62,-249 62,-271 197,-271 197,-249 62,-249"/>
<text text-anchor="start" x="67" y="-258.2" font-family="Helvetica,sans-Serif" font-weight="bold" font-size="11.00">core_taskgroup</text>
<text text-anchor="start" x="158" y="-257.2" font-family="Helvetica,sans-Serif" font-size="11.00">[table]</text>
<polygon fill="none" stroke="black" points="62,-231 62,-249 197,-249 197,-231 62,-231"/>
<text text-anchor="start" x="65" y="-237.2" font-family="Helvetica,sans-Serif" font-size="11.00">...</text>
<polygon fill="#ffffff" stroke="none" points="62,-213 62,-231 100,-231 100,-213 62,-213"/>
<polygon fill="none" stroke="black" points="62,-213 62,-231 100,-231 100,-213 62,-213"/>
<text text-anchor="start" x="65" y="-219.2" font-family="Helvetica,sans-Serif" font-size="11.00"> &#160;</text>
<polygon fill="#ffffff" stroke="none" points="100,-213 100,-231 161,-231 161,-213 100,-213"/>
<polygon fill="none" stroke="black" points="100,-213 100,-231 161,-231 161,-213 100,-213"/>
<text text-anchor="start" x="115" y="-219.2" font-family="Helvetica,sans-Serif" font-size="11.00">26 rows</text>
<polygon fill="#ffffff" stroke="none" points="161,-213 161,-231 197,-231 197,-213 161,-213"/>
<polygon fill="none" stroke="black" points="161,-213 161,-231 197,-231 197,-213 161,-213"/>
<text text-anchor="start" x="177" y="-219.2" font-family="Helvetica,sans-Serif" font-size="11.00">2 &gt;</text>
</a>
</g>
</g>
<!-- core_task&#45;&gt;core_taskgroup -->
<g id="edge7" class="edge"><title>core_task:task_group_id:w&#45;&gt;core_taskgroup:elipses:e</title>
<path fill="none" stroke="black" d="M308.405,-240C264.474,-240 248.347,-240 198,-240"/>
<polygon fill="black" stroke="black" points="315,-240 323,-243.6 319,-240 323,-240 323,-240 323,-240 319,-240 323,-236.4 315,-240 315,-240"/>
<ellipse fill="none" stroke="black" cx="311.8" cy="-240" rx="3.2" ry="3.2"/>
</g>
<!-- core_createdresource -->
<g id="node3" class="node"><title>core_createdresource</title>
<g id="a_node3"><a xlink:href="../../tables/core_createdresource.html" xlink:title="core_createdresource" target="_top">
<polygon fill="#ffffff" stroke="none" points="559.5,-353 559.5,-411 731.5,-411 731.5,-353 559.5,-353"/>
<polygon fill="#f5f5f5" stroke="none" points="559.5,-389 559.5,-411 731.5,-411 731.5,-389 559.5,-389"/>
<polygon fill="none" stroke="black" points="559.5,-389 559.5,-411 731.5,-411 731.5,-389 559.5,-389"/>
<text text-anchor="start" x="564.5" y="-398.2" font-family="Helvetica,sans-Serif" font-weight="bold" font-size="11.00">core_createdresource</text>
<text text-anchor="start" x="692.5" y="-397.2" font-family="Helvetica,sans-Serif" font-size="11.00">[table]</text>
<polygon fill="none" stroke="black" points="559.5,-371 559.5,-389 731.5,-389 731.5,-371 559.5,-371"/>
<text text-anchor="start" x="562.5" y="-377.2" font-family="Helvetica,sans-Serif" font-size="11.00">...</text>
<polygon fill="#ffffff" stroke="none" points="559.5,-353 559.5,-371 622.5,-371 622.5,-353 559.5,-353"/>
<polygon fill="none" stroke="black" points="559.5,-353 559.5,-371 622.5,-371 622.5,-353 559.5,-353"/>
<text text-anchor="start" x="562.5" y="-359.2" font-family="Helvetica,sans-Serif" font-size="11.00">&lt; 2</text>
<polygon fill="#ffffff" stroke="none" points="622.5,-353 622.5,-371 697.5,-371 697.5,-353 622.5,-353"/>
<polygon fill="none" stroke="black" points="622.5,-353 622.5,-371 697.5,-371 697.5,-353 622.5,-353"/>
<text text-anchor="start" x="645.5" y="-359.2" font-family="Helvetica,sans-Serif" font-size="11.00">365 rows</text>
<polygon fill="#ffffff" stroke="none" points="697.5,-353 697.5,-371 731.5,-371 731.5,-353 697.5,-353"/>
<polygon fill="none" stroke="black" points="697.5,-353 697.5,-371 731.5,-371 731.5,-353 697.5,-353"/>
<text text-anchor="start" x="721.5" y="-359.2" font-family="Helvetica,sans-Serif" font-size="11.00"> &#160;</text>
</a>
</g>
</g>
<!-- core_createdresource&#45;&gt;core_task -->
<g id="edge2" class="edge"><title>core_createdresource:elipses:w&#45;&gt;core_task:pulp_id:e</title>
<path fill="none" stroke="black" d="M544.131,-378.171C502.755,-366.775 505.575,-306 454,-306"/>
<polygon fill="black" stroke="black" points="550.564,-378.99 558.045,-383.571 554.532,-379.495 558.5,-380 558.5,-380 558.5,-380 554.532,-379.495 558.955,-376.429 550.564,-378.99 550.564,-378.99"/>
<ellipse fill="none" stroke="black" cx="547.39" cy="-378.586" rx="3.2" ry="3.2"/>
</g>
<!-- core_export -->
<g id="node4" class="node"><title>core_export</title>
<g id="a_node4"><a xlink:href="../../tables/core_export.html" xlink:title="core_export" target="_top">
<polygon fill="#ffffff" stroke="none" points="587.5,-274 587.5,-332 703.5,-332 703.5,-274 587.5,-274"/>
<polygon fill="#f5f5f5" stroke="none" points="587.5,-310 587.5,-332 703.5,-332 703.5,-310 587.5,-310"/>
<polygon fill="none" stroke="black" points="587.5,-310 587.5,-332 703.5,-332 703.5,-310 587.5,-310"/>
<text text-anchor="start" x="592.5" y="-319.2" font-family="Helvetica,sans-Serif" font-weight="bold" font-size="11.00">core_export</text>
<text text-anchor="start" x="664.5" y="-318.2" font-family="Helvetica,sans-Serif" font-size="11.00">[table]</text>
<polygon fill="none" stroke="black" points="587.5,-292 587.5,-310 703.5,-310 703.5,-292 587.5,-292"/>
<text text-anchor="start" x="590.5" y="-298.2" font-family="Helvetica,sans-Serif" font-size="11.00">...</text>
<polygon fill="#ffffff" stroke="none" points="587.5,-274 587.5,-292 624.5,-292 624.5,-274 587.5,-274"/>
<polygon fill="none" stroke="black" points="587.5,-274 587.5,-292 624.5,-292 624.5,-274 587.5,-274"/>
<text text-anchor="start" x="590.5" y="-280.2" font-family="Helvetica,sans-Serif" font-size="11.00">&lt; 2</text>
<polygon fill="#ffffff" stroke="none" points="624.5,-274 624.5,-292 673.5,-292 673.5,-274 624.5,-274"/>
<polygon fill="none" stroke="black" points="624.5,-274 624.5,-292 673.5,-292 673.5,-274 624.5,-274"/>
<text text-anchor="start" x="634.5" y="-280.2" font-family="Helvetica,sans-Serif" font-size="11.00">0 rows</text>
<polygon fill="#ffffff" stroke="none" points="673.5,-274 673.5,-292 703.5,-292 703.5,-274 673.5,-274"/>
<polygon fill="none" stroke="black" points="673.5,-274 673.5,-292 703.5,-292 703.5,-274 673.5,-274"/>
<text text-anchor="start" x="683.5" y="-280.2" font-family="Helvetica,sans-Serif" font-size="11.00">2 &gt;</text>
</a>
</g>
</g>
<!-- core_export&#45;&gt;core_task -->
<g id="edge3" class="edge"><title>core_export:elipses:w&#45;&gt;core_task:pulp_id:e</title>
<path fill="none" stroke="black" d="M571.928,-301.109C524.654,-301.84 507.751,-306 454,-306"/>
<polygon fill="black" stroke="black" points="578.5,-301.06 586.527,-304.6 582.5,-301.03 586.5,-301 586.5,-301 586.5,-301 582.5,-301.03 586.473,-297.4 578.5,-301.06 578.5,-301.06"/>
<ellipse fill="none" stroke="black" cx="575.3" cy="-301.084" rx="3.2" ry="3.2"/>
</g>
<!-- core_import -->
<g id="node5" class="node"><title>core_import</title>
<g id="a_node5"><a xlink:href="../../tables/core_import.html" xlink:title="core_import" target="_top">
<polygon fill="#ffffff" stroke="none" points="586.5,-195 586.5,-253 704.5,-253 704.5,-195 586.5,-195"/>
<polygon fill="#f5f5f5" stroke="none" points="586.5,-231 586.5,-253 704.5,-253 704.5,-231 586.5,-231"/>
<polygon fill="none" stroke="black" points="586.5,-231 586.5,-253 704.5,-253 704.5,-231 586.5,-231"/>
<text text-anchor="start" x="591.5" y="-240.2" font-family="Helvetica,sans-Serif" font-weight="bold" font-size="11.00">core_import</text>
<text text-anchor="start" x="665.5" y="-239.2" font-family="Helvetica,sans-Serif" font-size="11.00">[table]</text>
<polygon fill="none" stroke="black" points="586.5,-213 586.5,-231 704.5,-231 704.5,-213 586.5,-213"/>
<text text-anchor="start" x="589.5" y="-219.2" font-family="Helvetica,sans-Serif" font-size="11.00">...</text>
<polygon fill="#ffffff" stroke="none" points="586.5,-195 586.5,-213 624.5,-213 624.5,-195 586.5,-195"/>
<polygon fill="none" stroke="black" points="586.5,-195 586.5,-213 624.5,-213 624.5,-195 586.5,-195"/>
<text text-anchor="start" x="589.5" y="-201.2" font-family="Helvetica,sans-Serif" font-size="11.00">&lt; 2</text>
<polygon fill="#ffffff" stroke="none" points="624.5,-195 624.5,-213 673.5,-213 673.5,-195 624.5,-195"/>
<polygon fill="none" stroke="black" points="624.5,-195 624.5,-213 673.5,-213 673.5,-195 624.5,-195"/>
<text text-anchor="start" x="634.5" y="-201.2" font-family="Helvetica,sans-Serif" font-size="11.00">0 rows</text>
<polygon fill="#ffffff" stroke="none" points="673.5,-195 673.5,-213 704.5,-213 704.5,-195 673.5,-195"/>
<polygon fill="none" stroke="black" points="673.5,-195 673.5,-213 704.5,-213 704.5,-195 673.5,-195"/>
<text text-anchor="start" x="684.5" y="-201.2" font-family="Helvetica,sans-Serif" font-size="11.00">1 &gt;</text>
</a>
</g>
</g>
<!-- core_import&#45;&gt;core_task -->
<g id="edge4" class="edge"><title>core_import:elipses:w&#45;&gt;core_task:pulp_id:e</title>
<path fill="none" stroke="black" d="M571.12,-223.58C548.75,-229.083 543.12,-247.945 518,-264 489.332,-282.322 488.023,-306 454,-306"/>
<polygon fill="black" stroke="black" points="577.548,-222.874 585.893,-225.578 581.524,-222.437 585.5,-222 585.5,-222 585.5,-222 581.524,-222.437 585.107,-218.422 577.548,-222.874 577.548,-222.874"/>
<ellipse fill="none" stroke="black" cx="574.367" cy="-223.223" rx="3.2" ry="3.2"/>
</g>
<!-- core_progressreport -->
<g id="node6" class="node"><title>core_progressreport</title>
<g id="a_node6"><a xlink:href="../../tables/core_progressreport.html" xlink:title="core_progressreport" target="_top">
<polygon fill="#ffffff" stroke="none" points="564,-116 564,-174 727,-174 727,-116 564,-116"/>
<polygon fill="#f5f5f5" stroke="none" points="564.5,-152 564.5,-174 727.5,-174 727.5,-152 564.5,-152"/>
<polygon fill="none" stroke="black" points="564.5,-152 564.5,-174 727.5,-174 727.5,-152 564.5,-152"/>
<text text-anchor="start" x="569.5" y="-161.2" font-family="Helvetica,sans-Serif" font-weight="bold" font-size="11.00">core_progressreport</text>
<text text-anchor="start" x="688.5" y="-160.2" font-family="Helvetica,sans-Serif" font-size="11.00">[table]</text>
<polygon fill="none" stroke="black" points="564.5,-134 564.5,-152 727.5,-152 727.5,-134 564.5,-134"/>
<text text-anchor="start" x="567.5" y="-140.2" font-family="Helvetica,sans-Serif" font-size="11.00">...</text>
<polygon fill="#ffffff" stroke="none" points="564.5,-116 564.5,-134 626.5,-134 626.5,-116 564.5,-116"/>
<polygon fill="none" stroke="black" points="564.5,-116 564.5,-134 626.5,-134 626.5,-116 564.5,-116"/>
<text text-anchor="start" x="567.5" y="-122.2" font-family="Helvetica,sans-Serif" font-size="11.00">&lt; 1</text>
<polygon fill="#ffffff" stroke="none" points="626.5,-116 626.5,-134 694.5,-134 694.5,-116 626.5,-116"/>
<polygon fill="none" stroke="black" points="626.5,-116 626.5,-134 694.5,-134 694.5,-116 626.5,-116"/>
<text text-anchor="start" x="648.5" y="-122.2" font-family="Helvetica,sans-Serif" font-size="11.00">53 rows</text>
<polygon fill="#ffffff" stroke="none" points="694.5,-116 694.5,-134 727.5,-134 727.5,-116 694.5,-116"/>
<polygon fill="none" stroke="black" points="694.5,-116 694.5,-134 727.5,-134 727.5,-116 694.5,-116"/>
<text text-anchor="start" x="717.5" y="-122.2" font-family="Helvetica,sans-Serif" font-size="11.00"> &#160;</text>
</a>
</g>
</g>
<!-- core_progressreport&#45;&gt;core_task -->
<g id="edge5" class="edge"><title>core_progressreport:elipses:w&#45;&gt;core_task:pulp_id:e</title>
<path fill="none" stroke="black" d="M548.847,-144.831C483.762,-162.738 535.819,-306 454,-306"/>
<polygon fill="black" stroke="black" points="555.562,-143.992 563.946,-146.572 559.531,-143.496 563.5,-143 563.5,-143 563.5,-143 559.531,-143.496 563.054,-139.428 555.562,-143.992 555.562,-143.992"/>
<ellipse fill="none" stroke="black" cx="552.386" cy="-144.388" rx="3.2" ry="3.2"/>
</g>
<!-- core_reservedresource -->
<g id="node7" class="node"><title>core_reservedresource</title>
<g id="a_node7"><a xlink:href="../../tables/core_reservedresource.html" xlink:title="core_reservedresource" target="_top">
<polygon fill="#ffffff" stroke="none" points="299,-441 299,-565 477,-565 477,-441 299,-441"/>
<polygon fill="#f5f5f5" stroke="none" points="299,-543 299,-565 477,-565 477,-543 299,-543"/>
<polygon fill="none" stroke="black" points="299,-543 299,-565 477,-565 477,-543 299,-543"/>
<text text-anchor="start" x="304" y="-552.2" font-family="Helvetica,sans-Serif" font-weight="bold" font-size="11.00">core_reservedresource</text>
<text text-anchor="start" x="438" y="-551.2" font-family="Helvetica,sans-Serif" font-size="11.00">[table]</text>
<polygon fill="none" stroke="black" points="299,-521 299,-543 477,-543 477,-521 299,-521"/>
<image xlink:href="../../images/primaryKeys.png" width="11px" height="12px" preserveAspectRatio="xMinYMin meet" x="304" y="-538"/>
<text text-anchor="start" x="330" y="-529.2" font-family="Helvetica,sans-Serif" font-size="11.00">pulp_id</text>
<polygon fill="#ffffff" stroke="none" points="299,-499 299,-521 477,-521 477,-499 299,-499"/>
<polygon fill="none" stroke="black" points="299,-499 299,-521 477,-521 477,-499 299,-499"/>
<text text-anchor="start" x="330" y="-507.2" font-family="Helvetica,sans-Serif" font-size="11.00">resource</text>
<polygon fill="#ffffff" stroke="none" points="299,-477 299,-499 477,-499 477,-477 299,-477"/>
<polygon fill="none" stroke="black" points="299,-477 299,-499 477,-499 477,-477 299,-477"/>
<image xlink:href="../../images/foreignKeys.png" width="11px" height="12px" preserveAspectRatio="xMinYMin meet" x="304" y="-494"/>
<text text-anchor="start" x="330" y="-485.2" font-family="Helvetica,sans-Serif" font-size="11.00">worker_id</text>
<polygon fill="none" stroke="black" points="299,-459 299,-477 477,-477 477,-459 299,-459"/>
<text text-anchor="start" x="302" y="-465.2" font-family="Helvetica,sans-Serif" font-size="11.00">...</text>
<polygon fill="#ffffff" stroke="none" points="299,-441 299,-459 367,-459 367,-441 299,-441"/>
<polygon fill="none" stroke="black" points="299,-441 299,-459 367,-459 367,-441 299,-441"/>
<text text-anchor="start" x="302" y="-447.2" font-family="Helvetica,sans-Serif" font-size="11.00">&lt; 1</text>
<polygon fill="#ffffff" stroke="none" points="367,-441 367,-459 431,-459 431,-441 367,-441"/>
<polygon fill="none" stroke="black" points="367,-441 367,-459 431,-459 431,-441 367,-441"/>
<text text-anchor="start" x="392" y="-447.2" font-family="Helvetica,sans-Serif" font-size="11.00">0 rows</text>
<polygon fill="#ffffff" stroke="none" points="431,-441 431,-459 477,-459 477,-441 431,-441"/>
<polygon fill="none" stroke="black" points="431,-441 431,-459 477,-459 477,-441 431,-441"/>
<text text-anchor="start" x="457" y="-447.2" font-family="Helvetica,sans-Serif" font-size="11.00">1 &gt;</text>
</a>
</g>
</g>
<!-- core_reservedresource&#45;&gt;core_worker -->
<g id="edge6" class="edge"><title>core_reservedresource:worker_id:w&#45;&gt;core_worker:pulp_id.type:e</title>
<path fill="none" stroke="black" d="M283.63,-484.562C272.086,-478.375 266.904,-466 249,-466"/>
<polygon fill="black" stroke="black" points="290.22,-486.139 297.162,-491.501 294.11,-487.069 298,-488 298,-488 298,-488 294.11,-487.069 298.838,-484.499 290.22,-486.139 290.22,-486.139"/>
<ellipse fill="none" stroke="black" cx="287.107" cy="-485.394" rx="3.2" ry="3.2"/>
</g>
<!-- core_taskreservedresource -->
<g id="node10" class="node"><title>core_taskreservedresource</title>
<g id="a_node10"><a xlink:href="../../tables/core_taskreservedresource.html" xlink:title="core_taskreservedresource" target="_top">
<polygon fill="#ffffff" stroke="none" points="544.5,-511 544.5,-569 746.5,-569 746.5,-511 544.5,-511"/>
<polygon fill="#f5f5f5" stroke="none" points="544.5,-547 544.5,-569 746.5,-569 746.5,-547 544.5,-547"/>
<polygon fill="none" stroke="black" points="544.5,-547 544.5,-569 746.5,-569 746.5,-547 544.5,-547"/>
<text text-anchor="start" x="549.5" y="-556.2" font-family="Helvetica,sans-Serif" font-weight="bold" font-size="11.00">core_taskreservedresource</text>
<text text-anchor="start" x="707.5" y="-555.2" font-family="Helvetica,sans-Serif" font-size="11.00">[table]</text>
<polygon fill="none" stroke="black" points="544.5,-529 544.5,-547 746.5,-547 746.5,-529 544.5,-529"/>
<text text-anchor="start" x="547.5" y="-535.2" font-family="Helvetica,sans-Serif" font-size="11.00">...</text>
<polygon fill="#ffffff" stroke="none" points="544.5,-511 544.5,-529 629.5,-529 629.5,-511 544.5,-511"/>
<polygon fill="none" stroke="black" points="544.5,-511 544.5,-529 629.5,-529 629.5,-511 544.5,-511"/>
<text text-anchor="start" x="547.5" y="-517.2" font-family="Helvetica,sans-Serif" font-size="11.00">&lt; 2</text>
<polygon fill="#ffffff" stroke="none" points="629.5,-511 629.5,-529 702.5,-529 702.5,-511 629.5,-511"/>
<polygon fill="none" stroke="black" points="629.5,-511 629.5,-529 702.5,-529 702.5,-511 629.5,-511"/>
<text text-anchor="start" x="663.5" y="-517.2" font-family="Helvetica,sans-Serif" font-size="11.00">0 rows</text>
<polygon fill="#ffffff" stroke="none" points="702.5,-511 702.5,-529 746.5,-529 746.5,-511 702.5,-511"/>
<polygon fill="none" stroke="black" points="702.5,-511 702.5,-529 746.5,-529 746.5,-511 702.5,-511"/>
<text text-anchor="start" x="736.5" y="-517.2" font-family="Helvetica,sans-Serif" font-size="11.00"> &#160;</text>
</a>
</g>
</g>
<!-- core_taskreservedresource&#45;&gt;core_task -->
<g id="edge10" class="edge"><title>core_taskreservedresource:elipses:w&#45;&gt;core_task:pulp_id:e</title>
<path fill="none" stroke="black" d="M528.986,-536.395C445.25,-515.897 559.121,-306 454,-306"/>
<polygon fill="black" stroke="black" points="535.548,-537.12 543.104,-541.578 539.524,-537.56 543.5,-538 543.5,-538 543.5,-538 539.524,-537.56 543.896,-534.422 535.548,-537.12 535.548,-537.12"/>
<ellipse fill="none" stroke="black" cx="532.368" cy="-536.769" rx="3.2" ry="3.2"/>
</g>
<!-- core_taskreservedresource&#45;&gt;core_reservedresource -->
<g id="edge9" class="edge"><title>core_taskreservedresource:elipses:w&#45;&gt;core_reservedresource:pulp_id:e</title>
<path fill="none" stroke="black" d="M529.105,-537.446C510.849,-535.961 501.752,-532 478,-532"/>
<polygon fill="black" stroke="black" points="535.506,-537.692 543.362,-541.597 539.503,-537.846 543.5,-538 543.5,-538 543.5,-538 539.503,-537.846 543.638,-534.403 535.506,-537.692 535.506,-537.692"/>
<ellipse fill="none" stroke="black" cx="532.308" cy="-537.569" rx="3.2" ry="3.2"/>
</g>
<!-- core_taskreservedresourcerecord -->
<g id="node11" class="node"><title>core_taskreservedresourcerecord</title>
<g id="a_node11"><a xlink:href="../../tables/core_taskreservedresourcerecord.html" xlink:title="core_taskreservedresourcerecord" target="_top">
<polygon fill="#ffffff" stroke="none" points="526,-37 526,-95 765,-95 765,-37 526,-37"/>
<polygon fill="#f5f5f5" stroke="none" points="526.5,-73 526.5,-95 765.5,-95 765.5,-73 526.5,-73"/>
<polygon fill="none" stroke="black" points="526.5,-73 526.5,-95 765.5,-95 765.5,-73 526.5,-73"/>
<text text-anchor="start" x="531.5" y="-82.2" font-family="Helvetica,sans-Serif" font-weight="bold" font-size="11.00">core_taskreservedresourcerecord</text>
<text text-anchor="start" x="726.5" y="-81.2" font-family="Helvetica,sans-Serif" font-size="11.00">[table]</text>
<polygon fill="none" stroke="black" points="526.5,-55 526.5,-73 765.5,-73 765.5,-55 526.5,-55"/>
<text text-anchor="start" x="529.5" y="-61.2" font-family="Helvetica,sans-Serif" font-size="11.00">...</text>
<polygon fill="#ffffff" stroke="none" points="526.5,-37 526.5,-55 618.5,-55 618.5,-37 526.5,-37"/>
<polygon fill="none" stroke="black" points="526.5,-37 526.5,-55 618.5,-55 618.5,-37 526.5,-37"/>
<text text-anchor="start" x="529.5" y="-43.2" font-family="Helvetica,sans-Serif" font-size="11.00">&lt; 2</text>
<polygon fill="#ffffff" stroke="none" points="618.5,-37 618.5,-55 717.5,-55 717.5,-37 618.5,-37"/>
<polygon fill="none" stroke="black" points="618.5,-37 618.5,-55 717.5,-55 717.5,-37 618.5,-37"/>
<text text-anchor="start" x="655.5" y="-43.2" font-family="Helvetica,sans-Serif" font-size="11.00">1,937 rows</text>
<polygon fill="#ffffff" stroke="none" points="717.5,-37 717.5,-55 765.5,-55 765.5,-37 717.5,-37"/>
<polygon fill="none" stroke="black" points="717.5,-37 717.5,-55 765.5,-55 765.5,-37 717.5,-37"/>
<text text-anchor="start" x="755.5" y="-43.2" font-family="Helvetica,sans-Serif" font-size="11.00"> &#160;</text>
</a>
</g>
</g>
<!-- core_taskreservedresourcerecord&#45;&gt;core_task -->
<g id="edge11" class="edge"><title>core_taskreservedresourcerecord:elipses:w&#45;&gt;core_task:pulp_id:e</title>
<path fill="none" stroke="black" d="M511.162,-65.6093C427.365,-86.606 560.785,-306 454,-306"/>
<polygon fill="black" stroke="black" points="517.55,-64.8924 525.902,-67.5775 521.525,-64.4462 525.5,-64 525.5,-64 525.5,-64 521.525,-64.4462 525.098,-60.4225 517.55,-64.8924 517.55,-64.8924"/>
<ellipse fill="none" stroke="black" cx="514.37" cy="-65.2494" rx="3.2" ry="3.2"/>
</g>
</g>
</svg>
