<?xml version="1.0" encoding="UTF-8" standalone="no"?>
<!DOCTYPE svg PUBLIC "-//W3C//DTD SVG 1.1//EN"
 "http://www.w3.org/Graphics/SVG/1.1/DTD/svg11.dtd">
<!-- Generated by graphviz version 2.38.0 (20140413.2041)
 -->
<!-- Title: twoDegreesRelationshipsDiagram Pages: 1 -->
<svg width="708pt" height="273pt"
 viewBox="0.00 0.00 708.00 273.00" xmlns="http://www.w3.org/2000/svg" xmlns:xlink="http://www.w3.org/1999/xlink">
<g id="graph0" class="graph" transform="scale(1 1) rotate(0) translate(4 269)">
<title>twoDegreesRelationshipsDiagram</title>
<polygon fill="#ffffff" stroke="none" points="-4,4 -4,-269 704,-269 704,4 -4,4"/>
<text text-anchor="middle" x="74.5" y="-7.2" font-family="Helvetica,sans-Serif" font-size="11.00">Generated by SchemaSpy</text>
<!-- core_import -->
<g id="node1" class="node"><title>core_import</title>
<g id="a_node1"><a xlink:href="../../tables/core_import.html" xlink:title="core_import" target="_top">
<polygon fill="#ffffff" stroke="none" points="248.5,-203 248.5,-261 366.5,-261 366.5,-203 248.5,-203"/>
<polygon fill="#f5f5f5" stroke="none" points="248.5,-239 248.5,-261 366.5,-261 366.5,-239 248.5,-239"/>
<polygon fill="none" stroke="black" points="248.5,-239 248.5,-261 366.5,-261 366.5,-239 248.5,-239"/>
<text text-anchor="start" x="253.5" y="-248.2" font-family="Helvetica,sans-Serif" font-weight="bold" font-size="11.00">core_import</text>
<text text-anchor="start" x="327.5" y="-247.2" font-family="Helvetica,sans-Serif" font-size="11.00">[table]</text>
<polygon fill="none" stroke="black" points="248.5,-221 248.5,-239 366.5,-239 366.5,-221 248.5,-221"/>
<text text-anchor="start" x="251.5" y="-227.2" font-family="Helvetica,sans-Serif" font-size="11.00">...</text>
<polygon fill="#ffffff" stroke="none" points="248.5,-203 248.5,-221 286.5,-221 286.5,-203 248.5,-203"/>
<polygon fill="none" stroke="black" points="248.5,-203 248.5,-221 286.5,-221 286.5,-203 248.5,-203"/>
<text text-anchor="start" x="251.5" y="-209.2" font-family="Helvetica,sans-Serif" font-size="11.00">&lt; 2</text>
<polygon fill="#ffffff" stroke="none" points="286.5,-203 286.5,-221 335.5,-221 335.5,-203 286.5,-203"/>
<polygon fill="none" stroke="black" points="286.5,-203 286.5,-221 335.5,-221 335.5,-203 286.5,-203"/>
<text text-anchor="start" x="296.5" y="-209.2" font-family="Helvetica,sans-Serif" font-size="11.00">0 rows</text>
<polygon fill="#ffffff" stroke="none" points="335.5,-203 335.5,-221 366.5,-221 366.5,-203 335.5,-203"/>
<polygon fill="none" stroke="black" points="335.5,-203 335.5,-221 366.5,-221 366.5,-203 335.5,-203"/>
<text text-anchor="start" x="346.5" y="-209.2" font-family="Helvetica,sans-Serif" font-size="11.00">1 &gt;</text>
</a>
</g>
</g>
<!-- core_importer -->
<g id="node2" class="node"><title>core_importer</title>
<g id="a_node2"><a xlink:href="../../tables/core_importer.html" xlink:title="core_importer" target="_top">
<polygon fill="#ffffff" stroke="none" points="8,-80 8,-182 138,-182 138,-80 8,-80"/>
<polygon fill="#f5f5f5" stroke="none" points="8,-160 8,-182 138,-182 138,-160 8,-160"/>
<polygon fill="none" stroke="black" points="8,-160 8,-182 138,-182 138,-160 8,-160"/>
<text text-anchor="start" x="13" y="-169.2" font-family="Helvetica,sans-Serif" font-weight="bold" font-size="11.00">core_importer</text>
<text text-anchor="start" x="99" y="-168.2" font-family="Helvetica,sans-Serif" font-size="11.00">[table]</text>
<polygon fill="none" stroke="black" points="8,-138 8,-160 138,-160 138,-138 8,-138"/>
<image xlink:href="../../images/primaryKeys.png" width="11px" height="12px" preserveAspectRatio="xMinYMin meet" x="13" y="-155"/>
<text text-anchor="start" x="29" y="-146.2" font-family="Helvetica,sans-Serif" font-size="11.00">pulp_id</text>
<polygon fill="#ffffff" stroke="none" points="8,-116 8,-138 138,-138 138,-116 8,-116"/>
<polygon fill="none" stroke="black" points="8,-116 8,-138 138,-138 138,-116 8,-116"/>
<text text-anchor="start" x="29" y="-124.2" font-family="Helvetica,sans-Serif" font-size="11.00">name</text>
<polygon fill="none" stroke="black" points="8,-98 8,-116 138,-116 138,-98 8,-98"/>
<text text-anchor="start" x="11" y="-104.2" font-family="Helvetica,sans-Serif" font-size="11.00">...</text>
<polygon fill="#ffffff" stroke="none" points="8,-80 8,-98 47,-98 47,-80 8,-80"/>
<polygon fill="none" stroke="black" points="8,-80 8,-98 47,-98 47,-80 8,-80"/>
<text text-anchor="start" x="11" y="-86.2" font-family="Helvetica,sans-Serif" font-size="11.00"> &#160;</text>
<polygon fill="#ffffff" stroke="none" points="47,-80 47,-98 102,-98 102,-80 47,-80"/>
<polygon fill="none" stroke="black" points="47,-80 47,-98 102,-98 102,-80 47,-80"/>
<text text-anchor="start" x="63" y="-86.2" font-family="Helvetica,sans-Serif" font-size="11.00">0 rows</text>
<polygon fill="#ffffff" stroke="none" points="102,-80 102,-98 138,-98 138,-80 102,-80"/>
<polygon fill="none" stroke="black" points="102,-80 102,-98 138,-98 138,-80 102,-80"/>
<text text-anchor="start" x="118" y="-86.2" font-family="Helvetica,sans-Serif" font-size="11.00">2 &gt;</text>
</a>
</g>
</g>
<!-- core_import&#45;&gt;core_importer -->
<g id="edge1" class="edge"><title>core_import:elipses:w&#45;&gt;core_importer:pulp_id:e</title>
<path fill="none" stroke="black" d="M233.142,-228.89C210.317,-224.964 201.99,-210.995 179,-193 158.188,-176.71 165.429,-149 139,-149"/>
<polygon fill="black" stroke="black" points="239.524,-229.383 247.223,-233.589 243.512,-229.692 247.5,-230 247.5,-230 247.5,-230 243.512,-229.692 247.777,-226.411 239.524,-229.383 239.524,-229.383"/>
<ellipse fill="none" stroke="black" cx="236.333" cy="-229.137" rx="3.2" ry="3.2"/>
</g>
<!-- core_pulpimporter -->
<g id="node3" class="node"><title>core_pulpimporter</title>
<g id="a_node3"><a xlink:href="../../tables/core_pulpimporter.html" xlink:title="core_pulpimporter" target="_top">
<polygon fill="#ffffff" stroke="none" points="187,-37 187,-103 428,-103 428,-37 187,-37"/>
<polygon fill="#f5f5f5" stroke="none" points="189.5,-79 189.5,-101 426.5,-101 426.5,-79 189.5,-79"/>
<polygon fill="none" stroke="black" points="189.5,-79 189.5,-101 426.5,-101 426.5,-79 189.5,-79"/>
<text text-anchor="start" x="194.5" y="-88.2" font-family="Helvetica,sans-Serif" font-weight="bold" font-size="11.00">core_pulpimporter</text>
<text text-anchor="start" x="387.5" y="-87.2" font-family="Helvetica,sans-Serif" font-size="11.00">[table]</text>
<polygon fill="none" stroke="black" points="189.5,-57 189.5,-79 321.5,-79 321.5,-57 189.5,-57"/>
<image xlink:href="../../images/primaryKeys.png" width="11px" height="12px" preserveAspectRatio="xMinYMin meet" x="194.5" y="-74"/>
<text text-anchor="start" x="209.5" y="-65.2" font-family="Helvetica,sans-Serif" font-size="11.00">importer_ptr_id</text>
<polygon fill="none" stroke="black" points="321.5,-57 321.5,-79 426.5,-79 426.5,-57 321.5,-57"/>
<text text-anchor="start" x="324.5" y="-65.2" font-family="Helvetica,sans-Serif" font-size="11.00">uuid[2147483647]</text>
<polygon fill="#ffffff" stroke="none" points="189.5,-39 189.5,-57 245.5,-57 245.5,-39 189.5,-39"/>
<polygon fill="none" stroke="black" points="189.5,-39 189.5,-57 245.5,-57 245.5,-39 189.5,-39"/>
<text text-anchor="start" x="192.5" y="-45.2" font-family="Helvetica,sans-Serif" font-size="11.00">&lt; 1</text>
<polygon fill="#ffffff" stroke="none" points="245.5,-39 245.5,-57 321.5,-57 321.5,-39 245.5,-39"/>
<polygon fill="none" stroke="black" points="245.5,-39 245.5,-57 321.5,-57 321.5,-39 245.5,-39"/>
<text text-anchor="start" x="282.5" y="-45.2" font-family="Helvetica,sans-Serif" font-size="11.00">0 rows</text>
<polygon fill="#ffffff" stroke="none" points="321.5,-39 321.5,-57 426.5,-57 426.5,-39 321.5,-39"/>
<polygon fill="none" stroke="black" points="321.5,-39 321.5,-57 426.5,-57 426.5,-39 321.5,-39"/>
<text text-anchor="start" x="406.5" y="-45.2" font-family="Helvetica,sans-Serif" font-size="11.00">1 &gt;</text>
<polygon fill="none" stroke="black" stroke-width="2" points="188,-38 188,-102 427,-102 427,-38 188,-38"/>
</a>
</g>
</g>
<!-- core_pulpimporter&#45;&gt;core_importer -->
<g id="edge2" class="edge"><title>core_pulpimporter:importer_ptr_id:w&#45;&gt;core_importer:pulp_id:e</title>
<path fill="none" stroke="black" d="M178.201,-70.1666C152.387,-83.0478 177.07,-149 139,-149"/>
<polygon fill="black" stroke="black" points="186.894,-64.2504 188.541,-72.079 186.975,-72.4084 185.328,-64.5798 186.894,-64.2504"/>
<polyline fill="none" stroke="black" points="188.5,-68 184.586,-68.8235 "/>
<ellipse fill="none" stroke="black" cx="181.454" cy="-69.4823" rx="3.20001" ry="3.20001"/>
</g>
<!-- core_pulpimporterrepository -->
<g id="node4" class="node"><title>core_pulpimporterrepository</title>
<g id="a_node4"><a xlink:href="../../tables/core_pulpimporterrepository.html" xlink:title="core_pulpimporterrepository" target="_top">
<polygon fill="#ffffff" stroke="none" points="477,-51 477,-175 692,-175 692,-51 477,-51"/>
<polygon fill="#f5f5f5" stroke="none" points="477.5,-153 477.5,-175 692.5,-175 692.5,-153 477.5,-153"/>
<polygon fill="none" stroke="black" points="477.5,-153 477.5,-175 692.5,-175 692.5,-153 477.5,-153"/>
<text text-anchor="start" x="482.5" y="-162.2" font-family="Helvetica,sans-Serif" font-weight="bold" font-size="11.00">core_pulpimporterrepository</text>
<text text-anchor="start" x="653.5" y="-161.2" font-family="Helvetica,sans-Serif" font-size="11.00">[table]</text>
<polygon fill="none" stroke="black" points="477.5,-131 477.5,-153 692.5,-153 692.5,-131 477.5,-131"/>
<image xlink:href="../../images/primaryKeys.png" width="11px" height="12px" preserveAspectRatio="xMinYMin meet" x="482.5" y="-148"/>
<text text-anchor="start" x="508.5" y="-139.2" font-family="Helvetica,sans-Serif" font-size="11.00">pulp_id</text>
<polygon fill="#ffffff" stroke="none" points="477.5,-109 477.5,-131 692.5,-131 692.5,-109 477.5,-109"/>
<polygon fill="none" stroke="black" points="477.5,-109 477.5,-131 692.5,-131 692.5,-109 477.5,-109"/>
<image xlink:href="../../images/foreignKeys.png" width="11px" height="12px" preserveAspectRatio="xMinYMin meet" x="482.5" y="-126"/>
<text text-anchor="start" x="508.5" y="-117.2" font-family="Helvetica,sans-Serif" font-size="11.00">repository_id</text>
<polygon fill="#ffffff" stroke="none" points="477.5,-87 477.5,-109 692.5,-109 692.5,-87 477.5,-87"/>
<polygon fill="none" stroke="black" points="477.5,-87 477.5,-109 692.5,-109 692.5,-87 477.5,-87"/>
<image xlink:href="../../images/foreignKeys.png" width="11px" height="12px" preserveAspectRatio="xMinYMin meet" x="482.5" y="-104"/>
<text text-anchor="start" x="508.5" y="-95.2" font-family="Helvetica,sans-Serif" font-size="11.00">pulp_importer_id</text>
<polygon fill="none" stroke="black" points="477.5,-69 477.5,-87 692.5,-87 692.5,-69 477.5,-69"/>
<text text-anchor="start" x="480.5" y="-75.2" font-family="Helvetica,sans-Serif" font-size="11.00">...</text>
<polygon fill="#ffffff" stroke="none" points="477.5,-51 477.5,-69 568.5,-69 568.5,-51 477.5,-51"/>
<polygon fill="none" stroke="black" points="477.5,-51 477.5,-69 568.5,-69 568.5,-51 477.5,-51"/>
<text text-anchor="start" x="480.5" y="-57.2" font-family="Helvetica,sans-Serif" font-size="11.00">&lt; 2</text>
<polygon fill="#ffffff" stroke="none" points="568.5,-51 568.5,-69 644.5,-69 644.5,-51 568.5,-51"/>
<polygon fill="none" stroke="black" points="568.5,-51 568.5,-69 644.5,-69 644.5,-51 568.5,-51"/>
<text text-anchor="start" x="605.5" y="-57.2" font-family="Helvetica,sans-Serif" font-size="11.00">0 rows</text>
<polygon fill="#ffffff" stroke="none" points="644.5,-51 644.5,-69 692.5,-69 692.5,-51 644.5,-51"/>
<polygon fill="none" stroke="black" points="644.5,-51 644.5,-69 692.5,-69 692.5,-51 644.5,-51"/>
<text text-anchor="start" x="682.5" y="-57.2" font-family="Helvetica,sans-Serif" font-size="11.00"> &#160;</text>
</a>
</g>
</g>
<!-- core_pulpimporterrepository&#45;&gt;core_pulpimporter -->
<g id="edge3" class="edge"><title>core_pulpimporterrepository:pulp_importer_id:w&#45;&gt;core_pulpimporter:importer_ptr_id.type:e</title>
<path fill="none" stroke="black" d="M462.384,-93.8286C450.419,-85.5854 447.05,-68 427.5,-68"/>
<polygon fill="black" stroke="black" points="468.828,-95.7328 475.48,-101.452 472.664,-96.8664 476.5,-98 476.5,-98 476.5,-98 472.664,-96.8664 477.52,-94.5476 468.828,-95.7328 468.828,-95.7328"/>
<ellipse fill="none" stroke="black" cx="465.759" cy="-94.826" rx="3.20001" ry="3.20001"/>
</g>
<!-- core_repository -->
<g id="node5" class="node"><title>core_repository</title>
<g id="a_node5"><a xlink:href="../../tables/core_repository.html" xlink:title="core_repository" target="_top">
<polygon fill="#ffffff" stroke="none" points="239,-124 239,-182 376,-182 376,-124 239,-124"/>
<polygon fill="#f5f5f5" stroke="none" points="239.5,-160 239.5,-182 376.5,-182 376.5,-160 239.5,-160"/>
<polygon fill="none" stroke="black" points="239.5,-160 239.5,-182 376.5,-182 376.5,-160 239.5,-160"/>
<text text-anchor="start" x="244.5" y="-169.2" font-family="Helvetica,sans-Serif" font-weight="bold" font-size="11.00">core_repository</text>
<text text-anchor="start" x="337.5" y="-168.2" font-family="Helvetica,sans-Serif" font-size="11.00">[table]</text>
<polygon fill="none" stroke="black" points="239.5,-142 239.5,-160 376.5,-160 376.5,-142 239.5,-142"/>
<text text-anchor="start" x="242.5" y="-148.2" font-family="Helvetica,sans-Serif" font-size="11.00">...</text>
<polygon fill="#ffffff" stroke="none" points="239.5,-124 239.5,-142 279.5,-142 279.5,-124 239.5,-124"/>
<polygon fill="none" stroke="black" points="239.5,-124 239.5,-142 279.5,-142 279.5,-124 239.5,-124"/>
<text text-anchor="start" x="242.5" y="-130.2" font-family="Helvetica,sans-Serif" font-size="11.00">&lt; 1</text>
<polygon fill="#ffffff" stroke="none" points="279.5,-124 279.5,-142 337.5,-142 337.5,-124 279.5,-124"/>
<polygon fill="none" stroke="black" points="279.5,-124 279.5,-142 337.5,-142 337.5,-124 279.5,-124"/>
<text text-anchor="start" x="291.5" y="-130.2" font-family="Helvetica,sans-Serif" font-size="11.00">26 rows</text>
<polygon fill="#ffffff" stroke="none" points="337.5,-124 337.5,-142 376.5,-142 376.5,-124 337.5,-124"/>
<polygon fill="none" stroke="black" points="337.5,-124 337.5,-142 376.5,-142 376.5,-124 337.5,-124"/>
<text text-anchor="start" x="349.5" y="-130.2" font-family="Helvetica,sans-Serif" font-size="11.00">10 &gt;</text>
</a>
</g>
</g>
<!-- core_pulpimporterrepository&#45;&gt;core_repository -->
<g id="edge4" class="edge"><title>core_pulpimporterrepository:repository_id:w&#45;&gt;core_repository:elipses:e</title>
<path fill="none" stroke="black" d="M461.784,-121.177C428.263,-126.84 418.204,-151 377.5,-151"/>
<polygon fill="black" stroke="black" points="468.525,-120.638 476.787,-123.589 472.513,-120.319 476.5,-120 476.5,-120 476.5,-120 472.513,-120.319 476.213,-116.411 468.525,-120.638 468.525,-120.638"/>
<ellipse fill="none" stroke="black" cx="465.336" cy="-120.893" rx="3.2" ry="3.2"/>
</g>
</g>
</svg>
