<?xml version="1.0" encoding="UTF-8" standalone="no"?>
<!DOCTYPE svg PUBLIC "-//W3C//DTD SVG 1.1//EN"
 "http://www.w3.org/Graphics/SVG/1.1/DTD/svg11.dtd">
<!-- Generated by graphviz version 2.38.0 (20140413.2041)
 -->
<!-- Title: oneDegreeRelationshipsDiagram Pages: 1 -->
<svg width="731pt" height="252pt"
 viewBox="0.00 0.00 731.00 252.00" xmlns="http://www.w3.org/2000/svg" xmlns:xlink="http://www.w3.org/1999/xlink">
<g id="graph0" class="graph" transform="scale(1 1) rotate(0) translate(4 248)">
<title>oneDegreeRelationshipsDiagram</title>
<polygon fill="#ffffff" stroke="none" points="-4,4 -4,-248 727,-248 727,4 -4,4"/>
<text text-anchor="middle" x="74.5" y="-7.2" font-family="Helvetica,sans-Serif" font-size="11.00">Generated by SchemaSpy</text>
<!-- core_pulpexporter -->
<g id="node1" class="node"><title>core_pulpexporter</title>
<g id="a_node1"><a xlink:href="../../tables/core_pulpexporter.html" xlink:title="core_pulpexporter" target="_top">
<polygon fill="#ffffff" stroke="none" points="199,-92 199,-202 439,-202 439,-92 199,-92"/>
<polygon fill="#f5f5f5" stroke="none" points="201,-178 201,-200 437,-200 437,-178 201,-178"/>
<polygon fill="none" stroke="black" points="201,-178 201,-200 437,-200 437,-178 201,-178"/>
<text text-anchor="start" x="206" y="-187.2" font-family="Helvetica,sans-Serif" font-weight="bold" font-size="11.00">core_pulpexporter</text>
<text text-anchor="start" x="398" y="-186.2" font-family="Helvetica,sans-Serif" font-size="11.00">[table]</text>
<polygon fill="none" stroke="black" points="201,-156 201,-178 332,-178 332,-156 201,-156"/>
<image xlink:href="../../images/primaryKeys.png" width="11px" height="12px" preserveAspectRatio="xMinYMin meet" x="206" y="-173"/>
<text text-anchor="start" x="221" y="-164.2" font-family="Helvetica,sans-Serif" font-size="11.00">exporter_ptr_id</text>
<polygon fill="none" stroke="black" points="332,-156 332,-178 437,-178 437,-156 332,-156"/>
<text text-anchor="start" x="335" y="-164.2" font-family="Helvetica,sans-Serif" font-size="11.00">uuid[2147483647]</text>
<polygon fill="none" stroke="black" points="201,-134 201,-156 332,-156 332,-134 201,-134"/>
<text text-anchor="start" x="221" y="-142.2" font-family="Helvetica,sans-Serif" font-size="11.00">path</text>
<polygon fill="none" stroke="black" points="332,-134 332,-156 437,-156 437,-134 332,-134"/>
<text text-anchor="start" x="335" y="-142.2" font-family="Helvetica,sans-Serif" font-size="11.00">text[2147483647]</text>
<polygon fill="#ffffff" stroke="none" points="201,-112 201,-134 332,-134 332,-112 201,-112"/>
<polygon fill="none" stroke="black" points="201,-112 201,-134 332,-134 332,-112 201,-112"/>
<image xlink:href="../../images/foreignKeys.png" width="11px" height="12px" preserveAspectRatio="xMinYMin meet" x="206" y="-129"/>
<text text-anchor="start" x="221" y="-120.2" font-family="Helvetica,sans-Serif" font-size="11.00">last_export_id</text>
<polygon fill="none" stroke="black" points="332,-112 332,-134 437,-134 437,-112 332,-112"/>
<text text-anchor="start" x="335" y="-120.2" font-family="Helvetica,sans-Serif" font-size="11.00">uuid[2147483647]</text>
<polygon fill="#ffffff" stroke="none" points="201,-94 201,-112 257,-112 257,-94 201,-94"/>
<polygon fill="none" stroke="black" points="201,-94 201,-112 257,-112 257,-94 201,-94"/>
<text text-anchor="start" x="204" y="-100.2" font-family="Helvetica,sans-Serif" font-size="11.00">&lt; 2</text>
<polygon fill="#ffffff" stroke="none" points="257,-94 257,-112 332,-112 332,-94 257,-94"/>
<polygon fill="none" stroke="black" points="257,-94 257,-112 332,-112 332,-94 257,-94"/>
<text text-anchor="start" x="293" y="-100.2" font-family="Helvetica,sans-Serif" font-size="11.00">0 rows</text>
<polygon fill="#ffffff" stroke="none" points="332,-94 332,-112 437,-112 437,-94 332,-94"/>
<polygon fill="none" stroke="black" points="332,-94 332,-112 437,-112 437,-94 332,-94"/>
<text text-anchor="start" x="417" y="-100.2" font-family="Helvetica,sans-Serif" font-size="11.00">1 &gt;</text>
<polygon fill="none" stroke="black" stroke-width="2" points="200,-93 200,-201 438,-201 438,-93 200,-93"/>
</a>
</g>
</g>
<!-- core_exporter -->
<g id="node2" class="node"><title>core_exporter</title>
<g id="a_node2"><a xlink:href="../../tables/core_exporter.html" xlink:title="core_exporter" target="_top">
<polygon fill="#ffffff" stroke="none" points="14.5,-138 14.5,-240 143.5,-240 143.5,-138 14.5,-138"/>
<polygon fill="#f5f5f5" stroke="none" points="15,-218 15,-240 144,-240 144,-218 15,-218"/>
<polygon fill="none" stroke="black" points="15,-218 15,-240 144,-240 144,-218 15,-218"/>
<text text-anchor="start" x="20" y="-227.2" font-family="Helvetica,sans-Serif" font-weight="bold" font-size="11.00">core_exporter</text>
<text text-anchor="start" x="105" y="-226.2" font-family="Helvetica,sans-Serif" font-size="11.00">[table]</text>
<polygon fill="none" stroke="black" points="15,-196 15,-218 144,-218 144,-196 15,-196"/>
<image xlink:href="../../images/primaryKeys.png" width="11px" height="12px" preserveAspectRatio="xMinYMin meet" x="20" y="-213"/>
<text text-anchor="start" x="35" y="-204.2" font-family="Helvetica,sans-Serif" font-size="11.00">pulp_id</text>
<polygon fill="#ffffff" stroke="none" points="15,-174 15,-196 144,-196 144,-174 15,-174"/>
<polygon fill="none" stroke="black" points="15,-174 15,-196 144,-196 144,-174 15,-174"/>
<text text-anchor="start" x="35" y="-182.2" font-family="Helvetica,sans-Serif" font-size="11.00">name</text>
<polygon fill="none" stroke="black" points="15,-156 15,-174 144,-174 144,-156 15,-156"/>
<text text-anchor="start" x="18" y="-162.2" font-family="Helvetica,sans-Serif" font-size="11.00">...</text>
<polygon fill="#ffffff" stroke="none" points="15,-138 15,-156 53,-156 53,-138 15,-138"/>
<polygon fill="none" stroke="black" points="15,-138 15,-156 53,-156 53,-138 15,-138"/>
<text text-anchor="start" x="18" y="-144.2" font-family="Helvetica,sans-Serif" font-size="11.00"> &#160;</text>
<polygon fill="#ffffff" stroke="none" points="53,-138 53,-156 108,-156 108,-138 53,-138"/>
<polygon fill="none" stroke="black" points="53,-138 53,-156 108,-156 108,-138 53,-138"/>
<text text-anchor="start" x="69" y="-144.2" font-family="Helvetica,sans-Serif" font-size="11.00">0 rows</text>
<polygon fill="#ffffff" stroke="none" points="108,-138 108,-156 144,-156 144,-138 108,-138"/>
<polygon fill="none" stroke="black" points="108,-138 108,-156 144,-156 144,-138 108,-138"/>
<text text-anchor="start" x="124" y="-144.2" font-family="Helvetica,sans-Serif" font-size="11.00">2 &gt;</text>
</a>
</g>
</g>
<!-- core_pulpexporter&#45;&gt;core_exporter -->
<g id="edge1" class="edge"><title>core_pulpexporter:exporter_ptr_id:w&#45;&gt;core_exporter:pulp_id:e</title>
<path fill="none" stroke="black" d="M189.678,-168.929C170.593,-176.919 171.211,-207 145,-207"/>
<polygon fill="black" stroke="black" points="198.479,-163.215 199.949,-171.079 198.376,-171.373 196.906,-163.509 198.479,-163.215"/>
<polyline fill="none" stroke="black" points="200,-167 196.068,-167.735 "/>
<ellipse fill="none" stroke="black" cx="192.923" cy="-168.323" rx="3.20001" ry="3.20001"/>
</g>
<!-- core_pulpexport -->
<g id="node3" class="node"><title>core_pulpexport</title>
<g id="a_node3"><a xlink:href="../../tables/core_pulpexport.html" xlink:title="core_pulpexport" target="_top">
<polygon fill="#ffffff" stroke="none" points="8,-37 8,-117 150,-117 150,-37 8,-37"/>
<polygon fill="#f5f5f5" stroke="none" points="8,-95 8,-117 150,-117 150,-95 8,-95"/>
<polygon fill="none" stroke="black" points="8,-95 8,-117 150,-117 150,-95 8,-95"/>
<text text-anchor="start" x="13" y="-104.2" font-family="Helvetica,sans-Serif" font-weight="bold" font-size="11.00">core_pulpexport</text>
<text text-anchor="start" x="111" y="-103.2" font-family="Helvetica,sans-Serif" font-size="11.00">[table]</text>
<polygon fill="none" stroke="black" points="8,-73 8,-95 150,-95 150,-73 8,-73"/>
<image xlink:href="../../images/primaryKeys.png" width="11px" height="12px" preserveAspectRatio="xMinYMin meet" x="13" y="-90"/>
<text text-anchor="start" x="40" y="-81.2" font-family="Helvetica,sans-Serif" font-size="11.00">export_ptr_id</text>
<polygon fill="none" stroke="black" points="8,-55 8,-73 150,-73 150,-55 8,-55"/>
<text text-anchor="start" x="11" y="-61.2" font-family="Helvetica,sans-Serif" font-size="11.00">...</text>
<polygon fill="#ffffff" stroke="none" points="8,-37 8,-55 58,-55 58,-37 8,-37"/>
<polygon fill="none" stroke="black" points="8,-37 8,-55 58,-55 58,-37 8,-37"/>
<text text-anchor="start" x="11" y="-43.2" font-family="Helvetica,sans-Serif" font-size="11.00">&lt; 1</text>
<polygon fill="#ffffff" stroke="none" points="58,-37 58,-55 113,-55 113,-37 58,-37"/>
<polygon fill="none" stroke="black" points="58,-37 58,-55 113,-55 113,-37 58,-37"/>
<text text-anchor="start" x="74" y="-43.2" font-family="Helvetica,sans-Serif" font-size="11.00">0 rows</text>
<polygon fill="#ffffff" stroke="none" points="113,-37 113,-55 150,-55 150,-37 113,-37"/>
<polygon fill="none" stroke="black" points="113,-37 113,-55 150,-55 150,-37 113,-37"/>
<text text-anchor="start" x="130" y="-43.2" font-family="Helvetica,sans-Serif" font-size="11.00">1 &gt;</text>
</a>
</g>
</g>
<!-- core_pulpexporter&#45;&gt;core_pulpexport -->
<g id="edge2" class="edge"><title>core_pulpexporter:last_export_id:w&#45;&gt;core_pulpexport:export_ptr_id:e</title>
<path fill="none" stroke="black" d="M185.965,-118.218C173.432,-107.804 172.745,-84 151,-84"/>
<polygon fill="black" stroke="black" points="192.427,-120.42 198.839,-126.408 196.214,-121.71 200,-123 200,-123 200,-123 196.214,-121.71 201.161,-119.592 192.427,-120.42 192.427,-120.42"/>
<ellipse fill="none" stroke="black" cx="189.398" cy="-119.388" rx="3.20001" ry="3.20001"/>
</g>
<!-- core_pulpexporter_repositories -->
<g id="node4" class="node"><title>core_pulpexporter_repositories</title>
<g id="a_node4"><a xlink:href="../../tables/core_pulpexporter_repositories.html" xlink:title="core_pulpexporter_repositories" target="_top">
<polygon fill="#ffffff" stroke="none" points="488,-116 488,-222 715,-222 715,-116 488,-116"/>
<polygon fill="#f5f5f5" stroke="none" points="488.5,-200 488.5,-222 715.5,-222 715.5,-200 488.5,-200"/>
<polygon fill="none" stroke="black" points="488.5,-200 488.5,-222 715.5,-222 715.5,-200 488.5,-200"/>
<text text-anchor="start" x="493.5" y="-209.2" font-family="Helvetica,sans-Serif" font-weight="bold" font-size="11.00">core_pulpexporter_repositories</text>
<text text-anchor="start" x="676.5" y="-208.2" font-family="Helvetica,sans-Serif" font-size="11.00">[table]</text>
<polygon fill="none" stroke="black" points="488.5,-178 488.5,-200 715.5,-200 715.5,-178 488.5,-178"/>
<image xlink:href="../../images/primaryKeys.png" width="11px" height="12px" preserveAspectRatio="xMinYMin meet" x="493.5" y="-195"/>
<text text-anchor="start" x="518.5" y="-186.2" font-family="Helvetica,sans-Serif" font-size="11.00">id</text>
<polygon fill="#ffffff" stroke="none" points="488.5,-156 488.5,-178 715.5,-178 715.5,-156 488.5,-156"/>
<polygon fill="none" stroke="black" points="488.5,-156 488.5,-178 715.5,-178 715.5,-156 488.5,-156"/>
<image xlink:href="../../images/foreignKeys.png" width="11px" height="12px" preserveAspectRatio="xMinYMin meet" x="493.5" y="-173"/>
<text text-anchor="start" x="518.5" y="-164.2" font-family="Helvetica,sans-Serif" font-size="11.00">pulpexporter_id</text>
<polygon fill="#ffffff" stroke="none" points="488.5,-134 488.5,-156 715.5,-156 715.5,-134 488.5,-134"/>
<polygon fill="none" stroke="black" points="488.5,-134 488.5,-156 715.5,-156 715.5,-134 488.5,-134"/>
<image xlink:href="../../images/foreignKeys.png" width="11px" height="12px" preserveAspectRatio="xMinYMin meet" x="493.5" y="-151"/>
<text text-anchor="start" x="518.5" y="-142.2" font-family="Helvetica,sans-Serif" font-size="11.00">repository_id</text>
<polygon fill="#ffffff" stroke="none" points="488.5,-116 488.5,-134 585.5,-134 585.5,-116 488.5,-116"/>
<polygon fill="none" stroke="black" points="488.5,-116 488.5,-134 585.5,-134 585.5,-116 488.5,-116"/>
<text text-anchor="start" x="491.5" y="-122.2" font-family="Helvetica,sans-Serif" font-size="11.00">&lt; 2</text>
<polygon fill="#ffffff" stroke="none" points="585.5,-116 585.5,-134 664.5,-134 664.5,-116 585.5,-116"/>
<polygon fill="none" stroke="black" points="585.5,-116 585.5,-134 664.5,-134 664.5,-116 585.5,-116"/>
<text text-anchor="start" x="625.5" y="-122.2" font-family="Helvetica,sans-Serif" font-size="11.00">0 rows</text>
<polygon fill="#ffffff" stroke="none" points="664.5,-116 664.5,-134 715.5,-134 715.5,-116 664.5,-116"/>
<polygon fill="none" stroke="black" points="664.5,-116 664.5,-134 715.5,-134 715.5,-116 664.5,-116"/>
<text text-anchor="start" x="705.5" y="-122.2" font-family="Helvetica,sans-Serif" font-size="11.00"> &#160;</text>
</a>
</g>
</g>
<!-- core_pulpexporter_repositories&#45;&gt;core_pulpexporter -->
<g id="edge3" class="edge"><title>core_pulpexporter_repositories:pulpexporter_id:w&#45;&gt;core_pulpexporter:exporter_ptr_id.type:e</title>
<path fill="none" stroke="black" d="M472.843,-167C461.414,-167 454.156,-167 438,-167"/>
<polygon fill="black" stroke="black" points="479.5,-167 487.5,-170.6 483.5,-167 487.5,-167 487.5,-167 487.5,-167 483.5,-167 487.5,-163.4 479.5,-167 479.5,-167"/>
<ellipse fill="none" stroke="black" cx="476.3" cy="-167" rx="3.2" ry="3.2"/>
</g>
</g>
</svg>
