<?xml version="1.0" encoding="UTF-8" standalone="no"?>
<!DOCTYPE svg PUBLIC "-//W3C//DTD SVG 1.1//EN"
 "http://www.w3.org/Graphics/SVG/1.1/DTD/svg11.dtd">
<!-- Generated by graphviz version 2.38.0 (20140413.2041)
 -->
<!-- Title: twoDegreesRelationshipsDiagram Pages: 1 -->
<svg width="660pt" height="895pt"
 viewBox="0.00 0.00 660.00 895.00" xmlns="http://www.w3.org/2000/svg" xmlns:xlink="http://www.w3.org/1999/xlink">
<g id="graph0" class="graph" transform="scale(1 1) rotate(0) translate(4 891)">
<title>twoDegreesRelationshipsDiagram</title>
<polygon fill="#ffffff" stroke="none" points="-4,4 -4,-891 656,-891 656,4 -4,4"/>
<text text-anchor="middle" x="74.5" y="-7.2" font-family="Helvetica,sans-Serif" font-size="11.00">Generated by SchemaSpy</text>
<!-- ansible_collectionremote -->
<g id="node1" class="node"><title>ansible_collectionremote</title>
<g id="a_node1"><a xlink:href="../../tables/ansible_collectionremote.html" xlink:title="ansible_collectionremote" target="_top">
<polygon fill="#ffffff" stroke="none" points="423,-746 423,-804 616,-804 616,-746 423,-746"/>
<polygon fill="#f5f5f5" stroke="none" points="423.5,-782 423.5,-804 616.5,-804 616.5,-782 423.5,-782"/>
<polygon fill="none" stroke="black" points="423.5,-782 423.5,-804 616.5,-804 616.5,-782 423.5,-782"/>
<text text-anchor="start" x="428.5" y="-791.2" font-family="Helvetica,sans-Serif" font-weight="bold" font-size="11.00">ansible_collectionremote</text>
<text text-anchor="start" x="577.5" y="-790.2" font-family="Helvetica,sans-Serif" font-size="11.00">[table]</text>
<polygon fill="none" stroke="black" points="423.5,-764 423.5,-782 616.5,-782 616.5,-764 423.5,-764"/>
<text text-anchor="start" x="426.5" y="-770.2" font-family="Helvetica,sans-Serif" font-size="11.00">...</text>
<polygon fill="#ffffff" stroke="none" points="423.5,-746 423.5,-764 503.5,-764 503.5,-746 423.5,-746"/>
<polygon fill="none" stroke="black" points="423.5,-746 423.5,-764 503.5,-764 503.5,-746 423.5,-746"/>
<text text-anchor="start" x="426.5" y="-752.2" font-family="Helvetica,sans-Serif" font-size="11.00">&lt; 1</text>
<polygon fill="#ffffff" stroke="none" points="503.5,-746 503.5,-764 574.5,-764 574.5,-746 503.5,-746"/>
<polygon fill="none" stroke="black" points="503.5,-746 503.5,-764 574.5,-764 574.5,-746 503.5,-746"/>
<text text-anchor="start" x="535.5" y="-752.2" font-family="Helvetica,sans-Serif" font-size="11.00">7 rows</text>
<polygon fill="#ffffff" stroke="none" points="574.5,-746 574.5,-764 616.5,-764 616.5,-746 574.5,-746"/>
<polygon fill="none" stroke="black" points="574.5,-746 574.5,-764 616.5,-764 616.5,-746 574.5,-746"/>
<text text-anchor="start" x="606.5" y="-752.2" font-family="Helvetica,sans-Serif" font-size="11.00"> &#160;</text>
</a>
</g>
</g>
<!-- core_remote -->
<g id="node2" class="node"><title>core_remote</title>
<g id="a_node2"><a xlink:href="../../tables/core_remote.html" xlink:title="core_remote" target="_top">
<polygon fill="#ffffff" stroke="none" points="183.5,-585 183.5,-687 342.5,-687 342.5,-585 183.5,-585"/>
<polygon fill="#f5f5f5" stroke="none" points="184,-665 184,-687 343,-687 343,-665 184,-665"/>
<polygon fill="none" stroke="black" points="184,-665 184,-687 343,-687 343,-665 184,-665"/>
<text text-anchor="start" x="189" y="-674.2" font-family="Helvetica,sans-Serif" font-weight="bold" font-size="11.00">core_remote</text>
<text text-anchor="start" x="304" y="-673.2" font-family="Helvetica,sans-Serif" font-size="11.00">[table]</text>
<polygon fill="none" stroke="black" points="184,-643 184,-665 343,-665 343,-643 184,-643"/>
<image xlink:href="../../images/primaryKeys.png" width="11px" height="12px" preserveAspectRatio="xMinYMin meet" x="189" y="-660"/>
<text text-anchor="start" x="204" y="-651.2" font-family="Helvetica,sans-Serif" font-size="11.00">pulp_id</text>
<polygon fill="#ffffff" stroke="none" points="184,-621 184,-643 343,-643 343,-621 184,-621"/>
<polygon fill="none" stroke="black" points="184,-621 184,-643 343,-643 343,-621 184,-621"/>
<text text-anchor="start" x="204" y="-629.2" font-family="Helvetica,sans-Serif" font-size="11.00">name</text>
<polygon fill="none" stroke="black" points="184,-603 184,-621 343,-621 343,-603 184,-603"/>
<text text-anchor="start" x="187" y="-609.2" font-family="Helvetica,sans-Serif" font-size="11.00">...</text>
<polygon fill="#ffffff" stroke="none" points="184,-585 184,-603 237,-603 237,-585 184,-585"/>
<polygon fill="none" stroke="black" points="184,-585 184,-603 237,-603 237,-585 184,-585"/>
<text text-anchor="start" x="187" y="-591.2" font-family="Helvetica,sans-Serif" font-size="11.00"> &#160;</text>
<polygon fill="#ffffff" stroke="none" points="237,-585 237,-603 299,-603 299,-585 237,-585"/>
<polygon fill="none" stroke="black" points="237,-585 237,-603 299,-603 299,-585 237,-585"/>
<text text-anchor="start" x="260" y="-591.2" font-family="Helvetica,sans-Serif" font-size="11.00">7 rows</text>
<polygon fill="#ffffff" stroke="none" points="299,-585 299,-603 343,-603 343,-585 299,-585"/>
<polygon fill="none" stroke="black" points="299,-585 299,-603 343,-603 343,-585 299,-585"/>
<text text-anchor="start" x="323" y="-591.2" font-family="Helvetica,sans-Serif" font-size="11.00">6 &gt;</text>
</a>
</g>
</g>
<!-- ansible_collectionremote&#45;&gt;core_remote -->
<g id="edge1" class="edge"><title>ansible_collectionremote:elipses:w&#45;&gt;core_remote:pulp_id:e</title>
<path fill="none" stroke="black" d="M412.169,-771.744C364.57,-759.026 403.524,-654 344,-654"/>
<polygon fill="black" stroke="black" points="422.189,-768.933 421.223,-776.874 419.635,-776.681 420.6,-768.74 422.189,-768.933"/>
<polyline fill="none" stroke="black" points="422.5,-773 418.529,-772.517 "/>
<ellipse fill="none" stroke="black" cx="415.353" cy="-772.131" rx="3.2" ry="3.2"/>
</g>
<!-- ansible_roleremote -->
<g id="node3" class="node"><title>ansible_roleremote</title>
<g id="a_node3"><a xlink:href="../../tables/ansible_roleremote.html" xlink:title="ansible_roleremote" target="_top">
<polygon fill="#ffffff" stroke="none" points="440,-667 440,-725 599,-725 599,-667 440,-667"/>
<polygon fill="#f5f5f5" stroke="none" points="440.5,-703 440.5,-725 599.5,-725 599.5,-703 440.5,-703"/>
<polygon fill="none" stroke="black" points="440.5,-703 440.5,-725 599.5,-725 599.5,-703 440.5,-703"/>
<text text-anchor="start" x="445.5" y="-712.2" font-family="Helvetica,sans-Serif" font-weight="bold" font-size="11.00">ansible_roleremote</text>
<text text-anchor="start" x="560.5" y="-711.2" font-family="Helvetica,sans-Serif" font-size="11.00">[table]</text>
<polygon fill="none" stroke="black" points="440.5,-685 440.5,-703 599.5,-703 599.5,-685 440.5,-685"/>
<text text-anchor="start" x="443.5" y="-691.2" font-family="Helvetica,sans-Serif" font-size="11.00">...</text>
<polygon fill="#ffffff" stroke="none" points="440.5,-667 440.5,-685 503.5,-685 503.5,-667 440.5,-667"/>
<polygon fill="none" stroke="black" points="440.5,-667 440.5,-685 503.5,-685 503.5,-667 440.5,-667"/>
<text text-anchor="start" x="443.5" y="-673.2" font-family="Helvetica,sans-Serif" font-size="11.00">&lt; 1</text>
<polygon fill="#ffffff" stroke="none" points="503.5,-667 503.5,-685 565.5,-685 565.5,-667 503.5,-667"/>
<polygon fill="none" stroke="black" points="503.5,-667 503.5,-685 565.5,-685 565.5,-667 503.5,-667"/>
<text text-anchor="start" x="526.5" y="-673.2" font-family="Helvetica,sans-Serif" font-size="11.00">0 rows</text>
<polygon fill="#ffffff" stroke="none" points="565.5,-667 565.5,-685 599.5,-685 599.5,-667 565.5,-667"/>
<polygon fill="none" stroke="black" points="565.5,-667 565.5,-685 599.5,-685 599.5,-667 565.5,-667"/>
<text text-anchor="start" x="589.5" y="-673.2" font-family="Helvetica,sans-Serif" font-size="11.00"> &#160;</text>
</a>
</g>
</g>
<!-- ansible_roleremote&#45;&gt;core_remote -->
<g id="edge2" class="edge"><title>ansible_roleremote:elipses:w&#45;&gt;core_remote:pulp_id:e</title>
<path fill="none" stroke="black" d="M428.987,-693.237C392.628,-687.707 386.242,-654 344,-654"/>
<polygon fill="black" stroke="black" points="438.992,-689.953 438.412,-697.932 436.817,-697.816 437.396,-689.837 438.992,-689.953"/>
<polyline fill="none" stroke="black" points="439.5,-694 435.511,-693.71 "/>
<ellipse fill="none" stroke="black" cx="432.319" cy="-693.479" rx="3.2" ry="3.2"/>
</g>
<!-- container_containerremote -->
<g id="node4" class="node"><title>container_containerremote</title>
<g id="a_node4"><a xlink:href="../../tables/container_containerremote.html" xlink:title="container_containerremote" target="_top">
<polygon fill="#ffffff" stroke="none" points="416.5,-588 416.5,-646 622.5,-646 622.5,-588 416.5,-588"/>
<polygon fill="#f5f5f5" stroke="none" points="416.5,-624 416.5,-646 622.5,-646 622.5,-624 416.5,-624"/>
<polygon fill="none" stroke="black" points="416.5,-624 416.5,-646 622.5,-646 622.5,-624 416.5,-624"/>
<text text-anchor="start" x="421.5" y="-633.2" font-family="Helvetica,sans-Serif" font-weight="bold" font-size="11.00">container_containerremote</text>
<text text-anchor="start" x="583.5" y="-632.2" font-family="Helvetica,sans-Serif" font-size="11.00">[table]</text>
<polygon fill="none" stroke="black" points="416.5,-606 416.5,-624 622.5,-624 622.5,-606 416.5,-606"/>
<text text-anchor="start" x="419.5" y="-612.2" font-family="Helvetica,sans-Serif" font-size="11.00">...</text>
<polygon fill="#ffffff" stroke="none" points="416.5,-588 416.5,-606 503.5,-606 503.5,-588 416.5,-588"/>
<polygon fill="none" stroke="black" points="416.5,-588 416.5,-606 503.5,-606 503.5,-588 416.5,-588"/>
<text text-anchor="start" x="419.5" y="-594.2" font-family="Helvetica,sans-Serif" font-size="11.00">&lt; 1</text>
<polygon fill="#ffffff" stroke="none" points="503.5,-588 503.5,-606 577.5,-606 577.5,-588 503.5,-588"/>
<polygon fill="none" stroke="black" points="503.5,-588 503.5,-606 577.5,-606 577.5,-588 503.5,-588"/>
<text text-anchor="start" x="538.5" y="-594.2" font-family="Helvetica,sans-Serif" font-size="11.00">0 rows</text>
<polygon fill="#ffffff" stroke="none" points="577.5,-588 577.5,-606 622.5,-606 622.5,-588 577.5,-588"/>
<polygon fill="none" stroke="black" points="577.5,-588 577.5,-606 622.5,-606 622.5,-588 577.5,-588"/>
<text text-anchor="start" x="612.5" y="-594.2" font-family="Helvetica,sans-Serif" font-size="11.00"> &#160;</text>
</a>
</g>
</g>
<!-- container_containerremote&#45;&gt;core_remote -->
<g id="edge3" class="edge"><title>container_containerremote:elipses:w&#45;&gt;core_remote:pulp_id:e</title>
<path fill="none" stroke="black" d="M404.857,-616.298C379.054,-623.065 376.239,-654 344,-654"/>
<polygon fill="black" stroke="black" points="414.222,-611.126 415.19,-619.067 413.602,-619.261 412.634,-611.32 414.222,-611.126"/>
<polyline fill="none" stroke="black" points="415.5,-615 411.529,-615.484 "/>
<ellipse fill="none" stroke="black" cx="408.353" cy="-615.871" rx="3.2" ry="3.2"/>
</g>
<!-- core_basedistribution -->
<g id="node5" class="node"><title>core_basedistribution</title>
<g id="a_node5"><a xlink:href="../../tables/core_basedistribution.html" xlink:title="core_basedistribution" target="_top">
<polygon fill="#ffffff" stroke="none" points="433,-509 433,-567 606,-567 606,-509 433,-509"/>
<polygon fill="#f5f5f5" stroke="none" points="433.5,-545 433.5,-567 606.5,-567 606.5,-545 433.5,-545"/>
<polygon fill="none" stroke="black" points="433.5,-545 433.5,-567 606.5,-567 606.5,-545 433.5,-545"/>
<text text-anchor="start" x="438.5" y="-554.2" font-family="Helvetica,sans-Serif" font-weight="bold" font-size="11.00">core_basedistribution</text>
<text text-anchor="start" x="567.5" y="-553.2" font-family="Helvetica,sans-Serif" font-size="11.00">[table]</text>
<polygon fill="none" stroke="black" points="433.5,-527 433.5,-545 606.5,-545 606.5,-527 433.5,-527"/>
<text text-anchor="start" x="436.5" y="-533.2" font-family="Helvetica,sans-Serif" font-size="11.00">...</text>
<polygon fill="#ffffff" stroke="none" points="433.5,-509 433.5,-527 495.5,-527 495.5,-509 433.5,-509"/>
<polygon fill="none" stroke="black" points="433.5,-509 433.5,-527 495.5,-527 495.5,-509 433.5,-509"/>
<text text-anchor="start" x="436.5" y="-515.2" font-family="Helvetica,sans-Serif" font-size="11.00">&lt; 2</text>
<polygon fill="#ffffff" stroke="none" points="495.5,-509 495.5,-527 563.5,-527 563.5,-509 495.5,-509"/>
<polygon fill="none" stroke="black" points="495.5,-509 495.5,-527 563.5,-527 563.5,-509 495.5,-509"/>
<text text-anchor="start" x="517.5" y="-515.2" font-family="Helvetica,sans-Serif" font-size="11.00">32 rows</text>
<polygon fill="#ffffff" stroke="none" points="563.5,-509 563.5,-527 606.5,-527 606.5,-509 563.5,-509"/>
<polygon fill="none" stroke="black" points="563.5,-509 563.5,-527 606.5,-527 606.5,-509 563.5,-509"/>
<text text-anchor="start" x="586.5" y="-515.2" font-family="Helvetica,sans-Serif" font-size="11.00">2 &gt;</text>
</a>
</g>
</g>
<!-- core_basedistribution&#45;&gt;core_remote -->
<g id="edge4" class="edge"><title>core_basedistribution:elipses:w&#45;&gt;core_remote:pulp_id:e</title>
<path fill="none" stroke="black" d="M417.921,-538.641C403.959,-544.702 400.262,-560.375 387,-577 362.557,-607.642 383.197,-654 344,-654"/>
<polygon fill="black" stroke="black" points="424.628,-537.426 433.142,-539.542 428.564,-536.713 432.5,-536 432.5,-536 432.5,-536 428.564,-536.713 431.858,-532.458 424.628,-537.426 424.628,-537.426"/>
<ellipse fill="none" stroke="black" cx="421.479" cy="-537.996" rx="3.2" ry="3.2"/>
</g>
<!-- core_contentartifact -->
<g id="node6" class="node"><title>core_contentartifact</title>
<g id="a_node6"><a xlink:href="../../tables/core_contentartifact.html" xlink:title="core_contentartifact" target="_top">
<polygon fill="#ffffff" stroke="none" points="180,-45 180,-191 346,-191 346,-45 180,-45"/>
<polygon fill="#f5f5f5" stroke="none" points="180,-169 180,-191 346,-191 346,-169 180,-169"/>
<polygon fill="none" stroke="black" points="180,-169 180,-191 346,-191 346,-169 180,-169"/>
<text text-anchor="start" x="185" y="-178.2" font-family="Helvetica,sans-Serif" font-weight="bold" font-size="11.00">core_contentartifact</text>
<text text-anchor="start" x="307" y="-177.2" font-family="Helvetica,sans-Serif" font-size="11.00">[table]</text>
<polygon fill="none" stroke="black" points="180,-147 180,-169 346,-169 346,-147 180,-147"/>
<image xlink:href="../../images/primaryKeys.png" width="11px" height="12px" preserveAspectRatio="xMinYMin meet" x="185" y="-164"/>
<text text-anchor="start" x="212" y="-155.2" font-family="Helvetica,sans-Serif" font-size="11.00">pulp_id</text>
<polygon fill="#ffffff" stroke="none" points="180,-125 180,-147 346,-147 346,-125 180,-125"/>
<polygon fill="none" stroke="black" points="180,-125 180,-147 346,-147 346,-125 180,-125"/>
<text text-anchor="start" x="212" y="-133.2" font-family="Helvetica,sans-Serif" font-size="11.00">relative_path</text>
<polygon fill="#ffffff" stroke="none" points="180,-103 180,-125 346,-125 346,-103 180,-103"/>
<polygon fill="none" stroke="black" points="180,-103 180,-125 346,-125 346,-103 180,-103"/>
<image xlink:href="../../images/foreignKeys.png" width="11px" height="12px" preserveAspectRatio="xMinYMin meet" x="185" y="-120"/>
<text text-anchor="start" x="212" y="-111.2" font-family="Helvetica,sans-Serif" font-size="11.00">artifact_id</text>
<polygon fill="#ffffff" stroke="none" points="180,-81 180,-103 346,-103 346,-81 180,-81"/>
<polygon fill="none" stroke="black" points="180,-81 180,-103 346,-103 346,-81 180,-81"/>
<image xlink:href="../../images/foreignKeys.png" width="11px" height="12px" preserveAspectRatio="xMinYMin meet" x="185" y="-98"/>
<text text-anchor="start" x="212" y="-89.2" font-family="Helvetica,sans-Serif" font-size="11.00">content_id</text>
<polygon fill="none" stroke="black" points="180,-63 180,-81 346,-81 346,-63 180,-63"/>
<text text-anchor="start" x="183" y="-69.2" font-family="Helvetica,sans-Serif" font-size="11.00">...</text>
<polygon fill="#ffffff" stroke="none" points="180,-45 180,-63 238,-63 238,-45 180,-45"/>
<polygon fill="none" stroke="black" points="180,-45 180,-63 238,-63 238,-45 180,-45"/>
<text text-anchor="start" x="183" y="-51.2" font-family="Helvetica,sans-Serif" font-size="11.00">&lt; 2</text>
<polygon fill="#ffffff" stroke="none" points="238,-45 238,-63 305,-63 305,-45 238,-45"/>
<polygon fill="none" stroke="black" points="238,-45 238,-63 305,-63 305,-45 238,-45"/>
<text text-anchor="start" x="259" y="-51.2" font-family="Helvetica,sans-Serif" font-size="11.00">88 rows</text>
<polygon fill="#ffffff" stroke="none" points="305,-45 305,-63 346,-63 346,-45 305,-45"/>
<polygon fill="none" stroke="black" points="305,-45 305,-63 346,-63 346,-45 305,-45"/>
<text text-anchor="start" x="326" y="-51.2" font-family="Helvetica,sans-Serif" font-size="11.00">2 &gt;</text>
</a>
</g>
</g>
<!-- core_artifact -->
<g id="node7" class="node"><title>core_artifact</title>
<g id="a_node7"><a xlink:href="../../tables/core_artifact.html" xlink:title="core_artifact" target="_top">
<polygon fill="#ffffff" stroke="none" points="9,-116 9,-174 130,-174 130,-116 9,-116"/>
<polygon fill="#f5f5f5" stroke="none" points="9.5,-152 9.5,-174 130.5,-174 130.5,-152 9.5,-152"/>
<polygon fill="none" stroke="black" points="9.5,-152 9.5,-174 130.5,-174 130.5,-152 9.5,-152"/>
<text text-anchor="start" x="14.5" y="-161.2" font-family="Helvetica,sans-Serif" font-weight="bold" font-size="11.00">core_artifact</text>
<text text-anchor="start" x="91.5" y="-160.2" font-family="Helvetica,sans-Serif" font-size="11.00">[table]</text>
<polygon fill="none" stroke="black" points="9.5,-134 9.5,-152 130.5,-152 130.5,-134 9.5,-134"/>
<text text-anchor="start" x="12.5" y="-140.2" font-family="Helvetica,sans-Serif" font-size="11.00">...</text>
<polygon fill="#ffffff" stroke="none" points="9.5,-116 9.5,-134 37.5,-134 37.5,-116 9.5,-116"/>
<polygon fill="none" stroke="black" points="9.5,-116 9.5,-134 37.5,-134 37.5,-116 9.5,-116"/>
<text text-anchor="start" x="12.5" y="-122.2" font-family="Helvetica,sans-Serif" font-size="11.00"> &#160;</text>
<polygon fill="#ffffff" stroke="none" points="37.5,-116 37.5,-134 99.5,-134 99.5,-116 37.5,-116"/>
<polygon fill="none" stroke="black" points="37.5,-116 37.5,-134 99.5,-134 99.5,-116 37.5,-116"/>
<text text-anchor="start" x="47.5" y="-122.2" font-family="Helvetica,sans-Serif" font-size="11.00">588 rows</text>
<polygon fill="#ffffff" stroke="none" points="99.5,-116 99.5,-134 130.5,-134 130.5,-116 99.5,-116"/>
<polygon fill="none" stroke="black" points="99.5,-116 99.5,-134 130.5,-134 130.5,-116 99.5,-116"/>
<text text-anchor="start" x="110.5" y="-122.2" font-family="Helvetica,sans-Serif" font-size="11.00">1 &gt;</text>
</a>
</g>
</g>
<!-- core_contentartifact&#45;&gt;core_artifact -->
<g id="edge5" class="edge"><title>core_contentartifact:artifact_id:w&#45;&gt;core_artifact:elipses:e</title>
<path fill="none" stroke="black" d="M164.969,-118.279C153.653,-126.346 150.244,-143 131.5,-143"/>
<polygon fill="black" stroke="black" points="171.348,-116.334 180.05,-117.443 175.174,-115.167 179,-114 179,-114 179,-114 175.174,-115.167 177.95,-110.557 171.348,-116.334 171.348,-116.334"/>
<ellipse fill="none" stroke="black" cx="168.287" cy="-117.267" rx="3.20001" ry="3.20001"/>
</g>
<!-- core_content -->
<g id="node8" class="node"><title>core_content</title>
<g id="a_node8"><a xlink:href="../../tables/core_content.html" xlink:title="core_content" target="_top">
<polygon fill="#ffffff" stroke="none" points="8,-37 8,-95 131,-95 131,-37 8,-37"/>
<polygon fill="#f5f5f5" stroke="none" points="8.5,-73 8.5,-95 131.5,-95 131.5,-73 8.5,-73"/>
<polygon fill="none" stroke="black" points="8.5,-73 8.5,-95 131.5,-95 131.5,-73 8.5,-73"/>
<text text-anchor="start" x="13.5" y="-82.2" font-family="Helvetica,sans-Serif" font-weight="bold" font-size="11.00">core_content</text>
<text text-anchor="start" x="92.5" y="-81.2" font-family="Helvetica,sans-Serif" font-size="11.00">[table]</text>
<polygon fill="none" stroke="black" points="8.5,-55 8.5,-73 131.5,-73 131.5,-55 8.5,-55"/>
<text text-anchor="start" x="11.5" y="-61.2" font-family="Helvetica,sans-Serif" font-size="11.00">...</text>
<polygon fill="#ffffff" stroke="none" points="8.5,-37 8.5,-55 40.5,-55 40.5,-37 8.5,-37"/>
<polygon fill="none" stroke="black" points="8.5,-37 8.5,-55 40.5,-55 40.5,-37 8.5,-37"/>
<text text-anchor="start" x="11.5" y="-43.2" font-family="Helvetica,sans-Serif" font-size="11.00"> &#160;</text>
<polygon fill="#ffffff" stroke="none" points="40.5,-37 40.5,-55 98.5,-55 98.5,-37 40.5,-37"/>
<polygon fill="none" stroke="black" points="40.5,-37 40.5,-55 98.5,-55 98.5,-37 40.5,-37"/>
<text text-anchor="start" x="52.5" y="-43.2" font-family="Helvetica,sans-Serif" font-size="11.00">88 rows</text>
<polygon fill="#ffffff" stroke="none" points="98.5,-37 98.5,-55 131.5,-55 131.5,-37 98.5,-37"/>
<polygon fill="none" stroke="black" points="98.5,-37 98.5,-55 131.5,-55 131.5,-37 98.5,-37"/>
<text text-anchor="start" x="111.5" y="-43.2" font-family="Helvetica,sans-Serif" font-size="11.00">8 &gt;</text>
</a>
</g>
</g>
<!-- core_contentartifact&#45;&gt;core_content -->
<g id="edge6" class="edge"><title>core_contentartifact:content_id:w&#45;&gt;core_content:elipses:e</title>
<path fill="none" stroke="black" d="M164.949,-87.625C154.133,-79.75 150.593,-64 132.5,-64"/>
<polygon fill="black" stroke="black" points="171.362,-89.6216 177.93,-95.4372 175.181,-90.8108 179,-92 179,-92 179,-92 175.181,-90.8108 180.07,-88.5628 171.362,-89.6216 171.362,-89.6216"/>
<ellipse fill="none" stroke="black" cx="168.306" cy="-88.6702" rx="3.20001" ry="3.20001"/>
</g>
<!-- core_publishedartifact -->
<g id="node9" class="node"><title>core_publishedartifact</title>
<g id="a_node9"><a xlink:href="../../tables/core_publishedartifact.html" xlink:title="core_publishedartifact" target="_top">
<polygon fill="#ffffff" stroke="none" points="430.5,-79 430.5,-137 608.5,-137 608.5,-79 430.5,-79"/>
<polygon fill="#f5f5f5" stroke="none" points="430.5,-115 430.5,-137 608.5,-137 608.5,-115 430.5,-115"/>
<polygon fill="none" stroke="black" points="430.5,-115 430.5,-137 608.5,-137 608.5,-115 430.5,-115"/>
<text text-anchor="start" x="435.5" y="-124.2" font-family="Helvetica,sans-Serif" font-weight="bold" font-size="11.00">core_publishedartifact</text>
<text text-anchor="start" x="569.5" y="-123.2" font-family="Helvetica,sans-Serif" font-size="11.00">[table]</text>
<polygon fill="none" stroke="black" points="430.5,-97 430.5,-115 608.5,-115 608.5,-97 430.5,-97"/>
<text text-anchor="start" x="433.5" y="-103.2" font-family="Helvetica,sans-Serif" font-size="11.00">...</text>
<polygon fill="#ffffff" stroke="none" points="430.5,-79 430.5,-97 503.5,-97 503.5,-79 430.5,-79"/>
<polygon fill="none" stroke="black" points="430.5,-79 430.5,-97 503.5,-97 503.5,-79 430.5,-79"/>
<text text-anchor="start" x="433.5" y="-85.2" font-family="Helvetica,sans-Serif" font-size="11.00">&lt; 2</text>
<polygon fill="#ffffff" stroke="none" points="503.5,-79 503.5,-97 570.5,-97 570.5,-79 503.5,-79"/>
<polygon fill="none" stroke="black" points="503.5,-79 503.5,-97 570.5,-97 570.5,-79 503.5,-79"/>
<text text-anchor="start" x="531.5" y="-85.2" font-family="Helvetica,sans-Serif" font-size="11.00">0 rows</text>
<polygon fill="#ffffff" stroke="none" points="570.5,-79 570.5,-97 608.5,-97 608.5,-79 570.5,-79"/>
<polygon fill="none" stroke="black" points="570.5,-79 570.5,-97 608.5,-97 608.5,-79 570.5,-79"/>
<text text-anchor="start" x="598.5" y="-85.2" font-family="Helvetica,sans-Serif" font-size="11.00"> &#160;</text>
</a>
</g>
</g>
<!-- core_publishedartifact&#45;&gt;core_contentartifact -->
<g id="edge7" class="edge"><title>core_publishedartifact:elipses:w&#45;&gt;core_contentartifact:pulp_id:e</title>
<path fill="none" stroke="black" d="M414.904,-108.369C386.447,-118.542 384.755,-158 347,-158"/>
<polygon fill="black" stroke="black" points="421.603,-107.282 430.077,-109.553 425.552,-106.641 429.5,-106 429.5,-106 429.5,-106 425.552,-106.641 428.923,-102.447 421.603,-107.282 421.603,-107.282"/>
<ellipse fill="none" stroke="black" cx="418.445" cy="-107.795" rx="3.2" ry="3.2"/>
</g>
<!-- core_remoteartifact -->
<g id="node10" class="node"><title>core_remoteartifact</title>
<g id="a_node10"><a xlink:href="../../tables/core_remoteartifact.html" xlink:title="core_remoteartifact" target="_top">
<polygon fill="#ffffff" stroke="none" points="395,-158 395,-488 644,-488 644,-158 395,-158"/>
<polygon fill="#f5f5f5" stroke="none" points="397.5,-464 397.5,-486 642.5,-486 642.5,-464 397.5,-464"/>
<polygon fill="none" stroke="black" points="397.5,-464 397.5,-486 642.5,-486 642.5,-464 397.5,-464"/>
<text text-anchor="start" x="402.5" y="-473.2" font-family="Helvetica,sans-Serif" font-weight="bold" font-size="11.00">core_remoteartifact</text>
<text text-anchor="start" x="603.5" y="-472.2" font-family="Helvetica,sans-Serif" font-size="11.00">[table]</text>
<polygon fill="none" stroke="black" points="397.5,-442 397.5,-464 537.5,-464 537.5,-442 397.5,-442"/>
<image xlink:href="../../images/primaryKeys.png" width="11px" height="12px" preserveAspectRatio="xMinYMin meet" x="402.5" y="-459"/>
<text text-anchor="start" x="417.5" y="-450.2" font-family="Helvetica,sans-Serif" font-size="11.00">pulp_id</text>
<polygon fill="none" stroke="black" points="537.5,-442 537.5,-464 642.5,-464 642.5,-442 537.5,-442"/>
<text text-anchor="start" x="540.5" y="-450.2" font-family="Helvetica,sans-Serif" font-size="11.00">uuid[2147483647]</text>
<polygon fill="none" stroke="black" points="397.5,-420 397.5,-442 537.5,-442 537.5,-420 397.5,-420"/>
<text text-anchor="start" x="417.5" y="-428.2" font-family="Helvetica,sans-Serif" font-size="11.00">pulp_created</text>
<polygon fill="none" stroke="black" points="537.5,-420 537.5,-442 642.5,-442 642.5,-420 537.5,-420"/>
<text text-anchor="start" x="540.5" y="-428.2" font-family="Helvetica,sans-Serif" font-size="11.00">timestamptz[35,6]</text>
<polygon fill="none" stroke="black" points="397.5,-398 397.5,-420 537.5,-420 537.5,-398 397.5,-398"/>
<text text-anchor="start" x="417.5" y="-406.2" font-family="Helvetica,sans-Serif" font-size="11.00">pulp_last_updated</text>
<polygon fill="none" stroke="black" points="537.5,-398 537.5,-420 642.5,-420 642.5,-398 537.5,-398"/>
<text text-anchor="start" x="540.5" y="-406.2" font-family="Helvetica,sans-Serif" font-size="11.00">timestamptz[35,6]</text>
<polygon fill="none" stroke="black" points="397.5,-376 397.5,-398 537.5,-398 537.5,-376 397.5,-376"/>
<text text-anchor="start" x="417.5" y="-384.2" font-family="Helvetica,sans-Serif" font-size="11.00">url</text>
<polygon fill="none" stroke="black" points="537.5,-376 537.5,-398 642.5,-398 642.5,-376 537.5,-376"/>
<text text-anchor="start" x="540.5" y="-384.2" font-family="Helvetica,sans-Serif" font-size="11.00">text[2147483647]</text>
<polygon fill="none" stroke="black" points="397.5,-354 397.5,-376 537.5,-376 537.5,-354 397.5,-354"/>
<text text-anchor="start" x="417.5" y="-362.2" font-family="Helvetica,sans-Serif" font-size="11.00">size</text>
<polygon fill="none" stroke="black" points="537.5,-354 537.5,-376 642.5,-376 642.5,-354 537.5,-354"/>
<text text-anchor="start" x="540.5" y="-362.2" font-family="Helvetica,sans-Serif" font-size="11.00">int8[19]</text>
<polygon fill="none" stroke="black" points="397.5,-332 397.5,-354 537.5,-354 537.5,-332 397.5,-332"/>
<text text-anchor="start" x="417.5" y="-340.2" font-family="Helvetica,sans-Serif" font-size="11.00">md5</text>
<polygon fill="none" stroke="black" points="537.5,-332 537.5,-354 642.5,-354 642.5,-332 537.5,-332"/>
<text text-anchor="start" x="540.5" y="-340.2" font-family="Helvetica,sans-Serif" font-size="11.00">varchar[32]</text>
<polygon fill="none" stroke="black" points="397.5,-310 397.5,-332 537.5,-332 537.5,-310 397.5,-310"/>
<text text-anchor="start" x="417.5" y="-318.2" font-family="Helvetica,sans-Serif" font-size="11.00">sha1</text>
<polygon fill="none" stroke="black" points="537.5,-310 537.5,-332 642.5,-332 642.5,-310 537.5,-310"/>
<text text-anchor="start" x="540.5" y="-318.2" font-family="Helvetica,sans-Serif" font-size="11.00">varchar[40]</text>
<polygon fill="none" stroke="black" points="397.5,-288 397.5,-310 537.5,-310 537.5,-288 397.5,-288"/>
<text text-anchor="start" x="417.5" y="-296.2" font-family="Helvetica,sans-Serif" font-size="11.00">sha224</text>
<polygon fill="none" stroke="black" points="537.5,-288 537.5,-310 642.5,-310 642.5,-288 537.5,-288"/>
<text text-anchor="start" x="540.5" y="-296.2" font-family="Helvetica,sans-Serif" font-size="11.00">varchar[56]</text>
<polygon fill="none" stroke="black" points="397.5,-266 397.5,-288 537.5,-288 537.5,-266 397.5,-266"/>
<text text-anchor="start" x="417.5" y="-274.2" font-family="Helvetica,sans-Serif" font-size="11.00">sha256</text>
<polygon fill="none" stroke="black" points="537.5,-266 537.5,-288 642.5,-288 642.5,-266 537.5,-266"/>
<text text-anchor="start" x="540.5" y="-274.2" font-family="Helvetica,sans-Serif" font-size="11.00">varchar[64]</text>
<polygon fill="none" stroke="black" points="397.5,-244 397.5,-266 537.5,-266 537.5,-244 397.5,-244"/>
<text text-anchor="start" x="417.5" y="-252.2" font-family="Helvetica,sans-Serif" font-size="11.00">sha384</text>
<polygon fill="none" stroke="black" points="537.5,-244 537.5,-266 642.5,-266 642.5,-244 537.5,-244"/>
<text text-anchor="start" x="540.5" y="-252.2" font-family="Helvetica,sans-Serif" font-size="11.00">varchar[96]</text>
<polygon fill="none" stroke="black" points="397.5,-222 397.5,-244 537.5,-244 537.5,-222 397.5,-222"/>
<text text-anchor="start" x="417.5" y="-230.2" font-family="Helvetica,sans-Serif" font-size="11.00">sha512</text>
<polygon fill="none" stroke="black" points="537.5,-222 537.5,-244 642.5,-244 642.5,-222 537.5,-222"/>
<text text-anchor="start" x="540.5" y="-230.2" font-family="Helvetica,sans-Serif" font-size="11.00">varchar[128]</text>
<polygon fill="#ffffff" stroke="none" points="397.5,-200 397.5,-222 537.5,-222 537.5,-200 397.5,-200"/>
<polygon fill="none" stroke="black" points="397.5,-200 397.5,-222 537.5,-222 537.5,-200 397.5,-200"/>
<image xlink:href="../../images/foreignKeys.png" width="11px" height="12px" preserveAspectRatio="xMinYMin meet" x="402.5" y="-217"/>
<text text-anchor="start" x="417.5" y="-208.2" font-family="Helvetica,sans-Serif" font-size="11.00">content_artifact_id</text>
<polygon fill="none" stroke="black" points="537.5,-200 537.5,-222 642.5,-222 642.5,-200 537.5,-200"/>
<text text-anchor="start" x="540.5" y="-208.2" font-family="Helvetica,sans-Serif" font-size="11.00">uuid[2147483647]</text>
<polygon fill="#ffffff" stroke="none" points="397.5,-178 397.5,-200 537.5,-200 537.5,-178 397.5,-178"/>
<polygon fill="none" stroke="black" points="397.5,-178 397.5,-200 537.5,-200 537.5,-178 397.5,-178"/>
<image xlink:href="../../images/foreignKeys.png" width="11px" height="12px" preserveAspectRatio="xMinYMin meet" x="402.5" y="-195"/>
<text text-anchor="start" x="417.5" y="-186.2" font-family="Helvetica,sans-Serif" font-size="11.00">remote_id</text>
<polygon fill="none" stroke="black" points="537.5,-178 537.5,-200 642.5,-200 642.5,-178 537.5,-178"/>
<text text-anchor="start" x="540.5" y="-186.2" font-family="Helvetica,sans-Serif" font-size="11.00">uuid[2147483647]</text>
<polygon fill="#ffffff" stroke="none" points="397.5,-160 397.5,-178 454.5,-178 454.5,-160 397.5,-160"/>
<polygon fill="none" stroke="black" points="397.5,-160 397.5,-178 454.5,-178 454.5,-160 397.5,-160"/>
<text text-anchor="start" x="400.5" y="-166.2" font-family="Helvetica,sans-Serif" font-size="11.00">&lt; 2</text>
<polygon fill="#ffffff" stroke="none" points="454.5,-160 454.5,-178 537.5,-178 537.5,-160 454.5,-160"/>
<polygon fill="none" stroke="black" points="454.5,-160 454.5,-178 537.5,-178 537.5,-160 454.5,-160"/>
<text text-anchor="start" x="491.5" y="-166.2" font-family="Helvetica,sans-Serif" font-size="11.00">16 rows</text>
<polygon fill="#ffffff" stroke="none" points="537.5,-160 537.5,-178 642.5,-178 642.5,-160 537.5,-160"/>
<polygon fill="none" stroke="black" points="537.5,-160 537.5,-178 642.5,-178 642.5,-160 537.5,-160"/>
<text text-anchor="start" x="622.5" y="-166.2" font-family="Helvetica,sans-Serif" font-size="11.00">0 &gt;</text>
<polygon fill="none" stroke="black" stroke-width="2" points="396,-159 396,-487 643,-487 643,-159 396,-159"/>
</a>
</g>
</g>
<!-- core_remoteartifact&#45;&gt;core_remote -->
<g id="edge9" class="edge"><title>core_remoteartifact:remote_id:w&#45;&gt;core_remote:pulp_id:e</title>
<path fill="none" stroke="black" d="M382.137,-192.743C308.187,-236.75 442.506,-654 344,-654"/>
<polygon fill="black" stroke="black" points="388.759,-191.017 397.408,-192.484 392.629,-190.009 396.5,-189 396.5,-189 396.5,-189 392.629,-190.009 395.592,-185.516 388.759,-191.017 388.759,-191.017"/>
<ellipse fill="none" stroke="black" cx="385.662" cy="-191.824" rx="3.2" ry="3.2"/>
</g>
<!-- core_remoteartifact&#45;&gt;core_contentartifact -->
<g id="edge8" class="edge"><title>core_remoteartifact:content_artifact_id:w&#45;&gt;core_contentartifact:pulp_id:e</title>
<path fill="none" stroke="black" d="M382.725,-206.109C368.22,-192.988 373.188,-158 347,-158"/>
<polygon fill="black" stroke="black" points="388.961,-208.323 395.295,-214.392 392.731,-209.662 396.5,-211 396.5,-211 396.5,-211 392.731,-209.662 397.705,-207.608 388.961,-208.323 388.961,-208.323"/>
<ellipse fill="none" stroke="black" cx="385.946" cy="-207.252" rx="3.20001" ry="3.20001"/>
</g>
<!-- core_repository -->
<g id="node11" class="node"><title>core_repository</title>
<g id="a_node11"><a xlink:href="../../tables/core_repository.html" xlink:title="core_repository" target="_top">
<polygon fill="#ffffff" stroke="none" points="451,-825 451,-883 588,-883 588,-825 451,-825"/>
<polygon fill="#f5f5f5" stroke="none" points="451.5,-861 451.5,-883 588.5,-883 588.5,-861 451.5,-861"/>
<polygon fill="none" stroke="black" points="451.5,-861 451.5,-883 588.5,-883 588.5,-861 451.5,-861"/>
<text text-anchor="start" x="456.5" y="-870.2" font-family="Helvetica,sans-Serif" font-weight="bold" font-size="11.00">core_repository</text>
<text text-anchor="start" x="549.5" y="-869.2" font-family="Helvetica,sans-Serif" font-size="11.00">[table]</text>
<polygon fill="none" stroke="black" points="451.5,-843 451.5,-861 588.5,-861 588.5,-843 451.5,-843"/>
<text text-anchor="start" x="454.5" y="-849.2" font-family="Helvetica,sans-Serif" font-size="11.00">...</text>
<polygon fill="#ffffff" stroke="none" points="451.5,-825 451.5,-843 491.5,-843 491.5,-825 451.5,-825"/>
<polygon fill="none" stroke="black" points="451.5,-825 451.5,-843 491.5,-843 491.5,-825 451.5,-825"/>
<text text-anchor="start" x="454.5" y="-831.2" font-family="Helvetica,sans-Serif" font-size="11.00">&lt; 1</text>
<polygon fill="#ffffff" stroke="none" points="491.5,-825 491.5,-843 549.5,-843 549.5,-825 491.5,-825"/>
<polygon fill="none" stroke="black" points="491.5,-825 491.5,-843 549.5,-843 549.5,-825 491.5,-825"/>
<text text-anchor="start" x="503.5" y="-831.2" font-family="Helvetica,sans-Serif" font-size="11.00">26 rows</text>
<polygon fill="#ffffff" stroke="none" points="549.5,-825 549.5,-843 588.5,-843 588.5,-825 549.5,-825"/>
<polygon fill="none" stroke="black" points="549.5,-825 549.5,-843 588.5,-843 588.5,-825 549.5,-825"/>
<text text-anchor="start" x="561.5" y="-831.2" font-family="Helvetica,sans-Serif" font-size="11.00">10 &gt;</text>
</a>
</g>
</g>
<!-- core_repository&#45;&gt;core_remote -->
<g id="edge10" class="edge"><title>core_repository:elipses:w&#45;&gt;core_remote:pulp_id:e</title>
<path fill="none" stroke="black" d="M436.037,-851.091C413.985,-847.976 403.57,-836.702 387,-815 342.054,-756.133 418.064,-654 344,-654"/>
<polygon fill="black" stroke="black" points="442.516,-851.498 450.274,-855.593 446.508,-851.749 450.5,-852 450.5,-852 450.5,-852 446.508,-851.749 450.726,-848.407 442.516,-851.498 442.516,-851.498"/>
<ellipse fill="none" stroke="black" cx="439.322" cy="-851.298" rx="3.2" ry="3.2"/>
</g>
</g>
</svg>
