<?xml version="1.0" encoding="UTF-8" standalone="no"?>
<!DOCTYPE svg PUBLIC "-//W3C//DTD SVG 1.1//EN"
 "http://www.w3.org/Graphics/SVG/1.1/DTD/svg11.dtd">
<!-- Generated by graphviz version 2.38.0 (20140413.2041)
 -->
<!-- Title: twoDegreesRelationshipsDiagram Pages: 1 -->
<svg width="870pt" height="827pt"
 viewBox="0.00 0.00 870.00 827.00" xmlns="http://www.w3.org/2000/svg" xmlns:xlink="http://www.w3.org/1999/xlink">
<g id="graph0" class="graph" transform="scale(1 1) rotate(0) translate(4 823)">
<title>twoDegreesRelationshipsDiagram</title>
<polygon fill="#ffffff" stroke="none" points="-4,4 -4,-823 866,-823 866,4 -4,4"/>
<text text-anchor="middle" x="74.5" y="-7.2" font-family="Helvetica,sans-Serif" font-size="11.00">Generated by SchemaSpy</text>
<!-- ansible_collectionversion -->
<g id="node1" class="node"><title>ansible_collectionversion</title>
<g id="a_node1"><a xlink:href="../../tables/ansible_collectionversion.html" xlink:title="ansible_collectionversion" target="_top">
<polygon fill="#ffffff" stroke="none" points="215.5,-439 215.5,-497 408.5,-497 408.5,-439 215.5,-439"/>
<polygon fill="#f5f5f5" stroke="none" points="216,-475 216,-497 409,-497 409,-475 216,-475"/>
<polygon fill="none" stroke="black" points="216,-475 216,-497 409,-497 409,-475 216,-475"/>
<text text-anchor="start" x="221" y="-484.2" font-family="Helvetica,sans-Serif" font-weight="bold" font-size="11.00">ansible_collectionversion</text>
<text text-anchor="start" x="370" y="-483.2" font-family="Helvetica,sans-Serif" font-size="11.00">[table]</text>
<polygon fill="none" stroke="black" points="216,-457 216,-475 409,-475 409,-457 216,-457"/>
<text text-anchor="start" x="219" y="-463.2" font-family="Helvetica,sans-Serif" font-size="11.00">...</text>
<polygon fill="#ffffff" stroke="none" points="216,-439 216,-457 288,-457 288,-439 216,-439"/>
<polygon fill="none" stroke="black" points="216,-439 216,-457 288,-457 288,-439 216,-439"/>
<text text-anchor="start" x="219" y="-445.2" font-family="Helvetica,sans-Serif" font-size="11.00">&lt; 2</text>
<polygon fill="#ffffff" stroke="none" points="288,-439 288,-457 361,-457 361,-439 288,-439"/>
<polygon fill="none" stroke="black" points="288,-439 288,-457 361,-457 361,-439 288,-439"/>
<text text-anchor="start" x="315" y="-445.2" font-family="Helvetica,sans-Serif" font-size="11.00">88 rows</text>
<polygon fill="#ffffff" stroke="none" points="361,-439 361,-457 409,-457 409,-439 361,-439"/>
<polygon fill="none" stroke="black" points="361,-439 361,-457 409,-457 409,-439 361,-439"/>
<text text-anchor="start" x="389" y="-445.2" font-family="Helvetica,sans-Serif" font-size="11.00">1 &gt;</text>
</a>
</g>
</g>
<!-- core_content -->
<g id="node2" class="node"><title>core_content</title>
<g id="a_node2"><a xlink:href="../../tables/core_content.html" xlink:title="core_content" target="_top">
<polygon fill="#ffffff" stroke="none" points="8,-564 8,-644 137,-644 137,-564 8,-564"/>
<polygon fill="#f5f5f5" stroke="none" points="8.5,-622 8.5,-644 137.5,-644 137.5,-622 8.5,-622"/>
<polygon fill="none" stroke="black" points="8.5,-622 8.5,-644 137.5,-644 137.5,-622 8.5,-622"/>
<text text-anchor="start" x="13.5" y="-631.2" font-family="Helvetica,sans-Serif" font-weight="bold" font-size="11.00">core_content</text>
<text text-anchor="start" x="98.5" y="-630.2" font-family="Helvetica,sans-Serif" font-size="11.00">[table]</text>
<polygon fill="none" stroke="black" points="8.5,-600 8.5,-622 137.5,-622 137.5,-600 8.5,-600"/>
<image xlink:href="../../images/primaryKeys.png" width="11px" height="12px" preserveAspectRatio="xMinYMin meet" x="13.5" y="-617"/>
<text text-anchor="start" x="28.5" y="-608.2" font-family="Helvetica,sans-Serif" font-size="11.00">pulp_id</text>
<polygon fill="none" stroke="black" points="8.5,-582 8.5,-600 137.5,-600 137.5,-582 8.5,-582"/>
<text text-anchor="start" x="11.5" y="-588.2" font-family="Helvetica,sans-Serif" font-size="11.00">...</text>
<polygon fill="#ffffff" stroke="none" points="8.5,-564 8.5,-582 43.5,-582 43.5,-564 8.5,-564"/>
<polygon fill="none" stroke="black" points="8.5,-564 8.5,-582 43.5,-582 43.5,-564 8.5,-564"/>
<text text-anchor="start" x="11.5" y="-570.2" font-family="Helvetica,sans-Serif" font-size="11.00"> &#160;</text>
<polygon fill="#ffffff" stroke="none" points="43.5,-564 43.5,-582 103.5,-582 103.5,-564 43.5,-564"/>
<polygon fill="none" stroke="black" points="43.5,-564 43.5,-582 103.5,-582 103.5,-564 43.5,-564"/>
<text text-anchor="start" x="57.5" y="-570.2" font-family="Helvetica,sans-Serif" font-size="11.00">88 rows</text>
<polygon fill="#ffffff" stroke="none" points="103.5,-564 103.5,-582 137.5,-582 137.5,-564 103.5,-564"/>
<polygon fill="none" stroke="black" points="103.5,-564 103.5,-582 137.5,-582 137.5,-564 103.5,-564"/>
<text text-anchor="start" x="117.5" y="-570.2" font-family="Helvetica,sans-Serif" font-size="11.00">8 &gt;</text>
</a>
</g>
</g>
<!-- ansible_collectionversion&#45;&gt;core_content -->
<g id="edge1" class="edge"><title>ansible_collectionversion:elipses:w&#45;&gt;core_content:pulp_id:e</title>
<path fill="none" stroke="black" d="M204.321,-467.73C189.365,-473.434 188.982,-492.349 178,-511 153.753,-552.178 186.286,-611 138.5,-611"/>
<polygon fill="black" stroke="black" points="213.571,-462.179 214.85,-470.076 213.271,-470.332 211.991,-462.435 213.571,-462.179"/>
<polyline fill="none" stroke="black" points="215,-466 211.051,-466.64 "/>
<ellipse fill="none" stroke="black" cx="207.893" cy="-467.152" rx="3.2" ry="3.2"/>
</g>
<!-- ansible_role -->
<g id="node3" class="node"><title>ansible_role</title>
<g id="a_node3"><a xlink:href="../../tables/ansible_role.html" xlink:title="ansible_role" target="_top">
<polygon fill="#ffffff" stroke="none" points="253.5,-757 253.5,-815 370.5,-815 370.5,-757 253.5,-757"/>
<polygon fill="#f5f5f5" stroke="none" points="254,-793 254,-815 371,-815 371,-793 254,-793"/>
<polygon fill="none" stroke="black" points="254,-793 254,-815 371,-815 371,-793 254,-793"/>
<text text-anchor="start" x="259" y="-802.2" font-family="Helvetica,sans-Serif" font-weight="bold" font-size="11.00">ansible_role</text>
<text text-anchor="start" x="332" y="-801.2" font-family="Helvetica,sans-Serif" font-size="11.00">[table]</text>
<polygon fill="none" stroke="black" points="254,-775 254,-793 371,-793 371,-775 254,-775"/>
<text text-anchor="start" x="257" y="-781.2" font-family="Helvetica,sans-Serif" font-size="11.00">...</text>
<polygon fill="#ffffff" stroke="none" points="254,-757 254,-775 296,-775 296,-757 254,-757"/>
<polygon fill="none" stroke="black" points="254,-757 254,-775 296,-775 296,-757 254,-757"/>
<text text-anchor="start" x="257" y="-763.2" font-family="Helvetica,sans-Serif" font-size="11.00">&lt; 1</text>
<polygon fill="#ffffff" stroke="none" points="296,-757 296,-775 348,-775 348,-757 296,-757"/>
<polygon fill="none" stroke="black" points="296,-757 296,-775 348,-775 348,-757 296,-757"/>
<text text-anchor="start" x="309" y="-763.2" font-family="Helvetica,sans-Serif" font-size="11.00">0 rows</text>
<polygon fill="#ffffff" stroke="none" points="348,-757 348,-775 371,-775 371,-757 348,-757"/>
<polygon fill="none" stroke="black" points="348,-757 348,-775 371,-775 371,-757 348,-757"/>
<text text-anchor="start" x="361" y="-763.2" font-family="Helvetica,sans-Serif" font-size="11.00"> &#160;</text>
</a>
</g>
</g>
<!-- ansible_role&#45;&gt;core_content -->
<g id="edge2" class="edge"><title>ansible_role:elipses:w&#45;&gt;core_content:pulp_id:e</title>
<path fill="none" stroke="black" d="M242.549,-783.666C212.348,-781.586 199.571,-769.641 178,-743 139.464,-695.408 199.737,-611 138.5,-611"/>
<polygon fill="black" stroke="black" points="252.328,-779.976 252.072,-787.972 250.473,-787.921 250.729,-779.925 252.328,-779.976"/>
<polyline fill="none" stroke="black" points="253,-784 249.002,-783.872 "/>
<ellipse fill="none" stroke="black" cx="245.804" cy="-783.77" rx="3.2" ry="3.2"/>
</g>
<!-- container_blob -->
<g id="node4" class="node"><title>container_blob</title>
<g id="a_node4"><a xlink:href="../../tables/container_blob.html" xlink:title="container_blob" target="_top">
<polygon fill="#ffffff" stroke="none" points="245,-624 245,-682 379,-682 379,-624 245,-624"/>
<polygon fill="#f5f5f5" stroke="none" points="245,-660 245,-682 379,-682 379,-660 245,-660"/>
<polygon fill="none" stroke="black" points="245,-660 245,-682 379,-682 379,-660 245,-660"/>
<text text-anchor="start" x="250" y="-669.2" font-family="Helvetica,sans-Serif" font-weight="bold" font-size="11.00">container_blob</text>
<text text-anchor="start" x="340" y="-668.2" font-family="Helvetica,sans-Serif" font-size="11.00">[table]</text>
<polygon fill="none" stroke="black" points="245,-642 245,-660 379,-660 379,-642 245,-642"/>
<text text-anchor="start" x="248" y="-648.2" font-family="Helvetica,sans-Serif" font-size="11.00">...</text>
<polygon fill="#ffffff" stroke="none" points="245,-624 245,-642 291,-642 291,-624 245,-624"/>
<polygon fill="none" stroke="black" points="245,-624 245,-642 291,-642 291,-624 245,-624"/>
<text text-anchor="start" x="248" y="-630.2" font-family="Helvetica,sans-Serif" font-size="11.00">&lt; 1</text>
<polygon fill="#ffffff" stroke="none" points="291,-624 291,-642 344,-642 344,-624 291,-624"/>
<polygon fill="none" stroke="black" points="291,-624 291,-642 344,-642 344,-624 291,-624"/>
<text text-anchor="start" x="305" y="-630.2" font-family="Helvetica,sans-Serif" font-size="11.00">0 rows</text>
<polygon fill="#ffffff" stroke="none" points="344,-624 344,-642 379,-642 379,-624 344,-624"/>
<polygon fill="none" stroke="black" points="344,-624 344,-642 379,-642 379,-624 344,-624"/>
<text text-anchor="start" x="359" y="-630.2" font-family="Helvetica,sans-Serif" font-size="11.00">2 &gt;</text>
</a>
</g>
</g>
<!-- container_blob&#45;&gt;core_content -->
<g id="edge3" class="edge"><title>container_blob:elipses:w&#45;&gt;core_content:pulp_id:e</title>
<path fill="none" stroke="black" d="M233.541,-650.372C192.833,-645.283 184.924,-611 138.5,-611"/>
<polygon fill="black" stroke="black" points="243.441,-646.959 242.962,-654.945 241.364,-654.849 241.844,-646.863 243.441,-646.959"/>
<polyline fill="none" stroke="black" points="244,-651 240.007,-650.76 "/>
<ellipse fill="none" stroke="black" cx="236.813" cy="-650.568" rx="3.2" ry="3.2"/>
</g>
<!-- container_manifest -->
<g id="node5" class="node"><title>container_manifest</title>
<g id="a_node5"><a xlink:href="../../tables/container_manifest.html" xlink:title="container_manifest" target="_top">
<polygon fill="#ffffff" stroke="none" points="502.5,-651 502.5,-709 662.5,-709 662.5,-651 502.5,-651"/>
<polygon fill="#f5f5f5" stroke="none" points="502.5,-687 502.5,-709 662.5,-709 662.5,-687 502.5,-687"/>
<polygon fill="none" stroke="black" points="502.5,-687 502.5,-709 662.5,-709 662.5,-687 502.5,-687"/>
<text text-anchor="start" x="507.5" y="-696.2" font-family="Helvetica,sans-Serif" font-weight="bold" font-size="11.00">container_manifest</text>
<text text-anchor="start" x="623.5" y="-695.2" font-family="Helvetica,sans-Serif" font-size="11.00">[table]</text>
<polygon fill="none" stroke="black" points="502.5,-669 502.5,-687 662.5,-687 662.5,-669 502.5,-669"/>
<text text-anchor="start" x="505.5" y="-675.2" font-family="Helvetica,sans-Serif" font-size="11.00">...</text>
<polygon fill="#ffffff" stroke="none" points="502.5,-651 502.5,-669 561.5,-669 561.5,-651 502.5,-651"/>
<polygon fill="none" stroke="black" points="502.5,-651 502.5,-669 561.5,-669 561.5,-651 502.5,-651"/>
<text text-anchor="start" x="505.5" y="-657.2" font-family="Helvetica,sans-Serif" font-size="11.00">&lt; 2</text>
<polygon fill="#ffffff" stroke="none" points="561.5,-651 561.5,-669 621.5,-669 621.5,-651 561.5,-651"/>
<polygon fill="none" stroke="black" points="561.5,-651 561.5,-669 621.5,-669 621.5,-651 561.5,-651"/>
<text text-anchor="start" x="582.5" y="-657.2" font-family="Helvetica,sans-Serif" font-size="11.00">0 rows</text>
<polygon fill="#ffffff" stroke="none" points="621.5,-651 621.5,-669 662.5,-669 662.5,-651 621.5,-651"/>
<polygon fill="none" stroke="black" points="621.5,-651 621.5,-669 662.5,-669 662.5,-651 621.5,-651"/>
<text text-anchor="start" x="642.5" y="-657.2" font-family="Helvetica,sans-Serif" font-size="11.00">4 &gt;</text>
</a>
</g>
</g>
<!-- container_manifest&#45;&gt;core_content -->
<g id="edge5" class="edge"><title>container_manifest:elipses:w&#45;&gt;core_content:pulp_id:e</title>
<path fill="none" stroke="black" d="M490.929,-678.725C474.057,-681.207 467.301,-689.355 446,-692 386.898,-699.339 228.505,-723.561 178,-692 144.034,-670.774 178.552,-611 138.5,-611"/>
<polygon fill="black" stroke="black" points="500.428,-674.064 500.976,-682.045 499.379,-682.155 498.832,-674.174 500.428,-674.064"/>
<polyline fill="none" stroke="black" points="501.5,-678 497.509,-678.274 "/>
<ellipse fill="none" stroke="black" cx="494.317" cy="-678.493" rx="3.2" ry="3.2"/>
</g>
<!-- container_manifest&#45;&gt;container_blob -->
<g id="edge4" class="edge"><title>container_manifest:elipses:w&#45;&gt;container_blob:elipses:e</title>
<path fill="none" stroke="black" d="M487.041,-677.333C443.755,-673.175 430.131,-651 380,-651"/>
<polygon fill="black" stroke="black" points="493.509,-677.631 501.334,-681.596 497.504,-677.816 501.5,-678 501.5,-678 501.5,-678 497.504,-677.816 501.666,-674.404 493.509,-677.631 493.509,-677.631"/>
<ellipse fill="none" stroke="black" cx="490.312" cy="-677.483" rx="3.2" ry="3.2"/>
</g>
<!-- container_tag -->
<g id="node6" class="node"><title>container_tag</title>
<g id="a_node6"><a xlink:href="../../tables/container_tag.html" xlink:title="container_tag" target="_top">
<polygon fill="#ffffff" stroke="none" points="727,-678 727,-736 854,-736 854,-678 727,-678"/>
<polygon fill="#f5f5f5" stroke="none" points="727.5,-714 727.5,-736 854.5,-736 854.5,-714 727.5,-714"/>
<polygon fill="none" stroke="black" points="727.5,-714 727.5,-736 854.5,-736 854.5,-714 727.5,-714"/>
<text text-anchor="start" x="732.5" y="-723.2" font-family="Helvetica,sans-Serif" font-weight="bold" font-size="11.00">container_tag</text>
<text text-anchor="start" x="815.5" y="-722.2" font-family="Helvetica,sans-Serif" font-size="11.00">[table]</text>
<polygon fill="none" stroke="black" points="727.5,-696 727.5,-714 854.5,-714 854.5,-696 727.5,-696"/>
<text text-anchor="start" x="730.5" y="-702.2" font-family="Helvetica,sans-Serif" font-size="11.00">...</text>
<polygon fill="#ffffff" stroke="none" points="727.5,-678 727.5,-696 774.5,-696 774.5,-678 727.5,-678"/>
<polygon fill="none" stroke="black" points="727.5,-678 727.5,-696 774.5,-696 774.5,-678 727.5,-678"/>
<text text-anchor="start" x="730.5" y="-684.2" font-family="Helvetica,sans-Serif" font-size="11.00">&lt; 2</text>
<polygon fill="#ffffff" stroke="none" points="774.5,-678 774.5,-696 828.5,-696 828.5,-678 774.5,-678"/>
<polygon fill="none" stroke="black" points="774.5,-678 774.5,-696 828.5,-696 828.5,-678 774.5,-678"/>
<text text-anchor="start" x="789.5" y="-684.2" font-family="Helvetica,sans-Serif" font-size="11.00">0 rows</text>
<polygon fill="#ffffff" stroke="none" points="828.5,-678 828.5,-696 854.5,-696 854.5,-678 828.5,-678"/>
<polygon fill="none" stroke="black" points="828.5,-678 828.5,-696 854.5,-696 854.5,-678 828.5,-678"/>
<text text-anchor="start" x="844.5" y="-684.2" font-family="Helvetica,sans-Serif" font-size="11.00"> &#160;</text>
</a>
</g>
</g>
<!-- container_tag&#45;&gt;core_content -->
<g id="edge6" class="edge"><title>container_tag:elipses:w&#45;&gt;core_content:pulp_id:e</title>
<path fill="none" stroke="black" d="M716.012,-706.363C705.515,-709.377 700.673,-716.535 686,-719 617.262,-730.545 180.924,-712.046 178,-710 139.185,-682.841 185.873,-611 138.5,-611"/>
<polygon fill="black" stroke="black" points="725.191,-701.136 726.222,-709.07 724.635,-709.276 723.605,-701.343 725.191,-701.136"/>
<polyline fill="none" stroke="black" points="726.5,-705 722.533,-705.515 "/>
<ellipse fill="none" stroke="black" cx="719.36" cy="-705.928" rx="3.2" ry="3.2"/>
</g>
<!-- container_tag&#45;&gt;container_manifest -->
<g id="edge7" class="edge"><title>container_tag:elipses:w&#45;&gt;container_manifest:elipses:e</title>
<path fill="none" stroke="black" d="M712.241,-702.604C694.319,-695.996 688.37,-678 663.5,-678"/>
<polygon fill="black" stroke="black" points="718.611,-703.674 725.903,-708.55 722.555,-704.337 726.5,-705 726.5,-705 726.5,-705 722.555,-704.337 727.097,-701.45 718.611,-703.674 718.611,-703.674"/>
<ellipse fill="none" stroke="black" cx="715.455" cy="-703.144" rx="3.2" ry="3.2"/>
</g>
<!-- core_contentartifact -->
<g id="node7" class="node"><title>core_contentartifact</title>
<g id="a_node7"><a xlink:href="../../tables/core_contentartifact.html" xlink:title="core_contentartifact" target="_top">
<polygon fill="#ffffff" stroke="none" points="186,-163 186,-339 438,-339 438,-163 186,-163"/>
<polygon fill="#f5f5f5" stroke="none" points="188,-315 188,-337 436,-337 436,-315 188,-315"/>
<polygon fill="none" stroke="black" points="188,-315 188,-337 436,-337 436,-315 188,-315"/>
<text text-anchor="start" x="193" y="-324.2" font-family="Helvetica,sans-Serif" font-weight="bold" font-size="11.00">core_contentartifact</text>
<text text-anchor="start" x="397" y="-323.2" font-family="Helvetica,sans-Serif" font-size="11.00">[table]</text>
<polygon fill="none" stroke="black" points="188,-293 188,-315 331,-315 331,-293 188,-293"/>
<image xlink:href="../../images/primaryKeys.png" width="11px" height="12px" preserveAspectRatio="xMinYMin meet" x="193" y="-310"/>
<text text-anchor="start" x="208" y="-301.2" font-family="Helvetica,sans-Serif" font-size="11.00">pulp_id</text>
<polygon fill="none" stroke="black" points="331,-293 331,-315 436,-315 436,-293 331,-293"/>
<text text-anchor="start" x="334" y="-301.2" font-family="Helvetica,sans-Serif" font-size="11.00">uuid[2147483647]</text>
<polygon fill="none" stroke="black" points="188,-271 188,-293 331,-293 331,-271 188,-271"/>
<text text-anchor="start" x="208" y="-279.2" font-family="Helvetica,sans-Serif" font-size="11.00">pulp_created</text>
<polygon fill="none" stroke="black" points="331,-271 331,-293 436,-293 436,-271 331,-271"/>
<text text-anchor="start" x="334" y="-279.2" font-family="Helvetica,sans-Serif" font-size="11.00">timestamptz[35,6]</text>
<polygon fill="none" stroke="black" points="188,-249 188,-271 331,-271 331,-249 188,-249"/>
<text text-anchor="start" x="208" y="-257.2" font-family="Helvetica,sans-Serif" font-size="11.00">pulp_last_updated</text>
<polygon fill="none" stroke="black" points="331,-249 331,-271 436,-271 436,-249 331,-249"/>
<text text-anchor="start" x="334" y="-257.2" font-family="Helvetica,sans-Serif" font-size="11.00">timestamptz[35,6]</text>
<polygon fill="#ffffff" stroke="none" points="188,-227 188,-249 331,-249 331,-227 188,-227"/>
<polygon fill="none" stroke="black" points="188,-227 188,-249 331,-249 331,-227 188,-227"/>
<text text-anchor="start" x="208" y="-235.2" font-family="Helvetica,sans-Serif" font-size="11.00">relative_path</text>
<polygon fill="none" stroke="black" points="331,-227 331,-249 436,-249 436,-227 331,-227"/>
<text text-anchor="start" x="334" y="-235.2" font-family="Helvetica,sans-Serif" font-size="11.00">text[2147483647]</text>
<polygon fill="#ffffff" stroke="none" points="188,-205 188,-227 331,-227 331,-205 188,-205"/>
<polygon fill="none" stroke="black" points="188,-205 188,-227 331,-227 331,-205 188,-205"/>
<image xlink:href="../../images/foreignKeys.png" width="11px" height="12px" preserveAspectRatio="xMinYMin meet" x="193" y="-222"/>
<text text-anchor="start" x="208" y="-213.2" font-family="Helvetica,sans-Serif" font-size="11.00">artifact_id</text>
<polygon fill="none" stroke="black" points="331,-205 331,-227 436,-227 436,-205 331,-205"/>
<text text-anchor="start" x="334" y="-213.2" font-family="Helvetica,sans-Serif" font-size="11.00">uuid[2147483647]</text>
<polygon fill="#ffffff" stroke="none" points="188,-183 188,-205 331,-205 331,-183 188,-183"/>
<polygon fill="none" stroke="black" points="188,-183 188,-205 331,-205 331,-183 188,-183"/>
<image xlink:href="../../images/foreignKeys.png" width="11px" height="12px" preserveAspectRatio="xMinYMin meet" x="193" y="-200"/>
<text text-anchor="start" x="208" y="-191.2" font-family="Helvetica,sans-Serif" font-size="11.00">content_id</text>
<polygon fill="none" stroke="black" points="331,-183 331,-205 436,-205 436,-183 331,-183"/>
<text text-anchor="start" x="334" y="-191.2" font-family="Helvetica,sans-Serif" font-size="11.00">uuid[2147483647]</text>
<polygon fill="#ffffff" stroke="none" points="188,-165 188,-183 246,-183 246,-165 188,-165"/>
<polygon fill="none" stroke="black" points="188,-165 188,-183 246,-183 246,-165 188,-165"/>
<text text-anchor="start" x="191" y="-171.2" font-family="Helvetica,sans-Serif" font-size="11.00">&lt; 2</text>
<polygon fill="#ffffff" stroke="none" points="246,-165 246,-183 331,-183 331,-165 246,-165"/>
<polygon fill="none" stroke="black" points="246,-165 246,-183 331,-183 331,-165 246,-165"/>
<text text-anchor="start" x="285" y="-171.2" font-family="Helvetica,sans-Serif" font-size="11.00">88 rows</text>
<polygon fill="#ffffff" stroke="none" points="331,-165 331,-183 436,-183 436,-165 331,-165"/>
<polygon fill="none" stroke="black" points="331,-165 331,-183 436,-183 436,-165 331,-165"/>
<text text-anchor="start" x="416" y="-171.2" font-family="Helvetica,sans-Serif" font-size="11.00">2 &gt;</text>
<polygon fill="none" stroke="black" stroke-width="2" points="187,-164 187,-338 437,-338 437,-164 187,-164"/>
</a>
</g>
</g>
<!-- core_contentartifact&#45;&gt;core_content -->
<g id="edge9" class="edge"><title>core_contentartifact:content_id:w&#45;&gt;core_content:pulp_id:e</title>
<path fill="none" stroke="black" d="M172.891,-198.127C109.096,-241.436 226.325,-611 138.5,-611"/>
<polygon fill="black" stroke="black" points="179.322,-196.246 188.011,-197.455 183.161,-195.123 187,-194 187,-194 187,-194 183.161,-195.123 185.989,-190.545 179.322,-196.246 179.322,-196.246"/>
<ellipse fill="none" stroke="black" cx="176.25" cy="-197.145" rx="3.20001" ry="3.20001"/>
</g>
<!-- core_artifact -->
<g id="node8" class="node"><title>core_artifact</title>
<g id="a_node8"><a xlink:href="../../tables/core_artifact.html" xlink:title="core_artifact" target="_top">
<polygon fill="#ffffff" stroke="none" points="8,-37 8,-249 137,-249 137,-37 8,-37"/>
<polygon fill="#f5f5f5" stroke="none" points="8.5,-227 8.5,-249 137.5,-249 137.5,-227 8.5,-227"/>
<polygon fill="none" stroke="black" points="8.5,-227 8.5,-249 137.5,-249 137.5,-227 8.5,-227"/>
<text text-anchor="start" x="13.5" y="-236.2" font-family="Helvetica,sans-Serif" font-weight="bold" font-size="11.00">core_artifact</text>
<text text-anchor="start" x="98.5" y="-235.2" font-family="Helvetica,sans-Serif" font-size="11.00">[table]</text>
<polygon fill="none" stroke="black" points="8.5,-205 8.5,-227 137.5,-227 137.5,-205 8.5,-205"/>
<image xlink:href="../../images/primaryKeys.png" width="11px" height="12px" preserveAspectRatio="xMinYMin meet" x="13.5" y="-222"/>
<text text-anchor="start" x="28.5" y="-213.2" font-family="Helvetica,sans-Serif" font-size="11.00">pulp_id</text>
<polygon fill="#ffffff" stroke="none" points="8.5,-183 8.5,-205 137.5,-205 137.5,-183 8.5,-183"/>
<polygon fill="none" stroke="black" points="8.5,-183 8.5,-205 137.5,-205 137.5,-183 8.5,-183"/>
<text text-anchor="start" x="28.5" y="-191.2" font-family="Helvetica,sans-Serif" font-size="11.00">md5</text>
<polygon fill="#ffffff" stroke="none" points="8.5,-161 8.5,-183 137.5,-183 137.5,-161 8.5,-161"/>
<polygon fill="none" stroke="black" points="8.5,-161 8.5,-183 137.5,-183 137.5,-161 8.5,-161"/>
<text text-anchor="start" x="28.5" y="-169.2" font-family="Helvetica,sans-Serif" font-size="11.00">sha1</text>
<polygon fill="#ffffff" stroke="none" points="8.5,-139 8.5,-161 137.5,-161 137.5,-139 8.5,-139"/>
<polygon fill="none" stroke="black" points="8.5,-139 8.5,-161 137.5,-161 137.5,-139 8.5,-139"/>
<text text-anchor="start" x="28.5" y="-147.2" font-family="Helvetica,sans-Serif" font-size="11.00">sha224</text>
<polygon fill="#ffffff" stroke="none" points="8.5,-117 8.5,-139 137.5,-139 137.5,-117 8.5,-117"/>
<polygon fill="none" stroke="black" points="8.5,-117 8.5,-139 137.5,-139 137.5,-117 8.5,-117"/>
<text text-anchor="start" x="28.5" y="-125.2" font-family="Helvetica,sans-Serif" font-size="11.00">sha256</text>
<polygon fill="#ffffff" stroke="none" points="8.5,-95 8.5,-117 137.5,-117 137.5,-95 8.5,-95"/>
<polygon fill="none" stroke="black" points="8.5,-95 8.5,-117 137.5,-117 137.5,-95 8.5,-95"/>
<text text-anchor="start" x="28.5" y="-103.2" font-family="Helvetica,sans-Serif" font-size="11.00">sha384</text>
<polygon fill="#ffffff" stroke="none" points="8.5,-73 8.5,-95 137.5,-95 137.5,-73 8.5,-73"/>
<polygon fill="none" stroke="black" points="8.5,-73 8.5,-95 137.5,-95 137.5,-73 8.5,-73"/>
<text text-anchor="start" x="28.5" y="-81.2" font-family="Helvetica,sans-Serif" font-size="11.00">sha512</text>
<polygon fill="none" stroke="black" points="8.5,-55 8.5,-73 137.5,-73 137.5,-55 8.5,-55"/>
<text text-anchor="start" x="11.5" y="-61.2" font-family="Helvetica,sans-Serif" font-size="11.00">...</text>
<polygon fill="#ffffff" stroke="none" points="8.5,-37 8.5,-55 40.5,-55 40.5,-37 8.5,-37"/>
<polygon fill="none" stroke="black" points="8.5,-37 8.5,-55 40.5,-55 40.5,-37 8.5,-37"/>
<text text-anchor="start" x="11.5" y="-43.2" font-family="Helvetica,sans-Serif" font-size="11.00"> &#160;</text>
<polygon fill="#ffffff" stroke="none" points="40.5,-37 40.5,-55 104.5,-55 104.5,-37 40.5,-37"/>
<polygon fill="none" stroke="black" points="40.5,-37 40.5,-55 104.5,-55 104.5,-37 40.5,-37"/>
<text text-anchor="start" x="52.5" y="-43.2" font-family="Helvetica,sans-Serif" font-size="11.00">588 rows</text>
<polygon fill="#ffffff" stroke="none" points="104.5,-37 104.5,-55 137.5,-55 137.5,-37 104.5,-37"/>
<polygon fill="none" stroke="black" points="104.5,-37 104.5,-55 137.5,-55 137.5,-37 104.5,-37"/>
<text text-anchor="start" x="117.5" y="-43.2" font-family="Helvetica,sans-Serif" font-size="11.00">1 &gt;</text>
</a>
</g>
</g>
<!-- core_contentartifact&#45;&gt;core_artifact -->
<g id="edge8" class="edge"><title>core_contentartifact:artifact_id:w&#45;&gt;core_artifact:pulp_id:e</title>
<path fill="none" stroke="black" d="M172.283,-216C161.289,-216 154.161,-216 138.5,-216"/>
<polygon fill="black" stroke="black" points="179,-216 187,-219.6 183,-216 187,-216 187,-216 187,-216 183,-216 187,-212.4 179,-216 179,-216"/>
<ellipse fill="none" stroke="black" cx="175.8" cy="-216" rx="3.2" ry="3.2"/>
</g>
<!-- core_publishedartifact -->
<g id="node9" class="node"><title>core_publishedartifact</title>
<g id="a_node9"><a xlink:href="../../tables/core_publishedartifact.html" xlink:title="core_publishedartifact" target="_top">
<polygon fill="#ffffff" stroke="none" points="493.5,-258 493.5,-404 671.5,-404 671.5,-258 493.5,-258"/>
<polygon fill="#f5f5f5" stroke="none" points="493.5,-382 493.5,-404 671.5,-404 671.5,-382 493.5,-382"/>
<polygon fill="none" stroke="black" points="493.5,-382 493.5,-404 671.5,-404 671.5,-382 493.5,-382"/>
<text text-anchor="start" x="498.5" y="-391.2" font-family="Helvetica,sans-Serif" font-weight="bold" font-size="11.00">core_publishedartifact</text>
<text text-anchor="start" x="632.5" y="-390.2" font-family="Helvetica,sans-Serif" font-size="11.00">[table]</text>
<polygon fill="none" stroke="black" points="493.5,-360 493.5,-382 671.5,-382 671.5,-360 493.5,-360"/>
<image xlink:href="../../images/primaryKeys.png" width="11px" height="12px" preserveAspectRatio="xMinYMin meet" x="498.5" y="-377"/>
<text text-anchor="start" x="525.5" y="-368.2" font-family="Helvetica,sans-Serif" font-size="11.00">pulp_id</text>
<polygon fill="#ffffff" stroke="none" points="493.5,-338 493.5,-360 671.5,-360 671.5,-338 493.5,-338"/>
<polygon fill="none" stroke="black" points="493.5,-338 493.5,-360 671.5,-360 671.5,-338 493.5,-338"/>
<text text-anchor="start" x="525.5" y="-346.2" font-family="Helvetica,sans-Serif" font-size="11.00">relative_path</text>
<polygon fill="#ffffff" stroke="none" points="493.5,-316 493.5,-338 671.5,-338 671.5,-316 493.5,-316"/>
<polygon fill="none" stroke="black" points="493.5,-316 493.5,-338 671.5,-338 671.5,-316 493.5,-316"/>
<image xlink:href="../../images/foreignKeys.png" width="11px" height="12px" preserveAspectRatio="xMinYMin meet" x="498.5" y="-333"/>
<text text-anchor="start" x="525.5" y="-324.2" font-family="Helvetica,sans-Serif" font-size="11.00">content_artifact_id</text>
<polygon fill="#ffffff" stroke="none" points="493.5,-294 493.5,-316 671.5,-316 671.5,-294 493.5,-294"/>
<polygon fill="none" stroke="black" points="493.5,-294 493.5,-316 671.5,-316 671.5,-294 493.5,-294"/>
<image xlink:href="../../images/foreignKeys.png" width="11px" height="12px" preserveAspectRatio="xMinYMin meet" x="498.5" y="-311"/>
<text text-anchor="start" x="525.5" y="-302.2" font-family="Helvetica,sans-Serif" font-size="11.00">publication_id</text>
<polygon fill="none" stroke="black" points="493.5,-276 493.5,-294 671.5,-294 671.5,-276 493.5,-276"/>
<text text-anchor="start" x="496.5" y="-282.2" font-family="Helvetica,sans-Serif" font-size="11.00">...</text>
<polygon fill="#ffffff" stroke="none" points="493.5,-258 493.5,-276 566.5,-276 566.5,-258 493.5,-258"/>
<polygon fill="none" stroke="black" points="493.5,-258 493.5,-276 566.5,-276 566.5,-258 493.5,-258"/>
<text text-anchor="start" x="496.5" y="-264.2" font-family="Helvetica,sans-Serif" font-size="11.00">&lt; 2</text>
<polygon fill="#ffffff" stroke="none" points="566.5,-258 566.5,-276 633.5,-276 633.5,-258 566.5,-258"/>
<polygon fill="none" stroke="black" points="566.5,-258 566.5,-276 633.5,-276 633.5,-258 566.5,-258"/>
<text text-anchor="start" x="594.5" y="-264.2" font-family="Helvetica,sans-Serif" font-size="11.00">0 rows</text>
<polygon fill="#ffffff" stroke="none" points="633.5,-258 633.5,-276 671.5,-276 671.5,-258 633.5,-258"/>
<polygon fill="none" stroke="black" points="633.5,-258 633.5,-276 671.5,-276 671.5,-258 633.5,-258"/>
<text text-anchor="start" x="661.5" y="-264.2" font-family="Helvetica,sans-Serif" font-size="11.00"> &#160;</text>
</a>
</g>
</g>
<!-- core_publishedartifact&#45;&gt;core_contentartifact -->
<g id="edge10" class="edge"><title>core_publishedartifact:content_artifact_id:w&#45;&gt;core_contentartifact:pulp_id.type:e</title>
<path fill="none" stroke="black" d="M477.994,-324.18C463.704,-318.038 457.86,-304 437,-304"/>
<polygon fill="black" stroke="black" points="484.647,-325.473 491.813,-330.534 488.574,-326.237 492.5,-327 492.5,-327 492.5,-327 488.574,-326.237 493.187,-323.466 484.647,-325.473 484.647,-325.473"/>
<ellipse fill="none" stroke="black" cx="481.506" cy="-324.862" rx="3.2" ry="3.2"/>
</g>
<!-- core_publication -->
<g id="node10" class="node"><title>core_publication</title>
<g id="a_node10"><a xlink:href="../../tables/core_publication.html" xlink:title="core_publication" target="_top">
<polygon fill="#ffffff" stroke="none" points="240,-360 240,-418 384,-418 384,-360 240,-360"/>
<polygon fill="#f5f5f5" stroke="none" points="240,-396 240,-418 384,-418 384,-396 240,-396"/>
<polygon fill="none" stroke="black" points="240,-396 240,-418 384,-418 384,-396 240,-396"/>
<text text-anchor="start" x="245" y="-405.2" font-family="Helvetica,sans-Serif" font-weight="bold" font-size="11.00">core_publication</text>
<text text-anchor="start" x="345" y="-404.2" font-family="Helvetica,sans-Serif" font-size="11.00">[table]</text>
<polygon fill="none" stroke="black" points="240,-378 240,-396 384,-396 384,-378 240,-378"/>
<text text-anchor="start" x="243" y="-384.2" font-family="Helvetica,sans-Serif" font-size="11.00">...</text>
<polygon fill="#ffffff" stroke="none" points="240,-360 240,-378 291,-378 291,-360 240,-360"/>
<polygon fill="none" stroke="black" points="240,-360 240,-378 291,-378 291,-360 240,-360"/>
<text text-anchor="start" x="243" y="-366.2" font-family="Helvetica,sans-Serif" font-size="11.00">&lt; 1</text>
<polygon fill="#ffffff" stroke="none" points="291,-360 291,-378 347,-378 347,-360 291,-360"/>
<polygon fill="none" stroke="black" points="291,-360 291,-378 347,-378 347,-360 291,-360"/>
<text text-anchor="start" x="308" y="-366.2" font-family="Helvetica,sans-Serif" font-size="11.00">0 rows</text>
<polygon fill="#ffffff" stroke="none" points="347,-360 347,-378 384,-378 384,-360 347,-360"/>
<polygon fill="none" stroke="black" points="347,-360 347,-378 384,-378 384,-360 347,-360"/>
<text text-anchor="start" x="364" y="-366.2" font-family="Helvetica,sans-Serif" font-size="11.00">2 &gt;</text>
</a>
</g>
</g>
<!-- core_publishedartifact&#45;&gt;core_publication -->
<g id="edge11" class="edge"><title>core_publishedartifact:publication_id:w&#45;&gt;core_publication:elipses:e</title>
<path fill="none" stroke="black" d="M478.328,-308.216C464.734,-315.817 463.771,-335.28 446,-349 420.717,-368.519 416.941,-387 385,-387"/>
<polygon fill="black" stroke="black" points="484.698,-306.77 493.297,-308.511 488.599,-305.885 492.5,-305 492.5,-305 492.5,-305 488.599,-305.885 491.703,-301.489 484.698,-306.77 484.698,-306.77"/>
<ellipse fill="none" stroke="black" cx="481.578" cy="-307.479" rx="3.2" ry="3.2"/>
</g>
<!-- core_publishedmetadata -->
<g id="node11" class="node"><title>core_publishedmetadata</title>
<g id="a_node11"><a xlink:href="../../tables/core_publishedmetadata.html" xlink:title="core_publishedmetadata" target="_top">
<polygon fill="#ffffff" stroke="none" points="487,-471 487,-529 678,-529 678,-471 487,-471"/>
<polygon fill="#f5f5f5" stroke="none" points="487.5,-507 487.5,-529 678.5,-529 678.5,-507 487.5,-507"/>
<polygon fill="none" stroke="black" points="487.5,-507 487.5,-529 678.5,-529 678.5,-507 487.5,-507"/>
<text text-anchor="start" x="492.5" y="-516.2" font-family="Helvetica,sans-Serif" font-weight="bold" font-size="11.00">core_publishedmetadata</text>
<text text-anchor="start" x="639.5" y="-515.2" font-family="Helvetica,sans-Serif" font-size="11.00">[table]</text>
<polygon fill="none" stroke="black" points="487.5,-489 487.5,-507 678.5,-507 678.5,-489 487.5,-489"/>
<text text-anchor="start" x="490.5" y="-495.2" font-family="Helvetica,sans-Serif" font-size="11.00">...</text>
<polygon fill="#ffffff" stroke="none" points="487.5,-471 487.5,-489 566.5,-489 566.5,-471 487.5,-471"/>
<polygon fill="none" stroke="black" points="487.5,-471 487.5,-489 566.5,-489 566.5,-471 487.5,-471"/>
<text text-anchor="start" x="490.5" y="-477.2" font-family="Helvetica,sans-Serif" font-size="11.00">&lt; 2</text>
<polygon fill="#ffffff" stroke="none" points="566.5,-471 566.5,-489 636.5,-489 636.5,-471 566.5,-471"/>
<polygon fill="none" stroke="black" points="566.5,-471 566.5,-489 636.5,-489 636.5,-471 566.5,-471"/>
<text text-anchor="start" x="597.5" y="-477.2" font-family="Helvetica,sans-Serif" font-size="11.00">0 rows</text>
<polygon fill="#ffffff" stroke="none" points="636.5,-471 636.5,-489 678.5,-489 678.5,-471 636.5,-471"/>
<polygon fill="none" stroke="black" points="636.5,-471 636.5,-489 678.5,-489 678.5,-471 636.5,-471"/>
<text text-anchor="start" x="668.5" y="-477.2" font-family="Helvetica,sans-Serif" font-size="11.00"> &#160;</text>
</a>
</g>
</g>
<!-- core_publishedmetadata&#45;&gt;core_content -->
<g id="edge12" class="edge"><title>core_publishedmetadata:elipses:w&#45;&gt;core_content:pulp_id:e</title>
<path fill="none" stroke="black" d="M475.876,-498.828C465.577,-500.59 460.08,-504.734 446,-507 386.903,-516.509 227.449,-500.271 178,-534 146.225,-555.673 176.962,-611 138.5,-611"/>
<polygon fill="black" stroke="black" points="485.392,-494.074 486.013,-502.05 484.418,-502.174 483.797,-494.199 485.392,-494.074"/>
<polyline fill="none" stroke="black" points="486.5,-498 482.512,-498.311 "/>
<ellipse fill="none" stroke="black" cx="479.322" cy="-498.559" rx="3.2" ry="3.2"/>
</g>
<!-- core_publishedmetadata&#45;&gt;core_publication -->
<g id="edge13" class="edge"><title>core_publishedmetadata:elipses:w&#45;&gt;core_publication:elipses:e</title>
<path fill="none" stroke="black" d="M472.414,-494.434C456.113,-483.48 466.328,-449.743 446,-428 423.691,-404.138 417.666,-387 385,-387"/>
<polygon fill="black" stroke="black" points="478.745,-496.037 485.617,-501.49 482.622,-497.018 486.5,-498 486.5,-498 486.5,-498 482.622,-497.018 487.383,-494.51 478.745,-496.037 478.745,-496.037"/>
<ellipse fill="none" stroke="black" cx="475.642" cy="-495.251" rx="3.2" ry="3.2"/>
</g>
<!-- core_remoteartifact -->
<g id="node12" class="node"><title>core_remoteartifact</title>
<g id="a_node12"><a xlink:href="../../tables/core_remoteartifact.html" xlink:title="core_remoteartifact" target="_top">
<polygon fill="#ffffff" stroke="none" points="501,-77 501,-201 664,-201 664,-77 501,-77"/>
<polygon fill="#f5f5f5" stroke="none" points="501.5,-179 501.5,-201 664.5,-201 664.5,-179 501.5,-179"/>
<polygon fill="none" stroke="black" points="501.5,-179 501.5,-201 664.5,-201 664.5,-179 501.5,-179"/>
<text text-anchor="start" x="506.5" y="-188.2" font-family="Helvetica,sans-Serif" font-weight="bold" font-size="11.00">core_remoteartifact</text>
<text text-anchor="start" x="625.5" y="-187.2" font-family="Helvetica,sans-Serif" font-size="11.00">[table]</text>
<polygon fill="none" stroke="black" points="501.5,-157 501.5,-179 664.5,-179 664.5,-157 501.5,-157"/>
<image xlink:href="../../images/primaryKeys.png" width="11px" height="12px" preserveAspectRatio="xMinYMin meet" x="506.5" y="-174"/>
<text text-anchor="start" x="533.5" y="-165.2" font-family="Helvetica,sans-Serif" font-size="11.00">pulp_id</text>
<polygon fill="#ffffff" stroke="none" points="501.5,-135 501.5,-157 664.5,-157 664.5,-135 501.5,-135"/>
<polygon fill="none" stroke="black" points="501.5,-135 501.5,-157 664.5,-157 664.5,-135 501.5,-135"/>
<image xlink:href="../../images/foreignKeys.png" width="11px" height="12px" preserveAspectRatio="xMinYMin meet" x="506.5" y="-152"/>
<text text-anchor="start" x="533.5" y="-143.2" font-family="Helvetica,sans-Serif" font-size="11.00">content_artifact_id</text>
<polygon fill="#ffffff" stroke="none" points="501.5,-113 501.5,-135 664.5,-135 664.5,-113 501.5,-113"/>
<polygon fill="none" stroke="black" points="501.5,-113 501.5,-135 664.5,-135 664.5,-113 501.5,-113"/>
<image xlink:href="../../images/foreignKeys.png" width="11px" height="12px" preserveAspectRatio="xMinYMin meet" x="506.5" y="-130"/>
<text text-anchor="start" x="533.5" y="-121.2" font-family="Helvetica,sans-Serif" font-size="11.00">remote_id</text>
<polygon fill="none" stroke="black" points="501.5,-95 501.5,-113 664.5,-113 664.5,-95 501.5,-95"/>
<text text-anchor="start" x="504.5" y="-101.2" font-family="Helvetica,sans-Serif" font-size="11.00">...</text>
<polygon fill="#ffffff" stroke="none" points="501.5,-77 501.5,-95 563.5,-95 563.5,-77 501.5,-77"/>
<polygon fill="none" stroke="black" points="501.5,-77 501.5,-95 563.5,-95 563.5,-77 501.5,-77"/>
<text text-anchor="start" x="504.5" y="-83.2" font-family="Helvetica,sans-Serif" font-size="11.00">&lt; 2</text>
<polygon fill="#ffffff" stroke="none" points="563.5,-77 563.5,-95 631.5,-95 631.5,-77 563.5,-77"/>
<polygon fill="none" stroke="black" points="563.5,-77 563.5,-95 631.5,-95 631.5,-77 563.5,-77"/>
<text text-anchor="start" x="585.5" y="-83.2" font-family="Helvetica,sans-Serif" font-size="11.00">16 rows</text>
<polygon fill="#ffffff" stroke="none" points="631.5,-77 631.5,-95 664.5,-95 664.5,-77 631.5,-77"/>
<polygon fill="none" stroke="black" points="631.5,-77 631.5,-95 664.5,-95 664.5,-77 631.5,-77"/>
<text text-anchor="start" x="654.5" y="-83.2" font-family="Helvetica,sans-Serif" font-size="11.00"> &#160;</text>
</a>
</g>
</g>
<!-- core_remoteartifact&#45;&gt;core_contentartifact -->
<g id="edge14" class="edge"><title>core_remoteartifact:content_artifact_id:w&#45;&gt;core_contentartifact:pulp_id.type:e</title>
<path fill="none" stroke="black" d="M486.218,-148.482C436.96,-168.583 507.064,-304 437,-304"/>
<polygon fill="black" stroke="black" points="492.618,-147.37 501.116,-149.547 496.559,-146.685 500.5,-146 500.5,-146 500.5,-146 496.559,-146.685 499.884,-142.453 492.618,-147.37 492.618,-147.37"/>
<ellipse fill="none" stroke="black" cx="489.465" cy="-147.918" rx="3.2" ry="3.2"/>
</g>
<!-- core_remote -->
<g id="node13" class="node"><title>core_remote</title>
<g id="a_node13"><a xlink:href="../../tables/core_remote.html" xlink:title="core_remote" target="_top">
<polygon fill="#ffffff" stroke="none" points="252,-84 252,-142 372,-142 372,-84 252,-84"/>
<polygon fill="#f5f5f5" stroke="none" points="252,-120 252,-142 372,-142 372,-120 252,-120"/>
<polygon fill="none" stroke="black" points="252,-120 252,-142 372,-142 372,-120 252,-120"/>
<text text-anchor="start" x="257" y="-129.2" font-family="Helvetica,sans-Serif" font-weight="bold" font-size="11.00">core_remote</text>
<text text-anchor="start" x="333" y="-128.2" font-family="Helvetica,sans-Serif" font-size="11.00">[table]</text>
<polygon fill="none" stroke="black" points="252,-102 252,-120 372,-120 372,-102 252,-102"/>
<text text-anchor="start" x="255" y="-108.2" font-family="Helvetica,sans-Serif" font-size="11.00">...</text>
<polygon fill="#ffffff" stroke="none" points="252,-84 252,-102 286,-102 286,-84 252,-84"/>
<polygon fill="none" stroke="black" points="252,-84 252,-102 286,-102 286,-84 252,-84"/>
<text text-anchor="start" x="255" y="-90.2" font-family="Helvetica,sans-Serif" font-size="11.00"> &#160;</text>
<polygon fill="#ffffff" stroke="none" points="286,-84 286,-102 338,-102 338,-84 286,-84"/>
<polygon fill="none" stroke="black" points="286,-84 286,-102 338,-102 338,-84 286,-84"/>
<text text-anchor="start" x="299" y="-90.2" font-family="Helvetica,sans-Serif" font-size="11.00">7 rows</text>
<polygon fill="#ffffff" stroke="none" points="338,-84 338,-102 372,-102 372,-84 338,-84"/>
<polygon fill="none" stroke="black" points="338,-84 338,-102 372,-102 372,-84 338,-84"/>
<text text-anchor="start" x="352" y="-90.2" font-family="Helvetica,sans-Serif" font-size="11.00">6 &gt;</text>
</a>
</g>
</g>
<!-- core_remoteartifact&#45;&gt;core_remote -->
<g id="edge15" class="edge"><title>core_remoteartifact:remote_id:w&#45;&gt;core_remote:elipses:e</title>
<path fill="none" stroke="black" d="M485.843,-123.691C440.681,-121.723 424.732,-111 373,-111"/>
<polygon fill="black" stroke="black" points="492.502,-123.832 500.424,-127.599 496.501,-123.916 500.5,-124 500.5,-124 500.5,-124 496.501,-123.916 500.576,-120.401 492.502,-123.832 492.502,-123.832"/>
<ellipse fill="none" stroke="black" cx="489.302" cy="-123.764" rx="3.2" ry="3.2"/>
</g>
<!-- core_repositorycontent -->
<g id="node14" class="node"><title>core_repositorycontent</title>
<g id="a_node14"><a xlink:href="../../tables/core_repositorycontent.html" xlink:title="core_repositorycontent" target="_top">
<polygon fill="#ffffff" stroke="none" points="221,-545 221,-603 403,-603 403,-545 221,-545"/>
<polygon fill="#f5f5f5" stroke="none" points="221,-581 221,-603 403,-603 403,-581 221,-581"/>
<polygon fill="none" stroke="black" points="221,-581 221,-603 403,-603 403,-581 221,-581"/>
<text text-anchor="start" x="226" y="-590.2" font-family="Helvetica,sans-Serif" font-weight="bold" font-size="11.00">core_repositorycontent</text>
<text text-anchor="start" x="364" y="-589.2" font-family="Helvetica,sans-Serif" font-size="11.00">[table]</text>
<polygon fill="none" stroke="black" points="221,-563 221,-581 403,-581 403,-563 221,-563"/>
<text text-anchor="start" x="224" y="-569.2" font-family="Helvetica,sans-Serif" font-size="11.00">...</text>
<polygon fill="#ffffff" stroke="none" points="221,-545 221,-563 289,-563 289,-545 221,-545"/>
<polygon fill="none" stroke="black" points="221,-545 221,-563 289,-563 289,-545 221,-545"/>
<text text-anchor="start" x="224" y="-551.2" font-family="Helvetica,sans-Serif" font-size="11.00">&lt; 4</text>
<polygon fill="#ffffff" stroke="none" points="289,-545 289,-563 367,-563 367,-545 289,-545"/>
<polygon fill="none" stroke="black" points="289,-545 289,-563 367,-563 367,-545 289,-545"/>
<text text-anchor="start" x="315" y="-551.2" font-family="Helvetica,sans-Serif" font-size="11.00">786 rows</text>
<polygon fill="#ffffff" stroke="none" points="367,-545 367,-563 403,-563 403,-545 367,-545"/>
<polygon fill="none" stroke="black" points="367,-545 367,-563 403,-563 403,-545 367,-545"/>
<text text-anchor="start" x="393" y="-551.2" font-family="Helvetica,sans-Serif" font-size="11.00"> &#160;</text>
</a>
</g>
</g>
<!-- core_repositorycontent&#45;&gt;core_content -->
<g id="edge16" class="edge"><title>core_repositorycontent:elipses:w&#45;&gt;core_content:pulp_id:e</title>
<path fill="none" stroke="black" d="M205.516,-573.988C178.791,-581.935 173.166,-611 138.5,-611"/>
<polygon fill="black" stroke="black" points="212.074,-573.088 220.489,-575.567 216.037,-572.544 220,-572 220,-572 220,-572 216.037,-572.544 219.511,-568.433 212.074,-573.088 212.074,-573.088"/>
<ellipse fill="none" stroke="black" cx="208.904" cy="-573.523" rx="3.2" ry="3.2"/>
</g>
</g>
</svg>
