<?xml version="1.0" encoding="UTF-8" standalone="no"?>
<!DOCTYPE svg PUBLIC "-//W3C//DTD SVG 1.1//EN"
 "http://www.w3.org/Graphics/SVG/1.1/DTD/svg11.dtd">
<!-- Generated by graphviz version 2.38.0 (20140413.2041)
 -->
<!-- Title: oneDegreeRelationshipsDiagram Pages: 1 -->
<svg width="723pt" height="261pt"
 viewBox="0.00 0.00 723.00 261.00" xmlns="http://www.w3.org/2000/svg" xmlns:xlink="http://www.w3.org/1999/xlink">
<g id="graph0" class="graph" transform="scale(1 1) rotate(0) translate(4 257)">
<title>oneDegreeRelationshipsDiagram</title>
<polygon fill="#ffffff" stroke="none" points="-4,4 -4,-257 719,-257 719,4 -4,4"/>
<text text-anchor="middle" x="74.5" y="-7.2" font-family="Helvetica,sans-Serif" font-size="11.00">Generated by SchemaSpy</text>
<!-- core_reservedresource -->
<g id="node1" class="node"><title>core_reservedresource</title>
<g id="a_node1"><a xlink:href="../../tables/core_reservedresource.html" xlink:title="core_reservedresource" target="_top">
<polygon fill="#ffffff" stroke="none" points="190,-75 190,-229 456,-229 456,-75 190,-75"/>
<polygon fill="#f5f5f5" stroke="none" points="192,-205 192,-227 454,-227 454,-205 192,-205"/>
<polygon fill="none" stroke="black" points="192,-205 192,-227 454,-227 454,-205 192,-205"/>
<text text-anchor="start" x="197" y="-214.2" font-family="Helvetica,sans-Serif" font-weight="bold" font-size="11.00">core_reservedresource</text>
<text text-anchor="start" x="415" y="-213.2" font-family="Helvetica,sans-Serif" font-size="11.00">[table]</text>
<polygon fill="none" stroke="black" points="192,-183 192,-205 349,-205 349,-183 192,-183"/>
<image xlink:href="../../images/primaryKeys.png" width="11px" height="12px" preserveAspectRatio="xMinYMin meet" x="197" y="-200"/>
<text text-anchor="start" x="212" y="-191.2" font-family="Helvetica,sans-Serif" font-size="11.00">pulp_id</text>
<polygon fill="none" stroke="black" points="349,-183 349,-205 454,-205 454,-183 349,-183"/>
<text text-anchor="start" x="352" y="-191.2" font-family="Helvetica,sans-Serif" font-size="11.00">uuid[2147483647]</text>
<polygon fill="none" stroke="black" points="192,-161 192,-183 349,-183 349,-161 192,-161"/>
<text text-anchor="start" x="212" y="-169.2" font-family="Helvetica,sans-Serif" font-size="11.00">pulp_created</text>
<polygon fill="none" stroke="black" points="349,-161 349,-183 454,-183 454,-161 349,-161"/>
<text text-anchor="start" x="352" y="-169.2" font-family="Helvetica,sans-Serif" font-size="11.00">timestamptz[35,6]</text>
<polygon fill="none" stroke="black" points="192,-139 192,-161 349,-161 349,-139 192,-139"/>
<text text-anchor="start" x="212" y="-147.2" font-family="Helvetica,sans-Serif" font-size="11.00">pulp_last_updated</text>
<polygon fill="none" stroke="black" points="349,-139 349,-161 454,-161 454,-139 349,-139"/>
<text text-anchor="start" x="352" y="-147.2" font-family="Helvetica,sans-Serif" font-size="11.00">timestamptz[35,6]</text>
<polygon fill="#ffffff" stroke="none" points="192,-117 192,-139 349,-139 349,-117 192,-117"/>
<polygon fill="none" stroke="black" points="192,-117 192,-139 349,-139 349,-117 192,-117"/>
<text text-anchor="start" x="212" y="-125.2" font-family="Helvetica,sans-Serif" font-size="11.00">resource</text>
<polygon fill="none" stroke="black" points="349,-117 349,-139 454,-139 454,-117 349,-117"/>
<text text-anchor="start" x="352" y="-125.2" font-family="Helvetica,sans-Serif" font-size="11.00">text[2147483647]</text>
<polygon fill="#ffffff" stroke="none" points="192,-95 192,-117 349,-117 349,-95 192,-95"/>
<polygon fill="none" stroke="black" points="192,-95 192,-117 349,-117 349,-95 192,-95"/>
<image xlink:href="../../images/foreignKeys.png" width="11px" height="12px" preserveAspectRatio="xMinYMin meet" x="197" y="-112"/>
<text text-anchor="start" x="212" y="-103.2" font-family="Helvetica,sans-Serif" font-size="11.00">worker_id</text>
<polygon fill="none" stroke="black" points="349,-95 349,-117 454,-117 454,-95 349,-95"/>
<text text-anchor="start" x="352" y="-103.2" font-family="Helvetica,sans-Serif" font-size="11.00">uuid[2147483647]</text>
<polygon fill="#ffffff" stroke="none" points="192,-77 192,-95 261,-95 261,-77 192,-77"/>
<polygon fill="none" stroke="black" points="192,-77 192,-95 261,-95 261,-77 192,-77"/>
<text text-anchor="start" x="195" y="-83.2" font-family="Helvetica,sans-Serif" font-size="11.00">&lt; 1</text>
<polygon fill="#ffffff" stroke="none" points="261,-77 261,-95 349,-95 349,-77 261,-77"/>
<polygon fill="none" stroke="black" points="261,-77 261,-95 349,-95 349,-77 261,-77"/>
<text text-anchor="start" x="310" y="-83.2" font-family="Helvetica,sans-Serif" font-size="11.00">0 rows</text>
<polygon fill="#ffffff" stroke="none" points="349,-77 349,-95 454,-95 454,-77 349,-77"/>
<polygon fill="none" stroke="black" points="349,-77 349,-95 454,-95 454,-77 349,-77"/>
<text text-anchor="start" x="434" y="-83.2" font-family="Helvetica,sans-Serif" font-size="11.00">1 &gt;</text>
<polygon fill="none" stroke="black" stroke-width="2" points="191,-76 191,-228 455,-228 455,-76 191,-76"/>
</a>
</g>
</g>
<!-- core_worker -->
<g id="node2" class="node"><title>core_worker</title>
<g id="a_node2"><a xlink:href="../../tables/core_worker.html" xlink:title="core_worker" target="_top">
<polygon fill="#ffffff" stroke="none" points="8,-37 8,-139 141,-139 141,-37 8,-37"/>
<polygon fill="#f5f5f5" stroke="none" points="8.5,-117 8.5,-139 141.5,-139 141.5,-117 8.5,-117"/>
<polygon fill="none" stroke="black" points="8.5,-117 8.5,-139 141.5,-139 141.5,-117 8.5,-117"/>
<text text-anchor="start" x="13.5" y="-126.2" font-family="Helvetica,sans-Serif" font-weight="bold" font-size="11.00">core_worker</text>
<text text-anchor="start" x="102.5" y="-125.2" font-family="Helvetica,sans-Serif" font-size="11.00">[table]</text>
<polygon fill="none" stroke="black" points="8.5,-95 8.5,-117 141.5,-117 141.5,-95 8.5,-95"/>
<image xlink:href="../../images/primaryKeys.png" width="11px" height="12px" preserveAspectRatio="xMinYMin meet" x="13.5" y="-112"/>
<text text-anchor="start" x="28.5" y="-103.2" font-family="Helvetica,sans-Serif" font-size="11.00">pulp_id</text>
<polygon fill="#ffffff" stroke="none" points="8.5,-73 8.5,-95 141.5,-95 141.5,-73 8.5,-73"/>
<polygon fill="none" stroke="black" points="8.5,-73 8.5,-95 141.5,-95 141.5,-73 8.5,-73"/>
<text text-anchor="start" x="28.5" y="-81.2" font-family="Helvetica,sans-Serif" font-size="11.00">name</text>
<polygon fill="none" stroke="black" points="8.5,-55 8.5,-73 141.5,-73 141.5,-55 8.5,-55"/>
<text text-anchor="start" x="11.5" y="-61.2" font-family="Helvetica,sans-Serif" font-size="11.00">...</text>
<polygon fill="#ffffff" stroke="none" points="8.5,-37 8.5,-55 42.5,-55 42.5,-37 8.5,-37"/>
<polygon fill="none" stroke="black" points="8.5,-37 8.5,-55 42.5,-55 42.5,-37 8.5,-37"/>
<text text-anchor="start" x="11.5" y="-43.2" font-family="Helvetica,sans-Serif" font-size="11.00"> &#160;</text>
<polygon fill="#ffffff" stroke="none" points="42.5,-37 42.5,-55 107.5,-55 107.5,-37 42.5,-37"/>
<polygon fill="none" stroke="black" points="42.5,-37 42.5,-55 107.5,-55 107.5,-37 42.5,-37"/>
<text text-anchor="start" x="55.5" y="-43.2" font-family="Helvetica,sans-Serif" font-size="11.00">148 rows</text>
<polygon fill="#ffffff" stroke="none" points="107.5,-37 107.5,-55 141.5,-55 141.5,-37 107.5,-37"/>
<polygon fill="none" stroke="black" points="107.5,-37 107.5,-55 141.5,-55 141.5,-37 107.5,-37"/>
<text text-anchor="start" x="121.5" y="-43.2" font-family="Helvetica,sans-Serif" font-size="11.00">2 &gt;</text>
</a>
</g>
</g>
<!-- core_reservedresource&#45;&gt;core_worker -->
<g id="edge1" class="edge"><title>core_reservedresource:worker_id:w&#45;&gt;core_worker:pulp_id:e</title>
<path fill="none" stroke="black" d="M176.283,-106C165.289,-106 158.161,-106 142.5,-106"/>
<polygon fill="black" stroke="black" points="183,-106 191,-109.6 187,-106 191,-106 191,-106 191,-106 187,-106 191,-102.4 183,-106 183,-106"/>
<ellipse fill="none" stroke="black" cx="179.8" cy="-106" rx="3.2" ry="3.2"/>
</g>
<!-- core_taskreservedresource -->
<g id="node3" class="node"><title>core_taskreservedresource</title>
<g id="a_node3"><a xlink:href="../../tables/core_taskreservedresource.html" xlink:title="core_taskreservedresource" target="_top">
<polygon fill="#ffffff" stroke="none" points="505,-125 505,-249 707,-249 707,-125 505,-125"/>
<polygon fill="#f5f5f5" stroke="none" points="505,-227 505,-249 707,-249 707,-227 505,-227"/>
<polygon fill="none" stroke="black" points="505,-227 505,-249 707,-249 707,-227 505,-227"/>
<text text-anchor="start" x="510" y="-236.2" font-family="Helvetica,sans-Serif" font-weight="bold" font-size="11.00">core_taskreservedresource</text>
<text text-anchor="start" x="668" y="-235.2" font-family="Helvetica,sans-Serif" font-size="11.00">[table]</text>
<polygon fill="none" stroke="black" points="505,-205 505,-227 707,-227 707,-205 505,-205"/>
<image xlink:href="../../images/primaryKeys.png" width="11px" height="12px" preserveAspectRatio="xMinYMin meet" x="510" y="-222"/>
<text text-anchor="start" x="535" y="-213.2" font-family="Helvetica,sans-Serif" font-size="11.00">pulp_id</text>
<polygon fill="#ffffff" stroke="none" points="505,-183 505,-205 707,-205 707,-183 505,-183"/>
<polygon fill="none" stroke="black" points="505,-183 505,-205 707,-205 707,-183 505,-183"/>
<image xlink:href="../../images/foreignKeys.png" width="11px" height="12px" preserveAspectRatio="xMinYMin meet" x="510" y="-200"/>
<text text-anchor="start" x="535" y="-191.2" font-family="Helvetica,sans-Serif" font-size="11.00">resource_id</text>
<polygon fill="#ffffff" stroke="none" points="505,-161 505,-183 707,-183 707,-161 505,-161"/>
<polygon fill="none" stroke="black" points="505,-161 505,-183 707,-183 707,-161 505,-161"/>
<image xlink:href="../../images/foreignKeys.png" width="11px" height="12px" preserveAspectRatio="xMinYMin meet" x="510" y="-178"/>
<text text-anchor="start" x="535" y="-169.2" font-family="Helvetica,sans-Serif" font-size="11.00">task_id</text>
<polygon fill="none" stroke="black" points="505,-143 505,-161 707,-161 707,-143 505,-143"/>
<text text-anchor="start" x="508" y="-149.2" font-family="Helvetica,sans-Serif" font-size="11.00">...</text>
<polygon fill="#ffffff" stroke="none" points="505,-125 505,-143 590,-143 590,-125 505,-125"/>
<polygon fill="none" stroke="black" points="505,-125 505,-143 590,-143 590,-125 505,-125"/>
<text text-anchor="start" x="508" y="-131.2" font-family="Helvetica,sans-Serif" font-size="11.00">&lt; 2</text>
<polygon fill="#ffffff" stroke="none" points="590,-125 590,-143 663,-143 663,-125 590,-125"/>
<polygon fill="none" stroke="black" points="590,-125 590,-143 663,-143 663,-125 590,-125"/>
<text text-anchor="start" x="624" y="-131.2" font-family="Helvetica,sans-Serif" font-size="11.00">0 rows</text>
<polygon fill="#ffffff" stroke="none" points="663,-125 663,-143 707,-143 707,-125 663,-125"/>
<polygon fill="none" stroke="black" points="663,-125 663,-143 707,-143 707,-125 663,-125"/>
<text text-anchor="start" x="697" y="-131.2" font-family="Helvetica,sans-Serif" font-size="11.00"> &#160;</text>
</a>
</g>
</g>
<!-- core_taskreservedresource&#45;&gt;core_reservedresource -->
<g id="edge2" class="edge"><title>core_taskreservedresource:resource_id:w&#45;&gt;core_reservedresource:pulp_id.type:e</title>
<path fill="none" stroke="black" d="M489.491,-194C478.177,-194 470.993,-194 455,-194"/>
<polygon fill="black" stroke="black" points="496,-194 504,-197.6 500,-194 504,-194 504,-194 504,-194 500,-194 504,-190.4 496,-194 496,-194"/>
<ellipse fill="none" stroke="black" cx="492.8" cy="-194" rx="3.2" ry="3.2"/>
</g>
</g>
</svg>
