<?xml version="1.0" encoding="UTF-8" standalone="no"?>
<!DOCTYPE svg PUBLIC "-//W3C//DTD SVG 1.1//EN"
 "http://www.w3.org/Graphics/SVG/1.1/DTD/svg11.dtd">
<!-- Generated by graphviz version 2.38.0 (20140413.2041)
 -->
<!-- Title: twoDegreesRelationshipsDiagram Pages: 1 -->
<svg width="731pt" height="415pt"
 viewBox="0.00 0.00 731.00 415.00" xmlns="http://www.w3.org/2000/svg" xmlns:xlink="http://www.w3.org/1999/xlink">
<g id="graph0" class="graph" transform="scale(1 1) rotate(0) translate(4 411)">
<title>twoDegreesRelationshipsDiagram</title>
<polygon fill="#ffffff" stroke="none" points="-4,4 -4,-411 727,-411 727,4 -4,4"/>
<text text-anchor="middle" x="74.5" y="-7.2" font-family="Helvetica,sans-Serif" font-size="11.00">Generated by SchemaSpy</text>
<!-- core_contentartifact -->
<g id="node1" class="node"><title>core_contentartifact</title>
<g id="a_node1"><a xlink:href="../../tables/core_contentartifact.html" xlink:title="core_contentartifact" target="_top">
<polygon fill="#ffffff" stroke="none" points="236,-233 236,-379 402,-379 402,-233 236,-233"/>
<polygon fill="#f5f5f5" stroke="none" points="236,-357 236,-379 402,-379 402,-357 236,-357"/>
<polygon fill="none" stroke="black" points="236,-357 236,-379 402,-379 402,-357 236,-357"/>
<text text-anchor="start" x="241" y="-366.2" font-family="Helvetica,sans-Serif" font-weight="bold" font-size="11.00">core_contentartifact</text>
<text text-anchor="start" x="363" y="-365.2" font-family="Helvetica,sans-Serif" font-size="11.00">[table]</text>
<polygon fill="none" stroke="black" points="236,-335 236,-357 402,-357 402,-335 236,-335"/>
<image xlink:href="../../images/primaryKeys.png" width="11px" height="12px" preserveAspectRatio="xMinYMin meet" x="241" y="-352"/>
<text text-anchor="start" x="268" y="-343.2" font-family="Helvetica,sans-Serif" font-size="11.00">pulp_id</text>
<polygon fill="#ffffff" stroke="none" points="236,-313 236,-335 402,-335 402,-313 236,-313"/>
<polygon fill="none" stroke="black" points="236,-313 236,-335 402,-335 402,-313 236,-313"/>
<text text-anchor="start" x="268" y="-321.2" font-family="Helvetica,sans-Serif" font-size="11.00">relative_path</text>
<polygon fill="#ffffff" stroke="none" points="236,-291 236,-313 402,-313 402,-291 236,-291"/>
<polygon fill="none" stroke="black" points="236,-291 236,-313 402,-313 402,-291 236,-291"/>
<image xlink:href="../../images/foreignKeys.png" width="11px" height="12px" preserveAspectRatio="xMinYMin meet" x="241" y="-308"/>
<text text-anchor="start" x="268" y="-299.2" font-family="Helvetica,sans-Serif" font-size="11.00">artifact_id</text>
<polygon fill="#ffffff" stroke="none" points="236,-269 236,-291 402,-291 402,-269 236,-269"/>
<polygon fill="none" stroke="black" points="236,-269 236,-291 402,-291 402,-269 236,-269"/>
<image xlink:href="../../images/foreignKeys.png" width="11px" height="12px" preserveAspectRatio="xMinYMin meet" x="241" y="-286"/>
<text text-anchor="start" x="268" y="-277.2" font-family="Helvetica,sans-Serif" font-size="11.00">content_id</text>
<polygon fill="none" stroke="black" points="236,-251 236,-269 402,-269 402,-251 236,-251"/>
<text text-anchor="start" x="239" y="-257.2" font-family="Helvetica,sans-Serif" font-size="11.00">...</text>
<polygon fill="#ffffff" stroke="none" points="236,-233 236,-251 294,-251 294,-233 236,-233"/>
<polygon fill="none" stroke="black" points="236,-233 236,-251 294,-251 294,-233 236,-233"/>
<text text-anchor="start" x="239" y="-239.2" font-family="Helvetica,sans-Serif" font-size="11.00">&lt; 2</text>
<polygon fill="#ffffff" stroke="none" points="294,-233 294,-251 361,-251 361,-233 294,-233"/>
<polygon fill="none" stroke="black" points="294,-233 294,-251 361,-251 361,-233 294,-233"/>
<text text-anchor="start" x="315" y="-239.2" font-family="Helvetica,sans-Serif" font-size="11.00">88 rows</text>
<polygon fill="#ffffff" stroke="none" points="361,-233 361,-251 402,-251 402,-233 361,-233"/>
<polygon fill="none" stroke="black" points="361,-233 361,-251 402,-251 402,-233 361,-233"/>
<text text-anchor="start" x="382" y="-239.2" font-family="Helvetica,sans-Serif" font-size="11.00">2 &gt;</text>
</a>
</g>
</g>
<!-- core_artifact -->
<g id="node2" class="node"><title>core_artifact</title>
<g id="a_node2"><a xlink:href="../../tables/core_artifact.html" xlink:title="core_artifact" target="_top">
<polygon fill="#ffffff" stroke="none" points="37,-275 37,-333 158,-333 158,-275 37,-275"/>
<polygon fill="#f5f5f5" stroke="none" points="37.5,-311 37.5,-333 158.5,-333 158.5,-311 37.5,-311"/>
<polygon fill="none" stroke="black" points="37.5,-311 37.5,-333 158.5,-333 158.5,-311 37.5,-311"/>
<text text-anchor="start" x="42.5" y="-320.2" font-family="Helvetica,sans-Serif" font-weight="bold" font-size="11.00">core_artifact</text>
<text text-anchor="start" x="119.5" y="-319.2" font-family="Helvetica,sans-Serif" font-size="11.00">[table]</text>
<polygon fill="none" stroke="black" points="37.5,-293 37.5,-311 158.5,-311 158.5,-293 37.5,-293"/>
<text text-anchor="start" x="40.5" y="-299.2" font-family="Helvetica,sans-Serif" font-size="11.00">...</text>
<polygon fill="#ffffff" stroke="none" points="37.5,-275 37.5,-293 65.5,-293 65.5,-275 37.5,-275"/>
<polygon fill="none" stroke="black" points="37.5,-275 37.5,-293 65.5,-293 65.5,-275 37.5,-275"/>
<text text-anchor="start" x="40.5" y="-281.2" font-family="Helvetica,sans-Serif" font-size="11.00"> &#160;</text>
<polygon fill="#ffffff" stroke="none" points="65.5,-275 65.5,-293 127.5,-293 127.5,-275 65.5,-275"/>
<polygon fill="none" stroke="black" points="65.5,-275 65.5,-293 127.5,-293 127.5,-275 65.5,-275"/>
<text text-anchor="start" x="75.5" y="-281.2" font-family="Helvetica,sans-Serif" font-size="11.00">588 rows</text>
<polygon fill="#ffffff" stroke="none" points="127.5,-275 127.5,-293 158.5,-293 158.5,-275 127.5,-275"/>
<polygon fill="none" stroke="black" points="127.5,-275 127.5,-293 158.5,-293 158.5,-275 127.5,-275"/>
<text text-anchor="start" x="138.5" y="-281.2" font-family="Helvetica,sans-Serif" font-size="11.00">1 &gt;</text>
</a>
</g>
</g>
<!-- core_contentartifact&#45;&gt;core_artifact -->
<g id="edge1" class="edge"><title>core_contentartifact:artifact_id:w&#45;&gt;core_artifact:elipses:e</title>
<path fill="none" stroke="black" d="M220.294,-302C198.014,-302 187.55,-302 159.5,-302"/>
<polygon fill="black" stroke="black" points="227,-302 235,-305.6 231,-302 235,-302 235,-302 235,-302 231,-302 235,-298.4 227,-302 227,-302"/>
<ellipse fill="none" stroke="black" cx="223.8" cy="-302" rx="3.2" ry="3.2"/>
</g>
<!-- core_content -->
<g id="node3" class="node"><title>core_content</title>
<g id="a_node3"><a xlink:href="../../tables/core_content.html" xlink:title="core_content" target="_top">
<polygon fill="#ffffff" stroke="none" points="36,-37 36,-95 159,-95 159,-37 36,-37"/>
<polygon fill="#f5f5f5" stroke="none" points="36.5,-73 36.5,-95 159.5,-95 159.5,-73 36.5,-73"/>
<polygon fill="none" stroke="black" points="36.5,-73 36.5,-95 159.5,-95 159.5,-73 36.5,-73"/>
<text text-anchor="start" x="41.5" y="-82.2" font-family="Helvetica,sans-Serif" font-weight="bold" font-size="11.00">core_content</text>
<text text-anchor="start" x="120.5" y="-81.2" font-family="Helvetica,sans-Serif" font-size="11.00">[table]</text>
<polygon fill="none" stroke="black" points="36.5,-55 36.5,-73 159.5,-73 159.5,-55 36.5,-55"/>
<text text-anchor="start" x="39.5" y="-61.2" font-family="Helvetica,sans-Serif" font-size="11.00">...</text>
<polygon fill="#ffffff" stroke="none" points="36.5,-37 36.5,-55 68.5,-55 68.5,-37 36.5,-37"/>
<polygon fill="none" stroke="black" points="36.5,-37 36.5,-55 68.5,-55 68.5,-37 36.5,-37"/>
<text text-anchor="start" x="39.5" y="-43.2" font-family="Helvetica,sans-Serif" font-size="11.00"> &#160;</text>
<polygon fill="#ffffff" stroke="none" points="68.5,-37 68.5,-55 126.5,-55 126.5,-37 68.5,-37"/>
<polygon fill="none" stroke="black" points="68.5,-37 68.5,-55 126.5,-55 126.5,-37 68.5,-37"/>
<text text-anchor="start" x="80.5" y="-43.2" font-family="Helvetica,sans-Serif" font-size="11.00">88 rows</text>
<polygon fill="#ffffff" stroke="none" points="126.5,-37 126.5,-55 159.5,-55 159.5,-37 126.5,-37"/>
<polygon fill="none" stroke="black" points="126.5,-37 126.5,-55 159.5,-55 159.5,-37 126.5,-37"/>
<text text-anchor="start" x="139.5" y="-43.2" font-family="Helvetica,sans-Serif" font-size="11.00">8 &gt;</text>
</a>
</g>
</g>
<!-- core_contentartifact&#45;&gt;core_content -->
<g id="edge2" class="edge"><title>core_contentartifact:content_id:w&#45;&gt;core_content:elipses:e</title>
<path fill="none" stroke="black" d="M220.45,-278.522C165.565,-265.702 227.54,-172.207 195,-106 184.345,-84.3201 184.657,-64 160.5,-64"/>
<polygon fill="black" stroke="black" points="227.041,-279.192 234.636,-283.582 231.02,-279.596 235,-280 235,-280 235,-280 231.02,-279.596 235.364,-276.418 227.041,-279.192 227.041,-279.192"/>
<ellipse fill="none" stroke="black" cx="223.857" cy="-278.868" rx="3.2" ry="3.2"/>
</g>
<!-- core_publication -->
<g id="node4" class="node"><title>core_publication</title>
<g id="a_node4"><a xlink:href="../../tables/core_publication.html" xlink:title="core_publication" target="_top">
<polygon fill="#ffffff" stroke="none" points="245,-88 245,-212 393,-212 393,-88 245,-88"/>
<polygon fill="#f5f5f5" stroke="none" points="245,-190 245,-212 393,-212 393,-190 245,-190"/>
<polygon fill="none" stroke="black" points="245,-190 245,-212 393,-212 393,-190 245,-190"/>
<text text-anchor="start" x="250" y="-199.2" font-family="Helvetica,sans-Serif" font-weight="bold" font-size="11.00">core_publication</text>
<text text-anchor="start" x="354" y="-198.2" font-family="Helvetica,sans-Serif" font-size="11.00">[table]</text>
<polygon fill="none" stroke="black" points="245,-168 245,-190 393,-190 393,-168 245,-168"/>
<image xlink:href="../../images/primaryKeys.png" width="11px" height="12px" preserveAspectRatio="xMinYMin meet" x="250" y="-185"/>
<text text-anchor="start" x="265" y="-176.2" font-family="Helvetica,sans-Serif" font-size="11.00">pulp_id</text>
<polygon fill="#ffffff" stroke="none" points="245,-146 245,-168 393,-168 393,-146 245,-146"/>
<polygon fill="none" stroke="black" points="245,-146 245,-168 393,-168 393,-146 245,-146"/>
<text text-anchor="start" x="265" y="-154.2" font-family="Helvetica,sans-Serif" font-size="11.00">complete</text>
<polygon fill="#ffffff" stroke="none" points="245,-124 245,-146 393,-146 393,-124 245,-124"/>
<polygon fill="none" stroke="black" points="245,-124 245,-146 393,-146 393,-124 245,-124"/>
<image xlink:href="../../images/foreignKeys.png" width="11px" height="12px" preserveAspectRatio="xMinYMin meet" x="250" y="-141"/>
<text text-anchor="start" x="265" y="-132.2" font-family="Helvetica,sans-Serif" font-size="11.00">repository_version_id</text>
<polygon fill="none" stroke="black" points="245,-106 245,-124 393,-124 393,-106 245,-106"/>
<text text-anchor="start" x="248" y="-112.2" font-family="Helvetica,sans-Serif" font-size="11.00">...</text>
<polygon fill="#ffffff" stroke="none" points="245,-88 245,-106 298,-106 298,-88 245,-88"/>
<polygon fill="none" stroke="black" points="245,-88 245,-106 298,-106 298,-88 245,-88"/>
<text text-anchor="start" x="248" y="-94.2" font-family="Helvetica,sans-Serif" font-size="11.00">&lt; 1</text>
<polygon fill="#ffffff" stroke="none" points="298,-88 298,-106 355,-106 355,-88 298,-88"/>
<polygon fill="none" stroke="black" points="298,-88 298,-106 355,-106 355,-88 298,-88"/>
<text text-anchor="start" x="316" y="-94.2" font-family="Helvetica,sans-Serif" font-size="11.00">0 rows</text>
<polygon fill="#ffffff" stroke="none" points="355,-88 355,-106 393,-106 393,-88 355,-88"/>
<polygon fill="none" stroke="black" points="355,-88 355,-106 393,-106 393,-88 355,-88"/>
<text text-anchor="start" x="373" y="-94.2" font-family="Helvetica,sans-Serif" font-size="11.00">2 &gt;</text>
</a>
</g>
</g>
<!-- core_repositoryversion -->
<g id="node5" class="node"><title>core_repositoryversion</title>
<g id="a_node5"><a xlink:href="../../tables/core_repositoryversion.html" xlink:title="core_repositoryversion" target="_top">
<polygon fill="#ffffff" stroke="none" points="8,-116 8,-174 187,-174 187,-116 8,-116"/>
<polygon fill="#f5f5f5" stroke="none" points="8.5,-152 8.5,-174 187.5,-174 187.5,-152 8.5,-152"/>
<polygon fill="none" stroke="black" points="8.5,-152 8.5,-174 187.5,-174 187.5,-152 8.5,-152"/>
<text text-anchor="start" x="13.5" y="-161.2" font-family="Helvetica,sans-Serif" font-weight="bold" font-size="11.00">core_repositoryversion</text>
<text text-anchor="start" x="148.5" y="-160.2" font-family="Helvetica,sans-Serif" font-size="11.00">[table]</text>
<polygon fill="none" stroke="black" points="8.5,-134 8.5,-152 187.5,-152 187.5,-134 8.5,-134"/>
<text text-anchor="start" x="11.5" y="-140.2" font-family="Helvetica,sans-Serif" font-size="11.00">...</text>
<polygon fill="#ffffff" stroke="none" points="8.5,-116 8.5,-134 70.5,-134 70.5,-116 8.5,-116"/>
<polygon fill="none" stroke="black" points="8.5,-116 8.5,-134 70.5,-134 70.5,-116 8.5,-116"/>
<text text-anchor="start" x="11.5" y="-122.2" font-family="Helvetica,sans-Serif" font-size="11.00">&lt; 2</text>
<polygon fill="#ffffff" stroke="none" points="70.5,-116 70.5,-134 144.5,-134 144.5,-116 70.5,-116"/>
<polygon fill="none" stroke="black" points="70.5,-116 70.5,-134 144.5,-134 144.5,-116 70.5,-116"/>
<text text-anchor="start" x="92.5" y="-122.2" font-family="Helvetica,sans-Serif" font-size="11.00">162 rows</text>
<polygon fill="#ffffff" stroke="none" points="144.5,-116 144.5,-134 187.5,-134 187.5,-116 144.5,-116"/>
<polygon fill="none" stroke="black" points="144.5,-116 144.5,-134 187.5,-134 187.5,-116 144.5,-116"/>
<text text-anchor="start" x="167.5" y="-122.2" font-family="Helvetica,sans-Serif" font-size="11.00">7 &gt;</text>
</a>
</g>
</g>
<!-- core_publication&#45;&gt;core_repositoryversion -->
<g id="edge3" class="edge"><title>core_publication:repository_version_id:w&#45;&gt;core_repositoryversion:elipses:e</title>
<path fill="none" stroke="black" d="M229.58,-136.046C215.526,-138.214 207.775,-143 188.5,-143"/>
<polygon fill="black" stroke="black" points="236.021,-135.579 244.26,-138.591 240.01,-135.289 244,-135 244,-135 244,-135 240.01,-135.289 243.74,-131.409 236.021,-135.579 236.021,-135.579"/>
<ellipse fill="none" stroke="black" cx="232.829" cy="-135.81" rx="3.2" ry="3.2"/>
</g>
<!-- core_publishedartifact -->
<g id="node6" class="node"><title>core_publishedartifact</title>
<g id="a_node6"><a xlink:href="../../tables/core_publishedartifact.html" xlink:title="core_publishedartifact" target="_top">
<polygon fill="#ffffff" stroke="none" points="451,-148 451,-324 715,-324 715,-148 451,-148"/>
<polygon fill="#f5f5f5" stroke="none" points="453,-300 453,-322 713,-322 713,-300 453,-300"/>
<polygon fill="none" stroke="black" points="453,-300 453,-322 713,-322 713,-300 453,-300"/>
<text text-anchor="start" x="458" y="-309.2" font-family="Helvetica,sans-Serif" font-weight="bold" font-size="11.00">core_publishedartifact</text>
<text text-anchor="start" x="674" y="-308.2" font-family="Helvetica,sans-Serif" font-size="11.00">[table]</text>
<polygon fill="none" stroke="black" points="453,-278 453,-300 608,-300 608,-278 453,-278"/>
<image xlink:href="../../images/primaryKeys.png" width="11px" height="12px" preserveAspectRatio="xMinYMin meet" x="458" y="-295"/>
<text text-anchor="start" x="473" y="-286.2" font-family="Helvetica,sans-Serif" font-size="11.00">pulp_id</text>
<polygon fill="none" stroke="black" points="608,-278 608,-300 713,-300 713,-278 608,-278"/>
<text text-anchor="start" x="611" y="-286.2" font-family="Helvetica,sans-Serif" font-size="11.00">uuid[2147483647]</text>
<polygon fill="none" stroke="black" points="453,-256 453,-278 608,-278 608,-256 453,-256"/>
<text text-anchor="start" x="473" y="-264.2" font-family="Helvetica,sans-Serif" font-size="11.00">pulp_created</text>
<polygon fill="none" stroke="black" points="608,-256 608,-278 713,-278 713,-256 608,-256"/>
<text text-anchor="start" x="611" y="-264.2" font-family="Helvetica,sans-Serif" font-size="11.00">timestamptz[35,6]</text>
<polygon fill="none" stroke="black" points="453,-234 453,-256 608,-256 608,-234 453,-234"/>
<text text-anchor="start" x="473" y="-242.2" font-family="Helvetica,sans-Serif" font-size="11.00">pulp_last_updated</text>
<polygon fill="none" stroke="black" points="608,-234 608,-256 713,-256 713,-234 608,-234"/>
<text text-anchor="start" x="611" y="-242.2" font-family="Helvetica,sans-Serif" font-size="11.00">timestamptz[35,6]</text>
<polygon fill="#ffffff" stroke="none" points="453,-212 453,-234 608,-234 608,-212 453,-212"/>
<polygon fill="none" stroke="black" points="453,-212 453,-234 608,-234 608,-212 453,-212"/>
<text text-anchor="start" x="473" y="-220.2" font-family="Helvetica,sans-Serif" font-size="11.00">relative_path</text>
<polygon fill="none" stroke="black" points="608,-212 608,-234 713,-234 713,-212 608,-212"/>
<text text-anchor="start" x="611" y="-220.2" font-family="Helvetica,sans-Serif" font-size="11.00">text[2147483647]</text>
<polygon fill="#ffffff" stroke="none" points="453,-190 453,-212 608,-212 608,-190 453,-190"/>
<polygon fill="none" stroke="black" points="453,-190 453,-212 608,-212 608,-190 453,-190"/>
<image xlink:href="../../images/foreignKeys.png" width="11px" height="12px" preserveAspectRatio="xMinYMin meet" x="458" y="-207"/>
<text text-anchor="start" x="473" y="-198.2" font-family="Helvetica,sans-Serif" font-size="11.00">content_artifact_id</text>
<polygon fill="none" stroke="black" points="608,-190 608,-212 713,-212 713,-190 608,-190"/>
<text text-anchor="start" x="611" y="-198.2" font-family="Helvetica,sans-Serif" font-size="11.00">uuid[2147483647]</text>
<polygon fill="#ffffff" stroke="none" points="453,-168 453,-190 608,-190 608,-168 453,-168"/>
<polygon fill="none" stroke="black" points="453,-168 453,-190 608,-190 608,-168 453,-168"/>
<image xlink:href="../../images/foreignKeys.png" width="11px" height="12px" preserveAspectRatio="xMinYMin meet" x="458" y="-185"/>
<text text-anchor="start" x="473" y="-176.2" font-family="Helvetica,sans-Serif" font-size="11.00">publication_id</text>
<polygon fill="none" stroke="black" points="608,-168 608,-190 713,-190 713,-168 608,-168"/>
<text text-anchor="start" x="611" y="-176.2" font-family="Helvetica,sans-Serif" font-size="11.00">uuid[2147483647]</text>
<polygon fill="#ffffff" stroke="none" points="453,-150 453,-168 521,-168 521,-150 453,-150"/>
<polygon fill="none" stroke="black" points="453,-150 453,-168 521,-168 521,-150 453,-150"/>
<text text-anchor="start" x="456" y="-156.2" font-family="Helvetica,sans-Serif" font-size="11.00">&lt; 2</text>
<polygon fill="#ffffff" stroke="none" points="521,-150 521,-168 608,-168 608,-150 521,-150"/>
<polygon fill="none" stroke="black" points="521,-150 521,-168 608,-168 608,-150 521,-150"/>
<text text-anchor="start" x="569" y="-156.2" font-family="Helvetica,sans-Serif" font-size="11.00">0 rows</text>
<polygon fill="#ffffff" stroke="none" points="608,-150 608,-168 713,-168 713,-150 608,-150"/>
<polygon fill="none" stroke="black" points="608,-150 608,-168 713,-168 713,-150 608,-150"/>
<text text-anchor="start" x="693" y="-156.2" font-family="Helvetica,sans-Serif" font-size="11.00">0 &gt;</text>
<polygon fill="none" stroke="black" stroke-width="2" points="452,-149 452,-323 714,-323 714,-149 452,-149"/>
</a>
</g>
</g>
<!-- core_publishedartifact&#45;&gt;core_contentartifact -->
<g id="edge4" class="edge"><title>core_publishedartifact:content_artifact_id:w&#45;&gt;core_contentartifact:pulp_id:e</title>
<path fill="none" stroke="black" d="M437.701,-204.029C397.792,-224.851 465.179,-346 403,-346"/>
<polygon fill="black" stroke="black" points="444.174,-202.658 452.746,-204.522 448.087,-201.829 452,-201 452,-201 452,-201 448.087,-201.829 451.254,-197.478 444.174,-202.658 444.174,-202.658"/>
<ellipse fill="none" stroke="black" cx="441.043" cy="-203.321" rx="3.2" ry="3.2"/>
</g>
<!-- core_publishedartifact&#45;&gt;core_publication -->
<g id="edge5" class="edge"><title>core_publishedartifact:publication_id:w&#45;&gt;core_publication:pulp_id:e</title>
<path fill="none" stroke="black" d="M437.454,-179C422.478,-179 414.139,-179 394,-179"/>
<polygon fill="black" stroke="black" points="444,-179 452,-182.6 448,-179 452,-179 452,-179 452,-179 448,-179 452,-175.4 444,-179 444,-179"/>
<ellipse fill="none" stroke="black" cx="440.8" cy="-179" rx="3.2" ry="3.2"/>
</g>
<!-- core_publishedmetadata -->
<g id="node7" class="node"><title>core_publishedmetadata</title>
<g id="a_node7"><a xlink:href="../../tables/core_publishedmetadata.html" xlink:title="core_publishedmetadata" target="_top">
<polygon fill="#ffffff" stroke="none" points="487.5,-53 487.5,-111 678.5,-111 678.5,-53 487.5,-53"/>
<polygon fill="#f5f5f5" stroke="none" points="488,-89 488,-111 679,-111 679,-89 488,-89"/>
<polygon fill="none" stroke="black" points="488,-89 488,-111 679,-111 679,-89 488,-89"/>
<text text-anchor="start" x="493" y="-98.2" font-family="Helvetica,sans-Serif" font-weight="bold" font-size="11.00">core_publishedmetadata</text>
<text text-anchor="start" x="640" y="-97.2" font-family="Helvetica,sans-Serif" font-size="11.00">[table]</text>
<polygon fill="none" stroke="black" points="488,-71 488,-89 679,-89 679,-71 488,-71"/>
<text text-anchor="start" x="491" y="-77.2" font-family="Helvetica,sans-Serif" font-size="11.00">...</text>
<polygon fill="#ffffff" stroke="none" points="488,-53 488,-71 567,-71 567,-53 488,-53"/>
<polygon fill="none" stroke="black" points="488,-53 488,-71 567,-71 567,-53 488,-53"/>
<text text-anchor="start" x="491" y="-59.2" font-family="Helvetica,sans-Serif" font-size="11.00">&lt; 2</text>
<polygon fill="#ffffff" stroke="none" points="567,-53 567,-71 637,-71 637,-53 567,-53"/>
<polygon fill="none" stroke="black" points="567,-53 567,-71 637,-71 637,-53 567,-53"/>
<text text-anchor="start" x="598" y="-59.2" font-family="Helvetica,sans-Serif" font-size="11.00">0 rows</text>
<polygon fill="#ffffff" stroke="none" points="637,-53 637,-71 679,-71 679,-53 637,-53"/>
<polygon fill="none" stroke="black" points="637,-53 637,-71 679,-71 679,-53 637,-53"/>
<text text-anchor="start" x="669" y="-59.2" font-family="Helvetica,sans-Serif" font-size="11.00"> &#160;</text>
</a>
</g>
</g>
<!-- core_publishedmetadata&#45;&gt;core_content -->
<g id="edge6" class="edge"><title>core_publishedmetadata:elipses:w&#45;&gt;core_content:elipses:e</title>
<path fill="none" stroke="black" d="M476.573,-79.906C398.295,-78.5948 229.879,-64 160.5,-64"/>
<polygon fill="black" stroke="black" points="486.236,-75.9929 486.164,-83.9926 484.564,-83.9782 484.636,-75.9785 486.236,-75.9929"/>
<polyline fill="none" stroke="black" points="487,-80 483,-79.9639 "/>
<ellipse fill="none" stroke="black" cx="479.8" cy="-79.9351" rx="3.2" ry="3.2"/>
</g>
<!-- core_publishedmetadata&#45;&gt;core_publication -->
<g id="edge7" class="edge"><title>core_publishedmetadata:elipses:w&#45;&gt;core_publication:pulp_id:e</title>
<path fill="none" stroke="black" d="M472.734,-82.2538C430.904,-96.9899 448.945,-179 394,-179"/>
<polygon fill="black" stroke="black" points="479.098,-81.2484 487.562,-83.5559 483.049,-80.6242 487,-80 487,-80 487,-80 483.049,-80.6242 486.438,-76.4441 479.098,-81.2484 479.098,-81.2484"/>
<ellipse fill="none" stroke="black" cx="475.937" cy="-81.7478" rx="3.2" ry="3.2"/>
</g>
<!-- core_remoteartifact -->
<g id="node8" class="node"><title>core_remoteartifact</title>
<g id="a_node8"><a xlink:href="../../tables/core_remoteartifact.html" xlink:title="core_remoteartifact" target="_top">
<polygon fill="#ffffff" stroke="none" points="501.5,-345 501.5,-403 664.5,-403 664.5,-345 501.5,-345"/>
<polygon fill="#f5f5f5" stroke="none" points="502,-381 502,-403 665,-403 665,-381 502,-381"/>
<polygon fill="none" stroke="black" points="502,-381 502,-403 665,-403 665,-381 502,-381"/>
<text text-anchor="start" x="507" y="-390.2" font-family="Helvetica,sans-Serif" font-weight="bold" font-size="11.00">core_remoteartifact</text>
<text text-anchor="start" x="626" y="-389.2" font-family="Helvetica,sans-Serif" font-size="11.00">[table]</text>
<polygon fill="none" stroke="black" points="502,-363 502,-381 665,-381 665,-363 502,-363"/>
<text text-anchor="start" x="505" y="-369.2" font-family="Helvetica,sans-Serif" font-size="11.00">...</text>
<polygon fill="#ffffff" stroke="none" points="502,-345 502,-363 564,-363 564,-345 502,-345"/>
<polygon fill="none" stroke="black" points="502,-345 502,-363 564,-363 564,-345 502,-345"/>
<text text-anchor="start" x="505" y="-351.2" font-family="Helvetica,sans-Serif" font-size="11.00">&lt; 2</text>
<polygon fill="#ffffff" stroke="none" points="564,-345 564,-363 632,-363 632,-345 564,-345"/>
<polygon fill="none" stroke="black" points="564,-345 564,-363 632,-363 632,-345 564,-345"/>
<text text-anchor="start" x="586" y="-351.2" font-family="Helvetica,sans-Serif" font-size="11.00">16 rows</text>
<polygon fill="#ffffff" stroke="none" points="632,-345 632,-363 665,-363 665,-345 632,-345"/>
<polygon fill="none" stroke="black" points="632,-345 632,-363 665,-363 665,-345 632,-345"/>
<text text-anchor="start" x="655" y="-351.2" font-family="Helvetica,sans-Serif" font-size="11.00"> &#160;</text>
</a>
</g>
</g>
<!-- core_remoteartifact&#45;&gt;core_contentartifact -->
<g id="edge8" class="edge"><title>core_remoteartifact:elipses:w&#45;&gt;core_contentartifact:pulp_id:e</title>
<path fill="none" stroke="black" d="M486.57,-371.013C453.581,-366.263 442.782,-346 403,-346"/>
<polygon fill="black" stroke="black" points="493.019,-371.454 500.754,-375.592 497.009,-371.727 501,-372 501,-372 501,-372 497.009,-371.727 501.246,-368.408 493.019,-371.454 493.019,-371.454"/>
<ellipse fill="none" stroke="black" cx="489.826" cy="-371.235" rx="3.2" ry="3.2"/>
</g>
</g>
</svg>
