<?xml version="1.0" encoding="UTF-8" standalone="no"?>
<!DOCTYPE svg PUBLIC "-//W3C//DTD SVG 1.1//EN"
 "http://www.w3.org/Graphics/SVG/1.1/DTD/svg11.dtd">
<!-- Generated by graphviz version 2.38.0 (20140413.2041)
 -->
<!-- Title: oneDegreeRelationshipsDiagram Pages: 1 -->
<svg width="681pt" height="461pt"
 viewBox="0.00 0.00 681.00 461.00" xmlns="http://www.w3.org/2000/svg" xmlns:xlink="http://www.w3.org/1999/xlink">
<g id="graph0" class="graph" transform="scale(1 1) rotate(0) translate(4 457)">
<title>oneDegreeRelationshipsDiagram</title>
<polygon fill="#ffffff" stroke="none" points="-4,4 -4,-457 677,-457 677,4 -4,4"/>
<text text-anchor="middle" x="74.5" y="-7.2" font-family="Helvetica,sans-Serif" font-size="11.00">Generated by SchemaSpy</text>
<!-- core_contentartifact -->
<g id="node1" class="node"><title>core_contentartifact</title>
<g id="a_node1"><a xlink:href="../../tables/core_contentartifact.html" xlink:title="core_contentartifact" target="_top">
<polygon fill="#ffffff" stroke="none" points="186,-158 186,-334 438,-334 438,-158 186,-158"/>
<polygon fill="#f5f5f5" stroke="none" points="188,-310 188,-332 436,-332 436,-310 188,-310"/>
<polygon fill="none" stroke="black" points="188,-310 188,-332 436,-332 436,-310 188,-310"/>
<text text-anchor="start" x="193" y="-319.2" font-family="Helvetica,sans-Serif" font-weight="bold" font-size="11.00">core_contentartifact</text>
<text text-anchor="start" x="397" y="-318.2" font-family="Helvetica,sans-Serif" font-size="11.00">[table]</text>
<polygon fill="none" stroke="black" points="188,-288 188,-310 331,-310 331,-288 188,-288"/>
<image xlink:href="../../images/primaryKeys.png" width="11px" height="12px" preserveAspectRatio="xMinYMin meet" x="193" y="-305"/>
<text text-anchor="start" x="208" y="-296.2" font-family="Helvetica,sans-Serif" font-size="11.00">pulp_id</text>
<polygon fill="none" stroke="black" points="331,-288 331,-310 436,-310 436,-288 331,-288"/>
<text text-anchor="start" x="334" y="-296.2" font-family="Helvetica,sans-Serif" font-size="11.00">uuid[2147483647]</text>
<polygon fill="none" stroke="black" points="188,-266 188,-288 331,-288 331,-266 188,-266"/>
<text text-anchor="start" x="208" y="-274.2" font-family="Helvetica,sans-Serif" font-size="11.00">pulp_created</text>
<polygon fill="none" stroke="black" points="331,-266 331,-288 436,-288 436,-266 331,-266"/>
<text text-anchor="start" x="334" y="-274.2" font-family="Helvetica,sans-Serif" font-size="11.00">timestamptz[35,6]</text>
<polygon fill="none" stroke="black" points="188,-244 188,-266 331,-266 331,-244 188,-244"/>
<text text-anchor="start" x="208" y="-252.2" font-family="Helvetica,sans-Serif" font-size="11.00">pulp_last_updated</text>
<polygon fill="none" stroke="black" points="331,-244 331,-266 436,-266 436,-244 331,-244"/>
<text text-anchor="start" x="334" y="-252.2" font-family="Helvetica,sans-Serif" font-size="11.00">timestamptz[35,6]</text>
<polygon fill="#ffffff" stroke="none" points="188,-222 188,-244 331,-244 331,-222 188,-222"/>
<polygon fill="none" stroke="black" points="188,-222 188,-244 331,-244 331,-222 188,-222"/>
<text text-anchor="start" x="208" y="-230.2" font-family="Helvetica,sans-Serif" font-size="11.00">relative_path</text>
<polygon fill="none" stroke="black" points="331,-222 331,-244 436,-244 436,-222 331,-222"/>
<text text-anchor="start" x="334" y="-230.2" font-family="Helvetica,sans-Serif" font-size="11.00">text[2147483647]</text>
<polygon fill="#ffffff" stroke="none" points="188,-200 188,-222 331,-222 331,-200 188,-200"/>
<polygon fill="none" stroke="black" points="188,-200 188,-222 331,-222 331,-200 188,-200"/>
<image xlink:href="../../images/foreignKeys.png" width="11px" height="12px" preserveAspectRatio="xMinYMin meet" x="193" y="-217"/>
<text text-anchor="start" x="208" y="-208.2" font-family="Helvetica,sans-Serif" font-size="11.00">artifact_id</text>
<polygon fill="none" stroke="black" points="331,-200 331,-222 436,-222 436,-200 331,-200"/>
<text text-anchor="start" x="334" y="-208.2" font-family="Helvetica,sans-Serif" font-size="11.00">uuid[2147483647]</text>
<polygon fill="#ffffff" stroke="none" points="188,-178 188,-200 331,-200 331,-178 188,-178"/>
<polygon fill="none" stroke="black" points="188,-178 188,-200 331,-200 331,-178 188,-178"/>
<image xlink:href="../../images/foreignKeys.png" width="11px" height="12px" preserveAspectRatio="xMinYMin meet" x="193" y="-195"/>
<text text-anchor="start" x="208" y="-186.2" font-family="Helvetica,sans-Serif" font-size="11.00">content_id</text>
<polygon fill="none" stroke="black" points="331,-178 331,-200 436,-200 436,-178 331,-178"/>
<text text-anchor="start" x="334" y="-186.2" font-family="Helvetica,sans-Serif" font-size="11.00">uuid[2147483647]</text>
<polygon fill="#ffffff" stroke="none" points="188,-160 188,-178 246,-178 246,-160 188,-160"/>
<polygon fill="none" stroke="black" points="188,-160 188,-178 246,-178 246,-160 188,-160"/>
<text text-anchor="start" x="191" y="-166.2" font-family="Helvetica,sans-Serif" font-size="11.00">&lt; 2</text>
<polygon fill="#ffffff" stroke="none" points="246,-160 246,-178 331,-178 331,-160 246,-160"/>
<polygon fill="none" stroke="black" points="246,-160 246,-178 331,-178 331,-160 246,-160"/>
<text text-anchor="start" x="285" y="-166.2" font-family="Helvetica,sans-Serif" font-size="11.00">88 rows</text>
<polygon fill="#ffffff" stroke="none" points="331,-160 331,-178 436,-178 436,-160 331,-160"/>
<polygon fill="none" stroke="black" points="331,-160 331,-178 436,-178 436,-160 331,-160"/>
<text text-anchor="start" x="416" y="-166.2" font-family="Helvetica,sans-Serif" font-size="11.00">2 &gt;</text>
<polygon fill="none" stroke="black" stroke-width="2" points="187,-159 187,-333 437,-333 437,-159 187,-159"/>
</a>
</g>
</g>
<!-- core_artifact -->
<g id="node2" class="node"><title>core_artifact</title>
<g id="a_node2"><a xlink:href="../../tables/core_artifact.html" xlink:title="core_artifact" target="_top">
<polygon fill="#ffffff" stroke="none" points="8,-138 8,-350 137,-350 137,-138 8,-138"/>
<polygon fill="#f5f5f5" stroke="none" points="8.5,-328 8.5,-350 137.5,-350 137.5,-328 8.5,-328"/>
<polygon fill="none" stroke="black" points="8.5,-328 8.5,-350 137.5,-350 137.5,-328 8.5,-328"/>
<text text-anchor="start" x="13.5" y="-337.2" font-family="Helvetica,sans-Serif" font-weight="bold" font-size="11.00">core_artifact</text>
<text text-anchor="start" x="98.5" y="-336.2" font-family="Helvetica,sans-Serif" font-size="11.00">[table]</text>
<polygon fill="none" stroke="black" points="8.5,-306 8.5,-328 137.5,-328 137.5,-306 8.5,-306"/>
<image xlink:href="../../images/primaryKeys.png" width="11px" height="12px" preserveAspectRatio="xMinYMin meet" x="13.5" y="-323"/>
<text text-anchor="start" x="28.5" y="-314.2" font-family="Helvetica,sans-Serif" font-size="11.00">pulp_id</text>
<polygon fill="#ffffff" stroke="none" points="8.5,-284 8.5,-306 137.5,-306 137.5,-284 8.5,-284"/>
<polygon fill="none" stroke="black" points="8.5,-284 8.5,-306 137.5,-306 137.5,-284 8.5,-284"/>
<text text-anchor="start" x="28.5" y="-292.2" font-family="Helvetica,sans-Serif" font-size="11.00">md5</text>
<polygon fill="#ffffff" stroke="none" points="8.5,-262 8.5,-284 137.5,-284 137.5,-262 8.5,-262"/>
<polygon fill="none" stroke="black" points="8.5,-262 8.5,-284 137.5,-284 137.5,-262 8.5,-262"/>
<text text-anchor="start" x="28.5" y="-270.2" font-family="Helvetica,sans-Serif" font-size="11.00">sha1</text>
<polygon fill="#ffffff" stroke="none" points="8.5,-240 8.5,-262 137.5,-262 137.5,-240 8.5,-240"/>
<polygon fill="none" stroke="black" points="8.5,-240 8.5,-262 137.5,-262 137.5,-240 8.5,-240"/>
<text text-anchor="start" x="28.5" y="-248.2" font-family="Helvetica,sans-Serif" font-size="11.00">sha224</text>
<polygon fill="#ffffff" stroke="none" points="8.5,-218 8.5,-240 137.5,-240 137.5,-218 8.5,-218"/>
<polygon fill="none" stroke="black" points="8.5,-218 8.5,-240 137.5,-240 137.5,-218 8.5,-218"/>
<text text-anchor="start" x="28.5" y="-226.2" font-family="Helvetica,sans-Serif" font-size="11.00">sha256</text>
<polygon fill="#ffffff" stroke="none" points="8.5,-196 8.5,-218 137.5,-218 137.5,-196 8.5,-196"/>
<polygon fill="none" stroke="black" points="8.5,-196 8.5,-218 137.5,-218 137.5,-196 8.5,-196"/>
<text text-anchor="start" x="28.5" y="-204.2" font-family="Helvetica,sans-Serif" font-size="11.00">sha384</text>
<polygon fill="#ffffff" stroke="none" points="8.5,-174 8.5,-196 137.5,-196 137.5,-174 8.5,-174"/>
<polygon fill="none" stroke="black" points="8.5,-174 8.5,-196 137.5,-196 137.5,-174 8.5,-174"/>
<text text-anchor="start" x="28.5" y="-182.2" font-family="Helvetica,sans-Serif" font-size="11.00">sha512</text>
<polygon fill="none" stroke="black" points="8.5,-156 8.5,-174 137.5,-174 137.5,-156 8.5,-156"/>
<text text-anchor="start" x="11.5" y="-162.2" font-family="Helvetica,sans-Serif" font-size="11.00">...</text>
<polygon fill="#ffffff" stroke="none" points="8.5,-138 8.5,-156 40.5,-156 40.5,-138 8.5,-138"/>
<polygon fill="none" stroke="black" points="8.5,-138 8.5,-156 40.5,-156 40.5,-138 8.5,-138"/>
<text text-anchor="start" x="11.5" y="-144.2" font-family="Helvetica,sans-Serif" font-size="11.00"> &#160;</text>
<polygon fill="#ffffff" stroke="none" points="40.5,-138 40.5,-156 104.5,-156 104.5,-138 40.5,-138"/>
<polygon fill="none" stroke="black" points="40.5,-138 40.5,-156 104.5,-156 104.5,-138 40.5,-138"/>
<text text-anchor="start" x="52.5" y="-144.2" font-family="Helvetica,sans-Serif" font-size="11.00">588 rows</text>
<polygon fill="#ffffff" stroke="none" points="104.5,-138 104.5,-156 137.5,-156 137.5,-138 104.5,-138"/>
<polygon fill="none" stroke="black" points="104.5,-138 104.5,-156 137.5,-156 137.5,-138 104.5,-138"/>
<text text-anchor="start" x="117.5" y="-144.2" font-family="Helvetica,sans-Serif" font-size="11.00">1 &gt;</text>
</a>
</g>
</g>
<!-- core_contentartifact&#45;&gt;core_artifact -->
<g id="edge1" class="edge"><title>core_contentartifact:artifact_id:w&#45;&gt;core_artifact:pulp_id:e</title>
<path fill="none" stroke="black" d="M172.847,-215.026C146.641,-234.388 184.237,-317 138.5,-317"/>
<polygon fill="black" stroke="black" points="179.305,-213.189 187.985,-214.463 183.153,-212.094 187,-211 187,-211 187,-211 183.153,-212.094 186.015,-207.537 179.305,-213.189 179.305,-213.189"/>
<ellipse fill="none" stroke="black" cx="176.227" cy="-214.064" rx="3.20001" ry="3.20001"/>
</g>
<!-- core_content -->
<g id="node3" class="node"><title>core_content</title>
<g id="a_node3"><a xlink:href="../../tables/core_content.html" xlink:title="core_content" target="_top">
<polygon fill="#ffffff" stroke="none" points="8,-37 8,-117 137,-117 137,-37 8,-37"/>
<polygon fill="#f5f5f5" stroke="none" points="8.5,-95 8.5,-117 137.5,-117 137.5,-95 8.5,-95"/>
<polygon fill="none" stroke="black" points="8.5,-95 8.5,-117 137.5,-117 137.5,-95 8.5,-95"/>
<text text-anchor="start" x="13.5" y="-104.2" font-family="Helvetica,sans-Serif" font-weight="bold" font-size="11.00">core_content</text>
<text text-anchor="start" x="98.5" y="-103.2" font-family="Helvetica,sans-Serif" font-size="11.00">[table]</text>
<polygon fill="none" stroke="black" points="8.5,-73 8.5,-95 137.5,-95 137.5,-73 8.5,-73"/>
<image xlink:href="../../images/primaryKeys.png" width="11px" height="12px" preserveAspectRatio="xMinYMin meet" x="13.5" y="-90"/>
<text text-anchor="start" x="28.5" y="-81.2" font-family="Helvetica,sans-Serif" font-size="11.00">pulp_id</text>
<polygon fill="none" stroke="black" points="8.5,-55 8.5,-73 137.5,-73 137.5,-55 8.5,-55"/>
<text text-anchor="start" x="11.5" y="-61.2" font-family="Helvetica,sans-Serif" font-size="11.00">...</text>
<polygon fill="#ffffff" stroke="none" points="8.5,-37 8.5,-55 43.5,-55 43.5,-37 8.5,-37"/>
<polygon fill="none" stroke="black" points="8.5,-37 8.5,-55 43.5,-55 43.5,-37 8.5,-37"/>
<text text-anchor="start" x="11.5" y="-43.2" font-family="Helvetica,sans-Serif" font-size="11.00"> &#160;</text>
<polygon fill="#ffffff" stroke="none" points="43.5,-37 43.5,-55 103.5,-55 103.5,-37 43.5,-37"/>
<polygon fill="none" stroke="black" points="43.5,-37 43.5,-55 103.5,-55 103.5,-37 43.5,-37"/>
<text text-anchor="start" x="57.5" y="-43.2" font-family="Helvetica,sans-Serif" font-size="11.00">88 rows</text>
<polygon fill="#ffffff" stroke="none" points="103.5,-37 103.5,-55 137.5,-55 137.5,-37 103.5,-37"/>
<polygon fill="none" stroke="black" points="103.5,-37 103.5,-55 137.5,-55 137.5,-37 103.5,-37"/>
<text text-anchor="start" x="117.5" y="-43.2" font-family="Helvetica,sans-Serif" font-size="11.00">8 &gt;</text>
</a>
</g>
</g>
<!-- core_contentartifact&#45;&gt;core_content -->
<g id="edge2" class="edge"><title>core_contentartifact:content_id:w&#45;&gt;core_content:pulp_id:e</title>
<path fill="none" stroke="black" d="M172.943,-185.012C146.872,-165.833 183.881,-84 138.5,-84"/>
<polygon fill="black" stroke="black" points="179.304,-186.817 186.017,-192.463 183.152,-187.908 187,-189 187,-189 187,-189 183.152,-187.908 187.983,-185.537 179.304,-186.817 179.304,-186.817"/>
<ellipse fill="none" stroke="black" cx="176.225" cy="-185.943" rx="3.20001" ry="3.20001"/>
</g>
<!-- core_publishedartifact -->
<g id="node4" class="node"><title>core_publishedartifact</title>
<g id="a_node4"><a xlink:href="../../tables/core_publishedartifact.html" xlink:title="core_publishedartifact" target="_top">
<polygon fill="#ffffff" stroke="none" points="487,-303 487,-449 665,-449 665,-303 487,-303"/>
<polygon fill="#f5f5f5" stroke="none" points="487,-427 487,-449 665,-449 665,-427 487,-427"/>
<polygon fill="none" stroke="black" points="487,-427 487,-449 665,-449 665,-427 487,-427"/>
<text text-anchor="start" x="492" y="-436.2" font-family="Helvetica,sans-Serif" font-weight="bold" font-size="11.00">core_publishedartifact</text>
<text text-anchor="start" x="626" y="-435.2" font-family="Helvetica,sans-Serif" font-size="11.00">[table]</text>
<polygon fill="none" stroke="black" points="487,-405 487,-427 665,-427 665,-405 487,-405"/>
<image xlink:href="../../images/primaryKeys.png" width="11px" height="12px" preserveAspectRatio="xMinYMin meet" x="492" y="-422"/>
<text text-anchor="start" x="519" y="-413.2" font-family="Helvetica,sans-Serif" font-size="11.00">pulp_id</text>
<polygon fill="#ffffff" stroke="none" points="487,-383 487,-405 665,-405 665,-383 487,-383"/>
<polygon fill="none" stroke="black" points="487,-383 487,-405 665,-405 665,-383 487,-383"/>
<text text-anchor="start" x="519" y="-391.2" font-family="Helvetica,sans-Serif" font-size="11.00">relative_path</text>
<polygon fill="#ffffff" stroke="none" points="487,-361 487,-383 665,-383 665,-361 487,-361"/>
<polygon fill="none" stroke="black" points="487,-361 487,-383 665,-383 665,-361 487,-361"/>
<image xlink:href="../../images/foreignKeys.png" width="11px" height="12px" preserveAspectRatio="xMinYMin meet" x="492" y="-378"/>
<text text-anchor="start" x="519" y="-369.2" font-family="Helvetica,sans-Serif" font-size="11.00">content_artifact_id</text>
<polygon fill="#ffffff" stroke="none" points="487,-339 487,-361 665,-361 665,-339 487,-339"/>
<polygon fill="none" stroke="black" points="487,-339 487,-361 665,-361 665,-339 487,-339"/>
<image xlink:href="../../images/foreignKeys.png" width="11px" height="12px" preserveAspectRatio="xMinYMin meet" x="492" y="-356"/>
<text text-anchor="start" x="519" y="-347.2" font-family="Helvetica,sans-Serif" font-size="11.00">publication_id</text>
<polygon fill="none" stroke="black" points="487,-321 487,-339 665,-339 665,-321 487,-321"/>
<text text-anchor="start" x="490" y="-327.2" font-family="Helvetica,sans-Serif" font-size="11.00">...</text>
<polygon fill="#ffffff" stroke="none" points="487,-303 487,-321 560,-321 560,-303 487,-303"/>
<polygon fill="none" stroke="black" points="487,-303 487,-321 560,-321 560,-303 487,-303"/>
<text text-anchor="start" x="490" y="-309.2" font-family="Helvetica,sans-Serif" font-size="11.00">&lt; 2</text>
<polygon fill="#ffffff" stroke="none" points="560,-303 560,-321 627,-321 627,-303 560,-303"/>
<polygon fill="none" stroke="black" points="560,-303 560,-321 627,-321 627,-303 560,-303"/>
<text text-anchor="start" x="588" y="-309.2" font-family="Helvetica,sans-Serif" font-size="11.00">0 rows</text>
<polygon fill="#ffffff" stroke="none" points="627,-303 627,-321 665,-321 665,-303 627,-303"/>
<polygon fill="none" stroke="black" points="627,-303 627,-321 665,-321 665,-303 627,-303"/>
<text text-anchor="start" x="655" y="-309.2" font-family="Helvetica,sans-Serif" font-size="11.00"> &#160;</text>
</a>
</g>
</g>
<!-- core_publishedartifact&#45;&gt;core_contentartifact -->
<g id="edge3" class="edge"><title>core_publishedartifact:content_artifact_id:w&#45;&gt;core_contentartifact:pulp_id.type:e</title>
<path fill="none" stroke="black" d="M472.16,-367.21C454.368,-350.97 469.97,-299 437,-299"/>
<polygon fill="black" stroke="black" points="478.44,-369.384 484.823,-375.402 482.22,-370.692 486,-372 486,-372 486,-372 482.22,-370.692 487.177,-368.598 478.44,-369.384 478.44,-369.384"/>
<ellipse fill="none" stroke="black" cx="475.416" cy="-368.337" rx="3.20001" ry="3.20001"/>
</g>
<!-- core_remoteartifact -->
<g id="node5" class="node"><title>core_remoteartifact</title>
<g id="a_node5"><a xlink:href="../../tables/core_remoteartifact.html" xlink:title="core_remoteartifact" target="_top">
<polygon fill="#ffffff" stroke="none" points="494.5,-158 494.5,-282 657.5,-282 657.5,-158 494.5,-158"/>
<polygon fill="#f5f5f5" stroke="none" points="495,-260 495,-282 658,-282 658,-260 495,-260"/>
<polygon fill="none" stroke="black" points="495,-260 495,-282 658,-282 658,-260 495,-260"/>
<text text-anchor="start" x="500" y="-269.2" font-family="Helvetica,sans-Serif" font-weight="bold" font-size="11.00">core_remoteartifact</text>
<text text-anchor="start" x="619" y="-268.2" font-family="Helvetica,sans-Serif" font-size="11.00">[table]</text>
<polygon fill="none" stroke="black" points="495,-238 495,-260 658,-260 658,-238 495,-238"/>
<image xlink:href="../../images/primaryKeys.png" width="11px" height="12px" preserveAspectRatio="xMinYMin meet" x="500" y="-255"/>
<text text-anchor="start" x="527" y="-246.2" font-family="Helvetica,sans-Serif" font-size="11.00">pulp_id</text>
<polygon fill="#ffffff" stroke="none" points="495,-216 495,-238 658,-238 658,-216 495,-216"/>
<polygon fill="none" stroke="black" points="495,-216 495,-238 658,-238 658,-216 495,-216"/>
<image xlink:href="../../images/foreignKeys.png" width="11px" height="12px" preserveAspectRatio="xMinYMin meet" x="500" y="-233"/>
<text text-anchor="start" x="527" y="-224.2" font-family="Helvetica,sans-Serif" font-size="11.00">content_artifact_id</text>
<polygon fill="#ffffff" stroke="none" points="495,-194 495,-216 658,-216 658,-194 495,-194"/>
<polygon fill="none" stroke="black" points="495,-194 495,-216 658,-216 658,-194 495,-194"/>
<image xlink:href="../../images/foreignKeys.png" width="11px" height="12px" preserveAspectRatio="xMinYMin meet" x="500" y="-211"/>
<text text-anchor="start" x="527" y="-202.2" font-family="Helvetica,sans-Serif" font-size="11.00">remote_id</text>
<polygon fill="none" stroke="black" points="495,-176 495,-194 658,-194 658,-176 495,-176"/>
<text text-anchor="start" x="498" y="-182.2" font-family="Helvetica,sans-Serif" font-size="11.00">...</text>
<polygon fill="#ffffff" stroke="none" points="495,-158 495,-176 557,-176 557,-158 495,-158"/>
<polygon fill="none" stroke="black" points="495,-158 495,-176 557,-176 557,-158 495,-158"/>
<text text-anchor="start" x="498" y="-164.2" font-family="Helvetica,sans-Serif" font-size="11.00">&lt; 2</text>
<polygon fill="#ffffff" stroke="none" points="557,-158 557,-176 625,-176 625,-158 557,-158"/>
<polygon fill="none" stroke="black" points="557,-158 557,-176 625,-176 625,-158 557,-158"/>
<text text-anchor="start" x="579" y="-164.2" font-family="Helvetica,sans-Serif" font-size="11.00">16 rows</text>
<polygon fill="#ffffff" stroke="none" points="625,-158 625,-176 658,-176 658,-158 625,-158"/>
<polygon fill="none" stroke="black" points="625,-158 625,-176 658,-176 658,-158 625,-158"/>
<text text-anchor="start" x="648" y="-164.2" font-family="Helvetica,sans-Serif" font-size="11.00"> &#160;</text>
</a>
</g>
</g>
<!-- core_remoteartifact&#45;&gt;core_contentartifact -->
<g id="edge4" class="edge"><title>core_remoteartifact:content_artifact_id:w&#45;&gt;core_contentartifact:pulp_id.type:e</title>
<path fill="none" stroke="black" d="M480.009,-231.077C458.938,-246.308 471.915,-299 437,-299"/>
<polygon fill="black" stroke="black" points="486.32,-229.238 495.007,-230.456 490.16,-228.119 494,-227 494,-227 494,-227 490.16,-228.119 492.993,-223.544 486.32,-229.238 486.32,-229.238"/>
<ellipse fill="none" stroke="black" cx="483.247" cy="-230.134" rx="3.20001" ry="3.20001"/>
</g>
</g>
</svg>
