<?xml version="1.0" encoding="UTF-8" standalone="no"?>
<!DOCTYPE svg PUBLIC "-//W3C//DTD SVG 1.1//EN"
 "http://www.w3.org/Graphics/SVG/1.1/DTD/svg11.dtd">
<!-- Generated by graphviz version 2.38.0 (20140413.2041)
 -->
<!-- Title: twoDegreesRelationshipsDiagram Pages: 1 -->
<svg width="968pt" height="959pt"
 viewBox="0.00 0.00 968.00 959.00" xmlns="http://www.w3.org/2000/svg" xmlns:xlink="http://www.w3.org/1999/xlink">
<g id="graph0" class="graph" transform="scale(1 1) rotate(0) translate(4 955)">
<title>twoDegreesRelationshipsDiagram</title>
<polygon fill="#ffffff" stroke="none" points="-4,4 -4,-955 964,-955 964,4 -4,4"/>
<text text-anchor="middle" x="74.5" y="-7.2" font-family="Helvetica,sans-Serif" font-size="11.00">Generated by SchemaSpy</text>
<!-- ansible_collectionimport -->
<g id="node1" class="node"><title>ansible_collectionimport</title>
<g id="a_node1"><a xlink:href="../../tables/ansible_collectionimport.html" xlink:title="ansible_collectionimport" target="_top">
<polygon fill="#ffffff" stroke="none" points="442.5,-432 442.5,-490 632.5,-490 632.5,-432 442.5,-432"/>
<polygon fill="#f5f5f5" stroke="none" points="442.5,-468 442.5,-490 632.5,-490 632.5,-468 442.5,-468"/>
<polygon fill="none" stroke="black" points="442.5,-468 442.5,-490 632.5,-490 632.5,-468 442.5,-468"/>
<text text-anchor="start" x="447.5" y="-477.2" font-family="Helvetica,sans-Serif" font-weight="bold" font-size="11.00">ansible_collectionimport</text>
<text text-anchor="start" x="593.5" y="-476.2" font-family="Helvetica,sans-Serif" font-size="11.00">[table]</text>
<polygon fill="none" stroke="black" points="442.5,-450 442.5,-468 632.5,-468 632.5,-450 442.5,-450"/>
<text text-anchor="start" x="445.5" y="-456.2" font-family="Helvetica,sans-Serif" font-size="11.00">...</text>
<polygon fill="#ffffff" stroke="none" points="442.5,-432 442.5,-450 514.5,-450 514.5,-432 442.5,-432"/>
<polygon fill="none" stroke="black" points="442.5,-432 442.5,-450 514.5,-450 514.5,-432 442.5,-432"/>
<text text-anchor="start" x="445.5" y="-438.2" font-family="Helvetica,sans-Serif" font-size="11.00">&lt; 1</text>
<polygon fill="#ffffff" stroke="none" points="514.5,-432 514.5,-450 594.5,-450 594.5,-432 514.5,-432"/>
<polygon fill="none" stroke="black" points="514.5,-432 514.5,-450 594.5,-450 594.5,-432 514.5,-432"/>
<text text-anchor="start" x="542.5" y="-438.2" font-family="Helvetica,sans-Serif" font-size="11.00">111 rows</text>
<polygon fill="#ffffff" stroke="none" points="594.5,-432 594.5,-450 632.5,-450 632.5,-432 594.5,-432"/>
<polygon fill="none" stroke="black" points="594.5,-432 594.5,-450 632.5,-450 632.5,-432 594.5,-432"/>
<text text-anchor="start" x="622.5" y="-438.2" font-family="Helvetica,sans-Serif" font-size="11.00"> &#160;</text>
</a>
</g>
</g>
<!-- core_task -->
<g id="node2" class="node"><title>core_task</title>
<g id="a_node2"><a xlink:href="../../tables/core_task.html" xlink:title="core_task" target="_top">
<polygon fill="#ffffff" stroke="none" points="211,-188 211,-334 340,-334 340,-188 211,-188"/>
<polygon fill="#f5f5f5" stroke="none" points="211.5,-312 211.5,-334 340.5,-334 340.5,-312 211.5,-312"/>
<polygon fill="none" stroke="black" points="211.5,-312 211.5,-334 340.5,-334 340.5,-312 211.5,-312"/>
<text text-anchor="start" x="216.5" y="-321.2" font-family="Helvetica,sans-Serif" font-weight="bold" font-size="11.00">core_task</text>
<text text-anchor="start" x="301.5" y="-320.2" font-family="Helvetica,sans-Serif" font-size="11.00">[table]</text>
<polygon fill="none" stroke="black" points="211.5,-290 211.5,-312 340.5,-312 340.5,-290 211.5,-290"/>
<image xlink:href="../../images/primaryKeys.png" width="11px" height="12px" preserveAspectRatio="xMinYMin meet" x="216.5" y="-307"/>
<text text-anchor="start" x="231.5" y="-298.2" font-family="Helvetica,sans-Serif" font-size="11.00">pulp_id</text>
<polygon fill="#ffffff" stroke="none" points="211.5,-268 211.5,-290 340.5,-290 340.5,-268 211.5,-268"/>
<polygon fill="none" stroke="black" points="211.5,-268 211.5,-290 340.5,-290 340.5,-268 211.5,-268"/>
<image xlink:href="../../images/foreignKeys.png" width="11px" height="12px" preserveAspectRatio="xMinYMin meet" x="216.5" y="-285"/>
<text text-anchor="start" x="231.5" y="-276.2" font-family="Helvetica,sans-Serif" font-size="11.00">worker_id</text>
<polygon fill="#ffffff" stroke="none" points="211.5,-246 211.5,-268 340.5,-268 340.5,-246 211.5,-246"/>
<polygon fill="none" stroke="black" points="211.5,-246 211.5,-268 340.5,-268 340.5,-246 211.5,-246"/>
<image xlink:href="../../images/foreignKeys.png" width="11px" height="12px" preserveAspectRatio="xMinYMin meet" x="216.5" y="-263"/>
<text text-anchor="start" x="231.5" y="-254.2" font-family="Helvetica,sans-Serif" font-size="11.00">parent_task_id</text>
<polygon fill="#ffffff" stroke="none" points="211.5,-224 211.5,-246 340.5,-246 340.5,-224 211.5,-224"/>
<polygon fill="none" stroke="black" points="211.5,-224 211.5,-246 340.5,-246 340.5,-224 211.5,-224"/>
<image xlink:href="../../images/foreignKeys.png" width="11px" height="12px" preserveAspectRatio="xMinYMin meet" x="216.5" y="-241"/>
<text text-anchor="start" x="231.5" y="-232.2" font-family="Helvetica,sans-Serif" font-size="11.00">task_group_id</text>
<polygon fill="none" stroke="black" points="211.5,-206 211.5,-224 340.5,-224 340.5,-206 211.5,-206"/>
<text text-anchor="start" x="214.5" y="-212.2" font-family="Helvetica,sans-Serif" font-size="11.00">...</text>
<polygon fill="#ffffff" stroke="none" points="211.5,-188 211.5,-206 243.5,-206 243.5,-188 211.5,-188"/>
<polygon fill="none" stroke="black" points="211.5,-188 211.5,-206 243.5,-206 243.5,-188 211.5,-188"/>
<text text-anchor="start" x="214.5" y="-194.2" font-family="Helvetica,sans-Serif" font-size="11.00">&lt; 3</text>
<polygon fill="#ffffff" stroke="none" points="243.5,-188 243.5,-206 312.5,-206 312.5,-188 243.5,-188"/>
<polygon fill="none" stroke="black" points="243.5,-188 243.5,-206 312.5,-206 312.5,-188 243.5,-188"/>
<text text-anchor="start" x="250.5" y="-194.2" font-family="Helvetica,sans-Serif" font-size="11.00">1,828 rows</text>
<polygon fill="#ffffff" stroke="none" points="312.5,-188 312.5,-206 340.5,-206 340.5,-188 312.5,-188"/>
<polygon fill="none" stroke="black" points="312.5,-188 312.5,-206 340.5,-206 340.5,-188 312.5,-188"/>
<text text-anchor="start" x="320.5" y="-194.2" font-family="Helvetica,sans-Serif" font-size="11.00">8 &gt;</text>
</a>
</g>
</g>
<!-- ansible_collectionimport&#45;&gt;core_task -->
<g id="edge1" class="edge"><title>ansible_collectionimport:elipses:w&#45;&gt;core_task:pulp_id:e</title>
<path fill="none" stroke="black" d="M430.767,-457.991C364.274,-444.535 420.71,-301 341.5,-301"/>
<polygon fill="black" stroke="black" points="441.078,-454.943 440.329,-462.908 438.736,-462.758 439.485,-454.793 441.078,-454.943"/>
<polyline fill="none" stroke="black" points="441.5,-459 437.518,-458.626 "/>
<ellipse fill="none" stroke="black" cx="434.332" cy="-458.326" rx="3.2" ry="3.2"/>
</g>
<!-- core_taskgroup -->
<g id="node10" class="node"><title>core_taskgroup</title>
<g id="a_node10"><a xlink:href="../../tables/core_taskgroup.html" xlink:title="core_taskgroup" target="_top">
<polygon fill="#ffffff" stroke="none" points="8,-191 8,-249 143,-249 143,-191 8,-191"/>
<polygon fill="#f5f5f5" stroke="none" points="8.5,-227 8.5,-249 143.5,-249 143.5,-227 8.5,-227"/>
<polygon fill="none" stroke="black" points="8.5,-227 8.5,-249 143.5,-249 143.5,-227 8.5,-227"/>
<text text-anchor="start" x="13.5" y="-236.2" font-family="Helvetica,sans-Serif" font-weight="bold" font-size="11.00">core_taskgroup</text>
<text text-anchor="start" x="104.5" y="-235.2" font-family="Helvetica,sans-Serif" font-size="11.00">[table]</text>
<polygon fill="none" stroke="black" points="8.5,-209 8.5,-227 143.5,-227 143.5,-209 8.5,-209"/>
<text text-anchor="start" x="11.5" y="-215.2" font-family="Helvetica,sans-Serif" font-size="11.00">...</text>
<polygon fill="#ffffff" stroke="none" points="8.5,-191 8.5,-209 46.5,-209 46.5,-191 8.5,-191"/>
<polygon fill="none" stroke="black" points="8.5,-191 8.5,-209 46.5,-209 46.5,-191 8.5,-191"/>
<text text-anchor="start" x="11.5" y="-197.2" font-family="Helvetica,sans-Serif" font-size="11.00"> &#160;</text>
<polygon fill="#ffffff" stroke="none" points="46.5,-191 46.5,-209 107.5,-209 107.5,-191 46.5,-191"/>
<polygon fill="none" stroke="black" points="46.5,-191 46.5,-209 107.5,-209 107.5,-191 46.5,-191"/>
<text text-anchor="start" x="61.5" y="-197.2" font-family="Helvetica,sans-Serif" font-size="11.00">26 rows</text>
<polygon fill="#ffffff" stroke="none" points="107.5,-191 107.5,-209 143.5,-209 143.5,-191 107.5,-191"/>
<polygon fill="none" stroke="black" points="107.5,-191 107.5,-209 143.5,-209 143.5,-191 107.5,-191"/>
<text text-anchor="start" x="123.5" y="-197.2" font-family="Helvetica,sans-Serif" font-size="11.00">2 &gt;</text>
</a>
</g>
</g>
<!-- core_task&#45;&gt;core_taskgroup -->
<g id="edge10" class="edge"><title>core_task:task_group_id:w&#45;&gt;core_taskgroup:elipses:e</title>
<path fill="none" stroke="black" d="M196.024,-233.491C177.381,-229.331 169.23,-218 144.5,-218"/>
<polygon fill="black" stroke="black" points="202.543,-234.171 210.127,-238.581 206.522,-234.585 210.5,-235 210.5,-235 210.5,-235 206.522,-234.585 210.873,-231.419 202.543,-234.171 202.543,-234.171"/>
<ellipse fill="none" stroke="black" cx="199.36" cy="-233.839" rx="3.2" ry="3.2"/>
</g>
<!-- core_worker -->
<g id="node11" class="node"><title>core_worker</title>
<g id="a_node11"><a xlink:href="../../tables/core_worker.html" xlink:title="core_worker" target="_top">
<polygon fill="#ffffff" stroke="none" points="16.5,-270 16.5,-328 134.5,-328 134.5,-270 16.5,-270"/>
<polygon fill="#f5f5f5" stroke="none" points="16.5,-306 16.5,-328 134.5,-328 134.5,-306 16.5,-306"/>
<polygon fill="none" stroke="black" points="16.5,-306 16.5,-328 134.5,-328 134.5,-306 16.5,-306"/>
<text text-anchor="start" x="21.5" y="-315.2" font-family="Helvetica,sans-Serif" font-weight="bold" font-size="11.00">core_worker</text>
<text text-anchor="start" x="95.5" y="-314.2" font-family="Helvetica,sans-Serif" font-size="11.00">[table]</text>
<polygon fill="none" stroke="black" points="16.5,-288 16.5,-306 134.5,-306 134.5,-288 16.5,-288"/>
<text text-anchor="start" x="19.5" y="-294.2" font-family="Helvetica,sans-Serif" font-size="11.00">...</text>
<polygon fill="#ffffff" stroke="none" points="16.5,-270 16.5,-288 42.5,-288 42.5,-270 16.5,-270"/>
<polygon fill="none" stroke="black" points="16.5,-270 16.5,-288 42.5,-288 42.5,-270 16.5,-270"/>
<text text-anchor="start" x="19.5" y="-276.2" font-family="Helvetica,sans-Serif" font-size="11.00"> &#160;</text>
<polygon fill="#ffffff" stroke="none" points="42.5,-270 42.5,-288 104.5,-288 104.5,-270 42.5,-270"/>
<polygon fill="none" stroke="black" points="42.5,-270 42.5,-288 104.5,-288 104.5,-270 42.5,-270"/>
<text text-anchor="start" x="52.5" y="-276.2" font-family="Helvetica,sans-Serif" font-size="11.00">148 rows</text>
<polygon fill="#ffffff" stroke="none" points="104.5,-270 104.5,-288 134.5,-288 134.5,-270 104.5,-270"/>
<polygon fill="none" stroke="black" points="104.5,-270 104.5,-288 134.5,-288 134.5,-270 104.5,-270"/>
<text text-anchor="start" x="114.5" y="-276.2" font-family="Helvetica,sans-Serif" font-size="11.00">2 &gt;</text>
</a>
</g>
</g>
<!-- core_task&#45;&gt;core_worker -->
<g id="edge11" class="edge"><title>core_task:worker_id:w&#45;&gt;core_worker:elipses:e</title>
<path fill="none" stroke="black" d="M195.943,-280.237C173.443,-284.304 164.29,-297 135.5,-297"/>
<polygon fill="black" stroke="black" points="202.529,-279.678 210.805,-282.587 206.514,-279.339 210.5,-279 210.5,-279 210.5,-279 206.514,-279.339 210.195,-275.413 202.529,-279.678 202.529,-279.678"/>
<ellipse fill="none" stroke="black" cx="199.34" cy="-279.949" rx="3.2" ry="3.2"/>
</g>
<!-- auth_permission -->
<g id="node3" class="node"><title>auth_permission</title>
<g id="a_node3"><a xlink:href="../../tables/auth_permission.html" xlink:title="auth_permission" target="_top">
<polygon fill="#ffffff" stroke="none" points="466,-841 466,-899 609,-899 609,-841 466,-841"/>
<polygon fill="#f5f5f5" stroke="none" points="466.5,-877 466.5,-899 609.5,-899 609.5,-877 466.5,-877"/>
<polygon fill="none" stroke="black" points="466.5,-877 466.5,-899 609.5,-899 609.5,-877 466.5,-877"/>
<text text-anchor="start" x="471.5" y="-886.2" font-family="Helvetica,sans-Serif" font-weight="bold" font-size="11.00">auth_permission</text>
<text text-anchor="start" x="570.5" y="-885.2" font-family="Helvetica,sans-Serif" font-size="11.00">[table]</text>
<polygon fill="none" stroke="black" points="466.5,-859 466.5,-877 609.5,-877 609.5,-859 466.5,-859"/>
<text text-anchor="start" x="469.5" y="-865.2" font-family="Helvetica,sans-Serif" font-size="11.00">...</text>
<polygon fill="#ffffff" stroke="none" points="466.5,-841 466.5,-859 510.5,-859 510.5,-841 466.5,-841"/>
<polygon fill="none" stroke="black" points="466.5,-841 466.5,-859 510.5,-859 510.5,-841 466.5,-841"/>
<text text-anchor="start" x="469.5" y="-847.2" font-family="Helvetica,sans-Serif" font-size="11.00">&lt; 1</text>
<polygon fill="#ffffff" stroke="none" points="510.5,-841 510.5,-859 575.5,-859 575.5,-841 510.5,-841"/>
<polygon fill="none" stroke="black" points="510.5,-841 510.5,-859 575.5,-859 575.5,-841 510.5,-841"/>
<text text-anchor="start" x="523.5" y="-847.2" font-family="Helvetica,sans-Serif" font-size="11.00">322 rows</text>
<polygon fill="#ffffff" stroke="none" points="575.5,-841 575.5,-859 609.5,-859 609.5,-841 575.5,-841"/>
<polygon fill="none" stroke="black" points="575.5,-841 575.5,-859 609.5,-859 609.5,-841 575.5,-841"/>
<text text-anchor="start" x="589.5" y="-847.2" font-family="Helvetica,sans-Serif" font-size="11.00">4 &gt;</text>
</a>
</g>
</g>
<!-- django_content_type -->
<g id="node4" class="node"><title>django_content_type</title>
<g id="a_node4"><a xlink:href="../../tables/django_content_type.html" xlink:title="django_content_type" target="_top">
<polygon fill="#ffffff" stroke="none" points="192,-730 192,-836 359,-836 359,-730 192,-730"/>
<polygon fill="#f5f5f5" stroke="none" points="192.5,-814 192.5,-836 359.5,-836 359.5,-814 192.5,-814"/>
<polygon fill="none" stroke="black" points="192.5,-814 192.5,-836 359.5,-836 359.5,-814 192.5,-814"/>
<text text-anchor="start" x="197.5" y="-823.2" font-family="Helvetica,sans-Serif" font-weight="bold" font-size="11.00">django_content_type</text>
<text text-anchor="start" x="320.5" y="-822.2" font-family="Helvetica,sans-Serif" font-size="11.00">[table]</text>
<polygon fill="none" stroke="black" points="192.5,-792 192.5,-814 359.5,-814 359.5,-792 192.5,-792"/>
<image xlink:href="../../images/primaryKeys.png" width="11px" height="12px" preserveAspectRatio="xMinYMin meet" x="197.5" y="-809"/>
<text text-anchor="start" x="223.5" y="-800.2" font-family="Helvetica,sans-Serif" font-size="11.00">id</text>
<polygon fill="#ffffff" stroke="none" points="192.5,-770 192.5,-792 359.5,-792 359.5,-770 192.5,-770"/>
<polygon fill="none" stroke="black" points="192.5,-770 192.5,-792 359.5,-792 359.5,-770 192.5,-770"/>
<text text-anchor="start" x="223.5" y="-778.2" font-family="Helvetica,sans-Serif" font-size="11.00">app_label</text>
<polygon fill="#ffffff" stroke="none" points="192.5,-748 192.5,-770 359.5,-770 359.5,-748 192.5,-748"/>
<polygon fill="none" stroke="black" points="192.5,-748 192.5,-770 359.5,-770 359.5,-748 192.5,-748"/>
<text text-anchor="start" x="223.5" y="-756.2" font-family="Helvetica,sans-Serif" font-size="11.00">model</text>
<polygon fill="#ffffff" stroke="none" points="192.5,-730 192.5,-748 246.5,-748 246.5,-730 192.5,-730"/>
<polygon fill="none" stroke="black" points="192.5,-730 192.5,-748 246.5,-748 246.5,-730 192.5,-730"/>
<text text-anchor="start" x="195.5" y="-736.2" font-family="Helvetica,sans-Serif" font-size="11.00"> &#160;</text>
<polygon fill="#ffffff" stroke="none" points="246.5,-730 246.5,-748 315.5,-748 315.5,-730 246.5,-730"/>
<polygon fill="none" stroke="black" points="246.5,-730 246.5,-748 315.5,-748 315.5,-730 246.5,-730"/>
<text text-anchor="start" x="269.5" y="-736.2" font-family="Helvetica,sans-Serif" font-size="11.00">79 rows</text>
<polygon fill="#ffffff" stroke="none" points="315.5,-730 315.5,-748 359.5,-748 359.5,-730 315.5,-730"/>
<polygon fill="none" stroke="black" points="315.5,-730 315.5,-748 359.5,-748 359.5,-730 315.5,-730"/>
<text text-anchor="start" x="339.5" y="-736.2" font-family="Helvetica,sans-Serif" font-size="11.00">6 &gt;</text>
</a>
</g>
</g>
<!-- auth_permission&#45;&gt;django_content_type -->
<g id="edge2" class="edge"><title>auth_permission:elipses:w&#45;&gt;django_content_type:id:e</title>
<path fill="none" stroke="black" d="M452.872,-860.796C425.493,-843.872 363.22,-803 360.5,-803"/>
<polygon fill="black" stroke="black" points="458.551,-864.036 463.716,-871.127 462.026,-866.018 465.5,-868 465.5,-868 465.5,-868 462.026,-866.018 467.284,-864.873 458.551,-864.036 458.551,-864.036"/>
<ellipse fill="none" stroke="black" cx="455.772" cy="-862.45" rx="3.20001" ry="3.20001"/>
</g>
<!-- core_createdresource -->
<g id="node5" class="node"><title>core_createdresource</title>
<g id="a_node5"><a xlink:href="../../tables/core_createdresource.html" xlink:title="core_createdresource" target="_top">
<polygon fill="#ffffff" stroke="none" points="408,-511 408,-687 667,-687 667,-511 408,-511"/>
<polygon fill="#f5f5f5" stroke="none" points="410.5,-663 410.5,-685 665.5,-685 665.5,-663 410.5,-663"/>
<polygon fill="none" stroke="black" points="410.5,-663 410.5,-685 665.5,-685 665.5,-663 410.5,-663"/>
<text text-anchor="start" x="415.5" y="-672.2" font-family="Helvetica,sans-Serif" font-weight="bold" font-size="11.00">core_createdresource</text>
<text text-anchor="start" x="626.5" y="-671.2" font-family="Helvetica,sans-Serif" font-size="11.00">[table]</text>
<polygon fill="none" stroke="black" points="410.5,-641 410.5,-663 560.5,-663 560.5,-641 410.5,-641"/>
<image xlink:href="../../images/primaryKeys.png" width="11px" height="12px" preserveAspectRatio="xMinYMin meet" x="415.5" y="-658"/>
<text text-anchor="start" x="430.5" y="-649.2" font-family="Helvetica,sans-Serif" font-size="11.00">pulp_id</text>
<polygon fill="none" stroke="black" points="560.5,-641 560.5,-663 665.5,-663 665.5,-641 560.5,-641"/>
<text text-anchor="start" x="563.5" y="-649.2" font-family="Helvetica,sans-Serif" font-size="11.00">uuid[2147483647]</text>
<polygon fill="none" stroke="black" points="410.5,-619 410.5,-641 560.5,-641 560.5,-619 410.5,-619"/>
<text text-anchor="start" x="430.5" y="-627.2" font-family="Helvetica,sans-Serif" font-size="11.00">pulp_created</text>
<polygon fill="none" stroke="black" points="560.5,-619 560.5,-641 665.5,-641 665.5,-619 560.5,-619"/>
<text text-anchor="start" x="563.5" y="-627.2" font-family="Helvetica,sans-Serif" font-size="11.00">timestamptz[35,6]</text>
<polygon fill="none" stroke="black" points="410.5,-597 410.5,-619 560.5,-619 560.5,-597 410.5,-597"/>
<text text-anchor="start" x="430.5" y="-605.2" font-family="Helvetica,sans-Serif" font-size="11.00">pulp_last_updated</text>
<polygon fill="none" stroke="black" points="560.5,-597 560.5,-619 665.5,-619 665.5,-597 560.5,-597"/>
<text text-anchor="start" x="563.5" y="-605.2" font-family="Helvetica,sans-Serif" font-size="11.00">timestamptz[35,6]</text>
<polygon fill="none" stroke="black" points="410.5,-575 410.5,-597 560.5,-597 560.5,-575 410.5,-575"/>
<text text-anchor="start" x="430.5" y="-583.2" font-family="Helvetica,sans-Serif" font-size="11.00">object_id</text>
<polygon fill="none" stroke="black" points="560.5,-575 560.5,-597 665.5,-597 665.5,-575 560.5,-575"/>
<text text-anchor="start" x="563.5" y="-583.2" font-family="Helvetica,sans-Serif" font-size="11.00">uuid[2147483647]</text>
<polygon fill="#ffffff" stroke="none" points="410.5,-553 410.5,-575 560.5,-575 560.5,-553 410.5,-553"/>
<polygon fill="none" stroke="black" points="410.5,-553 410.5,-575 560.5,-575 560.5,-553 410.5,-553"/>
<image xlink:href="../../images/foreignKeys.png" width="11px" height="12px" preserveAspectRatio="xMinYMin meet" x="415.5" y="-570"/>
<text text-anchor="start" x="430.5" y="-561.2" font-family="Helvetica,sans-Serif" font-size="11.00">content_type_id</text>
<polygon fill="none" stroke="black" points="560.5,-553 560.5,-575 665.5,-575 665.5,-553 560.5,-553"/>
<text text-anchor="start" x="563.5" y="-561.2" font-family="Helvetica,sans-Serif" font-size="11.00">int4[10]</text>
<polygon fill="#ffffff" stroke="none" points="410.5,-531 410.5,-553 560.5,-553 560.5,-531 410.5,-531"/>
<polygon fill="none" stroke="black" points="410.5,-531 410.5,-553 560.5,-553 560.5,-531 410.5,-531"/>
<image xlink:href="../../images/foreignKeys.png" width="11px" height="12px" preserveAspectRatio="xMinYMin meet" x="415.5" y="-548"/>
<text text-anchor="start" x="430.5" y="-539.2" font-family="Helvetica,sans-Serif" font-size="11.00">task_id</text>
<polygon fill="none" stroke="black" points="560.5,-531 560.5,-553 665.5,-553 665.5,-531 560.5,-531"/>
<text text-anchor="start" x="563.5" y="-539.2" font-family="Helvetica,sans-Serif" font-size="11.00">uuid[2147483647]</text>
<polygon fill="#ffffff" stroke="none" points="410.5,-513 410.5,-531 469.5,-531 469.5,-513 410.5,-513"/>
<polygon fill="none" stroke="black" points="410.5,-513 410.5,-531 469.5,-531 469.5,-513 410.5,-513"/>
<text text-anchor="start" x="413.5" y="-519.2" font-family="Helvetica,sans-Serif" font-size="11.00">&lt; 2</text>
<polygon fill="#ffffff" stroke="none" points="469.5,-513 469.5,-531 560.5,-531 560.5,-513 469.5,-513"/>
<polygon fill="none" stroke="black" points="469.5,-513 469.5,-531 560.5,-531 560.5,-513 469.5,-513"/>
<text text-anchor="start" x="508.5" y="-519.2" font-family="Helvetica,sans-Serif" font-size="11.00">365 rows</text>
<polygon fill="#ffffff" stroke="none" points="560.5,-513 560.5,-531 665.5,-531 665.5,-513 560.5,-513"/>
<polygon fill="none" stroke="black" points="560.5,-513 560.5,-531 665.5,-531 665.5,-513 560.5,-513"/>
<text text-anchor="start" x="645.5" y="-519.2" font-family="Helvetica,sans-Serif" font-size="11.00">0 &gt;</text>
<polygon fill="none" stroke="black" stroke-width="2" points="409,-512 409,-686 666,-686 666,-512 409,-512"/>
</a>
</g>
</g>
<!-- core_createdresource&#45;&gt;core_task -->
<g id="edge4" class="edge"><title>core_createdresource:task_id:w&#45;&gt;core_task:pulp_id:e</title>
<path fill="none" stroke="black" d="M395.037,-540.332C312.669,-519.039 447.359,-301 341.5,-301"/>
<polygon fill="black" stroke="black" points="401.553,-541.084 409.088,-545.576 405.526,-541.542 409.5,-542 409.5,-542 409.5,-542 405.526,-541.542 409.912,-538.424 401.553,-541.084 401.553,-541.084"/>
<ellipse fill="none" stroke="black" cx="398.374" cy="-540.717" rx="3.2" ry="3.2"/>
</g>
<!-- core_createdresource&#45;&gt;django_content_type -->
<g id="edge3" class="edge"><title>core_createdresource:content_type_id:w&#45;&gt;django_content_type:id:e</title>
<path fill="none" stroke="black" d="M395.046,-565.786C317.404,-587.657 463.425,-803 360.5,-803"/>
<polygon fill="black" stroke="black" points="401.56,-564.981 409.942,-567.573 405.53,-564.491 409.5,-564 409.5,-564 409.5,-564 405.53,-564.491 409.058,-560.427 401.56,-564.981 401.56,-564.981"/>
<ellipse fill="none" stroke="black" cx="398.385" cy="-565.374" rx="3.2" ry="3.2"/>
</g>
<!-- core_export -->
<g id="node6" class="node"><title>core_export</title>
<g id="a_node6"><a xlink:href="../../tables/core_export.html" xlink:title="core_export" target="_top">
<polygon fill="#ffffff" stroke="none" points="479.5,-353 479.5,-411 595.5,-411 595.5,-353 479.5,-353"/>
<polygon fill="#f5f5f5" stroke="none" points="479.5,-389 479.5,-411 595.5,-411 595.5,-389 479.5,-389"/>
<polygon fill="none" stroke="black" points="479.5,-389 479.5,-411 595.5,-411 595.5,-389 479.5,-389"/>
<text text-anchor="start" x="484.5" y="-398.2" font-family="Helvetica,sans-Serif" font-weight="bold" font-size="11.00">core_export</text>
<text text-anchor="start" x="556.5" y="-397.2" font-family="Helvetica,sans-Serif" font-size="11.00">[table]</text>
<polygon fill="none" stroke="black" points="479.5,-371 479.5,-389 595.5,-389 595.5,-371 479.5,-371"/>
<text text-anchor="start" x="482.5" y="-377.2" font-family="Helvetica,sans-Serif" font-size="11.00">...</text>
<polygon fill="#ffffff" stroke="none" points="479.5,-353 479.5,-371 516.5,-371 516.5,-353 479.5,-353"/>
<polygon fill="none" stroke="black" points="479.5,-353 479.5,-371 516.5,-371 516.5,-353 479.5,-353"/>
<text text-anchor="start" x="482.5" y="-359.2" font-family="Helvetica,sans-Serif" font-size="11.00">&lt; 2</text>
<polygon fill="#ffffff" stroke="none" points="516.5,-353 516.5,-371 565.5,-371 565.5,-353 516.5,-353"/>
<polygon fill="none" stroke="black" points="516.5,-353 516.5,-371 565.5,-371 565.5,-353 516.5,-353"/>
<text text-anchor="start" x="526.5" y="-359.2" font-family="Helvetica,sans-Serif" font-size="11.00">0 rows</text>
<polygon fill="#ffffff" stroke="none" points="565.5,-353 565.5,-371 595.5,-371 595.5,-353 565.5,-353"/>
<polygon fill="none" stroke="black" points="565.5,-353 565.5,-371 595.5,-371 595.5,-353 565.5,-353"/>
<text text-anchor="start" x="575.5" y="-359.2" font-family="Helvetica,sans-Serif" font-size="11.00">2 &gt;</text>
</a>
</g>
</g>
<!-- core_export&#45;&gt;core_task -->
<g id="edge5" class="edge"><title>core_export:elipses:w&#45;&gt;core_task:pulp_id:e</title>
<path fill="none" stroke="black" d="M463.907,-378.958C437.426,-374.809 428.723,-358.87 400,-342 372.623,-325.92 373.25,-301 341.5,-301"/>
<polygon fill="black" stroke="black" points="470.52,-379.43 478.244,-383.591 474.51,-379.715 478.5,-380 478.5,-380 478.5,-380 474.51,-379.715 478.756,-376.409 470.52,-379.43 470.52,-379.43"/>
<ellipse fill="none" stroke="black" cx="467.328" cy="-379.202" rx="3.2" ry="3.2"/>
</g>
<!-- core_exportedresource -->
<g id="node7" class="node"><title>core_exportedresource</title>
<g id="a_node7"><a xlink:href="../../tables/core_exportedresource.html" xlink:title="core_exportedresource" target="_top">
<polygon fill="#ffffff" stroke="none" points="744,-539 744,-597 924,-597 924,-539 744,-539"/>
<polygon fill="#f5f5f5" stroke="none" points="744,-575 744,-597 924,-597 924,-575 744,-575"/>
<polygon fill="none" stroke="black" points="744,-575 744,-597 924,-597 924,-575 744,-575"/>
<text text-anchor="start" x="749" y="-584.2" font-family="Helvetica,sans-Serif" font-weight="bold" font-size="11.00">core_exportedresource</text>
<text text-anchor="start" x="885" y="-583.2" font-family="Helvetica,sans-Serif" font-size="11.00">[table]</text>
<polygon fill="none" stroke="black" points="744,-557 744,-575 924,-575 924,-557 744,-557"/>
<text text-anchor="start" x="747" y="-563.2" font-family="Helvetica,sans-Serif" font-size="11.00">...</text>
<polygon fill="#ffffff" stroke="none" points="744,-539 744,-557 818,-557 818,-539 744,-539"/>
<polygon fill="none" stroke="black" points="744,-539 744,-557 818,-557 818,-539 744,-539"/>
<text text-anchor="start" x="747" y="-545.2" font-family="Helvetica,sans-Serif" font-size="11.00">&lt; 2</text>
<polygon fill="#ffffff" stroke="none" points="818,-539 818,-557 885,-557 885,-539 818,-539"/>
<polygon fill="none" stroke="black" points="818,-539 818,-557 885,-557 885,-539 818,-539"/>
<text text-anchor="start" x="846" y="-545.2" font-family="Helvetica,sans-Serif" font-size="11.00">0 rows</text>
<polygon fill="#ffffff" stroke="none" points="885,-539 885,-557 924,-557 924,-539 885,-539"/>
<polygon fill="none" stroke="black" points="885,-539 885,-557 924,-557 924,-539 885,-539"/>
<text text-anchor="start" x="914" y="-545.2" font-family="Helvetica,sans-Serif" font-size="11.00"> &#160;</text>
</a>
</g>
</g>
<!-- core_exportedresource&#45;&gt;django_content_type -->
<g id="edge6" class="edge"><title>core_exportedresource:elipses:w&#45;&gt;django_content_type:id:e</title>
<path fill="none" stroke="black" d="M728.622,-567.305C655.7,-582.115 747.961,-719.107 675,-777 668.133,-782.449 369.266,-803 360.5,-803"/>
<polygon fill="black" stroke="black" points="735.033,-566.723 743.325,-569.585 739.016,-566.361 743,-566 743,-566 743,-566 739.016,-566.361 742.675,-562.415 735.033,-566.723 735.033,-566.723"/>
<ellipse fill="none" stroke="black" cx="731.846" cy="-567.012" rx="3.2" ry="3.2"/>
</g>
<!-- core_exportedresource&#45;&gt;core_export -->
<g id="edge7" class="edge"><title>core_exportedresource:elipses:w&#45;&gt;core_export:elipses:e</title>
<path fill="none" stroke="black" d="M728.545,-564.366C679.666,-551.766 719.967,-469.278 675,-422 647.73,-393.329 636.069,-380 596.5,-380"/>
<polygon fill="black" stroke="black" points="735.051,-565.101 742.596,-569.577 739.025,-565.551 743,-566 743,-566 743,-566 739.025,-565.551 743.404,-562.423 735.051,-565.101 735.051,-565.101"/>
<ellipse fill="none" stroke="black" cx="731.871" cy="-564.742" rx="3.2" ry="3.2"/>
</g>
<!-- core_import -->
<g id="node8" class="node"><title>core_import</title>
<g id="a_node8"><a xlink:href="../../tables/core_import.html" xlink:title="core_import" target="_top">
<polygon fill="#ffffff" stroke="none" points="478.5,-274 478.5,-332 596.5,-332 596.5,-274 478.5,-274"/>
<polygon fill="#f5f5f5" stroke="none" points="478.5,-310 478.5,-332 596.5,-332 596.5,-310 478.5,-310"/>
<polygon fill="none" stroke="black" points="478.5,-310 478.5,-332 596.5,-332 596.5,-310 478.5,-310"/>
<text text-anchor="start" x="483.5" y="-319.2" font-family="Helvetica,sans-Serif" font-weight="bold" font-size="11.00">core_import</text>
<text text-anchor="start" x="557.5" y="-318.2" font-family="Helvetica,sans-Serif" font-size="11.00">[table]</text>
<polygon fill="none" stroke="black" points="478.5,-292 478.5,-310 596.5,-310 596.5,-292 478.5,-292"/>
<text text-anchor="start" x="481.5" y="-298.2" font-family="Helvetica,sans-Serif" font-size="11.00">...</text>
<polygon fill="#ffffff" stroke="none" points="478.5,-274 478.5,-292 516.5,-292 516.5,-274 478.5,-274"/>
<polygon fill="none" stroke="black" points="478.5,-274 478.5,-292 516.5,-292 516.5,-274 478.5,-274"/>
<text text-anchor="start" x="481.5" y="-280.2" font-family="Helvetica,sans-Serif" font-size="11.00">&lt; 2</text>
<polygon fill="#ffffff" stroke="none" points="516.5,-274 516.5,-292 565.5,-292 565.5,-274 516.5,-274"/>
<polygon fill="none" stroke="black" points="516.5,-274 516.5,-292 565.5,-292 565.5,-274 516.5,-274"/>
<text text-anchor="start" x="526.5" y="-280.2" font-family="Helvetica,sans-Serif" font-size="11.00">0 rows</text>
<polygon fill="#ffffff" stroke="none" points="565.5,-274 565.5,-292 596.5,-292 596.5,-274 565.5,-274"/>
<polygon fill="none" stroke="black" points="565.5,-274 565.5,-292 596.5,-292 596.5,-274 565.5,-274"/>
<text text-anchor="start" x="576.5" y="-280.2" font-family="Helvetica,sans-Serif" font-size="11.00">1 &gt;</text>
</a>
</g>
</g>
<!-- core_import&#45;&gt;core_task -->
<g id="edge8" class="edge"><title>core_import:elipses:w&#45;&gt;core_task:pulp_id:e</title>
<path fill="none" stroke="black" d="M462.864,-301C414.124,-301 396.75,-301 341.5,-301"/>
<polygon fill="black" stroke="black" points="469.5,-301 477.5,-304.6 473.5,-301 477.5,-301 477.5,-301 477.5,-301 473.5,-301 477.5,-297.4 469.5,-301 469.5,-301"/>
<ellipse fill="none" stroke="black" cx="466.3" cy="-301" rx="3.2" ry="3.2"/>
</g>
<!-- core_progressreport -->
<g id="node9" class="node"><title>core_progressreport</title>
<g id="a_node9"><a xlink:href="../../tables/core_progressreport.html" xlink:title="core_progressreport" target="_top">
<polygon fill="#ffffff" stroke="none" points="456,-195 456,-253 619,-253 619,-195 456,-195"/>
<polygon fill="#f5f5f5" stroke="none" points="456.5,-231 456.5,-253 619.5,-253 619.5,-231 456.5,-231"/>
<polygon fill="none" stroke="black" points="456.5,-231 456.5,-253 619.5,-253 619.5,-231 456.5,-231"/>
<text text-anchor="start" x="461.5" y="-240.2" font-family="Helvetica,sans-Serif" font-weight="bold" font-size="11.00">core_progressreport</text>
<text text-anchor="start" x="580.5" y="-239.2" font-family="Helvetica,sans-Serif" font-size="11.00">[table]</text>
<polygon fill="none" stroke="black" points="456.5,-213 456.5,-231 619.5,-231 619.5,-213 456.5,-213"/>
<text text-anchor="start" x="459.5" y="-219.2" font-family="Helvetica,sans-Serif" font-size="11.00">...</text>
<polygon fill="#ffffff" stroke="none" points="456.5,-195 456.5,-213 518.5,-213 518.5,-195 456.5,-195"/>
<polygon fill="none" stroke="black" points="456.5,-195 456.5,-213 518.5,-213 518.5,-195 456.5,-195"/>
<text text-anchor="start" x="459.5" y="-201.2" font-family="Helvetica,sans-Serif" font-size="11.00">&lt; 1</text>
<polygon fill="#ffffff" stroke="none" points="518.5,-195 518.5,-213 586.5,-213 586.5,-195 518.5,-195"/>
<polygon fill="none" stroke="black" points="518.5,-195 518.5,-213 586.5,-213 586.5,-195 518.5,-195"/>
<text text-anchor="start" x="540.5" y="-201.2" font-family="Helvetica,sans-Serif" font-size="11.00">53 rows</text>
<polygon fill="#ffffff" stroke="none" points="586.5,-195 586.5,-213 619.5,-213 619.5,-195 586.5,-195"/>
<polygon fill="none" stroke="black" points="586.5,-195 586.5,-213 619.5,-213 619.5,-195 586.5,-195"/>
<text text-anchor="start" x="609.5" y="-201.2" font-family="Helvetica,sans-Serif" font-size="11.00"> &#160;</text>
</a>
</g>
</g>
<!-- core_progressreport&#45;&gt;core_task -->
<g id="edge9" class="edge"><title>core_progressreport:elipses:w&#45;&gt;core_task:pulp_id:e</title>
<path fill="none" stroke="black" d="M441.089,-223.65C394.929,-234.995 397.846,-301 341.5,-301"/>
<polygon fill="black" stroke="black" points="447.552,-222.91 455.91,-225.577 451.526,-222.455 455.5,-222 455.5,-222 455.5,-222 451.526,-222.455 455.09,-218.423 447.552,-222.91 447.552,-222.91"/>
<ellipse fill="none" stroke="black" cx="444.373" cy="-223.274" rx="3.2" ry="3.2"/>
</g>
<!-- core_taskreservedresource -->
<g id="node12" class="node"><title>core_taskreservedresource</title>
<g id="a_node12"><a xlink:href="../../tables/core_taskreservedresource.html" xlink:title="core_taskreservedresource" target="_top">
<polygon fill="#ffffff" stroke="none" points="436.5,-116 436.5,-174 638.5,-174 638.5,-116 436.5,-116"/>
<polygon fill="#f5f5f5" stroke="none" points="436.5,-152 436.5,-174 638.5,-174 638.5,-152 436.5,-152"/>
<polygon fill="none" stroke="black" points="436.5,-152 436.5,-174 638.5,-174 638.5,-152 436.5,-152"/>
<text text-anchor="start" x="441.5" y="-161.2" font-family="Helvetica,sans-Serif" font-weight="bold" font-size="11.00">core_taskreservedresource</text>
<text text-anchor="start" x="599.5" y="-160.2" font-family="Helvetica,sans-Serif" font-size="11.00">[table]</text>
<polygon fill="none" stroke="black" points="436.5,-134 436.5,-152 638.5,-152 638.5,-134 436.5,-134"/>
<text text-anchor="start" x="439.5" y="-140.2" font-family="Helvetica,sans-Serif" font-size="11.00">...</text>
<polygon fill="#ffffff" stroke="none" points="436.5,-116 436.5,-134 521.5,-134 521.5,-116 436.5,-116"/>
<polygon fill="none" stroke="black" points="436.5,-116 436.5,-134 521.5,-134 521.5,-116 436.5,-116"/>
<text text-anchor="start" x="439.5" y="-122.2" font-family="Helvetica,sans-Serif" font-size="11.00">&lt; 2</text>
<polygon fill="#ffffff" stroke="none" points="521.5,-116 521.5,-134 594.5,-134 594.5,-116 521.5,-116"/>
<polygon fill="none" stroke="black" points="521.5,-116 521.5,-134 594.5,-134 594.5,-116 521.5,-116"/>
<text text-anchor="start" x="555.5" y="-122.2" font-family="Helvetica,sans-Serif" font-size="11.00">0 rows</text>
<polygon fill="#ffffff" stroke="none" points="594.5,-116 594.5,-134 638.5,-134 638.5,-116 594.5,-116"/>
<polygon fill="none" stroke="black" points="594.5,-116 594.5,-134 638.5,-134 638.5,-116 594.5,-116"/>
<text text-anchor="start" x="628.5" y="-122.2" font-family="Helvetica,sans-Serif" font-size="11.00"> &#160;</text>
</a>
</g>
</g>
<!-- core_taskreservedresource&#45;&gt;core_task -->
<g id="edge12" class="edge"><title>core_taskreservedresource:elipses:w&#45;&gt;core_task:pulp_id:e</title>
<path fill="none" stroke="black" d="M421.133,-144.998C362.343,-163.288 417.784,-301 341.5,-301"/>
<polygon fill="black" stroke="black" points="427.576,-144.102 435.996,-146.566 431.538,-143.551 435.5,-143 435.5,-143 435.5,-143 431.538,-143.551 435.004,-139.434 427.576,-144.102 427.576,-144.102"/>
<ellipse fill="none" stroke="black" cx="424.407" cy="-144.543" rx="3.2" ry="3.2"/>
</g>
<!-- core_taskreservedresourcerecord -->
<g id="node13" class="node"><title>core_taskreservedresourcerecord</title>
<g id="a_node13"><a xlink:href="../../tables/core_taskreservedresourcerecord.html" xlink:title="core_taskreservedresourcerecord" target="_top">
<polygon fill="#ffffff" stroke="none" points="418,-37 418,-95 657,-95 657,-37 418,-37"/>
<polygon fill="#f5f5f5" stroke="none" points="418.5,-73 418.5,-95 657.5,-95 657.5,-73 418.5,-73"/>
<polygon fill="none" stroke="black" points="418.5,-73 418.5,-95 657.5,-95 657.5,-73 418.5,-73"/>
<text text-anchor="start" x="423.5" y="-82.2" font-family="Helvetica,sans-Serif" font-weight="bold" font-size="11.00">core_taskreservedresourcerecord</text>
<text text-anchor="start" x="618.5" y="-81.2" font-family="Helvetica,sans-Serif" font-size="11.00">[table]</text>
<polygon fill="none" stroke="black" points="418.5,-55 418.5,-73 657.5,-73 657.5,-55 418.5,-55"/>
<text text-anchor="start" x="421.5" y="-61.2" font-family="Helvetica,sans-Serif" font-size="11.00">...</text>
<polygon fill="#ffffff" stroke="none" points="418.5,-37 418.5,-55 510.5,-55 510.5,-37 418.5,-37"/>
<polygon fill="none" stroke="black" points="418.5,-37 418.5,-55 510.5,-55 510.5,-37 418.5,-37"/>
<text text-anchor="start" x="421.5" y="-43.2" font-family="Helvetica,sans-Serif" font-size="11.00">&lt; 2</text>
<polygon fill="#ffffff" stroke="none" points="510.5,-37 510.5,-55 609.5,-55 609.5,-37 510.5,-37"/>
<polygon fill="none" stroke="black" points="510.5,-37 510.5,-55 609.5,-55 609.5,-37 510.5,-37"/>
<text text-anchor="start" x="547.5" y="-43.2" font-family="Helvetica,sans-Serif" font-size="11.00">1,937 rows</text>
<polygon fill="#ffffff" stroke="none" points="609.5,-37 609.5,-55 657.5,-55 657.5,-37 609.5,-37"/>
<polygon fill="none" stroke="black" points="609.5,-37 609.5,-55 657.5,-55 657.5,-37 609.5,-37"/>
<text text-anchor="start" x="647.5" y="-43.2" font-family="Helvetica,sans-Serif" font-size="11.00"> &#160;</text>
</a>
</g>
</g>
<!-- core_taskreservedresourcerecord&#45;&gt;core_task -->
<g id="edge13" class="edge"><title>core_taskreservedresourcerecord:elipses:w&#45;&gt;core_task:pulp_id:e</title>
<path fill="none" stroke="black" d="M403.067,-65.64C320.456,-86.5795 446.715,-301 341.5,-301"/>
<polygon fill="black" stroke="black" points="409.551,-64.9032 417.906,-67.577 413.526,-64.4516 417.5,-64 417.5,-64 417.5,-64 413.526,-64.4516 417.094,-60.423 409.551,-64.9032 409.551,-64.9032"/>
<ellipse fill="none" stroke="black" cx="406.372" cy="-65.2645" rx="3.2" ry="3.2"/>
</g>
<!-- django_admin_log -->
<g id="node14" class="node"><title>django_admin_log</title>
<g id="a_node14"><a xlink:href="../../tables/django_admin_log.html" xlink:title="django_admin_log" target="_top">
<polygon fill="#ffffff" stroke="none" points="463,-708 463,-766 612,-766 612,-708 463,-708"/>
<polygon fill="#f5f5f5" stroke="none" points="463.5,-744 463.5,-766 612.5,-766 612.5,-744 463.5,-744"/>
<polygon fill="none" stroke="black" points="463.5,-744 463.5,-766 612.5,-766 612.5,-744 463.5,-744"/>
<text text-anchor="start" x="468.5" y="-753.2" font-family="Helvetica,sans-Serif" font-weight="bold" font-size="11.00">django_admin_log</text>
<text text-anchor="start" x="573.5" y="-752.2" font-family="Helvetica,sans-Serif" font-size="11.00">[table]</text>
<polygon fill="none" stroke="black" points="463.5,-726 463.5,-744 612.5,-744 612.5,-726 463.5,-726"/>
<text text-anchor="start" x="466.5" y="-732.2" font-family="Helvetica,sans-Serif" font-size="11.00">...</text>
<polygon fill="#ffffff" stroke="none" points="463.5,-708 463.5,-726 515.5,-726 515.5,-708 463.5,-708"/>
<polygon fill="none" stroke="black" points="463.5,-708 463.5,-726 515.5,-726 515.5,-708 463.5,-708"/>
<text text-anchor="start" x="466.5" y="-714.2" font-family="Helvetica,sans-Serif" font-size="11.00">&lt; 2</text>
<polygon fill="#ffffff" stroke="none" points="515.5,-708 515.5,-726 584.5,-726 584.5,-708 515.5,-708"/>
<polygon fill="none" stroke="black" points="515.5,-708 515.5,-726 584.5,-726 584.5,-708 515.5,-708"/>
<text text-anchor="start" x="532.5" y="-714.2" font-family="Helvetica,sans-Serif" font-size="11.00">229 rows</text>
<polygon fill="#ffffff" stroke="none" points="584.5,-708 584.5,-726 612.5,-726 612.5,-708 584.5,-708"/>
<polygon fill="none" stroke="black" points="584.5,-708 584.5,-726 612.5,-726 612.5,-708 584.5,-708"/>
<text text-anchor="start" x="602.5" y="-714.2" font-family="Helvetica,sans-Serif" font-size="11.00"> &#160;</text>
</a>
</g>
</g>
<!-- django_admin_log&#45;&gt;django_content_type -->
<g id="edge14" class="edge"><title>django_admin_log:elipses:w&#45;&gt;django_content_type:id:e</title>
<path fill="none" stroke="black" d="M448.4,-739.462C420.904,-754.59 383.485,-803 360.5,-803"/>
<polygon fill="black" stroke="black" points="454.873,-737.414 463.586,-738.432 458.686,-736.207 462.5,-735 462.5,-735 462.5,-735 458.686,-736.207 461.414,-731.568 454.873,-737.414 454.873,-737.414"/>
<ellipse fill="none" stroke="black" cx="451.822" cy="-738.379" rx="3.20001" ry="3.20001"/>
</g>
<!-- guardian_groupobjectpermission -->
<g id="node15" class="node"><title>guardian_groupobjectpermission</title>
<g id="a_node15"><a xlink:href="../../tables/guardian_groupobjectpermission.html" xlink:title="guardian_groupobjectpermission" target="_top">
<polygon fill="#ffffff" stroke="none" points="716,-889 716,-947 952,-947 952,-889 716,-889"/>
<polygon fill="#f5f5f5" stroke="none" points="716,-925 716,-947 952,-947 952,-925 716,-925"/>
<polygon fill="none" stroke="black" points="716,-925 716,-947 952,-947 952,-925 716,-925"/>
<text text-anchor="start" x="721" y="-934.2" font-family="Helvetica,sans-Serif" font-weight="bold" font-size="11.00">guardian_groupobjectpermission</text>
<text text-anchor="start" x="913" y="-933.2" font-family="Helvetica,sans-Serif" font-size="11.00">[table]</text>
<polygon fill="none" stroke="black" points="716,-907 716,-925 952,-925 952,-907 716,-907"/>
<text text-anchor="start" x="719" y="-913.2" font-family="Helvetica,sans-Serif" font-size="11.00">...</text>
<polygon fill="#ffffff" stroke="none" points="716,-889 716,-907 811,-907 811,-889 716,-889"/>
<polygon fill="none" stroke="black" points="716,-889 716,-907 811,-907 811,-889 716,-889"/>
<text text-anchor="start" x="719" y="-895.2" font-family="Helvetica,sans-Serif" font-size="11.00">&lt; 3</text>
<polygon fill="#ffffff" stroke="none" points="811,-889 811,-907 902,-907 902,-889 811,-889"/>
<polygon fill="none" stroke="black" points="811,-889 811,-907 902,-907 902,-889 811,-889"/>
<text text-anchor="start" x="850" y="-895.2" font-family="Helvetica,sans-Serif" font-size="11.00">168 rows</text>
<polygon fill="#ffffff" stroke="none" points="902,-889 902,-907 952,-907 952,-889 902,-889"/>
<polygon fill="none" stroke="black" points="902,-889 902,-907 952,-907 952,-889 902,-889"/>
<text text-anchor="start" x="942" y="-895.2" font-family="Helvetica,sans-Serif" font-size="11.00"> &#160;</text>
</a>
</g>
</g>
<!-- guardian_groupobjectpermission&#45;&gt;auth_permission -->
<g id="edge16" class="edge"><title>guardian_groupobjectpermission:elipses:w&#45;&gt;auth_permission:elipses:e</title>
<path fill="none" stroke="black" d="M700.343,-914.511C662.866,-906.409 656.219,-868 610.5,-868"/>
<polygon fill="black" stroke="black" points="707.041,-915.191 714.636,-919.582 711.02,-915.596 715,-916 715,-916 715,-916 711.02,-915.596 715.364,-912.418 707.041,-915.191 707.041,-915.191"/>
<ellipse fill="none" stroke="black" cx="703.857" cy="-914.868" rx="3.2" ry="3.2"/>
</g>
<!-- guardian_groupobjectpermission&#45;&gt;django_content_type -->
<g id="edge15" class="edge"><title>guardian_groupobjectpermission:elipses:w&#45;&gt;django_content_type:id:e</title>
<path fill="none" stroke="black" d="M700.519,-916.269C570.63,-921.09 510.106,-988.29 400,-910 358.687,-880.624 411.192,-803 360.5,-803"/>
<polygon fill="black" stroke="black" points="707.001,-916.148 715.067,-919.599 711.001,-916.074 715,-916 715,-916 715,-916 711.001,-916.074 714.933,-912.401 707.001,-916.148 707.001,-916.148"/>
<ellipse fill="none" stroke="black" cx="703.802" cy="-916.208" rx="3.2" ry="3.2"/>
</g>
<!-- guardian_userobjectpermission -->
<g id="node16" class="node"><title>guardian_userobjectpermission</title>
<g id="a_node16"><a xlink:href="../../tables/guardian_userobjectpermission.html" xlink:title="guardian_userobjectpermission" target="_top">
<polygon fill="#ffffff" stroke="none" points="720,-797 720,-855 948,-855 948,-797 720,-797"/>
<polygon fill="#f5f5f5" stroke="none" points="720,-833 720,-855 948,-855 948,-833 720,-833"/>
<polygon fill="none" stroke="black" points="720,-833 720,-855 948,-855 948,-833 720,-833"/>
<text text-anchor="start" x="725" y="-842.2" font-family="Helvetica,sans-Serif" font-weight="bold" font-size="11.00">guardian_userobjectpermission</text>
<text text-anchor="start" x="909" y="-841.2" font-family="Helvetica,sans-Serif" font-size="11.00">[table]</text>
<polygon fill="none" stroke="black" points="720,-815 720,-833 948,-833 948,-815 720,-815"/>
<text text-anchor="start" x="723" y="-821.2" font-family="Helvetica,sans-Serif" font-size="11.00">...</text>
<polygon fill="#ffffff" stroke="none" points="720,-797 720,-815 818,-815 818,-797 720,-797"/>
<polygon fill="none" stroke="black" points="720,-797 720,-815 818,-815 818,-797 720,-797"/>
<text text-anchor="start" x="723" y="-803.2" font-family="Helvetica,sans-Serif" font-size="11.00">&lt; 3</text>
<polygon fill="#ffffff" stroke="none" points="818,-797 818,-815 897,-815 897,-797 818,-797"/>
<polygon fill="none" stroke="black" points="818,-797 818,-815 897,-815 897,-797 818,-797"/>
<text text-anchor="start" x="858" y="-803.2" font-family="Helvetica,sans-Serif" font-size="11.00">0 rows</text>
<polygon fill="#ffffff" stroke="none" points="897,-797 897,-815 948,-815 948,-797 897,-797"/>
<polygon fill="none" stroke="black" points="897,-797 897,-815 948,-815 948,-797 897,-797"/>
<text text-anchor="start" x="938" y="-803.2" font-family="Helvetica,sans-Serif" font-size="11.00"> &#160;</text>
</a>
</g>
</g>
<!-- guardian_userobjectpermission&#45;&gt;auth_permission -->
<g id="edge18" class="edge"><title>guardian_userobjectpermission:elipses:w&#45;&gt;auth_permission:elipses:e</title>
<path fill="none" stroke="black" d="M704.519,-825.269C665.573,-832.484 657.252,-868 610.5,-868"/>
<polygon fill="black" stroke="black" points="711.031,-824.699 719.314,-827.586 715.015,-824.349 719,-824 719,-824 719,-824 715.015,-824.349 718.686,-820.414 711.031,-824.699 711.031,-824.699"/>
<ellipse fill="none" stroke="black" cx="707.843" cy="-824.978" rx="3.2" ry="3.2"/>
</g>
<!-- guardian_userobjectpermission&#45;&gt;django_content_type -->
<g id="edge17" class="edge"><title>guardian_userobjectpermission:elipses:w&#45;&gt;django_content_type:id:e</title>
<path fill="none" stroke="black" d="M704.382,-823.94C556.821,-822.708 515.119,-803 360.5,-803"/>
<polygon fill="black" stroke="black" points="711,-823.967 718.985,-827.6 715,-823.983 719,-824 719,-824 719,-824 715,-823.983 719.015,-820.4 711,-823.967 711,-823.967"/>
<ellipse fill="none" stroke="black" cx="707.8" cy="-823.954" rx="3.2" ry="3.2"/>
</g>
</g>
</svg>
