<?xml version="1.0" encoding="UTF-8" standalone="no"?>
<!DOCTYPE svg PUBLIC "-//W3C//DTD SVG 1.1//EN"
 "http://www.w3.org/Graphics/SVG/1.1/DTD/svg11.dtd">
<!-- Generated by graphviz version 2.38.0 (20140413.2041)
 -->
<!-- Title: oneDegreeRelationshipsDiagram Pages: 1 -->
<svg width="749pt" height="476pt"
 viewBox="0.00 0.00 749.00 476.00" xmlns="http://www.w3.org/2000/svg" xmlns:xlink="http://www.w3.org/1999/xlink">
<g id="graph0" class="graph" transform="scale(1 1) rotate(0) translate(4 472)">
<title>oneDegreeRelationshipsDiagram</title>
<polygon fill="#ffffff" stroke="none" points="-4,4 -4,-472 745,-472 745,4 -4,4"/>
<text text-anchor="middle" x="74.5" y="-7.2" font-family="Helvetica,sans-Serif" font-size="11.00">Generated by SchemaSpy</text>
<!-- core_publication -->
<g id="node1" class="node"><title>core_publication</title>
<g id="a_node1"><a xlink:href="../../tables/core_publication.html" xlink:title="core_publication" target="_top">
<polygon fill="#ffffff" stroke="none" points="236,-141 236,-339 493,-339 493,-141 236,-141"/>
<polygon fill="#f5f5f5" stroke="none" points="238.5,-315 238.5,-337 491.5,-337 491.5,-315 238.5,-315"/>
<polygon fill="none" stroke="black" points="238.5,-315 238.5,-337 491.5,-337 491.5,-315 238.5,-315"/>
<text text-anchor="start" x="243.5" y="-324.2" font-family="Helvetica,sans-Serif" font-weight="bold" font-size="11.00">core_publication</text>
<text text-anchor="start" x="452.5" y="-323.2" font-family="Helvetica,sans-Serif" font-size="11.00">[table]</text>
<polygon fill="none" stroke="black" points="238.5,-293 238.5,-315 386.5,-315 386.5,-293 238.5,-293"/>
<image xlink:href="../../images/primaryKeys.png" width="11px" height="12px" preserveAspectRatio="xMinYMin meet" x="243.5" y="-310"/>
<text text-anchor="start" x="258.5" y="-301.2" font-family="Helvetica,sans-Serif" font-size="11.00">pulp_id</text>
<polygon fill="none" stroke="black" points="386.5,-293 386.5,-315 491.5,-315 491.5,-293 386.5,-293"/>
<text text-anchor="start" x="389.5" y="-301.2" font-family="Helvetica,sans-Serif" font-size="11.00">uuid[2147483647]</text>
<polygon fill="none" stroke="black" points="238.5,-271 238.5,-293 386.5,-293 386.5,-271 238.5,-271"/>
<text text-anchor="start" x="258.5" y="-279.2" font-family="Helvetica,sans-Serif" font-size="11.00">pulp_created</text>
<polygon fill="none" stroke="black" points="386.5,-271 386.5,-293 491.5,-293 491.5,-271 386.5,-271"/>
<text text-anchor="start" x="389.5" y="-279.2" font-family="Helvetica,sans-Serif" font-size="11.00">timestamptz[35,6]</text>
<polygon fill="none" stroke="black" points="238.5,-249 238.5,-271 386.5,-271 386.5,-249 238.5,-249"/>
<text text-anchor="start" x="258.5" y="-257.2" font-family="Helvetica,sans-Serif" font-size="11.00">pulp_last_updated</text>
<polygon fill="none" stroke="black" points="386.5,-249 386.5,-271 491.5,-271 491.5,-249 386.5,-249"/>
<text text-anchor="start" x="389.5" y="-257.2" font-family="Helvetica,sans-Serif" font-size="11.00">timestamptz[35,6]</text>
<polygon fill="none" stroke="black" points="238.5,-227 238.5,-249 386.5,-249 386.5,-227 238.5,-227"/>
<text text-anchor="start" x="258.5" y="-235.2" font-family="Helvetica,sans-Serif" font-size="11.00">pulp_type</text>
<polygon fill="none" stroke="black" points="386.5,-227 386.5,-249 491.5,-249 491.5,-227 386.5,-227"/>
<text text-anchor="start" x="389.5" y="-235.2" font-family="Helvetica,sans-Serif" font-size="11.00">text[2147483647]</text>
<polygon fill="#ffffff" stroke="none" points="238.5,-205 238.5,-227 386.5,-227 386.5,-205 238.5,-205"/>
<polygon fill="none" stroke="black" points="238.5,-205 238.5,-227 386.5,-227 386.5,-205 238.5,-205"/>
<text text-anchor="start" x="258.5" y="-213.2" font-family="Helvetica,sans-Serif" font-size="11.00">complete</text>
<polygon fill="none" stroke="black" points="386.5,-205 386.5,-227 491.5,-227 491.5,-205 386.5,-205"/>
<text text-anchor="start" x="389.5" y="-213.2" font-family="Helvetica,sans-Serif" font-size="11.00">bool[1]</text>
<polygon fill="none" stroke="black" points="238.5,-183 238.5,-205 386.5,-205 386.5,-183 238.5,-183"/>
<text text-anchor="start" x="258.5" y="-191.2" font-family="Helvetica,sans-Serif" font-size="11.00">pass_through</text>
<polygon fill="none" stroke="black" points="386.5,-183 386.5,-205 491.5,-205 491.5,-183 386.5,-183"/>
<text text-anchor="start" x="389.5" y="-191.2" font-family="Helvetica,sans-Serif" font-size="11.00">bool[1]</text>
<polygon fill="#ffffff" stroke="none" points="238.5,-161 238.5,-183 386.5,-183 386.5,-161 238.5,-161"/>
<polygon fill="none" stroke="black" points="238.5,-161 238.5,-183 386.5,-183 386.5,-161 238.5,-161"/>
<image xlink:href="../../images/foreignKeys.png" width="11px" height="12px" preserveAspectRatio="xMinYMin meet" x="243.5" y="-178"/>
<text text-anchor="start" x="258.5" y="-169.2" font-family="Helvetica,sans-Serif" font-size="11.00">repository_version_id</text>
<polygon fill="none" stroke="black" points="386.5,-161 386.5,-183 491.5,-183 491.5,-161 386.5,-161"/>
<text text-anchor="start" x="389.5" y="-169.2" font-family="Helvetica,sans-Serif" font-size="11.00">uuid[2147483647]</text>
<polygon fill="#ffffff" stroke="none" points="238.5,-143 238.5,-161 302.5,-161 302.5,-143 238.5,-143"/>
<polygon fill="none" stroke="black" points="238.5,-143 238.5,-161 302.5,-161 302.5,-143 238.5,-143"/>
<text text-anchor="start" x="241.5" y="-149.2" font-family="Helvetica,sans-Serif" font-size="11.00">&lt; 1</text>
<polygon fill="#ffffff" stroke="none" points="302.5,-143 302.5,-161 386.5,-161 386.5,-143 302.5,-143"/>
<polygon fill="none" stroke="black" points="302.5,-143 302.5,-161 386.5,-161 386.5,-143 302.5,-143"/>
<text text-anchor="start" x="347.5" y="-149.2" font-family="Helvetica,sans-Serif" font-size="11.00">0 rows</text>
<polygon fill="#ffffff" stroke="none" points="386.5,-143 386.5,-161 491.5,-161 491.5,-143 386.5,-143"/>
<polygon fill="none" stroke="black" points="386.5,-143 386.5,-161 491.5,-161 491.5,-143 386.5,-143"/>
<text text-anchor="start" x="471.5" y="-149.2" font-family="Helvetica,sans-Serif" font-size="11.00">2 &gt;</text>
<polygon fill="none" stroke="black" stroke-width="2" points="237,-142 237,-338 492,-338 492,-142 237,-142"/>
</a>
</g>
</g>
<!-- core_repositoryversion -->
<g id="node2" class="node"><title>core_repositoryversion</title>
<g id="a_node2"><a xlink:href="../../tables/core_repositoryversion.html" xlink:title="core_repositoryversion" target="_top">
<polygon fill="#ffffff" stroke="none" points="8,-37 8,-205 187,-205 187,-37 8,-37"/>
<polygon fill="#f5f5f5" stroke="none" points="8.5,-183 8.5,-205 187.5,-205 187.5,-183 8.5,-183"/>
<polygon fill="none" stroke="black" points="8.5,-183 8.5,-205 187.5,-205 187.5,-183 8.5,-183"/>
<text text-anchor="start" x="13.5" y="-192.2" font-family="Helvetica,sans-Serif" font-weight="bold" font-size="11.00">core_repositoryversion</text>
<text text-anchor="start" x="148.5" y="-191.2" font-family="Helvetica,sans-Serif" font-size="11.00">[table]</text>
<polygon fill="none" stroke="black" points="8.5,-161 8.5,-183 187.5,-183 187.5,-161 8.5,-161"/>
<image xlink:href="../../images/primaryKeys.png" width="11px" height="12px" preserveAspectRatio="xMinYMin meet" x="13.5" y="-178"/>
<text text-anchor="start" x="39.5" y="-169.2" font-family="Helvetica,sans-Serif" font-size="11.00">pulp_id</text>
<polygon fill="#ffffff" stroke="none" points="8.5,-139 8.5,-161 187.5,-161 187.5,-139 8.5,-139"/>
<polygon fill="none" stroke="black" points="8.5,-139 8.5,-161 187.5,-161 187.5,-139 8.5,-139"/>
<text text-anchor="start" x="39.5" y="-147.2" font-family="Helvetica,sans-Serif" font-size="11.00">number</text>
<polygon fill="#ffffff" stroke="none" points="8.5,-117 8.5,-139 187.5,-139 187.5,-117 8.5,-117"/>
<polygon fill="none" stroke="black" points="8.5,-117 8.5,-139 187.5,-139 187.5,-117 8.5,-117"/>
<text text-anchor="start" x="39.5" y="-125.2" font-family="Helvetica,sans-Serif" font-size="11.00">complete</text>
<polygon fill="#ffffff" stroke="none" points="8.5,-95 8.5,-117 187.5,-117 187.5,-95 8.5,-95"/>
<polygon fill="none" stroke="black" points="8.5,-95 8.5,-117 187.5,-117 187.5,-95 8.5,-95"/>
<image xlink:href="../../images/foreignKeys.png" width="11px" height="12px" preserveAspectRatio="xMinYMin meet" x="13.5" y="-112"/>
<text text-anchor="start" x="39.5" y="-103.2" font-family="Helvetica,sans-Serif" font-size="11.00">base_version_id</text>
<polygon fill="#ffffff" stroke="none" points="8.5,-73 8.5,-95 187.5,-95 187.5,-73 8.5,-73"/>
<polygon fill="none" stroke="black" points="8.5,-73 8.5,-95 187.5,-95 187.5,-73 8.5,-73"/>
<image xlink:href="../../images/foreignKeys.png" width="11px" height="12px" preserveAspectRatio="xMinYMin meet" x="13.5" y="-90"/>
<text text-anchor="start" x="39.5" y="-81.2" font-family="Helvetica,sans-Serif" font-size="11.00">repository_id</text>
<polygon fill="none" stroke="black" points="8.5,-55 8.5,-73 187.5,-73 187.5,-55 8.5,-55"/>
<text text-anchor="start" x="11.5" y="-61.2" font-family="Helvetica,sans-Serif" font-size="11.00">...</text>
<polygon fill="#ffffff" stroke="none" points="8.5,-37 8.5,-55 70.5,-55 70.5,-37 8.5,-37"/>
<polygon fill="none" stroke="black" points="8.5,-37 8.5,-55 70.5,-55 70.5,-37 8.5,-37"/>
<text text-anchor="start" x="11.5" y="-43.2" font-family="Helvetica,sans-Serif" font-size="11.00">&lt; 2</text>
<polygon fill="#ffffff" stroke="none" points="70.5,-37 70.5,-55 144.5,-55 144.5,-37 70.5,-37"/>
<polygon fill="none" stroke="black" points="70.5,-37 70.5,-55 144.5,-55 144.5,-37 70.5,-37"/>
<text text-anchor="start" x="92.5" y="-43.2" font-family="Helvetica,sans-Serif" font-size="11.00">162 rows</text>
<polygon fill="#ffffff" stroke="none" points="144.5,-37 144.5,-55 187.5,-55 187.5,-37 144.5,-37"/>
<polygon fill="none" stroke="black" points="144.5,-37 144.5,-55 187.5,-55 187.5,-37 144.5,-37"/>
<text text-anchor="start" x="167.5" y="-43.2" font-family="Helvetica,sans-Serif" font-size="11.00">7 &gt;</text>
</a>
</g>
</g>
<!-- core_publication&#45;&gt;core_repositoryversion -->
<g id="edge1" class="edge"><title>core_publication:repository_version_id:w&#45;&gt;core_repositoryversion:pulp_id:e</title>
<path fill="none" stroke="black" d="M222.991,-172C211.677,-172 204.493,-172 188.5,-172"/>
<polygon fill="black" stroke="black" points="229.5,-172 237.5,-175.6 233.5,-172 237.5,-172 237.5,-172 237.5,-172 233.5,-172 237.5,-168.4 229.5,-172 229.5,-172"/>
<ellipse fill="none" stroke="black" cx="226.3" cy="-172" rx="3.2" ry="3.2"/>
</g>
<!-- core_publishedartifact -->
<g id="node3" class="node"><title>core_publishedartifact</title>
<g id="a_node3"><a xlink:href="../../tables/core_publishedartifact.html" xlink:title="core_publishedartifact" target="_top">
<polygon fill="#ffffff" stroke="none" points="548.5,-318 548.5,-464 726.5,-464 726.5,-318 548.5,-318"/>
<polygon fill="#f5f5f5" stroke="none" points="548.5,-442 548.5,-464 726.5,-464 726.5,-442 548.5,-442"/>
<polygon fill="none" stroke="black" points="548.5,-442 548.5,-464 726.5,-464 726.5,-442 548.5,-442"/>
<text text-anchor="start" x="553.5" y="-451.2" font-family="Helvetica,sans-Serif" font-weight="bold" font-size="11.00">core_publishedartifact</text>
<text text-anchor="start" x="687.5" y="-450.2" font-family="Helvetica,sans-Serif" font-size="11.00">[table]</text>
<polygon fill="none" stroke="black" points="548.5,-420 548.5,-442 726.5,-442 726.5,-420 548.5,-420"/>
<image xlink:href="../../images/primaryKeys.png" width="11px" height="12px" preserveAspectRatio="xMinYMin meet" x="553.5" y="-437"/>
<text text-anchor="start" x="580.5" y="-428.2" font-family="Helvetica,sans-Serif" font-size="11.00">pulp_id</text>
<polygon fill="#ffffff" stroke="none" points="548.5,-398 548.5,-420 726.5,-420 726.5,-398 548.5,-398"/>
<polygon fill="none" stroke="black" points="548.5,-398 548.5,-420 726.5,-420 726.5,-398 548.5,-398"/>
<text text-anchor="start" x="580.5" y="-406.2" font-family="Helvetica,sans-Serif" font-size="11.00">relative_path</text>
<polygon fill="#ffffff" stroke="none" points="548.5,-376 548.5,-398 726.5,-398 726.5,-376 548.5,-376"/>
<polygon fill="none" stroke="black" points="548.5,-376 548.5,-398 726.5,-398 726.5,-376 548.5,-376"/>
<image xlink:href="../../images/foreignKeys.png" width="11px" height="12px" preserveAspectRatio="xMinYMin meet" x="553.5" y="-393"/>
<text text-anchor="start" x="580.5" y="-384.2" font-family="Helvetica,sans-Serif" font-size="11.00">content_artifact_id</text>
<polygon fill="#ffffff" stroke="none" points="548.5,-354 548.5,-376 726.5,-376 726.5,-354 548.5,-354"/>
<polygon fill="none" stroke="black" points="548.5,-354 548.5,-376 726.5,-376 726.5,-354 548.5,-354"/>
<image xlink:href="../../images/foreignKeys.png" width="11px" height="12px" preserveAspectRatio="xMinYMin meet" x="553.5" y="-371"/>
<text text-anchor="start" x="580.5" y="-362.2" font-family="Helvetica,sans-Serif" font-size="11.00">publication_id</text>
<polygon fill="none" stroke="black" points="548.5,-336 548.5,-354 726.5,-354 726.5,-336 548.5,-336"/>
<text text-anchor="start" x="551.5" y="-342.2" font-family="Helvetica,sans-Serif" font-size="11.00">...</text>
<polygon fill="#ffffff" stroke="none" points="548.5,-318 548.5,-336 621.5,-336 621.5,-318 548.5,-318"/>
<polygon fill="none" stroke="black" points="548.5,-318 548.5,-336 621.5,-336 621.5,-318 548.5,-318"/>
<text text-anchor="start" x="551.5" y="-324.2" font-family="Helvetica,sans-Serif" font-size="11.00">&lt; 2</text>
<polygon fill="#ffffff" stroke="none" points="621.5,-318 621.5,-336 688.5,-336 688.5,-318 621.5,-318"/>
<polygon fill="none" stroke="black" points="621.5,-318 621.5,-336 688.5,-336 688.5,-318 621.5,-318"/>
<text text-anchor="start" x="649.5" y="-324.2" font-family="Helvetica,sans-Serif" font-size="11.00">0 rows</text>
<polygon fill="#ffffff" stroke="none" points="688.5,-318 688.5,-336 726.5,-336 726.5,-318 688.5,-318"/>
<polygon fill="none" stroke="black" points="688.5,-318 688.5,-336 726.5,-336 726.5,-318 688.5,-318"/>
<text text-anchor="start" x="716.5" y="-324.2" font-family="Helvetica,sans-Serif" font-size="11.00"> &#160;</text>
</a>
</g>
</g>
<!-- core_publishedartifact&#45;&gt;core_publication -->
<g id="edge2" class="edge"><title>core_publishedartifact:publication_id:w&#45;&gt;core_publication:pulp_id.type:e</title>
<path fill="none" stroke="black" d="M533.454,-360.613C515.438,-346.626 523.015,-304 492.5,-304"/>
<polygon fill="black" stroke="black" points="539.864,-362.615 546.427,-368.436 543.682,-363.808 547.5,-365 547.5,-365 547.5,-365 543.682,-363.808 548.573,-361.564 539.864,-362.615 539.864,-362.615"/>
<ellipse fill="none" stroke="black" cx="536.809" cy="-361.661" rx="3.20001" ry="3.20001"/>
</g>
<!-- core_publishedmetadata -->
<g id="node4" class="node"><title>core_publishedmetadata</title>
<g id="a_node4"><a xlink:href="../../tables/core_publishedmetadata.html" xlink:title="core_publishedmetadata" target="_top">
<polygon fill="#ffffff" stroke="none" points="542,-191 542,-297 733,-297 733,-191 542,-191"/>
<polygon fill="#f5f5f5" stroke="none" points="542.5,-275 542.5,-297 733.5,-297 733.5,-275 542.5,-275"/>
<polygon fill="none" stroke="black" points="542.5,-275 542.5,-297 733.5,-297 733.5,-275 542.5,-275"/>
<text text-anchor="start" x="547.5" y="-284.2" font-family="Helvetica,sans-Serif" font-weight="bold" font-size="11.00">core_publishedmetadata</text>
<text text-anchor="start" x="694.5" y="-283.2" font-family="Helvetica,sans-Serif" font-size="11.00">[table]</text>
<polygon fill="#ffffff" stroke="none" points="542.5,-253 542.5,-275 733.5,-275 733.5,-253 542.5,-253"/>
<polygon fill="none" stroke="black" points="542.5,-253 542.5,-275 733.5,-275 733.5,-253 542.5,-253"/>
<text text-anchor="start" x="573.5" y="-261.2" font-family="Helvetica,sans-Serif" font-size="11.00">relative_path</text>
<polygon fill="#ffffff" stroke="none" points="542.5,-231 542.5,-253 733.5,-253 733.5,-231 542.5,-231"/>
<polygon fill="none" stroke="black" points="542.5,-231 542.5,-253 733.5,-253 733.5,-231 542.5,-231"/>
<image xlink:href="../../images/foreignKeys.png" width="11px" height="12px" preserveAspectRatio="xMinYMin meet" x="547.5" y="-248"/>
<text text-anchor="start" x="573.5" y="-239.2" font-family="Helvetica,sans-Serif" font-size="11.00">publication_id</text>
<polygon fill="none" stroke="black" points="542.5,-209 542.5,-231 733.5,-231 733.5,-209 542.5,-209"/>
<image xlink:href="../../images/primaryKeys.png" width="11px" height="12px" preserveAspectRatio="xMinYMin meet" x="547.5" y="-226"/>
<text text-anchor="start" x="573.5" y="-217.2" font-family="Helvetica,sans-Serif" font-size="11.00">content_ptr_id</text>
<polygon fill="#ffffff" stroke="none" points="542.5,-191 542.5,-209 621.5,-209 621.5,-191 542.5,-191"/>
<polygon fill="none" stroke="black" points="542.5,-191 542.5,-209 621.5,-209 621.5,-191 542.5,-191"/>
<text text-anchor="start" x="545.5" y="-197.2" font-family="Helvetica,sans-Serif" font-size="11.00">&lt; 2</text>
<polygon fill="#ffffff" stroke="none" points="621.5,-191 621.5,-209 691.5,-209 691.5,-191 621.5,-191"/>
<polygon fill="none" stroke="black" points="621.5,-191 621.5,-209 691.5,-209 691.5,-191 621.5,-191"/>
<text text-anchor="start" x="652.5" y="-197.2" font-family="Helvetica,sans-Serif" font-size="11.00">0 rows</text>
<polygon fill="#ffffff" stroke="none" points="691.5,-191 691.5,-209 733.5,-209 733.5,-191 691.5,-191"/>
<polygon fill="none" stroke="black" points="691.5,-191 691.5,-209 733.5,-209 733.5,-191 691.5,-191"/>
<text text-anchor="start" x="723.5" y="-197.2" font-family="Helvetica,sans-Serif" font-size="11.00"> &#160;</text>
</a>
</g>
</g>
<!-- core_publishedmetadata&#45;&gt;core_publication -->
<g id="edge3" class="edge"><title>core_publishedmetadata:publication_id:w&#45;&gt;core_publication:pulp_id.type:e</title>
<path fill="none" stroke="black" d="M527.813,-246.865C512.015,-261.481 521.586,-304 492.5,-304"/>
<polygon fill="black" stroke="black" points="533.962,-244.679 542.706,-245.392 537.731,-243.34 541.5,-242 541.5,-242 541.5,-242 537.731,-243.34 540.294,-238.608 533.962,-244.679 533.962,-244.679"/>
<ellipse fill="none" stroke="black" cx="530.947" cy="-245.751" rx="3.20001" ry="3.20001"/>
</g>
</g>
</svg>
