<?xml version="1.0" encoding="UTF-8" standalone="no"?>
<!DOCTYPE svg PUBLIC "-//W3C//DTD SVG 1.1//EN"
 "http://www.w3.org/Graphics/SVG/1.1/DTD/svg11.dtd">
<!-- Generated by graphviz version 2.38.0 (20140413.2041)
 -->
<!-- Title: twoDegreesRelationshipsDiagram Pages: 1 -->
<svg width="705pt" height="687pt"
 viewBox="0.00 0.00 705.00 687.00" xmlns="http://www.w3.org/2000/svg" xmlns:xlink="http://www.w3.org/1999/xlink">
<g id="graph0" class="graph" transform="scale(1 1) rotate(0) translate(4 683)">
<title>twoDegreesRelationshipsDiagram</title>
<polygon fill="#ffffff" stroke="none" points="-4,4 -4,-683 701,-683 701,4 -4,4"/>
<text text-anchor="middle" x="74.5" y="-7.2" font-family="Helvetica,sans-Serif" font-size="11.00">Generated by SchemaSpy</text>
<!-- auth_permission -->
<g id="node1" class="node"><title>auth_permission</title>
<g id="a_node1"><a xlink:href="../../tables/auth_permission.html" xlink:title="auth_permission" target="_top">
<polygon fill="#ffffff" stroke="none" points="242.5,-74 242.5,-132 385.5,-132 385.5,-74 242.5,-74"/>
<polygon fill="#f5f5f5" stroke="none" points="243,-110 243,-132 386,-132 386,-110 243,-110"/>
<polygon fill="none" stroke="black" points="243,-110 243,-132 386,-132 386,-110 243,-110"/>
<text text-anchor="start" x="248" y="-119.2" font-family="Helvetica,sans-Serif" font-weight="bold" font-size="11.00">auth_permission</text>
<text text-anchor="start" x="347" y="-118.2" font-family="Helvetica,sans-Serif" font-size="11.00">[table]</text>
<polygon fill="none" stroke="black" points="243,-92 243,-110 386,-110 386,-92 243,-92"/>
<text text-anchor="start" x="246" y="-98.2" font-family="Helvetica,sans-Serif" font-size="11.00">...</text>
<polygon fill="#ffffff" stroke="none" points="243,-74 243,-92 287,-92 287,-74 243,-74"/>
<polygon fill="none" stroke="black" points="243,-74 243,-92 287,-92 287,-74 243,-74"/>
<text text-anchor="start" x="246" y="-80.2" font-family="Helvetica,sans-Serif" font-size="11.00">&lt; 1</text>
<polygon fill="#ffffff" stroke="none" points="287,-74 287,-92 352,-92 352,-74 287,-74"/>
<polygon fill="none" stroke="black" points="287,-74 287,-92 352,-92 352,-74 287,-74"/>
<text text-anchor="start" x="300" y="-80.2" font-family="Helvetica,sans-Serif" font-size="11.00">322 rows</text>
<polygon fill="#ffffff" stroke="none" points="352,-74 352,-92 386,-92 386,-74 352,-74"/>
<polygon fill="none" stroke="black" points="352,-74 352,-92 386,-92 386,-74 352,-74"/>
<text text-anchor="start" x="366" y="-80.2" font-family="Helvetica,sans-Serif" font-size="11.00">4 &gt;</text>
</a>
</g>
</g>
<!-- django_content_type -->
<g id="node2" class="node"><title>django_content_type</title>
<g id="a_node2"><a xlink:href="../../tables/django_content_type.html" xlink:title="django_content_type" target="_top">
<polygon fill="#ffffff" stroke="none" points="8,-108 8,-214 175,-214 175,-108 8,-108"/>
<polygon fill="#f5f5f5" stroke="none" points="8.5,-192 8.5,-214 175.5,-214 175.5,-192 8.5,-192"/>
<polygon fill="none" stroke="black" points="8.5,-192 8.5,-214 175.5,-214 175.5,-192 8.5,-192"/>
<text text-anchor="start" x="13.5" y="-201.2" font-family="Helvetica,sans-Serif" font-weight="bold" font-size="11.00">django_content_type</text>
<text text-anchor="start" x="136.5" y="-200.2" font-family="Helvetica,sans-Serif" font-size="11.00">[table]</text>
<polygon fill="none" stroke="black" points="8.5,-170 8.5,-192 175.5,-192 175.5,-170 8.5,-170"/>
<image xlink:href="../../images/primaryKeys.png" width="11px" height="12px" preserveAspectRatio="xMinYMin meet" x="13.5" y="-187"/>
<text text-anchor="start" x="39.5" y="-178.2" font-family="Helvetica,sans-Serif" font-size="11.00">id</text>
<polygon fill="#ffffff" stroke="none" points="8.5,-148 8.5,-170 175.5,-170 175.5,-148 8.5,-148"/>
<polygon fill="none" stroke="black" points="8.5,-148 8.5,-170 175.5,-170 175.5,-148 8.5,-148"/>
<text text-anchor="start" x="39.5" y="-156.2" font-family="Helvetica,sans-Serif" font-size="11.00">app_label</text>
<polygon fill="#ffffff" stroke="none" points="8.5,-126 8.5,-148 175.5,-148 175.5,-126 8.5,-126"/>
<polygon fill="none" stroke="black" points="8.5,-126 8.5,-148 175.5,-148 175.5,-126 8.5,-126"/>
<text text-anchor="start" x="39.5" y="-134.2" font-family="Helvetica,sans-Serif" font-size="11.00">model</text>
<polygon fill="#ffffff" stroke="none" points="8.5,-108 8.5,-126 62.5,-126 62.5,-108 8.5,-108"/>
<polygon fill="none" stroke="black" points="8.5,-108 8.5,-126 62.5,-126 62.5,-108 8.5,-108"/>
<text text-anchor="start" x="11.5" y="-114.2" font-family="Helvetica,sans-Serif" font-size="11.00"> &#160;</text>
<polygon fill="#ffffff" stroke="none" points="62.5,-108 62.5,-126 131.5,-126 131.5,-108 62.5,-108"/>
<polygon fill="none" stroke="black" points="62.5,-108 62.5,-126 131.5,-126 131.5,-108 62.5,-108"/>
<text text-anchor="start" x="85.5" y="-114.2" font-family="Helvetica,sans-Serif" font-size="11.00">79 rows</text>
<polygon fill="#ffffff" stroke="none" points="131.5,-108 131.5,-126 175.5,-126 175.5,-108 131.5,-108"/>
<polygon fill="none" stroke="black" points="131.5,-108 131.5,-126 175.5,-126 175.5,-108 131.5,-108"/>
<text text-anchor="start" x="155.5" y="-114.2" font-family="Helvetica,sans-Serif" font-size="11.00">6 &gt;</text>
</a>
</g>
</g>
<!-- auth_permission&#45;&gt;django_content_type -->
<g id="edge1" class="edge"><title>auth_permission:elipses:w&#45;&gt;django_content_type:id:e</title>
<path fill="none" stroke="black" d="M227.877,-104.438C201.518,-119.75 216.709,-181 176.5,-181"/>
<polygon fill="black" stroke="black" points="234.227,-102.892 242.851,-104.498 238.113,-101.946 242,-101 242,-101 242,-101 238.113,-101.946 241.149,-97.5021 234.227,-102.892 234.227,-102.892"/>
<ellipse fill="none" stroke="black" cx="231.118" cy="-103.649" rx="3.2" ry="3.2"/>
</g>
<!-- authtoken_token -->
<g id="node3" class="node"><title>authtoken_token</title>
<g id="a_node3"><a xlink:href="../../tables/authtoken_token.html" xlink:title="authtoken_token" target="_top">
<polygon fill="#ffffff" stroke="none" points="498,-376 498,-434 644,-434 644,-376 498,-376"/>
<polygon fill="#f5f5f5" stroke="none" points="498,-412 498,-434 644,-434 644,-412 498,-412"/>
<polygon fill="none" stroke="black" points="498,-412 498,-434 644,-434 644,-412 498,-412"/>
<text text-anchor="start" x="503" y="-421.2" font-family="Helvetica,sans-Serif" font-weight="bold" font-size="11.00">authtoken_token</text>
<text text-anchor="start" x="605" y="-420.2" font-family="Helvetica,sans-Serif" font-size="11.00">[table]</text>
<polygon fill="none" stroke="black" points="498,-394 498,-412 644,-412 644,-394 498,-394"/>
<text text-anchor="start" x="501" y="-400.2" font-family="Helvetica,sans-Serif" font-size="11.00">...</text>
<polygon fill="#ffffff" stroke="none" points="498,-376 498,-394 555,-394 555,-376 498,-376"/>
<polygon fill="none" stroke="black" points="498,-376 498,-394 555,-394 555,-376 498,-376"/>
<text text-anchor="start" x="501" y="-382.2" font-family="Helvetica,sans-Serif" font-size="11.00">&lt; 1</text>
<polygon fill="#ffffff" stroke="none" points="555,-376 555,-394 614,-394 614,-376 555,-376"/>
<polygon fill="none" stroke="black" points="555,-376 555,-394 614,-394 614,-376 555,-376"/>
<text text-anchor="start" x="575" y="-382.2" font-family="Helvetica,sans-Serif" font-size="11.00">4 rows</text>
<polygon fill="#ffffff" stroke="none" points="614,-376 614,-394 644,-394 644,-376 614,-376"/>
<polygon fill="none" stroke="black" points="614,-376 614,-394 644,-394 644,-376 614,-376"/>
<text text-anchor="start" x="634" y="-382.2" font-family="Helvetica,sans-Serif" font-size="11.00"> &#160;</text>
</a>
</g>
</g>
<!-- galaxy_user -->
<g id="node4" class="node"><title>galaxy_user</title>
<g id="a_node4"><a xlink:href="../../tables/galaxy_user.html" xlink:title="galaxy_user" target="_top">
<polygon fill="#ffffff" stroke="none" points="256.5,-338 256.5,-440 371.5,-440 371.5,-338 256.5,-338"/>
<polygon fill="#f5f5f5" stroke="none" points="257,-418 257,-440 372,-440 372,-418 257,-418"/>
<polygon fill="none" stroke="black" points="257,-418 257,-440 372,-440 372,-418 257,-418"/>
<text text-anchor="start" x="262" y="-427.2" font-family="Helvetica,sans-Serif" font-weight="bold" font-size="11.00">galaxy_user</text>
<text text-anchor="start" x="333" y="-426.2" font-family="Helvetica,sans-Serif" font-size="11.00">[table]</text>
<polygon fill="none" stroke="black" points="257,-396 257,-418 372,-418 372,-396 257,-396"/>
<image xlink:href="../../images/primaryKeys.png" width="11px" height="12px" preserveAspectRatio="xMinYMin meet" x="262" y="-413"/>
<text text-anchor="start" x="287" y="-404.2" font-family="Helvetica,sans-Serif" font-size="11.00">id</text>
<polygon fill="#ffffff" stroke="none" points="257,-374 257,-396 372,-396 372,-374 257,-374"/>
<polygon fill="none" stroke="black" points="257,-374 257,-396 372,-396 372,-374 257,-374"/>
<text text-anchor="start" x="287" y="-382.2" font-family="Helvetica,sans-Serif" font-size="11.00">username</text>
<polygon fill="none" stroke="black" points="257,-356 257,-374 372,-374 372,-356 257,-356"/>
<text text-anchor="start" x="260" y="-362.2" font-family="Helvetica,sans-Serif" font-size="11.00">...</text>
<polygon fill="#ffffff" stroke="none" points="257,-338 257,-356 285,-356 285,-338 257,-338"/>
<polygon fill="none" stroke="black" points="257,-338 257,-356 285,-356 285,-338 257,-338"/>
<text text-anchor="start" x="260" y="-344.2" font-family="Helvetica,sans-Serif" font-size="11.00"> &#160;</text>
<polygon fill="#ffffff" stroke="none" points="285,-338 285,-356 341,-356 341,-338 285,-338"/>
<polygon fill="none" stroke="black" points="285,-338 285,-356 341,-356 341,-338 285,-338"/>
<text text-anchor="start" x="295" y="-344.2" font-family="Helvetica,sans-Serif" font-size="11.00">17 rows</text>
<polygon fill="#ffffff" stroke="none" points="341,-338 341,-356 372,-356 372,-338 341,-338"/>
<polygon fill="none" stroke="black" points="341,-338 341,-356 372,-356 372,-338 341,-338"/>
<text text-anchor="start" x="352" y="-344.2" font-family="Helvetica,sans-Serif" font-size="11.00">5 &gt;</text>
</a>
</g>
</g>
<!-- authtoken_token&#45;&gt;galaxy_user -->
<g id="edge2" class="edge"><title>authtoken_token:elipses:w&#45;&gt;galaxy_user:id:e</title>
<path fill="none" stroke="black" d="M486.539,-403.051C439.855,-403.514 424.478,-407 373,-407"/>
<polygon fill="black" stroke="black" points="496.181,-399.004 496.219,-407.004 494.619,-407.012 494.581,-399.012 496.181,-399.004"/>
<polyline fill="none" stroke="black" points="497,-403 493,-403.019 "/>
<ellipse fill="none" stroke="black" cx="489.8" cy="-403.035" rx="3.2" ry="3.2"/>
</g>
<!-- core_createdresource -->
<g id="node5" class="node"><title>core_createdresource</title>
<g id="a_node5"><a xlink:href="../../tables/core_createdresource.html" xlink:title="core_createdresource" target="_top">
<polygon fill="#ffffff" stroke="none" points="228,-259 228,-317 400,-317 400,-259 228,-259"/>
<polygon fill="#f5f5f5" stroke="none" points="228,-295 228,-317 400,-317 400,-295 228,-295"/>
<polygon fill="none" stroke="black" points="228,-295 228,-317 400,-317 400,-295 228,-295"/>
<text text-anchor="start" x="233" y="-304.2" font-family="Helvetica,sans-Serif" font-weight="bold" font-size="11.00">core_createdresource</text>
<text text-anchor="start" x="361" y="-303.2" font-family="Helvetica,sans-Serif" font-size="11.00">[table]</text>
<polygon fill="none" stroke="black" points="228,-277 228,-295 400,-295 400,-277 228,-277"/>
<text text-anchor="start" x="231" y="-283.2" font-family="Helvetica,sans-Serif" font-size="11.00">...</text>
<polygon fill="#ffffff" stroke="none" points="228,-259 228,-277 291,-277 291,-259 228,-259"/>
<polygon fill="none" stroke="black" points="228,-259 228,-277 291,-277 291,-259 228,-259"/>
<text text-anchor="start" x="231" y="-265.2" font-family="Helvetica,sans-Serif" font-size="11.00">&lt; 2</text>
<polygon fill="#ffffff" stroke="none" points="291,-259 291,-277 366,-277 366,-259 291,-259"/>
<polygon fill="none" stroke="black" points="291,-259 291,-277 366,-277 366,-259 291,-259"/>
<text text-anchor="start" x="314" y="-265.2" font-family="Helvetica,sans-Serif" font-size="11.00">365 rows</text>
<polygon fill="#ffffff" stroke="none" points="366,-259 366,-277 400,-277 400,-259 366,-259"/>
<polygon fill="none" stroke="black" points="366,-259 366,-277 400,-277 400,-259 366,-259"/>
<text text-anchor="start" x="390" y="-265.2" font-family="Helvetica,sans-Serif" font-size="11.00"> &#160;</text>
</a>
</g>
</g>
<!-- core_createdresource&#45;&gt;django_content_type -->
<g id="edge3" class="edge"><title>core_createdresource:elipses:w&#45;&gt;django_content_type:id:e</title>
<path fill="none" stroke="black" d="M212.777,-282.012C186.214,-262.833 222.215,-181 176.5,-181"/>
<polygon fill="black" stroke="black" points="219.297,-283.84 226.028,-289.466 223.149,-284.92 227,-286 227,-286 227,-286 223.149,-284.92 227.972,-282.534 219.297,-283.84 219.297,-283.84"/>
<ellipse fill="none" stroke="black" cx="216.216" cy="-282.976" rx="3.20001" ry="3.20001"/>
</g>
<!-- core_exportedresource -->
<g id="node6" class="node"><title>core_exportedresource</title>
<g id="a_node6"><a xlink:href="../../tables/core_exportedresource.html" xlink:title="core_exportedresource" target="_top">
<polygon fill="#ffffff" stroke="none" points="224,-180 224,-238 404,-238 404,-180 224,-180"/>
<polygon fill="#f5f5f5" stroke="none" points="224,-216 224,-238 404,-238 404,-216 224,-216"/>
<polygon fill="none" stroke="black" points="224,-216 224,-238 404,-238 404,-216 224,-216"/>
<text text-anchor="start" x="229" y="-225.2" font-family="Helvetica,sans-Serif" font-weight="bold" font-size="11.00">core_exportedresource</text>
<text text-anchor="start" x="365" y="-224.2" font-family="Helvetica,sans-Serif" font-size="11.00">[table]</text>
<polygon fill="none" stroke="black" points="224,-198 224,-216 404,-216 404,-198 224,-198"/>
<text text-anchor="start" x="227" y="-204.2" font-family="Helvetica,sans-Serif" font-size="11.00">...</text>
<polygon fill="#ffffff" stroke="none" points="224,-180 224,-198 298,-198 298,-180 224,-180"/>
<polygon fill="none" stroke="black" points="224,-180 224,-198 298,-198 298,-180 224,-180"/>
<text text-anchor="start" x="227" y="-186.2" font-family="Helvetica,sans-Serif" font-size="11.00">&lt; 2</text>
<polygon fill="#ffffff" stroke="none" points="298,-180 298,-198 365,-198 365,-180 298,-180"/>
<polygon fill="none" stroke="black" points="298,-180 298,-198 365,-198 365,-180 298,-180"/>
<text text-anchor="start" x="326" y="-186.2" font-family="Helvetica,sans-Serif" font-size="11.00">0 rows</text>
<polygon fill="#ffffff" stroke="none" points="365,-180 365,-198 404,-198 404,-180 365,-180"/>
<polygon fill="none" stroke="black" points="365,-180 365,-198 404,-198 404,-180 365,-180"/>
<text text-anchor="start" x="394" y="-186.2" font-family="Helvetica,sans-Serif" font-size="11.00"> &#160;</text>
</a>
</g>
</g>
<!-- core_exportedresource&#45;&gt;django_content_type -->
<g id="edge4" class="edge"><title>core_exportedresource:elipses:w&#45;&gt;django_content_type:id:e</title>
<path fill="none" stroke="black" d="M209.075,-202.938C198.217,-195.625 194.258,-181 176.5,-181"/>
<polygon fill="black" stroke="black" points="215.32,-204.759 221.992,-210.456 219.16,-205.88 223,-207 223,-207 223,-207 219.16,-205.88 224.008,-203.544 215.32,-204.759 215.32,-204.759"/>
<ellipse fill="none" stroke="black" cx="212.248" cy="-203.863" rx="3.20001" ry="3.20001"/>
</g>
<!-- django_admin_log -->
<g id="node7" class="node"><title>django_admin_log</title>
<g id="a_node7"><a xlink:href="../../tables/django_admin_log.html" xlink:title="django_admin_log" target="_top">
<polygon fill="#ffffff" stroke="none" points="454.5,-455 454.5,-675 687.5,-675 687.5,-455 454.5,-455"/>
<polygon fill="#f5f5f5" stroke="none" points="457,-651 457,-673 686,-673 686,-651 457,-651"/>
<polygon fill="none" stroke="black" points="457,-651 457,-673 686,-673 686,-651 457,-651"/>
<text text-anchor="start" x="462" y="-660.2" font-family="Helvetica,sans-Serif" font-weight="bold" font-size="11.00">django_admin_log</text>
<text text-anchor="start" x="647" y="-659.2" font-family="Helvetica,sans-Serif" font-size="11.00">[table]</text>
<polygon fill="none" stroke="black" points="457,-629 457,-651 584,-651 584,-629 457,-629"/>
<image xlink:href="../../images/primaryKeys.png" width="11px" height="12px" preserveAspectRatio="xMinYMin meet" x="462" y="-646"/>
<text text-anchor="start" x="477" y="-637.2" font-family="Helvetica,sans-Serif" font-size="11.00">id</text>
<polygon fill="none" stroke="black" points="584,-629 584,-651 686,-651 686,-629 584,-629"/>
<text text-anchor="start" x="587" y="-637.2" font-family="Helvetica,sans-Serif" font-size="11.00">serial[10]</text>
<polygon fill="none" stroke="black" points="457,-607 457,-629 584,-629 584,-607 457,-607"/>
<text text-anchor="start" x="477" y="-615.2" font-family="Helvetica,sans-Serif" font-size="11.00">action_time</text>
<polygon fill="none" stroke="black" points="584,-607 584,-629 686,-629 686,-607 584,-607"/>
<text text-anchor="start" x="587" y="-615.2" font-family="Helvetica,sans-Serif" font-size="11.00">timestamptz[35,6]</text>
<polygon fill="none" stroke="black" points="457,-585 457,-607 584,-607 584,-585 457,-585"/>
<text text-anchor="start" x="477" y="-593.2" font-family="Helvetica,sans-Serif" font-size="11.00">object_id</text>
<polygon fill="none" stroke="black" points="584,-585 584,-607 686,-607 686,-585 584,-585"/>
<text text-anchor="start" x="587" y="-593.2" font-family="Helvetica,sans-Serif" font-size="11.00">text[2147483647]</text>
<polygon fill="none" stroke="black" points="457,-563 457,-585 584,-585 584,-563 457,-563"/>
<text text-anchor="start" x="477" y="-571.2" font-family="Helvetica,sans-Serif" font-size="11.00">object_repr</text>
<polygon fill="none" stroke="black" points="584,-563 584,-585 686,-585 686,-563 584,-563"/>
<text text-anchor="start" x="587" y="-571.2" font-family="Helvetica,sans-Serif" font-size="11.00">varchar[200]</text>
<polygon fill="none" stroke="black" points="457,-541 457,-563 584,-563 584,-541 457,-541"/>
<text text-anchor="start" x="477" y="-549.2" font-family="Helvetica,sans-Serif" font-size="11.00">action_flag</text>
<polygon fill="none" stroke="black" points="584,-541 584,-563 686,-563 686,-541 584,-541"/>
<text text-anchor="start" x="587" y="-549.2" font-family="Helvetica,sans-Serif" font-size="11.00">int2[5]</text>
<polygon fill="none" stroke="black" points="457,-519 457,-541 584,-541 584,-519 457,-519"/>
<text text-anchor="start" x="477" y="-527.2" font-family="Helvetica,sans-Serif" font-size="11.00">change_message</text>
<polygon fill="none" stroke="black" points="584,-519 584,-541 686,-541 686,-519 584,-519"/>
<text text-anchor="start" x="587" y="-527.2" font-family="Helvetica,sans-Serif" font-size="11.00">text[2147483647]</text>
<polygon fill="#ffffff" stroke="none" points="457,-497 457,-519 584,-519 584,-497 457,-497"/>
<polygon fill="none" stroke="black" points="457,-497 457,-519 584,-519 584,-497 457,-497"/>
<image xlink:href="../../images/foreignKeys.png" width="11px" height="12px" preserveAspectRatio="xMinYMin meet" x="462" y="-514"/>
<text text-anchor="start" x="477" y="-505.2" font-family="Helvetica,sans-Serif" font-size="11.00">content_type_id</text>
<polygon fill="none" stroke="black" points="584,-497 584,-519 686,-519 686,-497 584,-497"/>
<text text-anchor="start" x="587" y="-505.2" font-family="Helvetica,sans-Serif" font-size="11.00">int4[10]</text>
<polygon fill="#ffffff" stroke="none" points="457,-475 457,-497 584,-497 584,-475 457,-475"/>
<polygon fill="none" stroke="black" points="457,-475 457,-497 584,-497 584,-475 457,-475"/>
<image xlink:href="../../images/foreignKeys.png" width="11px" height="12px" preserveAspectRatio="xMinYMin meet" x="462" y="-492"/>
<text text-anchor="start" x="477" y="-483.2" font-family="Helvetica,sans-Serif" font-size="11.00">user_id</text>
<polygon fill="none" stroke="black" points="584,-475 584,-497 686,-497 686,-475 584,-475"/>
<text text-anchor="start" x="587" y="-483.2" font-family="Helvetica,sans-Serif" font-size="11.00">int4[10]</text>
<polygon fill="#ffffff" stroke="none" points="457,-457 457,-475 504,-475 504,-457 457,-457"/>
<polygon fill="none" stroke="black" points="457,-457 457,-475 504,-475 504,-457 457,-457"/>
<text text-anchor="start" x="460" y="-463.2" font-family="Helvetica,sans-Serif" font-size="11.00">&lt; 2</text>
<polygon fill="#ffffff" stroke="none" points="504,-457 504,-475 584,-475 584,-457 504,-457"/>
<polygon fill="none" stroke="black" points="504,-457 504,-475 584,-475 584,-457 504,-457"/>
<text text-anchor="start" x="532" y="-463.2" font-family="Helvetica,sans-Serif" font-size="11.00">229 rows</text>
<polygon fill="#ffffff" stroke="none" points="584,-457 584,-475 686,-475 686,-457 584,-457"/>
<polygon fill="none" stroke="black" points="584,-457 584,-475 686,-475 686,-457 584,-457"/>
<text text-anchor="start" x="666" y="-463.2" font-family="Helvetica,sans-Serif" font-size="11.00">0 &gt;</text>
<polygon fill="none" stroke="black" stroke-width="2" points="455.5,-456 455.5,-674 686.5,-674 686.5,-456 455.5,-456"/>
</a>
</g>
</g>
<!-- django_admin_log&#45;&gt;django_content_type -->
<g id="edge5" class="edge"><title>django_admin_log:content_type_id:w&#45;&gt;django_content_type:id:e</title>
<path fill="none" stroke="black" d="M441.541,-508.133C341.27,-509.932 286.715,-528.222 216,-451 175.048,-406.279 237.139,-181 176.5,-181"/>
<polygon fill="black" stroke="black" points="448,-508.074 456.033,-511.6 452,-508.037 456,-508 456,-508 456,-508 452,-508.037 455.967,-504.4 448,-508.074 448,-508.074"/>
<ellipse fill="none" stroke="black" cx="444.8" cy="-508.103" rx="3.2" ry="3.2"/>
</g>
<!-- django_admin_log&#45;&gt;galaxy_user -->
<g id="edge6" class="edge"><title>django_admin_log:user_id:w&#45;&gt;galaxy_user:id:e</title>
<path fill="none" stroke="black" d="M441.611,-483.372C408.362,-469.664 418.357,-407 373,-407"/>
<polygon fill="black" stroke="black" points="448.13,-484.562 455.353,-489.541 452.065,-485.281 456,-486 456,-486 456,-486 452.065,-485.281 456.647,-482.459 448.13,-484.562 448.13,-484.562"/>
<ellipse fill="none" stroke="black" cx="444.982" cy="-483.987" rx="3.2" ry="3.2"/>
</g>
<!-- galaxy_user_groups -->
<g id="node8" class="node"><title>galaxy_user_groups</title>
<g id="a_node8"><a xlink:href="../../tables/galaxy_user_groups.html" xlink:title="galaxy_user_groups" target="_top">
<polygon fill="#ffffff" stroke="none" points="492.5,-297 492.5,-355 649.5,-355 649.5,-297 492.5,-297"/>
<polygon fill="#f5f5f5" stroke="none" points="493,-333 493,-355 650,-355 650,-333 493,-333"/>
<polygon fill="none" stroke="black" points="493,-333 493,-355 650,-355 650,-333 493,-333"/>
<text text-anchor="start" x="498" y="-342.2" font-family="Helvetica,sans-Serif" font-weight="bold" font-size="11.00">galaxy_user_groups</text>
<text text-anchor="start" x="611" y="-341.2" font-family="Helvetica,sans-Serif" font-size="11.00">[table]</text>
<polygon fill="none" stroke="black" points="493,-315 493,-333 650,-333 650,-315 493,-315"/>
<text text-anchor="start" x="496" y="-321.2" font-family="Helvetica,sans-Serif" font-size="11.00">...</text>
<polygon fill="#ffffff" stroke="none" points="493,-297 493,-315 552,-315 552,-297 493,-297"/>
<polygon fill="none" stroke="black" points="493,-297 493,-315 552,-315 552,-297 493,-297"/>
<text text-anchor="start" x="496" y="-303.2" font-family="Helvetica,sans-Serif" font-size="11.00">&lt; 2</text>
<polygon fill="#ffffff" stroke="none" points="552,-297 552,-315 619,-315 619,-297 552,-297"/>
<polygon fill="none" stroke="black" points="552,-297 552,-315 619,-315 619,-297 552,-297"/>
<text text-anchor="start" x="573" y="-303.2" font-family="Helvetica,sans-Serif" font-size="11.00">18 rows</text>
<polygon fill="#ffffff" stroke="none" points="619,-297 619,-315 650,-315 650,-297 619,-297"/>
<polygon fill="none" stroke="black" points="619,-297 619,-315 650,-315 650,-297 619,-297"/>
<text text-anchor="start" x="640" y="-303.2" font-family="Helvetica,sans-Serif" font-size="11.00"> &#160;</text>
</a>
</g>
</g>
<!-- galaxy_user_groups&#45;&gt;galaxy_user -->
<g id="edge7" class="edge"><title>galaxy_user_groups:elipses:w&#45;&gt;galaxy_user:id:e</title>
<path fill="none" stroke="black" d="M477.552,-325.584C428.651,-337.059 432.193,-407 373,-407"/>
<polygon fill="black" stroke="black" points="484.048,-324.872 492.392,-327.579 488.024,-324.436 492,-324 492,-324 492,-324 488.024,-324.436 491.608,-320.421 484.048,-324.872 484.048,-324.872"/>
<ellipse fill="none" stroke="black" cx="480.867" cy="-325.221" rx="3.2" ry="3.2"/>
</g>
<!-- galaxy_user_user_permissions -->
<g id="node9" class="node"><title>galaxy_user_user_permissions</title>
<g id="a_node9"><a xlink:href="../../tables/galaxy_user_user_permissions.html" xlink:title="galaxy_user_user_permissions" target="_top">
<polygon fill="#ffffff" stroke="none" points="462.5,-215 462.5,-273 679.5,-273 679.5,-215 462.5,-215"/>
<polygon fill="#f5f5f5" stroke="none" points="463,-251 463,-273 680,-273 680,-251 463,-251"/>
<polygon fill="none" stroke="black" points="463,-251 463,-273 680,-273 680,-251 463,-251"/>
<text text-anchor="start" x="468" y="-260.2" font-family="Helvetica,sans-Serif" font-weight="bold" font-size="11.00">galaxy_user_user_permissions</text>
<text text-anchor="start" x="641" y="-259.2" font-family="Helvetica,sans-Serif" font-size="11.00">[table]</text>
<polygon fill="none" stroke="black" points="463,-233 463,-251 680,-251 680,-233 463,-233"/>
<text text-anchor="start" x="466" y="-239.2" font-family="Helvetica,sans-Serif" font-size="11.00">...</text>
<polygon fill="#ffffff" stroke="none" points="463,-215 463,-233 555,-233 555,-215 463,-215"/>
<polygon fill="none" stroke="black" points="463,-215 463,-233 555,-233 555,-215 463,-215"/>
<text text-anchor="start" x="466" y="-221.2" font-family="Helvetica,sans-Serif" font-size="11.00">&lt; 2</text>
<polygon fill="#ffffff" stroke="none" points="555,-215 555,-233 632,-233 632,-215 555,-215"/>
<polygon fill="none" stroke="black" points="555,-215 555,-233 632,-233 632,-215 555,-215"/>
<text text-anchor="start" x="593" y="-221.2" font-family="Helvetica,sans-Serif" font-size="11.00">0 rows</text>
<polygon fill="#ffffff" stroke="none" points="632,-215 632,-233 680,-233 680,-215 632,-215"/>
<polygon fill="none" stroke="black" points="632,-215 632,-233 680,-233 680,-215 632,-215"/>
<text text-anchor="start" x="670" y="-221.2" font-family="Helvetica,sans-Serif" font-size="11.00"> &#160;</text>
</a>
</g>
</g>
<!-- galaxy_user_user_permissions&#45;&gt;auth_permission -->
<g id="edge8" class="edge"><title>galaxy_user_user_permissions:elipses:w&#45;&gt;auth_permission:elipses:e</title>
<path fill="none" stroke="black" d="M447.758,-239.553C400.64,-220.829 452.435,-101 387,-101"/>
<polygon fill="black" stroke="black" points="454.116,-240.645 461.39,-245.548 458.058,-241.323 462,-242 462,-242 462,-242 458.058,-241.323 462.61,-238.452 454.116,-240.645 454.116,-240.645"/>
<ellipse fill="none" stroke="black" cx="450.962" cy="-240.103" rx="3.2" ry="3.2"/>
</g>
<!-- galaxy_user_user_permissions&#45;&gt;galaxy_user -->
<g id="edge9" class="edge"><title>galaxy_user_user_permissions:elipses:w&#45;&gt;galaxy_user:id:e</title>
<path fill="none" stroke="black" d="M447.436,-244.086C388.281,-263.186 450.788,-407 373,-407"/>
<polygon fill="black" stroke="black" points="454.081,-243.134 462.51,-245.564 458.04,-242.567 462,-242 462,-242 462,-242 458.04,-242.567 461.49,-238.436 454.081,-243.134 454.081,-243.134"/>
<ellipse fill="none" stroke="black" cx="450.913" cy="-243.588" rx="3.2" ry="3.2"/>
</g>
<!-- guardian_groupobjectpermission -->
<g id="node10" class="node"><title>guardian_groupobjectpermission</title>
<g id="a_node10"><a xlink:href="../../tables/guardian_groupobjectpermission.html" xlink:title="guardian_groupobjectpermission" target="_top">
<polygon fill="#ffffff" stroke="none" points="453,-37 453,-95 689,-95 689,-37 453,-37"/>
<polygon fill="#f5f5f5" stroke="none" points="453,-73 453,-95 689,-95 689,-73 453,-73"/>
<polygon fill="none" stroke="black" points="453,-73 453,-95 689,-95 689,-73 453,-73"/>
<text text-anchor="start" x="458" y="-82.2" font-family="Helvetica,sans-Serif" font-weight="bold" font-size="11.00">guardian_groupobjectpermission</text>
<text text-anchor="start" x="650" y="-81.2" font-family="Helvetica,sans-Serif" font-size="11.00">[table]</text>
<polygon fill="none" stroke="black" points="453,-55 453,-73 689,-73 689,-55 453,-55"/>
<text text-anchor="start" x="456" y="-61.2" font-family="Helvetica,sans-Serif" font-size="11.00">...</text>
<polygon fill="#ffffff" stroke="none" points="453,-37 453,-55 548,-55 548,-37 453,-37"/>
<polygon fill="none" stroke="black" points="453,-37 453,-55 548,-55 548,-37 453,-37"/>
<text text-anchor="start" x="456" y="-43.2" font-family="Helvetica,sans-Serif" font-size="11.00">&lt; 3</text>
<polygon fill="#ffffff" stroke="none" points="548,-37 548,-55 639,-55 639,-37 548,-37"/>
<polygon fill="none" stroke="black" points="548,-37 548,-55 639,-55 639,-37 548,-37"/>
<text text-anchor="start" x="587" y="-43.2" font-family="Helvetica,sans-Serif" font-size="11.00">168 rows</text>
<polygon fill="#ffffff" stroke="none" points="639,-37 639,-55 689,-55 689,-37 639,-37"/>
<polygon fill="none" stroke="black" points="639,-37 639,-55 689,-55 689,-37 639,-37"/>
<text text-anchor="start" x="679" y="-43.2" font-family="Helvetica,sans-Serif" font-size="11.00"> &#160;</text>
</a>
</g>
</g>
<!-- guardian_groupobjectpermission&#45;&gt;auth_permission -->
<g id="edge11" class="edge"><title>guardian_groupobjectpermission:elipses:w&#45;&gt;auth_permission:elipses:e</title>
<path fill="none" stroke="black" d="M437.859,-66.781C418.277,-75.3858 414.658,-101 387,-101"/>
<polygon fill="black" stroke="black" points="444.15,-65.5438 452.695,-67.5323 448.075,-64.7719 452,-64 452,-64 452,-64 448.075,-64.7719 451.305,-60.4677 444.15,-65.5438 444.15,-65.5438"/>
<ellipse fill="none" stroke="black" cx="441.011" cy="-66.1614" rx="3.2" ry="3.2"/>
</g>
<!-- guardian_groupobjectpermission&#45;&gt;django_content_type -->
<g id="edge10" class="edge"><title>guardian_groupobjectpermission:elipses:w&#45;&gt;django_content_type:id:e</title>
<path fill="none" stroke="black" d="M437.337,-63.5999C342.628,-58.4263 297.131,-5.76082 216,-64 171.415,-96.0054 231.383,-181 176.5,-181"/>
<polygon fill="black" stroke="black" points="444.003,-63.7818 451.902,-67.5987 448.001,-63.8909 452,-64 452,-64 452,-64 448.001,-63.8909 452.098,-60.4013 444.003,-63.7818 444.003,-63.7818"/>
<ellipse fill="none" stroke="black" cx="440.804" cy="-63.6945" rx="3.2" ry="3.2"/>
</g>
<!-- guardian_userobjectpermission -->
<g id="node11" class="node"><title>guardian_userobjectpermission</title>
<g id="a_node11"><a xlink:href="../../tables/guardian_userobjectpermission.html" xlink:title="guardian_userobjectpermission" target="_top">
<polygon fill="#ffffff" stroke="none" points="457,-129 457,-187 685,-187 685,-129 457,-129"/>
<polygon fill="#f5f5f5" stroke="none" points="457,-165 457,-187 685,-187 685,-165 457,-165"/>
<polygon fill="none" stroke="black" points="457,-165 457,-187 685,-187 685,-165 457,-165"/>
<text text-anchor="start" x="462" y="-174.2" font-family="Helvetica,sans-Serif" font-weight="bold" font-size="11.00">guardian_userobjectpermission</text>
<text text-anchor="start" x="646" y="-173.2" font-family="Helvetica,sans-Serif" font-size="11.00">[table]</text>
<polygon fill="none" stroke="black" points="457,-147 457,-165 685,-165 685,-147 457,-147"/>
<text text-anchor="start" x="460" y="-153.2" font-family="Helvetica,sans-Serif" font-size="11.00">...</text>
<polygon fill="#ffffff" stroke="none" points="457,-129 457,-147 555,-147 555,-129 457,-129"/>
<polygon fill="none" stroke="black" points="457,-129 457,-147 555,-147 555,-129 457,-129"/>
<text text-anchor="start" x="460" y="-135.2" font-family="Helvetica,sans-Serif" font-size="11.00">&lt; 3</text>
<polygon fill="#ffffff" stroke="none" points="555,-129 555,-147 634,-147 634,-129 555,-129"/>
<polygon fill="none" stroke="black" points="555,-129 555,-147 634,-147 634,-129 555,-129"/>
<text text-anchor="start" x="595" y="-135.2" font-family="Helvetica,sans-Serif" font-size="11.00">0 rows</text>
<polygon fill="#ffffff" stroke="none" points="634,-129 634,-147 685,-147 685,-129 634,-129"/>
<polygon fill="none" stroke="black" points="634,-129 634,-147 685,-147 685,-129 634,-129"/>
<text text-anchor="start" x="675" y="-135.2" font-family="Helvetica,sans-Serif" font-size="11.00"> &#160;</text>
</a>
</g>
</g>
<!-- guardian_userobjectpermission&#45;&gt;auth_permission -->
<g id="edge13" class="edge"><title>guardian_userobjectpermission:elipses:w&#45;&gt;auth_permission:elipses:e</title>
<path fill="none" stroke="black" d="M441.751,-152.885C418.494,-141.25 420.549,-101 387,-101"/>
<polygon fill="black" stroke="black" points="448.185,-154.292 455.231,-159.517 452.092,-155.146 456,-156 456,-156 456,-156 452.092,-155.146 456.769,-152.483 448.185,-154.292 448.185,-154.292"/>
<ellipse fill="none" stroke="black" cx="445.058" cy="-153.608" rx="3.2" ry="3.2"/>
</g>
<!-- guardian_userobjectpermission&#45;&gt;django_content_type -->
<g id="edge12" class="edge"><title>guardian_userobjectpermission:elipses:w&#45;&gt;django_content_type:id:e</title>
<path fill="none" stroke="black" d="M441.48,-155.979C346.379,-155.714 316.457,-153.279 216,-170 198.024,-172.992 194.724,-181 176.5,-181"/>
<polygon fill="black" stroke="black" points="448,-155.988 455.995,-159.6 452,-155.994 456,-156 456,-156 456,-156 452,-155.994 456.005,-152.4 448,-155.988 448,-155.988"/>
<ellipse fill="none" stroke="black" cx="444.8" cy="-155.984" rx="3.2" ry="3.2"/>
</g>
<!-- guardian_userobjectpermission&#45;&gt;galaxy_user -->
<g id="edge14" class="edge"><title>guardian_userobjectpermission:elipses:w&#45;&gt;galaxy_user:id:e</title>
<path fill="none" stroke="black" d="M441.37,-157.411C385.411,-169.663 437.465,-259.204 412,-328 398.408,-364.722 412.157,-407 373,-407"/>
<polygon fill="black" stroke="black" points="448.037,-156.768 456.346,-159.583 452.018,-156.384 456,-156 456,-156 456,-156 452.018,-156.384 455.654,-152.417 448.037,-156.768 448.037,-156.768"/>
<ellipse fill="none" stroke="black" cx="444.852" cy="-157.075" rx="3.2" ry="3.2"/>
</g>
</g>
</svg>
