<?xml version="1.0" encoding="UTF-8" standalone="no"?>
<!DOCTYPE svg PUBLIC "-//W3C//DTD SVG 1.1//EN"
 "http://www.w3.org/Graphics/SVG/1.1/DTD/svg11.dtd">
<!-- Generated by graphviz version 2.38.0 (20140413.2041)
 -->
<!-- Title: twoDegreesRelationshipsDiagram Pages: 1 -->
<svg width="920pt" height="836pt"
 viewBox="0.00 0.00 920.00 836.00" xmlns="http://www.w3.org/2000/svg" xmlns:xlink="http://www.w3.org/1999/xlink">
<g id="graph0" class="graph" transform="scale(1 1) rotate(0) translate(4 832)">
<title>twoDegreesRelationshipsDiagram</title>
<polygon fill="#ffffff" stroke="none" points="-4,4 -4,-832 916,-832 916,4 -4,4"/>
<text text-anchor="middle" x="74.5" y="-7.2" font-family="Helvetica,sans-Serif" font-size="11.00">Generated by SchemaSpy</text>
<!-- auth_group_permissions -->
<g id="node1" class="node"><title>auth_group_permissions</title>
<g id="a_node1"><a xlink:href="../../tables/auth_group_permissions.html" xlink:title="auth_group_permissions" target="_top">
<polygon fill="#ffffff" stroke="none" points="693,-595 693,-653 879,-653 879,-595 693,-595"/>
<polygon fill="#f5f5f5" stroke="none" points="693,-631 693,-653 879,-653 879,-631 693,-631"/>
<polygon fill="none" stroke="black" points="693,-631 693,-653 879,-653 879,-631 693,-631"/>
<text text-anchor="start" x="698" y="-640.2" font-family="Helvetica,sans-Serif" font-weight="bold" font-size="11.00">auth_group_permissions</text>
<text text-anchor="start" x="840" y="-639.2" font-family="Helvetica,sans-Serif" font-size="11.00">[table]</text>
<polygon fill="none" stroke="black" points="693,-613 693,-631 879,-631 879,-613 693,-613"/>
<text text-anchor="start" x="696" y="-619.2" font-family="Helvetica,sans-Serif" font-size="11.00">...</text>
<polygon fill="#ffffff" stroke="none" points="693,-595 693,-613 770,-613 770,-595 693,-595"/>
<polygon fill="none" stroke="black" points="693,-595 693,-613 770,-613 770,-595 693,-595"/>
<text text-anchor="start" x="696" y="-601.2" font-family="Helvetica,sans-Serif" font-size="11.00">&lt; 2</text>
<polygon fill="#ffffff" stroke="none" points="770,-595 770,-613 839,-613 839,-595 770,-595"/>
<polygon fill="none" stroke="black" points="770,-595 770,-613 839,-613 839,-595 770,-595"/>
<text text-anchor="start" x="800" y="-601.2" font-family="Helvetica,sans-Serif" font-size="11.00">0 rows</text>
<polygon fill="#ffffff" stroke="none" points="839,-595 839,-613 879,-613 879,-595 839,-595"/>
<polygon fill="none" stroke="black" points="839,-595 839,-613 879,-613 879,-595 839,-595"/>
<text text-anchor="start" x="869" y="-601.2" font-family="Helvetica,sans-Serif" font-size="11.00"> &#160;</text>
</a>
</g>
</g>
<!-- auth_group -->
<g id="node2" class="node"><title>auth_group</title>
<g id="a_node2"><a xlink:href="../../tables/auth_group.html" xlink:title="auth_group" target="_top">
<polygon fill="#ffffff" stroke="none" points="472.5,-639 472.5,-697 585.5,-697 585.5,-639 472.5,-639"/>
<polygon fill="#f5f5f5" stroke="none" points="473,-675 473,-697 586,-697 586,-675 473,-675"/>
<polygon fill="none" stroke="black" points="473,-675 473,-697 586,-697 586,-675 473,-675"/>
<text text-anchor="start" x="478" y="-684.2" font-family="Helvetica,sans-Serif" font-weight="bold" font-size="11.00">auth_group</text>
<text text-anchor="start" x="547" y="-683.2" font-family="Helvetica,sans-Serif" font-size="11.00">[table]</text>
<polygon fill="none" stroke="black" points="473,-657 473,-675 586,-675 586,-657 473,-657"/>
<text text-anchor="start" x="476" y="-663.2" font-family="Helvetica,sans-Serif" font-size="11.00">...</text>
<polygon fill="#ffffff" stroke="none" points="473,-639 473,-657 500,-657 500,-639 473,-639"/>
<polygon fill="none" stroke="black" points="473,-639 473,-657 500,-657 500,-639 473,-639"/>
<text text-anchor="start" x="476" y="-645.2" font-family="Helvetica,sans-Serif" font-size="11.00"> &#160;</text>
<polygon fill="#ffffff" stroke="none" points="500,-639 500,-657 556,-657 556,-639 500,-639"/>
<polygon fill="none" stroke="black" points="500,-639 500,-657 556,-657 556,-639 500,-639"/>
<text text-anchor="start" x="510" y="-645.2" font-family="Helvetica,sans-Serif" font-size="11.00">15 rows</text>
<polygon fill="#ffffff" stroke="none" points="556,-639 556,-657 586,-657 586,-639 556,-639"/>
<polygon fill="none" stroke="black" points="556,-639 556,-657 586,-657 586,-639 556,-639"/>
<text text-anchor="start" x="566" y="-645.2" font-family="Helvetica,sans-Serif" font-size="11.00">3 &gt;</text>
</a>
</g>
</g>
<!-- auth_group_permissions&#45;&gt;auth_group -->
<g id="edge1" class="edge"><title>auth_group_permissions:elipses:w&#45;&gt;auth_group:elipses:e</title>
<path fill="none" stroke="black" d="M677.442,-623.365C640.079,-630.792 632.262,-666 587,-666"/>
<polygon fill="black" stroke="black" points="684.035,-622.747 692.336,-625.584 688.017,-622.373 692,-622 692,-622 692,-622 688.017,-622.373 691.664,-618.416 684.035,-622.747 684.035,-622.747"/>
<ellipse fill="none" stroke="black" cx="680.849" cy="-623.046" rx="3.2" ry="3.2"/>
</g>
<!-- auth_permission -->
<g id="node3" class="node"><title>auth_permission</title>
<g id="a_node3"><a xlink:href="../../tables/auth_permission.html" xlink:title="auth_permission" target="_top">
<polygon fill="#ffffff" stroke="none" points="457.5,-460 457.5,-584 600.5,-584 600.5,-460 457.5,-460"/>
<polygon fill="#f5f5f5" stroke="none" points="458,-562 458,-584 601,-584 601,-562 458,-562"/>
<polygon fill="none" stroke="black" points="458,-562 458,-584 601,-584 601,-562 458,-562"/>
<text text-anchor="start" x="463" y="-571.2" font-family="Helvetica,sans-Serif" font-weight="bold" font-size="11.00">auth_permission</text>
<text text-anchor="start" x="562" y="-570.2" font-family="Helvetica,sans-Serif" font-size="11.00">[table]</text>
<polygon fill="none" stroke="black" points="458,-540 458,-562 601,-562 601,-540 458,-540"/>
<image xlink:href="../../images/primaryKeys.png" width="11px" height="12px" preserveAspectRatio="xMinYMin meet" x="463" y="-557"/>
<text text-anchor="start" x="490" y="-548.2" font-family="Helvetica,sans-Serif" font-size="11.00">id</text>
<polygon fill="#ffffff" stroke="none" points="458,-518 458,-540 601,-540 601,-518 458,-518"/>
<polygon fill="none" stroke="black" points="458,-518 458,-540 601,-540 601,-518 458,-518"/>
<image xlink:href="../../images/foreignKeys.png" width="11px" height="12px" preserveAspectRatio="xMinYMin meet" x="463" y="-535"/>
<text text-anchor="start" x="490" y="-526.2" font-family="Helvetica,sans-Serif" font-size="11.00">content_type_id</text>
<polygon fill="#ffffff" stroke="none" points="458,-496 458,-518 601,-518 601,-496 458,-496"/>
<polygon fill="none" stroke="black" points="458,-496 458,-518 601,-518 601,-496 458,-496"/>
<text text-anchor="start" x="490" y="-504.2" font-family="Helvetica,sans-Serif" font-size="11.00">codename</text>
<polygon fill="none" stroke="black" points="458,-478 458,-496 601,-496 601,-478 458,-478"/>
<text text-anchor="start" x="461" y="-484.2" font-family="Helvetica,sans-Serif" font-size="11.00">...</text>
<polygon fill="#ffffff" stroke="none" points="458,-460 458,-478 502,-478 502,-460 458,-460"/>
<polygon fill="none" stroke="black" points="458,-460 458,-478 502,-478 502,-460 458,-460"/>
<text text-anchor="start" x="461" y="-466.2" font-family="Helvetica,sans-Serif" font-size="11.00">&lt; 1</text>
<polygon fill="#ffffff" stroke="none" points="502,-460 502,-478 567,-478 567,-460 502,-460"/>
<polygon fill="none" stroke="black" points="502,-460 502,-478 567,-478 567,-460 502,-460"/>
<text text-anchor="start" x="515" y="-466.2" font-family="Helvetica,sans-Serif" font-size="11.00">322 rows</text>
<polygon fill="#ffffff" stroke="none" points="567,-460 567,-478 601,-478 601,-460 567,-460"/>
<polygon fill="none" stroke="black" points="567,-460 567,-478 601,-478 601,-460 567,-460"/>
<text text-anchor="start" x="581" y="-466.2" font-family="Helvetica,sans-Serif" font-size="11.00">4 &gt;</text>
</a>
</g>
</g>
<!-- auth_group_permissions&#45;&gt;auth_permission -->
<g id="edge2" class="edge"><title>auth_group_permissions:elipses:w&#45;&gt;auth_permission:id:e</title>
<path fill="none" stroke="black" d="M677.373,-619.638C642.902,-607.318 647.376,-551 602,-551"/>
<polygon fill="black" stroke="black" points="684.102,-620.724 691.426,-625.554 688.051,-621.362 692,-622 692,-622 692,-622 688.051,-621.362 692.574,-618.446 684.102,-620.724 684.102,-620.724"/>
<ellipse fill="none" stroke="black" cx="680.943" cy="-620.214" rx="3.2" ry="3.2"/>
</g>
<!-- django_content_type -->
<g id="node4" class="node"><title>django_content_type</title>
<g id="a_node4"><a xlink:href="../../tables/django_content_type.html" xlink:title="django_content_type" target="_top">
<polygon fill="#ffffff" stroke="none" points="168,-308 168,-418 390,-418 390,-308 168,-308"/>
<polygon fill="#f5f5f5" stroke="none" points="170,-394 170,-416 388,-416 388,-394 170,-394"/>
<polygon fill="none" stroke="black" points="170,-394 170,-416 388,-416 388,-394 170,-394"/>
<text text-anchor="start" x="175" y="-403.2" font-family="Helvetica,sans-Serif" font-weight="bold" font-size="11.00">django_content_type</text>
<text text-anchor="start" x="349" y="-402.2" font-family="Helvetica,sans-Serif" font-size="11.00">[table]</text>
<polygon fill="none" stroke="black" points="170,-372 170,-394 315,-394 315,-372 170,-372"/>
<image xlink:href="../../images/primaryKeys.png" width="11px" height="12px" preserveAspectRatio="xMinYMin meet" x="175" y="-389"/>
<text text-anchor="start" x="190" y="-380.2" font-family="Helvetica,sans-Serif" font-size="11.00">id</text>
<polygon fill="none" stroke="black" points="315,-372 315,-394 388,-394 388,-372 315,-372"/>
<text text-anchor="start" x="318" y="-380.2" font-family="Helvetica,sans-Serif" font-size="11.00">serial[10]</text>
<polygon fill="#ffffff" stroke="none" points="170,-350 170,-372 315,-372 315,-350 170,-350"/>
<polygon fill="none" stroke="black" points="170,-350 170,-372 315,-372 315,-350 170,-350"/>
<text text-anchor="start" x="190" y="-358.2" font-family="Helvetica,sans-Serif" font-size="11.00">app_label</text>
<polygon fill="none" stroke="black" points="315,-350 315,-372 388,-372 388,-350 315,-350"/>
<text text-anchor="start" x="318" y="-358.2" font-family="Helvetica,sans-Serif" font-size="11.00">varchar[100]</text>
<polygon fill="#ffffff" stroke="none" points="170,-328 170,-350 315,-350 315,-328 170,-328"/>
<polygon fill="none" stroke="black" points="170,-328 170,-350 315,-350 315,-328 170,-328"/>
<text text-anchor="start" x="190" y="-336.2" font-family="Helvetica,sans-Serif" font-size="11.00">model</text>
<polygon fill="none" stroke="black" points="315,-328 315,-350 388,-350 388,-328 315,-328"/>
<text text-anchor="start" x="318" y="-336.2" font-family="Helvetica,sans-Serif" font-size="11.00">varchar[100]</text>
<polygon fill="#ffffff" stroke="none" points="170,-310 170,-328 229,-328 229,-310 170,-310"/>
<polygon fill="none" stroke="black" points="170,-310 170,-328 229,-328 229,-310 170,-310"/>
<text text-anchor="start" x="173" y="-316.2" font-family="Helvetica,sans-Serif" font-size="11.00">&lt; 0</text>
<polygon fill="#ffffff" stroke="none" points="229,-310 229,-328 315,-328 315,-310 229,-310"/>
<polygon fill="none" stroke="black" points="229,-310 229,-328 315,-328 315,-310 229,-310"/>
<text text-anchor="start" x="269" y="-316.2" font-family="Helvetica,sans-Serif" font-size="11.00">79 rows</text>
<polygon fill="#ffffff" stroke="none" points="315,-310 315,-328 388,-328 388,-310 315,-310"/>
<polygon fill="none" stroke="black" points="315,-310 315,-328 388,-328 388,-310 315,-310"/>
<text text-anchor="start" x="368" y="-316.2" font-family="Helvetica,sans-Serif" font-size="11.00">6 &gt;</text>
<polygon fill="none" stroke="black" stroke-width="2" points="169,-309 169,-417 389,-417 389,-309 169,-309"/>
</a>
</g>
</g>
<!-- auth_permission&#45;&gt;django_content_type -->
<g id="edge3" class="edge"><title>auth_permission:content_type_id:w&#45;&gt;django_content_type:id.type:e</title>
<path fill="none" stroke="black" d="M442.77,-526.466C396.267,-507.079 454.989,-383 389,-383"/>
<polygon fill="black" stroke="black" points="449.124,-527.597 456.369,-532.544 453.062,-528.299 457,-529 457,-529 457,-529 453.062,-528.299 457.631,-525.456 449.124,-527.597 449.124,-527.597"/>
<ellipse fill="none" stroke="black" cx="445.973" cy="-527.036" rx="3.2" ry="3.2"/>
</g>
<!-- core_createdresource -->
<g id="node5" class="node"><title>core_createdresource</title>
<g id="a_node5"><a xlink:href="../../tables/core_createdresource.html" xlink:title="core_createdresource" target="_top">
<polygon fill="#ffffff" stroke="none" points="443,-37 443,-161 615,-161 615,-37 443,-37"/>
<polygon fill="#f5f5f5" stroke="none" points="443,-139 443,-161 615,-161 615,-139 443,-139"/>
<polygon fill="none" stroke="black" points="443,-139 443,-161 615,-161 615,-139 443,-139"/>
<text text-anchor="start" x="448" y="-148.2" font-family="Helvetica,sans-Serif" font-weight="bold" font-size="11.00">core_createdresource</text>
<text text-anchor="start" x="576" y="-147.2" font-family="Helvetica,sans-Serif" font-size="11.00">[table]</text>
<polygon fill="none" stroke="black" points="443,-117 443,-139 615,-139 615,-117 443,-117"/>
<image xlink:href="../../images/primaryKeys.png" width="11px" height="12px" preserveAspectRatio="xMinYMin meet" x="448" y="-134"/>
<text text-anchor="start" x="474" y="-125.2" font-family="Helvetica,sans-Serif" font-size="11.00">pulp_id</text>
<polygon fill="#ffffff" stroke="none" points="443,-95 443,-117 615,-117 615,-95 443,-95"/>
<polygon fill="none" stroke="black" points="443,-95 443,-117 615,-117 615,-95 443,-95"/>
<image xlink:href="../../images/foreignKeys.png" width="11px" height="12px" preserveAspectRatio="xMinYMin meet" x="448" y="-112"/>
<text text-anchor="start" x="474" y="-103.2" font-family="Helvetica,sans-Serif" font-size="11.00">content_type_id</text>
<polygon fill="#ffffff" stroke="none" points="443,-73 443,-95 615,-95 615,-73 443,-73"/>
<polygon fill="none" stroke="black" points="443,-73 443,-95 615,-95 615,-73 443,-73"/>
<image xlink:href="../../images/foreignKeys.png" width="11px" height="12px" preserveAspectRatio="xMinYMin meet" x="448" y="-90"/>
<text text-anchor="start" x="474" y="-81.2" font-family="Helvetica,sans-Serif" font-size="11.00">task_id</text>
<polygon fill="none" stroke="black" points="443,-55 443,-73 615,-73 615,-55 443,-55"/>
<text text-anchor="start" x="446" y="-61.2" font-family="Helvetica,sans-Serif" font-size="11.00">...</text>
<polygon fill="#ffffff" stroke="none" points="443,-37 443,-55 506,-55 506,-37 443,-37"/>
<polygon fill="none" stroke="black" points="443,-37 443,-55 506,-55 506,-37 443,-37"/>
<text text-anchor="start" x="446" y="-43.2" font-family="Helvetica,sans-Serif" font-size="11.00">&lt; 2</text>
<polygon fill="#ffffff" stroke="none" points="506,-37 506,-55 581,-55 581,-37 506,-37"/>
<polygon fill="none" stroke="black" points="506,-37 506,-55 581,-55 581,-37 506,-37"/>
<text text-anchor="start" x="529" y="-43.2" font-family="Helvetica,sans-Serif" font-size="11.00">365 rows</text>
<polygon fill="#ffffff" stroke="none" points="581,-37 581,-55 615,-55 615,-37 581,-37"/>
<polygon fill="none" stroke="black" points="581,-37 581,-55 615,-55 615,-37 581,-37"/>
<text text-anchor="start" x="605" y="-43.2" font-family="Helvetica,sans-Serif" font-size="11.00"> &#160;</text>
</a>
</g>
</g>
<!-- core_createdresource&#45;&gt;django_content_type -->
<g id="edge4" class="edge"><title>core_createdresource:content_type_id:w&#45;&gt;django_content_type:id.type:e</title>
<path fill="none" stroke="black" d="M428.662,-111.786C390.765,-151.564 446.286,-383 389,-383"/>
<polygon fill="black" stroke="black" points="434.661,-109.184 443.433,-109.303 438.33,-107.592 442,-106 442,-106 442,-106 438.33,-107.592 440.567,-102.697 434.661,-109.184 434.661,-109.184"/>
<ellipse fill="none" stroke="black" cx="431.725" cy="-110.457" rx="3.20001" ry="3.20001"/>
</g>
<!-- core_task -->
<g id="node6" class="node"><title>core_task</title>
<g id="a_node6"><a xlink:href="../../tables/core_task.html" xlink:title="core_task" target="_top">
<polygon fill="#ffffff" stroke="none" points="8,-116 8,-174 119,-174 119,-116 8,-116"/>
<polygon fill="#f5f5f5" stroke="none" points="8.5,-152 8.5,-174 119.5,-174 119.5,-152 8.5,-152"/>
<polygon fill="none" stroke="black" points="8.5,-152 8.5,-174 119.5,-174 119.5,-152 8.5,-152"/>
<text text-anchor="start" x="13.5" y="-161.2" font-family="Helvetica,sans-Serif" font-weight="bold" font-size="11.00">core_task</text>
<text text-anchor="start" x="80.5" y="-160.2" font-family="Helvetica,sans-Serif" font-size="11.00">[table]</text>
<polygon fill="none" stroke="black" points="8.5,-134 8.5,-152 119.5,-152 119.5,-134 8.5,-134"/>
<text text-anchor="start" x="11.5" y="-140.2" font-family="Helvetica,sans-Serif" font-size="11.00">...</text>
<polygon fill="#ffffff" stroke="none" points="8.5,-116 8.5,-134 31.5,-134 31.5,-116 8.5,-116"/>
<polygon fill="none" stroke="black" points="8.5,-116 8.5,-134 31.5,-134 31.5,-116 8.5,-116"/>
<text text-anchor="start" x="11.5" y="-122.2" font-family="Helvetica,sans-Serif" font-size="11.00">&lt; 3</text>
<polygon fill="#ffffff" stroke="none" points="31.5,-116 31.5,-134 96.5,-134 96.5,-116 31.5,-116"/>
<polygon fill="none" stroke="black" points="31.5,-116 31.5,-134 96.5,-134 96.5,-116 31.5,-116"/>
<text text-anchor="start" x="34.5" y="-122.2" font-family="Helvetica,sans-Serif" font-size="11.00">1,828 rows</text>
<polygon fill="#ffffff" stroke="none" points="96.5,-116 96.5,-134 119.5,-134 119.5,-116 96.5,-116"/>
<polygon fill="none" stroke="black" points="96.5,-116 96.5,-134 119.5,-134 119.5,-116 96.5,-116"/>
<text text-anchor="start" x="99.5" y="-122.2" font-family="Helvetica,sans-Serif" font-size="11.00">8 &gt;</text>
</a>
</g>
</g>
<!-- core_createdresource&#45;&gt;core_task -->
<g id="edge5" class="edge"><title>core_createdresource:task_id:w&#45;&gt;core_task:elipses:e</title>
<path fill="none" stroke="black" d="M427.495,-84.2021C294.476,-87.9643 260.81,-143 120.5,-143"/>
<polygon fill="black" stroke="black" points="434.001,-84.1115 442.05,-87.5997 438,-84.0557 442,-84 442,-84 442,-84 438,-84.0557 441.95,-80.4003 434.001,-84.1115 434.001,-84.1115"/>
<ellipse fill="none" stroke="black" cx="430.801" cy="-84.1561" rx="3.2" ry="3.2"/>
</g>
<!-- core_export -->
<g id="node7" class="node"><title>core_export</title>
<g id="a_node7"><a xlink:href="../../tables/core_export.html" xlink:title="core_export" target="_top">
<polygon fill="#ffffff" stroke="none" points="221,-159 221,-217 337,-217 337,-159 221,-159"/>
<polygon fill="#f5f5f5" stroke="none" points="221,-195 221,-217 337,-217 337,-195 221,-195"/>
<polygon fill="none" stroke="black" points="221,-195 221,-217 337,-217 337,-195 221,-195"/>
<text text-anchor="start" x="226" y="-204.2" font-family="Helvetica,sans-Serif" font-weight="bold" font-size="11.00">core_export</text>
<text text-anchor="start" x="298" y="-203.2" font-family="Helvetica,sans-Serif" font-size="11.00">[table]</text>
<polygon fill="none" stroke="black" points="221,-177 221,-195 337,-195 337,-177 221,-177"/>
<text text-anchor="start" x="224" y="-183.2" font-family="Helvetica,sans-Serif" font-size="11.00">...</text>
<polygon fill="#ffffff" stroke="none" points="221,-159 221,-177 258,-177 258,-159 221,-159"/>
<polygon fill="none" stroke="black" points="221,-159 221,-177 258,-177 258,-159 221,-159"/>
<text text-anchor="start" x="224" y="-165.2" font-family="Helvetica,sans-Serif" font-size="11.00">&lt; 2</text>
<polygon fill="#ffffff" stroke="none" points="258,-159 258,-177 307,-177 307,-159 258,-159"/>
<polygon fill="none" stroke="black" points="258,-159 258,-177 307,-177 307,-159 258,-159"/>
<text text-anchor="start" x="268" y="-165.2" font-family="Helvetica,sans-Serif" font-size="11.00">0 rows</text>
<polygon fill="#ffffff" stroke="none" points="307,-159 307,-177 337,-177 337,-159 307,-159"/>
<polygon fill="none" stroke="black" points="307,-159 307,-177 337,-177 337,-159 307,-159"/>
<text text-anchor="start" x="317" y="-165.2" font-family="Helvetica,sans-Serif" font-size="11.00">2 &gt;</text>
</a>
</g>
</g>
<!-- core_export&#45;&gt;core_task -->
<g id="edge6" class="edge"><title>core_export:elipses:w&#45;&gt;core_task:elipses:e</title>
<path fill="none" stroke="black" d="M205.23,-184.47C170.533,-176.81 163.218,-143 120.5,-143"/>
<polygon fill="black" stroke="black" points="212.043,-185.175 219.629,-189.581 216.021,-185.588 220,-186 220,-186 220,-186 216.021,-185.588 220.371,-182.419 212.043,-185.175 212.043,-185.175"/>
<ellipse fill="none" stroke="black" cx="208.86" cy="-184.846" rx="3.2" ry="3.2"/>
</g>
<!-- core_exportedresource -->
<g id="node8" class="node"><title>core_exportedresource</title>
<g id="a_node8"><a xlink:href="../../tables/core_exportedresource.html" xlink:title="core_exportedresource" target="_top">
<polygon fill="#ffffff" stroke="none" points="439,-182 439,-306 619,-306 619,-182 439,-182"/>
<polygon fill="#f5f5f5" stroke="none" points="439,-284 439,-306 619,-306 619,-284 439,-284"/>
<polygon fill="none" stroke="black" points="439,-284 439,-306 619,-306 619,-284 439,-284"/>
<text text-anchor="start" x="444" y="-293.2" font-family="Helvetica,sans-Serif" font-weight="bold" font-size="11.00">core_exportedresource</text>
<text text-anchor="start" x="580" y="-292.2" font-family="Helvetica,sans-Serif" font-size="11.00">[table]</text>
<polygon fill="none" stroke="black" points="439,-262 439,-284 619,-284 619,-262 439,-262"/>
<image xlink:href="../../images/primaryKeys.png" width="11px" height="12px" preserveAspectRatio="xMinYMin meet" x="444" y="-279"/>
<text text-anchor="start" x="470" y="-270.2" font-family="Helvetica,sans-Serif" font-size="11.00">pulp_id</text>
<polygon fill="#ffffff" stroke="none" points="439,-240 439,-262 619,-262 619,-240 439,-240"/>
<polygon fill="none" stroke="black" points="439,-240 439,-262 619,-262 619,-240 439,-240"/>
<image xlink:href="../../images/foreignKeys.png" width="11px" height="12px" preserveAspectRatio="xMinYMin meet" x="444" y="-257"/>
<text text-anchor="start" x="470" y="-248.2" font-family="Helvetica,sans-Serif" font-size="11.00">content_type_id</text>
<polygon fill="#ffffff" stroke="none" points="439,-218 439,-240 619,-240 619,-218 439,-218"/>
<polygon fill="none" stroke="black" points="439,-218 439,-240 619,-240 619,-218 439,-218"/>
<image xlink:href="../../images/foreignKeys.png" width="11px" height="12px" preserveAspectRatio="xMinYMin meet" x="444" y="-235"/>
<text text-anchor="start" x="470" y="-226.2" font-family="Helvetica,sans-Serif" font-size="11.00">export_id</text>
<polygon fill="none" stroke="black" points="439,-200 439,-218 619,-218 619,-200 439,-200"/>
<text text-anchor="start" x="442" y="-206.2" font-family="Helvetica,sans-Serif" font-size="11.00">...</text>
<polygon fill="#ffffff" stroke="none" points="439,-182 439,-200 513,-200 513,-182 439,-182"/>
<polygon fill="none" stroke="black" points="439,-182 439,-200 513,-200 513,-182 439,-182"/>
<text text-anchor="start" x="442" y="-188.2" font-family="Helvetica,sans-Serif" font-size="11.00">&lt; 2</text>
<polygon fill="#ffffff" stroke="none" points="513,-182 513,-200 580,-200 580,-182 513,-182"/>
<polygon fill="none" stroke="black" points="513,-182 513,-200 580,-200 580,-182 513,-182"/>
<text text-anchor="start" x="541" y="-188.2" font-family="Helvetica,sans-Serif" font-size="11.00">0 rows</text>
<polygon fill="#ffffff" stroke="none" points="580,-182 580,-200 619,-200 619,-182 580,-182"/>
<polygon fill="none" stroke="black" points="580,-182 580,-200 619,-200 619,-182 580,-182"/>
<text text-anchor="start" x="609" y="-188.2" font-family="Helvetica,sans-Serif" font-size="11.00"> &#160;</text>
</a>
</g>
</g>
<!-- core_exportedresource&#45;&gt;django_content_type -->
<g id="edge7" class="edge"><title>core_exportedresource:content_type_id:w&#45;&gt;django_content_type:id.type:e</title>
<path fill="none" stroke="black" d="M423.829,-254.263C388.482,-274.59 445.712,-383 389,-383"/>
<polygon fill="black" stroke="black" points="430.204,-252.795 438.808,-254.508 434.102,-251.898 438,-251 438,-251 438,-251 434.102,-251.898 437.192,-247.492 430.204,-252.795 430.204,-252.795"/>
<ellipse fill="none" stroke="black" cx="427.086" cy="-253.513" rx="3.2" ry="3.2"/>
</g>
<!-- core_exportedresource&#45;&gt;core_export -->
<g id="edge8" class="edge"><title>core_exportedresource:export_id:w&#45;&gt;core_export:elipses:e</title>
<path fill="none" stroke="black" d="M423.627,-227.569C388.372,-220.108 381.088,-186 338,-186"/>
<polygon fill="black" stroke="black" points="430.039,-228.208 437.643,-232.582 434.02,-228.604 438,-229 438,-229 438,-229 434.02,-228.604 438.357,-225.418 430.039,-228.208 430.039,-228.208"/>
<ellipse fill="none" stroke="black" cx="426.855" cy="-227.891" rx="3.2" ry="3.2"/>
</g>
<!-- django_admin_log -->
<g id="node9" class="node"><title>django_admin_log</title>
<g id="a_node9"><a xlink:href="../../tables/django_admin_log.html" xlink:title="django_admin_log" target="_top">
<polygon fill="#ffffff" stroke="none" points="711.5,-200 711.5,-324 860.5,-324 860.5,-200 711.5,-200"/>
<polygon fill="#f5f5f5" stroke="none" points="712,-302 712,-324 861,-324 861,-302 712,-302"/>
<polygon fill="none" stroke="black" points="712,-302 712,-324 861,-324 861,-302 712,-302"/>
<text text-anchor="start" x="717" y="-311.2" font-family="Helvetica,sans-Serif" font-weight="bold" font-size="11.00">django_admin_log</text>
<text text-anchor="start" x="822" y="-310.2" font-family="Helvetica,sans-Serif" font-size="11.00">[table]</text>
<polygon fill="none" stroke="black" points="712,-280 712,-302 861,-302 861,-280 712,-280"/>
<image xlink:href="../../images/primaryKeys.png" width="11px" height="12px" preserveAspectRatio="xMinYMin meet" x="717" y="-297"/>
<text text-anchor="start" x="743" y="-288.2" font-family="Helvetica,sans-Serif" font-size="11.00">id</text>
<polygon fill="#ffffff" stroke="none" points="712,-258 712,-280 861,-280 861,-258 712,-258"/>
<polygon fill="none" stroke="black" points="712,-258 712,-280 861,-280 861,-258 712,-258"/>
<image xlink:href="../../images/foreignKeys.png" width="11px" height="12px" preserveAspectRatio="xMinYMin meet" x="717" y="-275"/>
<text text-anchor="start" x="743" y="-266.2" font-family="Helvetica,sans-Serif" font-size="11.00">content_type_id</text>
<polygon fill="#ffffff" stroke="none" points="712,-236 712,-258 861,-258 861,-236 712,-236"/>
<polygon fill="none" stroke="black" points="712,-236 712,-258 861,-258 861,-236 712,-236"/>
<image xlink:href="../../images/foreignKeys.png" width="11px" height="12px" preserveAspectRatio="xMinYMin meet" x="717" y="-253"/>
<text text-anchor="start" x="743" y="-244.2" font-family="Helvetica,sans-Serif" font-size="11.00">user_id</text>
<polygon fill="none" stroke="black" points="712,-218 712,-236 861,-236 861,-218 712,-218"/>
<text text-anchor="start" x="715" y="-224.2" font-family="Helvetica,sans-Serif" font-size="11.00">...</text>
<polygon fill="#ffffff" stroke="none" points="712,-200 712,-218 764,-218 764,-200 712,-200"/>
<polygon fill="none" stroke="black" points="712,-200 712,-218 764,-218 764,-200 712,-200"/>
<text text-anchor="start" x="715" y="-206.2" font-family="Helvetica,sans-Serif" font-size="11.00">&lt; 2</text>
<polygon fill="#ffffff" stroke="none" points="764,-200 764,-218 833,-218 833,-200 764,-200"/>
<polygon fill="none" stroke="black" points="764,-200 764,-218 833,-218 833,-200 764,-200"/>
<text text-anchor="start" x="781" y="-206.2" font-family="Helvetica,sans-Serif" font-size="11.00">229 rows</text>
<polygon fill="#ffffff" stroke="none" points="833,-200 833,-218 861,-218 861,-200 833,-200"/>
<polygon fill="none" stroke="black" points="833,-200 833,-218 861,-218 861,-200 833,-200"/>
<text text-anchor="start" x="851" y="-206.2" font-family="Helvetica,sans-Serif" font-size="11.00"> &#160;</text>
</a>
</g>
</g>
<!-- django_admin_log&#45;&gt;django_content_type -->
<g id="edge9" class="edge"><title>django_admin_log:content_type_id:w&#45;&gt;django_content_type:id.type:e</title>
<path fill="none" stroke="black" d="M696.322,-270.586C667.254,-277.466 662.459,-304.933 627,-317 543.755,-345.33 510.459,-306.336 431,-344 407.982,-354.911 414.473,-383 389,-383"/>
<polygon fill="black" stroke="black" points="703.046,-269.859 711.387,-272.579 707.023,-269.43 711,-269 711,-269 711,-269 707.023,-269.43 710.613,-265.421 703.046,-269.859 703.046,-269.859"/>
<ellipse fill="none" stroke="black" cx="699.865" cy="-270.203" rx="3.2" ry="3.2"/>
</g>
<!-- galaxy_user -->
<g id="node10" class="node"><title>galaxy_user</title>
<g id="a_node10"><a xlink:href="../../tables/galaxy_user.html" xlink:title="galaxy_user" target="_top">
<polygon fill="#ffffff" stroke="none" points="471.5,-354 471.5,-412 586.5,-412 586.5,-354 471.5,-354"/>
<polygon fill="#f5f5f5" stroke="none" points="472,-390 472,-412 587,-412 587,-390 472,-390"/>
<polygon fill="none" stroke="black" points="472,-390 472,-412 587,-412 587,-390 472,-390"/>
<text text-anchor="start" x="477" y="-399.2" font-family="Helvetica,sans-Serif" font-weight="bold" font-size="11.00">galaxy_user</text>
<text text-anchor="start" x="548" y="-398.2" font-family="Helvetica,sans-Serif" font-size="11.00">[table]</text>
<polygon fill="none" stroke="black" points="472,-372 472,-390 587,-390 587,-372 472,-372"/>
<text text-anchor="start" x="475" y="-378.2" font-family="Helvetica,sans-Serif" font-size="11.00">...</text>
<polygon fill="#ffffff" stroke="none" points="472,-354 472,-372 500,-372 500,-354 472,-354"/>
<polygon fill="none" stroke="black" points="472,-354 472,-372 500,-372 500,-354 472,-354"/>
<text text-anchor="start" x="475" y="-360.2" font-family="Helvetica,sans-Serif" font-size="11.00"> &#160;</text>
<polygon fill="#ffffff" stroke="none" points="500,-354 500,-372 556,-372 556,-354 500,-354"/>
<polygon fill="none" stroke="black" points="500,-354 500,-372 556,-372 556,-354 500,-354"/>
<text text-anchor="start" x="510" y="-360.2" font-family="Helvetica,sans-Serif" font-size="11.00">17 rows</text>
<polygon fill="#ffffff" stroke="none" points="556,-354 556,-372 587,-372 587,-354 556,-354"/>
<polygon fill="none" stroke="black" points="556,-354 556,-372 587,-372 587,-354 556,-354"/>
<text text-anchor="start" x="567" y="-360.2" font-family="Helvetica,sans-Serif" font-size="11.00">5 &gt;</text>
</a>
</g>
</g>
<!-- django_admin_log&#45;&gt;galaxy_user -->
<g id="edge10" class="edge"><title>django_admin_log:user_id:w&#45;&gt;galaxy_user:elipses:e</title>
<path fill="none" stroke="black" d="M696.406,-248.694C634.769,-264.206 663.473,-381 588,-381"/>
<polygon fill="black" stroke="black" points="703.053,-247.923 711.415,-250.576 707.027,-247.461 711,-247 711,-247 711,-247 707.027,-247.461 710.585,-243.424 703.053,-247.923 703.053,-247.923"/>
<ellipse fill="none" stroke="black" cx="699.875" cy="-248.292" rx="3.2" ry="3.2"/>
</g>
<!-- galaxy_user_user_permissions -->
<g id="node11" class="node"><title>galaxy_user_user_permissions</title>
<g id="a_node11"><a xlink:href="../../tables/galaxy_user_user_permissions.html" xlink:title="galaxy_user_user_permissions" target="_top">
<polygon fill="#ffffff" stroke="none" points="677.5,-345 677.5,-403 894.5,-403 894.5,-345 677.5,-345"/>
<polygon fill="#f5f5f5" stroke="none" points="678,-381 678,-403 895,-403 895,-381 678,-381"/>
<polygon fill="none" stroke="black" points="678,-381 678,-403 895,-403 895,-381 678,-381"/>
<text text-anchor="start" x="683" y="-390.2" font-family="Helvetica,sans-Serif" font-weight="bold" font-size="11.00">galaxy_user_user_permissions</text>
<text text-anchor="start" x="856" y="-389.2" font-family="Helvetica,sans-Serif" font-size="11.00">[table]</text>
<polygon fill="none" stroke="black" points="678,-363 678,-381 895,-381 895,-363 678,-363"/>
<text text-anchor="start" x="681" y="-369.2" font-family="Helvetica,sans-Serif" font-size="11.00">...</text>
<polygon fill="#ffffff" stroke="none" points="678,-345 678,-363 770,-363 770,-345 678,-345"/>
<polygon fill="none" stroke="black" points="678,-345 678,-363 770,-363 770,-345 678,-345"/>
<text text-anchor="start" x="681" y="-351.2" font-family="Helvetica,sans-Serif" font-size="11.00">&lt; 2</text>
<polygon fill="#ffffff" stroke="none" points="770,-345 770,-363 847,-363 847,-345 770,-345"/>
<polygon fill="none" stroke="black" points="770,-345 770,-363 847,-363 847,-345 770,-345"/>
<text text-anchor="start" x="808" y="-351.2" font-family="Helvetica,sans-Serif" font-size="11.00">0 rows</text>
<polygon fill="#ffffff" stroke="none" points="847,-345 847,-363 895,-363 895,-345 847,-345"/>
<polygon fill="none" stroke="black" points="847,-345 847,-363 895,-363 895,-345 847,-345"/>
<text text-anchor="start" x="885" y="-351.2" font-family="Helvetica,sans-Serif" font-size="11.00"> &#160;</text>
</a>
</g>
</g>
<!-- galaxy_user_user_permissions&#45;&gt;auth_permission -->
<g id="edge11" class="edge"><title>galaxy_user_user_permissions:elipses:w&#45;&gt;auth_permission:id:e</title>
<path fill="none" stroke="black" d="M662.513,-374.135C602.55,-394.331 682.697,-551 602,-551"/>
<polygon fill="black" stroke="black" points="669.085,-373.166 677.525,-375.562 673.043,-372.583 677,-372 677,-372 677,-372 673.043,-372.583 676.475,-368.438 669.085,-373.166 669.085,-373.166"/>
<ellipse fill="none" stroke="black" cx="665.92" cy="-373.633" rx="3.2" ry="3.2"/>
</g>
<!-- galaxy_user_user_permissions&#45;&gt;galaxy_user -->
<g id="edge12" class="edge"><title>galaxy_user_user_permissions:elipses:w&#45;&gt;galaxy_user:elipses:e</title>
<path fill="none" stroke="black" d="M662.236,-372.459C634.083,-374.293 622.322,-381 588,-381"/>
<polygon fill="black" stroke="black" points="669.004,-372.248 677.112,-375.598 673.002,-372.124 677,-372 677,-372 677,-372 673.002,-372.124 676.888,-368.402 669.004,-372.248 669.004,-372.248"/>
<ellipse fill="none" stroke="black" cx="665.805" cy="-372.348" rx="3.2" ry="3.2"/>
</g>
<!-- guardian_groupobjectpermission -->
<g id="node12" class="node"><title>guardian_groupobjectpermission</title>
<g id="a_node12"><a xlink:href="../../tables/guardian_groupobjectpermission.html" xlink:title="guardian_groupobjectpermission" target="_top">
<polygon fill="#ffffff" stroke="none" points="668,-674 668,-824 904,-824 904,-674 668,-674"/>
<polygon fill="#f5f5f5" stroke="none" points="668,-802 668,-824 904,-824 904,-802 668,-802"/>
<polygon fill="none" stroke="black" points="668,-802 668,-824 904,-824 904,-802 668,-802"/>
<text text-anchor="start" x="673" y="-811.2" font-family="Helvetica,sans-Serif" font-weight="bold" font-size="11.00">guardian_groupobjectpermission</text>
<text text-anchor="start" x="865" y="-810.2" font-family="Helvetica,sans-Serif" font-size="11.00">[table]</text>
<polygon fill="none" stroke="black" points="668,-780 668,-802 904,-802 904,-780 668,-780"/>
<image xlink:href="../../images/primaryKeys.png" width="11px" height="12px" preserveAspectRatio="xMinYMin meet" x="673" y="-797"/>
<text text-anchor="start" x="697" y="-788.2" font-family="Helvetica,sans-Serif" font-size="11.00">id</text>
<polygon fill="#ffffff" stroke="none" points="668,-758 668,-780 904,-780 904,-758 668,-758"/>
<polygon fill="none" stroke="black" points="668,-758 668,-780 904,-780 904,-758 668,-758"/>
<text text-anchor="start" x="697" y="-766.2" font-family="Helvetica,sans-Serif" font-size="11.00">object_pk</text>
<polygon fill="#ffffff" stroke="none" points="668,-736 668,-758 904,-758 904,-736 668,-736"/>
<polygon fill="none" stroke="black" points="668,-736 668,-758 904,-758 904,-736 668,-736"/>
<image xlink:href="../../images/foreignKeys.png" width="11px" height="12px" preserveAspectRatio="xMinYMin meet" x="673" y="-753"/>
<text text-anchor="start" x="697" y="-744.2" font-family="Helvetica,sans-Serif" font-size="11.00">content_type_id</text>
<polygon fill="#ffffff" stroke="none" points="668,-714 668,-736 904,-736 904,-714 668,-714"/>
<polygon fill="none" stroke="black" points="668,-714 668,-736 904,-736 904,-714 668,-714"/>
<image xlink:href="../../images/foreignKeys.png" width="11px" height="12px" preserveAspectRatio="xMinYMin meet" x="673" y="-731"/>
<text text-anchor="start" x="697" y="-722.2" font-family="Helvetica,sans-Serif" font-size="11.00">group_id</text>
<polygon fill="#ffffff" stroke="none" points="668,-692 668,-714 904,-714 904,-692 668,-692"/>
<polygon fill="none" stroke="black" points="668,-692 668,-714 904,-714 904,-692 668,-692"/>
<image xlink:href="../../images/foreignKeys.png" width="11px" height="12px" preserveAspectRatio="xMinYMin meet" x="673" y="-709"/>
<text text-anchor="start" x="697" y="-700.2" font-family="Helvetica,sans-Serif" font-size="11.00">permission_id</text>
<polygon fill="#ffffff" stroke="none" points="668,-674 668,-692 763,-692 763,-674 668,-674"/>
<polygon fill="none" stroke="black" points="668,-674 668,-692 763,-692 763,-674 668,-674"/>
<text text-anchor="start" x="671" y="-680.2" font-family="Helvetica,sans-Serif" font-size="11.00">&lt; 3</text>
<polygon fill="#ffffff" stroke="none" points="763,-674 763,-692 854,-692 854,-674 763,-674"/>
<polygon fill="none" stroke="black" points="763,-674 763,-692 854,-692 854,-674 763,-674"/>
<text text-anchor="start" x="802" y="-680.2" font-family="Helvetica,sans-Serif" font-size="11.00">168 rows</text>
<polygon fill="#ffffff" stroke="none" points="854,-674 854,-692 904,-692 904,-674 854,-674"/>
<polygon fill="none" stroke="black" points="854,-674 854,-692 904,-692 904,-674 854,-674"/>
<text text-anchor="start" x="894" y="-680.2" font-family="Helvetica,sans-Serif" font-size="11.00"> &#160;</text>
</a>
</g>
</g>
<!-- guardian_groupobjectpermission&#45;&gt;auth_group -->
<g id="edge14" class="edge"><title>guardian_groupobjectpermission:group_id:w&#45;&gt;auth_group:elipses:e</title>
<path fill="none" stroke="black" d="M652.69,-722.465C624.089,-711.172 625.657,-666 587,-666"/>
<polygon fill="black" stroke="black" points="659.123,-723.604 666.372,-728.545 663.061,-724.302 667,-725 667,-725 667,-725 663.061,-724.302 667.628,-721.455 659.123,-723.604 659.123,-723.604"/>
<ellipse fill="none" stroke="black" cx="655.972" cy="-723.046" rx="3.2" ry="3.2"/>
</g>
<!-- guardian_groupobjectpermission&#45;&gt;auth_permission -->
<g id="edge15" class="edge"><title>guardian_groupobjectpermission:permission_id:w&#45;&gt;auth_permission:id:e</title>
<path fill="none" stroke="black" d="M652.778,-700.489C605.109,-680.726 669.877,-551 602,-551"/>
<polygon fill="black" stroke="black" points="659.122,-701.609 666.374,-706.545 663.061,-702.304 667,-703 667,-703 667,-703 663.061,-702.304 667.626,-699.455 659.122,-701.609 659.122,-701.609"/>
<ellipse fill="none" stroke="black" cx="655.971" cy="-701.052" rx="3.2" ry="3.2"/>
</g>
<!-- guardian_groupobjectpermission&#45;&gt;django_content_type -->
<g id="edge13" class="edge"><title>guardian_groupobjectpermission:content_type_id:w&#45;&gt;django_content_type:id.type:e</title>
<path fill="none" stroke="black" d="M652.376,-747.232C555.413,-750.264 501.376,-780.902 431,-708 380.422,-655.607 461.823,-383 389,-383"/>
<polygon fill="black" stroke="black" points="659.001,-747.127 667.057,-750.6 663.001,-747.063 667,-747 667,-747 667,-747 663.001,-747.063 666.943,-743.4 659.001,-747.127 659.001,-747.127"/>
<ellipse fill="none" stroke="black" cx="655.801" cy="-747.177" rx="3.2" ry="3.2"/>
</g>
<!-- guardian_userobjectpermission -->
<g id="node13" class="node"><title>guardian_userobjectpermission</title>
<g id="a_node13"><a xlink:href="../../tables/guardian_userobjectpermission.html" xlink:title="guardian_userobjectpermission" target="_top">
<polygon fill="#ffffff" stroke="none" points="672,-424 672,-574 900,-574 900,-424 672,-424"/>
<polygon fill="#f5f5f5" stroke="none" points="672,-552 672,-574 900,-574 900,-552 672,-552"/>
<polygon fill="none" stroke="black" points="672,-552 672,-574 900,-574 900,-552 672,-552"/>
<text text-anchor="start" x="677" y="-561.2" font-family="Helvetica,sans-Serif" font-weight="bold" font-size="11.00">guardian_userobjectpermission</text>
<text text-anchor="start" x="861" y="-560.2" font-family="Helvetica,sans-Serif" font-size="11.00">[table]</text>
<polygon fill="none" stroke="black" points="672,-530 672,-552 900,-552 900,-530 672,-530"/>
<image xlink:href="../../images/primaryKeys.png" width="11px" height="12px" preserveAspectRatio="xMinYMin meet" x="677" y="-547"/>
<text text-anchor="start" x="702" y="-538.2" font-family="Helvetica,sans-Serif" font-size="11.00">id</text>
<polygon fill="#ffffff" stroke="none" points="672,-508 672,-530 900,-530 900,-508 672,-508"/>
<polygon fill="none" stroke="black" points="672,-508 672,-530 900,-530 900,-508 672,-508"/>
<text text-anchor="start" x="702" y="-516.2" font-family="Helvetica,sans-Serif" font-size="11.00">object_pk</text>
<polygon fill="#ffffff" stroke="none" points="672,-486 672,-508 900,-508 900,-486 672,-486"/>
<polygon fill="none" stroke="black" points="672,-486 672,-508 900,-508 900,-486 672,-486"/>
<image xlink:href="../../images/foreignKeys.png" width="11px" height="12px" preserveAspectRatio="xMinYMin meet" x="677" y="-503"/>
<text text-anchor="start" x="702" y="-494.2" font-family="Helvetica,sans-Serif" font-size="11.00">content_type_id</text>
<polygon fill="#ffffff" stroke="none" points="672,-464 672,-486 900,-486 900,-464 672,-464"/>
<polygon fill="none" stroke="black" points="672,-464 672,-486 900,-486 900,-464 672,-464"/>
<image xlink:href="../../images/foreignKeys.png" width="11px" height="12px" preserveAspectRatio="xMinYMin meet" x="677" y="-481"/>
<text text-anchor="start" x="702" y="-472.2" font-family="Helvetica,sans-Serif" font-size="11.00">permission_id</text>
<polygon fill="#ffffff" stroke="none" points="672,-442 672,-464 900,-464 900,-442 672,-442"/>
<polygon fill="none" stroke="black" points="672,-442 672,-464 900,-464 900,-442 672,-442"/>
<image xlink:href="../../images/foreignKeys.png" width="11px" height="12px" preserveAspectRatio="xMinYMin meet" x="677" y="-459"/>
<text text-anchor="start" x="702" y="-450.2" font-family="Helvetica,sans-Serif" font-size="11.00">user_id</text>
<polygon fill="#ffffff" stroke="none" points="672,-424 672,-442 770,-442 770,-424 672,-424"/>
<polygon fill="none" stroke="black" points="672,-424 672,-442 770,-442 770,-424 672,-424"/>
<text text-anchor="start" x="675" y="-430.2" font-family="Helvetica,sans-Serif" font-size="11.00">&lt; 3</text>
<polygon fill="#ffffff" stroke="none" points="770,-424 770,-442 849,-442 849,-424 770,-424"/>
<polygon fill="none" stroke="black" points="770,-424 770,-442 849,-442 849,-424 770,-424"/>
<text text-anchor="start" x="810" y="-430.2" font-family="Helvetica,sans-Serif" font-size="11.00">0 rows</text>
<polygon fill="#ffffff" stroke="none" points="849,-424 849,-442 900,-442 900,-424 849,-424"/>
<polygon fill="none" stroke="black" points="849,-424 849,-442 900,-442 900,-424 849,-424"/>
<text text-anchor="start" x="890" y="-430.2" font-family="Helvetica,sans-Serif" font-size="11.00"> &#160;</text>
</a>
</g>
</g>
<!-- guardian_userobjectpermission&#45;&gt;auth_permission -->
<g id="edge17" class="edge"><title>guardian_userobjectpermission:permission_id:w&#45;&gt;auth_permission:id:e</title>
<path fill="none" stroke="black" d="M656.808,-478.266C629.878,-492.812 641.919,-551 602,-551"/>
<polygon fill="black" stroke="black" points="663.204,-476.794 671.807,-478.508 667.102,-475.897 671,-475 671,-475 671,-475 667.102,-475.897 670.193,-471.492 663.204,-476.794 663.204,-476.794"/>
<ellipse fill="none" stroke="black" cx="660.085" cy="-477.512" rx="3.2" ry="3.2"/>
</g>
<!-- guardian_userobjectpermission&#45;&gt;django_content_type -->
<g id="edge16" class="edge"><title>guardian_userobjectpermission:content_type_id:w&#45;&gt;django_content_type:id.type:e</title>
<path fill="none" stroke="black" d="M656.994,-492.712C645.077,-483.182 646.853,-460.276 627,-450 548.907,-409.58 510.22,-461.165 431,-423 407.777,-411.812 414.778,-383 389,-383"/>
<polygon fill="black" stroke="black" points="663.35,-494.658 669.946,-500.442 667.175,-495.829 671,-497 671,-497 671,-497 667.175,-495.829 672.054,-493.558 663.35,-494.658 663.35,-494.658"/>
<ellipse fill="none" stroke="black" cx="660.291" cy="-493.721" rx="3.20001" ry="3.20001"/>
</g>
<!-- guardian_userobjectpermission&#45;&gt;galaxy_user -->
<g id="edge18" class="edge"><title>guardian_userobjectpermission:user_id:w&#45;&gt;galaxy_user:elipses:e</title>
<path fill="none" stroke="black" d="M656.664,-450.437C624.674,-437.611 631.302,-381 588,-381"/>
<polygon fill="black" stroke="black" points="663.125,-451.592 670.367,-456.544 667.062,-452.296 671,-453 671,-453 671,-453 667.062,-452.296 671.633,-449.456 663.125,-451.592 663.125,-451.592"/>
<ellipse fill="none" stroke="black" cx="659.975" cy="-451.029" rx="3.2" ry="3.2"/>
</g>
</g>
</svg>
