<?xml version="1.0" encoding="UTF-8" standalone="no"?>
<!DOCTYPE svg PUBLIC "-//W3C//DTD SVG 1.1//EN"
 "http://www.w3.org/Graphics/SVG/1.1/DTD/svg11.dtd">
<!-- Generated by graphviz version 2.38.0 (20140413.2041)
 -->
<!-- Title: oneDegreeRelationshipsDiagram Pages: 1 -->
<svg width="473pt" height="359pt"
 viewBox="0.00 0.00 473.00 359.00" xmlns="http://www.w3.org/2000/svg" xmlns:xlink="http://www.w3.org/1999/xlink">
<g id="graph0" class="graph" transform="scale(1 1) rotate(0) translate(4 355)">
<title>oneDegreeRelationshipsDiagram</title>
<polygon fill="#ffffff" stroke="none" points="-4,4 -4,-355 469,-355 469,4 -4,4"/>
<text text-anchor="middle" x="74.5" y="-7.2" font-family="Helvetica,sans-Serif" font-size="11.00">Generated by SchemaSpy</text>
<!-- django_admin_log -->
<g id="node1" class="node"><title>django_admin_log</title>
<g id="a_node1"><a xlink:href="../../tables/django_admin_log.html" xlink:title="django_admin_log" target="_top">
<polygon fill="#ffffff" stroke="none" points="224,-127 224,-347 457,-347 457,-127 224,-127"/>
<polygon fill="#f5f5f5" stroke="none" points="226.5,-323 226.5,-345 455.5,-345 455.5,-323 226.5,-323"/>
<polygon fill="none" stroke="black" points="226.5,-323 226.5,-345 455.5,-345 455.5,-323 226.5,-323"/>
<text text-anchor="start" x="231.5" y="-332.2" font-family="Helvetica,sans-Serif" font-weight="bold" font-size="11.00">django_admin_log</text>
<text text-anchor="start" x="416.5" y="-331.2" font-family="Helvetica,sans-Serif" font-size="11.00">[table]</text>
<polygon fill="none" stroke="black" points="226.5,-301 226.5,-323 353.5,-323 353.5,-301 226.5,-301"/>
<image xlink:href="../../images/primaryKeys.png" width="11px" height="12px" preserveAspectRatio="xMinYMin meet" x="231.5" y="-318"/>
<text text-anchor="start" x="246.5" y="-309.2" font-family="Helvetica,sans-Serif" font-size="11.00">id</text>
<polygon fill="none" stroke="black" points="353.5,-301 353.5,-323 455.5,-323 455.5,-301 353.5,-301"/>
<text text-anchor="start" x="356.5" y="-309.2" font-family="Helvetica,sans-Serif" font-size="11.00">serial[10]</text>
<polygon fill="none" stroke="black" points="226.5,-279 226.5,-301 353.5,-301 353.5,-279 226.5,-279"/>
<text text-anchor="start" x="246.5" y="-287.2" font-family="Helvetica,sans-Serif" font-size="11.00">action_time</text>
<polygon fill="none" stroke="black" points="353.5,-279 353.5,-301 455.5,-301 455.5,-279 353.5,-279"/>
<text text-anchor="start" x="356.5" y="-287.2" font-family="Helvetica,sans-Serif" font-size="11.00">timestamptz[35,6]</text>
<polygon fill="none" stroke="black" points="226.5,-257 226.5,-279 353.5,-279 353.5,-257 226.5,-257"/>
<text text-anchor="start" x="246.5" y="-265.2" font-family="Helvetica,sans-Serif" font-size="11.00">object_id</text>
<polygon fill="none" stroke="black" points="353.5,-257 353.5,-279 455.5,-279 455.5,-257 353.5,-257"/>
<text text-anchor="start" x="356.5" y="-265.2" font-family="Helvetica,sans-Serif" font-size="11.00">text[2147483647]</text>
<polygon fill="none" stroke="black" points="226.5,-235 226.5,-257 353.5,-257 353.5,-235 226.5,-235"/>
<text text-anchor="start" x="246.5" y="-243.2" font-family="Helvetica,sans-Serif" font-size="11.00">object_repr</text>
<polygon fill="none" stroke="black" points="353.5,-235 353.5,-257 455.5,-257 455.5,-235 353.5,-235"/>
<text text-anchor="start" x="356.5" y="-243.2" font-family="Helvetica,sans-Serif" font-size="11.00">varchar[200]</text>
<polygon fill="none" stroke="black" points="226.5,-213 226.5,-235 353.5,-235 353.5,-213 226.5,-213"/>
<text text-anchor="start" x="246.5" y="-221.2" font-family="Helvetica,sans-Serif" font-size="11.00">action_flag</text>
<polygon fill="none" stroke="black" points="353.5,-213 353.5,-235 455.5,-235 455.5,-213 353.5,-213"/>
<text text-anchor="start" x="356.5" y="-221.2" font-family="Helvetica,sans-Serif" font-size="11.00">int2[5]</text>
<polygon fill="none" stroke="black" points="226.5,-191 226.5,-213 353.5,-213 353.5,-191 226.5,-191"/>
<text text-anchor="start" x="246.5" y="-199.2" font-family="Helvetica,sans-Serif" font-size="11.00">change_message</text>
<polygon fill="none" stroke="black" points="353.5,-191 353.5,-213 455.5,-213 455.5,-191 353.5,-191"/>
<text text-anchor="start" x="356.5" y="-199.2" font-family="Helvetica,sans-Serif" font-size="11.00">text[2147483647]</text>
<polygon fill="#ffffff" stroke="none" points="226.5,-169 226.5,-191 353.5,-191 353.5,-169 226.5,-169"/>
<polygon fill="none" stroke="black" points="226.5,-169 226.5,-191 353.5,-191 353.5,-169 226.5,-169"/>
<image xlink:href="../../images/foreignKeys.png" width="11px" height="12px" preserveAspectRatio="xMinYMin meet" x="231.5" y="-186"/>
<text text-anchor="start" x="246.5" y="-177.2" font-family="Helvetica,sans-Serif" font-size="11.00">content_type_id</text>
<polygon fill="none" stroke="black" points="353.5,-169 353.5,-191 455.5,-191 455.5,-169 353.5,-169"/>
<text text-anchor="start" x="356.5" y="-177.2" font-family="Helvetica,sans-Serif" font-size="11.00">int4[10]</text>
<polygon fill="#ffffff" stroke="none" points="226.5,-147 226.5,-169 353.5,-169 353.5,-147 226.5,-147"/>
<polygon fill="none" stroke="black" points="226.5,-147 226.5,-169 353.5,-169 353.5,-147 226.5,-147"/>
<image xlink:href="../../images/foreignKeys.png" width="11px" height="12px" preserveAspectRatio="xMinYMin meet" x="231.5" y="-164"/>
<text text-anchor="start" x="246.5" y="-155.2" font-family="Helvetica,sans-Serif" font-size="11.00">user_id</text>
<polygon fill="none" stroke="black" points="353.5,-147 353.5,-169 455.5,-169 455.5,-147 353.5,-147"/>
<text text-anchor="start" x="356.5" y="-155.2" font-family="Helvetica,sans-Serif" font-size="11.00">int4[10]</text>
<polygon fill="#ffffff" stroke="none" points="226.5,-129 226.5,-147 273.5,-147 273.5,-129 226.5,-129"/>
<polygon fill="none" stroke="black" points="226.5,-129 226.5,-147 273.5,-147 273.5,-129 226.5,-129"/>
<text text-anchor="start" x="229.5" y="-135.2" font-family="Helvetica,sans-Serif" font-size="11.00">&lt; 2</text>
<polygon fill="#ffffff" stroke="none" points="273.5,-129 273.5,-147 353.5,-147 353.5,-129 273.5,-129"/>
<polygon fill="none" stroke="black" points="273.5,-129 273.5,-147 353.5,-147 353.5,-129 273.5,-129"/>
<text text-anchor="start" x="301.5" y="-135.2" font-family="Helvetica,sans-Serif" font-size="11.00">229 rows</text>
<polygon fill="#ffffff" stroke="none" points="353.5,-129 353.5,-147 455.5,-147 455.5,-129 353.5,-129"/>
<polygon fill="none" stroke="black" points="353.5,-129 353.5,-147 455.5,-147 455.5,-129 353.5,-129"/>
<text text-anchor="start" x="435.5" y="-135.2" font-family="Helvetica,sans-Serif" font-size="11.00">0 &gt;</text>
<polygon fill="none" stroke="black" stroke-width="2" points="225,-128 225,-346 456,-346 456,-128 225,-128"/>
</a>
</g>
</g>
<!-- django_content_type -->
<g id="node2" class="node"><title>django_content_type</title>
<g id="a_node2"><a xlink:href="../../tables/django_content_type.html" xlink:title="django_content_type" target="_top">
<polygon fill="#ffffff" stroke="none" points="8,-160 8,-266 175,-266 175,-160 8,-160"/>
<polygon fill="#f5f5f5" stroke="none" points="8.5,-244 8.5,-266 175.5,-266 175.5,-244 8.5,-244"/>
<polygon fill="none" stroke="black" points="8.5,-244 8.5,-266 175.5,-266 175.5,-244 8.5,-244"/>
<text text-anchor="start" x="13.5" y="-253.2" font-family="Helvetica,sans-Serif" font-weight="bold" font-size="11.00">django_content_type</text>
<text text-anchor="start" x="136.5" y="-252.2" font-family="Helvetica,sans-Serif" font-size="11.00">[table]</text>
<polygon fill="none" stroke="black" points="8.5,-222 8.5,-244 175.5,-244 175.5,-222 8.5,-222"/>
<image xlink:href="../../images/primaryKeys.png" width="11px" height="12px" preserveAspectRatio="xMinYMin meet" x="13.5" y="-239"/>
<text text-anchor="start" x="39.5" y="-230.2" font-family="Helvetica,sans-Serif" font-size="11.00">id</text>
<polygon fill="#ffffff" stroke="none" points="8.5,-200 8.5,-222 175.5,-222 175.5,-200 8.5,-200"/>
<polygon fill="none" stroke="black" points="8.5,-200 8.5,-222 175.5,-222 175.5,-200 8.5,-200"/>
<text text-anchor="start" x="39.5" y="-208.2" font-family="Helvetica,sans-Serif" font-size="11.00">app_label</text>
<polygon fill="#ffffff" stroke="none" points="8.5,-178 8.5,-200 175.5,-200 175.5,-178 8.5,-178"/>
<polygon fill="none" stroke="black" points="8.5,-178 8.5,-200 175.5,-200 175.5,-178 8.5,-178"/>
<text text-anchor="start" x="39.5" y="-186.2" font-family="Helvetica,sans-Serif" font-size="11.00">model</text>
<polygon fill="#ffffff" stroke="none" points="8.5,-160 8.5,-178 62.5,-178 62.5,-160 8.5,-160"/>
<polygon fill="none" stroke="black" points="8.5,-160 8.5,-178 62.5,-178 62.5,-160 8.5,-160"/>
<text text-anchor="start" x="11.5" y="-166.2" font-family="Helvetica,sans-Serif" font-size="11.00"> &#160;</text>
<polygon fill="#ffffff" stroke="none" points="62.5,-160 62.5,-178 131.5,-178 131.5,-160 62.5,-160"/>
<polygon fill="none" stroke="black" points="62.5,-160 62.5,-178 131.5,-178 131.5,-160 62.5,-160"/>
<text text-anchor="start" x="85.5" y="-166.2" font-family="Helvetica,sans-Serif" font-size="11.00">79 rows</text>
<polygon fill="#ffffff" stroke="none" points="131.5,-160 131.5,-178 175.5,-178 175.5,-160 131.5,-160"/>
<polygon fill="none" stroke="black" points="131.5,-160 131.5,-178 175.5,-178 175.5,-160 131.5,-160"/>
<text text-anchor="start" x="155.5" y="-166.2" font-family="Helvetica,sans-Serif" font-size="11.00">6 &gt;</text>
</a>
</g>
</g>
<!-- django_admin_log&#45;&gt;django_content_type -->
<g id="edge1" class="edge"><title>django_admin_log:content_type_id:w&#45;&gt;django_content_type:id:e</title>
<path fill="none" stroke="black" d="M211.815,-184.891C197.444,-198.012 202.565,-233 176.5,-233"/>
<polygon fill="black" stroke="black" points="217.967,-182.692 226.712,-183.39 221.733,-181.346 225.5,-180 225.5,-180 225.5,-180 221.733,-181.346 224.288,-176.61 217.967,-182.692 217.967,-182.692"/>
<ellipse fill="none" stroke="black" cx="214.953" cy="-183.769" rx="3.20001" ry="3.20001"/>
</g>
<!-- galaxy_user -->
<g id="node3" class="node"><title>galaxy_user</title>
<g id="a_node3"><a xlink:href="../../tables/galaxy_user.html" xlink:title="galaxy_user" target="_top">
<polygon fill="#ffffff" stroke="none" points="34,-37 34,-139 149,-139 149,-37 34,-37"/>
<polygon fill="#f5f5f5" stroke="none" points="34.5,-117 34.5,-139 149.5,-139 149.5,-117 34.5,-117"/>
<polygon fill="none" stroke="black" points="34.5,-117 34.5,-139 149.5,-139 149.5,-117 34.5,-117"/>
<text text-anchor="start" x="39.5" y="-126.2" font-family="Helvetica,sans-Serif" font-weight="bold" font-size="11.00">galaxy_user</text>
<text text-anchor="start" x="110.5" y="-125.2" font-family="Helvetica,sans-Serif" font-size="11.00">[table]</text>
<polygon fill="none" stroke="black" points="34.5,-95 34.5,-117 149.5,-117 149.5,-95 34.5,-95"/>
<image xlink:href="../../images/primaryKeys.png" width="11px" height="12px" preserveAspectRatio="xMinYMin meet" x="39.5" y="-112"/>
<text text-anchor="start" x="64.5" y="-103.2" font-family="Helvetica,sans-Serif" font-size="11.00">id</text>
<polygon fill="#ffffff" stroke="none" points="34.5,-73 34.5,-95 149.5,-95 149.5,-73 34.5,-73"/>
<polygon fill="none" stroke="black" points="34.5,-73 34.5,-95 149.5,-95 149.5,-73 34.5,-73"/>
<text text-anchor="start" x="64.5" y="-81.2" font-family="Helvetica,sans-Serif" font-size="11.00">username</text>
<polygon fill="none" stroke="black" points="34.5,-55 34.5,-73 149.5,-73 149.5,-55 34.5,-55"/>
<text text-anchor="start" x="37.5" y="-61.2" font-family="Helvetica,sans-Serif" font-size="11.00">...</text>
<polygon fill="#ffffff" stroke="none" points="34.5,-37 34.5,-55 62.5,-55 62.5,-37 34.5,-37"/>
<polygon fill="none" stroke="black" points="34.5,-37 34.5,-55 62.5,-55 62.5,-37 34.5,-37"/>
<text text-anchor="start" x="37.5" y="-43.2" font-family="Helvetica,sans-Serif" font-size="11.00"> &#160;</text>
<polygon fill="#ffffff" stroke="none" points="62.5,-37 62.5,-55 118.5,-55 118.5,-37 62.5,-37"/>
<polygon fill="none" stroke="black" points="62.5,-37 62.5,-55 118.5,-55 118.5,-37 62.5,-37"/>
<text text-anchor="start" x="72.5" y="-43.2" font-family="Helvetica,sans-Serif" font-size="11.00">17 rows</text>
<polygon fill="#ffffff" stroke="none" points="118.5,-37 118.5,-55 149.5,-55 149.5,-37 118.5,-37"/>
<polygon fill="none" stroke="black" points="118.5,-37 118.5,-55 149.5,-55 149.5,-37 118.5,-37"/>
<text text-anchor="start" x="129.5" y="-43.2" font-family="Helvetica,sans-Serif" font-size="11.00">5 &gt;</text>
</a>
</g>
</g>
<!-- django_admin_log&#45;&gt;galaxy_user -->
<g id="edge2" class="edge"><title>django_admin_log:user_id:w&#45;&gt;galaxy_user:id:e</title>
<path fill="none" stroke="black" d="M211.243,-155.35C185.74,-144.753 185.516,-106 150.5,-106"/>
<polygon fill="black" stroke="black" points="217.635,-156.538 224.842,-161.539 221.567,-157.269 225.5,-158 225.5,-158 225.5,-158 221.567,-157.269 226.158,-154.461 217.635,-156.538 217.635,-156.538"/>
<ellipse fill="none" stroke="black" cx="214.489" cy="-155.953" rx="3.2" ry="3.2"/>
</g>
</g>
</svg>
