<?xml version="1.0" encoding="UTF-8" standalone="no"?>
<!DOCTYPE svg PUBLIC "-//W3C//DTD SVG 1.1//EN"
 "http://www.w3.org/Graphics/SVG/1.1/DTD/svg11.dtd">
<!-- Generated by graphviz version 2.38.0 (20140413.2041)
 -->
<!-- Title: oneDegreeRelationshipsDiagram Pages: 1 -->
<svg width="760pt" height="700pt"
 viewBox="0.00 0.00 760.00 699.91" xmlns="http://www.w3.org/2000/svg" xmlns:xlink="http://www.w3.org/1999/xlink">
<g id="graph0" class="graph" transform="scale(1 1) rotate(0) translate(4 695.905)">
<title>oneDegreeRelationshipsDiagram</title>
<polygon fill="#ffffff" stroke="none" points="-4,4 -4,-695.905 756,-695.905 756,4 -4,4"/>
<text text-anchor="middle" x="74.5" y="-7.2" font-family="Helvetica,sans-Serif" font-size="11.00">Generated by SchemaSpy</text>
<!-- auth_permission -->
<g id="node1" class="node"><title>auth_permission</title>
<g id="a_node1"><a xlink:href="../../tables/auth_permission.html" xlink:title="auth_permission" target="_top">
<polygon fill="#ffffff" stroke="none" points="297.5,-80.1774 297.5,-204.177 440.5,-204.177 440.5,-80.1774 297.5,-80.1774"/>
<polygon fill="#f5f5f5" stroke="none" points="298,-182.177 298,-204.177 441,-204.177 441,-182.177 298,-182.177"/>
<polygon fill="none" stroke="black" points="298,-182.177 298,-204.177 441,-204.177 441,-182.177 298,-182.177"/>
<text text-anchor="start" x="303" y="-191.377" font-family="Helvetica,sans-Serif" font-weight="bold" font-size="11.00">auth_permission</text>
<text text-anchor="start" x="402" y="-190.377" font-family="Helvetica,sans-Serif" font-size="11.00">[table]</text>
<polygon fill="none" stroke="black" points="298,-160.177 298,-182.177 441,-182.177 441,-160.177 298,-160.177"/>
<image xlink:href="../../images/primaryKeys.png" width="11px" height="12px" preserveAspectRatio="xMinYMin meet" x="303" y="-177.177"/>
<text text-anchor="start" x="330" y="-168.377" font-family="Helvetica,sans-Serif" font-size="11.00">id</text>
<polygon fill="#ffffff" stroke="none" points="298,-138.177 298,-160.177 441,-160.177 441,-138.177 298,-138.177"/>
<polygon fill="none" stroke="black" points="298,-138.177 298,-160.177 441,-160.177 441,-138.177 298,-138.177"/>
<image xlink:href="../../images/foreignKeys.png" width="11px" height="12px" preserveAspectRatio="xMinYMin meet" x="303" y="-155.177"/>
<text text-anchor="start" x="330" y="-146.377" font-family="Helvetica,sans-Serif" font-size="11.00">content_type_id</text>
<polygon fill="#ffffff" stroke="none" points="298,-116.177 298,-138.177 441,-138.177 441,-116.177 298,-116.177"/>
<polygon fill="none" stroke="black" points="298,-116.177 298,-138.177 441,-138.177 441,-116.177 298,-116.177"/>
<text text-anchor="start" x="330" y="-124.377" font-family="Helvetica,sans-Serif" font-size="11.00">codename</text>
<polygon fill="none" stroke="black" points="298,-98.1774 298,-116.177 441,-116.177 441,-98.1774 298,-98.1774"/>
<text text-anchor="start" x="301" y="-104.377" font-family="Helvetica,sans-Serif" font-size="11.00">...</text>
<polygon fill="#ffffff" stroke="none" points="298,-80.1774 298,-98.1774 342,-98.1774 342,-80.1774 298,-80.1774"/>
<polygon fill="none" stroke="black" points="298,-80.1774 298,-98.1774 342,-98.1774 342,-80.1774 298,-80.1774"/>
<text text-anchor="start" x="301" y="-86.3774" font-family="Helvetica,sans-Serif" font-size="11.00">&lt; 1</text>
<polygon fill="#ffffff" stroke="none" points="342,-80.1774 342,-98.1774 407,-98.1774 407,-80.1774 342,-80.1774"/>
<polygon fill="none" stroke="black" points="342,-80.1774 342,-98.1774 407,-98.1774 407,-80.1774 342,-80.1774"/>
<text text-anchor="start" x="355" y="-86.3774" font-family="Helvetica,sans-Serif" font-size="11.00">322 rows</text>
<polygon fill="#ffffff" stroke="none" points="407,-80.1774 407,-98.1774 441,-98.1774 441,-80.1774 407,-80.1774"/>
<polygon fill="none" stroke="black" points="407,-80.1774 407,-98.1774 441,-98.1774 441,-80.1774 407,-80.1774"/>
<text text-anchor="start" x="421" y="-86.3774" font-family="Helvetica,sans-Serif" font-size="11.00">4 &gt;</text>
</a>
</g>
</g>
<!-- django_content_type -->
<g id="node2" class="node"><title>django_content_type</title>
<g id="a_node2"><a xlink:href="../../tables/django_content_type.html" xlink:title="django_content_type" target="_top">
<polygon fill="#ffffff" stroke="none" points="8,-291.177 8,-401.177 230,-401.177 230,-291.177 8,-291.177"/>
<polygon fill="#f5f5f5" stroke="none" points="10,-377.177 10,-399.177 228,-399.177 228,-377.177 10,-377.177"/>
<polygon fill="none" stroke="black" points="10,-377.177 10,-399.177 228,-399.177 228,-377.177 10,-377.177"/>
<text text-anchor="start" x="15" y="-386.377" font-family="Helvetica,sans-Serif" font-weight="bold" font-size="11.00">django_content_type</text>
<text text-anchor="start" x="189" y="-385.377" font-family="Helvetica,sans-Serif" font-size="11.00">[table]</text>
<polygon fill="none" stroke="black" points="10,-355.177 10,-377.177 155,-377.177 155,-355.177 10,-355.177"/>
<image xlink:href="../../images/primaryKeys.png" width="11px" height="12px" preserveAspectRatio="xMinYMin meet" x="15" y="-372.177"/>
<text text-anchor="start" x="30" y="-363.377" font-family="Helvetica,sans-Serif" font-size="11.00">id</text>
<polygon fill="none" stroke="black" points="155,-355.177 155,-377.177 228,-377.177 228,-355.177 155,-355.177"/>
<text text-anchor="start" x="158" y="-363.377" font-family="Helvetica,sans-Serif" font-size="11.00">serial[10]</text>
<polygon fill="#ffffff" stroke="none" points="10,-333.177 10,-355.177 155,-355.177 155,-333.177 10,-333.177"/>
<polygon fill="none" stroke="black" points="10,-333.177 10,-355.177 155,-355.177 155,-333.177 10,-333.177"/>
<text text-anchor="start" x="30" y="-341.377" font-family="Helvetica,sans-Serif" font-size="11.00">app_label</text>
<polygon fill="none" stroke="black" points="155,-333.177 155,-355.177 228,-355.177 228,-333.177 155,-333.177"/>
<text text-anchor="start" x="158" y="-341.377" font-family="Helvetica,sans-Serif" font-size="11.00">varchar[100]</text>
<polygon fill="#ffffff" stroke="none" points="10,-311.177 10,-333.177 155,-333.177 155,-311.177 10,-311.177"/>
<polygon fill="none" stroke="black" points="10,-311.177 10,-333.177 155,-333.177 155,-311.177 10,-311.177"/>
<text text-anchor="start" x="30" y="-319.377" font-family="Helvetica,sans-Serif" font-size="11.00">model</text>
<polygon fill="none" stroke="black" points="155,-311.177 155,-333.177 228,-333.177 228,-311.177 155,-311.177"/>
<text text-anchor="start" x="158" y="-319.377" font-family="Helvetica,sans-Serif" font-size="11.00">varchar[100]</text>
<polygon fill="#ffffff" stroke="none" points="10,-293.177 10,-311.177 69,-311.177 69,-293.177 10,-293.177"/>
<polygon fill="none" stroke="black" points="10,-293.177 10,-311.177 69,-311.177 69,-293.177 10,-293.177"/>
<text text-anchor="start" x="13" y="-299.377" font-family="Helvetica,sans-Serif" font-size="11.00">&lt; 0</text>
<polygon fill="#ffffff" stroke="none" points="69,-293.177 69,-311.177 155,-311.177 155,-293.177 69,-293.177"/>
<polygon fill="none" stroke="black" points="69,-293.177 69,-311.177 155,-311.177 155,-293.177 69,-293.177"/>
<text text-anchor="start" x="109" y="-299.377" font-family="Helvetica,sans-Serif" font-size="11.00">79 rows</text>
<polygon fill="#ffffff" stroke="none" points="155,-293.177 155,-311.177 228,-311.177 228,-293.177 155,-293.177"/>
<polygon fill="none" stroke="black" points="155,-293.177 155,-311.177 228,-311.177 228,-293.177 155,-293.177"/>
<text text-anchor="start" x="208" y="-299.377" font-family="Helvetica,sans-Serif" font-size="11.00">6 &gt;</text>
<polygon fill="none" stroke="black" stroke-width="2" points="9,-292.177 9,-400.177 229,-400.177 229,-292.177 9,-292.177"/>
</a>
</g>
</g>
<!-- auth_permission&#45;&gt;django_content_type -->
<g id="edge1" class="edge"><title>auth_permission:content_type_id:w&#45;&gt;django_content_type:id.type:e</title>
<path fill="none" stroke="black" d="M282.452,-151.053C209.899,-172.263 324.542,-366.177 229,-366.177"/>
<polygon fill="black" stroke="black" points="289.066,-150.201 297.46,-152.748 293.033,-149.689 297,-149.177 297,-149.177 297,-149.177 293.033,-149.689 296.54,-145.607 289.066,-150.201 289.066,-150.201"/>
<ellipse fill="none" stroke="black" cx="285.892" cy="-150.61" rx="3.2" ry="3.2"/>
</g>
<!-- core_createdresource -->
<g id="node3" class="node"><title>core_createdresource</title>
<g id="a_node3"><a xlink:href="../../tables/core_createdresource.html" xlink:title="core_createdresource" target="_top">
<polygon fill="#ffffff" stroke="none" points="283,-515.177 283,-639.177 455,-639.177 455,-515.177 283,-515.177"/>
<polygon fill="#f5f5f5" stroke="none" points="283,-617.177 283,-639.177 455,-639.177 455,-617.177 283,-617.177"/>
<polygon fill="none" stroke="black" points="283,-617.177 283,-639.177 455,-639.177 455,-617.177 283,-617.177"/>
<text text-anchor="start" x="288" y="-626.377" font-family="Helvetica,sans-Serif" font-weight="bold" font-size="11.00">core_createdresource</text>
<text text-anchor="start" x="416" y="-625.377" font-family="Helvetica,sans-Serif" font-size="11.00">[table]</text>
<polygon fill="none" stroke="black" points="283,-595.177 283,-617.177 455,-617.177 455,-595.177 283,-595.177"/>
<image xlink:href="../../images/primaryKeys.png" width="11px" height="12px" preserveAspectRatio="xMinYMin meet" x="288" y="-612.177"/>
<text text-anchor="start" x="314" y="-603.377" font-family="Helvetica,sans-Serif" font-size="11.00">pulp_id</text>
<polygon fill="#ffffff" stroke="none" points="283,-573.177 283,-595.177 455,-595.177 455,-573.177 283,-573.177"/>
<polygon fill="none" stroke="black" points="283,-573.177 283,-595.177 455,-595.177 455,-573.177 283,-573.177"/>
<image xlink:href="../../images/foreignKeys.png" width="11px" height="12px" preserveAspectRatio="xMinYMin meet" x="288" y="-590.177"/>
<text text-anchor="start" x="314" y="-581.377" font-family="Helvetica,sans-Serif" font-size="11.00">content_type_id</text>
<polygon fill="#ffffff" stroke="none" points="283,-551.177 283,-573.177 455,-573.177 455,-551.177 283,-551.177"/>
<polygon fill="none" stroke="black" points="283,-551.177 283,-573.177 455,-573.177 455,-551.177 283,-551.177"/>
<image xlink:href="../../images/foreignKeys.png" width="11px" height="12px" preserveAspectRatio="xMinYMin meet" x="288" y="-568.177"/>
<text text-anchor="start" x="314" y="-559.377" font-family="Helvetica,sans-Serif" font-size="11.00">task_id</text>
<polygon fill="none" stroke="black" points="283,-533.177 283,-551.177 455,-551.177 455,-533.177 283,-533.177"/>
<text text-anchor="start" x="286" y="-539.377" font-family="Helvetica,sans-Serif" font-size="11.00">...</text>
<polygon fill="#ffffff" stroke="none" points="283,-515.177 283,-533.177 346,-533.177 346,-515.177 283,-515.177"/>
<polygon fill="none" stroke="black" points="283,-515.177 283,-533.177 346,-533.177 346,-515.177 283,-515.177"/>
<text text-anchor="start" x="286" y="-521.377" font-family="Helvetica,sans-Serif" font-size="11.00">&lt; 2</text>
<polygon fill="#ffffff" stroke="none" points="346,-515.177 346,-533.177 421,-533.177 421,-515.177 346,-515.177"/>
<polygon fill="none" stroke="black" points="346,-515.177 346,-533.177 421,-533.177 421,-515.177 346,-515.177"/>
<text text-anchor="start" x="369" y="-521.377" font-family="Helvetica,sans-Serif" font-size="11.00">365 rows</text>
<polygon fill="#ffffff" stroke="none" points="421,-515.177 421,-533.177 455,-533.177 455,-515.177 421,-515.177"/>
<polygon fill="none" stroke="black" points="421,-515.177 421,-533.177 455,-533.177 455,-515.177 421,-515.177"/>
<text text-anchor="start" x="445" y="-521.377" font-family="Helvetica,sans-Serif" font-size="11.00"> &#160;</text>
</a>
</g>
</g>
<!-- core_createdresource&#45;&gt;django_content_type -->
<g id="edge2" class="edge"><title>core_createdresource:content_type_id:w&#45;&gt;django_content_type:id.type:e</title>
<path fill="none" stroke="black" d="M267.336,-582.158C198.086,-560.181 323.063,-366.177 229,-366.177"/>
<polygon fill="black" stroke="black" points="274.075,-583.086 281.509,-587.744 278.037,-583.632 282,-584.177 282,-584.177 282,-584.177 278.037,-583.632 282.491,-580.611 274.075,-583.086 274.075,-583.086"/>
<ellipse fill="none" stroke="black" cx="270.905" cy="-582.65" rx="3.2" ry="3.2"/>
</g>
<!-- core_exportedresource -->
<g id="node4" class="node"><title>core_exportedresource</title>
<g id="a_node4"><a xlink:href="../../tables/core_exportedresource.html" xlink:title="core_exportedresource" target="_top">
<polygon fill="#ffffff" stroke="none" points="279,-370.177 279,-494.177 459,-494.177 459,-370.177 279,-370.177"/>
<polygon fill="#f5f5f5" stroke="none" points="279,-472.177 279,-494.177 459,-494.177 459,-472.177 279,-472.177"/>
<polygon fill="none" stroke="black" points="279,-472.177 279,-494.177 459,-494.177 459,-472.177 279,-472.177"/>
<text text-anchor="start" x="284" y="-481.377" font-family="Helvetica,sans-Serif" font-weight="bold" font-size="11.00">core_exportedresource</text>
<text text-anchor="start" x="420" y="-480.377" font-family="Helvetica,sans-Serif" font-size="11.00">[table]</text>
<polygon fill="none" stroke="black" points="279,-450.177 279,-472.177 459,-472.177 459,-450.177 279,-450.177"/>
<image xlink:href="../../images/primaryKeys.png" width="11px" height="12px" preserveAspectRatio="xMinYMin meet" x="284" y="-467.177"/>
<text text-anchor="start" x="310" y="-458.377" font-family="Helvetica,sans-Serif" font-size="11.00">pulp_id</text>
<polygon fill="#ffffff" stroke="none" points="279,-428.177 279,-450.177 459,-450.177 459,-428.177 279,-428.177"/>
<polygon fill="none" stroke="black" points="279,-428.177 279,-450.177 459,-450.177 459,-428.177 279,-428.177"/>
<image xlink:href="../../images/foreignKeys.png" width="11px" height="12px" preserveAspectRatio="xMinYMin meet" x="284" y="-445.177"/>
<text text-anchor="start" x="310" y="-436.377" font-family="Helvetica,sans-Serif" font-size="11.00">content_type_id</text>
<polygon fill="#ffffff" stroke="none" points="279,-406.177 279,-428.177 459,-428.177 459,-406.177 279,-406.177"/>
<polygon fill="none" stroke="black" points="279,-406.177 279,-428.177 459,-428.177 459,-406.177 279,-406.177"/>
<image xlink:href="../../images/foreignKeys.png" width="11px" height="12px" preserveAspectRatio="xMinYMin meet" x="284" y="-423.177"/>
<text text-anchor="start" x="310" y="-414.377" font-family="Helvetica,sans-Serif" font-size="11.00">export_id</text>
<polygon fill="none" stroke="black" points="279,-388.177 279,-406.177 459,-406.177 459,-388.177 279,-388.177"/>
<text text-anchor="start" x="282" y="-394.377" font-family="Helvetica,sans-Serif" font-size="11.00">...</text>
<polygon fill="#ffffff" stroke="none" points="279,-370.177 279,-388.177 353,-388.177 353,-370.177 279,-370.177"/>
<polygon fill="none" stroke="black" points="279,-370.177 279,-388.177 353,-388.177 353,-370.177 279,-370.177"/>
<text text-anchor="start" x="282" y="-376.377" font-family="Helvetica,sans-Serif" font-size="11.00">&lt; 2</text>
<polygon fill="#ffffff" stroke="none" points="353,-370.177 353,-388.177 420,-388.177 420,-370.177 353,-370.177"/>
<polygon fill="none" stroke="black" points="353,-370.177 353,-388.177 420,-388.177 420,-370.177 353,-370.177"/>
<text text-anchor="start" x="381" y="-376.377" font-family="Helvetica,sans-Serif" font-size="11.00">0 rows</text>
<polygon fill="#ffffff" stroke="none" points="420,-370.177 420,-388.177 459,-388.177 459,-370.177 420,-370.177"/>
<polygon fill="none" stroke="black" points="420,-370.177 420,-388.177 459,-388.177 459,-370.177 420,-370.177"/>
<text text-anchor="start" x="449" y="-376.377" font-family="Helvetica,sans-Serif" font-size="11.00"> &#160;</text>
</a>
</g>
</g>
<!-- core_exportedresource&#45;&gt;django_content_type -->
<g id="edge3" class="edge"><title>core_exportedresource:content_type_id:w&#45;&gt;django_content_type:id.type:e</title>
<path fill="none" stroke="black" d="M264.16,-434.388C246.368,-418.147 261.97,-366.177 229,-366.177"/>
<polygon fill="black" stroke="black" points="270.44,-436.561 276.823,-442.579 274.22,-437.869 278,-439.177 278,-439.177 278,-439.177 274.22,-437.869 279.177,-435.775 270.44,-436.561 270.44,-436.561"/>
<ellipse fill="none" stroke="black" cx="267.416" cy="-435.514" rx="3.20001" ry="3.20001"/>
</g>
<!-- django_admin_log -->
<g id="node5" class="node"><title>django_admin_log</title>
<g id="a_node5"><a xlink:href="../../tables/django_admin_log.html" xlink:title="django_admin_log" target="_top">
<polygon fill="#ffffff" stroke="none" points="294.5,-225.177 294.5,-349.177 443.5,-349.177 443.5,-225.177 294.5,-225.177"/>
<polygon fill="#f5f5f5" stroke="none" points="295,-327.177 295,-349.177 444,-349.177 444,-327.177 295,-327.177"/>
<polygon fill="none" stroke="black" points="295,-327.177 295,-349.177 444,-349.177 444,-327.177 295,-327.177"/>
<text text-anchor="start" x="300" y="-336.377" font-family="Helvetica,sans-Serif" font-weight="bold" font-size="11.00">django_admin_log</text>
<text text-anchor="start" x="405" y="-335.377" font-family="Helvetica,sans-Serif" font-size="11.00">[table]</text>
<polygon fill="none" stroke="black" points="295,-305.177 295,-327.177 444,-327.177 444,-305.177 295,-305.177"/>
<image xlink:href="../../images/primaryKeys.png" width="11px" height="12px" preserveAspectRatio="xMinYMin meet" x="300" y="-322.177"/>
<text text-anchor="start" x="326" y="-313.377" font-family="Helvetica,sans-Serif" font-size="11.00">id</text>
<polygon fill="#ffffff" stroke="none" points="295,-283.177 295,-305.177 444,-305.177 444,-283.177 295,-283.177"/>
<polygon fill="none" stroke="black" points="295,-283.177 295,-305.177 444,-305.177 444,-283.177 295,-283.177"/>
<image xlink:href="../../images/foreignKeys.png" width="11px" height="12px" preserveAspectRatio="xMinYMin meet" x="300" y="-300.177"/>
<text text-anchor="start" x="326" y="-291.377" font-family="Helvetica,sans-Serif" font-size="11.00">content_type_id</text>
<polygon fill="#ffffff" stroke="none" points="295,-261.177 295,-283.177 444,-283.177 444,-261.177 295,-261.177"/>
<polygon fill="none" stroke="black" points="295,-261.177 295,-283.177 444,-283.177 444,-261.177 295,-261.177"/>
<image xlink:href="../../images/foreignKeys.png" width="11px" height="12px" preserveAspectRatio="xMinYMin meet" x="300" y="-278.177"/>
<text text-anchor="start" x="326" y="-269.377" font-family="Helvetica,sans-Serif" font-size="11.00">user_id</text>
<polygon fill="none" stroke="black" points="295,-243.177 295,-261.177 444,-261.177 444,-243.177 295,-243.177"/>
<text text-anchor="start" x="298" y="-249.377" font-family="Helvetica,sans-Serif" font-size="11.00">...</text>
<polygon fill="#ffffff" stroke="none" points="295,-225.177 295,-243.177 347,-243.177 347,-225.177 295,-225.177"/>
<polygon fill="none" stroke="black" points="295,-225.177 295,-243.177 347,-243.177 347,-225.177 295,-225.177"/>
<text text-anchor="start" x="298" y="-231.377" font-family="Helvetica,sans-Serif" font-size="11.00">&lt; 2</text>
<polygon fill="#ffffff" stroke="none" points="347,-225.177 347,-243.177 416,-243.177 416,-225.177 347,-225.177"/>
<polygon fill="none" stroke="black" points="347,-225.177 347,-243.177 416,-243.177 416,-225.177 347,-225.177"/>
<text text-anchor="start" x="364" y="-231.377" font-family="Helvetica,sans-Serif" font-size="11.00">229 rows</text>
<polygon fill="#ffffff" stroke="none" points="416,-225.177 416,-243.177 444,-243.177 444,-225.177 416,-225.177"/>
<polygon fill="none" stroke="black" points="416,-225.177 416,-243.177 444,-243.177 444,-225.177 416,-225.177"/>
<text text-anchor="start" x="434" y="-231.377" font-family="Helvetica,sans-Serif" font-size="11.00"> &#160;</text>
</a>
</g>
</g>
<!-- django_admin_log&#45;&gt;django_content_type -->
<g id="edge4" class="edge"><title>django_admin_log:content_type_id:w&#45;&gt;django_content_type:id.type:e</title>
<path fill="none" stroke="black" d="M279.926,-297.65C255.391,-312.032 266.385,-366.177 229,-366.177"/>
<polygon fill="black" stroke="black" points="286.233,-296.094 294.862,-297.673 290.116,-295.136 294,-294.177 294,-294.177 294,-294.177 290.116,-295.136 293.138,-290.682 286.233,-296.094 286.233,-296.094"/>
<ellipse fill="none" stroke="black" cx="283.126" cy="-296.86" rx="3.2" ry="3.2"/>
</g>
<!-- guardian_groupobjectpermission -->
<g id="node6" class="node"><title>guardian_groupobjectpermission</title>
<g id="a_node6"><a xlink:href="../../tables/guardian_groupobjectpermission.html" xlink:title="guardian_groupobjectpermission" target="_top">
<polygon fill="#ffffff" stroke="none" points="508,-406.177 508,-556.177 744,-556.177 744,-406.177 508,-406.177"/>
<polygon fill="#f5f5f5" stroke="none" points="508,-534.177 508,-556.177 744,-556.177 744,-534.177 508,-534.177"/>
<polygon fill="none" stroke="black" points="508,-534.177 508,-556.177 744,-556.177 744,-534.177 508,-534.177"/>
<text text-anchor="start" x="513" y="-543.377" font-family="Helvetica,sans-Serif" font-weight="bold" font-size="11.00">guardian_groupobjectpermission</text>
<text text-anchor="start" x="705" y="-542.377" font-family="Helvetica,sans-Serif" font-size="11.00">[table]</text>
<polygon fill="none" stroke="black" points="508,-512.177 508,-534.177 744,-534.177 744,-512.177 508,-512.177"/>
<image xlink:href="../../images/primaryKeys.png" width="11px" height="12px" preserveAspectRatio="xMinYMin meet" x="513" y="-529.177"/>
<text text-anchor="start" x="537" y="-520.377" font-family="Helvetica,sans-Serif" font-size="11.00">id</text>
<polygon fill="#ffffff" stroke="none" points="508,-490.177 508,-512.177 744,-512.177 744,-490.177 508,-490.177"/>
<polygon fill="none" stroke="black" points="508,-490.177 508,-512.177 744,-512.177 744,-490.177 508,-490.177"/>
<text text-anchor="start" x="537" y="-498.377" font-family="Helvetica,sans-Serif" font-size="11.00">object_pk</text>
<polygon fill="#ffffff" stroke="none" points="508,-468.177 508,-490.177 744,-490.177 744,-468.177 508,-468.177"/>
<polygon fill="none" stroke="black" points="508,-468.177 508,-490.177 744,-490.177 744,-468.177 508,-468.177"/>
<image xlink:href="../../images/foreignKeys.png" width="11px" height="12px" preserveAspectRatio="xMinYMin meet" x="513" y="-485.177"/>
<text text-anchor="start" x="537" y="-476.377" font-family="Helvetica,sans-Serif" font-size="11.00">content_type_id</text>
<polygon fill="#ffffff" stroke="none" points="508,-446.177 508,-468.177 744,-468.177 744,-446.177 508,-446.177"/>
<polygon fill="none" stroke="black" points="508,-446.177 508,-468.177 744,-468.177 744,-446.177 508,-446.177"/>
<image xlink:href="../../images/foreignKeys.png" width="11px" height="12px" preserveAspectRatio="xMinYMin meet" x="513" y="-463.177"/>
<text text-anchor="start" x="537" y="-454.377" font-family="Helvetica,sans-Serif" font-size="11.00">group_id</text>
<polygon fill="#ffffff" stroke="none" points="508,-424.177 508,-446.177 744,-446.177 744,-424.177 508,-424.177"/>
<polygon fill="none" stroke="black" points="508,-424.177 508,-446.177 744,-446.177 744,-424.177 508,-424.177"/>
<image xlink:href="../../images/foreignKeys.png" width="11px" height="12px" preserveAspectRatio="xMinYMin meet" x="513" y="-441.177"/>
<text text-anchor="start" x="537" y="-432.377" font-family="Helvetica,sans-Serif" font-size="11.00">permission_id</text>
<polygon fill="#ffffff" stroke="none" points="508,-406.177 508,-424.177 603,-424.177 603,-406.177 508,-406.177"/>
<polygon fill="none" stroke="black" points="508,-406.177 508,-424.177 603,-424.177 603,-406.177 508,-406.177"/>
<text text-anchor="start" x="511" y="-412.377" font-family="Helvetica,sans-Serif" font-size="11.00">&lt; 3</text>
<polygon fill="#ffffff" stroke="none" points="603,-406.177 603,-424.177 694,-424.177 694,-406.177 603,-406.177"/>
<polygon fill="none" stroke="black" points="603,-406.177 603,-424.177 694,-424.177 694,-406.177 603,-406.177"/>
<text text-anchor="start" x="642" y="-412.377" font-family="Helvetica,sans-Serif" font-size="11.00">168 rows</text>
<polygon fill="#ffffff" stroke="none" points="694,-406.177 694,-424.177 744,-424.177 744,-406.177 694,-406.177"/>
<polygon fill="none" stroke="black" points="694,-406.177 694,-424.177 744,-424.177 744,-406.177 694,-406.177"/>
<text text-anchor="start" x="734" y="-412.377" font-family="Helvetica,sans-Serif" font-size="11.00"> &#160;</text>
</a>
</g>
</g>
<!-- guardian_groupobjectpermission&#45;&gt;auth_permission -->
<g id="edge6" class="edge"><title>guardian_groupobjectpermission:permission_id:w&#45;&gt;auth_permission:id:e</title>
<path fill="none" stroke="black" d="M493.362,-429.167C455.676,-389.871 496.99,-171.177 442,-171.177"/>
<polygon fill="black" stroke="black" points="499.679,-431.951 505.548,-438.472 503.34,-433.564 507,-435.177 507,-435.177 507,-435.177 503.34,-433.564 508.452,-431.883 499.679,-431.951 499.679,-431.951"/>
<ellipse fill="none" stroke="black" cx="496.751" cy="-430.661" rx="3.20001" ry="3.20001"/>
</g>
<!-- guardian_groupobjectpermission&#45;&gt;django_content_type -->
<g id="edge5" class="edge"><title>guardian_groupobjectpermission:content_type_id:w&#45;&gt;django_content_type:id.type:e</title>
<path fill="none" stroke="black" d="M492.413,-481.121C442.791,-496.953 523.615,-605.277 467,-650.177 398.748,-704.307 336.949,-707.09 271,-650.177 222.701,-608.496 292.798,-366.177 229,-366.177"/>
<polygon fill="black" stroke="black" points="499.07,-480.234 507.476,-482.746 503.035,-479.706 507,-479.177 507,-479.177 507,-479.177 503.035,-479.706 506.524,-475.609 499.07,-480.234 499.07,-480.234"/>
<ellipse fill="none" stroke="black" cx="495.898" cy="-480.657" rx="3.2" ry="3.2"/>
</g>
<!-- guardian_userobjectpermission -->
<g id="node7" class="node"><title>guardian_userobjectpermission</title>
<g id="a_node7"><a xlink:href="../../tables/guardian_userobjectpermission.html" xlink:title="guardian_userobjectpermission" target="_top">
<polygon fill="#ffffff" stroke="none" points="512,-51.1774 512,-201.177 740,-201.177 740,-51.1774 512,-51.1774"/>
<polygon fill="#f5f5f5" stroke="none" points="512,-179.177 512,-201.177 740,-201.177 740,-179.177 512,-179.177"/>
<polygon fill="none" stroke="black" points="512,-179.177 512,-201.177 740,-201.177 740,-179.177 512,-179.177"/>
<text text-anchor="start" x="517" y="-188.377" font-family="Helvetica,sans-Serif" font-weight="bold" font-size="11.00">guardian_userobjectpermission</text>
<text text-anchor="start" x="701" y="-187.377" font-family="Helvetica,sans-Serif" font-size="11.00">[table]</text>
<polygon fill="none" stroke="black" points="512,-157.177 512,-179.177 740,-179.177 740,-157.177 512,-157.177"/>
<image xlink:href="../../images/primaryKeys.png" width="11px" height="12px" preserveAspectRatio="xMinYMin meet" x="517" y="-174.177"/>
<text text-anchor="start" x="542" y="-165.377" font-family="Helvetica,sans-Serif" font-size="11.00">id</text>
<polygon fill="#ffffff" stroke="none" points="512,-135.177 512,-157.177 740,-157.177 740,-135.177 512,-135.177"/>
<polygon fill="none" stroke="black" points="512,-135.177 512,-157.177 740,-157.177 740,-135.177 512,-135.177"/>
<text text-anchor="start" x="542" y="-143.377" font-family="Helvetica,sans-Serif" font-size="11.00">object_pk</text>
<polygon fill="#ffffff" stroke="none" points="512,-113.177 512,-135.177 740,-135.177 740,-113.177 512,-113.177"/>
<polygon fill="none" stroke="black" points="512,-113.177 512,-135.177 740,-135.177 740,-113.177 512,-113.177"/>
<image xlink:href="../../images/foreignKeys.png" width="11px" height="12px" preserveAspectRatio="xMinYMin meet" x="517" y="-130.177"/>
<text text-anchor="start" x="542" y="-121.377" font-family="Helvetica,sans-Serif" font-size="11.00">content_type_id</text>
<polygon fill="#ffffff" stroke="none" points="512,-91.1774 512,-113.177 740,-113.177 740,-91.1774 512,-91.1774"/>
<polygon fill="none" stroke="black" points="512,-91.1774 512,-113.177 740,-113.177 740,-91.1774 512,-91.1774"/>
<image xlink:href="../../images/foreignKeys.png" width="11px" height="12px" preserveAspectRatio="xMinYMin meet" x="517" y="-108.177"/>
<text text-anchor="start" x="542" y="-99.3774" font-family="Helvetica,sans-Serif" font-size="11.00">permission_id</text>
<polygon fill="#ffffff" stroke="none" points="512,-69.1774 512,-91.1774 740,-91.1774 740,-69.1774 512,-69.1774"/>
<polygon fill="none" stroke="black" points="512,-69.1774 512,-91.1774 740,-91.1774 740,-69.1774 512,-69.1774"/>
<image xlink:href="../../images/foreignKeys.png" width="11px" height="12px" preserveAspectRatio="xMinYMin meet" x="517" y="-86.1774"/>
<text text-anchor="start" x="542" y="-77.3774" font-family="Helvetica,sans-Serif" font-size="11.00">user_id</text>
<polygon fill="#ffffff" stroke="none" points="512,-51.1774 512,-69.1774 610,-69.1774 610,-51.1774 512,-51.1774"/>
<polygon fill="none" stroke="black" points="512,-51.1774 512,-69.1774 610,-69.1774 610,-51.1774 512,-51.1774"/>
<text text-anchor="start" x="515" y="-57.3774" font-family="Helvetica,sans-Serif" font-size="11.00">&lt; 3</text>
<polygon fill="#ffffff" stroke="none" points="610,-51.1774 610,-69.1774 689,-69.1774 689,-51.1774 610,-51.1774"/>
<polygon fill="none" stroke="black" points="610,-51.1774 610,-69.1774 689,-69.1774 689,-51.1774 610,-51.1774"/>
<text text-anchor="start" x="650" y="-57.3774" font-family="Helvetica,sans-Serif" font-size="11.00">0 rows</text>
<polygon fill="#ffffff" stroke="none" points="689,-51.1774 689,-69.1774 740,-69.1774 740,-51.1774 689,-51.1774"/>
<polygon fill="none" stroke="black" points="689,-51.1774 689,-69.1774 740,-69.1774 740,-51.1774 689,-51.1774"/>
<text text-anchor="start" x="730" y="-57.3774" font-family="Helvetica,sans-Serif" font-size="11.00"> &#160;</text>
</a>
</g>
</g>
<!-- guardian_userobjectpermission&#45;&gt;auth_permission -->
<g id="edge8" class="edge"><title>guardian_userobjectpermission:permission_id:w&#45;&gt;auth_permission:id:e</title>
<path fill="none" stroke="black" d="M496.667,-105.505C471.265,-119.288 479.609,-171.177 442,-171.177"/>
<polygon fill="black" stroke="black" points="503.207,-103.987 511.814,-105.684 507.104,-103.082 511,-102.177 511,-102.177 511,-102.177 507.104,-103.082 510.186,-98.6707 503.207,-103.987 503.207,-103.987"/>
<ellipse fill="none" stroke="black" cx="500.09" cy="-104.711" rx="3.2" ry="3.2"/>
</g>
<!-- guardian_userobjectpermission&#45;&gt;django_content_type -->
<g id="edge7" class="edge"><title>guardian_userobjectpermission:content_type_id:w&#45;&gt;django_content_type:id.type:e</title>
<path fill="none" stroke="black" d="M496.961,-119.629C484.196,-108.493 489.483,-79.9835 467,-69.1774 388.486,-31.4418 336.768,-12.0555 271,-69.1774 220.675,-112.887 295.657,-366.177 229,-366.177"/>
<polygon fill="black" stroke="black" points="503.389,-121.712 509.89,-127.602 507.195,-122.945 511,-124.177 511,-124.177 511,-124.177 507.195,-122.945 512.11,-120.753 503.389,-121.712 503.389,-121.712"/>
<ellipse fill="none" stroke="black" cx="500.345" cy="-120.725" rx="3.20001" ry="3.20001"/>
</g>
</g>
</svg>
