<?xml version="1.0" encoding="UTF-8" standalone="no"?>
<!DOCTYPE svg PUBLIC "-//W3C//DTD SVG 1.1//EN"
 "http://www.w3.org/Graphics/SVG/1.1/DTD/svg11.dtd">
<!-- Generated by graphviz version 2.38.0 (20140413.2041)
 -->
<!-- Title: twoDegreesRelationshipsDiagram Pages: 1 -->
<svg width="982pt" height="361pt"
 viewBox="0.00 0.00 982.00 361.00" xmlns="http://www.w3.org/2000/svg" xmlns:xlink="http://www.w3.org/1999/xlink">
<g id="graph0" class="graph" transform="scale(1 1) rotate(0) translate(4 357)">
<title>twoDegreesRelationshipsDiagram</title>
<polygon fill="#ffffff" stroke="none" points="-4,4 -4,-357 978,-357 978,4 -4,4"/>
<text text-anchor="middle" x="74.5" y="-7.2" font-family="Helvetica,sans-Serif" font-size="11.00">Generated by SchemaSpy</text>
<!-- ansible_ansiblerepository -->
<g id="node1" class="node"><title>ansible_ansiblerepository</title>
<g id="a_node1"><a xlink:href="../../tables/ansible_ansiblerepository.html" xlink:title="ansible_ansiblerepository" target="_top">
<polygon fill="#ffffff" stroke="none" points="194,-129 194,-191 389,-191 389,-129 194,-129"/>
<polygon fill="#f5f5f5" stroke="none" points="194.5,-169 194.5,-191 389.5,-191 389.5,-169 194.5,-169"/>
<polygon fill="none" stroke="black" points="194.5,-169 194.5,-191 389.5,-191 389.5,-169 194.5,-169"/>
<text text-anchor="start" x="199.5" y="-178.2" font-family="Helvetica,sans-Serif" font-weight="bold" font-size="11.00">ansible_ansiblerepository</text>
<text text-anchor="start" x="350.5" y="-177.2" font-family="Helvetica,sans-Serif" font-size="11.00">[table]</text>
<polygon fill="none" stroke="black" points="194.5,-147 194.5,-169 389.5,-169 389.5,-147 194.5,-147"/>
<image xlink:href="../../images/primaryKeys.png" width="11px" height="12px" preserveAspectRatio="xMinYMin meet" x="199.5" y="-164"/>
<text text-anchor="start" x="225.5" y="-155.2" font-family="Helvetica,sans-Serif" font-size="11.00">repository_ptr_id</text>
<polygon fill="#ffffff" stroke="none" points="194.5,-129 194.5,-147 267.5,-147 267.5,-129 194.5,-129"/>
<polygon fill="none" stroke="black" points="194.5,-129 194.5,-147 267.5,-147 267.5,-129 194.5,-129"/>
<text text-anchor="start" x="197.5" y="-135.2" font-family="Helvetica,sans-Serif" font-size="11.00">&lt; 1</text>
<polygon fill="#ffffff" stroke="none" points="267.5,-129 267.5,-147 341.5,-147 341.5,-129 267.5,-129"/>
<polygon fill="none" stroke="black" points="267.5,-129 267.5,-147 341.5,-147 341.5,-129 267.5,-129"/>
<text text-anchor="start" x="295.5" y="-135.2" font-family="Helvetica,sans-Serif" font-size="11.00">26 rows</text>
<polygon fill="#ffffff" stroke="none" points="341.5,-129 341.5,-147 389.5,-147 389.5,-129 341.5,-129"/>
<polygon fill="none" stroke="black" points="341.5,-129 341.5,-147 389.5,-147 389.5,-129 341.5,-129"/>
<text text-anchor="start" x="369.5" y="-135.2" font-family="Helvetica,sans-Serif" font-size="11.00">2 &gt;</text>
</a>
</g>
</g>
<!-- core_repository -->
<g id="node2" class="node"><title>core_repository</title>
<g id="a_node2"><a xlink:href="../../tables/core_repository.html" xlink:title="core_repository" target="_top">
<polygon fill="#ffffff" stroke="none" points="8,-131 8,-189 145,-189 145,-131 8,-131"/>
<polygon fill="#f5f5f5" stroke="none" points="8.5,-167 8.5,-189 145.5,-189 145.5,-167 8.5,-167"/>
<polygon fill="none" stroke="black" points="8.5,-167 8.5,-189 145.5,-189 145.5,-167 8.5,-167"/>
<text text-anchor="start" x="13.5" y="-176.2" font-family="Helvetica,sans-Serif" font-weight="bold" font-size="11.00">core_repository</text>
<text text-anchor="start" x="106.5" y="-175.2" font-family="Helvetica,sans-Serif" font-size="11.00">[table]</text>
<polygon fill="none" stroke="black" points="8.5,-149 8.5,-167 145.5,-167 145.5,-149 8.5,-149"/>
<text text-anchor="start" x="11.5" y="-155.2" font-family="Helvetica,sans-Serif" font-size="11.00">...</text>
<polygon fill="#ffffff" stroke="none" points="8.5,-131 8.5,-149 48.5,-149 48.5,-131 8.5,-131"/>
<polygon fill="none" stroke="black" points="8.5,-131 8.5,-149 48.5,-149 48.5,-131 8.5,-131"/>
<text text-anchor="start" x="11.5" y="-137.2" font-family="Helvetica,sans-Serif" font-size="11.00">&lt; 1</text>
<polygon fill="#ffffff" stroke="none" points="48.5,-131 48.5,-149 106.5,-149 106.5,-131 48.5,-131"/>
<polygon fill="none" stroke="black" points="48.5,-131 48.5,-149 106.5,-149 106.5,-131 48.5,-131"/>
<text text-anchor="start" x="60.5" y="-137.2" font-family="Helvetica,sans-Serif" font-size="11.00">26 rows</text>
<polygon fill="#ffffff" stroke="none" points="106.5,-131 106.5,-149 145.5,-149 145.5,-131 106.5,-131"/>
<polygon fill="none" stroke="black" points="106.5,-131 106.5,-149 145.5,-149 145.5,-131 106.5,-131"/>
<text text-anchor="start" x="118.5" y="-137.2" font-family="Helvetica,sans-Serif" font-size="11.00">10 &gt;</text>
</a>
</g>
</g>
<!-- ansible_ansiblerepository&#45;&gt;core_repository -->
<g id="edge1" class="edge"><title>ansible_ansiblerepository:repository_ptr_id:w&#45;&gt;core_repository:elipses:e</title>
<path fill="none" stroke="black" d="M182.82,-158C169.974,-158 163.309,-158 146.5,-158"/>
<polygon fill="black" stroke="black" points="192.7,-154 192.7,-162 191.1,-162 191.1,-154 192.7,-154"/>
<polyline fill="none" stroke="black" points="193.5,-158 189.5,-158 "/>
<ellipse fill="none" stroke="black" cx="186.3" cy="-158" rx="3.2" ry="3.2"/>
</g>
<!-- galaxy_synclist -->
<g id="node3" class="node"><title>galaxy_synclist</title>
<g id="a_node3"><a xlink:href="../../tables/galaxy_synclist.html" xlink:title="galaxy_synclist" target="_top">
<polygon fill="#ffffff" stroke="none" points="438,-116 438,-270 709,-270 709,-116 438,-116"/>
<polygon fill="#f5f5f5" stroke="none" points="440.5,-246 440.5,-268 707.5,-268 707.5,-246 440.5,-246"/>
<polygon fill="none" stroke="black" points="440.5,-246 440.5,-268 707.5,-268 707.5,-246 440.5,-246"/>
<text text-anchor="start" x="445.5" y="-255.2" font-family="Helvetica,sans-Serif" font-weight="bold" font-size="11.00">galaxy_synclist</text>
<text text-anchor="start" x="668.5" y="-254.2" font-family="Helvetica,sans-Serif" font-size="11.00">[table]</text>
<polygon fill="none" stroke="black" points="440.5,-224 440.5,-246 602.5,-246 602.5,-224 440.5,-224"/>
<image xlink:href="../../images/primaryKeys.png" width="11px" height="12px" preserveAspectRatio="xMinYMin meet" x="445.5" y="-241"/>
<text text-anchor="start" x="460.5" y="-232.2" font-family="Helvetica,sans-Serif" font-size="11.00">id</text>
<polygon fill="none" stroke="black" points="602.5,-224 602.5,-246 707.5,-246 707.5,-224 602.5,-224"/>
<text text-anchor="start" x="605.5" y="-232.2" font-family="Helvetica,sans-Serif" font-size="11.00">serial[10]</text>
<polygon fill="#ffffff" stroke="none" points="440.5,-202 440.5,-224 602.5,-224 602.5,-202 440.5,-202"/>
<polygon fill="none" stroke="black" points="440.5,-202 440.5,-224 602.5,-224 602.5,-202 440.5,-202"/>
<text text-anchor="start" x="460.5" y="-210.2" font-family="Helvetica,sans-Serif" font-size="11.00">name</text>
<polygon fill="none" stroke="black" points="602.5,-202 602.5,-224 707.5,-224 707.5,-202 602.5,-202"/>
<text text-anchor="start" x="605.5" y="-210.2" font-family="Helvetica,sans-Serif" font-size="11.00">varchar[64]</text>
<polygon fill="none" stroke="black" points="440.5,-180 440.5,-202 602.5,-202 602.5,-180 440.5,-180"/>
<text text-anchor="start" x="460.5" y="-188.2" font-family="Helvetica,sans-Serif" font-size="11.00">policy</text>
<polygon fill="none" stroke="black" points="602.5,-180 602.5,-202 707.5,-202 707.5,-180 602.5,-180"/>
<text text-anchor="start" x="605.5" y="-188.2" font-family="Helvetica,sans-Serif" font-size="11.00">varchar[64]</text>
<polygon fill="#ffffff" stroke="none" points="440.5,-158 440.5,-180 602.5,-180 602.5,-158 440.5,-158"/>
<polygon fill="none" stroke="black" points="440.5,-158 440.5,-180 602.5,-180 602.5,-158 440.5,-158"/>
<image xlink:href="../../images/foreignKeys.png" width="11px" height="12px" preserveAspectRatio="xMinYMin meet" x="445.5" y="-175"/>
<text text-anchor="start" x="460.5" y="-166.2" font-family="Helvetica,sans-Serif" font-size="11.00">repository_id</text>
<polygon fill="none" stroke="black" points="602.5,-158 602.5,-180 707.5,-180 707.5,-158 602.5,-158"/>
<text text-anchor="start" x="605.5" y="-166.2" font-family="Helvetica,sans-Serif" font-size="11.00">uuid[2147483647]</text>
<polygon fill="#ffffff" stroke="none" points="440.5,-136 440.5,-158 602.5,-158 602.5,-136 440.5,-136"/>
<polygon fill="none" stroke="black" points="440.5,-136 440.5,-158 602.5,-158 602.5,-136 440.5,-136"/>
<image xlink:href="../../images/foreignKeys.png" width="11px" height="12px" preserveAspectRatio="xMinYMin meet" x="445.5" y="-153"/>
<text text-anchor="start" x="460.5" y="-144.2" font-family="Helvetica,sans-Serif" font-size="11.00">upstream_repository_id</text>
<polygon fill="none" stroke="black" points="602.5,-136 602.5,-158 707.5,-158 707.5,-136 602.5,-136"/>
<text text-anchor="start" x="605.5" y="-144.2" font-family="Helvetica,sans-Serif" font-size="11.00">uuid[2147483647]</text>
<polygon fill="#ffffff" stroke="none" points="440.5,-118 440.5,-136 511.5,-136 511.5,-118 440.5,-118"/>
<polygon fill="none" stroke="black" points="440.5,-118 440.5,-136 511.5,-136 511.5,-118 440.5,-118"/>
<text text-anchor="start" x="443.5" y="-124.2" font-family="Helvetica,sans-Serif" font-size="11.00">&lt; 2</text>
<polygon fill="#ffffff" stroke="none" points="511.5,-118 511.5,-136 602.5,-136 602.5,-118 511.5,-118"/>
<polygon fill="none" stroke="black" points="511.5,-118 511.5,-136 602.5,-136 602.5,-118 511.5,-118"/>
<text text-anchor="start" x="563.5" y="-124.2" font-family="Helvetica,sans-Serif" font-size="11.00">7 rows</text>
<polygon fill="#ffffff" stroke="none" points="602.5,-118 602.5,-136 707.5,-136 707.5,-118 602.5,-118"/>
<polygon fill="none" stroke="black" points="602.5,-118 602.5,-136 707.5,-136 707.5,-118 602.5,-118"/>
<text text-anchor="start" x="687.5" y="-124.2" font-family="Helvetica,sans-Serif" font-size="11.00">2 &gt;</text>
<polygon fill="none" stroke="black" stroke-width="2" points="439,-117 439,-269 708,-269 708,-117 439,-117"/>
</a>
</g>
</g>
<!-- galaxy_synclist&#45;&gt;ansible_ansiblerepository -->
<g id="edge2" class="edge"><title>galaxy_synclist:repository_id:w&#45;&gt;ansible_ansiblerepository:repository_ptr_id:e</title>
<path fill="none" stroke="black" d="M425.203,-167.184C413.738,-164.059 407.065,-158 390.5,-158"/>
<polygon fill="black" stroke="black" points="431.564,-167.992 439.046,-172.571 435.532,-168.496 439.5,-169 439.5,-169 439.5,-169 435.532,-168.496 439.954,-165.429 431.564,-167.992 431.564,-167.992"/>
<ellipse fill="none" stroke="black" cx="428.389" cy="-167.588" rx="3.2" ry="3.2"/>
</g>
<!-- galaxy_synclist&#45;&gt;ansible_ansiblerepository -->
<g id="edge3" class="edge"><title>galaxy_synclist:upstream_repository_id:w&#45;&gt;ansible_ansiblerepository:repository_ptr_id:e</title>
<path fill="none" stroke="black" d="M425.203,-148.816C413.738,-151.941 407.065,-158 390.5,-158"/>
<polygon fill="black" stroke="black" points="431.564,-148.008 439.954,-150.571 435.532,-147.504 439.5,-147 439.5,-147 439.5,-147 435.532,-147.504 439.046,-143.429 431.564,-148.008 431.564,-148.008"/>
<ellipse fill="none" stroke="black" cx="428.389" cy="-148.412" rx="3.2" ry="3.2"/>
</g>
<!-- galaxy_synclist_collections -->
<g id="node4" class="node"><title>galaxy_synclist_collections</title>
<g id="a_node4"><a xlink:href="../../tables/galaxy_synclist_collections.html" xlink:title="galaxy_synclist_collections" target="_top">
<polygon fill="#ffffff" stroke="none" points="762.5,-236 762.5,-342 961.5,-342 961.5,-236 762.5,-236"/>
<polygon fill="#f5f5f5" stroke="none" points="763,-320 763,-342 962,-342 962,-320 763,-320"/>
<polygon fill="none" stroke="black" points="763,-320 763,-342 962,-342 962,-320 763,-320"/>
<text text-anchor="start" x="768" y="-329.2" font-family="Helvetica,sans-Serif" font-weight="bold" font-size="11.00">galaxy_synclist_collections</text>
<text text-anchor="start" x="923" y="-328.2" font-family="Helvetica,sans-Serif" font-size="11.00">[table]</text>
<polygon fill="none" stroke="black" points="763,-298 763,-320 962,-320 962,-298 763,-298"/>
<image xlink:href="../../images/primaryKeys.png" width="11px" height="12px" preserveAspectRatio="xMinYMin meet" x="768" y="-315"/>
<text text-anchor="start" x="793" y="-306.2" font-family="Helvetica,sans-Serif" font-size="11.00">id</text>
<polygon fill="#ffffff" stroke="none" points="763,-276 763,-298 962,-298 962,-276 763,-276"/>
<polygon fill="none" stroke="black" points="763,-276 763,-298 962,-298 962,-276 763,-276"/>
<image xlink:href="../../images/foreignKeys.png" width="11px" height="12px" preserveAspectRatio="xMinYMin meet" x="768" y="-293"/>
<text text-anchor="start" x="793" y="-284.2" font-family="Helvetica,sans-Serif" font-size="11.00">synclist_id</text>
<polygon fill="#ffffff" stroke="none" points="763,-254 763,-276 962,-276 962,-254 763,-254"/>
<polygon fill="none" stroke="black" points="763,-254 763,-276 962,-276 962,-254 763,-254"/>
<image xlink:href="../../images/foreignKeys.png" width="11px" height="12px" preserveAspectRatio="xMinYMin meet" x="768" y="-271"/>
<text text-anchor="start" x="793" y="-262.2" font-family="Helvetica,sans-Serif" font-size="11.00">collection_id</text>
<polygon fill="#ffffff" stroke="none" points="763,-236 763,-254 846,-254 846,-236 763,-236"/>
<polygon fill="none" stroke="black" points="763,-236 763,-254 846,-254 846,-236 763,-236"/>
<text text-anchor="start" x="766" y="-242.2" font-family="Helvetica,sans-Serif" font-size="11.00">&lt; 2</text>
<polygon fill="#ffffff" stroke="none" points="846,-236 846,-254 918,-254 918,-236 846,-236"/>
<polygon fill="none" stroke="black" points="846,-236 846,-254 918,-254 918,-236 846,-236"/>
<text text-anchor="start" x="879" y="-242.2" font-family="Helvetica,sans-Serif" font-size="11.00">8 rows</text>
<polygon fill="#ffffff" stroke="none" points="918,-236 918,-254 962,-254 962,-236 918,-236"/>
<polygon fill="none" stroke="black" points="918,-236 918,-254 962,-254 962,-236 918,-236"/>
<text text-anchor="start" x="952" y="-242.2" font-family="Helvetica,sans-Serif" font-size="11.00"> &#160;</text>
</a>
</g>
</g>
<!-- galaxy_synclist_collections&#45;&gt;galaxy_synclist -->
<g id="edge5" class="edge"><title>galaxy_synclist_collections:synclist_id:w&#45;&gt;galaxy_synclist:id.type:e</title>
<path fill="none" stroke="black" d="M748.045,-282.567C731.963,-269.991 735.701,-235 708.5,-235"/>
<polygon fill="black" stroke="black" points="754.376,-284.578 760.91,-290.431 758.188,-285.789 762,-287 762,-287 762,-287 758.188,-285.789 763.09,-283.569 754.376,-284.578 754.376,-284.578"/>
<ellipse fill="none" stroke="black" cx="751.326" cy="-283.609" rx="3.20001" ry="3.20001"/>
</g>
<!-- ansible_collection -->
<g id="node5" class="node"><title>ansible_collection</title>
<g id="a_node5"><a xlink:href="../../tables/ansible_collection.html" xlink:title="ansible_collection" target="_top">
<polygon fill="#ffffff" stroke="none" points="498,-291 498,-349 649,-349 649,-291 498,-291"/>
<polygon fill="#f5f5f5" stroke="none" points="498.5,-327 498.5,-349 649.5,-349 649.5,-327 498.5,-327"/>
<polygon fill="none" stroke="black" points="498.5,-327 498.5,-349 649.5,-349 649.5,-327 498.5,-327"/>
<text text-anchor="start" x="503.5" y="-336.2" font-family="Helvetica,sans-Serif" font-weight="bold" font-size="11.00">ansible_collection</text>
<text text-anchor="start" x="610.5" y="-335.2" font-family="Helvetica,sans-Serif" font-size="11.00">[table]</text>
<polygon fill="none" stroke="black" points="498.5,-309 498.5,-327 649.5,-327 649.5,-309 498.5,-309"/>
<text text-anchor="start" x="501.5" y="-315.2" font-family="Helvetica,sans-Serif" font-size="11.00">...</text>
<polygon fill="#ffffff" stroke="none" points="498.5,-291 498.5,-309 547.5,-309 547.5,-291 498.5,-291"/>
<polygon fill="none" stroke="black" points="498.5,-291 498.5,-309 547.5,-309 547.5,-291 498.5,-291"/>
<text text-anchor="start" x="501.5" y="-297.2" font-family="Helvetica,sans-Serif" font-size="11.00"> &#160;</text>
<polygon fill="#ffffff" stroke="none" points="547.5,-291 547.5,-309 607.5,-309 607.5,-291 547.5,-291"/>
<polygon fill="none" stroke="black" points="547.5,-291 547.5,-309 607.5,-309 607.5,-291 547.5,-291"/>
<text text-anchor="start" x="568.5" y="-297.2" font-family="Helvetica,sans-Serif" font-size="11.00">4 rows</text>
<polygon fill="#ffffff" stroke="none" points="607.5,-291 607.5,-309 649.5,-309 649.5,-291 607.5,-291"/>
<polygon fill="none" stroke="black" points="607.5,-291 607.5,-309 649.5,-309 649.5,-291 607.5,-291"/>
<text text-anchor="start" x="629.5" y="-297.2" font-family="Helvetica,sans-Serif" font-size="11.00">2 &gt;</text>
</a>
</g>
</g>
<!-- galaxy_synclist_collections&#45;&gt;ansible_collection -->
<g id="edge4" class="edge"><title>galaxy_synclist_collections:collection_id:w&#45;&gt;ansible_collection:elipses:e</title>
<path fill="none" stroke="black" d="M747.613,-266.363C706.307,-274.659 700.118,-318 650.5,-318"/>
<polygon fill="black" stroke="black" points="754.036,-265.755 762.34,-268.584 758.018,-265.377 762,-265 762,-265 762,-265 758.018,-265.377 761.66,-261.416 754.036,-265.755 754.036,-265.755"/>
<ellipse fill="none" stroke="black" cx="750.85" cy="-266.057" rx="3.2" ry="3.2"/>
</g>
<!-- galaxy_synclist_namespaces -->
<g id="node6" class="node"><title>galaxy_synclist_namespaces</title>
<g id="a_node6"><a xlink:href="../../tables/galaxy_synclist_namespaces.html" xlink:title="galaxy_synclist_namespaces" target="_top">
<polygon fill="#ffffff" stroke="none" points="758,-98 758,-204 966,-204 966,-98 758,-98"/>
<polygon fill="#f5f5f5" stroke="none" points="758,-182 758,-204 966,-204 966,-182 758,-182"/>
<polygon fill="none" stroke="black" points="758,-182 758,-204 966,-204 966,-182 758,-182"/>
<text text-anchor="start" x="763" y="-191.2" font-family="Helvetica,sans-Serif" font-weight="bold" font-size="11.00">galaxy_synclist_namespaces</text>
<text text-anchor="start" x="927" y="-190.2" font-family="Helvetica,sans-Serif" font-size="11.00">[table]</text>
<polygon fill="none" stroke="black" points="758,-160 758,-182 966,-182 966,-160 758,-160"/>
<image xlink:href="../../images/primaryKeys.png" width="11px" height="12px" preserveAspectRatio="xMinYMin meet" x="763" y="-177"/>
<text text-anchor="start" x="788" y="-168.2" font-family="Helvetica,sans-Serif" font-size="11.00">id</text>
<polygon fill="#ffffff" stroke="none" points="758,-138 758,-160 966,-160 966,-138 758,-138"/>
<polygon fill="none" stroke="black" points="758,-138 758,-160 966,-160 966,-138 758,-138"/>
<image xlink:href="../../images/foreignKeys.png" width="11px" height="12px" preserveAspectRatio="xMinYMin meet" x="763" y="-155"/>
<text text-anchor="start" x="788" y="-146.2" font-family="Helvetica,sans-Serif" font-size="11.00">synclist_id</text>
<polygon fill="#ffffff" stroke="none" points="758,-116 758,-138 966,-138 966,-116 758,-116"/>
<polygon fill="none" stroke="black" points="758,-116 758,-138 966,-138 966,-116 758,-116"/>
<image xlink:href="../../images/foreignKeys.png" width="11px" height="12px" preserveAspectRatio="xMinYMin meet" x="763" y="-133"/>
<text text-anchor="start" x="788" y="-124.2" font-family="Helvetica,sans-Serif" font-size="11.00">namespace_id</text>
<polygon fill="#ffffff" stroke="none" points="758,-98 758,-116 842,-116 842,-98 758,-98"/>
<polygon fill="none" stroke="black" points="758,-98 758,-116 842,-116 842,-98 758,-98"/>
<text text-anchor="start" x="761" y="-104.2" font-family="Helvetica,sans-Serif" font-size="11.00">&lt; 2</text>
<polygon fill="#ffffff" stroke="none" points="842,-98 842,-116 922,-116 922,-98 842,-98"/>
<polygon fill="none" stroke="black" points="842,-98 842,-116 922,-116 922,-98 842,-98"/>
<text text-anchor="start" x="876" y="-104.2" font-family="Helvetica,sans-Serif" font-size="11.00">13 rows</text>
<polygon fill="#ffffff" stroke="none" points="922,-98 922,-116 966,-116 966,-98 922,-98"/>
<polygon fill="none" stroke="black" points="922,-98 922,-116 966,-116 966,-98 922,-98"/>
<text text-anchor="start" x="956" y="-104.2" font-family="Helvetica,sans-Serif" font-size="11.00"> &#160;</text>
</a>
</g>
</g>
<!-- galaxy_synclist_namespaces&#45;&gt;galaxy_synclist -->
<g id="edge7" class="edge"><title>galaxy_synclist_namespaces:synclist_id:w&#45;&gt;galaxy_synclist:id.type:e</title>
<path fill="none" stroke="black" d="M743.239,-153.383C722.3,-170.908 746.382,-235 708.5,-235"/>
<polygon fill="black" stroke="black" points="749.377,-151.428 758.093,-152.43 753.189,-150.214 757,-149 757,-149 757,-149 753.189,-150.214 755.907,-145.57 749.377,-151.428 749.377,-151.428"/>
<ellipse fill="none" stroke="black" cx="746.328" cy="-152.399" rx="3.20001" ry="3.20001"/>
</g>
<!-- galaxy_namespace -->
<g id="node7" class="node"><title>galaxy_namespace</title>
<g id="a_node7"><a xlink:href="../../tables/galaxy_namespace.html" xlink:title="galaxy_namespace" target="_top">
<polygon fill="#ffffff" stroke="none" points="496.5,-37 496.5,-95 650.5,-95 650.5,-37 496.5,-37"/>
<polygon fill="#f5f5f5" stroke="none" points="496.5,-73 496.5,-95 650.5,-95 650.5,-73 496.5,-73"/>
<polygon fill="none" stroke="black" points="496.5,-73 496.5,-95 650.5,-95 650.5,-73 496.5,-73"/>
<text text-anchor="start" x="501.5" y="-82.2" font-family="Helvetica,sans-Serif" font-weight="bold" font-size="11.00">galaxy_namespace</text>
<text text-anchor="start" x="611.5" y="-81.2" font-family="Helvetica,sans-Serif" font-size="11.00">[table]</text>
<polygon fill="none" stroke="black" points="496.5,-55 496.5,-73 650.5,-73 650.5,-55 496.5,-55"/>
<text text-anchor="start" x="499.5" y="-61.2" font-family="Helvetica,sans-Serif" font-size="11.00">...</text>
<polygon fill="#ffffff" stroke="none" points="496.5,-37 496.5,-55 543.5,-55 543.5,-37 496.5,-37"/>
<polygon fill="none" stroke="black" points="496.5,-37 496.5,-55 543.5,-55 543.5,-37 496.5,-37"/>
<text text-anchor="start" x="499.5" y="-43.2" font-family="Helvetica,sans-Serif" font-size="11.00"> &#160;</text>
<polygon fill="#ffffff" stroke="none" points="543.5,-37 543.5,-55 609.5,-55 609.5,-37 543.5,-37"/>
<polygon fill="none" stroke="black" points="543.5,-37 543.5,-55 609.5,-55 609.5,-37 543.5,-37"/>
<text text-anchor="start" x="563.5" y="-43.2" font-family="Helvetica,sans-Serif" font-size="11.00">55 rows</text>
<polygon fill="#ffffff" stroke="none" points="609.5,-37 609.5,-55 650.5,-55 650.5,-37 609.5,-37"/>
<polygon fill="none" stroke="black" points="609.5,-37 609.5,-55 650.5,-55 650.5,-37 609.5,-37"/>
<text text-anchor="start" x="630.5" y="-43.2" font-family="Helvetica,sans-Serif" font-size="11.00">3 &gt;</text>
</a>
</g>
</g>
<!-- galaxy_synclist_namespaces&#45;&gt;galaxy_namespace -->
<g id="edge6" class="edge"><title>galaxy_synclist_namespaces:namespace_id:w&#45;&gt;galaxy_namespace:elipses:e</title>
<path fill="none" stroke="black" d="M743.364,-121.186C716.293,-105.59 662.593,-64 651.5,-64"/>
<polygon fill="black" stroke="black" points="749.641,-123.862 755.588,-130.312 753.32,-125.431 757,-127 757,-127 757,-127 753.32,-125.431 758.412,-123.688 749.641,-123.862 749.641,-123.862"/>
<ellipse fill="none" stroke="black" cx="746.697" cy="-122.607" rx="3.20001" ry="3.20001"/>
</g>
</g>
</svg>
