<?xml version="1.0" encoding="UTF-8" standalone="no"?>
<!DOCTYPE svg PUBLIC "-//W3C//DTD SVG 1.1//EN"
 "http://www.w3.org/Graphics/SVG/1.1/DTD/svg11.dtd">
<!-- Generated by graphviz version 2.38.0 (20140413.2041)
 -->
<!-- Title: oneDegreeRelationshipsDiagram Pages: 1 -->
<svg width="502pt" height="721pt"
 viewBox="0.00 0.00 502.00 721.00" xmlns="http://www.w3.org/2000/svg" xmlns:xlink="http://www.w3.org/1999/xlink">
<g id="graph0" class="graph" transform="scale(1 1) rotate(0) translate(4 717)">
<title>oneDegreeRelationshipsDiagram</title>
<polygon fill="#ffffff" stroke="none" points="-4,4 -4,-717 498,-717 498,4 -4,4"/>
<text text-anchor="middle" x="74.5" y="-7.2" font-family="Helvetica,sans-Serif" font-size="11.00">Generated by SchemaSpy</text>
<!-- authtoken_token -->
<g id="node1" class="node"><title>authtoken_token</title>
<g id="a_node1"><a xlink:href="../../tables/authtoken_token.html" xlink:title="authtoken_token" target="_top">
<polygon fill="#ffffff" stroke="none" points="299,-607 299,-709 445,-709 445,-607 299,-607"/>
<polygon fill="#f5f5f5" stroke="none" points="299,-687 299,-709 445,-709 445,-687 299,-687"/>
<polygon fill="none" stroke="black" points="299,-687 299,-709 445,-709 445,-687 299,-687"/>
<text text-anchor="start" x="304" y="-696.2" font-family="Helvetica,sans-Serif" font-weight="bold" font-size="11.00">authtoken_token</text>
<text text-anchor="start" x="406" y="-695.2" font-family="Helvetica,sans-Serif" font-size="11.00">[table]</text>
<polygon fill="none" stroke="black" points="299,-665 299,-687 445,-687 445,-665 299,-665"/>
<image xlink:href="../../images/primaryKeys.png" width="11px" height="12px" preserveAspectRatio="xMinYMin meet" x="304" y="-682"/>
<text text-anchor="start" x="330" y="-673.2" font-family="Helvetica,sans-Serif" font-size="11.00">key</text>
<polygon fill="#ffffff" stroke="none" points="299,-643 299,-665 445,-665 445,-643 299,-643"/>
<polygon fill="none" stroke="black" points="299,-643 299,-665 445,-665 445,-643 299,-643"/>
<image xlink:href="../../images/foreignKeys.png" width="11px" height="12px" preserveAspectRatio="xMinYMin meet" x="304" y="-660"/>
<text text-anchor="start" x="330" y="-651.2" font-family="Helvetica,sans-Serif" font-size="11.00">user_id</text>
<polygon fill="none" stroke="black" points="299,-625 299,-643 445,-643 445,-625 299,-625"/>
<text text-anchor="start" x="302" y="-631.2" font-family="Helvetica,sans-Serif" font-size="11.00">...</text>
<polygon fill="#ffffff" stroke="none" points="299,-607 299,-625 356,-625 356,-607 299,-607"/>
<polygon fill="none" stroke="black" points="299,-607 299,-625 356,-625 356,-607 299,-607"/>
<text text-anchor="start" x="302" y="-613.2" font-family="Helvetica,sans-Serif" font-size="11.00">&lt; 1</text>
<polygon fill="#ffffff" stroke="none" points="356,-607 356,-625 415,-625 415,-607 356,-607"/>
<polygon fill="none" stroke="black" points="356,-607 356,-625 415,-625 415,-607 356,-607"/>
<text text-anchor="start" x="376" y="-613.2" font-family="Helvetica,sans-Serif" font-size="11.00">4 rows</text>
<polygon fill="#ffffff" stroke="none" points="415,-607 415,-625 445,-625 445,-607 415,-607"/>
<polygon fill="none" stroke="black" points="415,-607 415,-625 445,-625 445,-607 415,-607"/>
<text text-anchor="start" x="435" y="-613.2" font-family="Helvetica,sans-Serif" font-size="11.00"> &#160;</text>
</a>
</g>
</g>
<!-- galaxy_user -->
<g id="node2" class="node"><title>galaxy_user</title>
<g id="a_node2"><a xlink:href="../../tables/galaxy_user.html" xlink:title="galaxy_user" target="_top">
<polygon fill="#ffffff" stroke="none" points="8,-135 8,-421 209,-421 209,-135 8,-135"/>
<polygon fill="#f5f5f5" stroke="none" points="10.5,-397 10.5,-419 207.5,-419 207.5,-397 10.5,-397"/>
<polygon fill="none" stroke="black" points="10.5,-397 10.5,-419 207.5,-419 207.5,-397 10.5,-397"/>
<text text-anchor="start" x="15.5" y="-406.2" font-family="Helvetica,sans-Serif" font-weight="bold" font-size="11.00">galaxy_user</text>
<text text-anchor="start" x="168.5" y="-405.2" font-family="Helvetica,sans-Serif" font-size="11.00">[table]</text>
<polygon fill="none" stroke="black" points="10.5,-375 10.5,-397 105.5,-397 105.5,-375 10.5,-375"/>
<image xlink:href="../../images/primaryKeys.png" width="11px" height="12px" preserveAspectRatio="xMinYMin meet" x="15.5" y="-392"/>
<text text-anchor="start" x="30.5" y="-383.2" font-family="Helvetica,sans-Serif" font-size="11.00">id</text>
<polygon fill="none" stroke="black" points="105.5,-375 105.5,-397 207.5,-397 207.5,-375 105.5,-375"/>
<text text-anchor="start" x="108.5" y="-383.2" font-family="Helvetica,sans-Serif" font-size="11.00">serial[10]</text>
<polygon fill="none" stroke="black" points="10.5,-353 10.5,-375 105.5,-375 105.5,-353 10.5,-353"/>
<text text-anchor="start" x="30.5" y="-361.2" font-family="Helvetica,sans-Serif" font-size="11.00">password</text>
<polygon fill="none" stroke="black" points="105.5,-353 105.5,-375 207.5,-375 207.5,-353 105.5,-353"/>
<text text-anchor="start" x="108.5" y="-361.2" font-family="Helvetica,sans-Serif" font-size="11.00">varchar[128]</text>
<polygon fill="none" stroke="black" points="10.5,-331 10.5,-353 105.5,-353 105.5,-331 10.5,-331"/>
<text text-anchor="start" x="30.5" y="-339.2" font-family="Helvetica,sans-Serif" font-size="11.00">last_login</text>
<polygon fill="none" stroke="black" points="105.5,-331 105.5,-353 207.5,-353 207.5,-331 105.5,-331"/>
<text text-anchor="start" x="108.5" y="-339.2" font-family="Helvetica,sans-Serif" font-size="11.00">timestamptz[35,6]</text>
<polygon fill="none" stroke="black" points="10.5,-309 10.5,-331 105.5,-331 105.5,-309 10.5,-309"/>
<text text-anchor="start" x="30.5" y="-317.2" font-family="Helvetica,sans-Serif" font-size="11.00">is_superuser</text>
<polygon fill="none" stroke="black" points="105.5,-309 105.5,-331 207.5,-331 207.5,-309 105.5,-309"/>
<text text-anchor="start" x="108.5" y="-317.2" font-family="Helvetica,sans-Serif" font-size="11.00">bool[1]</text>
<polygon fill="#ffffff" stroke="none" points="10.5,-287 10.5,-309 105.5,-309 105.5,-287 10.5,-287"/>
<polygon fill="none" stroke="black" points="10.5,-287 10.5,-309 105.5,-309 105.5,-287 10.5,-287"/>
<text text-anchor="start" x="30.5" y="-295.2" font-family="Helvetica,sans-Serif" font-size="11.00">username</text>
<polygon fill="none" stroke="black" points="105.5,-287 105.5,-309 207.5,-309 207.5,-287 105.5,-287"/>
<text text-anchor="start" x="108.5" y="-295.2" font-family="Helvetica,sans-Serif" font-size="11.00">varchar[150]</text>
<polygon fill="none" stroke="black" points="10.5,-265 10.5,-287 105.5,-287 105.5,-265 10.5,-265"/>
<text text-anchor="start" x="30.5" y="-273.2" font-family="Helvetica,sans-Serif" font-size="11.00">first_name</text>
<polygon fill="none" stroke="black" points="105.5,-265 105.5,-287 207.5,-287 207.5,-265 105.5,-265"/>
<text text-anchor="start" x="108.5" y="-273.2" font-family="Helvetica,sans-Serif" font-size="11.00">varchar[30]</text>
<polygon fill="none" stroke="black" points="10.5,-243 10.5,-265 105.5,-265 105.5,-243 10.5,-243"/>
<text text-anchor="start" x="30.5" y="-251.2" font-family="Helvetica,sans-Serif" font-size="11.00">last_name</text>
<polygon fill="none" stroke="black" points="105.5,-243 105.5,-265 207.5,-265 207.5,-243 105.5,-243"/>
<text text-anchor="start" x="108.5" y="-251.2" font-family="Helvetica,sans-Serif" font-size="11.00">varchar[150]</text>
<polygon fill="none" stroke="black" points="10.5,-221 10.5,-243 105.5,-243 105.5,-221 10.5,-221"/>
<text text-anchor="start" x="30.5" y="-229.2" font-family="Helvetica,sans-Serif" font-size="11.00">email</text>
<polygon fill="none" stroke="black" points="105.5,-221 105.5,-243 207.5,-243 207.5,-221 105.5,-221"/>
<text text-anchor="start" x="108.5" y="-229.2" font-family="Helvetica,sans-Serif" font-size="11.00">varchar[254]</text>
<polygon fill="none" stroke="black" points="10.5,-199 10.5,-221 105.5,-221 105.5,-199 10.5,-199"/>
<text text-anchor="start" x="30.5" y="-207.2" font-family="Helvetica,sans-Serif" font-size="11.00">is_staff</text>
<polygon fill="none" stroke="black" points="105.5,-199 105.5,-221 207.5,-221 207.5,-199 105.5,-199"/>
<text text-anchor="start" x="108.5" y="-207.2" font-family="Helvetica,sans-Serif" font-size="11.00">bool[1]</text>
<polygon fill="none" stroke="black" points="10.5,-177 10.5,-199 105.5,-199 105.5,-177 10.5,-177"/>
<text text-anchor="start" x="30.5" y="-185.2" font-family="Helvetica,sans-Serif" font-size="11.00">is_active</text>
<polygon fill="none" stroke="black" points="105.5,-177 105.5,-199 207.5,-199 207.5,-177 105.5,-177"/>
<text text-anchor="start" x="108.5" y="-185.2" font-family="Helvetica,sans-Serif" font-size="11.00">bool[1]</text>
<polygon fill="none" stroke="black" points="10.5,-155 10.5,-177 105.5,-177 105.5,-155 10.5,-155"/>
<text text-anchor="start" x="30.5" y="-163.2" font-family="Helvetica,sans-Serif" font-size="11.00">date_joined</text>
<polygon fill="none" stroke="black" points="105.5,-155 105.5,-177 207.5,-177 207.5,-155 105.5,-155"/>
<text text-anchor="start" x="108.5" y="-163.2" font-family="Helvetica,sans-Serif" font-size="11.00">timestamptz[35,6]</text>
<polygon fill="#ffffff" stroke="none" points="10.5,-137 10.5,-155 44.5,-155 44.5,-137 10.5,-137"/>
<polygon fill="none" stroke="black" points="10.5,-137 10.5,-155 44.5,-155 44.5,-137 10.5,-137"/>
<text text-anchor="start" x="13.5" y="-143.2" font-family="Helvetica,sans-Serif" font-size="11.00">&lt; 0</text>
<polygon fill="#ffffff" stroke="none" points="44.5,-137 44.5,-155 105.5,-155 105.5,-137 44.5,-137"/>
<polygon fill="none" stroke="black" points="44.5,-137 44.5,-155 105.5,-155 105.5,-137 44.5,-137"/>
<text text-anchor="start" x="59.5" y="-143.2" font-family="Helvetica,sans-Serif" font-size="11.00">17 rows</text>
<polygon fill="#ffffff" stroke="none" points="105.5,-137 105.5,-155 207.5,-155 207.5,-137 105.5,-137"/>
<polygon fill="none" stroke="black" points="105.5,-137 105.5,-155 207.5,-155 207.5,-137 105.5,-137"/>
<text text-anchor="start" x="187.5" y="-143.2" font-family="Helvetica,sans-Serif" font-size="11.00">5 &gt;</text>
<polygon fill="none" stroke="black" stroke-width="2" points="9,-136 9,-420 208,-420 208,-136 9,-136"/>
</a>
</g>
</g>
<!-- authtoken_token&#45;&gt;galaxy_user -->
<g id="edge1" class="edge"><title>authtoken_token:user_id:w&#45;&gt;galaxy_user:id.type:e</title>
<path fill="none" stroke="black" d="M287.623,-652.921C264.56,-647.603 262.64,-623.365 250,-597 229.341,-553.909 256.287,-386 208.5,-386"/>
<polygon fill="black" stroke="black" points="297.618,-649.939 296.791,-657.896 295.199,-657.73 296.026,-649.773 297.618,-649.939"/>
<polyline fill="none" stroke="black" points="298,-654 294.021,-653.586 "/>
<ellipse fill="none" stroke="black" cx="290.839" cy="-653.256" rx="3.2" ry="3.2"/>
</g>
<!-- django_admin_log -->
<g id="node3" class="node"><title>django_admin_log</title>
<g id="a_node3"><a xlink:href="../../tables/django_admin_log.html" xlink:title="django_admin_log" target="_top">
<polygon fill="#ffffff" stroke="none" points="297.5,-462 297.5,-586 446.5,-586 446.5,-462 297.5,-462"/>
<polygon fill="#f5f5f5" stroke="none" points="298,-564 298,-586 447,-586 447,-564 298,-564"/>
<polygon fill="none" stroke="black" points="298,-564 298,-586 447,-586 447,-564 298,-564"/>
<text text-anchor="start" x="303" y="-573.2" font-family="Helvetica,sans-Serif" font-weight="bold" font-size="11.00">django_admin_log</text>
<text text-anchor="start" x="408" y="-572.2" font-family="Helvetica,sans-Serif" font-size="11.00">[table]</text>
<polygon fill="none" stroke="black" points="298,-542 298,-564 447,-564 447,-542 298,-542"/>
<image xlink:href="../../images/primaryKeys.png" width="11px" height="12px" preserveAspectRatio="xMinYMin meet" x="303" y="-559"/>
<text text-anchor="start" x="329" y="-550.2" font-family="Helvetica,sans-Serif" font-size="11.00">id</text>
<polygon fill="#ffffff" stroke="none" points="298,-520 298,-542 447,-542 447,-520 298,-520"/>
<polygon fill="none" stroke="black" points="298,-520 298,-542 447,-542 447,-520 298,-520"/>
<image xlink:href="../../images/foreignKeys.png" width="11px" height="12px" preserveAspectRatio="xMinYMin meet" x="303" y="-537"/>
<text text-anchor="start" x="329" y="-528.2" font-family="Helvetica,sans-Serif" font-size="11.00">content_type_id</text>
<polygon fill="#ffffff" stroke="none" points="298,-498 298,-520 447,-520 447,-498 298,-498"/>
<polygon fill="none" stroke="black" points="298,-498 298,-520 447,-520 447,-498 298,-498"/>
<image xlink:href="../../images/foreignKeys.png" width="11px" height="12px" preserveAspectRatio="xMinYMin meet" x="303" y="-515"/>
<text text-anchor="start" x="329" y="-506.2" font-family="Helvetica,sans-Serif" font-size="11.00">user_id</text>
<polygon fill="none" stroke="black" points="298,-480 298,-498 447,-498 447,-480 298,-480"/>
<text text-anchor="start" x="301" y="-486.2" font-family="Helvetica,sans-Serif" font-size="11.00">...</text>
<polygon fill="#ffffff" stroke="none" points="298,-462 298,-480 350,-480 350,-462 298,-462"/>
<polygon fill="none" stroke="black" points="298,-462 298,-480 350,-480 350,-462 298,-462"/>
<text text-anchor="start" x="301" y="-468.2" font-family="Helvetica,sans-Serif" font-size="11.00">&lt; 2</text>
<polygon fill="#ffffff" stroke="none" points="350,-462 350,-480 419,-480 419,-462 350,-462"/>
<polygon fill="none" stroke="black" points="350,-462 350,-480 419,-480 419,-462 350,-462"/>
<text text-anchor="start" x="367" y="-468.2" font-family="Helvetica,sans-Serif" font-size="11.00">229 rows</text>
<polygon fill="#ffffff" stroke="none" points="419,-462 419,-480 447,-480 447,-462 419,-462"/>
<polygon fill="none" stroke="black" points="419,-462 419,-480 447,-480 447,-462 419,-462"/>
<text text-anchor="start" x="437" y="-468.2" font-family="Helvetica,sans-Serif" font-size="11.00"> &#160;</text>
</a>
</g>
</g>
<!-- django_admin_log&#45;&gt;galaxy_user -->
<g id="edge2" class="edge"><title>django_admin_log:user_id:w&#45;&gt;galaxy_user:id.type:e</title>
<path fill="none" stroke="black" d="M282.61,-506.255C265.199,-498.203 265.769,-473.836 250,-452 229.714,-423.909 243.15,-386 208.5,-386"/>
<polygon fill="black" stroke="black" points="289.142,-507.501 296.326,-512.536 293.071,-508.251 297,-509 297,-509 297,-509 293.071,-508.251 297.674,-505.464 289.142,-507.501 289.142,-507.501"/>
<ellipse fill="none" stroke="black" cx="285.998" cy="-506.902" rx="3.2" ry="3.2"/>
</g>
<!-- galaxy_user_groups -->
<g id="node4" class="node"><title>galaxy_user_groups</title>
<g id="a_node4"><a xlink:href="../../tables/galaxy_user_groups.html" xlink:title="galaxy_user_groups" target="_top">
<polygon fill="#ffffff" stroke="none" points="293.5,-335 293.5,-441 450.5,-441 450.5,-335 293.5,-335"/>
<polygon fill="#f5f5f5" stroke="none" points="294,-419 294,-441 451,-441 451,-419 294,-419"/>
<polygon fill="none" stroke="black" points="294,-419 294,-441 451,-441 451,-419 294,-419"/>
<text text-anchor="start" x="299" y="-428.2" font-family="Helvetica,sans-Serif" font-weight="bold" font-size="11.00">galaxy_user_groups</text>
<text text-anchor="start" x="412" y="-427.2" font-family="Helvetica,sans-Serif" font-size="11.00">[table]</text>
<polygon fill="none" stroke="black" points="294,-397 294,-419 451,-419 451,-397 294,-397"/>
<image xlink:href="../../images/primaryKeys.png" width="11px" height="12px" preserveAspectRatio="xMinYMin meet" x="299" y="-414"/>
<text text-anchor="start" x="324" y="-405.2" font-family="Helvetica,sans-Serif" font-size="11.00">id</text>
<polygon fill="#ffffff" stroke="none" points="294,-375 294,-397 451,-397 451,-375 294,-375"/>
<polygon fill="none" stroke="black" points="294,-375 294,-397 451,-397 451,-375 294,-375"/>
<image xlink:href="../../images/foreignKeys.png" width="11px" height="12px" preserveAspectRatio="xMinYMin meet" x="299" y="-392"/>
<text text-anchor="start" x="324" y="-383.2" font-family="Helvetica,sans-Serif" font-size="11.00">user_id</text>
<polygon fill="#ffffff" stroke="none" points="294,-353 294,-375 451,-375 451,-353 294,-353"/>
<polygon fill="none" stroke="black" points="294,-353 294,-375 451,-375 451,-353 294,-353"/>
<image xlink:href="../../images/foreignKeys.png" width="11px" height="12px" preserveAspectRatio="xMinYMin meet" x="299" y="-370"/>
<text text-anchor="start" x="324" y="-361.2" font-family="Helvetica,sans-Serif" font-size="11.00">group_id</text>
<polygon fill="#ffffff" stroke="none" points="294,-335 294,-353 353,-353 353,-335 294,-335"/>
<polygon fill="none" stroke="black" points="294,-335 294,-353 353,-353 353,-335 294,-335"/>
<text text-anchor="start" x="297" y="-341.2" font-family="Helvetica,sans-Serif" font-size="11.00">&lt; 2</text>
<polygon fill="#ffffff" stroke="none" points="353,-335 353,-353 420,-353 420,-335 353,-335"/>
<polygon fill="none" stroke="black" points="353,-335 353,-353 420,-353 420,-335 353,-335"/>
<text text-anchor="start" x="374" y="-341.2" font-family="Helvetica,sans-Serif" font-size="11.00">18 rows</text>
<polygon fill="#ffffff" stroke="none" points="420,-335 420,-353 451,-353 451,-335 420,-335"/>
<polygon fill="none" stroke="black" points="420,-335 420,-353 451,-353 451,-335 420,-335"/>
<text text-anchor="start" x="441" y="-341.2" font-family="Helvetica,sans-Serif" font-size="11.00"> &#160;</text>
</a>
</g>
</g>
<!-- galaxy_user_groups&#45;&gt;galaxy_user -->
<g id="edge3" class="edge"><title>galaxy_user_groups:user_id:w&#45;&gt;galaxy_user:id.type:e</title>
<path fill="none" stroke="black" d="M278.311,-386C252.142,-386 240.628,-386 208.5,-386"/>
<polygon fill="black" stroke="black" points="285,-386 293,-389.6 289,-386 293,-386 293,-386 293,-386 289,-386 293,-382.4 285,-386 285,-386"/>
<ellipse fill="none" stroke="black" cx="281.8" cy="-386" rx="3.2" ry="3.2"/>
</g>
<!-- galaxy_user_user_permissions -->
<g id="node5" class="node"><title>galaxy_user_user_permissions</title>
<g id="a_node5"><a xlink:href="../../tables/galaxy_user_user_permissions.html" xlink:title="galaxy_user_user_permissions" target="_top">
<polygon fill="#ffffff" stroke="none" points="263.5,-208 263.5,-314 480.5,-314 480.5,-208 263.5,-208"/>
<polygon fill="#f5f5f5" stroke="none" points="264,-292 264,-314 481,-314 481,-292 264,-292"/>
<polygon fill="none" stroke="black" points="264,-292 264,-314 481,-314 481,-292 264,-292"/>
<text text-anchor="start" x="269" y="-301.2" font-family="Helvetica,sans-Serif" font-weight="bold" font-size="11.00">galaxy_user_user_permissions</text>
<text text-anchor="start" x="442" y="-300.2" font-family="Helvetica,sans-Serif" font-size="11.00">[table]</text>
<polygon fill="none" stroke="black" points="264,-270 264,-292 481,-292 481,-270 264,-270"/>
<image xlink:href="../../images/primaryKeys.png" width="11px" height="12px" preserveAspectRatio="xMinYMin meet" x="269" y="-287"/>
<text text-anchor="start" x="293" y="-278.2" font-family="Helvetica,sans-Serif" font-size="11.00">id</text>
<polygon fill="#ffffff" stroke="none" points="264,-248 264,-270 481,-270 481,-248 264,-248"/>
<polygon fill="none" stroke="black" points="264,-248 264,-270 481,-270 481,-248 264,-248"/>
<image xlink:href="../../images/foreignKeys.png" width="11px" height="12px" preserveAspectRatio="xMinYMin meet" x="269" y="-265"/>
<text text-anchor="start" x="293" y="-256.2" font-family="Helvetica,sans-Serif" font-size="11.00">user_id</text>
<polygon fill="#ffffff" stroke="none" points="264,-226 264,-248 481,-248 481,-226 264,-226"/>
<polygon fill="none" stroke="black" points="264,-226 264,-248 481,-248 481,-226 264,-226"/>
<image xlink:href="../../images/foreignKeys.png" width="11px" height="12px" preserveAspectRatio="xMinYMin meet" x="269" y="-243"/>
<text text-anchor="start" x="293" y="-234.2" font-family="Helvetica,sans-Serif" font-size="11.00">permission_id</text>
<polygon fill="#ffffff" stroke="none" points="264,-208 264,-226 356,-226 356,-208 264,-208"/>
<polygon fill="none" stroke="black" points="264,-208 264,-226 356,-226 356,-208 264,-208"/>
<text text-anchor="start" x="267" y="-214.2" font-family="Helvetica,sans-Serif" font-size="11.00">&lt; 2</text>
<polygon fill="#ffffff" stroke="none" points="356,-208 356,-226 433,-226 433,-208 356,-208"/>
<polygon fill="none" stroke="black" points="356,-208 356,-226 433,-226 433,-208 356,-208"/>
<text text-anchor="start" x="394" y="-214.2" font-family="Helvetica,sans-Serif" font-size="11.00">0 rows</text>
<polygon fill="#ffffff" stroke="none" points="433,-208 433,-226 481,-226 481,-208 433,-208"/>
<polygon fill="none" stroke="black" points="433,-208 433,-226 481,-226 481,-208 433,-208"/>
<text text-anchor="start" x="471" y="-214.2" font-family="Helvetica,sans-Serif" font-size="11.00"> &#160;</text>
</a>
</g>
</g>
<!-- galaxy_user_user_permissions&#45;&gt;galaxy_user -->
<g id="edge4" class="edge"><title>galaxy_user_user_permissions:user_id:w&#45;&gt;galaxy_user:id.type:e</title>
<path fill="none" stroke="black" d="M248.933,-262.139C213.252,-281.696 264.164,-386 208.5,-386"/>
<polygon fill="black" stroke="black" points="255.192,-260.743 263.784,-262.514 259.096,-259.871 263,-259 263,-259 263,-259 259.096,-259.871 262.216,-255.486 255.192,-260.743 255.192,-260.743"/>
<ellipse fill="none" stroke="black" cx="252.069" cy="-261.44" rx="3.2" ry="3.2"/>
</g>
<!-- guardian_userobjectpermission -->
<g id="node6" class="node"><title>guardian_userobjectpermission</title>
<g id="a_node6"><a xlink:href="../../tables/guardian_userobjectpermission.html" xlink:title="guardian_userobjectpermission" target="_top">
<polygon fill="#ffffff" stroke="none" points="258,-37 258,-187 486,-187 486,-37 258,-37"/>
<polygon fill="#f5f5f5" stroke="none" points="258,-165 258,-187 486,-187 486,-165 258,-165"/>
<polygon fill="none" stroke="black" points="258,-165 258,-187 486,-187 486,-165 258,-165"/>
<text text-anchor="start" x="263" y="-174.2" font-family="Helvetica,sans-Serif" font-weight="bold" font-size="11.00">guardian_userobjectpermission</text>
<text text-anchor="start" x="447" y="-173.2" font-family="Helvetica,sans-Serif" font-size="11.00">[table]</text>
<polygon fill="none" stroke="black" points="258,-143 258,-165 486,-165 486,-143 258,-143"/>
<image xlink:href="../../images/primaryKeys.png" width="11px" height="12px" preserveAspectRatio="xMinYMin meet" x="263" y="-160"/>
<text text-anchor="start" x="288" y="-151.2" font-family="Helvetica,sans-Serif" font-size="11.00">id</text>
<polygon fill="#ffffff" stroke="none" points="258,-121 258,-143 486,-143 486,-121 258,-121"/>
<polygon fill="none" stroke="black" points="258,-121 258,-143 486,-143 486,-121 258,-121"/>
<text text-anchor="start" x="288" y="-129.2" font-family="Helvetica,sans-Serif" font-size="11.00">object_pk</text>
<polygon fill="#ffffff" stroke="none" points="258,-99 258,-121 486,-121 486,-99 258,-99"/>
<polygon fill="none" stroke="black" points="258,-99 258,-121 486,-121 486,-99 258,-99"/>
<image xlink:href="../../images/foreignKeys.png" width="11px" height="12px" preserveAspectRatio="xMinYMin meet" x="263" y="-116"/>
<text text-anchor="start" x="288" y="-107.2" font-family="Helvetica,sans-Serif" font-size="11.00">content_type_id</text>
<polygon fill="#ffffff" stroke="none" points="258,-77 258,-99 486,-99 486,-77 258,-77"/>
<polygon fill="none" stroke="black" points="258,-77 258,-99 486,-99 486,-77 258,-77"/>
<image xlink:href="../../images/foreignKeys.png" width="11px" height="12px" preserveAspectRatio="xMinYMin meet" x="263" y="-94"/>
<text text-anchor="start" x="288" y="-85.2" font-family="Helvetica,sans-Serif" font-size="11.00">permission_id</text>
<polygon fill="#ffffff" stroke="none" points="258,-55 258,-77 486,-77 486,-55 258,-55"/>
<polygon fill="none" stroke="black" points="258,-55 258,-77 486,-77 486,-55 258,-55"/>
<image xlink:href="../../images/foreignKeys.png" width="11px" height="12px" preserveAspectRatio="xMinYMin meet" x="263" y="-72"/>
<text text-anchor="start" x="288" y="-63.2" font-family="Helvetica,sans-Serif" font-size="11.00">user_id</text>
<polygon fill="#ffffff" stroke="none" points="258,-37 258,-55 356,-55 356,-37 258,-37"/>
<polygon fill="none" stroke="black" points="258,-37 258,-55 356,-55 356,-37 258,-37"/>
<text text-anchor="start" x="261" y="-43.2" font-family="Helvetica,sans-Serif" font-size="11.00">&lt; 3</text>
<polygon fill="#ffffff" stroke="none" points="356,-37 356,-55 435,-55 435,-37 356,-37"/>
<polygon fill="none" stroke="black" points="356,-37 356,-55 435,-55 435,-37 356,-37"/>
<text text-anchor="start" x="396" y="-43.2" font-family="Helvetica,sans-Serif" font-size="11.00">0 rows</text>
<polygon fill="#ffffff" stroke="none" points="435,-37 435,-55 486,-55 486,-37 435,-37"/>
<polygon fill="none" stroke="black" points="435,-37 435,-55 486,-55 486,-37 435,-37"/>
<text text-anchor="start" x="476" y="-43.2" font-family="Helvetica,sans-Serif" font-size="11.00"> &#160;</text>
</a>
</g>
</g>
<!-- guardian_userobjectpermission&#45;&gt;galaxy_user -->
<g id="edge5" class="edge"><title>guardian_userobjectpermission:user_id:w&#45;&gt;galaxy_user:id.type:e</title>
<path fill="none" stroke="black" d="M243.328,-71.2872C198.632,-112.893 274.945,-386 208.5,-386"/>
<polygon fill="black" stroke="black" points="249.539,-68.8856 258.299,-69.3577 253.269,-67.4428 257,-66 257,-66 257,-66 253.269,-67.4428 255.701,-62.6423 249.539,-68.8856 249.539,-68.8856"/>
<ellipse fill="none" stroke="black" cx="246.554" cy="-70.0398" rx="3.20001" ry="3.20001"/>
</g>
</g>
</svg>
