<?xml version="1.0" encoding="UTF-8" standalone="no"?>
<!DOCTYPE svg PUBLIC "-//W3C//DTD SVG 1.1//EN"
 "http://www.w3.org/Graphics/SVG/1.1/DTD/svg11.dtd">
<!-- Generated by graphviz version 2.38.0 (20140413.2041)
 -->
<!-- Title: twoDegreesRelationshipsDiagram Pages: 1 -->
<svg width="500pt" height="361pt"
 viewBox="0.00 0.00 500.00 361.00" xmlns="http://www.w3.org/2000/svg" xmlns:xlink="http://www.w3.org/1999/xlink">
<g id="graph0" class="graph" transform="scale(1 1) rotate(0) translate(4 357)">
<title>twoDegreesRelationshipsDiagram</title>
<polygon fill="#ffffff" stroke="none" points="-4,4 -4,-357 496,-357 496,4 -4,4"/>
<text text-anchor="middle" x="74.5" y="-7.2" font-family="Helvetica,sans-Serif" font-size="11.00">Generated by SchemaSpy</text>
<!-- galaxy_collectionimport -->
<g id="node1" class="node"><title>galaxy_collectionimport</title>
<g id="a_node1"><a xlink:href="../../tables/galaxy_collectionimport.html" xlink:title="galaxy_collectionimport" target="_top">
<polygon fill="#ffffff" stroke="none" points="211,-195 211,-349 484,-349 484,-195 211,-195"/>
<polygon fill="#f5f5f5" stroke="none" points="213.5,-325 213.5,-347 482.5,-347 482.5,-325 213.5,-325"/>
<polygon fill="none" stroke="black" points="213.5,-325 213.5,-347 482.5,-347 482.5,-325 213.5,-325"/>
<text text-anchor="start" x="218.5" y="-334.2" font-family="Helvetica,sans-Serif" font-weight="bold" font-size="11.00">galaxy_collectionimport</text>
<text text-anchor="start" x="443.5" y="-333.2" font-family="Helvetica,sans-Serif" font-size="11.00">[table]</text>
<polygon fill="none" stroke="black" points="213.5,-303 213.5,-325 377.5,-325 377.5,-303 213.5,-303"/>
<image xlink:href="../../images/primaryKeys.png" width="11px" height="12px" preserveAspectRatio="xMinYMin meet" x="218.5" y="-320"/>
<text text-anchor="start" x="233.5" y="-311.2" font-family="Helvetica,sans-Serif" font-size="11.00">task_id</text>
<polygon fill="none" stroke="black" points="377.5,-303 377.5,-325 482.5,-325 482.5,-303 377.5,-303"/>
<text text-anchor="start" x="380.5" y="-311.2" font-family="Helvetica,sans-Serif" font-size="11.00">uuid[2147483647]</text>
<polygon fill="none" stroke="black" points="213.5,-281 213.5,-303 377.5,-303 377.5,-281 213.5,-281"/>
<text text-anchor="start" x="233.5" y="-289.2" font-family="Helvetica,sans-Serif" font-size="11.00">created_at</text>
<polygon fill="none" stroke="black" points="377.5,-281 377.5,-303 482.5,-303 482.5,-281 377.5,-281"/>
<text text-anchor="start" x="380.5" y="-289.2" font-family="Helvetica,sans-Serif" font-size="11.00">timestamptz[35,6]</text>
<polygon fill="none" stroke="black" points="213.5,-259 213.5,-281 377.5,-281 377.5,-259 213.5,-259"/>
<text text-anchor="start" x="233.5" y="-267.2" font-family="Helvetica,sans-Serif" font-size="11.00">name</text>
<polygon fill="none" stroke="black" points="377.5,-259 377.5,-281 482.5,-281 482.5,-259 377.5,-259"/>
<text text-anchor="start" x="380.5" y="-267.2" font-family="Helvetica,sans-Serif" font-size="11.00">varchar[64]</text>
<polygon fill="none" stroke="black" points="213.5,-237 213.5,-259 377.5,-259 377.5,-237 213.5,-237"/>
<text text-anchor="start" x="233.5" y="-245.2" font-family="Helvetica,sans-Serif" font-size="11.00">version</text>
<polygon fill="none" stroke="black" points="377.5,-237 377.5,-259 482.5,-259 482.5,-237 377.5,-237"/>
<text text-anchor="start" x="380.5" y="-245.2" font-family="Helvetica,sans-Serif" font-size="11.00">varchar[32]</text>
<polygon fill="#ffffff" stroke="none" points="213.5,-215 213.5,-237 377.5,-237 377.5,-215 213.5,-215"/>
<polygon fill="none" stroke="black" points="213.5,-215 213.5,-237 377.5,-237 377.5,-215 213.5,-215"/>
<image xlink:href="../../images/foreignKeys.png" width="11px" height="12px" preserveAspectRatio="xMinYMin meet" x="218.5" y="-232"/>
<text text-anchor="start" x="233.5" y="-223.2" font-family="Helvetica,sans-Serif" font-size="11.00">namespace_id</text>
<polygon fill="none" stroke="black" points="377.5,-215 377.5,-237 482.5,-237 482.5,-215 377.5,-215"/>
<text text-anchor="start" x="380.5" y="-223.2" font-family="Helvetica,sans-Serif" font-size="11.00">int4[10]</text>
<polygon fill="#ffffff" stroke="none" points="213.5,-197 213.5,-215 282.5,-215 282.5,-197 213.5,-197"/>
<polygon fill="none" stroke="black" points="213.5,-197 213.5,-215 282.5,-215 282.5,-197 213.5,-197"/>
<text text-anchor="start" x="216.5" y="-203.2" font-family="Helvetica,sans-Serif" font-size="11.00">&lt; 1</text>
<polygon fill="#ffffff" stroke="none" points="282.5,-197 282.5,-215 377.5,-215 377.5,-197 282.5,-197"/>
<polygon fill="none" stroke="black" points="282.5,-197 282.5,-215 377.5,-215 377.5,-197 282.5,-197"/>
<text text-anchor="start" x="331.5" y="-203.2" font-family="Helvetica,sans-Serif" font-size="11.00">91 rows</text>
<polygon fill="#ffffff" stroke="none" points="377.5,-197 377.5,-215 482.5,-215 482.5,-197 377.5,-197"/>
<polygon fill="none" stroke="black" points="377.5,-197 377.5,-215 482.5,-215 482.5,-197 377.5,-197"/>
<text text-anchor="start" x="462.5" y="-203.2" font-family="Helvetica,sans-Serif" font-size="11.00">0 &gt;</text>
<polygon fill="none" stroke="black" stroke-width="2" points="212,-196 212,-348 483,-348 483,-196 212,-196"/>
</a>
</g>
</g>
<!-- galaxy_namespace -->
<g id="node2" class="node"><title>galaxy_namespace</title>
<g id="a_node2"><a xlink:href="../../tables/galaxy_namespace.html" xlink:title="galaxy_namespace" target="_top">
<polygon fill="#ffffff" stroke="none" points="8,-74 8,-176 162,-176 162,-74 8,-74"/>
<polygon fill="#f5f5f5" stroke="none" points="8,-154 8,-176 162,-176 162,-154 8,-154"/>
<polygon fill="none" stroke="black" points="8,-154 8,-176 162,-176 162,-154 8,-154"/>
<text text-anchor="start" x="13" y="-163.2" font-family="Helvetica,sans-Serif" font-weight="bold" font-size="11.00">galaxy_namespace</text>
<text text-anchor="start" x="123" y="-162.2" font-family="Helvetica,sans-Serif" font-size="11.00">[table]</text>
<polygon fill="none" stroke="black" points="8,-132 8,-154 162,-154 162,-132 8,-132"/>
<image xlink:href="../../images/primaryKeys.png" width="11px" height="12px" preserveAspectRatio="xMinYMin meet" x="13" y="-149"/>
<text text-anchor="start" x="39" y="-140.2" font-family="Helvetica,sans-Serif" font-size="11.00">id</text>
<polygon fill="#ffffff" stroke="none" points="8,-110 8,-132 162,-132 162,-110 8,-110"/>
<polygon fill="none" stroke="black" points="8,-110 8,-132 162,-132 162,-110 8,-110"/>
<text text-anchor="start" x="39" y="-118.2" font-family="Helvetica,sans-Serif" font-size="11.00">name</text>
<polygon fill="none" stroke="black" points="8,-92 8,-110 162,-110 162,-92 8,-92"/>
<text text-anchor="start" x="11" y="-98.2" font-family="Helvetica,sans-Serif" font-size="11.00">...</text>
<polygon fill="#ffffff" stroke="none" points="8,-74 8,-92 55,-92 55,-74 8,-74"/>
<polygon fill="none" stroke="black" points="8,-74 8,-92 55,-92 55,-74 8,-74"/>
<text text-anchor="start" x="11" y="-80.2" font-family="Helvetica,sans-Serif" font-size="11.00"> &#160;</text>
<polygon fill="#ffffff" stroke="none" points="55,-74 55,-92 121,-92 121,-74 55,-74"/>
<polygon fill="none" stroke="black" points="55,-74 55,-92 121,-92 121,-74 55,-74"/>
<text text-anchor="start" x="75" y="-80.2" font-family="Helvetica,sans-Serif" font-size="11.00">55 rows</text>
<polygon fill="#ffffff" stroke="none" points="121,-74 121,-92 162,-92 162,-74 121,-74"/>
<polygon fill="none" stroke="black" points="121,-74 121,-92 162,-92 162,-74 121,-74"/>
<text text-anchor="start" x="142" y="-80.2" font-family="Helvetica,sans-Serif" font-size="11.00">3 &gt;</text>
</a>
</g>
</g>
<!-- galaxy_collectionimport&#45;&gt;galaxy_namespace -->
<g id="edge1" class="edge"><title>galaxy_collectionimport:namespace_id:w&#45;&gt;galaxy_namespace:id:e</title>
<path fill="none" stroke="black" d="M198.646,-221.538C178.218,-204.298 199.911,-143 163,-143"/>
<polygon fill="black" stroke="black" points="204.885,-223.547 211.396,-229.427 208.693,-224.774 212.5,-226 212.5,-226 212.5,-226 208.693,-224.774 213.604,-222.573 204.885,-223.547 204.885,-223.547"/>
<ellipse fill="none" stroke="black" cx="201.839" cy="-222.566" rx="3.20001" ry="3.20001"/>
</g>
<!-- galaxy_namespacelink -->
<g id="node3" class="node"><title>galaxy_namespacelink</title>
<g id="a_node3"><a xlink:href="../../tables/galaxy_namespacelink.html" xlink:title="galaxy_namespacelink" target="_top">
<polygon fill="#ffffff" stroke="none" points="259.5,-116 259.5,-174 435.5,-174 435.5,-116 259.5,-116"/>
<polygon fill="#f5f5f5" stroke="none" points="259.5,-152 259.5,-174 435.5,-174 435.5,-152 259.5,-152"/>
<polygon fill="none" stroke="black" points="259.5,-152 259.5,-174 435.5,-174 435.5,-152 259.5,-152"/>
<text text-anchor="start" x="264.5" y="-161.2" font-family="Helvetica,sans-Serif" font-weight="bold" font-size="11.00">galaxy_namespacelink</text>
<text text-anchor="start" x="396.5" y="-160.2" font-family="Helvetica,sans-Serif" font-size="11.00">[table]</text>
<polygon fill="none" stroke="black" points="259.5,-134 259.5,-152 435.5,-152 435.5,-134 259.5,-134"/>
<text text-anchor="start" x="262.5" y="-140.2" font-family="Helvetica,sans-Serif" font-size="11.00">...</text>
<polygon fill="#ffffff" stroke="none" points="259.5,-116 259.5,-134 331.5,-134 331.5,-116 259.5,-116"/>
<polygon fill="none" stroke="black" points="259.5,-116 259.5,-134 331.5,-134 331.5,-116 259.5,-116"/>
<text text-anchor="start" x="262.5" y="-122.2" font-family="Helvetica,sans-Serif" font-size="11.00">&lt; 1</text>
<polygon fill="#ffffff" stroke="none" points="331.5,-116 331.5,-134 397.5,-134 397.5,-116 331.5,-116"/>
<polygon fill="none" stroke="black" points="331.5,-116 331.5,-134 397.5,-134 397.5,-116 331.5,-116"/>
<text text-anchor="start" x="358.5" y="-122.2" font-family="Helvetica,sans-Serif" font-size="11.00">4 rows</text>
<polygon fill="#ffffff" stroke="none" points="397.5,-116 397.5,-134 435.5,-134 435.5,-116 397.5,-116"/>
<polygon fill="none" stroke="black" points="397.5,-116 397.5,-134 435.5,-134 435.5,-116 397.5,-116"/>
<text text-anchor="start" x="425.5" y="-122.2" font-family="Helvetica,sans-Serif" font-size="11.00"> &#160;</text>
</a>
</g>
</g>
<!-- galaxy_namespacelink&#45;&gt;galaxy_namespace -->
<g id="edge2" class="edge"><title>galaxy_namespacelink:elipses:w&#45;&gt;galaxy_namespace:id:e</title>
<path fill="none" stroke="black" d="M243.951,-143C212.905,-143 200.139,-143 163,-143"/>
<polygon fill="black" stroke="black" points="250.5,-143 258.5,-146.6 254.5,-143 258.5,-143 258.5,-143 258.5,-143 254.5,-143 258.5,-139.4 250.5,-143 250.5,-143"/>
<ellipse fill="none" stroke="black" cx="247.3" cy="-143" rx="3.2" ry="3.2"/>
</g>
<!-- galaxy_synclist_namespaces -->
<g id="node4" class="node"><title>galaxy_synclist_namespaces</title>
<g id="a_node4"><a xlink:href="../../tables/galaxy_synclist_namespaces.html" xlink:title="galaxy_synclist_namespaces" target="_top">
<polygon fill="#ffffff" stroke="none" points="243.5,-37 243.5,-95 451.5,-95 451.5,-37 243.5,-37"/>
<polygon fill="#f5f5f5" stroke="none" points="243.5,-73 243.5,-95 451.5,-95 451.5,-73 243.5,-73"/>
<polygon fill="none" stroke="black" points="243.5,-73 243.5,-95 451.5,-95 451.5,-73 243.5,-73"/>
<text text-anchor="start" x="248.5" y="-82.2" font-family="Helvetica,sans-Serif" font-weight="bold" font-size="11.00">galaxy_synclist_namespaces</text>
<text text-anchor="start" x="412.5" y="-81.2" font-family="Helvetica,sans-Serif" font-size="11.00">[table]</text>
<polygon fill="none" stroke="black" points="243.5,-55 243.5,-73 451.5,-73 451.5,-55 243.5,-55"/>
<text text-anchor="start" x="246.5" y="-61.2" font-family="Helvetica,sans-Serif" font-size="11.00">...</text>
<polygon fill="#ffffff" stroke="none" points="243.5,-37 243.5,-55 327.5,-55 327.5,-37 243.5,-37"/>
<polygon fill="none" stroke="black" points="243.5,-37 243.5,-55 327.5,-55 327.5,-37 243.5,-37"/>
<text text-anchor="start" x="246.5" y="-43.2" font-family="Helvetica,sans-Serif" font-size="11.00">&lt; 2</text>
<polygon fill="#ffffff" stroke="none" points="327.5,-37 327.5,-55 407.5,-55 407.5,-37 327.5,-37"/>
<polygon fill="none" stroke="black" points="327.5,-37 327.5,-55 407.5,-55 407.5,-37 327.5,-37"/>
<text text-anchor="start" x="361.5" y="-43.2" font-family="Helvetica,sans-Serif" font-size="11.00">13 rows</text>
<polygon fill="#ffffff" stroke="none" points="407.5,-37 407.5,-55 451.5,-55 451.5,-37 407.5,-37"/>
<polygon fill="none" stroke="black" points="407.5,-37 407.5,-55 451.5,-55 451.5,-37 407.5,-37"/>
<text text-anchor="start" x="441.5" y="-43.2" font-family="Helvetica,sans-Serif" font-size="11.00"> &#160;</text>
</a>
</g>
</g>
<!-- galaxy_synclist_namespaces&#45;&gt;galaxy_namespace -->
<g id="edge3" class="edge"><title>galaxy_synclist_namespaces:elipses:w&#45;&gt;galaxy_namespace:id:e</title>
<path fill="none" stroke="black" d="M228.061,-66.8117C196.35,-80.8847 207.169,-143 163,-143"/>
<polygon fill="black" stroke="black" points="234.647,-65.5291 243.188,-67.5336 238.574,-64.7646 242.5,-64 242.5,-64 242.5,-64 238.574,-64.7646 241.812,-60.4664 234.647,-65.5291 234.647,-65.5291"/>
<ellipse fill="none" stroke="black" cx="231.506" cy="-66.1408" rx="3.2" ry="3.2"/>
</g>
</g>
</svg>
