<?xml version="1.0" encoding="UTF-8" standalone="no"?>
<!DOCTYPE svg PUBLIC "-//W3C//DTD SVG 1.1//EN"
 "http://www.w3.org/Graphics/SVG/1.1/DTD/svg11.dtd">
<!-- Generated by graphviz version 2.38.0 (20140413.2041)
 -->
<!-- Title: twoDegreesRelationshipsDiagram Pages: 1 -->
<svg width="767pt" height="386pt"
 viewBox="0.00 0.00 767.00 386.00" xmlns="http://www.w3.org/2000/svg" xmlns:xlink="http://www.w3.org/1999/xlink">
<g id="graph0" class="graph" transform="scale(1 1) rotate(0) translate(4 382)">
<title>twoDegreesRelationshipsDiagram</title>
<polygon fill="#ffffff" stroke="none" points="-4,4 -4,-382 763,-382 763,4 -4,4"/>
<text text-anchor="middle" x="74.5" y="-7.2" font-family="Helvetica,sans-Serif" font-size="11.00">Generated by SchemaSpy</text>
<!-- ansible_collectionversion -->
<g id="node1" class="node"><title>ansible_collectionversion</title>
<g id="a_node1"><a xlink:href="../../tables/ansible_collectionversion.html" xlink:title="ansible_collectionversion" target="_top">
<polygon fill="#ffffff" stroke="none" points="510.5,-316 510.5,-374 703.5,-374 703.5,-316 510.5,-316"/>
<polygon fill="#f5f5f5" stroke="none" points="511,-352 511,-374 704,-374 704,-352 511,-352"/>
<polygon fill="none" stroke="black" points="511,-352 511,-374 704,-374 704,-352 511,-352"/>
<text text-anchor="start" x="516" y="-361.2" font-family="Helvetica,sans-Serif" font-weight="bold" font-size="11.00">ansible_collectionversion</text>
<text text-anchor="start" x="665" y="-360.2" font-family="Helvetica,sans-Serif" font-size="11.00">[table]</text>
<polygon fill="none" stroke="black" points="511,-334 511,-352 704,-352 704,-334 511,-334"/>
<text text-anchor="start" x="514" y="-340.2" font-family="Helvetica,sans-Serif" font-size="11.00">...</text>
<polygon fill="#ffffff" stroke="none" points="511,-316 511,-334 583,-334 583,-316 511,-316"/>
<polygon fill="none" stroke="black" points="511,-316 511,-334 583,-334 583,-316 511,-316"/>
<text text-anchor="start" x="514" y="-322.2" font-family="Helvetica,sans-Serif" font-size="11.00">&lt; 2</text>
<polygon fill="#ffffff" stroke="none" points="583,-316 583,-334 656,-334 656,-316 583,-316"/>
<polygon fill="none" stroke="black" points="583,-316 583,-334 656,-334 656,-316 583,-316"/>
<text text-anchor="start" x="610" y="-322.2" font-family="Helvetica,sans-Serif" font-size="11.00">88 rows</text>
<polygon fill="#ffffff" stroke="none" points="656,-316 656,-334 704,-334 704,-316 656,-316"/>
<polygon fill="none" stroke="black" points="656,-316 656,-334 704,-334 704,-316 656,-316"/>
<text text-anchor="start" x="684" y="-322.2" font-family="Helvetica,sans-Serif" font-size="11.00">1 &gt;</text>
</a>
</g>
</g>
<!-- ansible_collection -->
<g id="node2" class="node"><title>ansible_collection</title>
<g id="a_node2"><a xlink:href="../../tables/ansible_collection.html" xlink:title="ansible_collection" target="_top">
<polygon fill="#ffffff" stroke="none" points="257.5,-220 257.5,-344 408.5,-344 408.5,-220 257.5,-220"/>
<polygon fill="#f5f5f5" stroke="none" points="258,-322 258,-344 409,-344 409,-322 258,-322"/>
<polygon fill="none" stroke="black" points="258,-322 258,-344 409,-344 409,-322 258,-322"/>
<text text-anchor="start" x="263" y="-331.2" font-family="Helvetica,sans-Serif" font-weight="bold" font-size="11.00">ansible_collection</text>
<text text-anchor="start" x="370" y="-330.2" font-family="Helvetica,sans-Serif" font-size="11.00">[table]</text>
<polygon fill="none" stroke="black" points="258,-300 258,-322 409,-322 409,-300 258,-300"/>
<image xlink:href="../../images/primaryKeys.png" width="11px" height="12px" preserveAspectRatio="xMinYMin meet" x="263" y="-317"/>
<text text-anchor="start" x="289" y="-308.2" font-family="Helvetica,sans-Serif" font-size="11.00">pulp_id</text>
<polygon fill="#ffffff" stroke="none" points="258,-278 258,-300 409,-300 409,-278 258,-278"/>
<polygon fill="none" stroke="black" points="258,-278 258,-300 409,-300 409,-278 258,-278"/>
<text text-anchor="start" x="289" y="-286.2" font-family="Helvetica,sans-Serif" font-size="11.00">namespace</text>
<polygon fill="#ffffff" stroke="none" points="258,-256 258,-278 409,-278 409,-256 258,-256"/>
<polygon fill="none" stroke="black" points="258,-256 258,-278 409,-278 409,-256 258,-256"/>
<text text-anchor="start" x="289" y="-264.2" font-family="Helvetica,sans-Serif" font-size="11.00">name</text>
<polygon fill="none" stroke="black" points="258,-238 258,-256 409,-256 409,-238 258,-238"/>
<text text-anchor="start" x="261" y="-244.2" font-family="Helvetica,sans-Serif" font-size="11.00">...</text>
<polygon fill="#ffffff" stroke="none" points="258,-220 258,-238 307,-238 307,-220 258,-220"/>
<polygon fill="none" stroke="black" points="258,-220 258,-238 307,-238 307,-220 258,-220"/>
<text text-anchor="start" x="261" y="-226.2" font-family="Helvetica,sans-Serif" font-size="11.00"> &#160;</text>
<polygon fill="#ffffff" stroke="none" points="307,-220 307,-238 367,-238 367,-220 307,-220"/>
<polygon fill="none" stroke="black" points="307,-220 307,-238 367,-238 367,-220 307,-220"/>
<text text-anchor="start" x="328" y="-226.2" font-family="Helvetica,sans-Serif" font-size="11.00">4 rows</text>
<polygon fill="#ffffff" stroke="none" points="367,-220 367,-238 409,-238 409,-220 367,-220"/>
<polygon fill="none" stroke="black" points="367,-220 367,-238 409,-238 409,-220 367,-220"/>
<text text-anchor="start" x="389" y="-226.2" font-family="Helvetica,sans-Serif" font-size="11.00">2 &gt;</text>
</a>
</g>
</g>
<!-- ansible_collectionversion&#45;&gt;ansible_collection -->
<g id="edge1" class="edge"><title>ansible_collectionversion:elipses:w&#45;&gt;ansible_collection:pulp_id:e</title>
<path fill="none" stroke="black" d="M495.565,-341.861C461.311,-336.161 451.378,-311 410,-311"/>
<polygon fill="black" stroke="black" points="502.025,-342.371 509.717,-346.589 506.012,-342.685 510,-343 510,-343 510,-343 506.012,-342.685 510.283,-339.411 502.025,-342.371 502.025,-342.371"/>
<ellipse fill="none" stroke="black" cx="498.835" cy="-342.119" rx="3.2" ry="3.2"/>
</g>
<!-- galaxy_synclist -->
<g id="node3" class="node"><title>galaxy_synclist</title>
<g id="a_node3"><a xlink:href="../../tables/galaxy_synclist.html" xlink:title="galaxy_synclist" target="_top">
<polygon fill="#ffffff" stroke="none" points="252,-37 252,-183 414,-183 414,-37 252,-37"/>
<polygon fill="#f5f5f5" stroke="none" points="252,-161 252,-183 414,-183 414,-161 252,-161"/>
<polygon fill="none" stroke="black" points="252,-161 252,-183 414,-183 414,-161 252,-161"/>
<text text-anchor="start" x="257" y="-170.2" font-family="Helvetica,sans-Serif" font-weight="bold" font-size="11.00">galaxy_synclist</text>
<text text-anchor="start" x="375" y="-169.2" font-family="Helvetica,sans-Serif" font-size="11.00">[table]</text>
<polygon fill="none" stroke="black" points="252,-139 252,-161 414,-161 414,-139 252,-139"/>
<image xlink:href="../../images/primaryKeys.png" width="11px" height="12px" preserveAspectRatio="xMinYMin meet" x="257" y="-156"/>
<text text-anchor="start" x="272" y="-147.2" font-family="Helvetica,sans-Serif" font-size="11.00">id</text>
<polygon fill="#ffffff" stroke="none" points="252,-117 252,-139 414,-139 414,-117 252,-117"/>
<polygon fill="none" stroke="black" points="252,-117 252,-139 414,-139 414,-117 252,-117"/>
<text text-anchor="start" x="272" y="-125.2" font-family="Helvetica,sans-Serif" font-size="11.00">name</text>
<polygon fill="#ffffff" stroke="none" points="252,-95 252,-117 414,-117 414,-95 252,-95"/>
<polygon fill="none" stroke="black" points="252,-95 252,-117 414,-117 414,-95 252,-95"/>
<image xlink:href="../../images/foreignKeys.png" width="11px" height="12px" preserveAspectRatio="xMinYMin meet" x="257" y="-112"/>
<text text-anchor="start" x="272" y="-103.2" font-family="Helvetica,sans-Serif" font-size="11.00">repository_id</text>
<polygon fill="#ffffff" stroke="none" points="252,-73 252,-95 414,-95 414,-73 252,-73"/>
<polygon fill="none" stroke="black" points="252,-73 252,-95 414,-95 414,-73 252,-73"/>
<image xlink:href="../../images/foreignKeys.png" width="11px" height="12px" preserveAspectRatio="xMinYMin meet" x="257" y="-90"/>
<text text-anchor="start" x="272" y="-81.2" font-family="Helvetica,sans-Serif" font-size="11.00">upstream_repository_id</text>
<polygon fill="none" stroke="black" points="252,-55 252,-73 414,-73 414,-55 252,-55"/>
<text text-anchor="start" x="255" y="-61.2" font-family="Helvetica,sans-Serif" font-size="11.00">...</text>
<polygon fill="#ffffff" stroke="none" points="252,-37 252,-55 312,-55 312,-37 252,-37"/>
<polygon fill="none" stroke="black" points="252,-37 252,-55 312,-55 312,-37 252,-37"/>
<text text-anchor="start" x="255" y="-43.2" font-family="Helvetica,sans-Serif" font-size="11.00">&lt; 2</text>
<polygon fill="#ffffff" stroke="none" points="312,-37 312,-55 372,-55 372,-37 312,-37"/>
<polygon fill="none" stroke="black" points="312,-37 312,-55 372,-55 372,-37 312,-37"/>
<text text-anchor="start" x="333" y="-43.2" font-family="Helvetica,sans-Serif" font-size="11.00">7 rows</text>
<polygon fill="#ffffff" stroke="none" points="372,-37 372,-55 414,-55 414,-37 372,-37"/>
<polygon fill="none" stroke="black" points="372,-37 372,-55 414,-55 414,-37 372,-37"/>
<text text-anchor="start" x="394" y="-43.2" font-family="Helvetica,sans-Serif" font-size="11.00">2 &gt;</text>
</a>
</g>
</g>
<!-- ansible_ansiblerepository -->
<g id="node4" class="node"><title>ansible_ansiblerepository</title>
<g id="a_node4"><a xlink:href="../../tables/ansible_ansiblerepository.html" xlink:title="ansible_ansiblerepository" target="_top">
<polygon fill="#ffffff" stroke="none" points="8,-68 8,-126 203,-126 203,-68 8,-68"/>
<polygon fill="#f5f5f5" stroke="none" points="8.5,-104 8.5,-126 203.5,-126 203.5,-104 8.5,-104"/>
<polygon fill="none" stroke="black" points="8.5,-104 8.5,-126 203.5,-126 203.5,-104 8.5,-104"/>
<text text-anchor="start" x="13.5" y="-113.2" font-family="Helvetica,sans-Serif" font-weight="bold" font-size="11.00">ansible_ansiblerepository</text>
<text text-anchor="start" x="164.5" y="-112.2" font-family="Helvetica,sans-Serif" font-size="11.00">[table]</text>
<polygon fill="none" stroke="black" points="8.5,-86 8.5,-104 203.5,-104 203.5,-86 8.5,-86"/>
<text text-anchor="start" x="11.5" y="-92.2" font-family="Helvetica,sans-Serif" font-size="11.00">...</text>
<polygon fill="#ffffff" stroke="none" points="8.5,-68 8.5,-86 81.5,-86 81.5,-68 8.5,-68"/>
<polygon fill="none" stroke="black" points="8.5,-68 8.5,-86 81.5,-86 81.5,-68 8.5,-68"/>
<text text-anchor="start" x="11.5" y="-74.2" font-family="Helvetica,sans-Serif" font-size="11.00">&lt; 1</text>
<polygon fill="#ffffff" stroke="none" points="81.5,-68 81.5,-86 155.5,-86 155.5,-68 81.5,-68"/>
<polygon fill="none" stroke="black" points="81.5,-68 81.5,-86 155.5,-86 155.5,-68 81.5,-68"/>
<text text-anchor="start" x="109.5" y="-74.2" font-family="Helvetica,sans-Serif" font-size="11.00">26 rows</text>
<polygon fill="#ffffff" stroke="none" points="155.5,-68 155.5,-86 203.5,-86 203.5,-68 155.5,-68"/>
<polygon fill="none" stroke="black" points="155.5,-68 155.5,-86 203.5,-86 203.5,-68 155.5,-68"/>
<text text-anchor="start" x="183.5" y="-74.2" font-family="Helvetica,sans-Serif" font-size="11.00">2 &gt;</text>
</a>
</g>
</g>
<!-- galaxy_synclist&#45;&gt;ansible_ansiblerepository -->
<g id="edge2" class="edge"><title>galaxy_synclist:repository_id:w&#45;&gt;ansible_ansiblerepository:elipses:e</title>
<path fill="none" stroke="black" d="M236.736,-103.982C226.274,-100.807 219.93,-95 204.5,-95"/>
<polygon fill="black" stroke="black" points="243.079,-104.88 250.496,-109.565 247.039,-105.44 251,-106 251,-106 251,-106 247.039,-105.44 251.504,-102.435 243.079,-104.88 243.079,-104.88"/>
<ellipse fill="none" stroke="black" cx="239.91" cy="-104.431" rx="3.2" ry="3.2"/>
</g>
<!-- galaxy_synclist&#45;&gt;ansible_ansiblerepository -->
<g id="edge3" class="edge"><title>galaxy_synclist:upstream_repository_id:w&#45;&gt;ansible_ansiblerepository:elipses:e</title>
<path fill="none" stroke="black" d="M236.736,-86.0176C226.274,-89.1932 219.93,-95 204.5,-95"/>
<polygon fill="black" stroke="black" points="243.079,-85.1204 251.504,-87.5645 247.039,-84.5602 251,-84 251,-84 251,-84 247.039,-84.5602 250.496,-80.4355 243.079,-85.1204 243.079,-85.1204"/>
<ellipse fill="none" stroke="black" cx="239.91" cy="-85.5686" rx="3.2" ry="3.2"/>
</g>
<!-- galaxy_synclist_collections -->
<g id="node5" class="node"><title>galaxy_synclist_collections</title>
<g id="a_node5"><a xlink:href="../../tables/galaxy_synclist_collections.html" xlink:title="galaxy_synclist_collections" target="_top">
<polygon fill="#ffffff" stroke="none" points="463,-185 463,-295 751,-295 751,-185 463,-185"/>
<polygon fill="#f5f5f5" stroke="none" points="465,-271 465,-293 749,-293 749,-271 465,-271"/>
<polygon fill="none" stroke="black" points="465,-271 465,-293 749,-293 749,-271 465,-271"/>
<text text-anchor="start" x="470" y="-280.2" font-family="Helvetica,sans-Serif" font-weight="bold" font-size="11.00">galaxy_synclist_collections</text>
<text text-anchor="start" x="710" y="-279.2" font-family="Helvetica,sans-Serif" font-size="11.00">[table]</text>
<polygon fill="none" stroke="black" points="465,-249 465,-271 644,-271 644,-249 465,-249"/>
<image xlink:href="../../images/primaryKeys.png" width="11px" height="12px" preserveAspectRatio="xMinYMin meet" x="470" y="-266"/>
<text text-anchor="start" x="485" y="-257.2" font-family="Helvetica,sans-Serif" font-size="11.00">id</text>
<polygon fill="none" stroke="black" points="644,-249 644,-271 749,-271 749,-249 644,-249"/>
<text text-anchor="start" x="647" y="-257.2" font-family="Helvetica,sans-Serif" font-size="11.00">serial[10]</text>
<polygon fill="#ffffff" stroke="none" points="465,-227 465,-249 644,-249 644,-227 465,-227"/>
<polygon fill="none" stroke="black" points="465,-227 465,-249 644,-249 644,-227 465,-227"/>
<image xlink:href="../../images/foreignKeys.png" width="11px" height="12px" preserveAspectRatio="xMinYMin meet" x="470" y="-244"/>
<text text-anchor="start" x="485" y="-235.2" font-family="Helvetica,sans-Serif" font-size="11.00">synclist_id</text>
<polygon fill="none" stroke="black" points="644,-227 644,-249 749,-249 749,-227 644,-227"/>
<text text-anchor="start" x="647" y="-235.2" font-family="Helvetica,sans-Serif" font-size="11.00">int4[10]</text>
<polygon fill="#ffffff" stroke="none" points="465,-205 465,-227 644,-227 644,-205 465,-205"/>
<polygon fill="none" stroke="black" points="465,-205 465,-227 644,-227 644,-205 465,-205"/>
<image xlink:href="../../images/foreignKeys.png" width="11px" height="12px" preserveAspectRatio="xMinYMin meet" x="470" y="-222"/>
<text text-anchor="start" x="485" y="-213.2" font-family="Helvetica,sans-Serif" font-size="11.00">collection_id</text>
<polygon fill="none" stroke="black" points="644,-205 644,-227 749,-227 749,-205 644,-205"/>
<text text-anchor="start" x="647" y="-213.2" font-family="Helvetica,sans-Serif" font-size="11.00">uuid[2147483647]</text>
<polygon fill="#ffffff" stroke="none" points="465,-187 465,-205 545,-205 545,-187 465,-187"/>
<polygon fill="none" stroke="black" points="465,-187 465,-205 545,-205 545,-187 465,-187"/>
<text text-anchor="start" x="468" y="-193.2" font-family="Helvetica,sans-Serif" font-size="11.00">&lt; 2</text>
<polygon fill="#ffffff" stroke="none" points="545,-187 545,-205 644,-205 644,-187 545,-187"/>
<polygon fill="none" stroke="black" points="545,-187 545,-205 644,-205 644,-187 545,-187"/>
<text text-anchor="start" x="605" y="-193.2" font-family="Helvetica,sans-Serif" font-size="11.00">8 rows</text>
<polygon fill="#ffffff" stroke="none" points="644,-187 644,-205 749,-205 749,-187 644,-187"/>
<polygon fill="none" stroke="black" points="644,-187 644,-205 749,-205 749,-187 644,-187"/>
<text text-anchor="start" x="729" y="-193.2" font-family="Helvetica,sans-Serif" font-size="11.00">0 &gt;</text>
<polygon fill="none" stroke="black" stroke-width="2" points="464,-186 464,-294 750,-294 750,-186 464,-186"/>
</a>
</g>
</g>
<!-- galaxy_synclist_collections&#45;&gt;ansible_collection -->
<g id="edge4" class="edge"><title>galaxy_synclist_collections:collection_id:w&#45;&gt;ansible_collection:pulp_id:e</title>
<path fill="none" stroke="black" d="M450.065,-219.842C424.535,-237.615 452.686,-311 410,-311"/>
<polygon fill="black" stroke="black" points="456.288,-218.126 464.957,-219.471 460.144,-217.063 464,-216 464,-216 464,-216 460.144,-217.063 463.043,-212.529 456.288,-218.126 456.288,-218.126"/>
<ellipse fill="none" stroke="black" cx="453.203" cy="-218.977" rx="3.20001" ry="3.20001"/>
</g>
<!-- galaxy_synclist_collections&#45;&gt;galaxy_synclist -->
<g id="edge5" class="edge"><title>galaxy_synclist_collections:synclist_id:w&#45;&gt;galaxy_synclist:id:e</title>
<path fill="none" stroke="black" d="M449.986,-233.515C428.723,-215.582 453.645,-150 415,-150"/>
<polygon fill="black" stroke="black" points="456.381,-235.561 462.903,-241.429 460.19,-236.781 464,-238 464,-238 464,-238 460.19,-236.781 465.097,-234.571 456.381,-235.561 456.381,-235.561"/>
<ellipse fill="none" stroke="black" cx="453.333" cy="-234.586" rx="3.20001" ry="3.20001"/>
</g>
<!-- galaxy_synclist_namespaces -->
<g id="node6" class="node"><title>galaxy_synclist_namespaces</title>
<g id="a_node6"><a xlink:href="../../tables/galaxy_synclist_namespaces.html" xlink:title="galaxy_synclist_namespaces" target="_top">
<polygon fill="#ffffff" stroke="none" points="503,-106 503,-164 711,-164 711,-106 503,-106"/>
<polygon fill="#f5f5f5" stroke="none" points="503,-142 503,-164 711,-164 711,-142 503,-142"/>
<polygon fill="none" stroke="black" points="503,-142 503,-164 711,-164 711,-142 503,-142"/>
<text text-anchor="start" x="508" y="-151.2" font-family="Helvetica,sans-Serif" font-weight="bold" font-size="11.00">galaxy_synclist_namespaces</text>
<text text-anchor="start" x="672" y="-150.2" font-family="Helvetica,sans-Serif" font-size="11.00">[table]</text>
<polygon fill="none" stroke="black" points="503,-124 503,-142 711,-142 711,-124 503,-124"/>
<text text-anchor="start" x="506" y="-130.2" font-family="Helvetica,sans-Serif" font-size="11.00">...</text>
<polygon fill="#ffffff" stroke="none" points="503,-106 503,-124 587,-124 587,-106 503,-106"/>
<polygon fill="none" stroke="black" points="503,-106 503,-124 587,-124 587,-106 503,-106"/>
<text text-anchor="start" x="506" y="-112.2" font-family="Helvetica,sans-Serif" font-size="11.00">&lt; 2</text>
<polygon fill="#ffffff" stroke="none" points="587,-106 587,-124 667,-124 667,-106 587,-106"/>
<polygon fill="none" stroke="black" points="587,-106 587,-124 667,-124 667,-106 587,-106"/>
<text text-anchor="start" x="621" y="-112.2" font-family="Helvetica,sans-Serif" font-size="11.00">13 rows</text>
<polygon fill="#ffffff" stroke="none" points="667,-106 667,-124 711,-124 711,-106 667,-106"/>
<polygon fill="none" stroke="black" points="667,-106 667,-124 711,-124 711,-106 667,-106"/>
<text text-anchor="start" x="701" y="-112.2" font-family="Helvetica,sans-Serif" font-size="11.00"> &#160;</text>
</a>
</g>
</g>
<!-- galaxy_synclist_namespaces&#45;&gt;galaxy_synclist -->
<g id="edge6" class="edge"><title>galaxy_synclist_namespaces:elipses:w&#45;&gt;galaxy_synclist:id:e</title>
<path fill="none" stroke="black" d="M487.43,-133.866C459.776,-137.331 449.012,-150 415,-150"/>
<polygon fill="black" stroke="black" points="494.014,-133.475 502.214,-136.594 498.007,-133.237 502,-133 502,-133 502,-133 498.007,-133.237 501.786,-129.406 494.014,-133.475 494.014,-133.475"/>
<ellipse fill="none" stroke="black" cx="490.82" cy="-133.665" rx="3.2" ry="3.2"/>
</g>
</g>
</svg>
