<?xml version="1.0" encoding="UTF-8" standalone="no"?>
<!DOCTYPE svg PUBLIC "-//W3C//DTD SVG 1.1//EN"
 "http://www.w3.org/Graphics/SVG/1.1/DTD/svg11.dtd">
<!-- Generated by graphviz version 2.38.0 (20140413.2041)
 -->
<!-- Title: twoDegreesRelationshipsDiagram Pages: 1 -->
<svg width="726pt" height="438pt"
 viewBox="0.00 0.00 726.00 438.00" xmlns="http://www.w3.org/2000/svg" xmlns:xlink="http://www.w3.org/1999/xlink">
<g id="graph0" class="graph" transform="scale(1 1) rotate(0) translate(4 434)">
<title>twoDegreesRelationshipsDiagram</title>
<polygon fill="#ffffff" stroke="none" points="-4,4 -4,-434 722,-434 722,4 -4,4"/>
<text text-anchor="middle" x="74.5" y="-7.2" font-family="Helvetica,sans-Serif" font-size="11.00">Generated by SchemaSpy</text>
<!-- galaxy_collectionimport -->
<g id="node1" class="node"><title>galaxy_collectionimport</title>
<g id="a_node1"><a xlink:href="../../tables/galaxy_collectionimport.html" xlink:title="galaxy_collectionimport" target="_top">
<polygon fill="#ffffff" stroke="none" points="493.5,-368 493.5,-426 679.5,-426 679.5,-368 493.5,-368"/>
<polygon fill="#f5f5f5" stroke="none" points="493.5,-404 493.5,-426 679.5,-426 679.5,-404 493.5,-404"/>
<polygon fill="none" stroke="black" points="493.5,-404 493.5,-426 679.5,-426 679.5,-404 493.5,-404"/>
<text text-anchor="start" x="498.5" y="-413.2" font-family="Helvetica,sans-Serif" font-weight="bold" font-size="11.00">galaxy_collectionimport</text>
<text text-anchor="start" x="640.5" y="-412.2" font-family="Helvetica,sans-Serif" font-size="11.00">[table]</text>
<polygon fill="none" stroke="black" points="493.5,-386 493.5,-404 679.5,-404 679.5,-386 493.5,-386"/>
<text text-anchor="start" x="496.5" y="-392.2" font-family="Helvetica,sans-Serif" font-size="11.00">...</text>
<polygon fill="#ffffff" stroke="none" points="493.5,-368 493.5,-386 566.5,-386 566.5,-368 493.5,-368"/>
<polygon fill="none" stroke="black" points="493.5,-368 493.5,-386 566.5,-386 566.5,-368 493.5,-368"/>
<text text-anchor="start" x="496.5" y="-374.2" font-family="Helvetica,sans-Serif" font-size="11.00">&lt; 1</text>
<polygon fill="#ffffff" stroke="none" points="566.5,-368 566.5,-386 640.5,-386 640.5,-368 566.5,-368"/>
<polygon fill="none" stroke="black" points="566.5,-368 566.5,-386 640.5,-386 640.5,-368 566.5,-368"/>
<text text-anchor="start" x="594.5" y="-374.2" font-family="Helvetica,sans-Serif" font-size="11.00">91 rows</text>
<polygon fill="#ffffff" stroke="none" points="640.5,-368 640.5,-386 679.5,-386 679.5,-368 640.5,-368"/>
<polygon fill="none" stroke="black" points="640.5,-368 640.5,-386 679.5,-386 679.5,-368 640.5,-368"/>
<text text-anchor="start" x="669.5" y="-374.2" font-family="Helvetica,sans-Serif" font-size="11.00"> &#160;</text>
</a>
</g>
</g>
<!-- galaxy_namespace -->
<g id="node2" class="node"><title>galaxy_namespace</title>
<g id="a_node2"><a xlink:href="../../tables/galaxy_namespace.html" xlink:title="galaxy_namespace" target="_top">
<polygon fill="#ffffff" stroke="none" points="256,-247 256,-349 410,-349 410,-247 256,-247"/>
<polygon fill="#f5f5f5" stroke="none" points="256,-327 256,-349 410,-349 410,-327 256,-327"/>
<polygon fill="none" stroke="black" points="256,-327 256,-349 410,-349 410,-327 256,-327"/>
<text text-anchor="start" x="261" y="-336.2" font-family="Helvetica,sans-Serif" font-weight="bold" font-size="11.00">galaxy_namespace</text>
<text text-anchor="start" x="371" y="-335.2" font-family="Helvetica,sans-Serif" font-size="11.00">[table]</text>
<polygon fill="none" stroke="black" points="256,-305 256,-327 410,-327 410,-305 256,-305"/>
<image xlink:href="../../images/primaryKeys.png" width="11px" height="12px" preserveAspectRatio="xMinYMin meet" x="261" y="-322"/>
<text text-anchor="start" x="287" y="-313.2" font-family="Helvetica,sans-Serif" font-size="11.00">id</text>
<polygon fill="#ffffff" stroke="none" points="256,-283 256,-305 410,-305 410,-283 256,-283"/>
<polygon fill="none" stroke="black" points="256,-283 256,-305 410,-305 410,-283 256,-283"/>
<text text-anchor="start" x="287" y="-291.2" font-family="Helvetica,sans-Serif" font-size="11.00">name</text>
<polygon fill="none" stroke="black" points="256,-265 256,-283 410,-283 410,-265 256,-265"/>
<text text-anchor="start" x="259" y="-271.2" font-family="Helvetica,sans-Serif" font-size="11.00">...</text>
<polygon fill="#ffffff" stroke="none" points="256,-247 256,-265 303,-265 303,-247 256,-247"/>
<polygon fill="none" stroke="black" points="256,-247 256,-265 303,-265 303,-247 256,-247"/>
<text text-anchor="start" x="259" y="-253.2" font-family="Helvetica,sans-Serif" font-size="11.00"> &#160;</text>
<polygon fill="#ffffff" stroke="none" points="303,-247 303,-265 369,-265 369,-247 303,-247"/>
<polygon fill="none" stroke="black" points="303,-247 303,-265 369,-265 369,-247 303,-247"/>
<text text-anchor="start" x="323" y="-253.2" font-family="Helvetica,sans-Serif" font-size="11.00">55 rows</text>
<polygon fill="#ffffff" stroke="none" points="369,-247 369,-265 410,-265 410,-247 369,-247"/>
<polygon fill="none" stroke="black" points="369,-247 369,-265 410,-265 410,-247 369,-247"/>
<text text-anchor="start" x="390" y="-253.2" font-family="Helvetica,sans-Serif" font-size="11.00">3 &gt;</text>
</a>
</g>
</g>
<!-- galaxy_collectionimport&#45;&gt;galaxy_namespace -->
<g id="edge1" class="edge"><title>galaxy_collectionimport:elipses:w&#45;&gt;galaxy_namespace:id:e</title>
<path fill="none" stroke="black" d="M478.271,-392.372C445.46,-378.664 455.929,-316 411,-316"/>
<polygon fill="black" stroke="black" points="484.633,-393.547 491.846,-398.54 488.567,-394.273 492.5,-395 492.5,-395 492.5,-395 488.567,-394.273 493.154,-391.46 484.633,-393.547 484.633,-393.547"/>
<ellipse fill="none" stroke="black" cx="481.486" cy="-392.965" rx="3.2" ry="3.2"/>
</g>
<!-- galaxy_namespacelink -->
<g id="node3" class="node"><title>galaxy_namespacelink</title>
<g id="a_node3"><a xlink:href="../../tables/galaxy_namespacelink.html" xlink:title="galaxy_namespacelink" target="_top">
<polygon fill="#ffffff" stroke="none" points="498.5,-289 498.5,-347 674.5,-347 674.5,-289 498.5,-289"/>
<polygon fill="#f5f5f5" stroke="none" points="498.5,-325 498.5,-347 674.5,-347 674.5,-325 498.5,-325"/>
<polygon fill="none" stroke="black" points="498.5,-325 498.5,-347 674.5,-347 674.5,-325 498.5,-325"/>
<text text-anchor="start" x="503.5" y="-334.2" font-family="Helvetica,sans-Serif" font-weight="bold" font-size="11.00">galaxy_namespacelink</text>
<text text-anchor="start" x="635.5" y="-333.2" font-family="Helvetica,sans-Serif" font-size="11.00">[table]</text>
<polygon fill="none" stroke="black" points="498.5,-307 498.5,-325 674.5,-325 674.5,-307 498.5,-307"/>
<text text-anchor="start" x="501.5" y="-313.2" font-family="Helvetica,sans-Serif" font-size="11.00">...</text>
<polygon fill="#ffffff" stroke="none" points="498.5,-289 498.5,-307 570.5,-307 570.5,-289 498.5,-289"/>
<polygon fill="none" stroke="black" points="498.5,-289 498.5,-307 570.5,-307 570.5,-289 498.5,-289"/>
<text text-anchor="start" x="501.5" y="-295.2" font-family="Helvetica,sans-Serif" font-size="11.00">&lt; 1</text>
<polygon fill="#ffffff" stroke="none" points="570.5,-289 570.5,-307 636.5,-307 636.5,-289 570.5,-289"/>
<polygon fill="none" stroke="black" points="570.5,-289 570.5,-307 636.5,-307 636.5,-289 570.5,-289"/>
<text text-anchor="start" x="597.5" y="-295.2" font-family="Helvetica,sans-Serif" font-size="11.00">4 rows</text>
<polygon fill="#ffffff" stroke="none" points="636.5,-289 636.5,-307 674.5,-307 674.5,-289 636.5,-289"/>
<polygon fill="none" stroke="black" points="636.5,-289 636.5,-307 674.5,-307 674.5,-289 636.5,-289"/>
<text text-anchor="start" x="664.5" y="-295.2" font-family="Helvetica,sans-Serif" font-size="11.00"> &#160;</text>
</a>
</g>
</g>
<!-- galaxy_namespacelink&#45;&gt;galaxy_namespace -->
<g id="edge2" class="edge"><title>galaxy_namespacelink:elipses:w&#45;&gt;galaxy_namespace:id:e</title>
<path fill="none" stroke="black" d="M482.831,-316C455.782,-316 444.038,-316 411,-316"/>
<polygon fill="black" stroke="black" points="489.5,-316 497.5,-319.6 493.5,-316 497.5,-316 497.5,-316 497.5,-316 493.5,-316 497.5,-312.4 489.5,-316 489.5,-316"/>
<ellipse fill="none" stroke="black" cx="486.3" cy="-316" rx="3.2" ry="3.2"/>
</g>
<!-- galaxy_synclist -->
<g id="node4" class="node"><title>galaxy_synclist</title>
<g id="a_node4"><a xlink:href="../../tables/galaxy_synclist.html" xlink:title="galaxy_synclist" target="_top">
<polygon fill="#ffffff" stroke="none" points="252,-37 252,-183 414,-183 414,-37 252,-37"/>
<polygon fill="#f5f5f5" stroke="none" points="252,-161 252,-183 414,-183 414,-161 252,-161"/>
<polygon fill="none" stroke="black" points="252,-161 252,-183 414,-183 414,-161 252,-161"/>
<text text-anchor="start" x="257" y="-170.2" font-family="Helvetica,sans-Serif" font-weight="bold" font-size="11.00">galaxy_synclist</text>
<text text-anchor="start" x="375" y="-169.2" font-family="Helvetica,sans-Serif" font-size="11.00">[table]</text>
<polygon fill="none" stroke="black" points="252,-139 252,-161 414,-161 414,-139 252,-139"/>
<image xlink:href="../../images/primaryKeys.png" width="11px" height="12px" preserveAspectRatio="xMinYMin meet" x="257" y="-156"/>
<text text-anchor="start" x="272" y="-147.2" font-family="Helvetica,sans-Serif" font-size="11.00">id</text>
<polygon fill="#ffffff" stroke="none" points="252,-117 252,-139 414,-139 414,-117 252,-117"/>
<polygon fill="none" stroke="black" points="252,-117 252,-139 414,-139 414,-117 252,-117"/>
<text text-anchor="start" x="272" y="-125.2" font-family="Helvetica,sans-Serif" font-size="11.00">name</text>
<polygon fill="#ffffff" stroke="none" points="252,-95 252,-117 414,-117 414,-95 252,-95"/>
<polygon fill="none" stroke="black" points="252,-95 252,-117 414,-117 414,-95 252,-95"/>
<image xlink:href="../../images/foreignKeys.png" width="11px" height="12px" preserveAspectRatio="xMinYMin meet" x="257" y="-112"/>
<text text-anchor="start" x="272" y="-103.2" font-family="Helvetica,sans-Serif" font-size="11.00">repository_id</text>
<polygon fill="#ffffff" stroke="none" points="252,-73 252,-95 414,-95 414,-73 252,-73"/>
<polygon fill="none" stroke="black" points="252,-73 252,-95 414,-95 414,-73 252,-73"/>
<image xlink:href="../../images/foreignKeys.png" width="11px" height="12px" preserveAspectRatio="xMinYMin meet" x="257" y="-90"/>
<text text-anchor="start" x="272" y="-81.2" font-family="Helvetica,sans-Serif" font-size="11.00">upstream_repository_id</text>
<polygon fill="none" stroke="black" points="252,-55 252,-73 414,-73 414,-55 252,-55"/>
<text text-anchor="start" x="255" y="-61.2" font-family="Helvetica,sans-Serif" font-size="11.00">...</text>
<polygon fill="#ffffff" stroke="none" points="252,-37 252,-55 312,-55 312,-37 252,-37"/>
<polygon fill="none" stroke="black" points="252,-37 252,-55 312,-55 312,-37 252,-37"/>
<text text-anchor="start" x="255" y="-43.2" font-family="Helvetica,sans-Serif" font-size="11.00">&lt; 2</text>
<polygon fill="#ffffff" stroke="none" points="312,-37 312,-55 372,-55 372,-37 312,-37"/>
<polygon fill="none" stroke="black" points="312,-37 312,-55 372,-55 372,-37 312,-37"/>
<text text-anchor="start" x="333" y="-43.2" font-family="Helvetica,sans-Serif" font-size="11.00">7 rows</text>
<polygon fill="#ffffff" stroke="none" points="372,-37 372,-55 414,-55 414,-37 372,-37"/>
<polygon fill="none" stroke="black" points="372,-37 372,-55 414,-55 414,-37 372,-37"/>
<text text-anchor="start" x="394" y="-43.2" font-family="Helvetica,sans-Serif" font-size="11.00">2 &gt;</text>
</a>
</g>
</g>
<!-- ansible_ansiblerepository -->
<g id="node5" class="node"><title>ansible_ansiblerepository</title>
<g id="a_node5"><a xlink:href="../../tables/ansible_ansiblerepository.html" xlink:title="ansible_ansiblerepository" target="_top">
<polygon fill="#ffffff" stroke="none" points="8,-68 8,-126 203,-126 203,-68 8,-68"/>
<polygon fill="#f5f5f5" stroke="none" points="8.5,-104 8.5,-126 203.5,-126 203.5,-104 8.5,-104"/>
<polygon fill="none" stroke="black" points="8.5,-104 8.5,-126 203.5,-126 203.5,-104 8.5,-104"/>
<text text-anchor="start" x="13.5" y="-113.2" font-family="Helvetica,sans-Serif" font-weight="bold" font-size="11.00">ansible_ansiblerepository</text>
<text text-anchor="start" x="164.5" y="-112.2" font-family="Helvetica,sans-Serif" font-size="11.00">[table]</text>
<polygon fill="none" stroke="black" points="8.5,-86 8.5,-104 203.5,-104 203.5,-86 8.5,-86"/>
<text text-anchor="start" x="11.5" y="-92.2" font-family="Helvetica,sans-Serif" font-size="11.00">...</text>
<polygon fill="#ffffff" stroke="none" points="8.5,-68 8.5,-86 81.5,-86 81.5,-68 8.5,-68"/>
<polygon fill="none" stroke="black" points="8.5,-68 8.5,-86 81.5,-86 81.5,-68 8.5,-68"/>
<text text-anchor="start" x="11.5" y="-74.2" font-family="Helvetica,sans-Serif" font-size="11.00">&lt; 1</text>
<polygon fill="#ffffff" stroke="none" points="81.5,-68 81.5,-86 155.5,-86 155.5,-68 81.5,-68"/>
<polygon fill="none" stroke="black" points="81.5,-68 81.5,-86 155.5,-86 155.5,-68 81.5,-68"/>
<text text-anchor="start" x="109.5" y="-74.2" font-family="Helvetica,sans-Serif" font-size="11.00">26 rows</text>
<polygon fill="#ffffff" stroke="none" points="155.5,-68 155.5,-86 203.5,-86 203.5,-68 155.5,-68"/>
<polygon fill="none" stroke="black" points="155.5,-68 155.5,-86 203.5,-86 203.5,-68 155.5,-68"/>
<text text-anchor="start" x="183.5" y="-74.2" font-family="Helvetica,sans-Serif" font-size="11.00">2 &gt;</text>
</a>
</g>
</g>
<!-- galaxy_synclist&#45;&gt;ansible_ansiblerepository -->
<g id="edge3" class="edge"><title>galaxy_synclist:repository_id:w&#45;&gt;ansible_ansiblerepository:elipses:e</title>
<path fill="none" stroke="black" d="M236.736,-103.982C226.274,-100.807 219.93,-95 204.5,-95"/>
<polygon fill="black" stroke="black" points="243.079,-104.88 250.496,-109.565 247.039,-105.44 251,-106 251,-106 251,-106 247.039,-105.44 251.504,-102.435 243.079,-104.88 243.079,-104.88"/>
<ellipse fill="none" stroke="black" cx="239.91" cy="-104.431" rx="3.2" ry="3.2"/>
</g>
<!-- galaxy_synclist&#45;&gt;ansible_ansiblerepository -->
<g id="edge4" class="edge"><title>galaxy_synclist:upstream_repository_id:w&#45;&gt;ansible_ansiblerepository:elipses:e</title>
<path fill="none" stroke="black" d="M236.736,-86.0176C226.274,-89.1932 219.93,-95 204.5,-95"/>
<polygon fill="black" stroke="black" points="243.079,-85.1204 251.504,-87.5645 247.039,-84.5602 251,-84 251,-84 251,-84 247.039,-84.5602 250.496,-80.4355 243.079,-85.1204 243.079,-85.1204"/>
<ellipse fill="none" stroke="black" cx="239.91" cy="-85.5686" rx="3.2" ry="3.2"/>
</g>
<!-- galaxy_synclist_collections -->
<g id="node6" class="node"><title>galaxy_synclist_collections</title>
<g id="a_node6"><a xlink:href="../../tables/galaxy_synclist_collections.html" xlink:title="galaxy_synclist_collections" target="_top">
<polygon fill="#ffffff" stroke="none" points="487,-79 487,-137 686,-137 686,-79 487,-79"/>
<polygon fill="#f5f5f5" stroke="none" points="487.5,-115 487.5,-137 686.5,-137 686.5,-115 487.5,-115"/>
<polygon fill="none" stroke="black" points="487.5,-115 487.5,-137 686.5,-137 686.5,-115 487.5,-115"/>
<text text-anchor="start" x="492.5" y="-124.2" font-family="Helvetica,sans-Serif" font-weight="bold" font-size="11.00">galaxy_synclist_collections</text>
<text text-anchor="start" x="647.5" y="-123.2" font-family="Helvetica,sans-Serif" font-size="11.00">[table]</text>
<polygon fill="none" stroke="black" points="487.5,-97 487.5,-115 686.5,-115 686.5,-97 487.5,-97"/>
<text text-anchor="start" x="490.5" y="-103.2" font-family="Helvetica,sans-Serif" font-size="11.00">...</text>
<polygon fill="#ffffff" stroke="none" points="487.5,-79 487.5,-97 570.5,-97 570.5,-79 487.5,-79"/>
<polygon fill="none" stroke="black" points="487.5,-79 487.5,-97 570.5,-97 570.5,-79 487.5,-79"/>
<text text-anchor="start" x="490.5" y="-85.2" font-family="Helvetica,sans-Serif" font-size="11.00">&lt; 2</text>
<polygon fill="#ffffff" stroke="none" points="570.5,-79 570.5,-97 642.5,-97 642.5,-79 570.5,-79"/>
<polygon fill="none" stroke="black" points="570.5,-79 570.5,-97 642.5,-97 642.5,-79 570.5,-79"/>
<text text-anchor="start" x="603.5" y="-85.2" font-family="Helvetica,sans-Serif" font-size="11.00">8 rows</text>
<polygon fill="#ffffff" stroke="none" points="642.5,-79 642.5,-97 686.5,-97 686.5,-79 642.5,-79"/>
<polygon fill="none" stroke="black" points="642.5,-79 642.5,-97 686.5,-97 686.5,-79 642.5,-79"/>
<text text-anchor="start" x="676.5" y="-85.2" font-family="Helvetica,sans-Serif" font-size="11.00"> &#160;</text>
</a>
</g>
</g>
<!-- galaxy_synclist_collections&#45;&gt;galaxy_synclist -->
<g id="edge5" class="edge"><title>galaxy_synclist_collections:elipses:w&#45;&gt;galaxy_synclist:id:e</title>
<path fill="none" stroke="black" d="M472.293,-108.621C449.224,-118.093 446.774,-150 415,-150"/>
<polygon fill="black" stroke="black" points="478.633,-107.451 487.153,-109.54 482.566,-106.726 486.5,-106 486.5,-106 486.5,-106 482.566,-106.726 485.847,-102.46 478.633,-107.451 478.633,-107.451"/>
<ellipse fill="none" stroke="black" cx="475.486" cy="-108.032" rx="3.2" ry="3.2"/>
</g>
<!-- galaxy_synclist_namespaces -->
<g id="node7" class="node"><title>galaxy_synclist_namespaces</title>
<g id="a_node7"><a xlink:href="../../tables/galaxy_synclist_namespaces.html" xlink:title="galaxy_synclist_namespaces" target="_top">
<polygon fill="#ffffff" stroke="none" points="463,-158 463,-268 710,-268 710,-158 463,-158"/>
<polygon fill="#f5f5f5" stroke="none" points="465.5,-244 465.5,-266 708.5,-266 708.5,-244 465.5,-244"/>
<polygon fill="none" stroke="black" points="465.5,-244 465.5,-266 708.5,-266 708.5,-244 465.5,-244"/>
<text text-anchor="start" x="470.5" y="-253.2" font-family="Helvetica,sans-Serif" font-weight="bold" font-size="11.00">galaxy_synclist_namespaces</text>
<text text-anchor="start" x="669.5" y="-252.2" font-family="Helvetica,sans-Serif" font-size="11.00">[table]</text>
<polygon fill="none" stroke="black" points="465.5,-222 465.5,-244 653.5,-244 653.5,-222 465.5,-222"/>
<image xlink:href="../../images/primaryKeys.png" width="11px" height="12px" preserveAspectRatio="xMinYMin meet" x="470.5" y="-239"/>
<text text-anchor="start" x="485.5" y="-230.2" font-family="Helvetica,sans-Serif" font-size="11.00">id</text>
<polygon fill="none" stroke="black" points="653.5,-222 653.5,-244 708.5,-244 708.5,-222 653.5,-222"/>
<text text-anchor="start" x="656.5" y="-230.2" font-family="Helvetica,sans-Serif" font-size="11.00">serial[10]</text>
<polygon fill="#ffffff" stroke="none" points="465.5,-200 465.5,-222 653.5,-222 653.5,-200 465.5,-200"/>
<polygon fill="none" stroke="black" points="465.5,-200 465.5,-222 653.5,-222 653.5,-200 465.5,-200"/>
<image xlink:href="../../images/foreignKeys.png" width="11px" height="12px" preserveAspectRatio="xMinYMin meet" x="470.5" y="-217"/>
<text text-anchor="start" x="485.5" y="-208.2" font-family="Helvetica,sans-Serif" font-size="11.00">synclist_id</text>
<polygon fill="none" stroke="black" points="653.5,-200 653.5,-222 708.5,-222 708.5,-200 653.5,-200"/>
<text text-anchor="start" x="656.5" y="-208.2" font-family="Helvetica,sans-Serif" font-size="11.00">int4[10]</text>
<polygon fill="#ffffff" stroke="none" points="465.5,-178 465.5,-200 653.5,-200 653.5,-178 465.5,-178"/>
<polygon fill="none" stroke="black" points="465.5,-178 465.5,-200 653.5,-200 653.5,-178 465.5,-178"/>
<image xlink:href="../../images/foreignKeys.png" width="11px" height="12px" preserveAspectRatio="xMinYMin meet" x="470.5" y="-195"/>
<text text-anchor="start" x="485.5" y="-186.2" font-family="Helvetica,sans-Serif" font-size="11.00">namespace_id</text>
<polygon fill="none" stroke="black" points="653.5,-178 653.5,-200 708.5,-200 708.5,-178 653.5,-178"/>
<text text-anchor="start" x="656.5" y="-186.2" font-family="Helvetica,sans-Serif" font-size="11.00">int4[10]</text>
<polygon fill="#ffffff" stroke="none" points="465.5,-160 465.5,-178 546.5,-178 546.5,-160 465.5,-160"/>
<polygon fill="none" stroke="black" points="465.5,-160 465.5,-178 546.5,-178 546.5,-160 465.5,-160"/>
<text text-anchor="start" x="468.5" y="-166.2" font-family="Helvetica,sans-Serif" font-size="11.00">&lt; 2</text>
<polygon fill="#ffffff" stroke="none" points="546.5,-160 546.5,-178 653.5,-178 653.5,-160 546.5,-160"/>
<polygon fill="none" stroke="black" points="546.5,-160 546.5,-178 653.5,-178 653.5,-160 546.5,-160"/>
<text text-anchor="start" x="607.5" y="-166.2" font-family="Helvetica,sans-Serif" font-size="11.00">13 rows</text>
<polygon fill="#ffffff" stroke="none" points="653.5,-160 653.5,-178 708.5,-178 708.5,-160 653.5,-160"/>
<polygon fill="none" stroke="black" points="653.5,-160 653.5,-178 708.5,-178 708.5,-160 653.5,-160"/>
<text text-anchor="start" x="688.5" y="-166.2" font-family="Helvetica,sans-Serif" font-size="11.00">0 &gt;</text>
<polygon fill="none" stroke="black" stroke-width="2" points="464,-159 464,-267 709,-267 709,-159 464,-159"/>
</a>
</g>
</g>
<!-- galaxy_synclist_namespaces&#45;&gt;galaxy_namespace -->
<g id="edge6" class="edge"><title>galaxy_synclist_namespaces:namespace_id:w&#45;&gt;galaxy_namespace:id:e</title>
<path fill="none" stroke="black" d="M450.04,-192.397C415.485,-212.594 466.267,-316 411,-316"/>
<polygon fill="black" stroke="black" points="456.712,-190.83 465.323,-192.505 460.606,-189.915 464.5,-189 464.5,-189 464.5,-189 460.606,-189.915 463.677,-185.495 456.712,-190.83 456.712,-190.83"/>
<ellipse fill="none" stroke="black" cx="453.597" cy="-191.561" rx="3.2" ry="3.2"/>
</g>
<!-- galaxy_synclist_namespaces&#45;&gt;galaxy_synclist -->
<g id="edge7" class="edge"><title>galaxy_synclist_namespaces:synclist_id:w&#45;&gt;galaxy_synclist:id:e</title>
<path fill="none" stroke="black" d="M450.832,-206.213C434.942,-191.833 443.913,-150 415,-150"/>
<polygon fill="black" stroke="black" points="456.95,-208.356 463.31,-214.398 460.725,-209.678 464.5,-211 464.5,-211 464.5,-211 460.725,-209.678 465.69,-207.602 456.95,-208.356 456.95,-208.356"/>
<ellipse fill="none" stroke="black" cx="453.929" cy="-207.298" rx="3.20001" ry="3.20001"/>
</g>
</g>
</svg>
