<?xml version="1.0" encoding="UTF-8" standalone="no"?>
<!DOCTYPE svg PUBLIC "-//W3C//DTD SVG 1.1//EN"
 "http://www.w3.org/Graphics/SVG/1.1/DTD/svg11.dtd">
<!-- Generated by graphviz version 2.38.0 (20140413.2041)
 -->
<!-- Title: oneDegreeRelationshipsDiagram Pages: 1 -->
<svg width="459pt" height="219pt"
 viewBox="0.00 0.00 459.00 219.00" xmlns="http://www.w3.org/2000/svg" xmlns:xlink="http://www.w3.org/1999/xlink">
<g id="graph0" class="graph" transform="scale(1 1) rotate(0) translate(4 215)">
<title>oneDegreeRelationshipsDiagram</title>
<polygon fill="#ffffff" stroke="none" points="-4,4 -4,-215 455,-215 455,4 -4,4"/>
<text text-anchor="middle" x="74.5" y="-7.2" font-family="Helvetica,sans-Serif" font-size="11.00">Generated by SchemaSpy</text>
<!-- galaxy_namespacelink -->
<g id="node1" class="node"><title>galaxy_namespacelink</title>
<g id="a_node1"><a xlink:href="../../tables/galaxy_namespacelink.html" xlink:title="galaxy_namespacelink" target="_top">
<polygon fill="#ffffff" stroke="none" points="211,-75 211,-207 443,-207 443,-75 211,-75"/>
<polygon fill="#f5f5f5" stroke="none" points="213,-183 213,-205 441,-205 441,-183 213,-183"/>
<polygon fill="none" stroke="black" points="213,-183 213,-205 441,-205 441,-183 213,-183"/>
<text text-anchor="start" x="218" y="-192.2" font-family="Helvetica,sans-Serif" font-weight="bold" font-size="11.00">galaxy_namespacelink</text>
<text text-anchor="start" x="402" y="-191.2" font-family="Helvetica,sans-Serif" font-size="11.00">[table]</text>
<polygon fill="none" stroke="black" points="213,-161 213,-183 368,-183 368,-161 213,-161"/>
<image xlink:href="../../images/primaryKeys.png" width="11px" height="12px" preserveAspectRatio="xMinYMin meet" x="218" y="-178"/>
<text text-anchor="start" x="233" y="-169.2" font-family="Helvetica,sans-Serif" font-size="11.00">id</text>
<polygon fill="none" stroke="black" points="368,-161 368,-183 441,-183 441,-161 368,-161"/>
<text text-anchor="start" x="371" y="-169.2" font-family="Helvetica,sans-Serif" font-size="11.00">serial[10]</text>
<polygon fill="none" stroke="black" points="213,-139 213,-161 368,-161 368,-139 213,-139"/>
<text text-anchor="start" x="233" y="-147.2" font-family="Helvetica,sans-Serif" font-size="11.00">name</text>
<polygon fill="none" stroke="black" points="368,-139 368,-161 441,-161 441,-139 368,-139"/>
<text text-anchor="start" x="371" y="-147.2" font-family="Helvetica,sans-Serif" font-size="11.00">varchar[32]</text>
<polygon fill="none" stroke="black" points="213,-117 213,-139 368,-139 368,-117 213,-117"/>
<text text-anchor="start" x="233" y="-125.2" font-family="Helvetica,sans-Serif" font-size="11.00">url</text>
<polygon fill="none" stroke="black" points="368,-117 368,-139 441,-139 441,-117 368,-117"/>
<text text-anchor="start" x="371" y="-125.2" font-family="Helvetica,sans-Serif" font-size="11.00">varchar[256]</text>
<polygon fill="#ffffff" stroke="none" points="213,-95 213,-117 368,-117 368,-95 213,-95"/>
<polygon fill="none" stroke="black" points="213,-95 213,-117 368,-117 368,-95 213,-95"/>
<image xlink:href="../../images/foreignKeys.png" width="11px" height="12px" preserveAspectRatio="xMinYMin meet" x="218" y="-112"/>
<text text-anchor="start" x="233" y="-103.2" font-family="Helvetica,sans-Serif" font-size="11.00">namespace_id</text>
<polygon fill="none" stroke="black" points="368,-95 368,-117 441,-117 441,-95 368,-95"/>
<text text-anchor="start" x="371" y="-103.2" font-family="Helvetica,sans-Serif" font-size="11.00">int4[10]</text>
<polygon fill="#ffffff" stroke="none" points="213,-77 213,-95 281,-95 281,-77 213,-77"/>
<polygon fill="none" stroke="black" points="213,-77 213,-95 281,-95 281,-77 213,-77"/>
<text text-anchor="start" x="216" y="-83.2" font-family="Helvetica,sans-Serif" font-size="11.00">&lt; 1</text>
<polygon fill="#ffffff" stroke="none" points="281,-77 281,-95 368,-95 368,-77 281,-77"/>
<polygon fill="none" stroke="black" points="281,-77 281,-95 368,-95 368,-77 281,-77"/>
<text text-anchor="start" x="329" y="-83.2" font-family="Helvetica,sans-Serif" font-size="11.00">4 rows</text>
<polygon fill="#ffffff" stroke="none" points="368,-77 368,-95 441,-95 441,-77 368,-77"/>
<polygon fill="none" stroke="black" points="368,-77 368,-95 441,-95 441,-77 368,-77"/>
<text text-anchor="start" x="421" y="-83.2" font-family="Helvetica,sans-Serif" font-size="11.00">0 &gt;</text>
<polygon fill="none" stroke="black" stroke-width="2" points="212,-76 212,-206 442,-206 442,-76 212,-76"/>
</a>
</g>
</g>
<!-- galaxy_namespace -->
<g id="node2" class="node"><title>galaxy_namespace</title>
<g id="a_node2"><a xlink:href="../../tables/galaxy_namespace.html" xlink:title="galaxy_namespace" target="_top">
<polygon fill="#ffffff" stroke="none" points="8,-37 8,-139 162,-139 162,-37 8,-37"/>
<polygon fill="#f5f5f5" stroke="none" points="8,-117 8,-139 162,-139 162,-117 8,-117"/>
<polygon fill="none" stroke="black" points="8,-117 8,-139 162,-139 162,-117 8,-117"/>
<text text-anchor="start" x="13" y="-126.2" font-family="Helvetica,sans-Serif" font-weight="bold" font-size="11.00">galaxy_namespace</text>
<text text-anchor="start" x="123" y="-125.2" font-family="Helvetica,sans-Serif" font-size="11.00">[table]</text>
<polygon fill="none" stroke="black" points="8,-95 8,-117 162,-117 162,-95 8,-95"/>
<image xlink:href="../../images/primaryKeys.png" width="11px" height="12px" preserveAspectRatio="xMinYMin meet" x="13" y="-112"/>
<text text-anchor="start" x="39" y="-103.2" font-family="Helvetica,sans-Serif" font-size="11.00">id</text>
<polygon fill="#ffffff" stroke="none" points="8,-73 8,-95 162,-95 162,-73 8,-73"/>
<polygon fill="none" stroke="black" points="8,-73 8,-95 162,-95 162,-73 8,-73"/>
<text text-anchor="start" x="39" y="-81.2" font-family="Helvetica,sans-Serif" font-size="11.00">name</text>
<polygon fill="none" stroke="black" points="8,-55 8,-73 162,-73 162,-55 8,-55"/>
<text text-anchor="start" x="11" y="-61.2" font-family="Helvetica,sans-Serif" font-size="11.00">...</text>
<polygon fill="#ffffff" stroke="none" points="8,-37 8,-55 55,-55 55,-37 8,-37"/>
<polygon fill="none" stroke="black" points="8,-37 8,-55 55,-55 55,-37 8,-37"/>
<text text-anchor="start" x="11" y="-43.2" font-family="Helvetica,sans-Serif" font-size="11.00"> &#160;</text>
<polygon fill="#ffffff" stroke="none" points="55,-37 55,-55 121,-55 121,-37 55,-37"/>
<polygon fill="none" stroke="black" points="55,-37 55,-55 121,-55 121,-37 55,-37"/>
<text text-anchor="start" x="75" y="-43.2" font-family="Helvetica,sans-Serif" font-size="11.00">55 rows</text>
<polygon fill="#ffffff" stroke="none" points="121,-37 121,-55 162,-55 162,-37 121,-37"/>
<polygon fill="none" stroke="black" points="121,-37 121,-55 162,-55 162,-37 121,-37"/>
<text text-anchor="start" x="142" y="-43.2" font-family="Helvetica,sans-Serif" font-size="11.00">3 &gt;</text>
</a>
</g>
</g>
<!-- galaxy_namespacelink&#45;&gt;galaxy_namespace -->
<g id="edge1" class="edge"><title>galaxy_namespacelink:namespace_id:w&#45;&gt;galaxy_namespace:id:e</title>
<path fill="none" stroke="black" d="M197.491,-106C186.177,-106 178.993,-106 163,-106"/>
<polygon fill="black" stroke="black" points="204,-106 212,-109.6 208,-106 212,-106 212,-106 212,-106 208,-106 212,-102.4 204,-106 204,-106"/>
<ellipse fill="none" stroke="black" cx="200.8" cy="-106" rx="3.2" ry="3.2"/>
</g>
</g>
</svg>
