<?xml version="1.0" encoding="UTF-8" standalone="no"?>
<!DOCTYPE svg PUBLIC "-//W3C//DTD SVG 1.1//EN"
 "http://www.w3.org/Graphics/SVG/1.1/DTD/svg11.dtd">
<!-- Generated by graphviz version 2.38.0 (20140413.2041)
 -->
<!-- Title: twoDegreesRelationshipsDiagram Pages: 1 -->
<svg width="518pt" height="446pt"
 viewBox="0.00 0.00 518.00 446.00" xmlns="http://www.w3.org/2000/svg" xmlns:xlink="http://www.w3.org/1999/xlink">
<g id="graph0" class="graph" transform="scale(1 1) rotate(0) translate(4 442)">
<title>twoDegreesRelationshipsDiagram</title>
<polygon fill="#ffffff" stroke="none" points="-4,4 -4,-442 514,-442 514,4 -4,4"/>
<text text-anchor="middle" x="74.5" y="-7.2" font-family="Helvetica,sans-Serif" font-size="11.00">Generated by SchemaSpy</text>
<!-- galaxy_collectionimport -->
<g id="node1" class="node"><title>galaxy_collectionimport</title>
<g id="a_node1"><a xlink:href="../../tables/galaxy_collectionimport.html" xlink:title="galaxy_collectionimport" target="_top">
<polygon fill="#ffffff" stroke="none" points="305,-209 305,-311 491,-311 491,-209 305,-209"/>
<polygon fill="#f5f5f5" stroke="none" points="305,-289 305,-311 491,-311 491,-289 305,-289"/>
<polygon fill="none" stroke="black" points="305,-289 305,-311 491,-311 491,-289 305,-289"/>
<text text-anchor="start" x="310" y="-298.2" font-family="Helvetica,sans-Serif" font-weight="bold" font-size="11.00">galaxy_collectionimport</text>
<text text-anchor="start" x="452" y="-297.2" font-family="Helvetica,sans-Serif" font-size="11.00">[table]</text>
<polygon fill="none" stroke="black" points="305,-267 305,-289 491,-289 491,-267 305,-267"/>
<image xlink:href="../../images/primaryKeys.png" width="11px" height="12px" preserveAspectRatio="xMinYMin meet" x="310" y="-284"/>
<text text-anchor="start" x="336" y="-275.2" font-family="Helvetica,sans-Serif" font-size="11.00">task_id</text>
<polygon fill="#ffffff" stroke="none" points="305,-245 305,-267 491,-267 491,-245 305,-245"/>
<polygon fill="none" stroke="black" points="305,-245 305,-267 491,-267 491,-245 305,-245"/>
<image xlink:href="../../images/foreignKeys.png" width="11px" height="12px" preserveAspectRatio="xMinYMin meet" x="310" y="-262"/>
<text text-anchor="start" x="336" y="-253.2" font-family="Helvetica,sans-Serif" font-size="11.00">namespace_id</text>
<polygon fill="none" stroke="black" points="305,-227 305,-245 491,-245 491,-227 305,-227"/>
<text text-anchor="start" x="308" y="-233.2" font-family="Helvetica,sans-Serif" font-size="11.00">...</text>
<polygon fill="#ffffff" stroke="none" points="305,-209 305,-227 378,-227 378,-209 305,-209"/>
<polygon fill="none" stroke="black" points="305,-209 305,-227 378,-227 378,-209 305,-209"/>
<text text-anchor="start" x="308" y="-215.2" font-family="Helvetica,sans-Serif" font-size="11.00">&lt; 1</text>
<polygon fill="#ffffff" stroke="none" points="378,-209 378,-227 452,-227 452,-209 378,-209"/>
<polygon fill="none" stroke="black" points="378,-209 378,-227 452,-227 452,-209 378,-209"/>
<text text-anchor="start" x="406" y="-215.2" font-family="Helvetica,sans-Serif" font-size="11.00">91 rows</text>
<polygon fill="#ffffff" stroke="none" points="452,-209 452,-227 491,-227 491,-209 452,-209"/>
<polygon fill="none" stroke="black" points="452,-209 452,-227 491,-227 491,-209 452,-209"/>
<text text-anchor="start" x="481" y="-215.2" font-family="Helvetica,sans-Serif" font-size="11.00"> &#160;</text>
</a>
</g>
</g>
<!-- galaxy_namespace -->
<g id="node2" class="node"><title>galaxy_namespace</title>
<g id="a_node2"><a xlink:href="../../tables/galaxy_namespace.html" xlink:title="galaxy_namespace" target="_top">
<polygon fill="#ffffff" stroke="none" points="8,-116 8,-314 245,-314 245,-116 8,-116"/>
<polygon fill="#f5f5f5" stroke="none" points="10.5,-290 10.5,-312 243.5,-312 243.5,-290 10.5,-290"/>
<polygon fill="none" stroke="black" points="10.5,-290 10.5,-312 243.5,-312 243.5,-290 10.5,-290"/>
<text text-anchor="start" x="15.5" y="-299.2" font-family="Helvetica,sans-Serif" font-weight="bold" font-size="11.00">galaxy_namespace</text>
<text text-anchor="start" x="204.5" y="-298.2" font-family="Helvetica,sans-Serif" font-size="11.00">[table]</text>
<polygon fill="none" stroke="black" points="10.5,-268 10.5,-290 142.5,-290 142.5,-268 10.5,-268"/>
<image xlink:href="../../images/primaryKeys.png" width="11px" height="12px" preserveAspectRatio="xMinYMin meet" x="15.5" y="-285"/>
<text text-anchor="start" x="30.5" y="-276.2" font-family="Helvetica,sans-Serif" font-size="11.00">id</text>
<polygon fill="none" stroke="black" points="142.5,-268 142.5,-290 243.5,-290 243.5,-268 142.5,-268"/>
<text text-anchor="start" x="145.5" y="-276.2" font-family="Helvetica,sans-Serif" font-size="11.00">serial[10]</text>
<polygon fill="#ffffff" stroke="none" points="10.5,-246 10.5,-268 142.5,-268 142.5,-246 10.5,-246"/>
<polygon fill="none" stroke="black" points="10.5,-246 10.5,-268 142.5,-268 142.5,-246 10.5,-246"/>
<text text-anchor="start" x="30.5" y="-254.2" font-family="Helvetica,sans-Serif" font-size="11.00">name</text>
<polygon fill="none" stroke="black" points="142.5,-246 142.5,-268 243.5,-268 243.5,-246 142.5,-246"/>
<text text-anchor="start" x="145.5" y="-254.2" font-family="Helvetica,sans-Serif" font-size="11.00">varchar[64]</text>
<polygon fill="none" stroke="black" points="10.5,-224 10.5,-246 142.5,-246 142.5,-224 10.5,-224"/>
<text text-anchor="start" x="30.5" y="-232.2" font-family="Helvetica,sans-Serif" font-size="11.00">company</text>
<polygon fill="none" stroke="black" points="142.5,-224 142.5,-246 243.5,-246 243.5,-224 142.5,-224"/>
<text text-anchor="start" x="145.5" y="-232.2" font-family="Helvetica,sans-Serif" font-size="11.00">varchar[64]</text>
<polygon fill="none" stroke="black" points="10.5,-202 10.5,-224 142.5,-224 142.5,-202 10.5,-202"/>
<text text-anchor="start" x="30.5" y="-210.2" font-family="Helvetica,sans-Serif" font-size="11.00">email</text>
<polygon fill="none" stroke="black" points="142.5,-202 142.5,-224 243.5,-224 243.5,-202 142.5,-202"/>
<text text-anchor="start" x="145.5" y="-210.2" font-family="Helvetica,sans-Serif" font-size="11.00">varchar[256]</text>
<polygon fill="none" stroke="black" points="10.5,-180 10.5,-202 142.5,-202 142.5,-180 10.5,-180"/>
<text text-anchor="start" x="30.5" y="-188.2" font-family="Helvetica,sans-Serif" font-size="11.00">avatar_url</text>
<polygon fill="none" stroke="black" points="142.5,-180 142.5,-202 243.5,-202 243.5,-180 142.5,-180"/>
<text text-anchor="start" x="145.5" y="-188.2" font-family="Helvetica,sans-Serif" font-size="11.00">varchar[256]</text>
<polygon fill="none" stroke="black" points="10.5,-158 10.5,-180 142.5,-180 142.5,-158 10.5,-158"/>
<text text-anchor="start" x="30.5" y="-166.2" font-family="Helvetica,sans-Serif" font-size="11.00">description</text>
<polygon fill="none" stroke="black" points="142.5,-158 142.5,-180 243.5,-180 243.5,-158 142.5,-158"/>
<text text-anchor="start" x="145.5" y="-166.2" font-family="Helvetica,sans-Serif" font-size="11.00">varchar[256]</text>
<polygon fill="none" stroke="black" points="10.5,-136 10.5,-158 142.5,-158 142.5,-136 10.5,-136"/>
<text text-anchor="start" x="30.5" y="-144.2" font-family="Helvetica,sans-Serif" font-size="11.00">resources</text>
<polygon fill="none" stroke="black" points="142.5,-136 142.5,-158 243.5,-158 243.5,-136 142.5,-136"/>
<text text-anchor="start" x="145.5" y="-144.2" font-family="Helvetica,sans-Serif" font-size="11.00">text[2147483647]</text>
<polygon fill="#ffffff" stroke="none" points="10.5,-118 10.5,-136 63.5,-136 63.5,-118 10.5,-118"/>
<polygon fill="none" stroke="black" points="10.5,-118 10.5,-136 63.5,-136 63.5,-118 10.5,-118"/>
<text text-anchor="start" x="13.5" y="-124.2" font-family="Helvetica,sans-Serif" font-size="11.00">&lt; 0</text>
<polygon fill="#ffffff" stroke="none" points="63.5,-118 63.5,-136 142.5,-136 142.5,-118 63.5,-118"/>
<polygon fill="none" stroke="black" points="63.5,-118 63.5,-136 142.5,-136 142.5,-118 63.5,-118"/>
<text text-anchor="start" x="96.5" y="-124.2" font-family="Helvetica,sans-Serif" font-size="11.00">55 rows</text>
<polygon fill="#ffffff" stroke="none" points="142.5,-118 142.5,-136 243.5,-136 243.5,-118 142.5,-118"/>
<polygon fill="none" stroke="black" points="142.5,-118 142.5,-136 243.5,-136 243.5,-118 142.5,-118"/>
<text text-anchor="start" x="223.5" y="-124.2" font-family="Helvetica,sans-Serif" font-size="11.00">3 &gt;</text>
<polygon fill="none" stroke="black" stroke-width="2" points="9,-117 9,-313 244,-313 244,-117 9,-117"/>
</a>
</g>
</g>
<!-- galaxy_collectionimport&#45;&gt;galaxy_namespace -->
<g id="edge1" class="edge"><title>galaxy_collectionimport:namespace_id:w&#45;&gt;galaxy_namespace:id.type:e</title>
<path fill="none" stroke="black" d="M289.458,-258.461C273.458,-264.395 267.093,-279 244.5,-279"/>
<polygon fill="black" stroke="black" points="296.112,-257.335 304.601,-259.55 300.056,-256.668 304,-256 304,-256 304,-256 300.056,-256.668 303.399,-252.45 296.112,-257.335 296.112,-257.335"/>
<ellipse fill="none" stroke="black" cx="292.957" cy="-257.869" rx="3.2" ry="3.2"/>
</g>
<!-- galaxy_namespacelink -->
<g id="node3" class="node"><title>galaxy_namespacelink</title>
<g id="a_node3"><a xlink:href="../../tables/galaxy_namespacelink.html" xlink:title="galaxy_namespacelink" target="_top">
<polygon fill="#ffffff" stroke="none" points="310,-332 310,-434 486,-434 486,-332 310,-332"/>
<polygon fill="#f5f5f5" stroke="none" points="310,-412 310,-434 486,-434 486,-412 310,-412"/>
<polygon fill="none" stroke="black" points="310,-412 310,-434 486,-434 486,-412 310,-412"/>
<text text-anchor="start" x="315" y="-421.2" font-family="Helvetica,sans-Serif" font-weight="bold" font-size="11.00">galaxy_namespacelink</text>
<text text-anchor="start" x="447" y="-420.2" font-family="Helvetica,sans-Serif" font-size="11.00">[table]</text>
<polygon fill="none" stroke="black" points="310,-390 310,-412 486,-412 486,-390 310,-390"/>
<image xlink:href="../../images/primaryKeys.png" width="11px" height="12px" preserveAspectRatio="xMinYMin meet" x="315" y="-407"/>
<text text-anchor="start" x="341" y="-398.2" font-family="Helvetica,sans-Serif" font-size="11.00">id</text>
<polygon fill="#ffffff" stroke="none" points="310,-368 310,-390 486,-390 486,-368 310,-368"/>
<polygon fill="none" stroke="black" points="310,-368 310,-390 486,-390 486,-368 310,-368"/>
<image xlink:href="../../images/foreignKeys.png" width="11px" height="12px" preserveAspectRatio="xMinYMin meet" x="315" y="-385"/>
<text text-anchor="start" x="341" y="-376.2" font-family="Helvetica,sans-Serif" font-size="11.00">namespace_id</text>
<polygon fill="none" stroke="black" points="310,-350 310,-368 486,-368 486,-350 310,-350"/>
<text text-anchor="start" x="313" y="-356.2" font-family="Helvetica,sans-Serif" font-size="11.00">...</text>
<polygon fill="#ffffff" stroke="none" points="310,-332 310,-350 382,-350 382,-332 310,-332"/>
<polygon fill="none" stroke="black" points="310,-332 310,-350 382,-350 382,-332 310,-332"/>
<text text-anchor="start" x="313" y="-338.2" font-family="Helvetica,sans-Serif" font-size="11.00">&lt; 1</text>
<polygon fill="#ffffff" stroke="none" points="382,-332 382,-350 448,-350 448,-332 382,-332"/>
<polygon fill="none" stroke="black" points="382,-332 382,-350 448,-350 448,-332 382,-332"/>
<text text-anchor="start" x="409" y="-338.2" font-family="Helvetica,sans-Serif" font-size="11.00">4 rows</text>
<polygon fill="#ffffff" stroke="none" points="448,-332 448,-350 486,-350 486,-332 448,-332"/>
<polygon fill="none" stroke="black" points="448,-332 448,-350 486,-350 486,-332 448,-332"/>
<text text-anchor="start" x="476" y="-338.2" font-family="Helvetica,sans-Serif" font-size="11.00"> &#160;</text>
</a>
</g>
</g>
<!-- galaxy_namespacelink&#45;&gt;galaxy_namespace -->
<g id="edge2" class="edge"><title>galaxy_namespacelink:namespace_id:w&#45;&gt;galaxy_namespace:id.type:e</title>
<path fill="none" stroke="black" d="M294.779,-375.673C264.015,-358.321 291.603,-279 244.5,-279"/>
<polygon fill="black" stroke="black" points="301.21,-377.177 308.18,-382.505 305.105,-378.089 309,-379 309,-379 309,-379 305.105,-378.089 309.82,-375.495 301.21,-377.177 301.21,-377.177"/>
<ellipse fill="none" stroke="black" cx="298.095" cy="-376.448" rx="3.2" ry="3.2"/>
</g>
<!-- galaxy_synclist_namespaces -->
<g id="node4" class="node"><title>galaxy_synclist_namespaces</title>
<g id="a_node4"><a xlink:href="../../tables/galaxy_synclist_namespaces.html" xlink:title="galaxy_synclist_namespaces" target="_top">
<polygon fill="#ffffff" stroke="none" points="294,-59 294,-165 502,-165 502,-59 294,-59"/>
<polygon fill="#f5f5f5" stroke="none" points="294,-143 294,-165 502,-165 502,-143 294,-143"/>
<polygon fill="none" stroke="black" points="294,-143 294,-165 502,-165 502,-143 294,-143"/>
<text text-anchor="start" x="299" y="-152.2" font-family="Helvetica,sans-Serif" font-weight="bold" font-size="11.00">galaxy_synclist_namespaces</text>
<text text-anchor="start" x="463" y="-151.2" font-family="Helvetica,sans-Serif" font-size="11.00">[table]</text>
<polygon fill="none" stroke="black" points="294,-121 294,-143 502,-143 502,-121 294,-121"/>
<image xlink:href="../../images/primaryKeys.png" width="11px" height="12px" preserveAspectRatio="xMinYMin meet" x="299" y="-138"/>
<text text-anchor="start" x="324" y="-129.2" font-family="Helvetica,sans-Serif" font-size="11.00">id</text>
<polygon fill="#ffffff" stroke="none" points="294,-99 294,-121 502,-121 502,-99 294,-99"/>
<polygon fill="none" stroke="black" points="294,-99 294,-121 502,-121 502,-99 294,-99"/>
<image xlink:href="../../images/foreignKeys.png" width="11px" height="12px" preserveAspectRatio="xMinYMin meet" x="299" y="-116"/>
<text text-anchor="start" x="324" y="-107.2" font-family="Helvetica,sans-Serif" font-size="11.00">synclist_id</text>
<polygon fill="#ffffff" stroke="none" points="294,-77 294,-99 502,-99 502,-77 294,-77"/>
<polygon fill="none" stroke="black" points="294,-77 294,-99 502,-99 502,-77 294,-77"/>
<image xlink:href="../../images/foreignKeys.png" width="11px" height="12px" preserveAspectRatio="xMinYMin meet" x="299" y="-94"/>
<text text-anchor="start" x="324" y="-85.2" font-family="Helvetica,sans-Serif" font-size="11.00">namespace_id</text>
<polygon fill="#ffffff" stroke="none" points="294,-59 294,-77 378,-77 378,-59 294,-59"/>
<polygon fill="none" stroke="black" points="294,-59 294,-77 378,-77 378,-59 294,-59"/>
<text text-anchor="start" x="297" y="-65.2" font-family="Helvetica,sans-Serif" font-size="11.00">&lt; 2</text>
<polygon fill="#ffffff" stroke="none" points="378,-59 378,-77 458,-77 458,-59 378,-59"/>
<polygon fill="none" stroke="black" points="378,-59 378,-77 458,-77 458,-59 378,-59"/>
<text text-anchor="start" x="412" y="-65.2" font-family="Helvetica,sans-Serif" font-size="11.00">13 rows</text>
<polygon fill="#ffffff" stroke="none" points="458,-59 458,-77 502,-77 502,-59 458,-59"/>
<polygon fill="none" stroke="black" points="458,-59 458,-77 502,-77 502,-59 458,-59"/>
<text text-anchor="start" x="492" y="-65.2" font-family="Helvetica,sans-Serif" font-size="11.00"> &#160;</text>
</a>
</g>
</g>
<!-- galaxy_synclist_namespaces&#45;&gt;galaxy_namespace -->
<g id="edge3" class="edge"><title>galaxy_synclist_namespaces:namespace_id:w&#45;&gt;galaxy_namespace:id.type:e</title>
<path fill="none" stroke="black" d="M278.62,-90.2781C220.855,-111.828 326.438,-279 244.5,-279"/>
<polygon fill="black" stroke="black" points="285.099,-89.2518 293.563,-91.5557 289.049,-88.6259 293,-88 293,-88 293,-88 289.049,-88.6259 292.437,-84.4443 285.099,-89.2518 285.099,-89.2518"/>
<ellipse fill="none" stroke="black" cx="281.938" cy="-89.7526" rx="3.2" ry="3.2"/>
</g>
<!-- galaxy_synclist -->
<g id="node5" class="node"><title>galaxy_synclist</title>
<g id="a_node5"><a xlink:href="../../tables/galaxy_synclist.html" xlink:title="galaxy_synclist" target="_top">
<polygon fill="#ffffff" stroke="none" points="60,-37 60,-95 193,-95 193,-37 60,-37"/>
<polygon fill="#f5f5f5" stroke="none" points="60.5,-73 60.5,-95 193.5,-95 193.5,-73 60.5,-73"/>
<polygon fill="none" stroke="black" points="60.5,-73 60.5,-95 193.5,-95 193.5,-73 60.5,-73"/>
<text text-anchor="start" x="65.5" y="-82.2" font-family="Helvetica,sans-Serif" font-weight="bold" font-size="11.00">galaxy_synclist</text>
<text text-anchor="start" x="154.5" y="-81.2" font-family="Helvetica,sans-Serif" font-size="11.00">[table]</text>
<polygon fill="none" stroke="black" points="60.5,-55 60.5,-73 193.5,-73 193.5,-55 60.5,-55"/>
<text text-anchor="start" x="63.5" y="-61.2" font-family="Helvetica,sans-Serif" font-size="11.00">...</text>
<polygon fill="#ffffff" stroke="none" points="60.5,-37 60.5,-55 105.5,-55 105.5,-37 60.5,-37"/>
<polygon fill="none" stroke="black" points="60.5,-37 60.5,-55 105.5,-55 105.5,-37 60.5,-37"/>
<text text-anchor="start" x="63.5" y="-43.2" font-family="Helvetica,sans-Serif" font-size="11.00">&lt; 2</text>
<polygon fill="#ffffff" stroke="none" points="105.5,-37 105.5,-55 158.5,-55 158.5,-37 105.5,-37"/>
<polygon fill="none" stroke="black" points="105.5,-37 105.5,-55 158.5,-55 158.5,-37 105.5,-37"/>
<text text-anchor="start" x="119.5" y="-43.2" font-family="Helvetica,sans-Serif" font-size="11.00">7 rows</text>
<polygon fill="#ffffff" stroke="none" points="158.5,-37 158.5,-55 193.5,-55 193.5,-37 158.5,-37"/>
<polygon fill="none" stroke="black" points="158.5,-37 158.5,-55 193.5,-55 193.5,-37 158.5,-37"/>
<text text-anchor="start" x="173.5" y="-43.2" font-family="Helvetica,sans-Serif" font-size="11.00">2 &gt;</text>
</a>
</g>
</g>
<!-- galaxy_synclist_namespaces&#45;&gt;galaxy_synclist -->
<g id="edge4" class="edge"><title>galaxy_synclist_namespaces:synclist_id:w&#45;&gt;galaxy_synclist:elipses:e</title>
<path fill="none" stroke="black" d="M278.233,-108.363C243.665,-100.168 237.343,-64 194.5,-64"/>
<polygon fill="black" stroke="black" points="285.049,-109.118 292.603,-113.578 289.024,-109.559 293,-110 293,-110 293,-110 289.024,-109.559 293.397,-106.422 285.049,-109.118 285.049,-109.118"/>
<ellipse fill="none" stroke="black" cx="281.868" cy="-108.766" rx="3.2" ry="3.2"/>
</g>
</g>
</svg>
