<?xml version="1.0" encoding="UTF-8" standalone="no"?>
<!DOCTYPE svg PUBLIC "-//W3C//DTD SVG 1.1//EN"
 "http://www.w3.org/Graphics/SVG/1.1/DTD/svg11.dtd">
<!-- Generated by graphviz version 2.38.0 (20140413.2041)
 -->
<!-- Title: twoDegreesRelationshipsDiagram Pages: 1 -->
<svg width="459pt" height="339pt"
 viewBox="0.00 0.00 459.00 339.00" xmlns="http://www.w3.org/2000/svg" xmlns:xlink="http://www.w3.org/1999/xlink">
<g id="graph0" class="graph" transform="scale(1 1) rotate(0) translate(4 335)">
<title>twoDegreesRelationshipsDiagram</title>
<polygon fill="#ffffff" stroke="none" points="-4,4 -4,-335 455,-335 455,4 -4,4"/>
<text text-anchor="middle" x="74.5" y="-7.2" font-family="Helvetica,sans-Serif" font-size="11.00">Generated by SchemaSpy</text>
<!-- galaxy_collectionimport -->
<g id="node1" class="node"><title>galaxy_collectionimport</title>
<g id="a_node1"><a xlink:href="../../tables/galaxy_collectionimport.html" xlink:title="galaxy_collectionimport" target="_top">
<polygon fill="#ffffff" stroke="none" points="234,-269 234,-327 420,-327 420,-269 234,-269"/>
<polygon fill="#f5f5f5" stroke="none" points="234,-305 234,-327 420,-327 420,-305 234,-305"/>
<polygon fill="none" stroke="black" points="234,-305 234,-327 420,-327 420,-305 234,-305"/>
<text text-anchor="start" x="239" y="-314.2" font-family="Helvetica,sans-Serif" font-weight="bold" font-size="11.00">galaxy_collectionimport</text>
<text text-anchor="start" x="381" y="-313.2" font-family="Helvetica,sans-Serif" font-size="11.00">[table]</text>
<polygon fill="none" stroke="black" points="234,-287 234,-305 420,-305 420,-287 234,-287"/>
<text text-anchor="start" x="237" y="-293.2" font-family="Helvetica,sans-Serif" font-size="11.00">...</text>
<polygon fill="#ffffff" stroke="none" points="234,-269 234,-287 307,-287 307,-269 234,-269"/>
<polygon fill="none" stroke="black" points="234,-269 234,-287 307,-287 307,-269 234,-269"/>
<text text-anchor="start" x="237" y="-275.2" font-family="Helvetica,sans-Serif" font-size="11.00">&lt; 1</text>
<polygon fill="#ffffff" stroke="none" points="307,-269 307,-287 381,-287 381,-269 307,-269"/>
<polygon fill="none" stroke="black" points="307,-269 307,-287 381,-287 381,-269 307,-269"/>
<text text-anchor="start" x="335" y="-275.2" font-family="Helvetica,sans-Serif" font-size="11.00">91 rows</text>
<polygon fill="#ffffff" stroke="none" points="381,-269 381,-287 420,-287 420,-269 381,-269"/>
<polygon fill="none" stroke="black" points="381,-269 381,-287 420,-287 420,-269 381,-269"/>
<text text-anchor="start" x="410" y="-275.2" font-family="Helvetica,sans-Serif" font-size="11.00"> &#160;</text>
</a>
</g>
</g>
<!-- galaxy_namespace -->
<g id="node2" class="node"><title>galaxy_namespace</title>
<g id="a_node2"><a xlink:href="../../tables/galaxy_namespace.html" xlink:title="galaxy_namespace" target="_top">
<polygon fill="#ffffff" stroke="none" points="8,-78 8,-180 162,-180 162,-78 8,-78"/>
<polygon fill="#f5f5f5" stroke="none" points="8,-158 8,-180 162,-180 162,-158 8,-158"/>
<polygon fill="none" stroke="black" points="8,-158 8,-180 162,-180 162,-158 8,-158"/>
<text text-anchor="start" x="13" y="-167.2" font-family="Helvetica,sans-Serif" font-weight="bold" font-size="11.00">galaxy_namespace</text>
<text text-anchor="start" x="123" y="-166.2" font-family="Helvetica,sans-Serif" font-size="11.00">[table]</text>
<polygon fill="none" stroke="black" points="8,-136 8,-158 162,-158 162,-136 8,-136"/>
<image xlink:href="../../images/primaryKeys.png" width="11px" height="12px" preserveAspectRatio="xMinYMin meet" x="13" y="-153"/>
<text text-anchor="start" x="39" y="-144.2" font-family="Helvetica,sans-Serif" font-size="11.00">id</text>
<polygon fill="#ffffff" stroke="none" points="8,-114 8,-136 162,-136 162,-114 8,-114"/>
<polygon fill="none" stroke="black" points="8,-114 8,-136 162,-136 162,-114 8,-114"/>
<text text-anchor="start" x="39" y="-122.2" font-family="Helvetica,sans-Serif" font-size="11.00">name</text>
<polygon fill="none" stroke="black" points="8,-96 8,-114 162,-114 162,-96 8,-96"/>
<text text-anchor="start" x="11" y="-102.2" font-family="Helvetica,sans-Serif" font-size="11.00">...</text>
<polygon fill="#ffffff" stroke="none" points="8,-78 8,-96 55,-96 55,-78 8,-78"/>
<polygon fill="none" stroke="black" points="8,-78 8,-96 55,-96 55,-78 8,-78"/>
<text text-anchor="start" x="11" y="-84.2" font-family="Helvetica,sans-Serif" font-size="11.00"> &#160;</text>
<polygon fill="#ffffff" stroke="none" points="55,-78 55,-96 121,-96 121,-78 55,-78"/>
<polygon fill="none" stroke="black" points="55,-78 55,-96 121,-96 121,-78 55,-78"/>
<text text-anchor="start" x="75" y="-84.2" font-family="Helvetica,sans-Serif" font-size="11.00">55 rows</text>
<polygon fill="#ffffff" stroke="none" points="121,-78 121,-96 162,-96 162,-78 121,-78"/>
<polygon fill="none" stroke="black" points="121,-78 121,-96 162,-96 162,-78 121,-78"/>
<text text-anchor="start" x="142" y="-84.2" font-family="Helvetica,sans-Serif" font-size="11.00">3 &gt;</text>
</a>
</g>
</g>
<!-- galaxy_collectionimport&#45;&gt;galaxy_namespace -->
<g id="edge1" class="edge"><title>galaxy_collectionimport:elipses:w&#45;&gt;galaxy_namespace:id:e</title>
<path fill="none" stroke="black" d="M218.75,-293.538C170.595,-274.165 230.593,-147 163,-147"/>
<polygon fill="black" stroke="black" points="225.117,-294.638 232.387,-299.547 229.058,-295.319 233,-296 233,-296 233,-296 229.058,-295.319 233.613,-292.453 225.117,-294.638 225.117,-294.638"/>
<ellipse fill="none" stroke="black" cx="221.964" cy="-294.093" rx="3.2" ry="3.2"/>
</g>
<!-- galaxy_namespacelink -->
<g id="node3" class="node"><title>galaxy_namespacelink</title>
<g id="a_node3"><a xlink:href="../../tables/galaxy_namespacelink.html" xlink:title="galaxy_namespacelink" target="_top">
<polygon fill="#ffffff" stroke="none" points="211,-116 211,-248 443,-248 443,-116 211,-116"/>
<polygon fill="#f5f5f5" stroke="none" points="213,-224 213,-246 441,-246 441,-224 213,-224"/>
<polygon fill="none" stroke="black" points="213,-224 213,-246 441,-246 441,-224 213,-224"/>
<text text-anchor="start" x="218" y="-233.2" font-family="Helvetica,sans-Serif" font-weight="bold" font-size="11.00">galaxy_namespacelink</text>
<text text-anchor="start" x="402" y="-232.2" font-family="Helvetica,sans-Serif" font-size="11.00">[table]</text>
<polygon fill="none" stroke="black" points="213,-202 213,-224 368,-224 368,-202 213,-202"/>
<image xlink:href="../../images/primaryKeys.png" width="11px" height="12px" preserveAspectRatio="xMinYMin meet" x="218" y="-219"/>
<text text-anchor="start" x="233" y="-210.2" font-family="Helvetica,sans-Serif" font-size="11.00">id</text>
<polygon fill="none" stroke="black" points="368,-202 368,-224 441,-224 441,-202 368,-202"/>
<text text-anchor="start" x="371" y="-210.2" font-family="Helvetica,sans-Serif" font-size="11.00">serial[10]</text>
<polygon fill="none" stroke="black" points="213,-180 213,-202 368,-202 368,-180 213,-180"/>
<text text-anchor="start" x="233" y="-188.2" font-family="Helvetica,sans-Serif" font-size="11.00">name</text>
<polygon fill="none" stroke="black" points="368,-180 368,-202 441,-202 441,-180 368,-180"/>
<text text-anchor="start" x="371" y="-188.2" font-family="Helvetica,sans-Serif" font-size="11.00">varchar[32]</text>
<polygon fill="none" stroke="black" points="213,-158 213,-180 368,-180 368,-158 213,-158"/>
<text text-anchor="start" x="233" y="-166.2" font-family="Helvetica,sans-Serif" font-size="11.00">url</text>
<polygon fill="none" stroke="black" points="368,-158 368,-180 441,-180 441,-158 368,-158"/>
<text text-anchor="start" x="371" y="-166.2" font-family="Helvetica,sans-Serif" font-size="11.00">varchar[256]</text>
<polygon fill="#ffffff" stroke="none" points="213,-136 213,-158 368,-158 368,-136 213,-136"/>
<polygon fill="none" stroke="black" points="213,-136 213,-158 368,-158 368,-136 213,-136"/>
<image xlink:href="../../images/foreignKeys.png" width="11px" height="12px" preserveAspectRatio="xMinYMin meet" x="218" y="-153"/>
<text text-anchor="start" x="233" y="-144.2" font-family="Helvetica,sans-Serif" font-size="11.00">namespace_id</text>
<polygon fill="none" stroke="black" points="368,-136 368,-158 441,-158 441,-136 368,-136"/>
<text text-anchor="start" x="371" y="-144.2" font-family="Helvetica,sans-Serif" font-size="11.00">int4[10]</text>
<polygon fill="#ffffff" stroke="none" points="213,-118 213,-136 281,-136 281,-118 213,-118"/>
<polygon fill="none" stroke="black" points="213,-118 213,-136 281,-136 281,-118 213,-118"/>
<text text-anchor="start" x="216" y="-124.2" font-family="Helvetica,sans-Serif" font-size="11.00">&lt; 1</text>
<polygon fill="#ffffff" stroke="none" points="281,-118 281,-136 368,-136 368,-118 281,-118"/>
<polygon fill="none" stroke="black" points="281,-118 281,-136 368,-136 368,-118 281,-118"/>
<text text-anchor="start" x="329" y="-124.2" font-family="Helvetica,sans-Serif" font-size="11.00">4 rows</text>
<polygon fill="#ffffff" stroke="none" points="368,-118 368,-136 441,-136 441,-118 368,-118"/>
<polygon fill="none" stroke="black" points="368,-118 368,-136 441,-136 441,-118 368,-118"/>
<text text-anchor="start" x="421" y="-124.2" font-family="Helvetica,sans-Serif" font-size="11.00">0 &gt;</text>
<polygon fill="none" stroke="black" stroke-width="2" points="212,-117 212,-247 442,-247 442,-117 212,-117"/>
</a>
</g>
</g>
<!-- galaxy_namespacelink&#45;&gt;galaxy_namespace -->
<g id="edge2" class="edge"><title>galaxy_namespacelink:namespace_id:w&#45;&gt;galaxy_namespace:id:e</title>
<path fill="none" stroke="black" d="M197.491,-147C186.177,-147 178.993,-147 163,-147"/>
<polygon fill="black" stroke="black" points="204,-147 212,-150.6 208,-147 212,-147 212,-147 212,-147 208,-147 212,-143.4 204,-147 204,-147"/>
<ellipse fill="none" stroke="black" cx="200.8" cy="-147" rx="3.2" ry="3.2"/>
</g>
<!-- galaxy_synclist_namespaces -->
<g id="node4" class="node"><title>galaxy_synclist_namespaces</title>
<g id="a_node4"><a xlink:href="../../tables/galaxy_synclist_namespaces.html" xlink:title="galaxy_synclist_namespaces" target="_top">
<polygon fill="#ffffff" stroke="none" points="223,-37 223,-95 431,-95 431,-37 223,-37"/>
<polygon fill="#f5f5f5" stroke="none" points="223,-73 223,-95 431,-95 431,-73 223,-73"/>
<polygon fill="none" stroke="black" points="223,-73 223,-95 431,-95 431,-73 223,-73"/>
<text text-anchor="start" x="228" y="-82.2" font-family="Helvetica,sans-Serif" font-weight="bold" font-size="11.00">galaxy_synclist_namespaces</text>
<text text-anchor="start" x="392" y="-81.2" font-family="Helvetica,sans-Serif" font-size="11.00">[table]</text>
<polygon fill="none" stroke="black" points="223,-55 223,-73 431,-73 431,-55 223,-55"/>
<text text-anchor="start" x="226" y="-61.2" font-family="Helvetica,sans-Serif" font-size="11.00">...</text>
<polygon fill="#ffffff" stroke="none" points="223,-37 223,-55 307,-55 307,-37 223,-37"/>
<polygon fill="none" stroke="black" points="223,-37 223,-55 307,-55 307,-37 223,-37"/>
<text text-anchor="start" x="226" y="-43.2" font-family="Helvetica,sans-Serif" font-size="11.00">&lt; 2</text>
<polygon fill="#ffffff" stroke="none" points="307,-37 307,-55 387,-55 387,-37 307,-37"/>
<polygon fill="none" stroke="black" points="307,-37 307,-55 387,-55 387,-37 307,-37"/>
<text text-anchor="start" x="341" y="-43.2" font-family="Helvetica,sans-Serif" font-size="11.00">13 rows</text>
<polygon fill="#ffffff" stroke="none" points="387,-37 387,-55 431,-55 431,-37 387,-37"/>
<polygon fill="none" stroke="black" points="387,-37 387,-55 431,-55 431,-37 387,-37"/>
<text text-anchor="start" x="421" y="-43.2" font-family="Helvetica,sans-Serif" font-size="11.00"> &#160;</text>
</a>
</g>
</g>
<!-- galaxy_synclist_namespaces&#45;&gt;galaxy_namespace -->
<g id="edge3" class="edge"><title>galaxy_synclist_namespaces:elipses:w&#45;&gt;galaxy_namespace:id:e</title>
<path fill="none" stroke="black" d="M207.996,-67.782C183.591,-84.0192 202.425,-147 163,-147"/>
<polygon fill="black" stroke="black" points="214.277,-66.0858 222.939,-67.4755 218.138,-65.0429 222,-64 222,-64 222,-64 218.138,-65.0429 221.061,-60.5245 214.277,-66.0858 214.277,-66.0858"/>
<ellipse fill="none" stroke="black" cx="211.187" cy="-66.9202" rx="3.2" ry="3.2"/>
</g>
</g>
</svg>
