<?xml version="1.0" encoding="UTF-8" standalone="no"?>
<!DOCTYPE svg PUBLIC "-//W3C//DTD SVG 1.1//EN"
 "http://www.w3.org/Graphics/SVG/1.1/DTD/svg11.dtd">
<!-- Generated by graphviz version 2.38.0 (20140413.2041)
 -->
<!-- Title: oneDegreeRelationshipsDiagram Pages: 1 -->
<svg width="384pt" height="256pt"
 viewBox="0.00 0.00 384.00 256.00" xmlns="http://www.w3.org/2000/svg" xmlns:xlink="http://www.w3.org/1999/xlink">
<g id="graph0" class="graph" transform="scale(1 1) rotate(0) translate(4 252)">
<title>oneDegreeRelationshipsDiagram</title>
<polygon fill="#ffffff" stroke="none" points="-4,4 -4,-252 380,-252 380,4 -4,4"/>
<text text-anchor="middle" x="74.5" y="-7.2" font-family="Helvetica,sans-Serif" font-size="11.00">Generated by SchemaSpy</text>
<!-- galaxy_user_groups -->
<g id="node1" class="node"><title>galaxy_user_groups</title>
<g id="a_node1"><a xlink:href="../../tables/galaxy_user_groups.html" xlink:title="galaxy_user_groups" target="_top">
<polygon fill="#ffffff" stroke="none" points="172,-107 172,-217 368,-217 368,-107 172,-107"/>
<polygon fill="#f5f5f5" stroke="none" points="174,-193 174,-215 366,-215 366,-193 174,-193"/>
<polygon fill="none" stroke="black" points="174,-193 174,-215 366,-215 366,-193 174,-193"/>
<text text-anchor="start" x="179" y="-202.2" font-family="Helvetica,sans-Serif" font-weight="bold" font-size="11.00">galaxy_user_groups</text>
<text text-anchor="start" x="327" y="-201.2" font-family="Helvetica,sans-Serif" font-size="11.00">[table]</text>
<polygon fill="none" stroke="black" points="174,-171 174,-193 311,-193 311,-171 174,-171"/>
<image xlink:href="../../images/primaryKeys.png" width="11px" height="12px" preserveAspectRatio="xMinYMin meet" x="179" y="-188"/>
<text text-anchor="start" x="194" y="-179.2" font-family="Helvetica,sans-Serif" font-size="11.00">id</text>
<polygon fill="none" stroke="black" points="311,-171 311,-193 366,-193 366,-171 311,-171"/>
<text text-anchor="start" x="314" y="-179.2" font-family="Helvetica,sans-Serif" font-size="11.00">serial[10]</text>
<polygon fill="#ffffff" stroke="none" points="174,-149 174,-171 311,-171 311,-149 174,-149"/>
<polygon fill="none" stroke="black" points="174,-149 174,-171 311,-171 311,-149 174,-149"/>
<image xlink:href="../../images/foreignKeys.png" width="11px" height="12px" preserveAspectRatio="xMinYMin meet" x="179" y="-166"/>
<text text-anchor="start" x="194" y="-157.2" font-family="Helvetica,sans-Serif" font-size="11.00">user_id</text>
<polygon fill="none" stroke="black" points="311,-149 311,-171 366,-171 366,-149 311,-149"/>
<text text-anchor="start" x="314" y="-157.2" font-family="Helvetica,sans-Serif" font-size="11.00">int4[10]</text>
<polygon fill="#ffffff" stroke="none" points="174,-127 174,-149 311,-149 311,-127 174,-127"/>
<polygon fill="none" stroke="black" points="174,-127 174,-149 311,-149 311,-127 174,-127"/>
<image xlink:href="../../images/foreignKeys.png" width="11px" height="12px" preserveAspectRatio="xMinYMin meet" x="179" y="-144"/>
<text text-anchor="start" x="194" y="-135.2" font-family="Helvetica,sans-Serif" font-size="11.00">group_id</text>
<polygon fill="none" stroke="black" points="311,-127 311,-149 366,-149 366,-127 311,-127"/>
<text text-anchor="start" x="314" y="-135.2" font-family="Helvetica,sans-Serif" font-size="11.00">int4[10]</text>
<polygon fill="#ffffff" stroke="none" points="174,-109 174,-127 229,-127 229,-109 174,-109"/>
<polygon fill="none" stroke="black" points="174,-109 174,-127 229,-127 229,-109 174,-109"/>
<text text-anchor="start" x="177" y="-115.2" font-family="Helvetica,sans-Serif" font-size="11.00">&lt; 2</text>
<polygon fill="#ffffff" stroke="none" points="229,-109 229,-127 311,-127 311,-109 229,-109"/>
<polygon fill="none" stroke="black" points="229,-109 229,-127 311,-127 311,-109 229,-109"/>
<text text-anchor="start" x="265" y="-115.2" font-family="Helvetica,sans-Serif" font-size="11.00">18 rows</text>
<polygon fill="#ffffff" stroke="none" points="311,-109 311,-127 366,-127 366,-109 311,-109"/>
<polygon fill="none" stroke="black" points="311,-109 311,-127 366,-127 366,-109 311,-109"/>
<text text-anchor="start" x="346" y="-115.2" font-family="Helvetica,sans-Serif" font-size="11.00">0 &gt;</text>
<polygon fill="none" stroke="black" stroke-width="2" points="173,-108 173,-216 367,-216 367,-108 173,-108"/>
</a>
</g>
</g>
<!-- auth_group -->
<g id="node2" class="node"><title>auth_group</title>
<g id="a_node2"><a xlink:href="../../tables/auth_group.html" xlink:title="auth_group" target="_top">
<polygon fill="#ffffff" stroke="none" points="9,-37 9,-121 122,-121 122,-37 9,-37"/>
<polygon fill="#f5f5f5" stroke="none" points="9.5,-99 9.5,-121 122.5,-121 122.5,-99 9.5,-99"/>
<polygon fill="none" stroke="black" points="9.5,-99 9.5,-121 122.5,-121 122.5,-99 9.5,-99"/>
<text text-anchor="start" x="14.5" y="-108.2" font-family="Helvetica,sans-Serif" font-weight="bold" font-size="11.00">auth_group</text>
<text text-anchor="start" x="83.5" y="-107.2" font-family="Helvetica,sans-Serif" font-size="11.00">[table]</text>
<polygon fill="none" stroke="black" points="9.5,-77 9.5,-99 122.5,-99 122.5,-77 9.5,-77"/>
<image xlink:href="../../images/primaryKeys.png" width="11px" height="12px" preserveAspectRatio="xMinYMin meet" x="14.5" y="-94"/>
<text text-anchor="start" x="41.5" y="-85.2" font-family="Helvetica,sans-Serif" font-size="11.00">id</text>
<polygon fill="#ffffff" stroke="none" points="9.5,-55 9.5,-77 122.5,-77 122.5,-55 9.5,-55"/>
<polygon fill="none" stroke="black" points="9.5,-55 9.5,-77 122.5,-77 122.5,-55 9.5,-55"/>
<text text-anchor="start" x="41.5" y="-63.2" font-family="Helvetica,sans-Serif" font-size="11.00">name</text>
<polygon fill="#ffffff" stroke="none" points="9.5,-37 9.5,-55 36.5,-55 36.5,-37 9.5,-37"/>
<polygon fill="none" stroke="black" points="9.5,-37 9.5,-55 36.5,-55 36.5,-37 9.5,-37"/>
<text text-anchor="start" x="12.5" y="-43.2" font-family="Helvetica,sans-Serif" font-size="11.00"> &#160;</text>
<polygon fill="#ffffff" stroke="none" points="36.5,-37 36.5,-55 92.5,-55 92.5,-37 36.5,-37"/>
<polygon fill="none" stroke="black" points="36.5,-37 36.5,-55 92.5,-55 92.5,-37 36.5,-37"/>
<text text-anchor="start" x="46.5" y="-43.2" font-family="Helvetica,sans-Serif" font-size="11.00">15 rows</text>
<polygon fill="#ffffff" stroke="none" points="92.5,-37 92.5,-55 122.5,-55 122.5,-37 92.5,-37"/>
<polygon fill="none" stroke="black" points="92.5,-37 92.5,-55 122.5,-55 122.5,-37 92.5,-37"/>
<text text-anchor="start" x="102.5" y="-43.2" font-family="Helvetica,sans-Serif" font-size="11.00">3 &gt;</text>
</a>
</g>
</g>
<!-- galaxy_user_groups&#45;&gt;auth_group -->
<g id="edge1" class="edge"><title>galaxy_user_groups:group_id:w&#45;&gt;auth_group:id:e</title>
<path fill="none" stroke="black" d="M159.088,-133.023C145.133,-120.376 148.663,-88 123.5,-88"/>
<polygon fill="black" stroke="black" points="165.468,-135.305 171.787,-141.39 169.234,-136.653 173,-138 173,-138 173,-138 169.234,-136.653 174.213,-134.61 165.468,-135.305 165.468,-135.305"/>
<ellipse fill="none" stroke="black" cx="162.455" cy="-134.227" rx="3.20001" ry="3.20001"/>
</g>
<!-- galaxy_user -->
<g id="node3" class="node"><title>galaxy_user</title>
<g id="a_node3"><a xlink:href="../../tables/galaxy_user.html" xlink:title="galaxy_user" target="_top">
<polygon fill="#ffffff" stroke="none" points="8,-142 8,-244 123,-244 123,-142 8,-142"/>
<polygon fill="#f5f5f5" stroke="none" points="8.5,-222 8.5,-244 123.5,-244 123.5,-222 8.5,-222"/>
<polygon fill="none" stroke="black" points="8.5,-222 8.5,-244 123.5,-244 123.5,-222 8.5,-222"/>
<text text-anchor="start" x="13.5" y="-231.2" font-family="Helvetica,sans-Serif" font-weight="bold" font-size="11.00">galaxy_user</text>
<text text-anchor="start" x="84.5" y="-230.2" font-family="Helvetica,sans-Serif" font-size="11.00">[table]</text>
<polygon fill="none" stroke="black" points="8.5,-200 8.5,-222 123.5,-222 123.5,-200 8.5,-200"/>
<image xlink:href="../../images/primaryKeys.png" width="11px" height="12px" preserveAspectRatio="xMinYMin meet" x="13.5" y="-217"/>
<text text-anchor="start" x="38.5" y="-208.2" font-family="Helvetica,sans-Serif" font-size="11.00">id</text>
<polygon fill="#ffffff" stroke="none" points="8.5,-178 8.5,-200 123.5,-200 123.5,-178 8.5,-178"/>
<polygon fill="none" stroke="black" points="8.5,-178 8.5,-200 123.5,-200 123.5,-178 8.5,-178"/>
<text text-anchor="start" x="38.5" y="-186.2" font-family="Helvetica,sans-Serif" font-size="11.00">username</text>
<polygon fill="none" stroke="black" points="8.5,-160 8.5,-178 123.5,-178 123.5,-160 8.5,-160"/>
<text text-anchor="start" x="11.5" y="-166.2" font-family="Helvetica,sans-Serif" font-size="11.00">...</text>
<polygon fill="#ffffff" stroke="none" points="8.5,-142 8.5,-160 36.5,-160 36.5,-142 8.5,-142"/>
<polygon fill="none" stroke="black" points="8.5,-142 8.5,-160 36.5,-160 36.5,-142 8.5,-142"/>
<text text-anchor="start" x="11.5" y="-148.2" font-family="Helvetica,sans-Serif" font-size="11.00"> &#160;</text>
<polygon fill="#ffffff" stroke="none" points="36.5,-142 36.5,-160 92.5,-160 92.5,-142 36.5,-142"/>
<polygon fill="none" stroke="black" points="36.5,-142 36.5,-160 92.5,-160 92.5,-142 36.5,-142"/>
<text text-anchor="start" x="46.5" y="-148.2" font-family="Helvetica,sans-Serif" font-size="11.00">17 rows</text>
<polygon fill="#ffffff" stroke="none" points="92.5,-142 92.5,-160 123.5,-160 123.5,-142 92.5,-142"/>
<polygon fill="none" stroke="black" points="92.5,-142 92.5,-160 123.5,-160 123.5,-142 92.5,-142"/>
<text text-anchor="start" x="103.5" y="-148.2" font-family="Helvetica,sans-Serif" font-size="11.00">5 &gt;</text>
</a>
</g>
</g>
<!-- galaxy_user_groups&#45;&gt;galaxy_user -->
<g id="edge2" class="edge"><title>galaxy_user_groups:user_id:w&#45;&gt;galaxy_user:id:e</title>
<path fill="none" stroke="black" d="M159.185,-165.077C145.483,-177.976 149.67,-211 124.5,-211"/>
<polygon fill="black" stroke="black" points="165.491,-162.759 174.242,-163.379 169.245,-161.38 173,-160 173,-160 173,-160 169.245,-161.38 171.758,-156.621 165.491,-162.759 165.491,-162.759"/>
<ellipse fill="none" stroke="black" cx="162.487" cy="-163.863" rx="3.20001" ry="3.20001"/>
</g>
</g>
</svg>
