<?xml version="1.0" encoding="UTF-8" standalone="no"?>
<!DOCTYPE svg PUBLIC "-//W3C//DTD SVG 1.1//EN"
 "http://www.w3.org/Graphics/SVG/1.1/DTD/svg11.dtd">
<!-- Generated by graphviz version 2.38.0 (20140413.2041)
 -->
<!-- Title: twoDegreesRelationshipsDiagram Pages: 1 -->
<svg width="718pt" height="745pt"
 viewBox="0.00 0.00 718.00 745.00" xmlns="http://www.w3.org/2000/svg" xmlns:xlink="http://www.w3.org/1999/xlink">
<g id="graph0" class="graph" transform="scale(1 1) rotate(0) translate(4 741)">
<title>twoDegreesRelationshipsDiagram</title>
<polygon fill="#ffffff" stroke="none" points="-4,4 -4,-741 714,-741 714,4 -4,4"/>
<text text-anchor="middle" x="74.5" y="-7.2" font-family="Helvetica,sans-Serif" font-size="11.00">Generated by SchemaSpy</text>
<!-- auth_permission -->
<g id="node1" class="node"><title>auth_permission</title>
<g id="a_node1"><a xlink:href="../../tables/auth_permission.html" xlink:title="auth_permission" target="_top">
<polygon fill="#ffffff" stroke="none" points="253,-511 253,-569 396,-569 396,-511 253,-511"/>
<polygon fill="#f5f5f5" stroke="none" points="253.5,-547 253.5,-569 396.5,-569 396.5,-547 253.5,-547"/>
<polygon fill="none" stroke="black" points="253.5,-547 253.5,-569 396.5,-569 396.5,-547 253.5,-547"/>
<text text-anchor="start" x="258.5" y="-556.2" font-family="Helvetica,sans-Serif" font-weight="bold" font-size="11.00">auth_permission</text>
<text text-anchor="start" x="357.5" y="-555.2" font-family="Helvetica,sans-Serif" font-size="11.00">[table]</text>
<polygon fill="none" stroke="black" points="253.5,-529 253.5,-547 396.5,-547 396.5,-529 253.5,-529"/>
<text text-anchor="start" x="256.5" y="-535.2" font-family="Helvetica,sans-Serif" font-size="11.00">...</text>
<polygon fill="#ffffff" stroke="none" points="253.5,-511 253.5,-529 297.5,-529 297.5,-511 253.5,-511"/>
<polygon fill="none" stroke="black" points="253.5,-511 253.5,-529 297.5,-529 297.5,-511 253.5,-511"/>
<text text-anchor="start" x="256.5" y="-517.2" font-family="Helvetica,sans-Serif" font-size="11.00">&lt; 1</text>
<polygon fill="#ffffff" stroke="none" points="297.5,-511 297.5,-529 362.5,-529 362.5,-511 297.5,-511"/>
<polygon fill="none" stroke="black" points="297.5,-511 297.5,-529 362.5,-529 362.5,-511 297.5,-511"/>
<text text-anchor="start" x="310.5" y="-517.2" font-family="Helvetica,sans-Serif" font-size="11.00">322 rows</text>
<polygon fill="#ffffff" stroke="none" points="362.5,-511 362.5,-529 396.5,-529 396.5,-511 362.5,-511"/>
<polygon fill="none" stroke="black" points="362.5,-511 362.5,-529 396.5,-529 396.5,-511 362.5,-511"/>
<text text-anchor="start" x="376.5" y="-517.2" font-family="Helvetica,sans-Serif" font-size="11.00">4 &gt;</text>
</a>
</g>
</g>
<!-- django_content_type -->
<g id="node2" class="node"><title>django_content_type</title>
<g id="a_node2"><a xlink:href="../../tables/django_content_type.html" xlink:title="django_content_type" target="_top">
<polygon fill="#ffffff" stroke="none" points="8,-511 8,-569 175,-569 175,-511 8,-511"/>
<polygon fill="#f5f5f5" stroke="none" points="8.5,-547 8.5,-569 175.5,-569 175.5,-547 8.5,-547"/>
<polygon fill="none" stroke="black" points="8.5,-547 8.5,-569 175.5,-569 175.5,-547 8.5,-547"/>
<text text-anchor="start" x="13.5" y="-556.2" font-family="Helvetica,sans-Serif" font-weight="bold" font-size="11.00">django_content_type</text>
<text text-anchor="start" x="136.5" y="-555.2" font-family="Helvetica,sans-Serif" font-size="11.00">[table]</text>
<polygon fill="none" stroke="black" points="8.5,-529 8.5,-547 175.5,-547 175.5,-529 8.5,-529"/>
<text text-anchor="start" x="11.5" y="-535.2" font-family="Helvetica,sans-Serif" font-size="11.00">...</text>
<polygon fill="#ffffff" stroke="none" points="8.5,-511 8.5,-529 62.5,-529 62.5,-511 8.5,-511"/>
<polygon fill="none" stroke="black" points="8.5,-511 8.5,-529 62.5,-529 62.5,-511 8.5,-511"/>
<text text-anchor="start" x="11.5" y="-517.2" font-family="Helvetica,sans-Serif" font-size="11.00"> &#160;</text>
<polygon fill="#ffffff" stroke="none" points="62.5,-511 62.5,-529 131.5,-529 131.5,-511 62.5,-511"/>
<polygon fill="none" stroke="black" points="62.5,-511 62.5,-529 131.5,-529 131.5,-511 62.5,-511"/>
<text text-anchor="start" x="85.5" y="-517.2" font-family="Helvetica,sans-Serif" font-size="11.00">79 rows</text>
<polygon fill="#ffffff" stroke="none" points="131.5,-511 131.5,-529 175.5,-529 175.5,-511 131.5,-511"/>
<polygon fill="none" stroke="black" points="131.5,-511 131.5,-529 175.5,-529 175.5,-511 131.5,-511"/>
<text text-anchor="start" x="155.5" y="-517.2" font-family="Helvetica,sans-Serif" font-size="11.00">6 &gt;</text>
</a>
</g>
</g>
<!-- auth_permission&#45;&gt;django_content_type -->
<g id="edge1" class="edge"><title>auth_permission:elipses:w&#45;&gt;django_content_type:elipses:e</title>
<path fill="none" stroke="black" d="M238.012,-538C215.368,-538 204.868,-538 176.5,-538"/>
<polygon fill="black" stroke="black" points="244.5,-538 252.5,-541.6 248.5,-538 252.5,-538 252.5,-538 252.5,-538 248.5,-538 252.5,-534.4 244.5,-538 244.5,-538"/>
<ellipse fill="none" stroke="black" cx="241.3" cy="-538" rx="3.2" ry="3.2"/>
</g>
<!-- authtoken_token -->
<g id="node3" class="node"><title>authtoken_token</title>
<g id="a_node3"><a xlink:href="../../tables/authtoken_token.html" xlink:title="authtoken_token" target="_top">
<polygon fill="#ffffff" stroke="none" points="515,-188 515,-290 661,-290 661,-188 515,-188"/>
<polygon fill="#f5f5f5" stroke="none" points="515,-268 515,-290 661,-290 661,-268 515,-268"/>
<polygon fill="none" stroke="black" points="515,-268 515,-290 661,-290 661,-268 515,-268"/>
<text text-anchor="start" x="520" y="-277.2" font-family="Helvetica,sans-Serif" font-weight="bold" font-size="11.00">authtoken_token</text>
<text text-anchor="start" x="622" y="-276.2" font-family="Helvetica,sans-Serif" font-size="11.00">[table]</text>
<polygon fill="none" stroke="black" points="515,-246 515,-268 661,-268 661,-246 515,-246"/>
<image xlink:href="../../images/primaryKeys.png" width="11px" height="12px" preserveAspectRatio="xMinYMin meet" x="520" y="-263"/>
<text text-anchor="start" x="546" y="-254.2" font-family="Helvetica,sans-Serif" font-size="11.00">key</text>
<polygon fill="#ffffff" stroke="none" points="515,-224 515,-246 661,-246 661,-224 515,-224"/>
<polygon fill="none" stroke="black" points="515,-224 515,-246 661,-246 661,-224 515,-224"/>
<image xlink:href="../../images/foreignKeys.png" width="11px" height="12px" preserveAspectRatio="xMinYMin meet" x="520" y="-241"/>
<text text-anchor="start" x="546" y="-232.2" font-family="Helvetica,sans-Serif" font-size="11.00">user_id</text>
<polygon fill="none" stroke="black" points="515,-206 515,-224 661,-224 661,-206 515,-206"/>
<text text-anchor="start" x="518" y="-212.2" font-family="Helvetica,sans-Serif" font-size="11.00">...</text>
<polygon fill="#ffffff" stroke="none" points="515,-188 515,-206 572,-206 572,-188 515,-188"/>
<polygon fill="none" stroke="black" points="515,-188 515,-206 572,-206 572,-188 515,-188"/>
<text text-anchor="start" x="518" y="-194.2" font-family="Helvetica,sans-Serif" font-size="11.00">&lt; 1</text>
<polygon fill="#ffffff" stroke="none" points="572,-188 572,-206 631,-206 631,-188 572,-188"/>
<polygon fill="none" stroke="black" points="572,-188 572,-206 631,-206 631,-188 572,-188"/>
<text text-anchor="start" x="592" y="-194.2" font-family="Helvetica,sans-Serif" font-size="11.00">4 rows</text>
<polygon fill="#ffffff" stroke="none" points="631,-188 631,-206 661,-206 661,-188 631,-188"/>
<polygon fill="none" stroke="black" points="631,-188 631,-206 661,-206 661,-188 631,-188"/>
<text text-anchor="start" x="651" y="-194.2" font-family="Helvetica,sans-Serif" font-size="11.00"> &#160;</text>
</a>
</g>
</g>
<!-- galaxy_user -->
<g id="node4" class="node"><title>galaxy_user</title>
<g id="a_node4"><a xlink:href="../../tables/galaxy_user.html" xlink:title="galaxy_user" target="_top">
<polygon fill="#ffffff" stroke="none" points="224,-116 224,-402 425,-402 425,-116 224,-116"/>
<polygon fill="#f5f5f5" stroke="none" points="226.5,-378 226.5,-400 423.5,-400 423.5,-378 226.5,-378"/>
<polygon fill="none" stroke="black" points="226.5,-378 226.5,-400 423.5,-400 423.5,-378 226.5,-378"/>
<text text-anchor="start" x="231.5" y="-387.2" font-family="Helvetica,sans-Serif" font-weight="bold" font-size="11.00">galaxy_user</text>
<text text-anchor="start" x="384.5" y="-386.2" font-family="Helvetica,sans-Serif" font-size="11.00">[table]</text>
<polygon fill="none" stroke="black" points="226.5,-356 226.5,-378 321.5,-378 321.5,-356 226.5,-356"/>
<image xlink:href="../../images/primaryKeys.png" width="11px" height="12px" preserveAspectRatio="xMinYMin meet" x="231.5" y="-373"/>
<text text-anchor="start" x="246.5" y="-364.2" font-family="Helvetica,sans-Serif" font-size="11.00">id</text>
<polygon fill="none" stroke="black" points="321.5,-356 321.5,-378 423.5,-378 423.5,-356 321.5,-356"/>
<text text-anchor="start" x="324.5" y="-364.2" font-family="Helvetica,sans-Serif" font-size="11.00">serial[10]</text>
<polygon fill="none" stroke="black" points="226.5,-334 226.5,-356 321.5,-356 321.5,-334 226.5,-334"/>
<text text-anchor="start" x="246.5" y="-342.2" font-family="Helvetica,sans-Serif" font-size="11.00">password</text>
<polygon fill="none" stroke="black" points="321.5,-334 321.5,-356 423.5,-356 423.5,-334 321.5,-334"/>
<text text-anchor="start" x="324.5" y="-342.2" font-family="Helvetica,sans-Serif" font-size="11.00">varchar[128]</text>
<polygon fill="none" stroke="black" points="226.5,-312 226.5,-334 321.5,-334 321.5,-312 226.5,-312"/>
<text text-anchor="start" x="246.5" y="-320.2" font-family="Helvetica,sans-Serif" font-size="11.00">last_login</text>
<polygon fill="none" stroke="black" points="321.5,-312 321.5,-334 423.5,-334 423.5,-312 321.5,-312"/>
<text text-anchor="start" x="324.5" y="-320.2" font-family="Helvetica,sans-Serif" font-size="11.00">timestamptz[35,6]</text>
<polygon fill="none" stroke="black" points="226.5,-290 226.5,-312 321.5,-312 321.5,-290 226.5,-290"/>
<text text-anchor="start" x="246.5" y="-298.2" font-family="Helvetica,sans-Serif" font-size="11.00">is_superuser</text>
<polygon fill="none" stroke="black" points="321.5,-290 321.5,-312 423.5,-312 423.5,-290 321.5,-290"/>
<text text-anchor="start" x="324.5" y="-298.2" font-family="Helvetica,sans-Serif" font-size="11.00">bool[1]</text>
<polygon fill="#ffffff" stroke="none" points="226.5,-268 226.5,-290 321.5,-290 321.5,-268 226.5,-268"/>
<polygon fill="none" stroke="black" points="226.5,-268 226.5,-290 321.5,-290 321.5,-268 226.5,-268"/>
<text text-anchor="start" x="246.5" y="-276.2" font-family="Helvetica,sans-Serif" font-size="11.00">username</text>
<polygon fill="none" stroke="black" points="321.5,-268 321.5,-290 423.5,-290 423.5,-268 321.5,-268"/>
<text text-anchor="start" x="324.5" y="-276.2" font-family="Helvetica,sans-Serif" font-size="11.00">varchar[150]</text>
<polygon fill="none" stroke="black" points="226.5,-246 226.5,-268 321.5,-268 321.5,-246 226.5,-246"/>
<text text-anchor="start" x="246.5" y="-254.2" font-family="Helvetica,sans-Serif" font-size="11.00">first_name</text>
<polygon fill="none" stroke="black" points="321.5,-246 321.5,-268 423.5,-268 423.5,-246 321.5,-246"/>
<text text-anchor="start" x="324.5" y="-254.2" font-family="Helvetica,sans-Serif" font-size="11.00">varchar[30]</text>
<polygon fill="none" stroke="black" points="226.5,-224 226.5,-246 321.5,-246 321.5,-224 226.5,-224"/>
<text text-anchor="start" x="246.5" y="-232.2" font-family="Helvetica,sans-Serif" font-size="11.00">last_name</text>
<polygon fill="none" stroke="black" points="321.5,-224 321.5,-246 423.5,-246 423.5,-224 321.5,-224"/>
<text text-anchor="start" x="324.5" y="-232.2" font-family="Helvetica,sans-Serif" font-size="11.00">varchar[150]</text>
<polygon fill="none" stroke="black" points="226.5,-202 226.5,-224 321.5,-224 321.5,-202 226.5,-202"/>
<text text-anchor="start" x="246.5" y="-210.2" font-family="Helvetica,sans-Serif" font-size="11.00">email</text>
<polygon fill="none" stroke="black" points="321.5,-202 321.5,-224 423.5,-224 423.5,-202 321.5,-202"/>
<text text-anchor="start" x="324.5" y="-210.2" font-family="Helvetica,sans-Serif" font-size="11.00">varchar[254]</text>
<polygon fill="none" stroke="black" points="226.5,-180 226.5,-202 321.5,-202 321.5,-180 226.5,-180"/>
<text text-anchor="start" x="246.5" y="-188.2" font-family="Helvetica,sans-Serif" font-size="11.00">is_staff</text>
<polygon fill="none" stroke="black" points="321.5,-180 321.5,-202 423.5,-202 423.5,-180 321.5,-180"/>
<text text-anchor="start" x="324.5" y="-188.2" font-family="Helvetica,sans-Serif" font-size="11.00">bool[1]</text>
<polygon fill="none" stroke="black" points="226.5,-158 226.5,-180 321.5,-180 321.5,-158 226.5,-158"/>
<text text-anchor="start" x="246.5" y="-166.2" font-family="Helvetica,sans-Serif" font-size="11.00">is_active</text>
<polygon fill="none" stroke="black" points="321.5,-158 321.5,-180 423.5,-180 423.5,-158 321.5,-158"/>
<text text-anchor="start" x="324.5" y="-166.2" font-family="Helvetica,sans-Serif" font-size="11.00">bool[1]</text>
<polygon fill="none" stroke="black" points="226.5,-136 226.5,-158 321.5,-158 321.5,-136 226.5,-136"/>
<text text-anchor="start" x="246.5" y="-144.2" font-family="Helvetica,sans-Serif" font-size="11.00">date_joined</text>
<polygon fill="none" stroke="black" points="321.5,-136 321.5,-158 423.5,-158 423.5,-136 321.5,-136"/>
<text text-anchor="start" x="324.5" y="-144.2" font-family="Helvetica,sans-Serif" font-size="11.00">timestamptz[35,6]</text>
<polygon fill="#ffffff" stroke="none" points="226.5,-118 226.5,-136 260.5,-136 260.5,-118 226.5,-118"/>
<polygon fill="none" stroke="black" points="226.5,-118 226.5,-136 260.5,-136 260.5,-118 226.5,-118"/>
<text text-anchor="start" x="229.5" y="-124.2" font-family="Helvetica,sans-Serif" font-size="11.00">&lt; 0</text>
<polygon fill="#ffffff" stroke="none" points="260.5,-118 260.5,-136 321.5,-136 321.5,-118 260.5,-118"/>
<polygon fill="none" stroke="black" points="260.5,-118 260.5,-136 321.5,-136 321.5,-118 260.5,-118"/>
<text text-anchor="start" x="275.5" y="-124.2" font-family="Helvetica,sans-Serif" font-size="11.00">17 rows</text>
<polygon fill="#ffffff" stroke="none" points="321.5,-118 321.5,-136 423.5,-136 423.5,-118 321.5,-118"/>
<polygon fill="none" stroke="black" points="321.5,-118 321.5,-136 423.5,-136 423.5,-118 321.5,-118"/>
<text text-anchor="start" x="403.5" y="-124.2" font-family="Helvetica,sans-Serif" font-size="11.00">5 &gt;</text>
<polygon fill="none" stroke="black" stroke-width="2" points="225,-117 225,-401 424,-401 424,-117 225,-117"/>
</a>
</g>
</g>
<!-- authtoken_token&#45;&gt;galaxy_user -->
<g id="edge2" class="edge"><title>authtoken_token:user_id:w&#45;&gt;galaxy_user:id.type:e</title>
<path fill="none" stroke="black" d="M503.613,-236.236C479.265,-242.796 484.108,-274.249 466,-301 446.577,-329.694 459.15,-367 424.5,-367"/>
<polygon fill="black" stroke="black" points="512.733,-231.123 513.678,-239.067 512.089,-239.256 511.144,-231.312 512.733,-231.123"/>
<polyline fill="none" stroke="black" points="514,-235 510.028,-235.473 "/>
<ellipse fill="none" stroke="black" cx="506.85" cy="-235.851" rx="3.2" ry="3.2"/>
</g>
<!-- django_admin_log -->
<g id="node5" class="node"><title>django_admin_log</title>
<g id="a_node5"><a xlink:href="../../tables/django_admin_log.html" xlink:title="django_admin_log" target="_top">
<polygon fill="#ffffff" stroke="none" points="513.5,-311 513.5,-435 662.5,-435 662.5,-311 513.5,-311"/>
<polygon fill="#f5f5f5" stroke="none" points="514,-413 514,-435 663,-435 663,-413 514,-413"/>
<polygon fill="none" stroke="black" points="514,-413 514,-435 663,-435 663,-413 514,-413"/>
<text text-anchor="start" x="519" y="-422.2" font-family="Helvetica,sans-Serif" font-weight="bold" font-size="11.00">django_admin_log</text>
<text text-anchor="start" x="624" y="-421.2" font-family="Helvetica,sans-Serif" font-size="11.00">[table]</text>
<polygon fill="none" stroke="black" points="514,-391 514,-413 663,-413 663,-391 514,-391"/>
<image xlink:href="../../images/primaryKeys.png" width="11px" height="12px" preserveAspectRatio="xMinYMin meet" x="519" y="-408"/>
<text text-anchor="start" x="545" y="-399.2" font-family="Helvetica,sans-Serif" font-size="11.00">id</text>
<polygon fill="#ffffff" stroke="none" points="514,-369 514,-391 663,-391 663,-369 514,-369"/>
<polygon fill="none" stroke="black" points="514,-369 514,-391 663,-391 663,-369 514,-369"/>
<image xlink:href="../../images/foreignKeys.png" width="11px" height="12px" preserveAspectRatio="xMinYMin meet" x="519" y="-386"/>
<text text-anchor="start" x="545" y="-377.2" font-family="Helvetica,sans-Serif" font-size="11.00">content_type_id</text>
<polygon fill="#ffffff" stroke="none" points="514,-347 514,-369 663,-369 663,-347 514,-347"/>
<polygon fill="none" stroke="black" points="514,-347 514,-369 663,-369 663,-347 514,-347"/>
<image xlink:href="../../images/foreignKeys.png" width="11px" height="12px" preserveAspectRatio="xMinYMin meet" x="519" y="-364"/>
<text text-anchor="start" x="545" y="-355.2" font-family="Helvetica,sans-Serif" font-size="11.00">user_id</text>
<polygon fill="none" stroke="black" points="514,-329 514,-347 663,-347 663,-329 514,-329"/>
<text text-anchor="start" x="517" y="-335.2" font-family="Helvetica,sans-Serif" font-size="11.00">...</text>
<polygon fill="#ffffff" stroke="none" points="514,-311 514,-329 566,-329 566,-311 514,-311"/>
<polygon fill="none" stroke="black" points="514,-311 514,-329 566,-329 566,-311 514,-311"/>
<text text-anchor="start" x="517" y="-317.2" font-family="Helvetica,sans-Serif" font-size="11.00">&lt; 2</text>
<polygon fill="#ffffff" stroke="none" points="566,-311 566,-329 635,-329 635,-311 566,-311"/>
<polygon fill="none" stroke="black" points="566,-311 566,-329 635,-329 635,-311 566,-311"/>
<text text-anchor="start" x="583" y="-317.2" font-family="Helvetica,sans-Serif" font-size="11.00">229 rows</text>
<polygon fill="#ffffff" stroke="none" points="635,-311 635,-329 663,-329 663,-311 635,-311"/>
<polygon fill="none" stroke="black" points="635,-311 635,-329 663,-329 663,-311 635,-311"/>
<text text-anchor="start" x="653" y="-317.2" font-family="Helvetica,sans-Serif" font-size="11.00"> &#160;</text>
</a>
</g>
</g>
<!-- django_admin_log&#45;&gt;django_content_type -->
<g id="edge3" class="edge"><title>django_admin_log:content_type_id:w&#45;&gt;django_content_type:elipses:e</title>
<path fill="none" stroke="black" d="M498.53,-381.032C472.281,-385.109 463.593,-400.487 433,-413 336.673,-452.399 303.676,-444.927 216,-501 195.736,-513.96 200.554,-538 176.5,-538"/>
<polygon fill="black" stroke="black" points="505.02,-380.569 513.256,-383.591 509.01,-380.285 513,-380 513,-380 513,-380 509.01,-380.285 512.744,-376.409 505.02,-380.569 505.02,-380.569"/>
<ellipse fill="none" stroke="black" cx="501.828" cy="-380.797" rx="3.2" ry="3.2"/>
</g>
<!-- django_admin_log&#45;&gt;galaxy_user -->
<g id="edge4" class="edge"><title>django_admin_log:user_id:w&#45;&gt;galaxy_user:id.type:e</title>
<path fill="none" stroke="black" d="M498.318,-358.459C470.323,-360.293 458.631,-367 424.5,-367"/>
<polygon fill="black" stroke="black" points="505.004,-358.25 513.112,-361.598 509.002,-358.125 513,-358 513,-358 513,-358 509.002,-358.125 512.888,-354.402 505.004,-358.25 505.004,-358.25"/>
<ellipse fill="none" stroke="black" cx="501.805" cy="-358.35" rx="3.2" ry="3.2"/>
</g>
<!-- galaxy_user_groups -->
<g id="node6" class="node"><title>galaxy_user_groups</title>
<g id="a_node6"><a xlink:href="../../tables/galaxy_user_groups.html" xlink:title="galaxy_user_groups" target="_top">
<polygon fill="#ffffff" stroke="none" points="509.5,-52 509.5,-158 666.5,-158 666.5,-52 509.5,-52"/>
<polygon fill="#f5f5f5" stroke="none" points="510,-136 510,-158 667,-158 667,-136 510,-136"/>
<polygon fill="none" stroke="black" points="510,-136 510,-158 667,-158 667,-136 510,-136"/>
<text text-anchor="start" x="515" y="-145.2" font-family="Helvetica,sans-Serif" font-weight="bold" font-size="11.00">galaxy_user_groups</text>
<text text-anchor="start" x="628" y="-144.2" font-family="Helvetica,sans-Serif" font-size="11.00">[table]</text>
<polygon fill="none" stroke="black" points="510,-114 510,-136 667,-136 667,-114 510,-114"/>
<image xlink:href="../../images/primaryKeys.png" width="11px" height="12px" preserveAspectRatio="xMinYMin meet" x="515" y="-131"/>
<text text-anchor="start" x="540" y="-122.2" font-family="Helvetica,sans-Serif" font-size="11.00">id</text>
<polygon fill="#ffffff" stroke="none" points="510,-92 510,-114 667,-114 667,-92 510,-92"/>
<polygon fill="none" stroke="black" points="510,-92 510,-114 667,-114 667,-92 510,-92"/>
<image xlink:href="../../images/foreignKeys.png" width="11px" height="12px" preserveAspectRatio="xMinYMin meet" x="515" y="-109"/>
<text text-anchor="start" x="540" y="-100.2" font-family="Helvetica,sans-Serif" font-size="11.00">user_id</text>
<polygon fill="#ffffff" stroke="none" points="510,-70 510,-92 667,-92 667,-70 510,-70"/>
<polygon fill="none" stroke="black" points="510,-70 510,-92 667,-92 667,-70 510,-70"/>
<image xlink:href="../../images/foreignKeys.png" width="11px" height="12px" preserveAspectRatio="xMinYMin meet" x="515" y="-87"/>
<text text-anchor="start" x="540" y="-78.2" font-family="Helvetica,sans-Serif" font-size="11.00">group_id</text>
<polygon fill="#ffffff" stroke="none" points="510,-52 510,-70 569,-70 569,-52 510,-52"/>
<polygon fill="none" stroke="black" points="510,-52 510,-70 569,-70 569,-52 510,-52"/>
<text text-anchor="start" x="513" y="-58.2" font-family="Helvetica,sans-Serif" font-size="11.00">&lt; 2</text>
<polygon fill="#ffffff" stroke="none" points="569,-52 569,-70 636,-70 636,-52 569,-52"/>
<polygon fill="none" stroke="black" points="569,-52 569,-70 636,-70 636,-52 569,-52"/>
<text text-anchor="start" x="590" y="-58.2" font-family="Helvetica,sans-Serif" font-size="11.00">18 rows</text>
<polygon fill="#ffffff" stroke="none" points="636,-52 636,-70 667,-70 667,-52 636,-52"/>
<polygon fill="none" stroke="black" points="636,-52 636,-70 667,-70 667,-52 636,-52"/>
<text text-anchor="start" x="657" y="-58.2" font-family="Helvetica,sans-Serif" font-size="11.00"> &#160;</text>
</a>
</g>
</g>
<!-- galaxy_user_groups&#45;&gt;galaxy_user -->
<g id="edge6" class="edge"><title>galaxy_user_groups:user_id:w&#45;&gt;galaxy_user:id.type:e</title>
<path fill="none" stroke="black" d="M494.632,-105.537C473.124,-114.673 477.681,-146.947 466,-177 450.343,-217.282 467.718,-367 424.5,-367"/>
<polygon fill="black" stroke="black" points="501.122,-104.391 509.626,-106.545 505.061,-103.695 509,-103 509,-103 509,-103 505.061,-103.695 508.374,-99.4548 501.122,-104.391 501.122,-104.391"/>
<ellipse fill="none" stroke="black" cx="497.971" cy="-104.947" rx="3.2" ry="3.2"/>
</g>
<!-- auth_group -->
<g id="node7" class="node"><title>auth_group</title>
<g id="a_node7"><a xlink:href="../../tables/auth_group.html" xlink:title="auth_group" target="_top">
<polygon fill="#ffffff" stroke="none" points="268,-37 268,-95 381,-95 381,-37 268,-37"/>
<polygon fill="#f5f5f5" stroke="none" points="268.5,-73 268.5,-95 381.5,-95 381.5,-73 268.5,-73"/>
<polygon fill="none" stroke="black" points="268.5,-73 268.5,-95 381.5,-95 381.5,-73 268.5,-73"/>
<text text-anchor="start" x="273.5" y="-82.2" font-family="Helvetica,sans-Serif" font-weight="bold" font-size="11.00">auth_group</text>
<text text-anchor="start" x="342.5" y="-81.2" font-family="Helvetica,sans-Serif" font-size="11.00">[table]</text>
<polygon fill="none" stroke="black" points="268.5,-55 268.5,-73 381.5,-73 381.5,-55 268.5,-55"/>
<text text-anchor="start" x="271.5" y="-61.2" font-family="Helvetica,sans-Serif" font-size="11.00">...</text>
<polygon fill="#ffffff" stroke="none" points="268.5,-37 268.5,-55 295.5,-55 295.5,-37 268.5,-37"/>
<polygon fill="none" stroke="black" points="268.5,-37 268.5,-55 295.5,-55 295.5,-37 268.5,-37"/>
<text text-anchor="start" x="271.5" y="-43.2" font-family="Helvetica,sans-Serif" font-size="11.00"> &#160;</text>
<polygon fill="#ffffff" stroke="none" points="295.5,-37 295.5,-55 351.5,-55 351.5,-37 295.5,-37"/>
<polygon fill="none" stroke="black" points="295.5,-37 295.5,-55 351.5,-55 351.5,-37 295.5,-37"/>
<text text-anchor="start" x="305.5" y="-43.2" font-family="Helvetica,sans-Serif" font-size="11.00">15 rows</text>
<polygon fill="#ffffff" stroke="none" points="351.5,-37 351.5,-55 381.5,-55 381.5,-37 351.5,-37"/>
<polygon fill="none" stroke="black" points="351.5,-37 351.5,-55 381.5,-55 381.5,-37 351.5,-37"/>
<text text-anchor="start" x="361.5" y="-43.2" font-family="Helvetica,sans-Serif" font-size="11.00">3 &gt;</text>
</a>
</g>
</g>
<!-- galaxy_user_groups&#45;&gt;auth_group -->
<g id="edge5" class="edge"><title>galaxy_user_groups:group_id:w&#45;&gt;auth_group:elipses:e</title>
<path fill="none" stroke="black" d="M494.414,-80.5965C449.509,-78.0222 434.02,-64 382.5,-64"/>
<polygon fill="black" stroke="black" points="501.003,-80.7787 508.9,-84.5986 505.002,-80.8894 509,-81 509,-81 509,-81 505.002,-80.8894 509.1,-77.4014 501.003,-80.7787 501.003,-80.7787"/>
<ellipse fill="none" stroke="black" cx="497.804" cy="-80.6902" rx="3.2" ry="3.2"/>
</g>
<!-- galaxy_user_user_permissions -->
<g id="node8" class="node"><title>galaxy_user_user_permissions</title>
<g id="a_node8"><a xlink:href="../../tables/galaxy_user_user_permissions.html" xlink:title="galaxy_user_user_permissions" target="_top">
<polygon fill="#ffffff" stroke="none" points="479.5,-456 479.5,-562 696.5,-562 696.5,-456 479.5,-456"/>
<polygon fill="#f5f5f5" stroke="none" points="480,-540 480,-562 697,-562 697,-540 480,-540"/>
<polygon fill="none" stroke="black" points="480,-540 480,-562 697,-562 697,-540 480,-540"/>
<text text-anchor="start" x="485" y="-549.2" font-family="Helvetica,sans-Serif" font-weight="bold" font-size="11.00">galaxy_user_user_permissions</text>
<text text-anchor="start" x="658" y="-548.2" font-family="Helvetica,sans-Serif" font-size="11.00">[table]</text>
<polygon fill="none" stroke="black" points="480,-518 480,-540 697,-540 697,-518 480,-518"/>
<image xlink:href="../../images/primaryKeys.png" width="11px" height="12px" preserveAspectRatio="xMinYMin meet" x="485" y="-535"/>
<text text-anchor="start" x="509" y="-526.2" font-family="Helvetica,sans-Serif" font-size="11.00">id</text>
<polygon fill="#ffffff" stroke="none" points="480,-496 480,-518 697,-518 697,-496 480,-496"/>
<polygon fill="none" stroke="black" points="480,-496 480,-518 697,-518 697,-496 480,-496"/>
<image xlink:href="../../images/foreignKeys.png" width="11px" height="12px" preserveAspectRatio="xMinYMin meet" x="485" y="-513"/>
<text text-anchor="start" x="509" y="-504.2" font-family="Helvetica,sans-Serif" font-size="11.00">user_id</text>
<polygon fill="#ffffff" stroke="none" points="480,-474 480,-496 697,-496 697,-474 480,-474"/>
<polygon fill="none" stroke="black" points="480,-474 480,-496 697,-496 697,-474 480,-474"/>
<image xlink:href="../../images/foreignKeys.png" width="11px" height="12px" preserveAspectRatio="xMinYMin meet" x="485" y="-491"/>
<text text-anchor="start" x="509" y="-482.2" font-family="Helvetica,sans-Serif" font-size="11.00">permission_id</text>
<polygon fill="#ffffff" stroke="none" points="480,-456 480,-474 572,-474 572,-456 480,-456"/>
<polygon fill="none" stroke="black" points="480,-456 480,-474 572,-474 572,-456 480,-456"/>
<text text-anchor="start" x="483" y="-462.2" font-family="Helvetica,sans-Serif" font-size="11.00">&lt; 2</text>
<polygon fill="#ffffff" stroke="none" points="572,-456 572,-474 649,-474 649,-456 572,-456"/>
<polygon fill="none" stroke="black" points="572,-456 572,-474 649,-474 649,-456 572,-456"/>
<text text-anchor="start" x="610" y="-462.2" font-family="Helvetica,sans-Serif" font-size="11.00">0 rows</text>
<polygon fill="#ffffff" stroke="none" points="649,-456 649,-474 697,-474 697,-456 649,-456"/>
<polygon fill="none" stroke="black" points="649,-456 649,-474 697,-474 697,-456 649,-456"/>
<text text-anchor="start" x="687" y="-462.2" font-family="Helvetica,sans-Serif" font-size="11.00"> &#160;</text>
</a>
</g>
</g>
<!-- galaxy_user_user_permissions&#45;&gt;auth_permission -->
<g id="edge7" class="edge"><title>galaxy_user_user_permissions:permission_id:w&#45;&gt;auth_permission:elipses:e</title>
<path fill="none" stroke="black" d="M464.484,-487.415C436.26,-497.783 435.138,-538 397.5,-538"/>
<polygon fill="black" stroke="black" points="471.108,-486.313 479.591,-488.551 475.054,-485.656 479,-485 479,-485 479,-485 475.054,-485.656 478.409,-481.449 471.108,-486.313 471.108,-486.313"/>
<ellipse fill="none" stroke="black" cx="467.952" cy="-486.838" rx="3.2" ry="3.2"/>
</g>
<!-- galaxy_user_user_permissions&#45;&gt;galaxy_user -->
<g id="edge8" class="edge"><title>galaxy_user_user_permissions:user_id:w&#45;&gt;galaxy_user:id.type:e</title>
<path fill="none" stroke="black" d="M464.831,-504.076C424.738,-483.971 485.533,-367 424.5,-367"/>
<polygon fill="black" stroke="black" points="471.165,-505.383 478.272,-510.526 475.083,-506.192 479,-507 479,-507 479,-507 475.083,-506.192 479.728,-503.474 471.165,-505.383 471.165,-505.383"/>
<ellipse fill="none" stroke="black" cx="468.031" cy="-504.736" rx="3.2" ry="3.2"/>
</g>
<!-- guardian_userobjectpermission -->
<g id="node9" class="node"><title>guardian_userobjectpermission</title>
<g id="a_node9"><a xlink:href="../../tables/guardian_userobjectpermission.html" xlink:title="guardian_userobjectpermission" target="_top">
<polygon fill="#ffffff" stroke="none" points="474,-583 474,-733 702,-733 702,-583 474,-583"/>
<polygon fill="#f5f5f5" stroke="none" points="474,-711 474,-733 702,-733 702,-711 474,-711"/>
<polygon fill="none" stroke="black" points="474,-711 474,-733 702,-733 702,-711 474,-711"/>
<text text-anchor="start" x="479" y="-720.2" font-family="Helvetica,sans-Serif" font-weight="bold" font-size="11.00">guardian_userobjectpermission</text>
<text text-anchor="start" x="663" y="-719.2" font-family="Helvetica,sans-Serif" font-size="11.00">[table]</text>
<polygon fill="none" stroke="black" points="474,-689 474,-711 702,-711 702,-689 474,-689"/>
<image xlink:href="../../images/primaryKeys.png" width="11px" height="12px" preserveAspectRatio="xMinYMin meet" x="479" y="-706"/>
<text text-anchor="start" x="504" y="-697.2" font-family="Helvetica,sans-Serif" font-size="11.00">id</text>
<polygon fill="#ffffff" stroke="none" points="474,-667 474,-689 702,-689 702,-667 474,-667"/>
<polygon fill="none" stroke="black" points="474,-667 474,-689 702,-689 702,-667 474,-667"/>
<text text-anchor="start" x="504" y="-675.2" font-family="Helvetica,sans-Serif" font-size="11.00">object_pk</text>
<polygon fill="#ffffff" stroke="none" points="474,-645 474,-667 702,-667 702,-645 474,-645"/>
<polygon fill="none" stroke="black" points="474,-645 474,-667 702,-667 702,-645 474,-645"/>
<image xlink:href="../../images/foreignKeys.png" width="11px" height="12px" preserveAspectRatio="xMinYMin meet" x="479" y="-662"/>
<text text-anchor="start" x="504" y="-653.2" font-family="Helvetica,sans-Serif" font-size="11.00">content_type_id</text>
<polygon fill="#ffffff" stroke="none" points="474,-623 474,-645 702,-645 702,-623 474,-623"/>
<polygon fill="none" stroke="black" points="474,-623 474,-645 702,-645 702,-623 474,-623"/>
<image xlink:href="../../images/foreignKeys.png" width="11px" height="12px" preserveAspectRatio="xMinYMin meet" x="479" y="-640"/>
<text text-anchor="start" x="504" y="-631.2" font-family="Helvetica,sans-Serif" font-size="11.00">permission_id</text>
<polygon fill="#ffffff" stroke="none" points="474,-601 474,-623 702,-623 702,-601 474,-601"/>
<polygon fill="none" stroke="black" points="474,-601 474,-623 702,-623 702,-601 474,-601"/>
<image xlink:href="../../images/foreignKeys.png" width="11px" height="12px" preserveAspectRatio="xMinYMin meet" x="479" y="-618"/>
<text text-anchor="start" x="504" y="-609.2" font-family="Helvetica,sans-Serif" font-size="11.00">user_id</text>
<polygon fill="#ffffff" stroke="none" points="474,-583 474,-601 572,-601 572,-583 474,-583"/>
<polygon fill="none" stroke="black" points="474,-583 474,-601 572,-601 572,-583 474,-583"/>
<text text-anchor="start" x="477" y="-589.2" font-family="Helvetica,sans-Serif" font-size="11.00">&lt; 3</text>
<polygon fill="#ffffff" stroke="none" points="572,-583 572,-601 651,-601 651,-583 572,-583"/>
<polygon fill="none" stroke="black" points="572,-583 572,-601 651,-601 651,-583 572,-583"/>
<text text-anchor="start" x="612" y="-589.2" font-family="Helvetica,sans-Serif" font-size="11.00">0 rows</text>
<polygon fill="#ffffff" stroke="none" points="651,-583 651,-601 702,-601 702,-583 651,-583"/>
<polygon fill="none" stroke="black" points="651,-583 651,-601 702,-601 702,-583 651,-583"/>
<text text-anchor="start" x="692" y="-589.2" font-family="Helvetica,sans-Serif" font-size="11.00"> &#160;</text>
</a>
</g>
</g>
<!-- guardian_userobjectpermission&#45;&gt;auth_permission -->
<g id="edge10" class="edge"><title>guardian_userobjectpermission:permission_id:w&#45;&gt;auth_permission:elipses:e</title>
<path fill="none" stroke="black" d="M458.535,-631.022C424.721,-614.818 446.056,-538 397.5,-538"/>
<polygon fill="black" stroke="black" points="465.164,-632.387 472.274,-637.526 469.082,-633.193 473,-634 473,-634 473,-634 469.082,-633.193 473.726,-630.474 465.164,-632.387 465.164,-632.387"/>
<ellipse fill="none" stroke="black" cx="462.03" cy="-631.741" rx="3.2" ry="3.2"/>
</g>
<!-- guardian_userobjectpermission&#45;&gt;django_content_type -->
<g id="edge9" class="edge"><title>guardian_userobjectpermission:content_type_id:w&#45;&gt;django_content_type:elipses:e</title>
<path fill="none" stroke="black" d="M458.421,-655.926C350.712,-654.775 313.175,-639.818 216,-580 194.178,-566.567 202.125,-538 176.5,-538"/>
<polygon fill="black" stroke="black" points="465,-655.959 472.982,-659.6 469,-655.98 473,-656 473,-656 473,-656 469,-655.98 473.018,-652.4 465,-655.959 465,-655.959"/>
<ellipse fill="none" stroke="black" cx="461.8" cy="-655.943" rx="3.2" ry="3.2"/>
</g>
<!-- guardian_userobjectpermission&#45;&gt;galaxy_user -->
<g id="edge11" class="edge"><title>guardian_userobjectpermission:user_id:w&#45;&gt;galaxy_user:id.type:e</title>
<path fill="none" stroke="black" d="M458.216,-610.169C378.886,-587.749 529.865,-367 424.5,-367"/>
<polygon fill="black" stroke="black" points="465.061,-611.017 472.557,-615.573 469.03,-611.508 473,-612 473,-612 473,-612 469.03,-611.508 473.443,-608.427 465.061,-611.017 465.061,-611.017"/>
<ellipse fill="none" stroke="black" cx="461.885" cy="-610.623" rx="3.2" ry="3.2"/>
</g>
</g>
</svg>
