<?xml version="1.0" encoding="UTF-8" standalone="no"?>
<!DOCTYPE svg PUBLIC "-//W3C//DTD SVG 1.1//EN"
 "http://www.w3.org/Graphics/SVG/1.1/DTD/svg11.dtd">
<!-- Generated by graphviz version 2.38.0 (20140413.2041)
 -->
<!-- Title: oneDegreeRelationshipsDiagram Pages: 1 -->
<svg width="523pt" height="340pt"
 viewBox="0.00 0.00 523.00 340.00" xmlns="http://www.w3.org/2000/svg" xmlns:xlink="http://www.w3.org/1999/xlink">
<g id="graph0" class="graph" transform="scale(1 1) rotate(0) translate(4 336)">
<title>oneDegreeRelationshipsDiagram</title>
<polygon fill="#ffffff" stroke="none" points="-4,4 -4,-336 519,-336 519,4 -4,4"/>
<text text-anchor="middle" x="74.5" y="-7.2" font-family="Helvetica,sans-Serif" font-size="11.00">Generated by SchemaSpy</text>
<!-- galaxy_synclist_collections -->
<g id="node1" class="node"><title>galaxy_synclist_collections</title>
<g id="a_node1"><a xlink:href="../../tables/galaxy_synclist_collections.html" xlink:title="galaxy_synclist_collections" target="_top">
<polygon fill="#ffffff" stroke="none" points="219,-169 219,-279 507,-279 507,-169 219,-169"/>
<polygon fill="#f5f5f5" stroke="none" points="221,-255 221,-277 505,-277 505,-255 221,-255"/>
<polygon fill="none" stroke="black" points="221,-255 221,-277 505,-277 505,-255 221,-255"/>
<text text-anchor="start" x="226" y="-264.2" font-family="Helvetica,sans-Serif" font-weight="bold" font-size="11.00">galaxy_synclist_collections</text>
<text text-anchor="start" x="466" y="-263.2" font-family="Helvetica,sans-Serif" font-size="11.00">[table]</text>
<polygon fill="none" stroke="black" points="221,-233 221,-255 400,-255 400,-233 221,-233"/>
<image xlink:href="../../images/primaryKeys.png" width="11px" height="12px" preserveAspectRatio="xMinYMin meet" x="226" y="-250"/>
<text text-anchor="start" x="241" y="-241.2" font-family="Helvetica,sans-Serif" font-size="11.00">id</text>
<polygon fill="none" stroke="black" points="400,-233 400,-255 505,-255 505,-233 400,-233"/>
<text text-anchor="start" x="403" y="-241.2" font-family="Helvetica,sans-Serif" font-size="11.00">serial[10]</text>
<polygon fill="#ffffff" stroke="none" points="221,-211 221,-233 400,-233 400,-211 221,-211"/>
<polygon fill="none" stroke="black" points="221,-211 221,-233 400,-233 400,-211 221,-211"/>
<image xlink:href="../../images/foreignKeys.png" width="11px" height="12px" preserveAspectRatio="xMinYMin meet" x="226" y="-228"/>
<text text-anchor="start" x="241" y="-219.2" font-family="Helvetica,sans-Serif" font-size="11.00">synclist_id</text>
<polygon fill="none" stroke="black" points="400,-211 400,-233 505,-233 505,-211 400,-211"/>
<text text-anchor="start" x="403" y="-219.2" font-family="Helvetica,sans-Serif" font-size="11.00">int4[10]</text>
<polygon fill="#ffffff" stroke="none" points="221,-189 221,-211 400,-211 400,-189 221,-189"/>
<polygon fill="none" stroke="black" points="221,-189 221,-211 400,-211 400,-189 221,-189"/>
<image xlink:href="../../images/foreignKeys.png" width="11px" height="12px" preserveAspectRatio="xMinYMin meet" x="226" y="-206"/>
<text text-anchor="start" x="241" y="-197.2" font-family="Helvetica,sans-Serif" font-size="11.00">collection_id</text>
<polygon fill="none" stroke="black" points="400,-189 400,-211 505,-211 505,-189 400,-189"/>
<text text-anchor="start" x="403" y="-197.2" font-family="Helvetica,sans-Serif" font-size="11.00">uuid[2147483647]</text>
<polygon fill="#ffffff" stroke="none" points="221,-171 221,-189 301,-189 301,-171 221,-171"/>
<polygon fill="none" stroke="black" points="221,-171 221,-189 301,-189 301,-171 221,-171"/>
<text text-anchor="start" x="224" y="-177.2" font-family="Helvetica,sans-Serif" font-size="11.00">&lt; 2</text>
<polygon fill="#ffffff" stroke="none" points="301,-171 301,-189 400,-189 400,-171 301,-171"/>
<polygon fill="none" stroke="black" points="301,-171 301,-189 400,-189 400,-171 301,-171"/>
<text text-anchor="start" x="361" y="-177.2" font-family="Helvetica,sans-Serif" font-size="11.00">8 rows</text>
<polygon fill="#ffffff" stroke="none" points="400,-171 400,-189 505,-189 505,-171 400,-171"/>
<polygon fill="none" stroke="black" points="400,-171 400,-189 505,-189 505,-171 400,-171"/>
<text text-anchor="start" x="485" y="-177.2" font-family="Helvetica,sans-Serif" font-size="11.00">0 &gt;</text>
<polygon fill="none" stroke="black" stroke-width="2" points="220,-170 220,-278 506,-278 506,-170 220,-170"/>
</a>
</g>
</g>
<!-- ansible_collection -->
<g id="node2" class="node"><title>ansible_collection</title>
<g id="a_node2"><a xlink:href="../../tables/ansible_collection.html" xlink:title="ansible_collection" target="_top">
<polygon fill="#ffffff" stroke="none" points="13.5,-37 13.5,-161 164.5,-161 164.5,-37 13.5,-37"/>
<polygon fill="#f5f5f5" stroke="none" points="14,-139 14,-161 165,-161 165,-139 14,-139"/>
<polygon fill="none" stroke="black" points="14,-139 14,-161 165,-161 165,-139 14,-139"/>
<text text-anchor="start" x="19" y="-148.2" font-family="Helvetica,sans-Serif" font-weight="bold" font-size="11.00">ansible_collection</text>
<text text-anchor="start" x="126" y="-147.2" font-family="Helvetica,sans-Serif" font-size="11.00">[table]</text>
<polygon fill="none" stroke="black" points="14,-117 14,-139 165,-139 165,-117 14,-117"/>
<image xlink:href="../../images/primaryKeys.png" width="11px" height="12px" preserveAspectRatio="xMinYMin meet" x="19" y="-134"/>
<text text-anchor="start" x="45" y="-125.2" font-family="Helvetica,sans-Serif" font-size="11.00">pulp_id</text>
<polygon fill="#ffffff" stroke="none" points="14,-95 14,-117 165,-117 165,-95 14,-95"/>
<polygon fill="none" stroke="black" points="14,-95 14,-117 165,-117 165,-95 14,-95"/>
<text text-anchor="start" x="45" y="-103.2" font-family="Helvetica,sans-Serif" font-size="11.00">namespace</text>
<polygon fill="#ffffff" stroke="none" points="14,-73 14,-95 165,-95 165,-73 14,-73"/>
<polygon fill="none" stroke="black" points="14,-73 14,-95 165,-95 165,-73 14,-73"/>
<text text-anchor="start" x="45" y="-81.2" font-family="Helvetica,sans-Serif" font-size="11.00">name</text>
<polygon fill="none" stroke="black" points="14,-55 14,-73 165,-73 165,-55 14,-55"/>
<text text-anchor="start" x="17" y="-61.2" font-family="Helvetica,sans-Serif" font-size="11.00">...</text>
<polygon fill="#ffffff" stroke="none" points="14,-37 14,-55 63,-55 63,-37 14,-37"/>
<polygon fill="none" stroke="black" points="14,-37 14,-55 63,-55 63,-37 14,-37"/>
<text text-anchor="start" x="17" y="-43.2" font-family="Helvetica,sans-Serif" font-size="11.00"> &#160;</text>
<polygon fill="#ffffff" stroke="none" points="63,-37 63,-55 123,-55 123,-37 63,-37"/>
<polygon fill="none" stroke="black" points="63,-37 63,-55 123,-55 123,-37 63,-37"/>
<text text-anchor="start" x="84" y="-43.2" font-family="Helvetica,sans-Serif" font-size="11.00">4 rows</text>
<polygon fill="#ffffff" stroke="none" points="123,-37 123,-55 165,-55 165,-37 123,-37"/>
<polygon fill="none" stroke="black" points="123,-37 123,-55 165,-55 165,-37 123,-37"/>
<text text-anchor="start" x="145" y="-43.2" font-family="Helvetica,sans-Serif" font-size="11.00">2 &gt;</text>
</a>
</g>
</g>
<!-- galaxy_synclist_collections&#45;&gt;ansible_collection -->
<g id="edge1" class="edge"><title>galaxy_synclist_collections:collection_id:w&#45;&gt;ansible_collection:pulp_id:e</title>
<path fill="none" stroke="black" d="M206.118,-195.712C186.265,-180.211 200.062,-128 166,-128"/>
<polygon fill="black" stroke="black" points="212.356,-197.639 218.937,-203.44 216.178,-198.819 220,-200 220,-200 220,-200 216.178,-198.819 221.063,-196.56 212.356,-197.639 212.356,-197.639"/>
<ellipse fill="none" stroke="black" cx="209.299" cy="-196.694" rx="3.20001" ry="3.20001"/>
</g>
<!-- galaxy_synclist -->
<g id="node3" class="node"><title>galaxy_synclist</title>
<g id="a_node3"><a xlink:href="../../tables/galaxy_synclist.html" xlink:title="galaxy_synclist" target="_top">
<polygon fill="#ffffff" stroke="none" points="8,-182 8,-328 170,-328 170,-182 8,-182"/>
<polygon fill="#f5f5f5" stroke="none" points="8,-306 8,-328 170,-328 170,-306 8,-306"/>
<polygon fill="none" stroke="black" points="8,-306 8,-328 170,-328 170,-306 8,-306"/>
<text text-anchor="start" x="13" y="-315.2" font-family="Helvetica,sans-Serif" font-weight="bold" font-size="11.00">galaxy_synclist</text>
<text text-anchor="start" x="131" y="-314.2" font-family="Helvetica,sans-Serif" font-size="11.00">[table]</text>
<polygon fill="none" stroke="black" points="8,-284 8,-306 170,-306 170,-284 8,-284"/>
<image xlink:href="../../images/primaryKeys.png" width="11px" height="12px" preserveAspectRatio="xMinYMin meet" x="13" y="-301"/>
<text text-anchor="start" x="28" y="-292.2" font-family="Helvetica,sans-Serif" font-size="11.00">id</text>
<polygon fill="#ffffff" stroke="none" points="8,-262 8,-284 170,-284 170,-262 8,-262"/>
<polygon fill="none" stroke="black" points="8,-262 8,-284 170,-284 170,-262 8,-262"/>
<text text-anchor="start" x="28" y="-270.2" font-family="Helvetica,sans-Serif" font-size="11.00">name</text>
<polygon fill="#ffffff" stroke="none" points="8,-240 8,-262 170,-262 170,-240 8,-240"/>
<polygon fill="none" stroke="black" points="8,-240 8,-262 170,-262 170,-240 8,-240"/>
<image xlink:href="../../images/foreignKeys.png" width="11px" height="12px" preserveAspectRatio="xMinYMin meet" x="13" y="-257"/>
<text text-anchor="start" x="28" y="-248.2" font-family="Helvetica,sans-Serif" font-size="11.00">repository_id</text>
<polygon fill="#ffffff" stroke="none" points="8,-218 8,-240 170,-240 170,-218 8,-218"/>
<polygon fill="none" stroke="black" points="8,-218 8,-240 170,-240 170,-218 8,-218"/>
<image xlink:href="../../images/foreignKeys.png" width="11px" height="12px" preserveAspectRatio="xMinYMin meet" x="13" y="-235"/>
<text text-anchor="start" x="28" y="-226.2" font-family="Helvetica,sans-Serif" font-size="11.00">upstream_repository_id</text>
<polygon fill="none" stroke="black" points="8,-200 8,-218 170,-218 170,-200 8,-200"/>
<text text-anchor="start" x="11" y="-206.2" font-family="Helvetica,sans-Serif" font-size="11.00">...</text>
<polygon fill="#ffffff" stroke="none" points="8,-182 8,-200 68,-200 68,-182 8,-182"/>
<polygon fill="none" stroke="black" points="8,-182 8,-200 68,-200 68,-182 8,-182"/>
<text text-anchor="start" x="11" y="-188.2" font-family="Helvetica,sans-Serif" font-size="11.00">&lt; 2</text>
<polygon fill="#ffffff" stroke="none" points="68,-182 68,-200 128,-200 128,-182 68,-182"/>
<polygon fill="none" stroke="black" points="68,-182 68,-200 128,-200 128,-182 68,-182"/>
<text text-anchor="start" x="89" y="-188.2" font-family="Helvetica,sans-Serif" font-size="11.00">7 rows</text>
<polygon fill="#ffffff" stroke="none" points="128,-182 128,-200 170,-200 170,-182 128,-182"/>
<polygon fill="none" stroke="black" points="128,-182 128,-200 170,-200 170,-182 128,-182"/>
<text text-anchor="start" x="150" y="-188.2" font-family="Helvetica,sans-Serif" font-size="11.00">2 &gt;</text>
</a>
</g>
</g>
<!-- galaxy_synclist_collections&#45;&gt;galaxy_synclist -->
<g id="edge2" class="edge"><title>galaxy_synclist_collections:synclist_id:w&#45;&gt;galaxy_synclist:id:e</title>
<path fill="none" stroke="black" d="M206.16,-226.79C188.368,-243.03 203.97,-295 171,-295"/>
<polygon fill="black" stroke="black" points="212.44,-224.616 221.177,-225.402 216.22,-223.308 220,-222 220,-222 220,-222 216.22,-223.308 218.823,-218.598 212.44,-224.616 212.44,-224.616"/>
<ellipse fill="none" stroke="black" cx="209.416" cy="-225.663" rx="3.20001" ry="3.20001"/>
</g>
</g>
</svg>
