<?xml version="1.0" encoding="UTF-8" standalone="no"?>
<!DOCTYPE svg PUBLIC "-//W3C//DTD SVG 1.1//EN"
 "http://www.w3.org/Graphics/SVG/1.1/DTD/svg11.dtd">
<!-- Generated by graphviz version 2.38.0 (20140413.2041)
 -->
<!-- Title: oneDegreeRelationshipsDiagram Pages: 1 -->
<svg width="518pt" height="401pt"
 viewBox="0.00 0.00 518.00 401.00" xmlns="http://www.w3.org/2000/svg" xmlns:xlink="http://www.w3.org/1999/xlink">
<g id="graph0" class="graph" transform="scale(1 1) rotate(0) translate(4 397)">
<title>oneDegreeRelationshipsDiagram</title>
<polygon fill="#ffffff" stroke="none" points="-4,4 -4,-397 514,-397 514,4 -4,4"/>
<text text-anchor="middle" x="74.5" y="-7.2" font-family="Helvetica,sans-Serif" font-size="11.00">Generated by SchemaSpy</text>
<!-- galaxy_collectionimport -->
<g id="node1" class="node"><title>galaxy_collectionimport</title>
<g id="a_node1"><a xlink:href="../../tables/galaxy_collectionimport.html" xlink:title="galaxy_collectionimport" target="_top">
<polygon fill="#ffffff" stroke="none" points="305,-287 305,-389 491,-389 491,-287 305,-287"/>
<polygon fill="#f5f5f5" stroke="none" points="305,-367 305,-389 491,-389 491,-367 305,-367"/>
<polygon fill="none" stroke="black" points="305,-367 305,-389 491,-389 491,-367 305,-367"/>
<text text-anchor="start" x="310" y="-376.2" font-family="Helvetica,sans-Serif" font-weight="bold" font-size="11.00">galaxy_collectionimport</text>
<text text-anchor="start" x="452" y="-375.2" font-family="Helvetica,sans-Serif" font-size="11.00">[table]</text>
<polygon fill="none" stroke="black" points="305,-345 305,-367 491,-367 491,-345 305,-345"/>
<image xlink:href="../../images/primaryKeys.png" width="11px" height="12px" preserveAspectRatio="xMinYMin meet" x="310" y="-362"/>
<text text-anchor="start" x="336" y="-353.2" font-family="Helvetica,sans-Serif" font-size="11.00">task_id</text>
<polygon fill="#ffffff" stroke="none" points="305,-323 305,-345 491,-345 491,-323 305,-323"/>
<polygon fill="none" stroke="black" points="305,-323 305,-345 491,-345 491,-323 305,-323"/>
<image xlink:href="../../images/foreignKeys.png" width="11px" height="12px" preserveAspectRatio="xMinYMin meet" x="310" y="-340"/>
<text text-anchor="start" x="336" y="-331.2" font-family="Helvetica,sans-Serif" font-size="11.00">namespace_id</text>
<polygon fill="none" stroke="black" points="305,-305 305,-323 491,-323 491,-305 305,-305"/>
<text text-anchor="start" x="308" y="-311.2" font-family="Helvetica,sans-Serif" font-size="11.00">...</text>
<polygon fill="#ffffff" stroke="none" points="305,-287 305,-305 378,-305 378,-287 305,-287"/>
<polygon fill="none" stroke="black" points="305,-287 305,-305 378,-305 378,-287 305,-287"/>
<text text-anchor="start" x="308" y="-293.2" font-family="Helvetica,sans-Serif" font-size="11.00">&lt; 1</text>
<polygon fill="#ffffff" stroke="none" points="378,-287 378,-305 452,-305 452,-287 378,-287"/>
<polygon fill="none" stroke="black" points="378,-287 378,-305 452,-305 452,-287 378,-287"/>
<text text-anchor="start" x="406" y="-293.2" font-family="Helvetica,sans-Serif" font-size="11.00">91 rows</text>
<polygon fill="#ffffff" stroke="none" points="452,-287 452,-305 491,-305 491,-287 452,-287"/>
<polygon fill="none" stroke="black" points="452,-287 452,-305 491,-305 491,-287 452,-287"/>
<text text-anchor="start" x="481" y="-293.2" font-family="Helvetica,sans-Serif" font-size="11.00"> &#160;</text>
</a>
</g>
</g>
<!-- galaxy_namespace -->
<g id="node2" class="node"><title>galaxy_namespace</title>
<g id="a_node2"><a xlink:href="../../tables/galaxy_namespace.html" xlink:title="galaxy_namespace" target="_top">
<polygon fill="#ffffff" stroke="none" points="8,-48 8,-246 245,-246 245,-48 8,-48"/>
<polygon fill="#f5f5f5" stroke="none" points="10.5,-222 10.5,-244 243.5,-244 243.5,-222 10.5,-222"/>
<polygon fill="none" stroke="black" points="10.5,-222 10.5,-244 243.5,-244 243.5,-222 10.5,-222"/>
<text text-anchor="start" x="15.5" y="-231.2" font-family="Helvetica,sans-Serif" font-weight="bold" font-size="11.00">galaxy_namespace</text>
<text text-anchor="start" x="204.5" y="-230.2" font-family="Helvetica,sans-Serif" font-size="11.00">[table]</text>
<polygon fill="none" stroke="black" points="10.5,-200 10.5,-222 142.5,-222 142.5,-200 10.5,-200"/>
<image xlink:href="../../images/primaryKeys.png" width="11px" height="12px" preserveAspectRatio="xMinYMin meet" x="15.5" y="-217"/>
<text text-anchor="start" x="30.5" y="-208.2" font-family="Helvetica,sans-Serif" font-size="11.00">id</text>
<polygon fill="none" stroke="black" points="142.5,-200 142.5,-222 243.5,-222 243.5,-200 142.5,-200"/>
<text text-anchor="start" x="145.5" y="-208.2" font-family="Helvetica,sans-Serif" font-size="11.00">serial[10]</text>
<polygon fill="#ffffff" stroke="none" points="10.5,-178 10.5,-200 142.5,-200 142.5,-178 10.5,-178"/>
<polygon fill="none" stroke="black" points="10.5,-178 10.5,-200 142.5,-200 142.5,-178 10.5,-178"/>
<text text-anchor="start" x="30.5" y="-186.2" font-family="Helvetica,sans-Serif" font-size="11.00">name</text>
<polygon fill="none" stroke="black" points="142.5,-178 142.5,-200 243.5,-200 243.5,-178 142.5,-178"/>
<text text-anchor="start" x="145.5" y="-186.2" font-family="Helvetica,sans-Serif" font-size="11.00">varchar[64]</text>
<polygon fill="none" stroke="black" points="10.5,-156 10.5,-178 142.5,-178 142.5,-156 10.5,-156"/>
<text text-anchor="start" x="30.5" y="-164.2" font-family="Helvetica,sans-Serif" font-size="11.00">company</text>
<polygon fill="none" stroke="black" points="142.5,-156 142.5,-178 243.5,-178 243.5,-156 142.5,-156"/>
<text text-anchor="start" x="145.5" y="-164.2" font-family="Helvetica,sans-Serif" font-size="11.00">varchar[64]</text>
<polygon fill="none" stroke="black" points="10.5,-134 10.5,-156 142.5,-156 142.5,-134 10.5,-134"/>
<text text-anchor="start" x="30.5" y="-142.2" font-family="Helvetica,sans-Serif" font-size="11.00">email</text>
<polygon fill="none" stroke="black" points="142.5,-134 142.5,-156 243.5,-156 243.5,-134 142.5,-134"/>
<text text-anchor="start" x="145.5" y="-142.2" font-family="Helvetica,sans-Serif" font-size="11.00">varchar[256]</text>
<polygon fill="none" stroke="black" points="10.5,-112 10.5,-134 142.5,-134 142.5,-112 10.5,-112"/>
<text text-anchor="start" x="30.5" y="-120.2" font-family="Helvetica,sans-Serif" font-size="11.00">avatar_url</text>
<polygon fill="none" stroke="black" points="142.5,-112 142.5,-134 243.5,-134 243.5,-112 142.5,-112"/>
<text text-anchor="start" x="145.5" y="-120.2" font-family="Helvetica,sans-Serif" font-size="11.00">varchar[256]</text>
<polygon fill="none" stroke="black" points="10.5,-90 10.5,-112 142.5,-112 142.5,-90 10.5,-90"/>
<text text-anchor="start" x="30.5" y="-98.2" font-family="Helvetica,sans-Serif" font-size="11.00">description</text>
<polygon fill="none" stroke="black" points="142.5,-90 142.5,-112 243.5,-112 243.5,-90 142.5,-90"/>
<text text-anchor="start" x="145.5" y="-98.2" font-family="Helvetica,sans-Serif" font-size="11.00">varchar[256]</text>
<polygon fill="none" stroke="black" points="10.5,-68 10.5,-90 142.5,-90 142.5,-68 10.5,-68"/>
<text text-anchor="start" x="30.5" y="-76.2" font-family="Helvetica,sans-Serif" font-size="11.00">resources</text>
<polygon fill="none" stroke="black" points="142.5,-68 142.5,-90 243.5,-90 243.5,-68 142.5,-68"/>
<text text-anchor="start" x="145.5" y="-76.2" font-family="Helvetica,sans-Serif" font-size="11.00">text[2147483647]</text>
<polygon fill="#ffffff" stroke="none" points="10.5,-50 10.5,-68 63.5,-68 63.5,-50 10.5,-50"/>
<polygon fill="none" stroke="black" points="10.5,-50 10.5,-68 63.5,-68 63.5,-50 10.5,-50"/>
<text text-anchor="start" x="13.5" y="-56.2" font-family="Helvetica,sans-Serif" font-size="11.00">&lt; 0</text>
<polygon fill="#ffffff" stroke="none" points="63.5,-50 63.5,-68 142.5,-68 142.5,-50 63.5,-50"/>
<polygon fill="none" stroke="black" points="63.5,-50 63.5,-68 142.5,-68 142.5,-50 63.5,-50"/>
<text text-anchor="start" x="96.5" y="-56.2" font-family="Helvetica,sans-Serif" font-size="11.00">55 rows</text>
<polygon fill="#ffffff" stroke="none" points="142.5,-50 142.5,-68 243.5,-68 243.5,-50 142.5,-50"/>
<polygon fill="none" stroke="black" points="142.5,-50 142.5,-68 243.5,-68 243.5,-50 142.5,-50"/>
<text text-anchor="start" x="223.5" y="-56.2" font-family="Helvetica,sans-Serif" font-size="11.00">3 &gt;</text>
<polygon fill="none" stroke="black" stroke-width="2" points="9,-49 9,-245 244,-245 244,-49 9,-49"/>
</a>
</g>
</g>
<!-- galaxy_collectionimport&#45;&gt;galaxy_namespace -->
<g id="edge1" class="edge"><title>galaxy_collectionimport:namespace_id:w&#45;&gt;galaxy_namespace:id.type:e</title>
<path fill="none" stroke="black" d="M289.49,-330.71C254.203,-311.15 299.297,-211 244.5,-211"/>
<polygon fill="black" stroke="black" points="296.198,-332.231 303.204,-337.511 300.099,-333.115 304,-334 304,-334 304,-334 300.099,-333.115 304.796,-330.489 296.198,-332.231 296.198,-332.231"/>
<ellipse fill="none" stroke="black" cx="293.077" cy="-331.523" rx="3.2" ry="3.2"/>
</g>
<!-- galaxy_namespacelink -->
<g id="node3" class="node"><title>galaxy_namespacelink</title>
<g id="a_node3"><a xlink:href="../../tables/galaxy_namespacelink.html" xlink:title="galaxy_namespacelink" target="_top">
<polygon fill="#ffffff" stroke="none" points="310,-164 310,-266 486,-266 486,-164 310,-164"/>
<polygon fill="#f5f5f5" stroke="none" points="310,-244 310,-266 486,-266 486,-244 310,-244"/>
<polygon fill="none" stroke="black" points="310,-244 310,-266 486,-266 486,-244 310,-244"/>
<text text-anchor="start" x="315" y="-253.2" font-family="Helvetica,sans-Serif" font-weight="bold" font-size="11.00">galaxy_namespacelink</text>
<text text-anchor="start" x="447" y="-252.2" font-family="Helvetica,sans-Serif" font-size="11.00">[table]</text>
<polygon fill="none" stroke="black" points="310,-222 310,-244 486,-244 486,-222 310,-222"/>
<image xlink:href="../../images/primaryKeys.png" width="11px" height="12px" preserveAspectRatio="xMinYMin meet" x="315" y="-239"/>
<text text-anchor="start" x="341" y="-230.2" font-family="Helvetica,sans-Serif" font-size="11.00">id</text>
<polygon fill="#ffffff" stroke="none" points="310,-200 310,-222 486,-222 486,-200 310,-200"/>
<polygon fill="none" stroke="black" points="310,-200 310,-222 486,-222 486,-200 310,-200"/>
<image xlink:href="../../images/foreignKeys.png" width="11px" height="12px" preserveAspectRatio="xMinYMin meet" x="315" y="-217"/>
<text text-anchor="start" x="341" y="-208.2" font-family="Helvetica,sans-Serif" font-size="11.00">namespace_id</text>
<polygon fill="none" stroke="black" points="310,-182 310,-200 486,-200 486,-182 310,-182"/>
<text text-anchor="start" x="313" y="-188.2" font-family="Helvetica,sans-Serif" font-size="11.00">...</text>
<polygon fill="#ffffff" stroke="none" points="310,-164 310,-182 382,-182 382,-164 310,-164"/>
<polygon fill="none" stroke="black" points="310,-164 310,-182 382,-182 382,-164 310,-164"/>
<text text-anchor="start" x="313" y="-170.2" font-family="Helvetica,sans-Serif" font-size="11.00">&lt; 1</text>
<polygon fill="#ffffff" stroke="none" points="382,-164 382,-182 448,-182 448,-164 382,-164"/>
<polygon fill="none" stroke="black" points="382,-164 382,-182 448,-182 448,-164 382,-164"/>
<text text-anchor="start" x="409" y="-170.2" font-family="Helvetica,sans-Serif" font-size="11.00">4 rows</text>
<polygon fill="#ffffff" stroke="none" points="448,-164 448,-182 486,-182 486,-164 448,-164"/>
<polygon fill="none" stroke="black" points="448,-164 448,-182 486,-182 486,-164 448,-164"/>
<text text-anchor="start" x="476" y="-170.2" font-family="Helvetica,sans-Serif" font-size="11.00"> &#160;</text>
</a>
</g>
</g>
<!-- galaxy_namespacelink&#45;&gt;galaxy_namespace -->
<g id="edge2" class="edge"><title>galaxy_namespacelink:namespace_id:w&#45;&gt;galaxy_namespace:id.type:e</title>
<path fill="none" stroke="black" d="M294.343,-211C276.714,-211 267.568,-211 244.5,-211"/>
<polygon fill="black" stroke="black" points="301,-211 309,-214.6 305,-211 309,-211 309,-211 309,-211 305,-211 309,-207.4 301,-211 301,-211"/>
<ellipse fill="none" stroke="black" cx="297.8" cy="-211" rx="3.2" ry="3.2"/>
</g>
<!-- galaxy_synclist_namespaces -->
<g id="node4" class="node"><title>galaxy_synclist_namespaces</title>
<g id="a_node4"><a xlink:href="../../tables/galaxy_synclist_namespaces.html" xlink:title="galaxy_synclist_namespaces" target="_top">
<polygon fill="#ffffff" stroke="none" points="294,-37 294,-143 502,-143 502,-37 294,-37"/>
<polygon fill="#f5f5f5" stroke="none" points="294,-121 294,-143 502,-143 502,-121 294,-121"/>
<polygon fill="none" stroke="black" points="294,-121 294,-143 502,-143 502,-121 294,-121"/>
<text text-anchor="start" x="299" y="-130.2" font-family="Helvetica,sans-Serif" font-weight="bold" font-size="11.00">galaxy_synclist_namespaces</text>
<text text-anchor="start" x="463" y="-129.2" font-family="Helvetica,sans-Serif" font-size="11.00">[table]</text>
<polygon fill="none" stroke="black" points="294,-99 294,-121 502,-121 502,-99 294,-99"/>
<image xlink:href="../../images/primaryKeys.png" width="11px" height="12px" preserveAspectRatio="xMinYMin meet" x="299" y="-116"/>
<text text-anchor="start" x="324" y="-107.2" font-family="Helvetica,sans-Serif" font-size="11.00">id</text>
<polygon fill="#ffffff" stroke="none" points="294,-77 294,-99 502,-99 502,-77 294,-77"/>
<polygon fill="none" stroke="black" points="294,-77 294,-99 502,-99 502,-77 294,-77"/>
<image xlink:href="../../images/foreignKeys.png" width="11px" height="12px" preserveAspectRatio="xMinYMin meet" x="299" y="-94"/>
<text text-anchor="start" x="324" y="-85.2" font-family="Helvetica,sans-Serif" font-size="11.00">synclist_id</text>
<polygon fill="#ffffff" stroke="none" points="294,-55 294,-77 502,-77 502,-55 294,-55"/>
<polygon fill="none" stroke="black" points="294,-55 294,-77 502,-77 502,-55 294,-55"/>
<image xlink:href="../../images/foreignKeys.png" width="11px" height="12px" preserveAspectRatio="xMinYMin meet" x="299" y="-72"/>
<text text-anchor="start" x="324" y="-63.2" font-family="Helvetica,sans-Serif" font-size="11.00">namespace_id</text>
<polygon fill="#ffffff" stroke="none" points="294,-37 294,-55 378,-55 378,-37 294,-37"/>
<polygon fill="none" stroke="black" points="294,-37 294,-55 378,-55 378,-37 294,-37"/>
<text text-anchor="start" x="297" y="-43.2" font-family="Helvetica,sans-Serif" font-size="11.00">&lt; 2</text>
<polygon fill="#ffffff" stroke="none" points="378,-37 378,-55 458,-55 458,-37 378,-37"/>
<polygon fill="none" stroke="black" points="378,-37 378,-55 458,-55 458,-37 378,-37"/>
<text text-anchor="start" x="412" y="-43.2" font-family="Helvetica,sans-Serif" font-size="11.00">13 rows</text>
<polygon fill="#ffffff" stroke="none" points="458,-37 458,-55 502,-55 502,-37 458,-37"/>
<polygon fill="none" stroke="black" points="458,-37 458,-55 502,-55 502,-37 458,-37"/>
<text text-anchor="start" x="492" y="-43.2" font-family="Helvetica,sans-Serif" font-size="11.00"> &#160;</text>
</a>
</g>
</g>
<!-- galaxy_synclist_namespaces&#45;&gt;galaxy_namespace -->
<g id="edge3" class="edge"><title>galaxy_synclist_namespaces:namespace_id:w&#45;&gt;galaxy_namespace:id.type:e</title>
<path fill="none" stroke="black" d="M278.726,-69.0285C238.922,-89.851 306.614,-211 244.5,-211"/>
<polygon fill="black" stroke="black" points="285.174,-67.6604 293.747,-69.5216 289.087,-66.8302 293,-66 293,-66 293,-66 289.087,-66.8302 292.253,-62.4784 285.174,-67.6604 285.174,-67.6604"/>
<ellipse fill="none" stroke="black" cx="282.044" cy="-68.3246" rx="3.2" ry="3.2"/>
</g>
</g>
</svg>
