<?xml version="1.0" encoding="UTF-8" standalone="no"?>
<!DOCTYPE svg PUBLIC "-//W3C//DTD SVG 1.1//EN"
 "http://www.w3.org/Graphics/SVG/1.1/DTD/svg11.dtd">
<!-- Generated by graphviz version 2.38.0 (20140413.2041)
 -->
<!-- Title: oneDegreeRelationshipsDiagram Pages: 1 -->
<svg width="796pt" height="287pt"
 viewBox="0.00 0.00 796.00 287.00" xmlns="http://www.w3.org/2000/svg" xmlns:xlink="http://www.w3.org/1999/xlink">
<g id="graph0" class="graph" transform="scale(1 1) rotate(0) translate(4 283)">
<title>oneDegreeRelationshipsDiagram</title>
<polygon fill="#ffffff" stroke="none" points="-4,4 -4,-283 792,-283 792,4 -4,4"/>
<text text-anchor="middle" x="74.5" y="-7.2" font-family="Helvetica,sans-Serif" font-size="11.00">Generated by SchemaSpy</text>
<!-- galaxy_synclist -->
<g id="node1" class="node"><title>galaxy_synclist</title>
<g id="a_node1"><a xlink:href="../../tables/galaxy_synclist.html" xlink:title="galaxy_synclist" target="_top">
<polygon fill="#ffffff" stroke="none" points="252,-37 252,-191 523,-191 523,-37 252,-37"/>
<polygon fill="#f5f5f5" stroke="none" points="254.5,-167 254.5,-189 521.5,-189 521.5,-167 254.5,-167"/>
<polygon fill="none" stroke="black" points="254.5,-167 254.5,-189 521.5,-189 521.5,-167 254.5,-167"/>
<text text-anchor="start" x="259.5" y="-176.2" font-family="Helvetica,sans-Serif" font-weight="bold" font-size="11.00">galaxy_synclist</text>
<text text-anchor="start" x="482.5" y="-175.2" font-family="Helvetica,sans-Serif" font-size="11.00">[table]</text>
<polygon fill="none" stroke="black" points="254.5,-145 254.5,-167 416.5,-167 416.5,-145 254.5,-145"/>
<image xlink:href="../../images/primaryKeys.png" width="11px" height="12px" preserveAspectRatio="xMinYMin meet" x="259.5" y="-162"/>
<text text-anchor="start" x="274.5" y="-153.2" font-family="Helvetica,sans-Serif" font-size="11.00">id</text>
<polygon fill="none" stroke="black" points="416.5,-145 416.5,-167 521.5,-167 521.5,-145 416.5,-145"/>
<text text-anchor="start" x="419.5" y="-153.2" font-family="Helvetica,sans-Serif" font-size="11.00">serial[10]</text>
<polygon fill="#ffffff" stroke="none" points="254.5,-123 254.5,-145 416.5,-145 416.5,-123 254.5,-123"/>
<polygon fill="none" stroke="black" points="254.5,-123 254.5,-145 416.5,-145 416.5,-123 254.5,-123"/>
<text text-anchor="start" x="274.5" y="-131.2" font-family="Helvetica,sans-Serif" font-size="11.00">name</text>
<polygon fill="none" stroke="black" points="416.5,-123 416.5,-145 521.5,-145 521.5,-123 416.5,-123"/>
<text text-anchor="start" x="419.5" y="-131.2" font-family="Helvetica,sans-Serif" font-size="11.00">varchar[64]</text>
<polygon fill="none" stroke="black" points="254.5,-101 254.5,-123 416.5,-123 416.5,-101 254.5,-101"/>
<text text-anchor="start" x="274.5" y="-109.2" font-family="Helvetica,sans-Serif" font-size="11.00">policy</text>
<polygon fill="none" stroke="black" points="416.5,-101 416.5,-123 521.5,-123 521.5,-101 416.5,-101"/>
<text text-anchor="start" x="419.5" y="-109.2" font-family="Helvetica,sans-Serif" font-size="11.00">varchar[64]</text>
<polygon fill="#ffffff" stroke="none" points="254.5,-79 254.5,-101 416.5,-101 416.5,-79 254.5,-79"/>
<polygon fill="none" stroke="black" points="254.5,-79 254.5,-101 416.5,-101 416.5,-79 254.5,-79"/>
<image xlink:href="../../images/foreignKeys.png" width="11px" height="12px" preserveAspectRatio="xMinYMin meet" x="259.5" y="-96"/>
<text text-anchor="start" x="274.5" y="-87.2" font-family="Helvetica,sans-Serif" font-size="11.00">repository_id</text>
<polygon fill="none" stroke="black" points="416.5,-79 416.5,-101 521.5,-101 521.5,-79 416.5,-79"/>
<text text-anchor="start" x="419.5" y="-87.2" font-family="Helvetica,sans-Serif" font-size="11.00">uuid[2147483647]</text>
<polygon fill="#ffffff" stroke="none" points="254.5,-57 254.5,-79 416.5,-79 416.5,-57 254.5,-57"/>
<polygon fill="none" stroke="black" points="254.5,-57 254.5,-79 416.5,-79 416.5,-57 254.5,-57"/>
<image xlink:href="../../images/foreignKeys.png" width="11px" height="12px" preserveAspectRatio="xMinYMin meet" x="259.5" y="-74"/>
<text text-anchor="start" x="274.5" y="-65.2" font-family="Helvetica,sans-Serif" font-size="11.00">upstream_repository_id</text>
<polygon fill="none" stroke="black" points="416.5,-57 416.5,-79 521.5,-79 521.5,-57 416.5,-57"/>
<text text-anchor="start" x="419.5" y="-65.2" font-family="Helvetica,sans-Serif" font-size="11.00">uuid[2147483647]</text>
<polygon fill="#ffffff" stroke="none" points="254.5,-39 254.5,-57 325.5,-57 325.5,-39 254.5,-39"/>
<polygon fill="none" stroke="black" points="254.5,-39 254.5,-57 325.5,-57 325.5,-39 254.5,-39"/>
<text text-anchor="start" x="257.5" y="-45.2" font-family="Helvetica,sans-Serif" font-size="11.00">&lt; 2</text>
<polygon fill="#ffffff" stroke="none" points="325.5,-39 325.5,-57 416.5,-57 416.5,-39 325.5,-39"/>
<polygon fill="none" stroke="black" points="325.5,-39 325.5,-57 416.5,-57 416.5,-39 325.5,-39"/>
<text text-anchor="start" x="377.5" y="-45.2" font-family="Helvetica,sans-Serif" font-size="11.00">7 rows</text>
<polygon fill="#ffffff" stroke="none" points="416.5,-39 416.5,-57 521.5,-57 521.5,-39 416.5,-39"/>
<polygon fill="none" stroke="black" points="416.5,-39 416.5,-57 521.5,-57 521.5,-39 416.5,-39"/>
<text text-anchor="start" x="501.5" y="-45.2" font-family="Helvetica,sans-Serif" font-size="11.00">2 &gt;</text>
<polygon fill="none" stroke="black" stroke-width="2" points="253,-38 253,-190 522,-190 522,-38 253,-38"/>
</a>
</g>
</g>
<!-- ansible_ansiblerepository -->
<g id="node2" class="node"><title>ansible_ansiblerepository</title>
<g id="a_node2"><a xlink:href="../../tables/ansible_ansiblerepository.html" xlink:title="ansible_ansiblerepository" target="_top">
<polygon fill="#ffffff" stroke="none" points="8,-50 8,-112 203,-112 203,-50 8,-50"/>
<polygon fill="#f5f5f5" stroke="none" points="8.5,-90 8.5,-112 203.5,-112 203.5,-90 8.5,-90"/>
<polygon fill="none" stroke="black" points="8.5,-90 8.5,-112 203.5,-112 203.5,-90 8.5,-90"/>
<text text-anchor="start" x="13.5" y="-99.2" font-family="Helvetica,sans-Serif" font-weight="bold" font-size="11.00">ansible_ansiblerepository</text>
<text text-anchor="start" x="164.5" y="-98.2" font-family="Helvetica,sans-Serif" font-size="11.00">[table]</text>
<polygon fill="none" stroke="black" points="8.5,-68 8.5,-90 203.5,-90 203.5,-68 8.5,-68"/>
<image xlink:href="../../images/primaryKeys.png" width="11px" height="12px" preserveAspectRatio="xMinYMin meet" x="13.5" y="-85"/>
<text text-anchor="start" x="39.5" y="-76.2" font-family="Helvetica,sans-Serif" font-size="11.00">repository_ptr_id</text>
<polygon fill="#ffffff" stroke="none" points="8.5,-50 8.5,-68 81.5,-68 81.5,-50 8.5,-50"/>
<polygon fill="none" stroke="black" points="8.5,-50 8.5,-68 81.5,-68 81.5,-50 8.5,-50"/>
<text text-anchor="start" x="11.5" y="-56.2" font-family="Helvetica,sans-Serif" font-size="11.00">&lt; 1</text>
<polygon fill="#ffffff" stroke="none" points="81.5,-50 81.5,-68 155.5,-68 155.5,-50 81.5,-50"/>
<polygon fill="none" stroke="black" points="81.5,-50 81.5,-68 155.5,-68 155.5,-50 81.5,-50"/>
<text text-anchor="start" x="109.5" y="-56.2" font-family="Helvetica,sans-Serif" font-size="11.00">26 rows</text>
<polygon fill="#ffffff" stroke="none" points="155.5,-50 155.5,-68 203.5,-68 203.5,-50 155.5,-50"/>
<polygon fill="none" stroke="black" points="155.5,-50 155.5,-68 203.5,-68 203.5,-50 155.5,-50"/>
<text text-anchor="start" x="183.5" y="-56.2" font-family="Helvetica,sans-Serif" font-size="11.00">2 &gt;</text>
</a>
</g>
</g>
<!-- galaxy_synclist&#45;&gt;ansible_ansiblerepository -->
<g id="edge1" class="edge"><title>galaxy_synclist:repository_id:w&#45;&gt;ansible_ansiblerepository:repository_ptr_id:e</title>
<path fill="none" stroke="black" d="M239.203,-88.1836C227.738,-85.0593 221.065,-79 204.5,-79"/>
<polygon fill="black" stroke="black" points="245.564,-88.9917 253.046,-93.5713 249.532,-89.4958 253.5,-90 253.5,-90 253.5,-90 249.532,-89.4958 253.954,-86.4287 245.564,-88.9917 245.564,-88.9917"/>
<ellipse fill="none" stroke="black" cx="242.389" cy="-88.5884" rx="3.2" ry="3.2"/>
</g>
<!-- galaxy_synclist&#45;&gt;ansible_ansiblerepository -->
<g id="edge2" class="edge"><title>galaxy_synclist:upstream_repository_id:w&#45;&gt;ansible_ansiblerepository:repository_ptr_id:e</title>
<path fill="none" stroke="black" d="M239.203,-69.8164C227.738,-72.9407 221.065,-79 204.5,-79"/>
<polygon fill="black" stroke="black" points="245.564,-69.0083 253.954,-71.5713 249.532,-68.5042 253.5,-68 253.5,-68 253.5,-68 249.532,-68.5042 253.046,-64.4287 245.564,-69.0083 245.564,-69.0083"/>
<ellipse fill="none" stroke="black" cx="242.389" cy="-69.4116" rx="3.2" ry="3.2"/>
</g>
<!-- galaxy_synclist_collections -->
<g id="node3" class="node"><title>galaxy_synclist_collections</title>
<g id="a_node3"><a xlink:href="../../tables/galaxy_synclist_collections.html" xlink:title="galaxy_synclist_collections" target="_top">
<polygon fill="#ffffff" stroke="none" points="576.5,-169 576.5,-275 775.5,-275 775.5,-169 576.5,-169"/>
<polygon fill="#f5f5f5" stroke="none" points="577,-253 577,-275 776,-275 776,-253 577,-253"/>
<polygon fill="none" stroke="black" points="577,-253 577,-275 776,-275 776,-253 577,-253"/>
<text text-anchor="start" x="582" y="-262.2" font-family="Helvetica,sans-Serif" font-weight="bold" font-size="11.00">galaxy_synclist_collections</text>
<text text-anchor="start" x="737" y="-261.2" font-family="Helvetica,sans-Serif" font-size="11.00">[table]</text>
<polygon fill="none" stroke="black" points="577,-231 577,-253 776,-253 776,-231 577,-231"/>
<image xlink:href="../../images/primaryKeys.png" width="11px" height="12px" preserveAspectRatio="xMinYMin meet" x="582" y="-248"/>
<text text-anchor="start" x="607" y="-239.2" font-family="Helvetica,sans-Serif" font-size="11.00">id</text>
<polygon fill="#ffffff" stroke="none" points="577,-209 577,-231 776,-231 776,-209 577,-209"/>
<polygon fill="none" stroke="black" points="577,-209 577,-231 776,-231 776,-209 577,-209"/>
<image xlink:href="../../images/foreignKeys.png" width="11px" height="12px" preserveAspectRatio="xMinYMin meet" x="582" y="-226"/>
<text text-anchor="start" x="607" y="-217.2" font-family="Helvetica,sans-Serif" font-size="11.00">synclist_id</text>
<polygon fill="#ffffff" stroke="none" points="577,-187 577,-209 776,-209 776,-187 577,-187"/>
<polygon fill="none" stroke="black" points="577,-187 577,-209 776,-209 776,-187 577,-187"/>
<image xlink:href="../../images/foreignKeys.png" width="11px" height="12px" preserveAspectRatio="xMinYMin meet" x="582" y="-204"/>
<text text-anchor="start" x="607" y="-195.2" font-family="Helvetica,sans-Serif" font-size="11.00">collection_id</text>
<polygon fill="#ffffff" stroke="none" points="577,-169 577,-187 660,-187 660,-169 577,-169"/>
<polygon fill="none" stroke="black" points="577,-169 577,-187 660,-187 660,-169 577,-169"/>
<text text-anchor="start" x="580" y="-175.2" font-family="Helvetica,sans-Serif" font-size="11.00">&lt; 2</text>
<polygon fill="#ffffff" stroke="none" points="660,-169 660,-187 732,-187 732,-169 660,-169"/>
<polygon fill="none" stroke="black" points="660,-169 660,-187 732,-187 732,-169 660,-169"/>
<text text-anchor="start" x="693" y="-175.2" font-family="Helvetica,sans-Serif" font-size="11.00">8 rows</text>
<polygon fill="#ffffff" stroke="none" points="732,-169 732,-187 776,-187 776,-169 732,-169"/>
<polygon fill="none" stroke="black" points="732,-169 732,-187 776,-187 776,-169 732,-169"/>
<text text-anchor="start" x="766" y="-175.2" font-family="Helvetica,sans-Serif" font-size="11.00"> &#160;</text>
</a>
</g>
</g>
<!-- galaxy_synclist_collections&#45;&gt;galaxy_synclist -->
<g id="edge3" class="edge"><title>galaxy_synclist_collections:synclist_id:w&#45;&gt;galaxy_synclist:id.type:e</title>
<path fill="none" stroke="black" d="M561.904,-215.397C544.148,-200.723 553.491,-156 522.5,-156"/>
<polygon fill="black" stroke="black" points="568.395,-217.517 574.883,-223.422 572.198,-218.758 576,-220 576,-220 576,-220 572.198,-218.758 577.117,-216.578 568.395,-217.517 568.395,-217.517"/>
<ellipse fill="none" stroke="black" cx="565.353" cy="-216.524" rx="3.20001" ry="3.20001"/>
</g>
<!-- galaxy_synclist_namespaces -->
<g id="node4" class="node"><title>galaxy_synclist_namespaces</title>
<g id="a_node4"><a xlink:href="../../tables/galaxy_synclist_namespaces.html" xlink:title="galaxy_synclist_namespaces" target="_top">
<polygon fill="#ffffff" stroke="none" points="572,-42 572,-148 780,-148 780,-42 572,-42"/>
<polygon fill="#f5f5f5" stroke="none" points="572,-126 572,-148 780,-148 780,-126 572,-126"/>
<polygon fill="none" stroke="black" points="572,-126 572,-148 780,-148 780,-126 572,-126"/>
<text text-anchor="start" x="577" y="-135.2" font-family="Helvetica,sans-Serif" font-weight="bold" font-size="11.00">galaxy_synclist_namespaces</text>
<text text-anchor="start" x="741" y="-134.2" font-family="Helvetica,sans-Serif" font-size="11.00">[table]</text>
<polygon fill="none" stroke="black" points="572,-104 572,-126 780,-126 780,-104 572,-104"/>
<image xlink:href="../../images/primaryKeys.png" width="11px" height="12px" preserveAspectRatio="xMinYMin meet" x="577" y="-121"/>
<text text-anchor="start" x="602" y="-112.2" font-family="Helvetica,sans-Serif" font-size="11.00">id</text>
<polygon fill="#ffffff" stroke="none" points="572,-82 572,-104 780,-104 780,-82 572,-82"/>
<polygon fill="none" stroke="black" points="572,-82 572,-104 780,-104 780,-82 572,-82"/>
<image xlink:href="../../images/foreignKeys.png" width="11px" height="12px" preserveAspectRatio="xMinYMin meet" x="577" y="-99"/>
<text text-anchor="start" x="602" y="-90.2" font-family="Helvetica,sans-Serif" font-size="11.00">synclist_id</text>
<polygon fill="#ffffff" stroke="none" points="572,-60 572,-82 780,-82 780,-60 572,-60"/>
<polygon fill="none" stroke="black" points="572,-60 572,-82 780,-82 780,-60 572,-60"/>
<image xlink:href="../../images/foreignKeys.png" width="11px" height="12px" preserveAspectRatio="xMinYMin meet" x="577" y="-77"/>
<text text-anchor="start" x="602" y="-68.2" font-family="Helvetica,sans-Serif" font-size="11.00">namespace_id</text>
<polygon fill="#ffffff" stroke="none" points="572,-42 572,-60 656,-60 656,-42 572,-42"/>
<polygon fill="none" stroke="black" points="572,-42 572,-60 656,-60 656,-42 572,-42"/>
<text text-anchor="start" x="575" y="-48.2" font-family="Helvetica,sans-Serif" font-size="11.00">&lt; 2</text>
<polygon fill="#ffffff" stroke="none" points="656,-42 656,-60 736,-60 736,-42 656,-42"/>
<polygon fill="none" stroke="black" points="656,-42 656,-60 736,-60 736,-42 656,-42"/>
<text text-anchor="start" x="690" y="-48.2" font-family="Helvetica,sans-Serif" font-size="11.00">13 rows</text>
<polygon fill="#ffffff" stroke="none" points="736,-42 736,-60 780,-60 780,-42 736,-42"/>
<polygon fill="none" stroke="black" points="736,-42 736,-60 780,-60 780,-42 736,-42"/>
<text text-anchor="start" x="770" y="-48.2" font-family="Helvetica,sans-Serif" font-size="11.00"> &#160;</text>
</a>
</g>
</g>
<!-- galaxy_synclist_namespaces&#45;&gt;galaxy_synclist -->
<g id="edge4" class="edge"><title>galaxy_synclist_namespaces:synclist_id:w&#45;&gt;galaxy_synclist:id.type:e</title>
<path fill="none" stroke="black" d="M557.292,-97.9435C541.587,-112.795 551.763,-156 522.5,-156"/>
<polygon fill="black" stroke="black" points="563.474,-95.7141 572.221,-96.3865 567.237,-94.357 571,-93 571,-93 571,-93 567.237,-94.357 569.779,-89.6135 563.474,-95.7141 563.474,-95.7141"/>
<ellipse fill="none" stroke="black" cx="560.464" cy="-96.7997" rx="3.20001" ry="3.20001"/>
</g>
</g>
</svg>
