<?xml version="1.0" encoding="UTF-8" standalone="no"?>
<!DOCTYPE svg PUBLIC "-//W3C//DTD SVG 1.1//EN"
 "http://www.w3.org/Graphics/SVG/1.1/DTD/svg11.dtd">
<!-- Generated by graphviz version 2.38.0 (20140413.2041)
 -->
<!-- Title: twoDegreesRelationshipsDiagram Pages: 1 -->
<svg width="690pt" height="633pt"
 viewBox="0.00 0.00 690.00 633.00" xmlns="http://www.w3.org/2000/svg" xmlns:xlink="http://www.w3.org/1999/xlink">
<g id="graph0" class="graph" transform="scale(1 1) rotate(0) translate(4 629)">
<title>twoDegreesRelationshipsDiagram</title>
<polygon fill="#ffffff" stroke="none" points="-4,4 -4,-629 686,-629 686,4 -4,4"/>
<text text-anchor="middle" x="74.5" y="-7.2" font-family="Helvetica,sans-Serif" font-size="11.00">Generated by SchemaSpy</text>
<!-- auth_group_permissions -->
<g id="node1" class="node"><title>auth_group_permissions</title>
<g id="a_node1"><a xlink:href="../../tables/auth_group_permissions.html" xlink:title="auth_group_permissions" target="_top">
<polygon fill="#ffffff" stroke="none" points="452,-484 452,-542 638,-542 638,-484 452,-484"/>
<polygon fill="#f5f5f5" stroke="none" points="452,-520 452,-542 638,-542 638,-520 452,-520"/>
<polygon fill="none" stroke="black" points="452,-520 452,-542 638,-542 638,-520 452,-520"/>
<text text-anchor="start" x="457" y="-529.2" font-family="Helvetica,sans-Serif" font-weight="bold" font-size="11.00">auth_group_permissions</text>
<text text-anchor="start" x="599" y="-528.2" font-family="Helvetica,sans-Serif" font-size="11.00">[table]</text>
<polygon fill="none" stroke="black" points="452,-502 452,-520 638,-520 638,-502 452,-502"/>
<text text-anchor="start" x="455" y="-508.2" font-family="Helvetica,sans-Serif" font-size="11.00">...</text>
<polygon fill="#ffffff" stroke="none" points="452,-484 452,-502 529,-502 529,-484 452,-484"/>
<polygon fill="none" stroke="black" points="452,-484 452,-502 529,-502 529,-484 452,-484"/>
<text text-anchor="start" x="455" y="-490.2" font-family="Helvetica,sans-Serif" font-size="11.00">&lt; 2</text>
<polygon fill="#ffffff" stroke="none" points="529,-484 529,-502 598,-502 598,-484 529,-484"/>
<polygon fill="none" stroke="black" points="529,-484 529,-502 598,-502 598,-484 529,-484"/>
<text text-anchor="start" x="559" y="-490.2" font-family="Helvetica,sans-Serif" font-size="11.00">0 rows</text>
<polygon fill="#ffffff" stroke="none" points="598,-484 598,-502 638,-502 638,-484 598,-484"/>
<polygon fill="none" stroke="black" points="598,-484 598,-502 638,-502 638,-484 598,-484"/>
<text text-anchor="start" x="628" y="-490.2" font-family="Helvetica,sans-Serif" font-size="11.00"> &#160;</text>
</a>
</g>
</g>
<!-- auth_permission -->
<g id="node2" class="node"><title>auth_permission</title>
<g id="a_node2"><a xlink:href="../../tables/auth_permission.html" xlink:title="auth_permission" target="_top">
<polygon fill="#ffffff" stroke="none" points="224,-420 224,-544 367,-544 367,-420 224,-420"/>
<polygon fill="#f5f5f5" stroke="none" points="224.5,-522 224.5,-544 367.5,-544 367.5,-522 224.5,-522"/>
<polygon fill="none" stroke="black" points="224.5,-522 224.5,-544 367.5,-544 367.5,-522 224.5,-522"/>
<text text-anchor="start" x="229.5" y="-531.2" font-family="Helvetica,sans-Serif" font-weight="bold" font-size="11.00">auth_permission</text>
<text text-anchor="start" x="328.5" y="-530.2" font-family="Helvetica,sans-Serif" font-size="11.00">[table]</text>
<polygon fill="none" stroke="black" points="224.5,-500 224.5,-522 367.5,-522 367.5,-500 224.5,-500"/>
<image xlink:href="../../images/primaryKeys.png" width="11px" height="12px" preserveAspectRatio="xMinYMin meet" x="229.5" y="-517"/>
<text text-anchor="start" x="256.5" y="-508.2" font-family="Helvetica,sans-Serif" font-size="11.00">id</text>
<polygon fill="#ffffff" stroke="none" points="224.5,-478 224.5,-500 367.5,-500 367.5,-478 224.5,-478"/>
<polygon fill="none" stroke="black" points="224.5,-478 224.5,-500 367.5,-500 367.5,-478 224.5,-478"/>
<image xlink:href="../../images/foreignKeys.png" width="11px" height="12px" preserveAspectRatio="xMinYMin meet" x="229.5" y="-495"/>
<text text-anchor="start" x="256.5" y="-486.2" font-family="Helvetica,sans-Serif" font-size="11.00">content_type_id</text>
<polygon fill="#ffffff" stroke="none" points="224.5,-456 224.5,-478 367.5,-478 367.5,-456 224.5,-456"/>
<polygon fill="none" stroke="black" points="224.5,-456 224.5,-478 367.5,-478 367.5,-456 224.5,-456"/>
<text text-anchor="start" x="256.5" y="-464.2" font-family="Helvetica,sans-Serif" font-size="11.00">codename</text>
<polygon fill="none" stroke="black" points="224.5,-438 224.5,-456 367.5,-456 367.5,-438 224.5,-438"/>
<text text-anchor="start" x="227.5" y="-444.2" font-family="Helvetica,sans-Serif" font-size="11.00">...</text>
<polygon fill="#ffffff" stroke="none" points="224.5,-420 224.5,-438 268.5,-438 268.5,-420 224.5,-420"/>
<polygon fill="none" stroke="black" points="224.5,-420 224.5,-438 268.5,-438 268.5,-420 224.5,-420"/>
<text text-anchor="start" x="227.5" y="-426.2" font-family="Helvetica,sans-Serif" font-size="11.00">&lt; 1</text>
<polygon fill="#ffffff" stroke="none" points="268.5,-420 268.5,-438 333.5,-438 333.5,-420 268.5,-420"/>
<polygon fill="none" stroke="black" points="268.5,-420 268.5,-438 333.5,-438 333.5,-420 268.5,-420"/>
<text text-anchor="start" x="281.5" y="-426.2" font-family="Helvetica,sans-Serif" font-size="11.00">322 rows</text>
<polygon fill="#ffffff" stroke="none" points="333.5,-420 333.5,-438 367.5,-438 367.5,-420 333.5,-420"/>
<polygon fill="none" stroke="black" points="333.5,-420 333.5,-438 367.5,-438 367.5,-420 333.5,-420"/>
<text text-anchor="start" x="347.5" y="-426.2" font-family="Helvetica,sans-Serif" font-size="11.00">4 &gt;</text>
</a>
</g>
</g>
<!-- auth_group_permissions&#45;&gt;auth_permission -->
<g id="edge1" class="edge"><title>auth_group_permissions:elipses:w&#45;&gt;auth_permission:id:e</title>
<path fill="none" stroke="black" d="M436.31,-511C411.006,-511 399.724,-511 368.5,-511"/>
<polygon fill="black" stroke="black" points="443,-511 451,-514.6 447,-511 451,-511 451,-511 451,-511 447,-511 451,-507.4 443,-511 443,-511"/>
<ellipse fill="none" stroke="black" cx="439.8" cy="-511" rx="3.2" ry="3.2"/>
</g>
<!-- django_content_type -->
<g id="node3" class="node"><title>django_content_type</title>
<g id="a_node3"><a xlink:href="../../tables/django_content_type.html" xlink:title="django_content_type" target="_top">
<polygon fill="#ffffff" stroke="none" points="8,-415 8,-473 175,-473 175,-415 8,-415"/>
<polygon fill="#f5f5f5" stroke="none" points="8.5,-451 8.5,-473 175.5,-473 175.5,-451 8.5,-451"/>
<polygon fill="none" stroke="black" points="8.5,-451 8.5,-473 175.5,-473 175.5,-451 8.5,-451"/>
<text text-anchor="start" x="13.5" y="-460.2" font-family="Helvetica,sans-Serif" font-weight="bold" font-size="11.00">django_content_type</text>
<text text-anchor="start" x="136.5" y="-459.2" font-family="Helvetica,sans-Serif" font-size="11.00">[table]</text>
<polygon fill="none" stroke="black" points="8.5,-433 8.5,-451 175.5,-451 175.5,-433 8.5,-433"/>
<text text-anchor="start" x="11.5" y="-439.2" font-family="Helvetica,sans-Serif" font-size="11.00">...</text>
<polygon fill="#ffffff" stroke="none" points="8.5,-415 8.5,-433 62.5,-433 62.5,-415 8.5,-415"/>
<polygon fill="none" stroke="black" points="8.5,-415 8.5,-433 62.5,-433 62.5,-415 8.5,-415"/>
<text text-anchor="start" x="11.5" y="-421.2" font-family="Helvetica,sans-Serif" font-size="11.00"> &#160;</text>
<polygon fill="#ffffff" stroke="none" points="62.5,-415 62.5,-433 131.5,-433 131.5,-415 62.5,-415"/>
<polygon fill="none" stroke="black" points="62.5,-415 62.5,-433 131.5,-433 131.5,-415 62.5,-415"/>
<text text-anchor="start" x="85.5" y="-421.2" font-family="Helvetica,sans-Serif" font-size="11.00">79 rows</text>
<polygon fill="#ffffff" stroke="none" points="131.5,-415 131.5,-433 175.5,-433 175.5,-415 131.5,-415"/>
<polygon fill="none" stroke="black" points="131.5,-415 131.5,-433 175.5,-433 175.5,-415 131.5,-415"/>
<text text-anchor="start" x="155.5" y="-421.2" font-family="Helvetica,sans-Serif" font-size="11.00">6 &gt;</text>
</a>
</g>
</g>
<!-- auth_permission&#45;&gt;django_content_type -->
<g id="edge2" class="edge"><title>auth_permission:content_type_id:w&#45;&gt;django_content_type:elipses:e</title>
<path fill="none" stroke="black" d="M209.953,-483.97C197.15,-471.845 200.041,-442 176.5,-442"/>
<polygon fill="black" stroke="black" points="216,-486.215 222.247,-492.375 219.75,-487.608 223.5,-489 223.5,-489 223.5,-489 219.75,-487.608 224.753,-485.625 216,-486.215 216,-486.215"/>
<ellipse fill="none" stroke="black" cx="213" cy="-485.102" rx="3.20001" ry="3.20001"/>
</g>
<!-- authtoken_token -->
<g id="node4" class="node"><title>authtoken_token</title>
<g id="a_node4"><a xlink:href="../../tables/authtoken_token.html" xlink:title="authtoken_token" target="_top">
<polygon fill="#ffffff" stroke="none" points="472,-116 472,-174 618,-174 618,-116 472,-116"/>
<polygon fill="#f5f5f5" stroke="none" points="472,-152 472,-174 618,-174 618,-152 472,-152"/>
<polygon fill="none" stroke="black" points="472,-152 472,-174 618,-174 618,-152 472,-152"/>
<text text-anchor="start" x="477" y="-161.2" font-family="Helvetica,sans-Serif" font-weight="bold" font-size="11.00">authtoken_token</text>
<text text-anchor="start" x="579" y="-160.2" font-family="Helvetica,sans-Serif" font-size="11.00">[table]</text>
<polygon fill="none" stroke="black" points="472,-134 472,-152 618,-152 618,-134 472,-134"/>
<text text-anchor="start" x="475" y="-140.2" font-family="Helvetica,sans-Serif" font-size="11.00">...</text>
<polygon fill="#ffffff" stroke="none" points="472,-116 472,-134 529,-134 529,-116 472,-116"/>
<polygon fill="none" stroke="black" points="472,-116 472,-134 529,-134 529,-116 472,-116"/>
<text text-anchor="start" x="475" y="-122.2" font-family="Helvetica,sans-Serif" font-size="11.00">&lt; 1</text>
<polygon fill="#ffffff" stroke="none" points="529,-116 529,-134 588,-134 588,-116 529,-116"/>
<polygon fill="none" stroke="black" points="529,-116 529,-134 588,-134 588,-116 529,-116"/>
<text text-anchor="start" x="549" y="-122.2" font-family="Helvetica,sans-Serif" font-size="11.00">4 rows</text>
<polygon fill="#ffffff" stroke="none" points="588,-116 588,-134 618,-134 618,-116 588,-116"/>
<polygon fill="none" stroke="black" points="588,-116 588,-134 618,-134 618,-116 588,-116"/>
<text text-anchor="start" x="608" y="-122.2" font-family="Helvetica,sans-Serif" font-size="11.00"> &#160;</text>
</a>
</g>
</g>
<!-- galaxy_user -->
<g id="node5" class="node"><title>galaxy_user</title>
<g id="a_node5"><a xlink:href="../../tables/galaxy_user.html" xlink:title="galaxy_user" target="_top">
<polygon fill="#ffffff" stroke="none" points="238,-153 238,-255 353,-255 353,-153 238,-153"/>
<polygon fill="#f5f5f5" stroke="none" points="238.5,-233 238.5,-255 353.5,-255 353.5,-233 238.5,-233"/>
<polygon fill="none" stroke="black" points="238.5,-233 238.5,-255 353.5,-255 353.5,-233 238.5,-233"/>
<text text-anchor="start" x="243.5" y="-242.2" font-family="Helvetica,sans-Serif" font-weight="bold" font-size="11.00">galaxy_user</text>
<text text-anchor="start" x="314.5" y="-241.2" font-family="Helvetica,sans-Serif" font-size="11.00">[table]</text>
<polygon fill="none" stroke="black" points="238.5,-211 238.5,-233 353.5,-233 353.5,-211 238.5,-211"/>
<image xlink:href="../../images/primaryKeys.png" width="11px" height="12px" preserveAspectRatio="xMinYMin meet" x="243.5" y="-228"/>
<text text-anchor="start" x="268.5" y="-219.2" font-family="Helvetica,sans-Serif" font-size="11.00">id</text>
<polygon fill="#ffffff" stroke="none" points="238.5,-189 238.5,-211 353.5,-211 353.5,-189 238.5,-189"/>
<polygon fill="none" stroke="black" points="238.5,-189 238.5,-211 353.5,-211 353.5,-189 238.5,-189"/>
<text text-anchor="start" x="268.5" y="-197.2" font-family="Helvetica,sans-Serif" font-size="11.00">username</text>
<polygon fill="none" stroke="black" points="238.5,-171 238.5,-189 353.5,-189 353.5,-171 238.5,-171"/>
<text text-anchor="start" x="241.5" y="-177.2" font-family="Helvetica,sans-Serif" font-size="11.00">...</text>
<polygon fill="#ffffff" stroke="none" points="238.5,-153 238.5,-171 266.5,-171 266.5,-153 238.5,-153"/>
<polygon fill="none" stroke="black" points="238.5,-153 238.5,-171 266.5,-171 266.5,-153 238.5,-153"/>
<text text-anchor="start" x="241.5" y="-159.2" font-family="Helvetica,sans-Serif" font-size="11.00"> &#160;</text>
<polygon fill="#ffffff" stroke="none" points="266.5,-153 266.5,-171 322.5,-171 322.5,-153 266.5,-153"/>
<polygon fill="none" stroke="black" points="266.5,-153 266.5,-171 322.5,-171 322.5,-153 266.5,-153"/>
<text text-anchor="start" x="276.5" y="-159.2" font-family="Helvetica,sans-Serif" font-size="11.00">17 rows</text>
<polygon fill="#ffffff" stroke="none" points="322.5,-153 322.5,-171 353.5,-171 353.5,-153 322.5,-153"/>
<polygon fill="none" stroke="black" points="322.5,-153 322.5,-171 353.5,-171 353.5,-153 322.5,-153"/>
<text text-anchor="start" x="333.5" y="-159.2" font-family="Helvetica,sans-Serif" font-size="11.00">5 &gt;</text>
</a>
</g>
</g>
<!-- authtoken_token&#45;&gt;galaxy_user -->
<g id="edge3" class="edge"><title>authtoken_token:elipses:w&#45;&gt;galaxy_user:id:e</title>
<path fill="none" stroke="black" d="M460.459,-143.874C436.779,-148.159 432.387,-167.414 408,-184 383.884,-200.402 383.665,-222 354.5,-222"/>
<polygon fill="black" stroke="black" points="469.872,-139.08 470.533,-147.052 468.939,-147.185 468.278,-139.212 469.872,-139.08"/>
<polyline fill="none" stroke="black" points="471,-143 467.014,-143.33 "/>
<ellipse fill="none" stroke="black" cx="463.825" cy="-143.595" rx="3.2" ry="3.2"/>
</g>
<!-- django_admin_log -->
<g id="node6" class="node"><title>django_admin_log</title>
<g id="a_node6"><a xlink:href="../../tables/django_admin_log.html" xlink:title="django_admin_log" target="_top">
<polygon fill="#ffffff" stroke="none" points="470.5,-37 470.5,-95 619.5,-95 619.5,-37 470.5,-37"/>
<polygon fill="#f5f5f5" stroke="none" points="471,-73 471,-95 620,-95 620,-73 471,-73"/>
<polygon fill="none" stroke="black" points="471,-73 471,-95 620,-95 620,-73 471,-73"/>
<text text-anchor="start" x="476" y="-82.2" font-family="Helvetica,sans-Serif" font-weight="bold" font-size="11.00">django_admin_log</text>
<text text-anchor="start" x="581" y="-81.2" font-family="Helvetica,sans-Serif" font-size="11.00">[table]</text>
<polygon fill="none" stroke="black" points="471,-55 471,-73 620,-73 620,-55 471,-55"/>
<text text-anchor="start" x="474" y="-61.2" font-family="Helvetica,sans-Serif" font-size="11.00">...</text>
<polygon fill="#ffffff" stroke="none" points="471,-37 471,-55 523,-55 523,-37 471,-37"/>
<polygon fill="none" stroke="black" points="471,-37 471,-55 523,-55 523,-37 471,-37"/>
<text text-anchor="start" x="474" y="-43.2" font-family="Helvetica,sans-Serif" font-size="11.00">&lt; 2</text>
<polygon fill="#ffffff" stroke="none" points="523,-37 523,-55 592,-55 592,-37 523,-37"/>
<polygon fill="none" stroke="black" points="523,-37 523,-55 592,-55 592,-37 523,-37"/>
<text text-anchor="start" x="540" y="-43.2" font-family="Helvetica,sans-Serif" font-size="11.00">229 rows</text>
<polygon fill="#ffffff" stroke="none" points="592,-37 592,-55 620,-55 620,-37 592,-37"/>
<polygon fill="none" stroke="black" points="592,-37 592,-55 620,-55 620,-37 592,-37"/>
<text text-anchor="start" x="610" y="-43.2" font-family="Helvetica,sans-Serif" font-size="11.00"> &#160;</text>
</a>
</g>
</g>
<!-- django_admin_log&#45;&gt;django_content_type -->
<g id="edge4" class="edge"><title>django_admin_log:elipses:w&#45;&gt;django_content_type:elipses:e</title>
<path fill="none" stroke="black" d="M455.427,-63.9441C346.868,-63.1577 289.045,-55.6085 216,-142 172.585,-193.348 243.742,-442 176.5,-442"/>
<polygon fill="black" stroke="black" points="462,-63.9692 469.986,-67.6 466,-63.9846 470,-64 470,-64 470,-64 466,-63.9846 470.014,-60.4 462,-63.9692 462,-63.9692"/>
<ellipse fill="none" stroke="black" cx="458.8" cy="-63.9569" rx="3.2" ry="3.2"/>
</g>
<!-- django_admin_log&#45;&gt;galaxy_user -->
<g id="edge5" class="edge"><title>django_admin_log:elipses:w&#45;&gt;galaxy_user:id:e</title>
<path fill="none" stroke="black" d="M455.629,-65.2542C434.131,-69.4642 425.953,-84.0159 408,-105 370.829,-148.448 411.679,-222 354.5,-222"/>
<polygon fill="black" stroke="black" points="462.03,-64.6956 470.313,-67.5864 466.015,-64.3478 470,-64 470,-64 470,-64 466.015,-64.3478 469.687,-60.4136 462.03,-64.6956 462.03,-64.6956"/>
<ellipse fill="none" stroke="black" cx="458.842" cy="-64.9738" rx="3.2" ry="3.2"/>
</g>
<!-- galaxy_user_groups -->
<g id="node7" class="node"><title>galaxy_user_groups</title>
<g id="a_node7"><a xlink:href="../../tables/galaxy_user_groups.html" xlink:title="galaxy_user_groups" target="_top">
<polygon fill="#ffffff" stroke="none" points="466.5,-195 466.5,-253 623.5,-253 623.5,-195 466.5,-195"/>
<polygon fill="#f5f5f5" stroke="none" points="467,-231 467,-253 624,-253 624,-231 467,-231"/>
<polygon fill="none" stroke="black" points="467,-231 467,-253 624,-253 624,-231 467,-231"/>
<text text-anchor="start" x="472" y="-240.2" font-family="Helvetica,sans-Serif" font-weight="bold" font-size="11.00">galaxy_user_groups</text>
<text text-anchor="start" x="585" y="-239.2" font-family="Helvetica,sans-Serif" font-size="11.00">[table]</text>
<polygon fill="none" stroke="black" points="467,-213 467,-231 624,-231 624,-213 467,-213"/>
<text text-anchor="start" x="470" y="-219.2" font-family="Helvetica,sans-Serif" font-size="11.00">...</text>
<polygon fill="#ffffff" stroke="none" points="467,-195 467,-213 526,-213 526,-195 467,-195"/>
<polygon fill="none" stroke="black" points="467,-195 467,-213 526,-213 526,-195 467,-195"/>
<text text-anchor="start" x="470" y="-201.2" font-family="Helvetica,sans-Serif" font-size="11.00">&lt; 2</text>
<polygon fill="#ffffff" stroke="none" points="526,-195 526,-213 593,-213 593,-195 526,-195"/>
<polygon fill="none" stroke="black" points="526,-195 526,-213 593,-213 593,-195 526,-195"/>
<text text-anchor="start" x="547" y="-201.2" font-family="Helvetica,sans-Serif" font-size="11.00">18 rows</text>
<polygon fill="#ffffff" stroke="none" points="593,-195 593,-213 624,-213 624,-195 593,-195"/>
<polygon fill="none" stroke="black" points="593,-195 593,-213 624,-213 624,-195 593,-195"/>
<text text-anchor="start" x="614" y="-201.2" font-family="Helvetica,sans-Serif" font-size="11.00"> &#160;</text>
</a>
</g>
</g>
<!-- galaxy_user_groups&#45;&gt;galaxy_user -->
<g id="edge6" class="edge"><title>galaxy_user_groups:elipses:w&#45;&gt;galaxy_user:id:e</title>
<path fill="none" stroke="black" d="M451.473,-222C413.418,-222 398.829,-222 354.5,-222"/>
<polygon fill="black" stroke="black" points="458,-222 466,-225.6 462,-222 466,-222 466,-222 466,-222 462,-222 466,-218.4 458,-222 458,-222"/>
<ellipse fill="none" stroke="black" cx="454.8" cy="-222" rx="3.2" ry="3.2"/>
</g>
<!-- galaxy_user_user_permissions -->
<g id="node8" class="node"><title>galaxy_user_user_permissions</title>
<g id="a_node8"><a xlink:href="../../tables/galaxy_user_user_permissions.html" xlink:title="galaxy_user_user_permissions" target="_top">
<polygon fill="#ffffff" stroke="none" points="416,-274 416,-384 674,-384 674,-274 416,-274"/>
<polygon fill="#f5f5f5" stroke="none" points="418,-360 418,-382 672,-382 672,-360 418,-360"/>
<polygon fill="none" stroke="black" points="418,-360 418,-382 672,-382 672,-360 418,-360"/>
<text text-anchor="start" x="423" y="-369.2" font-family="Helvetica,sans-Serif" font-weight="bold" font-size="11.00">galaxy_user_user_permissions</text>
<text text-anchor="start" x="633" y="-368.2" font-family="Helvetica,sans-Serif" font-size="11.00">[table]</text>
<polygon fill="none" stroke="black" points="418,-338 418,-360 617,-360 617,-338 418,-338"/>
<image xlink:href="../../images/primaryKeys.png" width="11px" height="12px" preserveAspectRatio="xMinYMin meet" x="423" y="-355"/>
<text text-anchor="start" x="438" y="-346.2" font-family="Helvetica,sans-Serif" font-size="11.00">id</text>
<polygon fill="none" stroke="black" points="617,-338 617,-360 672,-360 672,-338 617,-338"/>
<text text-anchor="start" x="620" y="-346.2" font-family="Helvetica,sans-Serif" font-size="11.00">serial[10]</text>
<polygon fill="#ffffff" stroke="none" points="418,-316 418,-338 617,-338 617,-316 418,-316"/>
<polygon fill="none" stroke="black" points="418,-316 418,-338 617,-338 617,-316 418,-316"/>
<image xlink:href="../../images/foreignKeys.png" width="11px" height="12px" preserveAspectRatio="xMinYMin meet" x="423" y="-333"/>
<text text-anchor="start" x="438" y="-324.2" font-family="Helvetica,sans-Serif" font-size="11.00">user_id</text>
<polygon fill="none" stroke="black" points="617,-316 617,-338 672,-338 672,-316 617,-316"/>
<text text-anchor="start" x="620" y="-324.2" font-family="Helvetica,sans-Serif" font-size="11.00">int4[10]</text>
<polygon fill="#ffffff" stroke="none" points="418,-294 418,-316 617,-316 617,-294 418,-294"/>
<polygon fill="none" stroke="black" points="418,-294 418,-316 617,-316 617,-294 418,-294"/>
<image xlink:href="../../images/foreignKeys.png" width="11px" height="12px" preserveAspectRatio="xMinYMin meet" x="423" y="-311"/>
<text text-anchor="start" x="438" y="-302.2" font-family="Helvetica,sans-Serif" font-size="11.00">permission_id</text>
<polygon fill="none" stroke="black" points="617,-294 617,-316 672,-316 672,-294 617,-294"/>
<text text-anchor="start" x="620" y="-302.2" font-family="Helvetica,sans-Serif" font-size="11.00">int4[10]</text>
<polygon fill="#ffffff" stroke="none" points="418,-276 418,-294 508,-294 508,-276 418,-276"/>
<polygon fill="none" stroke="black" points="418,-276 418,-294 508,-294 508,-276 418,-276"/>
<text text-anchor="start" x="421" y="-282.2" font-family="Helvetica,sans-Serif" font-size="11.00">&lt; 2</text>
<polygon fill="#ffffff" stroke="none" points="508,-276 508,-294 617,-294 617,-276 508,-276"/>
<polygon fill="none" stroke="black" points="508,-276 508,-294 617,-294 617,-276 508,-276"/>
<text text-anchor="start" x="578" y="-282.2" font-family="Helvetica,sans-Serif" font-size="11.00">0 rows</text>
<polygon fill="#ffffff" stroke="none" points="617,-276 617,-294 672,-294 672,-276 617,-276"/>
<polygon fill="none" stroke="black" points="617,-276 617,-294 672,-294 672,-276 617,-276"/>
<text text-anchor="start" x="652" y="-282.2" font-family="Helvetica,sans-Serif" font-size="11.00">0 &gt;</text>
<polygon fill="none" stroke="black" stroke-width="2" points="417,-275 417,-383 673,-383 673,-275 417,-275"/>
</a>
</g>
</g>
<!-- galaxy_user_user_permissions&#45;&gt;auth_permission -->
<g id="edge7" class="edge"><title>galaxy_user_user_permissions:permission_id:w&#45;&gt;auth_permission:id:e</title>
<path fill="none" stroke="black" d="M402.381,-307.174C338.991,-329.19 456.864,-511 368.5,-511"/>
<polygon fill="black" stroke="black" points="409.087,-306.177 417.53,-308.561 413.044,-305.588 417,-305 417,-305 417,-305 413.044,-305.588 416.47,-301.439 409.087,-306.177 409.087,-306.177"/>
<ellipse fill="none" stroke="black" cx="405.922" cy="-306.648" rx="3.2" ry="3.2"/>
</g>
<!-- galaxy_user_user_permissions&#45;&gt;galaxy_user -->
<g id="edge8" class="edge"><title>galaxy_user_user_permissions:user_id:w&#45;&gt;galaxy_user:id:e</title>
<path fill="none" stroke="black" d="M402.932,-323.742C371.302,-306.02 403.08,-222 354.5,-222"/>
<polygon fill="black" stroke="black" points="409.206,-325.195 416.188,-330.507 413.103,-326.098 417,-327 417,-327 417,-327 413.103,-326.098 417.812,-323.493 409.206,-325.195 409.206,-325.195"/>
<ellipse fill="none" stroke="black" cx="406.089" cy="-324.473" rx="3.2" ry="3.2"/>
</g>
<!-- guardian_groupobjectpermission -->
<g id="node9" class="node"><title>guardian_groupobjectpermission</title>
<g id="a_node9"><a xlink:href="../../tables/guardian_groupobjectpermission.html" xlink:title="guardian_groupobjectpermission" target="_top">
<polygon fill="#ffffff" stroke="none" points="427,-563 427,-621 663,-621 663,-563 427,-563"/>
<polygon fill="#f5f5f5" stroke="none" points="427,-599 427,-621 663,-621 663,-599 427,-599"/>
<polygon fill="none" stroke="black" points="427,-599 427,-621 663,-621 663,-599 427,-599"/>
<text text-anchor="start" x="432" y="-608.2" font-family="Helvetica,sans-Serif" font-weight="bold" font-size="11.00">guardian_groupobjectpermission</text>
<text text-anchor="start" x="624" y="-607.2" font-family="Helvetica,sans-Serif" font-size="11.00">[table]</text>
<polygon fill="none" stroke="black" points="427,-581 427,-599 663,-599 663,-581 427,-581"/>
<text text-anchor="start" x="430" y="-587.2" font-family="Helvetica,sans-Serif" font-size="11.00">...</text>
<polygon fill="#ffffff" stroke="none" points="427,-563 427,-581 522,-581 522,-563 427,-563"/>
<polygon fill="none" stroke="black" points="427,-563 427,-581 522,-581 522,-563 427,-563"/>
<text text-anchor="start" x="430" y="-569.2" font-family="Helvetica,sans-Serif" font-size="11.00">&lt; 3</text>
<polygon fill="#ffffff" stroke="none" points="522,-563 522,-581 613,-581 613,-563 522,-563"/>
<polygon fill="none" stroke="black" points="522,-563 522,-581 613,-581 613,-563 522,-563"/>
<text text-anchor="start" x="561" y="-569.2" font-family="Helvetica,sans-Serif" font-size="11.00">168 rows</text>
<polygon fill="#ffffff" stroke="none" points="613,-563 613,-581 663,-581 663,-563 613,-563"/>
<polygon fill="none" stroke="black" points="613,-563 613,-581 663,-581 663,-563 613,-563"/>
<text text-anchor="start" x="653" y="-569.2" font-family="Helvetica,sans-Serif" font-size="11.00"> &#160;</text>
</a>
</g>
</g>
<!-- guardian_groupobjectpermission&#45;&gt;auth_permission -->
<g id="edge10" class="edge"><title>guardian_groupobjectpermission:elipses:w&#45;&gt;auth_permission:id:e</title>
<path fill="none" stroke="black" d="M411.898,-585.974C389.239,-569.875 405.989,-511 368.5,-511"/>
<polygon fill="black" stroke="black" points="418.307,-587.804 425.012,-593.462 422.154,-588.902 426,-590 426,-590 426,-590 422.154,-588.902 426.988,-586.538 418.307,-587.804 418.307,-587.804"/>
<ellipse fill="none" stroke="black" cx="415.23" cy="-586.925" rx="3.20001" ry="3.20001"/>
</g>
<!-- guardian_groupobjectpermission&#45;&gt;django_content_type -->
<g id="edge9" class="edge"><title>guardian_groupobjectpermission:elipses:w&#45;&gt;django_content_type:elipses:e</title>
<path fill="none" stroke="black" d="M411.449,-590.2C326.762,-592.495 284.563,-612.73 216,-555 175.303,-520.733 229.702,-442 176.5,-442"/>
<polygon fill="black" stroke="black" points="418.001,-590.11 426.049,-593.6 422,-590.055 426,-590 426,-590 426,-590 422,-590.055 425.951,-586.4 418.001,-590.11 418.001,-590.11"/>
<ellipse fill="none" stroke="black" cx="414.801" cy="-590.154" rx="3.2" ry="3.2"/>
</g>
<!-- guardian_userobjectpermission -->
<g id="node10" class="node"><title>guardian_userobjectpermission</title>
<g id="a_node10"><a xlink:href="../../tables/guardian_userobjectpermission.html" xlink:title="guardian_userobjectpermission" target="_top">
<polygon fill="#ffffff" stroke="none" points="431,-405 431,-463 659,-463 659,-405 431,-405"/>
<polygon fill="#f5f5f5" stroke="none" points="431,-441 431,-463 659,-463 659,-441 431,-441"/>
<polygon fill="none" stroke="black" points="431,-441 431,-463 659,-463 659,-441 431,-441"/>
<text text-anchor="start" x="436" y="-450.2" font-family="Helvetica,sans-Serif" font-weight="bold" font-size="11.00">guardian_userobjectpermission</text>
<text text-anchor="start" x="620" y="-449.2" font-family="Helvetica,sans-Serif" font-size="11.00">[table]</text>
<polygon fill="none" stroke="black" points="431,-423 431,-441 659,-441 659,-423 431,-423"/>
<text text-anchor="start" x="434" y="-429.2" font-family="Helvetica,sans-Serif" font-size="11.00">...</text>
<polygon fill="#ffffff" stroke="none" points="431,-405 431,-423 529,-423 529,-405 431,-405"/>
<polygon fill="none" stroke="black" points="431,-405 431,-423 529,-423 529,-405 431,-405"/>
<text text-anchor="start" x="434" y="-411.2" font-family="Helvetica,sans-Serif" font-size="11.00">&lt; 3</text>
<polygon fill="#ffffff" stroke="none" points="529,-405 529,-423 608,-423 608,-405 529,-405"/>
<polygon fill="none" stroke="black" points="529,-405 529,-423 608,-423 608,-405 529,-405"/>
<text text-anchor="start" x="569" y="-411.2" font-family="Helvetica,sans-Serif" font-size="11.00">0 rows</text>
<polygon fill="#ffffff" stroke="none" points="608,-405 608,-423 659,-423 659,-405 608,-405"/>
<polygon fill="none" stroke="black" points="608,-405 608,-423 659,-423 659,-405 608,-405"/>
<text text-anchor="start" x="649" y="-411.2" font-family="Helvetica,sans-Serif" font-size="11.00"> &#160;</text>
</a>
</g>
</g>
<!-- guardian_userobjectpermission&#45;&gt;auth_permission -->
<g id="edge12" class="edge"><title>guardian_userobjectpermission:elipses:w&#45;&gt;auth_permission:id:e</title>
<path fill="none" stroke="black" d="M415.743,-435.81C391.537,-451.591 407.086,-511 368.5,-511"/>
<polygon fill="black" stroke="black" points="422.271,-434.066 430.93,-435.478 426.136,-433.033 430,-432 430,-432 430,-432 426.136,-433.033 429.07,-428.522 422.271,-434.066 422.271,-434.066"/>
<ellipse fill="none" stroke="black" cx="419.18" cy="-434.892" rx="3.2" ry="3.2"/>
</g>
<!-- guardian_userobjectpermission&#45;&gt;django_content_type -->
<g id="edge11" class="edge"><title>guardian_userobjectpermission:elipses:w&#45;&gt;django_content_type:elipses:e</title>
<path fill="none" stroke="black" d="M415.61,-429.861C401.337,-425.129 395.197,-413.89 375,-410 305.608,-396.636 282.611,-386.404 216,-410 194.703,-417.544 199.094,-442 176.5,-442"/>
<polygon fill="black" stroke="black" points="422.087,-430.824 429.471,-435.561 426.043,-431.412 430,-432 430,-432 430,-432 426.043,-431.412 430.529,-428.439 422.087,-430.824 422.087,-430.824"/>
<ellipse fill="none" stroke="black" cx="418.922" cy="-430.353" rx="3.2" ry="3.2"/>
</g>
<!-- guardian_userobjectpermission&#45;&gt;galaxy_user -->
<g id="edge13" class="edge"><title>guardian_userobjectpermission:elipses:w&#45;&gt;galaxy_user:id:e</title>
<path fill="none" stroke="black" d="M415.648,-430.185C343.592,-409.659 448.258,-222 354.5,-222"/>
<polygon fill="black" stroke="black" points="422.063,-430.996 429.548,-435.572 426.032,-431.498 430,-432 430,-432 430,-432 426.032,-431.498 430.452,-428.428 422.063,-430.996 422.063,-430.996"/>
<ellipse fill="none" stroke="black" cx="418.889" cy="-430.594" rx="3.2" ry="3.2"/>
</g>
</g>
</svg>
