<?xml version="1.0" encoding="UTF-8" standalone="no"?>
<!DOCTYPE svg PUBLIC "-//W3C//DTD SVG 1.1//EN"
 "http://www.w3.org/Graphics/SVG/1.1/DTD/svg11.dtd">
<!-- Generated by graphviz version 2.38.0 (20140413.2041)
 -->
<!-- Title: oneDegreeRelationshipsDiagram Pages: 1 -->
<svg width="500pt" height="241pt"
 viewBox="0.00 0.00 500.00 241.00" xmlns="http://www.w3.org/2000/svg" xmlns:xlink="http://www.w3.org/1999/xlink">
<g id="graph0" class="graph" transform="scale(1 1) rotate(0) translate(4 237)">
<title>oneDegreeRelationshipsDiagram</title>
<polygon fill="#ffffff" stroke="none" points="-4,4 -4,-237 496,-237 496,4 -4,4"/>
<text text-anchor="middle" x="74.5" y="-7.2" font-family="Helvetica,sans-Serif" font-size="11.00">Generated by SchemaSpy</text>
<!-- galaxy_collectionimport -->
<g id="node1" class="node"><title>galaxy_collectionimport</title>
<g id="a_node1"><a xlink:href="../../tables/galaxy_collectionimport.html" xlink:title="galaxy_collectionimport" target="_top">
<polygon fill="#ffffff" stroke="none" points="211,-75 211,-229 484,-229 484,-75 211,-75"/>
<polygon fill="#f5f5f5" stroke="none" points="213.5,-205 213.5,-227 482.5,-227 482.5,-205 213.5,-205"/>
<polygon fill="none" stroke="black" points="213.5,-205 213.5,-227 482.5,-227 482.5,-205 213.5,-205"/>
<text text-anchor="start" x="218.5" y="-214.2" font-family="Helvetica,sans-Serif" font-weight="bold" font-size="11.00">galaxy_collectionimport</text>
<text text-anchor="start" x="443.5" y="-213.2" font-family="Helvetica,sans-Serif" font-size="11.00">[table]</text>
<polygon fill="none" stroke="black" points="213.5,-183 213.5,-205 377.5,-205 377.5,-183 213.5,-183"/>
<image xlink:href="../../images/primaryKeys.png" width="11px" height="12px" preserveAspectRatio="xMinYMin meet" x="218.5" y="-200"/>
<text text-anchor="start" x="233.5" y="-191.2" font-family="Helvetica,sans-Serif" font-size="11.00">task_id</text>
<polygon fill="none" stroke="black" points="377.5,-183 377.5,-205 482.5,-205 482.5,-183 377.5,-183"/>
<text text-anchor="start" x="380.5" y="-191.2" font-family="Helvetica,sans-Serif" font-size="11.00">uuid[2147483647]</text>
<polygon fill="none" stroke="black" points="213.5,-161 213.5,-183 377.5,-183 377.5,-161 213.5,-161"/>
<text text-anchor="start" x="233.5" y="-169.2" font-family="Helvetica,sans-Serif" font-size="11.00">created_at</text>
<polygon fill="none" stroke="black" points="377.5,-161 377.5,-183 482.5,-183 482.5,-161 377.5,-161"/>
<text text-anchor="start" x="380.5" y="-169.2" font-family="Helvetica,sans-Serif" font-size="11.00">timestamptz[35,6]</text>
<polygon fill="none" stroke="black" points="213.5,-139 213.5,-161 377.5,-161 377.5,-139 213.5,-139"/>
<text text-anchor="start" x="233.5" y="-147.2" font-family="Helvetica,sans-Serif" font-size="11.00">name</text>
<polygon fill="none" stroke="black" points="377.5,-139 377.5,-161 482.5,-161 482.5,-139 377.5,-139"/>
<text text-anchor="start" x="380.5" y="-147.2" font-family="Helvetica,sans-Serif" font-size="11.00">varchar[64]</text>
<polygon fill="none" stroke="black" points="213.5,-117 213.5,-139 377.5,-139 377.5,-117 213.5,-117"/>
<text text-anchor="start" x="233.5" y="-125.2" font-family="Helvetica,sans-Serif" font-size="11.00">version</text>
<polygon fill="none" stroke="black" points="377.5,-117 377.5,-139 482.5,-139 482.5,-117 377.5,-117"/>
<text text-anchor="start" x="380.5" y="-125.2" font-family="Helvetica,sans-Serif" font-size="11.00">varchar[32]</text>
<polygon fill="#ffffff" stroke="none" points="213.5,-95 213.5,-117 377.5,-117 377.5,-95 213.5,-95"/>
<polygon fill="none" stroke="black" points="213.5,-95 213.5,-117 377.5,-117 377.5,-95 213.5,-95"/>
<image xlink:href="../../images/foreignKeys.png" width="11px" height="12px" preserveAspectRatio="xMinYMin meet" x="218.5" y="-112"/>
<text text-anchor="start" x="233.5" y="-103.2" font-family="Helvetica,sans-Serif" font-size="11.00">namespace_id</text>
<polygon fill="none" stroke="black" points="377.5,-95 377.5,-117 482.5,-117 482.5,-95 377.5,-95"/>
<text text-anchor="start" x="380.5" y="-103.2" font-family="Helvetica,sans-Serif" font-size="11.00">int4[10]</text>
<polygon fill="#ffffff" stroke="none" points="213.5,-77 213.5,-95 282.5,-95 282.5,-77 213.5,-77"/>
<polygon fill="none" stroke="black" points="213.5,-77 213.5,-95 282.5,-95 282.5,-77 213.5,-77"/>
<text text-anchor="start" x="216.5" y="-83.2" font-family="Helvetica,sans-Serif" font-size="11.00">&lt; 1</text>
<polygon fill="#ffffff" stroke="none" points="282.5,-77 282.5,-95 377.5,-95 377.5,-77 282.5,-77"/>
<polygon fill="none" stroke="black" points="282.5,-77 282.5,-95 377.5,-95 377.5,-77 282.5,-77"/>
<text text-anchor="start" x="331.5" y="-83.2" font-family="Helvetica,sans-Serif" font-size="11.00">91 rows</text>
<polygon fill="#ffffff" stroke="none" points="377.5,-77 377.5,-95 482.5,-95 482.5,-77 377.5,-77"/>
<polygon fill="none" stroke="black" points="377.5,-77 377.5,-95 482.5,-95 482.5,-77 377.5,-77"/>
<text text-anchor="start" x="462.5" y="-83.2" font-family="Helvetica,sans-Serif" font-size="11.00">0 &gt;</text>
<polygon fill="none" stroke="black" stroke-width="2" points="212,-76 212,-228 483,-228 483,-76 212,-76"/>
</a>
</g>
</g>
<!-- galaxy_namespace -->
<g id="node2" class="node"><title>galaxy_namespace</title>
<g id="a_node2"><a xlink:href="../../tables/galaxy_namespace.html" xlink:title="galaxy_namespace" target="_top">
<polygon fill="#ffffff" stroke="none" points="8,-37 8,-139 162,-139 162,-37 8,-37"/>
<polygon fill="#f5f5f5" stroke="none" points="8,-117 8,-139 162,-139 162,-117 8,-117"/>
<polygon fill="none" stroke="black" points="8,-117 8,-139 162,-139 162,-117 8,-117"/>
<text text-anchor="start" x="13" y="-126.2" font-family="Helvetica,sans-Serif" font-weight="bold" font-size="11.00">galaxy_namespace</text>
<text text-anchor="start" x="123" y="-125.2" font-family="Helvetica,sans-Serif" font-size="11.00">[table]</text>
<polygon fill="none" stroke="black" points="8,-95 8,-117 162,-117 162,-95 8,-95"/>
<image xlink:href="../../images/primaryKeys.png" width="11px" height="12px" preserveAspectRatio="xMinYMin meet" x="13" y="-112"/>
<text text-anchor="start" x="39" y="-103.2" font-family="Helvetica,sans-Serif" font-size="11.00">id</text>
<polygon fill="#ffffff" stroke="none" points="8,-73 8,-95 162,-95 162,-73 8,-73"/>
<polygon fill="none" stroke="black" points="8,-73 8,-95 162,-95 162,-73 8,-73"/>
<text text-anchor="start" x="39" y="-81.2" font-family="Helvetica,sans-Serif" font-size="11.00">name</text>
<polygon fill="none" stroke="black" points="8,-55 8,-73 162,-73 162,-55 8,-55"/>
<text text-anchor="start" x="11" y="-61.2" font-family="Helvetica,sans-Serif" font-size="11.00">...</text>
<polygon fill="#ffffff" stroke="none" points="8,-37 8,-55 55,-55 55,-37 8,-37"/>
<polygon fill="none" stroke="black" points="8,-37 8,-55 55,-55 55,-37 8,-37"/>
<text text-anchor="start" x="11" y="-43.2" font-family="Helvetica,sans-Serif" font-size="11.00"> &#160;</text>
<polygon fill="#ffffff" stroke="none" points="55,-37 55,-55 121,-55 121,-37 55,-37"/>
<polygon fill="none" stroke="black" points="55,-37 55,-55 121,-55 121,-37 55,-37"/>
<text text-anchor="start" x="75" y="-43.2" font-family="Helvetica,sans-Serif" font-size="11.00">55 rows</text>
<polygon fill="#ffffff" stroke="none" points="121,-37 121,-55 162,-55 162,-37 121,-37"/>
<polygon fill="none" stroke="black" points="121,-37 121,-55 162,-55 162,-37 121,-37"/>
<text text-anchor="start" x="142" y="-43.2" font-family="Helvetica,sans-Serif" font-size="11.00">3 &gt;</text>
</a>
</g>
</g>
<!-- galaxy_collectionimport&#45;&gt;galaxy_namespace -->
<g id="edge1" class="edge"><title>galaxy_collectionimport:namespace_id:w&#45;&gt;galaxy_namespace:id:e</title>
<path fill="none" stroke="black" d="M197.843,-106C186.414,-106 179.156,-106 163,-106"/>
<polygon fill="black" stroke="black" points="204.5,-106 212.5,-109.6 208.5,-106 212.5,-106 212.5,-106 212.5,-106 208.5,-106 212.5,-102.4 204.5,-106 204.5,-106"/>
<ellipse fill="none" stroke="black" cx="201.3" cy="-106" rx="3.2" ry="3.2"/>
</g>
</g>
</svg>
