<?xml version="1.0" encoding="UTF-8" standalone="no"?>
<!DOCTYPE svg PUBLIC "-//W3C//DTD SVG 1.1//EN"
 "http://www.w3.org/Graphics/SVG/1.1/DTD/svg11.dtd">
<!-- Generated by graphviz version 2.38.0 (20140413.2041)
 -->
<!-- Title: oneDegreeRelationshipsDiagram Pages: 1 -->
<svg width="474pt" height="296pt"
 viewBox="0.00 0.00 474.00 296.00" xmlns="http://www.w3.org/2000/svg" xmlns:xlink="http://www.w3.org/1999/xlink">
<g id="graph0" class="graph" transform="scale(1 1) rotate(0) translate(4 292)">
<title>oneDegreeRelationshipsDiagram</title>
<polygon fill="#ffffff" stroke="none" points="-4,4 -4,-292 470,-292 470,4 -4,4"/>
<text text-anchor="middle" x="74.5" y="-7.2" font-family="Helvetica,sans-Serif" font-size="11.00">Generated by SchemaSpy</text>
<!-- galaxy_user_user_permissions -->
<g id="node1" class="node"><title>galaxy_user_user_permissions</title>
<g id="a_node1"><a xlink:href="../../tables/galaxy_user_user_permissions.html" xlink:title="galaxy_user_user_permissions" target="_top">
<polygon fill="#ffffff" stroke="none" points="200,-147 200,-257 458,-257 458,-147 200,-147"/>
<polygon fill="#f5f5f5" stroke="none" points="202,-233 202,-255 456,-255 456,-233 202,-233"/>
<polygon fill="none" stroke="black" points="202,-233 202,-255 456,-255 456,-233 202,-233"/>
<text text-anchor="start" x="207" y="-242.2" font-family="Helvetica,sans-Serif" font-weight="bold" font-size="11.00">galaxy_user_user_permissions</text>
<text text-anchor="start" x="417" y="-241.2" font-family="Helvetica,sans-Serif" font-size="11.00">[table]</text>
<polygon fill="none" stroke="black" points="202,-211 202,-233 401,-233 401,-211 202,-211"/>
<image xlink:href="../../images/primaryKeys.png" width="11px" height="12px" preserveAspectRatio="xMinYMin meet" x="207" y="-228"/>
<text text-anchor="start" x="222" y="-219.2" font-family="Helvetica,sans-Serif" font-size="11.00">id</text>
<polygon fill="none" stroke="black" points="401,-211 401,-233 456,-233 456,-211 401,-211"/>
<text text-anchor="start" x="404" y="-219.2" font-family="Helvetica,sans-Serif" font-size="11.00">serial[10]</text>
<polygon fill="#ffffff" stroke="none" points="202,-189 202,-211 401,-211 401,-189 202,-189"/>
<polygon fill="none" stroke="black" points="202,-189 202,-211 401,-211 401,-189 202,-189"/>
<image xlink:href="../../images/foreignKeys.png" width="11px" height="12px" preserveAspectRatio="xMinYMin meet" x="207" y="-206"/>
<text text-anchor="start" x="222" y="-197.2" font-family="Helvetica,sans-Serif" font-size="11.00">user_id</text>
<polygon fill="none" stroke="black" points="401,-189 401,-211 456,-211 456,-189 401,-189"/>
<text text-anchor="start" x="404" y="-197.2" font-family="Helvetica,sans-Serif" font-size="11.00">int4[10]</text>
<polygon fill="#ffffff" stroke="none" points="202,-167 202,-189 401,-189 401,-167 202,-167"/>
<polygon fill="none" stroke="black" points="202,-167 202,-189 401,-189 401,-167 202,-167"/>
<image xlink:href="../../images/foreignKeys.png" width="11px" height="12px" preserveAspectRatio="xMinYMin meet" x="207" y="-184"/>
<text text-anchor="start" x="222" y="-175.2" font-family="Helvetica,sans-Serif" font-size="11.00">permission_id</text>
<polygon fill="none" stroke="black" points="401,-167 401,-189 456,-189 456,-167 401,-167"/>
<text text-anchor="start" x="404" y="-175.2" font-family="Helvetica,sans-Serif" font-size="11.00">int4[10]</text>
<polygon fill="#ffffff" stroke="none" points="202,-149 202,-167 292,-167 292,-149 202,-149"/>
<polygon fill="none" stroke="black" points="202,-149 202,-167 292,-167 292,-149 202,-149"/>
<text text-anchor="start" x="205" y="-155.2" font-family="Helvetica,sans-Serif" font-size="11.00">&lt; 2</text>
<polygon fill="#ffffff" stroke="none" points="292,-149 292,-167 401,-167 401,-149 292,-149"/>
<polygon fill="none" stroke="black" points="292,-149 292,-167 401,-167 401,-149 292,-149"/>
<text text-anchor="start" x="362" y="-155.2" font-family="Helvetica,sans-Serif" font-size="11.00">0 rows</text>
<polygon fill="#ffffff" stroke="none" points="401,-149 401,-167 456,-167 456,-149 401,-149"/>
<polygon fill="none" stroke="black" points="401,-149 401,-167 456,-167 456,-149 401,-149"/>
<text text-anchor="start" x="436" y="-155.2" font-family="Helvetica,sans-Serif" font-size="11.00">0 &gt;</text>
<polygon fill="none" stroke="black" stroke-width="2" points="201,-148 201,-256 457,-256 457,-148 201,-148"/>
</a>
</g>
</g>
<!-- auth_permission -->
<g id="node2" class="node"><title>auth_permission</title>
<g id="a_node2"><a xlink:href="../../tables/auth_permission.html" xlink:title="auth_permission" target="_top">
<polygon fill="#ffffff" stroke="none" points="8,-37 8,-161 151,-161 151,-37 8,-37"/>
<polygon fill="#f5f5f5" stroke="none" points="8.5,-139 8.5,-161 151.5,-161 151.5,-139 8.5,-139"/>
<polygon fill="none" stroke="black" points="8.5,-139 8.5,-161 151.5,-161 151.5,-139 8.5,-139"/>
<text text-anchor="start" x="13.5" y="-148.2" font-family="Helvetica,sans-Serif" font-weight="bold" font-size="11.00">auth_permission</text>
<text text-anchor="start" x="112.5" y="-147.2" font-family="Helvetica,sans-Serif" font-size="11.00">[table]</text>
<polygon fill="none" stroke="black" points="8.5,-117 8.5,-139 151.5,-139 151.5,-117 8.5,-117"/>
<image xlink:href="../../images/primaryKeys.png" width="11px" height="12px" preserveAspectRatio="xMinYMin meet" x="13.5" y="-134"/>
<text text-anchor="start" x="40.5" y="-125.2" font-family="Helvetica,sans-Serif" font-size="11.00">id</text>
<polygon fill="#ffffff" stroke="none" points="8.5,-95 8.5,-117 151.5,-117 151.5,-95 8.5,-95"/>
<polygon fill="none" stroke="black" points="8.5,-95 8.5,-117 151.5,-117 151.5,-95 8.5,-95"/>
<image xlink:href="../../images/foreignKeys.png" width="11px" height="12px" preserveAspectRatio="xMinYMin meet" x="13.5" y="-112"/>
<text text-anchor="start" x="40.5" y="-103.2" font-family="Helvetica,sans-Serif" font-size="11.00">content_type_id</text>
<polygon fill="#ffffff" stroke="none" points="8.5,-73 8.5,-95 151.5,-95 151.5,-73 8.5,-73"/>
<polygon fill="none" stroke="black" points="8.5,-73 8.5,-95 151.5,-95 151.5,-73 8.5,-73"/>
<text text-anchor="start" x="40.5" y="-81.2" font-family="Helvetica,sans-Serif" font-size="11.00">codename</text>
<polygon fill="none" stroke="black" points="8.5,-55 8.5,-73 151.5,-73 151.5,-55 8.5,-55"/>
<text text-anchor="start" x="11.5" y="-61.2" font-family="Helvetica,sans-Serif" font-size="11.00">...</text>
<polygon fill="#ffffff" stroke="none" points="8.5,-37 8.5,-55 52.5,-55 52.5,-37 8.5,-37"/>
<polygon fill="none" stroke="black" points="8.5,-37 8.5,-55 52.5,-55 52.5,-37 8.5,-37"/>
<text text-anchor="start" x="11.5" y="-43.2" font-family="Helvetica,sans-Serif" font-size="11.00">&lt; 1</text>
<polygon fill="#ffffff" stroke="none" points="52.5,-37 52.5,-55 117.5,-55 117.5,-37 52.5,-37"/>
<polygon fill="none" stroke="black" points="52.5,-37 52.5,-55 117.5,-55 117.5,-37 52.5,-37"/>
<text text-anchor="start" x="65.5" y="-43.2" font-family="Helvetica,sans-Serif" font-size="11.00">322 rows</text>
<polygon fill="#ffffff" stroke="none" points="117.5,-37 117.5,-55 151.5,-55 151.5,-37 117.5,-37"/>
<polygon fill="none" stroke="black" points="117.5,-37 117.5,-55 151.5,-55 151.5,-37 117.5,-37"/>
<text text-anchor="start" x="131.5" y="-43.2" font-family="Helvetica,sans-Serif" font-size="11.00">4 &gt;</text>
</a>
</g>
</g>
<!-- galaxy_user_user_permissions&#45;&gt;auth_permission -->
<g id="edge1" class="edge"><title>galaxy_user_user_permissions:permission_id:w&#45;&gt;auth_permission:id:e</title>
<path fill="none" stroke="black" d="M187.277,-173.023C173.59,-160.376 177.412,-128 152.5,-128"/>
<polygon fill="black" stroke="black" points="193.479,-175.272 199.773,-181.384 197.24,-176.636 201,-178 201,-178 201,-178 197.24,-176.636 202.227,-174.616 193.479,-175.272 193.479,-175.272"/>
<ellipse fill="none" stroke="black" cx="190.471" cy="-174.181" rx="3.20001" ry="3.20001"/>
</g>
<!-- galaxy_user -->
<g id="node3" class="node"><title>galaxy_user</title>
<g id="a_node3"><a xlink:href="../../tables/galaxy_user.html" xlink:title="galaxy_user" target="_top">
<polygon fill="#ffffff" stroke="none" points="22,-182 22,-284 137,-284 137,-182 22,-182"/>
<polygon fill="#f5f5f5" stroke="none" points="22.5,-262 22.5,-284 137.5,-284 137.5,-262 22.5,-262"/>
<polygon fill="none" stroke="black" points="22.5,-262 22.5,-284 137.5,-284 137.5,-262 22.5,-262"/>
<text text-anchor="start" x="27.5" y="-271.2" font-family="Helvetica,sans-Serif" font-weight="bold" font-size="11.00">galaxy_user</text>
<text text-anchor="start" x="98.5" y="-270.2" font-family="Helvetica,sans-Serif" font-size="11.00">[table]</text>
<polygon fill="none" stroke="black" points="22.5,-240 22.5,-262 137.5,-262 137.5,-240 22.5,-240"/>
<image xlink:href="../../images/primaryKeys.png" width="11px" height="12px" preserveAspectRatio="xMinYMin meet" x="27.5" y="-257"/>
<text text-anchor="start" x="52.5" y="-248.2" font-family="Helvetica,sans-Serif" font-size="11.00">id</text>
<polygon fill="#ffffff" stroke="none" points="22.5,-218 22.5,-240 137.5,-240 137.5,-218 22.5,-218"/>
<polygon fill="none" stroke="black" points="22.5,-218 22.5,-240 137.5,-240 137.5,-218 22.5,-218"/>
<text text-anchor="start" x="52.5" y="-226.2" font-family="Helvetica,sans-Serif" font-size="11.00">username</text>
<polygon fill="none" stroke="black" points="22.5,-200 22.5,-218 137.5,-218 137.5,-200 22.5,-200"/>
<text text-anchor="start" x="25.5" y="-206.2" font-family="Helvetica,sans-Serif" font-size="11.00">...</text>
<polygon fill="#ffffff" stroke="none" points="22.5,-182 22.5,-200 50.5,-200 50.5,-182 22.5,-182"/>
<polygon fill="none" stroke="black" points="22.5,-182 22.5,-200 50.5,-200 50.5,-182 22.5,-182"/>
<text text-anchor="start" x="25.5" y="-188.2" font-family="Helvetica,sans-Serif" font-size="11.00"> &#160;</text>
<polygon fill="#ffffff" stroke="none" points="50.5,-182 50.5,-200 106.5,-200 106.5,-182 50.5,-182"/>
<polygon fill="none" stroke="black" points="50.5,-182 50.5,-200 106.5,-200 106.5,-182 50.5,-182"/>
<text text-anchor="start" x="60.5" y="-188.2" font-family="Helvetica,sans-Serif" font-size="11.00">17 rows</text>
<polygon fill="#ffffff" stroke="none" points="106.5,-182 106.5,-200 137.5,-200 137.5,-182 106.5,-182"/>
<polygon fill="none" stroke="black" points="106.5,-182 106.5,-200 137.5,-200 137.5,-182 106.5,-182"/>
<text text-anchor="start" x="117.5" y="-188.2" font-family="Helvetica,sans-Serif" font-size="11.00">5 &gt;</text>
</a>
</g>
</g>
<!-- galaxy_user_user_permissions&#45;&gt;galaxy_user -->
<g id="edge2" class="edge"><title>galaxy_user_user_permissions:user_id:w&#45;&gt;galaxy_user:id:e</title>
<path fill="none" stroke="black" d="M186.871,-203.505C166.94,-215.028 168.61,-251 138.5,-251"/>
<polygon fill="black" stroke="black" points="193.235,-201.926 201.867,-203.494 197.118,-200.963 201,-200 201,-200 201,-200 197.118,-200.963 200.133,-196.506 193.235,-201.926 193.235,-201.926"/>
<ellipse fill="none" stroke="black" cx="190.13" cy="-202.697" rx="3.2" ry="3.2"/>
</g>
</g>
</svg>
