<?xml version="1.0" encoding="UTF-8" standalone="no"?>
<!DOCTYPE svg PUBLIC "-//W3C//DTD SVG 1.1//EN"
 "http://www.w3.org/Graphics/SVG/1.1/DTD/svg11.dtd">
<!-- Generated by graphviz version 2.38.0 (20140413.2041)
 -->
<!-- Title: twoDegreesRelationshipsDiagram Pages: 1 -->
<svg width="424pt" height="633pt"
 viewBox="0.00 0.00 424.00 633.00" xmlns="http://www.w3.org/2000/svg" xmlns:xlink="http://www.w3.org/1999/xlink">
<g id="graph0" class="graph" transform="scale(1 1) rotate(0) translate(4 629)">
<title>twoDegreesRelationshipsDiagram</title>
<polygon fill="#ffffff" stroke="none" points="-4,4 -4,-629 420,-629 420,4 -4,4"/>
<text text-anchor="middle" x="74.5" y="-7.2" font-family="Helvetica,sans-Serif" font-size="11.00">Generated by SchemaSpy</text>
<!-- auth_group_permissions -->
<g id="node1" class="node"><title>auth_group_permissions</title>
<g id="a_node1"><a xlink:href="../../tables/auth_group_permissions.html" xlink:title="auth_group_permissions" target="_top">
<polygon fill="#ffffff" stroke="none" points="197,-484 197,-542 383,-542 383,-484 197,-484"/>
<polygon fill="#f5f5f5" stroke="none" points="197,-520 197,-542 383,-542 383,-520 197,-520"/>
<polygon fill="none" stroke="black" points="197,-520 197,-542 383,-542 383,-520 197,-520"/>
<text text-anchor="start" x="202" y="-529.2" font-family="Helvetica,sans-Serif" font-weight="bold" font-size="11.00">auth_group_permissions</text>
<text text-anchor="start" x="344" y="-528.2" font-family="Helvetica,sans-Serif" font-size="11.00">[table]</text>
<polygon fill="none" stroke="black" points="197,-502 197,-520 383,-520 383,-502 197,-502"/>
<text text-anchor="start" x="200" y="-508.2" font-family="Helvetica,sans-Serif" font-size="11.00">...</text>
<polygon fill="#ffffff" stroke="none" points="197,-484 197,-502 274,-502 274,-484 197,-484"/>
<polygon fill="none" stroke="black" points="197,-484 197,-502 274,-502 274,-484 197,-484"/>
<text text-anchor="start" x="200" y="-490.2" font-family="Helvetica,sans-Serif" font-size="11.00">&lt; 2</text>
<polygon fill="#ffffff" stroke="none" points="274,-484 274,-502 343,-502 343,-484 274,-484"/>
<polygon fill="none" stroke="black" points="274,-484 274,-502 343,-502 343,-484 274,-484"/>
<text text-anchor="start" x="304" y="-490.2" font-family="Helvetica,sans-Serif" font-size="11.00">0 rows</text>
<polygon fill="#ffffff" stroke="none" points="343,-484 343,-502 383,-502 383,-484 343,-484"/>
<polygon fill="none" stroke="black" points="343,-484 343,-502 383,-502 383,-484 343,-484"/>
<text text-anchor="start" x="373" y="-490.2" font-family="Helvetica,sans-Serif" font-size="11.00"> &#160;</text>
</a>
</g>
</g>
<!-- auth_group -->
<g id="node2" class="node"><title>auth_group</title>
<g id="a_node2"><a xlink:href="../../tables/auth_group.html" xlink:title="auth_group" target="_top">
<polygon fill="#ffffff" stroke="none" points="9,-460 9,-544 122,-544 122,-460 9,-460"/>
<polygon fill="#f5f5f5" stroke="none" points="9.5,-522 9.5,-544 122.5,-544 122.5,-522 9.5,-522"/>
<polygon fill="none" stroke="black" points="9.5,-522 9.5,-544 122.5,-544 122.5,-522 9.5,-522"/>
<text text-anchor="start" x="14.5" y="-531.2" font-family="Helvetica,sans-Serif" font-weight="bold" font-size="11.00">auth_group</text>
<text text-anchor="start" x="83.5" y="-530.2" font-family="Helvetica,sans-Serif" font-size="11.00">[table]</text>
<polygon fill="none" stroke="black" points="9.5,-500 9.5,-522 122.5,-522 122.5,-500 9.5,-500"/>
<image xlink:href="../../images/primaryKeys.png" width="11px" height="12px" preserveAspectRatio="xMinYMin meet" x="14.5" y="-517"/>
<text text-anchor="start" x="41.5" y="-508.2" font-family="Helvetica,sans-Serif" font-size="11.00">id</text>
<polygon fill="#ffffff" stroke="none" points="9.5,-478 9.5,-500 122.5,-500 122.5,-478 9.5,-478"/>
<polygon fill="none" stroke="black" points="9.5,-478 9.5,-500 122.5,-500 122.5,-478 9.5,-478"/>
<text text-anchor="start" x="41.5" y="-486.2" font-family="Helvetica,sans-Serif" font-size="11.00">name</text>
<polygon fill="#ffffff" stroke="none" points="9.5,-460 9.5,-478 36.5,-478 36.5,-460 9.5,-460"/>
<polygon fill="none" stroke="black" points="9.5,-460 9.5,-478 36.5,-478 36.5,-460 9.5,-460"/>
<text text-anchor="start" x="12.5" y="-466.2" font-family="Helvetica,sans-Serif" font-size="11.00"> &#160;</text>
<polygon fill="#ffffff" stroke="none" points="36.5,-460 36.5,-478 92.5,-478 92.5,-460 36.5,-460"/>
<polygon fill="none" stroke="black" points="36.5,-460 36.5,-478 92.5,-478 92.5,-460 36.5,-460"/>
<text text-anchor="start" x="46.5" y="-466.2" font-family="Helvetica,sans-Serif" font-size="11.00">15 rows</text>
<polygon fill="#ffffff" stroke="none" points="92.5,-460 92.5,-478 122.5,-478 122.5,-460 92.5,-460"/>
<polygon fill="none" stroke="black" points="92.5,-460 92.5,-478 122.5,-478 122.5,-460 92.5,-460"/>
<text text-anchor="start" x="102.5" y="-466.2" font-family="Helvetica,sans-Serif" font-size="11.00">3 &gt;</text>
</a>
</g>
</g>
<!-- auth_group_permissions&#45;&gt;auth_group -->
<g id="edge1" class="edge"><title>auth_group_permissions:elipses:w&#45;&gt;auth_group:id:e</title>
<path fill="none" stroke="black" d="M181.579,-511C160.39,-511 150.31,-511 123.5,-511"/>
<polygon fill="black" stroke="black" points="188,-511 196,-514.6 192,-511 196,-511 196,-511 196,-511 192,-511 196,-507.4 188,-511 188,-511"/>
<ellipse fill="none" stroke="black" cx="184.8" cy="-511" rx="3.2" ry="3.2"/>
</g>
<!-- authtoken_token -->
<g id="node3" class="node"><title>authtoken_token</title>
<g id="a_node3"><a xlink:href="../../tables/authtoken_token.html" xlink:title="authtoken_token" target="_top">
<polygon fill="#ffffff" stroke="none" points="217,-195 217,-253 363,-253 363,-195 217,-195"/>
<polygon fill="#f5f5f5" stroke="none" points="217,-231 217,-253 363,-253 363,-231 217,-231"/>
<polygon fill="none" stroke="black" points="217,-231 217,-253 363,-253 363,-231 217,-231"/>
<text text-anchor="start" x="222" y="-240.2" font-family="Helvetica,sans-Serif" font-weight="bold" font-size="11.00">authtoken_token</text>
<text text-anchor="start" x="324" y="-239.2" font-family="Helvetica,sans-Serif" font-size="11.00">[table]</text>
<polygon fill="none" stroke="black" points="217,-213 217,-231 363,-231 363,-213 217,-213"/>
<text text-anchor="start" x="220" y="-219.2" font-family="Helvetica,sans-Serif" font-size="11.00">...</text>
<polygon fill="#ffffff" stroke="none" points="217,-195 217,-213 274,-213 274,-195 217,-195"/>
<polygon fill="none" stroke="black" points="217,-195 217,-213 274,-213 274,-195 217,-195"/>
<text text-anchor="start" x="220" y="-201.2" font-family="Helvetica,sans-Serif" font-size="11.00">&lt; 1</text>
<polygon fill="#ffffff" stroke="none" points="274,-195 274,-213 333,-213 333,-195 274,-195"/>
<polygon fill="none" stroke="black" points="274,-195 274,-213 333,-213 333,-195 274,-195"/>
<text text-anchor="start" x="294" y="-201.2" font-family="Helvetica,sans-Serif" font-size="11.00">4 rows</text>
<polygon fill="#ffffff" stroke="none" points="333,-195 333,-213 363,-213 363,-195 333,-195"/>
<polygon fill="none" stroke="black" points="333,-195 333,-213 363,-213 363,-195 333,-195"/>
<text text-anchor="start" x="353" y="-201.2" font-family="Helvetica,sans-Serif" font-size="11.00"> &#160;</text>
</a>
</g>
</g>
<!-- galaxy_user -->
<g id="node4" class="node"><title>galaxy_user</title>
<g id="a_node4"><a xlink:href="../../tables/galaxy_user.html" xlink:title="galaxy_user" target="_top">
<polygon fill="#ffffff" stroke="none" points="8,-153 8,-255 123,-255 123,-153 8,-153"/>
<polygon fill="#f5f5f5" stroke="none" points="8.5,-233 8.5,-255 123.5,-255 123.5,-233 8.5,-233"/>
<polygon fill="none" stroke="black" points="8.5,-233 8.5,-255 123.5,-255 123.5,-233 8.5,-233"/>
<text text-anchor="start" x="13.5" y="-242.2" font-family="Helvetica,sans-Serif" font-weight="bold" font-size="11.00">galaxy_user</text>
<text text-anchor="start" x="84.5" y="-241.2" font-family="Helvetica,sans-Serif" font-size="11.00">[table]</text>
<polygon fill="none" stroke="black" points="8.5,-211 8.5,-233 123.5,-233 123.5,-211 8.5,-211"/>
<image xlink:href="../../images/primaryKeys.png" width="11px" height="12px" preserveAspectRatio="xMinYMin meet" x="13.5" y="-228"/>
<text text-anchor="start" x="38.5" y="-219.2" font-family="Helvetica,sans-Serif" font-size="11.00">id</text>
<polygon fill="#ffffff" stroke="none" points="8.5,-189 8.5,-211 123.5,-211 123.5,-189 8.5,-189"/>
<polygon fill="none" stroke="black" points="8.5,-189 8.5,-211 123.5,-211 123.5,-189 8.5,-189"/>
<text text-anchor="start" x="38.5" y="-197.2" font-family="Helvetica,sans-Serif" font-size="11.00">username</text>
<polygon fill="none" stroke="black" points="8.5,-171 8.5,-189 123.5,-189 123.5,-171 8.5,-171"/>
<text text-anchor="start" x="11.5" y="-177.2" font-family="Helvetica,sans-Serif" font-size="11.00">...</text>
<polygon fill="#ffffff" stroke="none" points="8.5,-153 8.5,-171 36.5,-171 36.5,-153 8.5,-153"/>
<polygon fill="none" stroke="black" points="8.5,-153 8.5,-171 36.5,-171 36.5,-153 8.5,-153"/>
<text text-anchor="start" x="11.5" y="-159.2" font-family="Helvetica,sans-Serif" font-size="11.00"> &#160;</text>
<polygon fill="#ffffff" stroke="none" points="36.5,-153 36.5,-171 92.5,-171 92.5,-153 36.5,-153"/>
<polygon fill="none" stroke="black" points="36.5,-153 36.5,-171 92.5,-171 92.5,-153 36.5,-153"/>
<text text-anchor="start" x="46.5" y="-159.2" font-family="Helvetica,sans-Serif" font-size="11.00">17 rows</text>
<polygon fill="#ffffff" stroke="none" points="92.5,-153 92.5,-171 123.5,-171 123.5,-153 92.5,-153"/>
<polygon fill="none" stroke="black" points="92.5,-153 92.5,-171 123.5,-171 123.5,-153 92.5,-153"/>
<text text-anchor="start" x="103.5" y="-159.2" font-family="Helvetica,sans-Serif" font-size="11.00">5 &gt;</text>
</a>
</g>
</g>
<!-- authtoken_token&#45;&gt;galaxy_user -->
<g id="edge2" class="edge"><title>authtoken_token:elipses:w&#45;&gt;galaxy_user:id:e</title>
<path fill="none" stroke="black" d="M205.316,-222C173.159,-222 161.354,-222 124.5,-222"/>
<polygon fill="black" stroke="black" points="215.2,-218 215.2,-226 213.6,-226 213.6,-218 215.2,-218"/>
<polyline fill="none" stroke="black" points="216,-222 212,-222 "/>
<ellipse fill="none" stroke="black" cx="208.8" cy="-222" rx="3.2" ry="3.2"/>
</g>
<!-- django_admin_log -->
<g id="node5" class="node"><title>django_admin_log</title>
<g id="a_node5"><a xlink:href="../../tables/django_admin_log.html" xlink:title="django_admin_log" target="_top">
<polygon fill="#ffffff" stroke="none" points="215.5,-116 215.5,-174 364.5,-174 364.5,-116 215.5,-116"/>
<polygon fill="#f5f5f5" stroke="none" points="216,-152 216,-174 365,-174 365,-152 216,-152"/>
<polygon fill="none" stroke="black" points="216,-152 216,-174 365,-174 365,-152 216,-152"/>
<text text-anchor="start" x="221" y="-161.2" font-family="Helvetica,sans-Serif" font-weight="bold" font-size="11.00">django_admin_log</text>
<text text-anchor="start" x="326" y="-160.2" font-family="Helvetica,sans-Serif" font-size="11.00">[table]</text>
<polygon fill="none" stroke="black" points="216,-134 216,-152 365,-152 365,-134 216,-134"/>
<text text-anchor="start" x="219" y="-140.2" font-family="Helvetica,sans-Serif" font-size="11.00">...</text>
<polygon fill="#ffffff" stroke="none" points="216,-116 216,-134 268,-134 268,-116 216,-116"/>
<polygon fill="none" stroke="black" points="216,-116 216,-134 268,-134 268,-116 216,-116"/>
<text text-anchor="start" x="219" y="-122.2" font-family="Helvetica,sans-Serif" font-size="11.00">&lt; 2</text>
<polygon fill="#ffffff" stroke="none" points="268,-116 268,-134 337,-134 337,-116 268,-116"/>
<polygon fill="none" stroke="black" points="268,-116 268,-134 337,-134 337,-116 268,-116"/>
<text text-anchor="start" x="285" y="-122.2" font-family="Helvetica,sans-Serif" font-size="11.00">229 rows</text>
<polygon fill="#ffffff" stroke="none" points="337,-116 337,-134 365,-134 365,-116 337,-116"/>
<polygon fill="none" stroke="black" points="337,-116 337,-134 365,-134 365,-116 337,-116"/>
<text text-anchor="start" x="355" y="-122.2" font-family="Helvetica,sans-Serif" font-size="11.00"> &#160;</text>
</a>
</g>
</g>
<!-- django_admin_log&#45;&gt;galaxy_user -->
<g id="edge3" class="edge"><title>django_admin_log:elipses:w&#45;&gt;galaxy_user:id:e</title>
<path fill="none" stroke="black" d="M200.442,-145.493C184.986,-151.745 181.399,-168.691 164,-184 145.711,-200.092 148.86,-222 124.5,-222"/>
<polygon fill="black" stroke="black" points="207.115,-144.35 215.608,-146.548 211.057,-143.675 215,-143 215,-143 215,-143 211.057,-143.675 214.392,-139.452 207.115,-144.35 207.115,-144.35"/>
<ellipse fill="none" stroke="black" cx="203.961" cy="-144.89" rx="3.2" ry="3.2"/>
</g>
<!-- galaxy_user_groups -->
<g id="node6" class="node"><title>galaxy_user_groups</title>
<g id="a_node6"><a xlink:href="../../tables/galaxy_user_groups.html" xlink:title="galaxy_user_groups" target="_top">
<polygon fill="#ffffff" stroke="none" points="192,-353 192,-463 388,-463 388,-353 192,-353"/>
<polygon fill="#f5f5f5" stroke="none" points="194,-439 194,-461 386,-461 386,-439 194,-439"/>
<polygon fill="none" stroke="black" points="194,-439 194,-461 386,-461 386,-439 194,-439"/>
<text text-anchor="start" x="199" y="-448.2" font-family="Helvetica,sans-Serif" font-weight="bold" font-size="11.00">galaxy_user_groups</text>
<text text-anchor="start" x="347" y="-447.2" font-family="Helvetica,sans-Serif" font-size="11.00">[table]</text>
<polygon fill="none" stroke="black" points="194,-417 194,-439 331,-439 331,-417 194,-417"/>
<image xlink:href="../../images/primaryKeys.png" width="11px" height="12px" preserveAspectRatio="xMinYMin meet" x="199" y="-434"/>
<text text-anchor="start" x="214" y="-425.2" font-family="Helvetica,sans-Serif" font-size="11.00">id</text>
<polygon fill="none" stroke="black" points="331,-417 331,-439 386,-439 386,-417 331,-417"/>
<text text-anchor="start" x="334" y="-425.2" font-family="Helvetica,sans-Serif" font-size="11.00">serial[10]</text>
<polygon fill="#ffffff" stroke="none" points="194,-395 194,-417 331,-417 331,-395 194,-395"/>
<polygon fill="none" stroke="black" points="194,-395 194,-417 331,-417 331,-395 194,-395"/>
<image xlink:href="../../images/foreignKeys.png" width="11px" height="12px" preserveAspectRatio="xMinYMin meet" x="199" y="-412"/>
<text text-anchor="start" x="214" y="-403.2" font-family="Helvetica,sans-Serif" font-size="11.00">user_id</text>
<polygon fill="none" stroke="black" points="331,-395 331,-417 386,-417 386,-395 331,-395"/>
<text text-anchor="start" x="334" y="-403.2" font-family="Helvetica,sans-Serif" font-size="11.00">int4[10]</text>
<polygon fill="#ffffff" stroke="none" points="194,-373 194,-395 331,-395 331,-373 194,-373"/>
<polygon fill="none" stroke="black" points="194,-373 194,-395 331,-395 331,-373 194,-373"/>
<image xlink:href="../../images/foreignKeys.png" width="11px" height="12px" preserveAspectRatio="xMinYMin meet" x="199" y="-390"/>
<text text-anchor="start" x="214" y="-381.2" font-family="Helvetica,sans-Serif" font-size="11.00">group_id</text>
<polygon fill="none" stroke="black" points="331,-373 331,-395 386,-395 386,-373 331,-373"/>
<text text-anchor="start" x="334" y="-381.2" font-family="Helvetica,sans-Serif" font-size="11.00">int4[10]</text>
<polygon fill="#ffffff" stroke="none" points="194,-355 194,-373 249,-373 249,-355 194,-355"/>
<polygon fill="none" stroke="black" points="194,-355 194,-373 249,-373 249,-355 194,-355"/>
<text text-anchor="start" x="197" y="-361.2" font-family="Helvetica,sans-Serif" font-size="11.00">&lt; 2</text>
<polygon fill="#ffffff" stroke="none" points="249,-355 249,-373 331,-373 331,-355 249,-355"/>
<polygon fill="none" stroke="black" points="249,-355 249,-373 331,-373 331,-355 249,-355"/>
<text text-anchor="start" x="285" y="-361.2" font-family="Helvetica,sans-Serif" font-size="11.00">18 rows</text>
<polygon fill="#ffffff" stroke="none" points="331,-355 331,-373 386,-373 386,-355 331,-355"/>
<polygon fill="none" stroke="black" points="331,-355 331,-373 386,-373 386,-355 331,-355"/>
<text text-anchor="start" x="366" y="-361.2" font-family="Helvetica,sans-Serif" font-size="11.00">0 &gt;</text>
<polygon fill="none" stroke="black" stroke-width="2" points="193,-354 193,-462 387,-462 387,-354 193,-354"/>
</a>
</g>
</g>
<!-- galaxy_user_groups&#45;&gt;auth_group -->
<g id="edge4" class="edge"><title>galaxy_user_groups:group_id:w&#45;&gt;auth_group:id:e</title>
<path fill="none" stroke="black" d="M178.729,-386.771C138.106,-405.343 182.188,-511 123.5,-511"/>
<polygon fill="black" stroke="black" points="185.147,-385.525 193.686,-387.534 189.073,-384.762 193,-384 193,-384 193,-384 189.073,-384.762 192.314,-380.466 185.147,-385.525 185.147,-385.525"/>
<ellipse fill="none" stroke="black" cx="182.005" cy="-386.135" rx="3.2" ry="3.2"/>
</g>
<!-- galaxy_user_groups&#45;&gt;galaxy_user -->
<g id="edge5" class="edge"><title>galaxy_user_groups:user_id:w&#45;&gt;galaxy_user:id:e</title>
<path fill="none" stroke="black" d="M178.433,-403.805C118.603,-383.046 206.137,-222 124.5,-222"/>
<polygon fill="black" stroke="black" points="185.089,-404.808 192.464,-409.56 189.045,-405.404 193,-406 193,-406 193,-406 189.045,-405.404 193.536,-402.44 185.089,-404.808 185.089,-404.808"/>
<ellipse fill="none" stroke="black" cx="181.925" cy="-404.331" rx="3.2" ry="3.2"/>
</g>
<!-- galaxy_user_user_permissions -->
<g id="node7" class="node"><title>galaxy_user_user_permissions</title>
<g id="a_node7"><a xlink:href="../../tables/galaxy_user_user_permissions.html" xlink:title="galaxy_user_user_permissions" target="_top">
<polygon fill="#ffffff" stroke="none" points="181.5,-37 181.5,-95 398.5,-95 398.5,-37 181.5,-37"/>
<polygon fill="#f5f5f5" stroke="none" points="182,-73 182,-95 399,-95 399,-73 182,-73"/>
<polygon fill="none" stroke="black" points="182,-73 182,-95 399,-95 399,-73 182,-73"/>
<text text-anchor="start" x="187" y="-82.2" font-family="Helvetica,sans-Serif" font-weight="bold" font-size="11.00">galaxy_user_user_permissions</text>
<text text-anchor="start" x="360" y="-81.2" font-family="Helvetica,sans-Serif" font-size="11.00">[table]</text>
<polygon fill="none" stroke="black" points="182,-55 182,-73 399,-73 399,-55 182,-55"/>
<text text-anchor="start" x="185" y="-61.2" font-family="Helvetica,sans-Serif" font-size="11.00">...</text>
<polygon fill="#ffffff" stroke="none" points="182,-37 182,-55 274,-55 274,-37 182,-37"/>
<polygon fill="none" stroke="black" points="182,-37 182,-55 274,-55 274,-37 182,-37"/>
<text text-anchor="start" x="185" y="-43.2" font-family="Helvetica,sans-Serif" font-size="11.00">&lt; 2</text>
<polygon fill="#ffffff" stroke="none" points="274,-37 274,-55 351,-55 351,-37 274,-37"/>
<polygon fill="none" stroke="black" points="274,-37 274,-55 351,-55 351,-37 274,-37"/>
<text text-anchor="start" x="312" y="-43.2" font-family="Helvetica,sans-Serif" font-size="11.00">0 rows</text>
<polygon fill="#ffffff" stroke="none" points="351,-37 351,-55 399,-55 399,-37 351,-37"/>
<polygon fill="none" stroke="black" points="351,-37 351,-55 399,-55 399,-37 351,-37"/>
<text text-anchor="start" x="389" y="-43.2" font-family="Helvetica,sans-Serif" font-size="11.00"> &#160;</text>
</a>
</g>
</g>
<!-- galaxy_user_user_permissions&#45;&gt;galaxy_user -->
<g id="edge6" class="edge"><title>galaxy_user_user_permissions:elipses:w&#45;&gt;galaxy_user:id:e</title>
<path fill="none" stroke="black" d="M166.721,-66.6106C119.568,-87.1536 193.396,-222 124.5,-222"/>
<polygon fill="black" stroke="black" points="173.13,-65.4388 181.647,-67.5413 177.065,-64.7194 181,-64 181,-64 181,-64 177.065,-64.7194 180.353,-60.4587 173.13,-65.4388 173.13,-65.4388"/>
<ellipse fill="none" stroke="black" cx="169.983" cy="-66.0143" rx="3.2" ry="3.2"/>
</g>
<!-- guardian_groupobjectpermission -->
<g id="node8" class="node"><title>guardian_groupobjectpermission</title>
<g id="a_node8"><a xlink:href="../../tables/guardian_groupobjectpermission.html" xlink:title="guardian_groupobjectpermission" target="_top">
<polygon fill="#ffffff" stroke="none" points="172,-563 172,-621 408,-621 408,-563 172,-563"/>
<polygon fill="#f5f5f5" stroke="none" points="172,-599 172,-621 408,-621 408,-599 172,-599"/>
<polygon fill="none" stroke="black" points="172,-599 172,-621 408,-621 408,-599 172,-599"/>
<text text-anchor="start" x="177" y="-608.2" font-family="Helvetica,sans-Serif" font-weight="bold" font-size="11.00">guardian_groupobjectpermission</text>
<text text-anchor="start" x="369" y="-607.2" font-family="Helvetica,sans-Serif" font-size="11.00">[table]</text>
<polygon fill="none" stroke="black" points="172,-581 172,-599 408,-599 408,-581 172,-581"/>
<text text-anchor="start" x="175" y="-587.2" font-family="Helvetica,sans-Serif" font-size="11.00">...</text>
<polygon fill="#ffffff" stroke="none" points="172,-563 172,-581 267,-581 267,-563 172,-563"/>
<polygon fill="none" stroke="black" points="172,-563 172,-581 267,-581 267,-563 172,-563"/>
<text text-anchor="start" x="175" y="-569.2" font-family="Helvetica,sans-Serif" font-size="11.00">&lt; 3</text>
<polygon fill="#ffffff" stroke="none" points="267,-563 267,-581 358,-581 358,-563 267,-563"/>
<polygon fill="none" stroke="black" points="267,-563 267,-581 358,-581 358,-563 267,-563"/>
<text text-anchor="start" x="306" y="-569.2" font-family="Helvetica,sans-Serif" font-size="11.00">168 rows</text>
<polygon fill="#ffffff" stroke="none" points="358,-563 358,-581 408,-581 408,-563 358,-563"/>
<polygon fill="none" stroke="black" points="358,-563 358,-581 408,-581 408,-563 358,-563"/>
<text text-anchor="start" x="398" y="-569.2" font-family="Helvetica,sans-Serif" font-size="11.00"> &#160;</text>
</a>
</g>
</g>
<!-- guardian_groupobjectpermission&#45;&gt;auth_group -->
<g id="edge7" class="edge"><title>guardian_groupobjectpermission:elipses:w&#45;&gt;auth_group:id:e</title>
<path fill="none" stroke="black" d="M157.247,-585.295C138.593,-568.288 158.388,-511 123.5,-511"/>
<polygon fill="black" stroke="black" points="163.431,-587.41 169.835,-593.406 167.215,-588.705 171,-590 171,-590 171,-590 167.215,-588.705 172.165,-586.594 163.431,-587.41 163.431,-587.41"/>
<ellipse fill="none" stroke="black" cx="160.403" cy="-586.374" rx="3.20001" ry="3.20001"/>
</g>
<!-- guardian_userobjectpermission -->
<g id="node9" class="node"><title>guardian_userobjectpermission</title>
<g id="a_node9"><a xlink:href="../../tables/guardian_userobjectpermission.html" xlink:title="guardian_userobjectpermission" target="_top">
<polygon fill="#ffffff" stroke="none" points="176,-274 176,-332 404,-332 404,-274 176,-274"/>
<polygon fill="#f5f5f5" stroke="none" points="176,-310 176,-332 404,-332 404,-310 176,-310"/>
<polygon fill="none" stroke="black" points="176,-310 176,-332 404,-332 404,-310 176,-310"/>
<text text-anchor="start" x="181" y="-319.2" font-family="Helvetica,sans-Serif" font-weight="bold" font-size="11.00">guardian_userobjectpermission</text>
<text text-anchor="start" x="365" y="-318.2" font-family="Helvetica,sans-Serif" font-size="11.00">[table]</text>
<polygon fill="none" stroke="black" points="176,-292 176,-310 404,-310 404,-292 176,-292"/>
<text text-anchor="start" x="179" y="-298.2" font-family="Helvetica,sans-Serif" font-size="11.00">...</text>
<polygon fill="#ffffff" stroke="none" points="176,-274 176,-292 274,-292 274,-274 176,-274"/>
<polygon fill="none" stroke="black" points="176,-274 176,-292 274,-292 274,-274 176,-274"/>
<text text-anchor="start" x="179" y="-280.2" font-family="Helvetica,sans-Serif" font-size="11.00">&lt; 3</text>
<polygon fill="#ffffff" stroke="none" points="274,-274 274,-292 353,-292 353,-274 274,-274"/>
<polygon fill="none" stroke="black" points="274,-274 274,-292 353,-292 353,-274 274,-274"/>
<text text-anchor="start" x="314" y="-280.2" font-family="Helvetica,sans-Serif" font-size="11.00">0 rows</text>
<polygon fill="#ffffff" stroke="none" points="353,-274 353,-292 404,-292 404,-274 353,-274"/>
<polygon fill="none" stroke="black" points="353,-274 353,-292 404,-292 404,-274 353,-274"/>
<text text-anchor="start" x="394" y="-280.2" font-family="Helvetica,sans-Serif" font-size="11.00"> &#160;</text>
</a>
</g>
</g>
<!-- guardian_userobjectpermission&#45;&gt;galaxy_user -->
<g id="edge8" class="edge"><title>guardian_userobjectpermission:elipses:w&#45;&gt;galaxy_user:id:e</title>
<path fill="none" stroke="black" d="M161.151,-296.526C141.265,-279.814 160.149,-222 124.5,-222"/>
<polygon fill="black" stroke="black" points="167.387,-298.541 173.893,-304.426 171.194,-299.77 175,-301 175,-301 175,-301 171.194,-299.77 176.107,-297.574 167.387,-298.541 167.387,-298.541"/>
<ellipse fill="none" stroke="black" cx="164.342" cy="-297.557" rx="3.20001" ry="3.20001"/>
</g>
</g>
</svg>
