<?xml version="1.0" encoding="UTF-8" standalone="no"?>
<!DOCTYPE svg PUBLIC "-//W3C//DTD SVG 1.1//EN"
 "http://www.w3.org/Graphics/SVG/1.1/DTD/svg11.dtd">
<!-- Generated by graphviz version 2.38.0 (20140413.2041)
 -->
<!-- Title: oneDegreeRelationshipsDiagram Pages: 1 -->
<svg width="718pt" height="364pt"
 viewBox="0.00 0.00 718.00 364.00" xmlns="http://www.w3.org/2000/svg" xmlns:xlink="http://www.w3.org/1999/xlink">
<g id="graph0" class="graph" transform="scale(1 1) rotate(0) translate(4 360)">
<title>oneDegreeRelationshipsDiagram</title>
<polygon fill="#ffffff" stroke="none" points="-4,4 -4,-360 714,-360 714,4 -4,4"/>
<text text-anchor="middle" x="74.5" y="-7.2" font-family="Helvetica,sans-Serif" font-size="11.00">Generated by SchemaSpy</text>
<!-- auth_permission -->
<g id="node1" class="node"><title>auth_permission</title>
<g id="a_node1"><a xlink:href="../../tables/auth_permission.html" xlink:title="auth_permission" target="_top">
<polygon fill="#ffffff" stroke="none" points="224,-160 224,-284 367,-284 367,-160 224,-160"/>
<polygon fill="#f5f5f5" stroke="none" points="224.5,-262 224.5,-284 367.5,-284 367.5,-262 224.5,-262"/>
<polygon fill="none" stroke="black" points="224.5,-262 224.5,-284 367.5,-284 367.5,-262 224.5,-262"/>
<text text-anchor="start" x="229.5" y="-271.2" font-family="Helvetica,sans-Serif" font-weight="bold" font-size="11.00">auth_permission</text>
<text text-anchor="start" x="328.5" y="-270.2" font-family="Helvetica,sans-Serif" font-size="11.00">[table]</text>
<polygon fill="none" stroke="black" points="224.5,-240 224.5,-262 367.5,-262 367.5,-240 224.5,-240"/>
<image xlink:href="../../images/primaryKeys.png" width="11px" height="12px" preserveAspectRatio="xMinYMin meet" x="229.5" y="-257"/>
<text text-anchor="start" x="256.5" y="-248.2" font-family="Helvetica,sans-Serif" font-size="11.00">id</text>
<polygon fill="#ffffff" stroke="none" points="224.5,-218 224.5,-240 367.5,-240 367.5,-218 224.5,-218"/>
<polygon fill="none" stroke="black" points="224.5,-218 224.5,-240 367.5,-240 367.5,-218 224.5,-218"/>
<image xlink:href="../../images/foreignKeys.png" width="11px" height="12px" preserveAspectRatio="xMinYMin meet" x="229.5" y="-235"/>
<text text-anchor="start" x="256.5" y="-226.2" font-family="Helvetica,sans-Serif" font-size="11.00">content_type_id</text>
<polygon fill="#ffffff" stroke="none" points="224.5,-196 224.5,-218 367.5,-218 367.5,-196 224.5,-196"/>
<polygon fill="none" stroke="black" points="224.5,-196 224.5,-218 367.5,-218 367.5,-196 224.5,-196"/>
<text text-anchor="start" x="256.5" y="-204.2" font-family="Helvetica,sans-Serif" font-size="11.00">codename</text>
<polygon fill="none" stroke="black" points="224.5,-178 224.5,-196 367.5,-196 367.5,-178 224.5,-178"/>
<text text-anchor="start" x="227.5" y="-184.2" font-family="Helvetica,sans-Serif" font-size="11.00">...</text>
<polygon fill="#ffffff" stroke="none" points="224.5,-160 224.5,-178 268.5,-178 268.5,-160 224.5,-160"/>
<polygon fill="none" stroke="black" points="224.5,-160 224.5,-178 268.5,-178 268.5,-160 224.5,-160"/>
<text text-anchor="start" x="227.5" y="-166.2" font-family="Helvetica,sans-Serif" font-size="11.00">&lt; 1</text>
<polygon fill="#ffffff" stroke="none" points="268.5,-160 268.5,-178 333.5,-178 333.5,-160 268.5,-160"/>
<polygon fill="none" stroke="black" points="268.5,-160 268.5,-178 333.5,-178 333.5,-160 268.5,-160"/>
<text text-anchor="start" x="281.5" y="-166.2" font-family="Helvetica,sans-Serif" font-size="11.00">322 rows</text>
<polygon fill="#ffffff" stroke="none" points="333.5,-160 333.5,-178 367.5,-178 367.5,-160 333.5,-160"/>
<polygon fill="none" stroke="black" points="333.5,-160 333.5,-178 367.5,-178 367.5,-160 333.5,-160"/>
<text text-anchor="start" x="347.5" y="-166.2" font-family="Helvetica,sans-Serif" font-size="11.00">4 &gt;</text>
</a>
</g>
</g>
<!-- django_content_type -->
<g id="node2" class="node"><title>django_content_type</title>
<g id="a_node2"><a xlink:href="../../tables/django_content_type.html" xlink:title="django_content_type" target="_top">
<polygon fill="#ffffff" stroke="none" points="8,-195 8,-301 175,-301 175,-195 8,-195"/>
<polygon fill="#f5f5f5" stroke="none" points="8.5,-279 8.5,-301 175.5,-301 175.5,-279 8.5,-279"/>
<polygon fill="none" stroke="black" points="8.5,-279 8.5,-301 175.5,-301 175.5,-279 8.5,-279"/>
<text text-anchor="start" x="13.5" y="-288.2" font-family="Helvetica,sans-Serif" font-weight="bold" font-size="11.00">django_content_type</text>
<text text-anchor="start" x="136.5" y="-287.2" font-family="Helvetica,sans-Serif" font-size="11.00">[table]</text>
<polygon fill="none" stroke="black" points="8.5,-257 8.5,-279 175.5,-279 175.5,-257 8.5,-257"/>
<image xlink:href="../../images/primaryKeys.png" width="11px" height="12px" preserveAspectRatio="xMinYMin meet" x="13.5" y="-274"/>
<text text-anchor="start" x="39.5" y="-265.2" font-family="Helvetica,sans-Serif" font-size="11.00">id</text>
<polygon fill="#ffffff" stroke="none" points="8.5,-235 8.5,-257 175.5,-257 175.5,-235 8.5,-235"/>
<polygon fill="none" stroke="black" points="8.5,-235 8.5,-257 175.5,-257 175.5,-235 8.5,-235"/>
<text text-anchor="start" x="39.5" y="-243.2" font-family="Helvetica,sans-Serif" font-size="11.00">app_label</text>
<polygon fill="#ffffff" stroke="none" points="8.5,-213 8.5,-235 175.5,-235 175.5,-213 8.5,-213"/>
<polygon fill="none" stroke="black" points="8.5,-213 8.5,-235 175.5,-235 175.5,-213 8.5,-213"/>
<text text-anchor="start" x="39.5" y="-221.2" font-family="Helvetica,sans-Serif" font-size="11.00">model</text>
<polygon fill="#ffffff" stroke="none" points="8.5,-195 8.5,-213 62.5,-213 62.5,-195 8.5,-195"/>
<polygon fill="none" stroke="black" points="8.5,-195 8.5,-213 62.5,-213 62.5,-195 8.5,-195"/>
<text text-anchor="start" x="11.5" y="-201.2" font-family="Helvetica,sans-Serif" font-size="11.00"> &#160;</text>
<polygon fill="#ffffff" stroke="none" points="62.5,-195 62.5,-213 131.5,-213 131.5,-195 62.5,-195"/>
<polygon fill="none" stroke="black" points="62.5,-195 62.5,-213 131.5,-213 131.5,-195 62.5,-195"/>
<text text-anchor="start" x="85.5" y="-201.2" font-family="Helvetica,sans-Serif" font-size="11.00">79 rows</text>
<polygon fill="#ffffff" stroke="none" points="131.5,-195 131.5,-213 175.5,-213 175.5,-195 131.5,-195"/>
<polygon fill="none" stroke="black" points="131.5,-195 131.5,-213 175.5,-213 175.5,-195 131.5,-195"/>
<text text-anchor="start" x="155.5" y="-201.2" font-family="Helvetica,sans-Serif" font-size="11.00">6 &gt;</text>
</a>
</g>
</g>
<!-- auth_permission&#45;&gt;django_content_type -->
<g id="edge1" class="edge"><title>auth_permission:content_type_id:w&#45;&gt;django_content_type:id:e</title>
<path fill="none" stroke="black" d="M209.909,-233.782C197.897,-244.196 197.706,-268 176.5,-268"/>
<polygon fill="black" stroke="black" points="215.954,-231.655 224.695,-232.396 219.727,-230.328 223.5,-229 223.5,-229 223.5,-229 219.727,-230.328 222.305,-225.604 215.954,-231.655 215.954,-231.655"/>
<ellipse fill="none" stroke="black" cx="212.935" cy="-232.717" rx="3.20001" ry="3.20001"/>
</g>
<!-- guardian_userobjectpermission -->
<g id="node3" class="node"><title>guardian_userobjectpermission</title>
<g id="a_node3"><a xlink:href="../../tables/guardian_userobjectpermission.html" xlink:title="guardian_userobjectpermission" target="_top">
<polygon fill="#ffffff" stroke="none" points="416,-198 416,-352 702,-352 702,-198 416,-198"/>
<polygon fill="#f5f5f5" stroke="none" points="418,-328 418,-350 700,-350 700,-328 418,-328"/>
<polygon fill="none" stroke="black" points="418,-328 418,-350 700,-350 700,-328 418,-328"/>
<text text-anchor="start" x="423" y="-337.2" font-family="Helvetica,sans-Serif" font-weight="bold" font-size="11.00">guardian_userobjectpermission</text>
<text text-anchor="start" x="661" y="-336.2" font-family="Helvetica,sans-Serif" font-size="11.00">[table]</text>
<polygon fill="none" stroke="black" points="418,-306 418,-328 627,-328 627,-306 418,-306"/>
<image xlink:href="../../images/primaryKeys.png" width="11px" height="12px" preserveAspectRatio="xMinYMin meet" x="423" y="-323"/>
<text text-anchor="start" x="438" y="-314.2" font-family="Helvetica,sans-Serif" font-size="11.00">id</text>
<polygon fill="none" stroke="black" points="627,-306 627,-328 700,-328 700,-306 627,-306"/>
<text text-anchor="start" x="630" y="-314.2" font-family="Helvetica,sans-Serif" font-size="11.00">serial[10]</text>
<polygon fill="#ffffff" stroke="none" points="418,-284 418,-306 627,-306 627,-284 418,-284"/>
<polygon fill="none" stroke="black" points="418,-284 418,-306 627,-306 627,-284 418,-284"/>
<text text-anchor="start" x="438" y="-292.2" font-family="Helvetica,sans-Serif" font-size="11.00">object_pk</text>
<polygon fill="none" stroke="black" points="627,-284 627,-306 700,-306 700,-284 627,-284"/>
<text text-anchor="start" x="630" y="-292.2" font-family="Helvetica,sans-Serif" font-size="11.00">varchar[255]</text>
<polygon fill="#ffffff" stroke="none" points="418,-262 418,-284 627,-284 627,-262 418,-262"/>
<polygon fill="none" stroke="black" points="418,-262 418,-284 627,-284 627,-262 418,-262"/>
<image xlink:href="../../images/foreignKeys.png" width="11px" height="12px" preserveAspectRatio="xMinYMin meet" x="423" y="-279"/>
<text text-anchor="start" x="438" y="-270.2" font-family="Helvetica,sans-Serif" font-size="11.00">content_type_id</text>
<polygon fill="none" stroke="black" points="627,-262 627,-284 700,-284 700,-262 627,-262"/>
<text text-anchor="start" x="630" y="-270.2" font-family="Helvetica,sans-Serif" font-size="11.00">int4[10]</text>
<polygon fill="#ffffff" stroke="none" points="418,-240 418,-262 627,-262 627,-240 418,-240"/>
<polygon fill="none" stroke="black" points="418,-240 418,-262 627,-262 627,-240 418,-240"/>
<image xlink:href="../../images/foreignKeys.png" width="11px" height="12px" preserveAspectRatio="xMinYMin meet" x="423" y="-257"/>
<text text-anchor="start" x="438" y="-248.2" font-family="Helvetica,sans-Serif" font-size="11.00">permission_id</text>
<polygon fill="none" stroke="black" points="627,-240 627,-262 700,-262 700,-240 627,-240"/>
<text text-anchor="start" x="630" y="-248.2" font-family="Helvetica,sans-Serif" font-size="11.00">int4[10]</text>
<polygon fill="#ffffff" stroke="none" points="418,-218 418,-240 627,-240 627,-218 418,-218"/>
<polygon fill="none" stroke="black" points="418,-218 418,-240 627,-240 627,-218 418,-218"/>
<image xlink:href="../../images/foreignKeys.png" width="11px" height="12px" preserveAspectRatio="xMinYMin meet" x="423" y="-235"/>
<text text-anchor="start" x="438" y="-226.2" font-family="Helvetica,sans-Serif" font-size="11.00">user_id</text>
<polygon fill="none" stroke="black" points="627,-218 627,-240 700,-240 700,-218 627,-218"/>
<text text-anchor="start" x="630" y="-226.2" font-family="Helvetica,sans-Serif" font-size="11.00">int4[10]</text>
<polygon fill="#ffffff" stroke="none" points="418,-200 418,-218 513,-218 513,-200 418,-200"/>
<polygon fill="none" stroke="black" points="418,-200 418,-218 513,-218 513,-200 418,-200"/>
<text text-anchor="start" x="421" y="-206.2" font-family="Helvetica,sans-Serif" font-size="11.00">&lt; 3</text>
<polygon fill="#ffffff" stroke="none" points="513,-200 513,-218 627,-218 627,-200 513,-200"/>
<polygon fill="none" stroke="black" points="513,-200 513,-218 627,-218 627,-200 513,-200"/>
<text text-anchor="start" x="588" y="-206.2" font-family="Helvetica,sans-Serif" font-size="11.00">0 rows</text>
<polygon fill="#ffffff" stroke="none" points="627,-200 627,-218 700,-218 700,-200 627,-200"/>
<polygon fill="none" stroke="black" points="627,-200 627,-218 700,-218 700,-200 627,-200"/>
<text text-anchor="start" x="680" y="-206.2" font-family="Helvetica,sans-Serif" font-size="11.00">0 &gt;</text>
<polygon fill="none" stroke="black" stroke-width="2" points="417,-199 417,-351 701,-351 701,-199 417,-199"/>
</a>
</g>
</g>
<!-- guardian_userobjectpermission&#45;&gt;auth_permission -->
<g id="edge3" class="edge"><title>guardian_userobjectpermission:permission_id:w&#45;&gt;auth_permission:id:e</title>
<path fill="none" stroke="black" d="M402.283,-251C391.289,-251 384.161,-251 368.5,-251"/>
<polygon fill="black" stroke="black" points="409,-251 417,-254.6 413,-251 417,-251 417,-251 417,-251 413,-251 417,-247.4 409,-251 409,-251"/>
<ellipse fill="none" stroke="black" cx="405.8" cy="-251" rx="3.2" ry="3.2"/>
</g>
<!-- guardian_userobjectpermission&#45;&gt;django_content_type -->
<g id="edge2" class="edge"><title>guardian_userobjectpermission:content_type_id:w&#45;&gt;django_content_type:id:e</title>
<path fill="none" stroke="black" d="M402.911,-276.555C393.988,-281.811 389.547,-291.421 375,-295 306.38,-311.884 283.515,-315.87 216,-295 195.684,-288.72 197.765,-268 176.5,-268"/>
<polygon fill="black" stroke="black" points="409.243,-274.957 417.881,-276.491 413.122,-273.979 417,-273 417,-273 417,-273 413.122,-273.979 416.119,-269.509 409.243,-274.957 409.243,-274.957"/>
<ellipse fill="none" stroke="black" cx="406.14" cy="-275.74" rx="3.2" ry="3.2"/>
</g>
<!-- galaxy_user -->
<g id="node4" class="node"><title>galaxy_user</title>
<g id="a_node4"><a xlink:href="../../tables/galaxy_user.html" xlink:title="galaxy_user" target="_top">
<polygon fill="#ffffff" stroke="none" points="238,-37 238,-139 353,-139 353,-37 238,-37"/>
<polygon fill="#f5f5f5" stroke="none" points="238.5,-117 238.5,-139 353.5,-139 353.5,-117 238.5,-117"/>
<polygon fill="none" stroke="black" points="238.5,-117 238.5,-139 353.5,-139 353.5,-117 238.5,-117"/>
<text text-anchor="start" x="243.5" y="-126.2" font-family="Helvetica,sans-Serif" font-weight="bold" font-size="11.00">galaxy_user</text>
<text text-anchor="start" x="314.5" y="-125.2" font-family="Helvetica,sans-Serif" font-size="11.00">[table]</text>
<polygon fill="none" stroke="black" points="238.5,-95 238.5,-117 353.5,-117 353.5,-95 238.5,-95"/>
<image xlink:href="../../images/primaryKeys.png" width="11px" height="12px" preserveAspectRatio="xMinYMin meet" x="243.5" y="-112"/>
<text text-anchor="start" x="268.5" y="-103.2" font-family="Helvetica,sans-Serif" font-size="11.00">id</text>
<polygon fill="#ffffff" stroke="none" points="238.5,-73 238.5,-95 353.5,-95 353.5,-73 238.5,-73"/>
<polygon fill="none" stroke="black" points="238.5,-73 238.5,-95 353.5,-95 353.5,-73 238.5,-73"/>
<text text-anchor="start" x="268.5" y="-81.2" font-family="Helvetica,sans-Serif" font-size="11.00">username</text>
<polygon fill="none" stroke="black" points="238.5,-55 238.5,-73 353.5,-73 353.5,-55 238.5,-55"/>
<text text-anchor="start" x="241.5" y="-61.2" font-family="Helvetica,sans-Serif" font-size="11.00">...</text>
<polygon fill="#ffffff" stroke="none" points="238.5,-37 238.5,-55 266.5,-55 266.5,-37 238.5,-37"/>
<polygon fill="none" stroke="black" points="238.5,-37 238.5,-55 266.5,-55 266.5,-37 238.5,-37"/>
<text text-anchor="start" x="241.5" y="-43.2" font-family="Helvetica,sans-Serif" font-size="11.00"> &#160;</text>
<polygon fill="#ffffff" stroke="none" points="266.5,-37 266.5,-55 322.5,-55 322.5,-37 266.5,-37"/>
<polygon fill="none" stroke="black" points="266.5,-37 266.5,-55 322.5,-55 322.5,-37 266.5,-37"/>
<text text-anchor="start" x="276.5" y="-43.2" font-family="Helvetica,sans-Serif" font-size="11.00">17 rows</text>
<polygon fill="#ffffff" stroke="none" points="322.5,-37 322.5,-55 353.5,-55 353.5,-37 322.5,-37"/>
<polygon fill="none" stroke="black" points="322.5,-37 322.5,-55 353.5,-55 353.5,-37 322.5,-37"/>
<text text-anchor="start" x="333.5" y="-43.2" font-family="Helvetica,sans-Serif" font-size="11.00">5 &gt;</text>
</a>
</g>
</g>
<!-- guardian_userobjectpermission&#45;&gt;galaxy_user -->
<g id="edge4" class="edge"><title>guardian_userobjectpermission:user_id:w&#45;&gt;galaxy_user:id:e</title>
<path fill="none" stroke="black" d="M402.756,-225.96C365.889,-207.019 410.071,-106 354.5,-106"/>
<polygon fill="black" stroke="black" points="409.176,-227.33 416.248,-232.521 413.088,-228.165 417,-229 417,-229 417,-229 413.088,-228.165 417.752,-225.479 409.176,-227.33 409.176,-227.33"/>
<ellipse fill="none" stroke="black" cx="406.047" cy="-226.662" rx="3.2" ry="3.2"/>
</g>
</g>
</svg>
