<?xml version="1.0" encoding="UTF-8" standalone="no"?>
<!DOCTYPE svg PUBLIC "-//W3C//DTD SVG 1.1//EN"
 "http://www.w3.org/Graphics/SVG/1.1/DTD/svg11.dtd">
<!-- Generated by graphviz version 2.38.0 (20140413.2041)
 -->
<!-- Title: oneDegreeRelationshipsDiagram Pages: 1 -->
<svg width="727pt" height="346pt"
 viewBox="0.00 0.00 727.00 346.00" xmlns="http://www.w3.org/2000/svg" xmlns:xlink="http://www.w3.org/1999/xlink">
<g id="graph0" class="graph" transform="scale(1 1) rotate(0) translate(4 342)">
<title>oneDegreeRelationshipsDiagram</title>
<polygon fill="#ffffff" stroke="none" points="-4,4 -4,-342 723,-342 723,4 -4,4"/>
<text text-anchor="middle" x="74.5" y="-7.2" font-family="Helvetica,sans-Serif" font-size="11.00">Generated by SchemaSpy</text>
<!-- auth_permission -->
<g id="node1" class="node"><title>auth_permission</title>
<g id="a_node1"><a xlink:href="../../tables/auth_permission.html" xlink:title="auth_permission" target="_top">
<polygon fill="#ffffff" stroke="none" points="224,-37 224,-161 367,-161 367,-37 224,-37"/>
<polygon fill="#f5f5f5" stroke="none" points="224.5,-139 224.5,-161 367.5,-161 367.5,-139 224.5,-139"/>
<polygon fill="none" stroke="black" points="224.5,-139 224.5,-161 367.5,-161 367.5,-139 224.5,-139"/>
<text text-anchor="start" x="229.5" y="-148.2" font-family="Helvetica,sans-Serif" font-weight="bold" font-size="11.00">auth_permission</text>
<text text-anchor="start" x="328.5" y="-147.2" font-family="Helvetica,sans-Serif" font-size="11.00">[table]</text>
<polygon fill="none" stroke="black" points="224.5,-117 224.5,-139 367.5,-139 367.5,-117 224.5,-117"/>
<image xlink:href="../../images/primaryKeys.png" width="11px" height="12px" preserveAspectRatio="xMinYMin meet" x="229.5" y="-134"/>
<text text-anchor="start" x="256.5" y="-125.2" font-family="Helvetica,sans-Serif" font-size="11.00">id</text>
<polygon fill="#ffffff" stroke="none" points="224.5,-95 224.5,-117 367.5,-117 367.5,-95 224.5,-95"/>
<polygon fill="none" stroke="black" points="224.5,-95 224.5,-117 367.5,-117 367.5,-95 224.5,-95"/>
<image xlink:href="../../images/foreignKeys.png" width="11px" height="12px" preserveAspectRatio="xMinYMin meet" x="229.5" y="-112"/>
<text text-anchor="start" x="256.5" y="-103.2" font-family="Helvetica,sans-Serif" font-size="11.00">content_type_id</text>
<polygon fill="#ffffff" stroke="none" points="224.5,-73 224.5,-95 367.5,-95 367.5,-73 224.5,-73"/>
<polygon fill="none" stroke="black" points="224.5,-73 224.5,-95 367.5,-95 367.5,-73 224.5,-73"/>
<text text-anchor="start" x="256.5" y="-81.2" font-family="Helvetica,sans-Serif" font-size="11.00">codename</text>
<polygon fill="none" stroke="black" points="224.5,-55 224.5,-73 367.5,-73 367.5,-55 224.5,-55"/>
<text text-anchor="start" x="227.5" y="-61.2" font-family="Helvetica,sans-Serif" font-size="11.00">...</text>
<polygon fill="#ffffff" stroke="none" points="224.5,-37 224.5,-55 268.5,-55 268.5,-37 224.5,-37"/>
<polygon fill="none" stroke="black" points="224.5,-37 224.5,-55 268.5,-55 268.5,-37 224.5,-37"/>
<text text-anchor="start" x="227.5" y="-43.2" font-family="Helvetica,sans-Serif" font-size="11.00">&lt; 1</text>
<polygon fill="#ffffff" stroke="none" points="268.5,-37 268.5,-55 333.5,-55 333.5,-37 268.5,-37"/>
<polygon fill="none" stroke="black" points="268.5,-37 268.5,-55 333.5,-55 333.5,-37 268.5,-37"/>
<text text-anchor="start" x="281.5" y="-43.2" font-family="Helvetica,sans-Serif" font-size="11.00">322 rows</text>
<polygon fill="#ffffff" stroke="none" points="333.5,-37 333.5,-55 367.5,-55 367.5,-37 333.5,-37"/>
<polygon fill="none" stroke="black" points="333.5,-37 333.5,-55 367.5,-55 367.5,-37 333.5,-37"/>
<text text-anchor="start" x="347.5" y="-43.2" font-family="Helvetica,sans-Serif" font-size="11.00">4 &gt;</text>
</a>
</g>
</g>
<!-- django_content_type -->
<g id="node2" class="node"><title>django_content_type</title>
<g id="a_node2"><a xlink:href="../../tables/django_content_type.html" xlink:title="django_content_type" target="_top">
<polygon fill="#ffffff" stroke="none" points="8,-125 8,-231 175,-231 175,-125 8,-125"/>
<polygon fill="#f5f5f5" stroke="none" points="8.5,-209 8.5,-231 175.5,-231 175.5,-209 8.5,-209"/>
<polygon fill="none" stroke="black" points="8.5,-209 8.5,-231 175.5,-231 175.5,-209 8.5,-209"/>
<text text-anchor="start" x="13.5" y="-218.2" font-family="Helvetica,sans-Serif" font-weight="bold" font-size="11.00">django_content_type</text>
<text text-anchor="start" x="136.5" y="-217.2" font-family="Helvetica,sans-Serif" font-size="11.00">[table]</text>
<polygon fill="none" stroke="black" points="8.5,-187 8.5,-209 175.5,-209 175.5,-187 8.5,-187"/>
<image xlink:href="../../images/primaryKeys.png" width="11px" height="12px" preserveAspectRatio="xMinYMin meet" x="13.5" y="-204"/>
<text text-anchor="start" x="39.5" y="-195.2" font-family="Helvetica,sans-Serif" font-size="11.00">id</text>
<polygon fill="#ffffff" stroke="none" points="8.5,-165 8.5,-187 175.5,-187 175.5,-165 8.5,-165"/>
<polygon fill="none" stroke="black" points="8.5,-165 8.5,-187 175.5,-187 175.5,-165 8.5,-165"/>
<text text-anchor="start" x="39.5" y="-173.2" font-family="Helvetica,sans-Serif" font-size="11.00">app_label</text>
<polygon fill="#ffffff" stroke="none" points="8.5,-143 8.5,-165 175.5,-165 175.5,-143 8.5,-143"/>
<polygon fill="none" stroke="black" points="8.5,-143 8.5,-165 175.5,-165 175.5,-143 8.5,-143"/>
<text text-anchor="start" x="39.5" y="-151.2" font-family="Helvetica,sans-Serif" font-size="11.00">model</text>
<polygon fill="#ffffff" stroke="none" points="8.5,-125 8.5,-143 62.5,-143 62.5,-125 8.5,-125"/>
<polygon fill="none" stroke="black" points="8.5,-125 8.5,-143 62.5,-143 62.5,-125 8.5,-125"/>
<text text-anchor="start" x="11.5" y="-131.2" font-family="Helvetica,sans-Serif" font-size="11.00"> &#160;</text>
<polygon fill="#ffffff" stroke="none" points="62.5,-125 62.5,-143 131.5,-143 131.5,-125 62.5,-125"/>
<polygon fill="none" stroke="black" points="62.5,-125 62.5,-143 131.5,-143 131.5,-125 62.5,-125"/>
<text text-anchor="start" x="85.5" y="-131.2" font-family="Helvetica,sans-Serif" font-size="11.00">79 rows</text>
<polygon fill="#ffffff" stroke="none" points="131.5,-125 131.5,-143 175.5,-143 175.5,-125 131.5,-125"/>
<polygon fill="none" stroke="black" points="131.5,-125 131.5,-143 175.5,-143 175.5,-125 131.5,-125"/>
<text text-anchor="start" x="155.5" y="-131.2" font-family="Helvetica,sans-Serif" font-size="11.00">6 &gt;</text>
</a>
</g>
</g>
<!-- auth_permission&#45;&gt;django_content_type -->
<g id="edge1" class="edge"><title>auth_permission:content_type_id:w&#45;&gt;django_content_type:id:e</title>
<path fill="none" stroke="black" d="M209.582,-110.437C187.892,-128.815 216.317,-198 176.5,-198"/>
<polygon fill="black" stroke="black" points="215.878,-108.43 224.594,-109.43 219.689,-107.215 223.5,-106 223.5,-106 223.5,-106 219.689,-107.215 222.406,-102.57 215.878,-108.43 215.878,-108.43"/>
<ellipse fill="none" stroke="black" cx="212.829" cy="-109.402" rx="3.20001" ry="3.20001"/>
</g>
<!-- guardian_groupobjectpermission -->
<g id="node3" class="node"><title>guardian_groupobjectpermission</title>
<g id="a_node3"><a xlink:href="../../tables/guardian_groupobjectpermission.html" xlink:title="guardian_groupobjectpermission" target="_top">
<polygon fill="#ffffff" stroke="none" points="416,-180 416,-334 711,-334 711,-180 416,-180"/>
<polygon fill="#f5f5f5" stroke="none" points="418.5,-310 418.5,-332 709.5,-332 709.5,-310 418.5,-310"/>
<polygon fill="none" stroke="black" points="418.5,-310 418.5,-332 709.5,-332 709.5,-310 418.5,-310"/>
<text text-anchor="start" x="423.5" y="-319.2" font-family="Helvetica,sans-Serif" font-weight="bold" font-size="11.00">guardian_groupobjectpermission</text>
<text text-anchor="start" x="670.5" y="-318.2" font-family="Helvetica,sans-Serif" font-size="11.00">[table]</text>
<polygon fill="none" stroke="black" points="418.5,-288 418.5,-310 636.5,-310 636.5,-288 418.5,-288"/>
<image xlink:href="../../images/primaryKeys.png" width="11px" height="12px" preserveAspectRatio="xMinYMin meet" x="423.5" y="-305"/>
<text text-anchor="start" x="438.5" y="-296.2" font-family="Helvetica,sans-Serif" font-size="11.00">id</text>
<polygon fill="none" stroke="black" points="636.5,-288 636.5,-310 709.5,-310 709.5,-288 636.5,-288"/>
<text text-anchor="start" x="639.5" y="-296.2" font-family="Helvetica,sans-Serif" font-size="11.00">serial[10]</text>
<polygon fill="#ffffff" stroke="none" points="418.5,-266 418.5,-288 636.5,-288 636.5,-266 418.5,-266"/>
<polygon fill="none" stroke="black" points="418.5,-266 418.5,-288 636.5,-288 636.5,-266 418.5,-266"/>
<text text-anchor="start" x="438.5" y="-274.2" font-family="Helvetica,sans-Serif" font-size="11.00">object_pk</text>
<polygon fill="none" stroke="black" points="636.5,-266 636.5,-288 709.5,-288 709.5,-266 636.5,-266"/>
<text text-anchor="start" x="639.5" y="-274.2" font-family="Helvetica,sans-Serif" font-size="11.00">varchar[255]</text>
<polygon fill="#ffffff" stroke="none" points="418.5,-244 418.5,-266 636.5,-266 636.5,-244 418.5,-244"/>
<polygon fill="none" stroke="black" points="418.5,-244 418.5,-266 636.5,-266 636.5,-244 418.5,-244"/>
<image xlink:href="../../images/foreignKeys.png" width="11px" height="12px" preserveAspectRatio="xMinYMin meet" x="423.5" y="-261"/>
<text text-anchor="start" x="438.5" y="-252.2" font-family="Helvetica,sans-Serif" font-size="11.00">content_type_id</text>
<polygon fill="none" stroke="black" points="636.5,-244 636.5,-266 709.5,-266 709.5,-244 636.5,-244"/>
<text text-anchor="start" x="639.5" y="-252.2" font-family="Helvetica,sans-Serif" font-size="11.00">int4[10]</text>
<polygon fill="#ffffff" stroke="none" points="418.5,-222 418.5,-244 636.5,-244 636.5,-222 418.5,-222"/>
<polygon fill="none" stroke="black" points="418.5,-222 418.5,-244 636.5,-244 636.5,-222 418.5,-222"/>
<image xlink:href="../../images/foreignKeys.png" width="11px" height="12px" preserveAspectRatio="xMinYMin meet" x="423.5" y="-239"/>
<text text-anchor="start" x="438.5" y="-230.2" font-family="Helvetica,sans-Serif" font-size="11.00">group_id</text>
<polygon fill="none" stroke="black" points="636.5,-222 636.5,-244 709.5,-244 709.5,-222 636.5,-222"/>
<text text-anchor="start" x="639.5" y="-230.2" font-family="Helvetica,sans-Serif" font-size="11.00">int4[10]</text>
<polygon fill="#ffffff" stroke="none" points="418.5,-200 418.5,-222 636.5,-222 636.5,-200 418.5,-200"/>
<polygon fill="none" stroke="black" points="418.5,-200 418.5,-222 636.5,-222 636.5,-200 418.5,-200"/>
<image xlink:href="../../images/foreignKeys.png" width="11px" height="12px" preserveAspectRatio="xMinYMin meet" x="423.5" y="-217"/>
<text text-anchor="start" x="438.5" y="-208.2" font-family="Helvetica,sans-Serif" font-size="11.00">permission_id</text>
<polygon fill="none" stroke="black" points="636.5,-200 636.5,-222 709.5,-222 709.5,-200 636.5,-200"/>
<text text-anchor="start" x="639.5" y="-208.2" font-family="Helvetica,sans-Serif" font-size="11.00">int4[10]</text>
<polygon fill="#ffffff" stroke="none" points="418.5,-182 418.5,-200 511.5,-200 511.5,-182 418.5,-182"/>
<polygon fill="none" stroke="black" points="418.5,-182 418.5,-200 511.5,-200 511.5,-182 418.5,-182"/>
<text text-anchor="start" x="421.5" y="-188.2" font-family="Helvetica,sans-Serif" font-size="11.00">&lt; 3</text>
<polygon fill="#ffffff" stroke="none" points="511.5,-182 511.5,-200 636.5,-200 636.5,-182 511.5,-182"/>
<polygon fill="none" stroke="black" points="511.5,-182 511.5,-200 636.5,-200 636.5,-182 511.5,-182"/>
<text text-anchor="start" x="584.5" y="-188.2" font-family="Helvetica,sans-Serif" font-size="11.00">168 rows</text>
<polygon fill="#ffffff" stroke="none" points="636.5,-182 636.5,-200 709.5,-200 709.5,-182 636.5,-182"/>
<polygon fill="none" stroke="black" points="636.5,-182 636.5,-200 709.5,-200 709.5,-182 636.5,-182"/>
<text text-anchor="start" x="689.5" y="-188.2" font-family="Helvetica,sans-Serif" font-size="11.00">0 &gt;</text>
<polygon fill="none" stroke="black" stroke-width="2" points="417,-181 417,-333 710,-333 710,-181 417,-181"/>
</a>
</g>
</g>
<!-- guardian_groupobjectpermission&#45;&gt;auth_permission -->
<g id="edge4" class="edge"><title>guardian_groupobjectpermission:permission_id:w&#45;&gt;auth_permission:id:e</title>
<path fill="none" stroke="black" d="M403.703,-206.538C383.405,-189.298 405.314,-128 368.5,-128"/>
<polygon fill="black" stroke="black" points="409.888,-208.538 416.392,-214.425 413.694,-209.769 417.5,-211 417.5,-211 417.5,-211 413.694,-209.769 418.608,-207.575 409.888,-208.538 409.888,-208.538"/>
<ellipse fill="none" stroke="black" cx="406.844" cy="-207.553" rx="3.20001" ry="3.20001"/>
</g>
<!-- guardian_groupobjectpermission&#45;&gt;django_content_type -->
<g id="edge2" class="edge"><title>guardian_groupobjectpermission:content_type_id:w&#45;&gt;django_content_type:id:e</title>
<path fill="none" stroke="black" d="M403.26,-258.555C394.224,-263.812 389.692,-273.423 375,-277 306.339,-293.718 276.113,-314.152 216,-277 182.607,-256.362 215.755,-198 176.5,-198"/>
<polygon fill="black" stroke="black" points="409.738,-256.938 418.372,-258.493 413.619,-255.969 417.5,-255 417.5,-255 417.5,-255 413.619,-255.969 416.628,-251.507 409.738,-256.938 409.738,-256.938"/>
<ellipse fill="none" stroke="black" cx="406.634" cy="-257.713" rx="3.2" ry="3.2"/>
</g>
<!-- auth_group -->
<g id="node4" class="node"><title>auth_group</title>
<g id="a_node4"><a xlink:href="../../tables/auth_group.html" xlink:title="auth_group" target="_top">
<polygon fill="#ffffff" stroke="none" points="239,-182 239,-266 352,-266 352,-182 239,-182"/>
<polygon fill="#f5f5f5" stroke="none" points="239.5,-244 239.5,-266 352.5,-266 352.5,-244 239.5,-244"/>
<polygon fill="none" stroke="black" points="239.5,-244 239.5,-266 352.5,-266 352.5,-244 239.5,-244"/>
<text text-anchor="start" x="244.5" y="-253.2" font-family="Helvetica,sans-Serif" font-weight="bold" font-size="11.00">auth_group</text>
<text text-anchor="start" x="313.5" y="-252.2" font-family="Helvetica,sans-Serif" font-size="11.00">[table]</text>
<polygon fill="none" stroke="black" points="239.5,-222 239.5,-244 352.5,-244 352.5,-222 239.5,-222"/>
<image xlink:href="../../images/primaryKeys.png" width="11px" height="12px" preserveAspectRatio="xMinYMin meet" x="244.5" y="-239"/>
<text text-anchor="start" x="271.5" y="-230.2" font-family="Helvetica,sans-Serif" font-size="11.00">id</text>
<polygon fill="#ffffff" stroke="none" points="239.5,-200 239.5,-222 352.5,-222 352.5,-200 239.5,-200"/>
<polygon fill="none" stroke="black" points="239.5,-200 239.5,-222 352.5,-222 352.5,-200 239.5,-200"/>
<text text-anchor="start" x="271.5" y="-208.2" font-family="Helvetica,sans-Serif" font-size="11.00">name</text>
<polygon fill="#ffffff" stroke="none" points="239.5,-182 239.5,-200 266.5,-200 266.5,-182 239.5,-182"/>
<polygon fill="none" stroke="black" points="239.5,-182 239.5,-200 266.5,-200 266.5,-182 239.5,-182"/>
<text text-anchor="start" x="242.5" y="-188.2" font-family="Helvetica,sans-Serif" font-size="11.00"> &#160;</text>
<polygon fill="#ffffff" stroke="none" points="266.5,-182 266.5,-200 322.5,-200 322.5,-182 266.5,-182"/>
<polygon fill="none" stroke="black" points="266.5,-182 266.5,-200 322.5,-200 322.5,-182 266.5,-182"/>
<text text-anchor="start" x="276.5" y="-188.2" font-family="Helvetica,sans-Serif" font-size="11.00">15 rows</text>
<polygon fill="#ffffff" stroke="none" points="322.5,-182 322.5,-200 352.5,-200 352.5,-182 322.5,-182"/>
<polygon fill="none" stroke="black" points="322.5,-182 322.5,-200 352.5,-200 352.5,-182 322.5,-182"/>
<text text-anchor="start" x="332.5" y="-188.2" font-family="Helvetica,sans-Serif" font-size="11.00">3 &gt;</text>
</a>
</g>
</g>
<!-- guardian_groupobjectpermission&#45;&gt;auth_group -->
<g id="edge3" class="edge"><title>guardian_groupobjectpermission:group_id:w&#45;&gt;auth_group:id:e</title>
<path fill="none" stroke="black" d="M402.957,-233C385.464,-233 376.389,-233 353.5,-233"/>
<polygon fill="black" stroke="black" points="409.5,-233 417.5,-236.6 413.5,-233 417.5,-233 417.5,-233 417.5,-233 413.5,-233 417.5,-229.4 409.5,-233 409.5,-233"/>
<ellipse fill="none" stroke="black" cx="406.3" cy="-233" rx="3.2" ry="3.2"/>
</g>
</g>
</svg>
