<?xml version="1.0" encoding="UTF-8" standalone="no"?>
<!DOCTYPE svg PUBLIC "-//W3C//DTD SVG 1.1//EN"
 "http://www.w3.org/Graphics/SVG/1.1/DTD/svg11.dtd">
<!-- Generated by graphviz version 2.38.0 (20140413.2041)
 -->
<!-- Title: twoDegreesRelationshipsDiagram Pages: 1 -->
<svg width="764pt" height="636pt"
 viewBox="0.00 0.00 764.00 636.00" xmlns="http://www.w3.org/2000/svg" xmlns:xlink="http://www.w3.org/1999/xlink">
<g id="graph0" class="graph" transform="scale(1 1) rotate(0) translate(4 632)">
<title>twoDegreesRelationshipsDiagram</title>
<polygon fill="#ffffff" stroke="none" points="-4,4 -4,-632 760,-632 760,4 -4,4"/>
<text text-anchor="middle" x="74.5" y="-7.2" font-family="Helvetica,sans-Serif" font-size="11.00">Generated by SchemaSpy</text>
<!-- auth_group_permissions -->
<g id="node1" class="node"><title>auth_group_permissions</title>
<g id="a_node1"><a xlink:href="../../tables/auth_group_permissions.html" xlink:title="auth_group_permissions" target="_top">
<polygon fill="#ffffff" stroke="none" points="507.5,-312 507.5,-370 693.5,-370 693.5,-312 507.5,-312"/>
<polygon fill="#f5f5f5" stroke="none" points="507.5,-348 507.5,-370 693.5,-370 693.5,-348 507.5,-348"/>
<polygon fill="none" stroke="black" points="507.5,-348 507.5,-370 693.5,-370 693.5,-348 507.5,-348"/>
<text text-anchor="start" x="512.5" y="-357.2" font-family="Helvetica,sans-Serif" font-weight="bold" font-size="11.00">auth_group_permissions</text>
<text text-anchor="start" x="654.5" y="-356.2" font-family="Helvetica,sans-Serif" font-size="11.00">[table]</text>
<polygon fill="none" stroke="black" points="507.5,-330 507.5,-348 693.5,-348 693.5,-330 507.5,-330"/>
<text text-anchor="start" x="510.5" y="-336.2" font-family="Helvetica,sans-Serif" font-size="11.00">...</text>
<polygon fill="#ffffff" stroke="none" points="507.5,-312 507.5,-330 584.5,-330 584.5,-312 507.5,-312"/>
<polygon fill="none" stroke="black" points="507.5,-312 507.5,-330 584.5,-330 584.5,-312 507.5,-312"/>
<text text-anchor="start" x="510.5" y="-318.2" font-family="Helvetica,sans-Serif" font-size="11.00">&lt; 2</text>
<polygon fill="#ffffff" stroke="none" points="584.5,-312 584.5,-330 653.5,-330 653.5,-312 584.5,-312"/>
<polygon fill="none" stroke="black" points="584.5,-312 584.5,-330 653.5,-330 653.5,-312 584.5,-312"/>
<text text-anchor="start" x="614.5" y="-318.2" font-family="Helvetica,sans-Serif" font-size="11.00">0 rows</text>
<polygon fill="#ffffff" stroke="none" points="653.5,-312 653.5,-330 693.5,-330 693.5,-312 653.5,-312"/>
<polygon fill="none" stroke="black" points="653.5,-312 653.5,-330 693.5,-330 693.5,-312 653.5,-312"/>
<text text-anchor="start" x="683.5" y="-318.2" font-family="Helvetica,sans-Serif" font-size="11.00"> &#160;</text>
</a>
</g>
</g>
<!-- auth_group -->
<g id="node2" class="node"><title>auth_group</title>
<g id="a_node2"><a xlink:href="../../tables/auth_group.html" xlink:title="auth_group" target="_top">
<polygon fill="#ffffff" stroke="none" points="257.5,-367 257.5,-451 370.5,-451 370.5,-367 257.5,-367"/>
<polygon fill="#f5f5f5" stroke="none" points="258,-429 258,-451 371,-451 371,-429 258,-429"/>
<polygon fill="none" stroke="black" points="258,-429 258,-451 371,-451 371,-429 258,-429"/>
<text text-anchor="start" x="263" y="-438.2" font-family="Helvetica,sans-Serif" font-weight="bold" font-size="11.00">auth_group</text>
<text text-anchor="start" x="332" y="-437.2" font-family="Helvetica,sans-Serif" font-size="11.00">[table]</text>
<polygon fill="none" stroke="black" points="258,-407 258,-429 371,-429 371,-407 258,-407"/>
<image xlink:href="../../images/primaryKeys.png" width="11px" height="12px" preserveAspectRatio="xMinYMin meet" x="263" y="-424"/>
<text text-anchor="start" x="290" y="-415.2" font-family="Helvetica,sans-Serif" font-size="11.00">id</text>
<polygon fill="#ffffff" stroke="none" points="258,-385 258,-407 371,-407 371,-385 258,-385"/>
<polygon fill="none" stroke="black" points="258,-385 258,-407 371,-407 371,-385 258,-385"/>
<text text-anchor="start" x="290" y="-393.2" font-family="Helvetica,sans-Serif" font-size="11.00">name</text>
<polygon fill="#ffffff" stroke="none" points="258,-367 258,-385 285,-385 285,-367 258,-367"/>
<polygon fill="none" stroke="black" points="258,-367 258,-385 285,-385 285,-367 258,-367"/>
<text text-anchor="start" x="261" y="-373.2" font-family="Helvetica,sans-Serif" font-size="11.00"> &#160;</text>
<polygon fill="#ffffff" stroke="none" points="285,-367 285,-385 341,-385 341,-367 285,-367"/>
<polygon fill="none" stroke="black" points="285,-367 285,-385 341,-385 341,-367 285,-367"/>
<text text-anchor="start" x="295" y="-373.2" font-family="Helvetica,sans-Serif" font-size="11.00">15 rows</text>
<polygon fill="#ffffff" stroke="none" points="341,-367 341,-385 371,-385 371,-367 341,-367"/>
<polygon fill="none" stroke="black" points="341,-367 341,-385 371,-385 371,-367 341,-367"/>
<text text-anchor="start" x="351" y="-373.2" font-family="Helvetica,sans-Serif" font-size="11.00">3 &gt;</text>
</a>
</g>
</g>
<!-- auth_group_permissions&#45;&gt;auth_group -->
<g id="edge1" class="edge"><title>auth_group_permissions:elipses:w&#45;&gt;auth_group:id:e</title>
<path fill="none" stroke="black" d="M491.872,-340.305C437.38,-350.577 436.046,-418 372,-418"/>
<polygon fill="black" stroke="black" points="498.532,-339.711 506.82,-342.586 502.516,-339.356 506.5,-339 506.5,-339 506.5,-339 502.516,-339.356 506.18,-335.414 498.532,-339.711 498.532,-339.711"/>
<ellipse fill="none" stroke="black" cx="495.344" cy="-339.996" rx="3.2" ry="3.2"/>
</g>
<!-- auth_permission -->
<g id="node3" class="node"><title>auth_permission</title>
<g id="a_node3"><a xlink:href="../../tables/auth_permission.html" xlink:title="auth_permission" target="_top">
<polygon fill="#ffffff" stroke="none" points="242.5,-222 242.5,-346 385.5,-346 385.5,-222 242.5,-222"/>
<polygon fill="#f5f5f5" stroke="none" points="243,-324 243,-346 386,-346 386,-324 243,-324"/>
<polygon fill="none" stroke="black" points="243,-324 243,-346 386,-346 386,-324 243,-324"/>
<text text-anchor="start" x="248" y="-333.2" font-family="Helvetica,sans-Serif" font-weight="bold" font-size="11.00">auth_permission</text>
<text text-anchor="start" x="347" y="-332.2" font-family="Helvetica,sans-Serif" font-size="11.00">[table]</text>
<polygon fill="none" stroke="black" points="243,-302 243,-324 386,-324 386,-302 243,-302"/>
<image xlink:href="../../images/primaryKeys.png" width="11px" height="12px" preserveAspectRatio="xMinYMin meet" x="248" y="-319"/>
<text text-anchor="start" x="275" y="-310.2" font-family="Helvetica,sans-Serif" font-size="11.00">id</text>
<polygon fill="#ffffff" stroke="none" points="243,-280 243,-302 386,-302 386,-280 243,-280"/>
<polygon fill="none" stroke="black" points="243,-280 243,-302 386,-302 386,-280 243,-280"/>
<image xlink:href="../../images/foreignKeys.png" width="11px" height="12px" preserveAspectRatio="xMinYMin meet" x="248" y="-297"/>
<text text-anchor="start" x="275" y="-288.2" font-family="Helvetica,sans-Serif" font-size="11.00">content_type_id</text>
<polygon fill="#ffffff" stroke="none" points="243,-258 243,-280 386,-280 386,-258 243,-258"/>
<polygon fill="none" stroke="black" points="243,-258 243,-280 386,-280 386,-258 243,-258"/>
<text text-anchor="start" x="275" y="-266.2" font-family="Helvetica,sans-Serif" font-size="11.00">codename</text>
<polygon fill="none" stroke="black" points="243,-240 243,-258 386,-258 386,-240 243,-240"/>
<text text-anchor="start" x="246" y="-246.2" font-family="Helvetica,sans-Serif" font-size="11.00">...</text>
<polygon fill="#ffffff" stroke="none" points="243,-222 243,-240 287,-240 287,-222 243,-222"/>
<polygon fill="none" stroke="black" points="243,-222 243,-240 287,-240 287,-222 243,-222"/>
<text text-anchor="start" x="246" y="-228.2" font-family="Helvetica,sans-Serif" font-size="11.00">&lt; 1</text>
<polygon fill="#ffffff" stroke="none" points="287,-222 287,-240 352,-240 352,-222 287,-222"/>
<polygon fill="none" stroke="black" points="287,-222 287,-240 352,-240 352,-222 287,-222"/>
<text text-anchor="start" x="300" y="-228.2" font-family="Helvetica,sans-Serif" font-size="11.00">322 rows</text>
<polygon fill="#ffffff" stroke="none" points="352,-222 352,-240 386,-240 386,-222 352,-222"/>
<polygon fill="none" stroke="black" points="352,-222 352,-240 386,-240 386,-222 352,-222"/>
<text text-anchor="start" x="366" y="-228.2" font-family="Helvetica,sans-Serif" font-size="11.00">4 &gt;</text>
</a>
</g>
</g>
<!-- auth_group_permissions&#45;&gt;auth_permission -->
<g id="edge2" class="edge"><title>auth_group_permissions:elipses:w&#45;&gt;auth_permission:id:e</title>
<path fill="none" stroke="black" d="M492.015,-338.331C449.682,-334.262 436.152,-313 387,-313"/>
<polygon fill="black" stroke="black" points="498.509,-338.631 506.334,-342.596 502.504,-338.815 506.5,-339 506.5,-339 506.5,-339 502.504,-338.815 506.666,-335.404 498.509,-338.631 498.509,-338.631"/>
<ellipse fill="none" stroke="black" cx="495.312" cy="-338.483" rx="3.2" ry="3.2"/>
</g>
<!-- django_content_type -->
<g id="node4" class="node"><title>django_content_type</title>
<g id="a_node4"><a xlink:href="../../tables/django_content_type.html" xlink:title="django_content_type" target="_top">
<polygon fill="#ffffff" stroke="none" points="8,-171 8,-277 175,-277 175,-171 8,-171"/>
<polygon fill="#f5f5f5" stroke="none" points="8.5,-255 8.5,-277 175.5,-277 175.5,-255 8.5,-255"/>
<polygon fill="none" stroke="black" points="8.5,-255 8.5,-277 175.5,-277 175.5,-255 8.5,-255"/>
<text text-anchor="start" x="13.5" y="-264.2" font-family="Helvetica,sans-Serif" font-weight="bold" font-size="11.00">django_content_type</text>
<text text-anchor="start" x="136.5" y="-263.2" font-family="Helvetica,sans-Serif" font-size="11.00">[table]</text>
<polygon fill="none" stroke="black" points="8.5,-233 8.5,-255 175.5,-255 175.5,-233 8.5,-233"/>
<image xlink:href="../../images/primaryKeys.png" width="11px" height="12px" preserveAspectRatio="xMinYMin meet" x="13.5" y="-250"/>
<text text-anchor="start" x="39.5" y="-241.2" font-family="Helvetica,sans-Serif" font-size="11.00">id</text>
<polygon fill="#ffffff" stroke="none" points="8.5,-211 8.5,-233 175.5,-233 175.5,-211 8.5,-211"/>
<polygon fill="none" stroke="black" points="8.5,-211 8.5,-233 175.5,-233 175.5,-211 8.5,-211"/>
<text text-anchor="start" x="39.5" y="-219.2" font-family="Helvetica,sans-Serif" font-size="11.00">app_label</text>
<polygon fill="#ffffff" stroke="none" points="8.5,-189 8.5,-211 175.5,-211 175.5,-189 8.5,-189"/>
<polygon fill="none" stroke="black" points="8.5,-189 8.5,-211 175.5,-211 175.5,-189 8.5,-189"/>
<text text-anchor="start" x="39.5" y="-197.2" font-family="Helvetica,sans-Serif" font-size="11.00">model</text>
<polygon fill="#ffffff" stroke="none" points="8.5,-171 8.5,-189 62.5,-189 62.5,-171 8.5,-171"/>
<polygon fill="none" stroke="black" points="8.5,-171 8.5,-189 62.5,-189 62.5,-171 8.5,-171"/>
<text text-anchor="start" x="11.5" y="-177.2" font-family="Helvetica,sans-Serif" font-size="11.00"> &#160;</text>
<polygon fill="#ffffff" stroke="none" points="62.5,-171 62.5,-189 131.5,-189 131.5,-171 62.5,-171"/>
<polygon fill="none" stroke="black" points="62.5,-171 62.5,-189 131.5,-189 131.5,-171 62.5,-171"/>
<text text-anchor="start" x="85.5" y="-177.2" font-family="Helvetica,sans-Serif" font-size="11.00">79 rows</text>
<polygon fill="#ffffff" stroke="none" points="131.5,-171 131.5,-189 175.5,-189 175.5,-171 131.5,-171"/>
<polygon fill="none" stroke="black" points="131.5,-171 131.5,-189 175.5,-189 175.5,-171 131.5,-171"/>
<text text-anchor="start" x="155.5" y="-177.2" font-family="Helvetica,sans-Serif" font-size="11.00">6 &gt;</text>
</a>
</g>
</g>
<!-- auth_permission&#45;&gt;django_content_type -->
<g id="edge3" class="edge"><title>auth_permission:content_type_id:w&#45;&gt;django_content_type:id:e</title>
<path fill="none" stroke="black" d="M227.671,-287.769C207.066,-277.151 206.592,-244 176.5,-244"/>
<polygon fill="black" stroke="black" points="234.196,-289.241 241.208,-294.512 238.098,-290.12 242,-291 242,-291 242,-291 238.098,-290.12 242.792,-287.488 234.196,-289.241 234.196,-289.241"/>
<ellipse fill="none" stroke="black" cx="231.074" cy="-288.537" rx="3.2" ry="3.2"/>
</g>
<!-- core_createdresource -->
<g id="node5" class="node"><title>core_createdresource</title>
<g id="a_node5"><a xlink:href="../../tables/core_createdresource.html" xlink:title="core_createdresource" target="_top">
<polygon fill="#ffffff" stroke="none" points="228,-116 228,-174 400,-174 400,-116 228,-116"/>
<polygon fill="#f5f5f5" stroke="none" points="228,-152 228,-174 400,-174 400,-152 228,-152"/>
<polygon fill="none" stroke="black" points="228,-152 228,-174 400,-174 400,-152 228,-152"/>
<text text-anchor="start" x="233" y="-161.2" font-family="Helvetica,sans-Serif" font-weight="bold" font-size="11.00">core_createdresource</text>
<text text-anchor="start" x="361" y="-160.2" font-family="Helvetica,sans-Serif" font-size="11.00">[table]</text>
<polygon fill="none" stroke="black" points="228,-134 228,-152 400,-152 400,-134 228,-134"/>
<text text-anchor="start" x="231" y="-140.2" font-family="Helvetica,sans-Serif" font-size="11.00">...</text>
<polygon fill="#ffffff" stroke="none" points="228,-116 228,-134 291,-134 291,-116 228,-116"/>
<polygon fill="none" stroke="black" points="228,-116 228,-134 291,-134 291,-116 228,-116"/>
<text text-anchor="start" x="231" y="-122.2" font-family="Helvetica,sans-Serif" font-size="11.00">&lt; 2</text>
<polygon fill="#ffffff" stroke="none" points="291,-116 291,-134 366,-134 366,-116 291,-116"/>
<polygon fill="none" stroke="black" points="291,-116 291,-134 366,-134 366,-116 291,-116"/>
<text text-anchor="start" x="314" y="-122.2" font-family="Helvetica,sans-Serif" font-size="11.00">365 rows</text>
<polygon fill="#ffffff" stroke="none" points="366,-116 366,-134 400,-134 400,-116 366,-116"/>
<polygon fill="none" stroke="black" points="366,-116 366,-134 400,-134 400,-116 366,-116"/>
<text text-anchor="start" x="390" y="-122.2" font-family="Helvetica,sans-Serif" font-size="11.00"> &#160;</text>
</a>
</g>
</g>
<!-- core_createdresource&#45;&gt;django_content_type -->
<g id="edge4" class="edge"><title>core_createdresource:elipses:w&#45;&gt;django_content_type:id:e</title>
<path fill="none" stroke="black" d="M212.814,-147.084C187.424,-165.98 220.61,-244 176.5,-244"/>
<polygon fill="black" stroke="black" points="219.312,-145.214 227.996,-146.459 223.156,-144.107 227,-143 227,-143 227,-143 223.156,-144.107 226.004,-139.541 219.312,-145.214 219.312,-145.214"/>
<ellipse fill="none" stroke="black" cx="216.237" cy="-146.099" rx="3.20001" ry="3.20001"/>
</g>
<!-- core_exportedresource -->
<g id="node6" class="node"><title>core_exportedresource</title>
<g id="a_node6"><a xlink:href="../../tables/core_exportedresource.html" xlink:title="core_exportedresource" target="_top">
<polygon fill="#ffffff" stroke="none" points="224,-37 224,-95 404,-95 404,-37 224,-37"/>
<polygon fill="#f5f5f5" stroke="none" points="224,-73 224,-95 404,-95 404,-73 224,-73"/>
<polygon fill="none" stroke="black" points="224,-73 224,-95 404,-95 404,-73 224,-73"/>
<text text-anchor="start" x="229" y="-82.2" font-family="Helvetica,sans-Serif" font-weight="bold" font-size="11.00">core_exportedresource</text>
<text text-anchor="start" x="365" y="-81.2" font-family="Helvetica,sans-Serif" font-size="11.00">[table]</text>
<polygon fill="none" stroke="black" points="224,-55 224,-73 404,-73 404,-55 224,-55"/>
<text text-anchor="start" x="227" y="-61.2" font-family="Helvetica,sans-Serif" font-size="11.00">...</text>
<polygon fill="#ffffff" stroke="none" points="224,-37 224,-55 298,-55 298,-37 224,-37"/>
<polygon fill="none" stroke="black" points="224,-37 224,-55 298,-55 298,-37 224,-37"/>
<text text-anchor="start" x="227" y="-43.2" font-family="Helvetica,sans-Serif" font-size="11.00">&lt; 2</text>
<polygon fill="#ffffff" stroke="none" points="298,-37 298,-55 365,-55 365,-37 298,-37"/>
<polygon fill="none" stroke="black" points="298,-37 298,-55 365,-55 365,-37 298,-37"/>
<text text-anchor="start" x="326" y="-43.2" font-family="Helvetica,sans-Serif" font-size="11.00">0 rows</text>
<polygon fill="#ffffff" stroke="none" points="365,-37 365,-55 404,-55 404,-37 365,-37"/>
<polygon fill="none" stroke="black" points="365,-37 365,-55 404,-55 404,-37 365,-37"/>
<text text-anchor="start" x="394" y="-43.2" font-family="Helvetica,sans-Serif" font-size="11.00"> &#160;</text>
</a>
</g>
</g>
<!-- core_exportedresource&#45;&gt;django_content_type -->
<g id="edge5" class="edge"><title>core_exportedresource:elipses:w&#45;&gt;django_content_type:id:e</title>
<path fill="none" stroke="black" d="M208.75,-66.4084C155.668,-87.7682 253.478,-244 176.5,-244"/>
<polygon fill="black" stroke="black" points="215.112,-65.3332 223.6,-67.5497 219.056,-64.6666 223,-64 223,-64 223,-64 219.056,-64.6666 222.4,-60.4503 215.112,-65.3332 215.112,-65.3332"/>
<ellipse fill="none" stroke="black" cx="211.957" cy="-65.8665" rx="3.2" ry="3.2"/>
</g>
<!-- django_admin_log -->
<g id="node7" class="node"><title>django_admin_log</title>
<g id="a_node7"><a xlink:href="../../tables/django_admin_log.html" xlink:title="django_admin_log" target="_top">
<polygon fill="#ffffff" stroke="none" points="239.5,-499 239.5,-557 388.5,-557 388.5,-499 239.5,-499"/>
<polygon fill="#f5f5f5" stroke="none" points="240,-535 240,-557 389,-557 389,-535 240,-535"/>
<polygon fill="none" stroke="black" points="240,-535 240,-557 389,-557 389,-535 240,-535"/>
<text text-anchor="start" x="245" y="-544.2" font-family="Helvetica,sans-Serif" font-weight="bold" font-size="11.00">django_admin_log</text>
<text text-anchor="start" x="350" y="-543.2" font-family="Helvetica,sans-Serif" font-size="11.00">[table]</text>
<polygon fill="none" stroke="black" points="240,-517 240,-535 389,-535 389,-517 240,-517"/>
<text text-anchor="start" x="243" y="-523.2" font-family="Helvetica,sans-Serif" font-size="11.00">...</text>
<polygon fill="#ffffff" stroke="none" points="240,-499 240,-517 292,-517 292,-499 240,-499"/>
<polygon fill="none" stroke="black" points="240,-499 240,-517 292,-517 292,-499 240,-499"/>
<text text-anchor="start" x="243" y="-505.2" font-family="Helvetica,sans-Serif" font-size="11.00">&lt; 2</text>
<polygon fill="#ffffff" stroke="none" points="292,-499 292,-517 361,-517 361,-499 292,-499"/>
<polygon fill="none" stroke="black" points="292,-499 292,-517 361,-517 361,-499 292,-499"/>
<text text-anchor="start" x="309" y="-505.2" font-family="Helvetica,sans-Serif" font-size="11.00">229 rows</text>
<polygon fill="#ffffff" stroke="none" points="361,-499 361,-517 389,-517 389,-499 361,-499"/>
<polygon fill="none" stroke="black" points="361,-499 361,-517 389,-517 389,-499 361,-499"/>
<text text-anchor="start" x="379" y="-505.2" font-family="Helvetica,sans-Serif" font-size="11.00"> &#160;</text>
</a>
</g>
</g>
<!-- django_admin_log&#45;&gt;django_content_type -->
<g id="edge6" class="edge"><title>django_admin_log:elipses:w&#45;&gt;django_content_type:id:e</title>
<path fill="none" stroke="black" d="M225.426,-520.367C184.96,-480.622 235.297,-244 176.5,-244"/>
<polygon fill="black" stroke="black" points="231.611,-522.934 237.62,-529.325 235.305,-524.467 239,-526 239,-526 239,-526 235.305,-524.467 240.38,-522.675 231.611,-522.934 231.611,-522.934"/>
<ellipse fill="none" stroke="black" cx="228.655" cy="-521.707" rx="3.20001" ry="3.20001"/>
</g>
<!-- galaxy_user_groups -->
<g id="node8" class="node"><title>galaxy_user_groups</title>
<g id="a_node8"><a xlink:href="../../tables/galaxy_user_groups.html" xlink:title="galaxy_user_groups" target="_top">
<polygon fill="#ffffff" stroke="none" points="522,-391 522,-449 679,-449 679,-391 522,-391"/>
<polygon fill="#f5f5f5" stroke="none" points="522.5,-427 522.5,-449 679.5,-449 679.5,-427 522.5,-427"/>
<polygon fill="none" stroke="black" points="522.5,-427 522.5,-449 679.5,-449 679.5,-427 522.5,-427"/>
<text text-anchor="start" x="527.5" y="-436.2" font-family="Helvetica,sans-Serif" font-weight="bold" font-size="11.00">galaxy_user_groups</text>
<text text-anchor="start" x="640.5" y="-435.2" font-family="Helvetica,sans-Serif" font-size="11.00">[table]</text>
<polygon fill="none" stroke="black" points="522.5,-409 522.5,-427 679.5,-427 679.5,-409 522.5,-409"/>
<text text-anchor="start" x="525.5" y="-415.2" font-family="Helvetica,sans-Serif" font-size="11.00">...</text>
<polygon fill="#ffffff" stroke="none" points="522.5,-391 522.5,-409 581.5,-409 581.5,-391 522.5,-391"/>
<polygon fill="none" stroke="black" points="522.5,-391 522.5,-409 581.5,-409 581.5,-391 522.5,-391"/>
<text text-anchor="start" x="525.5" y="-397.2" font-family="Helvetica,sans-Serif" font-size="11.00">&lt; 2</text>
<polygon fill="#ffffff" stroke="none" points="581.5,-391 581.5,-409 648.5,-409 648.5,-391 581.5,-391"/>
<polygon fill="none" stroke="black" points="581.5,-391 581.5,-409 648.5,-409 648.5,-391 581.5,-391"/>
<text text-anchor="start" x="602.5" y="-397.2" font-family="Helvetica,sans-Serif" font-size="11.00">18 rows</text>
<polygon fill="#ffffff" stroke="none" points="648.5,-391 648.5,-409 679.5,-409 679.5,-391 648.5,-391"/>
<polygon fill="none" stroke="black" points="648.5,-391 648.5,-409 679.5,-409 679.5,-391 648.5,-391"/>
<text text-anchor="start" x="669.5" y="-397.2" font-family="Helvetica,sans-Serif" font-size="11.00"> &#160;</text>
</a>
</g>
</g>
<!-- galaxy_user_groups&#45;&gt;auth_group -->
<g id="edge7" class="edge"><title>galaxy_user_groups:elipses:w&#45;&gt;auth_group:id:e</title>
<path fill="none" stroke="black" d="M506.792,-418C452.156,-418 433.253,-418 372,-418"/>
<polygon fill="black" stroke="black" points="513.5,-418 521.5,-421.6 517.5,-418 521.5,-418 521.5,-418 521.5,-418 517.5,-418 521.5,-414.4 513.5,-418 513.5,-418"/>
<ellipse fill="none" stroke="black" cx="510.3" cy="-418" rx="3.2" ry="3.2"/>
</g>
<!-- galaxy_user_user_permissions -->
<g id="node9" class="node"><title>galaxy_user_user_permissions</title>
<g id="a_node9"><a xlink:href="../../tables/galaxy_user_user_permissions.html" xlink:title="galaxy_user_user_permissions" target="_top">
<polygon fill="#ffffff" stroke="none" points="492,-233 492,-291 709,-291 709,-233 492,-233"/>
<polygon fill="#f5f5f5" stroke="none" points="492.5,-269 492.5,-291 709.5,-291 709.5,-269 492.5,-269"/>
<polygon fill="none" stroke="black" points="492.5,-269 492.5,-291 709.5,-291 709.5,-269 492.5,-269"/>
<text text-anchor="start" x="497.5" y="-278.2" font-family="Helvetica,sans-Serif" font-weight="bold" font-size="11.00">galaxy_user_user_permissions</text>
<text text-anchor="start" x="670.5" y="-277.2" font-family="Helvetica,sans-Serif" font-size="11.00">[table]</text>
<polygon fill="none" stroke="black" points="492.5,-251 492.5,-269 709.5,-269 709.5,-251 492.5,-251"/>
<text text-anchor="start" x="495.5" y="-257.2" font-family="Helvetica,sans-Serif" font-size="11.00">...</text>
<polygon fill="#ffffff" stroke="none" points="492.5,-233 492.5,-251 584.5,-251 584.5,-233 492.5,-233"/>
<polygon fill="none" stroke="black" points="492.5,-233 492.5,-251 584.5,-251 584.5,-233 492.5,-233"/>
<text text-anchor="start" x="495.5" y="-239.2" font-family="Helvetica,sans-Serif" font-size="11.00">&lt; 2</text>
<polygon fill="#ffffff" stroke="none" points="584.5,-233 584.5,-251 661.5,-251 661.5,-233 584.5,-233"/>
<polygon fill="none" stroke="black" points="584.5,-233 584.5,-251 661.5,-251 661.5,-233 584.5,-233"/>
<text text-anchor="start" x="622.5" y="-239.2" font-family="Helvetica,sans-Serif" font-size="11.00">0 rows</text>
<polygon fill="#ffffff" stroke="none" points="661.5,-233 661.5,-251 709.5,-251 709.5,-233 661.5,-233"/>
<polygon fill="none" stroke="black" points="661.5,-233 661.5,-251 709.5,-251 709.5,-233 661.5,-233"/>
<text text-anchor="start" x="699.5" y="-239.2" font-family="Helvetica,sans-Serif" font-size="11.00"> &#160;</text>
</a>
</g>
</g>
<!-- galaxy_user_user_permissions&#45;&gt;auth_permission -->
<g id="edge8" class="edge"><title>galaxy_user_user_permissions:elipses:w&#45;&gt;auth_permission:id:e</title>
<path fill="none" stroke="black" d="M477.125,-261.529C438.819,-270.219 433.787,-313 387,-313"/>
<polygon fill="black" stroke="black" points="483.545,-260.846 491.881,-263.58 487.522,-260.423 491.5,-260 491.5,-260 491.5,-260 487.522,-260.423 491.119,-256.42 483.545,-260.846 483.545,-260.846"/>
<ellipse fill="none" stroke="black" cx="480.363" cy="-261.185" rx="3.2" ry="3.2"/>
</g>
<!-- guardian_groupobjectpermission -->
<g id="node10" class="node"><title>guardian_groupobjectpermission</title>
<g id="a_node10"><a xlink:href="../../tables/guardian_groupobjectpermission.html" xlink:title="guardian_groupobjectpermission" target="_top">
<polygon fill="#ffffff" stroke="none" points="453,-470 453,-624 748,-624 748,-470 453,-470"/>
<polygon fill="#f5f5f5" stroke="none" points="455.5,-600 455.5,-622 746.5,-622 746.5,-600 455.5,-600"/>
<polygon fill="none" stroke="black" points="455.5,-600 455.5,-622 746.5,-622 746.5,-600 455.5,-600"/>
<text text-anchor="start" x="460.5" y="-609.2" font-family="Helvetica,sans-Serif" font-weight="bold" font-size="11.00">guardian_groupobjectpermission</text>
<text text-anchor="start" x="707.5" y="-608.2" font-family="Helvetica,sans-Serif" font-size="11.00">[table]</text>
<polygon fill="none" stroke="black" points="455.5,-578 455.5,-600 673.5,-600 673.5,-578 455.5,-578"/>
<image xlink:href="../../images/primaryKeys.png" width="11px" height="12px" preserveAspectRatio="xMinYMin meet" x="460.5" y="-595"/>
<text text-anchor="start" x="475.5" y="-586.2" font-family="Helvetica,sans-Serif" font-size="11.00">id</text>
<polygon fill="none" stroke="black" points="673.5,-578 673.5,-600 746.5,-600 746.5,-578 673.5,-578"/>
<text text-anchor="start" x="676.5" y="-586.2" font-family="Helvetica,sans-Serif" font-size="11.00">serial[10]</text>
<polygon fill="#ffffff" stroke="none" points="455.5,-556 455.5,-578 673.5,-578 673.5,-556 455.5,-556"/>
<polygon fill="none" stroke="black" points="455.5,-556 455.5,-578 673.5,-578 673.5,-556 455.5,-556"/>
<text text-anchor="start" x="475.5" y="-564.2" font-family="Helvetica,sans-Serif" font-size="11.00">object_pk</text>
<polygon fill="none" stroke="black" points="673.5,-556 673.5,-578 746.5,-578 746.5,-556 673.5,-556"/>
<text text-anchor="start" x="676.5" y="-564.2" font-family="Helvetica,sans-Serif" font-size="11.00">varchar[255]</text>
<polygon fill="#ffffff" stroke="none" points="455.5,-534 455.5,-556 673.5,-556 673.5,-534 455.5,-534"/>
<polygon fill="none" stroke="black" points="455.5,-534 455.5,-556 673.5,-556 673.5,-534 455.5,-534"/>
<image xlink:href="../../images/foreignKeys.png" width="11px" height="12px" preserveAspectRatio="xMinYMin meet" x="460.5" y="-551"/>
<text text-anchor="start" x="475.5" y="-542.2" font-family="Helvetica,sans-Serif" font-size="11.00">content_type_id</text>
<polygon fill="none" stroke="black" points="673.5,-534 673.5,-556 746.5,-556 746.5,-534 673.5,-534"/>
<text text-anchor="start" x="676.5" y="-542.2" font-family="Helvetica,sans-Serif" font-size="11.00">int4[10]</text>
<polygon fill="#ffffff" stroke="none" points="455.5,-512 455.5,-534 673.5,-534 673.5,-512 455.5,-512"/>
<polygon fill="none" stroke="black" points="455.5,-512 455.5,-534 673.5,-534 673.5,-512 455.5,-512"/>
<image xlink:href="../../images/foreignKeys.png" width="11px" height="12px" preserveAspectRatio="xMinYMin meet" x="460.5" y="-529"/>
<text text-anchor="start" x="475.5" y="-520.2" font-family="Helvetica,sans-Serif" font-size="11.00">group_id</text>
<polygon fill="none" stroke="black" points="673.5,-512 673.5,-534 746.5,-534 746.5,-512 673.5,-512"/>
<text text-anchor="start" x="676.5" y="-520.2" font-family="Helvetica,sans-Serif" font-size="11.00">int4[10]</text>
<polygon fill="#ffffff" stroke="none" points="455.5,-490 455.5,-512 673.5,-512 673.5,-490 455.5,-490"/>
<polygon fill="none" stroke="black" points="455.5,-490 455.5,-512 673.5,-512 673.5,-490 455.5,-490"/>
<image xlink:href="../../images/foreignKeys.png" width="11px" height="12px" preserveAspectRatio="xMinYMin meet" x="460.5" y="-507"/>
<text text-anchor="start" x="475.5" y="-498.2" font-family="Helvetica,sans-Serif" font-size="11.00">permission_id</text>
<polygon fill="none" stroke="black" points="673.5,-490 673.5,-512 746.5,-512 746.5,-490 673.5,-490"/>
<text text-anchor="start" x="676.5" y="-498.2" font-family="Helvetica,sans-Serif" font-size="11.00">int4[10]</text>
<polygon fill="#ffffff" stroke="none" points="455.5,-472 455.5,-490 548.5,-490 548.5,-472 455.5,-472"/>
<polygon fill="none" stroke="black" points="455.5,-472 455.5,-490 548.5,-490 548.5,-472 455.5,-472"/>
<text text-anchor="start" x="458.5" y="-478.2" font-family="Helvetica,sans-Serif" font-size="11.00">&lt; 3</text>
<polygon fill="#ffffff" stroke="none" points="548.5,-472 548.5,-490 673.5,-490 673.5,-472 548.5,-472"/>
<polygon fill="none" stroke="black" points="548.5,-472 548.5,-490 673.5,-490 673.5,-472 548.5,-472"/>
<text text-anchor="start" x="621.5" y="-478.2" font-family="Helvetica,sans-Serif" font-size="11.00">168 rows</text>
<polygon fill="#ffffff" stroke="none" points="673.5,-472 673.5,-490 746.5,-490 746.5,-472 673.5,-472"/>
<polygon fill="none" stroke="black" points="673.5,-472 673.5,-490 746.5,-490 746.5,-472 673.5,-472"/>
<text text-anchor="start" x="726.5" y="-478.2" font-family="Helvetica,sans-Serif" font-size="11.00">0 &gt;</text>
<polygon fill="none" stroke="black" stroke-width="2" points="454,-471 454,-623 747,-623 747,-471 454,-471"/>
</a>
</g>
</g>
<!-- guardian_groupobjectpermission&#45;&gt;auth_group -->
<g id="edge10" class="edge"><title>guardian_groupobjectpermission:group_id:w&#45;&gt;auth_group:id:e</title>
<path fill="none" stroke="black" d="M440.17,-520.404C401.099,-504.235 425.784,-418 372,-418"/>
<polygon fill="black" stroke="black" points="446.628,-521.574 453.858,-526.542 450.564,-522.287 454.5,-523 454.5,-523 454.5,-523 450.564,-522.287 455.142,-519.458 446.628,-521.574 446.628,-521.574"/>
<ellipse fill="none" stroke="black" cx="443.479" cy="-521.004" rx="3.2" ry="3.2"/>
</g>
<!-- guardian_groupobjectpermission&#45;&gt;auth_permission -->
<g id="edge11" class="edge"><title>guardian_groupobjectpermission:permission_id:w&#45;&gt;auth_permission:id:e</title>
<path fill="none" stroke="black" d="M440.087,-498.889C378.702,-478.234 470.229,-313 387,-313"/>
<polygon fill="black" stroke="black" points="446.584,-499.84 453.978,-504.562 450.542,-500.42 454.5,-501 454.5,-501 454.5,-501 450.542,-500.42 455.022,-497.438 446.584,-499.84 446.584,-499.84"/>
<ellipse fill="none" stroke="black" cx="443.418" cy="-499.377" rx="3.2" ry="3.2"/>
</g>
<!-- guardian_groupobjectpermission&#45;&gt;django_content_type -->
<g id="edge9" class="edge"><title>guardian_groupobjectpermission:content_type_id:w&#45;&gt;django_content_type:id:e</title>
<path fill="none" stroke="black" d="M440.521,-540.563C427.878,-529.667 433.492,-501.571 412,-489 336.097,-444.604 279.481,-522.848 216,-462 144.915,-393.864 274.967,-244 176.5,-244"/>
<polygon fill="black" stroke="black" points="446.875,-542.58 453.411,-548.431 450.687,-543.79 454.5,-545 454.5,-545 454.5,-545 450.687,-543.79 455.589,-541.569 446.875,-542.58 446.875,-542.58"/>
<ellipse fill="none" stroke="black" cx="443.825" cy="-541.612" rx="3.20001" ry="3.20001"/>
</g>
<!-- guardian_userobjectpermission -->
<g id="node11" class="node"><title>guardian_userobjectpermission</title>
<g id="a_node11"><a xlink:href="../../tables/guardian_userobjectpermission.html" xlink:title="guardian_userobjectpermission" target="_top">
<polygon fill="#ffffff" stroke="none" points="486.5,-154 486.5,-212 714.5,-212 714.5,-154 486.5,-154"/>
<polygon fill="#f5f5f5" stroke="none" points="486.5,-190 486.5,-212 714.5,-212 714.5,-190 486.5,-190"/>
<polygon fill="none" stroke="black" points="486.5,-190 486.5,-212 714.5,-212 714.5,-190 486.5,-190"/>
<text text-anchor="start" x="491.5" y="-199.2" font-family="Helvetica,sans-Serif" font-weight="bold" font-size="11.00">guardian_userobjectpermission</text>
<text text-anchor="start" x="675.5" y="-198.2" font-family="Helvetica,sans-Serif" font-size="11.00">[table]</text>
<polygon fill="none" stroke="black" points="486.5,-172 486.5,-190 714.5,-190 714.5,-172 486.5,-172"/>
<text text-anchor="start" x="489.5" y="-178.2" font-family="Helvetica,sans-Serif" font-size="11.00">...</text>
<polygon fill="#ffffff" stroke="none" points="486.5,-154 486.5,-172 584.5,-172 584.5,-154 486.5,-154"/>
<polygon fill="none" stroke="black" points="486.5,-154 486.5,-172 584.5,-172 584.5,-154 486.5,-154"/>
<text text-anchor="start" x="489.5" y="-160.2" font-family="Helvetica,sans-Serif" font-size="11.00">&lt; 3</text>
<polygon fill="#ffffff" stroke="none" points="584.5,-154 584.5,-172 663.5,-172 663.5,-154 584.5,-154"/>
<polygon fill="none" stroke="black" points="584.5,-154 584.5,-172 663.5,-172 663.5,-154 584.5,-154"/>
<text text-anchor="start" x="624.5" y="-160.2" font-family="Helvetica,sans-Serif" font-size="11.00">0 rows</text>
<polygon fill="#ffffff" stroke="none" points="663.5,-154 663.5,-172 714.5,-172 714.5,-154 663.5,-154"/>
<polygon fill="none" stroke="black" points="663.5,-154 663.5,-172 714.5,-172 714.5,-154 663.5,-154"/>
<text text-anchor="start" x="704.5" y="-160.2" font-family="Helvetica,sans-Serif" font-size="11.00"> &#160;</text>
</a>
</g>
</g>
<!-- guardian_userobjectpermission&#45;&gt;auth_permission -->
<g id="edge13" class="edge"><title>guardian_userobjectpermission:elipses:w&#45;&gt;auth_permission:id:e</title>
<path fill="none" stroke="black" d="M471.104,-183.073C418.743,-199.867 454.767,-313 387,-313"/>
<polygon fill="black" stroke="black" points="477.582,-182.14 486.013,-184.563 481.541,-181.57 485.5,-181 485.5,-181 485.5,-181 481.541,-181.57 484.987,-177.437 477.582,-182.14 477.582,-182.14"/>
<ellipse fill="none" stroke="black" cx="474.414" cy="-182.597" rx="3.2" ry="3.2"/>
</g>
<!-- guardian_userobjectpermission&#45;&gt;django_content_type -->
<g id="edge12" class="edge"><title>guardian_userobjectpermission:elipses:w&#45;&gt;django_content_type:id:e</title>
<path fill="none" stroke="black" d="M471.085,-181.57C414.279,-184.847 240.967,-201.512 216,-212 195.17,-220.751 199.094,-244 176.5,-244"/>
<polygon fill="black" stroke="black" points="477.506,-181.316 485.642,-184.597 481.503,-181.158 485.5,-181 485.5,-181 485.5,-181 481.503,-181.158 485.358,-177.403 477.506,-181.316 477.506,-181.316"/>
<ellipse fill="none" stroke="black" cx="474.309" cy="-181.442" rx="3.2" ry="3.2"/>
</g>
</g>
</svg>
