<?xml version="1.0" encoding="UTF-8" standalone="no"?>
<!DOCTYPE svg PUBLIC "-//W3C//DTD SVG 1.1//EN"
 "http://www.w3.org/Graphics/SVG/1.1/DTD/svg11.dtd">
<!-- Generated by graphviz version 2.38.0 (20140413.2041)
 -->
<!-- Title: twoDegreesRelationshipsDiagram Pages: 1 -->
<svg width="755pt" height="700pt"
 viewBox="0.00 0.00 755.00 699.88" xmlns="http://www.w3.org/2000/svg" xmlns:xlink="http://www.w3.org/1999/xlink">
<g id="graph0" class="graph" transform="scale(1 1) rotate(0) translate(4 695.876)">
<title>twoDegreesRelationshipsDiagram</title>
<polygon fill="#ffffff" stroke="none" points="-4,4 -4,-695.876 751,-695.876 751,4 -4,4"/>
<text text-anchor="middle" x="74.5" y="-7.2" font-family="Helvetica,sans-Serif" font-size="11.00">Generated by SchemaSpy</text>
<!-- auth_group_permissions -->
<g id="node1" class="node"><title>auth_group_permissions</title>
<g id="a_node1"><a xlink:href="../../tables/auth_group_permissions.html" xlink:title="auth_group_permissions" target="_top">
<polygon fill="#ffffff" stroke="none" points="503,-528 503,-586 689,-586 689,-528 503,-528"/>
<polygon fill="#f5f5f5" stroke="none" points="503,-564 503,-586 689,-586 689,-564 503,-564"/>
<polygon fill="none" stroke="black" points="503,-564 503,-586 689,-586 689,-564 503,-564"/>
<text text-anchor="start" x="508" y="-573.2" font-family="Helvetica,sans-Serif" font-weight="bold" font-size="11.00">auth_group_permissions</text>
<text text-anchor="start" x="650" y="-572.2" font-family="Helvetica,sans-Serif" font-size="11.00">[table]</text>
<polygon fill="none" stroke="black" points="503,-546 503,-564 689,-564 689,-546 503,-546"/>
<text text-anchor="start" x="506" y="-552.2" font-family="Helvetica,sans-Serif" font-size="11.00">...</text>
<polygon fill="#ffffff" stroke="none" points="503,-528 503,-546 580,-546 580,-528 503,-528"/>
<polygon fill="none" stroke="black" points="503,-528 503,-546 580,-546 580,-528 503,-528"/>
<text text-anchor="start" x="506" y="-534.2" font-family="Helvetica,sans-Serif" font-size="11.00">&lt; 2</text>
<polygon fill="#ffffff" stroke="none" points="580,-528 580,-546 649,-546 649,-528 580,-528"/>
<polygon fill="none" stroke="black" points="580,-528 580,-546 649,-546 649,-528 580,-528"/>
<text text-anchor="start" x="610" y="-534.2" font-family="Helvetica,sans-Serif" font-size="11.00">0 rows</text>
<polygon fill="#ffffff" stroke="none" points="649,-528 649,-546 689,-546 689,-528 649,-528"/>
<polygon fill="none" stroke="black" points="649,-528 649,-546 689,-546 689,-528 649,-528"/>
<text text-anchor="start" x="679" y="-534.2" font-family="Helvetica,sans-Serif" font-size="11.00"> &#160;</text>
</a>
</g>
</g>
<!-- auth_permission -->
<g id="node2" class="node"><title>auth_permission</title>
<g id="a_node2"><a xlink:href="../../tables/auth_permission.html" xlink:title="auth_permission" target="_top">
<polygon fill="#ffffff" stroke="none" points="242.5,-373 242.5,-497 385.5,-497 385.5,-373 242.5,-373"/>
<polygon fill="#f5f5f5" stroke="none" points="243,-475 243,-497 386,-497 386,-475 243,-475"/>
<polygon fill="none" stroke="black" points="243,-475 243,-497 386,-497 386,-475 243,-475"/>
<text text-anchor="start" x="248" y="-484.2" font-family="Helvetica,sans-Serif" font-weight="bold" font-size="11.00">auth_permission</text>
<text text-anchor="start" x="347" y="-483.2" font-family="Helvetica,sans-Serif" font-size="11.00">[table]</text>
<polygon fill="none" stroke="black" points="243,-453 243,-475 386,-475 386,-453 243,-453"/>
<image xlink:href="../../images/primaryKeys.png" width="11px" height="12px" preserveAspectRatio="xMinYMin meet" x="248" y="-470"/>
<text text-anchor="start" x="275" y="-461.2" font-family="Helvetica,sans-Serif" font-size="11.00">id</text>
<polygon fill="#ffffff" stroke="none" points="243,-431 243,-453 386,-453 386,-431 243,-431"/>
<polygon fill="none" stroke="black" points="243,-431 243,-453 386,-453 386,-431 243,-431"/>
<image xlink:href="../../images/foreignKeys.png" width="11px" height="12px" preserveAspectRatio="xMinYMin meet" x="248" y="-448"/>
<text text-anchor="start" x="275" y="-439.2" font-family="Helvetica,sans-Serif" font-size="11.00">content_type_id</text>
<polygon fill="#ffffff" stroke="none" points="243,-409 243,-431 386,-431 386,-409 243,-409"/>
<polygon fill="none" stroke="black" points="243,-409 243,-431 386,-431 386,-409 243,-409"/>
<text text-anchor="start" x="275" y="-417.2" font-family="Helvetica,sans-Serif" font-size="11.00">codename</text>
<polygon fill="none" stroke="black" points="243,-391 243,-409 386,-409 386,-391 243,-391"/>
<text text-anchor="start" x="246" y="-397.2" font-family="Helvetica,sans-Serif" font-size="11.00">...</text>
<polygon fill="#ffffff" stroke="none" points="243,-373 243,-391 287,-391 287,-373 243,-373"/>
<polygon fill="none" stroke="black" points="243,-373 243,-391 287,-391 287,-373 243,-373"/>
<text text-anchor="start" x="246" y="-379.2" font-family="Helvetica,sans-Serif" font-size="11.00">&lt; 1</text>
<polygon fill="#ffffff" stroke="none" points="287,-373 287,-391 352,-391 352,-373 287,-373"/>
<polygon fill="none" stroke="black" points="287,-373 287,-391 352,-391 352,-373 287,-373"/>
<text text-anchor="start" x="300" y="-379.2" font-family="Helvetica,sans-Serif" font-size="11.00">322 rows</text>
<polygon fill="#ffffff" stroke="none" points="352,-373 352,-391 386,-391 386,-373 352,-373"/>
<polygon fill="none" stroke="black" points="352,-373 352,-391 386,-391 386,-373 352,-373"/>
<text text-anchor="start" x="366" y="-379.2" font-family="Helvetica,sans-Serif" font-size="11.00">4 &gt;</text>
</a>
</g>
</g>
<!-- auth_group_permissions&#45;&gt;auth_permission -->
<g id="edge1" class="edge"><title>auth_group_permissions:elipses:w&#45;&gt;auth_permission:id:e</title>
<path fill="none" stroke="black" d="M487.565,-553.178C469.945,-548.088 464.345,-533.098 445,-518 417.235,-496.33 422.221,-464 387,-464"/>
<polygon fill="black" stroke="black" points="494.063,-553.998 501.549,-558.572 498.031,-554.499 502,-555 502,-555 502,-555 498.031,-554.499 502.451,-551.428 494.063,-553.998 494.063,-553.998"/>
<ellipse fill="none" stroke="black" cx="490.888" cy="-553.597" rx="3.2" ry="3.2"/>
</g>
<!-- django_content_type -->
<g id="node3" class="node"><title>django_content_type</title>
<g id="a_node3"><a xlink:href="../../tables/django_content_type.html" xlink:title="django_content_type" target="_top">
<polygon fill="#ffffff" stroke="none" points="8,-420 8,-526 175,-526 175,-420 8,-420"/>
<polygon fill="#f5f5f5" stroke="none" points="8.5,-504 8.5,-526 175.5,-526 175.5,-504 8.5,-504"/>
<polygon fill="none" stroke="black" points="8.5,-504 8.5,-526 175.5,-526 175.5,-504 8.5,-504"/>
<text text-anchor="start" x="13.5" y="-513.2" font-family="Helvetica,sans-Serif" font-weight="bold" font-size="11.00">django_content_type</text>
<text text-anchor="start" x="136.5" y="-512.2" font-family="Helvetica,sans-Serif" font-size="11.00">[table]</text>
<polygon fill="none" stroke="black" points="8.5,-482 8.5,-504 175.5,-504 175.5,-482 8.5,-482"/>
<image xlink:href="../../images/primaryKeys.png" width="11px" height="12px" preserveAspectRatio="xMinYMin meet" x="13.5" y="-499"/>
<text text-anchor="start" x="39.5" y="-490.2" font-family="Helvetica,sans-Serif" font-size="11.00">id</text>
<polygon fill="#ffffff" stroke="none" points="8.5,-460 8.5,-482 175.5,-482 175.5,-460 8.5,-460"/>
<polygon fill="none" stroke="black" points="8.5,-460 8.5,-482 175.5,-482 175.5,-460 8.5,-460"/>
<text text-anchor="start" x="39.5" y="-468.2" font-family="Helvetica,sans-Serif" font-size="11.00">app_label</text>
<polygon fill="#ffffff" stroke="none" points="8.5,-438 8.5,-460 175.5,-460 175.5,-438 8.5,-438"/>
<polygon fill="none" stroke="black" points="8.5,-438 8.5,-460 175.5,-460 175.5,-438 8.5,-438"/>
<text text-anchor="start" x="39.5" y="-446.2" font-family="Helvetica,sans-Serif" font-size="11.00">model</text>
<polygon fill="#ffffff" stroke="none" points="8.5,-420 8.5,-438 62.5,-438 62.5,-420 8.5,-420"/>
<polygon fill="none" stroke="black" points="8.5,-420 8.5,-438 62.5,-438 62.5,-420 8.5,-420"/>
<text text-anchor="start" x="11.5" y="-426.2" font-family="Helvetica,sans-Serif" font-size="11.00"> &#160;</text>
<polygon fill="#ffffff" stroke="none" points="62.5,-420 62.5,-438 131.5,-438 131.5,-420 62.5,-420"/>
<polygon fill="none" stroke="black" points="62.5,-420 62.5,-438 131.5,-438 131.5,-420 62.5,-420"/>
<text text-anchor="start" x="85.5" y="-426.2" font-family="Helvetica,sans-Serif" font-size="11.00">79 rows</text>
<polygon fill="#ffffff" stroke="none" points="131.5,-420 131.5,-438 175.5,-438 175.5,-420 131.5,-420"/>
<polygon fill="none" stroke="black" points="131.5,-420 131.5,-438 175.5,-438 175.5,-420 131.5,-420"/>
<text text-anchor="start" x="155.5" y="-426.2" font-family="Helvetica,sans-Serif" font-size="11.00">6 &gt;</text>
</a>
</g>
</g>
<!-- auth_permission&#45;&gt;django_content_type -->
<g id="edge2" class="edge"><title>auth_permission:content_type_id:w&#45;&gt;django_content_type:id:e</title>
<path fill="none" stroke="black" d="M227.67,-445.346C206.593,-456.692 207.63,-493 176.5,-493"/>
<polygon fill="black" stroke="black" points="234.21,-443.819 242.819,-445.506 238.105,-442.91 242,-442 242,-442 242,-442 238.105,-442.91 241.181,-438.494 234.21,-443.819 234.21,-443.819"/>
<ellipse fill="none" stroke="black" cx="231.093" cy="-444.547" rx="3.2" ry="3.2"/>
</g>
<!-- authtoken_token -->
<g id="node4" class="node"><title>authtoken_token</title>
<g id="a_node4"><a xlink:href="../../tables/authtoken_token.html" xlink:title="authtoken_token" target="_top">
<polygon fill="#ffffff" stroke="none" points="523,-195 523,-253 669,-253 669,-195 523,-195"/>
<polygon fill="#f5f5f5" stroke="none" points="523,-231 523,-253 669,-253 669,-231 523,-231"/>
<polygon fill="none" stroke="black" points="523,-231 523,-253 669,-253 669,-231 523,-231"/>
<text text-anchor="start" x="528" y="-240.2" font-family="Helvetica,sans-Serif" font-weight="bold" font-size="11.00">authtoken_token</text>
<text text-anchor="start" x="630" y="-239.2" font-family="Helvetica,sans-Serif" font-size="11.00">[table]</text>
<polygon fill="none" stroke="black" points="523,-213 523,-231 669,-231 669,-213 523,-213"/>
<text text-anchor="start" x="526" y="-219.2" font-family="Helvetica,sans-Serif" font-size="11.00">...</text>
<polygon fill="#ffffff" stroke="none" points="523,-195 523,-213 580,-213 580,-195 523,-195"/>
<polygon fill="none" stroke="black" points="523,-195 523,-213 580,-213 580,-195 523,-195"/>
<text text-anchor="start" x="526" y="-201.2" font-family="Helvetica,sans-Serif" font-size="11.00">&lt; 1</text>
<polygon fill="#ffffff" stroke="none" points="580,-195 580,-213 639,-213 639,-195 580,-195"/>
<polygon fill="none" stroke="black" points="580,-195 580,-213 639,-213 639,-195 580,-195"/>
<text text-anchor="start" x="600" y="-201.2" font-family="Helvetica,sans-Serif" font-size="11.00">4 rows</text>
<polygon fill="#ffffff" stroke="none" points="639,-195 639,-213 669,-213 669,-195 639,-195"/>
<polygon fill="none" stroke="black" points="639,-195 639,-213 669,-213 669,-195 639,-195"/>
<text text-anchor="start" x="659" y="-201.2" font-family="Helvetica,sans-Serif" font-size="11.00"> &#160;</text>
</a>
</g>
</g>
<!-- galaxy_user -->
<g id="node5" class="node"><title>galaxy_user</title>
<g id="a_node5"><a xlink:href="../../tables/galaxy_user.html" xlink:title="galaxy_user" target="_top">
<polygon fill="#ffffff" stroke="none" points="256.5,-153 256.5,-255 371.5,-255 371.5,-153 256.5,-153"/>
<polygon fill="#f5f5f5" stroke="none" points="257,-233 257,-255 372,-255 372,-233 257,-233"/>
<polygon fill="none" stroke="black" points="257,-233 257,-255 372,-255 372,-233 257,-233"/>
<text text-anchor="start" x="262" y="-242.2" font-family="Helvetica,sans-Serif" font-weight="bold" font-size="11.00">galaxy_user</text>
<text text-anchor="start" x="333" y="-241.2" font-family="Helvetica,sans-Serif" font-size="11.00">[table]</text>
<polygon fill="none" stroke="black" points="257,-211 257,-233 372,-233 372,-211 257,-211"/>
<image xlink:href="../../images/primaryKeys.png" width="11px" height="12px" preserveAspectRatio="xMinYMin meet" x="262" y="-228"/>
<text text-anchor="start" x="287" y="-219.2" font-family="Helvetica,sans-Serif" font-size="11.00">id</text>
<polygon fill="#ffffff" stroke="none" points="257,-189 257,-211 372,-211 372,-189 257,-189"/>
<polygon fill="none" stroke="black" points="257,-189 257,-211 372,-211 372,-189 257,-189"/>
<text text-anchor="start" x="287" y="-197.2" font-family="Helvetica,sans-Serif" font-size="11.00">username</text>
<polygon fill="none" stroke="black" points="257,-171 257,-189 372,-189 372,-171 257,-171"/>
<text text-anchor="start" x="260" y="-177.2" font-family="Helvetica,sans-Serif" font-size="11.00">...</text>
<polygon fill="#ffffff" stroke="none" points="257,-153 257,-171 285,-171 285,-153 257,-153"/>
<polygon fill="none" stroke="black" points="257,-153 257,-171 285,-171 285,-153 257,-153"/>
<text text-anchor="start" x="260" y="-159.2" font-family="Helvetica,sans-Serif" font-size="11.00"> &#160;</text>
<polygon fill="#ffffff" stroke="none" points="285,-153 285,-171 341,-171 341,-153 285,-153"/>
<polygon fill="none" stroke="black" points="285,-153 285,-171 341,-171 341,-153 285,-153"/>
<text text-anchor="start" x="295" y="-159.2" font-family="Helvetica,sans-Serif" font-size="11.00">17 rows</text>
<polygon fill="#ffffff" stroke="none" points="341,-153 341,-171 372,-171 372,-153 341,-153"/>
<polygon fill="none" stroke="black" points="341,-153 341,-171 372,-171 372,-153 341,-153"/>
<text text-anchor="start" x="352" y="-159.2" font-family="Helvetica,sans-Serif" font-size="11.00">5 &gt;</text>
</a>
</g>
</g>
<!-- authtoken_token&#45;&gt;galaxy_user -->
<g id="edge3" class="edge"><title>authtoken_token:elipses:w&#45;&gt;galaxy_user:id:e</title>
<path fill="none" stroke="black" d="M511.565,-222C453.818,-222 435.601,-222 373,-222"/>
<polygon fill="black" stroke="black" points="521.2,-218 521.2,-226 519.6,-226 519.6,-218 521.2,-218"/>
<polyline fill="none" stroke="black" points="522,-222 518,-222 "/>
<ellipse fill="none" stroke="black" cx="514.8" cy="-222" rx="3.2" ry="3.2"/>
</g>
<!-- core_createdresource -->
<g id="node6" class="node"><title>core_createdresource</title>
<g id="a_node6"><a xlink:href="../../tables/core_createdresource.html" xlink:title="core_createdresource" target="_top">
<polygon fill="#ffffff" stroke="none" points="228,-597 228,-655 400,-655 400,-597 228,-597"/>
<polygon fill="#f5f5f5" stroke="none" points="228,-633 228,-655 400,-655 400,-633 228,-633"/>
<polygon fill="none" stroke="black" points="228,-633 228,-655 400,-655 400,-633 228,-633"/>
<text text-anchor="start" x="233" y="-642.2" font-family="Helvetica,sans-Serif" font-weight="bold" font-size="11.00">core_createdresource</text>
<text text-anchor="start" x="361" y="-641.2" font-family="Helvetica,sans-Serif" font-size="11.00">[table]</text>
<polygon fill="none" stroke="black" points="228,-615 228,-633 400,-633 400,-615 228,-615"/>
<text text-anchor="start" x="231" y="-621.2" font-family="Helvetica,sans-Serif" font-size="11.00">...</text>
<polygon fill="#ffffff" stroke="none" points="228,-597 228,-615 291,-615 291,-597 228,-597"/>
<polygon fill="none" stroke="black" points="228,-597 228,-615 291,-615 291,-597 228,-597"/>
<text text-anchor="start" x="231" y="-603.2" font-family="Helvetica,sans-Serif" font-size="11.00">&lt; 2</text>
<polygon fill="#ffffff" stroke="none" points="291,-597 291,-615 366,-615 366,-597 291,-597"/>
<polygon fill="none" stroke="black" points="291,-597 291,-615 366,-615 366,-597 291,-597"/>
<text text-anchor="start" x="314" y="-603.2" font-family="Helvetica,sans-Serif" font-size="11.00">365 rows</text>
<polygon fill="#ffffff" stroke="none" points="366,-597 366,-615 400,-615 400,-597 366,-597"/>
<polygon fill="none" stroke="black" points="366,-597 366,-615 400,-615 400,-597 366,-597"/>
<text text-anchor="start" x="390" y="-603.2" font-family="Helvetica,sans-Serif" font-size="11.00"> &#160;</text>
</a>
</g>
</g>
<!-- core_createdresource&#45;&gt;django_content_type -->
<g id="edge4" class="edge"><title>core_createdresource:elipses:w&#45;&gt;django_content_type:id:e</title>
<path fill="none" stroke="black" d="M212.829,-620.762C177.331,-600.589 233.049,-493 176.5,-493"/>
<polygon fill="black" stroke="black" points="219.201,-622.218 226.198,-627.51 223.101,-623.109 227,-624 227,-624 227,-624 223.101,-623.109 227.802,-620.49 219.201,-622.218 219.201,-622.218"/>
<ellipse fill="none" stroke="black" cx="216.081" cy="-621.505" rx="3.2" ry="3.2"/>
</g>
<!-- core_exportedresource -->
<g id="node7" class="node"><title>core_exportedresource</title>
<g id="a_node7"><a xlink:href="../../tables/core_exportedresource.html" xlink:title="core_exportedresource" target="_top">
<polygon fill="#ffffff" stroke="none" points="224,-518 224,-576 404,-576 404,-518 224,-518"/>
<polygon fill="#f5f5f5" stroke="none" points="224,-554 224,-576 404,-576 404,-554 224,-554"/>
<polygon fill="none" stroke="black" points="224,-554 224,-576 404,-576 404,-554 224,-554"/>
<text text-anchor="start" x="229" y="-563.2" font-family="Helvetica,sans-Serif" font-weight="bold" font-size="11.00">core_exportedresource</text>
<text text-anchor="start" x="365" y="-562.2" font-family="Helvetica,sans-Serif" font-size="11.00">[table]</text>
<polygon fill="none" stroke="black" points="224,-536 224,-554 404,-554 404,-536 224,-536"/>
<text text-anchor="start" x="227" y="-542.2" font-family="Helvetica,sans-Serif" font-size="11.00">...</text>
<polygon fill="#ffffff" stroke="none" points="224,-518 224,-536 298,-536 298,-518 224,-518"/>
<polygon fill="none" stroke="black" points="224,-518 224,-536 298,-536 298,-518 224,-518"/>
<text text-anchor="start" x="227" y="-524.2" font-family="Helvetica,sans-Serif" font-size="11.00">&lt; 2</text>
<polygon fill="#ffffff" stroke="none" points="298,-518 298,-536 365,-536 365,-518 298,-518"/>
<polygon fill="none" stroke="black" points="298,-518 298,-536 365,-536 365,-518 298,-518"/>
<text text-anchor="start" x="326" y="-524.2" font-family="Helvetica,sans-Serif" font-size="11.00">0 rows</text>
<polygon fill="#ffffff" stroke="none" points="365,-518 365,-536 404,-536 404,-518 365,-518"/>
<polygon fill="none" stroke="black" points="365,-518 365,-536 404,-536 404,-518 365,-518"/>
<text text-anchor="start" x="394" y="-524.2" font-family="Helvetica,sans-Serif" font-size="11.00"> &#160;</text>
</a>
</g>
</g>
<!-- core_exportedresource&#45;&gt;django_content_type -->
<g id="edge5" class="edge"><title>core_exportedresource:elipses:w&#45;&gt;django_content_type:id:e</title>
<path fill="none" stroke="black" d="M209.463,-539.824C196.28,-526.671 201.448,-493 176.5,-493"/>
<polygon fill="black" stroke="black" points="215.528,-542.143 221.714,-548.363 219.264,-543.571 223,-545 223,-545 223,-545 219.264,-543.571 224.286,-541.637 215.528,-542.143 215.528,-542.143"/>
<ellipse fill="none" stroke="black" cx="212.539" cy="-541" rx="3.20001" ry="3.20001"/>
</g>
<!-- django_admin_log -->
<g id="node8" class="node"><title>django_admin_log</title>
<g id="a_node8"><a xlink:href="../../tables/django_admin_log.html" xlink:title="django_admin_log" target="_top">
<polygon fill="#ffffff" stroke="none" points="521.5,-37 521.5,-95 670.5,-95 670.5,-37 521.5,-37"/>
<polygon fill="#f5f5f5" stroke="none" points="522,-73 522,-95 671,-95 671,-73 522,-73"/>
<polygon fill="none" stroke="black" points="522,-73 522,-95 671,-95 671,-73 522,-73"/>
<text text-anchor="start" x="527" y="-82.2" font-family="Helvetica,sans-Serif" font-weight="bold" font-size="11.00">django_admin_log</text>
<text text-anchor="start" x="632" y="-81.2" font-family="Helvetica,sans-Serif" font-size="11.00">[table]</text>
<polygon fill="none" stroke="black" points="522,-55 522,-73 671,-73 671,-55 522,-55"/>
<text text-anchor="start" x="525" y="-61.2" font-family="Helvetica,sans-Serif" font-size="11.00">...</text>
<polygon fill="#ffffff" stroke="none" points="522,-37 522,-55 574,-55 574,-37 522,-37"/>
<polygon fill="none" stroke="black" points="522,-37 522,-55 574,-55 574,-37 522,-37"/>
<text text-anchor="start" x="525" y="-43.2" font-family="Helvetica,sans-Serif" font-size="11.00">&lt; 2</text>
<polygon fill="#ffffff" stroke="none" points="574,-37 574,-55 643,-55 643,-37 574,-37"/>
<polygon fill="none" stroke="black" points="574,-37 574,-55 643,-55 643,-37 574,-37"/>
<text text-anchor="start" x="591" y="-43.2" font-family="Helvetica,sans-Serif" font-size="11.00">229 rows</text>
<polygon fill="#ffffff" stroke="none" points="643,-37 643,-55 671,-55 671,-37 643,-37"/>
<polygon fill="none" stroke="black" points="643,-37 643,-55 671,-55 671,-37 643,-37"/>
<text text-anchor="start" x="661" y="-43.2" font-family="Helvetica,sans-Serif" font-size="11.00"> &#160;</text>
</a>
</g>
</g>
<!-- django_admin_log&#45;&gt;django_content_type -->
<g id="edge6" class="edge"><title>django_admin_log:elipses:w&#45;&gt;django_content_type:id:e</title>
<path fill="none" stroke="black" d="M506.487,-63.9049C375.911,-62.2283 304.635,-40.1733 216,-142 164.465,-201.205 254.992,-493 176.5,-493"/>
<polygon fill="black" stroke="black" points="513,-63.9475 520.976,-67.5999 517,-63.9738 521,-64 521,-64 521,-64 517,-63.9738 521.024,-60.4001 513,-63.9475 513,-63.9475"/>
<ellipse fill="none" stroke="black" cx="509.8" cy="-63.9265" rx="3.2" ry="3.2"/>
</g>
<!-- django_admin_log&#45;&gt;galaxy_user -->
<g id="edge7" class="edge"><title>django_admin_log:elipses:w&#45;&gt;galaxy_user:id:e</title>
<path fill="none" stroke="black" d="M506.379,-64.8607C479.527,-68.3505 468.976,-82.3511 445,-105 400.615,-146.928 434.057,-222 373,-222"/>
<polygon fill="black" stroke="black" points="513.014,-64.4701 521.212,-67.5938 517.007,-64.2351 521,-64 521,-64 521,-64 517.007,-64.2351 520.788,-60.4062 513.014,-64.4701 513.014,-64.4701"/>
<ellipse fill="none" stroke="black" cx="509.819" cy="-64.6582" rx="3.2" ry="3.2"/>
</g>
<!-- galaxy_user_groups -->
<g id="node9" class="node"><title>galaxy_user_groups</title>
<g id="a_node9"><a xlink:href="../../tables/galaxy_user_groups.html" xlink:title="galaxy_user_groups" target="_top">
<polygon fill="#ffffff" stroke="none" points="517.5,-116 517.5,-174 674.5,-174 674.5,-116 517.5,-116"/>
<polygon fill="#f5f5f5" stroke="none" points="518,-152 518,-174 675,-174 675,-152 518,-152"/>
<polygon fill="none" stroke="black" points="518,-152 518,-174 675,-174 675,-152 518,-152"/>
<text text-anchor="start" x="523" y="-161.2" font-family="Helvetica,sans-Serif" font-weight="bold" font-size="11.00">galaxy_user_groups</text>
<text text-anchor="start" x="636" y="-160.2" font-family="Helvetica,sans-Serif" font-size="11.00">[table]</text>
<polygon fill="none" stroke="black" points="518,-134 518,-152 675,-152 675,-134 518,-134"/>
<text text-anchor="start" x="521" y="-140.2" font-family="Helvetica,sans-Serif" font-size="11.00">...</text>
<polygon fill="#ffffff" stroke="none" points="518,-116 518,-134 577,-134 577,-116 518,-116"/>
<polygon fill="none" stroke="black" points="518,-116 518,-134 577,-134 577,-116 518,-116"/>
<text text-anchor="start" x="521" y="-122.2" font-family="Helvetica,sans-Serif" font-size="11.00">&lt; 2</text>
<polygon fill="#ffffff" stroke="none" points="577,-116 577,-134 644,-134 644,-116 577,-116"/>
<polygon fill="none" stroke="black" points="577,-116 577,-134 644,-134 644,-116 577,-116"/>
<text text-anchor="start" x="598" y="-122.2" font-family="Helvetica,sans-Serif" font-size="11.00">18 rows</text>
<polygon fill="#ffffff" stroke="none" points="644,-116 644,-134 675,-134 675,-116 644,-116"/>
<polygon fill="none" stroke="black" points="644,-116 644,-134 675,-134 675,-116 644,-116"/>
<text text-anchor="start" x="665" y="-122.2" font-family="Helvetica,sans-Serif" font-size="11.00"> &#160;</text>
</a>
</g>
</g>
<!-- galaxy_user_groups&#45;&gt;galaxy_user -->
<g id="edge8" class="edge"><title>galaxy_user_groups:elipses:w&#45;&gt;galaxy_user:id:e</title>
<path fill="none" stroke="black" d="M502.292,-144.178C443.898,-154.005 440.723,-222 373,-222"/>
<polygon fill="black" stroke="black" points="509.026,-143.639 517.287,-146.589 513.013,-143.319 517,-143 517,-143 517,-143 513.013,-143.319 516.713,-139.411 509.026,-143.639 509.026,-143.639"/>
<ellipse fill="none" stroke="black" cx="505.836" cy="-143.894" rx="3.2" ry="3.2"/>
</g>
<!-- galaxy_user_user_permissions -->
<g id="node10" class="node"><title>galaxy_user_user_permissions</title>
<g id="a_node10"><a xlink:href="../../tables/galaxy_user_user_permissions.html" xlink:title="galaxy_user_user_permissions" target="_top">
<polygon fill="#ffffff" stroke="none" points="487.5,-449 487.5,-507 704.5,-507 704.5,-449 487.5,-449"/>
<polygon fill="#f5f5f5" stroke="none" points="488,-485 488,-507 705,-507 705,-485 488,-485"/>
<polygon fill="none" stroke="black" points="488,-485 488,-507 705,-507 705,-485 488,-485"/>
<text text-anchor="start" x="493" y="-494.2" font-family="Helvetica,sans-Serif" font-weight="bold" font-size="11.00">galaxy_user_user_permissions</text>
<text text-anchor="start" x="666" y="-493.2" font-family="Helvetica,sans-Serif" font-size="11.00">[table]</text>
<polygon fill="none" stroke="black" points="488,-467 488,-485 705,-485 705,-467 488,-467"/>
<text text-anchor="start" x="491" y="-473.2" font-family="Helvetica,sans-Serif" font-size="11.00">...</text>
<polygon fill="#ffffff" stroke="none" points="488,-449 488,-467 580,-467 580,-449 488,-449"/>
<polygon fill="none" stroke="black" points="488,-449 488,-467 580,-467 580,-449 488,-449"/>
<text text-anchor="start" x="491" y="-455.2" font-family="Helvetica,sans-Serif" font-size="11.00">&lt; 2</text>
<polygon fill="#ffffff" stroke="none" points="580,-449 580,-467 657,-467 657,-449 580,-449"/>
<polygon fill="none" stroke="black" points="580,-449 580,-467 657,-467 657,-449 580,-449"/>
<text text-anchor="start" x="618" y="-455.2" font-family="Helvetica,sans-Serif" font-size="11.00">0 rows</text>
<polygon fill="#ffffff" stroke="none" points="657,-449 657,-467 705,-467 705,-449 657,-449"/>
<polygon fill="none" stroke="black" points="657,-449 657,-467 705,-467 705,-449 657,-449"/>
<text text-anchor="start" x="695" y="-455.2" font-family="Helvetica,sans-Serif" font-size="11.00"> &#160;</text>
</a>
</g>
</g>
<!-- galaxy_user_user_permissions&#45;&gt;auth_permission -->
<g id="edge9" class="edge"><title>galaxy_user_user_permissions:elipses:w&#45;&gt;auth_permission:id:e</title>
<path fill="none" stroke="black" d="M472.565,-475.544C439.311,-473.352 426.518,-464 387,-464"/>
<polygon fill="black" stroke="black" points="479.004,-475.747 486.886,-479.598 483.002,-475.874 487,-476 487,-476 487,-476 483.002,-475.874 487.114,-472.402 479.004,-475.747 479.004,-475.747"/>
<ellipse fill="none" stroke="black" cx="475.806" cy="-475.646" rx="3.2" ry="3.2"/>
</g>
<!-- galaxy_user_user_permissions&#45;&gt;galaxy_user -->
<g id="edge10" class="edge"><title>galaxy_user_user_permissions:elipses:w&#45;&gt;galaxy_user:id:e</title>
<path fill="none" stroke="black" d="M472.433,-474.633C374.258,-454.641 491.421,-222 373,-222"/>
<polygon fill="black" stroke="black" points="479.035,-475.253 486.664,-479.584 483.017,-475.626 487,-476 487,-476 487,-476 483.017,-475.626 487.336,-472.416 479.035,-475.253 479.035,-475.253"/>
<ellipse fill="none" stroke="black" cx="475.849" cy="-474.954" rx="3.2" ry="3.2"/>
</g>
<!-- guardian_groupobjectpermission -->
<g id="node11" class="node"><title>guardian_groupobjectpermission</title>
<g id="a_node11"><a xlink:href="../../tables/guardian_groupobjectpermission.html" xlink:title="guardian_groupobjectpermission" target="_top">
<polygon fill="#ffffff" stroke="none" points="478,-629 478,-687 714,-687 714,-629 478,-629"/>
<polygon fill="#f5f5f5" stroke="none" points="478,-665 478,-687 714,-687 714,-665 478,-665"/>
<polygon fill="none" stroke="black" points="478,-665 478,-687 714,-687 714,-665 478,-665"/>
<text text-anchor="start" x="483" y="-674.2" font-family="Helvetica,sans-Serif" font-weight="bold" font-size="11.00">guardian_groupobjectpermission</text>
<text text-anchor="start" x="675" y="-673.2" font-family="Helvetica,sans-Serif" font-size="11.00">[table]</text>
<polygon fill="none" stroke="black" points="478,-647 478,-665 714,-665 714,-647 478,-647"/>
<text text-anchor="start" x="481" y="-653.2" font-family="Helvetica,sans-Serif" font-size="11.00">...</text>
<polygon fill="#ffffff" stroke="none" points="478,-629 478,-647 573,-647 573,-629 478,-629"/>
<polygon fill="none" stroke="black" points="478,-629 478,-647 573,-647 573,-629 478,-629"/>
<text text-anchor="start" x="481" y="-635.2" font-family="Helvetica,sans-Serif" font-size="11.00">&lt; 3</text>
<polygon fill="#ffffff" stroke="none" points="573,-629 573,-647 664,-647 664,-629 573,-629"/>
<polygon fill="none" stroke="black" points="573,-629 573,-647 664,-647 664,-629 573,-629"/>
<text text-anchor="start" x="612" y="-635.2" font-family="Helvetica,sans-Serif" font-size="11.00">168 rows</text>
<polygon fill="#ffffff" stroke="none" points="664,-629 664,-647 714,-647 714,-629 664,-629"/>
<polygon fill="none" stroke="black" points="664,-629 664,-647 714,-647 714,-629 664,-629"/>
<text text-anchor="start" x="704" y="-635.2" font-family="Helvetica,sans-Serif" font-size="11.00"> &#160;</text>
</a>
</g>
</g>
<!-- guardian_groupobjectpermission&#45;&gt;auth_permission -->
<g id="edge12" class="edge"><title>guardian_groupobjectpermission:elipses:w&#45;&gt;auth_permission:id:e</title>
<path fill="none" stroke="black" d="M462.341,-654.1C393.637,-634.159 475.721,-464 387,-464"/>
<polygon fill="black" stroke="black" points="469.066,-654.971 476.537,-659.57 473.033,-655.486 477,-656 477,-656 477,-656 473.033,-655.486 477.463,-652.43 469.066,-654.971 469.066,-654.971"/>
<ellipse fill="none" stroke="black" cx="465.893" cy="-654.56" rx="3.2" ry="3.2"/>
</g>
<!-- guardian_groupobjectpermission&#45;&gt;django_content_type -->
<g id="edge11" class="edge"><title>guardian_groupobjectpermission:elipses:w&#45;&gt;django_content_type:id:e</title>
<path fill="none" stroke="black" d="M462.384,-656.761C444.409,-658.772 435.565,-664.198 412,-666 325.142,-672.642 284.108,-720.31 216,-666 154.337,-616.829 255.368,-493 176.5,-493"/>
<polygon fill="black" stroke="black" points="469.011,-656.416 477.187,-659.595 473.005,-656.208 477,-656 477,-656 477,-656 473.005,-656.208 476.813,-652.405 469.011,-656.416 469.011,-656.416"/>
<ellipse fill="none" stroke="black" cx="465.815" cy="-656.582" rx="3.2" ry="3.2"/>
</g>
<!-- guardian_userobjectpermission -->
<g id="node12" class="node"><title>guardian_userobjectpermission</title>
<g id="a_node12"><a xlink:href="../../tables/guardian_userobjectpermission.html" xlink:title="guardian_userobjectpermission" target="_top">
<polygon fill="#ffffff" stroke="none" points="453,-274 453,-428 739,-428 739,-274 453,-274"/>
<polygon fill="#f5f5f5" stroke="none" points="455,-404 455,-426 737,-426 737,-404 455,-404"/>
<polygon fill="none" stroke="black" points="455,-404 455,-426 737,-426 737,-404 455,-404"/>
<text text-anchor="start" x="460" y="-413.2" font-family="Helvetica,sans-Serif" font-weight="bold" font-size="11.00">guardian_userobjectpermission</text>
<text text-anchor="start" x="698" y="-412.2" font-family="Helvetica,sans-Serif" font-size="11.00">[table]</text>
<polygon fill="none" stroke="black" points="455,-382 455,-404 664,-404 664,-382 455,-382"/>
<image xlink:href="../../images/primaryKeys.png" width="11px" height="12px" preserveAspectRatio="xMinYMin meet" x="460" y="-399"/>
<text text-anchor="start" x="475" y="-390.2" font-family="Helvetica,sans-Serif" font-size="11.00">id</text>
<polygon fill="none" stroke="black" points="664,-382 664,-404 737,-404 737,-382 664,-382"/>
<text text-anchor="start" x="667" y="-390.2" font-family="Helvetica,sans-Serif" font-size="11.00">serial[10]</text>
<polygon fill="#ffffff" stroke="none" points="455,-360 455,-382 664,-382 664,-360 455,-360"/>
<polygon fill="none" stroke="black" points="455,-360 455,-382 664,-382 664,-360 455,-360"/>
<text text-anchor="start" x="475" y="-368.2" font-family="Helvetica,sans-Serif" font-size="11.00">object_pk</text>
<polygon fill="none" stroke="black" points="664,-360 664,-382 737,-382 737,-360 664,-360"/>
<text text-anchor="start" x="667" y="-368.2" font-family="Helvetica,sans-Serif" font-size="11.00">varchar[255]</text>
<polygon fill="#ffffff" stroke="none" points="455,-338 455,-360 664,-360 664,-338 455,-338"/>
<polygon fill="none" stroke="black" points="455,-338 455,-360 664,-360 664,-338 455,-338"/>
<image xlink:href="../../images/foreignKeys.png" width="11px" height="12px" preserveAspectRatio="xMinYMin meet" x="460" y="-355"/>
<text text-anchor="start" x="475" y="-346.2" font-family="Helvetica,sans-Serif" font-size="11.00">content_type_id</text>
<polygon fill="none" stroke="black" points="664,-338 664,-360 737,-360 737,-338 664,-338"/>
<text text-anchor="start" x="667" y="-346.2" font-family="Helvetica,sans-Serif" font-size="11.00">int4[10]</text>
<polygon fill="#ffffff" stroke="none" points="455,-316 455,-338 664,-338 664,-316 455,-316"/>
<polygon fill="none" stroke="black" points="455,-316 455,-338 664,-338 664,-316 455,-316"/>
<image xlink:href="../../images/foreignKeys.png" width="11px" height="12px" preserveAspectRatio="xMinYMin meet" x="460" y="-333"/>
<text text-anchor="start" x="475" y="-324.2" font-family="Helvetica,sans-Serif" font-size="11.00">permission_id</text>
<polygon fill="none" stroke="black" points="664,-316 664,-338 737,-338 737,-316 664,-316"/>
<text text-anchor="start" x="667" y="-324.2" font-family="Helvetica,sans-Serif" font-size="11.00">int4[10]</text>
<polygon fill="#ffffff" stroke="none" points="455,-294 455,-316 664,-316 664,-294 455,-294"/>
<polygon fill="none" stroke="black" points="455,-294 455,-316 664,-316 664,-294 455,-294"/>
<image xlink:href="../../images/foreignKeys.png" width="11px" height="12px" preserveAspectRatio="xMinYMin meet" x="460" y="-311"/>
<text text-anchor="start" x="475" y="-302.2" font-family="Helvetica,sans-Serif" font-size="11.00">user_id</text>
<polygon fill="none" stroke="black" points="664,-294 664,-316 737,-316 737,-294 664,-294"/>
<text text-anchor="start" x="667" y="-302.2" font-family="Helvetica,sans-Serif" font-size="11.00">int4[10]</text>
<polygon fill="#ffffff" stroke="none" points="455,-276 455,-294 550,-294 550,-276 455,-276"/>
<polygon fill="none" stroke="black" points="455,-276 455,-294 550,-294 550,-276 455,-276"/>
<text text-anchor="start" x="458" y="-282.2" font-family="Helvetica,sans-Serif" font-size="11.00">&lt; 3</text>
<polygon fill="#ffffff" stroke="none" points="550,-276 550,-294 664,-294 664,-276 550,-276"/>
<polygon fill="none" stroke="black" points="550,-276 550,-294 664,-294 664,-276 550,-276"/>
<text text-anchor="start" x="625" y="-282.2" font-family="Helvetica,sans-Serif" font-size="11.00">0 rows</text>
<polygon fill="#ffffff" stroke="none" points="664,-276 664,-294 737,-294 737,-276 664,-276"/>
<polygon fill="none" stroke="black" points="664,-276 664,-294 737,-294 737,-276 664,-276"/>
<text text-anchor="start" x="717" y="-282.2" font-family="Helvetica,sans-Serif" font-size="11.00">0 &gt;</text>
<polygon fill="none" stroke="black" stroke-width="2" points="454,-275 454,-427 738,-427 738,-275 454,-275"/>
</a>
</g>
</g>
<!-- guardian_userobjectpermission&#45;&gt;auth_permission -->
<g id="edge14" class="edge"><title>guardian_userobjectpermission:permission_id:w&#45;&gt;auth_permission:id:e</title>
<path fill="none" stroke="black" d="M439.646,-329.737C396.774,-349.045 449.088,-464 387,-464"/>
<polygon fill="black" stroke="black" points="446.142,-328.498 454.674,-330.536 450.071,-327.749 454,-327 454,-327 454,-327 450.071,-327.749 453.326,-323.464 446.142,-328.498 446.142,-328.498"/>
<ellipse fill="none" stroke="black" cx="442.998" cy="-329.098" rx="3.2" ry="3.2"/>
</g>
<!-- guardian_userobjectpermission&#45;&gt;django_content_type -->
<g id="edge13" class="edge"><title>guardian_userobjectpermission:content_type_id:w&#45;&gt;django_content_type:id:e</title>
<path fill="none" stroke="black" d="M439.467,-348.677C343.388,-344.422 295.331,-300.499 216,-363 168.567,-400.37 236.886,-493 176.5,-493"/>
<polygon fill="black" stroke="black" points="446.002,-348.822 453.92,-352.599 450.001,-348.911 454,-349 454,-349 454,-349 450.001,-348.911 454.08,-345.401 446.002,-348.822 446.002,-348.822"/>
<ellipse fill="none" stroke="black" cx="442.803" cy="-348.751" rx="3.2" ry="3.2"/>
</g>
<!-- guardian_userobjectpermission&#45;&gt;galaxy_user -->
<g id="edge15" class="edge"><title>guardian_userobjectpermission:user_id:w&#45;&gt;galaxy_user:id:e</title>
<path fill="none" stroke="black" d="M439.537,-302.238C406.407,-287.837 418.906,-222 373,-222"/>
<polygon fill="black" stroke="black" points="446.142,-303.5 453.325,-308.536 450.071,-304.25 454,-305 454,-305 454,-305 450.071,-304.25 454.675,-301.464 446.142,-303.5 446.142,-303.5"/>
<ellipse fill="none" stroke="black" cx="442.999" cy="-302.899" rx="3.2" ry="3.2"/>
</g>
</g>
</svg>
